{
	"asset":{
		"generator":"Khronos glTF Blender I/O v3.6.27",
		"version":"2.0"
	},
	"extensionsUsed":[
		"KHR_materials_transmission",
		"KHR_materials_specular",
		"KHR_materials_ior"
	],
	"scene":0,
	"scenes":[
		{
			"extras":{
				"vs":{
					"export_list":[
						{
							"name":"Collection 1.dmx",
							"collection":null,
							"ob_type":"COLLECTION",
							"icon":"GROUP"
						}
					]
				},
				"scatter_properties":{},
				"batch_export":{
					"file_format":6,
					"apply_mods":1,
					"gltf_preset":"NO_PRESET",
					"set_scale":1,
					"prefix":"",
					"directory":"//batchgltf\\",
					"mode":1,
					"suffix":""
				}
			},
			"name":"Scene",
			"nodes":[
				0
			]
		}
	],
	"nodes":[
		{
			"extras":{
				"vs":{}
			},
			"mesh":0,
			"name":"Spoon"
		}
	],
	"materials":[
		{
			"doubleSided":true,
			"emissiveFactor":[
				0.028989160487885357,
				0.32762229054119274,
				0.1201647238610466
			],
			"extensions":{
				"KHR_materials_transmission":{
					"transmissionFactor":0.523255467414856
				},
				"KHR_materials_specular":{
					"specularColorFactor":[
						0.6265531800095762,
						0.6265531800095762,
						0.6265531800095762
					]
				},
				"KHR_materials_ior":{
					"ior":0.5059579014778137
				}
			},
			"name":"RandomMaterial.012",
			"pbrMetallicRoughness":{
				"baseColorTexture":{
					"index":0
				},
				"metallicFactor":0.4410002827644348,
				"roughnessFactor":0.5127339363098145
			}
		}
	],
	"meshes":[
		{
			"name":"Teapot",
			"primitives":[
				{
					"attributes":{
						"COLOR_0":0,
						"POSITION":1,
						"NORMAL":2,
						"TEXCOORD_0":3
					},
					"indices":4,
					"material":0
				}
			]
		}
	],
	"textures":[
		{
			"sampler":0,
			"source":0
		}
	],
	"images":[
		{
			"bufferView":5,
			"mimeType":"image/png",
			"name":"uv_debug"
		}
	],
	"accessors":[
		{
			"bufferView":0,
			"componentType":5126,
			"count":14376,
			"type":"VEC4"
		},
		{
			"bufferView":1,
			"componentType":5126,
			"count":14376,
			"max":[
				0.13199466466903687,
				0.07051144540309906,
				1
			],
			"min":[
				-0.13199466466903687,
				-0.08452390134334564,
				-0.21462588012218475
			],
			"type":"VEC3"
		},
		{
			"bufferView":2,
			"componentType":5126,
			"count":14376,
			"type":"VEC3"
		},
		{
			"bufferView":3,
			"componentType":5126,
			"count":14376,
			"type":"VEC2"
		},
		{
			"bufferView":4,
			"componentType":5123,
			"count":21528,
			"type":"SCALAR"
		}
	],
	"bufferViews":[
		{
			"buffer":0,
			"byteLength":230016,
			"byteOffset":0,
			"target":34962
		},
		{
			"buffer":0,
			"byteLength":172512,
			"byteOffset":230016,
			"target":34962
		},
		{
			"buffer":0,
			"byteLength":172512,
			"byteOffset":402528,
			"target":34962
		},
		{
			"buffer":0,
			"byteLength":115008,
			"byteOffset":575040,
			"target":34962
		},
		{
			"buffer":0,
			"byteLength":43056,
			"byteOffset":690048,
			"target":34963
		},
		{
			"buffer":0,
			"byteLength":40135,
			"byteOffset":733104
		}
	],
	"samplers":[
		{
			"magFilter":9729,
			"minFilter":9987
		}
	],
	"buffers":[
		{
			"byteLength":773240,
			"uri":"data:application/octet-stream;base64,"
		}
	]
}
