{
	"asset":{
		"generator":"Khronos glTF Blender I/O v3.6.27",
		"version":"2.0"
	},
	"extensionsUsed":[
		"KHR_materials_transmission",
		"KHR_materials_specular",
		"KHR_materials_ior"
	],
	"scene":0,
	"scenes":[
		{
			"extras":{
				"vs":{
					"export_list":[
						{
							"name":"Collection 1.dmx",
							"collection":null,
							"ob_type":"COLLECTION",
							"icon":"GROUP"
						}
					]
				},
				"scatter_properties":{},
				"batch_export":{
					"file_format":6,
					"apply_mods":1,
					"gltf_preset":"NO_PRESET",
					"set_scale":1,
					"prefix":"",
					"directory":"//batchgltf\\",
					"mode":1,
					"suffix":""
				}
			},
			"name":"Scene",
			"nodes":[
				0
			]
		}
	],
	"nodes":[
		{
			"extras":{
				"vs":{}
			},
			"mesh":0,
			"name":"Suzanne"
		}
	],
	"materials":[
		{
			"doubleSided":true,
			"emissiveFactor":[
				0.06407521320085152,
				0.05140834199635336,
				0.36017057200486136
			],
			"extensions":{
				"KHR_materials_transmission":{
					"transmissionFactor":0.7390835285186768
				},
				"KHR_materials_specular":{
					"specularColorFactor":[
						0.7455120950490371,
						0.7455120950490371,
						0.7455120950490371
					]
				},
				"KHR_materials_ior":{
					"ior":0.023219792172312737
				}
			},
			"name":"RandomMaterial.014",
			"pbrMetallicRoughness":{
				"baseColorTexture":{
					"index":0
				},
				"metallicFactor":0.7683662176132202,
				"roughnessFactor":0.7080373764038086
			}
		}
	],
	"meshes":[
		{
			"name":"Suzanne",
			"primitives":[
				{
					"attributes":{
						"COLOR_0":0,
						"POSITION":1,
						"NORMAL":2,
						"TEXCOORD_0":3
					},
					"indices":4,
					"material":0
				}
			]
		}
	],
	"textures":[
		{
			"sampler":0,
			"source":0
		}
	],
	"images":[
		{
			"bufferView":5,
			"mimeType":"image/png",
			"name":"uv_debug"
		}
	],
	"accessors":[
		{
			"bufferView":0,
			"componentType":5126,
			"count":3269,
			"type":"VEC4"
		},
		{
			"bufferView":1,
			"componentType":5126,
			"count":3269,
			"max":[
				1.3671875,
				0.984375,
				0.8515625
			],
			"min":[
				-1.3671875,
				-0.984375,
				-0.8515625
			],
			"type":"VEC3"
		},
		{
			"bufferView":2,
			"componentType":5126,
			"count":3269,
			"type":"VEC3"
		},
		{
			"bufferView":3,
			"componentType":5126,
			"count":3269,
			"type":"VEC2"
		},
		{
			"bufferView":4,
			"componentType":5123,
			"count":11616,
			"type":"SCALAR"
		}
	],
	"bufferViews":[
		{
			"buffer":0,
			"byteLength":52304,
			"byteOffset":0,
			"target":34962
		},
		{
			"buffer":0,
			"byteLength":39228,
			"byteOffset":52304,
			"target":34962
		},
		{
			"buffer":0,
			"byteLength":39228,
			"byteOffset":91532,
			"target":34962
		},
		{
			"buffer":0,
			"byteLength":26152,
			"byteOffset":130760,
			"target":34962
		},
		{
			"buffer":0,
			"byteLength":23232,
			"byteOffset":156912,
			"target":34963
		},
		{
			"buffer":0,
			"byteLength":40135,
			"byteOffset":180144
		}
	],
	"samplers":[
		{
			"magFilter":9729,
			"minFilter":9987
		}
	],
	"buffers":[
		{
			"byteLength":220280,
			"uri":"data:application/octet-stream;base64,"
		}
	]
}
