{
	"asset":{
		"generator":"Khronos glTF Blender I/O v3.6.27",
		"version":"2.0"
	},
	"extensionsUsed":[
		"KHR_materials_transmission",
		"KHR_materials_specular",
		"KHR_materials_ior"
	],
	"scene":0,
	"scenes":[
		{
			"extras":{
				"vs":{
					"export_list":[
						{
							"name":"Collection 1.dmx",
							"collection":null,
							"ob_type":"COLLECTION",
							"icon":"GROUP"
						}
					]
				},
				"scatter_properties":{},
				"batch_export":{
					"file_format":6,
					"apply_mods":1,
					"gltf_preset":"NO_PRESET",
					"set_scale":1,
					"prefix":"",
					"directory":"//batchgltf\\",
					"mode":1,
					"suffix":""
				}
			},
			"name":"Scene",
			"nodes":[
				0
			]
		}
	],
	"nodes":[
		{
			"mesh":0,
			"name":"Teapot"
		}
	],
	"materials":[
		{
			"doubleSided":true,
			"emissiveFactor":[
				0.13948590083894263,
				0.01229788135706289,
				0.13297882058658228
			],
			"extensions":{
				"KHR_materials_transmission":{
					"transmissionFactor":0.7794486284255981
				},
				"KHR_materials_specular":{
					"specularColorFactor":[
						0.7847544855171735,
						0.7847544855171735,
						0.7847544855171735
					]
				},
				"KHR_materials_ior":{
					"ior":0.04080682992935181
				}
			},
			"name":"RandomMaterial.015",
			"pbrMetallicRoughness":{
				"baseColorTexture":{
					"index":0
				},
				"metallicFactor":0.31641486287117004,
				"roughnessFactor":0.9443207383155823
			}
		}
	],
	"meshes":[
		{
			"name":"teapot.001",
			"primitives":[
				{
					"attributes":{
						"COLOR_0":0,
						"POSITION":1,
						"NORMAL":2,
						"TEXCOORD_0":3
					},
					"indices":4,
					"material":0
				}
			]
		}
	],
	"textures":[
		{
			"sampler":0,
			"source":0
		}
	],
	"images":[
		{
			"bufferView":5,
			"mimeType":"image/png",
			"name":"uv_debug"
		}
	],
	"accessors":[
		{
			"bufferView":0,
			"componentType":5123,
			"count":1193,
			"normalized":true,
			"type":"VEC4"
		},
		{
			"bufferView":1,
			"componentType":5126,
			"count":1193,
			"max":[
				4.017578125,
				1.96875,
				2.5
			],
			"min":[
				-4.017578125,
				-1.96875,
				-2.5
			],
			"type":"VEC3"
		},
		{
			"bufferView":2,
			"componentType":5126,
			"count":1193,
			"type":"VEC3"
		},
		{
			"bufferView":3,
			"componentType":5126,
			"count":1193,
			"type":"VEC2"
		},
		{
			"bufferView":4,
			"componentType":5123,
			"count":2976,
			"type":"SCALAR"
		}
	],
	"bufferViews":[
		{
			"buffer":0,
			"byteLength":9544,
			"byteOffset":0,
			"target":34962
		},
		{
			"buffer":0,
			"byteLength":14316,
			"byteOffset":9544,
			"target":34962
		},
		{
			"buffer":0,
			"byteLength":14316,
			"byteOffset":23860,
			"target":34962
		},
		{
			"buffer":0,
			"byteLength":9544,
			"byteOffset":38176,
			"target":34962
		},
		{
			"buffer":0,
			"byteLength":5952,
			"byteOffset":47720,
			"target":34963
		},
		{
			"buffer":0,
			"byteLength":40135,
			"byteOffset":53672
		}
	],
	"samplers":[
		{
			"magFilter":9729,
			"minFilter":9987
		}
	],
	"buffers":[
		{
			"byteLength":93808,
			"uri":"data:application/octet-stream;base64,"
		}
	]
}
