<svg xmlns="http://www.w3.org/2000/svg" shape-rendering="crispEdges" width="21" height="21" viewBox="0 0 21 21">
  <rect x="0" y="0" width="21" height="1" fill="rgb(255,255,255)" fill-opacity="0.0078125"/>
  <rect x="0" y="1" width="21" height="1" fill="rgb(255,255,255)" fill-opacity="0.0078125"/>
  <rect x="0" y="2" width="21" height="1" fill="rgb(255,255,255)" fill-opacity="0.0078125"/>
  <rect x="0" y="3" width="3" height="1" fill="rgb(255,255,255)" fill-opacity="0.0078125"/>
  <rect x="3" y="3" width="1" height="1" fill="rgb(0,20,39)" fill-opacity="0.0546875"/>
  <rect x="4" y="3" width="1" height="1" fill="rgb(24,36,52)" fill-opacity="0.3359375"/>
  <rect x="5" y="3" width="1" height="1" fill="rgb(17,29,46)" fill-opacity="0.484375"/>
  <rect x="6" y="3" width="1" height="1" fill="rgb(24,35,50)" fill-opacity="0.3828125"/>
  <rect x="7" y="3" width="1" height="1" fill="rgb(0,21,43)" fill-opacity="0.0546875"/>
  <rect x="8" y="3" width="13" height="1" fill="rgb(255,255,255)" fill-opacity="0.0078125"/>
  <rect x="0" y="4" width="3" height="1" fill="rgb(255,255,255)" fill-opacity="0.0078125"/>
  <rect x="3" y="4" width="1" height="1" fill="rgb(24,36,52)" fill-opacity="0.3359375"/>
  <rect x="4" y="4" width="1" height="1" fill="rgb(105,111,123)" fill-opacity="0.5"/>
  <rect x="5" y="4" width="1" height="1" fill="rgb(221,223,227)" fill-opacity="0.5"/>
  <rect x="6" y="4" width="1" height="1" fill="rgb(65,84,106)" fill-opacity="0.4921875"/>
  <rect x="7" y="4" width="1" height="1" fill="rgb(10,22,40)" fill-opacity="0.5"/>
  <rect x="8" y="4" width="1" height="1" fill="rgb(11,25,46)" fill-opacity="0.4453125"/>
  <rect x="9" y="4" width="1" height="1" fill="rgb(10,24,38)" fill-opacity="0.2109375"/>
  <rect x="10" y="4" width="1" height="1" fill="rgb(0,0,0)" fill-opacity="0.015625"/>
  <rect x="11" y="4" width="10" height="1" fill="rgb(255,255,255)" fill-opacity="0.0078125"/>
  <rect x="0" y="5" width="3" height="1" fill="rgb(255,255,255)" fill-opacity="0.0078125"/>
  <rect x="3" y="5" width="1" height="1" fill="rgb(17,29,46)" fill-opacity="0.484375"/>
  <rect x="4" y="5" width="1" height="1" fill="rgb(217,219,221)" fill-opacity="0.5"/>
  <rect x="5" y="5" width="1" height="1" fill="rgb(171,187,207)" fill-opacity="0.5"/>
  <rect x="6" y="5" width="1" height="1" fill="rgb(100,129,167)" fill-opacity="0.5"/>
  <rect x="7" y="5" width="1" height="1" fill="rgb(211,219,229)" fill-opacity="0.5"/>
  <rect x="8" y="5" width="1" height="1" fill="rgb(209,215,225)" fill-opacity="0.5"/>
  <rect x="9" y="5" width="1" height="1" fill="rgb(66,80,99)" fill-opacity="0.4921875"/>
  <rect x="10" y="5" width="1" height="1" fill="rgb(10,24,38)" fill-opacity="0.2109375"/>
  <rect x="11" y="5" width="10" height="1" fill="rgb(255,255,255)" fill-opacity="0.0078125"/>
  <rect x="0" y="6" width="3" height="1" fill="rgb(255,255,255)" fill-opacity="0.0078125"/>
  <rect x="3" y="6" width="1" height="1" fill="rgb(24,36,52)" fill-opacity="0.3359375"/>
  <rect x="4" y="6" width="1" height="1" fill="rgb(89,99,113)" fill-opacity="0.5"/>
  <rect x="5" y="6" width="1" height="1" fill="rgb(88,116,155)" fill-opacity="0.5"/>
  <rect x="6" y="6" width="1" height="1" fill="rgb(211,219,229)" fill-opacity="0.5"/>
  <rect x="7" y="6" width="1" height="1" fill="rgb(255,255,255)" fill-opacity="0.5"/>
  <rect x="8" y="6" width="1" height="1" fill="rgb(227,233,239)" fill-opacity="0.5"/>
  <rect x="9" y="6" width="1" height="1" fill="rgb(129,151,179)" fill-opacity="0.5"/>
  <rect x="10" y="6" width="1" height="1" fill="rgb(11,25,46)" fill-opacity="0.4453125"/>
  <rect x="11" y="6" width="10" height="1" fill="rgb(255,255,255)" fill-opacity="0.0078125"/>
  <rect x="0" y="7" width="3" height="1" fill="rgb(255,255,255)" fill-opacity="0.0078125"/>
  <rect x="3" y="7" width="1" height="1" fill="rgb(0,20,39)" fill-opacity="0.0546875"/>
  <rect x="4" y="7" width="1" height="1" fill="rgb(13,25,43)" fill-opacity="0.40625"/>
  <rect x="5" y="7" width="1" height="1" fill="rgb(12,27,47)" fill-opacity="0.4921875"/>
  <rect x="6" y="7" width="1" height="1" fill="rgb(211,219,229)" fill-opacity="0.5"/>
  <rect x="7" y="7" width="1" height="1" fill="rgb(233,237,243)" fill-opacity="0.5"/>
  <rect x="8" y="7" width="1" height="1" fill="rgb(161,179,201)" fill-opacity="0.5"/>
  <rect x="9" y="7" width="1" height="1" fill="rgb(76,108,149)" fill-opacity="0.5"/>
  <rect x="10" y="7" width="1" height="1" fill="rgb(11,25,46)" fill-opacity="0.4453125"/>
  <rect x="11" y="7" width="10" height="1" fill="rgb(255,255,255)" fill-opacity="0.0078125"/>
  <rect x="0" y="8" width="4" height="1" fill="rgb(255,255,255)" fill-opacity="0.0078125"/>
  <rect x="4" y="8" width="1" height="1" fill="rgb(13,27,45)" fill-opacity="0.453125"/>
  <rect x="5" y="8" width="1" height="1" fill="rgb(193,203,215)" fill-opacity="0.5"/>
  <rect x="6" y="8" width="1" height="1" fill="rgb(122,149,179)" fill-opacity="0.5"/>
  <rect x="7" y="8" width="1" height="1" fill="rgb(139,161,189)" fill-opacity="0.5"/>
  <rect x="8" y="8" width="1" height="1" fill="rgb(80,110,151)" fill-opacity="0.5"/>
  <rect x="9" y="8" width="1" height="1" fill="rgb(23,45,74)" fill-opacity="0.4921875"/>
  <rect x="10" y="8" width="1" height="1" fill="rgb(10,24,38)" fill-opacity="0.2109375"/>
  <rect x="11" y="8" width="2" height="1" fill="rgb(255,255,255)" fill-opacity="0.0078125"/>
  <rect x="13" y="8" width="1" height="1" fill="rgb(13,26,38)" fill-opacity="0.1640625"/>
  <rect x="14" y="8" width="1" height="1" fill="rgb(13,26,47)" fill-opacity="0.8828125"/>
  <rect x="15" y="8" width="3" height="1" fill="rgb(13,27,48)" fill-opacity="0.9140625"/>
  <rect x="18" y="8" width="1" height="1" fill="rgb(13,28,46)" fill-opacity="0.796875"/>
  <rect x="19" y="8" width="2" height="1" fill="rgb(255,255,255)" fill-opacity="0.0078125"/>
  <rect x="0" y="9" width="4" height="1" fill="rgb(255,255,255)" fill-opacity="0.0078125"/>
  <rect x="4" y="9" width="1" height="1" fill="rgb(11,25,46)" fill-opacity="0.4453125"/>
  <rect x="5" y="9" width="1" height="1" fill="rgb(189,199,209)" fill-opacity="0.5"/>
  <rect x="6" y="9" width="1" height="1" fill="rgb(40,78,126)" fill-opacity="0.5"/>
  <rect x="7" y="9" width="1" height="1" fill="rgb(10,24,40)" fill-opacity="0.5"/>
  <rect x="8" y="9" width="1" height="1" fill="rgb(11,25,46)" fill-opacity="0.4453125"/>
  <rect x="9" y="9" width="1" height="1" fill="rgb(10,24,38)" fill-opacity="0.2109375"/>
  <rect x="10" y="9" width="1" height="1" fill="rgb(0,0,0)" fill-opacity="0.015625"/>
  <rect x="11" y="9" width="1" height="1" fill="rgb(255,255,255)" fill-opacity="0.0078125"/>
  <rect x="12" y="9" width="1" height="1" fill="rgb(13,26,38)" fill-opacity="0.1640625"/>
  <rect x="13" y="9" width="1" height="1" fill="rgb(38,51,69)" fill-opacity="0.9140625"/>
  <rect x="14" y="9" width="1" height="1" fill="rgb(115,134,163)"/>
  <rect x="15" y="9" width="2" height="1" fill="rgb(122,143,174)"/>
  <rect x="17" y="9" width="1" height="1" fill="rgb(108,131,166)"/>
  <rect x="18" y="9" width="1" height="1" fill="rgb(13,27,48)" fill-opacity="0.9140625"/>
  <rect x="19" y="9" width="2" height="1" fill="rgb(255,255,255)" fill-opacity="0.0078125"/>
  <rect x="0" y="10" width="4" height="1" fill="rgb(255,255,255)" fill-opacity="0.0078125"/>
  <rect x="4" y="10" width="1" height="1" fill="rgb(8,23,38)" fill-opacity="0.140625"/>
  <rect x="5" y="10" width="1" height="1" fill="rgb(11,25,46)" fill-opacity="0.4453125"/>
  <rect x="6" y="10" width="1" height="1" fill="rgb(11,27,45)" fill-opacity="0.453125"/>
  <rect x="7" y="10" width="1" height="1" fill="rgb(8,23,39)" fill-opacity="0.1328125"/>
  <rect x="8" y="10" width="3" height="1" fill="rgb(255,255,255)" fill-opacity="0.0078125"/>
  <rect x="11" y="10" width="1" height="1" fill="rgb(13,26,38)" fill-opacity="0.1640625"/>
  <rect x="12" y="10" width="1" height="1" fill="rgb(38,51,69)" fill-opacity="0.9140625"/>
  <rect x="13" y="10" width="1" height="1" fill="rgb(111,131,160)"/>
  <rect x="14" y="10" width="1" height="1" fill="rgb(52,82,126)"/>
  <rect x="15" y="10" width="1" height="1" fill="rgb(14,29,52)" fill-opacity="0.9296875"/>
  <rect x="16" y="10" width="2" height="1" fill="rgb(13,27,48)" fill-opacity="0.9140625"/>
  <rect x="18" y="10" width="1" height="1" fill="rgb(13,28,46)" fill-opacity="0.796875"/>
  <rect x="19" y="10" width="2" height="1" fill="rgb(255,255,255)" fill-opacity="0.0078125"/>
  <rect x="0" y="11" width="3" height="1" fill="rgb(255,255,255)" fill-opacity="0.0078125"/>
  <rect x="3" y="11" width="1" height="1" fill="rgb(13,26,38)" fill-opacity="0.1640625"/>
  <rect x="4" y="11" width="1" height="1" fill="rgb(28,40,57)" fill-opacity="0.8828125"/>
  <rect x="5" y="11" width="1" height="1" fill="rgb(31,43,60)" fill-opacity="0.9140625"/>
  <rect x="6" y="11" width="1" height="1" fill="rgb(30,42,60)" fill-opacity="0.9140625"/>
  <rect x="7" y="11" width="1" height="1" fill="rgb(25,36,56)" fill-opacity="0.8828125"/>
  <rect x="8" y="11" width="1" height="1" fill="rgb(13,26,38)" fill-opacity="0.1640625"/>
  <rect x="9" y="11" width="1" height="1" fill="rgb(255,255,255)" fill-opacity="0.0078125"/>
  <rect x="10" y="11" width="1" height="1" fill="rgb(13,26,38)" fill-opacity="0.1640625"/>
  <rect x="11" y="11" width="1" height="1" fill="rgb(38,51,69)" fill-opacity="0.9140625"/>
  <rect x="12" y="11" width="1" height="1" fill="rgb(111,131,160)"/>
  <rect x="13" y="11" width="1" height="1" fill="rgb(54,86,133)"/>
  <rect x="14" y="11" width="1" height="1" fill="rgb(15,32,57)" fill-opacity="0.90625"/>
  <rect x="15" y="11" width="1" height="1" fill="rgb(11,23,41)" fill-opacity="0.2734375"/>
  <rect x="16" y="11" width="5" height="1" fill="rgb(255,255,255)" fill-opacity="0.0078125"/>
  <rect x="0" y="12" width="3" height="1" fill="rgb(255,255,255)" fill-opacity="0.0078125"/>
  <rect x="3" y="12" width="1" height="1" fill="rgb(28,40,57)" fill-opacity="0.8828125"/>
  <rect x="4" y="12" width="1" height="1" fill="rgb(208,215,227)"/>
  <rect x="5" y="12" width="1" height="1" fill="rgb(80,86,96)"/>
  <rect x="6" y="12" width="1" height="1" fill="rgb(74,82,93)"/>
  <rect x="7" y="12" width="1" height="1" fill="rgb(181,196,218)"/>
  <rect x="8" y="12" width="1" height="1" fill="rgb(22,35,55)" fill-opacity="0.8828125"/>
  <rect x="9" y="12" width="1" height="1" fill="rgb(13,26,38)" fill-opacity="0.1640625"/>
  <rect x="10" y="12" width="1" height="1" fill="rgb(44,60,79)" fill-opacity="0.9609375"/>
  <rect x="11" y="12" width="1" height="1" fill="rgb(238,238,238)"/>
  <rect x="12" y="12" width="1" height="1" fill="rgb(54,86,133)"/>
  <rect x="13" y="12" width="1" height="1" fill="rgb(22,45,80)" fill-opacity="0.90625"/>
  <rect x="14" y="12" width="1" height="1" fill="rgb(11,24,42)" fill-opacity="0.5546875"/>
  <rect x="15" y="12" width="6" height="1" fill="rgb(255,255,255)" fill-opacity="0.0078125"/>
  <rect x="0" y="13" width="3" height="1" fill="rgb(255,255,255)" fill-opacity="0.0078125"/>
  <rect x="3" y="13" width="1" height="1" fill="rgb(31,45,63)" fill-opacity="0.9453125"/>
  <rect x="4" y="13" width="1" height="1" fill="rgb(229,236,247)"/>
  <rect x="5" y="13" width="1" height="1" fill="rgb(202,217,238)"/>
  <rect x="6" y="13" width="1" height="1" fill="rgb(192,209,235)"/>
  <rect x="7" y="13" width="1" height="1" fill="rgb(153,181,222)"/>
  <rect x="8" y="13" width="1" height="1" fill="rgb(28,43,63)" fill-opacity="0.9765625"/>
  <rect x="9" y="13" width="1" height="1" fill="rgb(46,60,83)" fill-opacity="0.96875"/>
  <rect x="10" y="13" width="1" height="1" fill="rgb(139,166,203)"/>
  <rect x="11" y="13" width="1" height="1" fill="rgb(90,135,200)"/>
  <rect x="12" y="13" width="1" height="1" fill="rgb(149,149,149)"/>
  <rect x="13" y="13" width="1" height="1" fill="rgb(11,24,43)" fill-opacity="0.796875"/>
  <rect x="14" y="13" width="1" height="1" fill="rgb(0,0,51)" fill-opacity="0.0234375"/>
  <rect x="15" y="13" width="6" height="1" fill="rgb(255,255,255)" fill-opacity="0.0078125"/>
  <rect x="0" y="14" width="3" height="1" fill="rgb(255,255,255)" fill-opacity="0.0078125"/>
  <rect x="3" y="14" width="1" height="1" fill="rgb(29,43,63)" fill-opacity="0.953125"/>
  <rect x="4" y="14" width="1" height="1" fill="rgb(220,230,244)"/>
  <rect x="5" y="14" width="1" height="1" fill="rgb(153,181,222)"/>
  <rect x="6" y="14" width="1" height="1" fill="rgb(136,169,217)"/>
  <rect x="7" y="14" width="1" height="1" fill="rgb(119,156,211)"/>
  <rect x="8" y="14" width="1" height="1" fill="rgb(88,109,141)"/>
  <rect x="9" y="14" width="1" height="1" fill="rgb(148,178,220)"/>
  <rect x="10" y="14" width="1" height="1" fill="rgb(85,132,199)"/>
  <rect x="11" y="14" width="1" height="1" fill="rgb(67,116,188)"/>
  <rect x="12" y="14" width="1" height="1" fill="rgb(21,38,66)" fill-opacity="0.9453125"/>
  <rect x="13" y="14" width="1" height="1" fill="rgb(8,23,38)" fill-opacity="0.140625"/>
  <rect x="14" y="14" width="7" height="1" fill="rgb(255,255,255)" fill-opacity="0.0078125"/>
  <rect x="0" y="15" width="3" height="1" fill="rgb(255,255,255)" fill-opacity="0.0078125"/>
  <rect x="3" y="15" width="1" height="1" fill="rgb(29,42,62)" fill-opacity="0.9453125"/>
  <rect x="4" y="15" width="1" height="1" fill="rgb(199,213,236)"/>
  <rect x="5" y="15" width="1" height="1" fill="rgb(143,174,218)"/>
  <rect x="6" y="15" width="1" height="1" fill="rgb(118,156,211)"/>
  <rect x="7" y="15" width="1" height="1" fill="rgb(101,144,205)"/>
  <rect x="8" y="15" width="1" height="1" fill="rgb(84,131,199)"/>
  <rect x="9" y="15" width="1" height="1" fill="rgb(67,119,193)"/>
  <rect x="10" y="15" width="1" height="1" fill="rgb(64,116,192)"/>
  <rect x="11" y="15" width="1" height="1" fill="rgb(30,57,94)" fill-opacity="0.9609375"/>
  <rect x="12" y="15" width="1" height="1" fill="rgb(13,27,48)" fill-opacity="0.3828125"/>
  <rect x="13" y="15" width="8" height="1" fill="rgb(255,255,255)" fill-opacity="0.0078125"/>
  <rect x="0" y="16" width="3" height="1" fill="rgb(255,255,255)" fill-opacity="0.0078125"/>
  <rect x="3" y="16" width="1" height="1" fill="rgb(31,48,71)" fill-opacity="0.78125"/>
  <rect x="4" y="16" width="1" height="1" fill="rgb(142,161,189)"/>
  <rect x="5" y="16" width="1" height="1" fill="rgb(152,181,221)"/>
  <rect x="6" y="16" width="1" height="1" fill="rgb(105,146,206)"/>
  <rect x="7" y="16" width="1" height="1" fill="rgb(87,134,200)"/>
  <rect x="8" y="16" width="1" height="1" fill="rgb(73,123,195)"/>
  <rect x="9" y="16" width="1" height="1" fill="rgb(67,119,193)"/>
  <rect x="10" y="16" width="1" height="1" fill="rgb(33,66,112)" fill-opacity="0.9765625"/>
  <rect x="11" y="16" width="1" height="1" fill="rgb(13,29,52)" fill-opacity="0.6171875"/>
  <rect x="12" y="16" width="9" height="1" fill="rgb(255,255,255)" fill-opacity="0.0078125"/>
  <rect x="0" y="17" width="3" height="1" fill="rgb(255,255,255)" fill-opacity="0.0078125"/>
  <rect x="3" y="17" width="1" height="1" fill="rgb(10,20,41)" fill-opacity="0.1015625"/>
  <rect x="4" y="17" width="1" height="1" fill="rgb(27,42,65)" fill-opacity="0.9765625"/>
  <rect x="5" y="17" width="1" height="1" fill="rgb(106,134,172)"/>
  <rect x="6" y="17" width="1" height="1" fill="rgb(123,158,209)"/>
  <rect x="7" y="17" width="1" height="1" fill="rgb(98,141,203)"/>
  <rect x="8" y="17" width="1" height="1" fill="rgb(63,110,176)"/>
  <rect x="9" y="17" width="1" height="1" fill="rgb(27,55,94)" fill-opacity="0.96875"/>
  <rect x="10" y="17" width="1" height="1" fill="rgb(14,28,49)" fill-opacity="0.6484375"/>
  <rect x="11" y="17" width="1" height="1" fill="rgb(0,0,0)" fill-opacity="0.0078125"/>
  <rect x="12" y="17" width="9" height="1" fill="rgb(255,255,255)" fill-opacity="0.0078125"/>
  <rect x="0" y="18" width="4" height="1" fill="rgb(255,255,255)" fill-opacity="0.0078125"/>
  <rect x="4" y="18" width="1" height="1" fill="rgb(12,23,35)" fill-opacity="0.09375"/>
  <rect x="5" y="18" width="1" height="1" fill="rgb(16,32,54)" fill-opacity="0.6328125"/>
  <rect x="6" y="18" width="1" height="1" fill="rgb(18,34,57)" fill-opacity="0.9140625"/>
  <rect x="7" y="18" width="1" height="1" fill="rgb(15,31,55)" fill-opacity="0.9296875"/>
  <rect x="8" y="18" width="1" height="1" fill="rgb(13,28,50)" fill-opacity="0.78125"/>
  <rect x="9" y="18" width="1" height="1" fill="rgb(10,22,41)" fill-opacity="0.3203125"/>
  <rect x="10" y="18" width="1" height="1" fill="rgb(0,0,0)" fill-opacity="0.0078125"/>
  <rect x="11" y="18" width="10" height="1" fill="rgb(255,255,255)" fill-opacity="0.0078125"/>
  <rect x="0" y="19" width="21" height="1" fill="rgb(255,255,255)" fill-opacity="0.0078125"/>
  <rect x="0" y="20" width="21" height="1" fill="rgb(255,255,255)" fill-opacity="0.0078125"/>
</svg>