<svg xmlns="http://www.w3.org/2000/svg" shape-rendering="crispEdges" width="21" height="21" viewBox="0 0 21 21">
  <rect x="0" y="0" width="1" height="21" fill="rgb(255,255,255)" fill-opacity="0.0078125"/>
  <rect x="1" y="0" width="1" height="21" fill="rgb(255,255,255)" fill-opacity="0.0078125"/>
  <rect x="2" y="0" width="1" height="21" fill="rgb(255,255,255)" fill-opacity="0.0078125"/>
  <rect x="3" y="0" width="1" height="21" fill="rgb(255,255,255)" fill-opacity="0.0078125"/>
  <rect x="4" y="0" width="1" height="7" fill="rgb(255,255,255)" fill-opacity="0.0078125"/>
  <rect x="4" y="7" width="1" height="1" fill="rgb(0,64,64)" fill-opacity="0.0234375"/>
  <rect x="4" y="8" width="1" height="1" fill="rgb(23,46,82)" fill-opacity="0.390625"/>
  <rect x="4" y="9" width="1" height="1" fill="rgb(37,65,79)" fill-opacity="0.7265625"/>
  <rect x="4" y="10" width="1" height="1" fill="rgb(43,73,71)" fill-opacity="0.90625"/>
  <rect x="4" y="11" width="1" height="1" fill="rgb(29,57,83)" fill-opacity="0.8828125"/>
  <rect x="4" y="12" width="1" height="1" fill="rgb(25,50,90)" fill-opacity="0.6796875"/>
  <rect x="4" y="13" width="1" height="1" fill="rgb(23,46,82)" fill-opacity="0.390625"/>
  <rect x="4" y="14" width="1" height="1" fill="rgb(0,64,64)" fill-opacity="0.0234375"/>
  <rect x="4" y="15" width="1" height="6" fill="rgb(255,255,255)" fill-opacity="0.0078125"/>
  <rect x="5" y="0" width="1" height="6" fill="rgb(255,255,255)" fill-opacity="0.0078125"/>
  <rect x="5" y="6" width="1" height="1" fill="rgb(23,46,81)" fill-opacity="0.1796875"/>
  <rect x="5" y="7" width="1" height="1" fill="rgb(26,54,86)" fill-opacity="0.8515625"/>
  <rect x="5" y="8" width="1" height="1" fill="rgb(121,148,133)" fill-opacity="0.9921875"/>
  <rect x="5" y="9" width="1" height="1" fill="rgb(178,195,171)"/>
  <rect x="5" y="10" width="1" height="1" fill="rgb(209,219,210)"/>
  <rect x="5" y="11" width="1" height="1" fill="rgb(204,214,209)"/>
  <rect x="5" y="12" width="1" height="1" fill="rgb(161,179,205)"/>
  <rect x="5" y="13" width="1" height="1" fill="rgb(94,118,156)" fill-opacity="0.9765625"/>
  <rect x="5" y="14" width="1" height="1" fill="rgb(24,50,87)" fill-opacity="0.8515625"/>
  <rect x="5" y="15" width="1" height="1" fill="rgb(23,46,81)" fill-opacity="0.1796875"/>
  <rect x="5" y="16" width="1" height="5" fill="rgb(255,255,255)" fill-opacity="0.0078125"/>
  <rect x="6" y="0" width="1" height="5" fill="rgb(255,255,255)" fill-opacity="0.0078125"/>
  <rect x="6" y="5" width="1" height="1" fill="rgb(23,46,81)" fill-opacity="0.1796875"/>
  <rect x="6" y="6" width="1" height="1" fill="rgb(44,68,103)" fill-opacity="0.9296875"/>
  <rect x="6" y="7" width="1" height="1" fill="rgb(183,200,191)"/>
  <rect x="6" y="8" width="1" height="1" fill="rgb(204,217,193)"/>
  <rect x="6" y="9" width="1" height="1" fill="rgb(165,185,147)"/>
  <rect x="6" y="10" width="1" height="1" fill="rgb(195,209,226)"/>
  <rect x="6" y="11" width="1" height="1" fill="rgb(168,186,194)"/>
  <rect x="6" y="12" width="1" height="1" fill="rgb(145,165,144)"/>
  <rect x="6" y="13" width="1" height="1" fill="rgb(186,200,210)"/>
  <rect x="6" y="14" width="1" height="1" fill="rgb(146,168,200)"/>
  <rect x="6" y="15" width="1" height="1" fill="rgb(39,63,99)" fill-opacity="0.9296875"/>
  <rect x="6" y="16" width="1" height="1" fill="rgb(23,46,81)" fill-opacity="0.1796875"/>
  <rect x="6" y="17" width="1" height="4" fill="rgb(255,255,255)" fill-opacity="0.0078125"/>
  <rect x="7" y="0" width="1" height="4" fill="rgb(255,255,255)" fill-opacity="0.0078125"/>
  <rect x="7" y="4" width="1" height="1" fill="rgb(0,64,64)" fill-opacity="0.0234375"/>
  <rect x="7" y="5" width="1" height="1" fill="rgb(25,50,89)" fill-opacity="0.84375"/>
  <rect x="7" y="6" width="1" height="1" fill="rgb(184,200,204)"/>
  <rect x="7" y="7" width="1" height="1" fill="rgb(184,202,164)"/>
  <rect x="7" y="8" width="1" height="1" fill="rgb(126,156,91)"/>
  <rect x="7" y="9" width="1" height="1" fill="rgb(179,196,176)"/>
  <rect x="7" y="10" width="1" height="1" fill="rgb(206,217,233)"/>
  <rect x="7" y="11" width="1" height="1" fill="rgb(139,160,149)"/>
  <rect x="7" y="12" width="1" height="1" fill="rgb(82,109,50)"/>
  <rect x="7" y="13" width="1" height="1" fill="rgb(75,100,43)"/>
  <rect x="7" y="14" width="1" height="1" fill="rgb(145,164,171)"/>
  <rect x="7" y="15" width="1" height="1" fill="rgb(135,159,195)"/>
  <rect x="7" y="16" width="1" height="1" fill="rgb(25,50,89)" fill-opacity="0.84375"/>
  <rect x="7" y="17" width="1" height="1" fill="rgb(0,64,64)" fill-opacity="0.0234375"/>
  <rect x="7" y="18" width="1" height="3" fill="rgb(255,255,255)" fill-opacity="0.0078125"/>
  <rect x="8" y="0" width="1" height="4" fill="rgb(255,255,255)" fill-opacity="0.0078125"/>
  <rect x="8" y="4" width="1" height="1" fill="rgb(23,47,83)" fill-opacity="0.390625"/>
  <rect x="8" y="5" width="1" height="1" fill="rgb(105,128,163)" fill-opacity="0.9765625"/>
  <rect x="8" y="6" width="1" height="1" fill="rgb(230,235,240)"/>
  <rect x="8" y="7" width="1" height="1" fill="rgb(190,204,187)"/>
  <rect x="8" y="8" width="1" height="1" fill="rgb(183,198,173)"/>
  <rect x="8" y="9" width="1" height="1" fill="rgb(217,225,237)"/>
  <rect x="8" y="10" width="1" height="1" fill="rgb(198,210,229)"/>
  <rect x="8" y="11" width="1" height="1" fill="rgb(154,173,179)"/>
  <rect x="8" y="12" width="1" height="1" fill="rgb(77,102,45)"/>
  <rect x="8" y="13" width="1" height="1" fill="rgb(70,93,41)"/>
  <rect x="8" y="14" width="1" height="1" fill="rgb(68,87,42)"/>
  <rect x="8" y="15" width="1" height="1" fill="rgb(146,167,191)"/>
  <rect x="8" y="16" width="1" height="1" fill="rgb(76,103,146)" fill-opacity="0.96875"/>
  <rect x="8" y="17" width="1" height="1" fill="rgb(23,47,83)" fill-opacity="0.390625"/>
  <rect x="8" y="18" width="1" height="3" fill="rgb(255,255,255)" fill-opacity="0.0078125"/>
  <rect x="9" y="0" width="1" height="4" fill="rgb(255,255,255)" fill-opacity="0.0078125"/>
  <rect x="9" y="4" width="1" height="1" fill="rgb(26,51,87)" fill-opacity="0.6953125"/>
  <rect x="9" y="5" width="1" height="1" fill="rgb(181,198,186)"/>
  <rect x="9" y="6" width="1" height="1" fill="rgb(224,230,235)"/>
  <rect x="9" y="7" width="1" height="1" fill="rgb(227,233,242)"/>
  <rect x="9" y="8" width="1" height="1" fill="rgb(238,241,247)"/>
  <rect x="9" y="9" width="1" height="1" fill="rgb(202,213,231)"/>
  <rect x="9" y="10" width="1" height="1" fill="rgb(179,196,221)"/>
  <rect x="9" y="11" width="1" height="1" fill="rgb(153,176,209)"/>
  <rect x="9" y="12" width="1" height="1" fill="rgb(114,142,167)"/>
  <rect x="9" y="13" width="1" height="1" fill="rgb(99,133,182)"/>
  <rect x="9" y="14" width="1" height="1" fill="rgb(81,117,167)"/>
  <rect x="9" y="15" width="1" height="1" fill="rgb(96,124,147)"/>
  <rect x="9" y="16" width="1" height="1" fill="rgb(109,137,179)"/>
  <rect x="9" y="17" width="1" height="1" fill="rgb(25,50,89)" fill-opacity="0.6875"/>
  <rect x="9" y="18" width="1" height="3" fill="rgb(255,255,255)" fill-opacity="0.0078125"/>
  <rect x="10" y="0" width="1" height="4" fill="rgb(255,255,255)" fill-opacity="0.0078125"/>
  <rect x="10" y="4" width="1" height="1" fill="rgb(26,51,87)" fill-opacity="0.8828125"/>
  <rect x="10" y="5" width="1" height="1" fill="rgb(213,223,208)"/>
  <rect x="10" y="6" width="1" height="1" fill="rgb(194,207,207)"/>
  <rect x="10" y="7" width="1" height="1" fill="rgb(215,224,237)"/>
  <rect x="10" y="8" width="1" height="1" fill="rgb(205,216,232)"/>
  <rect x="10" y="9" width="1" height="1" fill="rgb(183,199,223)"/>
  <rect x="10" y="10" width="1" height="1" fill="rgb(159,179,212)"/>
  <rect x="10" y="11" width="1" height="1" fill="rgb(130,157,198)"/>
  <rect x="10" y="12" width="1" height="1" fill="rgb(104,137,187)"/>
  <rect x="10" y="13" width="1" height="1" fill="rgb(86,123,179)"/>
  <rect x="10" y="14" width="1" height="1" fill="rgb(70,110,172)"/>
  <rect x="10" y="15" width="1" height="1" fill="rgb(65,106,169)"/>
  <rect x="10" y="16" width="1" height="1" fill="rgb(124,153,195)"/>
  <rect x="10" y="17" width="1" height="1" fill="rgb(24,49,88)" fill-opacity="0.875"/>
  <rect x="10" y="18" width="1" height="3" fill="rgb(255,255,255)" fill-opacity="0.0078125"/>
  <rect x="11" y="0" width="1" height="4" fill="rgb(255,255,255)" fill-opacity="0.0078125"/>
  <rect x="11" y="4" width="1" height="1" fill="rgb(25,50,87)" fill-opacity="0.8828125"/>
  <rect x="11" y="5" width="1" height="1" fill="rgb(212,221,217)"/>
  <rect x="11" y="6" width="1" height="1" fill="rgb(193,208,224)"/>
  <rect x="11" y="7" width="1" height="1" fill="rgb(187,202,224)"/>
  <rect x="11" y="8" width="1" height="1" fill="rgb(188,202,225)"/>
  <rect x="11" y="9" width="1" height="1" fill="rgb(163,183,213)"/>
  <rect x="11" y="10" width="1" height="1" fill="rgb(75,100,45)"/>
  <rect x="11" y="11" width="1" height="1" fill="rgb(76,100,69)"/>
  <rect x="11" y="12" width="1" height="1" fill="rgb(88,122,168)"/>
  <rect x="11" y="13" width="1" height="1" fill="rgb(73,113,173)"/>
  <rect x="11" y="14" width="1" height="1" fill="rgb(56,100,166)"/>
  <rect x="11" y="15" width="1" height="1" fill="rgb(56,99,165)"/>
  <rect x="11" y="16" width="1" height="1" fill="rgb(118,148,192)"/>
  <rect x="11" y="17" width="1" height="1" fill="rgb(24,49,88)" fill-opacity="0.8828125"/>
  <rect x="11" y="18" width="1" height="3" fill="rgb(255,255,255)" fill-opacity="0.0078125"/>
  <rect x="12" y="0" width="1" height="4" fill="rgb(255,255,255)" fill-opacity="0.0078125"/>
  <rect x="12" y="4" width="1" height="1" fill="rgb(25,51,90)" fill-opacity="0.6953125"/>
  <rect x="12" y="5" width="1" height="1" fill="rgb(170,186,211)"/>
  <rect x="12" y="6" width="1" height="1" fill="rgb(196,209,229)"/>
  <rect x="12" y="7" width="1" height="1" fill="rgb(133,158,154)"/>
  <rect x="12" y="8" width="1" height="1" fill="rgb(97,124,85)"/>
  <rect x="12" y="9" width="1" height="1" fill="rgb(138,164,202)"/>
  <rect x="12" y="10" width="1" height="1" fill="rgb(67,89,35)"/>
  <rect x="12" y="11" width="1" height="1" fill="rgb(63,81,29)"/>
  <rect x="12" y="12" width="1" height="1" fill="rgb(67,93,89)"/>
  <rect x="12" y="13" width="1" height="1" fill="rgb(59,101,161)"/>
  <rect x="12" y="14" width="1" height="1" fill="rgb(44,90,160)"/>
  <rect x="12" y="15" width="1" height="1" fill="rgb(72,112,173)"/>
  <rect x="12" y="16" width="1" height="1" fill="rgb(94,125,172)"/>
  <rect x="12" y="17" width="1" height="1" fill="rgb(25,51,90)" fill-opacity="0.6953125"/>
  <rect x="12" y="18" width="1" height="3" fill="rgb(255,255,255)" fill-opacity="0.0078125"/>
  <rect x="13" y="0" width="1" height="4" fill="rgb(255,255,255)" fill-opacity="0.0078125"/>
  <rect x="13" y="4" width="1" height="1" fill="rgb(23,45,83)" fill-opacity="0.3984375"/>
  <rect x="13" y="5" width="1" height="1" fill="rgb(100,124,160)" fill-opacity="0.9765625"/>
  <rect x="13" y="6" width="1" height="1" fill="rgb(193,206,210)"/>
  <rect x="13" y="7" width="1" height="1" fill="rgb(94,121,78)"/>
  <rect x="13" y="8" width="1" height="1" fill="rgb(92,117,91)"/>
  <rect x="13" y="9" width="1" height="1" fill="rgb(114,144,191)"/>
  <rect x="13" y="10" width="1" height="1" fill="rgb(64,83,29)"/>
  <rect x="13" y="11" width="1" height="2" fill="rgb(60,76,24)"/>
  <rect x="13" y="13" width="1" height="1" fill="rgb(60,77,27)"/>
  <rect x="13" y="14" width="1" height="1" fill="rgb(72,92,66)"/>
  <rect x="13" y="15" width="1" height="1" fill="rgb(127,152,182)"/>
  <rect x="13" y="16" width="1" height="1" fill="rgb(63,93,137)" fill-opacity="0.96875"/>
  <rect x="13" y="17" width="1" height="1" fill="rgb(23,45,83)" fill-opacity="0.3984375"/>
  <rect x="13" y="18" width="1" height="3" fill="rgb(255,255,255)" fill-opacity="0.0078125"/>
  <rect x="14" y="0" width="1" height="4" fill="rgb(255,255,255)" fill-opacity="0.0078125"/>
  <rect x="14" y="4" width="1" height="1" fill="rgb(0,51,102)" fill-opacity="0.0234375"/>
  <rect x="14" y="5" width="1" height="1" fill="rgb(24,50,88)" fill-opacity="0.859375"/>
  <rect x="14" y="6" width="1" height="1" fill="rgb(161,177,167)"/>
  <rect x="14" y="7" width="1" height="1" fill="rgb(131,149,110)"/>
  <rect x="14" y="8" width="1" height="1" fill="rgb(82,106,77)"/>
  <rect x="14" y="9" width="1" height="1" fill="rgb(98,132,182)"/>
  <rect x="14" y="10" width="1" height="3" fill="rgb(60,76,24)"/>
  <rect x="14" y="13" width="1" height="1" fill="rgb(62,80,35)"/>
  <rect x="14" y="14" width="1" height="1" fill="rgb(127,140,114)"/>
  <rect x="14" y="15" width="1" height="1" fill="rgb(104,132,173)"/>
  <rect x="14" y="16" width="1" height="1" fill="rgb(23,49,87)" fill-opacity="0.859375"/>
  <rect x="14" y="17" width="1" height="1" fill="rgb(0,51,102)" fill-opacity="0.0234375"/>
  <rect x="14" y="18" width="1" height="3" fill="rgb(255,255,255)" fill-opacity="0.0078125"/>
  <rect x="15" y="0" width="1" height="5" fill="rgb(255,255,255)" fill-opacity="0.0078125"/>
  <rect x="15" y="5" width="1" height="1" fill="rgb(22,43,81)" fill-opacity="0.1875"/>
  <rect x="15" y="6" width="1" height="1" fill="rgb(45,70,98)" fill-opacity="0.9375"/>
  <rect x="15" y="7" width="1" height="1" fill="rgb(147,161,136)"/>
  <rect x="15" y="8" width="1" height="1" fill="rgb(141,154,121)"/>
  <rect x="15" y="9" width="1" height="1" fill="rgb(94,113,91)"/>
  <rect x="15" y="10" width="1" height="1" fill="rgb(73,100,106)"/>
  <rect x="15" y="11" width="1" height="1" fill="rgb(65,90,77)"/>
  <rect x="15" y="12" width="1" height="1" fill="rgb(72,105,142)"/>
  <rect x="15" y="13" width="1" height="1" fill="rgb(131,155,180)"/>
  <rect x="15" y="14" width="1" height="1" fill="rgb(109,136,173)"/>
  <rect x="15" y="15" width="1" height="1" fill="rgb(32,58,96)" fill-opacity="0.9296875"/>
  <rect x="15" y="16" width="1" height="1" fill="rgb(22,43,81)" fill-opacity="0.1875"/>
  <rect x="15" y="17" width="1" height="4" fill="rgb(255,255,255)" fill-opacity="0.0078125"/>
  <rect x="16" y="0" width="1" height="6" fill="rgb(255,255,255)" fill-opacity="0.0078125"/>
  <rect x="16" y="6" width="1" height="1" fill="rgb(23,45,79)" fill-opacity="0.1796875"/>
  <rect x="16" y="7" width="1" height="1" fill="rgb(34,58,76)" fill-opacity="0.8828125"/>
  <rect x="16" y="8" width="1" height="1" fill="rgb(97,113,93)" fill-opacity="0.9921875"/>
  <rect x="16" y="9" width="1" height="1" fill="rgb(122,138,126)"/>
  <rect x="16" y="10" width="1" height="1" fill="rgb(131,157,192)"/>
  <rect x="16" y="11" width="1" height="1" fill="rgb(120,150,193)"/>
  <rect x="16" y="12" width="1" height="1" fill="rgb(95,125,172)"/>
  <rect x="16" y="13" width="1" height="1" fill="rgb(64,94,140)" fill-opacity="0.96875"/>
  <rect x="16" y="14" width="1" height="1" fill="rgb(25,49,88)" fill-opacity="0.8515625"/>
  <rect x="16" y="15" width="1" height="1" fill="rgb(23,45,79)" fill-opacity="0.1796875"/>
  <rect x="16" y="16" width="1" height="5" fill="rgb(255,255,255)" fill-opacity="0.0078125"/>
  <rect x="17" y="0" width="1" height="7" fill="rgb(255,255,255)" fill-opacity="0.0078125"/>
  <rect x="17" y="7" width="1" height="1" fill="rgb(0,51,102)" fill-opacity="0.0234375"/>
  <rect x="17" y="8" width="1" height="1" fill="rgb(21,45,83)" fill-opacity="0.421875"/>
  <rect x="17" y="9" width="1" height="1" fill="rgb(24,50,89)" fill-opacity="0.7109375"/>
  <rect x="17" y="10" width="1" height="2" fill="rgb(24,50,88)" fill-opacity="0.890625"/>
  <rect x="17" y="12" width="1" height="1" fill="rgb(24,50,89)" fill-opacity="0.7109375"/>
  <rect x="17" y="13" width="1" height="1" fill="rgb(21,45,83)" fill-opacity="0.421875"/>
  <rect x="17" y="14" width="1" height="1" fill="rgb(0,51,102)" fill-opacity="0.0234375"/>
  <rect x="17" y="15" width="1" height="6" fill="rgb(255,255,255)" fill-opacity="0.0078125"/>
  <rect x="18" y="0" width="1" height="21" fill="rgb(255,255,255)" fill-opacity="0.0078125"/>
  <rect x="19" y="0" width="1" height="21" fill="rgb(255,255,255)" fill-opacity="0.0078125"/>
  <rect x="20" y="0" width="1" height="21" fill="rgb(255,255,255)" fill-opacity="0.0078125"/>
</svg>