<svg xmlns="http://www.w3.org/2000/svg" shape-rendering="crispEdges" width="21" height="21" viewBox="0 0 21 21">
  <rect x="0" y="0" width="21" height="1" fill="rgb(255,255,255)" fill-opacity="0.0078125"/>
  <rect x="0" y="1" width="21" height="1" fill="rgb(255,255,255)" fill-opacity="0.0078125"/>
  <rect x="0" y="2" width="21" height="1" fill="rgb(255,255,255)" fill-opacity="0.0078125"/>
  <rect x="0" y="3" width="9" height="1" fill="rgb(255,255,255)" fill-opacity="0.0078125"/>
  <rect x="9" y="3" width="1" height="1" fill="rgb(0,0,0)" fill-opacity="0.125"/>
  <rect x="10" y="3" width="1" height="1" fill="rgb(0,0,0)" fill-opacity="0.109375"/>
  <rect x="11" y="3" width="10" height="1" fill="rgb(255,255,255)" fill-opacity="0.0078125"/>
  <rect x="0" y="4" width="8" height="1" fill="rgb(255,255,255)" fill-opacity="0.0078125"/>
  <rect x="8" y="4" width="1" height="1" fill="rgb(0,0,0)" fill-opacity="0.140625"/>
  <rect x="9" y="4" width="2" height="1" fill="rgb(27,27,27)" fill-opacity="0.6796875"/>
  <rect x="11" y="4" width="1" height="1" fill="rgb(0,0,0)" fill-opacity="0.140625"/>
  <rect x="12" y="4" width="9" height="1" fill="rgb(255,255,255)" fill-opacity="0.0078125"/>
  <rect x="0" y="5" width="7" height="1" fill="rgb(255,255,255)" fill-opacity="0.0078125"/>
  <rect x="7" y="5" width="1" height="1" fill="rgb(0,0,0)" fill-opacity="0.0625"/>
  <rect x="8" y="5" width="1" height="1" fill="rgb(10,10,10)" fill-opacity="0.625"/>
  <rect x="9" y="5" width="2" height="1" fill="rgb(197,197,197)" fill-opacity="0.703125"/>
  <rect x="11" y="5" width="1" height="1" fill="rgb(10,10,10)" fill-opacity="0.625"/>
  <rect x="12" y="5" width="1" height="1" fill="rgb(0,0,0)" fill-opacity="0.0625"/>
  <rect x="13" y="5" width="8" height="1" fill="rgb(255,255,255)" fill-opacity="0.0078125"/>
  <rect x="0" y="6" width="6" height="1" fill="rgb(255,255,255)" fill-opacity="0.0078125"/>
  <rect x="6" y="6" width="1" height="1" fill="rgb(0,0,0)" fill-opacity="0.0234375"/>
  <rect x="7" y="6" width="1" height="1" fill="rgb(0,0,0)" fill-opacity="0.5390625"/>
  <rect x="8" y="6" width="1" height="1" fill="rgb(158,158,158)" fill-opacity="0.703125"/>
  <rect x="9" y="6" width="2" height="1" fill="rgb(249,249,249)" fill-opacity="0.703125"/>
  <rect x="11" y="6" width="1" height="1" fill="rgb(158,158,158)" fill-opacity="0.703125"/>
  <rect x="12" y="6" width="1" height="1" fill="rgb(0,0,0)" fill-opacity="0.5390625"/>
  <rect x="13" y="6" width="1" height="1" fill="rgb(0,0,0)" fill-opacity="0.0234375"/>
  <rect x="14" y="6" width="7" height="1" fill="rgb(255,255,255)" fill-opacity="0.0078125"/>
  <rect x="0" y="7" width="6" height="1" fill="rgb(255,255,255)" fill-opacity="0.0078125"/>
  <rect x="6" y="7" width="1" height="1" fill="rgb(0,0,0)" fill-opacity="0.4296875"/>
  <rect x="7" y="7" width="1" height="1" fill="rgb(113,113,113)" fill-opacity="0.703125"/>
  <rect x="8" y="7" width="4" height="1" fill="rgb(249,249,249)" fill-opacity="0.703125"/>
  <rect x="12" y="7" width="1" height="1" fill="rgb(113,113,113)" fill-opacity="0.703125"/>
  <rect x="13" y="7" width="1" height="1" fill="rgb(0,0,0)" fill-opacity="0.4296875"/>
  <rect x="14" y="7" width="7" height="1" fill="rgb(255,255,255)" fill-opacity="0.0078125"/>
  <rect x="0" y="8" width="5" height="1" fill="rgb(255,255,255)" fill-opacity="0.0078125"/>
  <rect x="5" y="8" width="1" height="1" fill="rgb(0,0,0)" fill-opacity="0.296875"/>
  <rect x="6" y="8" width="1" height="1" fill="rgb(70,70,70)" fill-opacity="0.703125"/>
  <rect x="7" y="8" width="1" height="1" fill="rgb(246,246,246)" fill-opacity="0.703125"/>
  <rect x="8" y="8" width="4" height="1" fill="rgb(249,249,249)" fill-opacity="0.703125"/>
  <rect x="12" y="8" width="1" height="1" fill="rgb(246,246,246)" fill-opacity="0.703125"/>
  <rect x="13" y="8" width="1" height="1" fill="rgb(70,70,70)" fill-opacity="0.703125"/>
  <rect x="14" y="8" width="1" height="1" fill="rgb(0,0,0)" fill-opacity="0.296875"/>
  <rect x="15" y="8" width="6" height="1" fill="rgb(255,255,255)" fill-opacity="0.0078125"/>
  <rect x="0" y="9" width="4" height="1" fill="rgb(255,255,255)" fill-opacity="0.0078125"/>
  <rect x="4" y="9" width="1" height="1" fill="rgb(0,0,0)" fill-opacity="0.1171875"/>
  <rect x="5" y="9" width="1" height="1" fill="rgb(39,39,39)" fill-opacity="0.6953125"/>
  <rect x="6" y="9" width="1" height="1" fill="rgb(234,234,234)" fill-opacity="0.703125"/>
  <rect x="7" y="9" width="6" height="1" fill="rgb(249,249,249)" fill-opacity="0.703125"/>
  <rect x="13" y="9" width="1" height="1" fill="rgb(234,234,234)" fill-opacity="0.703125"/>
  <rect x="14" y="9" width="1" height="1" fill="rgb(39,39,39)" fill-opacity="0.6953125"/>
  <rect x="15" y="9" width="1" height="1" fill="rgb(0,0,0)" fill-opacity="0.1328125"/>
  <rect x="16" y="9" width="5" height="1" fill="rgb(255,255,255)" fill-opacity="0.0078125"/>
  <rect x="0" y="10" width="4" height="1" fill="rgb(255,255,255)" fill-opacity="0.0078125"/>
  <rect x="4" y="10" width="1" height="1" fill="rgb(0,0,0)" fill-opacity="0.1171875"/>
  <rect x="5" y="10" width="1" height="1" fill="rgb(0,0,0)" fill-opacity="0.6171875"/>
  <rect x="6" y="10" width="2" height="1" fill="rgb(0,0,0)" fill-opacity="0.640625"/>
  <rect x="8" y="10" width="1" height="1" fill="rgb(0,0,0)" fill-opacity="0.703125"/>
  <rect x="9" y="10" width="2" height="1" fill="rgb(249,249,249)" fill-opacity="0.703125"/>
  <rect x="11" y="10" width="1" height="1" fill="rgb(0,0,0)" fill-opacity="0.703125"/>
  <rect x="12" y="10" width="2" height="1" fill="rgb(0,0,0)" fill-opacity="0.640625"/>
  <rect x="14" y="10" width="1" height="1" fill="rgb(0,0,0)" fill-opacity="0.59375"/>
  <rect x="15" y="10" width="1" height="1" fill="rgb(0,0,0)" fill-opacity="0.109375"/>
  <rect x="16" y="10" width="5" height="1" fill="rgb(255,255,255)" fill-opacity="0.0078125"/>
  <rect x="0" y="11" width="8" height="1" fill="rgb(255,255,255)" fill-opacity="0.0078125"/>
  <rect x="8" y="11" width="1" height="1" fill="rgb(0,0,0)" fill-opacity="0.640625"/>
  <rect x="9" y="11" width="2" height="1" fill="rgb(249,249,249)" fill-opacity="0.703125"/>
  <rect x="11" y="11" width="1" height="1" fill="rgb(0,0,0)" fill-opacity="0.640625"/>
  <rect x="12" y="11" width="9" height="1" fill="rgb(255,255,255)" fill-opacity="0.0078125"/>
  <rect x="0" y="12" width="8" height="1" fill="rgb(255,255,255)" fill-opacity="0.0078125"/>
  <rect x="8" y="12" width="1" height="1" fill="rgb(0,0,0)" fill-opacity="0.640625"/>
  <rect x="9" y="12" width="2" height="1" fill="rgb(249,249,249)" fill-opacity="0.703125"/>
  <rect x="11" y="12" width="1" height="1" fill="rgb(0,0,0)" fill-opacity="0.640625"/>
  <rect x="12" y="12" width="9" height="1" fill="rgb(255,255,255)" fill-opacity="0.0078125"/>
  <rect x="0" y="13" width="8" height="1" fill="rgb(255,255,255)" fill-opacity="0.0078125"/>
  <rect x="8" y="13" width="1" height="1" fill="rgb(0,0,0)" fill-opacity="0.640625"/>
  <rect x="9" y="13" width="2" height="1" fill="rgb(249,249,249)" fill-opacity="0.703125"/>
  <rect x="11" y="13" width="1" height="1" fill="rgb(0,0,0)" fill-opacity="0.640625"/>
  <rect x="12" y="13" width="9" height="1" fill="rgb(255,255,255)" fill-opacity="0.0078125"/>
  <rect x="0" y="14" width="8" height="1" fill="rgb(255,255,255)" fill-opacity="0.0078125"/>
  <rect x="8" y="14" width="1" height="1" fill="rgb(0,0,0)" fill-opacity="0.640625"/>
  <rect x="9" y="14" width="2" height="1" fill="rgb(249,249,249)" fill-opacity="0.703125"/>
  <rect x="11" y="14" width="1" height="1" fill="rgb(32,32,32)" fill-opacity="0.703125"/>
  <rect x="12" y="14" width="5" height="1" fill="rgb(0,0,0)" fill-opacity="0.640625"/>
  <rect x="17" y="14" width="1" height="1" fill="rgb(0,0,0)" fill-opacity="0.296875"/>
  <rect x="18" y="14" width="3" height="1" fill="rgb(255,255,255)" fill-opacity="0.0078125"/>
  <rect x="0" y="15" width="8" height="1" fill="rgb(255,255,255)" fill-opacity="0.0078125"/>
  <rect x="8" y="15" width="1" height="1" fill="rgb(0,0,0)" fill-opacity="0.6015625"/>
  <rect x="9" y="15" width="1" height="1" fill="rgb(219,219,219)" fill-opacity="0.703125"/>
  <rect x="10" y="15" width="7" height="1" fill="rgb(249,249,249)" fill-opacity="0.703125"/>
  <rect x="17" y="15" width="1" height="1" fill="rgb(0,0,0)" fill-opacity="0.640625"/>
  <rect x="18" y="15" width="3" height="1" fill="rgb(255,255,255)" fill-opacity="0.0078125"/>
  <rect x="0" y="16" width="8" height="1" fill="rgb(255,255,255)" fill-opacity="0.0078125"/>
  <rect x="8" y="16" width="1" height="1" fill="rgb(0,0,0)" fill-opacity="0.1953125"/>
  <rect x="9" y="16" width="1" height="1" fill="rgb(32,32,32)" fill-opacity="0.6875"/>
  <rect x="10" y="16" width="1" height="1" fill="rgb(219,219,219)" fill-opacity="0.703125"/>
  <rect x="11" y="16" width="6" height="1" fill="rgb(249,249,249)" fill-opacity="0.703125"/>
  <rect x="17" y="16" width="1" height="1" fill="rgb(0,0,0)" fill-opacity="0.640625"/>
  <rect x="18" y="16" width="3" height="1" fill="rgb(255,255,255)" fill-opacity="0.0078125"/>
  <rect x="0" y="17" width="9" height="1" fill="rgb(255,255,255)" fill-opacity="0.0078125"/>
  <rect x="9" y="17" width="1" height="1" fill="rgb(0,0,0)" fill-opacity="0.1953125"/>
  <rect x="10" y="17" width="1" height="1" fill="rgb(0,0,0)" fill-opacity="0.6015625"/>
  <rect x="11" y="17" width="6" height="1" fill="rgb(0,0,0)" fill-opacity="0.640625"/>
  <rect x="17" y="17" width="1" height="1" fill="rgb(0,0,0)" fill-opacity="0.296875"/>
  <rect x="18" y="17" width="3" height="1" fill="rgb(255,255,255)" fill-opacity="0.0078125"/>
  <rect x="0" y="18" width="21" height="1" fill="rgb(255,255,255)" fill-opacity="0.0078125"/>
  <rect x="0" y="19" width="21" height="1" fill="rgb(255,255,255)" fill-opacity="0.0078125"/>
  <rect x="0" y="20" width="21" height="1" fill="rgb(255,255,255)" fill-opacity="0.0078125"/>
</svg>