<svg xmlns="http://www.w3.org/2000/svg" shape-rendering="crispEdges" width="21" height="21" viewBox="0 0 21 21">
  <rect x="0" y="0" width="1" height="21" fill="rgb(255,255,255)" fill-opacity="0.0078125"/>
  <rect x="1" y="0" width="1" height="21" fill="rgb(255,255,255)" fill-opacity="0.0078125"/>
  <rect x="2" y="0" width="1" height="21" fill="rgb(255,255,255)" fill-opacity="0.0078125"/>
  <rect x="3" y="0" width="1" height="21" fill="rgb(255,255,255)" fill-opacity="0.0078125"/>
  <rect x="4" y="0" width="1" height="21" fill="rgb(255,255,255)" fill-opacity="0.0078125"/>
  <rect x="5" y="0" width="1" height="8" fill="rgb(255,255,255)" fill-opacity="0.0078125"/>
  <rect x="5" y="8" width="1" height="1" fill="rgb(0,0,0)" fill-opacity="0.109375"/>
  <rect x="5" y="9" width="1" height="1" fill="rgb(4,4,4)" fill-opacity="0.2421875"/>
  <rect x="5" y="10" width="1" height="2" fill="rgb(3,3,3)" fill-opacity="0.3046875"/>
  <rect x="5" y="12" width="1" height="1" fill="rgb(4,4,4)" fill-opacity="0.2421875"/>
  <rect x="5" y="13" width="1" height="1" fill="rgb(0,0,0)" fill-opacity="0.109375"/>
  <rect x="5" y="14" width="1" height="7" fill="rgb(255,255,255)" fill-opacity="0.0078125"/>
  <rect x="6" y="0" width="1" height="6" fill="rgb(255,255,255)" fill-opacity="0.0078125"/>
  <rect x="6" y="6" width="1" height="1" fill="rgb(0,0,0)" fill-opacity="0.0234375"/>
  <rect x="6" y="7" width="1" height="1" fill="rgb(0,0,0)" fill-opacity="0.25"/>
  <rect x="6" y="8" width="1" height="1" fill="rgb(58,58,58)" fill-opacity="0.3359375"/>
  <rect x="6" y="9" width="1" height="1" fill="rgb(135,135,135)" fill-opacity="0.3515625"/>
  <rect x="6" y="10" width="1" height="1" fill="rgb(155,155,155)" fill-opacity="0.3515625"/>
  <rect x="6" y="11" width="1" height="1" fill="rgb(143,143,143)" fill-opacity="0.3515625"/>
  <rect x="6" y="12" width="1" height="1" fill="rgb(106,106,106)" fill-opacity="0.3515625"/>
  <rect x="6" y="13" width="1" height="1" fill="rgb(40,40,40)" fill-opacity="0.328125"/>
  <rect x="6" y="14" width="1" height="1" fill="rgb(8,8,8)" fill-opacity="0.25"/>
  <rect x="6" y="15" width="1" height="1" fill="rgb(0,0,0)" fill-opacity="0.0234375"/>
  <rect x="6" y="16" width="1" height="5" fill="rgb(255,255,255)" fill-opacity="0.0078125"/>
  <rect x="7" y="0" width="1" height="6" fill="rgb(255,255,255)" fill-opacity="0.0078125"/>
  <rect x="7" y="6" width="1" height="1" fill="rgb(0,0,0)" fill-opacity="0.25"/>
  <rect x="7" y="7" width="1" height="1" fill="rgb(104,104,104)" fill-opacity="0.3515625"/>
  <rect x="7" y="8" width="1" height="1" fill="rgb(169,169,169)" fill-opacity="0.3515625"/>
  <rect x="7" y="9" width="1" height="1" fill="rgb(86,86,86)" fill-opacity="0.3515625"/>
  <rect x="7" y="10" width="1" height="1" fill="rgb(63,63,63)" fill-opacity="0.3515625"/>
  <rect x="7" y="11" width="1" height="1" fill="rgb(72,72,72)" fill-opacity="0.3515625"/>
  <rect x="7" y="12" width="1" height="1" fill="rgb(95,95,95)" fill-opacity="0.3515625"/>
  <rect x="7" y="13" width="1" height="1" fill="rgb(115,115,115)" fill-opacity="0.3515625"/>
  <rect x="7" y="14" width="1" height="1" fill="rgb(67,67,67)" fill-opacity="0.34375"/>
  <rect x="7" y="15" width="1" height="1" fill="rgb(8,8,8)" fill-opacity="0.25"/>
  <rect x="7" y="16" width="1" height="5" fill="rgb(255,255,255)" fill-opacity="0.0078125"/>
  <rect x="8" y="0" width="1" height="5" fill="rgb(255,255,255)" fill-opacity="0.0078125"/>
  <rect x="8" y="5" width="1" height="1" fill="rgb(0,0,0)" fill-opacity="0.109375"/>
  <rect x="8" y="6" width="1" height="1" fill="rgb(55,55,55)" fill-opacity="0.3359375"/>
  <rect x="8" y="7" width="1" height="1" fill="rgb(169,169,169)" fill-opacity="0.3515625"/>
  <rect x="8" y="8" width="1" height="2" fill="rgb(49,49,49)" fill-opacity="0.3515625"/>
  <rect x="8" y="10" width="1" height="1" fill="rgb(54,54,54)" fill-opacity="0.3515625"/>
  <rect x="8" y="11" width="1" height="1" fill="rgb(60,60,60)" fill-opacity="0.3515625"/>
  <rect x="8" y="12" width="1" height="1" fill="rgb(77,77,77)" fill-opacity="0.3515625"/>
  <rect x="8" y="13" width="1" height="1" fill="rgb(106,106,106)" fill-opacity="0.3515625"/>
  <rect x="8" y="14" width="1" height="1" fill="rgb(109,109,109)" fill-opacity="0.3515625"/>
  <rect x="8" y="15" width="1" height="1" fill="rgb(34,34,34)" fill-opacity="0.328125"/>
  <rect x="8" y="16" width="1" height="1" fill="rgb(0,0,0)" fill-opacity="0.109375"/>
  <rect x="8" y="17" width="1" height="4" fill="rgb(255,255,255)" fill-opacity="0.0078125"/>
  <rect x="9" y="0" width="1" height="5" fill="rgb(255,255,255)" fill-opacity="0.0078125"/>
  <rect x="9" y="5" width="1" height="1" fill="rgb(4,4,4)" fill-opacity="0.2421875"/>
  <rect x="9" y="6" width="1" height="1" fill="rgb(138,138,138)" fill-opacity="0.3515625"/>
  <rect x="9" y="7" width="1" height="1" fill="rgb(89,89,89)" fill-opacity="0.3515625"/>
  <rect x="9" y="8" width="1" height="1" fill="rgb(49,49,49)" fill-opacity="0.3515625"/>
  <rect x="9" y="9" width="1" height="1" fill="rgb(112,112,112)" fill-opacity="0.3515625"/>
  <rect x="9" y="10" width="1" height="1" fill="rgb(172,172,172)" fill-opacity="0.3515625"/>
  <rect x="9" y="11" width="1" height="1" fill="rgb(120,120,120)" fill-opacity="0.3515625"/>
  <rect x="9" y="12" width="1" height="1" fill="rgb(72,72,72)" fill-opacity="0.3515625"/>
  <rect x="9" y="13" width="1" height="1" fill="rgb(103,103,103)" fill-opacity="0.3515625"/>
  <rect x="9" y="14" width="1" height="1" fill="rgb(132,132,132)" fill-opacity="0.3515625"/>
  <rect x="9" y="15" width="1" height="1" fill="rgb(100,100,100)" fill-opacity="0.3515625"/>
  <rect x="9" y="16" width="1" height="1" fill="rgb(13,13,13)" fill-opacity="0.2421875"/>
  <rect x="9" y="17" width="1" height="4" fill="rgb(255,255,255)" fill-opacity="0.0078125"/>
  <rect x="10" y="0" width="1" height="5" fill="rgb(255,255,255)" fill-opacity="0.0078125"/>
  <rect x="10" y="5" width="1" height="1" fill="rgb(3,3,3)" fill-opacity="0.3125"/>
  <rect x="10" y="6" width="1" height="1" fill="rgb(163,163,163)" fill-opacity="0.3515625"/>
  <rect x="10" y="7" width="1" height="1" fill="rgb(63,63,63)" fill-opacity="0.3515625"/>
  <rect x="10" y="8" width="1" height="1" fill="rgb(54,54,54)" fill-opacity="0.3515625"/>
  <rect x="10" y="9" width="1" height="1" fill="rgb(181,181,181)" fill-opacity="0.3515625"/>
  <rect x="10" y="10" width="1" height="1" fill="rgb(100,100,100)" fill-opacity="0.3515625"/>
  <rect x="10" y="11" width="1" height="1" fill="rgb(92,92,92)" fill-opacity="0.3515625"/>
  <rect x="10" y="12" width="1" height="1" fill="rgb(95,95,95)" fill-opacity="0.3515625"/>
  <rect x="10" y="13" width="1" height="1" fill="rgb(83,83,83)" fill-opacity="0.3515625"/>
  <rect x="10" y="14" width="1" height="1" fill="rgb(158,158,158)" fill-opacity="0.3515625"/>
  <rect x="10" y="15" width="1" height="1" fill="rgb(132,132,132)" fill-opacity="0.3515625"/>
  <rect x="10" y="16" width="1" height="1" fill="rgb(13,13,13)" fill-opacity="0.3125"/>
  <rect x="10" y="17" width="1" height="4" fill="rgb(255,255,255)" fill-opacity="0.0078125"/>
  <rect x="11" y="0" width="1" height="5" fill="rgb(255,255,255)" fill-opacity="0.0078125"/>
  <rect x="11" y="5" width="1" height="1" fill="rgb(3,3,3)" fill-opacity="0.3125"/>
  <rect x="11" y="6" width="1" height="1" fill="rgb(152,152,152)" fill-opacity="0.3515625"/>
  <rect x="11" y="7" width="1" height="1" fill="rgb(72,72,72)" fill-opacity="0.3515625"/>
  <rect x="11" y="8" width="1" height="1" fill="rgb(60,60,60)" fill-opacity="0.3515625"/>
  <rect x="11" y="9" width="1" height="1" fill="rgb(135,135,135)" fill-opacity="0.3515625"/>
  <rect x="11" y="10" width="1" height="1" fill="rgb(92,92,92)" fill-opacity="0.3515625"/>
  <rect x="11" y="11" width="1" height="2" fill="rgb(103,103,103)" fill-opacity="0.3515625"/>
  <rect x="11" y="13" width="1" height="1" fill="rgb(86,86,86)" fill-opacity="0.3515625"/>
  <rect x="11" y="14" width="1" height="1" fill="rgb(175,175,175)" fill-opacity="0.3515625"/>
  <rect x="11" y="15" width="1" height="1" fill="rgb(143,143,143)" fill-opacity="0.3515625"/>
  <rect x="11" y="16" width="1" height="1" fill="rgb(13,13,13)" fill-opacity="0.3125"/>
  <rect x="11" y="17" width="1" height="4" fill="rgb(255,255,255)" fill-opacity="0.0078125"/>
  <rect x="12" y="0" width="1" height="5" fill="rgb(255,255,255)" fill-opacity="0.0078125"/>
  <rect x="12" y="5" width="1" height="1" fill="rgb(4,4,4)" fill-opacity="0.2421875"/>
  <rect x="12" y="6" width="1" height="1" fill="rgb(115,115,115)" fill-opacity="0.3515625"/>
  <rect x="12" y="7" width="1" height="1" fill="rgb(92,92,92)" fill-opacity="0.3515625"/>
  <rect x="12" y="8" width="1" height="2" fill="rgb(74,74,74)" fill-opacity="0.3515625"/>
  <rect x="12" y="10" width="1" height="1" fill="rgb(97,97,97)" fill-opacity="0.3515625"/>
  <rect x="12" y="11" width="1" height="1" fill="rgb(106,106,106)" fill-opacity="0.3515625"/>
  <rect x="12" y="12" width="1" height="1" fill="rgb(83,83,83)" fill-opacity="0.3515625"/>
  <rect x="12" y="13" width="1" height="1" fill="rgb(129,129,129)" fill-opacity="0.3515625"/>
  <rect x="12" y="14" width="1" height="1" fill="rgb(178,178,178)" fill-opacity="0.3515625"/>
  <rect x="12" y="15" width="1" height="1" fill="rgb(126,126,126)" fill-opacity="0.3515625"/>
  <rect x="12" y="16" width="1" height="1" fill="rgb(17,17,17)" fill-opacity="0.2421875"/>
  <rect x="12" y="17" width="1" height="4" fill="rgb(255,255,255)" fill-opacity="0.0078125"/>
  <rect x="13" y="0" width="1" height="5" fill="rgb(255,255,255)" fill-opacity="0.0078125"/>
  <rect x="13" y="5" width="1" height="1" fill="rgb(0,0,0)" fill-opacity="0.109375"/>
  <rect x="13" y="6" width="1" height="1" fill="rgb(46,46,46)" fill-opacity="0.328125"/>
  <rect x="13" y="7" width="1" height="1" fill="rgb(123,123,123)" fill-opacity="0.3515625"/>
  <rect x="13" y="8" width="1" height="1" fill="rgb(97,97,97)" fill-opacity="0.3515625"/>
  <rect x="13" y="9" width="1" height="1" fill="rgb(100,100,100)" fill-opacity="0.3515625"/>
  <rect x="13" y="10" width="1" height="1" fill="rgb(83,83,83)" fill-opacity="0.3515625"/>
  <rect x="13" y="11" width="1" height="1" fill="rgb(86,86,86)" fill-opacity="0.3515625"/>
  <rect x="13" y="12" width="1" height="1" fill="rgb(129,129,129)" fill-opacity="0.3515625"/>
  <rect x="13" y="13" width="1" height="1" fill="rgb(186,186,186)" fill-opacity="0.3515625"/>
  <rect x="13" y="14" width="1" height="1" fill="rgb(163,163,163)" fill-opacity="0.3515625"/>
  <rect x="13" y="15" width="1" height="1" fill="rgb(49,49,49)" fill-opacity="0.328125"/>
  <rect x="13" y="16" width="1" height="1" fill="rgb(0,0,0)" fill-opacity="0.109375"/>
  <rect x="13" y="17" width="1" height="4" fill="rgb(255,255,255)" fill-opacity="0.0078125"/>
  <rect x="14" y="0" width="1" height="6" fill="rgb(255,255,255)" fill-opacity="0.0078125"/>
  <rect x="14" y="6" width="1" height="1" fill="rgb(8,8,8)" fill-opacity="0.25"/>
  <rect x="14" y="7" width="1" height="1" fill="rgb(75,75,75)" fill-opacity="0.3515625"/>
  <rect x="14" y="8" width="1" height="1" fill="rgb(117,117,117)" fill-opacity="0.3515625"/>
  <rect x="14" y="9" width="1" height="1" fill="rgb(129,129,129)" fill-opacity="0.3515625"/>
  <rect x="14" y="10" width="1" height="1" fill="rgb(155,155,155)" fill-opacity="0.3515625"/>
  <rect x="14" y="11" width="1" height="1" fill="rgb(172,172,172)" fill-opacity="0.3515625"/>
  <rect x="14" y="12" width="1" height="1" fill="rgb(175,175,175)" fill-opacity="0.3515625"/>
  <rect x="14" y="13" width="1" height="1" fill="rgb(163,163,163)" fill-opacity="0.3515625"/>
  <rect x="14" y="14" width="1" height="1" fill="rgb(100,100,100)" fill-opacity="0.34375"/>
  <rect x="14" y="15" width="1" height="1" fill="rgb(12,12,12)" fill-opacity="0.25"/>
  <rect x="14" y="16" width="1" height="5" fill="rgb(255,255,255)" fill-opacity="0.0078125"/>
  <rect x="15" y="0" width="1" height="6" fill="rgb(255,255,255)" fill-opacity="0.0078125"/>
  <rect x="15" y="6" width="1" height="1" fill="rgb(0,0,0)" fill-opacity="0.0234375"/>
  <rect x="15" y="7" width="1" height="1" fill="rgb(8,8,8)" fill-opacity="0.25"/>
  <rect x="15" y="8" width="1" height="1" fill="rgb(40,40,40)" fill-opacity="0.328125"/>
  <rect x="15" y="9" width="1" height="1" fill="rgb(100,100,100)" fill-opacity="0.3515625"/>
  <rect x="15" y="10" width="1" height="1" fill="rgb(129,129,129)" fill-opacity="0.3515625"/>
  <rect x="15" y="11" width="1" height="1" fill="rgb(143,143,143)" fill-opacity="0.3515625"/>
  <rect x="15" y="12" width="1" height="1" fill="rgb(126,126,126)" fill-opacity="0.3515625"/>
  <rect x="15" y="13" width="1" height="1" fill="rgb(49,49,49)" fill-opacity="0.328125"/>
  <rect x="15" y="14" width="1" height="1" fill="rgb(12,12,12)" fill-opacity="0.25"/>
  <rect x="15" y="15" width="1" height="1" fill="rgb(0,0,0)" fill-opacity="0.0234375"/>
  <rect x="15" y="16" width="1" height="5" fill="rgb(255,255,255)" fill-opacity="0.0078125"/>
  <rect x="16" y="0" width="1" height="8" fill="rgb(255,255,255)" fill-opacity="0.0078125"/>
  <rect x="16" y="8" width="1" height="1" fill="rgb(0,0,0)" fill-opacity="0.109375"/>
  <rect x="16" y="9" width="1" height="1" fill="rgb(13,13,13)" fill-opacity="0.2421875"/>
  <rect x="16" y="10" width="1" height="2" fill="rgb(17,17,17)" fill-opacity="0.3046875"/>
  <rect x="16" y="12" width="1" height="1" fill="rgb(17,17,17)" fill-opacity="0.2421875"/>
  <rect x="16" y="13" width="1" height="1" fill="rgb(0,0,0)" fill-opacity="0.109375"/>
  <rect x="16" y="14" width="1" height="7" fill="rgb(255,255,255)" fill-opacity="0.0078125"/>
  <rect x="17" y="0" width="1" height="21" fill="rgb(255,255,255)" fill-opacity="0.0078125"/>
  <rect x="18" y="0" width="1" height="21" fill="rgb(255,255,255)" fill-opacity="0.0078125"/>
  <rect x="19" y="0" width="1" height="21" fill="rgb(255,255,255)" fill-opacity="0.0078125"/>
  <rect x="20" y="0" width="1" height="21" fill="rgb(255,255,255)" fill-opacity="0.0078125"/>
</svg>