<svg xmlns="http://www.w3.org/2000/svg" shape-rendering="crispEdges" width="21" height="21" viewBox="0 0 21 21">
  <rect x="0" y="0" width="21" height="1" fill="rgb(255,255,255)" fill-opacity="0.0078125"/>
  <rect x="0" y="1" width="21" height="1" fill="rgb(255,255,255)" fill-opacity="0.0078125"/>
  <rect x="0" y="2" width="21" height="1" fill="rgb(255,255,255)" fill-opacity="0.0078125"/>
  <rect x="0" y="3" width="4" height="1" fill="rgb(255,255,255)" fill-opacity="0.0078125"/>
  <rect x="4" y="3" width="1" height="1" fill="rgb(50,50,50)" fill-opacity="0.703125"/>
  <rect x="5" y="3" width="7" height="1" fill="rgb(59,59,59)" fill-opacity="0.8515625"/>
  <rect x="12" y="3" width="1" height="1" fill="rgb(48,48,48)" fill-opacity="0.75"/>
  <rect x="13" y="3" width="8" height="1" fill="rgb(255,255,255)" fill-opacity="0.0078125"/>
  <rect x="0" y="4" width="4" height="1" fill="rgb(255,255,255)" fill-opacity="0.0078125"/>
  <rect x="4" y="4" width="1" height="1" fill="rgb(56,56,56)" fill-opacity="0.84375"/>
  <rect x="5" y="4" width="1" height="1" fill="rgb(252,252,252)"/>
  <rect x="6" y="4" width="1" height="1" fill="rgb(250,250,250)"/>
  <rect x="7" y="4" width="1" height="1" fill="rgb(247,247,247)"/>
  <rect x="8" y="4" width="1" height="1" fill="rgb(243,243,243)"/>
  <rect x="9" y="4" width="1" height="1" fill="rgb(240,240,240)"/>
  <rect x="10" y="4" width="1" height="1" fill="rgb(236,236,236)"/>
  <rect x="11" y="4" width="1" height="1" fill="rgb(229,229,229)"/>
  <rect x="12" y="4" width="1" height="1" fill="rgb(57,57,57)" fill-opacity="0.8671875"/>
  <rect x="13" y="4" width="8" height="1" fill="rgb(255,255,255)" fill-opacity="0.0078125"/>
  <rect x="0" y="5" width="4" height="1" fill="rgb(255,255,255)" fill-opacity="0.0078125"/>
  <rect x="4" y="5" width="1" height="1" fill="rgb(54,54,54)" fill-opacity="0.8515625"/>
  <rect x="5" y="5" width="1" height="1" fill="rgb(244,244,244)"/>
  <rect x="6" y="5" width="1" height="1" fill="rgb(205,205,205)"/>
  <rect x="7" y="5" width="5" height="1" fill="rgb(204,204,204)"/>
  <rect x="12" y="5" width="1" height="1" fill="rgb(59,59,59)" fill-opacity="0.8515625"/>
  <rect x="13" y="5" width="8" height="1" fill="rgb(255,255,255)" fill-opacity="0.0078125"/>
  <rect x="0" y="6" width="4" height="1" fill="rgb(255,255,255)" fill-opacity="0.0078125"/>
  <rect x="4" y="6" width="1" height="1" fill="rgb(48,48,48)" fill-opacity="0.71875"/>
  <rect x="5" y="6" width="2" height="1" fill="rgb(59,59,59)" fill-opacity="0.84375"/>
  <rect x="7" y="6" width="1" height="1" fill="rgb(52,52,52)" fill-opacity="0.953125"/>
  <rect x="8" y="6" width="4" height="1" fill="rgb(59,59,59)" fill-opacity="0.9765625"/>
  <rect x="12" y="6" width="1" height="1" fill="rgb(57,57,57)" fill-opacity="0.9609375"/>
  <rect x="13" y="6" width="5" height="1" fill="rgb(59,59,59)" fill-opacity="0.8515625"/>
  <rect x="18" y="6" width="1" height="1" fill="rgb(48,48,48)" fill-opacity="0.75"/>
  <rect x="19" y="6" width="2" height="1" fill="rgb(255,255,255)" fill-opacity="0.0078125"/>
  <rect x="0" y="7" width="7" height="1" fill="rgb(255,255,255)" fill-opacity="0.0078125"/>
  <rect x="7" y="7" width="1" height="1" fill="rgb(56,56,56)" fill-opacity="0.84375"/>
  <rect x="8" y="7" width="1" height="1" fill="rgb(254,254,254)"/>
  <rect x="9" y="7" width="2" height="1" fill="rgb(255,255,255)"/>
  <rect x="11" y="7" width="1" height="1" fill="rgb(252,252,252)"/>
  <rect x="12" y="7" width="1" height="1" fill="rgb(248,248,248)"/>
  <rect x="13" y="7" width="1" height="1" fill="rgb(244,244,244)"/>
  <rect x="14" y="7" width="1" height="1" fill="rgb(241,241,241)"/>
  <rect x="15" y="7" width="1" height="1" fill="rgb(237,237,237)"/>
  <rect x="16" y="7" width="1" height="1" fill="rgb(233,233,233)"/>
  <rect x="17" y="7" width="1" height="1" fill="rgb(225,225,225)"/>
  <rect x="18" y="7" width="1" height="1" fill="rgb(59,59,59)" fill-opacity="0.859375"/>
  <rect x="19" y="7" width="2" height="1" fill="rgb(255,255,255)" fill-opacity="0.0078125"/>
  <rect x="0" y="8" width="7" height="1" fill="rgb(255,255,255)" fill-opacity="0.0078125"/>
  <rect x="7" y="8" width="1" height="1" fill="rgb(54,54,54)" fill-opacity="0.8515625"/>
  <rect x="8" y="8" width="1" height="1" fill="rgb(246,246,246)"/>
  <rect x="9" y="8" width="1" height="1" fill="rgb(205,205,205)"/>
  <rect x="10" y="8" width="8" height="1" fill="rgb(204,204,204)"/>
  <rect x="18" y="8" width="1" height="1" fill="rgb(58,58,58)" fill-opacity="0.8671875"/>
  <rect x="19" y="8" width="2" height="1" fill="rgb(255,255,255)" fill-opacity="0.0078125"/>
  <rect x="0" y="9" width="7" height="1" fill="rgb(255,255,255)" fill-opacity="0.0078125"/>
  <rect x="7" y="9" width="1" height="1" fill="rgb(48,48,48)" fill-opacity="0.71875"/>
  <rect x="8" y="9" width="10" height="1" fill="rgb(59,59,59)" fill-opacity="0.84375"/>
  <rect x="18" y="9" width="1" height="1" fill="rgb(48,48,48)" fill-opacity="0.75"/>
  <rect x="19" y="9" width="2" height="1" fill="rgb(255,255,255)" fill-opacity="0.0078125"/>
  <rect x="0" y="10" width="21" height="1" fill="rgb(255,255,255)" fill-opacity="0.0078125"/>
  <rect x="0" y="11" width="21" height="1" fill="rgb(255,255,255)" fill-opacity="0.0078125"/>
  <rect x="0" y="12" width="3" height="1" fill="rgb(255,255,255)" fill-opacity="0.0078125"/>
  <rect x="3" y="12" width="1" height="1" fill="rgb(48,48,48)" fill-opacity="0.71875"/>
  <rect x="4" y="12" width="11" height="1" fill="rgb(59,59,59)" fill-opacity="0.8515625"/>
  <rect x="15" y="12" width="1" height="1" fill="rgb(48,48,48)" fill-opacity="0.75"/>
  <rect x="16" y="12" width="5" height="1" fill="rgb(255,255,255)" fill-opacity="0.0078125"/>
  <rect x="0" y="13" width="3" height="1" fill="rgb(255,255,255)" fill-opacity="0.0078125"/>
  <rect x="3" y="13" width="1" height="1" fill="rgb(55,55,55)" fill-opacity="0.8515625"/>
  <rect x="4" y="13" width="1" height="1" fill="rgb(255,255,255)"/>
  <rect x="5" y="13" width="1" height="1" fill="rgb(253,253,253)"/>
  <rect x="6" y="13" width="1" height="1" fill="rgb(250,250,250)"/>
  <rect x="7" y="13" width="1" height="1" fill="rgb(248,248,248)"/>
  <rect x="8" y="13" width="1" height="1" fill="rgb(245,245,245)"/>
  <rect x="9" y="13" width="1" height="1" fill="rgb(243,243,243)"/>
  <rect x="10" y="13" width="1" height="1" fill="rgb(240,240,240)"/>
  <rect x="11" y="13" width="1" height="1" fill="rgb(238,238,238)"/>
  <rect x="12" y="13" width="1" height="1" fill="rgb(235,235,235)"/>
  <rect x="13" y="13" width="1" height="1" fill="rgb(233,233,233)"/>
  <rect x="14" y="13" width="1" height="1" fill="rgb(226,226,226)"/>
  <rect x="15" y="13" width="1" height="1" fill="rgb(57,57,57)" fill-opacity="0.8671875"/>
  <rect x="16" y="13" width="5" height="1" fill="rgb(255,255,255)" fill-opacity="0.0078125"/>
  <rect x="0" y="14" width="3" height="1" fill="rgb(255,255,255)" fill-opacity="0.0078125"/>
  <rect x="3" y="14" width="1" height="1" fill="rgb(57,57,57)" fill-opacity="0.8515625"/>
  <rect x="4" y="14" width="1" height="1" fill="rgb(247,247,247)"/>
  <rect x="5" y="14" width="10" height="1" fill="rgb(204,204,204)"/>
  <rect x="15" y="14" width="1" height="1" fill="rgb(59,59,59)" fill-opacity="0.8515625"/>
  <rect x="16" y="14" width="5" height="1" fill="rgb(255,255,255)" fill-opacity="0.0078125"/>
  <rect x="0" y="15" width="3" height="1" fill="rgb(255,255,255)" fill-opacity="0.0078125"/>
  <rect x="3" y="15" width="1" height="1" fill="rgb(49,49,49)" fill-opacity="0.71875"/>
  <rect x="4" y="15" width="6" height="1" fill="rgb(59,59,59)" fill-opacity="0.8515625"/>
  <rect x="10" y="15" width="1" height="1" fill="rgb(51,51,51)" fill-opacity="0.9609375"/>
  <rect x="11" y="15" width="4" height="1" fill="rgb(59,59,59)" fill-opacity="0.9765625"/>
  <rect x="15" y="15" width="1" height="1" fill="rgb(57,57,57)" fill-opacity="0.9609375"/>
  <rect x="16" y="15" width="1" height="1" fill="rgb(59,59,59)" fill-opacity="0.8515625"/>
  <rect x="17" y="15" width="1" height="1" fill="rgb(48,48,48)" fill-opacity="0.75"/>
  <rect x="18" y="15" width="3" height="1" fill="rgb(255,255,255)" fill-opacity="0.0078125"/>
  <rect x="0" y="16" width="10" height="1" fill="rgb(255,255,255)" fill-opacity="0.0078125"/>
  <rect x="10" y="16" width="1" height="1" fill="rgb(59,59,59)" fill-opacity="0.8515625"/>
  <rect x="11" y="16" width="1" height="1" fill="rgb(255,255,255)"/>
  <rect x="12" y="16" width="1" height="1" fill="rgb(252,252,252)"/>
  <rect x="13" y="16" width="1" height="1" fill="rgb(249,249,249)"/>
  <rect x="14" y="16" width="1" height="1" fill="rgb(245,245,245)"/>
  <rect x="15" y="16" width="1" height="1" fill="rgb(242,242,242)"/>
  <rect x="16" y="16" width="1" height="1" fill="rgb(233,233,233)"/>
  <rect x="17" y="16" width="1" height="1" fill="rgb(57,57,57)" fill-opacity="0.8671875"/>
  <rect x="18" y="16" width="3" height="1" fill="rgb(255,255,255)" fill-opacity="0.0078125"/>
  <rect x="0" y="17" width="10" height="1" fill="rgb(255,255,255)" fill-opacity="0.0078125"/>
  <rect x="10" y="17" width="1" height="1" fill="rgb(57,57,57)" fill-opacity="0.8671875"/>
  <rect x="11" y="17" width="1" height="1" fill="rgb(247,247,247)"/>
  <rect x="12" y="17" width="5" height="1" fill="rgb(204,204,204)"/>
  <rect x="17" y="17" width="1" height="1" fill="rgb(59,59,59)" fill-opacity="0.8515625"/>
  <rect x="18" y="17" width="3" height="1" fill="rgb(255,255,255)" fill-opacity="0.0078125"/>
  <rect x="0" y="18" width="10" height="1" fill="rgb(255,255,255)" fill-opacity="0.0078125"/>
  <rect x="10" y="18" width="1" height="1" fill="rgb(48,48,48)" fill-opacity="0.75"/>
  <rect x="11" y="18" width="6" height="1" fill="rgb(59,59,59)" fill-opacity="0.8515625"/>
  <rect x="17" y="18" width="1" height="1" fill="rgb(48,48,48)" fill-opacity="0.7265625"/>
  <rect x="18" y="18" width="3" height="1" fill="rgb(255,255,255)" fill-opacity="0.0078125"/>
  <rect x="0" y="19" width="21" height="1" fill="rgb(255,255,255)" fill-opacity="0.0078125"/>
  <rect x="0" y="20" width="21" height="1" fill="rgb(255,255,255)" fill-opacity="0.0078125"/>
</svg>