<svg xmlns="http://www.w3.org/2000/svg" shape-rendering="crispEdges" width="21" height="21" viewBox="0 0 21 21">
  <rect x="0" y="0" width="1" height="21" fill="rgb(255,255,255)" fill-opacity="0.0078125"/>
  <rect x="1" y="0" width="1" height="21" fill="rgb(255,255,255)" fill-opacity="0.0078125"/>
  <rect x="2" y="0" width="1" height="21" fill="rgb(255,255,255)" fill-opacity="0.0078125"/>
  <rect x="3" y="0" width="1" height="9" fill="rgb(255,255,255)" fill-opacity="0.0078125"/>
  <rect x="3" y="9" width="1" height="1" fill="rgb(28,28,28)" fill-opacity="0.40625"/>
  <rect x="3" y="10" width="1" height="1" fill="rgb(101,101,101)" fill-opacity="0.8828125"/>
  <rect x="3" y="11" width="1" height="1" fill="rgb(26,26,26)" fill-opacity="0.421875"/>
  <rect x="3" y="12" width="1" height="9" fill="rgb(255,255,255)" fill-opacity="0.0078125"/>
  <rect x="4" y="0" width="1" height="6" fill="rgb(255,255,255)" fill-opacity="0.0078125"/>
  <rect x="4" y="6" width="1" height="1" fill="rgb(27,27,27)" fill-opacity="0.40625"/>
  <rect x="4" y="7" width="1" height="1" fill="rgb(87,87,87)" fill-opacity="0.875"/>
  <rect x="4" y="8" width="1" height="1" fill="rgb(26,26,26)" fill-opacity="0.546875"/>
  <rect x="4" y="9" width="1" height="1" fill="rgb(76,76,76)" fill-opacity="0.921875"/>
  <rect x="4" y="10" width="1" height="1" fill="rgb(255,255,255)" fill-opacity="0.9609375"/>
  <rect x="4" y="11" width="1" height="1" fill="rgb(79,79,79)" fill-opacity="0.9453125"/>
  <rect x="4" y="12" width="1" height="1" fill="rgb(26,26,26)" fill-opacity="0.5078125"/>
  <rect x="4" y="13" width="1" height="1" fill="rgb(97,97,97)" fill-opacity="0.890625"/>
  <rect x="4" y="14" width="1" height="1" fill="rgb(41,41,41)" fill-opacity="0.421875"/>
  <rect x="4" y="15" width="1" height="6" fill="rgb(255,255,255)" fill-opacity="0.0078125"/>
  <rect x="5" y="0" width="1" height="6" fill="rgb(255,255,255)" fill-opacity="0.0078125"/>
  <rect x="5" y="6" width="1" height="1" fill="rgb(82,82,82)" fill-opacity="0.8828125"/>
  <rect x="5" y="7" width="1" height="1" fill="rgb(255,255,255)" fill-opacity="0.9609375"/>
  <rect x="5" y="8" width="1" height="1" fill="rgb(169,169,169)" fill-opacity="0.9609375"/>
  <rect x="5" y="9" width="1" height="1" fill="rgb(87,87,87)" fill-opacity="0.9609375"/>
  <rect x="5" y="10" width="1" height="1" fill="rgb(255,255,255)" fill-opacity="0.9609375"/>
  <rect x="5" y="11" width="1" height="1" fill="rgb(87,87,87)" fill-opacity="0.9609375"/>
  <rect x="5" y="12" width="1" height="1" fill="rgb(174,174,174)" fill-opacity="0.9609375"/>
  <rect x="5" y="13" width="1" height="1" fill="rgb(254,254,254)" fill-opacity="0.9609375"/>
  <rect x="5" y="14" width="1" height="1" fill="rgb(99,99,99)" fill-opacity="0.8828125"/>
  <rect x="5" y="15" width="1" height="6" fill="rgb(255,255,255)" fill-opacity="0.0078125"/>
  <rect x="6" y="0" width="1" height="4" fill="rgb(255,255,255)" fill-opacity="0.0078125"/>
  <rect x="6" y="4" width="1" height="1" fill="rgb(27,27,27)" fill-opacity="0.40625"/>
  <rect x="6" y="5" width="1" height="1" fill="rgb(87,87,87)" fill-opacity="0.875"/>
  <rect x="6" y="6" width="1" height="1" fill="rgb(26,26,26)" fill-opacity="0.765625"/>
  <rect x="6" y="7" width="1" height="1" fill="rgb(169,169,169)" fill-opacity="0.9609375"/>
  <rect x="6" y="8" width="1" height="1" fill="rgb(206,206,206)" fill-opacity="0.9609375"/>
  <rect x="6" y="9" width="1" height="1" fill="rgb(153,153,153)" fill-opacity="0.9609375"/>
  <rect x="6" y="10" width="1" height="1" fill="rgb(255,255,255)" fill-opacity="0.9609375"/>
  <rect x="6" y="11" width="1" height="1" fill="rgb(185,185,185)" fill-opacity="0.9609375"/>
  <rect x="6" y="12" width="1" height="1" fill="rgb(254,254,254)" fill-opacity="0.9609375"/>
  <rect x="6" y="13" width="1" height="1" fill="rgb(174,174,174)" fill-opacity="0.9609375"/>
  <rect x="6" y="14" width="1" height="1" fill="rgb(26,26,26)" fill-opacity="0.765625"/>
  <rect x="6" y="15" width="1" height="1" fill="rgb(54,54,54)" fill-opacity="0.8671875"/>
  <rect x="6" y="16" width="1" height="1" fill="rgb(27,27,27)" fill-opacity="0.40625"/>
  <rect x="6" y="17" width="1" height="4" fill="rgb(255,255,255)" fill-opacity="0.0078125"/>
  <rect x="7" y="0" width="1" height="4" fill="rgb(255,255,255)" fill-opacity="0.0078125"/>
  <rect x="7" y="4" width="1" height="1" fill="rgb(82,82,82)" fill-opacity="0.8828125"/>
  <rect x="7" y="5" width="1" height="1" fill="rgb(255,255,255)" fill-opacity="0.9609375"/>
  <rect x="7" y="6" width="1" height="1" fill="rgb(169,169,169)" fill-opacity="0.9609375"/>
  <rect x="7" y="7" width="1" height="1" fill="rgb(26,26,26)" fill-opacity="0.8203125"/>
  <rect x="7" y="8" width="1" height="1" fill="rgb(123,123,123)" fill-opacity="0.9609375"/>
  <rect x="7" y="9" width="1" height="1" fill="rgb(200,200,200)" fill-opacity="0.9609375"/>
  <rect x="7" y="10" width="1" height="1" fill="rgb(212,212,212)" fill-opacity="0.9609375"/>
  <rect x="7" y="11" width="1" height="1" fill="rgb(213,213,213)" fill-opacity="0.9609375"/>
  <rect x="7" y="12" width="1" height="1" fill="rgb(164,164,164)" fill-opacity="0.9609375"/>
  <rect x="7" y="13" width="1" height="1" fill="rgb(26,26,26)" fill-opacity="0.8203125"/>
  <rect x="7" y="14" width="1" height="1" fill="rgb(154,154,154)" fill-opacity="0.9609375"/>
  <rect x="7" y="15" width="1" height="1" fill="rgb(243,243,243)" fill-opacity="0.9609375"/>
  <rect x="7" y="16" width="1" height="1" fill="rgb(57,57,57)" fill-opacity="0.859375"/>
  <rect x="7" y="17" width="1" height="4" fill="rgb(255,255,255)" fill-opacity="0.0078125"/>
  <rect x="8" y="0" width="1" height="4" fill="rgb(255,255,255)" fill-opacity="0.0078125"/>
  <rect x="8" y="4" width="1" height="1" fill="rgb(26,26,26)" fill-opacity="0.5078125"/>
  <rect x="8" y="5" width="1" height="1" fill="rgb(169,169,169)" fill-opacity="0.9609375"/>
  <rect x="8" y="6" width="1" height="1" fill="rgb(206,206,206)" fill-opacity="0.9609375"/>
  <rect x="8" y="7" width="1" height="1" fill="rgb(123,123,123)" fill-opacity="0.9609375"/>
  <rect x="8" y="8" width="1" height="1" fill="rgb(26,26,26)" fill-opacity="0.8203125"/>
  <rect x="8" y="9" width="1" height="1" fill="rgb(164,164,164)" fill-opacity="0.9609375"/>
  <rect x="8" y="10" width="1" height="1" fill="rgb(225,225,225)" fill-opacity="0.9609375"/>
  <rect x="8" y="11" width="1" height="1" fill="rgb(164,164,164)" fill-opacity="0.9609375"/>
  <rect x="8" y="12" width="1" height="1" fill="rgb(26,26,26)" fill-opacity="0.8203125"/>
  <rect x="8" y="13" width="1" height="1" fill="rgb(154,154,154)" fill-opacity="0.9609375"/>
  <rect x="8" y="14" width="1" height="1" fill="rgb(250,250,250)" fill-opacity="0.9609375"/>
  <rect x="8" y="15" width="1" height="1" fill="rgb(154,154,154)" fill-opacity="0.9609375"/>
  <rect x="8" y="16" width="1" height="1" fill="rgb(26,26,26)" fill-opacity="0.546875"/>
  <rect x="8" y="17" width="1" height="4" fill="rgb(255,255,255)" fill-opacity="0.0078125"/>
  <rect x="9" y="0" width="1" height="3" fill="rgb(255,255,255)" fill-opacity="0.0078125"/>
  <rect x="9" y="3" width="1" height="1" fill="rgb(26,26,26)" fill-opacity="0.421875"/>
  <rect x="9" y="4" width="1" height="1" fill="rgb(79,79,79)" fill-opacity="0.9453125"/>
  <rect x="9" y="5" width="1" height="1" fill="rgb(87,87,87)" fill-opacity="0.9609375"/>
  <rect x="9" y="6" width="1" height="1" fill="rgb(152,152,152)" fill-opacity="0.9609375"/>
  <rect x="9" y="7" width="1" height="1" fill="rgb(200,200,200)" fill-opacity="0.9609375"/>
  <rect x="9" y="8" width="1" height="1" fill="rgb(164,164,164)" fill-opacity="0.9609375"/>
  <rect x="9" y="9" width="1" height="2" fill="rgb(255,255,255)" fill-opacity="0.9609375"/>
  <rect x="9" y="11" width="1" height="1" fill="rgb(227,227,227)" fill-opacity="0.9609375"/>
  <rect x="9" y="12" width="1" height="1" fill="rgb(151,151,151)" fill-opacity="0.9609375"/>
  <rect x="9" y="13" width="1" height="1" fill="rgb(243,243,243)" fill-opacity="0.9609375"/>
  <rect x="9" y="14" width="1" height="1" fill="rgb(169,169,169)" fill-opacity="0.9609375"/>
  <rect x="9" y="15" width="1" height="1" fill="rgb(69,69,69)" fill-opacity="0.9609375"/>
  <rect x="9" y="16" width="1" height="1" fill="rgb(60,60,60)" fill-opacity="0.9140625"/>
  <rect x="9" y="17" width="1" height="1" fill="rgb(28,28,28)" fill-opacity="0.40625"/>
  <rect x="9" y="18" width="1" height="3" fill="rgb(255,255,255)" fill-opacity="0.0078125"/>
  <rect x="10" y="0" width="1" height="3" fill="rgb(255,255,255)" fill-opacity="0.0078125"/>
  <rect x="10" y="3" width="1" height="1" fill="rgb(101,101,101)" fill-opacity="0.8828125"/>
  <rect x="10" y="4" width="1" height="3" fill="rgb(255,255,255)" fill-opacity="0.9609375"/>
  <rect x="10" y="7" width="1" height="1" fill="rgb(212,212,212)" fill-opacity="0.9609375"/>
  <rect x="10" y="8" width="1" height="1" fill="rgb(225,225,225)" fill-opacity="0.9609375"/>
  <rect x="10" y="9" width="1" height="1" fill="rgb(255,255,255)" fill-opacity="0.9609375"/>
  <rect x="10" y="10" width="1" height="1" fill="rgb(128,128,128)" fill-opacity="0.9609375"/>
  <rect x="10" y="11" width="1" height="6" fill="rgb(200,200,200)" fill-opacity="0.9609375"/>
  <rect x="10" y="17" width="1" height="1" fill="rgb(54,54,54)" fill-opacity="0.859375"/>
  <rect x="10" y="18" width="1" height="3" fill="rgb(255,255,255)" fill-opacity="0.0078125"/>
  <rect x="11" y="0" width="1" height="3" fill="rgb(255,255,255)" fill-opacity="0.0078125"/>
  <rect x="11" y="3" width="1" height="1" fill="rgb(28,28,28)" fill-opacity="0.40625"/>
  <rect x="11" y="4" width="1" height="1" fill="rgb(76,76,76)" fill-opacity="0.921875"/>
  <rect x="11" y="5" width="1" height="1" fill="rgb(87,87,87)" fill-opacity="0.9609375"/>
  <rect x="11" y="6" width="1" height="1" fill="rgb(185,185,185)" fill-opacity="0.9609375"/>
  <rect x="11" y="7" width="1" height="1" fill="rgb(213,213,213)" fill-opacity="0.9609375"/>
  <rect x="11" y="8" width="1" height="1" fill="rgb(164,164,164)" fill-opacity="0.9609375"/>
  <rect x="11" y="9" width="1" height="1" fill="rgb(227,227,227)" fill-opacity="0.9609375"/>
  <rect x="11" y="10" width="1" height="1" fill="rgb(200,200,200)" fill-opacity="0.9609375"/>
  <rect x="11" y="11" width="1" height="1" fill="rgb(199,199,199)" fill-opacity="0.9609375"/>
  <rect x="11" y="12" width="1" height="1" fill="rgb(150,150,150)" fill-opacity="0.9609375"/>
  <rect x="11" y="13" width="1" height="1" fill="rgb(200,200,200)" fill-opacity="0.9609375"/>
  <rect x="11" y="14" width="1" height="1" fill="rgb(159,159,159)" fill-opacity="0.9609375"/>
  <rect x="11" y="15" width="1" height="1" fill="rgb(69,69,69)" fill-opacity="0.9609375"/>
  <rect x="11" y="16" width="1" height="1" fill="rgb(62,62,62)" fill-opacity="0.9375"/>
  <rect x="11" y="17" width="1" height="1" fill="rgb(26,26,26)" fill-opacity="0.421875"/>
  <rect x="11" y="18" width="1" height="3" fill="rgb(255,255,255)" fill-opacity="0.0078125"/>
  <rect x="12" y="0" width="1" height="4" fill="rgb(255,255,255)" fill-opacity="0.0078125"/>
  <rect x="12" y="4" width="1" height="1" fill="rgb(26,26,26)" fill-opacity="0.546875"/>
  <rect x="12" y="5" width="1" height="1" fill="rgb(174,174,174)" fill-opacity="0.9609375"/>
  <rect x="12" y="6" width="1" height="1" fill="rgb(254,254,254)" fill-opacity="0.9609375"/>
  <rect x="12" y="7" width="1" height="1" fill="rgb(165,165,165)" fill-opacity="0.9609375"/>
  <rect x="12" y="8" width="1" height="1" fill="rgb(26,26,26)" fill-opacity="0.8203125"/>
  <rect x="12" y="9" width="1" height="1" fill="rgb(151,151,151)" fill-opacity="0.9609375"/>
  <rect x="12" y="10" width="1" height="1" fill="rgb(200,200,200)" fill-opacity="0.9609375"/>
  <rect x="12" y="11" width="1" height="1" fill="rgb(150,150,150)" fill-opacity="0.9609375"/>
  <rect x="12" y="12" width="1" height="1" fill="rgb(26,26,26)" fill-opacity="0.8203125"/>
  <rect x="12" y="13" width="1" height="1" fill="rgb(141,141,141)" fill-opacity="0.9609375"/>
  <rect x="12" y="14" width="1" height="1" fill="rgb(255,255,255)" fill-opacity="0.9609375"/>
  <rect x="12" y="15" width="1" height="1" fill="rgb(141,141,141)" fill-opacity="0.9609375"/>
  <rect x="12" y="16" width="1" height="1" fill="rgb(26,26,26)" fill-opacity="0.5078125"/>
  <rect x="12" y="17" width="1" height="4" fill="rgb(255,255,255)" fill-opacity="0.0078125"/>
  <rect x="13" y="0" width="1" height="4" fill="rgb(255,255,255)" fill-opacity="0.0078125"/>
  <rect x="13" y="4" width="1" height="1" fill="rgb(99,99,99)" fill-opacity="0.8828125"/>
  <rect x="13" y="5" width="1" height="1" fill="rgb(254,254,254)" fill-opacity="0.9609375"/>
  <rect x="13" y="6" width="1" height="1" fill="rgb(174,174,174)" fill-opacity="0.9609375"/>
  <rect x="13" y="7" width="1" height="1" fill="rgb(26,26,26)" fill-opacity="0.8203125"/>
  <rect x="13" y="8" width="1" height="1" fill="rgb(154,154,154)" fill-opacity="0.9609375"/>
  <rect x="13" y="9" width="1" height="1" fill="rgb(243,243,243)" fill-opacity="0.9609375"/>
  <rect x="13" y="10" width="1" height="2" fill="rgb(200,200,200)" fill-opacity="0.9609375"/>
  <rect x="13" y="12" width="1" height="1" fill="rgb(142,142,142)" fill-opacity="0.9609375"/>
  <rect x="13" y="13" width="1" height="1" fill="rgb(26,26,26)" fill-opacity="0.8203125"/>
  <rect x="13" y="14" width="1" height="1" fill="rgb(142,142,142)" fill-opacity="0.9609375"/>
  <rect x="13" y="15" width="1" height="1" fill="rgb(200,200,200)" fill-opacity="0.9609375"/>
  <rect x="13" y="16" width="1" height="1" fill="rgb(52,52,52)" fill-opacity="0.8671875"/>
  <rect x="13" y="17" width="1" height="4" fill="rgb(255,255,255)" fill-opacity="0.0078125"/>
  <rect x="14" y="0" width="1" height="4" fill="rgb(255,255,255)" fill-opacity="0.0078125"/>
  <rect x="14" y="4" width="1" height="1" fill="rgb(41,41,41)" fill-opacity="0.421875"/>
  <rect x="14" y="5" width="1" height="1" fill="rgb(97,97,97)" fill-opacity="0.890625"/>
  <rect x="14" y="6" width="1" height="1" fill="rgb(26,26,26)" fill-opacity="0.765625"/>
  <rect x="14" y="7" width="1" height="1" fill="rgb(154,154,154)" fill-opacity="0.9609375"/>
  <rect x="14" y="8" width="1" height="1" fill="rgb(250,250,250)" fill-opacity="0.9609375"/>
  <rect x="14" y="9" width="1" height="1" fill="rgb(169,169,169)" fill-opacity="0.9609375"/>
  <rect x="14" y="10" width="1" height="1" fill="rgb(201,201,201)" fill-opacity="0.9609375"/>
  <rect x="14" y="11" width="1" height="1" fill="rgb(158,158,158)" fill-opacity="0.9609375"/>
  <rect x="14" y="12" width="1" height="1" fill="rgb(255,255,255)" fill-opacity="0.9609375"/>
  <rect x="14" y="13" width="1" height="1" fill="rgb(141,141,141)" fill-opacity="0.9609375"/>
  <rect x="14" y="14" width="1" height="1" fill="rgb(26,26,26)" fill-opacity="0.765625"/>
  <rect x="14" y="15" width="1" height="1" fill="rgb(55,55,55)" fill-opacity="0.859375"/>
  <rect x="14" y="16" width="1" height="1" fill="rgb(27,27,27)" fill-opacity="0.40625"/>
  <rect x="14" y="17" width="1" height="4" fill="rgb(255,255,255)" fill-opacity="0.0078125"/>
  <rect x="15" y="0" width="1" height="6" fill="rgb(255,255,255)" fill-opacity="0.0078125"/>
  <rect x="15" y="6" width="1" height="1" fill="rgb(57,57,57)" fill-opacity="0.859375"/>
  <rect x="15" y="7" width="1" height="1" fill="rgb(243,243,243)" fill-opacity="0.9609375"/>
  <rect x="15" y="8" width="1" height="1" fill="rgb(154,154,154)" fill-opacity="0.9609375"/>
  <rect x="15" y="9" width="1" height="1" fill="rgb(79,79,79)" fill-opacity="0.9609375"/>
  <rect x="15" y="10" width="1" height="1" fill="rgb(252,252,252)" fill-opacity="0.9609375"/>
  <rect x="15" y="11" width="1" height="1" fill="rgb(81,81,81)" fill-opacity="0.9609375"/>
  <rect x="15" y="12" width="1" height="1" fill="rgb(142,142,142)" fill-opacity="0.9609375"/>
  <rect x="15" y="13" width="1" height="1" fill="rgb(200,200,200)" fill-opacity="0.9609375"/>
  <rect x="15" y="14" width="1" height="1" fill="rgb(52,52,52)" fill-opacity="0.8671875"/>
  <rect x="15" y="15" width="1" height="6" fill="rgb(255,255,255)" fill-opacity="0.0078125"/>
  <rect x="16" y="0" width="1" height="6" fill="rgb(255,255,255)" fill-opacity="0.0078125"/>
  <rect x="16" y="6" width="1" height="1" fill="rgb(27,27,27)" fill-opacity="0.40625"/>
  <rect x="16" y="7" width="1" height="1" fill="rgb(54,54,54)" fill-opacity="0.8671875"/>
  <rect x="16" y="8" width="1" height="1" fill="rgb(26,26,26)" fill-opacity="0.5078125"/>
  <rect x="16" y="9" width="1" height="1" fill="rgb(79,79,79)" fill-opacity="0.9453125"/>
  <rect x="16" y="10" width="1" height="1" fill="rgb(255,255,255)" fill-opacity="0.9609375"/>
  <rect x="16" y="11" width="1" height="1" fill="rgb(76,76,76)" fill-opacity="0.921875"/>
  <rect x="16" y="12" width="1" height="1" fill="rgb(26,26,26)" fill-opacity="0.546875"/>
  <rect x="16" y="13" width="1" height="1" fill="rgb(55,55,55)" fill-opacity="0.859375"/>
  <rect x="16" y="14" width="1" height="1" fill="rgb(27,27,27)" fill-opacity="0.40625"/>
  <rect x="16" y="15" width="1" height="6" fill="rgb(255,255,255)" fill-opacity="0.0078125"/>
  <rect x="17" y="0" width="1" height="9" fill="rgb(255,255,255)" fill-opacity="0.0078125"/>
  <rect x="17" y="9" width="1" height="1" fill="rgb(26,26,26)" fill-opacity="0.421875"/>
  <rect x="17" y="10" width="1" height="1" fill="rgb(101,101,101)" fill-opacity="0.8828125"/>
  <rect x="17" y="11" width="1" height="1" fill="rgb(28,28,28)" fill-opacity="0.40625"/>
  <rect x="17" y="12" width="1" height="9" fill="rgb(255,255,255)" fill-opacity="0.0078125"/>
  <rect x="18" y="0" width="1" height="21" fill="rgb(255,255,255)" fill-opacity="0.0078125"/>
  <rect x="19" y="0" width="1" height="21" fill="rgb(255,255,255)" fill-opacity="0.0078125"/>
  <rect x="20" y="0" width="1" height="21" fill="rgb(255,255,255)" fill-opacity="0.0078125"/>
</svg>