<svg xmlns="http://www.w3.org/2000/svg" shape-rendering="crispEdges" width="21" height="21" viewBox="0 0 21 21">
  <rect x="0" y="0" width="1" height="21" fill="rgb(255,255,255)" fill-opacity="0.0078125"/>
  <rect x="1" y="0" width="1" height="21" fill="rgb(255,255,255)" fill-opacity="0.0078125"/>
  <rect x="2" y="0" width="1" height="21" fill="rgb(255,255,255)" fill-opacity="0.0078125"/>
  <rect x="3" y="0" width="1" height="21" fill="rgb(255,255,255)" fill-opacity="0.0078125"/>
  <rect x="4" y="0" width="1" height="21" fill="rgb(255,255,255)" fill-opacity="0.0078125"/>
  <rect x="5" y="0" width="1" height="21" fill="rgb(255,255,255)" fill-opacity="0.0078125"/>
  <rect x="6" y="0" width="1" height="10" fill="rgb(255,255,255)" fill-opacity="0.0078125"/>
  <rect x="6" y="10" width="1" height="1" fill="rgb(45,45,45)" fill-opacity="0.796875"/>
  <rect x="6" y="11" width="1" height="6" fill="rgb(49,49,49)" fill-opacity="0.9140625"/>
  <rect x="6" y="17" width="1" height="1" fill="rgb(45,45,45)" fill-opacity="0.796875"/>
  <rect x="6" y="18" width="1" height="3" fill="rgb(255,255,255)" fill-opacity="0.0078125"/>
  <rect x="7" y="0" width="1" height="5" fill="rgb(255,255,255)" fill-opacity="0.0078125"/>
  <rect x="7" y="5" width="1" height="1" fill="rgb(0,0,0)" fill-opacity="0.09375"/>
  <rect x="7" y="6" width="1" height="1" fill="rgb(0,0,0)" fill-opacity="0.3828125"/>
  <rect x="7" y="7" width="1" height="1" fill="rgb(23,23,23)" fill-opacity="0.6953125"/>
  <rect x="7" y="8" width="1" height="1" fill="rgb(63,63,63)" fill-opacity="0.921875"/>
  <rect x="7" y="9" width="1" height="1" fill="rgb(64,64,64)" fill-opacity="0.9375"/>
  <rect x="7" y="10" width="1" height="1" fill="rgb(54,54,54)" fill-opacity="0.9609375"/>
  <rect x="7" y="11" width="1" height="1" fill="rgb(255,255,255)"/>
  <rect x="7" y="12" width="1" height="1" fill="rgb(237,239,241)"/>
  <rect x="7" y="13" width="1" height="1" fill="rgb(255,255,255)"/>
  <rect x="7" y="14" width="1" height="1" fill="rgb(237,239,241)"/>
  <rect x="7" y="15" width="1" height="1" fill="rgb(255,255,255)"/>
  <rect x="7" y="16" width="1" height="1" fill="rgb(237,239,241)"/>
  <rect x="7" y="17" width="1" height="1" fill="rgb(49,49,49)" fill-opacity="0.9140625"/>
  <rect x="7" y="18" width="1" height="3" fill="rgb(255,255,255)" fill-opacity="0.0078125"/>
  <rect x="8" y="0" width="1" height="4" fill="rgb(255,255,255)" fill-opacity="0.0078125"/>
  <rect x="8" y="4" width="1" height="1" fill="rgb(0,0,0)" fill-opacity="0.0703125"/>
  <rect x="8" y="5" width="1" height="1" fill="rgb(39,39,39)" fill-opacity="0.9296875"/>
  <rect x="8" y="6" width="1" height="1" fill="rgb(168,168,168)"/>
  <rect x="8" y="7" width="1" height="1" fill="rgb(227,227,227)"/>
  <rect x="8" y="8" width="1" height="2" fill="rgb(232,232,232)"/>
  <rect x="8" y="10" width="1" height="1" fill="rgb(130,130,130)" fill-opacity="0.984375"/>
  <rect x="8" y="11" width="1" height="1" fill="rgb(255,255,255)"/>
  <rect x="8" y="12" width="1" height="1" fill="rgb(198,203,211)"/>
  <rect x="8" y="13" width="1" height="1" fill="rgb(249,249,249)"/>
  <rect x="8" y="14" width="1" height="1" fill="rgb(198,203,211)"/>
  <rect x="8" y="15" width="1" height="1" fill="rgb(249,249,249)"/>
  <rect x="8" y="16" width="1" height="1" fill="rgb(200,205,213)"/>
  <rect x="8" y="17" width="1" height="1" fill="rgb(48,48,48)" fill-opacity="0.9140625"/>
  <rect x="8" y="18" width="1" height="3" fill="rgb(255,255,255)" fill-opacity="0.0078125"/>
  <rect x="9" y="0" width="1" height="4" fill="rgb(255,255,255)" fill-opacity="0.0078125"/>
  <rect x="9" y="4" width="1" height="1" fill="rgb(0,0,0)" fill-opacity="0.5625"/>
  <rect x="9" y="5" width="1" height="1" fill="rgb(151,151,151)"/>
  <rect x="9" y="6" width="1" height="1" fill="rgb(211,211,211)"/>
  <rect x="9" y="7" width="1" height="1" fill="rgb(119,119,119)"/>
  <rect x="9" y="8" width="1" height="1" fill="rgb(63,63,63)" fill-opacity="0.96875"/>
  <rect x="9" y="9" width="1" height="1" fill="rgb(60,60,60)" fill-opacity="0.9375"/>
  <rect x="9" y="10" width="1" height="1" fill="rgb(51,51,51)" fill-opacity="0.9609375"/>
  <rect x="9" y="11" width="1" height="1" fill="rgb(255,255,255)"/>
  <rect x="9" y="12" width="1" height="1" fill="rgb(194,199,207)"/>
  <rect x="9" y="13" width="1" height="1" fill="rgb(241,241,241)"/>
  <rect x="9" y="14" width="1" height="1" fill="rgb(194,199,207)"/>
  <rect x="9" y="15" width="1" height="1" fill="rgb(241,241,241)"/>
  <rect x="9" y="16" width="1" height="1" fill="rgb(198,203,211)"/>
  <rect x="9" y="17" width="1" height="1" fill="rgb(48,48,48)" fill-opacity="0.9140625"/>
  <rect x="9" y="18" width="1" height="3" fill="rgb(255,255,255)" fill-opacity="0.0078125"/>
  <rect x="10" y="0" width="1" height="4" fill="rgb(255,255,255)" fill-opacity="0.0078125"/>
  <rect x="10" y="4" width="1" height="1" fill="rgb(8,8,8)" fill-opacity="0.78125"/>
  <rect x="10" y="5" width="1" height="1" fill="rgb(206,206,206)"/>
  <rect x="10" y="6" width="1" height="1" fill="rgb(126,126,126)"/>
  <rect x="10" y="7" width="1" height="1" fill="rgb(0,0,0)" fill-opacity="0.2734375"/>
  <rect x="10" y="8" width="1" height="1" fill="rgb(0,0,0)" fill-opacity="0.0234375"/>
  <rect x="10" y="9" width="1" height="1" fill="rgb(255,255,255)" fill-opacity="0.0078125"/>
  <rect x="10" y="10" width="1" height="1" fill="rgb(47,47,47)" fill-opacity="0.9140625"/>
  <rect x="10" y="11" width="1" height="1" fill="rgb(255,255,255)"/>
  <rect x="10" y="12" width="1" height="1" fill="rgb(190,195,203)"/>
  <rect x="10" y="13" width="1" height="1" fill="rgb(233,233,233)"/>
  <rect x="10" y="14" width="1" height="1" fill="rgb(190,195,203)"/>
  <rect x="10" y="15" width="1" height="1" fill="rgb(233,233,233)"/>
  <rect x="10" y="16" width="1" height="1" fill="rgb(196,201,208)"/>
  <rect x="10" y="17" width="1" height="1" fill="rgb(47,47,47)" fill-opacity="0.9140625"/>
  <rect x="10" y="18" width="1" height="3" fill="rgb(255,255,255)" fill-opacity="0.0078125"/>
  <rect x="11" y="0" width="1" height="4" fill="rgb(255,255,255)" fill-opacity="0.0078125"/>
  <rect x="11" y="4" width="1" height="1" fill="rgb(45,45,45)" fill-opacity="0.8984375"/>
  <rect x="11" y="5" width="1" height="1" fill="rgb(208,208,208)"/>
  <rect x="11" y="6" width="1" height="1" fill="rgb(78,78,78)" fill-opacity="0.9609375"/>
  <rect x="11" y="7" width="1" height="3" fill="rgb(255,255,255)" fill-opacity="0.0078125"/>
  <rect x="11" y="10" width="1" height="1" fill="rgb(46,46,46)" fill-opacity="0.9140625"/>
  <rect x="11" y="11" width="1" height="1" fill="rgb(253,253,253)"/>
  <rect x="11" y="12" width="1" height="1" fill="rgb(187,192,199)"/>
  <rect x="11" y="13" width="1" height="1" fill="rgb(0,0,0)"/>
  <rect x="11" y="14" width="1" height="1" fill="rgb(77,77,77)"/>
  <rect x="11" y="15" width="1" height="1" fill="rgb(246,246,246)"/>
  <rect x="11" y="16" width="1" height="1" fill="rgb(193,198,206)"/>
  <rect x="11" y="17" width="1" height="1" fill="rgb(46,46,46)" fill-opacity="0.9140625"/>
  <rect x="11" y="18" width="1" height="3" fill="rgb(255,255,255)" fill-opacity="0.0078125"/>
  <rect x="12" y="0" width="1" height="4" fill="rgb(255,255,255)" fill-opacity="0.0078125"/>
  <rect x="12" y="4" width="1" height="1" fill="rgb(6,6,6)" fill-opacity="0.78125"/>
  <rect x="12" y="5" width="1" height="1" fill="rgb(192,192,192)"/>
  <rect x="12" y="6" width="1" height="1" fill="rgb(117,117,117)"/>
  <rect x="12" y="7" width="1" height="1" fill="rgb(0,0,0)" fill-opacity="0.2734375"/>
  <rect x="12" y="8" width="1" height="1" fill="rgb(0,0,0)" fill-opacity="0.0234375"/>
  <rect x="12" y="9" width="1" height="1" fill="rgb(255,255,255)" fill-opacity="0.0078125"/>
  <rect x="12" y="10" width="1" height="1" fill="rgb(45,45,45)" fill-opacity="0.9140625"/>
  <rect x="12" y="11" width="1" height="1" fill="rgb(250,250,250)"/>
  <rect x="12" y="12" width="1" height="1" fill="rgb(183,188,195)"/>
  <rect x="12" y="13" width="1" height="1" fill="rgb(244,244,244)"/>
  <rect x="12" y="14" width="1" height="1" fill="rgb(233,235,237)"/>
  <rect x="12" y="15" width="1" height="1" fill="rgb(244,244,244)"/>
  <rect x="12" y="16" width="1" height="1" fill="rgb(190,195,202)"/>
  <rect x="12" y="17" width="1" height="1" fill="rgb(45,45,45)" fill-opacity="0.9140625"/>
  <rect x="12" y="18" width="1" height="3" fill="rgb(255,255,255)" fill-opacity="0.0078125"/>
  <rect x="13" y="0" width="1" height="4" fill="rgb(255,255,255)" fill-opacity="0.0078125"/>
  <rect x="13" y="4" width="1" height="1" fill="rgb(0,0,0)" fill-opacity="0.5625"/>
  <rect x="13" y="5" width="1" height="1" fill="rgb(130,130,130)"/>
  <rect x="13" y="6" width="1" height="1" fill="rgb(182,182,182)"/>
  <rect x="13" y="7" width="1" height="1" fill="rgb(102,102,102)"/>
  <rect x="13" y="8" width="1" height="1" fill="rgb(54,54,54)" fill-opacity="0.96875"/>
  <rect x="13" y="9" width="1" height="1" fill="rgb(51,51,51)" fill-opacity="0.9375"/>
  <rect x="13" y="10" width="1" height="1" fill="rgb(45,45,45)" fill-opacity="0.9609375"/>
  <rect x="13" y="11" width="1" height="1" fill="rgb(246,246,246)"/>
  <rect x="13" y="12" width="1" height="1" fill="rgb(179,184,191)"/>
  <rect x="13" y="13" width="1" height="1" fill="rgb(210,210,210)"/>
  <rect x="13" y="14" width="1" height="1" fill="rgb(179,184,191)"/>
  <rect x="13" y="15" width="1" height="1" fill="rgb(210,210,210)"/>
  <rect x="13" y="16" width="1" height="1" fill="rgb(186,191,199)"/>
  <rect x="13" y="17" width="1" height="1" fill="rgb(45,45,45)" fill-opacity="0.9140625"/>
  <rect x="13" y="18" width="1" height="3" fill="rgb(255,255,255)" fill-opacity="0.0078125"/>
  <rect x="14" y="0" width="1" height="4" fill="rgb(255,255,255)" fill-opacity="0.0078125"/>
  <rect x="14" y="4" width="1" height="1" fill="rgb(0,0,0)" fill-opacity="0.0703125"/>
  <rect x="14" y="5" width="1" height="1" fill="rgb(31,31,31)" fill-opacity="0.9296875"/>
  <rect x="14" y="6" width="1" height="1" fill="rgb(134,134,134)"/>
  <rect x="14" y="7" width="1" height="1" fill="rgb(181,181,181)"/>
  <rect x="14" y="8" width="1" height="2" fill="rgb(185,185,185)"/>
  <rect x="14" y="10" width="1" height="1" fill="rgb(105,105,105)" fill-opacity="0.984375"/>
  <rect x="14" y="11" width="1" height="1" fill="rgb(242,242,242)"/>
  <rect x="14" y="12" width="1" height="1" fill="rgb(175,180,188)"/>
  <rect x="14" y="13" width="1" height="1" fill="rgb(203,203,203)"/>
  <rect x="14" y="14" width="1" height="1" fill="rgb(175,180,188)"/>
  <rect x="14" y="15" width="1" height="1" fill="rgb(203,203,203)"/>
  <rect x="14" y="16" width="1" height="1" fill="rgb(182,187,195)"/>
  <rect x="14" y="17" width="1" height="1" fill="rgb(44,44,44)" fill-opacity="0.9140625"/>
  <rect x="14" y="18" width="1" height="3" fill="rgb(255,255,255)" fill-opacity="0.0078125"/>
  <rect x="15" y="0" width="1" height="5" fill="rgb(255,255,255)" fill-opacity="0.0078125"/>
  <rect x="15" y="5" width="1" height="1" fill="rgb(0,0,0)" fill-opacity="0.09375"/>
  <rect x="15" y="6" width="1" height="1" fill="rgb(0,0,0)" fill-opacity="0.3828125"/>
  <rect x="15" y="7" width="1" height="1" fill="rgb(17,17,17)" fill-opacity="0.6953125"/>
  <rect x="15" y="8" width="1" height="1" fill="rgb(47,47,47)" fill-opacity="0.921875"/>
  <rect x="15" y="9" width="1" height="1" fill="rgb(47,47,47)" fill-opacity="0.9375"/>
  <rect x="15" y="10" width="1" height="1" fill="rgb(42,42,42)" fill-opacity="0.9609375"/>
  <rect x="15" y="11" width="1" height="1" fill="rgb(231,231,231)"/>
  <rect x="15" y="12" width="1" height="1" fill="rgb(195,199,206)"/>
  <rect x="15" y="13" width="1" height="1" fill="rgb(224,224,224)"/>
  <rect x="15" y="14" width="1" height="1" fill="rgb(189,193,199)"/>
  <rect x="15" y="15" width="1" height="1" fill="rgb(213,213,213)"/>
  <rect x="15" y="16" width="1" height="1" fill="rgb(181,185,192)"/>
  <rect x="15" y="17" width="1" height="1" fill="rgb(43,43,43)" fill-opacity="0.9140625"/>
  <rect x="15" y="18" width="1" height="3" fill="rgb(255,255,255)" fill-opacity="0.0078125"/>
  <rect x="16" y="0" width="1" height="10" fill="rgb(255,255,255)" fill-opacity="0.0078125"/>
  <rect x="16" y="10" width="1" height="1" fill="rgb(40,40,40)" fill-opacity="0.796875"/>
  <rect x="16" y="11" width="1" height="6" fill="rgb(43,43,43)" fill-opacity="0.9140625"/>
  <rect x="16" y="17" width="1" height="1" fill="rgb(40,40,40)" fill-opacity="0.796875"/>
  <rect x="16" y="18" width="1" height="3" fill="rgb(255,255,255)" fill-opacity="0.0078125"/>
  <rect x="17" y="0" width="1" height="21" fill="rgb(255,255,255)" fill-opacity="0.0078125"/>
  <rect x="18" y="0" width="1" height="21" fill="rgb(255,255,255)" fill-opacity="0.0078125"/>
  <rect x="19" y="0" width="1" height="21" fill="rgb(255,255,255)" fill-opacity="0.0078125"/>
  <rect x="20" y="0" width="1" height="21" fill="rgb(255,255,255)" fill-opacity="0.0078125"/>
</svg>