<svg xmlns="http://www.w3.org/2000/svg" shape-rendering="crispEdges" width="21" height="21" viewBox="0 0 21 21">
  <rect x="0" y="0" width="1" height="21" fill="rgb(255,255,255)" fill-opacity="0.0078125"/>
  <rect x="1" y="0" width="1" height="21" fill="rgb(255,255,255)" fill-opacity="0.0078125"/>
  <rect x="2" y="0" width="1" height="21" fill="rgb(255,255,255)" fill-opacity="0.0078125"/>
  <rect x="3" y="0" width="1" height="3" fill="rgb(255,255,255)" fill-opacity="0.0078125"/>
  <rect x="3" y="3" width="1" height="16" fill="rgb(255,0,0)" fill-opacity="0.015625"/>
  <rect x="3" y="19" width="1" height="2" fill="rgb(255,255,255)" fill-opacity="0.0078125"/>
  <rect x="4" y="0" width="1" height="3" fill="rgb(255,255,255)" fill-opacity="0.0078125"/>
  <rect x="4" y="3" width="1" height="1" fill="rgb(4,55,132)" fill-opacity="0.9140625"/>
  <rect x="4" y="4" width="1" height="2" fill="rgb(0,51,128)"/>
  <rect x="4" y="6" width="1" height="1" fill="rgb(4,55,132)" fill-opacity="0.9140625"/>
  <rect x="4" y="7" width="1" height="12" fill="rgb(255,0,0)" fill-opacity="0.015625"/>
  <rect x="4" y="19" width="1" height="2" fill="rgb(255,255,255)" fill-opacity="0.0078125"/>
  <rect x="5" y="0" width="1" height="3" fill="rgb(255,255,255)" fill-opacity="0.0078125"/>
  <rect x="5" y="3" width="1" height="1" fill="rgb(0,51,128)"/>
  <rect x="5" y="4" width="1" height="1" fill="rgb(204,225,255)"/>
  <rect x="5" y="5" width="1" height="1" fill="rgb(192,217,255)"/>
  <rect x="5" y="6" width="1" height="1" fill="rgb(4,55,131)"/>
  <rect x="5" y="7" width="1" height="1" fill="rgb(40,81,152)" fill-opacity="0.4609375"/>
  <rect x="5" y="8" width="1" height="2" fill="rgb(38,79,151)" fill-opacity="0.4765625"/>
  <rect x="5" y="10" width="1" height="1" fill="rgb(34,62,112)" fill-opacity="0.5625"/>
  <rect x="5" y="11" width="1" height="1" fill="rgb(29,37,52)" fill-opacity="0.8046875"/>
  <rect x="5" y="12" width="1" height="1" fill="rgb(31,34,39)" fill-opacity="0.9375"/>
  <rect x="5" y="13" width="1" height="1" fill="rgb(28,30,36)" fill-opacity="0.921875"/>
  <rect x="5" y="14" width="1" height="1" fill="rgb(26,28,34)" fill-opacity="0.7421875"/>
  <rect x="5" y="15" width="1" height="1" fill="rgb(73,18,18)" fill-opacity="0.0625"/>
  <rect x="5" y="16" width="1" height="3" fill="rgb(255,0,0)" fill-opacity="0.015625"/>
  <rect x="5" y="19" width="1" height="2" fill="rgb(255,255,255)" fill-opacity="0.0078125"/>
  <rect x="6" y="0" width="1" height="3" fill="rgb(255,255,255)" fill-opacity="0.0078125"/>
  <rect x="6" y="3" width="1" height="1" fill="rgb(0,51,128)"/>
  <rect x="6" y="4" width="1" height="1" fill="rgb(192,217,255)"/>
  <rect x="6" y="5" width="1" height="1" fill="rgb(128,179,255)"/>
  <rect x="6" y="6" width="1" height="1" fill="rgb(48,94,164)"/>
  <rect x="6" y="7" width="1" height="2" fill="rgb(172,202,251)" fill-opacity="0.5078125"/>
  <rect x="6" y="9" width="1" height="1" fill="rgb(145,169,210)" fill-opacity="0.5625"/>
  <rect x="6" y="10" width="1" height="1" fill="rgb(72,73,74)" fill-opacity="0.9765625"/>
  <rect x="6" y="11" width="1" height="1" fill="rgb(159,159,159)"/>
  <rect x="6" y="12" width="1" height="1" fill="rgb(204,204,204)"/>
  <rect x="6" y="13" width="1" height="1" fill="rgb(206,206,206)"/>
  <rect x="6" y="14" width="1" height="1" fill="rgb(124,124,124)"/>
  <rect x="6" y="15" width="1" height="1" fill="rgb(30,26,26)" fill-opacity="0.5078125"/>
  <rect x="6" y="16" width="1" height="3" fill="rgb(255,0,0)" fill-opacity="0.015625"/>
  <rect x="6" y="19" width="1" height="2" fill="rgb(255,255,255)" fill-opacity="0.0078125"/>
  <rect x="7" y="0" width="1" height="3" fill="rgb(255,255,255)" fill-opacity="0.0078125"/>
  <rect x="7" y="3" width="1" height="1" fill="rgb(4,55,132)" fill-opacity="0.9140625"/>
  <rect x="7" y="4" width="1" height="1" fill="rgb(3,54,131)"/>
  <rect x="7" y="5" width="1" height="1" fill="rgb(48,94,164)"/>
  <rect x="7" y="6" width="1" height="1" fill="rgb(11,61,137)" fill-opacity="0.9375"/>
  <rect x="7" y="7" width="1" height="1" fill="rgb(41,81,153)" fill-opacity="0.4453125"/>
  <rect x="7" y="8" width="1" height="1" fill="rgb(38,79,151)" fill-opacity="0.4765625"/>
  <rect x="7" y="9" width="1" height="1" fill="rgb(38,44,54)" fill-opacity="0.8671875"/>
  <rect x="7" y="10" width="1" height="1" fill="rgb(216,216,216)"/>
  <rect x="7" y="11" width="1" height="1" fill="rgb(222,222,222)"/>
  <rect x="7" y="12" width="1" height="1" fill="rgb(205,205,205)"/>
  <rect x="7" y="13" width="1" height="1" fill="rgb(206,206,206)"/>
  <rect x="7" y="14" width="1" height="1" fill="rgb(210,210,210)"/>
  <rect x="7" y="15" width="1" height="1" fill="rgb(50,50,50)" fill-opacity="0.9609375"/>
  <rect x="7" y="16" width="1" height="1" fill="rgb(47,19,19)" fill-opacity="0.109375"/>
  <rect x="7" y="17" width="1" height="2" fill="rgb(255,0,0)" fill-opacity="0.015625"/>
  <rect x="7" y="19" width="1" height="2" fill="rgb(255,255,255)" fill-opacity="0.0078125"/>
  <rect x="8" y="0" width="1" height="3" fill="rgb(255,255,255)" fill-opacity="0.0078125"/>
  <rect x="8" y="3" width="1" height="1" fill="rgb(255,0,0)" fill-opacity="0.015625"/>
  <rect x="8" y="4" width="1" height="1" fill="rgb(41,81,153)" fill-opacity="0.4453125"/>
  <rect x="8" y="5" width="1" height="1" fill="rgb(172,202,251)" fill-opacity="0.5078125"/>
  <rect x="8" y="6" width="1" height="1" fill="rgb(40,81,152)" fill-opacity="0.4609375"/>
  <rect x="8" y="7" width="1" height="1" fill="rgb(255,0,0)" fill-opacity="0.015625"/>
  <rect x="8" y="8" width="1" height="1" fill="rgb(32,27,27)" fill-opacity="0.4140625"/>
  <rect x="8" y="9" width="1" height="1" fill="rgb(168,168,167)"/>
  <rect x="8" y="10" width="1" height="1" fill="rgb(242,242,242)"/>
  <rect x="8" y="11" width="1" height="1" fill="rgb(235,235,234)"/>
  <rect x="8" y="12" width="1" height="2" fill="rgb(205,205,205)"/>
  <rect x="8" y="14" width="1" height="1" fill="rgb(214,214,214)"/>
  <rect x="8" y="15" width="1" height="1" fill="rgb(159,159,159)"/>
  <rect x="8" y="16" width="1" height="1" fill="rgb(28,26,26)" fill-opacity="0.609375"/>
  <rect x="8" y="17" width="1" height="2" fill="rgb(255,0,0)" fill-opacity="0.015625"/>
  <rect x="8" y="19" width="1" height="2" fill="rgb(255,255,255)" fill-opacity="0.0078125"/>
  <rect x="9" y="0" width="1" height="3" fill="rgb(255,255,255)" fill-opacity="0.0078125"/>
  <rect x="9" y="3" width="1" height="1" fill="rgb(255,0,0)" fill-opacity="0.015625"/>
  <rect x="9" y="4" width="1" height="1" fill="rgb(38,79,151)" fill-opacity="0.4765625"/>
  <rect x="9" y="5" width="1" height="1" fill="rgb(172,202,251)" fill-opacity="0.5078125"/>
  <rect x="9" y="6" width="1" height="1" fill="rgb(38,79,151)" fill-opacity="0.4765625"/>
  <rect x="9" y="7" width="1" height="1" fill="rgb(43,24,24)" fill-opacity="0.171875"/>
  <rect x="9" y="8" width="1" height="1" fill="rgb(74,74,74)" fill-opacity="0.9609375"/>
  <rect x="9" y="9" width="1" height="1" fill="rgb(223,223,222)"/>
  <rect x="9" y="10" width="1" height="1" fill="rgb(241,241,241)"/>
  <rect x="9" y="11" width="1" height="1" fill="rgb(240,240,240)"/>
  <rect x="9" y="12" width="1" height="1" fill="rgb(222,222,222)"/>
  <rect x="9" y="13" width="1" height="1" fill="rgb(205,205,205)"/>
  <rect x="9" y="14" width="1" height="1" fill="rgb(206,206,206)"/>
  <rect x="9" y="15" width="1" height="1" fill="rgb(223,223,223)"/>
  <rect x="9" y="16" width="1" height="1" fill="rgb(73,73,73)" fill-opacity="0.9921875"/>
  <rect x="9" y="17" width="1" height="1" fill="rgb(41,23,23)" fill-opacity="0.1796875"/>
  <rect x="9" y="18" width="1" height="1" fill="rgb(255,0,0)" fill-opacity="0.015625"/>
  <rect x="9" y="19" width="1" height="2" fill="rgb(255,255,255)" fill-opacity="0.0078125"/>
  <rect x="10" y="0" width="1" height="3" fill="rgb(255,255,255)" fill-opacity="0.0078125"/>
  <rect x="10" y="3" width="1" height="1" fill="rgb(255,0,0)" fill-opacity="0.015625"/>
  <rect x="10" y="4" width="1" height="1" fill="rgb(28,43,65)" fill-opacity="0.71875"/>
  <rect x="10" y="5" width="1" height="1" fill="rgb(59,62,66)" fill-opacity="0.9296875"/>
  <rect x="10" y="6" width="1" height="1" fill="rgb(27,30,37)" fill-opacity="0.90625"/>
  <rect x="10" y="7" width="1" height="1" fill="rgb(70,70,70)" fill-opacity="0.9921875"/>
  <rect x="10" y="8" width="1" height="1" fill="rgb(179,179,179)"/>
  <rect x="10" y="9" width="1" height="1" fill="rgb(207,207,207)"/>
  <rect x="10" y="10" width="1" height="1" fill="rgb(237,237,236)"/>
  <rect x="10" y="11" width="1" height="1" fill="rgb(245,245,245)"/>
  <rect x="10" y="12" width="1" height="1" fill="rgb(239,239,238)"/>
  <rect x="10" y="13" width="1" height="1" fill="rgb(228,228,228)"/>
  <rect x="10" y="14" width="1" height="1" fill="rgb(232,232,232)"/>
  <rect x="10" y="15" width="1" height="1" fill="rgb(229,229,229)"/>
  <rect x="10" y="16" width="1" height="1" fill="rgb(185,185,185)"/>
  <rect x="10" y="17" width="1" height="1" fill="rgb(25,28,32)" fill-opacity="0.71875"/>
  <rect x="10" y="18" width="1" height="1" fill="rgb(255,0,0)" fill-opacity="0.015625"/>
  <rect x="10" y="19" width="1" height="2" fill="rgb(255,255,255)" fill-opacity="0.0078125"/>
  <rect x="11" y="0" width="1" height="3" fill="rgb(255,255,255)" fill-opacity="0.0078125"/>
  <rect x="11" y="3" width="1" height="1" fill="rgb(255,0,0)" fill-opacity="0.015625"/>
  <rect x="11" y="4" width="1" height="1" fill="rgb(26,29,33)" fill-opacity="0.734375"/>
  <rect x="11" y="5" width="1" height="1" fill="rgb(240,240,240)"/>
  <rect x="11" y="6" width="1" height="1" fill="rgb(176,176,176)"/>
  <rect x="11" y="7" width="1" height="1" fill="rgb(171,171,171)"/>
  <rect x="11" y="8" width="1" height="1" fill="rgb(191,191,191)"/>
  <rect x="11" y="9" width="1" height="1" fill="rgb(205,205,205)"/>
  <rect x="11" y="10" width="1" height="1" fill="rgb(228,228,228)"/>
  <rect x="11" y="11" width="1" height="1" fill="rgb(245,245,245)"/>
  <rect x="11" y="12" width="1" height="1" fill="rgb(247,247,247)"/>
  <rect x="11" y="13" width="1" height="1" fill="rgb(138,138,138)"/>
  <rect x="11" y="14" width="1" height="1" fill="rgb(37,37,37)" fill-opacity="0.9140625"/>
  <rect x="11" y="15" width="1" height="1" fill="rgb(26,29,35)" fill-opacity="0.90625"/>
  <rect x="11" y="16" width="1" height="1" fill="rgb(39,41,46)" fill-opacity="0.921875"/>
  <rect x="11" y="17" width="1" height="1" fill="rgb(27,41,61)" fill-opacity="0.734375"/>
  <rect x="11" y="18" width="1" height="1" fill="rgb(255,0,0)" fill-opacity="0.015625"/>
  <rect x="11" y="19" width="1" height="2" fill="rgb(255,255,255)" fill-opacity="0.0078125"/>
  <rect x="12" y="0" width="1" height="3" fill="rgb(255,255,255)" fill-opacity="0.0078125"/>
  <rect x="12" y="3" width="1" height="1" fill="rgb(255,0,0)" fill-opacity="0.015625"/>
  <rect x="12" y="4" width="1" height="1" fill="rgb(32,26,26)" fill-opacity="0.3203125"/>
  <rect x="12" y="5" width="1" height="1" fill="rgb(206,206,206)"/>
  <rect x="12" y="6" width="1" height="1" fill="rgb(227,227,227)"/>
  <rect x="12" y="7" width="1" height="1" fill="rgb(163,163,163)"/>
  <rect x="12" y="8" width="1" height="1" fill="rgb(182,182,182)"/>
  <rect x="12" y="9" width="1" height="1" fill="rgb(202,202,202)"/>
  <rect x="12" y="10" width="1" height="1" fill="rgb(212,212,212)"/>
  <rect x="12" y="11" width="1" height="1" fill="rgb(248,248,248)"/>
  <rect x="12" y="12" width="1" height="1" fill="rgb(128,128,128)" fill-opacity="0.9921875"/>
  <rect x="12" y="13" width="1" height="1" fill="rgb(32,26,26)" fill-opacity="0.3515625"/>
  <rect x="12" y="14" width="1" height="1" fill="rgb(153,0,0)" fill-opacity="0.0234375"/>
  <rect x="12" y="15" width="1" height="1" fill="rgb(38,79,151)" fill-opacity="0.4765625"/>
  <rect x="12" y="16" width="1" height="1" fill="rgb(172,202,251)" fill-opacity="0.5078125"/>
  <rect x="12" y="17" width="1" height="1" fill="rgb(38,79,151)" fill-opacity="0.4765625"/>
  <rect x="12" y="18" width="1" height="1" fill="rgb(255,0,0)" fill-opacity="0.015625"/>
  <rect x="12" y="19" width="1" height="2" fill="rgb(255,255,255)" fill-opacity="0.0078125"/>
  <rect x="13" y="0" width="1" height="3" fill="rgb(255,255,255)" fill-opacity="0.0078125"/>
  <rect x="13" y="3" width="1" height="1" fill="rgb(255,0,0)" fill-opacity="0.015625"/>
  <rect x="13" y="4" width="1" height="1" fill="rgb(128,0,0)" fill-opacity="0.03125"/>
  <rect x="13" y="5" width="1" height="1" fill="rgb(84,84,84)" fill-opacity="0.921875"/>
  <rect x="13" y="6" width="1" height="1" fill="rgb(252,252,252)"/>
  <rect x="13" y="7" width="1" height="1" fill="rgb(161,161,161)"/>
  <rect x="13" y="8" width="1" height="1" fill="rgb(174,174,174)"/>
  <rect x="13" y="9" width="1" height="1" fill="rgb(195,195,195)"/>
  <rect x="13" y="10" width="1" height="1" fill="rgb(225,225,225)"/>
  <rect x="13" y="11" width="1" height="1" fill="rgb(214,214,213)"/>
  <rect x="13" y="12" width="1" height="1" fill="rgb(28,26,26)" fill-opacity="0.578125"/>
  <rect x="13" y="13" width="1" height="2" fill="rgb(255,0,0)" fill-opacity="0.015625"/>
  <rect x="13" y="15" width="1" height="1" fill="rgb(40,81,152)" fill-opacity="0.4609375"/>
  <rect x="13" y="16" width="1" height="1" fill="rgb(172,202,251)" fill-opacity="0.5078125"/>
  <rect x="13" y="17" width="1" height="1" fill="rgb(41,81,153)" fill-opacity="0.4453125"/>
  <rect x="13" y="18" width="1" height="1" fill="rgb(255,0,0)" fill-opacity="0.015625"/>
  <rect x="13" y="19" width="1" height="2" fill="rgb(255,255,255)" fill-opacity="0.0078125"/>
  <rect x="14" y="0" width="1" height="3" fill="rgb(255,255,255)" fill-opacity="0.0078125"/>
  <rect x="14" y="3" width="1" height="2" fill="rgb(255,0,0)" fill-opacity="0.015625"/>
  <rect x="14" y="5" width="1" height="1" fill="rgb(27,26,26)" fill-opacity="0.515625"/>
  <rect x="14" y="6" width="1" height="1" fill="rgb(234,234,234)"/>
  <rect x="14" y="7" width="1" height="1" fill="rgb(208,208,208)"/>
  <rect x="14" y="8" width="1" height="1" fill="rgb(166,166,166)"/>
  <rect x="14" y="9" width="1" height="1" fill="rgb(199,199,199)"/>
  <rect x="14" y="10" width="1" height="1" fill="rgb(237,237,237)"/>
  <rect x="14" y="11" width="1" height="1" fill="rgb(60,61,64)" fill-opacity="0.96875"/>
  <rect x="14" y="12" width="1" height="1" fill="rgb(37,71,133)" fill-opacity="0.515625"/>
  <rect x="14" y="13" width="1" height="1" fill="rgb(38,79,151)" fill-opacity="0.4765625"/>
  <rect x="14" y="14" width="1" height="1" fill="rgb(41,81,153)" fill-opacity="0.4453125"/>
  <rect x="14" y="15" width="1" height="1" fill="rgb(11,61,137)" fill-opacity="0.9375"/>
  <rect x="14" y="16" width="1" height="1" fill="rgb(48,94,164)"/>
  <rect x="14" y="17" width="1" height="1" fill="rgb(3,54,131)"/>
  <rect x="14" y="18" width="1" height="1" fill="rgb(4,55,132)" fill-opacity="0.9140625"/>
  <rect x="14" y="19" width="1" height="2" fill="rgb(255,255,255)" fill-opacity="0.0078125"/>
  <rect x="15" y="0" width="1" height="3" fill="rgb(255,255,255)" fill-opacity="0.0078125"/>
  <rect x="15" y="3" width="1" height="2" fill="rgb(255,0,0)" fill-opacity="0.015625"/>
  <rect x="15" y="5" width="1" height="1" fill="rgb(46,23,23)" fill-opacity="0.1328125"/>
  <rect x="15" y="6" width="1" height="1" fill="rgb(138,138,138)"/>
  <rect x="15" y="7" width="1" height="1" fill="rgb(235,235,235)"/>
  <rect x="15" y="8" width="1" height="1" fill="rgb(228,228,228)"/>
  <rect x="15" y="9" width="1" height="1" fill="rgb(221,221,221)"/>
  <rect x="15" y="10" width="1" height="1" fill="rgb(120,120,120)"/>
  <rect x="15" y="11" width="1" height="1" fill="rgb(90,103,126)" fill-opacity="0.703125"/>
  <rect x="15" y="12" width="1" height="3" fill="rgb(172,202,251)" fill-opacity="0.5078125"/>
  <rect x="15" y="15" width="1" height="1" fill="rgb(48,94,164)"/>
  <rect x="15" y="16" width="1" height="1" fill="rgb(128,179,255)"/>
  <rect x="15" y="17" width="1" height="1" fill="rgb(192,217,255)"/>
  <rect x="15" y="18" width="1" height="1" fill="rgb(0,51,128)"/>
  <rect x="15" y="19" width="1" height="2" fill="rgb(255,255,255)" fill-opacity="0.0078125"/>
  <rect x="16" y="0" width="1" height="3" fill="rgb(255,255,255)" fill-opacity="0.0078125"/>
  <rect x="16" y="3" width="1" height="3" fill="rgb(255,0,0)" fill-opacity="0.015625"/>
  <rect x="16" y="6" width="1" height="1" fill="rgb(25,29,41)" fill-opacity="0.5625"/>
  <rect x="16" y="7" width="1" height="1" fill="rgb(28,32,36)" fill-opacity="0.921875"/>
  <rect x="16" y="8" width="1" height="1" fill="rgb(39,42,46)" fill-opacity="0.9375"/>
  <rect x="16" y="9" width="1" height="1" fill="rgb(30,35,45)" fill-opacity="0.875"/>
  <rect x="16" y="10" width="1" height="1" fill="rgb(32,50,83)" fill-opacity="0.6640625"/>
  <rect x="16" y="11" width="1" height="3" fill="rgb(38,79,151)" fill-opacity="0.4765625"/>
  <rect x="16" y="14" width="1" height="1" fill="rgb(40,81,152)" fill-opacity="0.4609375"/>
  <rect x="16" y="15" width="1" height="1" fill="rgb(4,55,131)"/>
  <rect x="16" y="16" width="1" height="1" fill="rgb(192,217,255)"/>
  <rect x="16" y="17" width="1" height="1" fill="rgb(204,225,255)"/>
  <rect x="16" y="18" width="1" height="1" fill="rgb(0,51,128)"/>
  <rect x="16" y="19" width="1" height="2" fill="rgb(255,255,255)" fill-opacity="0.0078125"/>
  <rect x="17" y="0" width="1" height="3" fill="rgb(255,255,255)" fill-opacity="0.0078125"/>
  <rect x="17" y="3" width="1" height="12" fill="rgb(255,0,0)" fill-opacity="0.015625"/>
  <rect x="17" y="15" width="1" height="1" fill="rgb(4,55,132)" fill-opacity="0.9140625"/>
  <rect x="17" y="16" width="1" height="2" fill="rgb(0,51,128)"/>
  <rect x="17" y="18" width="1" height="1" fill="rgb(4,55,132)" fill-opacity="0.9140625"/>
  <rect x="17" y="19" width="1" height="2" fill="rgb(255,255,255)" fill-opacity="0.0078125"/>
  <rect x="18" y="0" width="1" height="3" fill="rgb(255,255,255)" fill-opacity="0.0078125"/>
  <rect x="18" y="3" width="1" height="16" fill="rgb(255,0,0)" fill-opacity="0.015625"/>
  <rect x="18" y="19" width="1" height="2" fill="rgb(255,255,255)" fill-opacity="0.0078125"/>
  <rect x="19" y="0" width="1" height="21" fill="rgb(255,255,255)" fill-opacity="0.0078125"/>
  <rect x="20" y="0" width="1" height="21" fill="rgb(255,255,255)" fill-opacity="0.0078125"/>
</svg>