<svg xmlns="http://www.w3.org/2000/svg" shape-rendering="crispEdges" width="21" height="21" viewBox="0 0 21 21">
  <rect x="0" y="0" width="1" height="21" fill="rgb(255,255,255)" fill-opacity="0.0078125"/>
  <rect x="1" y="0" width="1" height="21" fill="rgb(255,255,255)" fill-opacity="0.0078125"/>
  <rect x="2" y="0" width="1" height="21" fill="rgb(255,255,255)" fill-opacity="0.0078125"/>
  <rect x="3" y="0" width="1" height="21" fill="rgb(255,255,255)" fill-opacity="0.0078125"/>
  <rect x="4" y="0" width="1" height="21" fill="rgb(255,255,255)" fill-opacity="0.0078125"/>
  <rect x="5" y="0" width="1" height="6" fill="rgb(255,255,255)" fill-opacity="0.0078125"/>
  <rect x="5" y="6" width="1" height="1" fill="rgb(24,24,24)" fill-opacity="0.6796875"/>
  <rect x="5" y="7" width="1" height="1" fill="rgb(36,36,36)" fill-opacity="0.9609375"/>
  <rect x="5" y="8" width="1" height="1" fill="rgb(33,33,33)" fill-opacity="0.96875"/>
  <rect x="5" y="9" width="1" height="1" fill="rgb(31,31,31)" fill-opacity="0.96875"/>
  <rect x="5" y="10" width="1" height="1" fill="rgb(29,29,29)" fill-opacity="0.9765625"/>
  <rect x="5" y="11" width="1" height="1" fill="rgb(26,26,26)" fill-opacity="0.9765625"/>
  <rect x="5" y="12" width="1" height="1" fill="rgb(23,23,23)" fill-opacity="0.9765625"/>
  <rect x="5" y="13" width="1" height="1" fill="rgb(19,19,19)" fill-opacity="0.984375"/>
  <rect x="5" y="14" width="1" height="1" fill="rgb(22,22,22)" fill-opacity="0.8984375"/>
  <rect x="5" y="15" width="1" height="1" fill="rgb(0,0,0)" fill-opacity="0.0234375"/>
  <rect x="5" y="16" width="1" height="5" fill="rgb(255,255,255)" fill-opacity="0.0078125"/>
  <rect x="6" y="0" width="1" height="5" fill="rgb(255,255,255)" fill-opacity="0.0078125"/>
  <rect x="6" y="5" width="1" height="1" fill="rgb(36,36,36)" fill-opacity="0.03125"/>
  <rect x="6" y="6" width="1" height="1" fill="rgb(57,57,57)" fill-opacity="0.765625"/>
  <rect x="6" y="7" width="1" height="1" fill="rgb(106,106,106)" fill-opacity="0.9765625"/>
  <rect x="6" y="8" width="1" height="6" fill="rgb(255,255,255)"/>
  <rect x="6" y="14" width="1" height="1" fill="rgb(73,73,73)" fill-opacity="0.984375"/>
  <rect x="6" y="15" width="1" height="1" fill="rgb(10,10,10)" fill-opacity="0.515625"/>
  <rect x="6" y="16" width="1" height="5" fill="rgb(255,255,255)" fill-opacity="0.0078125"/>
  <rect x="7" y="0" width="1" height="5" fill="rgb(255,255,255)" fill-opacity="0.0078125"/>
  <rect x="7" y="5" width="1" height="1" fill="rgb(24,24,24)" fill-opacity="0.2578125"/>
  <rect x="7" y="6" width="1" height="1" fill="rgb(169,169,169)" fill-opacity="0.7109375"/>
  <rect x="7" y="7" width="1" height="1" fill="rgb(79,79,79)" fill-opacity="0.921875"/>
  <rect x="7" y="8" width="1" height="1" fill="rgb(210,210,210)"/>
  <rect x="7" y="9" width="1" height="5" fill="rgb(255,255,255)"/>
  <rect x="7" y="14" width="1" height="1" fill="rgb(203,203,203)"/>
  <rect x="7" y="15" width="1" height="1" fill="rgb(27,27,27)" fill-opacity="0.9375"/>
  <rect x="7" y="16" width="1" height="1" fill="rgb(18,18,18)" fill-opacity="0.0625"/>
  <rect x="7" y="17" width="1" height="4" fill="rgb(255,255,255)" fill-opacity="0.0078125"/>
  <rect x="8" y="0" width="1" height="5" fill="rgb(255,255,255)" fill-opacity="0.0078125"/>
  <rect x="8" y="5" width="1" height="1" fill="rgb(29,29,29)" fill-opacity="0.515625"/>
  <rect x="8" y="6" width="1" height="1" fill="rgb(224,224,224)" fill-opacity="0.703125"/>
  <rect x="8" y="7" width="1" height="1" fill="rgb(144,144,144)" fill-opacity="0.796875"/>
  <rect x="8" y="8" width="1" height="1" fill="rgb(126,126,126)" fill-opacity="0.984375"/>
  <rect x="8" y="9" width="1" height="6" fill="rgb(255,255,255)"/>
  <rect x="8" y="15" width="1" height="1" fill="rgb(100,100,100)" fill-opacity="0.984375"/>
  <rect x="8" y="16" width="1" height="1" fill="rgb(15,15,15)" fill-opacity="0.6015625"/>
  <rect x="8" y="17" width="1" height="4" fill="rgb(255,255,255)" fill-opacity="0.0078125"/>
  <rect x="9" y="0" width="1" height="4" fill="rgb(255,255,255)" fill-opacity="0.0078125"/>
  <rect x="9" y="4" width="1" height="1" fill="rgb(28,28,28)" fill-opacity="0.078125"/>
  <rect x="9" y="5" width="1" height="1" fill="rgb(87,87,87)" fill-opacity="0.703125"/>
  <rect x="9" y="6" width="1" height="1" fill="rgb(229,229,229)" fill-opacity="0.703125"/>
  <rect x="9" y="7" width="1" height="1" fill="rgb(220,220,220)" fill-opacity="0.7109375"/>
  <rect x="9" y="8" width="1" height="1" fill="rgb(80,80,80)" fill-opacity="0.9375"/>
  <rect x="9" y="9" width="1" height="1" fill="rgb(227,227,227)"/>
  <rect x="9" y="10" width="1" height="5" fill="rgb(255,255,255)"/>
  <rect x="9" y="15" width="1" height="1" fill="rgb(221,221,221)"/>
  <rect x="9" y="16" width="1" height="1" fill="rgb(33,33,33)" fill-opacity="0.953125"/>
  <rect x="9" y="17" width="1" height="1" fill="rgb(9,9,9)" fill-opacity="0.109375"/>
  <rect x="9" y="18" width="1" height="3" fill="rgb(255,255,255)" fill-opacity="0.0078125"/>
  <rect x="10" y="0" width="1" height="4" fill="rgb(255,255,255)" fill-opacity="0.0078125"/>
  <rect x="10" y="4" width="1" height="1" fill="rgb(26,26,26)" fill-opacity="0.3203125"/>
  <rect x="10" y="5" width="1" height="1" fill="rgb(175,175,175)" fill-opacity="0.703125"/>
  <rect x="10" y="6" width="1" height="2" fill="rgb(229,229,229)" fill-opacity="0.703125"/>
  <rect x="10" y="8" width="1" height="1" fill="rgb(136,136,136)" fill-opacity="0.8125"/>
  <rect x="10" y="9" width="1" height="1" fill="rgb(150,150,150)" fill-opacity="0.984375"/>
  <rect x="10" y="10" width="1" height="6" fill="rgb(255,255,255)"/>
  <rect x="10" y="16" width="1" height="1" fill="rgb(127,127,127)" fill-opacity="0.984375"/>
  <rect x="10" y="17" width="1" height="1" fill="rgb(19,19,19)" fill-opacity="0.6796875"/>
  <rect x="10" y="18" width="1" height="3" fill="rgb(255,255,255)" fill-opacity="0.0078125"/>
  <rect x="11" y="0" width="1" height="4" fill="rgb(255,255,255)" fill-opacity="0.0078125"/>
  <rect x="11" y="4" width="1" height="1" fill="rgb(26,26,26)" fill-opacity="0.5078125"/>
  <rect x="11" y="5" width="1" height="1" fill="rgb(221,221,221)" fill-opacity="0.703125"/>
  <rect x="11" y="6" width="1" height="2" fill="rgb(229,229,229)" fill-opacity="0.703125"/>
  <rect x="11" y="8" width="1" height="1" fill="rgb(212,212,212)" fill-opacity="0.71875"/>
  <rect x="11" y="9" width="1" height="1" fill="rgb(91,91,91)" fill-opacity="0.9140625"/>
  <rect x="11" y="10" width="1" height="1" fill="rgb(79,79,79)" fill-opacity="0.953125"/>
  <rect x="11" y="11" width="1" height="1" fill="rgb(74,74,74)" fill-opacity="0.953125"/>
  <rect x="11" y="12" width="1" height="1" fill="rgb(68,68,68)" fill-opacity="0.953125"/>
  <rect x="11" y="13" width="1" height="1" fill="rgb(64,64,64)" fill-opacity="0.9609375"/>
  <rect x="11" y="14" width="1" height="1" fill="rgb(59,59,59)" fill-opacity="0.9609375"/>
  <rect x="11" y="15" width="1" height="1" fill="rgb(55,55,55)" fill-opacity="0.9609375"/>
  <rect x="11" y="16" width="1" height="1" fill="rgb(50,50,50)" fill-opacity="0.96875"/>
  <rect x="11" y="17" width="1" height="1" fill="rgb(28,28,28)" fill-opacity="0.890625"/>
  <rect x="11" y="18" width="1" height="1" fill="rgb(51,51,51)" fill-opacity="0.0234375"/>
  <rect x="11" y="19" width="1" height="2" fill="rgb(255,255,255)" fill-opacity="0.0078125"/>
  <rect x="12" y="0" width="1" height="4" fill="rgb(255,255,255)" fill-opacity="0.0078125"/>
  <rect x="12" y="4" width="1" height="1" fill="rgb(26,26,26)" fill-opacity="0.3203125"/>
  <rect x="12" y="5" width="1" height="1" fill="rgb(172,172,172)" fill-opacity="0.703125"/>
  <rect x="12" y="6" width="1" height="2" fill="rgb(229,229,229)" fill-opacity="0.703125"/>
  <rect x="12" y="8" width="1" height="1" fill="rgb(227,227,227)" fill-opacity="0.703125"/>
  <rect x="12" y="9" width="1" height="1" fill="rgb(113,113,113)" fill-opacity="0.703125"/>
  <rect x="12" y="10" width="1" height="5" fill="rgb(103,103,103)" fill-opacity="0.703125"/>
  <rect x="12" y="15" width="1" height="1" fill="rgb(132,132,132)" fill-opacity="0.703125"/>
  <rect x="12" y="16" width="1" height="1" fill="rgb(88,88,88)" fill-opacity="0.703125"/>
  <rect x="12" y="17" width="1" height="1" fill="rgb(27,27,27)" fill-opacity="0.4140625"/>
  <rect x="12" y="18" width="1" height="3" fill="rgb(255,255,255)" fill-opacity="0.0078125"/>
  <rect x="13" y="0" width="1" height="4" fill="rgb(255,255,255)" fill-opacity="0.0078125"/>
  <rect x="13" y="4" width="1" height="1" fill="rgb(28,28,28)" fill-opacity="0.078125"/>
  <rect x="13" y="5" width="1" height="1" fill="rgb(95,95,95)" fill-opacity="0.703125"/>
  <rect x="13" y="6" width="1" height="2" fill="rgb(229,229,229)" fill-opacity="0.703125"/>
  <rect x="13" y="8" width="1" height="1" fill="rgb(178,178,178)" fill-opacity="0.703125"/>
  <rect x="13" y="9" width="1" height="5" fill="rgb(103,103,103)" fill-opacity="0.703125"/>
  <rect x="13" y="14" width="1" height="1" fill="rgb(110,110,110)" fill-opacity="0.703125"/>
  <rect x="13" y="15" width="1" height="1" fill="rgb(130,130,130)" fill-opacity="0.703125"/>
  <rect x="13" y="16" width="1" height="1" fill="rgb(33,33,33)" fill-opacity="0.671875"/>
  <rect x="13" y="17" width="1" height="1" fill="rgb(17,17,17)" fill-opacity="0.0625"/>
  <rect x="13" y="18" width="1" height="3" fill="rgb(255,255,255)" fill-opacity="0.0078125"/>
  <rect x="14" y="0" width="1" height="5" fill="rgb(255,255,255)" fill-opacity="0.0078125"/>
  <rect x="14" y="5" width="1" height="1" fill="rgb(29,29,29)" fill-opacity="0.515625"/>
  <rect x="14" y="6" width="1" height="1" fill="rgb(217,217,217)" fill-opacity="0.703125"/>
  <rect x="14" y="7" width="1" height="1" fill="rgb(229,229,229)" fill-opacity="0.703125"/>
  <rect x="14" y="8" width="1" height="1" fill="rgb(120,120,120)" fill-opacity="0.703125"/>
  <rect x="14" y="9" width="1" height="5" fill="rgb(103,103,103)" fill-opacity="0.703125"/>
  <rect x="14" y="14" width="1" height="1" fill="rgb(127,127,127)" fill-opacity="0.703125"/>
  <rect x="14" y="15" width="1" height="1" fill="rgb(68,68,68)" fill-opacity="0.703125"/>
  <rect x="14" y="16" width="1" height="1" fill="rgb(26,26,26)" fill-opacity="0.3515625"/>
  <rect x="14" y="17" width="1" height="4" fill="rgb(255,255,255)" fill-opacity="0.0078125"/>
  <rect x="15" y="0" width="1" height="5" fill="rgb(255,255,255)" fill-opacity="0.0078125"/>
  <rect x="15" y="5" width="1" height="1" fill="rgb(24,24,24)" fill-opacity="0.2578125"/>
  <rect x="15" y="6" width="1" height="1" fill="rgb(157,157,157)" fill-opacity="0.703125"/>
  <rect x="15" y="7" width="1" height="1" fill="rgb(189,189,189)" fill-opacity="0.703125"/>
  <rect x="15" y="8" width="1" height="5" fill="rgb(103,103,103)" fill-opacity="0.703125"/>
  <rect x="15" y="13" width="1" height="2" fill="rgb(111,111,111)" fill-opacity="0.703125"/>
  <rect x="15" y="15" width="1" height="1" fill="rgb(28,28,28)" fill-opacity="0.640625"/>
  <rect x="15" y="16" width="1" height="1" fill="rgb(32,32,32)" fill-opacity="0.0390625"/>
  <rect x="15" y="17" width="1" height="4" fill="rgb(255,255,255)" fill-opacity="0.0078125"/>
  <rect x="16" y="0" width="1" height="5" fill="rgb(255,255,255)" fill-opacity="0.0078125"/>
  <rect x="16" y="5" width="1" height="1" fill="rgb(36,36,36)" fill-opacity="0.03125"/>
  <rect x="16" y="6" width="1" height="1" fill="rgb(75,75,75)" fill-opacity="0.6796875"/>
  <rect x="16" y="7" width="1" height="1" fill="rgb(182,182,182)" fill-opacity="0.703125"/>
  <rect x="16" y="8" width="1" height="1" fill="rgb(158,158,158)" fill-opacity="0.703125"/>
  <rect x="16" y="9" width="1" height="1" fill="rgb(151,151,151)" fill-opacity="0.703125"/>
  <rect x="16" y="10" width="1" height="1" fill="rgb(144,144,144)" fill-opacity="0.703125"/>
  <rect x="16" y="11" width="1" height="1" fill="rgb(137,137,137)" fill-opacity="0.703125"/>
  <rect x="16" y="12" width="1" height="1" fill="rgb(130,130,130)" fill-opacity="0.703125"/>
  <rect x="16" y="13" width="1" height="1" fill="rgb(123,123,123)" fill-opacity="0.703125"/>
  <rect x="16" y="14" width="1" height="1" fill="rgb(53,53,53)" fill-opacity="0.703125"/>
  <rect x="16" y="15" width="1" height="1" fill="rgb(28,28,28)" fill-opacity="0.2890625"/>
  <rect x="16" y="16" width="1" height="5" fill="rgb(255,255,255)" fill-opacity="0.0078125"/>
  <rect x="17" y="0" width="1" height="6" fill="rgb(255,255,255)" fill-opacity="0.0078125"/>
  <rect x="17" y="6" width="1" height="1" fill="rgb(25,25,25)" fill-opacity="0.4453125"/>
  <rect x="17" y="7" width="1" height="7" fill="rgb(26,26,26)" fill-opacity="0.703125"/>
  <rect x="17" y="14" width="1" height="1" fill="rgb(25,25,25)" fill-opacity="0.6015625"/>
  <rect x="17" y="15" width="1" height="1" fill="rgb(0,0,0)" fill-opacity="0.015625"/>
  <rect x="17" y="16" width="1" height="5" fill="rgb(255,255,255)" fill-opacity="0.0078125"/>
  <rect x="18" y="0" width="1" height="21" fill="rgb(255,255,255)" fill-opacity="0.0078125"/>
  <rect x="19" y="0" width="1" height="21" fill="rgb(255,255,255)" fill-opacity="0.0078125"/>
  <rect x="20" y="0" width="1" height="21" fill="rgb(255,255,255)" fill-opacity="0.0078125"/>
</svg>