<svg xmlns="http://www.w3.org/2000/svg" shape-rendering="crispEdges" width="21" height="21" viewBox="0 0 21 21">
  <rect x="0" y="0" width="21" height="1" fill="rgb(255,255,255)" fill-opacity="0.0078125"/>
  <rect x="0" y="1" width="21" height="1" fill="rgb(255,255,255)" fill-opacity="0.0078125"/>
  <rect x="0" y="2" width="21" height="1" fill="rgb(255,255,255)" fill-opacity="0.0078125"/>
  <rect x="0" y="3" width="8" height="1" fill="rgb(255,255,255)" fill-opacity="0.0078125"/>
  <rect x="8" y="3" width="1" height="1" fill="rgb(255,255,255)" fill-opacity="0.03125"/>
  <rect x="9" y="3" width="1" height="1" fill="rgb(255,255,255)" fill-opacity="0.0546875"/>
  <rect x="10" y="3" width="2" height="1" fill="rgb(255,255,255)" fill-opacity="0.078125"/>
  <rect x="12" y="3" width="1" height="1" fill="rgb(255,255,255)" fill-opacity="0.0546875"/>
  <rect x="13" y="3" width="1" height="1" fill="rgb(255,255,255)" fill-opacity="0.03125"/>
  <rect x="14" y="3" width="7" height="1" fill="rgb(255,255,255)" fill-opacity="0.0078125"/>
  <rect x="0" y="4" width="6" height="1" fill="rgb(255,255,255)" fill-opacity="0.0078125"/>
  <rect x="6" y="4" width="1" height="1" fill="rgb(255,255,255)" fill-opacity="0.03125"/>
  <rect x="7" y="4" width="1" height="1" fill="rgb(255,255,255)" fill-opacity="0.09375"/>
  <rect x="8" y="4" width="1" height="1" fill="rgb(146,146,146)" fill-opacity="0.171875"/>
  <rect x="9" y="4" width="1" height="1" fill="rgb(53,53,53)" fill-opacity="0.3671875"/>
  <rect x="10" y="4" width="2" height="1" fill="rgb(24,24,24)" fill-opacity="0.546875"/>
  <rect x="12" y="4" width="1" height="1" fill="rgb(53,53,53)" fill-opacity="0.3671875"/>
  <rect x="13" y="4" width="1" height="1" fill="rgb(146,146,146)" fill-opacity="0.171875"/>
  <rect x="14" y="4" width="1" height="1" fill="rgb(255,255,255)" fill-opacity="0.09375"/>
  <rect x="15" y="4" width="1" height="1" fill="rgb(255,255,255)" fill-opacity="0.03125"/>
  <rect x="16" y="4" width="5" height="1" fill="rgb(255,255,255)" fill-opacity="0.0078125"/>
  <rect x="0" y="5" width="5" height="1" fill="rgb(255,255,255)" fill-opacity="0.0078125"/>
  <rect x="5" y="5" width="1" height="1" fill="rgb(255,255,255)" fill-opacity="0.0546875"/>
  <rect x="6" y="5" width="1" height="1" fill="rgb(221,221,221)" fill-opacity="0.125"/>
  <rect x="7" y="5" width="1" height="1" fill="rgb(24,24,24)" fill-opacity="0.5390625"/>
  <rect x="8" y="5" width="1" height="1" fill="rgb(1,1,1)" fill-opacity="0.9765625"/>
  <rect x="9" y="5" width="4" height="1" fill="rgb(0,0,0)"/>
  <rect x="13" y="5" width="1" height="1" fill="rgb(1,1,1)" fill-opacity="0.9765625"/>
  <rect x="14" y="5" width="1" height="1" fill="rgb(24,24,24)" fill-opacity="0.5390625"/>
  <rect x="15" y="5" width="1" height="1" fill="rgb(221,221,221)" fill-opacity="0.125"/>
  <rect x="16" y="5" width="1" height="1" fill="rgb(255,255,255)" fill-opacity="0.0546875"/>
  <rect x="17" y="5" width="4" height="1" fill="rgb(255,255,255)" fill-opacity="0.0078125"/>
  <rect x="0" y="6" width="4" height="1" fill="rgb(255,255,255)" fill-opacity="0.0078125"/>
  <rect x="4" y="6" width="1" height="1" fill="rgb(255,255,255)" fill-opacity="0.03125"/>
  <rect x="5" y="6" width="1" height="1" fill="rgb(206,206,206)" fill-opacity="0.125"/>
  <rect x="6" y="6" width="1" height="1" fill="rgb(8,8,8)" fill-opacity="0.8046875"/>
  <rect x="7" y="6" width="1" height="1" fill="rgb(0,0,0)"/>
  <rect x="8" y="6" width="1" height="1" fill="rgb(105,105,105)" fill-opacity="0.8828125"/>
  <rect x="9" y="6" width="1" height="1" fill="rgb(239,239,239)" fill-opacity="0.921875"/>
  <rect x="10" y="6" width="1" height="1" fill="rgb(254,254,254)" fill-opacity="0.9765625"/>
  <rect x="11" y="6" width="1" height="1" fill="rgb(254,254,254)" fill-opacity="0.984375"/>
  <rect x="12" y="6" width="1" height="1" fill="rgb(239,239,239)" fill-opacity="0.9140625"/>
  <rect x="13" y="6" width="1" height="1" fill="rgb(112,112,112)" fill-opacity="0.8828125"/>
  <rect x="14" y="6" width="1" height="1" fill="rgb(0,0,0)"/>
  <rect x="15" y="6" width="1" height="1" fill="rgb(8,8,8)" fill-opacity="0.8046875"/>
  <rect x="16" y="6" width="1" height="1" fill="rgb(206,206,206)" fill-opacity="0.125"/>
  <rect x="17" y="6" width="1" height="1" fill="rgb(255,255,255)" fill-opacity="0.03125"/>
  <rect x="18" y="6" width="3" height="1" fill="rgb(255,255,255)" fill-opacity="0.0078125"/>
  <rect x="0" y="7" width="4" height="1" fill="rgb(255,255,255)" fill-opacity="0.0078125"/>
  <rect x="4" y="7" width="1" height="1" fill="rgb(255,255,255)" fill-opacity="0.09375"/>
  <rect x="5" y="7" width="1" height="1" fill="rgb(21,21,21)" fill-opacity="0.5703125"/>
  <rect x="6" y="7" width="1" height="1" fill="rgb(0,0,0)"/>
  <rect x="7" y="7" width="1" height="1" fill="rgb(195,195,195)" fill-opacity="0.859375"/>
  <rect x="8" y="7" width="1" height="1" fill="rgb(255,255,255)" fill-opacity="0.984375"/>
  <rect x="9" y="7" width="1" height="1" fill="rgb(255,255,255)" fill-opacity="0.8828125"/>
  <rect x="10" y="7" width="2" height="1" fill="rgb(255,255,255)" fill-opacity="0.8359375"/>
  <rect x="12" y="7" width="1" height="1" fill="rgb(255,255,255)" fill-opacity="0.8828125"/>
  <rect x="13" y="7" width="1" height="1" fill="rgb(255,255,255)" fill-opacity="0.9765625"/>
  <rect x="14" y="7" width="1" height="1" fill="rgb(189,189,189)" fill-opacity="0.84375"/>
  <rect x="15" y="7" width="1" height="1" fill="rgb(0,0,0)"/>
  <rect x="16" y="7" width="1" height="1" fill="rgb(21,21,21)" fill-opacity="0.5703125"/>
  <rect x="17" y="7" width="1" height="1" fill="rgb(255,255,255)" fill-opacity="0.09375"/>
  <rect x="18" y="7" width="3" height="1" fill="rgb(255,255,255)" fill-opacity="0.0078125"/>
  <rect x="0" y="8" width="3" height="1" fill="rgb(255,255,255)" fill-opacity="0.0078125"/>
  <rect x="3" y="8" width="1" height="1" fill="rgb(255,255,255)" fill-opacity="0.046875"/>
  <rect x="4" y="8" width="1" height="1" fill="rgb(95,95,95)" fill-opacity="0.234375"/>
  <rect x="5" y="8" width="1" height="1" fill="rgb(0,0,0)" fill-opacity="0.9921875"/>
  <rect x="6" y="8" width="1" height="1" fill="rgb(112,112,112)" fill-opacity="0.8671875"/>
  <rect x="7" y="8" width="1" height="1" fill="rgb(255,255,255)" fill-opacity="0.984375"/>
  <rect x="8" y="8" width="1" height="1" fill="rgb(255,255,255)" fill-opacity="0.8203125"/>
  <rect x="9" y="8" width="3" height="1" fill="rgb(255,255,255)" fill-opacity="0.8046875"/>
  <rect x="12" y="8" width="1" height="1" fill="rgb(251,251,251)" fill-opacity="0.8046875"/>
  <rect x="13" y="8" width="1" height="1" fill="rgb(238,238,238)" fill-opacity="0.8203125"/>
  <rect x="14" y="8" width="1" height="1" fill="rgb(247,247,247)" fill-opacity="0.9453125"/>
  <rect x="15" y="8" width="1" height="1" fill="rgb(90,90,90)" fill-opacity="0.859375"/>
  <rect x="16" y="8" width="1" height="1" fill="rgb(0,0,0)" fill-opacity="0.9921875"/>
  <rect x="17" y="8" width="1" height="1" fill="rgb(95,95,95)" fill-opacity="0.234375"/>
  <rect x="18" y="8" width="1" height="1" fill="rgb(255,255,255)" fill-opacity="0.046875"/>
  <rect x="19" y="8" width="2" height="1" fill="rgb(255,255,255)" fill-opacity="0.0078125"/>
  <rect x="0" y="9" width="3" height="1" fill="rgb(255,255,255)" fill-opacity="0.0078125"/>
  <rect x="3" y="9" width="1" height="1" fill="rgb(255,255,255)" fill-opacity="0.0703125"/>
  <rect x="4" y="9" width="1" height="1" fill="rgb(35,35,35)" fill-opacity="0.46875"/>
  <rect x="5" y="9" width="1" height="1" fill="rgb(0,0,0)"/>
  <rect x="6" y="9" width="1" height="1" fill="rgb(243,243,243)" fill-opacity="0.90625"/>
  <rect x="7" y="9" width="1" height="1" fill="rgb(255,255,255)" fill-opacity="0.890625"/>
  <rect x="8" y="9" width="3" height="1" fill="rgb(255,255,255)" fill-opacity="0.8046875"/>
  <rect x="11" y="9" width="1" height="1" fill="rgb(248,248,248)" fill-opacity="0.8046875"/>
  <rect x="12" y="9" width="1" height="1" fill="rgb(235,235,235)" fill-opacity="0.8046875"/>
  <rect x="13" y="9" width="1" height="1" fill="rgb(223,223,223)" fill-opacity="0.8046875"/>
  <rect x="14" y="9" width="1" height="1" fill="rgb(222,222,222)" fill-opacity="0.859375"/>
  <rect x="15" y="9" width="1" height="1" fill="rgb(207,207,207)" fill-opacity="0.84375"/>
  <rect x="16" y="9" width="1" height="1" fill="rgb(0,0,0)"/>
  <rect x="17" y="9" width="1" height="1" fill="rgb(35,35,35)" fill-opacity="0.46875"/>
  <rect x="18" y="9" width="1" height="1" fill="rgb(255,255,255)" fill-opacity="0.0703125"/>
  <rect x="19" y="9" width="2" height="1" fill="rgb(255,255,255)" fill-opacity="0.0078125"/>
  <rect x="0" y="10" width="3" height="1" fill="rgb(255,255,255)" fill-opacity="0.0078125"/>
  <rect x="3" y="10" width="1" height="1" fill="rgb(255,255,255)" fill-opacity="0.0859375"/>
  <rect x="4" y="10" width="1" height="1" fill="rgb(16,16,16)" fill-opacity="0.6484375"/>
  <rect x="5" y="10" width="1" height="1" fill="rgb(0,0,0)"/>
  <rect x="6" y="10" width="1" height="1" fill="rgb(255,255,255)" fill-opacity="0.9765625"/>
  <rect x="7" y="10" width="1" height="1" fill="rgb(255,255,255)" fill-opacity="0.8359375"/>
  <rect x="8" y="10" width="2" height="1" fill="rgb(255,255,255)" fill-opacity="0.8046875"/>
  <rect x="10" y="10" width="1" height="1" fill="rgb(245,245,245)" fill-opacity="0.8046875"/>
  <rect x="11" y="10" width="1" height="1" fill="rgb(231,231,231)" fill-opacity="0.8046875"/>
  <rect x="12" y="10" width="1" height="1" fill="rgb(218,218,218)" fill-opacity="0.8046875"/>
  <rect x="13" y="10" width="1" height="1" fill="rgb(205,205,205)" fill-opacity="0.8046875"/>
  <rect x="14" y="10" width="1" height="1" fill="rgb(198,198,198)" fill-opacity="0.8203125"/>
  <rect x="15" y="10" width="1" height="1" fill="rgb(217,217,217)" fill-opacity="0.8671875"/>
  <rect x="16" y="10" width="1" height="1" fill="rgb(0,0,0)"/>
  <rect x="17" y="10" width="1" height="1" fill="rgb(16,16,16)" fill-opacity="0.6484375"/>
  <rect x="18" y="10" width="1" height="1" fill="rgb(255,255,255)" fill-opacity="0.0859375"/>
  <rect x="19" y="10" width="2" height="1" fill="rgb(255,255,255)" fill-opacity="0.0078125"/>
  <rect x="0" y="11" width="3" height="1" fill="rgb(255,255,255)" fill-opacity="0.0078125"/>
  <rect x="3" y="11" width="1" height="1" fill="rgb(255,255,255)" fill-opacity="0.0859375"/>
  <rect x="4" y="11" width="1" height="1" fill="rgb(15,15,15)" fill-opacity="0.6640625"/>
  <rect x="5" y="11" width="1" height="1" fill="rgb(0,0,0)"/>
  <rect x="6" y="11" width="1" height="1" fill="rgb(255,255,255)" fill-opacity="0.9765625"/>
  <rect x="7" y="11" width="1" height="1" fill="rgb(255,255,255)" fill-opacity="0.8359375"/>
  <rect x="8" y="11" width="1" height="1" fill="rgb(254,254,254)" fill-opacity="0.8046875"/>
  <rect x="9" y="11" width="1" height="1" fill="rgb(241,241,241)" fill-opacity="0.8046875"/>
  <rect x="10" y="11" width="1" height="1" fill="rgb(228,228,228)" fill-opacity="0.8046875"/>
  <rect x="11" y="11" width="1" height="1" fill="rgb(215,215,215)" fill-opacity="0.8046875"/>
  <rect x="12" y="11" width="1" height="1" fill="rgb(203,203,203)" fill-opacity="0.8046875"/>
  <rect x="13" y="11" width="1" height="1" fill="rgb(189,189,189)" fill-opacity="0.8046875"/>
  <rect x="14" y="11" width="1" height="1" fill="rgb(183,183,183)" fill-opacity="0.8203125"/>
  <rect x="15" y="11" width="1" height="1" fill="rgb(202,202,202)" fill-opacity="0.8671875"/>
  <rect x="16" y="11" width="1" height="1" fill="rgb(0,0,0)"/>
  <rect x="17" y="11" width="1" height="1" fill="rgb(15,15,15)" fill-opacity="0.6640625"/>
  <rect x="18" y="11" width="1" height="1" fill="rgb(255,255,255)" fill-opacity="0.0859375"/>
  <rect x="19" y="11" width="2" height="1" fill="rgb(255,255,255)" fill-opacity="0.0078125"/>
  <rect x="0" y="12" width="3" height="1" fill="rgb(255,255,255)" fill-opacity="0.0078125"/>
  <rect x="3" y="12" width="1" height="1" fill="rgb(255,255,255)" fill-opacity="0.0703125"/>
  <rect x="4" y="12" width="1" height="1" fill="rgb(31,31,31)" fill-opacity="0.484375"/>
  <rect x="5" y="12" width="1" height="1" fill="rgb(0,0,0)"/>
  <rect x="6" y="12" width="1" height="1" fill="rgb(245,245,245)" fill-opacity="0.9140625"/>
  <rect x="7" y="12" width="1" height="1" fill="rgb(253,253,253)" fill-opacity="0.890625"/>
  <rect x="8" y="12" width="1" height="1" fill="rgb(238,238,238)" fill-opacity="0.8046875"/>
  <rect x="9" y="12" width="1" height="1" fill="rgb(225,225,225)" fill-opacity="0.8046875"/>
  <rect x="10" y="12" width="1" height="1" fill="rgb(213,213,213)" fill-opacity="0.8046875"/>
  <rect x="11" y="12" width="1" height="1" fill="rgb(199,199,199)" fill-opacity="0.8046875"/>
  <rect x="12" y="12" width="1" height="1" fill="rgb(185,185,185)" fill-opacity="0.8046875"/>
  <rect x="13" y="12" width="1" height="1" fill="rgb(173,173,173)" fill-opacity="0.8046875"/>
  <rect x="14" y="12" width="1" height="1" fill="rgb(177,177,177)" fill-opacity="0.8359375"/>
  <rect x="15" y="12" width="1" height="1" fill="rgb(163,163,163)" fill-opacity="0.7578125"/>
  <rect x="16" y="12" width="1" height="1" fill="rgb(0,0,0)"/>
  <rect x="17" y="12" width="1" height="1" fill="rgb(31,31,31)" fill-opacity="0.484375"/>
  <rect x="18" y="12" width="1" height="1" fill="rgb(255,255,255)" fill-opacity="0.0703125"/>
  <rect x="19" y="12" width="2" height="1" fill="rgb(255,255,255)" fill-opacity="0.0078125"/>
  <rect x="0" y="13" width="3" height="1" fill="rgb(255,255,255)" fill-opacity="0.0078125"/>
  <rect x="3" y="13" width="1" height="1" fill="rgb(255,255,255)" fill-opacity="0.046875"/>
  <rect x="4" y="13" width="1" height="1" fill="rgb(79,79,79)" fill-opacity="0.2734375"/>
  <rect x="5" y="13" width="1" height="1" fill="rgb(0,0,0)"/>
  <rect x="6" y="13" width="1" height="1" fill="rgb(120,120,120)" fill-opacity="0.828125"/>
  <rect x="7" y="13" width="1" height="1" fill="rgb(254,254,254)" fill-opacity="0.984375"/>
  <rect x="8" y="13" width="1" height="1" fill="rgb(224,224,224)" fill-opacity="0.8203125"/>
  <rect x="9" y="13" width="1" height="1" fill="rgb(208,208,208)" fill-opacity="0.8046875"/>
  <rect x="10" y="13" width="1" height="1" fill="rgb(195,195,195)" fill-opacity="0.8046875"/>
  <rect x="11" y="13" width="1" height="1" fill="rgb(183,183,183)" fill-opacity="0.8046875"/>
  <rect x="12" y="13" width="1" height="1" fill="rgb(169,169,169)" fill-opacity="0.8046875"/>
  <rect x="13" y="13" width="1" height="1" fill="rgb(160,160,160)" fill-opacity="0.8125"/>
  <rect x="14" y="13" width="1" height="1" fill="rgb(181,181,181)" fill-opacity="0.8671875"/>
  <rect x="15" y="13" width="1" height="1" fill="rgb(58,58,58)" fill-opacity="0.796875"/>
  <rect x="16" y="13" width="1" height="1" fill="rgb(0,0,0)"/>
  <rect x="17" y="13" width="1" height="1" fill="rgb(79,79,79)" fill-opacity="0.2734375"/>
  <rect x="18" y="13" width="1" height="1" fill="rgb(255,255,255)" fill-opacity="0.046875"/>
  <rect x="19" y="13" width="2" height="1" fill="rgb(255,255,255)" fill-opacity="0.0078125"/>
  <rect x="0" y="14" width="3" height="1" fill="rgb(255,255,255)" fill-opacity="0.0078125"/>
  <rect x="3" y="14" width="1" height="1" fill="rgb(255,255,255)" fill-opacity="0.015625"/>
  <rect x="4" y="14" width="1" height="1" fill="rgb(255,255,255)" fill-opacity="0.1015625"/>
  <rect x="5" y="14" width="1" height="1" fill="rgb(15,15,15)" fill-opacity="0.6484375"/>
  <rect x="6" y="14" width="1" height="1" fill="rgb(0,0,0)"/>
  <rect x="7" y="14" width="1" height="1" fill="rgb(197,197,197)" fill-opacity="0.828125"/>
  <rect x="8" y="14" width="1" height="1" fill="rgb(243,243,243)" fill-opacity="0.953125"/>
  <rect x="9" y="14" width="1" height="1" fill="rgb(212,212,212)" fill-opacity="0.859375"/>
  <rect x="10" y="14" width="1" height="1" fill="rgb(185,185,185)" fill-opacity="0.8203125"/>
  <rect x="11" y="14" width="1" height="1" fill="rgb(174,174,174)" fill-opacity="0.8203125"/>
  <rect x="12" y="14" width="1" height="1" fill="rgb(172,172,172)" fill-opacity="0.84375"/>
  <rect x="13" y="14" width="1" height="1" fill="rgb(178,178,178)" fill-opacity="0.875"/>
  <rect x="14" y="14" width="1" height="1" fill="rgb(110,110,110)" fill-opacity="0.734375"/>
  <rect x="15" y="14" width="1" height="1" fill="rgb(0,0,0)"/>
  <rect x="16" y="14" width="1" height="1" fill="rgb(15,15,15)" fill-opacity="0.6484375"/>
  <rect x="17" y="14" width="1" height="1" fill="rgb(255,255,255)" fill-opacity="0.1015625"/>
  <rect x="18" y="14" width="1" height="1" fill="rgb(255,255,255)" fill-opacity="0.015625"/>
  <rect x="19" y="14" width="2" height="1" fill="rgb(255,255,255)" fill-opacity="0.0078125"/>
  <rect x="0" y="15" width="4" height="1" fill="rgb(255,255,255)" fill-opacity="0.0078125"/>
  <rect x="4" y="15" width="1" height="1" fill="rgb(255,255,255)" fill-opacity="0.0390625"/>
  <rect x="5" y="15" width="1" height="1" fill="rgb(168,168,168)" fill-opacity="0.15625"/>
  <rect x="6" y="15" width="1" height="1" fill="rgb(5,5,5)" fill-opacity="0.875"/>
  <rect x="7" y="15" width="1" height="1" fill="rgb(0,0,0)"/>
  <rect x="8" y="15" width="1" height="1" fill="rgb(106,106,106)" fill-opacity="0.8203125"/>
  <rect x="9" y="15" width="1" height="1" fill="rgb(207,207,207)" fill-opacity="0.828125"/>
  <rect x="10" y="15" width="1" height="1" fill="rgb(213,213,213)" fill-opacity="0.890625"/>
  <rect x="11" y="15" width="1" height="1" fill="rgb(199,199,199)" fill-opacity="0.859375"/>
  <rect x="12" y="15" width="1" height="1" fill="rgb(161,161,161)" fill-opacity="0.7890625"/>
  <rect x="13" y="15" width="1" height="1" fill="rgb(57,57,57)" fill-opacity="0.7890625"/>
  <rect x="14" y="15" width="1" height="1" fill="rgb(0,0,0)"/>
  <rect x="15" y="15" width="1" height="1" fill="rgb(5,5,5)" fill-opacity="0.875"/>
  <rect x="16" y="15" width="1" height="1" fill="rgb(168,168,168)" fill-opacity="0.15625"/>
  <rect x="17" y="15" width="1" height="1" fill="rgb(255,255,255)" fill-opacity="0.0390625"/>
  <rect x="18" y="15" width="3" height="1" fill="rgb(255,255,255)" fill-opacity="0.0078125"/>
  <rect x="0" y="16" width="5" height="1" fill="rgb(255,255,255)" fill-opacity="0.0078125"/>
  <rect x="5" y="16" width="1" height="1" fill="rgb(255,255,255)" fill-opacity="0.0625"/>
  <rect x="6" y="16" width="1" height="1" fill="rgb(157,157,157)" fill-opacity="0.15625"/>
  <rect x="7" y="16" width="1" height="1" fill="rgb(15,15,15)" fill-opacity="0.6484375"/>
  <rect x="8" y="16" width="6" height="1" fill="rgb(0,0,0)"/>
  <rect x="14" y="16" width="1" height="1" fill="rgb(15,15,15)" fill-opacity="0.6484375"/>
  <rect x="15" y="16" width="1" height="1" fill="rgb(157,157,157)" fill-opacity="0.15625"/>
  <rect x="16" y="16" width="1" height="1" fill="rgb(255,255,255)" fill-opacity="0.0625"/>
  <rect x="17" y="16" width="4" height="1" fill="rgb(255,255,255)" fill-opacity="0.0078125"/>
  <rect x="0" y="17" width="6" height="1" fill="rgb(255,255,255)" fill-opacity="0.0078125"/>
  <rect x="6" y="17" width="1" height="1" fill="rgb(255,255,255)" fill-opacity="0.0390625"/>
  <rect x="7" y="17" width="1" height="1" fill="rgb(255,255,255)" fill-opacity="0.1015625"/>
  <rect x="8" y="17" width="1" height="1" fill="rgb(86,86,86)" fill-opacity="0.2578125"/>
  <rect x="9" y="17" width="1" height="1" fill="rgb(32,32,32)" fill-opacity="0.4765625"/>
  <rect x="10" y="17" width="2" height="1" fill="rgb(15,15,15)" fill-opacity="0.65625"/>
  <rect x="12" y="17" width="1" height="1" fill="rgb(32,32,32)" fill-opacity="0.4765625"/>
  <rect x="13" y="17" width="1" height="1" fill="rgb(86,86,86)" fill-opacity="0.2578125"/>
  <rect x="14" y="17" width="1" height="1" fill="rgb(255,255,255)" fill-opacity="0.1015625"/>
  <rect x="15" y="17" width="1" height="1" fill="rgb(255,255,255)" fill-opacity="0.0390625"/>
  <rect x="16" y="17" width="5" height="1" fill="rgb(255,255,255)" fill-opacity="0.0078125"/>
  <rect x="0" y="18" width="7" height="1" fill="rgb(255,255,255)" fill-opacity="0.0078125"/>
  <rect x="7" y="18" width="1" height="1" fill="rgb(255,255,255)" fill-opacity="0.015625"/>
  <rect x="8" y="18" width="1" height="1" fill="rgb(255,255,255)" fill-opacity="0.046875"/>
  <rect x="9" y="18" width="1" height="1" fill="rgb(255,255,255)" fill-opacity="0.0703125"/>
  <rect x="10" y="18" width="2" height="1" fill="rgb(255,255,255)" fill-opacity="0.0859375"/>
  <rect x="12" y="18" width="1" height="1" fill="rgb(255,255,255)" fill-opacity="0.0703125"/>
  <rect x="13" y="18" width="1" height="1" fill="rgb(255,255,255)" fill-opacity="0.046875"/>
  <rect x="14" y="18" width="1" height="1" fill="rgb(255,255,255)" fill-opacity="0.015625"/>
  <rect x="15" y="18" width="6" height="1" fill="rgb(255,255,255)" fill-opacity="0.0078125"/>
  <rect x="0" y="19" width="21" height="1" fill="rgb(255,255,255)" fill-opacity="0.0078125"/>
  <rect x="0" y="20" width="21" height="1" fill="rgb(255,255,255)" fill-opacity="0.0078125"/>
</svg>