<svg xmlns="http://www.w3.org/2000/svg" shape-rendering="crispEdges" width="21" height="21" viewBox="0 0 21 21">
  <rect x="0" y="0" width="1" height="21" fill="rgb(255,255,255)" fill-opacity="0.0078125"/>
  <rect x="1" y="0" width="1" height="21" fill="rgb(255,255,255)" fill-opacity="0.0078125"/>
  <rect x="2" y="0" width="1" height="21" fill="rgb(255,255,255)" fill-opacity="0.0078125"/>
  <rect x="3" y="0" width="1" height="9" fill="rgb(255,255,255)" fill-opacity="0.0078125"/>
  <rect x="3" y="9" width="1" height="1" fill="rgb(27,27,27)" fill-opacity="0.4140625"/>
  <rect x="3" y="10" width="1" height="1" fill="rgb(30,30,30)" fill-opacity="0.9140625"/>
  <rect x="3" y="11" width="1" height="1" fill="rgb(26,26,26)" fill-opacity="0.7734375"/>
  <rect x="3" y="12" width="1" height="1" fill="rgb(26,26,26)" fill-opacity="0.3828125"/>
  <rect x="3" y="13" width="1" height="1" fill="rgb(26,26,26)" fill-opacity="0.046875"/>
  <rect x="3" y="14" width="1" height="7" fill="rgb(255,255,255)" fill-opacity="0.0078125"/>
  <rect x="4" y="0" width="1" height="9" fill="rgb(255,255,255)" fill-opacity="0.0078125"/>
  <rect x="4" y="9" width="1" height="1" fill="rgb(26,26,26)" fill-opacity="0.9140625"/>
  <rect x="4" y="10" width="1" height="1" fill="rgb(224,224,224)"/>
  <rect x="4" y="11" width="1" height="1" fill="rgb(228,228,228)"/>
  <rect x="4" y="12" width="1" height="1" fill="rgb(174,174,174)"/>
  <rect x="4" y="13" width="1" height="1" fill="rgb(55,55,55)" fill-opacity="0.953125"/>
  <rect x="4" y="14" width="1" height="1" fill="rgb(26,26,26)" fill-opacity="0.5859375"/>
  <rect x="4" y="15" width="1" height="1" fill="rgb(28,28,28)" fill-opacity="0.1875"/>
  <rect x="4" y="16" width="1" height="5" fill="rgb(255,255,255)" fill-opacity="0.0078125"/>
  <rect x="5" y="0" width="1" height="9" fill="rgb(255,255,255)" fill-opacity="0.0078125"/>
  <rect x="5" y="9" width="1" height="1" fill="rgb(26,26,26)" fill-opacity="0.578125"/>
  <rect x="5" y="10" width="1" height="1" fill="rgb(137,137,137)"/>
  <rect x="5" y="11" width="1" height="1" fill="rgb(233,233,233)"/>
  <rect x="5" y="12" width="1" height="1" fill="rgb(236,236,236)"/>
  <rect x="5" y="13" width="1" height="1" fill="rgb(243,243,243)"/>
  <rect x="5" y="14" width="1" height="1" fill="rgb(217,217,217)"/>
  <rect x="5" y="15" width="1" height="1" fill="rgb(112,112,112)"/>
  <rect x="5" y="16" width="1" height="1" fill="rgb(26,26,26)" fill-opacity="0.6875"/>
  <rect x="5" y="17" width="1" height="1" fill="rgb(32,32,32)" fill-opacity="0.0390625"/>
  <rect x="5" y="18" width="1" height="3" fill="rgb(255,255,255)" fill-opacity="0.0078125"/>
  <rect x="6" y="0" width="1" height="3" fill="rgb(255,255,255)" fill-opacity="0.0078125"/>
  <rect x="6" y="3" width="1" height="1" fill="rgb(23,23,23)" fill-opacity="0.1796875"/>
  <rect x="6" y="4" width="1" height="1" fill="rgb(26,26,26)" fill-opacity="0.796875"/>
  <rect x="6" y="5" width="1" height="5" fill="rgb(26,26,26)" fill-opacity="0.9140625"/>
  <rect x="6" y="10" width="1" height="2" fill="rgb(26,26,26)"/>
  <rect x="6" y="12" width="1" height="1" fill="rgb(128,128,128)"/>
  <rect x="6" y="13" width="1" height="1" fill="rgb(185,185,185)"/>
  <rect x="6" y="14" width="1" height="1" fill="rgb(239,239,239)"/>
  <rect x="6" y="15" width="1" height="1" fill="rgb(250,250,250)"/>
  <rect x="6" y="16" width="1" height="1" fill="rgb(184,184,184)"/>
  <rect x="6" y="17" width="1" height="1" fill="rgb(26,26,26)" fill-opacity="0.7265625"/>
  <rect x="6" y="18" width="1" height="1" fill="rgb(32,32,32)" fill-opacity="0.0390625"/>
  <rect x="6" y="19" width="1" height="2" fill="rgb(255,255,255)" fill-opacity="0.0078125"/>
  <rect x="7" y="0" width="1" height="3" fill="rgb(255,255,255)" fill-opacity="0.0078125"/>
  <rect x="7" y="3" width="1" height="1" fill="rgb(27,27,27)" fill-opacity="0.8125"/>
  <rect x="7" y="4" width="1" height="1" fill="rgb(239,239,239)"/>
  <rect x="7" y="5" width="1" height="7" fill="rgb(255,255,255)"/>
  <rect x="7" y="12" width="1" height="1" fill="rgb(241,241,241)"/>
  <rect x="7" y="13" width="1" height="1" fill="rgb(227,227,227)"/>
  <rect x="7" y="14" width="1" height="1" fill="rgb(220,220,220)"/>
  <rect x="7" y="15" width="1" height="1" fill="rgb(216,216,216)"/>
  <rect x="7" y="16" width="1" height="1" fill="rgb(245,245,245)"/>
  <rect x="7" y="17" width="1" height="1" fill="rgb(176,176,176)"/>
  <rect x="7" y="18" width="1" height="1" fill="rgb(26,26,26)" fill-opacity="0.6484375"/>
  <rect x="7" y="19" width="1" height="2" fill="rgb(255,255,255)" fill-opacity="0.0078125"/>
  <rect x="8" y="0" width="1" height="3" fill="rgb(255,255,255)" fill-opacity="0.0078125"/>
  <rect x="8" y="3" width="1" height="1" fill="rgb(28,28,28)" fill-opacity="0.8203125"/>
  <rect x="8" y="4" width="1" height="1" fill="rgb(230,230,230)"/>
  <rect x="8" y="5" width="1" height="4" fill="rgb(255,255,255)"/>
  <rect x="8" y="9" width="1" height="1" fill="rgb(248,248,248)"/>
  <rect x="8" y="10" width="1" height="1" fill="rgb(241,241,241)"/>
  <rect x="8" y="11" width="1" height="1" fill="rgb(234,234,234)"/>
  <rect x="8" y="12" width="1" height="1" fill="rgb(228,228,228)"/>
  <rect x="8" y="13" width="1" height="1" fill="rgb(221,221,221)"/>
  <rect x="8" y="14" width="1" height="1" fill="rgb(214,214,214)"/>
  <rect x="8" y="15" width="1" height="1" fill="rgb(207,207,207)"/>
  <rect x="8" y="16" width="1" height="1" fill="rgb(203,203,203)"/>
  <rect x="8" y="17" width="1" height="1" fill="rgb(245,245,245)"/>
  <rect x="8" y="18" width="1" height="1" fill="rgb(32,32,32)" fill-opacity="0.9140625"/>
  <rect x="8" y="19" width="1" height="2" fill="rgb(255,255,255)" fill-opacity="0.0078125"/>
  <rect x="9" y="0" width="1" height="3" fill="rgb(255,255,255)" fill-opacity="0.0078125"/>
  <rect x="9" y="3" width="1" height="1" fill="rgb(27,27,27)" fill-opacity="0.1875"/>
  <rect x="9" y="4" width="1" height="1" fill="rgb(26,26,26)" fill-opacity="0.8046875"/>
  <rect x="9" y="5" width="1" height="2" fill="rgb(26,26,26)" fill-opacity="0.9140625"/>
  <rect x="9" y="7" width="1" height="1" fill="rgb(26,26,26)" fill-opacity="0.9921875"/>
  <rect x="9" y="8" width="1" height="1" fill="rgb(31,31,31)"/>
  <rect x="9" y="9" width="1" height="1" fill="rgb(33,33,33)"/>
  <rect x="9" y="10" width="1" height="1" fill="rgb(35,35,35)"/>
  <rect x="9" y="11" width="1" height="1" fill="rgb(241,241,241)"/>
  <rect x="9" y="12" width="1" height="1" fill="rgb(221,221,221)"/>
  <rect x="9" y="13" width="1" height="1" fill="rgb(214,214,214)"/>
  <rect x="9" y="14" width="1" height="1" fill="rgb(162,162,162)"/>
  <rect x="9" y="15" width="1" height="1" fill="rgb(154,154,154)"/>
  <rect x="9" y="16" width="1" height="1" fill="rgb(147,147,147)"/>
  <rect x="9" y="17" width="1" height="1" fill="rgb(239,239,239)"/>
  <rect x="9" y="18" width="1" height="1" fill="rgb(32,32,32)" fill-opacity="0.9140625"/>
  <rect x="9" y="19" width="1" height="2" fill="rgb(255,255,255)" fill-opacity="0.0078125"/>
  <rect x="10" y="0" width="1" height="7" fill="rgb(255,255,255)" fill-opacity="0.0078125"/>
  <rect x="10" y="7" width="1" height="1" fill="rgb(66,66,66)" fill-opacity="0.9296875"/>
  <rect x="10" y="8" width="1" height="1" fill="rgb(255,255,255)"/>
  <rect x="10" y="9" width="1" height="2" fill="rgb(254,254,254)"/>
  <rect x="10" y="11" width="1" height="1" fill="rgb(246,246,246)"/>
  <rect x="10" y="12" width="1" height="1" fill="rgb(215,215,215)"/>
  <rect x="10" y="13" width="1" height="1" fill="rgb(208,208,208)"/>
  <rect x="10" y="14" width="1" height="1" fill="rgb(201,201,201)"/>
  <rect x="10" y="15" width="1" height="1" fill="rgb(194,194,194)"/>
  <rect x="10" y="16" width="1" height="1" fill="rgb(187,187,187)"/>
  <rect x="10" y="17" width="1" height="1" fill="rgb(234,234,234)"/>
  <rect x="10" y="18" width="1" height="1" fill="rgb(32,32,32)" fill-opacity="0.9140625"/>
  <rect x="10" y="19" width="1" height="2" fill="rgb(255,255,255)" fill-opacity="0.0078125"/>
  <rect x="11" y="0" width="1" height="7" fill="rgb(255,255,255)" fill-opacity="0.0078125"/>
  <rect x="11" y="7" width="1" height="1" fill="rgb(35,35,35)" fill-opacity="0.65625"/>
  <rect x="11" y="8" width="1" height="1" fill="rgb(151,151,151)"/>
  <rect x="11" y="9" width="1" height="1" fill="rgb(229,229,229)"/>
  <rect x="11" y="10" width="1" height="1" fill="rgb(222,222,222)"/>
  <rect x="11" y="11" width="1" height="1" fill="rgb(215,215,215)"/>
  <rect x="11" y="12" width="1" height="1" fill="rgb(208,208,208)"/>
  <rect x="11" y="13" width="1" height="1" fill="rgb(201,201,201)"/>
  <rect x="11" y="14" width="1" height="1" fill="rgb(148,148,148)"/>
  <rect x="11" y="15" width="1" height="1" fill="rgb(140,140,140)"/>
  <rect x="11" y="16" width="1" height="1" fill="rgb(132,132,132)"/>
  <rect x="11" y="17" width="1" height="1" fill="rgb(227,227,227)"/>
  <rect x="11" y="18" width="1" height="1" fill="rgb(32,32,32)" fill-opacity="0.9140625"/>
  <rect x="11" y="19" width="1" height="2" fill="rgb(255,255,255)" fill-opacity="0.0078125"/>
  <rect x="12" y="0" width="1" height="7" fill="rgb(255,255,255)" fill-opacity="0.0078125"/>
  <rect x="12" y="7" width="1" height="1" fill="rgb(32,32,32)" fill-opacity="0.0390625"/>
  <rect x="12" y="8" width="1" height="1" fill="rgb(27,27,27)" fill-opacity="0.828125"/>
  <rect x="12" y="9" width="1" height="1" fill="rgb(31,31,31)"/>
  <rect x="12" y="10" width="1" height="1" fill="rgb(35,35,35)"/>
  <rect x="12" y="11" width="1" height="1" fill="rgb(231,231,231)"/>
  <rect x="12" y="12" width="1" height="1" fill="rgb(202,202,202)"/>
  <rect x="12" y="13" width="1" height="1" fill="rgb(195,195,195)"/>
  <rect x="12" y="14" width="1" height="1" fill="rgb(188,188,188)"/>
  <rect x="12" y="15" width="1" height="1" fill="rgb(181,181,181)"/>
  <rect x="12" y="16" width="1" height="1" fill="rgb(174,174,174)"/>
  <rect x="12" y="17" width="1" height="1" fill="rgb(220,220,220)"/>
  <rect x="12" y="18" width="1" height="1" fill="rgb(32,32,32)" fill-opacity="0.9140625"/>
  <rect x="12" y="19" width="1" height="2" fill="rgb(255,255,255)" fill-opacity="0.0078125"/>
  <rect x="13" y="0" width="1" height="8" fill="rgb(255,255,255)" fill-opacity="0.0078125"/>
  <rect x="13" y="8" width="1" height="1" fill="rgb(67,67,67)" fill-opacity="0.9296875"/>
  <rect x="13" y="9" width="1" height="1" fill="rgb(254,254,254)"/>
  <rect x="13" y="10" width="1" height="1" fill="rgb(253,253,253)"/>
  <rect x="13" y="11" width="1" height="1" fill="rgb(237,237,237)"/>
  <rect x="13" y="12" width="1" height="1" fill="rgb(196,196,196)"/>
  <rect x="13" y="13" width="1" height="1" fill="rgb(189,189,189)"/>
  <rect x="13" y="14" width="1" height="1" fill="rgb(134,134,134)"/>
  <rect x="13" y="15" width="1" height="1" fill="rgb(126,126,126)"/>
  <rect x="13" y="16" width="1" height="1" fill="rgb(118,118,118)"/>
  <rect x="13" y="17" width="1" height="1" fill="rgb(213,213,213)"/>
  <rect x="13" y="18" width="1" height="1" fill="rgb(31,31,31)" fill-opacity="0.9140625"/>
  <rect x="13" y="19" width="1" height="2" fill="rgb(255,255,255)" fill-opacity="0.0078125"/>
  <rect x="14" y="0" width="1" height="8" fill="rgb(255,255,255)" fill-opacity="0.0078125"/>
  <rect x="14" y="8" width="1" height="1" fill="rgb(50,50,50)" fill-opacity="0.796875"/>
  <rect x="14" y="9" width="1" height="1" fill="rgb(191,191,191)"/>
  <rect x="14" y="10" width="1" height="1" fill="rgb(203,203,203)"/>
  <rect x="14" y="11" width="1" height="1" fill="rgb(196,196,196)"/>
  <rect x="14" y="12" width="1" height="1" fill="rgb(189,189,189)"/>
  <rect x="14" y="13" width="1" height="1" fill="rgb(182,182,182)"/>
  <rect x="14" y="14" width="1" height="1" fill="rgb(175,175,175)"/>
  <rect x="14" y="15" width="1" height="1" fill="rgb(169,169,169)"/>
  <rect x="14" y="16" width="1" height="1" fill="rgb(173,173,173)"/>
  <rect x="14" y="17" width="1" height="1" fill="rgb(205,205,205)"/>
  <rect x="14" y="18" width="1" height="1" fill="rgb(30,30,30)" fill-opacity="0.9140625"/>
  <rect x="14" y="19" width="1" height="2" fill="rgb(255,255,255)" fill-opacity="0.0078125"/>
  <rect x="15" y="0" width="1" height="8" fill="rgb(255,255,255)" fill-opacity="0.0078125"/>
  <rect x="15" y="8" width="1" height="1" fill="rgb(24,24,24)" fill-opacity="0.1328125"/>
  <rect x="15" y="9" width="1" height="1" fill="rgb(26,26,26)" fill-opacity="0.90625"/>
  <rect x="15" y="10" width="1" height="1" fill="rgb(30,30,30)"/>
  <rect x="15" y="11" width="1" height="1" fill="rgb(216,216,216)"/>
  <rect x="15" y="12" width="1" height="1" fill="rgb(183,183,183)"/>
  <rect x="15" y="13" width="1" height="1" fill="rgb(176,176,176)"/>
  <rect x="15" y="14" width="1" height="1" fill="rgb(172,172,172)"/>
  <rect x="15" y="15" width="1" height="1" fill="rgb(193,193,193)"/>
  <rect x="15" y="16" width="1" height="1" fill="rgb(194,194,194)"/>
  <rect x="15" y="17" width="1" height="1" fill="rgb(93,93,93)"/>
  <rect x="15" y="18" width="1" height="1" fill="rgb(27,27,27)" fill-opacity="0.6015625"/>
  <rect x="15" y="19" width="1" height="2" fill="rgb(255,255,255)" fill-opacity="0.0078125"/>
  <rect x="16" y="0" width="1" height="9" fill="rgb(255,255,255)" fill-opacity="0.0078125"/>
  <rect x="16" y="9" width="1" height="1" fill="rgb(26,26,26)" fill-opacity="0.84375"/>
  <rect x="16" y="10" width="1" height="1" fill="rgb(205,205,205)"/>
  <rect x="16" y="11" width="1" height="1" fill="rgb(237,237,237)"/>
  <rect x="16" y="12" width="1" height="1" fill="rgb(229,229,229)"/>
  <rect x="16" y="13" width="1" height="1" fill="rgb(222,222,222)"/>
  <rect x="16" y="14" width="1" height="1" fill="rgb(213,213,213)"/>
  <rect x="16" y="15" width="1" height="1" fill="rgb(145,145,145)"/>
  <rect x="16" y="16" width="1" height="1" fill="rgb(40,40,40)" fill-opacity="0.9375"/>
  <rect x="16" y="17" width="1" height="1" fill="rgb(27,27,27)" fill-opacity="0.3828125"/>
  <rect x="16" y="18" width="1" height="1" fill="rgb(0,0,0)" fill-opacity="0.0078125"/>
  <rect x="16" y="19" width="1" height="2" fill="rgb(255,255,255)" fill-opacity="0.0078125"/>
  <rect x="17" y="0" width="1" height="9" fill="rgb(255,255,255)" fill-opacity="0.0078125"/>
  <rect x="17" y="9" width="1" height="1" fill="rgb(27,27,27)" fill-opacity="0.2265625"/>
  <rect x="17" y="10" width="1" height="1" fill="rgb(28,28,28)" fill-opacity="0.8125"/>
  <rect x="17" y="11" width="1" height="3" fill="rgb(32,32,32)" fill-opacity="0.9140625"/>
  <rect x="17" y="14" width="1" height="1" fill="rgb(29,29,29)" fill-opacity="0.8984375"/>
  <rect x="17" y="15" width="1" height="1" fill="rgb(27,27,27)" fill-opacity="0.6015625"/>
  <rect x="17" y="16" width="1" height="1" fill="rgb(28,28,28)" fill-opacity="0.078125"/>
  <rect x="17" y="17" width="1" height="4" fill="rgb(255,255,255)" fill-opacity="0.0078125"/>
  <rect x="18" y="0" width="1" height="21" fill="rgb(255,255,255)" fill-opacity="0.0078125"/>
  <rect x="19" y="0" width="1" height="21" fill="rgb(255,255,255)" fill-opacity="0.0078125"/>
  <rect x="20" y="0" width="1" height="21" fill="rgb(255,255,255)" fill-opacity="0.0078125"/>
</svg>