<svg xmlns="http://www.w3.org/2000/svg" shape-rendering="crispEdges" width="21" height="21" viewBox="0 0 21 21">
  <rect x="0" y="0" width="1" height="21" fill="rgb(255,255,255)" fill-opacity="0.0078125"/>
  <rect x="1" y="0" width="1" height="21" fill="rgb(255,255,255)" fill-opacity="0.0078125"/>
  <rect x="2" y="0" width="1" height="21" fill="rgb(255,255,255)" fill-opacity="0.0078125"/>
  <rect x="3" y="0" width="1" height="21" fill="rgb(255,255,255)" fill-opacity="0.0078125"/>
  <rect x="4" y="0" width="1" height="13" fill="rgb(255,255,255)" fill-opacity="0.0078125"/>
  <rect x="4" y="13" width="1" height="1" fill="rgb(21,47,81)" fill-opacity="0.2421875"/>
  <rect x="4" y="14" width="1" height="1" fill="rgb(26,49,84)" fill-opacity="0.96875"/>
  <rect x="4" y="15" width="1" height="1" fill="rgb(22,45,80)"/>
  <rect x="4" y="16" width="1" height="1" fill="rgb(27,50,85)" fill-opacity="0.96875"/>
  <rect x="4" y="17" width="1" height="1" fill="rgb(21,47,81)" fill-opacity="0.2421875"/>
  <rect x="4" y="18" width="1" height="3" fill="rgb(255,255,255)" fill-opacity="0.0078125"/>
  <rect x="5" y="0" width="1" height="12" fill="rgb(255,255,255)" fill-opacity="0.0078125"/>
  <rect x="5" y="12" width="1" height="1" fill="rgb(21,47,81)" fill-opacity="0.2421875"/>
  <rect x="5" y="13" width="1" height="1" fill="rgb(30,54,88)" fill-opacity="0.9609375"/>
  <rect x="5" y="14" width="1" height="1" fill="rgb(189,198,210)"/>
  <rect x="5" y="15" width="1" height="1" fill="rgb(220,230,244)"/>
  <rect x="5" y="16" width="1" height="1" fill="rgb(166,182,203)"/>
  <rect x="5" y="17" width="1" height="1" fill="rgb(25,48,83)" fill-opacity="0.9609375"/>
  <rect x="5" y="18" width="1" height="3" fill="rgb(255,255,255)" fill-opacity="0.0078125"/>
  <rect x="6" y="0" width="1" height="11" fill="rgb(255,255,255)" fill-opacity="0.0078125"/>
  <rect x="6" y="11" width="1" height="1" fill="rgb(21,47,81)" fill-opacity="0.2421875"/>
  <rect x="6" y="12" width="1" height="1" fill="rgb(31,54,90)" fill-opacity="0.9609375"/>
  <rect x="6" y="13" width="1" height="1" fill="rgb(191,199,211)"/>
  <rect x="6" y="14" width="1" height="1" fill="rgb(147,177,220)"/>
  <rect x="6" y="15" width="1" height="1" fill="rgb(22,45,80)"/>
  <rect x="6" y="16" width="1" height="1" fill="rgb(142,174,219)"/>
  <rect x="6" y="17" width="1" height="1" fill="rgb(22,45,80)"/>
  <rect x="6" y="18" width="1" height="3" fill="rgb(255,255,255)" fill-opacity="0.0078125"/>
  <rect x="7" y="0" width="1" height="10" fill="rgb(255,255,255)" fill-opacity="0.0078125"/>
  <rect x="7" y="10" width="1" height="1" fill="rgb(21,47,81)" fill-opacity="0.2421875"/>
  <rect x="7" y="11" width="1" height="1" fill="rgb(31,54,90)" fill-opacity="0.9609375"/>
  <rect x="7" y="12" width="1" height="1" fill="rgb(192,200,212)"/>
  <rect x="7" y="13" width="1" height="1" fill="rgb(124,160,212)"/>
  <rect x="7" y="14" width="1" height="1" fill="rgb(69,119,194)"/>
  <rect x="7" y="15" width="1" height="1" fill="rgb(172,195,231)"/>
  <rect x="7" y="16" width="1" height="1" fill="rgb(129,157,196)"/>
  <rect x="7" y="17" width="1" height="1" fill="rgb(26,48,83)" fill-opacity="0.9609375"/>
  <rect x="7" y="18" width="1" height="3" fill="rgb(255,255,255)" fill-opacity="0.0078125"/>
  <rect x="8" y="0" width="1" height="9" fill="rgb(255,255,255)" fill-opacity="0.0078125"/>
  <rect x="8" y="9" width="1" height="1" fill="rgb(23,46,79)" fill-opacity="0.21875"/>
  <rect x="8" y="10" width="1" height="1" fill="rgb(31,54,91)" fill-opacity="0.9609375"/>
  <rect x="8" y="11" width="1" height="1" fill="rgb(193,201,213)"/>
  <rect x="8" y="12" width="1" height="1" fill="rgb(125,161,212)"/>
  <rect x="8" y="13" width="1" height="1" fill="rgb(59,112,192)"/>
  <rect x="8" y="14" width="1" height="1" fill="rgb(144,174,221)"/>
  <rect x="8" y="15" width="1" height="1" fill="rgb(132,159,200)"/>
  <rect x="8" y="16" width="1" height="1" fill="rgb(29,52,87)" fill-opacity="0.953125"/>
  <rect x="8" y="17" width="1" height="1" fill="rgb(21,47,81)" fill-opacity="0.2421875"/>
  <rect x="8" y="18" width="1" height="3" fill="rgb(255,255,255)" fill-opacity="0.0078125"/>
  <rect x="9" y="0" width="1" height="5" fill="rgb(255,255,255)" fill-opacity="0.0078125"/>
  <rect x="9" y="5" width="1" height="1" fill="rgb(20,39,78)" fill-opacity="0.0546875"/>
  <rect x="9" y="6" width="1" height="1" fill="rgb(23,46,81)" fill-opacity="0.5703125"/>
  <rect x="9" y="7" width="1" height="1" fill="rgb(27,51,88)" fill-opacity="0.8671875"/>
  <rect x="9" y="8" width="1" height="1" fill="rgb(24,47,83)" fill-opacity="0.984375"/>
  <rect x="9" y="9" width="1" height="1" fill="rgb(23,46,81)" fill-opacity="0.9921875"/>
  <rect x="9" y="10" width="1" height="1" fill="rgb(180,189,203)"/>
  <rect x="9" y="11" width="1" height="1" fill="rgb(126,161,213)"/>
  <rect x="9" y="12" width="1" height="1" fill="rgb(59,112,192)"/>
  <rect x="9" y="13" width="1" height="1" fill="rgb(144,174,221)"/>
  <rect x="9" y="14" width="1" height="1" fill="rgb(133,160,200)"/>
  <rect x="9" y="15" width="1" height="1" fill="rgb(30,52,89)" fill-opacity="0.953125"/>
  <rect x="9" y="16" width="1" height="1" fill="rgb(21,47,81)" fill-opacity="0.2421875"/>
  <rect x="9" y="17" width="1" height="4" fill="rgb(255,255,255)" fill-opacity="0.0078125"/>
  <rect x="10" y="0" width="1" height="4" fill="rgb(255,255,255)" fill-opacity="0.0078125"/>
  <rect x="10" y="4" width="1" height="1" fill="rgb(28,43,85)" fill-opacity="0.078125"/>
  <rect x="10" y="5" width="1" height="1" fill="rgb(23,47,84)" fill-opacity="0.8984375"/>
  <rect x="10" y="6" width="1" height="1" fill="rgb(84,106,138)" fill-opacity="0.9765625"/>
  <rect x="10" y="7" width="1" height="1" fill="rgb(194,202,213)"/>
  <rect x="10" y="8" width="1" height="1" fill="rgb(221,229,239)"/>
  <rect x="10" y="9" width="1" height="1" fill="rgb(246,248,252)"/>
  <rect x="10" y="10" width="1" height="1" fill="rgb(229,236,247)"/>
  <rect x="10" y="11" width="1" height="1" fill="rgb(69,119,194)"/>
  <rect x="10" y="12" width="1" height="1" fill="rgb(144,174,221)"/>
  <rect x="10" y="13" width="1" height="1" fill="rgb(134,161,200)"/>
  <rect x="10" y="14" width="1" height="1" fill="rgb(30,52,89)" fill-opacity="0.953125"/>
  <rect x="10" y="15" width="1" height="1" fill="rgb(21,47,81)" fill-opacity="0.2421875"/>
  <rect x="10" y="16" width="1" height="5" fill="rgb(255,255,255)" fill-opacity="0.0078125"/>
  <rect x="11" y="0" width="1" height="4" fill="rgb(255,255,255)" fill-opacity="0.0078125"/>
  <rect x="11" y="4" width="1" height="1" fill="rgb(23,47,84)" fill-opacity="0.578125"/>
  <rect x="11" y="5" width="1" height="1" fill="rgb(89,109,141)" fill-opacity="0.9765625"/>
  <rect x="11" y="6" width="1" height="1" fill="rgb(209,221,240)"/>
  <rect x="11" y="7" width="1" height="1" fill="rgb(93,130,184)"/>
  <rect x="11" y="8" width="1" height="1" fill="rgb(91,129,184)"/>
  <rect x="11" y="9" width="1" height="1" fill="rgb(129,164,214)"/>
  <rect x="11" y="10" width="1" height="1" fill="rgb(138,170,217)"/>
  <rect x="11" y="11" width="1" height="1" fill="rgb(145,175,220)"/>
  <rect x="11" y="12" width="1" height="1" fill="rgb(125,152,192)"/>
  <rect x="11" y="13" width="1" height="1" fill="rgb(31,53,89)" fill-opacity="0.953125"/>
  <rect x="11" y="14" width="1" height="1" fill="rgb(21,47,81)" fill-opacity="0.2421875"/>
  <rect x="11" y="15" width="1" height="6" fill="rgb(255,255,255)" fill-opacity="0.0078125"/>
  <rect x="12" y="0" width="1" height="4" fill="rgb(255,255,255)" fill-opacity="0.0078125"/>
  <rect x="12" y="4" width="1" height="1" fill="rgb(27,50,86)" fill-opacity="0.90625"/>
  <rect x="12" y="5" width="1" height="1" fill="rgb(209,214,223)"/>
  <rect x="12" y="6" width="1" height="1" fill="rgb(84,122,176)"/>
  <rect x="12" y="7" width="1" height="1" fill="rgb(26,50,85)" fill-opacity="0.9609375"/>
  <rect x="12" y="8" width="1" height="1" fill="rgb(26,50,86)" fill-opacity="0.9609375"/>
  <rect x="12" y="9" width="1" height="1" fill="rgb(104,136,183)"/>
  <rect x="12" y="10" width="1" height="1" fill="rgb(140,172,218)"/>
  <rect x="12" y="11" width="1" height="1" fill="rgb(151,179,222)"/>
  <rect x="12" y="12" width="1" height="1" fill="rgb(24,46,81)" fill-opacity="0.9921875"/>
  <rect x="12" y="13" width="1" height="1" fill="rgb(23,46,79)" fill-opacity="0.21875"/>
  <rect x="12" y="14" width="1" height="7" fill="rgb(255,255,255)" fill-opacity="0.0078125"/>
  <rect x="13" y="0" width="1" height="4" fill="rgb(255,255,255)" fill-opacity="0.0078125"/>
  <rect x="13" y="4" width="1" height="1" fill="rgb(25,49,85)" fill-opacity="0.9609375"/>
  <rect x="13" y="5" width="1" height="1" fill="rgb(105,127,161)"/>
  <rect x="13" y="6" width="1" height="1" fill="rgb(26,50,85)" fill-opacity="0.9609375"/>
  <rect x="13" y="7" width="1" height="2" fill="rgb(255,255,255)" fill-opacity="0.0078125"/>
  <rect x="13" y="9" width="1" height="1" fill="rgb(28,51,87)" fill-opacity="0.9609375"/>
  <rect x="13" y="10" width="1" height="1" fill="rgb(137,162,199)"/>
  <rect x="13" y="11" width="1" height="1" fill="rgb(159,185,224)"/>
  <rect x="13" y="12" width="1" height="1" fill="rgb(23,45,81)" fill-opacity="0.9921875"/>
  <rect x="13" y="13" width="1" height="8" fill="rgb(255,255,255)" fill-opacity="0.0078125"/>
  <rect x="14" y="0" width="1" height="5" fill="rgb(255,255,255)" fill-opacity="0.0078125"/>
  <rect x="14" y="5" width="1" height="1" fill="rgb(26,49,86)" fill-opacity="0.8984375"/>
  <rect x="14" y="6" width="1" height="3" fill="rgb(255,255,255)" fill-opacity="0.0078125"/>
  <rect x="14" y="9" width="1" height="1" fill="rgb(31,54,89)" fill-opacity="0.96875"/>
  <rect x="14" y="10" width="1" height="1" fill="rgb(205,211,221)"/>
  <rect x="14" y="11" width="1" height="1" fill="rgb(156,176,206)"/>
  <rect x="14" y="12" width="1" height="1" fill="rgb(31,54,88)" fill-opacity="0.8984375"/>
  <rect x="14" y="13" width="1" height="8" fill="rgb(255,255,255)" fill-opacity="0.0078125"/>
  <rect x="15" y="0" width="1" height="8" fill="rgb(255,255,255)" fill-opacity="0.0078125"/>
  <rect x="15" y="8" width="1" height="1" fill="rgb(32,55,88)" fill-opacity="0.9609375"/>
  <rect x="15" y="9" width="1" height="1" fill="rgb(191,198,210)"/>
  <rect x="15" y="10" width="1" height="1" fill="rgb(195,212,236)"/>
  <rect x="15" y="11" width="1" height="1" fill="rgb(87,108,141)" fill-opacity="0.9453125"/>
  <rect x="15" y="12" width="1" height="1" fill="rgb(28,50,86)" fill-opacity="0.609375"/>
  <rect x="15" y="13" width="1" height="8" fill="rgb(255,255,255)" fill-opacity="0.0078125"/>
  <rect x="16" y="0" width="1" height="7" fill="rgb(255,255,255)" fill-opacity="0.0078125"/>
  <rect x="16" y="7" width="1" height="1" fill="rgb(29,52,88)" fill-opacity="0.8671875"/>
  <rect x="16" y="8" width="1" height="1" fill="rgb(142,154,174)"/>
  <rect x="16" y="9" width="1" height="1" fill="rgb(171,188,214)"/>
  <rect x="16" y="10" width="1" height="1" fill="rgb(87,108,140)" fill-opacity="0.9453125"/>
  <rect x="16" y="11" width="1" height="1" fill="rgb(26,50,84)" fill-opacity="0.90625"/>
  <rect x="16" y="12" width="1" height="1" fill="rgb(16,48,80)" fill-opacity="0.0703125"/>
  <rect x="16" y="13" width="1" height="8" fill="rgb(255,255,255)" fill-opacity="0.0078125"/>
  <rect x="17" y="0" width="1" height="8" fill="rgb(255,255,255)" fill-opacity="0.0078125"/>
  <rect x="17" y="8" width="1" height="1" fill="rgb(26,49,84)" fill-opacity="0.9609375"/>
  <rect x="17" y="9" width="1" height="1" fill="rgb(30,52,87)" fill-opacity="0.9140625"/>
  <rect x="17" y="10" width="1" height="1" fill="rgb(26,49,82)" fill-opacity="0.609375"/>
  <rect x="17" y="11" width="1" height="1" fill="rgb(26,51,77)" fill-opacity="0.0859375"/>
  <rect x="17" y="12" width="1" height="9" fill="rgb(255,255,255)" fill-opacity="0.0078125"/>
  <rect x="18" y="0" width="1" height="21" fill="rgb(255,255,255)" fill-opacity="0.0078125"/>
  <rect x="19" y="0" width="1" height="21" fill="rgb(255,255,255)" fill-opacity="0.0078125"/>
  <rect x="20" y="0" width="1" height="21" fill="rgb(255,255,255)" fill-opacity="0.0078125"/>
</svg>