<svg xmlns="http://www.w3.org/2000/svg" shape-rendering="crispEdges" width="21" height="21" viewBox="0 0 21 21">
  <rect x="0" y="0" width="21" height="1" fill="rgb(255,255,255)" fill-opacity="0.0078125"/>
  <rect x="0" y="1" width="21" height="1" fill="rgb(255,255,255)" fill-opacity="0.0078125"/>
  <rect x="0" y="2" width="21" height="1" fill="rgb(255,255,255)" fill-opacity="0.0078125"/>
  <rect x="0" y="3" width="21" height="1" fill="rgb(255,255,255)" fill-opacity="0.0078125"/>
  <rect x="0" y="4" width="4" height="1" fill="rgb(255,255,255)" fill-opacity="0.0078125"/>
  <rect x="4" y="4" width="1" height="1" fill="rgb(51,102,204)" fill-opacity="0.0234375"/>
  <rect x="5" y="4" width="2" height="1" fill="rgb(57,113,198)" fill-opacity="0.0390625"/>
  <rect x="7" y="4" width="1" height="1" fill="rgb(51,102,204)" fill-opacity="0.0234375"/>
  <rect x="8" y="4" width="1" height="1" fill="rgb(255,255,255)" fill-opacity="0.0078125"/>
  <rect x="9" y="4" width="1" height="1" fill="rgb(51,102,204)" fill-opacity="0.0234375"/>
  <rect x="10" y="4" width="2" height="1" fill="rgb(57,113,198)" fill-opacity="0.0390625"/>
  <rect x="12" y="4" width="1" height="1" fill="rgb(51,102,204)" fill-opacity="0.0234375"/>
  <rect x="13" y="4" width="1" height="1" fill="rgb(255,255,255)" fill-opacity="0.0078125"/>
  <rect x="14" y="4" width="1" height="1" fill="rgb(51,102,204)" fill-opacity="0.0234375"/>
  <rect x="15" y="4" width="2" height="1" fill="rgb(57,113,198)" fill-opacity="0.0390625"/>
  <rect x="17" y="4" width="1" height="1" fill="rgb(51,102,204)" fill-opacity="0.0234375"/>
  <rect x="18" y="4" width="3" height="1" fill="rgb(255,255,255)" fill-opacity="0.0078125"/>
  <rect x="0" y="5" width="3" height="1" fill="rgb(255,255,255)" fill-opacity="0.0078125"/>
  <rect x="3" y="5" width="1" height="1" fill="rgb(51,153,204)" fill-opacity="0.0234375"/>
  <rect x="4" y="5" width="1" height="1" fill="rgb(36,81,138)" fill-opacity="0.25"/>
  <rect x="5" y="5" width="2" height="1" fill="rgb(35,72,128)" fill-opacity="0.734375"/>
  <rect x="7" y="5" width="1" height="1" fill="rgb(36,81,138)" fill-opacity="0.25"/>
  <rect x="8" y="5" width="1" height="1" fill="rgb(64,128,223)" fill-opacity="0.0390625"/>
  <rect x="9" y="5" width="1" height="1" fill="rgb(36,81,138)" fill-opacity="0.25"/>
  <rect x="10" y="5" width="2" height="1" fill="rgb(35,72,128)" fill-opacity="0.734375"/>
  <rect x="12" y="5" width="1" height="1" fill="rgb(36,81,138)" fill-opacity="0.25"/>
  <rect x="13" y="5" width="1" height="1" fill="rgb(64,128,223)" fill-opacity="0.0390625"/>
  <rect x="14" y="5" width="1" height="1" fill="rgb(36,81,138)" fill-opacity="0.25"/>
  <rect x="15" y="5" width="2" height="1" fill="rgb(35,72,128)" fill-opacity="0.734375"/>
  <rect x="17" y="5" width="1" height="1" fill="rgb(36,81,138)" fill-opacity="0.25"/>
  <rect x="18" y="5" width="1" height="1" fill="rgb(51,153,204)" fill-opacity="0.0234375"/>
  <rect x="19" y="5" width="2" height="1" fill="rgb(255,255,255)" fill-opacity="0.0078125"/>
  <rect x="0" y="6" width="3" height="1" fill="rgb(255,255,255)" fill-opacity="0.0078125"/>
  <rect x="3" y="6" width="1" height="1" fill="rgb(77,128,204)" fill-opacity="0.046875"/>
  <rect x="4" y="6" width="1" height="1" fill="rgb(35,71,128)" fill-opacity="0.8359375"/>
  <rect x="5" y="6" width="2" height="1" fill="rgb(183,208,245)" fill-opacity="0.921875"/>
  <rect x="7" y="6" width="1" height="1" fill="rgb(35,71,128)" fill-opacity="0.8359375"/>
  <rect x="8" y="6" width="1" height="1" fill="rgb(64,128,213)" fill-opacity="0.0546875"/>
  <rect x="9" y="6" width="1" height="1" fill="rgb(35,71,128)" fill-opacity="0.8359375"/>
  <rect x="10" y="6" width="2" height="1" fill="rgb(183,208,245)" fill-opacity="0.921875"/>
  <rect x="12" y="6" width="1" height="1" fill="rgb(35,71,128)" fill-opacity="0.8359375"/>
  <rect x="13" y="6" width="1" height="1" fill="rgb(64,128,213)" fill-opacity="0.0546875"/>
  <rect x="14" y="6" width="1" height="1" fill="rgb(35,71,128)" fill-opacity="0.8359375"/>
  <rect x="15" y="6" width="2" height="1" fill="rgb(183,208,245)" fill-opacity="0.921875"/>
  <rect x="17" y="6" width="1" height="1" fill="rgb(35,71,128)" fill-opacity="0.8359375"/>
  <rect x="18" y="6" width="1" height="1" fill="rgb(77,128,204)" fill-opacity="0.046875"/>
  <rect x="19" y="6" width="2" height="1" fill="rgb(255,255,255)" fill-opacity="0.0078125"/>
  <rect x="0" y="7" width="3" height="1" fill="rgb(255,255,255)" fill-opacity="0.0078125"/>
  <rect x="3" y="7" width="1" height="1" fill="rgb(70,139,209)" fill-opacity="0.046875"/>
  <rect x="4" y="7" width="1" height="1" fill="rgb(33,70,126)" fill-opacity="0.9296875"/>
  <rect x="5" y="7" width="2" height="1" fill="rgb(195,219,255)"/>
  <rect x="7" y="7" width="1" height="1" fill="rgb(33,70,126)" fill-opacity="0.9296875"/>
  <rect x="8" y="7" width="1" height="1" fill="rgb(64,128,213)" fill-opacity="0.0546875"/>
  <rect x="9" y="7" width="1" height="1" fill="rgb(33,70,126)" fill-opacity="0.9296875"/>
  <rect x="10" y="7" width="2" height="1" fill="rgb(195,219,255)"/>
  <rect x="12" y="7" width="1" height="1" fill="rgb(33,70,126)" fill-opacity="0.9296875"/>
  <rect x="13" y="7" width="1" height="1" fill="rgb(64,128,213)" fill-opacity="0.0546875"/>
  <rect x="14" y="7" width="1" height="1" fill="rgb(33,70,126)" fill-opacity="0.9296875"/>
  <rect x="15" y="7" width="2" height="1" fill="rgb(195,219,255)"/>
  <rect x="17" y="7" width="1" height="1" fill="rgb(33,70,126)" fill-opacity="0.9296875"/>
  <rect x="18" y="7" width="1" height="1" fill="rgb(70,139,209)" fill-opacity="0.046875"/>
  <rect x="19" y="7" width="2" height="1" fill="rgb(255,255,255)" fill-opacity="0.0078125"/>
  <rect x="0" y="8" width="3" height="1" fill="rgb(255,255,255)" fill-opacity="0.0078125"/>
  <rect x="3" y="8" width="1" height="1" fill="rgb(73,146,219)" fill-opacity="0.03125"/>
  <rect x="4" y="8" width="1" height="1" fill="rgb(36,72,132)" fill-opacity="0.453125"/>
  <rect x="5" y="8" width="2" height="1" fill="rgb(61,95,148)" fill-opacity="0.953125"/>
  <rect x="7" y="8" width="1" height="1" fill="rgb(36,72,132)" fill-opacity="0.453125"/>
  <rect x="8" y="8" width="1" height="1" fill="rgb(77,128,204)" fill-opacity="0.046875"/>
  <rect x="9" y="8" width="1" height="1" fill="rgb(36,72,132)" fill-opacity="0.453125"/>
  <rect x="10" y="8" width="2" height="1" fill="rgb(61,95,148)" fill-opacity="0.953125"/>
  <rect x="12" y="8" width="1" height="1" fill="rgb(36,72,132)" fill-opacity="0.453125"/>
  <rect x="13" y="8" width="1" height="1" fill="rgb(77,128,204)" fill-opacity="0.046875"/>
  <rect x="14" y="8" width="1" height="1" fill="rgb(36,72,132)" fill-opacity="0.453125"/>
  <rect x="15" y="8" width="2" height="1" fill="rgb(61,95,148)" fill-opacity="0.953125"/>
  <rect x="17" y="8" width="1" height="1" fill="rgb(36,72,132)" fill-opacity="0.453125"/>
  <rect x="18" y="8" width="1" height="1" fill="rgb(73,146,219)" fill-opacity="0.03125"/>
  <rect x="19" y="8" width="2" height="1" fill="rgb(255,255,255)" fill-opacity="0.0078125"/>
  <rect x="0" y="9" width="3" height="1" fill="rgb(255,255,255)" fill-opacity="0.0078125"/>
  <rect x="3" y="9" width="1" height="1" fill="rgb(0,0,0)" fill-opacity="0.0078125"/>
  <rect x="4" y="9" width="1" height="1" fill="rgb(64,128,191)" fill-opacity="0.0390625"/>
  <rect x="5" y="9" width="2" height="1" fill="rgb(47,94,161)" fill-opacity="0.109375"/>
  <rect x="7" y="9" width="1" height="1" fill="rgb(64,128,191)" fill-opacity="0.0390625"/>
  <rect x="8" y="9" width="1" height="1" fill="rgb(0,0,255)" fill-opacity="0.0078125"/>
  <rect x="9" y="9" width="1" height="1" fill="rgb(64,128,191)" fill-opacity="0.0390625"/>
  <rect x="10" y="9" width="2" height="1" fill="rgb(47,94,161)" fill-opacity="0.109375"/>
  <rect x="12" y="9" width="1" height="1" fill="rgb(64,128,191)" fill-opacity="0.0390625"/>
  <rect x="13" y="9" width="1" height="1" fill="rgb(0,0,255)" fill-opacity="0.0078125"/>
  <rect x="14" y="9" width="1" height="1" fill="rgb(64,128,191)" fill-opacity="0.0390625"/>
  <rect x="15" y="9" width="2" height="1" fill="rgb(47,94,161)" fill-opacity="0.109375"/>
  <rect x="17" y="9" width="1" height="1" fill="rgb(64,128,191)" fill-opacity="0.0390625"/>
  <rect x="18" y="9" width="1" height="1" fill="rgb(0,0,0)" fill-opacity="0.0078125"/>
  <rect x="19" y="9" width="2" height="1" fill="rgb(255,255,255)" fill-opacity="0.0078125"/>
  <rect x="0" y="10" width="5" height="1" fill="rgb(255,255,255)" fill-opacity="0.0078125"/>
  <rect x="5" y="10" width="1" height="1" fill="rgb(0,0,255)" fill-opacity="0.0078125"/>
  <rect x="6" y="10" width="1" height="1" fill="rgb(27,27,34)" fill-opacity="0.15625"/>
  <rect x="7" y="10" width="1" height="1" fill="rgb(36,36,36)" fill-opacity="0.609375"/>
  <rect x="8" y="10" width="1" height="1" fill="rgb(27,27,27)" fill-opacity="0.375"/>
  <rect x="9" y="10" width="1" height="1" fill="rgb(255,255,255)" fill-opacity="0.0078125"/>
  <rect x="10" y="10" width="2" height="1" fill="rgb(0,0,255)" fill-opacity="0.0078125"/>
  <rect x="12" y="10" width="1" height="1" fill="rgb(255,255,255)" fill-opacity="0.0078125"/>
  <rect x="13" y="10" width="1" height="1" fill="rgb(25,25,25)" fill-opacity="0.3671875"/>
  <rect x="14" y="10" width="1" height="1" fill="rgb(33,33,33)" fill-opacity="0.6015625"/>
  <rect x="15" y="10" width="1" height="1" fill="rgb(25,25,31)" fill-opacity="0.1640625"/>
  <rect x="16" y="10" width="1" height="1" fill="rgb(0,0,255)" fill-opacity="0.0078125"/>
  <rect x="17" y="10" width="4" height="1" fill="rgb(255,255,255)" fill-opacity="0.0078125"/>
  <rect x="0" y="11" width="5" height="1" fill="rgb(255,255,255)" fill-opacity="0.0078125"/>
  <rect x="5" y="11" width="1" height="1" fill="rgb(27,27,27)" fill-opacity="0.15625"/>
  <rect x="6" y="11" width="1" height="1" fill="rgb(70,70,70)" fill-opacity="0.8203125"/>
  <rect x="7" y="11" width="1" height="1" fill="rgb(235,235,235)" fill-opacity="0.984375"/>
  <rect x="8" y="11" width="1" height="1" fill="rgb(64,64,64)" fill-opacity="0.7890625"/>
  <rect x="9" y="11" width="4" height="1" fill="rgb(255,255,255)" fill-opacity="0.0078125"/>
  <rect x="13" y="11" width="1" height="1" fill="rgb(59,59,59)" fill-opacity="0.7734375"/>
  <rect x="14" y="11" width="1" height="1" fill="rgb(237,237,237)" fill-opacity="0.984375"/>
  <rect x="15" y="11" width="1" height="1" fill="rgb(75,75,75)" fill-opacity="0.828125"/>
  <rect x="16" y="11" width="1" height="1" fill="rgb(24,24,24)" fill-opacity="0.171875"/>
  <rect x="17" y="11" width="4" height="1" fill="rgb(255,255,255)" fill-opacity="0.0078125"/>
  <rect x="0" y="12" width="4" height="1" fill="rgb(255,255,255)" fill-opacity="0.0078125"/>
  <rect x="4" y="12" width="1" height="1" fill="rgb(27,27,27)" fill-opacity="0.15625"/>
  <rect x="5" y="12" width="1" height="1" fill="rgb(70,70,70)" fill-opacity="0.8203125"/>
  <rect x="6" y="12" width="1" height="1" fill="rgb(235,235,235)" fill-opacity="0.984375"/>
  <rect x="7" y="12" width="1" height="1" fill="rgb(123,123,123)" fill-opacity="0.9140625"/>
  <rect x="8" y="12" width="1" height="1" fill="rgb(26,26,26)" fill-opacity="0.7421875"/>
  <rect x="9" y="12" width="4" height="1" fill="rgb(26,26,26)" fill-opacity="0.5078125"/>
  <rect x="13" y="12" width="1" height="1" fill="rgb(26,26,26)" fill-opacity="0.7421875"/>
  <rect x="14" y="12" width="1" height="1" fill="rgb(116,116,116)" fill-opacity="0.90625"/>
  <rect x="15" y="12" width="1" height="1" fill="rgb(237,237,237)" fill-opacity="0.984375"/>
  <rect x="16" y="12" width="1" height="1" fill="rgb(75,75,75)" fill-opacity="0.8359375"/>
  <rect x="17" y="12" width="1" height="1" fill="rgb(24,24,24)" fill-opacity="0.171875"/>
  <rect x="18" y="12" width="3" height="1" fill="rgb(255,255,255)" fill-opacity="0.0078125"/>
  <rect x="0" y="13" width="3" height="1" fill="rgb(255,255,255)" fill-opacity="0.0078125"/>
  <rect x="3" y="13" width="1" height="1" fill="rgb(18,18,18)" fill-opacity="0.0625"/>
  <rect x="4" y="13" width="1" height="1" fill="rgb(26,26,26)" fill-opacity="0.78125"/>
  <rect x="5" y="13" width="1" height="1" fill="rgb(226,226,226)" fill-opacity="0.984375"/>
  <rect x="6" y="13" width="1" height="1" fill="rgb(249,249,249)"/>
  <rect x="7" y="13" width="8" height="1" fill="rgb(224,224,224)" fill-opacity="0.9765625"/>
  <rect x="15" y="13" width="1" height="1" fill="rgb(248,248,248)"/>
  <rect x="16" y="13" width="1" height="1" fill="rgb(233,233,233)" fill-opacity="0.984375"/>
  <rect x="17" y="13" width="1" height="1" fill="rgb(27,27,27)" fill-opacity="0.796875"/>
  <rect x="18" y="13" width="1" height="1" fill="rgb(32,32,32)" fill-opacity="0.0703125"/>
  <rect x="19" y="13" width="2" height="1" fill="rgb(255,255,255)" fill-opacity="0.0078125"/>
  <rect x="0" y="14" width="4" height="1" fill="rgb(255,255,255)" fill-opacity="0.0078125"/>
  <rect x="4" y="14" width="1" height="1" fill="rgb(26,26,26)" fill-opacity="0.3515625"/>
  <rect x="5" y="14" width="1" height="1" fill="rgb(116,116,116)" fill-opacity="0.90625"/>
  <rect x="6" y="14" width="1" height="1" fill="rgb(247,247,247)" fill-opacity="0.9921875"/>
  <rect x="7" y="14" width="1" height="1" fill="rgb(111,111,111)" fill-opacity="0.90625"/>
  <rect x="8" y="14" width="1" height="1" fill="rgb(69,69,69)" fill-opacity="0.84375"/>
  <rect x="9" y="14" width="4" height="1" fill="rgb(71,71,71)" fill-opacity="0.8125"/>
  <rect x="13" y="14" width="1" height="1" fill="rgb(69,69,69)" fill-opacity="0.84375"/>
  <rect x="14" y="14" width="1" height="1" fill="rgb(106,106,106)" fill-opacity="0.8984375"/>
  <rect x="15" y="14" width="1" height="1" fill="rgb(246,246,246)" fill-opacity="0.9921875"/>
  <rect x="16" y="14" width="1" height="1" fill="rgb(123,123,123)" fill-opacity="0.9140625"/>
  <rect x="17" y="14" width="1" height="1" fill="rgb(25,25,25)" fill-opacity="0.3671875"/>
  <rect x="18" y="14" width="3" height="1" fill="rgb(255,255,255)" fill-opacity="0.0078125"/>
  <rect x="0" y="15" width="5" height="1" fill="rgb(255,255,255)" fill-opacity="0.0078125"/>
  <rect x="5" y="15" width="1" height="1" fill="rgb(26,26,26)" fill-opacity="0.3515625"/>
  <rect x="6" y="15" width="1" height="1" fill="rgb(116,116,116)" fill-opacity="0.90625"/>
  <rect x="7" y="15" width="1" height="1" fill="rgb(237,237,237)" fill-opacity="0.984375"/>
  <rect x="8" y="15" width="1" height="1" fill="rgb(54,54,54)" fill-opacity="0.7578125"/>
  <rect x="9" y="15" width="4" height="1" fill="rgb(255,255,255)" fill-opacity="0.0078125"/>
  <rect x="13" y="15" width="1" height="1" fill="rgb(51,51,51)" fill-opacity="0.6875"/>
  <rect x="14" y="15" width="1" height="1" fill="rgb(235,235,235)" fill-opacity="0.984375"/>
  <rect x="15" y="15" width="1" height="1" fill="rgb(123,123,123)" fill-opacity="0.9140625"/>
  <rect x="16" y="15" width="1" height="1" fill="rgb(27,27,27)" fill-opacity="0.375"/>
  <rect x="17" y="15" width="4" height="1" fill="rgb(255,255,255)" fill-opacity="0.0078125"/>
  <rect x="0" y="16" width="6" height="1" fill="rgb(255,255,255)" fill-opacity="0.0078125"/>
  <rect x="6" y="16" width="1" height="1" fill="rgb(26,26,26)" fill-opacity="0.3515625"/>
  <rect x="7" y="16" width="1" height="1" fill="rgb(87,87,87)" fill-opacity="0.859375"/>
  <rect x="8" y="16" width="1" height="1" fill="rgb(40,40,40)" fill-opacity="0.6015625"/>
  <rect x="9" y="16" width="4" height="1" fill="rgb(255,255,255)" fill-opacity="0.0078125"/>
  <rect x="13" y="16" width="1" height="1" fill="rgb(38,38,38)" fill-opacity="0.5859375"/>
  <rect x="14" y="16" width="1" height="1" fill="rgb(87,87,87)" fill-opacity="0.8828125"/>
  <rect x="15" y="16" width="1" height="1" fill="rgb(27,27,27)" fill-opacity="0.375"/>
  <rect x="16" y="16" width="5" height="1" fill="rgb(255,255,255)" fill-opacity="0.0078125"/>
  <rect x="0" y="17" width="7" height="1" fill="rgb(255,255,255)" fill-opacity="0.0078125"/>
  <rect x="7" y="17" width="1" height="1" fill="rgb(36,36,36)" fill-opacity="0.03125"/>
  <rect x="8" y="17" width="6" height="1" fill="rgb(255,255,255)" fill-opacity="0.0078125"/>
  <rect x="14" y="17" width="1" height="1" fill="rgb(51,51,51)" fill-opacity="0.0234375"/>
  <rect x="15" y="17" width="6" height="1" fill="rgb(255,255,255)" fill-opacity="0.0078125"/>
  <rect x="0" y="18" width="21" height="1" fill="rgb(255,255,255)" fill-opacity="0.0078125"/>
  <rect x="0" y="19" width="21" height="1" fill="rgb(255,255,255)" fill-opacity="0.0078125"/>
  <rect x="0" y="20" width="21" height="1" fill="rgb(255,255,255)" fill-opacity="0.0078125"/>
</svg>