<svg xmlns="http://www.w3.org/2000/svg" shape-rendering="crispEdges" width="21" height="21" viewBox="0 0 21 21">
  <rect x="0" y="0" width="1" height="21" fill="rgb(255,255,255)" fill-opacity="0.0078125"/>
  <rect x="1" y="0" width="1" height="21" fill="rgb(255,255,255)" fill-opacity="0.0078125"/>
  <rect x="2" y="0" width="1" height="21" fill="rgb(255,255,255)" fill-opacity="0.0078125"/>
  <rect x="3" y="0" width="1" height="21" fill="rgb(255,255,255)" fill-opacity="0.0078125"/>
  <rect x="4" y="0" width="1" height="6" fill="rgb(255,255,255)" fill-opacity="0.0078125"/>
  <rect x="4" y="6" width="1" height="1" fill="rgb(13,13,13)" fill-opacity="0.7578125"/>
  <rect x="4" y="7" width="1" height="1" fill="rgb(12,12,12)" fill-opacity="0.859375"/>
  <rect x="4" y="8" width="1" height="5" fill="rgb(13,13,13)" fill-opacity="0.84375"/>
  <rect x="4" y="13" width="1" height="1" fill="rgb(9,9,9)" fill-opacity="0.8984375"/>
  <rect x="4" y="14" width="1" height="1" fill="rgb(3,3,3)" fill-opacity="0.6171875"/>
  <rect x="4" y="15" width="1" height="6" fill="rgb(255,255,255)" fill-opacity="0.0078125"/>
  <rect x="5" y="0" width="1" height="5" fill="rgb(255,255,255)" fill-opacity="0.0078125"/>
  <rect x="5" y="5" width="1" height="1" fill="rgb(13,13,13)" fill-opacity="0.15625"/>
  <rect x="5" y="6" width="1" height="1" fill="rgb(27,27,27)" fill-opacity="0.8984375"/>
  <rect x="5" y="7" width="1" height="1" fill="rgb(70,70,70)" fill-opacity="0.84375"/>
  <rect x="5" y="8" width="1" height="2" fill="rgb(210,210,210)" fill-opacity="0.640625"/>
  <rect x="5" y="10" width="1" height="2" fill="rgb(209,209,209)" fill-opacity="0.640625"/>
  <rect x="5" y="12" width="1" height="1" fill="rgb(194,194,194)" fill-opacity="0.65625"/>
  <rect x="5" y="13" width="1" height="1" fill="rgb(53,53,53)" fill-opacity="0.875"/>
  <rect x="5" y="14" width="1" height="1" fill="rgb(19,19,19)" fill-opacity="0.828125"/>
  <rect x="5" y="15" width="1" height="1" fill="rgb(0,0,0)" fill-opacity="0.1796875"/>
  <rect x="5" y="16" width="1" height="5" fill="rgb(255,255,255)" fill-opacity="0.0078125"/>
  <rect x="6" y="0" width="1" height="5" fill="rgb(255,255,255)" fill-opacity="0.0078125"/>
  <rect x="6" y="5" width="1" height="1" fill="rgb(35,35,35)" fill-opacity="0.6015625"/>
  <rect x="6" y="6" width="1" height="1" fill="rgb(138,138,138)" fill-opacity="0.75"/>
  <rect x="6" y="7" width="1" height="1" fill="rgb(26,26,26)" fill-opacity="0.90625"/>
  <rect x="6" y="8" width="1" height="1" fill="rgb(183,183,183)" fill-opacity="0.6484375"/>
  <rect x="6" y="9" width="1" height="1" fill="rgb(207,207,207)" fill-opacity="0.6328125"/>
  <rect x="6" y="10" width="1" height="1" fill="rgb(208,208,208)" fill-opacity="0.640625"/>
  <rect x="6" y="11" width="1" height="1" fill="rgb(207,207,207)" fill-opacity="0.6328125"/>
  <rect x="6" y="12" width="1" height="1" fill="rgb(136,136,136)" fill-opacity="0.7109375"/>
  <rect x="6" y="13" width="1" height="1" fill="rgb(109,109,109)" fill-opacity="0.765625"/>
  <rect x="6" y="14" width="1" height="1" fill="rgb(142,142,142)" fill-opacity="0.6796875"/>
  <rect x="6" y="15" width="1" height="1" fill="rgb(4,4,4)" fill-opacity="0.71875"/>
  <rect x="6" y="16" width="1" height="5" fill="rgb(255,255,255)" fill-opacity="0.0078125"/>
  <rect x="7" y="0" width="1" height="4" fill="rgb(255,255,255)" fill-opacity="0.0078125"/>
  <rect x="7" y="4" width="1" height="1" fill="rgb(0,0,0)" fill-opacity="0.015625"/>
  <rect x="7" y="5" width="1" height="1" fill="rgb(20,20,20)" fill-opacity="0.890625"/>
  <rect x="7" y="6" width="1" height="1" fill="rgb(243,243,243)" fill-opacity="0.6484375"/>
  <rect x="7" y="7" width="1" height="1" fill="rgb(115,115,115)" fill-opacity="0.71875"/>
  <rect x="7" y="8" width="1" height="1" fill="rgb(122,122,122)" fill-opacity="0.8359375"/>
  <rect x="7" y="9" width="1" height="1" fill="rgb(229,229,230)" fill-opacity="0.765625"/>
  <rect x="7" y="10" width="1" height="1" fill="rgb(197,208,225)" fill-opacity="0.828125"/>
  <rect x="7" y="11" width="1" height="1" fill="rgb(225,226,229)" fill-opacity="0.765625"/>
  <rect x="7" y="12" width="1" height="1" fill="rgb(142,142,142)" fill-opacity="0.796875"/>
  <rect x="7" y="13" width="1" height="1" fill="rgb(177,177,177)" fill-opacity="0.6640625"/>
  <rect x="7" y="14" width="1" height="1" fill="rgb(207,207,207)" fill-opacity="0.625"/>
  <rect x="7" y="15" width="1" height="1" fill="rgb(32,32,32)" fill-opacity="0.78125"/>
  <rect x="7" y="16" width="1" height="1" fill="rgb(0,0,0)" fill-opacity="0.2421875"/>
  <rect x="7" y="17" width="1" height="4" fill="rgb(255,255,255)" fill-opacity="0.0078125"/>
  <rect x="8" y="0" width="1" height="4" fill="rgb(255,255,255)" fill-opacity="0.0078125"/>
  <rect x="8" y="4" width="1" height="1" fill="rgb(17,17,17)" fill-opacity="0.2890625"/>
  <rect x="8" y="5" width="1" height="1" fill="rgb(73,73,73)" fill-opacity="0.8359375"/>
  <rect x="8" y="6" width="1" height="1" fill="rgb(255,255,255)" fill-opacity="0.640625"/>
  <rect x="8" y="7" width="1" height="1" fill="rgb(246,246,246)" fill-opacity="0.6875"/>
  <rect x="8" y="8" width="1" height="1" fill="rgb(120,134,155)" fill-opacity="0.96875"/>
  <rect x="8" y="9" width="1" height="1" fill="rgb(75,123,196)" fill-opacity="0.9765625"/>
  <rect x="8" y="10" width="1" height="1" fill="rgb(53,107,190)"/>
  <rect x="8" y="11" width="1" height="1" fill="rgb(65,116,192)" fill-opacity="0.984375"/>
  <rect x="8" y="12" width="1" height="1" fill="rgb(145,166,198)" fill-opacity="0.90625"/>
  <rect x="8" y="13" width="1" height="1" fill="rgb(217,217,217)" fill-opacity="0.6796875"/>
  <rect x="8" y="14" width="1" height="1" fill="rgb(208,208,208)" fill-opacity="0.625"/>
  <rect x="8" y="15" width="1" height="1" fill="rgb(161,161,161)" fill-opacity="0.6640625"/>
  <rect x="8" y="16" width="1" height="1" fill="rgb(5,5,5)" fill-opacity="0.78125"/>
  <rect x="8" y="17" width="1" height="4" fill="rgb(255,255,255)" fill-opacity="0.0078125"/>
  <rect x="9" y="0" width="1" height="4" fill="rgb(255,255,255)" fill-opacity="0.0078125"/>
  <rect x="9" y="4" width="1" height="1" fill="rgb(28,28,28)" fill-opacity="0.7265625"/>
  <rect x="9" y="5" width="1" height="1" fill="rgb(177,177,177)" fill-opacity="0.703125"/>
  <rect x="9" y="6" width="1" height="1" fill="rgb(255,255,255)" fill-opacity="0.640625"/>
  <rect x="9" y="7" width="1" height="1" fill="rgb(255,255,255)" fill-opacity="0.7578125"/>
  <rect x="9" y="8" width="1" height="1" fill="rgb(73,119,190)" fill-opacity="0.984375"/>
  <rect x="9" y="9" width="1" height="1" fill="rgb(162,186,223)" fill-opacity="0.9921875"/>
  <rect x="9" y="10" width="1" height="1" fill="rgb(250,252,253)"/>
  <rect x="9" y="11" width="1" height="1" fill="rgb(180,200,230)" fill-opacity="0.984375"/>
  <rect x="9" y="12" width="1" height="1" fill="rgb(62,113,191)" fill-opacity="0.9921875"/>
  <rect x="9" y="13" width="1" height="1" fill="rgb(222,223,227)" fill-opacity="0.765625"/>
  <rect x="9" y="14" width="1" height="1" fill="rgb(207,207,207)" fill-opacity="0.625"/>
  <rect x="9" y="15" width="1" height="1" fill="rgb(205,205,205)" fill-opacity="0.625"/>
  <rect x="9" y="16" width="1" height="1" fill="rgb(47,47,47)" fill-opacity="0.75"/>
  <rect x="9" y="17" width="1" height="1" fill="rgb(0,0,0)" fill-opacity="0.3203125"/>
  <rect x="9" y="18" width="1" height="3" fill="rgb(255,255,255)" fill-opacity="0.0078125"/>
  <rect x="10" y="0" width="1" height="4" fill="rgb(255,255,255)" fill-opacity="0.0078125"/>
  <rect x="10" y="4" width="1" height="1" fill="rgb(15,15,15)" fill-opacity="0.921875"/>
  <rect x="10" y="5" width="1" height="1" fill="rgb(133,133,133)" fill-opacity="0.765625"/>
  <rect x="10" y="6" width="1" height="1" fill="rgb(166,166,166)" fill-opacity="0.734375"/>
  <rect x="10" y="7" width="1" height="1" fill="rgb(203,210,221)" fill-opacity="0.8515625"/>
  <rect x="10" y="8" width="1" height="1" fill="rgb(51,106,189)"/>
  <rect x="10" y="9" width="1" height="1" fill="rgb(242,244,248)"/>
  <rect x="10" y="10" width="1" height="1" fill="rgb(255,255,255)"/>
  <rect x="10" y="11" width="1" height="1" fill="rgb(250,251,252)"/>
  <rect x="10" y="12" width="1" height="1" fill="rgb(53,108,190)"/>
  <rect x="10" y="13" width="1" height="1" fill="rgb(111,124,145)" fill-opacity="0.9609375"/>
  <rect x="10" y="14" width="1" height="1" fill="rgb(34,34,34)" fill-opacity="0.90625"/>
  <rect x="10" y="15" width="1" height="1" fill="rgb(19,19,19)" fill-opacity="0.8984375"/>
  <rect x="10" y="16" width="1" height="1" fill="rgb(14,14,14)" fill-opacity="0.921875"/>
  <rect x="10" y="17" width="1" height="1" fill="rgb(4,4,4)" fill-opacity="0.7734375"/>
  <rect x="10" y="18" width="1" height="3" fill="rgb(255,255,255)" fill-opacity="0.0078125"/>
  <rect x="11" y="0" width="1" height="4" fill="rgb(255,255,255)" fill-opacity="0.0078125"/>
  <rect x="11" y="4" width="1" height="1" fill="rgb(30,30,30)" fill-opacity="0.7421875"/>
  <rect x="11" y="5" width="1" height="1" fill="rgb(174,174,174)" fill-opacity="0.7109375"/>
  <rect x="11" y="6" width="1" height="1" fill="rgb(252,252,252)" fill-opacity="0.640625"/>
  <rect x="11" y="7" width="1" height="1" fill="rgb(254,254,254)" fill-opacity="0.7578125"/>
  <rect x="11" y="8" width="1" height="1" fill="rgb(73,119,190)" fill-opacity="0.984375"/>
  <rect x="11" y="9" width="1" height="1" fill="rgb(161,185,222)" fill-opacity="0.9921875"/>
  <rect x="11" y="10" width="1" height="1" fill="rgb(250,251,253)"/>
  <rect x="11" y="11" width="1" height="1" fill="rgb(178,198,228)" fill-opacity="0.984375"/>
  <rect x="11" y="12" width="1" height="1" fill="rgb(61,112,190)" fill-opacity="0.9921875"/>
  <rect x="11" y="13" width="1" height="1" fill="rgb(186,188,192)" fill-opacity="0.7578125"/>
  <rect x="11" y="14" width="1" height="1" fill="rgb(139,139,139)" fill-opacity="0.625"/>
  <rect x="11" y="15" width="1" height="1" fill="rgb(132,132,132)" fill-opacity="0.6171875"/>
  <rect x="11" y="16" width="1" height="1" fill="rgb(33,33,33)" fill-opacity="0.765625"/>
  <rect x="11" y="17" width="1" height="1" fill="rgb(0,0,0)" fill-opacity="0.3203125"/>
  <rect x="11" y="18" width="1" height="3" fill="rgb(255,255,255)" fill-opacity="0.0078125"/>
  <rect x="12" y="0" width="1" height="4" fill="rgb(255,255,255)" fill-opacity="0.0078125"/>
  <rect x="12" y="4" width="1" height="1" fill="rgb(26,26,26)" fill-opacity="0.3125"/>
  <rect x="12" y="5" width="1" height="1" fill="rgb(75,75,75)" fill-opacity="0.8359375"/>
  <rect x="12" y="6" width="1" height="1" fill="rgb(255,255,255)" fill-opacity="0.6328125"/>
  <rect x="12" y="7" width="1" height="1" fill="rgb(246,246,246)" fill-opacity="0.6875"/>
  <rect x="12" y="8" width="1" height="1" fill="rgb(116,130,151)" fill-opacity="0.96875"/>
  <rect x="12" y="9" width="1" height="1" fill="rgb(72,120,193)" fill-opacity="0.9765625"/>
  <rect x="12" y="10" width="1" height="1" fill="rgb(53,107,190)"/>
  <rect x="12" y="11" width="1" height="1" fill="rgb(64,115,191)" fill-opacity="0.984375"/>
  <rect x="12" y="12" width="1" height="1" fill="rgb(135,157,189)" fill-opacity="0.8984375"/>
  <rect x="12" y="13" width="1" height="1" fill="rgb(169,169,169)" fill-opacity="0.6796875"/>
  <rect x="12" y="14" width="1" height="1" fill="rgb(141,141,141)" fill-opacity="0.6171875"/>
  <rect x="12" y="15" width="1" height="1" fill="rgb(111,111,111)" fill-opacity="0.65625"/>
  <rect x="12" y="16" width="1" height="1" fill="rgb(5,5,5)" fill-opacity="0.7890625"/>
  <rect x="12" y="17" width="1" height="4" fill="rgb(255,255,255)" fill-opacity="0.0078125"/>
  <rect x="13" y="0" width="1" height="4" fill="rgb(255,255,255)" fill-opacity="0.0078125"/>
  <rect x="13" y="4" width="1" height="1" fill="rgb(0,0,0)" fill-opacity="0.015625"/>
  <rect x="13" y="5" width="1" height="1" fill="rgb(21,21,21)" fill-opacity="0.8984375"/>
  <rect x="13" y="6" width="1" height="1" fill="rgb(244,244,244)" fill-opacity="0.6328125"/>
  <rect x="13" y="7" width="1" height="1" fill="rgb(115,115,115)" fill-opacity="0.71875"/>
  <rect x="13" y="8" width="1" height="1" fill="rgb(99,99,99)" fill-opacity="0.8359375"/>
  <rect x="13" y="9" width="1" height="1" fill="rgb(198,198,199)" fill-opacity="0.75"/>
  <rect x="13" y="10" width="1" height="1" fill="rgb(175,186,204)" fill-opacity="0.8203125"/>
  <rect x="13" y="11" width="1" height="1" fill="rgb(193,194,197)" fill-opacity="0.7578125"/>
  <rect x="13" y="12" width="1" height="1" fill="rgb(119,119,119)" fill-opacity="0.7890625"/>
  <rect x="13" y="13" width="1" height="1" fill="rgb(134,134,134)" fill-opacity="0.6484375"/>
  <rect x="13" y="14" width="1" height="1" fill="rgb(148,148,148)" fill-opacity="0.609375"/>
  <rect x="13" y="15" width="1" height="1" fill="rgb(25,25,25)" fill-opacity="0.7890625"/>
  <rect x="13" y="16" width="1" height="1" fill="rgb(0,0,0)" fill-opacity="0.25"/>
  <rect x="13" y="17" width="1" height="4" fill="rgb(255,255,255)" fill-opacity="0.0078125"/>
  <rect x="14" y="0" width="1" height="5" fill="rgb(255,255,255)" fill-opacity="0.0078125"/>
  <rect x="14" y="5" width="1" height="1" fill="rgb(38,38,38)" fill-opacity="0.625"/>
  <rect x="14" y="6" width="1" height="1" fill="rgb(139,139,139)" fill-opacity="0.7421875"/>
  <rect x="14" y="7" width="1" height="1" fill="rgb(21,21,21)" fill-opacity="0.8984375"/>
  <rect x="14" y="8" width="1" height="1" fill="rgb(136,136,136)" fill-opacity="0.640625"/>
  <rect x="14" y="9" width="1" height="1" fill="rgb(160,160,160)" fill-opacity="0.625"/>
  <rect x="14" y="10" width="1" height="1" fill="rgb(162,162,162)" fill-opacity="0.625"/>
  <rect x="14" y="11" width="1" height="1" fill="rgb(160,160,160)" fill-opacity="0.625"/>
  <rect x="14" y="12" width="1" height="1" fill="rgb(105,105,105)" fill-opacity="0.703125"/>
  <rect x="14" y="13" width="1" height="1" fill="rgb(86,86,86)" fill-opacity="0.734375"/>
  <rect x="14" y="14" width="1" height="1" fill="rgb(109,109,109)" fill-opacity="0.671875"/>
  <rect x="14" y="15" width="1" height="1" fill="rgb(5,5,5)" fill-opacity="0.734375"/>
  <rect x="14" y="16" width="1" height="5" fill="rgb(255,255,255)" fill-opacity="0.0078125"/>
  <rect x="15" y="0" width="1" height="5" fill="rgb(255,255,255)" fill-opacity="0.0078125"/>
  <rect x="15" y="5" width="1" height="1" fill="rgb(24,24,24)" fill-opacity="0.171875"/>
  <rect x="15" y="6" width="1" height="1" fill="rgb(29,29,29)" fill-opacity="0.8984375"/>
  <rect x="15" y="7" width="1" height="1" fill="rgb(51,51,51)" fill-opacity="0.8359375"/>
  <rect x="15" y="8" width="1" height="2" fill="rgb(161,161,161)" fill-opacity="0.609375"/>
  <rect x="15" y="10" width="1" height="1" fill="rgb(160,160,160)" fill-opacity="0.609375"/>
  <rect x="15" y="11" width="1" height="1" fill="rgb(161,161,161)" fill-opacity="0.609375"/>
  <rect x="15" y="12" width="1" height="1" fill="rgb(146,146,146)" fill-opacity="0.625"/>
  <rect x="15" y="13" width="1" height="1" fill="rgb(45,45,45)" fill-opacity="0.84375"/>
  <rect x="15" y="14" width="1" height="1" fill="rgb(18,18,18)" fill-opacity="0.828125"/>
  <rect x="15" y="15" width="1" height="1" fill="rgb(0,0,0)" fill-opacity="0.1953125"/>
  <rect x="15" y="16" width="1" height="5" fill="rgb(255,255,255)" fill-opacity="0.0078125"/>
  <rect x="16" y="0" width="1" height="6" fill="rgb(255,255,255)" fill-opacity="0.0078125"/>
  <rect x="16" y="6" width="1" height="1" fill="rgb(14,14,14)" fill-opacity="0.7890625"/>
  <rect x="16" y="7" width="1" height="1" fill="rgb(13,13,13)" fill-opacity="0.875"/>
  <rect x="16" y="8" width="1" height="5" fill="rgb(14,14,14)" fill-opacity="0.859375"/>
  <rect x="16" y="13" width="1" height="1" fill="rgb(9,9,9)" fill-opacity="0.90625"/>
  <rect x="16" y="14" width="1" height="1" fill="rgb(5,5,5)" fill-opacity="0.6484375"/>
  <rect x="16" y="15" width="1" height="6" fill="rgb(255,255,255)" fill-opacity="0.0078125"/>
  <rect x="17" y="0" width="1" height="21" fill="rgb(255,255,255)" fill-opacity="0.0078125"/>
  <rect x="18" y="0" width="1" height="21" fill="rgb(255,255,255)" fill-opacity="0.0078125"/>
  <rect x="19" y="0" width="1" height="21" fill="rgb(255,255,255)" fill-opacity="0.0078125"/>
  <rect x="20" y="0" width="1" height="21" fill="rgb(255,255,255)" fill-opacity="0.0078125"/>
</svg>