<svg xmlns="http://www.w3.org/2000/svg" shape-rendering="crispEdges" width="21" height="21" viewBox="0 0 21 21">
  <rect x="0" y="0" width="1" height="21" fill="rgb(255,255,255)" fill-opacity="0.0078125"/>
  <rect x="1" y="0" width="1" height="21" fill="rgb(255,255,255)" fill-opacity="0.0078125"/>
  <rect x="2" y="0" width="1" height="21" fill="rgb(255,255,255)" fill-opacity="0.0078125"/>
  <rect x="3" y="0" width="1" height="21" fill="rgb(255,255,255)" fill-opacity="0.0078125"/>
  <rect x="4" y="0" width="1" height="8" fill="rgb(255,255,255)" fill-opacity="0.0078125"/>
  <rect x="4" y="8" width="1" height="1" fill="rgb(61,32,13)" fill-opacity="0.3203125"/>
  <rect x="4" y="9" width="1" height="1" fill="rgb(54,40,26)" fill-opacity="0.8515625"/>
  <rect x="4" y="10" width="1" height="1" fill="rgb(50,43,36)" fill-opacity="0.9765625"/>
  <rect x="4" y="11" width="1" height="1" fill="rgb(38,35,33)"/>
  <rect x="4" y="12" width="1" height="1" fill="rgb(50,43,36)" fill-opacity="0.9765625"/>
  <rect x="4" y="13" width="1" height="1" fill="rgb(55,39,26)" fill-opacity="0.84375"/>
  <rect x="4" y="14" width="1" height="1" fill="rgb(60,30,13)" fill-opacity="0.3046875"/>
  <rect x="4" y="15" width="1" height="6" fill="rgb(255,255,255)" fill-opacity="0.0078125"/>
  <rect x="5" y="0" width="1" height="6" fill="rgb(255,255,255)" fill-opacity="0.0078125"/>
  <rect x="5" y="6" width="1" height="1" fill="rgb(64,0,0)" fill-opacity="0.0234375"/>
  <rect x="5" y="7" width="1" height="1" fill="rgb(58,38,21)" fill-opacity="0.75"/>
  <rect x="5" y="8" width="1" height="1" fill="rgb(70,67,65)"/>
  <rect x="5" y="9" width="1" height="1" fill="rgb(222,221,221)"/>
  <rect x="5" y="10" width="1" height="1" fill="rgb(245,234,233)"/>
  <rect x="5" y="11" width="1" height="1" fill="rgb(248,234,232)"/>
  <rect x="5" y="12" width="1" height="1" fill="rgb(243,230,229)"/>
  <rect x="5" y="13" width="1" height="1" fill="rgb(215,214,214)"/>
  <rect x="5" y="14" width="1" height="1" fill="rgb(64,61,60)"/>
  <rect x="5" y="15" width="1" height="1" fill="rgb(57,38,22)" fill-opacity="0.734375"/>
  <rect x="5" y="16" width="1" height="1" fill="rgb(85,0,0)" fill-opacity="0.015625"/>
  <rect x="5" y="17" width="1" height="4" fill="rgb(255,255,255)" fill-opacity="0.0078125"/>
  <rect x="6" y="0" width="1" height="6" fill="rgb(255,255,255)" fill-opacity="0.0078125"/>
  <rect x="6" y="6" width="1" height="1" fill="rgb(55,36,22)" fill-opacity="0.7421875"/>
  <rect x="6" y="7" width="1" height="1" fill="rgb(144,143,141)"/>
  <rect x="6" y="8" width="1" height="1" fill="rgb(252,252,252)"/>
  <rect x="6" y="9" width="1" height="1" fill="rgb(249,249,249)"/>
  <rect x="6" y="10" width="1" height="1" fill="rgb(211,124,112)"/>
  <rect x="6" y="11" width="1" height="1" fill="rgb(188,46,28)"/>
  <rect x="6" y="12" width="1" height="1" fill="rgb(210,119,107)"/>
  <rect x="6" y="13" width="1" height="1" fill="rgb(247,247,247)"/>
  <rect x="6" y="14" width="1" height="1" fill="rgb(250,250,250)"/>
  <rect x="6" y="15" width="1" height="1" fill="rgb(125,125,122)"/>
  <rect x="6" y="16" width="1" height="1" fill="rgb(55,36,22)" fill-opacity="0.7265625"/>
  <rect x="6" y="17" width="1" height="4" fill="rgb(255,255,255)" fill-opacity="0.0078125"/>
  <rect x="7" y="0" width="1" height="5" fill="rgb(255,255,255)" fill-opacity="0.0078125"/>
  <rect x="7" y="5" width="1" height="1" fill="rgb(59,29,13)" fill-opacity="0.3125"/>
  <rect x="7" y="6" width="1" height="1" fill="rgb(73,70,68)"/>
  <rect x="7" y="7" width="1" height="1" fill="rgb(252,252,252)"/>
  <rect x="7" y="8" width="1" height="1" fill="rgb(207,106,93)"/>
  <rect x="7" y="9" width="1" height="1" fill="rgb(181,26,6)"/>
  <rect x="7" y="10" width="1" height="1" fill="rgb(235,231,230)"/>
  <rect x="7" y="11" width="1" height="1" fill="rgb(235,230,229)"/>
  <rect x="7" y="12" width="1" height="1" fill="rgb(235,231,230)"/>
  <rect x="7" y="13" width="1" height="1" fill="rgb(181,26,6)"/>
  <rect x="7" y="14" width="1" height="1" fill="rgb(200,87,73)"/>
  <rect x="7" y="15" width="1" height="1" fill="rgb(246,246,246)"/>
  <rect x="7" y="16" width="1" height="1" fill="rgb(60,57,55)"/>
  <rect x="7" y="17" width="1" height="1" fill="rgb(56,30,13)" fill-opacity="0.3046875"/>
  <rect x="7" y="18" width="1" height="3" fill="rgb(255,255,255)" fill-opacity="0.0078125"/>
  <rect x="8" y="0" width="1" height="5" fill="rgb(255,255,255)" fill-opacity="0.0078125"/>
  <rect x="8" y="5" width="1" height="1" fill="rgb(57,42,28)" fill-opacity="0.859375"/>
  <rect x="8" y="6" width="1" height="1" fill="rgb(225,225,225)"/>
  <rect x="8" y="7" width="1" height="1" fill="rgb(249,249,249)"/>
  <rect x="8" y="8" width="1" height="2" fill="rgb(180,21,0)"/>
  <rect x="8" y="10" width="1" height="3" fill="rgb(236,236,236)"/>
  <rect x="8" y="13" width="1" height="2" fill="rgb(180,21,0)"/>
  <rect x="8" y="15" width="1" height="1" fill="rgb(244,244,244)"/>
  <rect x="8" y="16" width="1" height="1" fill="rgb(194,193,193)"/>
  <rect x="8" y="17" width="1" height="1" fill="rgb(56,40,28)" fill-opacity="0.84375"/>
  <rect x="8" y="18" width="1" height="3" fill="rgb(255,255,255)" fill-opacity="0.0078125"/>
  <rect x="9" y="0" width="1" height="5" fill="rgb(255,255,255)" fill-opacity="0.0078125"/>
  <rect x="9" y="5" width="1" height="1" fill="rgb(52,45,38)" fill-opacity="0.9765625"/>
  <rect x="9" y="6" width="1" height="1" fill="rgb(246,237,236)"/>
  <rect x="9" y="7" width="1" height="1" fill="rgb(210,121,110)"/>
  <rect x="9" y="8" width="1" height="2" fill="rgb(235,230,229)"/>
  <rect x="9" y="10" width="1" height="3" fill="rgb(181,26,6)"/>
  <rect x="9" y="13" width="1" height="2" fill="rgb(235,230,229)"/>
  <rect x="9" y="15" width="1" height="1" fill="rgb(202,95,82)"/>
  <rect x="9" y="16" width="1" height="1" fill="rgb(221,187,182)"/>
  <rect x="9" y="17" width="1" height="1" fill="rgb(52,45,38)" fill-opacity="0.9765625"/>
  <rect x="9" y="18" width="1" height="3" fill="rgb(255,255,255)" fill-opacity="0.0078125"/>
  <rect x="10" y="0" width="1" height="5" fill="rgb(255,255,255)" fill-opacity="0.0078125"/>
  <rect x="10" y="5" width="1" height="1" fill="rgb(39,36,34)"/>
  <rect x="10" y="6" width="1" height="1" fill="rgb(250,238,237)"/>
  <rect x="10" y="7" width="1" height="1" fill="rgb(188,45,26)"/>
  <rect x="10" y="8" width="1" height="2" fill="rgb(236,236,236)"/>
  <rect x="10" y="10" width="1" height="3" fill="rgb(180,21,0)"/>
  <rect x="10" y="13" width="1" height="2" fill="rgb(236,236,236)"/>
  <rect x="10" y="15" width="1" height="1" fill="rgb(184,32,12)"/>
  <rect x="10" y="16" width="1" height="1" fill="rgb(214,128,116)"/>
  <rect x="10" y="17" width="1" height="1" fill="rgb(39,36,34)"/>
  <rect x="10" y="18" width="1" height="3" fill="rgb(255,255,255)" fill-opacity="0.0078125"/>
  <rect x="11" y="0" width="1" height="5" fill="rgb(255,255,255)" fill-opacity="0.0078125"/>
  <rect x="11" y="5" width="1" height="1" fill="rgb(52,44,38)" fill-opacity="0.984375"/>
  <rect x="11" y="6" width="1" height="1" fill="rgb(245,232,231)"/>
  <rect x="11" y="7" width="1" height="1" fill="rgb(207,107,95)"/>
  <rect x="11" y="8" width="1" height="2" fill="rgb(236,236,236)"/>
  <rect x="11" y="10" width="1" height="3" fill="rgb(180,21,0)"/>
  <rect x="11" y="13" width="1" height="2" fill="rgb(236,236,236)"/>
  <rect x="11" y="15" width="1" height="1" fill="rgb(195,75,59)"/>
  <rect x="11" y="16" width="1" height="1" fill="rgb(212,161,154)"/>
  <rect x="11" y="17" width="1" height="1" fill="rgb(51,44,38)" fill-opacity="0.9765625"/>
  <rect x="11" y="18" width="1" height="3" fill="rgb(255,255,255)" fill-opacity="0.0078125"/>
  <rect x="12" y="0" width="1" height="5" fill="rgb(255,255,255)" fill-opacity="0.0078125"/>
  <rect x="12" y="5" width="1" height="1" fill="rgb(57,42,29)" fill-opacity="0.8671875"/>
  <rect x="12" y="6" width="1" height="1" fill="rgb(221,221,221)"/>
  <rect x="12" y="7" width="1" height="1" fill="rgb(247,247,247)"/>
  <rect x="12" y="8" width="1" height="2" fill="rgb(181,26,6)"/>
  <rect x="12" y="10" width="1" height="3" fill="rgb(235,230,229)"/>
  <rect x="12" y="13" width="1" height="2" fill="rgb(181,26,6)"/>
  <rect x="12" y="15" width="1" height="1" fill="rgb(240,240,240)"/>
  <rect x="12" y="16" width="1" height="1" fill="rgb(176,175,175)"/>
  <rect x="12" y="17" width="1" height="1" fill="rgb(57,41,30)" fill-opacity="0.8515625"/>
  <rect x="12" y="18" width="1" height="3" fill="rgb(255,255,255)" fill-opacity="0.0078125"/>
  <rect x="13" y="0" width="1" height="5" fill="rgb(255,255,255)" fill-opacity="0.0078125"/>
  <rect x="13" y="5" width="1" height="1" fill="rgb(55,30,12)" fill-opacity="0.3359375"/>
  <rect x="13" y="6" width="1" height="1" fill="rgb(73,70,68)"/>
  <rect x="13" y="7" width="1" height="1" fill="rgb(251,251,251)"/>
  <rect x="13" y="8" width="1" height="1" fill="rgb(199,81,65)"/>
  <rect x="13" y="9" width="1" height="1" fill="rgb(180,21,0)"/>
  <rect x="13" y="10" width="1" height="3" fill="rgb(236,236,236)"/>
  <rect x="13" y="13" width="1" height="1" fill="rgb(180,21,0)"/>
  <rect x="13" y="14" width="1" height="1" fill="rgb(187,43,24)"/>
  <rect x="13" y="15" width="1" height="1" fill="rgb(233,233,233)"/>
  <rect x="13" y="16" width="1" height="1" fill="rgb(53,50,48)"/>
  <rect x="13" y="17" width="1" height="1" fill="rgb(55,31,12)" fill-opacity="0.328125"/>
  <rect x="13" y="18" width="1" height="3" fill="rgb(255,255,255)" fill-opacity="0.0078125"/>
  <rect x="14" y="0" width="1" height="6" fill="rgb(255,255,255)" fill-opacity="0.0078125"/>
  <rect x="14" y="6" width="1" height="1" fill="rgb(57,38,24)" fill-opacity="0.765625"/>
  <rect x="14" y="7" width="1" height="1" fill="rgb(135,133,131)"/>
  <rect x="14" y="8" width="1" height="1" fill="rgb(247,245,245)"/>
  <rect x="14" y="9" width="1" height="1" fill="rgb(244,241,240)"/>
  <rect x="14" y="10" width="1" height="1" fill="rgb(202,95,80)"/>
  <rect x="14" y="11" width="1" height="1" fill="rgb(184,34,15)"/>
  <rect x="14" y="12" width="1" height="1" fill="rgb(200,89,75)"/>
  <rect x="14" y="13" width="1" height="1" fill="rgb(239,235,234)"/>
  <rect x="14" y="14" width="1" height="1" fill="rgb(232,229,228)"/>
  <rect x="14" y="15" width="1" height="1" fill="rgb(97,95,93)"/>
  <rect x="14" y="16" width="1" height="1" fill="rgb(56,37,24)" fill-opacity="0.75"/>
  <rect x="14" y="17" width="1" height="4" fill="rgb(255,255,255)" fill-opacity="0.0078125"/>
  <rect x="15" y="0" width="1" height="6" fill="rgb(255,255,255)" fill-opacity="0.0078125"/>
  <rect x="15" y="6" width="1" height="1" fill="rgb(43,43,0)" fill-opacity="0.03125"/>
  <rect x="15" y="7" width="1" height="1" fill="rgb(58,38,24)" fill-opacity="0.765625"/>
  <rect x="15" y="8" width="1" height="1" fill="rgb(64,61,59)"/>
  <rect x="15" y="9" width="1" height="1" fill="rgb(199,198,198)"/>
  <rect x="15" y="10" width="1" height="1" fill="rgb(223,187,181)"/>
  <rect x="15" y="11" width="1" height="1" fill="rgb(216,133,122)"/>
  <rect x="15" y="12" width="1" height="1" fill="rgb(214,174,169)"/>
  <rect x="15" y="13" width="1" height="1" fill="rgb(177,176,176)"/>
  <rect x="15" y="14" width="1" height="1" fill="rgb(53,50,48)"/>
  <rect x="15" y="15" width="1" height="1" fill="rgb(56,39,24)" fill-opacity="0.7578125"/>
  <rect x="15" y="16" width="1" height="1" fill="rgb(51,0,0)" fill-opacity="0.0234375"/>
  <rect x="15" y="17" width="1" height="4" fill="rgb(255,255,255)" fill-opacity="0.0078125"/>
  <rect x="16" y="0" width="1" height="8" fill="rgb(255,255,255)" fill-opacity="0.0078125"/>
  <rect x="16" y="8" width="1" height="1" fill="rgb(58,29,12)" fill-opacity="0.3515625"/>
  <rect x="16" y="9" width="1" height="1" fill="rgb(55,41,29)" fill-opacity="0.875"/>
  <rect x="16" y="10" width="1" height="1" fill="rgb(50,43,37)" fill-opacity="0.984375"/>
  <rect x="16" y="11" width="1" height="1" fill="rgb(40,33,31)"/>
  <rect x="16" y="12" width="1" height="1" fill="rgb(50,43,37)" fill-opacity="0.984375"/>
  <rect x="16" y="13" width="1" height="1" fill="rgb(54,40,29)" fill-opacity="0.875"/>
  <rect x="16" y="14" width="1" height="1" fill="rgb(54,30,12)" fill-opacity="0.3359375"/>
  <rect x="16" y="15" width="1" height="6" fill="rgb(255,255,255)" fill-opacity="0.0078125"/>
  <rect x="17" y="0" width="1" height="21" fill="rgb(255,255,255)" fill-opacity="0.0078125"/>
  <rect x="18" y="0" width="1" height="21" fill="rgb(255,255,255)" fill-opacity="0.0078125"/>
  <rect x="19" y="0" width="1" height="21" fill="rgb(255,255,255)" fill-opacity="0.0078125"/>
  <rect x="20" y="0" width="1" height="21" fill="rgb(255,255,255)" fill-opacity="0.0078125"/>
</svg>