<svg xmlns="http://www.w3.org/2000/svg" shape-rendering="crispEdges" width="21" height="21" viewBox="0 0 21 21">
  <rect x="0" y="0" width="21" height="1" fill="rgb(255,255,255)" fill-opacity="0.0078125"/>
  <rect x="0" y="1" width="21" height="1" fill="rgb(255,255,255)" fill-opacity="0.0078125"/>
  <rect x="0" y="2" width="21" height="1" fill="rgb(255,255,255)" fill-opacity="0.0078125"/>
  <rect x="0" y="3" width="21" height="1" fill="rgb(255,255,255)" fill-opacity="0.0078125"/>
  <rect x="0" y="4" width="8" height="1" fill="rgb(255,255,255)" fill-opacity="0.0078125"/>
  <rect x="8" y="4" width="1" height="1" fill="rgb(11,22,40)" fill-opacity="0.28125"/>
  <rect x="9" y="4" width="1" height="1" fill="rgb(11,24,42)" fill-opacity="0.9140625"/>
  <rect x="10" y="4" width="1" height="1" fill="rgb(12,24,42)" fill-opacity="0.9375"/>
  <rect x="11" y="4" width="1" height="1" fill="rgb(10,22,41)" fill-opacity="0.4921875"/>
  <rect x="12" y="4" width="1" height="1" fill="rgb(13,20,40)" fill-opacity="0.15625"/>
  <rect x="13" y="4" width="1" height="1" fill="rgb(0,0,0)" fill-opacity="0.0078125"/>
  <rect x="14" y="4" width="7" height="1" fill="rgb(255,255,255)" fill-opacity="0.0078125"/>
  <rect x="0" y="5" width="8" height="1" fill="rgb(255,255,255)" fill-opacity="0.0078125"/>
  <rect x="8" y="5" width="1" height="1" fill="rgb(11,24,42)" fill-opacity="0.9140625"/>
  <rect x="9" y="5" width="1" height="1" fill="rgb(194,211,238)"/>
  <rect x="10" y="5" width="1" height="1" fill="rgb(186,206,236)"/>
  <rect x="11" y="5" width="1" height="1" fill="rgb(70,97,137)"/>
  <rect x="12" y="5" width="1" height="1" fill="rgb(58,81,115)"/>
  <rect x="13" y="5" width="1" height="1" fill="rgb(23,39,60)" fill-opacity="0.875"/>
  <rect x="14" y="5" width="1" height="1" fill="rgb(10,23,39)" fill-opacity="0.3125"/>
  <rect x="15" y="5" width="6" height="1" fill="rgb(255,255,255)" fill-opacity="0.0078125"/>
  <rect x="0" y="6" width="8" height="1" fill="rgb(255,255,255)" fill-opacity="0.0078125"/>
  <rect x="8" y="6" width="1" height="1" fill="rgb(11,24,42)" fill-opacity="0.9140625"/>
  <rect x="9" y="6" width="1" height="1" fill="rgb(185,205,235)"/>
  <rect x="10" y="6" width="1" height="1" fill="rgb(135,170,222)"/>
  <rect x="11" y="6" width="1" height="1" fill="rgb(103,138,187)"/>
  <rect x="12" y="6" width="1" height="1" fill="rgb(129,164,214)"/>
  <rect x="13" y="6" width="1" height="1" fill="rgb(122,156,207)"/>
  <rect x="14" y="6" width="1" height="1" fill="rgb(66,89,123)"/>
  <rect x="15" y="6" width="1" height="1" fill="rgb(11,25,42)" fill-opacity="0.53125"/>
  <rect x="16" y="6" width="5" height="1" fill="rgb(255,255,255)" fill-opacity="0.0078125"/>
  <rect x="0" y="7" width="8" height="1" fill="rgb(255,255,255)" fill-opacity="0.0078125"/>
  <rect x="8" y="7" width="1" height="1" fill="rgb(11,22,41)" fill-opacity="0.2734375"/>
  <rect x="9" y="7" width="1" height="1" fill="rgb(11,24,42)" fill-opacity="0.9296875"/>
  <rect x="10" y="7" width="1" height="1" fill="rgb(12,24,42)" fill-opacity="0.953125"/>
  <rect x="11" y="7" width="1" height="1" fill="rgb(13,26,48)" fill-opacity="0.84375"/>
  <rect x="12" y="7" width="1" height="1" fill="rgb(40,58,81)" fill-opacity="0.96875"/>
  <rect x="13" y="7" width="1" height="1" fill="rgb(108,136,177)"/>
  <rect x="14" y="7" width="1" height="1" fill="rgb(134,168,216)"/>
  <rect x="15" y="7" width="1" height="1" fill="rgb(63,85,116)"/>
  <rect x="16" y="7" width="1" height="1" fill="rgb(11,23,41)" fill-opacity="0.2734375"/>
  <rect x="17" y="7" width="4" height="1" fill="rgb(255,255,255)" fill-opacity="0.0078125"/>
  <rect x="0" y="8" width="12" height="1" fill="rgb(255,255,255)" fill-opacity="0.0078125"/>
  <rect x="12" y="8" width="1" height="1" fill="rgb(12,23,35)" fill-opacity="0.09375"/>
  <rect x="13" y="8" width="1" height="1" fill="rgb(15,26,45)" fill-opacity="0.71875"/>
  <rect x="14" y="8" width="1" height="1" fill="rgb(116,144,183)"/>
  <rect x="15" y="8" width="1" height="1" fill="rgb(136,167,212)"/>
  <rect x="16" y="8" width="1" height="1" fill="rgb(17,31,50)" fill-opacity="0.75"/>
  <rect x="17" y="8" width="4" height="1" fill="rgb(255,255,255)" fill-opacity="0.0078125"/>
  <rect x="0" y="9" width="13" height="1" fill="rgb(255,255,255)" fill-opacity="0.0078125"/>
  <rect x="13" y="9" width="1" height="1" fill="rgb(8,23,38)" fill-opacity="0.140625"/>
  <rect x="14" y="9" width="1" height="1" fill="rgb(69,88,115)"/>
  <rect x="15" y="9" width="1" height="1" fill="rgb(151,179,222)"/>
  <rect x="16" y="9" width="1" height="1" fill="rgb(43,59,81)" fill-opacity="0.9375"/>
  <rect x="17" y="9" width="4" height="1" fill="rgb(255,255,255)" fill-opacity="0.0078125"/>
  <rect x="0" y="10" width="13" height="1" fill="rgb(255,255,255)" fill-opacity="0.0078125"/>
  <rect x="13" y="10" width="1" height="1" fill="rgb(13,22,40)" fill-opacity="0.234375"/>
  <rect x="14" y="10" width="1" height="1" fill="rgb(84,103,130)"/>
  <rect x="15" y="10" width="1" height="1" fill="rgb(160,186,225)"/>
  <rect x="16" y="10" width="1" height="1" fill="rgb(36,53,73)" fill-opacity="0.9140625"/>
  <rect x="17" y="10" width="4" height="1" fill="rgb(255,255,255)" fill-opacity="0.0078125"/>
  <rect x="0" y="11" width="12" height="1" fill="rgb(255,255,255)" fill-opacity="0.0078125"/>
  <rect x="12" y="11" width="1" height="1" fill="rgb(0,0,0)" fill-opacity="0.0078125"/>
  <rect x="13" y="11" width="1" height="1" fill="rgb(12,24,42)" fill-opacity="0.671875"/>
  <rect x="14" y="11" width="1" height="1" fill="rgb(142,164,195)"/>
  <rect x="15" y="11" width="1" height="1" fill="rgb(147,169,202)"/>
  <rect x="16" y="11" width="1" height="1" fill="rgb(12,23,39)" fill-opacity="0.609375"/>
  <rect x="17" y="11" width="4" height="1" fill="rgb(255,255,255)" fill-opacity="0.0078125"/>
  <rect x="0" y="12" width="11" height="1" fill="rgb(255,255,255)" fill-opacity="0.0078125"/>
  <rect x="11" y="12" width="1" height="1" fill="rgb(0,0,0)" fill-opacity="0.015625"/>
  <rect x="12" y="12" width="1" height="1" fill="rgb(10,23,40)" fill-opacity="0.578125"/>
  <rect x="13" y="12" width="1" height="1" fill="rgb(112,129,154)"/>
  <rect x="14" y="12" width="1" height="1" fill="rgb(179,200,231)"/>
  <rect x="15" y="12" width="1" height="1" fill="rgb(93,109,133)"/>
  <rect x="16" y="12" width="1" height="1" fill="rgb(11,22,40)" fill-opacity="0.28125"/>
  <rect x="17" y="12" width="4" height="1" fill="rgb(255,255,255)" fill-opacity="0.0078125"/>
  <rect x="0" y="13" width="9" height="1" fill="rgb(255,255,255)" fill-opacity="0.0078125"/>
  <rect x="9" y="13" width="1" height="1" fill="rgb(0,0,0)" fill-opacity="0.0078125"/>
  <rect x="10" y="13" width="1" height="1" fill="rgb(12,22,40)" fill-opacity="0.328125"/>
  <rect x="11" y="13" width="1" height="1" fill="rgb(30,42,59)" fill-opacity="0.84375"/>
  <rect x="12" y="13" width="1" height="1" fill="rgb(124,139,162)"/>
  <rect x="13" y="13" width="1" height="1" fill="rgb(190,208,235)"/>
  <rect x="14" y="13" width="1" height="1" fill="rgb(124,140,164)"/>
  <rect x="15" y="13" width="1" height="1" fill="rgb(13,26,43)" fill-opacity="0.6328125"/>
  <rect x="16" y="13" width="5" height="1" fill="rgb(255,255,255)" fill-opacity="0.0078125"/>
  <rect x="0" y="14" width="5" height="1" fill="rgb(255,255,255)" fill-opacity="0.0078125"/>
  <rect x="5" y="14" width="1" height="1" fill="rgb(11,22,41)" fill-opacity="0.2734375"/>
  <rect x="6" y="14" width="1" height="1" fill="rgb(11,24,41)" fill-opacity="0.921875"/>
  <rect x="7" y="14" width="1" height="1" fill="rgb(11,25,42)" fill-opacity="0.9609375"/>
  <rect x="8" y="14" width="1" height="1" fill="rgb(24,35,53)" fill-opacity="0.8359375"/>
  <rect x="9" y="14" width="1" height="1" fill="rgb(58,69,89)" fill-opacity="0.9375"/>
  <rect x="10" y="14" width="1" height="1" fill="rgb(112,126,145)"/>
  <rect x="11" y="14" width="1" height="1" fill="rgb(193,209,231)"/>
  <rect x="12" y="14" width="1" height="1" fill="rgb(201,216,239)"/>
  <rect x="13" y="14" width="1" height="1" fill="rgb(131,145,166)"/>
  <rect x="14" y="14" width="1" height="1" fill="rgb(14,27,44)" fill-opacity="0.6640625"/>
  <rect x="15" y="14" width="1" height="1" fill="rgb(0,0,0)" fill-opacity="0.015625"/>
  <rect x="16" y="14" width="5" height="1" fill="rgb(255,255,255)" fill-opacity="0.0078125"/>
  <rect x="0" y="15" width="5" height="1" fill="rgb(255,255,255)" fill-opacity="0.0078125"/>
  <rect x="5" y="15" width="1" height="1" fill="rgb(11,24,41)" fill-opacity="0.921875"/>
  <rect x="6" y="15" width="1" height="1" fill="rgb(215,227,244)"/>
  <rect x="7" y="15" width="1" height="1" fill="rgb(209,222,242)"/>
  <rect x="8" y="15" width="1" height="1" fill="rgb(147,166,193)"/>
  <rect x="9" y="15" width="1" height="1" fill="rgb(215,226,243)"/>
  <rect x="10" y="15" width="1" height="1" fill="rgb(213,225,243)"/>
  <rect x="11" y="15" width="1" height="1" fill="rgb(159,171,189)"/>
  <rect x="12" y="15" width="1" height="1" fill="rgb(59,72,89)" fill-opacity="0.96875"/>
  <rect x="13" y="15" width="1" height="1" fill="rgb(12,24,39)" fill-opacity="0.515625"/>
  <rect x="14" y="15" width="1" height="1" fill="rgb(0,0,64)" fill-opacity="0.0234375"/>
  <rect x="15" y="15" width="6" height="1" fill="rgb(255,255,255)" fill-opacity="0.0078125"/>
  <rect x="0" y="16" width="5" height="1" fill="rgb(255,255,255)" fill-opacity="0.0078125"/>
  <rect x="5" y="16" width="1" height="1" fill="rgb(11,24,41)" fill-opacity="0.921875"/>
  <rect x="6" y="16" width="1" height="1" fill="rgb(209,222,242)"/>
  <rect x="7" y="16" width="1" height="1" fill="rgb(175,198,233)"/>
  <rect x="8" y="16" width="1" height="1" fill="rgb(67,83,109)"/>
  <rect x="9" y="16" width="1" height="1" fill="rgb(98,110,125)"/>
  <rect x="10" y="16" width="1" height="1" fill="rgb(55,67,84)" fill-opacity="0.9453125"/>
  <rect x="11" y="16" width="1" height="1" fill="rgb(12,23,41)" fill-opacity="0.5234375"/>
  <rect x="12" y="16" width="1" height="1" fill="rgb(13,27,40)" fill-opacity="0.078125"/>
  <rect x="13" y="16" width="8" height="1" fill="rgb(255,255,255)" fill-opacity="0.0078125"/>
  <rect x="0" y="17" width="5" height="1" fill="rgb(255,255,255)" fill-opacity="0.0078125"/>
  <rect x="5" y="17" width="1" height="1" fill="rgb(11,22,41)" fill-opacity="0.2734375"/>
  <rect x="6" y="17" width="1" height="1" fill="rgb(11,24,41)" fill-opacity="0.921875"/>
  <rect x="7" y="17" width="1" height="1" fill="rgb(12,25,42)" fill-opacity="0.9375"/>
  <rect x="8" y="17" width="1" height="1" fill="rgb(11,21,40)" fill-opacity="0.4765625"/>
  <rect x="9" y="17" width="1" height="1" fill="rgb(9,26,43)" fill-opacity="0.125"/>
  <rect x="10" y="17" width="1" height="1" fill="rgb(0,0,0)" fill-opacity="0.0078125"/>
  <rect x="11" y="17" width="10" height="1" fill="rgb(255,255,255)" fill-opacity="0.0078125"/>
  <rect x="0" y="18" width="21" height="1" fill="rgb(255,255,255)" fill-opacity="0.0078125"/>
  <rect x="0" y="19" width="21" height="1" fill="rgb(255,255,255)" fill-opacity="0.0078125"/>
  <rect x="0" y="20" width="21" height="1" fill="rgb(255,255,255)" fill-opacity="0.0078125"/>
</svg>