<svg xmlns="http://www.w3.org/2000/svg" shape-rendering="crispEdges" width="21" height="21" viewBox="0 0 21 21">
  <rect x="0" y="0" width="21" height="1" fill="rgb(255,255,255)" fill-opacity="0.0078125"/>
  <rect x="0" y="1" width="21" height="1" fill="rgb(255,255,255)" fill-opacity="0.0078125"/>
  <rect x="0" y="2" width="21" height="1" fill="rgb(255,255,255)" fill-opacity="0.0078125"/>
  <rect x="0" y="3" width="21" height="1" fill="rgb(255,255,255)" fill-opacity="0.0078125"/>
  <rect x="0" y="4" width="10" height="1" fill="rgb(255,255,255)" fill-opacity="0.0078125"/>
  <rect x="10" y="4" width="1" height="1" fill="rgb(66,37,16)" fill-opacity="0.25"/>
  <rect x="11" y="4" width="1" height="1" fill="rgb(102,72,49)" fill-opacity="0.890625"/>
  <rect x="12" y="4" width="1" height="1" fill="rgb(80,49,28)" fill-opacity="0.6953125"/>
  <rect x="13" y="4" width="1" height="1" fill="rgb(67,40,13)" fill-opacity="0.078125"/>
  <rect x="14" y="4" width="7" height="1" fill="rgb(255,255,255)" fill-opacity="0.0078125"/>
  <rect x="0" y="5" width="10" height="1" fill="rgb(255,255,255)" fill-opacity="0.0078125"/>
  <rect x="10" y="5" width="1" height="1" fill="rgb(66,36,18)" fill-opacity="0.609375"/>
  <rect x="11" y="5" width="1" height="1" fill="rgb(241,195,150)"/>
  <rect x="12" y="5" width="1" height="1" fill="rgb(219,165,113)"/>
  <rect x="13" y="5" width="1" height="1" fill="rgb(85,53,30)" fill-opacity="0.8515625"/>
  <rect x="14" y="5" width="1" height="1" fill="rgb(61,41,20)" fill-opacity="0.1015625"/>
  <rect x="15" y="5" width="6" height="1" fill="rgb(255,255,255)" fill-opacity="0.0078125"/>
  <rect x="0" y="6" width="10" height="1" fill="rgb(255,255,255)" fill-opacity="0.0078125"/>
  <rect x="10" y="6" width="1" height="1" fill="rgb(67,38,19)" fill-opacity="0.3203125"/>
  <rect x="11" y="6" width="1" height="1" fill="rgb(133,91,54)"/>
  <rect x="12" y="6" width="1" height="1" fill="rgb(247,178,111)"/>
  <rect x="13" y="6" width="1" height="1" fill="rgb(223,155,92)"/>
  <rect x="14" y="6" width="1" height="1" fill="rgb(90,55,27)" fill-opacity="0.875"/>
  <rect x="15" y="6" width="1" height="1" fill="rgb(68,34,17)" fill-opacity="0.125"/>
  <rect x="16" y="6" width="5" height="1" fill="rgb(255,255,255)" fill-opacity="0.0078125"/>
  <rect x="0" y="7" width="5" height="1" fill="rgb(255,255,255)" fill-opacity="0.0078125"/>
  <rect x="5" y="7" width="1" height="1" fill="rgb(65,36,17)" fill-opacity="0.421875"/>
  <rect x="6" y="7" width="1" height="1" fill="rgb(130,98,74)" fill-opacity="0.9609375"/>
  <rect x="7" y="7" width="1" height="1" fill="rgb(139,106,78)"/>
  <rect x="8" y="7" width="1" height="1" fill="rgb(137,102,73)"/>
  <rect x="9" y="7" width="1" height="1" fill="rgb(134,98,68)"/>
  <rect x="10" y="7" width="1" height="1" fill="rgb(132,94,61)"/>
  <rect x="11" y="7" width="1" height="1" fill="rgb(135,95,59)"/>
  <rect x="12" y="7" width="1" height="1" fill="rgb(197,138,82)"/>
  <rect x="13" y="7" width="1" height="1" fill="rgb(248,169,91)"/>
  <rect x="14" y="7" width="1" height="1" fill="rgb(229,151,77)"/>
  <rect x="15" y="7" width="1" height="1" fill="rgb(97,58,28)" fill-opacity="0.9453125"/>
  <rect x="16" y="7" width="1" height="1" fill="rgb(70,38,19)" fill-opacity="0.1640625"/>
  <rect x="17" y="7" width="4" height="1" fill="rgb(255,255,255)" fill-opacity="0.0078125"/>
  <rect x="0" y="8" width="5" height="1" fill="rgb(255,255,255)" fill-opacity="0.0078125"/>
  <rect x="5" y="8" width="1" height="1" fill="rgb(104,68,42)" fill-opacity="0.8984375"/>
  <rect x="6" y="8" width="1" height="1" fill="rgb(251,202,155)"/>
  <rect x="7" y="8" width="1" height="1" fill="rgb(251,199,149)"/>
  <rect x="8" y="8" width="1" height="1" fill="rgb(250,194,139)"/>
  <rect x="9" y="8" width="1" height="1" fill="rgb(250,188,128)"/>
  <rect x="10" y="8" width="1" height="1" fill="rgb(250,182,115)"/>
  <rect x="11" y="8" width="1" height="1" fill="rgb(248,175,104)"/>
  <rect x="12" y="8" width="1" height="1" fill="rgb(249,181,114)"/>
  <rect x="13" y="8" width="1" height="1" fill="rgb(249,176,104)"/>
  <rect x="14" y="8" width="1" height="1" fill="rgb(248,158,72)"/>
  <rect x="15" y="8" width="1" height="1" fill="rgb(243,153,63)"/>
  <rect x="16" y="8" width="1" height="1" fill="rgb(122,73,30)" fill-opacity="0.9921875"/>
  <rect x="17" y="8" width="1" height="1" fill="rgb(66,35,21)" fill-opacity="0.2890625"/>
  <rect x="18" y="8" width="3" height="1" fill="rgb(255,255,255)" fill-opacity="0.0078125"/>
  <rect x="0" y="9" width="5" height="1" fill="rgb(255,255,255)" fill-opacity="0.0078125"/>
  <rect x="5" y="9" width="1" height="1" fill="rgb(65,37,19)" fill-opacity="0.4375"/>
  <rect x="6" y="9" width="1" height="1" fill="rgb(113,75,44)" fill-opacity="0.984375"/>
  <rect x="7" y="9" width="1" height="1" fill="rgb(125,82,47)"/>
  <rect x="8" y="9" width="1" height="1" fill="rgb(222,156,90)"/>
  <rect x="9" y="9" width="1" height="1" fill="rgb(249,171,95)"/>
  <rect x="10" y="9" width="1" height="1" fill="rgb(249,181,114)"/>
  <rect x="11" y="9" width="1" height="1" fill="rgb(254,238,223)"/>
  <rect x="12" y="9" width="2" height="1" fill="rgb(255,255,255)"/>
  <rect x="14" y="9" width="1" height="1" fill="rgb(254,236,220)"/>
  <rect x="15" y="9" width="1" height="1" fill="rgb(248,165,83)"/>
  <rect x="16" y="9" width="1" height="1" fill="rgb(246,144,43)"/>
  <rect x="17" y="9" width="1" height="1" fill="rgb(110,63,24)" fill-opacity="0.9765625"/>
  <rect x="18" y="9" width="1" height="1" fill="rgb(73,36,18)" fill-opacity="0.0625"/>
  <rect x="19" y="9" width="2" height="1" fill="rgb(255,255,255)" fill-opacity="0.0078125"/>
  <rect x="0" y="10" width="5" height="1" fill="rgb(255,255,255)" fill-opacity="0.0078125"/>
  <rect x="5" y="10" width="1" height="1" fill="rgb(128,0,0)" fill-opacity="0.015625"/>
  <rect x="6" y="10" width="1" height="1" fill="rgb(69,38,19)" fill-opacity="0.625"/>
  <rect x="7" y="10" width="1" height="1" fill="rgb(187,136,87)"/>
  <rect x="8" y="10" width="1" height="1" fill="rgb(249,177,105)"/>
  <rect x="9" y="10" width="1" height="1" fill="rgb(248,164,81)"/>
  <rect x="10" y="10" width="1" height="1" fill="rgb(254,238,222)"/>
  <rect x="11" y="10" width="1" height="1" fill="rgb(207,219,234)"/>
  <rect x="12" y="10" width="2" height="1" fill="rgb(95,134,183)"/>
  <rect x="14" y="10" width="1" height="1" fill="rgb(207,219,234)"/>
  <rect x="15" y="10" width="1" height="1" fill="rgb(253,234,215)"/>
  <rect x="16" y="10" width="1" height="1" fill="rgb(246,137,30)"/>
  <rect x="17" y="10" width="1" height="1" fill="rgb(209,113,21)"/>
  <rect x="18" y="10" width="1" height="1" fill="rgb(66,37,18)" fill-opacity="0.515625"/>
  <rect x="19" y="10" width="2" height="1" fill="rgb(255,255,255)" fill-opacity="0.0078125"/>
  <rect x="0" y="11" width="4" height="1" fill="rgb(255,255,255)" fill-opacity="0.0078125"/>
  <rect x="4" y="11" width="1" height="1" fill="rgb(128,0,0)" fill-opacity="0.015625"/>
  <rect x="5" y="11" width="1" height="1" fill="rgb(69,38,19)" fill-opacity="0.625"/>
  <rect x="6" y="11" width="1" height="1" fill="rgb(187,134,84)"/>
  <rect x="7" y="11" width="1" height="1" fill="rgb(249,176,105)"/>
  <rect x="8" y="11" width="1" height="1" fill="rgb(240,155,71)"/>
  <rect x="9" y="11" width="1" height="1" fill="rgb(248,169,92)"/>
  <rect x="10" y="11" width="1" height="1" fill="rgb(255,255,255)"/>
  <rect x="11" y="11" width="1" height="1" fill="rgb(95,134,183)"/>
  <rect x="12" y="11" width="2" height="1" fill="rgb(52,101,164)"/>
  <rect x="14" y="11" width="1" height="1" fill="rgb(95,134,183)"/>
  <rect x="15" y="11" width="1" height="1" fill="rgb(255,255,255)"/>
  <rect x="16" y="11" width="1" height="1" fill="rgb(246,147,49)"/>
  <rect x="17" y="11" width="1" height="1" fill="rgb(245,126,9)"/>
  <rect x="18" y="11" width="1" height="1" fill="rgb(87,49,20)" fill-opacity="0.8359375"/>
  <rect x="19" y="11" width="2" height="1" fill="rgb(255,255,255)" fill-opacity="0.0078125"/>
  <rect x="0" y="12" width="3" height="1" fill="rgb(255,255,255)" fill-opacity="0.0078125"/>
  <rect x="3" y="12" width="1" height="1" fill="rgb(128,0,0)" fill-opacity="0.015625"/>
  <rect x="4" y="12" width="1" height="1" fill="rgb(69,38,19)" fill-opacity="0.625"/>
  <rect x="5" y="12" width="1" height="1" fill="rgb(188,133,81)"/>
  <rect x="6" y="12" width="1" height="1" fill="rgb(249,174,99)"/>
  <rect x="7" y="12" width="1" height="1" fill="rgb(180,113,52)"/>
  <rect x="8" y="12" width="1" height="1" fill="rgb(246,149,54)"/>
  <rect x="9" y="12" width="1" height="1" fill="rgb(248,162,78)"/>
  <rect x="10" y="12" width="1" height="1" fill="rgb(255,255,255)"/>
  <rect x="11" y="12" width="1" height="1" fill="rgb(95,134,183)"/>
  <rect x="12" y="12" width="2" height="1" fill="rgb(52,101,164)"/>
  <rect x="14" y="12" width="1" height="1" fill="rgb(95,134,183)"/>
  <rect x="15" y="12" width="1" height="1" fill="rgb(255,255,255)"/>
  <rect x="16" y="12" width="1" height="1" fill="rgb(246,144,44)"/>
  <rect x="17" y="12" width="1" height="1" fill="rgb(246,132,21)"/>
  <rect x="18" y="12" width="1" height="1" fill="rgb(111,63,23)" fill-opacity="0.953125"/>
  <rect x="19" y="12" width="2" height="1" fill="rgb(255,255,255)" fill-opacity="0.0078125"/>
  <rect x="0" y="13" width="3" height="1" fill="rgb(255,255,255)" fill-opacity="0.0078125"/>
  <rect x="3" y="13" width="1" height="1" fill="rgb(69,38,17)" fill-opacity="0.53125"/>
  <rect x="4" y="13" width="1" height="1" fill="rgb(188,130,79)"/>
  <rect x="5" y="13" width="1" height="1" fill="rgb(249,171,95)"/>
  <rect x="6" y="13" width="1" height="1" fill="rgb(179,111,49)"/>
  <rect x="7" y="13" width="1" height="1" fill="rgb(68,38,18)" fill-opacity="0.84375"/>
  <rect x="8" y="13" width="1" height="1" fill="rgb(214,123,34)"/>
  <rect x="9" y="13" width="1" height="1" fill="rgb(246,138,32)"/>
  <rect x="10" y="13" width="1" height="1" fill="rgb(253,233,213)"/>
  <rect x="11" y="13" width="1" height="1" fill="rgb(207,219,234)"/>
  <rect x="12" y="13" width="2" height="1" fill="rgb(95,134,183)"/>
  <rect x="14" y="13" width="1" height="1" fill="rgb(207,219,234)"/>
  <rect x="15" y="13" width="1" height="1" fill="rgb(253,232,210)"/>
  <rect x="16" y="13" width="1" height="1" fill="rgb(245,126,8)"/>
  <rect x="17" y="13" width="1" height="1" fill="rgb(245,140,38)"/>
  <rect x="18" y="13" width="1" height="1" fill="rgb(81,46,23)" fill-opacity="0.84375"/>
  <rect x="19" y="13" width="2" height="1" fill="rgb(255,255,255)" fill-opacity="0.0078125"/>
  <rect x="0" y="14" width="3" height="1" fill="rgb(255,255,255)" fill-opacity="0.0078125"/>
  <rect x="3" y="14" width="1" height="1" fill="rgb(98,60,28)" fill-opacity="0.90625"/>
  <rect x="4" y="14" width="1" height="1" fill="rgb(248,164,80)"/>
  <rect x="5" y="14" width="1" height="1" fill="rgb(179,109,45)"/>
  <rect x="6" y="14" width="1" height="1" fill="rgb(69,38,18)" fill-opacity="0.625"/>
  <rect x="7" y="14" width="1" height="1" fill="rgb(67,37,17)" fill-opacity="0.3046875"/>
  <rect x="8" y="14" width="1" height="1" fill="rgb(141,77,19)"/>
  <rect x="9" y="14" width="1" height="1" fill="rgb(245,129,15)"/>
  <rect x="10" y="14" width="1" height="1" fill="rgb(247,147,48)"/>
  <rect x="11" y="14" width="1" height="1" fill="rgb(253,232,210)"/>
  <rect x="12" y="14" width="2" height="1" fill="rgb(255,255,255)"/>
  <rect x="14" y="14" width="1" height="1" fill="rgb(253,232,210)"/>
  <rect x="15" y="14" width="1" height="1" fill="rgb(247,146,47)"/>
  <rect x="16" y="14" width="1" height="1" fill="rgb(246,137,29)"/>
  <rect x="17" y="14" width="1" height="1" fill="rgb(191,116,45)"/>
  <rect x="18" y="14" width="1" height="1" fill="rgb(66,37,18)" fill-opacity="0.546875"/>
  <rect x="19" y="14" width="2" height="1" fill="rgb(255,255,255)" fill-opacity="0.0078125"/>
  <rect x="0" y="15" width="3" height="1" fill="rgb(255,255,255)" fill-opacity="0.0078125"/>
  <rect x="3" y="15" width="1" height="1" fill="rgb(67,38,19)" fill-opacity="0.421875"/>
  <rect x="4" y="15" width="1" height="1" fill="rgb(105,62,26)" fill-opacity="0.8984375"/>
  <rect x="5" y="15" width="1" height="1" fill="rgb(69,39,18)" fill-opacity="0.5703125"/>
  <rect x="6" y="15" width="1" height="1" fill="rgb(128,0,0)" fill-opacity="0.015625"/>
  <rect x="7" y="15" width="1" height="1" fill="rgb(0,0,0)" fill-opacity="0.0078125"/>
  <rect x="8" y="15" width="1" height="1" fill="rgb(67,37,18)" fill-opacity="0.7265625"/>
  <rect x="9" y="15" width="1" height="1" fill="rgb(183,96,16)"/>
  <rect x="10" y="15" width="1" height="1" fill="rgb(245,131,19)"/>
  <rect x="11" y="15" width="1" height="1" fill="rgb(245,130,15)"/>
  <rect x="12" y="15" width="2" height="1" fill="rgb(246,145,46)"/>
  <rect x="14" y="15" width="1" height="1" fill="rgb(245,132,20)"/>
  <rect x="15" y="15" width="1" height="1" fill="rgb(246,144,44)"/>
  <rect x="16" y="15" width="1" height="1" fill="rgb(220,137,58)"/>
  <rect x="17" y="15" width="1" height="1" fill="rgb(80,45,22)" fill-opacity="0.90625"/>
  <rect x="18" y="15" width="1" height="1" fill="rgb(61,36,12)" fill-opacity="0.0859375"/>
  <rect x="19" y="15" width="2" height="1" fill="rgb(255,255,255)" fill-opacity="0.0078125"/>
  <rect x="0" y="16" width="8" height="1" fill="rgb(255,255,255)" fill-opacity="0.0078125"/>
  <rect x="8" y="16" width="1" height="1" fill="rgb(64,32,16)" fill-opacity="0.0703125"/>
  <rect x="9" y="16" width="1" height="1" fill="rgb(66,38,17)" fill-opacity="0.75"/>
  <rect x="10" y="16" width="1" height="1" fill="rgb(134,76,23)"/>
  <rect x="11" y="16" width="1" height="1" fill="rgb(211,122,37)"/>
  <rect x="12" y="16" width="1" height="1" fill="rgb(241,144,50)"/>
  <rect x="13" y="16" width="1" height="1" fill="rgb(245,151,58)"/>
  <rect x="14" y="16" width="1" height="1" fill="rgb(222,136,55)"/>
  <rect x="15" y="16" width="1" height="1" fill="rgb(161,100,42)"/>
  <rect x="16" y="16" width="1" height="1" fill="rgb(74,42,20)" fill-opacity="0.8828125"/>
  <rect x="17" y="16" width="1" height="1" fill="rgb(67,39,17)" fill-opacity="0.1875"/>
  <rect x="18" y="16" width="3" height="1" fill="rgb(255,255,255)" fill-opacity="0.0078125"/>
  <rect x="0" y="17" width="9" height="1" fill="rgb(255,255,255)" fill-opacity="0.0078125"/>
  <rect x="9" y="17" width="1" height="1" fill="rgb(0,0,0)" fill-opacity="0.0078125"/>
  <rect x="10" y="17" width="1" height="1" fill="rgb(67,38,17)" fill-opacity="0.3515625"/>
  <rect x="11" y="17" width="1" height="1" fill="rgb(66,37,18)" fill-opacity="0.6875"/>
  <rect x="12" y="17" width="1" height="1" fill="rgb(67,37,19)" fill-opacity="0.8671875"/>
  <rect x="13" y="17" width="1" height="1" fill="rgb(69,38,18)" fill-opacity="0.890625"/>
  <rect x="14" y="17" width="1" height="1" fill="rgb(65,37,18)" fill-opacity="0.734375"/>
  <rect x="15" y="17" width="1" height="1" fill="rgb(66,37,18)" fill-opacity="0.4609375"/>
  <rect x="16" y="17" width="1" height="1" fill="rgb(77,26,26)" fill-opacity="0.046875"/>
  <rect x="17" y="17" width="4" height="1" fill="rgb(255,255,255)" fill-opacity="0.0078125"/>
  <rect x="0" y="18" width="21" height="1" fill="rgb(255,255,255)" fill-opacity="0.0078125"/>
  <rect x="0" y="19" width="21" height="1" fill="rgb(255,255,255)" fill-opacity="0.0078125"/>
  <rect x="0" y="20" width="21" height="1" fill="rgb(255,255,255)" fill-opacity="0.0078125"/>
</svg>