<svg xmlns="http://www.w3.org/2000/svg" shape-rendering="crispEdges" width="21" height="21" viewBox="0 0 21 21">
  <rect x="0" y="0" width="1" height="21" fill="rgb(255,255,255)" fill-opacity="0.0078125"/>
  <rect x="1" y="0" width="1" height="21" fill="rgb(255,255,255)" fill-opacity="0.0078125"/>
  <rect x="2" y="0" width="1" height="21" fill="rgb(255,255,255)" fill-opacity="0.0078125"/>
  <rect x="3" y="0" width="1" height="21" fill="rgb(255,255,255)" fill-opacity="0.0078125"/>
  <rect x="4" y="0" width="1" height="5" fill="rgb(255,255,255)" fill-opacity="0.0078125"/>
  <rect x="4" y="5" width="1" height="1" fill="rgb(51,51,51)" fill-opacity="0.203125"/>
  <rect x="4" y="6" width="1" height="1" fill="rgb(51,51,51)" fill-opacity="0.8671875"/>
  <rect x="4" y="7" width="1" height="5" fill="rgb(51,51,51)" fill-opacity="0.9765625"/>
  <rect x="4" y="12" width="1" height="1" fill="rgb(51,51,51)" fill-opacity="0.8203125"/>
  <rect x="4" y="13" width="1" height="1" fill="rgb(51,51,51)" fill-opacity="0.140625"/>
  <rect x="4" y="14" width="1" height="7" fill="rgb(255,255,255)" fill-opacity="0.0078125"/>
  <rect x="5" y="0" width="1" height="5" fill="rgb(255,255,255)" fill-opacity="0.0078125"/>
  <rect x="5" y="5" width="1" height="1" fill="rgb(51,51,51)" fill-opacity="0.7109375"/>
  <rect x="5" y="6" width="1" height="1" fill="rgb(223,223,223)"/>
  <rect x="5" y="7" width="1" height="1" fill="rgb(253,253,253)"/>
  <rect x="5" y="8" width="1" height="1" fill="rgb(251,251,251)"/>
  <rect x="5" y="9" width="1" height="1" fill="rgb(248,248,248)"/>
  <rect x="5" y="10" width="1" height="1" fill="rgb(244,244,244)"/>
  <rect x="5" y="11" width="1" height="1" fill="rgb(241,241,241)"/>
  <rect x="5" y="12" width="1" height="1" fill="rgb(176,176,176)"/>
  <rect x="5" y="13" width="1" height="1" fill="rgb(51,51,51)" fill-opacity="0.65625"/>
  <rect x="5" y="14" width="1" height="7" fill="rgb(255,255,255)" fill-opacity="0.0078125"/>
  <rect x="6" y="0" width="1" height="4" fill="rgb(255,255,255)" fill-opacity="0.0078125"/>
  <rect x="6" y="4" width="1" height="1" fill="rgb(47,47,47)" fill-opacity="0.109375"/>
  <rect x="6" y="5" width="1" height="1" fill="rgb(85,85,85)" fill-opacity="0.9921875"/>
  <rect x="6" y="6" width="1" height="1" fill="rgb(252,252,252)"/>
  <rect x="6" y="7" width="1" height="1" fill="rgb(205,205,205)"/>
  <rect x="6" y="8" width="1" height="3" fill="rgb(202,202,202)"/>
  <rect x="6" y="11" width="1" height="1" fill="rgb(206,206,206)"/>
  <rect x="6" y="12" width="1" height="1" fill="rgb(229,229,229)"/>
  <rect x="6" y="13" width="1" height="1" fill="rgb(72,72,72)" fill-opacity="0.9921875"/>
  <rect x="6" y="14" width="1" height="1" fill="rgb(54,54,54)" fill-opacity="0.15625"/>
  <rect x="6" y="15" width="1" height="6" fill="rgb(255,255,255)" fill-opacity="0.0078125"/>
  <rect x="7" y="0" width="1" height="4" fill="rgb(255,255,255)" fill-opacity="0.0078125"/>
  <rect x="7" y="4" width="1" height="1" fill="rgb(51,51,51)" fill-opacity="0.4921875"/>
  <rect x="7" y="5" width="1" height="1" fill="rgb(180,180,180)"/>
  <rect x="7" y="6" width="1" height="1" fill="rgb(255,255,255)"/>
  <rect x="7" y="7" width="1" height="1" fill="rgb(223,223,223)"/>
  <rect x="7" y="8" width="1" height="4" fill="rgb(201,201,201)"/>
  <rect x="7" y="12" width="1" height="1" fill="rgb(218,218,218)"/>
  <rect x="7" y="13" width="1" height="1" fill="rgb(163,163,163)"/>
  <rect x="7" y="14" width="1" height="1" fill="rgb(50,50,50)" fill-opacity="0.640625"/>
  <rect x="7" y="15" width="1" height="6" fill="rgb(255,255,255)" fill-opacity="0.0078125"/>
  <rect x="8" y="0" width="1" height="4" fill="rgb(255,255,255)" fill-opacity="0.0078125"/>
  <rect x="8" y="4" width="1" height="1" fill="rgb(51,51,51)" fill-opacity="0.859375"/>
  <rect x="8" y="5" width="1" height="1" fill="rgb(240,240,240)"/>
  <rect x="8" y="6" width="1" height="1" fill="rgb(255,255,255)"/>
  <rect x="8" y="7" width="1" height="1" fill="rgb(244,244,244)"/>
  <rect x="8" y="8" width="1" height="4" fill="rgb(201,201,201)"/>
  <rect x="8" y="12" width="1" height="1" fill="rgb(203,203,203)"/>
  <rect x="8" y="13" width="1" height="1" fill="rgb(216,216,216)"/>
  <rect x="8" y="14" width="1" height="1" fill="rgb(52,52,52)"/>
  <rect x="8" y="15" width="1" height="2" fill="rgb(51,51,51)" fill-opacity="0.9765625"/>
  <rect x="8" y="17" width="1" height="4" fill="rgb(255,255,255)" fill-opacity="0.0078125"/>
  <rect x="9" y="0" width="1" height="4" fill="rgb(255,255,255)" fill-opacity="0.0078125"/>
  <rect x="9" y="4" width="1" height="1" fill="rgb(51,51,51)" fill-opacity="0.8671875"/>
  <rect x="9" y="5" width="1" height="1" fill="rgb(227,227,227)"/>
  <rect x="9" y="6" width="1" height="1" fill="rgb(255,255,255)"/>
  <rect x="9" y="7" width="1" height="1" fill="rgb(228,228,228)"/>
  <rect x="9" y="8" width="1" height="4" fill="rgb(102,102,102)"/>
  <rect x="9" y="12" width="1" height="1" fill="rgb(107,107,107)"/>
  <rect x="9" y="13" width="1" height="1" fill="rgb(54,54,54)"/>
  <rect x="9" y="14" width="1" height="1" fill="rgb(237,237,237)"/>
  <rect x="9" y="15" width="1" height="1" fill="rgb(241,241,241)" fill-opacity="0.9765625"/>
  <rect x="9" y="16" width="1" height="1" fill="rgb(242,242,242)" fill-opacity="0.9765625"/>
  <rect x="9" y="17" width="1" height="1" fill="rgb(51,51,51)" fill-opacity="0.9765625"/>
  <rect x="9" y="18" width="1" height="3" fill="rgb(255,255,255)" fill-opacity="0.0078125"/>
  <rect x="10" y="0" width="1" height="4" fill="rgb(255,255,255)" fill-opacity="0.0078125"/>
  <rect x="10" y="4" width="1" height="1" fill="rgb(50,50,50)" fill-opacity="0.5234375"/>
  <rect x="10" y="5" width="1" height="1" fill="rgb(156,156,156)"/>
  <rect x="10" y="6" width="1" height="1" fill="rgb(255,255,255)"/>
  <rect x="10" y="7" width="1" height="1" fill="rgb(171,171,171)"/>
  <rect x="10" y="8" width="1" height="4" fill="rgb(102,102,102)"/>
  <rect x="10" y="12" width="1" height="1" fill="rgb(124,124,124)"/>
  <rect x="10" y="13" width="1" height="1" fill="rgb(51,51,51)"/>
  <rect x="10" y="14" width="1" height="1" fill="rgb(242,242,242)"/>
  <rect x="10" y="15" width="1" height="1" fill="rgb(1,1,1)" fill-opacity="0.9921875"/>
  <rect x="10" y="16" width="1" height="1" fill="rgb(242,242,242)"/>
  <rect x="10" y="17" width="1" height="1" fill="rgb(51,51,51)"/>
  <rect x="10" y="18" width="1" height="3" fill="rgb(255,255,255)" fill-opacity="0.0078125"/>
  <rect x="11" y="0" width="1" height="4" fill="rgb(255,255,255)" fill-opacity="0.0078125"/>
  <rect x="11" y="4" width="1" height="1" fill="rgb(50,50,50)" fill-opacity="0.1484375"/>
  <rect x="11" y="5" width="1" height="1" fill="rgb(73,73,73)"/>
  <rect x="11" y="6" width="1" height="1" fill="rgb(250,250,250)"/>
  <rect x="11" y="7" width="1" height="1" fill="rgb(116,116,116)"/>
  <rect x="11" y="8" width="1" height="3" fill="rgb(102,102,102)"/>
  <rect x="11" y="11" width="1" height="1" fill="rgb(105,105,105)"/>
  <rect x="11" y="12" width="1" height="1" fill="rgb(81,81,81)"/>
  <rect x="11" y="13" width="1" height="1" fill="rgb(119,119,119)"/>
  <rect x="11" y="14" width="1" height="1" fill="rgb(242,242,242)"/>
  <rect x="11" y="15" width="1" height="1" fill="rgb(229,229,229)"/>
  <rect x="11" y="16" width="1" height="1" fill="rgb(242,242,242)"/>
  <rect x="11" y="17" width="1" height="1" fill="rgb(51,51,51)"/>
  <rect x="11" y="18" width="1" height="3" fill="rgb(255,255,255)" fill-opacity="0.0078125"/>
  <rect x="12" y="0" width="1" height="5" fill="rgb(255,255,255)" fill-opacity="0.0078125"/>
  <rect x="12" y="5" width="1" height="1" fill="rgb(51,51,51)" fill-opacity="0.7734375"/>
  <rect x="12" y="6" width="1" height="1" fill="rgb(175,175,175)"/>
  <rect x="12" y="7" width="1" height="1" fill="rgb(158,158,158)"/>
  <rect x="12" y="8" width="1" height="1" fill="rgb(150,150,150)"/>
  <rect x="12" y="9" width="1" height="1" fill="rgb(140,140,140)"/>
  <rect x="12" y="10" width="1" height="1" fill="rgb(130,130,130)"/>
  <rect x="12" y="11" width="1" height="1" fill="rgb(80,80,80)"/>
  <rect x="12" y="12" width="1" height="1" fill="rgb(119,119,119)"/>
  <rect x="12" y="13" width="1" height="1" fill="rgb(238,238,238)"/>
  <rect x="12" y="14" width="1" height="1" fill="rgb(128,128,128)"/>
  <rect x="12" y="15" width="1" height="1" fill="rgb(57,57,57)"/>
  <rect x="12" y="16" width="1" height="1" fill="rgb(57,57,57)" fill-opacity="0.9765625"/>
  <rect x="12" y="17" width="1" height="1" fill="rgb(64,64,64)" fill-opacity="0.0390625"/>
  <rect x="12" y="18" width="1" height="3" fill="rgb(255,255,255)" fill-opacity="0.0078125"/>
  <rect x="13" y="0" width="1" height="5" fill="rgb(255,255,255)" fill-opacity="0.0078125"/>
  <rect x="13" y="5" width="1" height="1" fill="rgb(51,51,51)" fill-opacity="0.2578125"/>
  <rect x="13" y="6" width="1" height="1" fill="rgb(53,53,53)" fill-opacity="0.9296875"/>
  <rect x="13" y="7" width="1" height="2" fill="rgb(54,54,54)"/>
  <rect x="13" y="9" width="1" height="1" fill="rgb(53,53,53)"/>
  <rect x="13" y="10" width="1" height="1" fill="rgb(52,52,52)"/>
  <rect x="13" y="11" width="1" height="1" fill="rgb(119,119,119)"/>
  <rect x="13" y="12" width="1" height="1" fill="rgb(238,238,238)"/>
  <rect x="13" y="13" width="1" height="1" fill="rgb(124,124,124)"/>
  <rect x="13" y="14" width="1" height="1" fill="rgb(51,51,51)" fill-opacity="0.6484375"/>
  <rect x="13" y="15" width="1" height="1" fill="rgb(51,51,51)" fill-opacity="0.046875"/>
  <rect x="13" y="16" width="1" height="1" fill="rgb(64,64,64)" fill-opacity="0.0390625"/>
  <rect x="13" y="17" width="1" height="4" fill="rgb(255,255,255)" fill-opacity="0.0078125"/>
  <rect x="14" y="0" width="1" height="6" fill="rgb(255,255,255)" fill-opacity="0.0078125"/>
  <rect x="14" y="6" width="1" height="1" fill="rgb(64,64,64)" fill-opacity="0.0234375"/>
  <rect x="14" y="7" width="1" height="1" fill="rgb(64,64,64)" fill-opacity="0.0390625"/>
  <rect x="14" y="8" width="1" height="1" fill="rgb(57,57,57)" fill-opacity="0.0390625"/>
  <rect x="14" y="9" width="1" height="1" fill="rgb(52,52,52)" fill-opacity="0.6015625"/>
  <rect x="14" y="10" width="1" height="1" fill="rgb(119,119,119)"/>
  <rect x="14" y="11" width="1" height="1" fill="rgb(238,238,238)"/>
  <rect x="14" y="12" width="1" height="1" fill="rgb(124,124,124)"/>
  <rect x="14" y="13" width="1" height="1" fill="rgb(51,51,51)" fill-opacity="0.6484375"/>
  <rect x="14" y="14" width="1" height="1" fill="rgb(85,85,85)" fill-opacity="0.015625"/>
  <rect x="14" y="15" width="1" height="6" fill="rgb(255,255,255)" fill-opacity="0.0078125"/>
  <rect x="15" y="0" width="1" height="8" fill="rgb(255,255,255)" fill-opacity="0.0078125"/>
  <rect x="15" y="8" width="1" height="1" fill="rgb(53,53,53)" fill-opacity="0.140625"/>
  <rect x="15" y="9" width="1" height="1" fill="rgb(54,54,54)" fill-opacity="0.9453125"/>
  <rect x="15" y="10" width="1" height="1" fill="rgb(233,233,233)"/>
  <rect x="15" y="11" width="1" height="1" fill="rgb(238,238,238)"/>
  <rect x="15" y="12" width="1" height="1" fill="rgb(238,238,238)" fill-opacity="0.9921875"/>
  <rect x="15" y="13" width="1" height="1" fill="rgb(51,51,51)" fill-opacity="0.9765625"/>
  <rect x="15" y="14" width="1" height="7" fill="rgb(255,255,255)" fill-opacity="0.0078125"/>
  <rect x="16" y="0" width="1" height="9" fill="rgb(255,255,255)" fill-opacity="0.0078125"/>
  <rect x="16" y="9" width="1" height="1" fill="rgb(51,51,51)" fill-opacity="0.21875"/>
  <rect x="16" y="10" width="1" height="1" fill="rgb(55,55,55)" fill-opacity="0.9453125"/>
  <rect x="16" y="11" width="1" height="1" fill="rgb(242,242,242)"/>
  <rect x="16" y="12" width="1" height="1" fill="rgb(57,57,57)" fill-opacity="0.9765625"/>
  <rect x="16" y="13" width="1" height="1" fill="rgb(51,51,51)"/>
  <rect x="16" y="14" width="1" height="7" fill="rgb(255,255,255)" fill-opacity="0.0078125"/>
  <rect x="17" y="0" width="1" height="10" fill="rgb(255,255,255)" fill-opacity="0.0078125"/>
  <rect x="17" y="10" width="1" height="1" fill="rgb(52,52,52)" fill-opacity="0.15625"/>
  <rect x="17" y="11" width="1" height="1" fill="rgb(57,57,57)" fill-opacity="0.9765625"/>
  <rect x="17" y="12" width="1" height="1" fill="rgb(51,51,51)"/>
  <rect x="17" y="13" width="1" height="1" fill="rgb(64,64,64)" fill-opacity="0.0390625"/>
  <rect x="17" y="14" width="1" height="7" fill="rgb(255,255,255)" fill-opacity="0.0078125"/>
  <rect x="18" y="0" width="1" height="11" fill="rgb(255,255,255)" fill-opacity="0.0078125"/>
  <rect x="18" y="11" width="1" height="2" fill="rgb(64,64,64)" fill-opacity="0.0390625"/>
  <rect x="18" y="13" width="1" height="8" fill="rgb(255,255,255)" fill-opacity="0.0078125"/>
  <rect x="19" y="0" width="1" height="21" fill="rgb(255,255,255)" fill-opacity="0.0078125"/>
  <rect x="20" y="0" width="1" height="21" fill="rgb(255,255,255)" fill-opacity="0.0078125"/>
</svg>