<svg xmlns="http://www.w3.org/2000/svg" shape-rendering="crispEdges" width="21" height="21" viewBox="0 0 21 21">
  <rect x="0" y="0" width="1" height="21" fill="rgb(255,255,255)" fill-opacity="0.0078125"/>
  <rect x="1" y="0" width="1" height="21" fill="rgb(255,255,255)" fill-opacity="0.0078125"/>
  <rect x="2" y="0" width="1" height="5" fill="rgb(255,255,255)" fill-opacity="0.0078125"/>
  <rect x="2" y="5" width="1" height="1" fill="rgb(0,0,0)" fill-opacity="0.0078125"/>
  <rect x="2" y="6" width="1" height="2" fill="rgb(0,0,0)" fill-opacity="0.015625"/>
  <rect x="2" y="8" width="1" height="2" fill="rgb(0,0,0)" fill-opacity="0.0078125"/>
  <rect x="2" y="10" width="1" height="11" fill="rgb(255,255,255)" fill-opacity="0.0078125"/>
  <rect x="3" y="0" width="1" height="3" fill="rgb(255,255,255)" fill-opacity="0.0078125"/>
  <rect x="3" y="3" width="1" height="1" fill="rgb(0,0,0)" fill-opacity="0.0078125"/>
  <rect x="3" y="4" width="1" height="1" fill="rgb(0,0,0)" fill-opacity="0.015625"/>
  <rect x="3" y="5" width="1" height="1" fill="rgb(0,0,0)" fill-opacity="0.0234375"/>
  <rect x="3" y="6" width="1" height="2" fill="rgb(0,0,0)" fill-opacity="0.03125"/>
  <rect x="3" y="8" width="1" height="1" fill="rgb(0,0,0)" fill-opacity="0.0234375"/>
  <rect x="3" y="9" width="1" height="1" fill="rgb(0,0,0)" fill-opacity="0.015625"/>
  <rect x="3" y="10" width="1" height="1" fill="rgb(0,0,0)" fill-opacity="0.0078125"/>
  <rect x="3" y="11" width="1" height="10" fill="rgb(255,255,255)" fill-opacity="0.0078125"/>
  <rect x="4" y="0" width="1" height="2" fill="rgb(255,255,255)" fill-opacity="0.0078125"/>
  <rect x="4" y="2" width="1" height="1" fill="rgb(0,0,0)" fill-opacity="0.0078125"/>
  <rect x="4" y="3" width="1" height="1" fill="rgb(0,0,0)" fill-opacity="0.015625"/>
  <rect x="4" y="4" width="1" height="1" fill="rgb(0,0,0)" fill-opacity="0.03125"/>
  <rect x="4" y="5" width="1" height="1" fill="rgb(25,25,25)" fill-opacity="0.5703125"/>
  <rect x="4" y="6" width="1" height="1" fill="rgb(53,53,53)" fill-opacity="0.953125"/>
  <rect x="4" y="7" width="1" height="1" fill="rgb(42,42,42)" fill-opacity="0.9140625"/>
  <rect x="4" y="8" width="1" height="1" fill="rgb(43,43,43)" fill-opacity="0.9140625"/>
  <rect x="4" y="9" width="1" height="1" fill="rgb(44,44,44)" fill-opacity="0.9140625"/>
  <rect x="4" y="10" width="1" height="1" fill="rgb(45,45,45)" fill-opacity="0.9140625"/>
  <rect x="4" y="11" width="1" height="2" fill="rgb(46,46,46)" fill-opacity="0.9140625"/>
  <rect x="4" y="13" width="1" height="2" fill="rgb(47,47,47)" fill-opacity="0.9140625"/>
  <rect x="4" y="15" width="1" height="1" fill="rgb(48,48,48)" fill-opacity="0.9140625"/>
  <rect x="4" y="16" width="1" height="2" fill="rgb(49,49,49)" fill-opacity="0.9140625"/>
  <rect x="4" y="18" width="1" height="1" fill="rgb(45,45,45)" fill-opacity="0.796875"/>
  <rect x="4" y="19" width="1" height="2" fill="rgb(255,255,255)" fill-opacity="0.0078125"/>
  <rect x="5" y="0" width="1" height="2" fill="rgb(255,255,255)" fill-opacity="0.0078125"/>
  <rect x="5" y="2" width="1" height="1" fill="rgb(0,0,0)" fill-opacity="0.015625"/>
  <rect x="5" y="3" width="1" height="1" fill="rgb(0,0,0)" fill-opacity="0.03125"/>
  <rect x="5" y="4" width="1" height="1" fill="rgb(27,27,27)" fill-opacity="0.59375"/>
  <rect x="5" y="5" width="1" height="1" fill="rgb(103,103,103)" fill-opacity="0.9296875"/>
  <rect x="5" y="6" width="1" height="1" fill="rgb(255,255,255)"/>
  <rect x="5" y="7" width="1" height="1" fill="rgb(213,213,213)"/>
  <rect x="5" y="8" width="1" height="4" fill="rgb(248,248,248)"/>
  <rect x="5" y="12" width="1" height="1" fill="rgb(249,249,249)"/>
  <rect x="5" y="13" width="1" height="1" fill="rgb(250,250,250)"/>
  <rect x="5" y="14" width="1" height="1" fill="rgb(252,252,252)"/>
  <rect x="5" y="15" width="1" height="3" fill="rgb(255,255,255)"/>
  <rect x="5" y="18" width="1" height="1" fill="rgb(49,49,49)" fill-opacity="0.9140625"/>
  <rect x="5" y="19" width="1" height="2" fill="rgb(255,255,255)" fill-opacity="0.0078125"/>
  <rect x="6" y="0" width="1" height="2" fill="rgb(255,255,255)" fill-opacity="0.0078125"/>
  <rect x="6" y="2" width="1" height="1" fill="rgb(0,0,0)" fill-opacity="0.0234375"/>
  <rect x="6" y="3" width="1" height="1" fill="rgb(31,31,31)" fill-opacity="0.5859375"/>
  <rect x="6" y="4" width="1" height="1" fill="rgb(105,105,105)" fill-opacity="0.9453125"/>
  <rect x="6" y="5" width="1" height="2" fill="rgb(255,255,255)"/>
  <rect x="6" y="7" width="1" height="1" fill="rgb(124,124,124)"/>
  <rect x="6" y="8" width="1" height="1" fill="rgb(195,195,195)"/>
  <rect x="6" y="9" width="1" height="1" fill="rgb(215,215,215)"/>
  <rect x="6" y="10" width="1" height="1" fill="rgb(230,230,230)"/>
  <rect x="6" y="11" width="1" height="1" fill="rgb(237,237,237)"/>
  <rect x="6" y="12" width="1" height="1" fill="rgb(244,244,244)"/>
  <rect x="6" y="13" width="1" height="1" fill="rgb(250,250,250)"/>
  <rect x="6" y="14" width="1" height="4" fill="rgb(255,255,255)"/>
  <rect x="6" y="18" width="1" height="1" fill="rgb(49,49,49)" fill-opacity="0.9140625"/>
  <rect x="6" y="19" width="1" height="2" fill="rgb(255,255,255)" fill-opacity="0.0078125"/>
  <rect x="7" y="0" width="1" height="2" fill="rgb(255,255,255)" fill-opacity="0.0078125"/>
  <rect x="7" y="2" width="1" height="1" fill="rgb(0,0,0)" fill-opacity="0.03125"/>
  <rect x="7" y="3" width="1" height="1" fill="rgb(53,53,53)" fill-opacity="0.9609375"/>
  <rect x="7" y="4" width="1" height="3" fill="rgb(255,255,255)"/>
  <rect x="7" y="7" width="1" height="1" fill="rgb(143,143,143)"/>
  <rect x="7" y="8" width="1" height="1" fill="rgb(201,201,201)"/>
  <rect x="7" y="9" width="1" height="1" fill="rgb(222,222,222)"/>
  <rect x="7" y="10" width="1" height="1" fill="rgb(236,236,236)"/>
  <rect x="7" y="11" width="1" height="1" fill="rgb(243,243,243)"/>
  <rect x="7" y="12" width="1" height="1" fill="rgb(250,250,250)"/>
  <rect x="7" y="13" width="1" height="1" fill="rgb(254,253,253)"/>
  <rect x="7" y="14" width="1" height="1" fill="rgb(172,151,135)"/>
  <rect x="7" y="15" width="1" height="1" fill="rgb(136,93,59)"/>
  <rect x="7" y="16" width="1" height="1" fill="rgb(187,170,158)"/>
  <rect x="7" y="17" width="1" height="1" fill="rgb(255,255,255)"/>
  <rect x="7" y="18" width="1" height="1" fill="rgb(49,49,49)" fill-opacity="0.9140625"/>
  <rect x="7" y="19" width="1" height="2" fill="rgb(255,255,255)" fill-opacity="0.0078125"/>
  <rect x="8" y="0" width="1" height="2" fill="rgb(255,255,255)" fill-opacity="0.0078125"/>
  <rect x="8" y="2" width="1" height="1" fill="rgb(0,0,0)" fill-opacity="0.0390625"/>
  <rect x="8" y="3" width="1" height="1" fill="rgb(42,42,42)" fill-opacity="0.9140625"/>
  <rect x="8" y="4" width="1" height="1" fill="rgb(214,214,214)"/>
  <rect x="8" y="5" width="1" height="1" fill="rgb(119,119,119)"/>
  <rect x="8" y="6" width="1" height="1" fill="rgb(140,140,140)"/>
  <rect x="8" y="7" width="1" height="1" fill="rgb(172,172,172)"/>
  <rect x="8" y="8" width="1" height="1" fill="rgb(213,213,213)"/>
  <rect x="8" y="9" width="1" height="1" fill="rgb(174,157,145)"/>
  <rect x="8" y="10" width="1" height="1" fill="rgb(137,98,68)"/>
  <rect x="8" y="11" width="1" height="1" fill="rgb(183,165,153)"/>
  <rect x="8" y="12" width="1" height="1" fill="rgb(254,253,253)"/>
  <rect x="8" y="13" width="1" height="1" fill="rgb(157,131,113)"/>
  <rect x="8" y="14" width="1" height="1" fill="rgb(199,142,89)"/>
  <rect x="8" y="15" width="1" height="1" fill="rgb(249,168,88)"/>
  <rect x="8" y="16" width="1" height="1" fill="rgb(141,94,56)"/>
  <rect x="8" y="17" width="1" height="1" fill="rgb(255,255,255)"/>
  <rect x="8" y="18" width="1" height="1" fill="rgb(49,49,49)" fill-opacity="0.9140625"/>
  <rect x="8" y="19" width="1" height="2" fill="rgb(255,255,255)" fill-opacity="0.0078125"/>
  <rect x="9" y="0" width="1" height="2" fill="rgb(255,255,255)" fill-opacity="0.0078125"/>
  <rect x="9" y="2" width="1" height="1" fill="rgb(0,0,0)" fill-opacity="0.0234375"/>
  <rect x="9" y="3" width="1" height="1" fill="rgb(43,43,43)" fill-opacity="0.9140625"/>
  <rect x="9" y="4" width="1" height="1" fill="rgb(248,248,248)"/>
  <rect x="9" y="5" width="1" height="1" fill="rgb(196,196,196)"/>
  <rect x="9" y="6" width="1" height="1" fill="rgb(202,202,202)"/>
  <rect x="9" y="7" width="1" height="1" fill="rgb(213,213,213)"/>
  <rect x="9" y="8" width="1" height="1" fill="rgb(228,228,228)"/>
  <rect x="9" y="9" width="1" height="1" fill="rgb(151,114,84)"/>
  <rect x="9" y="10" width="1" height="1" fill="rgb(251,202,155)"/>
  <rect x="9" y="11" width="1" height="1" fill="rgb(136,91,53)"/>
  <rect x="9" y="12" width="1" height="1" fill="rgb(156,130,112)"/>
  <rect x="9" y="13" width="1" height="1" fill="rgb(198,142,90)"/>
  <rect x="9" y="14" width="1" height="1" fill="rgb(249,173,97)"/>
  <rect x="9" y="15" width="1" height="1" fill="rgb(189,117,51)"/>
  <rect x="9" y="16" width="1" height="1" fill="rgb(164,141,124)"/>
  <rect x="9" y="17" width="1" height="1" fill="rgb(255,255,255)"/>
  <rect x="9" y="18" width="1" height="1" fill="rgb(49,49,49)" fill-opacity="0.9140625"/>
  <rect x="9" y="19" width="1" height="2" fill="rgb(255,255,255)" fill-opacity="0.0078125"/>
  <rect x="10" y="0" width="1" height="2" fill="rgb(255,255,255)" fill-opacity="0.0078125"/>
  <rect x="10" y="2" width="1" height="1" fill="rgb(0,0,0)" fill-opacity="0.015625"/>
  <rect x="10" y="3" width="1" height="1" fill="rgb(44,44,44)" fill-opacity="0.9140625"/>
  <rect x="10" y="4" width="1" height="1" fill="rgb(250,250,250)"/>
  <rect x="10" y="5" width="1" height="1" fill="rgb(216,216,216)"/>
  <rect x="10" y="6" width="1" height="1" fill="rgb(223,223,223)"/>
  <rect x="10" y="7" width="1" height="1" fill="rgb(231,231,231)"/>
  <rect x="10" y="8" width="1" height="1" fill="rgb(240,240,240)"/>
  <rect x="10" y="9" width="1" height="1" fill="rgb(157,115,83)"/>
  <rect x="10" y="10" width="1" height="1" fill="rgb(251,199,149)"/>
  <rect x="10" y="11" width="1" height="1" fill="rgb(144,93,52)"/>
  <rect x="10" y="12" width="1" height="1" fill="rgb(198,142,91)"/>
  <rect x="10" y="13" width="1" height="1" fill="rgb(249,176,104)"/>
  <rect x="10" y="14" width="1" height="1" fill="rgb(190,119,54)"/>
  <rect x="10" y="15" width="1" height="1" fill="rgb(121,87,62)"/>
  <rect x="10" y="16" width="1" height="1" fill="rgb(208,195,186)"/>
  <rect x="10" y="17" width="1" height="1" fill="rgb(254,254,254)"/>
  <rect x="10" y="18" width="1" height="1" fill="rgb(49,49,49)" fill-opacity="0.9140625"/>
  <rect x="10" y="19" width="1" height="2" fill="rgb(255,255,255)" fill-opacity="0.0078125"/>
  <rect x="11" y="0" width="1" height="2" fill="rgb(255,255,255)" fill-opacity="0.0078125"/>
  <rect x="11" y="2" width="1" height="1" fill="rgb(0,0,0)" fill-opacity="0.0078125"/>
  <rect x="11" y="3" width="1" height="1" fill="rgb(45,45,45)" fill-opacity="0.9140625"/>
  <rect x="11" y="4" width="1" height="1" fill="rgb(251,251,251)"/>
  <rect x="11" y="5" width="1" height="1" fill="rgb(231,231,231)"/>
  <rect x="11" y="6" width="1" height="1" fill="rgb(237,237,237)"/>
  <rect x="11" y="7" width="1" height="1" fill="rgb(243,243,243)"/>
  <rect x="11" y="8" width="1" height="1" fill="rgb(250,250,250)"/>
  <rect x="11" y="9" width="1" height="1" fill="rgb(155,112,78)"/>
  <rect x="11" y="10" width="1" height="1" fill="rgb(250,194,139)"/>
  <rect x="11" y="11" width="1" height="1" fill="rgb(227,162,98)"/>
  <rect x="11" y="12" width="1" height="1" fill="rgb(249,179,109)"/>
  <rect x="11" y="13" width="1" height="1" fill="rgb(241,155,71)"/>
  <rect x="11" y="14" width="1" height="1" fill="rgb(246,149,54)"/>
  <rect x="11" y="15" width="1" height="1" fill="rgb(219,126,36)"/>
  <rect x="11" y="16" width="1" height="1" fill="rgb(158,87,24)"/>
  <rect x="11" y="17" width="1" height="1" fill="rgb(139,109,89)"/>
  <rect x="11" y="18" width="1" height="1" fill="rgb(49,49,49)" fill-opacity="0.9140625"/>
  <rect x="11" y="19" width="1" height="2" fill="rgb(255,255,255)" fill-opacity="0.0078125"/>
  <rect x="12" y="0" width="1" height="3" fill="rgb(255,255,255)" fill-opacity="0.0078125"/>
  <rect x="12" y="3" width="1" height="1" fill="rgb(46,46,46)" fill-opacity="0.9140625"/>
  <rect x="12" y="4" width="1" height="1" fill="rgb(251,251,251)"/>
  <rect x="12" y="5" width="1" height="1" fill="rgb(239,239,239)"/>
  <rect x="12" y="6" width="1" height="1" fill="rgb(245,245,245)"/>
  <rect x="12" y="7" width="1" height="1" fill="rgb(252,252,252)"/>
  <rect x="12" y="8" width="1" height="1" fill="rgb(255,255,255)"/>
  <rect x="12" y="9" width="1" height="1" fill="rgb(153,108,72)"/>
  <rect x="12" y="10" width="1" height="1" fill="rgb(250,188,128)"/>
  <rect x="12" y="11" width="1" height="1" fill="rgb(249,171,95)"/>
  <rect x="12" y="12" width="1" height="1" fill="rgb(248,164,81)"/>
  <rect x="12" y="13" width="1" height="1" fill="rgb(248,169,92)"/>
  <rect x="12" y="14" width="1" height="1" fill="rgb(248,162,78)"/>
  <rect x="12" y="15" width="1" height="1" fill="rgb(246,138,32)"/>
  <rect x="12" y="16" width="1" height="1" fill="rgb(245,129,15)"/>
  <rect x="12" y="17" width="1" height="1" fill="rgb(193,102,19)"/>
  <rect x="12" y="18" width="1" height="1" fill="rgb(49,49,49)" fill-opacity="0.9140625"/>
  <rect x="12" y="19" width="1" height="2" fill="rgb(255,255,255)" fill-opacity="0.0078125"/>
  <rect x="13" y="0" width="1" height="3" fill="rgb(255,255,255)" fill-opacity="0.0078125"/>
  <rect x="13" y="3" width="1" height="1" fill="rgb(47,47,47)" fill-opacity="0.9140625"/>
  <rect x="13" y="4" width="1" height="1" fill="rgb(251,251,251)"/>
  <rect x="13" y="5" width="1" height="1" fill="rgb(246,246,246)"/>
  <rect x="13" y="6" width="1" height="1" fill="rgb(214,204,197)"/>
  <rect x="13" y="7" width="1" height="1" fill="rgb(157,132,115)"/>
  <rect x="13" y="8" width="1" height="1" fill="rgb(204,192,183)"/>
  <rect x="13" y="9" width="1" height="1" fill="rgb(150,104,66)"/>
  <rect x="13" y="10" width="1" height="1" fill="rgb(250,182,115)"/>
  <rect x="13" y="11" width="1" height="1" fill="rgb(249,181,114)"/>
  <rect x="13" y="12" width="1" height="1" fill="rgb(254,238,222)"/>
  <rect x="13" y="13" width="1" height="2" fill="rgb(255,255,255)"/>
  <rect x="13" y="15" width="1" height="1" fill="rgb(253,233,213)"/>
  <rect x="13" y="16" width="1" height="1" fill="rgb(247,147,48)"/>
  <rect x="13" y="17" width="1" height="1" fill="rgb(245,131,19)"/>
  <rect x="13" y="18" width="1" height="1" fill="rgb(49,49,49)" fill-opacity="0.9140625"/>
  <rect x="13" y="19" width="1" height="2" fill="rgb(255,255,255)" fill-opacity="0.0078125"/>
  <rect x="14" y="0" width="1" height="3" fill="rgb(255,255,255)" fill-opacity="0.0078125"/>
  <rect x="14" y="3" width="1" height="1" fill="rgb(47,47,47)" fill-opacity="0.9140625"/>
  <rect x="14" y="4" width="1" height="2" fill="rgb(252,252,252)"/>
  <rect x="14" y="6" width="1" height="1" fill="rgb(139,104,76)"/>
  <rect x="14" y="7" width="1" height="1" fill="rgb(243,196,151)"/>
  <rect x="14" y="8" width="1" height="1" fill="rgb(151,102,60)"/>
  <rect x="14" y="9" width="1" height="1" fill="rgb(153,104,63)"/>
  <rect x="14" y="10" width="1" height="1" fill="rgb(248,175,104)"/>
  <rect x="14" y="11" width="1" height="1" fill="rgb(254,238,223)"/>
  <rect x="14" y="12" width="1" height="1" fill="rgb(207,219,234)"/>
  <rect x="14" y="13" width="1" height="2" fill="rgb(95,134,183)"/>
  <rect x="14" y="15" width="1" height="1" fill="rgb(207,219,234)"/>
  <rect x="14" y="16" width="1" height="1" fill="rgb(253,232,210)"/>
  <rect x="14" y="17" width="1" height="1" fill="rgb(245,130,15)"/>
  <rect x="14" y="18" width="1" height="1" fill="rgb(49,49,49)" fill-opacity="0.9140625"/>
  <rect x="14" y="19" width="1" height="2" fill="rgb(255,255,255)" fill-opacity="0.0078125"/>
  <rect x="15" y="0" width="1" height="3" fill="rgb(255,255,255)" fill-opacity="0.0078125"/>
  <rect x="15" y="3" width="1" height="1" fill="rgb(48,48,48)" fill-opacity="0.9140625"/>
  <rect x="15" y="4" width="1" height="1" fill="rgb(254,254,254)"/>
  <rect x="15" y="5" width="1" height="1" fill="rgb(255,255,255)"/>
  <rect x="15" y="6" width="1" height="1" fill="rgb(151,123,101)"/>
  <rect x="15" y="7" width="1" height="1" fill="rgb(222,163,107)"/>
  <rect x="15" y="8" width="1" height="1" fill="rgb(247,179,111)"/>
  <rect x="15" y="9" width="1" height="1" fill="rgb(206,143,84)"/>
  <rect x="15" y="10" width="1" height="1" fill="rgb(249,181,114)"/>
  <rect x="15" y="11" width="1" height="1" fill="rgb(255,255,255)"/>
  <rect x="15" y="12" width="1" height="1" fill="rgb(95,134,183)"/>
  <rect x="15" y="13" width="1" height="2" fill="rgb(52,101,164)"/>
  <rect x="15" y="15" width="1" height="1" fill="rgb(95,134,183)"/>
  <rect x="15" y="16" width="1" height="1" fill="rgb(255,255,255)"/>
  <rect x="15" y="17" width="1" height="1" fill="rgb(246,145,46)"/>
  <rect x="15" y="18" width="1" height="1" fill="rgb(49,49,49)" fill-opacity="0.9140625"/>
  <rect x="15" y="19" width="1" height="2" fill="rgb(255,255,255)" fill-opacity="0.0078125"/>
  <rect x="16" y="0" width="1" height="3" fill="rgb(255,255,255)" fill-opacity="0.0078125"/>
  <rect x="16" y="3" width="1" height="1" fill="rgb(48,48,48)" fill-opacity="0.9140625"/>
  <rect x="16" y="4" width="1" height="2" fill="rgb(255,255,255)"/>
  <rect x="16" y="6" width="1" height="1" fill="rgb(243,240,238)"/>
  <rect x="16" y="7" width="1" height="1" fill="rgb(132,96,69)"/>
  <rect x="16" y="8" width="1" height="1" fill="rgb(227,158,93)"/>
  <rect x="16" y="9" width="1" height="1" fill="rgb(248,169,91)"/>
  <rect x="16" y="10" width="1" height="1" fill="rgb(249,176,104)"/>
  <rect x="16" y="11" width="1" height="1" fill="rgb(255,255,255)"/>
  <rect x="16" y="12" width="1" height="1" fill="rgb(95,134,183)"/>
  <rect x="16" y="13" width="1" height="2" fill="rgb(52,101,164)"/>
  <rect x="16" y="15" width="1" height="1" fill="rgb(95,134,183)"/>
  <rect x="16" y="16" width="1" height="1" fill="rgb(255,255,255)"/>
  <rect x="16" y="17" width="1" height="1" fill="rgb(246,145,46)"/>
  <rect x="16" y="18" width="1" height="1" fill="rgb(49,49,49)" fill-opacity="0.9140625"/>
  <rect x="16" y="19" width="1" height="2" fill="rgb(255,255,255)" fill-opacity="0.0078125"/>
  <rect x="17" y="0" width="1" height="3" fill="rgb(255,255,255)" fill-opacity="0.0078125"/>
  <rect x="17" y="3" width="1" height="1" fill="rgb(45,45,45)" fill-opacity="0.796875"/>
  <rect x="17" y="4" width="1" height="14" fill="rgb(49,49,49)" fill-opacity="0.9140625"/>
  <rect x="17" y="18" width="1" height="1" fill="rgb(45,45,45)" fill-opacity="0.796875"/>
  <rect x="17" y="19" width="1" height="2" fill="rgb(255,255,255)" fill-opacity="0.0078125"/>
  <rect x="18" y="0" width="1" height="21" fill="rgb(255,255,255)" fill-opacity="0.0078125"/>
  <rect x="19" y="0" width="1" height="21" fill="rgb(255,255,255)" fill-opacity="0.0078125"/>
  <rect x="20" y="0" width="1" height="21" fill="rgb(255,255,255)" fill-opacity="0.0078125"/>
</svg>