<svg xmlns="http://www.w3.org/2000/svg" shape-rendering="crispEdges" width="21" height="21" viewBox="0 0 21 21">
  <rect x="0" y="0" width="21" height="1" fill="rgb(255,255,255)" fill-opacity="0.0078125"/>
  <rect x="0" y="1" width="21" height="1" fill="rgb(255,255,255)" fill-opacity="0.0078125"/>
  <rect x="0" y="2" width="21" height="1" fill="rgb(255,255,255)" fill-opacity="0.0078125"/>
  <rect x="0" y="3" width="21" height="1" fill="rgb(255,255,255)" fill-opacity="0.0078125"/>
  <rect x="0" y="4" width="10" height="1" fill="rgb(255,255,255)" fill-opacity="0.0078125"/>
  <rect x="10" y="4" width="1" height="1" fill="rgb(6,6,6)" fill-opacity="0.1796875"/>
  <rect x="11" y="4" width="1" height="1" fill="rgb(7,7,7)" fill-opacity="0.5625"/>
  <rect x="12" y="4" width="1" height="1" fill="rgb(6,6,6)" fill-opacity="0.6640625"/>
  <rect x="13" y="4" width="1" height="1" fill="rgb(5,5,5)" fill-opacity="0.5625"/>
  <rect x="14" y="4" width="1" height="1" fill="rgb(6,6,6)" fill-opacity="0.1796875"/>
  <rect x="15" y="4" width="6" height="1" fill="rgb(255,255,255)" fill-opacity="0.0078125"/>
  <rect x="0" y="5" width="7" height="1" fill="rgb(255,255,255)" fill-opacity="0.0078125"/>
  <rect x="7" y="5" width="1" height="1" fill="rgb(29,29,26)" fill-opacity="0.34375"/>
  <rect x="8" y="5" width="1" height="1" fill="rgb(32,30,28)" fill-opacity="0.9140625"/>
  <rect x="9" y="5" width="1" height="1" fill="rgb(27,27,26)" fill-opacity="0.984375"/>
  <rect x="10" y="5" width="1" height="1" fill="rgb(24,24,24)" fill-opacity="0.9921875"/>
  <rect x="11" y="5" width="1" height="1" fill="rgb(171,171,171)"/>
  <rect x="12" y="5" width="1" height="1" fill="rgb(249,249,249)"/>
  <rect x="13" y="5" width="1" height="1" fill="rgb(171,171,171)"/>
  <rect x="14" y="5" width="1" height="1" fill="rgb(23,23,23)" fill-opacity="0.9921875"/>
  <rect x="15" y="5" width="1" height="1" fill="rgb(28,27,27)" fill-opacity="0.984375"/>
  <rect x="16" y="5" width="1" height="1" fill="rgb(34,32,30)" fill-opacity="0.9140625"/>
  <rect x="17" y="5" width="1" height="1" fill="rgb(32,29,29)" fill-opacity="0.34375"/>
  <rect x="18" y="5" width="3" height="1" fill="rgb(255,255,255)" fill-opacity="0.0078125"/>
  <rect x="0" y="6" width="7" height="1" fill="rgb(255,255,255)" fill-opacity="0.0078125"/>
  <rect x="7" y="6" width="1" height="1" fill="rgb(31,29,28)" fill-opacity="0.9296875"/>
  <rect x="8" y="6" width="1" height="1" fill="rgb(191,177,168)"/>
  <rect x="9" y="6" width="1" height="1" fill="rgb(173,160,151)"/>
  <rect x="10" y="6" width="1" height="1" fill="rgb(91,86,82)"/>
  <rect x="11" y="6" width="1" height="1" fill="rgb(213,213,213)"/>
  <rect x="12" y="6" width="1" height="1" fill="rgb(205,205,205)"/>
  <rect x="13" y="6" width="1" height="1" fill="rgb(213,213,213)"/>
  <rect x="14" y="6" width="1" height="1" fill="rgb(90,83,78)"/>
  <rect x="15" y="6" width="1" height="1" fill="rgb(176,159,142)"/>
  <rect x="16" y="6" width="1" height="1" fill="rgb(188,168,150)"/>
  <rect x="17" y="6" width="1" height="1" fill="rgb(33,31,29)" fill-opacity="0.9296875"/>
  <rect x="18" y="6" width="3" height="1" fill="rgb(255,255,255)" fill-opacity="0.0078125"/>
  <rect x="0" y="7" width="7" height="1" fill="rgb(255,255,255)" fill-opacity="0.0078125"/>
  <rect x="7" y="7" width="1" height="1" fill="rgb(26,26,26)"/>
  <rect x="8" y="7" width="1" height="1" fill="rgb(207,191,180)"/>
  <rect x="9" y="7" width="1" height="1" fill="rgb(89,73,62)"/>
  <rect x="10" y="7" width="1" height="1" fill="rgb(207,203,201)"/>
  <rect x="11" y="7" width="1" height="1" fill="rgb(254,254,254)"/>
  <rect x="12" y="7" width="1" height="1" fill="rgb(253,253,253)"/>
  <rect x="13" y="7" width="1" height="1" fill="rgb(254,254,254)"/>
  <rect x="14" y="7" width="1" height="1" fill="rgb(209,205,202)"/>
  <rect x="15" y="7" width="1" height="1" fill="rgb(102,86,71)"/>
  <rect x="16" y="7" width="1" height="1" fill="rgb(215,190,166)"/>
  <rect x="17" y="7" width="1" height="1" fill="rgb(26,26,26)"/>
  <rect x="18" y="7" width="3" height="1" fill="rgb(255,255,255)" fill-opacity="0.0078125"/>
  <rect x="0" y="8" width="7" height="1" fill="rgb(255,255,255)" fill-opacity="0.0078125"/>
  <rect x="7" y="8" width="1" height="1" fill="rgb(26,26,26)"/>
  <rect x="8" y="8" width="1" height="1" fill="rgb(199,181,169)"/>
  <rect x="9" y="8" width="1" height="1" fill="rgb(116,86,67)"/>
  <rect x="10" y="8" width="1" height="1" fill="rgb(95,81,71)"/>
  <rect x="11" y="8" width="1" height="1" fill="rgb(96,85,76)"/>
  <rect x="12" y="8" width="1" height="1" fill="rgb(99,86,77)"/>
  <rect x="13" y="8" width="1" height="1" fill="rgb(100,87,78)"/>
  <rect x="14" y="8" width="1" height="1" fill="rgb(102,88,76)"/>
  <rect x="15" y="8" width="1" height="1" fill="rgb(143,114,88)"/>
  <rect x="16" y="8" width="1" height="1" fill="rgb(208,181,155)"/>
  <rect x="17" y="8" width="1" height="1" fill="rgb(26,26,26)"/>
  <rect x="18" y="8" width="3" height="1" fill="rgb(255,255,255)" fill-opacity="0.0078125"/>
  <rect x="0" y="9" width="4" height="1" fill="rgb(255,255,255)" fill-opacity="0.0078125"/>
  <rect x="4" y="9" width="1" height="1" fill="rgb(22,46,80)" fill-opacity="0.8828125"/>
  <rect x="5" y="9" width="7" height="1" fill="rgb(22,45,80)"/>
  <rect x="12" y="9" width="1" height="1" fill="rgb(37,53,79)"/>
  <rect x="13" y="9" width="1" height="1" fill="rgb(155,113,82)"/>
  <rect x="14" y="9" width="1" height="1" fill="rgb(162,120,87)"/>
  <rect x="15" y="9" width="1" height="1" fill="rgb(169,127,92)"/>
  <rect x="16" y="9" width="1" height="1" fill="rgb(199,170,145)"/>
  <rect x="17" y="9" width="1" height="1" fill="rgb(26,26,26)"/>
  <rect x="18" y="9" width="3" height="1" fill="rgb(255,255,255)" fill-opacity="0.0078125"/>
  <rect x="0" y="10" width="4" height="1" fill="rgb(255,255,255)" fill-opacity="0.0078125"/>
  <rect x="4" y="10" width="1" height="1" fill="rgb(22,45,80)"/>
  <rect x="5" y="10" width="1" height="1" fill="rgb(241,246,252)"/>
  <rect x="6" y="10" width="1" height="1" fill="rgb(255,255,255)"/>
  <rect x="7" y="10" width="1" height="1" fill="rgb(251,253,254)"/>
  <rect x="8" y="10" width="1" height="1" fill="rgb(247,249,253)"/>
  <rect x="9" y="10" width="1" height="1" fill="rgb(243,247,253)"/>
  <rect x="10" y="10" width="1" height="1" fill="rgb(239,244,252)"/>
  <rect x="11" y="10" width="1" height="1" fill="rgb(229,238,251)"/>
  <rect x="12" y="10" width="1" height="1" fill="rgb(22,45,80)"/>
  <rect x="13" y="10" width="1" height="1" fill="rgb(148,106,76)"/>
  <rect x="14" y="10" width="1" height="1" fill="rgb(154,113,81)"/>
  <rect x="15" y="10" width="1" height="1" fill="rgb(161,119,86)"/>
  <rect x="16" y="10" width="1" height="1" fill="rgb(191,159,133)"/>
  <rect x="17" y="10" width="1" height="1" fill="rgb(26,26,26)"/>
  <rect x="18" y="10" width="3" height="1" fill="rgb(255,255,255)" fill-opacity="0.0078125"/>
  <rect x="0" y="11" width="4" height="1" fill="rgb(255,255,255)" fill-opacity="0.0078125"/>
  <rect x="4" y="11" width="1" height="1" fill="rgb(22,45,80)"/>
  <rect x="5" y="11" width="1" height="1" fill="rgb(255,255,255)"/>
  <rect x="6" y="11" width="5" height="1" fill="rgb(33,68,120)"/>
  <rect x="11" y="11" width="1" height="1" fill="rgb(233,240,252)"/>
  <rect x="12" y="11" width="1" height="1" fill="rgb(22,45,80)"/>
  <rect x="13" y="11" width="1" height="1" fill="rgb(140,99,71)"/>
  <rect x="14" y="11" width="1" height="1" fill="rgb(147,106,76)"/>
  <rect x="15" y="11" width="1" height="1" fill="rgb(154,112,81)"/>
  <rect x="16" y="11" width="1" height="1" fill="rgb(180,148,122)"/>
  <rect x="17" y="11" width="1" height="1" fill="rgb(26,26,26)"/>
  <rect x="18" y="11" width="3" height="1" fill="rgb(255,255,255)" fill-opacity="0.0078125"/>
  <rect x="0" y="12" width="4" height="1" fill="rgb(255,255,255)" fill-opacity="0.0078125"/>
  <rect x="4" y="12" width="1" height="1" fill="rgb(22,45,80)"/>
  <rect x="5" y="12" width="1" height="1" fill="rgb(251,252,254)"/>
  <rect x="6" y="12" width="1" height="1" fill="rgb(155,187,235)"/>
  <rect x="7" y="12" width="1" height="1" fill="rgb(160,191,237)"/>
  <rect x="8" y="12" width="1" height="1" fill="rgb(166,195,239)"/>
  <rect x="9" y="12" width="1" height="1" fill="rgb(171,199,240)"/>
  <rect x="10" y="12" width="1" height="1" fill="rgb(177,203,242)"/>
  <rect x="11" y="12" width="1" height="1" fill="rgb(230,239,251)"/>
  <rect x="12" y="12" width="1" height="1" fill="rgb(22,45,80)"/>
  <rect x="13" y="12" width="1" height="1" fill="rgb(133,92,65)"/>
  <rect x="14" y="12" width="1" height="1" fill="rgb(140,98,70)"/>
  <rect x="15" y="12" width="1" height="1" fill="rgb(146,105,75)"/>
  <rect x="16" y="12" width="1" height="1" fill="rgb(170,136,110)"/>
  <rect x="17" y="12" width="1" height="1" fill="rgb(26,26,26)"/>
  <rect x="18" y="12" width="3" height="1" fill="rgb(255,255,255)" fill-opacity="0.0078125"/>
  <rect x="0" y="13" width="4" height="1" fill="rgb(255,255,255)" fill-opacity="0.0078125"/>
  <rect x="4" y="13" width="1" height="1" fill="rgb(22,45,80)"/>
  <rect x="5" y="13" width="1" height="1" fill="rgb(246,249,253)"/>
  <rect x="6" y="13" width="5" height="1" fill="rgb(33,68,120)"/>
  <rect x="11" y="13" width="1" height="1" fill="rgb(228,238,252)"/>
  <rect x="12" y="13" width="1" height="1" fill="rgb(22,45,80)"/>
  <rect x="13" y="13" width="1" height="1" fill="rgb(125,84,60)"/>
  <rect x="14" y="13" width="1" height="1" fill="rgb(132,91,65)"/>
  <rect x="15" y="13" width="1" height="1" fill="rgb(139,98,70)"/>
  <rect x="16" y="13" width="1" height="1" fill="rgb(160,123,98)"/>
  <rect x="17" y="13" width="1" height="1" fill="rgb(26,26,26)"/>
  <rect x="18" y="13" width="3" height="1" fill="rgb(255,255,255)" fill-opacity="0.0078125"/>
  <rect x="0" y="14" width="4" height="1" fill="rgb(255,255,255)" fill-opacity="0.0078125"/>
  <rect x="4" y="14" width="1" height="1" fill="rgb(22,45,80)"/>
  <rect x="5" y="14" width="1" height="1" fill="rgb(242,246,252)"/>
  <rect x="6" y="14" width="1" height="1" fill="rgb(161,192,236)"/>
  <rect x="7" y="14" width="1" height="1" fill="rgb(168,197,239)"/>
  <rect x="8" y="14" width="1" height="1" fill="rgb(174,201,241)"/>
  <rect x="9" y="14" width="1" height="1" fill="rgb(179,205,243)"/>
  <rect x="10" y="14" width="1" height="1" fill="rgb(185,209,245)"/>
  <rect x="11" y="14" width="1" height="1" fill="rgb(226,237,251)"/>
  <rect x="12" y="14" width="1" height="1" fill="rgb(22,45,80)"/>
  <rect x="13" y="14" width="1" height="1" fill="rgb(118,77,54)"/>
  <rect x="14" y="14" width="1" height="1" fill="rgb(125,84,59)"/>
  <rect x="15" y="14" width="1" height="1" fill="rgb(132,90,64)"/>
  <rect x="16" y="14" width="1" height="1" fill="rgb(147,109,84)"/>
  <rect x="17" y="14" width="1" height="1" fill="rgb(26,26,26)"/>
  <rect x="18" y="14" width="3" height="1" fill="rgb(255,255,255)" fill-opacity="0.0078125"/>
  <rect x="0" y="15" width="4" height="1" fill="rgb(255,255,255)" fill-opacity="0.0078125"/>
  <rect x="4" y="15" width="1" height="1" fill="rgb(22,45,80)"/>
  <rect x="5" y="15" width="1" height="1" fill="rgb(237,243,252)"/>
  <rect x="6" y="15" width="1" height="1" fill="rgb(34,69,121)"/>
  <rect x="7" y="15" width="2" height="1" fill="rgb(33,68,120)"/>
  <rect x="9" y="15" width="1" height="1" fill="rgb(108,138,182)"/>
  <rect x="10" y="15" width="1" height="1" fill="rgb(188,212,246)"/>
  <rect x="11" y="15" width="1" height="1" fill="rgb(225,235,252)"/>
  <rect x="12" y="15" width="1" height="1" fill="rgb(22,45,80)"/>
  <rect x="13" y="15" width="1" height="1" fill="rgb(127,91,72)"/>
  <rect x="14" y="15" width="1" height="1" fill="rgb(129,91,71)"/>
  <rect x="15" y="15" width="1" height="1" fill="rgb(132,94,71)"/>
  <rect x="16" y="15" width="1" height="1" fill="rgb(111,81,61)"/>
  <rect x="17" y="15" width="1" height="1" fill="rgb(30,29,28)" fill-opacity="0.9375"/>
  <rect x="18" y="15" width="3" height="1" fill="rgb(255,255,255)" fill-opacity="0.0078125"/>
  <rect x="0" y="16" width="4" height="1" fill="rgb(255,255,255)" fill-opacity="0.0078125"/>
  <rect x="4" y="16" width="1" height="1" fill="rgb(22,45,80)"/>
  <rect x="5" y="16" width="1" height="1" fill="rgb(225,235,249)"/>
  <rect x="6" y="16" width="1" height="1" fill="rgb(230,238,251)"/>
  <rect x="7" y="16" width="1" height="1" fill="rgb(228,237,251)"/>
  <rect x="8" y="16" width="1" height="1" fill="rgb(226,236,251)"/>
  <rect x="9" y="16" width="1" height="1" fill="rgb(225,235,251)"/>
  <rect x="10" y="16" width="1" height="1" fill="rgb(224,235,252)"/>
  <rect x="11" y="16" width="1" height="1" fill="rgb(218,231,251)"/>
  <rect x="12" y="16" width="1" height="1" fill="rgb(22,45,80)"/>
  <rect x="13" y="16" width="3" height="1" fill="rgb(26,26,26)"/>
  <rect x="16" y="16" width="1" height="1" fill="rgb(30,28,28)" fill-opacity="0.9375"/>
  <rect x="17" y="16" width="1" height="1" fill="rgb(30,27,27)" fill-opacity="0.3671875"/>
  <rect x="18" y="16" width="3" height="1" fill="rgb(255,255,255)" fill-opacity="0.0078125"/>
  <rect x="0" y="17" width="4" height="1" fill="rgb(255,255,255)" fill-opacity="0.0078125"/>
  <rect x="4" y="17" width="1" height="1" fill="rgb(22,46,80)" fill-opacity="0.8828125"/>
  <rect x="5" y="17" width="7" height="1" fill="rgb(22,45,80)"/>
  <rect x="12" y="17" width="1" height="1" fill="rgb(22,46,80)" fill-opacity="0.8828125"/>
  <rect x="13" y="17" width="8" height="1" fill="rgb(255,255,255)" fill-opacity="0.0078125"/>
  <rect x="0" y="18" width="21" height="1" fill="rgb(255,255,255)" fill-opacity="0.0078125"/>
  <rect x="0" y="19" width="21" height="1" fill="rgb(255,255,255)" fill-opacity="0.0078125"/>
  <rect x="0" y="20" width="21" height="1" fill="rgb(255,255,255)" fill-opacity="0.0078125"/>
</svg>