<svg xmlns="http://www.w3.org/2000/svg" shape-rendering="crispEdges" width="21" height="21" viewBox="0 0 21 21">
  <rect x="0" y="0" width="21" height="1" fill="rgb(255,255,255)" fill-opacity="0.0078125"/>
  <rect x="0" y="1" width="21" height="1" fill="rgb(255,255,255)" fill-opacity="0.0078125"/>
  <rect x="0" y="2" width="21" height="1" fill="rgb(255,255,255)" fill-opacity="0.0078125"/>
  <rect x="0" y="3" width="21" height="1" fill="rgb(255,255,255)" fill-opacity="0.0078125"/>
  <rect x="0" y="4" width="4" height="1" fill="rgb(255,255,255)" fill-opacity="0.0078125"/>
  <rect x="4" y="4" width="1" height="1" fill="rgb(39,39,39)" fill-opacity="0.796875"/>
  <rect x="5" y="4" width="1" height="1" fill="rgb(41,41,41)" fill-opacity="0.9140625"/>
  <rect x="6" y="4" width="3" height="1" fill="rgb(42,42,42)" fill-opacity="0.9140625"/>
  <rect x="9" y="4" width="3" height="1" fill="rgb(43,43,43)" fill-opacity="0.9140625"/>
  <rect x="12" y="4" width="3" height="1" fill="rgb(44,44,44)" fill-opacity="0.9140625"/>
  <rect x="15" y="4" width="2" height="1" fill="rgb(45,45,45)" fill-opacity="0.9140625"/>
  <rect x="17" y="4" width="1" height="1" fill="rgb(43,43,43)" fill-opacity="0.796875"/>
  <rect x="18" y="4" width="3" height="1" fill="rgb(255,255,255)" fill-opacity="0.0078125"/>
  <rect x="0" y="5" width="4" height="1" fill="rgb(255,255,255)" fill-opacity="0.0078125"/>
  <rect x="4" y="5" width="1" height="1" fill="rgb(41,41,41)" fill-opacity="0.9140625"/>
  <rect x="5" y="5" width="1" height="1" fill="rgb(246,246,246)"/>
  <rect x="6" y="5" width="2" height="1" fill="rgb(255,255,255)"/>
  <rect x="8" y="5" width="1" height="1" fill="rgb(254,254,254)"/>
  <rect x="9" y="5" width="1" height="1" fill="rgb(252,252,252)"/>
  <rect x="10" y="5" width="1" height="1" fill="rgb(250,250,250)"/>
  <rect x="11" y="5" width="1" height="1" fill="rgb(248,248,248)"/>
  <rect x="12" y="5" width="1" height="1" fill="rgb(246,246,246)"/>
  <rect x="13" y="5" width="1" height="1" fill="rgb(245,245,245)"/>
  <rect x="14" y="5" width="2" height="1" fill="rgb(244,244,244)"/>
  <rect x="16" y="5" width="1" height="1" fill="rgb(240,240,240)"/>
  <rect x="17" y="5" width="1" height="1" fill="rgb(46,46,46)" fill-opacity="0.9140625"/>
  <rect x="18" y="5" width="3" height="1" fill="rgb(255,255,255)" fill-opacity="0.0078125"/>
  <rect x="0" y="6" width="4" height="1" fill="rgb(255,255,255)" fill-opacity="0.0078125"/>
  <rect x="4" y="6" width="1" height="1" fill="rgb(42,42,42)" fill-opacity="0.9140625"/>
  <rect x="5" y="6" width="1" height="1" fill="rgb(255,255,255)"/>
  <rect x="6" y="6" width="1" height="1" fill="rgb(186,186,186)"/>
  <rect x="7" y="6" width="1" height="1" fill="rgb(190,190,190)"/>
  <rect x="8" y="6" width="1" height="1" fill="rgb(193,193,193)"/>
  <rect x="9" y="6" width="1" height="1" fill="rgb(197,197,197)"/>
  <rect x="10" y="6" width="1" height="1" fill="rgb(201,201,201)"/>
  <rect x="11" y="6" width="1" height="1" fill="rgb(205,205,205)"/>
  <rect x="12" y="6" width="1" height="1" fill="rgb(208,208,208)"/>
  <rect x="13" y="6" width="1" height="1" fill="rgb(212,212,212)"/>
  <rect x="14" y="6" width="1" height="1" fill="rgb(216,216,216)"/>
  <rect x="15" y="6" width="1" height="1" fill="rgb(219,219,219)"/>
  <rect x="16" y="6" width="1" height="1" fill="rgb(243,243,243)"/>
  <rect x="17" y="6" width="1" height="1" fill="rgb(46,46,46)" fill-opacity="0.9140625"/>
  <rect x="18" y="6" width="3" height="1" fill="rgb(255,255,255)" fill-opacity="0.0078125"/>
  <rect x="0" y="7" width="4" height="1" fill="rgb(255,255,255)" fill-opacity="0.0078125"/>
  <rect x="4" y="7" width="1" height="1" fill="rgb(42,42,42)" fill-opacity="0.9140625"/>
  <rect x="5" y="7" width="1" height="1" fill="rgb(255,255,255)"/>
  <rect x="6" y="7" width="1" height="1" fill="rgb(190,190,190)"/>
  <rect x="7" y="7" width="1" height="1" fill="rgb(192,192,192)"/>
  <rect x="8" y="7" width="1" height="1" fill="rgb(123,123,123)"/>
  <rect x="9" y="7" width="1" height="1" fill="rgb(119,119,119)"/>
  <rect x="10" y="7" width="1" height="1" fill="rgb(204,204,204)"/>
  <rect x="11" y="7" width="1" height="1" fill="rgb(208,208,208)"/>
  <rect x="12" y="7" width="1" height="1" fill="rgb(212,212,212)"/>
  <rect x="13" y="7" width="1" height="1" fill="rgb(216,216,216)"/>
  <rect x="14" y="7" width="1" height="1" fill="rgb(219,219,219)"/>
  <rect x="15" y="7" width="1" height="1" fill="rgb(223,223,223)"/>
  <rect x="16" y="7" width="1" height="1" fill="rgb(244,244,244)"/>
  <rect x="17" y="7" width="1" height="1" fill="rgb(47,47,47)" fill-opacity="0.9140625"/>
  <rect x="18" y="7" width="3" height="1" fill="rgb(255,255,255)" fill-opacity="0.0078125"/>
  <rect x="0" y="8" width="4" height="1" fill="rgb(255,255,255)" fill-opacity="0.0078125"/>
  <rect x="4" y="8" width="1" height="1" fill="rgb(42,42,42)" fill-opacity="0.9140625"/>
  <rect x="5" y="8" width="1" height="1" fill="rgb(254,254,254)"/>
  <rect x="6" y="8" width="1" height="1" fill="rgb(193,193,193)"/>
  <rect x="7" y="8" width="1" height="1" fill="rgb(147,147,147)"/>
  <rect x="8" y="8" width="1" height="1" fill="rgb(91,91,91)"/>
  <rect x="9" y="8" width="1" height="1" fill="rgb(108,108,108)"/>
  <rect x="10" y="8" width="1" height="1" fill="rgb(144,144,144)"/>
  <rect x="11" y="8" width="1" height="1" fill="rgb(212,212,212)"/>
  <rect x="12" y="8" width="1" height="1" fill="rgb(216,216,216)"/>
  <rect x="13" y="8" width="1" height="1" fill="rgb(219,219,219)"/>
  <rect x="14" y="8" width="1" height="1" fill="rgb(223,223,223)"/>
  <rect x="15" y="8" width="1" height="1" fill="rgb(227,227,227)"/>
  <rect x="16" y="8" width="1" height="1" fill="rgb(244,244,244)"/>
  <rect x="17" y="8" width="1" height="1" fill="rgb(47,47,47)" fill-opacity="0.9140625"/>
  <rect x="18" y="8" width="3" height="1" fill="rgb(255,255,255)" fill-opacity="0.0078125"/>
  <rect x="0" y="9" width="4" height="1" fill="rgb(255,255,255)" fill-opacity="0.0078125"/>
  <rect x="4" y="9" width="1" height="1" fill="rgb(43,43,43)" fill-opacity="0.9140625"/>
  <rect x="5" y="9" width="1" height="1" fill="rgb(252,252,252)"/>
  <rect x="6" y="9" width="1" height="1" fill="rgb(197,197,197)"/>
  <rect x="7" y="9" width="1" height="1" fill="rgb(99,99,99)"/>
  <rect x="8" y="9" width="1" height="1" fill="rgb(152,152,152)"/>
  <rect x="9" y="9" width="1" height="1" fill="rgb(182,182,182)"/>
  <rect x="10" y="9" width="1" height="1" fill="rgb(95,95,95)"/>
  <rect x="11" y="9" width="1" height="1" fill="rgb(216,216,216)"/>
  <rect x="12" y="9" width="1" height="1" fill="rgb(219,219,219)"/>
  <rect x="13" y="9" width="1" height="1" fill="rgb(223,223,223)"/>
  <rect x="14" y="9" width="1" height="1" fill="rgb(227,227,227)"/>
  <rect x="15" y="9" width="1" height="1" fill="rgb(231,231,231)"/>
  <rect x="16" y="9" width="1" height="1" fill="rgb(245,245,245)"/>
  <rect x="17" y="9" width="1" height="1" fill="rgb(47,47,47)" fill-opacity="0.9140625"/>
  <rect x="18" y="9" width="3" height="1" fill="rgb(255,255,255)" fill-opacity="0.0078125"/>
  <rect x="0" y="10" width="4" height="1" fill="rgb(255,255,255)" fill-opacity="0.0078125"/>
  <rect x="4" y="10" width="1" height="1" fill="rgb(43,43,43)" fill-opacity="0.9140625"/>
  <rect x="5" y="10" width="1" height="1" fill="rgb(250,250,250)"/>
  <rect x="6" y="10" width="1" height="1" fill="rgb(183,183,183)"/>
  <rect x="7" y="10" width="1" height="1" fill="rgb(65,65,65)"/>
  <rect x="8" y="10" width="1" height="1" fill="rgb(201,201,201)"/>
  <rect x="9" y="10" width="1" height="1" fill="rgb(212,212,212)"/>
  <rect x="10" y="10" width="1" height="1" fill="rgb(95,95,95)"/>
  <rect x="11" y="10" width="1" height="1" fill="rgb(191,191,191)"/>
  <rect x="12" y="10" width="1" height="1" fill="rgb(223,223,223)"/>
  <rect x="13" y="10" width="1" height="1" fill="rgb(227,227,227)"/>
  <rect x="14" y="10" width="1" height="1" fill="rgb(199,199,199)"/>
  <rect x="15" y="10" width="1" height="1" fill="rgb(132,132,132)"/>
  <rect x="16" y="10" width="1" height="1" fill="rgb(167,167,167)"/>
  <rect x="17" y="10" width="1" height="1" fill="rgb(54,54,54)" fill-opacity="0.9140625"/>
  <rect x="18" y="10" width="3" height="1" fill="rgb(255,255,255)" fill-opacity="0.0078125"/>
  <rect x="0" y="11" width="4" height="1" fill="rgb(255,255,255)" fill-opacity="0.0078125"/>
  <rect x="4" y="11" width="1" height="1" fill="rgb(43,43,43)" fill-opacity="0.9140625"/>
  <rect x="5" y="11" width="1" height="1" fill="rgb(233,233,233)"/>
  <rect x="6" y="11" width="1" height="1" fill="rgb(97,97,97)"/>
  <rect x="7" y="11" width="1" height="1" fill="rgb(120,120,120)"/>
  <rect x="8" y="11" width="1" height="1" fill="rgb(212,212,212)"/>
  <rect x="9" y="11" width="1" height="1" fill="rgb(216,216,216)"/>
  <rect x="10" y="11" width="1" height="1" fill="rgb(143,143,143)"/>
  <rect x="11" y="11" width="1" height="1" fill="rgb(148,148,148)"/>
  <rect x="12" y="11" width="1" height="1" fill="rgb(227,227,227)"/>
  <rect x="13" y="11" width="1" height="1" fill="rgb(228,228,228)"/>
  <rect x="14" y="11" width="1" height="1" fill="rgb(118,118,118)"/>
  <rect x="15" y="11" width="1" height="1" fill="rgb(200,200,200)"/>
  <rect x="16" y="11" width="1" height="1" fill="rgb(164,164,164)"/>
  <rect x="17" y="11" width="1" height="1" fill="rgb(98,98,98)" fill-opacity="0.96875"/>
  <rect x="18" y="11" width="3" height="1" fill="rgb(255,255,255)" fill-opacity="0.0078125"/>
  <rect x="0" y="12" width="4" height="1" fill="rgb(255,255,255)" fill-opacity="0.0078125"/>
  <rect x="4" y="12" width="1" height="1" fill="rgb(37,37,37)" fill-opacity="0.9765625"/>
  <rect x="5" y="12" width="1" height="1" fill="rgb(47,47,47)"/>
  <rect x="6" y="12" width="1" height="1" fill="rgb(115,115,115)"/>
  <rect x="7" y="12" width="1" height="1" fill="rgb(204,204,204)"/>
  <rect x="8" y="12" width="1" height="1" fill="rgb(216,216,216)"/>
  <rect x="9" y="12" width="1" height="1" fill="rgb(219,219,219)"/>
  <rect x="10" y="12" width="1" height="1" fill="rgb(193,193,193)"/>
  <rect x="11" y="12" width="1" height="1" fill="rgb(104,104,104)"/>
  <rect x="12" y="12" width="1" height="1" fill="rgb(231,231,231)"/>
  <rect x="13" y="12" width="1" height="1" fill="rgb(181,181,181)"/>
  <rect x="14" y="12" width="1" height="1" fill="rgb(144,144,144)"/>
  <rect x="15" y="12" width="2" height="1" fill="rgb(242,242,242)"/>
  <rect x="17" y="12" width="1" height="1" fill="rgb(97,97,97)" fill-opacity="0.96875"/>
  <rect x="18" y="12" width="3" height="1" fill="rgb(255,255,255)" fill-opacity="0.0078125"/>
  <rect x="0" y="13" width="4" height="1" fill="rgb(255,255,255)" fill-opacity="0.0078125"/>
  <rect x="4" y="13" width="1" height="1" fill="rgb(44,44,44)" fill-opacity="0.9140625"/>
  <rect x="5" y="13" width="1" height="1" fill="rgb(241,241,241)"/>
  <rect x="6" y="13" width="1" height="1" fill="rgb(212,212,212)"/>
  <rect x="7" y="13" width="1" height="1" fill="rgb(216,216,216)"/>
  <rect x="8" y="13" width="1" height="1" fill="rgb(219,219,219)"/>
  <rect x="9" y="13" width="1" height="1" fill="rgb(223,223,223)"/>
  <rect x="10" y="13" width="1" height="1" fill="rgb(227,227,227)"/>
  <rect x="11" y="13" width="1" height="1" fill="rgb(105,105,105)"/>
  <rect x="12" y="13" width="1" height="1" fill="rgb(175,175,175)"/>
  <rect x="13" y="13" width="1" height="1" fill="rgb(118,118,118)"/>
  <rect x="14" y="13" width="1" height="1" fill="rgb(207,207,207)"/>
  <rect x="15" y="13" width="1" height="1" fill="rgb(246,246,246)"/>
  <rect x="16" y="13" width="1" height="1" fill="rgb(251,251,251)"/>
  <rect x="17" y="13" width="1" height="1" fill="rgb(49,49,49)" fill-opacity="0.9140625"/>
  <rect x="18" y="13" width="3" height="1" fill="rgb(255,255,255)" fill-opacity="0.0078125"/>
  <rect x="0" y="14" width="4" height="1" fill="rgb(255,255,255)" fill-opacity="0.0078125"/>
  <rect x="4" y="14" width="1" height="1" fill="rgb(44,44,44)" fill-opacity="0.9140625"/>
  <rect x="5" y="14" width="1" height="1" fill="rgb(244,244,244)"/>
  <rect x="6" y="14" width="1" height="1" fill="rgb(216,216,216)"/>
  <rect x="7" y="14" width="1" height="1" fill="rgb(219,219,219)"/>
  <rect x="8" y="14" width="1" height="1" fill="rgb(223,223,223)"/>
  <rect x="9" y="14" width="1" height="1" fill="rgb(227,227,227)"/>
  <rect x="10" y="14" width="1" height="1" fill="rgb(231,231,231)"/>
  <rect x="11" y="14" width="1" height="1" fill="rgb(208,208,208)"/>
  <rect x="12" y="14" width="1" height="1" fill="rgb(107,107,107)"/>
  <rect x="13" y="14" width="1" height="1" fill="rgb(167,167,167)"/>
  <rect x="14" y="14" width="1" height="1" fill="rgb(246,246,246)"/>
  <rect x="15" y="14" width="1" height="1" fill="rgb(249,249,249)"/>
  <rect x="16" y="14" width="1" height="1" fill="rgb(254,254,254)"/>
  <rect x="17" y="14" width="1" height="1" fill="rgb(49,49,49)" fill-opacity="0.9140625"/>
  <rect x="18" y="14" width="3" height="1" fill="rgb(255,255,255)" fill-opacity="0.0078125"/>
  <rect x="0" y="15" width="4" height="1" fill="rgb(255,255,255)" fill-opacity="0.0078125"/>
  <rect x="4" y="15" width="1" height="1" fill="rgb(45,45,45)" fill-opacity="0.9140625"/>
  <rect x="5" y="15" width="1" height="1" fill="rgb(244,244,244)"/>
  <rect x="6" y="15" width="1" height="1" fill="rgb(219,219,219)"/>
  <rect x="7" y="15" width="1" height="1" fill="rgb(223,223,223)"/>
  <rect x="8" y="15" width="1" height="1" fill="rgb(227,227,227)"/>
  <rect x="9" y="15" width="1" height="1" fill="rgb(231,231,231)"/>
  <rect x="10" y="15" width="1" height="1" fill="rgb(234,234,234)"/>
  <rect x="11" y="15" width="1" height="1" fill="rgb(238,238,238)"/>
  <rect x="12" y="15" width="1" height="1" fill="rgb(242,242,242)"/>
  <rect x="13" y="15" width="1" height="1" fill="rgb(246,246,246)"/>
  <rect x="14" y="15" width="1" height="1" fill="rgb(249,249,249)"/>
  <rect x="15" y="15" width="1" height="1" fill="rgb(253,253,253)"/>
  <rect x="16" y="15" width="1" height="1" fill="rgb(255,255,255)"/>
  <rect x="17" y="15" width="1" height="1" fill="rgb(49,49,49)" fill-opacity="0.9140625"/>
  <rect x="18" y="15" width="3" height="1" fill="rgb(255,255,255)" fill-opacity="0.0078125"/>
  <rect x="0" y="16" width="4" height="1" fill="rgb(255,255,255)" fill-opacity="0.0078125"/>
  <rect x="4" y="16" width="1" height="1" fill="rgb(45,45,45)" fill-opacity="0.9140625"/>
  <rect x="5" y="16" width="1" height="1" fill="rgb(241,241,241)"/>
  <rect x="6" y="16" width="1" height="1" fill="rgb(243,243,243)"/>
  <rect x="7" y="16" width="2" height="1" fill="rgb(244,244,244)"/>
  <rect x="9" y="16" width="1" height="1" fill="rgb(245,245,245)"/>
  <rect x="10" y="16" width="1" height="1" fill="rgb(246,246,246)"/>
  <rect x="11" y="16" width="1" height="1" fill="rgb(248,248,248)"/>
  <rect x="12" y="16" width="1" height="1" fill="rgb(250,250,250)"/>
  <rect x="13" y="16" width="1" height="1" fill="rgb(251,251,251)"/>
  <rect x="14" y="16" width="1" height="1" fill="rgb(254,254,254)"/>
  <rect x="15" y="16" width="2" height="1" fill="rgb(255,255,255)"/>
  <rect x="17" y="16" width="1" height="1" fill="rgb(49,49,49)" fill-opacity="0.9140625"/>
  <rect x="18" y="16" width="3" height="1" fill="rgb(255,255,255)" fill-opacity="0.0078125"/>
  <rect x="0" y="17" width="4" height="1" fill="rgb(255,255,255)" fill-opacity="0.0078125"/>
  <rect x="4" y="17" width="1" height="1" fill="rgb(43,43,43)" fill-opacity="0.796875"/>
  <rect x="5" y="17" width="2" height="1" fill="rgb(46,46,46)" fill-opacity="0.9140625"/>
  <rect x="7" y="17" width="3" height="1" fill="rgb(47,47,47)" fill-opacity="0.9140625"/>
  <rect x="10" y="17" width="3" height="1" fill="rgb(48,48,48)" fill-opacity="0.9140625"/>
  <rect x="13" y="17" width="4" height="1" fill="rgb(49,49,49)" fill-opacity="0.9140625"/>
  <rect x="17" y="17" width="1" height="1" fill="rgb(45,45,45)" fill-opacity="0.796875"/>
  <rect x="18" y="17" width="3" height="1" fill="rgb(255,255,255)" fill-opacity="0.0078125"/>
  <rect x="0" y="18" width="21" height="1" fill="rgb(255,255,255)" fill-opacity="0.0078125"/>
  <rect x="0" y="19" width="21" height="1" fill="rgb(255,255,255)" fill-opacity="0.0078125"/>
  <rect x="0" y="20" width="21" height="1" fill="rgb(255,255,255)" fill-opacity="0.0078125"/>
</svg>