<svg xmlns="http://www.w3.org/2000/svg" shape-rendering="crispEdges" width="21" height="21" viewBox="0 0 21 21">
  <rect x="0" y="0" width="1" height="21" fill="rgb(255,255,255)" fill-opacity="0.0078125"/>
  <rect x="1" y="0" width="1" height="21" fill="rgb(255,255,255)" fill-opacity="0.0078125"/>
  <rect x="2" y="0" width="1" height="21" fill="rgb(255,255,255)" fill-opacity="0.0078125"/>
  <rect x="3" y="0" width="1" height="8" fill="rgb(255,255,255)" fill-opacity="0.0078125"/>
  <rect x="3" y="8" width="1" height="1" fill="rgb(77,0,0)" fill-opacity="0.046875"/>
  <rect x="3" y="9" width="1" height="1" fill="rgb(92,8,8)" fill-opacity="0.2421875"/>
  <rect x="3" y="10" width="1" height="1" fill="rgb(94,12,12)" fill-opacity="0.34375"/>
  <rect x="3" y="11" width="1" height="2" fill="rgb(90,5,5)" fill-opacity="0.4140625"/>
  <rect x="3" y="13" width="1" height="1" fill="rgb(93,12,12)" fill-opacity="0.3359375"/>
  <rect x="3" y="14" width="1" height="1" fill="rgb(89,4,4)" fill-opacity="0.2421875"/>
  <rect x="3" y="15" width="1" height="1" fill="rgb(96,0,0)" fill-opacity="0.0390625"/>
  <rect x="3" y="16" width="1" height="5" fill="rgb(255,255,255)" fill-opacity="0.0078125"/>
  <rect x="4" y="0" width="1" height="7" fill="rgb(255,255,255)" fill-opacity="0.0078125"/>
  <rect x="4" y="7" width="1" height="1" fill="rgb(83,0,0)" fill-opacity="0.1484375"/>
  <rect x="4" y="8" width="1" height="1" fill="rgb(92,7,7)" fill-opacity="0.40625"/>
  <rect x="4" y="9" width="1" height="1" fill="rgb(191,152,152)" fill-opacity="0.390625"/>
  <rect x="4" y="10" width="1" height="1" fill="rgb(238,225,225)" fill-opacity="0.40625"/>
  <rect x="4" y="11" width="1" height="2" fill="rgb(255,253,253)" fill-opacity="0.421875"/>
  <rect x="4" y="13" width="1" height="1" fill="rgb(238,228,228)" fill-opacity="0.40625"/>
  <rect x="4" y="14" width="1" height="1" fill="rgb(185,147,147)" fill-opacity="0.390625"/>
  <rect x="4" y="15" width="1" height="1" fill="rgb(92,7,7)" fill-opacity="0.40625"/>
  <rect x="4" y="16" width="1" height="1" fill="rgb(90,0,0)" fill-opacity="0.140625"/>
  <rect x="4" y="17" width="1" height="4" fill="rgb(255,255,255)" fill-opacity="0.0078125"/>
  <rect x="5" y="0" width="1" height="6" fill="rgb(255,255,255)" fill-opacity="0.0078125"/>
  <rect x="5" y="6" width="1" height="1" fill="rgb(85,0,0)" fill-opacity="0.1484375"/>
  <rect x="5" y="7" width="1" height="1" fill="rgb(115,42,42)" fill-opacity="0.4140625"/>
  <rect x="5" y="8" width="1" height="1" fill="rgb(245,235,235)" fill-opacity="0.40625"/>
  <rect x="5" y="9" width="1" height="1" fill="rgb(250,230,230)" fill-opacity="0.3984375"/>
  <rect x="5" y="10" width="1" height="1" fill="rgb(232,180,180)" fill-opacity="0.3515625"/>
  <rect x="5" y="11" width="1" height="1" fill="rgb(227,159,159)" fill-opacity="0.328125"/>
  <rect x="5" y="12" width="1" height="1" fill="rgb(227,162,162)" fill-opacity="0.328125"/>
  <rect x="5" y="13" width="1" height="1" fill="rgb(240,193,193)" fill-opacity="0.34375"/>
  <rect x="5" y="14" width="1" height="1" fill="rgb(250,238,238)" fill-opacity="0.40625"/>
  <rect x="5" y="15" width="1" height="1" fill="rgb(237,227,227)" fill-opacity="0.3984375"/>
  <rect x="5" y="16" width="1" height="1" fill="rgb(108,32,32)" fill-opacity="0.4140625"/>
  <rect x="5" y="17" width="1" height="1" fill="rgb(88,0,0)" fill-opacity="0.1328125"/>
  <rect x="5" y="18" width="1" height="3" fill="rgb(255,255,255)" fill-opacity="0.0078125"/>
  <rect x="6" y="0" width="1" height="5" fill="rgb(255,255,255)" fill-opacity="0.0078125"/>
  <rect x="6" y="5" width="1" height="1" fill="rgb(96,0,0)" fill-opacity="0.0390625"/>
  <rect x="6" y="6" width="1" height="1" fill="rgb(92,7,7)" fill-opacity="0.40625"/>
  <rect x="6" y="7" width="1" height="1" fill="rgb(245,235,235)" fill-opacity="0.40625"/>
  <rect x="6" y="8" width="1" height="1" fill="rgb(238,202,202)" fill-opacity="0.3671875"/>
  <rect x="6" y="9" width="1" height="1" fill="rgb(156,99,99)" fill-opacity="0.3984375"/>
  <rect x="6" y="10" width="1" height="1" fill="rgb(43,38,38)" fill-opacity="0.859375"/>
  <rect x="6" y="11" width="1" height="1" fill="rgb(24,23,23)" fill-opacity="0.96875"/>
  <rect x="6" y="12" width="1" height="1" fill="rgb(25,24,24)" fill-opacity="0.96875"/>
  <rect x="6" y="13" width="1" height="1" fill="rgb(45,40,40)" fill-opacity="0.859375"/>
  <rect x="6" y="14" width="1" height="1" fill="rgb(163,121,121)" fill-opacity="0.3828125"/>
  <rect x="6" y="15" width="1" height="1" fill="rgb(246,221,221)" fill-opacity="0.3515625"/>
  <rect x="6" y="16" width="1" height="1" fill="rgb(234,218,218)" fill-opacity="0.3828125"/>
  <rect x="6" y="17" width="1" height="1" fill="rgb(93,8,8)" fill-opacity="0.3984375"/>
  <rect x="6" y="18" width="1" height="1" fill="rgb(109,0,0)" fill-opacity="0.03125"/>
  <rect x="6" y="19" width="1" height="2" fill="rgb(255,255,255)" fill-opacity="0.0078125"/>
  <rect x="7" y="0" width="1" height="5" fill="rgb(255,255,255)" fill-opacity="0.0078125"/>
  <rect x="7" y="5" width="1" height="1" fill="rgb(88,8,8)" fill-opacity="0.2578125"/>
  <rect x="7" y="6" width="1" height="1" fill="rgb(191,155,155)" fill-opacity="0.390625"/>
  <rect x="7" y="7" width="1" height="1" fill="rgb(247,227,227)" fill-opacity="0.3984375"/>
  <rect x="7" y="8" width="1" height="1" fill="rgb(150,95,95)" fill-opacity="0.40625"/>
  <rect x="7" y="9" width="1" height="1" fill="rgb(28,27,27)" fill-opacity="0.96875"/>
  <rect x="7" y="10" width="1" height="1" fill="rgb(194,194,194)" fill-opacity="0.984375"/>
  <rect x="7" y="11" width="1" height="1" fill="rgb(250,249,249)" fill-opacity="0.984375"/>
  <rect x="7" y="12" width="1" height="1" fill="rgb(247,246,246)" fill-opacity="0.984375"/>
  <rect x="7" y="13" width="1" height="1" fill="rgb(181,180,180)" fill-opacity="0.984375"/>
  <rect x="7" y="14" width="1" height="1" fill="rgb(26,25,25)" fill-opacity="0.96875"/>
  <rect x="7" y="15" width="1" height="1" fill="rgb(165,125,125)" fill-opacity="0.3828125"/>
  <rect x="7" y="16" width="1" height="1" fill="rgb(252,238,238)" fill-opacity="0.359375"/>
  <rect x="7" y="17" width="1" height="1" fill="rgb(166,113,113)" fill-opacity="0.3828125"/>
  <rect x="7" y="18" width="1" height="1" fill="rgb(89,4,4)" fill-opacity="0.2265625"/>
  <rect x="7" y="19" width="1" height="2" fill="rgb(255,255,255)" fill-opacity="0.0078125"/>
  <rect x="8" y="0" width="1" height="5" fill="rgb(255,255,255)" fill-opacity="0.0078125"/>
  <rect x="8" y="5" width="1" height="1" fill="rgb(94,9,9)" fill-opacity="0.359375"/>
  <rect x="8" y="6" width="1" height="1" fill="rgb(243,233,233)" fill-opacity="0.40625"/>
  <rect x="8" y="7" width="1" height="1" fill="rgb(226,171,171)" fill-opacity="0.3515625"/>
  <rect x="8" y="8" width="1" height="1" fill="rgb(46,41,41)" fill-opacity="0.84375"/>
  <rect x="8" y="9" width="1" height="1" fill="rgb(196,196,196)" fill-opacity="0.984375"/>
  <rect x="8" y="10" width="1" height="1" fill="rgb(252,251,251)" fill-opacity="0.984375"/>
  <rect x="8" y="11" width="1" height="1" fill="rgb(246,246,246)" fill-opacity="0.984375"/>
  <rect x="8" y="12" width="1" height="1" fill="rgb(245,244,244)" fill-opacity="0.984375"/>
  <rect x="8" y="13" width="1" height="1" fill="rgb(237,236,236)" fill-opacity="0.984375"/>
  <rect x="8" y="14" width="1" height="1" fill="rgb(153,153,153)" fill-opacity="0.984375"/>
  <rect x="8" y="15" width="1" height="1" fill="rgb(43,40,40)" fill-opacity="0.859375"/>
  <rect x="8" y="16" width="1" height="1" fill="rgb(248,213,213)" fill-opacity="0.3125"/>
  <rect x="8" y="17" width="1" height="1" fill="rgb(214,186,186)" fill-opacity="0.3671875"/>
  <rect x="8" y="18" width="1" height="1" fill="rgb(93,9,9)" fill-opacity="0.3359375"/>
  <rect x="8" y="19" width="1" height="2" fill="rgb(255,255,255)" fill-opacity="0.0078125"/>
  <rect x="9" y="0" width="1" height="5" fill="rgb(255,255,255)" fill-opacity="0.0078125"/>
  <rect x="9" y="5" width="1" height="1" fill="rgb(91,5,5)" fill-opacity="0.421875"/>
  <rect x="9" y="6" width="1" height="1" fill="rgb(255,255,255)" fill-opacity="0.4296875"/>
  <rect x="9" y="7" width="1" height="1" fill="rgb(224,149,149)" fill-opacity="0.328125"/>
  <rect x="9" y="8" width="1" height="1" fill="rgb(41,40,40)" fill-opacity="0.9453125"/>
  <rect x="9" y="9" width="1" height="1" fill="rgb(251,250,250)" fill-opacity="0.984375"/>
  <rect x="9" y="10" width="1" height="1" fill="rgb(246,246,246)" fill-opacity="0.984375"/>
  <rect x="9" y="11" width="1" height="1" fill="rgb(248,248,248)" fill-opacity="0.984375"/>
  <rect x="9" y="12" width="1" height="1" fill="rgb(227,226,226)" fill-opacity="0.984375"/>
  <rect x="9" y="13" width="1" height="1" fill="rgb(195,195,195)" fill-opacity="0.984375"/>
  <rect x="9" y="14" width="1" height="1" fill="rgb(190,189,189)" fill-opacity="0.984375"/>
  <rect x="9" y="15" width="1" height="1" fill="rgb(25,23,23)" fill-opacity="0.9609375"/>
  <rect x="9" y="16" width="1" height="1" fill="rgb(245,206,206)" fill-opacity="0.2890625"/>
  <rect x="9" y="17" width="1" height="1" fill="rgb(241,218,218)" fill-opacity="0.359375"/>
  <rect x="9" y="18" width="1" height="1" fill="rgb(90,5,5)" fill-opacity="0.4140625"/>
  <rect x="9" y="19" width="1" height="2" fill="rgb(255,255,255)" fill-opacity="0.0078125"/>
  <rect x="10" y="0" width="1" height="5" fill="rgb(255,255,255)" fill-opacity="0.0078125"/>
  <rect x="10" y="5" width="1" height="1" fill="rgb(91,5,5)" fill-opacity="0.421875"/>
  <rect x="10" y="6" width="1" height="1" fill="rgb(255,255,255)" fill-opacity="0.4296875"/>
  <rect x="10" y="7" width="1" height="1" fill="rgb(187,128,128)" fill-opacity="0.375"/>
  <rect x="10" y="8" width="1" height="1" fill="rgb(65,64,64)" fill-opacity="0.953125"/>
  <rect x="10" y="9" width="1" height="1" fill="rgb(250,250,250)" fill-opacity="0.984375"/>
  <rect x="10" y="10" width="1" height="1" fill="rgb(244,243,243)" fill-opacity="0.984375"/>
  <rect x="10" y="11" width="1" height="1" fill="rgb(227,227,227)" fill-opacity="0.984375"/>
  <rect x="10" y="12" width="1" height="1" fill="rgb(185,185,185)" fill-opacity="0.984375"/>
  <rect x="10" y="13" width="1" height="1" fill="rgb(168,167,167)" fill-opacity="0.984375"/>
  <rect x="10" y="14" width="1" height="1" fill="rgb(161,161,161)" fill-opacity="0.984375"/>
  <rect x="10" y="15" width="1" height="1" fill="rgb(25,24,24)" fill-opacity="0.9609375"/>
  <rect x="10" y="16" width="1" height="1" fill="rgb(248,212,212)" fill-opacity="0.28125"/>
  <rect x="10" y="17" width="1" height="1" fill="rgb(235,212,212)" fill-opacity="0.3515625"/>
  <rect x="10" y="18" width="1" height="1" fill="rgb(91,5,5)" fill-opacity="0.4140625"/>
  <rect x="10" y="19" width="1" height="2" fill="rgb(255,255,255)" fill-opacity="0.0078125"/>
  <rect x="11" y="0" width="1" height="5" fill="rgb(255,255,255)" fill-opacity="0.0078125"/>
  <rect x="11" y="5" width="1" height="1" fill="rgb(95,9,9)" fill-opacity="0.3515625"/>
  <rect x="11" y="6" width="1" height="1" fill="rgb(223,213,213)" fill-opacity="0.4375"/>
  <rect x="11" y="7" width="1" height="1" fill="rgb(96,81,81)" fill-opacity="0.71875"/>
  <rect x="11" y="8" width="1" height="1" fill="rgb(129,125,125)" fill-opacity="0.921875"/>
  <rect x="11" y="9" width="1" height="1" fill="rgb(206,205,205)" fill-opacity="0.984375"/>
  <rect x="11" y="10" width="1" height="1" fill="rgb(236,236,236)" fill-opacity="0.984375"/>
  <rect x="11" y="11" width="1" height="1" fill="rgb(195,194,194)" fill-opacity="0.984375"/>
  <rect x="11" y="12" width="1" height="1" fill="rgb(167,167,167)" fill-opacity="0.984375"/>
  <rect x="11" y="13" width="1" height="1" fill="rgb(157,157,157)" fill-opacity="0.984375"/>
  <rect x="11" y="14" width="1" height="1" fill="rgb(113,113,113)" fill-opacity="0.984375"/>
  <rect x="11" y="15" width="1" height="1" fill="rgb(46,42,42)" fill-opacity="0.8359375"/>
  <rect x="11" y="16" width="1" height="1" fill="rgb(255,224,224)" fill-opacity="0.2890625"/>
  <rect x="11" y="17" width="1" height="1" fill="rgb(201,163,163)" fill-opacity="0.3515625"/>
  <rect x="11" y="18" width="1" height="1" fill="rgb(94,12,12)" fill-opacity="0.3359375"/>
  <rect x="11" y="19" width="1" height="2" fill="rgb(255,255,255)" fill-opacity="0.0078125"/>
  <rect x="12" y="0" width="1" height="4" fill="rgb(255,255,255)" fill-opacity="0.0078125"/>
  <rect x="12" y="4" width="1" height="1" fill="rgb(19,19,19)" fill-opacity="0.109375"/>
  <rect x="12" y="5" width="1" height="1" fill="rgb(57,33,33)" fill-opacity="0.6015625"/>
  <rect x="12" y="6" width="1" height="1" fill="rgb(113,105,105)" fill-opacity="0.8515625"/>
  <rect x="12" y="7" width="1" height="1" fill="rgb(214,210,210)" fill-opacity="0.875"/>
  <rect x="12" y="8" width="1" height="1" fill="rgb(228,217,217)" fill-opacity="0.8671875"/>
  <rect x="12" y="9" width="1" height="1" fill="rgb(110,108,108)" fill-opacity="0.953125"/>
  <rect x="12" y="10" width="1" height="1" fill="rgb(177,177,177)" fill-opacity="0.984375"/>
  <rect x="12" y="11" width="1" height="1" fill="rgb(192,191,191)" fill-opacity="0.984375"/>
  <rect x="12" y="12" width="1" height="1" fill="rgb(164,164,164)" fill-opacity="0.984375"/>
  <rect x="12" y="13" width="1" height="1" fill="rgb(112,112,112)" fill-opacity="0.984375"/>
  <rect x="12" y="14" width="1" height="1" fill="rgb(23,22,22)" fill-opacity="0.9609375"/>
  <rect x="12" y="15" width="1" height="1" fill="rgb(179,155,155)" fill-opacity="0.34375"/>
  <rect x="12" y="16" width="1" height="1" fill="rgb(252,232,232)" fill-opacity="0.3125"/>
  <rect x="12" y="17" width="1" height="1" fill="rgb(142,78,78)" fill-opacity="0.375"/>
  <rect x="12" y="18" width="1" height="1" fill="rgb(87,5,5)" fill-opacity="0.2265625"/>
  <rect x="12" y="19" width="1" height="2" fill="rgb(255,255,255)" fill-opacity="0.0078125"/>
  <rect x="13" y="0" width="1" height="3" fill="rgb(255,255,255)" fill-opacity="0.0078125"/>
  <rect x="13" y="3" width="1" height="1" fill="rgb(26,26,26)" fill-opacity="0.125"/>
  <rect x="13" y="4" width="1" height="1" fill="rgb(109,109,109)" fill-opacity="0.765625"/>
  <rect x="13" y="5" width="1" height="1" fill="rgb(233,230,230)" fill-opacity="0.8046875"/>
  <rect x="13" y="6" width="1" height="1" fill="rgb(216,200,200)" fill-opacity="0.8828125"/>
  <rect x="13" y="7" width="1" height="1" fill="rgb(241,238,238)" fill-opacity="0.8828125"/>
  <rect x="13" y="8" width="1" height="1" fill="rgb(217,211,211)" fill-opacity="0.875"/>
  <rect x="13" y="9" width="1" height="1" fill="rgb(196,185,185)" fill-opacity="0.8671875"/>
  <rect x="13" y="10" width="1" height="1" fill="rgb(102,98,98)" fill-opacity="0.9140625"/>
  <rect x="13" y="11" width="1" height="1" fill="rgb(58,57,57)" fill-opacity="0.9453125"/>
  <rect x="13" y="12" width="1" height="1" fill="rgb(48,46,46)" fill-opacity="0.921875"/>
  <rect x="13" y="13" width="1" height="1" fill="rgb(54,50,50)" fill-opacity="0.7890625"/>
  <rect x="13" y="14" width="1" height="1" fill="rgb(189,159,159)" fill-opacity="0.3359375"/>
  <rect x="13" y="15" width="1" height="1" fill="rgb(248,225,225)" fill-opacity="0.3046875"/>
  <rect x="13" y="16" width="1" height="1" fill="rgb(207,168,168)" fill-opacity="0.3359375"/>
  <rect x="13" y="17" width="1" height="1" fill="rgb(92,8,8)" fill-opacity="0.3984375"/>
  <rect x="13" y="18" width="1" height="1" fill="rgb(109,0,0)" fill-opacity="0.03125"/>
  <rect x="13" y="19" width="1" height="2" fill="rgb(255,255,255)" fill-opacity="0.0078125"/>
  <rect x="14" y="0" width="1" height="3" fill="rgb(255,255,255)" fill-opacity="0.0078125"/>
  <rect x="14" y="3" width="1" height="1" fill="rgb(45,45,45)" fill-opacity="0.5"/>
  <rect x="14" y="4" width="1" height="2" fill="rgb(239,239,239)" fill-opacity="0.8046875"/>
  <rect x="14" y="6" width="1" height="1" fill="rgb(220,214,214)" fill-opacity="0.828125"/>
  <rect x="14" y="7" width="1" height="1" fill="rgb(181,167,167)" fill-opacity="0.8828125"/>
  <rect x="14" y="8" width="1" height="1" fill="rgb(199,196,196)" fill-opacity="0.875"/>
  <rect x="14" y="9" width="1" height="1" fill="rgb(151,147,147)" fill-opacity="0.8671875"/>
  <rect x="14" y="10" width="1" height="1" fill="rgb(98,86,86)" fill-opacity="0.6796875"/>
  <rect x="14" y="11" width="1" height="1" fill="rgb(209,167,167)" fill-opacity="0.3359375"/>
  <rect x="14" y="12" width="1" height="1" fill="rgb(248,202,202)" fill-opacity="0.2890625"/>
  <rect x="14" y="13" width="1" height="1" fill="rgb(252,220,220)" fill-opacity="0.2890625"/>
  <rect x="14" y="14" width="1" height="1" fill="rgb(252,232,232)" fill-opacity="0.3125"/>
  <rect x="14" y="15" width="1" height="1" fill="rgb(207,168,168)" fill-opacity="0.3359375"/>
  <rect x="14" y="16" width="1" height="1" fill="rgb(96,17,17)" fill-opacity="0.4140625"/>
  <rect x="14" y="17" width="1" height="1" fill="rgb(82,0,0)" fill-opacity="0.125"/>
  <rect x="14" y="18" width="1" height="3" fill="rgb(255,255,255)" fill-opacity="0.0078125"/>
  <rect x="15" y="0" width="1" height="3" fill="rgb(255,255,255)" fill-opacity="0.0078125"/>
  <rect x="15" y="3" width="1" height="1" fill="rgb(66,66,66)" fill-opacity="0.734375"/>
  <rect x="15" y="4" width="1" height="1" fill="rgb(250,250,250)" fill-opacity="0.8046875"/>
  <rect x="15" y="5" width="1" height="1" fill="rgb(230,230,230)" fill-opacity="0.8046875"/>
  <rect x="15" y="6" width="1" height="1" fill="rgb(196,196,196)" fill-opacity="0.8046875"/>
  <rect x="15" y="7" width="1" height="1" fill="rgb(156,150,150)" fill-opacity="0.828125"/>
  <rect x="15" y="8" width="1" height="1" fill="rgb(146,130,130)" fill-opacity="0.8828125"/>
  <rect x="15" y="9" width="1" height="1" fill="rgb(73,61,61)" fill-opacity="0.8359375"/>
  <rect x="15" y="10" width="1" height="1" fill="rgb(198,172,172)" fill-opacity="0.390625"/>
  <rect x="15" y="11" width="1" height="1" fill="rgb(241,218,218)" fill-opacity="0.3515625"/>
  <rect x="15" y="12" width="1" height="1" fill="rgb(232,211,211)" fill-opacity="0.34375"/>
  <rect x="15" y="13" width="1" height="1" fill="rgb(200,162,162)" fill-opacity="0.3515625"/>
  <rect x="15" y="14" width="1" height="1" fill="rgb(142,78,78)" fill-opacity="0.375"/>
  <rect x="15" y="15" width="1" height="1" fill="rgb(92,8,8)" fill-opacity="0.3984375"/>
  <rect x="15" y="16" width="1" height="1" fill="rgb(82,0,0)" fill-opacity="0.125"/>
  <rect x="15" y="17" width="1" height="4" fill="rgb(255,255,255)" fill-opacity="0.0078125"/>
  <rect x="16" y="0" width="1" height="3" fill="rgb(255,255,255)" fill-opacity="0.0078125"/>
  <rect x="16" y="3" width="1" height="1" fill="rgb(46,46,46)" fill-opacity="0.484375"/>
  <rect x="16" y="4" width="1" height="1" fill="rgb(219,219,219)" fill-opacity="0.8046875"/>
  <rect x="16" y="5" width="1" height="1" fill="rgb(206,206,206)" fill-opacity="0.8046875"/>
  <rect x="16" y="6" width="1" height="1" fill="rgb(156,156,156)" fill-opacity="0.8046875"/>
  <rect x="16" y="7" width="1" height="1" fill="rgb(139,139,139)" fill-opacity="0.8046875"/>
  <rect x="16" y="8" width="1" height="1" fill="rgb(134,133,133)" fill-opacity="0.8046875"/>
  <rect x="16" y="9" width="1" height="1" fill="rgb(56,42,42)" fill-opacity="0.703125"/>
  <rect x="16" y="10" width="1" height="1" fill="rgb(93,12,12)" fill-opacity="0.3359375"/>
  <rect x="16" y="11" width="1" height="1" fill="rgb(90,5,5)" fill-opacity="0.4140625"/>
  <rect x="16" y="12" width="1" height="1" fill="rgb(91,5,5)" fill-opacity="0.4140625"/>
  <rect x="16" y="13" width="1" height="1" fill="rgb(94,12,12)" fill-opacity="0.3359375"/>
  <rect x="16" y="14" width="1" height="1" fill="rgb(87,5,5)" fill-opacity="0.2265625"/>
  <rect x="16" y="15" width="1" height="1" fill="rgb(109,0,0)" fill-opacity="0.03125"/>
  <rect x="16" y="16" width="1" height="5" fill="rgb(255,255,255)" fill-opacity="0.0078125"/>
  <rect x="17" y="0" width="1" height="3" fill="rgb(255,255,255)" fill-opacity="0.0078125"/>
  <rect x="17" y="3" width="1" height="1" fill="rgb(20,20,20)" fill-opacity="0.109375"/>
  <rect x="17" y="4" width="1" height="1" fill="rgb(84,84,84)" fill-opacity="0.7578125"/>
  <rect x="17" y="5" width="1" height="1" fill="rgb(180,180,180)" fill-opacity="0.796875"/>
  <rect x="17" y="6" width="1" height="1" fill="rgb(165,165,165)" fill-opacity="0.8046875"/>
  <rect x="17" y="7" width="1" height="1" fill="rgb(122,122,122)" fill-opacity="0.796875"/>
  <rect x="17" y="8" width="1" height="1" fill="rgb(49,49,49)" fill-opacity="0.7421875"/>
  <rect x="17" y="9" width="1" height="1" fill="rgb(27,27,27)" fill-opacity="0.15625"/>
  <rect x="17" y="10" width="1" height="11" fill="rgb(255,255,255)" fill-opacity="0.0078125"/>
  <rect x="18" y="0" width="1" height="4" fill="rgb(255,255,255)" fill-opacity="0.0078125"/>
  <rect x="18" y="4" width="1" height="1" fill="rgb(26,26,26)" fill-opacity="0.125"/>
  <rect x="18" y="5" width="1" height="1" fill="rgb(46,46,46)" fill-opacity="0.484375"/>
  <rect x="18" y="6" width="1" height="1" fill="rgb(48,48,48)" fill-opacity="0.71875"/>
  <rect x="18" y="7" width="1" height="1" fill="rgb(45,45,45)" fill-opacity="0.453125"/>
  <rect x="18" y="8" width="1" height="1" fill="rgb(23,23,23)" fill-opacity="0.09375"/>
  <rect x="18" y="9" width="1" height="12" fill="rgb(255,255,255)" fill-opacity="0.0078125"/>
  <rect x="19" y="0" width="1" height="21" fill="rgb(255,255,255)" fill-opacity="0.0078125"/>
  <rect x="20" y="0" width="1" height="21" fill="rgb(255,255,255)" fill-opacity="0.0078125"/>
</svg>