<svg xmlns="http://www.w3.org/2000/svg" shape-rendering="crispEdges" width="21" height="21" viewBox="0 0 21 21">
  <rect x="0" y="0" width="1" height="21" fill="rgb(255,255,255)" fill-opacity="0.0078125"/>
  <rect x="1" y="0" width="1" height="21" fill="rgb(255,255,255)" fill-opacity="0.0078125"/>
  <rect x="2" y="0" width="1" height="21" fill="rgb(255,255,255)" fill-opacity="0.0078125"/>
  <rect x="3" y="0" width="1" height="21" fill="rgb(255,255,255)" fill-opacity="0.0078125"/>
  <rect x="4" y="0" width="1" height="21" fill="rgb(255,255,255)" fill-opacity="0.0078125"/>
  <rect x="5" y="0" width="1" height="6" fill="rgb(255,255,255)" fill-opacity="0.0078125"/>
  <rect x="5" y="6" width="1" height="1" fill="rgb(33,33,33)" fill-opacity="0.7265625"/>
  <rect x="5" y="7" width="1" height="1" fill="rgb(57,57,57)"/>
  <rect x="5" y="8" width="1" height="1" fill="rgb(50,50,50)"/>
  <rect x="5" y="9" width="1" height="1" fill="rgb(43,43,43)"/>
  <rect x="5" y="10" width="1" height="1" fill="rgb(36,36,36)"/>
  <rect x="5" y="11" width="1" height="1" fill="rgb(28,28,28)"/>
  <rect x="5" y="12" width="1" height="1" fill="rgb(21,21,21)"/>
  <rect x="5" y="13" width="1" height="1" fill="rgb(19,19,19)"/>
  <rect x="5" y="14" width="1" height="1" fill="rgb(18,18,18)" fill-opacity="0.9609375"/>
  <rect x="5" y="15" width="1" height="1" fill="rgb(0,0,0)" fill-opacity="0.0234375"/>
  <rect x="5" y="16" width="1" height="5" fill="rgb(255,255,255)" fill-opacity="0.0078125"/>
  <rect x="6" y="0" width="1" height="5" fill="rgb(255,255,255)" fill-opacity="0.0078125"/>
  <rect x="6" y="5" width="1" height="1" fill="rgb(26,26,26)" fill-opacity="0.046875"/>
  <rect x="6" y="6" width="1" height="1" fill="rgb(88,88,88)" fill-opacity="0.984375"/>
  <rect x="6" y="7" width="1" height="1" fill="rgb(251,251,251)"/>
  <rect x="6" y="8" width="1" height="2" fill="rgb(255,255,255)"/>
  <rect x="6" y="10" width="1" height="1" fill="rgb(254,254,254)"/>
  <rect x="6" y="11" width="1" height="1" fill="rgb(253,253,253)"/>
  <rect x="6" y="12" width="1" height="2" fill="rgb(252,252,252)"/>
  <rect x="6" y="14" width="1" height="1" fill="rgb(67,67,67)"/>
  <rect x="6" y="15" width="1" height="1" fill="rgb(16,16,16)" fill-opacity="0.5703125"/>
  <rect x="6" y="16" width="1" height="5" fill="rgb(255,255,255)" fill-opacity="0.0078125"/>
  <rect x="7" y="0" width="1" height="5" fill="rgb(255,255,255)" fill-opacity="0.0078125"/>
  <rect x="7" y="5" width="1" height="1" fill="rgb(19,19,19)" fill-opacity="0.4140625"/>
  <rect x="7" y="6" width="1" height="1" fill="rgb(159,159,159)"/>
  <rect x="7" y="7" width="1" height="1" fill="rgb(252,252,252)"/>
  <rect x="7" y="8" width="1" height="1" fill="rgb(245,245,245)"/>
  <rect x="7" y="9" width="1" height="4" fill="rgb(236,236,236)"/>
  <rect x="7" y="13" width="1" height="1" fill="rgb(240,240,240)"/>
  <rect x="7" y="14" width="1" height="1" fill="rgb(213,213,213)"/>
  <rect x="7" y="15" width="1" height="1" fill="rgb(18,18,18)" fill-opacity="0.984375"/>
  <rect x="7" y="16" width="1" height="1" fill="rgb(21,21,21)" fill-opacity="0.0546875"/>
  <rect x="7" y="17" width="1" height="4" fill="rgb(255,255,255)" fill-opacity="0.0078125"/>
  <rect x="8" y="0" width="1" height="5" fill="rgb(255,255,255)" fill-opacity="0.0078125"/>
  <rect x="8" y="5" width="1" height="1" fill="rgb(48,48,48)" fill-opacity="0.8125"/>
  <rect x="8" y="6" width="1" height="1" fill="rgb(219,219,219)"/>
  <rect x="8" y="7" width="1" height="1" fill="rgb(249,249,249)"/>
  <rect x="8" y="8" width="1" height="1" fill="rgb(253,253,253)"/>
  <rect x="8" y="9" width="1" height="1" fill="rgb(237,237,237)"/>
  <rect x="8" y="10" width="1" height="4" fill="rgb(236,236,236)"/>
  <rect x="8" y="14" width="1" height="1" fill="rgb(245,245,245)"/>
  <rect x="8" y="15" width="1" height="1" fill="rgb(91,91,91)"/>
  <rect x="8" y="16" width="1" height="1" fill="rgb(16,16,16)" fill-opacity="0.6796875"/>
  <rect x="8" y="17" width="1" height="4" fill="rgb(255,255,255)" fill-opacity="0.0078125"/>
  <rect x="9" y="0" width="1" height="4" fill="rgb(255,255,255)" fill-opacity="0.0078125"/>
  <rect x="9" y="4" width="1" height="1" fill="rgb(28,28,28)" fill-opacity="0.109375"/>
  <rect x="9" y="5" width="1" height="1" fill="rgb(107,107,107)"/>
  <rect x="9" y="6" width="1" height="2" fill="rgb(246,246,246)"/>
  <rect x="9" y="8" width="1" height="1" fill="rgb(253,253,253)"/>
  <rect x="9" y="9" width="1" height="1" fill="rgb(243,243,243)"/>
  <rect x="9" y="10" width="1" height="4" fill="rgb(236,236,236)"/>
  <rect x="9" y="14" width="1" height="1" fill="rgb(238,238,238)"/>
  <rect x="9" y="15" width="1" height="1" fill="rgb(225,225,225)"/>
  <rect x="9" y="16" width="1" height="1" fill="rgb(20,20,20)" fill-opacity="0.9921875"/>
  <rect x="9" y="17" width="1" height="1" fill="rgb(19,19,19)" fill-opacity="0.109375"/>
  <rect x="9" y="18" width="1" height="3" fill="rgb(255,255,255)" fill-opacity="0.0078125"/>
  <rect x="10" y="0" width="1" height="4" fill="rgb(255,255,255)" fill-opacity="0.0078125"/>
  <rect x="10" y="4" width="1" height="1" fill="rgb(26,26,26)" fill-opacity="0.5"/>
  <rect x="10" y="5" width="1" height="1" fill="rgb(185,185,185)"/>
  <rect x="10" y="6" width="1" height="2" fill="rgb(246,246,246)"/>
  <rect x="10" y="8" width="1" height="1" fill="rgb(249,249,249)"/>
  <rect x="10" y="9" width="1" height="1" fill="rgb(252,252,252)"/>
  <rect x="10" y="10" width="1" height="5" fill="rgb(236,236,236)"/>
  <rect x="10" y="15" width="1" height="1" fill="rgb(241,241,241)"/>
  <rect x="10" y="16" width="1" height="1" fill="rgb(113,113,113)"/>
  <rect x="10" y="17" width="1" height="1" fill="rgb(18,18,18)" fill-opacity="0.7734375"/>
  <rect x="10" y="18" width="1" height="3" fill="rgb(255,255,255)" fill-opacity="0.0078125"/>
  <rect x="11" y="0" width="1" height="4" fill="rgb(255,255,255)" fill-opacity="0.0078125"/>
  <rect x="11" y="4" width="1" height="1" fill="rgb(50,50,50)" fill-opacity="0.796875"/>
  <rect x="11" y="5" width="1" height="1" fill="rgb(225,225,225)"/>
  <rect x="11" y="6" width="1" height="2" fill="rgb(246,246,246)"/>
  <rect x="11" y="8" width="1" height="1" fill="rgb(247,247,247)"/>
  <rect x="11" y="9" width="1" height="1" fill="rgb(255,255,255)"/>
  <rect x="11" y="10" width="1" height="1" fill="rgb(248,248,248)"/>
  <rect x="11" y="11" width="1" height="1" fill="rgb(245,245,245)"/>
  <rect x="11" y="12" width="1" height="1" fill="rgb(242,242,242)"/>
  <rect x="11" y="13" width="1" height="1" fill="rgb(240,240,240)"/>
  <rect x="11" y="14" width="1" height="2" fill="rgb(238,238,238)"/>
  <rect x="11" y="16" width="1" height="1" fill="rgb(223,223,223)"/>
  <rect x="11" y="17" width="1" height="1" fill="rgb(14,14,14)"/>
  <rect x="11" y="18" width="1" height="1" fill="rgb(36,36,36)" fill-opacity="0.03125"/>
  <rect x="11" y="19" width="1" height="2" fill="rgb(255,255,255)" fill-opacity="0.0078125"/>
  <rect x="12" y="0" width="1" height="4" fill="rgb(255,255,255)" fill-opacity="0.0078125"/>
  <rect x="12" y="4" width="1" height="1" fill="rgb(26,26,26)" fill-opacity="0.5"/>
  <rect x="12" y="5" width="1" height="1" fill="rgb(184,184,184)"/>
  <rect x="12" y="6" width="1" height="2" fill="rgb(246,246,246)"/>
  <rect x="12" y="8" width="1" height="1" fill="rgb(248,248,248)"/>
  <rect x="12" y="9" width="1" height="1" fill="rgb(240,240,240)"/>
  <rect x="12" y="10" width="1" height="5" fill="rgb(202,202,202)"/>
  <rect x="12" y="15" width="1" height="1" fill="rgb(212,212,212)"/>
  <rect x="12" y="16" width="1" height="1" fill="rgb(103,103,103)"/>
  <rect x="12" y="17" width="1" height="1" fill="rgb(18,18,18)" fill-opacity="0.7734375"/>
  <rect x="12" y="18" width="1" height="3" fill="rgb(255,255,255)" fill-opacity="0.0078125"/>
  <rect x="13" y="0" width="1" height="4" fill="rgb(255,255,255)" fill-opacity="0.0078125"/>
  <rect x="13" y="4" width="1" height="1" fill="rgb(28,28,28)" fill-opacity="0.109375"/>
  <rect x="13" y="5" width="1" height="1" fill="rgb(110,110,110)"/>
  <rect x="13" y="6" width="1" height="2" fill="rgb(246,246,246)"/>
  <rect x="13" y="8" width="1" height="1" fill="rgb(245,245,245)"/>
  <rect x="13" y="9" width="1" height="1" fill="rgb(216,216,216)"/>
  <rect x="13" y="10" width="1" height="4" fill="rgb(202,202,202)"/>
  <rect x="13" y="14" width="1" height="1" fill="rgb(204,204,204)"/>
  <rect x="13" y="15" width="1" height="1" fill="rgb(197,197,197)"/>
  <rect x="13" y="16" width="1" height="1" fill="rgb(19,19,19)" fill-opacity="0.9921875"/>
  <rect x="13" y="17" width="1" height="1" fill="rgb(19,19,19)" fill-opacity="0.109375"/>
  <rect x="13" y="18" width="1" height="3" fill="rgb(255,255,255)" fill-opacity="0.0078125"/>
  <rect x="14" y="0" width="1" height="5" fill="rgb(255,255,255)" fill-opacity="0.0078125"/>
  <rect x="14" y="5" width="1" height="1" fill="rgb(48,48,48)" fill-opacity="0.8125"/>
  <rect x="14" y="6" width="1" height="1" fill="rgb(216,216,216)"/>
  <rect x="14" y="7" width="1" height="1" fill="rgb(248,248,248)"/>
  <rect x="14" y="8" width="1" height="1" fill="rgb(235,235,235)"/>
  <rect x="14" y="9" width="1" height="5" fill="rgb(202,202,202)"/>
  <rect x="14" y="14" width="1" height="1" fill="rgb(210,210,210)"/>
  <rect x="14" y="15" width="1" height="1" fill="rgb(78,78,78)"/>
  <rect x="14" y="16" width="1" height="1" fill="rgb(16,16,16)" fill-opacity="0.6796875"/>
  <rect x="14" y="17" width="1" height="4" fill="rgb(255,255,255)" fill-opacity="0.0078125"/>
  <rect x="15" y="0" width="1" height="5" fill="rgb(255,255,255)" fill-opacity="0.0078125"/>
  <rect x="15" y="5" width="1" height="1" fill="rgb(19,19,19)" fill-opacity="0.4140625"/>
  <rect x="15" y="6" width="1" height="1" fill="rgb(154,154,154)"/>
  <rect x="15" y="7" width="1" height="1" fill="rgb(241,241,241)"/>
  <rect x="15" y="8" width="1" height="1" fill="rgb(216,216,216)"/>
  <rect x="15" y="9" width="1" height="4" fill="rgb(202,202,202)"/>
  <rect x="15" y="13" width="1" height="1" fill="rgb(205,205,205)"/>
  <rect x="15" y="14" width="1" height="1" fill="rgb(180,180,180)"/>
  <rect x="15" y="15" width="1" height="1" fill="rgb(17,17,17)" fill-opacity="0.984375"/>
  <rect x="15" y="16" width="1" height="1" fill="rgb(21,21,21)" fill-opacity="0.0546875"/>
  <rect x="15" y="17" width="1" height="4" fill="rgb(255,255,255)" fill-opacity="0.0078125"/>
  <rect x="16" y="0" width="1" height="5" fill="rgb(255,255,255)" fill-opacity="0.0078125"/>
  <rect x="16" y="5" width="1" height="1" fill="rgb(26,26,26)" fill-opacity="0.046875"/>
  <rect x="16" y="6" width="1" height="1" fill="rgb(83,83,83)" fill-opacity="0.984375"/>
  <rect x="16" y="7" width="1" height="1" fill="rgb(229,229,229)"/>
  <rect x="16" y="8" width="1" height="1" fill="rgb(222,222,222)"/>
  <rect x="16" y="9" width="1" height="1" fill="rgb(219,219,219)"/>
  <rect x="16" y="10" width="1" height="1" fill="rgb(216,216,216)"/>
  <rect x="16" y="11" width="1" height="1" fill="rgb(214,214,214)"/>
  <rect x="16" y="12" width="1" height="1" fill="rgb(211,211,211)"/>
  <rect x="16" y="13" width="1" height="1" fill="rgb(209,209,209)"/>
  <rect x="16" y="14" width="1" height="1" fill="rgb(56,56,56)"/>
  <rect x="16" y="15" width="1" height="1" fill="rgb(16,16,16)" fill-opacity="0.5703125"/>
  <rect x="16" y="16" width="1" height="5" fill="rgb(255,255,255)" fill-opacity="0.0078125"/>
  <rect x="17" y="0" width="1" height="6" fill="rgb(255,255,255)" fill-opacity="0.0078125"/>
  <rect x="17" y="6" width="1" height="1" fill="rgb(33,33,33)" fill-opacity="0.7265625"/>
  <rect x="17" y="7" width="1" height="1" fill="rgb(57,57,57)"/>
  <rect x="17" y="8" width="1" height="1" fill="rgb(50,50,50)"/>
  <rect x="17" y="9" width="1" height="1" fill="rgb(43,43,43)"/>
  <rect x="17" y="10" width="1" height="1" fill="rgb(36,36,36)"/>
  <rect x="17" y="11" width="1" height="1" fill="rgb(28,28,28)"/>
  <rect x="17" y="12" width="1" height="1" fill="rgb(21,21,21)"/>
  <rect x="17" y="13" width="1" height="1" fill="rgb(19,19,19)"/>
  <rect x="17" y="14" width="1" height="1" fill="rgb(18,18,18)" fill-opacity="0.9609375"/>
  <rect x="17" y="15" width="1" height="1" fill="rgb(0,0,0)" fill-opacity="0.0234375"/>
  <rect x="17" y="16" width="1" height="5" fill="rgb(255,255,255)" fill-opacity="0.0078125"/>
  <rect x="18" y="0" width="1" height="21" fill="rgb(255,255,255)" fill-opacity="0.0078125"/>
  <rect x="19" y="0" width="1" height="21" fill="rgb(255,255,255)" fill-opacity="0.0078125"/>
  <rect x="20" y="0" width="1" height="21" fill="rgb(255,255,255)" fill-opacity="0.0078125"/>
</svg>