<svg xmlns="http://www.w3.org/2000/svg" shape-rendering="crispEdges" width="21" height="21" viewBox="0 0 21 21">
  <rect x="0" y="0" width="1" height="21" fill="rgb(255,255,255)" fill-opacity="0.0078125"/>
  <rect x="1" y="0" width="1" height="21" fill="rgb(255,255,255)" fill-opacity="0.0078125"/>
  <rect x="2" y="0" width="1" height="21" fill="rgb(255,255,255)" fill-opacity="0.0078125"/>
  <rect x="3" y="0" width="1" height="3" fill="rgb(255,255,255)" fill-opacity="0.0078125"/>
  <rect x="3" y="3" width="1" height="1" fill="rgb(4,55,132)" fill-opacity="0.9140625"/>
  <rect x="3" y="4" width="1" height="2" fill="rgb(0,51,128)"/>
  <rect x="3" y="6" width="1" height="1" fill="rgb(4,55,132)" fill-opacity="0.9140625"/>
  <rect x="3" y="7" width="1" height="8" fill="rgb(255,0,0)" fill-opacity="0.015625"/>
  <rect x="3" y="15" width="1" height="1" fill="rgb(4,55,132)" fill-opacity="0.9140625"/>
  <rect x="3" y="16" width="1" height="2" fill="rgb(0,51,128)"/>
  <rect x="3" y="18" width="1" height="1" fill="rgb(4,55,132)" fill-opacity="0.9140625"/>
  <rect x="3" y="19" width="1" height="2" fill="rgb(255,255,255)" fill-opacity="0.0078125"/>
  <rect x="4" y="0" width="1" height="3" fill="rgb(255,255,255)" fill-opacity="0.0078125"/>
  <rect x="4" y="3" width="1" height="1" fill="rgb(0,51,128)"/>
  <rect x="4" y="4" width="1" height="1" fill="rgb(204,225,255)"/>
  <rect x="4" y="5" width="1" height="1" fill="rgb(192,217,255)"/>
  <rect x="4" y="6" width="1" height="1" fill="rgb(6,56,133)"/>
  <rect x="4" y="7" width="1" height="8" fill="rgb(35,81,153)" fill-opacity="0.65625"/>
  <rect x="4" y="15" width="1" height="1" fill="rgb(4,55,131)"/>
  <rect x="4" y="16" width="1" height="1" fill="rgb(204,225,255)"/>
  <rect x="4" y="17" width="1" height="1" fill="rgb(192,217,255)"/>
  <rect x="4" y="18" width="1" height="1" fill="rgb(0,51,128)"/>
  <rect x="4" y="19" width="1" height="2" fill="rgb(255,255,255)" fill-opacity="0.0078125"/>
  <rect x="5" y="0" width="1" height="3" fill="rgb(255,255,255)" fill-opacity="0.0078125"/>
  <rect x="5" y="3" width="1" height="1" fill="rgb(0,51,128)"/>
  <rect x="5" y="4" width="1" height="1" fill="rgb(192,217,255)"/>
  <rect x="5" y="5" width="1" height="1" fill="rgb(128,179,255)"/>
  <rect x="5" y="6" width="1" height="1" fill="rgb(68,112,179)"/>
  <rect x="5" y="7" width="1" height="8" fill="rgb(170,203,254)" fill-opacity="0.7109375"/>
  <rect x="5" y="15" width="1" height="1" fill="rgb(68,112,179)"/>
  <rect x="5" y="16" width="1" height="1" fill="rgb(192,217,255)"/>
  <rect x="5" y="17" width="1" height="1" fill="rgb(128,179,255)"/>
  <rect x="5" y="18" width="1" height="1" fill="rgb(0,51,128)"/>
  <rect x="5" y="19" width="1" height="2" fill="rgb(255,255,255)" fill-opacity="0.0078125"/>
  <rect x="6" y="0" width="1" height="3" fill="rgb(255,255,255)" fill-opacity="0.0078125"/>
  <rect x="6" y="3" width="1" height="1" fill="rgb(4,55,132)" fill-opacity="0.9140625"/>
  <rect x="6" y="4" width="1" height="1" fill="rgb(4,55,131)"/>
  <rect x="6" y="5" width="1" height="1" fill="rgb(68,112,179)"/>
  <rect x="6" y="6" width="1" height="1" fill="rgb(14,63,139)" fill-opacity="0.9375"/>
  <rect x="6" y="7" width="1" height="8" fill="rgb(35,81,153)" fill-opacity="0.65625"/>
  <rect x="6" y="15" width="1" height="1" fill="rgb(14,63,138)" fill-opacity="0.9375"/>
  <rect x="6" y="16" width="1" height="1" fill="rgb(68,112,179)"/>
  <rect x="6" y="17" width="1" height="1" fill="rgb(6,56,133)"/>
  <rect x="6" y="18" width="1" height="1" fill="rgb(4,55,132)" fill-opacity="0.9140625"/>
  <rect x="6" y="19" width="1" height="2" fill="rgb(255,255,255)" fill-opacity="0.0078125"/>
  <rect x="7" y="0" width="1" height="3" fill="rgb(255,255,255)" fill-opacity="0.0078125"/>
  <rect x="7" y="3" width="1" height="1" fill="rgb(255,0,0)" fill-opacity="0.015625"/>
  <rect x="7" y="4" width="1" height="1" fill="rgb(35,81,153)" fill-opacity="0.65625"/>
  <rect x="7" y="5" width="1" height="1" fill="rgb(170,203,254)" fill-opacity="0.7109375"/>
  <rect x="7" y="6" width="1" height="1" fill="rgb(35,81,153)" fill-opacity="0.65625"/>
  <rect x="7" y="7" width="1" height="8" fill="rgb(255,0,0)" fill-opacity="0.015625"/>
  <rect x="7" y="15" width="1" height="1" fill="rgb(35,81,153)" fill-opacity="0.65625"/>
  <rect x="7" y="16" width="1" height="1" fill="rgb(170,203,254)" fill-opacity="0.7109375"/>
  <rect x="7" y="17" width="1" height="1" fill="rgb(35,81,153)" fill-opacity="0.65625"/>
  <rect x="7" y="18" width="1" height="1" fill="rgb(255,0,0)" fill-opacity="0.015625"/>
  <rect x="7" y="19" width="1" height="2" fill="rgb(255,255,255)" fill-opacity="0.0078125"/>
  <rect x="8" y="0" width="1" height="3" fill="rgb(255,255,255)" fill-opacity="0.0078125"/>
  <rect x="8" y="3" width="1" height="1" fill="rgb(255,0,0)" fill-opacity="0.015625"/>
  <rect x="8" y="4" width="1" height="1" fill="rgb(35,81,153)" fill-opacity="0.65625"/>
  <rect x="8" y="5" width="1" height="1" fill="rgb(170,203,254)" fill-opacity="0.7109375"/>
  <rect x="8" y="6" width="1" height="1" fill="rgb(35,81,153)" fill-opacity="0.65625"/>
  <rect x="8" y="7" width="1" height="8" fill="rgb(255,0,0)" fill-opacity="0.015625"/>
  <rect x="8" y="15" width="1" height="1" fill="rgb(35,81,153)" fill-opacity="0.65625"/>
  <rect x="8" y="16" width="1" height="1" fill="rgb(170,203,254)" fill-opacity="0.7109375"/>
  <rect x="8" y="17" width="1" height="1" fill="rgb(35,81,153)" fill-opacity="0.65625"/>
  <rect x="8" y="18" width="1" height="1" fill="rgb(255,0,0)" fill-opacity="0.015625"/>
  <rect x="8" y="19" width="1" height="2" fill="rgb(255,255,255)" fill-opacity="0.0078125"/>
  <rect x="9" y="0" width="1" height="3" fill="rgb(255,255,255)" fill-opacity="0.0078125"/>
  <rect x="9" y="3" width="1" height="1" fill="rgb(255,0,0)" fill-opacity="0.015625"/>
  <rect x="9" y="4" width="1" height="1" fill="rgb(35,81,153)" fill-opacity="0.65625"/>
  <rect x="9" y="5" width="1" height="1" fill="rgb(170,203,254)" fill-opacity="0.7109375"/>
  <rect x="9" y="6" width="1" height="1" fill="rgb(35,81,153)" fill-opacity="0.65625"/>
  <rect x="9" y="7" width="1" height="1" fill="rgb(16,0,0)" fill-opacity="0.125"/>
  <rect x="9" y="8" width="1" height="1" fill="rgb(2,0,0)" fill-opacity="0.5546875"/>
  <rect x="9" y="9" width="1" height="1" fill="rgb(16,16,16)" fill-opacity="0.765625"/>
  <rect x="9" y="10" width="1" height="1" fill="rgb(73,73,73)" fill-opacity="0.9453125"/>
  <rect x="9" y="11" width="1" height="1" fill="rgb(72,72,72)" fill-opacity="0.9453125"/>
  <rect x="9" y="12" width="1" height="1" fill="rgb(14,14,14)" fill-opacity="0.765625"/>
  <rect x="9" y="13" width="1" height="1" fill="rgb(2,0,0)" fill-opacity="0.5546875"/>
  <rect x="9" y="14" width="1" height="1" fill="rgb(16,0,0)" fill-opacity="0.125"/>
  <rect x="9" y="15" width="1" height="1" fill="rgb(35,81,153)" fill-opacity="0.65625"/>
  <rect x="9" y="16" width="1" height="1" fill="rgb(170,203,254)" fill-opacity="0.7109375"/>
  <rect x="9" y="17" width="1" height="1" fill="rgb(35,81,153)" fill-opacity="0.65625"/>
  <rect x="9" y="18" width="1" height="1" fill="rgb(255,0,0)" fill-opacity="0.015625"/>
  <rect x="9" y="19" width="1" height="2" fill="rgb(255,255,255)" fill-opacity="0.0078125"/>
  <rect x="10" y="0" width="1" height="3" fill="rgb(255,255,255)" fill-opacity="0.0078125"/>
  <rect x="10" y="3" width="1" height="1" fill="rgb(255,0,0)" fill-opacity="0.015625"/>
  <rect x="10" y="4" width="1" height="1" fill="rgb(35,81,153)" fill-opacity="0.65625"/>
  <rect x="10" y="5" width="1" height="1" fill="rgb(170,203,254)" fill-opacity="0.7109375"/>
  <rect x="10" y="6" width="1" height="1" fill="rgb(18,41,77)" fill-opacity="0.7890625"/>
  <rect x="10" y="7" width="1" height="1" fill="rgb(77,77,77)" fill-opacity="0.96875"/>
  <rect x="10" y="8" width="1" height="1" fill="rgb(221,221,221)"/>
  <rect x="10" y="9" width="1" height="1" fill="rgb(247,247,247)"/>
  <rect x="10" y="10" width="1" height="1" fill="rgb(245,245,245)"/>
  <rect x="10" y="11" width="1" height="1" fill="rgb(243,243,243)"/>
  <rect x="10" y="12" width="1" height="1" fill="rgb(240,240,240)"/>
  <rect x="10" y="13" width="1" height="1" fill="rgb(205,205,205)"/>
  <rect x="10" y="14" width="1" height="1" fill="rgb(66,66,66)" fill-opacity="0.9609375"/>
  <rect x="10" y="15" width="1" height="1" fill="rgb(18,41,77)" fill-opacity="0.7890625"/>
  <rect x="10" y="16" width="1" height="1" fill="rgb(170,203,254)" fill-opacity="0.7109375"/>
  <rect x="10" y="17" width="1" height="1" fill="rgb(35,81,153)" fill-opacity="0.65625"/>
  <rect x="10" y="18" width="1" height="1" fill="rgb(255,0,0)" fill-opacity="0.015625"/>
  <rect x="10" y="19" width="1" height="2" fill="rgb(255,255,255)" fill-opacity="0.0078125"/>
  <rect x="11" y="0" width="1" height="3" fill="rgb(255,255,255)" fill-opacity="0.0078125"/>
  <rect x="11" y="3" width="1" height="1" fill="rgb(255,0,0)" fill-opacity="0.015625"/>
  <rect x="11" y="4" width="1" height="1" fill="rgb(35,81,153)" fill-opacity="0.65625"/>
  <rect x="11" y="5" width="1" height="1" fill="rgb(97,115,145)" fill-opacity="0.8125"/>
  <rect x="11" y="6" width="1" height="1" fill="rgb(149,149,149)"/>
  <rect x="11" y="7" width="1" height="1" fill="rgb(250,250,250)"/>
  <rect x="11" y="8" width="1" height="1" fill="rgb(241,241,241)"/>
  <rect x="11" y="9" width="1" height="1" fill="rgb(173,173,173)"/>
  <rect x="11" y="10" width="1" height="1" fill="rgb(126,126,126)"/>
  <rect x="11" y="11" width="1" height="1" fill="rgb(123,123,123)"/>
  <rect x="11" y="12" width="1" height="1" fill="rgb(163,163,163)"/>
  <rect x="11" y="13" width="1" height="1" fill="rgb(228,228,228)"/>
  <rect x="11" y="14" width="1" height="1" fill="rgb(234,234,234)"/>
  <rect x="11" y="15" width="1" height="1" fill="rgb(123,123,123)"/>
  <rect x="11" y="16" width="1" height="1" fill="rgb(97,115,145)" fill-opacity="0.8125"/>
  <rect x="11" y="17" width="1" height="1" fill="rgb(35,81,153)" fill-opacity="0.65625"/>
  <rect x="11" y="18" width="1" height="1" fill="rgb(255,0,0)" fill-opacity="0.015625"/>
  <rect x="11" y="19" width="1" height="2" fill="rgb(255,255,255)" fill-opacity="0.0078125"/>
  <rect x="12" y="0" width="1" height="3" fill="rgb(255,255,255)" fill-opacity="0.0078125"/>
  <rect x="12" y="3" width="1" height="1" fill="rgb(255,0,0)" fill-opacity="0.015625"/>
  <rect x="12" y="4" width="1" height="1" fill="rgb(31,72,137)" fill-opacity="0.6796875"/>
  <rect x="12" y="5" width="1" height="1" fill="rgb(68,69,71)" fill-opacity="0.984375"/>
  <rect x="12" y="6" width="1" height="1" fill="rgb(250,250,250)"/>
  <rect x="12" y="7" width="1" height="1" fill="rgb(220,220,220)"/>
  <rect x="12" y="8" width="1" height="1" fill="rgb(34,34,34)" fill-opacity="0.859375"/>
  <rect x="12" y="9" width="1" height="1" fill="rgb(3,0,0)" fill-opacity="0.328125"/>
  <rect x="12" y="10" width="1" height="2" fill="rgb(20,0,0)" fill-opacity="0.109375"/>
  <rect x="12" y="12" width="1" height="1" fill="rgb(3,0,0)" fill-opacity="0.328125"/>
  <rect x="12" y="13" width="1" height="1" fill="rgb(29,29,29)" fill-opacity="0.859375"/>
  <rect x="12" y="14" width="1" height="1" fill="rgb(197,197,197)"/>
  <rect x="12" y="15" width="1" height="1" fill="rgb(229,229,229)"/>
  <rect x="12" y="16" width="1" height="1" fill="rgb(54,56,58)" fill-opacity="0.984375"/>
  <rect x="12" y="17" width="1" height="1" fill="rgb(31,72,137)" fill-opacity="0.6796875"/>
  <rect x="12" y="18" width="1" height="1" fill="rgb(255,0,0)" fill-opacity="0.015625"/>
  <rect x="12" y="19" width="1" height="2" fill="rgb(255,255,255)" fill-opacity="0.0078125"/>
  <rect x="13" y="0" width="1" height="3" fill="rgb(255,255,255)" fill-opacity="0.0078125"/>
  <rect x="13" y="3" width="1" height="1" fill="rgb(255,0,0)" fill-opacity="0.015625"/>
  <rect x="13" y="4" width="1" height="1" fill="rgb(15,33,60)" fill-opacity="0.828125"/>
  <rect x="13" y="5" width="1" height="1" fill="rgb(218,218,218)"/>
  <rect x="13" y="6" width="1" height="1" fill="rgb(247,247,247)"/>
  <rect x="13" y="7" width="1" height="1" fill="rgb(45,45,45)" fill-opacity="0.890625"/>
  <rect x="13" y="8" width="1" height="1" fill="rgb(43,0,0)" fill-opacity="0.0546875"/>
  <rect x="13" y="9" width="1" height="4" fill="rgb(255,0,0)" fill-opacity="0.015625"/>
  <rect x="13" y="13" width="1" height="1" fill="rgb(43,0,0)" fill-opacity="0.0546875"/>
  <rect x="13" y="14" width="1" height="1" fill="rgb(38,38,38)" fill-opacity="0.890625"/>
  <rect x="13" y="15" width="1" height="1" fill="rgb(225,225,225)"/>
  <rect x="13" y="16" width="1" height="1" fill="rgb(182,182,182)"/>
  <rect x="13" y="17" width="1" height="1" fill="rgb(15,33,60)" fill-opacity="0.828125"/>
  <rect x="13" y="18" width="1" height="1" fill="rgb(255,0,0)" fill-opacity="0.015625"/>
  <rect x="13" y="19" width="1" height="2" fill="rgb(255,255,255)" fill-opacity="0.0078125"/>
  <rect x="14" y="0" width="1" height="3" fill="rgb(255,255,255)" fill-opacity="0.0078125"/>
  <rect x="14" y="3" width="1" height="1" fill="rgb(255,0,0)" fill-opacity="0.015625"/>
  <rect x="14" y="4" width="1" height="1" fill="rgb(8,18,34)" fill-opacity="0.8984375"/>
  <rect x="14" y="5" width="1" height="1" fill="rgb(249,249,249)"/>
  <rect x="14" y="6" width="1" height="1" fill="rgb(191,191,191)"/>
  <rect x="14" y="7" width="1" height="1" fill="rgb(3,0,0)" fill-opacity="0.3671875"/>
  <rect x="14" y="8" width="1" height="6" fill="rgb(255,0,0)" fill-opacity="0.015625"/>
  <rect x="14" y="14" width="1" height="1" fill="rgb(3,0,0)" fill-opacity="0.3671875"/>
  <rect x="14" y="15" width="1" height="1" fill="rgb(162,162,162)"/>
  <rect x="14" y="16" width="1" height="1" fill="rgb(221,221,221)"/>
  <rect x="14" y="17" width="1" height="1" fill="rgb(8,18,34)" fill-opacity="0.8984375"/>
  <rect x="14" y="18" width="1" height="1" fill="rgb(255,0,0)" fill-opacity="0.015625"/>
  <rect x="14" y="19" width="1" height="2" fill="rgb(255,255,255)" fill-opacity="0.0078125"/>
  <rect x="15" y="0" width="1" height="3" fill="rgb(255,255,255)" fill-opacity="0.0078125"/>
  <rect x="15" y="3" width="1" height="1" fill="rgb(29,26,26)" fill-opacity="0.28125"/>
  <rect x="15" y="4" width="1" height="1" fill="rgb(38,38,38)" fill-opacity="0.9921875"/>
  <rect x="15" y="5" width="1" height="1" fill="rgb(202,202,202)"/>
  <rect x="15" y="6" width="1" height="1" fill="rgb(128,128,128)"/>
  <rect x="15" y="7" width="1" height="1" fill="rgb(12,0,0)" fill-opacity="0.1796875"/>
  <rect x="15" y="8" width="1" height="6" fill="rgb(255,0,0)" fill-opacity="0.015625"/>
  <rect x="15" y="14" width="1" height="1" fill="rgb(12,0,0)" fill-opacity="0.1796875"/>
  <rect x="15" y="15" width="1" height="1" fill="rgb(106,106,106)"/>
  <rect x="15" y="16" width="1" height="1" fill="rgb(183,183,183)"/>
  <rect x="15" y="17" width="1" height="1" fill="rgb(28,29,30)" fill-opacity="0.9921875"/>
  <rect x="15" y="18" width="1" height="1" fill="rgb(29,26,26)" fill-opacity="0.28125"/>
  <rect x="15" y="19" width="1" height="2" fill="rgb(255,255,255)" fill-opacity="0.0078125"/>
  <rect x="16" y="0" width="1" height="3" fill="rgb(255,255,255)" fill-opacity="0.0078125"/>
  <rect x="16" y="3" width="1" height="1" fill="rgb(26,26,26)" fill-opacity="0.8828125"/>
  <rect x="16" y="4" width="1" height="2" fill="rgb(255,255,255)"/>
  <rect x="16" y="6" width="1" height="1" fill="rgb(88,88,88)"/>
  <rect x="16" y="7" width="1" height="1" fill="rgb(64,0,0)" fill-opacity="0.0390625"/>
  <rect x="16" y="8" width="1" height="6" fill="rgb(255,0,0)" fill-opacity="0.015625"/>
  <rect x="16" y="14" width="1" height="1" fill="rgb(64,0,0)" fill-opacity="0.0390625"/>
  <rect x="16" y="15" width="1" height="1" fill="rgb(74,74,74)"/>
  <rect x="16" y="16" width="1" height="1" fill="rgb(245,245,245)"/>
  <rect x="16" y="17" width="1" height="1" fill="rgb(239,239,239)"/>
  <rect x="16" y="18" width="1" height="1" fill="rgb(26,26,26)" fill-opacity="0.8828125"/>
  <rect x="16" y="19" width="1" height="2" fill="rgb(255,255,255)" fill-opacity="0.0078125"/>
  <rect x="17" y="0" width="1" height="3" fill="rgb(255,255,255)" fill-opacity="0.0078125"/>
  <rect x="17" y="3" width="1" height="1" fill="rgb(26,26,26)" fill-opacity="0.8828125"/>
  <rect x="17" y="4" width="1" height="2" fill="rgb(255,255,255)"/>
  <rect x="17" y="6" width="1" height="1" fill="rgb(14,14,14)" fill-opacity="0.9375"/>
  <rect x="17" y="7" width="1" height="8" fill="rgb(255,0,0)" fill-opacity="0.015625"/>
  <rect x="17" y="15" width="1" height="1" fill="rgb(14,14,14)" fill-opacity="0.9375"/>
  <rect x="17" y="16" width="1" height="1" fill="rgb(239,239,239)"/>
  <rect x="17" y="17" width="1" height="1" fill="rgb(204,204,204)"/>
  <rect x="17" y="18" width="1" height="1" fill="rgb(26,26,26)" fill-opacity="0.8828125"/>
  <rect x="17" y="19" width="1" height="2" fill="rgb(255,255,255)" fill-opacity="0.0078125"/>
  <rect x="18" y="0" width="1" height="3" fill="rgb(255,255,255)" fill-opacity="0.0078125"/>
  <rect x="18" y="3" width="1" height="1" fill="rgb(29,26,26)" fill-opacity="0.28125"/>
  <rect x="18" y="4" width="1" height="2" fill="rgb(26,26,26)" fill-opacity="0.8828125"/>
  <rect x="18" y="6" width="1" height="1" fill="rgb(29,26,26)" fill-opacity="0.28125"/>
  <rect x="18" y="7" width="1" height="8" fill="rgb(255,0,0)" fill-opacity="0.015625"/>
  <rect x="18" y="15" width="1" height="1" fill="rgb(29,26,26)" fill-opacity="0.28125"/>
  <rect x="18" y="16" width="1" height="2" fill="rgb(26,26,26)" fill-opacity="0.8828125"/>
  <rect x="18" y="18" width="1" height="1" fill="rgb(29,26,26)" fill-opacity="0.28125"/>
  <rect x="18" y="19" width="1" height="2" fill="rgb(255,255,255)" fill-opacity="0.0078125"/>
  <rect x="19" y="0" width="1" height="21" fill="rgb(255,255,255)" fill-opacity="0.0078125"/>
  <rect x="20" y="0" width="1" height="21" fill="rgb(255,255,255)" fill-opacity="0.0078125"/>
</svg>