<svg xmlns="http://www.w3.org/2000/svg" shape-rendering="crispEdges" width="21" height="21" viewBox="0 0 21 21">
  <rect x="0" y="0" width="21" height="1" fill="rgb(255,255,255)" fill-opacity="0.0078125"/>
  <rect x="0" y="1" width="21" height="1" fill="rgb(255,255,255)" fill-opacity="0.0078125"/>
  <rect x="0" y="2" width="21" height="1" fill="rgb(255,255,255)" fill-opacity="0.0078125"/>
  <rect x="0" y="3" width="21" height="1" fill="rgb(255,255,255)" fill-opacity="0.0078125"/>
  <rect x="0" y="4" width="3" height="1" fill="rgb(255,255,255)" fill-opacity="0.0078125"/>
  <rect x="3" y="4" width="1" height="1" fill="rgb(18,18,18)" fill-opacity="0.0625"/>
  <rect x="4" y="4" width="1" height="1" fill="rgb(41,41,41)" fill-opacity="0.5625"/>
  <rect x="5" y="4" width="1" height="1" fill="rgb(42,42,42)" fill-opacity="0.8984375"/>
  <rect x="6" y="4" width="9" height="1" fill="rgb(44,44,44)" fill-opacity="0.9140625"/>
  <rect x="15" y="4" width="1" height="1" fill="rgb(42,42,42)" fill-opacity="0.8984375"/>
  <rect x="16" y="4" width="1" height="1" fill="rgb(41,41,41)" fill-opacity="0.5625"/>
  <rect x="17" y="4" width="1" height="1" fill="rgb(18,18,18)" fill-opacity="0.0625"/>
  <rect x="18" y="4" width="3" height="1" fill="rgb(255,255,255)" fill-opacity="0.0078125"/>
  <rect x="0" y="5" width="3" height="1" fill="rgb(255,255,255)" fill-opacity="0.0078125"/>
  <rect x="3" y="5" width="1" height="1" fill="rgb(41,41,41)" fill-opacity="0.5625"/>
  <rect x="4" y="5" width="1" height="1" fill="rgb(129,129,129)"/>
  <rect x="5" y="5" width="1" height="1" fill="rgb(173,173,173)"/>
  <rect x="6" y="5" width="1" height="1" fill="rgb(172,172,172)"/>
  <rect x="7" y="5" width="1" height="1" fill="rgb(167,167,167)"/>
  <rect x="8" y="5" width="1" height="1" fill="rgb(162,162,162)"/>
  <rect x="9" y="5" width="1" height="1" fill="rgb(158,158,158)"/>
  <rect x="10" y="5" width="1" height="1" fill="rgb(153,153,153)"/>
  <rect x="11" y="5" width="1" height="1" fill="rgb(135,135,135)"/>
  <rect x="12" y="5" width="2" height="1" fill="rgb(249,249,249)"/>
  <rect x="14" y="5" width="1" height="1" fill="rgb(248,248,248)"/>
  <rect x="15" y="5" width="1" height="1" fill="rgb(246,246,246)"/>
  <rect x="16" y="5" width="1" height="1" fill="rgb(179,179,179)" fill-opacity="0.9921875"/>
  <rect x="17" y="5" width="1" height="1" fill="rgb(41,41,41)" fill-opacity="0.5625"/>
  <rect x="18" y="5" width="3" height="1" fill="rgb(255,255,255)" fill-opacity="0.0078125"/>
  <rect x="0" y="6" width="3" height="1" fill="rgb(255,255,255)" fill-opacity="0.0078125"/>
  <rect x="3" y="6" width="1" height="1" fill="rgb(42,42,42)" fill-opacity="0.8984375"/>
  <rect x="4" y="6" width="1" height="1" fill="rgb(156,156,156)"/>
  <rect x="5" y="6" width="1" height="1" fill="rgb(84,84,84)"/>
  <rect x="6" y="6" width="5" height="1" fill="rgb(77,77,77)"/>
  <rect x="11" y="6" width="1" height="1" fill="rgb(92,92,92)"/>
  <rect x="12" y="6" width="3" height="1" fill="rgb(204,204,204)"/>
  <rect x="15" y="6" width="1" height="1" fill="rgb(207,207,207)"/>
  <rect x="16" y="6" width="1" height="1" fill="rgb(229,229,229)"/>
  <rect x="17" y="6" width="1" height="1" fill="rgb(42,42,42)" fill-opacity="0.8984375"/>
  <rect x="18" y="6" width="3" height="1" fill="rgb(255,255,255)" fill-opacity="0.0078125"/>
  <rect x="0" y="7" width="3" height="1" fill="rgb(255,255,255)" fill-opacity="0.0078125"/>
  <rect x="3" y="7" width="1" height="1" fill="rgb(42,42,42)" fill-opacity="0.8984375"/>
  <rect x="4" y="7" width="1" height="1" fill="rgb(135,135,135)"/>
  <rect x="5" y="7" width="1" height="1" fill="rgb(82,82,82)"/>
  <rect x="6" y="7" width="5" height="1" fill="rgb(77,77,77)"/>
  <rect x="11" y="7" width="1" height="1" fill="rgb(92,92,92)"/>
  <rect x="12" y="7" width="3" height="1" fill="rgb(204,204,204)"/>
  <rect x="15" y="7" width="1" height="1" fill="rgb(205,205,205)"/>
  <rect x="16" y="7" width="1" height="1" fill="rgb(212,212,212)"/>
  <rect x="17" y="7" width="1" height="1" fill="rgb(42,42,42)" fill-opacity="0.8984375"/>
  <rect x="18" y="7" width="3" height="1" fill="rgb(255,255,255)" fill-opacity="0.0078125"/>
  <rect x="0" y="8" width="3" height="1" fill="rgb(255,255,255)" fill-opacity="0.0078125"/>
  <rect x="3" y="8" width="1" height="1" fill="rgb(41,41,41)" fill-opacity="0.5625"/>
  <rect x="4" y="8" width="1" height="1" fill="rgb(96,96,96)"/>
  <rect x="5" y="8" width="1" height="1" fill="rgb(108,108,108)"/>
  <rect x="6" y="8" width="1" height="1" fill="rgb(105,105,105)"/>
  <rect x="7" y="8" width="1" height="1" fill="rgb(101,101,101)"/>
  <rect x="8" y="8" width="1" height="1" fill="rgb(96,96,96)"/>
  <rect x="9" y="8" width="1" height="1" fill="rgb(91,91,91)"/>
  <rect x="10" y="8" width="1" height="1" fill="rgb(87,87,87)"/>
  <rect x="11" y="8" width="1" height="1" fill="rgb(88,88,88)"/>
  <rect x="12" y="8" width="1" height="1" fill="rgb(213,213,213)"/>
  <rect x="13" y="8" width="1" height="1" fill="rgb(211,211,211)"/>
  <rect x="14" y="8" width="1" height="1" fill="rgb(208,208,208)"/>
  <rect x="15" y="8" width="1" height="1" fill="rgb(200,200,200)"/>
  <rect x="16" y="8" width="1" height="1" fill="rgb(114,114,114)" fill-opacity="0.984375"/>
  <rect x="17" y="8" width="1" height="1" fill="rgb(41,41,41)" fill-opacity="0.5625"/>
  <rect x="18" y="8" width="3" height="1" fill="rgb(255,255,255)" fill-opacity="0.0078125"/>
  <rect x="0" y="9" width="3" height="1" fill="rgb(255,255,255)" fill-opacity="0.0078125"/>
  <rect x="3" y="9" width="1" height="1" fill="rgb(18,18,18)" fill-opacity="0.0625"/>
  <rect x="4" y="9" width="1" height="1" fill="rgb(41,41,41)" fill-opacity="0.5625"/>
  <rect x="5" y="9" width="1" height="1" fill="rgb(42,42,42)" fill-opacity="0.8984375"/>
  <rect x="6" y="9" width="9" height="1" fill="rgb(44,44,44)" fill-opacity="0.9140625"/>
  <rect x="15" y="9" width="1" height="1" fill="rgb(42,42,42)" fill-opacity="0.8984375"/>
  <rect x="16" y="9" width="1" height="1" fill="rgb(41,41,41)" fill-opacity="0.5625"/>
  <rect x="17" y="9" width="1" height="1" fill="rgb(18,18,18)" fill-opacity="0.0625"/>
  <rect x="18" y="9" width="3" height="1" fill="rgb(255,255,255)" fill-opacity="0.0078125"/>
  <rect x="0" y="10" width="21" height="1" fill="rgb(255,255,255)" fill-opacity="0.0078125"/>
  <rect x="0" y="11" width="3" height="1" fill="rgb(255,255,255)" fill-opacity="0.0078125"/>
  <rect x="3" y="11" width="1" height="1" fill="rgb(18,18,18)" fill-opacity="0.0625"/>
  <rect x="4" y="11" width="1" height="1" fill="rgb(41,41,41)" fill-opacity="0.5625"/>
  <rect x="5" y="11" width="1" height="1" fill="rgb(42,42,42)" fill-opacity="0.8984375"/>
  <rect x="6" y="11" width="9" height="1" fill="rgb(44,44,44)" fill-opacity="0.9140625"/>
  <rect x="15" y="11" width="1" height="1" fill="rgb(42,42,42)" fill-opacity="0.8984375"/>
  <rect x="16" y="11" width="1" height="1" fill="rgb(41,41,41)" fill-opacity="0.5625"/>
  <rect x="17" y="11" width="1" height="1" fill="rgb(18,18,18)" fill-opacity="0.0625"/>
  <rect x="18" y="11" width="3" height="1" fill="rgb(255,255,255)" fill-opacity="0.0078125"/>
  <rect x="0" y="12" width="3" height="1" fill="rgb(255,255,255)" fill-opacity="0.0078125"/>
  <rect x="3" y="12" width="1" height="1" fill="rgb(41,41,41)" fill-opacity="0.5625"/>
  <rect x="4" y="12" width="1" height="1" fill="rgb(179,179,179)" fill-opacity="0.9921875"/>
  <rect x="5" y="12" width="1" height="1" fill="rgb(253,253,253)"/>
  <rect x="6" y="12" width="4" height="1" fill="rgb(255,255,255)"/>
  <rect x="10" y="12" width="1" height="1" fill="rgb(253,253,253)"/>
  <rect x="11" y="12" width="1" height="1" fill="rgb(251,251,251)"/>
  <rect x="12" y="12" width="1" height="1" fill="rgb(249,249,249)"/>
  <rect x="13" y="12" width="1" height="1" fill="rgb(247,247,247)"/>
  <rect x="14" y="12" width="1" height="1" fill="rgb(245,245,245)"/>
  <rect x="15" y="12" width="1" height="1" fill="rgb(240,240,240)"/>
  <rect x="16" y="12" width="1" height="1" fill="rgb(162,162,162)" fill-opacity="0.9921875"/>
  <rect x="17" y="12" width="1" height="1" fill="rgb(41,41,41)" fill-opacity="0.5625"/>
  <rect x="18" y="12" width="3" height="1" fill="rgb(255,255,255)" fill-opacity="0.0078125"/>
  <rect x="0" y="13" width="3" height="1" fill="rgb(255,255,255)" fill-opacity="0.0078125"/>
  <rect x="3" y="13" width="1" height="1" fill="rgb(42,42,42)" fill-opacity="0.8984375"/>
  <rect x="4" y="13" width="1" height="1" fill="rgb(253,253,253)"/>
  <rect x="5" y="13" width="1" height="1" fill="rgb(209,209,209)"/>
  <rect x="6" y="13" width="1" height="1" fill="rgb(41,41,41)"/>
  <rect x="7" y="13" width="7" height="1" fill="rgb(204,204,204)"/>
  <rect x="14" y="13" width="1" height="1" fill="rgb(41,41,41)"/>
  <rect x="15" y="13" width="1" height="1" fill="rgb(208,208,208)"/>
  <rect x="16" y="13" width="1" height="1" fill="rgb(234,234,234)"/>
  <rect x="17" y="13" width="1" height="1" fill="rgb(42,42,42)" fill-opacity="0.8984375"/>
  <rect x="18" y="13" width="3" height="1" fill="rgb(255,255,255)" fill-opacity="0.0078125"/>
  <rect x="0" y="14" width="3" height="1" fill="rgb(255,255,255)" fill-opacity="0.0078125"/>
  <rect x="3" y="14" width="1" height="1" fill="rgb(44,44,44)" fill-opacity="0.9140625"/>
  <rect x="4" y="14" width="1" height="1" fill="rgb(254,254,254)"/>
  <rect x="5" y="14" width="2" height="1" fill="rgb(41,41,41)"/>
  <rect x="7" y="14" width="7" height="1" fill="rgb(204,204,204)"/>
  <rect x="14" y="14" width="2" height="1" fill="rgb(41,41,41)"/>
  <rect x="16" y="14" width="1" height="1" fill="rgb(233,233,233)"/>
  <rect x="17" y="14" width="1" height="1" fill="rgb(44,44,44)" fill-opacity="0.9140625"/>
  <rect x="18" y="14" width="3" height="1" fill="rgb(255,255,255)" fill-opacity="0.0078125"/>
  <rect x="0" y="15" width="3" height="1" fill="rgb(255,255,255)" fill-opacity="0.0078125"/>
  <rect x="3" y="15" width="1" height="1" fill="rgb(42,42,42)" fill-opacity="0.8984375"/>
  <rect x="4" y="15" width="1" height="1" fill="rgb(247,247,247)"/>
  <rect x="5" y="15" width="1" height="1" fill="rgb(209,209,209)"/>
  <rect x="6" y="15" width="1" height="1" fill="rgb(41,41,41)"/>
  <rect x="7" y="15" width="7" height="1" fill="rgb(204,204,204)"/>
  <rect x="14" y="15" width="1" height="1" fill="rgb(41,41,41)"/>
  <rect x="15" y="15" width="1" height="1" fill="rgb(207,207,207)"/>
  <rect x="16" y="15" width="1" height="1" fill="rgb(224,224,224)"/>
  <rect x="17" y="15" width="1" height="1" fill="rgb(42,42,42)" fill-opacity="0.8984375"/>
  <rect x="18" y="15" width="3" height="1" fill="rgb(255,255,255)" fill-opacity="0.0078125"/>
  <rect x="0" y="16" width="3" height="1" fill="rgb(255,255,255)" fill-opacity="0.0078125"/>
  <rect x="3" y="16" width="1" height="1" fill="rgb(41,41,41)" fill-opacity="0.5625"/>
  <rect x="4" y="16" width="1" height="1" fill="rgb(165,165,165)" fill-opacity="0.9921875"/>
  <rect x="5" y="16" width="1" height="1" fill="rgb(240,240,240)"/>
  <rect x="6" y="16" width="1" height="1" fill="rgb(242,242,242)"/>
  <rect x="7" y="16" width="1" height="1" fill="rgb(240,240,240)"/>
  <rect x="8" y="16" width="1" height="1" fill="rgb(238,238,238)"/>
  <rect x="9" y="16" width="1" height="1" fill="rgb(236,236,236)"/>
  <rect x="10" y="16" width="1" height="1" fill="rgb(234,234,234)"/>
  <rect x="11" y="16" width="1" height="1" fill="rgb(233,233,233)"/>
  <rect x="12" y="16" width="1" height="1" fill="rgb(231,231,231)"/>
  <rect x="13" y="16" width="1" height="1" fill="rgb(229,229,229)"/>
  <rect x="14" y="16" width="1" height="1" fill="rgb(227,227,227)"/>
  <rect x="15" y="16" width="1" height="1" fill="rgb(221,221,221)"/>
  <rect x="16" y="16" width="1" height="1" fill="rgb(138,138,138)" fill-opacity="0.9921875"/>
  <rect x="17" y="16" width="1" height="1" fill="rgb(41,41,41)" fill-opacity="0.5625"/>
  <rect x="18" y="16" width="3" height="1" fill="rgb(255,255,255)" fill-opacity="0.0078125"/>
  <rect x="0" y="17" width="3" height="1" fill="rgb(255,255,255)" fill-opacity="0.0078125"/>
  <rect x="3" y="17" width="1" height="1" fill="rgb(18,18,18)" fill-opacity="0.0625"/>
  <rect x="4" y="17" width="1" height="1" fill="rgb(41,41,41)" fill-opacity="0.5625"/>
  <rect x="5" y="17" width="1" height="1" fill="rgb(42,42,42)" fill-opacity="0.8984375"/>
  <rect x="6" y="17" width="9" height="1" fill="rgb(44,44,44)" fill-opacity="0.9140625"/>
  <rect x="15" y="17" width="1" height="1" fill="rgb(42,42,42)" fill-opacity="0.8984375"/>
  <rect x="16" y="17" width="1" height="1" fill="rgb(41,41,41)" fill-opacity="0.5625"/>
  <rect x="17" y="17" width="1" height="1" fill="rgb(18,18,18)" fill-opacity="0.0625"/>
  <rect x="18" y="17" width="3" height="1" fill="rgb(255,255,255)" fill-opacity="0.0078125"/>
  <rect x="0" y="18" width="21" height="1" fill="rgb(255,255,255)" fill-opacity="0.0078125"/>
  <rect x="0" y="19" width="21" height="1" fill="rgb(255,255,255)" fill-opacity="0.0078125"/>
  <rect x="0" y="20" width="21" height="1" fill="rgb(255,255,255)" fill-opacity="0.0078125"/>
</svg>