<svg xmlns="http://www.w3.org/2000/svg" shape-rendering="crispEdges" width="21" height="21" viewBox="0 0 21 21">
  <rect x="0" y="0" width="1" height="21" fill="rgb(255,255,255)" fill-opacity="0.0078125"/>
  <rect x="1" y="0" width="1" height="21" fill="rgb(255,255,255)" fill-opacity="0.0078125"/>
  <rect x="2" y="0" width="1" height="21" fill="rgb(255,255,255)" fill-opacity="0.0078125"/>
  <rect x="3" y="0" width="1" height="21" fill="rgb(255,255,255)" fill-opacity="0.0078125"/>
  <rect x="4" y="0" width="1" height="21" fill="rgb(255,255,255)" fill-opacity="0.0078125"/>
  <rect x="5" y="0" width="1" height="21" fill="rgb(255,255,255)" fill-opacity="0.0078125"/>
  <rect x="6" y="0" width="1" height="11" fill="rgb(255,255,255)" fill-opacity="0.0078125"/>
  <rect x="6" y="11" width="1" height="1" fill="rgb(50,50,50)" fill-opacity="0.1484375"/>
  <rect x="6" y="12" width="1" height="1" fill="rgb(56,56,56)" fill-opacity="0.609375"/>
  <rect x="6" y="13" width="1" height="1" fill="rgb(55,55,55)" fill-opacity="0.90625"/>
  <rect x="6" y="14" width="1" height="1" fill="rgb(51,51,51)" fill-opacity="0.2421875"/>
  <rect x="6" y="15" width="1" height="6" fill="rgb(255,255,255)" fill-opacity="0.0078125"/>
  <rect x="7" y="0" width="1" height="9" fill="rgb(255,255,255)" fill-opacity="0.0078125"/>
  <rect x="7" y="9" width="1" height="1" fill="rgb(49,49,49)" fill-opacity="0.25"/>
  <rect x="7" y="10" width="1" height="1" fill="rgb(57,57,57)" fill-opacity="0.734375"/>
  <rect x="7" y="11" width="1" height="1" fill="rgb(67,67,67)" fill-opacity="0.9609375"/>
  <rect x="7" y="12" width="1" height="1" fill="rgb(164,164,164)" fill-opacity="0.984375"/>
  <rect x="7" y="13" width="1" height="1" fill="rgb(178,178,178)"/>
  <rect x="7" y="14" width="1" height="1" fill="rgb(57,57,57)" fill-opacity="0.953125"/>
  <rect x="7" y="15" width="1" height="1" fill="rgb(51,51,51)" fill-opacity="0.2421875"/>
  <rect x="7" y="16" width="1" height="5" fill="rgb(255,255,255)" fill-opacity="0.0078125"/>
  <rect x="8" y="0" width="1" height="6" fill="rgb(255,255,255)" fill-opacity="0.0078125"/>
  <rect x="8" y="6" width="1" height="1" fill="rgb(51,51,51)" fill-opacity="0.0234375"/>
  <rect x="8" y="7" width="1" height="1" fill="rgb(51,51,51)" fill-opacity="0.359375"/>
  <rect x="8" y="8" width="1" height="1" fill="rgb(56,56,56)" fill-opacity="0.8515625"/>
  <rect x="8" y="9" width="1" height="1" fill="rgb(86,86,86)" fill-opacity="0.953125"/>
  <rect x="8" y="10" width="1" height="1" fill="rgb(184,184,184)"/>
  <rect x="8" y="11" width="1" height="1" fill="rgb(235,235,235)"/>
  <rect x="8" y="12" width="1" height="1" fill="rgb(217,217,217)"/>
  <rect x="8" y="13" width="1" height="1" fill="rgb(191,191,191)"/>
  <rect x="8" y="14" width="1" height="1" fill="rgb(154,154,154)"/>
  <rect x="8" y="15" width="1" height="1" fill="rgb(58,58,58)" fill-opacity="0.953125"/>
  <rect x="8" y="16" width="1" height="1" fill="rgb(51,51,51)" fill-opacity="0.2421875"/>
  <rect x="8" y="17" width="1" height="4" fill="rgb(255,255,255)" fill-opacity="0.0078125"/>
  <rect x="9" y="0" width="1" height="4" fill="rgb(255,255,255)" fill-opacity="0.0078125"/>
  <rect x="9" y="4" width="1" height="1" fill="rgb(45,45,45)" fill-opacity="0.0703125"/>
  <rect x="9" y="5" width="1" height="1" fill="rgb(52,52,52)" fill-opacity="0.484375"/>
  <rect x="9" y="6" width="1" height="1" fill="rgb(55,55,55)" fill-opacity="0.9296875"/>
  <rect x="9" y="7" width="1" height="1" fill="rgb(113,113,113)" fill-opacity="0.953125"/>
  <rect x="9" y="8" width="1" height="1" fill="rgb(200,200,200)"/>
  <rect x="9" y="9" width="1" height="1" fill="rgb(233,233,233)"/>
  <rect x="9" y="10" width="1" height="1" fill="rgb(205,205,205)"/>
  <rect x="9" y="11" width="1" height="1" fill="rgb(181,181,181)"/>
  <rect x="9" y="12" width="1" height="1" fill="rgb(183,183,183)"/>
  <rect x="9" y="13" width="1" height="1" fill="rgb(191,191,191)"/>
  <rect x="9" y="14" width="1" height="1" fill="rgb(199,199,199)"/>
  <rect x="9" y="15" width="1" height="1" fill="rgb(169,169,169)"/>
  <rect x="9" y="16" width="1" height="1" fill="rgb(59,59,59)" fill-opacity="0.953125"/>
  <rect x="9" y="17" width="1" height="1" fill="rgb(51,51,51)" fill-opacity="0.2421875"/>
  <rect x="9" y="18" width="1" height="3" fill="rgb(255,255,255)" fill-opacity="0.0078125"/>
  <rect x="10" y="0" width="1" height="4" fill="rgb(255,255,255)" fill-opacity="0.0078125"/>
  <rect x="10" y="4" width="1" height="1" fill="rgb(54,54,54)" fill-opacity="0.71875"/>
  <rect x="10" y="5" width="1" height="1" fill="rgb(53,53,53)" fill-opacity="0.9921875"/>
  <rect x="10" y="6" width="1" height="1" fill="rgb(156,156,156)"/>
  <rect x="10" y="7" width="1" height="1" fill="rgb(225,225,225)"/>
  <rect x="10" y="8" width="1" height="1" fill="rgb(193,193,193)"/>
  <rect x="10" y="9" width="1" height="1" fill="rgb(172,172,172)"/>
  <rect x="10" y="10" width="1" height="1" fill="rgb(178,178,178)"/>
  <rect x="10" y="11" width="1" height="1" fill="rgb(186,186,186)"/>
  <rect x="10" y="12" width="1" height="1" fill="rgb(194,194,194)"/>
  <rect x="10" y="13" width="1" height="1" fill="rgb(202,202,202)"/>
  <rect x="10" y="14" width="1" height="1" fill="rgb(210,210,210)"/>
  <rect x="10" y="15" width="1" height="1" fill="rgb(218,218,218)"/>
  <rect x="10" y="16" width="1" height="1" fill="rgb(149,149,149)"/>
  <rect x="10" y="17" width="1" height="1" fill="rgb(60,60,60)" fill-opacity="0.8671875"/>
  <rect x="10" y="18" width="1" height="3" fill="rgb(255,255,255)" fill-opacity="0.0078125"/>
  <rect x="11" y="0" width="1" height="4" fill="rgb(255,255,255)" fill-opacity="0.0078125"/>
  <rect x="11" y="4" width="1" height="1" fill="rgb(49,49,49)" fill-opacity="0.0859375"/>
  <rect x="11" y="5" width="1" height="1" fill="rgb(54,54,54)" fill-opacity="0.5234375"/>
  <rect x="11" y="6" width="1" height="1" fill="rgb(55,55,55)" fill-opacity="0.9453125"/>
  <rect x="11" y="7" width="1" height="1" fill="rgb(82,82,82)" fill-opacity="0.9609375"/>
  <rect x="11" y="8" width="1" height="1" fill="rgb(142,142,142)"/>
  <rect x="11" y="9" width="1" height="1" fill="rgb(180,180,180)"/>
  <rect x="11" y="10" width="1" height="1" fill="rgb(188,188,188)"/>
  <rect x="11" y="11" width="1" height="1" fill="rgb(196,196,196)"/>
  <rect x="11" y="12" width="1" height="1" fill="rgb(204,204,204)"/>
  <rect x="11" y="13" width="1" height="1" fill="rgb(212,212,212)"/>
  <rect x="11" y="14" width="1" height="1" fill="rgb(220,220,220)"/>
  <rect x="11" y="15" width="1" height="1" fill="rgb(186,186,186)"/>
  <rect x="11" y="16" width="1" height="1" fill="rgb(59,59,59)" fill-opacity="0.9609375"/>
  <rect x="11" y="17" width="1" height="1" fill="rgb(50,50,50)" fill-opacity="0.265625"/>
  <rect x="11" y="18" width="1" height="3" fill="rgb(255,255,255)" fill-opacity="0.0078125"/>
  <rect x="12" y="0" width="1" height="6" fill="rgb(255,255,255)" fill-opacity="0.0078125"/>
  <rect x="12" y="6" width="1" height="1" fill="rgb(36,36,36)" fill-opacity="0.03125"/>
  <rect x="12" y="7" width="1" height="1" fill="rgb(52,52,52)" fill-opacity="0.390625"/>
  <rect x="12" y="8" width="1" height="1" fill="rgb(59,59,59)" fill-opacity="0.8828125"/>
  <rect x="12" y="9" width="1" height="1" fill="rgb(72,72,72)" fill-opacity="0.953125"/>
  <rect x="12" y="10" width="1" height="1" fill="rgb(146,146,146)"/>
  <rect x="12" y="11" width="1" height="1" fill="rgb(204,204,204)"/>
  <rect x="12" y="12" width="1" height="1" fill="rgb(214,214,214)"/>
  <rect x="12" y="13" width="1" height="1" fill="rgb(222,222,222)"/>
  <rect x="12" y="14" width="1" height="1" fill="rgb(189,189,189)"/>
  <rect x="12" y="15" width="1" height="1" fill="rgb(60,60,60)" fill-opacity="0.9609375"/>
  <rect x="12" y="16" width="1" height="1" fill="rgb(50,50,50)" fill-opacity="0.265625"/>
  <rect x="12" y="17" width="1" height="4" fill="rgb(255,255,255)" fill-opacity="0.0078125"/>
  <rect x="13" y="0" width="1" height="9" fill="rgb(255,255,255)" fill-opacity="0.0078125"/>
  <rect x="13" y="9" width="1" height="1" fill="rgb(51,51,51)" fill-opacity="0.28125"/>
  <rect x="13" y="10" width="1" height="1" fill="rgb(62,62,62)" fill-opacity="0.7734375"/>
  <rect x="13" y="11" width="1" height="1" fill="rgb(64,64,64)" fill-opacity="0.9609375"/>
  <rect x="13" y="12" width="1" height="1" fill="rgb(146,146,146)" fill-opacity="0.9921875"/>
  <rect x="13" y="13" width="1" height="1" fill="rgb(180,180,180)"/>
  <rect x="13" y="14" width="1" height="1" fill="rgb(60,60,60)" fill-opacity="0.9609375"/>
  <rect x="13" y="15" width="1" height="1" fill="rgb(50,50,50)" fill-opacity="0.265625"/>
  <rect x="13" y="16" width="1" height="5" fill="rgb(255,255,255)" fill-opacity="0.0078125"/>
  <rect x="14" y="0" width="1" height="11" fill="rgb(255,255,255)" fill-opacity="0.0078125"/>
  <rect x="14" y="11" width="1" height="1" fill="rgb(49,49,49)" fill-opacity="0.171875"/>
  <rect x="14" y="12" width="1" height="1" fill="rgb(63,63,63)" fill-opacity="0.65625"/>
  <rect x="14" y="13" width="1" height="1" fill="rgb(58,58,58)" fill-opacity="0.9375"/>
  <rect x="14" y="14" width="1" height="1" fill="rgb(50,50,50)" fill-opacity="0.265625"/>
  <rect x="14" y="15" width="1" height="6" fill="rgb(255,255,255)" fill-opacity="0.0078125"/>
  <rect x="15" y="0" width="1" height="21" fill="rgb(255,255,255)" fill-opacity="0.0078125"/>
  <rect x="16" y="0" width="1" height="21" fill="rgb(255,255,255)" fill-opacity="0.0078125"/>
  <rect x="17" y="0" width="1" height="21" fill="rgb(255,255,255)" fill-opacity="0.0078125"/>
  <rect x="18" y="0" width="1" height="21" fill="rgb(255,255,255)" fill-opacity="0.0078125"/>
  <rect x="19" y="0" width="1" height="21" fill="rgb(255,255,255)" fill-opacity="0.0078125"/>
  <rect x="20" y="0" width="1" height="21" fill="rgb(255,255,255)" fill-opacity="0.0078125"/>
</svg>