<svg xmlns="http://www.w3.org/2000/svg" shape-rendering="crispEdges" width="21" height="21" viewBox="0 0 21 21">
  <rect x="0" y="0" width="1" height="21" fill="rgb(255,255,255)" fill-opacity="0.0078125"/>
  <rect x="1" y="0" width="1" height="21" fill="rgb(255,255,255)" fill-opacity="0.0078125"/>
  <rect x="2" y="0" width="1" height="21" fill="rgb(255,255,255)" fill-opacity="0.0078125"/>
  <rect x="3" y="0" width="1" height="21" fill="rgb(255,255,255)" fill-opacity="0.0078125"/>
  <rect x="4" y="0" width="1" height="7" fill="rgb(255,255,255)" fill-opacity="0.0078125"/>
  <rect x="4" y="7" width="1" height="1" fill="rgb(87,45,0)" fill-opacity="0.84375"/>
  <rect x="4" y="8" width="1" height="7" fill="rgb(255,255,255)" fill-opacity="0.0078125"/>
  <rect x="4" y="15" width="1" height="1" fill="rgb(87,45,0)" fill-opacity="0.84375"/>
  <rect x="4" y="16" width="1" height="5" fill="rgb(255,255,255)" fill-opacity="0.0078125"/>
  <rect x="5" y="0" width="1" height="7" fill="rgb(255,255,255)" fill-opacity="0.0078125"/>
  <rect x="5" y="7" width="1" height="1" fill="rgb(86,45,0)"/>
  <rect x="5" y="8" width="1" height="7" fill="rgb(255,255,255)" fill-opacity="0.0078125"/>
  <rect x="5" y="15" width="1" height="1" fill="rgb(86,45,0)"/>
  <rect x="5" y="16" width="1" height="5" fill="rgb(255,255,255)" fill-opacity="0.0078125"/>
  <rect x="6" y="0" width="1" height="5" fill="rgb(255,255,255)" fill-opacity="0.0078125"/>
  <rect x="6" y="5" width="1" height="1" fill="rgb(87,45,0)" fill-opacity="0.84375"/>
  <rect x="6" y="6" width="1" height="11" fill="rgb(86,45,0)"/>
  <rect x="6" y="17" width="1" height="1" fill="rgb(87,45,0)" fill-opacity="0.84375"/>
  <rect x="6" y="18" width="1" height="3" fill="rgb(255,255,255)" fill-opacity="0.0078125"/>
  <rect x="7" y="0" width="1" height="7" fill="rgb(255,255,255)" fill-opacity="0.0078125"/>
  <rect x="7" y="7" width="1" height="1" fill="rgb(86,45,0)"/>
  <rect x="7" y="8" width="1" height="1" fill="rgb(255,226,197)" fill-opacity="0.9140625"/>
  <rect x="7" y="9" width="1" height="1" fill="rgb(255,226,195)" fill-opacity="0.90625"/>
  <rect x="7" y="10" width="1" height="1" fill="rgb(255,219,181)" fill-opacity="0.890625"/>
  <rect x="7" y="11" width="1" height="1" fill="rgb(255,211,164)" fill-opacity="0.8671875"/>
  <rect x="7" y="12" width="1" height="1" fill="rgb(255,203,149)" fill-opacity="0.8515625"/>
  <rect x="7" y="13" width="1" height="1" fill="rgb(255,196,132)" fill-opacity="0.828125"/>
  <rect x="7" y="14" width="1" height="1" fill="rgb(255,187,114)" fill-opacity="0.8125"/>
  <rect x="7" y="15" width="1" height="1" fill="rgb(86,45,0)"/>
  <rect x="7" y="16" width="1" height="5" fill="rgb(255,255,255)" fill-opacity="0.0078125"/>
  <rect x="8" y="0" width="1" height="7" fill="rgb(255,255,255)" fill-opacity="0.0078125"/>
  <rect x="8" y="7" width="1" height="1" fill="rgb(86,45,0)"/>
  <rect x="8" y="8" width="1" height="1" fill="rgb(255,226,195)" fill-opacity="0.90625"/>
  <rect x="8" y="9" width="1" height="5" fill="rgb(255,132,0)" fill-opacity="0.703125"/>
  <rect x="8" y="14" width="1" height="1" fill="rgb(255,178,95)" fill-opacity="0.7890625"/>
  <rect x="8" y="15" width="1" height="1" fill="rgb(86,45,0)"/>
  <rect x="8" y="16" width="1" height="5" fill="rgb(255,255,255)" fill-opacity="0.0078125"/>
  <rect x="9" y="0" width="1" height="7" fill="rgb(255,255,255)" fill-opacity="0.0078125"/>
  <rect x="9" y="7" width="1" height="1" fill="rgb(86,45,0)"/>
  <rect x="9" y="8" width="1" height="1" fill="rgb(255,219,181)" fill-opacity="0.890625"/>
  <rect x="9" y="9" width="1" height="5" fill="rgb(255,132,0)" fill-opacity="0.703125"/>
  <rect x="9" y="14" width="1" height="1" fill="rgb(255,168,75)" fill-opacity="0.7734375"/>
  <rect x="9" y="15" width="1" height="1" fill="rgb(86,45,0)"/>
  <rect x="9" y="16" width="1" height="5" fill="rgb(255,255,255)" fill-opacity="0.0078125"/>
  <rect x="10" y="0" width="1" height="7" fill="rgb(255,255,255)" fill-opacity="0.0078125"/>
  <rect x="10" y="7" width="1" height="1" fill="rgb(86,45,0)"/>
  <rect x="10" y="8" width="1" height="1" fill="rgb(255,212,165)" fill-opacity="0.8671875"/>
  <rect x="10" y="9" width="1" height="5" fill="rgb(255,132,0)" fill-opacity="0.703125"/>
  <rect x="10" y="14" width="1" height="1" fill="rgb(255,158,55)" fill-opacity="0.75"/>
  <rect x="10" y="15" width="1" height="1" fill="rgb(86,45,0)"/>
  <rect x="10" y="16" width="1" height="5" fill="rgb(255,255,255)" fill-opacity="0.0078125"/>
  <rect x="11" y="0" width="1" height="7" fill="rgb(255,255,255)" fill-opacity="0.0078125"/>
  <rect x="11" y="7" width="1" height="1" fill="rgb(86,45,0)"/>
  <rect x="11" y="8" width="1" height="1" fill="rgb(255,204,149)" fill-opacity="0.8515625"/>
  <rect x="11" y="9" width="1" height="5" fill="rgb(255,132,0)" fill-opacity="0.703125"/>
  <rect x="11" y="14" width="1" height="1" fill="rgb(255,149,34)" fill-opacity="0.7265625"/>
  <rect x="11" y="15" width="1" height="1" fill="rgb(86,45,0)"/>
  <rect x="11" y="16" width="1" height="5" fill="rgb(255,255,255)" fill-opacity="0.0078125"/>
  <rect x="12" y="0" width="1" height="7" fill="rgb(255,255,255)" fill-opacity="0.0078125"/>
  <rect x="12" y="7" width="1" height="1" fill="rgb(86,45,0)"/>
  <rect x="12" y="8" width="1" height="1" fill="rgb(255,196,133)" fill-opacity="0.828125"/>
  <rect x="12" y="9" width="1" height="5" fill="rgb(255,132,0)" fill-opacity="0.703125"/>
  <rect x="12" y="14" width="1" height="1" fill="rgb(255,137,11)" fill-opacity="0.7109375"/>
  <rect x="12" y="15" width="1" height="1" fill="rgb(86,45,0)"/>
  <rect x="12" y="16" width="1" height="5" fill="rgb(255,255,255)" fill-opacity="0.0078125"/>
  <rect x="13" y="0" width="1" height="7" fill="rgb(255,255,255)" fill-opacity="0.0078125"/>
  <rect x="13" y="7" width="1" height="1" fill="rgb(86,45,0)"/>
  <rect x="13" y="8" width="1" height="1" fill="rgb(255,188,115)" fill-opacity="0.8125"/>
  <rect x="13" y="9" width="1" height="1" fill="rgb(255,178,96)" fill-opacity="0.7890625"/>
  <rect x="13" y="10" width="1" height="1" fill="rgb(255,169,77)" fill-opacity="0.7734375"/>
  <rect x="13" y="11" width="1" height="1" fill="rgb(255,159,56)" fill-opacity="0.75"/>
  <rect x="13" y="12" width="1" height="1" fill="rgb(255,148,34)" fill-opacity="0.734375"/>
  <rect x="13" y="13" width="1" height="1" fill="rgb(255,137,11)" fill-opacity="0.7109375"/>
  <rect x="13" y="14" width="1" height="1" fill="rgb(255,132,0)" fill-opacity="0.703125"/>
  <rect x="13" y="15" width="1" height="1" fill="rgb(86,45,0)"/>
  <rect x="13" y="16" width="1" height="5" fill="rgb(255,255,255)" fill-opacity="0.0078125"/>
  <rect x="14" y="0" width="1" height="5" fill="rgb(255,255,255)" fill-opacity="0.0078125"/>
  <rect x="14" y="5" width="1" height="1" fill="rgb(87,45,0)" fill-opacity="0.84375"/>
  <rect x="14" y="6" width="1" height="11" fill="rgb(86,45,0)"/>
  <rect x="14" y="17" width="1" height="1" fill="rgb(87,45,0)" fill-opacity="0.84375"/>
  <rect x="14" y="18" width="1" height="3" fill="rgb(255,255,255)" fill-opacity="0.0078125"/>
  <rect x="15" y="0" width="1" height="7" fill="rgb(255,255,255)" fill-opacity="0.0078125"/>
  <rect x="15" y="7" width="1" height="1" fill="rgb(86,45,0)"/>
  <rect x="15" y="8" width="1" height="7" fill="rgb(255,255,255)" fill-opacity="0.0078125"/>
  <rect x="15" y="15" width="1" height="1" fill="rgb(86,45,0)"/>
  <rect x="15" y="16" width="1" height="5" fill="rgb(255,255,255)" fill-opacity="0.0078125"/>
  <rect x="16" y="0" width="1" height="7" fill="rgb(255,255,255)" fill-opacity="0.0078125"/>
  <rect x="16" y="7" width="1" height="1" fill="rgb(87,45,0)" fill-opacity="0.84375"/>
  <rect x="16" y="8" width="1" height="7" fill="rgb(255,255,255)" fill-opacity="0.0078125"/>
  <rect x="16" y="15" width="1" height="1" fill="rgb(87,45,0)" fill-opacity="0.84375"/>
  <rect x="16" y="16" width="1" height="5" fill="rgb(255,255,255)" fill-opacity="0.0078125"/>
  <rect x="17" y="0" width="1" height="21" fill="rgb(255,255,255)" fill-opacity="0.0078125"/>
  <rect x="18" y="0" width="1" height="21" fill="rgb(255,255,255)" fill-opacity="0.0078125"/>
  <rect x="19" y="0" width="1" height="21" fill="rgb(255,255,255)" fill-opacity="0.0078125"/>
  <rect x="20" y="0" width="1" height="21" fill="rgb(255,255,255)" fill-opacity="0.0078125"/>
</svg>