<svg xmlns="http://www.w3.org/2000/svg" shape-rendering="crispEdges" width="21" height="21" viewBox="0 0 21 21">
  <rect x="0" y="0" width="1" height="21" fill="rgb(255,255,255)" fill-opacity="0.0078125"/>
  <rect x="1" y="0" width="1" height="21" fill="rgb(255,255,255)" fill-opacity="0.0078125"/>
  <rect x="2" y="0" width="1" height="21" fill="rgb(255,255,255)" fill-opacity="0.0078125"/>
  <rect x="3" y="0" width="1" height="21" fill="rgb(255,255,255)" fill-opacity="0.0078125"/>
  <rect x="4" y="0" width="1" height="21" fill="rgb(255,255,255)" fill-opacity="0.0078125"/>
  <rect x="5" y="0" width="1" height="12" fill="rgb(255,255,255)" fill-opacity="0.0078125"/>
  <rect x="5" y="12" width="1" height="1" fill="rgb(10,24,38)" fill-opacity="0.2890625"/>
  <rect x="5" y="13" width="1" height="1" fill="rgb(41,53,71)" fill-opacity="0.921875"/>
  <rect x="5" y="14" width="1" height="1" fill="rgb(32,45,64)" fill-opacity="0.84375"/>
  <rect x="5" y="15" width="1" height="1" fill="rgb(11,24,41)" fill-opacity="0.46875"/>
  <rect x="5" y="16" width="1" height="1" fill="rgb(0,0,0)" fill-opacity="0.015625"/>
  <rect x="5" y="17" width="1" height="4" fill="rgb(255,255,255)" fill-opacity="0.0078125"/>
  <rect x="6" y="0" width="1" height="12" fill="rgb(255,255,255)" fill-opacity="0.0078125"/>
  <rect x="6" y="12" width="1" height="1" fill="rgb(12,23,41)" fill-opacity="0.6953125"/>
  <rect x="6" y="13" width="1" height="1" fill="rgb(181,199,223)"/>
  <rect x="6" y="14" width="1" height="1" fill="rgb(184,204,233)"/>
  <rect x="6" y="15" width="1" height="1" fill="rgb(116,135,166)"/>
  <rect x="6" y="16" width="1" height="1" fill="rgb(18,29,47)" fill-opacity="0.625"/>
  <rect x="6" y="17" width="1" height="4" fill="rgb(255,255,255)" fill-opacity="0.0078125"/>
  <rect x="7" y="0" width="1" height="12" fill="rgb(255,255,255)" fill-opacity="0.0078125"/>
  <rect x="7" y="12" width="1" height="1" fill="rgb(10,24,41)" fill-opacity="0.296875"/>
  <rect x="7" y="13" width="1" height="1" fill="rgb(67,79,96)" fill-opacity="0.96875"/>
  <rect x="7" y="14" width="1" height="1" fill="rgb(155,168,187)"/>
  <rect x="7" y="15" width="1" height="1" fill="rgb(178,199,231)"/>
  <rect x="7" y="16" width="1" height="1" fill="rgb(86,107,140)"/>
  <rect x="7" y="17" width="1" height="1" fill="rgb(9,23,42)" fill-opacity="0.21875"/>
  <rect x="7" y="18" width="1" height="3" fill="rgb(255,255,255)" fill-opacity="0.0078125"/>
  <rect x="8" y="0" width="1" height="4" fill="rgb(255,255,255)" fill-opacity="0.0078125"/>
  <rect x="8" y="4" width="1" height="1" fill="rgb(11,22,41)" fill-opacity="0.3671875"/>
  <rect x="8" y="5" width="1" height="1" fill="rgb(36,47,63)" fill-opacity="0.7890625"/>
  <rect x="8" y="6" width="1" height="1" fill="rgb(33,46,62)" fill-opacity="0.7890625"/>
  <rect x="8" y="7" width="1" height="1" fill="rgb(11,22,41)" fill-opacity="0.3671875"/>
  <rect x="8" y="8" width="1" height="5" fill="rgb(255,255,255)" fill-opacity="0.0078125"/>
  <rect x="8" y="13" width="1" height="1" fill="rgb(17,17,34)" fill-opacity="0.0625"/>
  <rect x="8" y="14" width="1" height="1" fill="rgb(13,24,41)" fill-opacity="0.703125"/>
  <rect x="8" y="15" width="1" height="1" fill="rgb(168,184,207)"/>
  <rect x="8" y="16" width="1" height="1" fill="rgb(122,153,195)"/>
  <rect x="8" y="17" width="1" height="1" fill="rgb(10,22,40)" fill-opacity="0.5"/>
  <rect x="8" y="18" width="1" height="3" fill="rgb(255,255,255)" fill-opacity="0.0078125"/>
  <rect x="9" y="0" width="1" height="3" fill="rgb(255,255,255)" fill-opacity="0.0078125"/>
  <rect x="9" y="3" width="1" height="1" fill="rgb(11,23,40)" fill-opacity="0.359375"/>
  <rect x="9" y="4" width="1" height="1" fill="rgb(156,162,170)"/>
  <rect x="9" y="5" width="1" height="1" fill="rgb(240,244,248)"/>
  <rect x="9" y="6" width="1" height="1" fill="rgb(231,236,245)"/>
  <rect x="9" y="7" width="1" height="1" fill="rgb(133,144,160)"/>
  <rect x="9" y="8" width="1" height="1" fill="rgb(47,59,75)" fill-opacity="0.9453125"/>
  <rect x="9" y="9" width="1" height="1" fill="rgb(11,22,40)" fill-opacity="0.625"/>
  <rect x="9" y="10" width="1" height="1" fill="rgb(10,23,39)" fill-opacity="0.3125"/>
  <rect x="9" y="11" width="1" height="3" fill="rgb(255,255,255)" fill-opacity="0.0078125"/>
  <rect x="9" y="14" width="1" height="1" fill="rgb(11,23,40)" fill-opacity="0.3515625"/>
  <rect x="9" y="15" width="1" height="1" fill="rgb(123,140,164)"/>
  <rect x="9" y="16" width="1" height="1" fill="rgb(144,175,219)"/>
  <rect x="9" y="17" width="1" height="1" fill="rgb(28,45,68)" fill-opacity="0.78125"/>
  <rect x="9" y="18" width="1" height="3" fill="rgb(255,255,255)" fill-opacity="0.0078125"/>
  <rect x="10" y="0" width="1" height="3" fill="rgb(255,255,255)" fill-opacity="0.0078125"/>
  <rect x="10" y="3" width="1" height="1" fill="rgb(29,38,57)" fill-opacity="0.7578125"/>
  <rect x="10" y="4" width="1" height="1" fill="rgb(230,236,245)"/>
  <rect x="10" y="5" width="1" height="1" fill="rgb(51,71,99)"/>
  <rect x="10" y="6" width="1" height="1" fill="rgb(48,68,98)"/>
  <rect x="10" y="7" width="1" height="1" fill="rgb(191,208,232)"/>
  <rect x="10" y="8" width="1" height="1" fill="rgb(210,221,241)"/>
  <rect x="10" y="9" width="1" height="1" fill="rgb(177,193,215)"/>
  <rect x="10" y="10" width="1" height="1" fill="rgb(105,121,143)"/>
  <rect x="10" y="11" width="1" height="1" fill="rgb(12,27,44)" fill-opacity="0.59375"/>
  <rect x="10" y="12" width="1" height="2" fill="rgb(255,255,255)" fill-opacity="0.0078125"/>
  <rect x="10" y="14" width="1" height="1" fill="rgb(13,26,38)" fill-opacity="0.1640625"/>
  <rect x="10" y="15" width="1" height="1" fill="rgb(86,103,125)"/>
  <rect x="10" y="16" width="1" height="1" fill="rgb(148,178,220)"/>
  <rect x="10" y="17" width="1" height="1" fill="rgb(45,66,98)" fill-opacity="0.9375"/>
  <rect x="10" y="18" width="1" height="3" fill="rgb(255,255,255)" fill-opacity="0.0078125"/>
  <rect x="11" y="0" width="1" height="3" fill="rgb(255,255,255)" fill-opacity="0.0078125"/>
  <rect x="11" y="3" width="1" height="1" fill="rgb(23,36,50)" fill-opacity="0.75"/>
  <rect x="11" y="4" width="1" height="1" fill="rgb(203,215,233)"/>
  <rect x="11" y="5" width="1" height="1" fill="rgb(48,69,100)"/>
  <rect x="11" y="6" width="1" height="1" fill="rgb(45,66,98)"/>
  <rect x="11" y="7" width="1" height="1" fill="rgb(150,176,214)"/>
  <rect x="11" y="8" width="1" height="1" fill="rgb(105,120,139)"/>
  <rect x="11" y="9" width="1" height="1" fill="rgb(153,171,194)"/>
  <rect x="11" y="10" width="1" height="1" fill="rgb(180,201,231)"/>
  <rect x="11" y="11" width="1" height="1" fill="rgb(97,115,143)"/>
  <rect x="11" y="12" width="1" height="1" fill="rgb(10,22,39)" fill-opacity="0.4140625"/>
  <rect x="11" y="13" width="1" height="1" fill="rgb(255,255,255)" fill-opacity="0.0078125"/>
  <rect x="11" y="14" width="1" height="1" fill="rgb(12,23,41)" fill-opacity="0.3515625"/>
  <rect x="11" y="15" width="1" height="1" fill="rgb(116,135,161)"/>
  <rect x="11" y="16" width="1" height="1" fill="rgb(130,164,214)"/>
  <rect x="11" y="17" width="1" height="1" fill="rgb(27,44,69)" fill-opacity="0.7890625"/>
  <rect x="11" y="18" width="1" height="3" fill="rgb(255,255,255)" fill-opacity="0.0078125"/>
  <rect x="12" y="0" width="1" height="3" fill="rgb(255,255,255)" fill-opacity="0.0078125"/>
  <rect x="12" y="3" width="1" height="1" fill="rgb(12,24,39)" fill-opacity="0.3359375"/>
  <rect x="12" y="4" width="1" height="1" fill="rgb(85,101,126)"/>
  <rect x="12" y="5" width="1" height="1" fill="rgb(150,175,213)"/>
  <rect x="12" y="6" width="1" height="1" fill="rgb(128,159,205)"/>
  <rect x="12" y="7" width="1" height="1" fill="rgb(51,73,107)"/>
  <rect x="12" y="8" width="1" height="1" fill="rgb(12,23,39)" fill-opacity="0.4921875"/>
  <rect x="12" y="9" width="1" height="1" fill="rgb(13,25,42)" fill-opacity="0.7109375"/>
  <rect x="12" y="10" width="1" height="1" fill="rgb(122,142,171)"/>
  <rect x="12" y="11" width="1" height="1" fill="rgb(160,186,225)"/>
  <rect x="12" y="12" width="1" height="1" fill="rgb(52,70,94)" fill-opacity="0.9765625"/>
  <rect x="12" y="13" width="1" height="1" fill="rgb(12,24,40)" fill-opacity="0.25"/>
  <rect x="12" y="14" width="1" height="1" fill="rgb(12,23,39)" fill-opacity="0.6875"/>
  <rect x="12" y="15" width="1" height="1" fill="rgb(150,170,200)"/>
  <rect x="12" y="16" width="1" height="1" fill="rgb(95,132,187)"/>
  <rect x="12" y="17" width="1" height="1" fill="rgb(12,24,40)" fill-opacity="0.5078125"/>
  <rect x="12" y="18" width="1" height="3" fill="rgb(255,255,255)" fill-opacity="0.0078125"/>
  <rect x="13" y="0" width="1" height="4" fill="rgb(255,255,255)" fill-opacity="0.0078125"/>
  <rect x="13" y="4" width="1" height="1" fill="rgb(12,24,39)" fill-opacity="0.3359375"/>
  <rect x="13" y="5" width="1" height="2" fill="rgb(13,27,43)" fill-opacity="0.7421875"/>
  <rect x="13" y="7" width="1" height="1" fill="rgb(12,24,39)" fill-opacity="0.3359375"/>
  <rect x="13" y="8" width="1" height="1" fill="rgb(255,255,255)" fill-opacity="0.0078125"/>
  <rect x="13" y="9" width="1" height="1" fill="rgb(0,28,28)" fill-opacity="0.0390625"/>
  <rect x="13" y="10" width="1" height="1" fill="rgb(22,36,55)" fill-opacity="0.8515625"/>
  <rect x="13" y="11" width="1" height="1" fill="rgb(137,164,204)"/>
  <rect x="13" y="12" width="1" height="1" fill="rgb(129,160,203)"/>
  <rect x="13" y="13" width="1" height="1" fill="rgb(81,101,132)"/>
  <rect x="13" y="14" width="1" height="1" fill="rgb(129,149,175)"/>
  <rect x="13" y="15" width="1" height="1" fill="rgb(139,171,218)"/>
  <rect x="13" y="16" width="1" height="1" fill="rgb(59,89,132)"/>
  <rect x="13" y="17" width="1" height="1" fill="rgb(13,22,40)" fill-opacity="0.234375"/>
  <rect x="13" y="18" width="1" height="3" fill="rgb(255,255,255)" fill-opacity="0.0078125"/>
  <rect x="14" y="0" width="1" height="10" fill="rgb(255,255,255)" fill-opacity="0.0078125"/>
  <rect x="14" y="10" width="1" height="1" fill="rgb(9,23,42)" fill-opacity="0.21875"/>
  <rect x="14" y="11" width="1" height="1" fill="rgb(44,60,85)" fill-opacity="0.9765625"/>
  <rect x="14" y="12" width="1" height="1" fill="rgb(115,145,190)"/>
  <rect x="14" y="13" width="1" height="1" fill="rgb(130,165,214)"/>
  <rect x="14" y="14" width="1" height="1" fill="rgb(124,160,212)"/>
  <rect x="14" y="15" width="1" height="1" fill="rgb(72,107,156)"/>
  <rect x="14" y="16" width="1" height="1" fill="rgb(15,29,47)" fill-opacity="0.65625"/>
  <rect x="14" y="17" width="1" height="4" fill="rgb(255,255,255)" fill-opacity="0.0078125"/>
  <rect x="15" y="0" width="1" height="11" fill="rgb(255,255,255)" fill-opacity="0.0078125"/>
  <rect x="15" y="11" width="1" height="1" fill="rgb(11,22,38)" fill-opacity="0.1875"/>
  <rect x="15" y="12" width="1" height="1" fill="rgb(11,24,41)" fill-opacity="0.65625"/>
  <rect x="15" y="13" width="1" height="1" fill="rgb(35,52,79)" fill-opacity="0.953125"/>
  <rect x="15" y="14" width="1" height="1" fill="rgb(24,41,65)" fill-opacity="0.875"/>
  <rect x="15" y="15" width="1" height="1" fill="rgb(10,22,40)" fill-opacity="0.5"/>
  <rect x="15" y="16" width="1" height="1" fill="rgb(0,0,64)" fill-opacity="0.0234375"/>
  <rect x="15" y="17" width="1" height="4" fill="rgb(255,255,255)" fill-opacity="0.0078125"/>
  <rect x="16" y="0" width="1" height="21" fill="rgb(255,255,255)" fill-opacity="0.0078125"/>
  <rect x="17" y="0" width="1" height="21" fill="rgb(255,255,255)" fill-opacity="0.0078125"/>
  <rect x="18" y="0" width="1" height="21" fill="rgb(255,255,255)" fill-opacity="0.0078125"/>
  <rect x="19" y="0" width="1" height="21" fill="rgb(255,255,255)" fill-opacity="0.0078125"/>
  <rect x="20" y="0" width="1" height="21" fill="rgb(255,255,255)" fill-opacity="0.0078125"/>
</svg>