<svg xmlns="http://www.w3.org/2000/svg" shape-rendering="crispEdges" width="21" height="21" viewBox="0 0 21 21">
  <rect x="0" y="0" width="1" height="21" fill="rgb(255,255,255)" fill-opacity="0.0078125"/>
  <rect x="1" y="0" width="1" height="21" fill="rgb(255,255,255)" fill-opacity="0.0078125"/>
  <rect x="2" y="0" width="1" height="21" fill="rgb(255,255,255)" fill-opacity="0.0078125"/>
  <rect x="3" y="0" width="1" height="21" fill="rgb(255,255,255)" fill-opacity="0.0078125"/>
  <rect x="4" y="0" width="1" height="7" fill="rgb(255,255,255)" fill-opacity="0.0078125"/>
  <rect x="4" y="7" width="1" height="1" fill="rgb(36,36,36)" fill-opacity="0.03125"/>
  <rect x="4" y="8" width="1" height="1" fill="rgb(52,52,52)" fill-opacity="0.421875"/>
  <rect x="4" y="9" width="1" height="1" fill="rgb(56,54,54)" fill-opacity="0.7109375"/>
  <rect x="4" y="10" width="1" height="2" fill="rgb(55,53,53)" fill-opacity="0.9140625"/>
  <rect x="4" y="12" width="1" height="1" fill="rgb(56,54,54)" fill-opacity="0.7109375"/>
  <rect x="4" y="13" width="1" height="1" fill="rgb(52,52,52)" fill-opacity="0.421875"/>
  <rect x="4" y="14" width="1" height="1" fill="rgb(36,36,36)" fill-opacity="0.03125"/>
  <rect x="4" y="15" width="1" height="6" fill="rgb(255,255,255)" fill-opacity="0.0078125"/>
  <rect x="5" y="0" width="1" height="6" fill="rgb(255,255,255)" fill-opacity="0.0078125"/>
  <rect x="5" y="6" width="1" height="1" fill="rgb(52,52,52)" fill-opacity="0.21875"/>
  <rect x="5" y="7" width="1" height="1" fill="rgb(57,54,54)" fill-opacity="0.8828125"/>
  <rect x="5" y="8" width="1" height="1" fill="rgb(190,184,168)" fill-opacity="0.984375"/>
  <rect x="5" y="9" width="1" height="1" fill="rgb(239,235,218)"/>
  <rect x="5" y="10" width="1" height="1" fill="rgb(249,247,231)"/>
  <rect x="5" y="11" width="1" height="1" fill="rgb(212,211,201)"/>
  <rect x="5" y="12" width="1" height="1" fill="rgb(197,194,185)"/>
  <rect x="5" y="13" width="1" height="1" fill="rgb(155,150,141)" fill-opacity="0.9921875"/>
  <rect x="5" y="14" width="1" height="1" fill="rgb(58,55,55)" fill-opacity="0.8828125"/>
  <rect x="5" y="15" width="1" height="1" fill="rgb(52,52,52)" fill-opacity="0.21875"/>
  <rect x="5" y="16" width="1" height="5" fill="rgb(255,255,255)" fill-opacity="0.0078125"/>
  <rect x="6" y="0" width="1" height="5" fill="rgb(255,255,255)" fill-opacity="0.0078125"/>
  <rect x="6" y="5" width="1" height="1" fill="rgb(51,51,51)" fill-opacity="0.21875"/>
  <rect x="6" y="6" width="1" height="1" fill="rgb(94,91,85)" fill-opacity="0.953125"/>
  <rect x="6" y="7" width="1" height="1" fill="rgb(230,228,215)"/>
  <rect x="6" y="8" width="1" height="1" fill="rgb(251,249,213)"/>
  <rect x="6" y="9" width="1" height="1" fill="rgb(251,248,193)"/>
  <rect x="6" y="10" width="1" height="1" fill="rgb(251,248,194)"/>
  <rect x="6" y="11" width="1" height="1" fill="rgb(107,106,86)"/>
  <rect x="6" y="12" width="1" height="1" fill="rgb(92,92,79)"/>
  <rect x="6" y="13" width="1" height="1" fill="rgb(123,122,117)"/>
  <rect x="6" y="14" width="1" height="1" fill="rgb(227,223,213)"/>
  <rect x="6" y="15" width="1" height="1" fill="rgb(90,85,84)" fill-opacity="0.953125"/>
  <rect x="6" y="16" width="1" height="1" fill="rgb(51,51,51)" fill-opacity="0.21875"/>
  <rect x="6" y="17" width="1" height="4" fill="rgb(255,255,255)" fill-opacity="0.0078125"/>
  <rect x="7" y="0" width="1" height="4" fill="rgb(255,255,255)" fill-opacity="0.0078125"/>
  <rect x="7" y="4" width="1" height="1" fill="rgb(57,57,57)" fill-opacity="0.0390625"/>
  <rect x="7" y="5" width="1" height="1" fill="rgb(55,53,53)" fill-opacity="0.890625"/>
  <rect x="7" y="6" width="1" height="1" fill="rgb(229,226,213)"/>
  <rect x="7" y="7" width="1" height="1" fill="rgb(186,185,152)"/>
  <rect x="7" y="8" width="1" height="1" fill="rgb(251,249,219)"/>
  <rect x="7" y="9" width="1" height="1" fill="rgb(255,255,254)"/>
  <rect x="7" y="10" width="1" height="1" fill="rgb(203,202,189)"/>
  <rect x="7" y="11" width="1" height="1" fill="rgb(220,218,182)"/>
  <rect x="7" y="12" width="1" height="1" fill="rgb(159,158,136)"/>
  <rect x="7" y="13" width="1" height="1" fill="rgb(80,81,73)"/>
  <rect x="7" y="14" width="1" height="1" fill="rgb(235,236,221)"/>
  <rect x="7" y="15" width="1" height="1" fill="rgb(219,217,213)"/>
  <rect x="7" y="16" width="1" height="1" fill="rgb(56,54,54)" fill-opacity="0.890625"/>
  <rect x="7" y="17" width="1" height="1" fill="rgb(57,57,57)" fill-opacity="0.0390625"/>
  <rect x="7" y="18" width="1" height="3" fill="rgb(255,255,255)" fill-opacity="0.0078125"/>
  <rect x="8" y="0" width="1" height="4" fill="rgb(255,255,255)" fill-opacity="0.0078125"/>
  <rect x="8" y="4" width="1" height="1" fill="rgb(53,51,51)" fill-opacity="0.453125"/>
  <rect x="8" y="5" width="1" height="1" fill="rgb(178,173,159)" fill-opacity="0.9921875"/>
  <rect x="8" y="6" width="1" height="1" fill="rgb(212,211,188)"/>
  <rect x="8" y="7" width="1" height="1" fill="rgb(236,234,209)"/>
  <rect x="8" y="8" width="1" height="1" fill="rgb(225,225,213)"/>
  <rect x="8" y="9" width="1" height="1" fill="rgb(107,106,86)"/>
  <rect x="8" y="10" width="1" height="1" fill="rgb(85,85,71)"/>
  <rect x="8" y="11" width="1" height="1" fill="rgb(244,242,209)"/>
  <rect x="8" y="12" width="1" height="1" fill="rgb(248,246,220)"/>
  <rect x="8" y="13" width="1" height="1" fill="rgb(239,240,222)"/>
  <rect x="8" y="14" width="1" height="1" fill="rgb(86,88,88)"/>
  <rect x="8" y="15" width="1" height="1" fill="rgb(211,215,215)"/>
  <rect x="8" y="16" width="1" height="1" fill="rgb(159,153,155)" fill-opacity="0.984375"/>
  <rect x="8" y="17" width="1" height="1" fill="rgb(53,51,51)" fill-opacity="0.453125"/>
  <rect x="8" y="18" width="1" height="3" fill="rgb(255,255,255)" fill-opacity="0.0078125"/>
  <rect x="9" y="0" width="1" height="4" fill="rgb(255,255,255)" fill-opacity="0.0078125"/>
  <rect x="9" y="4" width="1" height="1" fill="rgb(56,53,53)" fill-opacity="0.734375"/>
  <rect x="9" y="5" width="1" height="1" fill="rgb(226,223,209)"/>
  <rect x="9" y="6" width="1" height="1" fill="rgb(242,239,185)"/>
  <rect x="9" y="7" width="1" height="1" fill="rgb(255,255,253)"/>
  <rect x="9" y="8" width="1" height="1" fill="rgb(114,113,92)"/>
  <rect x="9" y="9" width="1" height="1" fill="rgb(85,85,71)"/>
  <rect x="9" y="10" width="1" height="1" fill="rgb(67,66,57)"/>
  <rect x="9" y="11" width="1" height="1" fill="rgb(242,240,213)"/>
  <rect x="9" y="12" width="1" height="1" fill="rgb(240,240,221)"/>
  <rect x="9" y="13" width="1" height="1" fill="rgb(231,232,224)"/>
  <rect x="9" y="14" width="1" height="1" fill="rgb(10,15,22)"/>
  <rect x="9" y="15" width="1" height="1" fill="rgb(26,32,41)"/>
  <rect x="9" y="16" width="1" height="1" fill="rgb(151,153,160)"/>
  <rect x="9" y="17" width="1" height="1" fill="rgb(56,53,53)" fill-opacity="0.734375"/>
  <rect x="9" y="18" width="1" height="3" fill="rgb(255,255,255)" fill-opacity="0.0078125"/>
  <rect x="10" y="0" width="1" height="4" fill="rgb(255,255,255)" fill-opacity="0.0078125"/>
  <rect x="10" y="4" width="1" height="1" fill="rgb(55,53,53)" fill-opacity="0.9140625"/>
  <rect x="10" y="5" width="1" height="1" fill="rgb(249,247,231)"/>
  <rect x="10" y="6" width="1" height="1" fill="rgb(251,247,192)"/>
  <rect x="10" y="7" width="1" height="1" fill="rgb(253,252,228)"/>
  <rect x="10" y="8" width="1" height="1" fill="rgb(94,93,78)"/>
  <rect x="10" y="9" width="1" height="1" fill="rgb(67,66,57)"/>
  <rect x="10" y="10" width="1" height="1" fill="rgb(47,47,41)"/>
  <rect x="10" y="11" width="1" height="1" fill="rgb(234,235,216)"/>
  <rect x="10" y="12" width="1" height="1" fill="rgb(232,233,223)"/>
  <rect x="10" y="13" width="1" height="1" fill="rgb(222,227,225)"/>
  <rect x="10" y="14" width="1" height="1" fill="rgb(11,17,27)"/>
  <rect x="10" y="15" width="1" height="1" fill="rgb(6,15,28)"/>
  <rect x="10" y="16" width="1" height="1" fill="rgb(66,74,85)"/>
  <rect x="10" y="17" width="1" height="1" fill="rgb(52,50,50)" fill-opacity="0.921875"/>
  <rect x="10" y="18" width="1" height="3" fill="rgb(255,255,255)" fill-opacity="0.0078125"/>
  <rect x="11" y="0" width="1" height="4" fill="rgb(255,255,255)" fill-opacity="0.0078125"/>
  <rect x="11" y="4" width="1" height="1" fill="rgb(55,53,53)" fill-opacity="0.9140625"/>
  <rect x="11" y="5" width="1" height="1" fill="rgb(209,208,200)"/>
  <rect x="11" y="6" width="1" height="1" fill="rgb(107,106,85)"/>
  <rect x="11" y="7" width="1" height="1" fill="rgb(87,87,72)"/>
  <rect x="11" y="8" width="1" height="1" fill="rgb(244,242,207)"/>
  <rect x="11" y="9" width="1" height="1" fill="rgb(250,248,219)"/>
  <rect x="11" y="10" width="1" height="1" fill="rgb(242,242,222)"/>
  <rect x="11" y="11" width="1" height="1" fill="rgb(17,20,23)"/>
  <rect x="11" y="12" width="1" height="1" fill="rgb(4,8,15)"/>
  <rect x="11" y="13" width="1" height="1" fill="rgb(5,11,20)"/>
  <rect x="11" y="14" width="1" height="1" fill="rgb(199,208,220)"/>
  <rect x="11" y="15" width="1" height="1" fill="rgb(197,207,223)"/>
  <rect x="11" y="16" width="1" height="1" fill="rgb(197,203,217)"/>
  <rect x="11" y="17" width="1" height="1" fill="rgb(55,53,53)" fill-opacity="0.9140625"/>
  <rect x="11" y="18" width="1" height="3" fill="rgb(255,255,255)" fill-opacity="0.0078125"/>
  <rect x="12" y="0" width="1" height="4" fill="rgb(255,255,255)" fill-opacity="0.0078125"/>
  <rect x="12" y="4" width="1" height="1" fill="rgb(56,53,53)" fill-opacity="0.734375"/>
  <rect x="12" y="5" width="1" height="1" fill="rgb(215,211,198)"/>
  <rect x="12" y="6" width="1" height="1" fill="rgb(117,116,100)"/>
  <rect x="12" y="7" width="1" height="1" fill="rgb(69,68,58)"/>
  <rect x="12" y="8" width="1" height="1" fill="rgb(244,242,214)"/>
  <rect x="12" y="9" width="1" height="1" fill="rgb(243,243,222)"/>
  <rect x="12" y="10" width="1" height="1" fill="rgb(234,235,223)"/>
  <rect x="12" y="11" width="1" height="1" fill="rgb(9,14,21)"/>
  <rect x="12" y="12" width="1" height="1" fill="rgb(4,11,20)"/>
  <rect x="12" y="13" width="1" height="1" fill="rgb(6,14,26)"/>
  <rect x="12" y="14" width="1" height="1" fill="rgb(192,202,217)"/>
  <rect x="12" y="15" width="1" height="1" fill="rgb(190,203,221)"/>
  <rect x="12" y="16" width="1" height="1" fill="rgb(135,141,155)"/>
  <rect x="12" y="17" width="1" height="1" fill="rgb(56,53,53)" fill-opacity="0.734375"/>
  <rect x="12" y="18" width="1" height="3" fill="rgb(255,255,255)" fill-opacity="0.0078125"/>
  <rect x="13" y="0" width="1" height="4" fill="rgb(255,255,255)" fill-opacity="0.0078125"/>
  <rect x="13" y="4" width="1" height="1" fill="rgb(53,53,53)" fill-opacity="0.4609375"/>
  <rect x="13" y="5" width="1" height="1" fill="rgb(177,169,158)" fill-opacity="0.984375"/>
  <rect x="13" y="6" width="1" height="1" fill="rgb(244,243,222)"/>
  <rect x="13" y="7" width="1" height="1" fill="rgb(120,119,104)"/>
  <rect x="13" y="8" width="1" height="1" fill="rgb(238,238,217)"/>
  <rect x="13" y="9" width="1" height="1" fill="rgb(235,236,223)"/>
  <rect x="13" y="10" width="1" height="1" fill="rgb(225,229,225)"/>
  <rect x="13" y="11" width="1" height="1" fill="rgb(10,16,25)"/>
  <rect x="13" y="12" width="1" height="1" fill="rgb(6,14,25)"/>
  <rect x="13" y="13" width="1" height="1" fill="rgb(53,62,77)"/>
  <rect x="13" y="14" width="1" height="1" fill="rgb(171,183,201)"/>
  <rect x="13" y="15" width="1" height="1" fill="rgb(38,50,70)"/>
  <rect x="13" y="16" width="1" height="1" fill="rgb(55,61,71)"/>
  <rect x="13" y="17" width="1" height="1" fill="rgb(53,53,53)" fill-opacity="0.4609375"/>
  <rect x="13" y="18" width="1" height="3" fill="rgb(255,255,255)" fill-opacity="0.0078125"/>
  <rect x="14" y="0" width="1" height="4" fill="rgb(255,255,255)" fill-opacity="0.0078125"/>
  <rect x="14" y="4" width="1" height="1" fill="rgb(57,57,57)" fill-opacity="0.0390625"/>
  <rect x="14" y="5" width="1" height="1" fill="rgb(55,53,53)" fill-opacity="0.890625"/>
  <rect x="14" y="6" width="1" height="1" fill="rgb(230,225,214)"/>
  <rect x="14" y="7" width="1" height="1" fill="rgb(247,247,227)"/>
  <rect x="14" y="8" width="1" height="1" fill="rgb(54,56,55)"/>
  <rect x="14" y="9" width="1" height="1" fill="rgb(113,117,117)"/>
  <rect x="14" y="10" width="1" height="1" fill="rgb(180,186,190)"/>
  <rect x="14" y="11" width="1" height="1" fill="rgb(59,67,78)"/>
  <rect x="14" y="12" width="1" height="1" fill="rgb(149,158,173)"/>
  <rect x="14" y="13" width="1" height="1" fill="rgb(191,203,221)"/>
  <rect x="14" y="14" width="1" height="1" fill="rgb(23,37,57)"/>
  <rect x="14" y="15" width="1" height="1" fill="rgb(48,58,76)"/>
  <rect x="14" y="16" width="1" height="1" fill="rgb(51,49,50)" fill-opacity="0.90625"/>
  <rect x="14" y="17" width="1" height="1" fill="rgb(57,57,57)" fill-opacity="0.0390625"/>
  <rect x="14" y="18" width="1" height="3" fill="rgb(255,255,255)" fill-opacity="0.0078125"/>
  <rect x="15" y="0" width="1" height="5" fill="rgb(255,255,255)" fill-opacity="0.0078125"/>
  <rect x="15" y="5" width="1" height="1" fill="rgb(51,51,51)" fill-opacity="0.21875"/>
  <rect x="15" y="6" width="1" height="1" fill="rgb(85,82,80)" fill-opacity="0.953125"/>
  <rect x="15" y="7" width="1" height="1" fill="rgb(223,219,212)"/>
  <rect x="15" y="8" width="1" height="1" fill="rgb(77,79,83)"/>
  <rect x="15" y="9" width="1" height="1" fill="rgb(16,22,29)"/>
  <rect x="15" y="10" width="1" height="1" fill="rgb(5,13,24)"/>
  <rect x="15" y="11" width="1" height="1" fill="rgb(195,204,218)"/>
  <rect x="15" y="12" width="1" height="1" fill="rgb(194,205,222)"/>
  <rect x="15" y="13" width="1" height="1" fill="rgb(193,205,222)"/>
  <rect x="15" y="14" width="1" height="1" fill="rgb(52,63,78)"/>
  <rect x="15" y="15" width="1" height="1" fill="rgb(71,70,73)" fill-opacity="0.9609375"/>
  <rect x="15" y="16" width="1" height="1" fill="rgb(51,51,51)" fill-opacity="0.21875"/>
  <rect x="15" y="17" width="1" height="4" fill="rgb(255,255,255)" fill-opacity="0.0078125"/>
  <rect x="16" y="0" width="1" height="6" fill="rgb(255,255,255)" fill-opacity="0.0078125"/>
  <rect x="16" y="6" width="1" height="1" fill="rgb(51,51,51)" fill-opacity="0.21875"/>
  <rect x="16" y="7" width="1" height="1" fill="rgb(55,53,53)" fill-opacity="0.890625"/>
  <rect x="16" y="8" width="1" height="1" fill="rgb(117,114,115)" fill-opacity="0.9921875"/>
  <rect x="16" y="9" width="1" height="1" fill="rgb(122,124,129)"/>
  <rect x="16" y="10" width="1" height="1" fill="rgb(94,100,109)"/>
  <rect x="16" y="11" width="1" height="1" fill="rgb(200,206,218)"/>
  <rect x="16" y="12" width="1" height="1" fill="rgb(182,185,197)"/>
  <rect x="16" y="13" width="1" height="1" fill="rgb(142,140,149)" fill-opacity="0.984375"/>
  <rect x="16" y="14" width="1" height="1" fill="rgb(52,50,50)" fill-opacity="0.8984375"/>
  <rect x="16" y="15" width="1" height="1" fill="rgb(51,51,51)" fill-opacity="0.21875"/>
  <rect x="16" y="16" width="1" height="5" fill="rgb(255,255,255)" fill-opacity="0.0078125"/>
  <rect x="17" y="0" width="1" height="7" fill="rgb(255,255,255)" fill-opacity="0.0078125"/>
  <rect x="17" y="7" width="1" height="1" fill="rgb(57,57,57)" fill-opacity="0.0390625"/>
  <rect x="17" y="8" width="1" height="1" fill="rgb(53,53,53)" fill-opacity="0.4609375"/>
  <rect x="17" y="9" width="1" height="1" fill="rgb(56,53,53)" fill-opacity="0.734375"/>
  <rect x="17" y="10" width="1" height="2" fill="rgb(55,53,53)" fill-opacity="0.9140625"/>
  <rect x="17" y="12" width="1" height="1" fill="rgb(56,53,53)" fill-opacity="0.734375"/>
  <rect x="17" y="13" width="1" height="1" fill="rgb(53,53,53)" fill-opacity="0.4609375"/>
  <rect x="17" y="14" width="1" height="1" fill="rgb(57,57,57)" fill-opacity="0.0390625"/>
  <rect x="17" y="15" width="1" height="6" fill="rgb(255,255,255)" fill-opacity="0.0078125"/>
  <rect x="18" y="0" width="1" height="21" fill="rgb(255,255,255)" fill-opacity="0.0078125"/>
  <rect x="19" y="0" width="1" height="21" fill="rgb(255,255,255)" fill-opacity="0.0078125"/>
  <rect x="20" y="0" width="1" height="21" fill="rgb(255,255,255)" fill-opacity="0.0078125"/>
</svg>