<svg xmlns="http://www.w3.org/2000/svg" shape-rendering="crispEdges" width="21" height="21" viewBox="0 0 21 21">
  <rect x="0" y="0" width="1" height="21" fill="rgb(255,255,255)" fill-opacity="0.0078125"/>
  <rect x="1" y="0" width="1" height="21" fill="rgb(255,255,255)" fill-opacity="0.0078125"/>
  <rect x="2" y="0" width="1" height="21" fill="rgb(255,255,255)" fill-opacity="0.0078125"/>
  <rect x="3" y="0" width="1" height="21" fill="rgb(255,255,255)" fill-opacity="0.0078125"/>
  <rect x="4" y="0" width="1" height="21" fill="rgb(255,255,255)" fill-opacity="0.0078125"/>
  <rect x="5" y="0" width="1" height="7" fill="rgb(255,255,255)" fill-opacity="0.0078125"/>
  <rect x="5" y="7" width="1" height="1" fill="rgb(49,49,49)" fill-opacity="0.1875"/>
  <rect x="5" y="8" width="1" height="1" fill="rgb(57,57,57)" fill-opacity="0.6171875"/>
  <rect x="5" y="9" width="1" height="1" fill="rgb(58,58,58)" fill-opacity="0.8515625"/>
  <rect x="5" y="10" width="1" height="1" fill="rgb(54,54,54)" fill-opacity="0.96875"/>
  <rect x="5" y="11" width="1" height="1" fill="rgb(60,60,60)" fill-opacity="0.859375"/>
  <rect x="5" y="12" width="1" height="1" fill="rgb(58,58,58)" fill-opacity="0.625"/>
  <rect x="5" y="13" width="1" height="1" fill="rgb(50,50,50)" fill-opacity="0.203125"/>
  <rect x="5" y="14" width="1" height="7" fill="rgb(255,255,255)" fill-opacity="0.0078125"/>
  <rect x="6" y="0" width="1" height="5" fill="rgb(255,255,255)" fill-opacity="0.0078125"/>
  <rect x="6" y="5" width="1" height="1" fill="rgb(85,85,85)" fill-opacity="0.015625"/>
  <rect x="6" y="6" width="1" height="1" fill="rgb(54,54,54)" fill-opacity="0.5234375"/>
  <rect x="6" y="7" width="1" height="1" fill="rgb(68,68,68)" fill-opacity="0.96875"/>
  <rect x="6" y="8" width="1" height="1" fill="rgb(185,185,185)"/>
  <rect x="6" y="9" width="1" height="1" fill="rgb(219,219,219)"/>
  <rect x="6" y="10" width="1" height="1" fill="rgb(230,230,230)"/>
  <rect x="6" y="11" width="1" height="1" fill="rgb(208,208,208)"/>
  <rect x="6" y="12" width="1" height="1" fill="rgb(171,171,171)"/>
  <rect x="6" y="13" width="1" height="1" fill="rgb(66,66,66)" fill-opacity="0.9609375"/>
  <rect x="6" y="14" width="1" height="1" fill="rgb(56,56,56)" fill-opacity="0.5546875"/>
  <rect x="6" y="15" width="1" height="1" fill="rgb(51,51,51)" fill-opacity="0.0234375"/>
  <rect x="6" y="16" width="1" height="5" fill="rgb(255,255,255)" fill-opacity="0.0078125"/>
  <rect x="7" y="0" width="1" height="5" fill="rgb(255,255,255)" fill-opacity="0.0078125"/>
  <rect x="7" y="5" width="1" height="1" fill="rgb(55,55,55)" fill-opacity="0.515625"/>
  <rect x="7" y="6" width="1" height="1" fill="rgb(115,115,115)" fill-opacity="0.96875"/>
  <rect x="7" y="7" width="1" height="1" fill="rgb(242,242,242)"/>
  <rect x="7" y="8" width="1" height="1" fill="rgb(214,214,214)"/>
  <rect x="7" y="9" width="1" height="1" fill="rgb(189,189,189)"/>
  <rect x="7" y="10" width="1" height="1" fill="rgb(167,167,167)"/>
  <rect x="7" y="11" width="1" height="1" fill="rgb(197,197,197)"/>
  <rect x="7" y="12" width="1" height="1" fill="rgb(213,213,213)"/>
  <rect x="7" y="13" width="1" height="1" fill="rgb(216,216,216)"/>
  <rect x="7" y="14" width="1" height="1" fill="rgb(104,104,104)" fill-opacity="0.9609375"/>
  <rect x="7" y="15" width="1" height="1" fill="rgb(58,58,58)" fill-opacity="0.5546875"/>
  <rect x="7" y="16" width="1" height="5" fill="rgb(255,255,255)" fill-opacity="0.0078125"/>
  <rect x="8" y="0" width="1" height="4" fill="rgb(255,255,255)" fill-opacity="0.0078125"/>
  <rect x="8" y="4" width="1" height="1" fill="rgb(49,49,49)" fill-opacity="0.1875"/>
  <rect x="8" y="5" width="1" height="1" fill="rgb(70,70,70)" fill-opacity="0.96875"/>
  <rect x="8" y="6" width="1" height="1" fill="rgb(243,243,243)"/>
  <rect x="8" y="7" width="1" height="1" fill="rgb(187,187,187)"/>
  <rect x="8" y="8" width="1" height="1" fill="rgb(170,170,170)"/>
  <rect x="8" y="9" width="1" height="1" fill="rgb(146,146,146)"/>
  <rect x="8" y="10" width="1" height="1" fill="rgb(1,1,1)"/>
  <rect x="8" y="11" width="1" height="1" fill="rgb(158,158,158)"/>
  <rect x="8" y="12" width="1" height="1" fill="rgb(198,198,198)"/>
  <rect x="8" y="13" width="1" height="1" fill="rgb(212,212,212)"/>
  <rect x="8" y="14" width="1" height="1" fill="rgb(216,216,216)"/>
  <rect x="8" y="15" width="1" height="1" fill="rgb(65,65,65)" fill-opacity="0.9609375"/>
  <rect x="8" y="16" width="1" height="1" fill="rgb(53,53,53)" fill-opacity="0.2109375"/>
  <rect x="8" y="17" width="1" height="4" fill="rgb(255,255,255)" fill-opacity="0.0078125"/>
  <rect x="9" y="0" width="1" height="4" fill="rgb(255,255,255)" fill-opacity="0.0078125"/>
  <rect x="9" y="4" width="1" height="1" fill="rgb(56,56,56)" fill-opacity="0.6484375"/>
  <rect x="9" y="5" width="1" height="1" fill="rgb(190,190,190)"/>
  <rect x="9" y="6" width="1" height="1" fill="rgb(209,209,209)"/>
  <rect x="9" y="7" width="1" height="1" fill="rgb(169,169,169)"/>
  <rect x="9" y="8" width="1" height="1" fill="rgb(176,176,176)"/>
  <rect x="9" y="9" width="1" height="1" fill="rgb(137,137,137)"/>
  <rect x="9" y="10" width="1" height="1" fill="rgb(0,0,0)"/>
  <rect x="9" y="11" width="1" height="1" fill="rgb(160,160,160)"/>
  <rect x="9" y="12" width="1" height="1" fill="rgb(205,205,205)"/>
  <rect x="9" y="13" width="1" height="1" fill="rgb(212,212,212)"/>
  <rect x="9" y="14" width="1" height="1" fill="rgb(224,224,224)"/>
  <rect x="9" y="15" width="1" height="1" fill="rgb(159,159,159)"/>
  <rect x="9" y="16" width="1" height="1" fill="rgb(63,63,63)" fill-opacity="0.6875"/>
  <rect x="9" y="17" width="1" height="4" fill="rgb(255,255,255)" fill-opacity="0.0078125"/>
  <rect x="10" y="0" width="1" height="4" fill="rgb(255,255,255)" fill-opacity="0.0078125"/>
  <rect x="10" y="4" width="1" height="1" fill="rgb(57,57,57)" fill-opacity="0.875"/>
  <rect x="10" y="5" width="1" height="1" fill="rgb(224,224,224)"/>
  <rect x="10" y="6" width="1" height="1" fill="rgb(185,185,185)"/>
  <rect x="10" y="7" width="1" height="1" fill="rgb(146,146,146)"/>
  <rect x="10" y="8" width="1" height="1" fill="rgb(143,143,143)"/>
  <rect x="10" y="9" width="1" height="1" fill="rgb(113,113,113)"/>
  <rect x="10" y="10" width="1" height="1" fill="rgb(0,0,0)"/>
  <rect x="10" y="11" width="1" height="1" fill="rgb(134,134,134)"/>
  <rect x="10" y="12" width="1" height="1" fill="rgb(188,188,188)"/>
  <rect x="10" y="13" width="1" height="1" fill="rgb(210,210,210)"/>
  <rect x="10" y="14" width="1" height="1" fill="rgb(239,239,239)"/>
  <rect x="10" y="15" width="1" height="1" fill="rgb(199,199,199)"/>
  <rect x="10" y="16" width="1" height="1" fill="rgb(61,61,61)" fill-opacity="0.8984375"/>
  <rect x="10" y="17" width="1" height="4" fill="rgb(255,255,255)" fill-opacity="0.0078125"/>
  <rect x="11" y="0" width="1" height="4" fill="rgb(255,255,255)" fill-opacity="0.0078125"/>
  <rect x="11" y="4" width="1" height="1" fill="rgb(53,53,53)" fill-opacity="0.984375"/>
  <rect x="11" y="5" width="1" height="1" fill="rgb(237,237,237)"/>
  <rect x="11" y="6" width="1" height="1" fill="rgb(158,158,158)"/>
  <rect x="11" y="7" width="1" height="7" fill="rgb(0,0,0)"/>
  <rect x="11" y="14" width="1" height="1" fill="rgb(216,216,216)"/>
  <rect x="11" y="15" width="1" height="1" fill="rgb(232,232,232)"/>
  <rect x="11" y="16" width="1" height="1" fill="rgb(52,52,52)"/>
  <rect x="11" y="17" width="1" height="1" fill="rgb(0,0,0)" fill-opacity="0.015625"/>
  <rect x="11" y="18" width="1" height="3" fill="rgb(255,255,255)" fill-opacity="0.0078125"/>
  <rect x="12" y="0" width="1" height="4" fill="rgb(255,255,255)" fill-opacity="0.0078125"/>
  <rect x="12" y="4" width="1" height="1" fill="rgb(58,58,58)" fill-opacity="0.8828125"/>
  <rect x="12" y="5" width="1" height="1" fill="rgb(214,214,214)"/>
  <rect x="12" y="6" width="1" height="1" fill="rgb(192,192,192)"/>
  <rect x="12" y="7" width="1" height="1" fill="rgb(151,151,151)"/>
  <rect x="12" y="8" width="1" height="1" fill="rgb(152,152,152)"/>
  <rect x="12" y="9" width="1" height="1" fill="rgb(123,123,123)"/>
  <rect x="12" y="10" width="1" height="1" fill="rgb(0,0,0)"/>
  <rect x="12" y="11" width="1" height="1" fill="rgb(135,135,135)"/>
  <rect x="12" y="12" width="1" height="1" fill="rgb(183,183,183)"/>
  <rect x="12" y="13" width="1" height="1" fill="rgb(196,196,196)"/>
  <rect x="12" y="14" width="1" height="1" fill="rgb(247,247,247)"/>
  <rect x="12" y="15" width="1" height="1" fill="rgb(208,208,208)"/>
  <rect x="12" y="16" width="1" height="1" fill="rgb(62,62,62)" fill-opacity="0.90625"/>
  <rect x="12" y="17" width="1" height="4" fill="rgb(255,255,255)" fill-opacity="0.0078125"/>
  <rect x="13" y="0" width="1" height="4" fill="rgb(255,255,255)" fill-opacity="0.0078125"/>
  <rect x="13" y="4" width="1" height="1" fill="rgb(58,58,58)" fill-opacity="0.6640625"/>
  <rect x="13" y="5" width="1" height="1" fill="rgb(176,176,176)"/>
  <rect x="13" y="6" width="1" height="1" fill="rgb(209,209,209)"/>
  <rect x="13" y="7" width="1" height="1" fill="rgb(196,196,196)"/>
  <rect x="13" y="8" width="1" height="1" fill="rgb(204,204,204)"/>
  <rect x="13" y="9" width="1" height="1" fill="rgb(181,181,181)"/>
  <rect x="13" y="10" width="1" height="1" fill="rgb(0,0,0)"/>
  <rect x="13" y="11" width="1" height="1" fill="rgb(191,191,191)"/>
  <rect x="13" y="12" width="1" height="1" fill="rgb(234,234,234)"/>
  <rect x="13" y="13" width="1" height="1" fill="rgb(240,240,240)"/>
  <rect x="13" y="14" width="1" height="1" fill="rgb(247,247,247)"/>
  <rect x="13" y="15" width="1" height="1" fill="rgb(168,168,168)"/>
  <rect x="13" y="16" width="1" height="1" fill="rgb(63,63,63)" fill-opacity="0.6953125"/>
  <rect x="13" y="17" width="1" height="4" fill="rgb(255,255,255)" fill-opacity="0.0078125"/>
  <rect x="14" y="0" width="1" height="4" fill="rgb(255,255,255)" fill-opacity="0.0078125"/>
  <rect x="14" y="4" width="1" height="1" fill="rgb(50,50,50)" fill-opacity="0.203125"/>
  <rect x="14" y="5" width="1" height="1" fill="rgb(69,69,69)" fill-opacity="0.96875"/>
  <rect x="14" y="6" width="1" height="1" fill="rgb(215,215,215)"/>
  <rect x="14" y="7" width="1" height="1" fill="rgb(208,208,208)"/>
  <rect x="14" y="8" width="1" height="1" fill="rgb(210,210,210)"/>
  <rect x="14" y="9" width="1" height="1" fill="rgb(198,198,198)"/>
  <rect x="14" y="10" width="1" height="1" fill="rgb(0,0,0)"/>
  <rect x="14" y="11" width="1" height="1" fill="rgb(205,205,205)"/>
  <rect x="14" y="12" width="1" height="1" fill="rgb(239,239,239)"/>
  <rect x="14" y="13" width="1" height="1" fill="rgb(247,247,247)"/>
  <rect x="14" y="14" width="1" height="1" fill="rgb(240,240,240)"/>
  <rect x="14" y="15" width="1" height="1" fill="rgb(65,65,65)" fill-opacity="0.9609375"/>
  <rect x="14" y="16" width="1" height="1" fill="rgb(49,49,49)" fill-opacity="0.2265625"/>
  <rect x="14" y="17" width="1" height="4" fill="rgb(255,255,255)" fill-opacity="0.0078125"/>
  <rect x="15" y="0" width="1" height="5" fill="rgb(255,255,255)" fill-opacity="0.0078125"/>
  <rect x="15" y="5" width="1" height="1" fill="rgb(58,58,58)" fill-opacity="0.5390625"/>
  <rect x="15" y="6" width="1" height="1" fill="rgb(106,106,106)" fill-opacity="0.96875"/>
  <rect x="15" y="7" width="1" height="1" fill="rgb(215,215,215)"/>
  <rect x="15" y="8" width="1" height="1" fill="rgb(222,222,222)"/>
  <rect x="15" y="9" width="1" height="1" fill="rgb(239,239,239)"/>
  <rect x="15" y="10" width="1" height="1" fill="rgb(216,216,216)"/>
  <rect x="15" y="11" width="1" height="2" fill="rgb(246,246,246)"/>
  <rect x="15" y="13" width="1" height="1" fill="rgb(240,240,240)"/>
  <rect x="15" y="14" width="1" height="1" fill="rgb(105,105,105)" fill-opacity="0.9609375"/>
  <rect x="15" y="15" width="1" height="1" fill="rgb(61,61,61)" fill-opacity="0.578125"/>
  <rect x="15" y="16" width="1" height="5" fill="rgb(255,255,255)" fill-opacity="0.0078125"/>
  <rect x="16" y="0" width="1" height="5" fill="rgb(255,255,255)" fill-opacity="0.0078125"/>
  <rect x="16" y="5" width="1" height="1" fill="rgb(51,51,51)" fill-opacity="0.0234375"/>
  <rect x="16" y="6" width="1" height="1" fill="rgb(57,57,57)" fill-opacity="0.5625"/>
  <rect x="16" y="7" width="1" height="1" fill="rgb(66,66,66)" fill-opacity="0.9609375"/>
  <rect x="16" y="8" width="1" height="1" fill="rgb(160,160,160)"/>
  <rect x="16" y="9" width="1" height="1" fill="rgb(200,200,200)"/>
  <rect x="16" y="10" width="1" height="1" fill="rgb(229,229,229)"/>
  <rect x="16" y="11" width="1" height="1" fill="rgb(209,209,209)"/>
  <rect x="16" y="12" width="1" height="1" fill="rgb(171,171,171)"/>
  <rect x="16" y="13" width="1" height="1" fill="rgb(65,65,65)" fill-opacity="0.9609375"/>
  <rect x="16" y="14" width="1" height="1" fill="rgb(60,60,60)" fill-opacity="0.5859375"/>
  <rect x="16" y="15" width="1" height="1" fill="rgb(43,43,43)" fill-opacity="0.03125"/>
  <rect x="16" y="16" width="1" height="5" fill="rgb(255,255,255)" fill-opacity="0.0078125"/>
  <rect x="17" y="0" width="1" height="7" fill="rgb(255,255,255)" fill-opacity="0.0078125"/>
  <rect x="17" y="7" width="1" height="1" fill="rgb(52,52,52)" fill-opacity="0.21875"/>
  <rect x="17" y="8" width="1" height="1" fill="rgb(61,61,61)" fill-opacity="0.65625"/>
  <rect x="17" y="9" width="1" height="1" fill="rgb(63,63,63)" fill-opacity="0.875"/>
  <rect x="17" y="10" width="1" height="1" fill="rgb(54,54,54)" fill-opacity="0.984375"/>
  <rect x="17" y="11" width="1" height="1" fill="rgb(63,63,63)" fill-opacity="0.8828125"/>
  <rect x="17" y="12" width="1" height="1" fill="rgb(63,63,63)" fill-opacity="0.671875"/>
  <rect x="17" y="13" width="1" height="1" fill="rgb(53,53,53)" fill-opacity="0.234375"/>
  <rect x="17" y="14" width="1" height="7" fill="rgb(255,255,255)" fill-opacity="0.0078125"/>
  <rect x="18" y="0" width="1" height="21" fill="rgb(255,255,255)" fill-opacity="0.0078125"/>
  <rect x="19" y="0" width="1" height="21" fill="rgb(255,255,255)" fill-opacity="0.0078125"/>
  <rect x="20" y="0" width="1" height="21" fill="rgb(255,255,255)" fill-opacity="0.0078125"/>
</svg>