<svg xmlns="http://www.w3.org/2000/svg" shape-rendering="crispEdges" width="21" height="21" viewBox="0 0 21 21">
  <rect x="0" y="0" width="1" height="21" fill="rgb(255,255,255)" fill-opacity="0.0078125"/>
  <rect x="1" y="0" width="1" height="21" fill="rgb(255,255,255)" fill-opacity="0.0078125"/>
  <rect x="2" y="0" width="1" height="21" fill="rgb(255,255,255)" fill-opacity="0.0078125"/>
  <rect x="3" y="0" width="1" height="7" fill="rgb(255,255,255)" fill-opacity="0.0078125"/>
  <rect x="3" y="7" width="1" height="1" fill="rgb(33,55,92)" fill-opacity="0.796875"/>
  <rect x="3" y="8" width="1" height="5" fill="rgb(34,58,95)" fill-opacity="0.9140625"/>
  <rect x="3" y="13" width="1" height="1" fill="rgb(33,55,92)" fill-opacity="0.796875"/>
  <rect x="3" y="14" width="1" height="7" fill="rgb(255,255,255)" fill-opacity="0.0078125"/>
  <rect x="4" y="0" width="1" height="7" fill="rgb(255,255,255)" fill-opacity="0.0078125"/>
  <rect x="4" y="7" width="1" height="1" fill="rgb(33,57,93)" fill-opacity="0.9140625"/>
  <rect x="4" y="8" width="1" height="1" fill="rgb(193,210,235)"/>
  <rect x="4" y="9" width="1" height="1" fill="rgb(201,216,238)"/>
  <rect x="4" y="10" width="1" height="2" fill="rgb(202,217,238)"/>
  <rect x="4" y="12" width="1" height="1" fill="rgb(194,211,235)"/>
  <rect x="4" y="13" width="1" height="1" fill="rgb(33,57,93)" fill-opacity="0.9140625"/>
  <rect x="4" y="14" width="1" height="7" fill="rgb(255,255,255)" fill-opacity="0.0078125"/>
  <rect x="5" y="0" width="1" height="7" fill="rgb(255,255,255)" fill-opacity="0.0078125"/>
  <rect x="5" y="7" width="1" height="1" fill="rgb(33,57,93)" fill-opacity="0.9140625"/>
  <rect x="5" y="8" width="1" height="1" fill="rgb(195,212,236)"/>
  <rect x="5" y="9" width="1" height="3" fill="rgb(130,165,215)"/>
  <rect x="5" y="12" width="1" height="1" fill="rgb(196,212,236)"/>
  <rect x="5" y="13" width="1" height="1" fill="rgb(33,57,93)" fill-opacity="0.9140625"/>
  <rect x="5" y="14" width="1" height="7" fill="rgb(255,255,255)" fill-opacity="0.0078125"/>
  <rect x="6" y="0" width="1" height="7" fill="rgb(255,255,255)" fill-opacity="0.0078125"/>
  <rect x="6" y="7" width="1" height="1" fill="rgb(32,56,93)" fill-opacity="0.9140625"/>
  <rect x="6" y="8" width="1" height="1" fill="rgb(189,207,234)"/>
  <rect x="6" y="9" width="1" height="3" fill="rgb(124,160,213)"/>
  <rect x="6" y="12" width="1" height="1" fill="rgb(190,208,234)"/>
  <rect x="6" y="13" width="1" height="1" fill="rgb(32,56,93)" fill-opacity="0.9140625"/>
  <rect x="6" y="14" width="1" height="7" fill="rgb(255,255,255)" fill-opacity="0.0078125"/>
  <rect x="7" y="0" width="1" height="7" fill="rgb(255,255,255)" fill-opacity="0.0078125"/>
  <rect x="7" y="7" width="1" height="1" fill="rgb(32,56,93)" fill-opacity="0.9140625"/>
  <rect x="7" y="8" width="1" height="1" fill="rgb(182,203,232)"/>
  <rect x="7" y="9" width="1" height="3" fill="rgb(118,156,211)"/>
  <rect x="7" y="12" width="1" height="1" fill="rgb(183,203,232)"/>
  <rect x="7" y="13" width="1" height="1" fill="rgb(32,56,93)" fill-opacity="0.9140625"/>
  <rect x="7" y="14" width="1" height="7" fill="rgb(255,255,255)" fill-opacity="0.0078125"/>
  <rect x="8" y="0" width="1" height="3" fill="rgb(255,255,255)" fill-opacity="0.0078125"/>
  <rect x="8" y="3" width="1" height="1" fill="rgb(26,26,26)" fill-opacity="0.046875"/>
  <rect x="8" y="4" width="1" height="1" fill="rgb(50,50,50)" fill-opacity="0.359375"/>
  <rect x="8" y="5" width="1" height="1" fill="rgb(77,77,77)" fill-opacity="0.4453125"/>
  <rect x="8" y="6" width="1" height="1" fill="rgb(68,68,68)" fill-opacity="0.4296875"/>
  <rect x="8" y="7" width="1" height="1" fill="rgb(39,58,84)" fill-opacity="0.8671875"/>
  <rect x="8" y="8" width="1" height="1" fill="rgb(46,67,100)" fill-opacity="0.9765625"/>
  <rect x="8" y="9" width="1" height="1" fill="rgb(102,119,145)" fill-opacity="0.9453125"/>
  <rect x="8" y="10" width="1" height="1" fill="rgb(100,117,145)" fill-opacity="0.9296875"/>
  <rect x="8" y="11" width="1" height="1" fill="rgb(98,116,144)" fill-opacity="0.9296875"/>
  <rect x="8" y="12" width="1" height="1" fill="rgb(104,121,147)" fill-opacity="0.9453125"/>
  <rect x="8" y="13" width="1" height="1" fill="rgb(90,106,128)" fill-opacity="0.9375"/>
  <rect x="8" y="14" width="1" height="1" fill="rgb(35,55,86)" fill-opacity="0.8984375"/>
  <rect x="8" y="15" width="1" height="1" fill="rgb(58,64,72)" fill-opacity="0.4921875"/>
  <rect x="8" y="16" width="1" height="1" fill="rgb(66,66,66)" fill-opacity="0.4296875"/>
  <rect x="8" y="17" width="1" height="1" fill="rgb(54,54,54)" fill-opacity="0.3203125"/>
  <rect x="8" y="18" width="1" height="1" fill="rgb(0,0,0)" fill-opacity="0.015625"/>
  <rect x="8" y="19" width="1" height="2" fill="rgb(255,255,255)" fill-opacity="0.0078125"/>
  <rect x="9" y="0" width="1" height="3" fill="rgb(255,255,255)" fill-opacity="0.0078125"/>
  <rect x="9" y="3" width="1" height="1" fill="rgb(42,42,42)" fill-opacity="0.2890625"/>
  <rect x="9" y="4" width="1" height="1" fill="rgb(197,197,197)" fill-opacity="0.5"/>
  <rect x="9" y="5" width="1" height="1" fill="rgb(251,251,251)" fill-opacity="0.5"/>
  <rect x="9" y="6" width="1" height="1" fill="rgb(229,229,229)" fill-opacity="0.5"/>
  <rect x="9" y="7" width="1" height="1" fill="rgb(255,255,255)" fill-opacity="0.5"/>
  <rect x="9" y="8" width="1" height="1" fill="rgb(110,125,146)" fill-opacity="0.7421875"/>
  <rect x="9" y="9" width="1" height="1" fill="rgb(115,132,156)" fill-opacity="0.984375"/>
  <rect x="9" y="10" width="1" height="1" fill="rgb(223,232,245)"/>
  <rect x="9" y="11" width="1" height="1" fill="rgb(215,226,244)"/>
  <rect x="9" y="12" width="1" height="1" fill="rgb(215,227,244)"/>
  <rect x="9" y="13" width="1" height="1" fill="rgb(216,227,244)"/>
  <rect x="9" y="14" width="1" height="1" fill="rgb(141,156,180)" fill-opacity="0.9921875"/>
  <rect x="9" y="15" width="1" height="1" fill="rgb(75,95,121)" fill-opacity="0.8359375"/>
  <rect x="9" y="16" width="1" height="1" fill="rgb(255,255,255)" fill-opacity="0.5"/>
  <rect x="9" y="17" width="1" height="1" fill="rgb(163,163,163)" fill-opacity="0.4921875"/>
  <rect x="9" y="18" width="1" height="1" fill="rgb(47,47,47)" fill-opacity="0.2578125"/>
  <rect x="9" y="19" width="1" height="2" fill="rgb(255,255,255)" fill-opacity="0.0078125"/>
  <rect x="10" y="0" width="1" height="3" fill="rgb(255,255,255)" fill-opacity="0.0078125"/>
  <rect x="10" y="3" width="1" height="1" fill="rgb(57,57,57)" fill-opacity="0.40625"/>
  <rect x="10" y="4" width="1" height="2" fill="rgb(255,255,255)" fill-opacity="0.5"/>
  <rect x="10" y="6" width="1" height="1" fill="rgb(179,179,179)" fill-opacity="0.5"/>
  <rect x="10" y="7" width="1" height="1" fill="rgb(229,229,229)" fill-opacity="0.5"/>
  <rect x="10" y="8" width="1" height="1" fill="rgb(182,185,194)" fill-opacity="0.5625"/>
  <rect x="10" y="9" width="1" height="1" fill="rgb(63,85,118)" fill-opacity="0.9609375"/>
  <rect x="10" y="10" width="1" height="1" fill="rgb(200,215,238)"/>
  <rect x="10" y="11" width="1" height="3" fill="rgb(182,202,232)"/>
  <rect x="10" y="14" width="1" height="1" fill="rgb(167,188,218)"/>
  <rect x="10" y="15" width="1" height="1" fill="rgb(47,70,101)" fill-opacity="0.9296875"/>
  <rect x="10" y="16" width="1" height="1" fill="rgb(221,221,221)" fill-opacity="0.5"/>
  <rect x="10" y="17" width="1" height="1" fill="rgb(223,223,223)" fill-opacity="0.5"/>
  <rect x="10" y="18" width="1" height="1" fill="rgb(53,53,53)" fill-opacity="0.3828125"/>
  <rect x="10" y="19" width="1" height="2" fill="rgb(255,255,255)" fill-opacity="0.0078125"/>
  <rect x="11" y="0" width="1" height="3" fill="rgb(255,255,255)" fill-opacity="0.0078125"/>
  <rect x="11" y="3" width="1" height="1" fill="rgb(68,68,68)" fill-opacity="0.4453125"/>
  <rect x="11" y="4" width="1" height="2" fill="rgb(255,255,255)" fill-opacity="0.5"/>
  <rect x="11" y="6" width="1" height="1" fill="rgb(139,139,139)" fill-opacity="0.5"/>
  <rect x="11" y="7" width="1" height="1" fill="rgb(187,187,187)" fill-opacity="0.5"/>
  <rect x="11" y="8" width="1" height="1" fill="rgb(185,185,185)" fill-opacity="0.5078125"/>
  <rect x="11" y="9" width="1" height="1" fill="rgb(39,61,96)" fill-opacity="0.96875"/>
  <rect x="11" y="10" width="1" height="1" fill="rgb(178,200,231)"/>
  <rect x="11" y="11" width="1" height="3" fill="rgb(148,178,221)"/>
  <rect x="11" y="14" width="1" height="1" fill="rgb(149,178,221)"/>
  <rect x="11" y="15" width="1" height="1" fill="rgb(33,57,91)" fill-opacity="0.96875"/>
  <rect x="11" y="16" width="1" height="1" fill="rgb(179,179,179)" fill-opacity="0.5"/>
  <rect x="11" y="17" width="1" height="1" fill="rgb(203,203,203)" fill-opacity="0.5"/>
  <rect x="11" y="18" width="1" height="1" fill="rgb(50,50,50)" fill-opacity="0.421875"/>
  <rect x="11" y="19" width="1" height="2" fill="rgb(255,255,255)" fill-opacity="0.0078125"/>
  <rect x="12" y="0" width="1" height="3" fill="rgb(255,255,255)" fill-opacity="0.0078125"/>
  <rect x="12" y="3" width="1" height="1" fill="rgb(50,50,50)" fill-opacity="0.40625"/>
  <rect x="12" y="4" width="1" height="1" fill="rgb(251,251,251)" fill-opacity="0.5"/>
  <rect x="12" y="5" width="1" height="1" fill="rgb(247,247,247)" fill-opacity="0.5"/>
  <rect x="12" y="6" width="1" height="1" fill="rgb(94,94,94)" fill-opacity="0.5"/>
  <rect x="12" y="7" width="1" height="1" fill="rgb(147,147,147)" fill-opacity="0.5"/>
  <rect x="12" y="8" width="1" height="1" fill="rgb(116,121,130)" fill-opacity="0.5703125"/>
  <rect x="12" y="9" width="1" height="1" fill="rgb(49,74,111)" fill-opacity="0.9609375"/>
  <rect x="12" y="10" width="1" height="1" fill="rgb(149,178,220)"/>
  <rect x="12" y="11" width="1" height="2" fill="rgb(115,153,209)"/>
  <rect x="12" y="13" width="1" height="1" fill="rgb(115,154,209)"/>
  <rect x="12" y="14" width="1" height="1" fill="rgb(106,144,198)"/>
  <rect x="12" y="15" width="1" height="1" fill="rgb(37,61,93)" fill-opacity="0.9296875"/>
  <rect x="12" y="16" width="1" height="1" fill="rgb(141,141,141)" fill-opacity="0.5"/>
  <rect x="12" y="17" width="1" height="1" fill="rgb(157,157,157)" fill-opacity="0.5"/>
  <rect x="12" y="18" width="1" height="1" fill="rgb(43,43,43)" fill-opacity="0.3828125"/>
  <rect x="12" y="19" width="1" height="2" fill="rgb(255,255,255)" fill-opacity="0.0078125"/>
  <rect x="13" y="0" width="1" height="3" fill="rgb(255,255,255)" fill-opacity="0.0078125"/>
  <rect x="13" y="3" width="1" height="1" fill="rgb(32,32,32)" fill-opacity="0.28125"/>
  <rect x="13" y="4" width="1" height="1" fill="rgb(165,165,165)" fill-opacity="0.5"/>
  <rect x="13" y="5" width="1" height="1" fill="rgb(199,199,199)" fill-opacity="0.5"/>
  <rect x="13" y="6" width="1" height="1" fill="rgb(74,74,74)" fill-opacity="0.5"/>
  <rect x="13" y="7" width="1" height="1" fill="rgb(145,145,145)" fill-opacity="0.5"/>
  <rect x="13" y="8" width="1" height="1" fill="rgb(64,80,105)" fill-opacity="0.7578125"/>
  <rect x="13" y="9" width="1" height="1" fill="rgb(65,97,141)" fill-opacity="0.984375"/>
  <rect x="13" y="10" width="1" height="1" fill="rgb(115,154,209)"/>
  <rect x="13" y="11" width="1" height="3" fill="rgb(81,129,198)"/>
  <rect x="13" y="14" width="1" height="1" fill="rgb(59,97,151)" fill-opacity="0.984375"/>
  <rect x="13" y="15" width="1" height="1" fill="rgb(45,65,94)" fill-opacity="0.8359375"/>
  <rect x="13" y="16" width="1" height="1" fill="rgb(122,122,122)" fill-opacity="0.5"/>
  <rect x="13" y="17" width="1" height="1" fill="rgb(75,75,75)" fill-opacity="0.4921875"/>
  <rect x="13" y="18" width="1" height="1" fill="rgb(33,33,33)" fill-opacity="0.25"/>
  <rect x="13" y="19" width="1" height="2" fill="rgb(255,255,255)" fill-opacity="0.0078125"/>
  <rect x="14" y="0" width="1" height="3" fill="rgb(255,255,255)" fill-opacity="0.0078125"/>
  <rect x="14" y="3" width="1" height="1" fill="rgb(0,0,0)" fill-opacity="0.0234375"/>
  <rect x="14" y="4" width="1" height="1" fill="rgb(40,40,40)" fill-opacity="0.328125"/>
  <rect x="14" y="5" width="1" height="1" fill="rgb(12,12,12)" fill-opacity="0.4921875"/>
  <rect x="14" y="6" width="1" height="1" fill="rgb(28,28,28)" fill-opacity="0.4375"/>
  <rect x="14" y="7" width="1" height="1" fill="rgb(27,47,75)" fill-opacity="0.875"/>
  <rect x="14" y="8" width="1" height="1" fill="rgb(28,52,89)" fill-opacity="0.9765625"/>
  <rect x="14" y="9" width="1" height="1" fill="rgb(47,75,116)" fill-opacity="0.953125"/>
  <rect x="14" y="10" width="1" height="1" fill="rgb(35,65,110)" fill-opacity="0.953125"/>
  <rect x="14" y="11" width="1" height="1" fill="rgb(33,63,110)" fill-opacity="0.9453125"/>
  <rect x="14" y="12" width="1" height="1" fill="rgb(37,66,111)" fill-opacity="0.953125"/>
  <rect x="14" y="13" width="1" height="1" fill="rgb(32,62,105)" fill-opacity="0.9453125"/>
  <rect x="14" y="14" width="1" height="1" fill="rgb(23,46,80)" fill-opacity="0.8984375"/>
  <rect x="14" y="15" width="1" height="1" fill="rgb(29,35,43)" fill-opacity="0.4921875"/>
  <rect x="14" y="16" width="1" height="1" fill="rgb(31,31,31)" fill-opacity="0.4296875"/>
  <rect x="14" y="17" width="1" height="1" fill="rgb(29,29,29)" fill-opacity="0.3203125"/>
  <rect x="14" y="18" width="1" height="1" fill="rgb(0,0,0)" fill-opacity="0.015625"/>
  <rect x="14" y="19" width="1" height="2" fill="rgb(255,255,255)" fill-opacity="0.0078125"/>
  <rect x="15" y="0" width="1" height="7" fill="rgb(255,255,255)" fill-opacity="0.0078125"/>
  <rect x="15" y="7" width="1" height="1" fill="rgb(26,53,91)" fill-opacity="0.9140625"/>
  <rect x="15" y="8" width="1" height="1" fill="rgb(119,157,210)"/>
  <rect x="15" y="9" width="1" height="3" fill="rgb(70,121,194)"/>
  <rect x="15" y="12" width="1" height="1" fill="rgb(120,157,211)"/>
  <rect x="15" y="13" width="1" height="1" fill="rgb(26,53,91)" fill-opacity="0.9140625"/>
  <rect x="15" y="14" width="1" height="7" fill="rgb(255,255,255)" fill-opacity="0.0078125"/>
  <rect x="16" y="0" width="1" height="7" fill="rgb(255,255,255)" fill-opacity="0.0078125"/>
  <rect x="16" y="7" width="1" height="1" fill="rgb(26,52,91)" fill-opacity="0.9140625"/>
  <rect x="16" y="8" width="1" height="1" fill="rgb(110,149,207)"/>
  <rect x="16" y="9" width="1" height="3" fill="rgb(64,116,192)"/>
  <rect x="16" y="12" width="1" height="1" fill="rgb(110,150,207)"/>
  <rect x="16" y="13" width="1" height="1" fill="rgb(26,52,91)" fill-opacity="0.9140625"/>
  <rect x="16" y="14" width="1" height="7" fill="rgb(255,255,255)" fill-opacity="0.0078125"/>
  <rect x="17" y="0" width="1" height="7" fill="rgb(255,255,255)" fill-opacity="0.0078125"/>
  <rect x="17" y="7" width="1" height="1" fill="rgb(25,52,91)" fill-opacity="0.9140625"/>
  <rect x="17" y="8" width="1" height="1" fill="rgb(94,138,202)"/>
  <rect x="17" y="9" width="1" height="3" fill="rgb(100,143,204)"/>
  <rect x="17" y="12" width="1" height="1" fill="rgb(95,139,202)"/>
  <rect x="17" y="13" width="1" height="1" fill="rgb(25,52,91)" fill-opacity="0.9140625"/>
  <rect x="17" y="14" width="1" height="7" fill="rgb(255,255,255)" fill-opacity="0.0078125"/>
  <rect x="18" y="0" width="1" height="7" fill="rgb(255,255,255)" fill-opacity="0.0078125"/>
  <rect x="18" y="7" width="1" height="1" fill="rgb(25,50,89)" fill-opacity="0.796875"/>
  <rect x="18" y="8" width="1" height="5" fill="rgb(25,52,91)" fill-opacity="0.9140625"/>
  <rect x="18" y="13" width="1" height="1" fill="rgb(25,50,89)" fill-opacity="0.796875"/>
  <rect x="18" y="14" width="1" height="7" fill="rgb(255,255,255)" fill-opacity="0.0078125"/>
  <rect x="19" y="0" width="1" height="21" fill="rgb(255,255,255)" fill-opacity="0.0078125"/>
  <rect x="20" y="0" width="1" height="21" fill="rgb(255,255,255)" fill-opacity="0.0078125"/>
</svg>