<svg xmlns="http://www.w3.org/2000/svg" shape-rendering="crispEdges" width="21" height="21" viewBox="0 0 21 21">
  <rect x="0" y="0" width="1" height="21" fill="rgb(255,255,255)" fill-opacity="0.0078125"/>
  <rect x="1" y="0" width="1" height="21" fill="rgb(255,255,255)" fill-opacity="0.0078125"/>
  <rect x="2" y="0" width="1" height="21" fill="rgb(255,255,255)" fill-opacity="0.0078125"/>
  <rect x="3" y="0" width="1" height="21" fill="rgb(255,255,255)" fill-opacity="0.0078125"/>
  <rect x="4" y="0" width="1" height="21" fill="rgb(255,255,255)" fill-opacity="0.0078125"/>
  <rect x="5" y="0" width="1" height="6" fill="rgb(255,255,255)" fill-opacity="0.0078125"/>
  <rect x="5" y="6" width="1" height="1" fill="rgb(61,37,11)" fill-opacity="0.7890625"/>
  <rect x="5" y="7" width="1" height="7" fill="rgb(70,40,8)"/>
  <rect x="5" y="14" width="1" height="1" fill="rgb(65,39,10)" fill-opacity="0.9375"/>
  <rect x="5" y="15" width="1" height="1" fill="rgb(43,43,0)" fill-opacity="0.03125"/>
  <rect x="5" y="16" width="1" height="5" fill="rgb(255,255,255)" fill-opacity="0.0078125"/>
  <rect x="6" y="0" width="1" height="5" fill="rgb(255,255,255)" fill-opacity="0.0078125"/>
  <rect x="6" y="5" width="1" height="1" fill="rgb(45,45,15)" fill-opacity="0.0703125"/>
  <rect x="6" y="6" width="1" height="1" fill="rgb(127,89,48)" fill-opacity="0.9921875"/>
  <rect x="6" y="7" width="1" height="3" fill="rgb(255,255,255)"/>
  <rect x="6" y="10" width="1" height="2" fill="rgb(254,254,254)"/>
  <rect x="6" y="12" width="1" height="1" fill="rgb(253,253,253)"/>
  <rect x="6" y="13" width="1" height="1" fill="rgb(253,251,250)"/>
  <rect x="6" y="14" width="1" height="1" fill="rgb(162,131,98)"/>
  <rect x="6" y="15" width="1" height="1" fill="rgb(58,37,14)" fill-opacity="0.5703125"/>
  <rect x="6" y="16" width="1" height="5" fill="rgb(255,255,255)" fill-opacity="0.0078125"/>
  <rect x="7" y="0" width="1" height="5" fill="rgb(255,255,255)" fill-opacity="0.0078125"/>
  <rect x="7" y="5" width="1" height="1" fill="rgb(55,35,14)" fill-opacity="0.515625"/>
  <rect x="7" y="6" width="1" height="1" fill="rgb(205,158,107)"/>
  <rect x="7" y="7" width="1" height="1" fill="rgb(252,236,218)"/>
  <rect x="7" y="8" width="1" height="1" fill="rgb(246,201,153)"/>
  <rect x="7" y="9" width="1" height="4" fill="rgb(237,152,61)"/>
  <rect x="7" y="13" width="1" height="1" fill="rgb(241,178,109)"/>
  <rect x="7" y="14" width="1" height="1" fill="rgb(241,223,203)"/>
  <rect x="7" y="15" width="1" height="1" fill="rgb(73,45,15)" fill-opacity="0.96875"/>
  <rect x="7" y="16" width="1" height="1" fill="rgb(43,43,14)" fill-opacity="0.078125"/>
  <rect x="7" y="17" width="1" height="4" fill="rgb(255,255,255)" fill-opacity="0.0078125"/>
  <rect x="8" y="0" width="1" height="5" fill="rgb(255,255,255)" fill-opacity="0.0078125"/>
  <rect x="8" y="5" width="1" height="1" fill="rgb(65,41,13)" fill-opacity="0.8671875"/>
  <rect x="8" y="6" width="1" height="1" fill="rgb(244,199,151)"/>
  <rect x="8" y="7" width="1" height="1" fill="rgb(251,220,187)"/>
  <rect x="8" y="8" width="1" height="1" fill="rgb(253,245,236)"/>
  <rect x="8" y="9" width="1" height="1" fill="rgb(238,154,65)"/>
  <rect x="8" y="10" width="1" height="4" fill="rgb(237,152,61)"/>
  <rect x="8" y="14" width="1" height="1" fill="rgb(247,211,172)"/>
  <rect x="8" y="15" width="1" height="1" fill="rgb(175,142,106)"/>
  <rect x="8" y="16" width="1" height="1" fill="rgb(57,38,14)" fill-opacity="0.6640625"/>
  <rect x="8" y="17" width="1" height="4" fill="rgb(255,255,255)" fill-opacity="0.0078125"/>
  <rect x="9" y="0" width="1" height="4" fill="rgb(255,255,255)" fill-opacity="0.0078125"/>
  <rect x="9" y="4" width="1" height="1" fill="rgb(57,38,19)" fill-opacity="0.1640625"/>
  <rect x="9" y="5" width="1" height="1" fill="rgb(130,94,57)"/>
  <rect x="9" y="6" width="1" height="2" fill="rgb(250,208,162)"/>
  <rect x="9" y="8" width="1" height="1" fill="rgb(253,243,232)"/>
  <rect x="9" y="9" width="1" height="1" fill="rgb(244,190,131)"/>
  <rect x="9" y="10" width="1" height="4" fill="rgb(237,152,61)"/>
  <rect x="9" y="14" width="1" height="1" fill="rgb(239,166,86)"/>
  <rect x="9" y="15" width="1" height="1" fill="rgb(240,211,180)"/>
  <rect x="9" y="16" width="1" height="1" fill="rgb(81,52,21)" fill-opacity="0.984375"/>
  <rect x="9" y="17" width="1" height="1" fill="rgb(50,28,14)" fill-opacity="0.1484375"/>
  <rect x="9" y="18" width="1" height="3" fill="rgb(255,255,255)" fill-opacity="0.0078125"/>
  <rect x="10" y="0" width="1" height="4" fill="rgb(255,255,255)" fill-opacity="0.0078125"/>
  <rect x="10" y="4" width="1" height="1" fill="rgb(58,37,13)" fill-opacity="0.6171875"/>
  <rect x="10" y="5" width="1" height="1" fill="rgb(208,164,116)"/>
  <rect x="10" y="6" width="1" height="2" fill="rgb(250,208,162)"/>
  <rect x="10" y="8" width="1" height="1" fill="rgb(252,225,195)"/>
  <rect x="10" y="9" width="1" height="1" fill="rgb(251,235,219)"/>
  <rect x="10" y="10" width="1" height="5" fill="rgb(237,152,61)"/>
  <rect x="10" y="15" width="1" height="1" fill="rgb(243,190,133)"/>
  <rect x="10" y="16" width="1" height="1" fill="rgb(183,144,104)"/>
  <rect x="10" y="17" width="1" height="1" fill="rgb(60,36,12)" fill-opacity="0.75"/>
  <rect x="10" y="18" width="1" height="3" fill="rgb(255,255,255)" fill-opacity="0.0078125"/>
  <rect x="11" y="0" width="1" height="4" fill="rgb(255,255,255)" fill-opacity="0.0078125"/>
  <rect x="11" y="4" width="1" height="1" fill="rgb(63,38,12)" fill-opacity="0.859375"/>
  <rect x="11" y="5" width="1" height="1" fill="rgb(243,199,151)"/>
  <rect x="11" y="6" width="1" height="2" fill="rgb(250,208,162)"/>
  <rect x="11" y="8" width="1" height="1" fill="rgb(250,210,167)"/>
  <rect x="11" y="9" width="1" height="1" fill="rgb(255,254,253)"/>
  <rect x="11" y="10" width="1" height="1" fill="rgb(249,218,185)"/>
  <rect x="11" y="11" width="1" height="1" fill="rgb(246,199,149)"/>
  <rect x="11" y="12" width="1" height="1" fill="rgb(243,185,124)"/>
  <rect x="11" y="13" width="1" height="1" fill="rgb(241,173,99)"/>
  <rect x="11" y="14" width="1" height="1" fill="rgb(239,159,73)"/>
  <rect x="11" y="15" width="1" height="1" fill="rgb(239,163,81)"/>
  <rect x="11" y="16" width="1" height="1" fill="rgb(234,193,149)"/>
  <rect x="11" y="17" width="1" height="1" fill="rgb(70,40,10)" fill-opacity="0.9921875"/>
  <rect x="11" y="18" width="1" height="1" fill="rgb(64,43,21)" fill-opacity="0.0546875"/>
  <rect x="11" y="19" width="1" height="2" fill="rgb(255,255,255)" fill-opacity="0.0078125"/>
  <rect x="12" y="0" width="1" height="4" fill="rgb(255,255,255)" fill-opacity="0.0078125"/>
  <rect x="12" y="4" width="1" height="1" fill="rgb(58,37,13)" fill-opacity="0.6171875"/>
  <rect x="12" y="5" width="1" height="1" fill="rgb(203,158,111)"/>
  <rect x="12" y="6" width="1" height="2" fill="rgb(250,208,162)"/>
  <rect x="12" y="8" width="1" height="1" fill="rgb(249,221,190)"/>
  <rect x="12" y="9" width="1" height="1" fill="rgb(225,207,188)"/>
  <rect x="12" y="10" width="1" height="5" fill="rgb(145,85,21)"/>
  <rect x="12" y="15" width="1" height="1" fill="rgb(173,129,82)"/>
  <rect x="12" y="16" width="1" height="1" fill="rgb(138,104,67)"/>
  <rect x="12" y="17" width="1" height="1" fill="rgb(60,36,12)" fill-opacity="0.75"/>
  <rect x="12" y="18" width="1" height="3" fill="rgb(255,255,255)" fill-opacity="0.0078125"/>
  <rect x="13" y="0" width="1" height="4" fill="rgb(255,255,255)" fill-opacity="0.0078125"/>
  <rect x="13" y="4" width="1" height="1" fill="rgb(57,38,19)" fill-opacity="0.1640625"/>
  <rect x="13" y="5" width="1" height="1" fill="rgb(137,98,57)"/>
  <rect x="13" y="6" width="1" height="2" fill="rgb(250,208,162)"/>
  <rect x="13" y="8" width="1" height="1" fill="rgb(237,219,200)"/>
  <rect x="13" y="9" width="1" height="1" fill="rgb(175,132,85)"/>
  <rect x="13" y="10" width="1" height="4" fill="rgb(145,85,21)"/>
  <rect x="13" y="14" width="1" height="1" fill="rgb(152,97,36)"/>
  <rect x="13" y="15" width="1" height="1" fill="rgb(172,133,92)"/>
  <rect x="13" y="16" width="1" height="1" fill="rgb(75,47,15)" fill-opacity="0.984375"/>
  <rect x="13" y="17" width="1" height="1" fill="rgb(50,28,14)" fill-opacity="0.1484375"/>
  <rect x="13" y="18" width="1" height="3" fill="rgb(255,255,255)" fill-opacity="0.0078125"/>
  <rect x="14" y="0" width="1" height="5" fill="rgb(255,255,255)" fill-opacity="0.0078125"/>
  <rect x="14" y="5" width="1" height="1" fill="rgb(65,41,13)" fill-opacity="0.8671875"/>
  <rect x="14" y="6" width="1" height="1" fill="rgb(239,195,148)"/>
  <rect x="14" y="7" width="1" height="1" fill="rgb(250,216,178)"/>
  <rect x="14" y="8" width="1" height="1" fill="rgb(216,192,168)"/>
  <rect x="14" y="9" width="1" height="1" fill="rgb(146,87,24)"/>
  <rect x="14" y="10" width="1" height="4" fill="rgb(145,85,21)"/>
  <rect x="14" y="14" width="1" height="1" fill="rgb(166,118,66)"/>
  <rect x="14" y="15" width="1" height="1" fill="rgb(117,80,41)"/>
  <rect x="14" y="16" width="1" height="1" fill="rgb(57,38,14)" fill-opacity="0.6640625"/>
  <rect x="14" y="17" width="1" height="4" fill="rgb(255,255,255)" fill-opacity="0.0078125"/>
  <rect x="15" y="0" width="1" height="5" fill="rgb(255,255,255)" fill-opacity="0.0078125"/>
  <rect x="15" y="5" width="1" height="1" fill="rgb(55,35,14)" fill-opacity="0.515625"/>
  <rect x="15" y="6" width="1" height="1" fill="rgb(190,146,99)"/>
  <rect x="15" y="7" width="1" height="1" fill="rgb(232,204,172)"/>
  <rect x="15" y="8" width="1" height="1" fill="rgb(174,130,82)"/>
  <rect x="15" y="9" width="1" height="4" fill="rgb(145,85,21)"/>
  <rect x="15" y="13" width="1" height="1" fill="rgb(151,96,34)"/>
  <rect x="15" y="14" width="1" height="1" fill="rgb(153,107,57)"/>
  <rect x="15" y="15" width="1" height="1" fill="rgb(69,43,11)" fill-opacity="0.96875"/>
  <rect x="15" y="16" width="1" height="1" fill="rgb(43,43,14)" fill-opacity="0.078125"/>
  <rect x="15" y="17" width="1" height="4" fill="rgb(255,255,255)" fill-opacity="0.0078125"/>
  <rect x="16" y="0" width="1" height="5" fill="rgb(255,255,255)" fill-opacity="0.0078125"/>
  <rect x="16" y="5" width="1" height="1" fill="rgb(45,45,15)" fill-opacity="0.0703125"/>
  <rect x="16" y="6" width="1" height="1" fill="rgb(117,82,43)" fill-opacity="0.9921875"/>
  <rect x="16" y="7" width="1" height="1" fill="rgb(201,163,121)"/>
  <rect x="16" y="8" width="1" height="1" fill="rgb(173,124,72)"/>
  <rect x="16" y="9" width="1" height="1" fill="rgb(169,118,64)"/>
  <rect x="16" y="10" width="1" height="1" fill="rgb(166,115,59)"/>
  <rect x="16" y="11" width="1" height="1" fill="rgb(163,111,55)"/>
  <rect x="16" y="12" width="1" height="1" fill="rgb(161,108,52)"/>
  <rect x="16" y="13" width="1" height="1" fill="rgb(159,105,48)"/>
  <rect x="16" y="14" width="1" height="1" fill="rgb(98,61,21)"/>
  <rect x="16" y="15" width="1" height="1" fill="rgb(58,37,14)" fill-opacity="0.5703125"/>
  <rect x="16" y="16" width="1" height="5" fill="rgb(255,255,255)" fill-opacity="0.0078125"/>
  <rect x="17" y="0" width="1" height="6" fill="rgb(255,255,255)" fill-opacity="0.0078125"/>
  <rect x="17" y="6" width="1" height="1" fill="rgb(61,37,11)" fill-opacity="0.7890625"/>
  <rect x="17" y="7" width="1" height="7" fill="rgb(70,40,8)"/>
  <rect x="17" y="14" width="1" height="1" fill="rgb(65,39,10)" fill-opacity="0.9375"/>
  <rect x="17" y="15" width="1" height="1" fill="rgb(43,43,0)" fill-opacity="0.03125"/>
  <rect x="17" y="16" width="1" height="5" fill="rgb(255,255,255)" fill-opacity="0.0078125"/>
  <rect x="18" y="0" width="1" height="21" fill="rgb(255,255,255)" fill-opacity="0.0078125"/>
  <rect x="19" y="0" width="1" height="21" fill="rgb(255,255,255)" fill-opacity="0.0078125"/>
  <rect x="20" y="0" width="1" height="21" fill="rgb(255,255,255)" fill-opacity="0.0078125"/>
</svg>