<svg xmlns="http://www.w3.org/2000/svg" shape-rendering="crispEdges" width="21" height="21" viewBox="0 0 21 21">
  <rect x="0" y="0" width="1" height="21" fill="rgb(255,255,255)" fill-opacity="0.0078125"/>
  <rect x="1" y="0" width="1" height="21" fill="rgb(255,255,255)" fill-opacity="0.0078125"/>
  <rect x="2" y="0" width="1" height="21" fill="rgb(255,255,255)" fill-opacity="0.0078125"/>
  <rect x="3" y="0" width="1" height="21" fill="rgb(255,255,255)" fill-opacity="0.0078125"/>
  <rect x="4" y="0" width="1" height="21" fill="rgb(255,255,255)" fill-opacity="0.0078125"/>
  <rect x="5" y="0" width="1" height="21" fill="rgb(255,255,255)" fill-opacity="0.0078125"/>
  <rect x="6" y="0" width="1" height="7" fill="rgb(255,255,255)" fill-opacity="0.0078125"/>
  <rect x="6" y="7" width="1" height="1" fill="rgb(0,0,0)" fill-opacity="0.015625"/>
  <rect x="6" y="8" width="1" height="1" fill="rgb(18,18,18)" fill-opacity="0.3828125"/>
  <rect x="6" y="9" width="1" height="1" fill="rgb(92,92,92)" fill-opacity="0.7109375"/>
  <rect x="6" y="10" width="1" height="1" fill="rgb(111,111,111)" fill-opacity="0.7890625"/>
  <rect x="6" y="11" width="1" height="1" fill="rgb(82,82,82)" fill-opacity="0.7109375"/>
  <rect x="6" y="12" width="1" height="1" fill="rgb(15,15,15)" fill-opacity="0.390625"/>
  <rect x="6" y="13" width="1" height="1" fill="rgb(0,0,0)" fill-opacity="0.015625"/>
  <rect x="6" y="14" width="1" height="7" fill="rgb(255,255,255)" fill-opacity="0.0078125"/>
  <rect x="7" y="0" width="1" height="6" fill="rgb(255,255,255)" fill-opacity="0.0078125"/>
  <rect x="7" y="6" width="1" height="1" fill="rgb(0,0,0)" fill-opacity="0.015625"/>
  <rect x="7" y="7" width="1" height="1" fill="rgb(59,59,59)" fill-opacity="0.6484375"/>
  <rect x="7" y="8" width="1" height="1" fill="rgb(222,222,222)" fill-opacity="0.796875"/>
  <rect x="7" y="9" width="1" height="1" fill="rgb(233,233,233)" fill-opacity="0.8046875"/>
  <rect x="7" y="10" width="1" height="2" fill="rgb(228,228,228)" fill-opacity="0.8046875"/>
  <rect x="7" y="12" width="1" height="1" fill="rgb(182,182,182)" fill-opacity="0.7890625"/>
  <rect x="7" y="13" width="1" height="1" fill="rgb(44,44,44)" fill-opacity="0.65625"/>
  <rect x="7" y="14" width="1" height="1" fill="rgb(0,0,0)" fill-opacity="0.015625"/>
  <rect x="7" y="15" width="1" height="6" fill="rgb(255,255,255)" fill-opacity="0.0078125"/>
  <rect x="8" y="0" width="1" height="6" fill="rgb(255,255,255)" fill-opacity="0.0078125"/>
  <rect x="8" y="6" width="1" height="1" fill="rgb(21,21,21)" fill-opacity="0.390625"/>
  <rect x="8" y="7" width="1" height="1" fill="rgb(223,223,223)" fill-opacity="0.796875"/>
  <rect x="8" y="8" width="1" height="1" fill="rgb(230,230,230)" fill-opacity="0.8046875"/>
  <rect x="8" y="9" width="1" height="1" fill="rgb(203,203,203)" fill-opacity="0.8046875"/>
  <rect x="8" y="10" width="1" height="1" fill="rgb(9,9,9)" fill-opacity="0.8046875"/>
  <rect x="8" y="11" width="1" height="1" fill="rgb(216,216,216)" fill-opacity="0.8046875"/>
  <rect x="8" y="12" width="1" height="1" fill="rgb(243,243,243)" fill-opacity="0.8046875"/>
  <rect x="8" y="13" width="1" height="1" fill="rgb(167,167,167)" fill-opacity="0.78125"/>
  <rect x="8" y="14" width="1" height="1" fill="rgb(16,16,16)" fill-opacity="0.390625"/>
  <rect x="8" y="15" width="1" height="6" fill="rgb(255,255,255)" fill-opacity="0.0078125"/>
  <rect x="9" y="0" width="1" height="6" fill="rgb(255,255,255)" fill-opacity="0.0078125"/>
  <rect x="9" y="6" width="1" height="1" fill="rgb(98,98,98)" fill-opacity="0.71875"/>
  <rect x="9" y="7" width="1" height="1" fill="rgb(230,230,230)" fill-opacity="0.8046875"/>
  <rect x="9" y="8" width="1" height="1" fill="rgb(204,204,204)" fill-opacity="0.8046875"/>
  <rect x="9" y="9" width="1" height="1" fill="rgb(169,169,169)" fill-opacity="0.8046875"/>
  <rect x="9" y="10" width="1" height="1" fill="rgb(0,0,0)" fill-opacity="0.8046875"/>
  <rect x="9" y="11" width="1" height="1" fill="rgb(183,183,183)" fill-opacity="0.8046875"/>
  <rect x="9" y="12" width="1" height="1" fill="rgb(234,234,234)" fill-opacity="0.8046875"/>
  <rect x="9" y="13" width="1" height="1" fill="rgb(236,236,236)" fill-opacity="0.8046875"/>
  <rect x="9" y="14" width="1" height="1" fill="rgb(55,55,55)" fill-opacity="0.71875"/>
  <rect x="9" y="15" width="1" height="6" fill="rgb(255,255,255)" fill-opacity="0.0078125"/>
  <rect x="10" y="0" width="1" height="6" fill="rgb(255,255,255)" fill-opacity="0.0078125"/>
  <rect x="10" y="6" width="1" height="1" fill="rgb(117,117,117)" fill-opacity="0.7890625"/>
  <rect x="10" y="7" width="1" height="1" fill="rgb(228,228,228)" fill-opacity="0.8046875"/>
  <rect x="10" y="8" width="1" height="1" fill="rgb(8,8,8)" fill-opacity="0.8046875"/>
  <rect x="10" y="9" width="1" height="3" fill="rgb(0,0,0)" fill-opacity="0.8046875"/>
  <rect x="10" y="12" width="1" height="1" fill="rgb(8,8,8)" fill-opacity="0.8046875"/>
  <rect x="10" y="13" width="1" height="1" fill="rgb(246,246,246)" fill-opacity="0.8046875"/>
  <rect x="10" y="14" width="1" height="1" fill="rgb(49,49,49)" fill-opacity="0.796875"/>
  <rect x="10" y="15" width="1" height="6" fill="rgb(255,255,255)" fill-opacity="0.0078125"/>
  <rect x="11" y="0" width="1" height="6" fill="rgb(255,255,255)" fill-opacity="0.0078125"/>
  <rect x="11" y="6" width="1" height="1" fill="rgb(92,92,92)" fill-opacity="0.71875"/>
  <rect x="11" y="7" width="1" height="1" fill="rgb(223,223,223)" fill-opacity="0.8046875"/>
  <rect x="11" y="8" width="1" height="1" fill="rgb(208,208,208)" fill-opacity="0.8046875"/>
  <rect x="11" y="9" width="1" height="1" fill="rgb(169,169,169)" fill-opacity="0.8046875"/>
  <rect x="11" y="10" width="1" height="1" fill="rgb(0,0,0)" fill-opacity="0.8046875"/>
  <rect x="11" y="11" width="1" height="1" fill="rgb(175,175,175)" fill-opacity="0.8046875"/>
  <rect x="11" y="12" width="1" height="1" fill="rgb(221,221,221)" fill-opacity="0.8046875"/>
  <rect x="11" y="13" width="1" height="1" fill="rgb(236,236,236)" fill-opacity="0.8046875"/>
  <rect x="11" y="14" width="1" height="1" fill="rgb(46,46,46)" fill-opacity="0.71875"/>
  <rect x="11" y="15" width="1" height="6" fill="rgb(255,255,255)" fill-opacity="0.0078125"/>
  <rect x="12" y="0" width="1" height="6" fill="rgb(255,255,255)" fill-opacity="0.0078125"/>
  <rect x="12" y="6" width="1" height="1" fill="rgb(23,23,23)" fill-opacity="0.40625"/>
  <rect x="12" y="7" width="1" height="1" fill="rgb(185,185,185)" fill-opacity="0.7890625"/>
  <rect x="12" y="8" width="1" height="1" fill="rgb(241,241,241)" fill-opacity="0.8046875"/>
  <rect x="12" y="9" width="1" height="1" fill="rgb(224,224,224)" fill-opacity="0.8046875"/>
  <rect x="12" y="10" width="1" height="1" fill="rgb(5,5,5)" fill-opacity="0.8046875"/>
  <rect x="12" y="11" width="1" height="1" fill="rgb(228,228,228)" fill-opacity="0.8046875"/>
  <rect x="12" y="12" width="1" height="1" fill="rgb(255,255,255)" fill-opacity="0.8046875"/>
  <rect x="12" y="13" width="1" height="1" fill="rgb(131,131,131)" fill-opacity="0.78125"/>
  <rect x="12" y="14" width="1" height="1" fill="rgb(15,15,15)" fill-opacity="0.40625"/>
  <rect x="12" y="15" width="1" height="6" fill="rgb(255,255,255)" fill-opacity="0.0078125"/>
  <rect x="13" y="0" width="1" height="6" fill="rgb(255,255,255)" fill-opacity="0.0078125"/>
  <rect x="13" y="6" width="1" height="1" fill="rgb(0,0,0)" fill-opacity="0.015625"/>
  <rect x="13" y="7" width="1" height="1" fill="rgb(52,52,52)" fill-opacity="0.6640625"/>
  <rect x="13" y="8" width="1" height="1" fill="rgb(170,170,170)" fill-opacity="0.78125"/>
  <rect x="13" y="9" width="1" height="2" fill="rgb(238,238,238)" fill-opacity="0.8046875"/>
  <rect x="13" y="11" width="1" height="1" fill="rgb(236,236,236)" fill-opacity="0.8046875"/>
  <rect x="13" y="12" width="1" height="1" fill="rgb(131,131,131)" fill-opacity="0.78125"/>
  <rect x="13" y="13" width="1" height="1" fill="rgb(29,29,29)" fill-opacity="0.671875"/>
  <rect x="13" y="14" width="1" height="1" fill="rgb(0,0,0)" fill-opacity="0.0234375"/>
  <rect x="13" y="15" width="1" height="6" fill="rgb(255,255,255)" fill-opacity="0.0078125"/>
  <rect x="14" y="0" width="1" height="7" fill="rgb(255,255,255)" fill-opacity="0.0078125"/>
  <rect x="14" y="7" width="1" height="1" fill="rgb(0,0,0)" fill-opacity="0.015625"/>
  <rect x="14" y="8" width="1" height="1" fill="rgb(22,22,22)" fill-opacity="0.4140625"/>
  <rect x="14" y="9" width="1" height="1" fill="rgb(59,59,59)" fill-opacity="0.71875"/>
  <rect x="14" y="10" width="1" height="1" fill="rgb(53,53,53)" fill-opacity="0.796875"/>
  <rect x="14" y="11" width="1" height="1" fill="rgb(48,48,48)" fill-opacity="0.71875"/>
  <rect x="14" y="12" width="1" height="1" fill="rgb(14,14,14)" fill-opacity="0.421875"/>
  <rect x="14" y="13" width="1" height="1" fill="rgb(0,0,0)" fill-opacity="0.0234375"/>
  <rect x="14" y="14" width="1" height="7" fill="rgb(255,255,255)" fill-opacity="0.0078125"/>
  <rect x="15" y="0" width="1" height="21" fill="rgb(255,255,255)" fill-opacity="0.0078125"/>
  <rect x="16" y="0" width="1" height="21" fill="rgb(255,255,255)" fill-opacity="0.0078125"/>
  <rect x="17" y="0" width="1" height="21" fill="rgb(255,255,255)" fill-opacity="0.0078125"/>
  <rect x="18" y="0" width="1" height="21" fill="rgb(255,255,255)" fill-opacity="0.0078125"/>
  <rect x="19" y="0" width="1" height="21" fill="rgb(255,255,255)" fill-opacity="0.0078125"/>
  <rect x="20" y="0" width="1" height="21" fill="rgb(255,255,255)" fill-opacity="0.0078125"/>
</svg>