<svg xmlns="http://www.w3.org/2000/svg" shape-rendering="crispEdges" width="21" height="21" viewBox="0 0 21 21">
  <rect x="0" y="0" width="1" height="21" fill="rgb(255,255,255)" fill-opacity="0.0078125"/>
  <rect x="1" y="0" width="1" height="21" fill="rgb(255,255,255)" fill-opacity="0.0078125"/>
  <rect x="2" y="0" width="1" height="8" fill="rgb(255,255,255)" fill-opacity="0.0078125"/>
  <rect x="2" y="8" width="1" height="2" fill="rgb(0,0,0)" fill-opacity="0.0390625"/>
  <rect x="2" y="10" width="1" height="6" fill="rgb(255,255,255)" fill-opacity="0.0078125"/>
  <rect x="2" y="16" width="1" height="2" fill="rgb(0,0,0)" fill-opacity="0.0390625"/>
  <rect x="2" y="18" width="1" height="3" fill="rgb(255,255,255)" fill-opacity="0.0078125"/>
  <rect x="3" y="0" width="1" height="7" fill="rgb(255,255,255)" fill-opacity="0.0078125"/>
  <rect x="3" y="7" width="1" height="1" fill="rgb(0,0,0)" fill-opacity="0.421875"/>
  <rect x="3" y="8" width="1" height="2" fill="rgb(0,0,0)" fill-opacity="0.9609375"/>
  <rect x="3" y="10" width="1" height="1" fill="rgb(0,0,0)" fill-opacity="0.421875"/>
  <rect x="3" y="11" width="1" height="4" fill="rgb(255,255,255)" fill-opacity="0.0078125"/>
  <rect x="3" y="15" width="1" height="1" fill="rgb(0,0,0)" fill-opacity="0.421875"/>
  <rect x="3" y="16" width="1" height="2" fill="rgb(0,0,0)" fill-opacity="0.9609375"/>
  <rect x="3" y="18" width="1" height="1" fill="rgb(0,0,0)" fill-opacity="0.421875"/>
  <rect x="3" y="19" width="1" height="2" fill="rgb(255,255,255)" fill-opacity="0.0078125"/>
  <rect x="4" y="0" width="1" height="6" fill="rgb(255,255,255)" fill-opacity="0.0078125"/>
  <rect x="4" y="6" width="1" height="1" fill="rgb(0,0,0)" fill-opacity="0.0390625"/>
  <rect x="4" y="7" width="1" height="1" fill="rgb(0,0,0)" fill-opacity="0.9609375"/>
  <rect x="4" y="8" width="1" height="2" fill="rgb(255,255,255)"/>
  <rect x="4" y="10" width="1" height="1" fill="rgb(1,1,1)" fill-opacity="0.984375"/>
  <rect x="4" y="11" width="1" height="1" fill="rgb(49,49,49)" fill-opacity="0.6171875"/>
  <rect x="4" y="12" width="1" height="2" fill="rgb(51,51,51)" fill-opacity="0.609375"/>
  <rect x="4" y="14" width="1" height="1" fill="rgb(49,49,49)" fill-opacity="0.6171875"/>
  <rect x="4" y="15" width="1" height="1" fill="rgb(1,1,1)" fill-opacity="0.984375"/>
  <rect x="4" y="16" width="1" height="2" fill="rgb(255,255,255)"/>
  <rect x="4" y="18" width="1" height="1" fill="rgb(0,0,0)" fill-opacity="0.9609375"/>
  <rect x="4" y="19" width="1" height="1" fill="rgb(0,0,0)" fill-opacity="0.0390625"/>
  <rect x="4" y="20" width="1" height="1" fill="rgb(255,255,255)" fill-opacity="0.0078125"/>
  <rect x="5" y="0" width="1" height="6" fill="rgb(255,255,255)" fill-opacity="0.0078125"/>
  <rect x="5" y="6" width="1" height="1" fill="rgb(0,0,0)" fill-opacity="0.0390625"/>
  <rect x="5" y="7" width="1" height="1" fill="rgb(0,0,0)" fill-opacity="0.9609375"/>
  <rect x="5" y="8" width="1" height="2" fill="rgb(255,255,255)"/>
  <rect x="5" y="10" width="1" height="1" fill="rgb(9,9,9)"/>
  <rect x="5" y="11" width="1" height="1" fill="rgb(223,223,223)"/>
  <rect x="5" y="12" width="1" height="2" fill="rgb(230,230,230)"/>
  <rect x="5" y="14" width="1" height="1" fill="rgb(223,223,223)"/>
  <rect x="5" y="15" width="1" height="1" fill="rgb(9,9,9)"/>
  <rect x="5" y="16" width="1" height="2" fill="rgb(255,255,255)"/>
  <rect x="5" y="18" width="1" height="1" fill="rgb(0,0,0)" fill-opacity="0.9609375"/>
  <rect x="5" y="19" width="1" height="1" fill="rgb(0,0,0)" fill-opacity="0.0390625"/>
  <rect x="5" y="20" width="1" height="1" fill="rgb(255,255,255)" fill-opacity="0.0078125"/>
  <rect x="6" y="0" width="1" height="4" fill="rgb(255,255,255)" fill-opacity="0.0078125"/>
  <rect x="6" y="4" width="1" height="2" fill="rgb(0,0,0)" fill-opacity="0.0234375"/>
  <rect x="6" y="6" width="1" height="1" fill="rgb(255,255,255)" fill-opacity="0.0078125"/>
  <rect x="6" y="7" width="1" height="1" fill="rgb(0,0,0)" fill-opacity="0.421875"/>
  <rect x="6" y="8" width="1" height="1" fill="rgb(1,1,1)" fill-opacity="0.984375"/>
  <rect x="6" y="9" width="1" height="1" fill="rgb(9,9,9)"/>
  <rect x="6" y="10" width="1" height="1" fill="rgb(114,114,114)"/>
  <rect x="6" y="11" width="1" height="4" fill="rgb(195,195,195)"/>
  <rect x="6" y="15" width="1" height="1" fill="rgb(114,114,114)"/>
  <rect x="6" y="16" width="1" height="1" fill="rgb(9,9,9)"/>
  <rect x="6" y="17" width="1" height="1" fill="rgb(1,1,1)" fill-opacity="0.984375"/>
  <rect x="6" y="18" width="1" height="1" fill="rgb(0,0,0)" fill-opacity="0.421875"/>
  <rect x="6" y="19" width="1" height="2" fill="rgb(255,255,255)" fill-opacity="0.0078125"/>
  <rect x="7" y="0" width="1" height="3" fill="rgb(255,255,255)" fill-opacity="0.0078125"/>
  <rect x="7" y="3" width="1" height="1" fill="rgb(0,0,0)" fill-opacity="0.234375"/>
  <rect x="7" y="4" width="1" height="2" fill="rgb(0,0,0)" fill-opacity="0.53125"/>
  <rect x="7" y="6" width="1" height="1" fill="rgb(0,0,0)" fill-opacity="0.234375"/>
  <rect x="7" y="7" width="1" height="1" fill="rgb(255,255,255)" fill-opacity="0.0078125"/>
  <rect x="7" y="8" width="1" height="1" fill="rgb(58,58,58)" fill-opacity="0.6484375"/>
  <rect x="7" y="9" width="1" height="1" fill="rgb(221,221,221)"/>
  <rect x="7" y="10" width="1" height="6" fill="rgb(195,195,195)"/>
  <rect x="7" y="16" width="1" height="1" fill="rgb(223,223,223)"/>
  <rect x="7" y="17" width="1" height="1" fill="rgb(49,49,49)" fill-opacity="0.6015625"/>
  <rect x="7" y="18" width="1" height="3" fill="rgb(255,255,255)" fill-opacity="0.0078125"/>
  <rect x="8" y="0" width="1" height="2" fill="rgb(255,255,255)" fill-opacity="0.0078125"/>
  <rect x="8" y="2" width="1" height="1" fill="rgb(0,0,0)" fill-opacity="0.0234375"/>
  <rect x="8" y="3" width="1" height="1" fill="rgb(0,0,0)" fill-opacity="0.53125"/>
  <rect x="8" y="4" width="1" height="2" fill="rgb(255,255,255)" fill-opacity="0.5546875"/>
  <rect x="8" y="6" width="1" height="1" fill="rgb(2,2,2)" fill-opacity="0.546875"/>
  <rect x="8" y="7" width="1" height="1" fill="rgb(47,47,47)" fill-opacity="0.34375"/>
  <rect x="8" y="8" width="1" height="1" fill="rgb(57,57,57)" fill-opacity="0.7578125"/>
  <rect x="8" y="9" width="1" height="1" fill="rgb(228,228,228)"/>
  <rect x="8" y="10" width="1" height="6" fill="rgb(195,195,195)"/>
  <rect x="8" y="16" width="1" height="1" fill="rgb(230,230,230)"/>
  <rect x="8" y="17" width="1" height="1" fill="rgb(51,51,51)" fill-opacity="0.59375"/>
  <rect x="8" y="18" width="1" height="3" fill="rgb(255,255,255)" fill-opacity="0.0078125"/>
  <rect x="9" y="0" width="1" height="2" fill="rgb(255,255,255)" fill-opacity="0.0078125"/>
  <rect x="9" y="2" width="1" height="1" fill="rgb(0,0,0)" fill-opacity="0.0234375"/>
  <rect x="9" y="3" width="1" height="1" fill="rgb(0,0,0)" fill-opacity="0.53125"/>
  <rect x="9" y="4" width="1" height="2" fill="rgb(255,255,255)" fill-opacity="0.5546875"/>
  <rect x="9" y="6" width="1" height="1" fill="rgb(9,9,9)" fill-opacity="0.5546875"/>
  <rect x="9" y="7" width="1" height="1" fill="rgb(222,222,222)" fill-opacity="0.5546875"/>
  <rect x="9" y="8" width="1" height="1" fill="rgb(101,101,101)" fill-opacity="0.8359375"/>
  <rect x="9" y="9" width="1" height="1" fill="rgb(227,227,227)"/>
  <rect x="9" y="10" width="1" height="6" fill="rgb(195,195,195)"/>
  <rect x="9" y="16" width="1" height="1" fill="rgb(230,230,230)"/>
  <rect x="9" y="17" width="1" height="1" fill="rgb(51,51,51)" fill-opacity="0.59375"/>
  <rect x="9" y="18" width="1" height="3" fill="rgb(255,255,255)" fill-opacity="0.0078125"/>
  <rect x="10" y="0" width="1" height="3" fill="rgb(255,255,255)" fill-opacity="0.0078125"/>
  <rect x="10" y="3" width="1" height="1" fill="rgb(0,0,0)" fill-opacity="0.234375"/>
  <rect x="10" y="4" width="1" height="1" fill="rgb(2,2,2)" fill-opacity="0.546875"/>
  <rect x="10" y="5" width="1" height="1" fill="rgb(9,9,9)" fill-opacity="0.5546875"/>
  <rect x="10" y="6" width="1" height="1" fill="rgb(89,89,89)" fill-opacity="0.5546875"/>
  <rect x="10" y="7" width="1" height="1" fill="rgb(151,151,151)" fill-opacity="0.5546875"/>
  <rect x="10" y="8" width="1" height="1" fill="rgb(80,80,80)" fill-opacity="0.8359375"/>
  <rect x="10" y="9" width="1" height="1" fill="rgb(220,220,220)"/>
  <rect x="10" y="10" width="1" height="6" fill="rgb(195,195,195)"/>
  <rect x="10" y="16" width="1" height="1" fill="rgb(223,223,223)"/>
  <rect x="10" y="17" width="1" height="1" fill="rgb(48,48,48)" fill-opacity="0.609375"/>
  <rect x="10" y="18" width="1" height="3" fill="rgb(255,255,255)" fill-opacity="0.0078125"/>
  <rect x="11" y="0" width="1" height="4" fill="rgb(255,255,255)" fill-opacity="0.0078125"/>
  <rect x="11" y="4" width="1" height="1" fill="rgb(57,57,57)" fill-opacity="0.359375"/>
  <rect x="11" y="5" width="1" height="1" fill="rgb(220,220,220)" fill-opacity="0.546875"/>
  <rect x="11" y="6" width="1" height="1" fill="rgb(151,151,151)" fill-opacity="0.5546875"/>
  <rect x="11" y="7" width="1" height="1" fill="rgb(65,65,65)" fill-opacity="0.7421875"/>
  <rect x="11" y="8" width="1" height="1" fill="rgb(2,2,2)" fill-opacity="0.9921875"/>
  <rect x="11" y="9" width="1" height="1" fill="rgb(9,9,9)"/>
  <rect x="11" y="10" width="1" height="1" fill="rgb(114,114,114)"/>
  <rect x="11" y="11" width="1" height="4" fill="rgb(195,195,195)"/>
  <rect x="11" y="15" width="1" height="1" fill="rgb(114,114,114)"/>
  <rect x="11" y="16" width="1" height="1" fill="rgb(9,9,9)"/>
  <rect x="11" y="17" width="1" height="1" fill="rgb(1,1,1)" fill-opacity="0.984375"/>
  <rect x="11" y="18" width="1" height="1" fill="rgb(0,0,0)" fill-opacity="0.421875"/>
  <rect x="11" y="19" width="1" height="2" fill="rgb(255,255,255)" fill-opacity="0.0078125"/>
  <rect x="12" y="0" width="1" height="4" fill="rgb(255,255,255)" fill-opacity="0.0078125"/>
  <rect x="12" y="4" width="1" height="1" fill="rgb(58,58,58)" fill-opacity="0.3515625"/>
  <rect x="12" y="5" width="1" height="1" fill="rgb(227,227,227)" fill-opacity="0.546875"/>
  <rect x="12" y="6" width="1" height="1" fill="rgb(142,142,142)" fill-opacity="0.5703125"/>
  <rect x="12" y="7" width="1" height="1" fill="rgb(3,3,3)" fill-opacity="0.984375"/>
  <rect x="12" y="8" width="1" height="2" fill="rgb(255,255,255)"/>
  <rect x="12" y="10" width="1" height="1" fill="rgb(9,9,9)"/>
  <rect x="12" y="11" width="1" height="1" fill="rgb(223,223,223)"/>
  <rect x="12" y="12" width="1" height="2" fill="rgb(230,230,230)"/>
  <rect x="12" y="14" width="1" height="1" fill="rgb(223,223,223)"/>
  <rect x="12" y="15" width="1" height="1" fill="rgb(9,9,9)"/>
  <rect x="12" y="16" width="1" height="2" fill="rgb(255,255,255)"/>
  <rect x="12" y="18" width="1" height="1" fill="rgb(0,0,0)" fill-opacity="0.9609375"/>
  <rect x="12" y="19" width="1" height="1" fill="rgb(0,0,0)" fill-opacity="0.0390625"/>
  <rect x="12" y="20" width="1" height="1" fill="rgb(255,255,255)" fill-opacity="0.0078125"/>
  <rect x="13" y="0" width="1" height="4" fill="rgb(255,255,255)" fill-opacity="0.0078125"/>
  <rect x="13" y="4" width="1" height="1" fill="rgb(59,59,59)" fill-opacity="0.34375"/>
  <rect x="13" y="5" width="1" height="1" fill="rgb(227,227,227)" fill-opacity="0.546875"/>
  <rect x="13" y="6" width="1" height="1" fill="rgb(142,142,142)" fill-opacity="0.5703125"/>
  <rect x="13" y="7" width="1" height="1" fill="rgb(3,3,3)" fill-opacity="0.984375"/>
  <rect x="13" y="8" width="1" height="2" fill="rgb(255,255,255)"/>
  <rect x="13" y="10" width="1" height="1" fill="rgb(2,2,2)" fill-opacity="0.9921875"/>
  <rect x="13" y="11" width="1" height="1" fill="rgb(75,75,75)" fill-opacity="0.828125"/>
  <rect x="13" y="12" width="1" height="1" fill="rgb(99,99,99)" fill-opacity="0.8203125"/>
  <rect x="13" y="13" width="1" height="1" fill="rgb(51,51,51)" fill-opacity="0.734375"/>
  <rect x="13" y="14" width="1" height="1" fill="rgb(49,49,49)" fill-opacity="0.6171875"/>
  <rect x="13" y="15" width="1" height="1" fill="rgb(1,1,1)" fill-opacity="0.984375"/>
  <rect x="13" y="16" width="1" height="2" fill="rgb(255,255,255)"/>
  <rect x="13" y="18" width="1" height="1" fill="rgb(0,0,0)" fill-opacity="0.9609375"/>
  <rect x="13" y="19" width="1" height="1" fill="rgb(0,0,0)" fill-opacity="0.0390625"/>
  <rect x="13" y="20" width="1" height="1" fill="rgb(255,255,255)" fill-opacity="0.0078125"/>
  <rect x="14" y="0" width="1" height="4" fill="rgb(255,255,255)" fill-opacity="0.0078125"/>
  <rect x="14" y="4" width="1" height="1" fill="rgb(58,58,58)" fill-opacity="0.3515625"/>
  <rect x="14" y="5" width="1" height="1" fill="rgb(220,220,220)" fill-opacity="0.546875"/>
  <rect x="14" y="6" width="1" height="1" fill="rgb(151,151,151)" fill-opacity="0.5546875"/>
  <rect x="14" y="7" width="1" height="1" fill="rgb(65,65,65)" fill-opacity="0.7421875"/>
  <rect x="14" y="8" width="1" height="2" fill="rgb(3,3,3)" fill-opacity="0.984375"/>
  <rect x="14" y="10" width="1" height="1" fill="rgb(65,65,65)" fill-opacity="0.7421875"/>
  <rect x="14" y="11" width="1" height="1" fill="rgb(151,151,151)" fill-opacity="0.5546875"/>
  <rect x="14" y="12" width="1" height="1" fill="rgb(208,208,208)" fill-opacity="0.5546875"/>
  <rect x="14" y="13" width="1" height="1" fill="rgb(43,43,43)" fill-opacity="0.3515625"/>
  <rect x="14" y="14" width="1" height="1" fill="rgb(255,255,255)" fill-opacity="0.0078125"/>
  <rect x="14" y="15" width="1" height="1" fill="rgb(0,0,0)" fill-opacity="0.421875"/>
  <rect x="14" y="16" width="1" height="2" fill="rgb(0,0,0)" fill-opacity="0.9609375"/>
  <rect x="14" y="18" width="1" height="1" fill="rgb(0,0,0)" fill-opacity="0.421875"/>
  <rect x="14" y="19" width="1" height="2" fill="rgb(255,255,255)" fill-opacity="0.0078125"/>
  <rect x="15" y="0" width="1" height="3" fill="rgb(255,255,255)" fill-opacity="0.0078125"/>
  <rect x="15" y="3" width="1" height="1" fill="rgb(0,0,0)" fill-opacity="0.234375"/>
  <rect x="15" y="4" width="1" height="1" fill="rgb(2,2,2)" fill-opacity="0.546875"/>
  <rect x="15" y="5" width="1" height="1" fill="rgb(9,9,9)" fill-opacity="0.5546875"/>
  <rect x="15" y="6" width="1" height="1" fill="rgb(89,89,89)" fill-opacity="0.5546875"/>
  <rect x="15" y="7" width="1" height="1" fill="rgb(151,151,151)" fill-opacity="0.5546875"/>
  <rect x="15" y="8" width="1" height="2" fill="rgb(142,142,142)" fill-opacity="0.5703125"/>
  <rect x="15" y="10" width="1" height="1" fill="rgb(151,151,151)" fill-opacity="0.5546875"/>
  <rect x="15" y="11" width="1" height="1" fill="rgb(73,73,73)" fill-opacity="0.5546875"/>
  <rect x="15" y="12" width="1" height="1" fill="rgb(2,2,2)" fill-opacity="0.5546875"/>
  <rect x="15" y="13" width="1" height="1" fill="rgb(0,0,0)" fill-opacity="0.546875"/>
  <rect x="15" y="14" width="1" height="1" fill="rgb(0,0,0)" fill-opacity="0.296875"/>
  <rect x="15" y="15" width="1" height="1" fill="rgb(255,255,255)" fill-opacity="0.0078125"/>
  <rect x="15" y="16" width="1" height="2" fill="rgb(0,0,0)" fill-opacity="0.0390625"/>
  <rect x="15" y="18" width="1" height="3" fill="rgb(255,255,255)" fill-opacity="0.0078125"/>
  <rect x="16" y="0" width="1" height="2" fill="rgb(255,255,255)" fill-opacity="0.0078125"/>
  <rect x="16" y="2" width="1" height="1" fill="rgb(0,0,0)" fill-opacity="0.0234375"/>
  <rect x="16" y="3" width="1" height="1" fill="rgb(0,0,0)" fill-opacity="0.53125"/>
  <rect x="16" y="4" width="1" height="2" fill="rgb(255,255,255)" fill-opacity="0.5546875"/>
  <rect x="16" y="6" width="1" height="1" fill="rgb(9,9,9)" fill-opacity="0.5546875"/>
  <rect x="16" y="7" width="1" height="1" fill="rgb(222,222,222)" fill-opacity="0.5546875"/>
  <rect x="16" y="8" width="1" height="2" fill="rgb(230,230,230)" fill-opacity="0.5546875"/>
  <rect x="16" y="10" width="1" height="1" fill="rgb(208,208,208)" fill-opacity="0.5546875"/>
  <rect x="16" y="11" width="1" height="1" fill="rgb(2,2,2)" fill-opacity="0.5546875"/>
  <rect x="16" y="12" width="1" height="2" fill="rgb(255,255,255)" fill-opacity="0.5546875"/>
  <rect x="16" y="14" width="1" height="1" fill="rgb(0,0,0)" fill-opacity="0.546875"/>
  <rect x="16" y="15" width="1" height="1" fill="rgb(0,0,0)" fill-opacity="0.0546875"/>
  <rect x="16" y="16" width="1" height="5" fill="rgb(255,255,255)" fill-opacity="0.0078125"/>
  <rect x="17" y="0" width="1" height="2" fill="rgb(255,255,255)" fill-opacity="0.0078125"/>
  <rect x="17" y="2" width="1" height="1" fill="rgb(0,0,0)" fill-opacity="0.0234375"/>
  <rect x="17" y="3" width="1" height="1" fill="rgb(0,0,0)" fill-opacity="0.53125"/>
  <rect x="17" y="4" width="1" height="2" fill="rgb(255,255,255)" fill-opacity="0.5546875"/>
  <rect x="17" y="6" width="1" height="1" fill="rgb(2,2,2)" fill-opacity="0.546875"/>
  <rect x="17" y="7" width="1" height="1" fill="rgb(47,47,47)" fill-opacity="0.34375"/>
  <rect x="17" y="8" width="1" height="2" fill="rgb(51,51,51)" fill-opacity="0.3359375"/>
  <rect x="17" y="10" width="1" height="1" fill="rgb(43,43,43)" fill-opacity="0.359375"/>
  <rect x="17" y="11" width="1" height="1" fill="rgb(0,0,0)" fill-opacity="0.546875"/>
  <rect x="17" y="12" width="1" height="2" fill="rgb(255,255,255)" fill-opacity="0.5546875"/>
  <rect x="17" y="14" width="1" height="1" fill="rgb(0,0,0)" fill-opacity="0.546875"/>
  <rect x="17" y="15" width="1" height="1" fill="rgb(0,0,0)" fill-opacity="0.0546875"/>
  <rect x="17" y="16" width="1" height="5" fill="rgb(255,255,255)" fill-opacity="0.0078125"/>
  <rect x="18" y="0" width="1" height="3" fill="rgb(255,255,255)" fill-opacity="0.0078125"/>
  <rect x="18" y="3" width="1" height="1" fill="rgb(0,0,0)" fill-opacity="0.234375"/>
  <rect x="18" y="4" width="1" height="2" fill="rgb(0,0,0)" fill-opacity="0.53125"/>
  <rect x="18" y="6" width="1" height="1" fill="rgb(0,0,0)" fill-opacity="0.234375"/>
  <rect x="18" y="7" width="1" height="4" fill="rgb(255,255,255)" fill-opacity="0.0078125"/>
  <rect x="18" y="11" width="1" height="1" fill="rgb(0,0,0)" fill-opacity="0.296875"/>
  <rect x="18" y="12" width="1" height="2" fill="rgb(0,0,0)" fill-opacity="0.546875"/>
  <rect x="18" y="14" width="1" height="1" fill="rgb(0,0,0)" fill-opacity="0.296875"/>
  <rect x="18" y="15" width="1" height="6" fill="rgb(255,255,255)" fill-opacity="0.0078125"/>
  <rect x="19" y="0" width="1" height="4" fill="rgb(255,255,255)" fill-opacity="0.0078125"/>
  <rect x="19" y="4" width="1" height="2" fill="rgb(0,0,0)" fill-opacity="0.0234375"/>
  <rect x="19" y="6" width="1" height="6" fill="rgb(255,255,255)" fill-opacity="0.0078125"/>
  <rect x="19" y="12" width="1" height="2" fill="rgb(0,0,0)" fill-opacity="0.0546875"/>
  <rect x="19" y="14" width="1" height="7" fill="rgb(255,255,255)" fill-opacity="0.0078125"/>
  <rect x="20" y="0" width="1" height="21" fill="rgb(255,255,255)" fill-opacity="0.0078125"/>
</svg>