<svg xmlns="http://www.w3.org/2000/svg" shape-rendering="crispEdges" width="21" height="21" viewBox="0 0 21 21">
  <rect x="0" y="0" width="1" height="21" fill="rgb(255,255,255)" fill-opacity="0.0078125"/>
  <rect x="1" y="0" width="1" height="21" fill="rgb(255,255,255)" fill-opacity="0.0078125"/>
  <rect x="2" y="0" width="1" height="21" fill="rgb(255,255,255)" fill-opacity="0.0078125"/>
  <rect x="3" y="0" width="1" height="16" fill="rgb(255,255,255)" fill-opacity="0.0078125"/>
  <rect x="3" y="16" width="1" height="1" fill="rgb(36,36,36)" fill-opacity="0.03125"/>
  <rect x="3" y="17" width="1" height="1" fill="rgb(217,217,217)" fill-opacity="0.1640625"/>
  <rect x="3" y="18" width="1" height="1" fill="rgb(32,32,32)" fill-opacity="0.0390625"/>
  <rect x="3" y="19" width="1" height="2" fill="rgb(255,255,255)" fill-opacity="0.0078125"/>
  <rect x="4" y="0" width="1" height="16" fill="rgb(255,255,255)" fill-opacity="0.0078125"/>
  <rect x="4" y="16" width="1" height="1" fill="rgb(27,27,27)" fill-opacity="0.2265625"/>
  <rect x="4" y="17" width="1" height="1" fill="rgb(235,235,235)" fill-opacity="0.5078125"/>
  <rect x="4" y="18" width="1" height="1" fill="rgb(26,26,26)" fill-opacity="0.234375"/>
  <rect x="4" y="19" width="1" height="2" fill="rgb(255,255,255)" fill-opacity="0.0078125"/>
  <rect x="5" y="0" width="1" height="11" fill="rgb(255,255,255)" fill-opacity="0.0078125"/>
  <rect x="5" y="11" width="1" height="1" fill="rgb(25,25,25)" fill-opacity="0.5546875"/>
  <rect x="5" y="12" width="1" height="2" fill="rgb(26,26,26)" fill-opacity="0.9140625"/>
  <rect x="5" y="14" width="1" height="1" fill="rgb(26,26,26)" fill-opacity="0.890625"/>
  <rect x="5" y="15" width="1" height="1" fill="rgb(27,27,27)" fill-opacity="0.375"/>
  <rect x="5" y="16" width="1" height="1" fill="rgb(26,26,26)" fill-opacity="0.390625"/>
  <rect x="5" y="17" width="1" height="1" fill="rgb(236,236,236)" fill-opacity="0.8359375"/>
  <rect x="5" y="18" width="1" height="1" fill="rgb(26,26,26)" fill-opacity="0.390625"/>
  <rect x="5" y="19" width="1" height="2" fill="rgb(255,255,255)" fill-opacity="0.0078125"/>
  <rect x="6" y="0" width="1" height="9" fill="rgb(255,255,255)" fill-opacity="0.0078125"/>
  <rect x="6" y="9" width="1" height="1" fill="rgb(23,23,23)" fill-opacity="0.4765625"/>
  <rect x="6" y="10" width="1" height="1" fill="rgb(25,25,25)" fill-opacity="0.8515625"/>
  <rect x="6" y="11" width="1" height="1" fill="rgb(67,67,67)"/>
  <rect x="6" y="12" width="1" height="1" fill="rgb(188,188,188)"/>
  <rect x="6" y="13" width="1" height="1" fill="rgb(173,173,173)"/>
  <rect x="6" y="14" width="1" height="1" fill="rgb(166,166,166)"/>
  <rect x="6" y="15" width="1" height="1" fill="rgb(44,44,44)" fill-opacity="0.9609375"/>
  <rect x="6" y="16" width="1" height="1" fill="rgb(29,29,29)" fill-opacity="0.5234375"/>
  <rect x="6" y="17" width="1" height="1" fill="rgb(235,235,235)"/>
  <rect x="6" y="18" width="1" height="1" fill="rgb(26,26,26)" fill-opacity="0.4609375"/>
  <rect x="6" y="19" width="1" height="2" fill="rgb(255,255,255)" fill-opacity="0.0078125"/>
  <rect x="7" y="0" width="1" height="9" fill="rgb(255,255,255)" fill-opacity="0.0078125"/>
  <rect x="7" y="9" width="1" height="1" fill="rgb(25,25,25)" fill-opacity="0.8203125"/>
  <rect x="7" y="10" width="1" height="1" fill="rgb(232,130,130)"/>
  <rect x="7" y="11" width="1" height="1" fill="rgb(196,112,112)"/>
  <rect x="7" y="12" width="1" height="1" fill="rgb(198,198,198)"/>
  <rect x="7" y="13" width="1" height="1" fill="rgb(95,95,95)"/>
  <rect x="7" y="14" width="1" height="1" fill="rgb(137,137,137)"/>
  <rect x="7" y="15" width="1" height="1" fill="rgb(104,104,104)"/>
  <rect x="7" y="16" width="1" height="1" fill="rgb(96,96,96)" fill-opacity="0.8984375"/>
  <rect x="7" y="17" width="1" height="1" fill="rgb(221,221,221)" fill-opacity="0.96875"/>
  <rect x="7" y="18" width="1" height="1" fill="rgb(26,26,26)" fill-opacity="0.3828125"/>
  <rect x="7" y="19" width="1" height="2" fill="rgb(255,255,255)" fill-opacity="0.0078125"/>
  <rect x="8" y="0" width="1" height="9" fill="rgb(255,255,255)" fill-opacity="0.0078125"/>
  <rect x="8" y="9" width="1" height="1" fill="rgb(25,25,25)" fill-opacity="0.828125"/>
  <rect x="8" y="10" width="1" height="1" fill="rgb(223,75,75)"/>
  <rect x="8" y="11" width="1" height="1" fill="rgb(144,26,26)"/>
  <rect x="8" y="12" width="1" height="1" fill="rgb(170,170,170)"/>
  <rect x="8" y="13" width="1" height="1" fill="rgb(152,152,152)"/>
  <rect x="8" y="14" width="1" height="1" fill="rgb(98,98,98)"/>
  <rect x="8" y="15" width="1" height="1" fill="rgb(111,111,111)"/>
  <rect x="8" y="16" width="1" height="1" fill="rgb(218,218,218)"/>
  <rect x="8" y="17" width="1" height="1" fill="rgb(91,91,91)" fill-opacity="0.7734375"/>
  <rect x="8" y="18" width="1" height="1" fill="rgb(21,21,21)" fill-opacity="0.1015625"/>
  <rect x="8" y="19" width="1" height="2" fill="rgb(255,255,255)" fill-opacity="0.0078125"/>
  <rect x="9" y="0" width="1" height="9" fill="rgb(255,255,255)" fill-opacity="0.0078125"/>
  <rect x="9" y="9" width="1" height="1" fill="rgb(25,25,25)" fill-opacity="0.7109375"/>
  <rect x="9" y="10" width="1" height="1" fill="rgb(73,73,73)"/>
  <rect x="9" y="11" width="1" height="1" fill="rgb(128,128,128)"/>
  <rect x="9" y="12" width="1" height="1" fill="rgb(134,134,134)"/>
  <rect x="9" y="13" width="1" height="1" fill="rgb(198,198,198)"/>
  <rect x="9" y="14" width="1" height="1" fill="rgb(83,83,83)"/>
  <rect x="9" y="15" width="1" height="1" fill="rgb(137,137,137)"/>
  <rect x="9" y="16" width="1" height="1" fill="rgb(100,100,100)"/>
  <rect x="9" y="17" width="1" height="1" fill="rgb(27,27,27)" fill-opacity="0.7109375"/>
  <rect x="9" y="18" width="1" height="3" fill="rgb(255,255,255)" fill-opacity="0.0078125"/>
  <rect x="10" y="0" width="1" height="3" fill="rgb(255,255,255)" fill-opacity="0.0078125"/>
  <rect x="10" y="3" width="1" height="1" fill="rgb(54,10,10)" fill-opacity="0.0234375"/>
  <rect x="10" y="4" width="1" height="1" fill="rgb(75,13,13)" fill-opacity="0.421875"/>
  <rect x="10" y="5" width="1" height="2" fill="rgb(80,14,14)" fill-opacity="0.8828125"/>
  <rect x="10" y="7" width="1" height="1" fill="rgb(75,13,13)" fill-opacity="0.421875"/>
  <rect x="10" y="8" width="1" height="1" fill="rgb(44,8,8)" fill-opacity="0.0234375"/>
  <rect x="10" y="9" width="1" height="1" fill="rgb(27,27,27)" fill-opacity="0.859375"/>
  <rect x="10" y="10" width="1" height="1" fill="rgb(114,114,114)"/>
  <rect x="10" y="11" width="1" height="2" fill="rgb(128,128,128)"/>
  <rect x="10" y="13" width="1" height="1" fill="rgb(170,170,170)"/>
  <rect x="10" y="14" width="1" height="1" fill="rgb(150,150,150)"/>
  <rect x="10" y="15" width="1" height="1" fill="rgb(90,90,90)"/>
  <rect x="10" y="16" width="1" height="1" fill="rgb(138,138,138)"/>
  <rect x="10" y="17" width="1" height="1" fill="rgb(58,58,58)"/>
  <rect x="10" y="18" width="1" height="1" fill="rgb(24,24,24)" fill-opacity="0.2109375"/>
  <rect x="10" y="19" width="1" height="2" fill="rgb(255,255,255)" fill-opacity="0.0078125"/>
  <rect x="11" y="0" width="1" height="3" fill="rgb(255,255,255)" fill-opacity="0.0078125"/>
  <rect x="11" y="3" width="1" height="1" fill="rgb(75,13,13)" fill-opacity="0.421875"/>
  <rect x="11" y="4" width="1" height="1" fill="rgb(134,74,74)" fill-opacity="0.9921875"/>
  <rect x="11" y="5" width="1" height="1" fill="rgb(232,186,186)"/>
  <rect x="11" y="6" width="1" height="1" fill="rgb(214,132,132)"/>
  <rect x="11" y="7" width="1" height="1" fill="rgb(106,32,32)" fill-opacity="0.9921875"/>
  <rect x="11" y="8" width="1" height="1" fill="rgb(48,20,20)" fill-opacity="0.90625"/>
  <rect x="11" y="9" width="1" height="1" fill="rgb(49,49,49)"/>
  <rect x="11" y="10" width="1" height="1" fill="rgb(105,105,105)"/>
  <rect x="11" y="11" width="1" height="1" fill="rgb(53,53,53)"/>
  <rect x="11" y="12" width="1" height="1" fill="rgb(110,110,110)"/>
  <rect x="11" y="13" width="1" height="1" fill="rgb(134,134,134)"/>
  <rect x="11" y="14" width="1" height="1" fill="rgb(197,197,197)"/>
  <rect x="11" y="15" width="1" height="1" fill="rgb(90,90,90)"/>
  <rect x="11" y="16" width="1" height="1" fill="rgb(117,117,117)"/>
  <rect x="11" y="17" width="1" height="1" fill="rgb(120,120,120)"/>
  <rect x="11" y="18" width="1" height="1" fill="rgb(26,26,26)" fill-opacity="0.703125"/>
  <rect x="11" y="19" width="1" height="2" fill="rgb(255,255,255)" fill-opacity="0.0078125"/>
  <rect x="12" y="0" width="1" height="3" fill="rgb(255,255,255)" fill-opacity="0.0078125"/>
  <rect x="12" y="3" width="1" height="1" fill="rgb(80,14,14)" fill-opacity="0.8828125"/>
  <rect x="12" y="4" width="1" height="1" fill="rgb(232,186,186)"/>
  <rect x="12" y="5" width="1" height="1" fill="rgb(238,160,160)"/>
  <rect x="12" y="6" width="1" height="1" fill="rgb(226,92,92)"/>
  <rect x="12" y="7" width="1" height="1" fill="rgb(182,32,32)"/>
  <rect x="12" y="8" width="1" height="1" fill="rgb(192,178,178)"/>
  <rect x="12" y="9" width="1" height="3" fill="rgb(255,255,255)"/>
  <rect x="12" y="12" width="1" height="1" fill="rgb(53,53,53)"/>
  <rect x="12" y="13" width="1" height="1" fill="rgb(128,128,128)"/>
  <rect x="12" y="14" width="1" height="1" fill="rgb(132,132,132)"/>
  <rect x="12" y="15" width="1" height="1" fill="rgb(28,28,28)"/>
  <rect x="12" y="16" width="1" height="1" fill="rgb(47,47,47)"/>
  <rect x="12" y="17" width="1" height="1" fill="rgb(72,72,72)"/>
  <rect x="12" y="18" width="1" height="1" fill="rgb(26,26,26)" fill-opacity="0.703125"/>
  <rect x="12" y="19" width="1" height="2" fill="rgb(255,255,255)" fill-opacity="0.0078125"/>
  <rect x="13" y="0" width="1" height="3" fill="rgb(255,255,255)" fill-opacity="0.0078125"/>
  <rect x="13" y="3" width="1" height="1" fill="rgb(80,14,14)" fill-opacity="0.8828125"/>
  <rect x="13" y="4" width="1" height="1" fill="rgb(214,132,132)"/>
  <rect x="13" y="5" width="1" height="1" fill="rgb(226,92,92)"/>
  <rect x="13" y="6" width="1" height="1" fill="rgb(217,39,39)"/>
  <rect x="13" y="7" width="1" height="1" fill="rgb(182,32,32)"/>
  <rect x="13" y="8" width="1" height="1" fill="rgb(129,99,99)" fill-opacity="0.9921875"/>
  <rect x="13" y="9" width="1" height="3" fill="rgb(179,179,179)"/>
  <rect x="13" y="12" width="1" height="1" fill="rgb(53,53,53)"/>
  <rect x="13" y="13" width="1" height="1" fill="rgb(128,128,128)"/>
  <rect x="13" y="14" width="1" height="1" fill="rgb(79,79,79)"/>
  <rect x="13" y="15" width="1" height="1" fill="rgb(28,28,28)"/>
  <rect x="13" y="16" width="1" height="1" fill="rgb(73,73,73)"/>
  <rect x="13" y="17" width="1" height="1" fill="rgb(39,39,39)"/>
  <rect x="13" y="18" width="1" height="1" fill="rgb(24,24,24)" fill-opacity="0.2109375"/>
  <rect x="13" y="19" width="1" height="2" fill="rgb(255,255,255)" fill-opacity="0.0078125"/>
  <rect x="14" y="0" width="1" height="3" fill="rgb(255,255,255)" fill-opacity="0.0078125"/>
  <rect x="14" y="3" width="1" height="1" fill="rgb(75,13,13)" fill-opacity="0.421875"/>
  <rect x="14" y="4" width="1" height="1" fill="rgb(105,31,31)" fill-opacity="0.984375"/>
  <rect x="14" y="5" width="1" height="2" fill="rgb(182,32,32)"/>
  <rect x="14" y="7" width="1" height="1" fill="rgb(96,18,18)" fill-opacity="0.9921875"/>
  <rect x="14" y="8" width="1" height="1" fill="rgb(50,20,20)" fill-opacity="0.875"/>
  <rect x="14" y="9" width="1" height="1" fill="rgb(26,26,26)" fill-opacity="0.8828125"/>
  <rect x="14" y="10" width="1" height="1" fill="rgb(63,63,63)"/>
  <rect x="14" y="11" width="1" height="1" fill="rgb(53,53,53)"/>
  <rect x="14" y="12" width="1" height="1" fill="rgb(110,110,110)"/>
  <rect x="14" y="13" width="1" height="1" fill="rgb(128,128,128)"/>
  <rect x="14" y="14" width="1" height="1" fill="rgb(28,28,28)"/>
  <rect x="14" y="15" width="1" height="1" fill="rgb(48,48,48)"/>
  <rect x="14" y="16" width="1" height="1" fill="rgb(60,60,60)"/>
  <rect x="14" y="17" width="1" height="1" fill="rgb(26,26,26)" fill-opacity="0.6640625"/>
  <rect x="14" y="18" width="1" height="3" fill="rgb(255,255,255)" fill-opacity="0.0078125"/>
  <rect x="15" y="0" width="1" height="3" fill="rgb(255,255,255)" fill-opacity="0.0078125"/>
  <rect x="15" y="3" width="1" height="1" fill="rgb(54,10,10)" fill-opacity="0.0234375"/>
  <rect x="15" y="4" width="1" height="1" fill="rgb(75,13,13)" fill-opacity="0.421875"/>
  <rect x="15" y="5" width="1" height="2" fill="rgb(80,14,14)" fill-opacity="0.8828125"/>
  <rect x="15" y="7" width="1" height="1" fill="rgb(75,13,13)" fill-opacity="0.421875"/>
  <rect x="15" y="8" width="1" height="1" fill="rgb(54,10,10)" fill-opacity="0.0234375"/>
  <rect x="15" y="9" width="1" height="1" fill="rgb(30,30,30)" fill-opacity="0.0703125"/>
  <rect x="15" y="10" width="1" height="1" fill="rgb(34,34,34)" fill-opacity="0.9765625"/>
  <rect x="15" y="11" width="1" height="1" fill="rgb(125,125,125)"/>
  <rect x="15" y="12" width="1" height="1" fill="rgb(128,128,128)"/>
  <rect x="15" y="13" width="1" height="1" fill="rgb(79,79,79)"/>
  <rect x="15" y="14" width="1" height="1" fill="rgb(29,29,29)"/>
  <rect x="15" y="15" width="1" height="1" fill="rgb(67,67,67)"/>
  <rect x="15" y="16" width="1" height="1" fill="rgb(32,32,32)" fill-opacity="0.9921875"/>
  <rect x="15" y="17" width="1" height="1" fill="rgb(28,28,28)" fill-opacity="0.1484375"/>
  <rect x="15" y="18" width="1" height="3" fill="rgb(255,255,255)" fill-opacity="0.0078125"/>
  <rect x="16" y="0" width="1" height="10" fill="rgb(255,255,255)" fill-opacity="0.0078125"/>
  <rect x="16" y="10" width="1" height="1" fill="rgb(26,26,26)" fill-opacity="0.6171875"/>
  <rect x="16" y="11" width="1" height="1" fill="rgb(90,90,90)"/>
  <rect x="16" y="12" width="1" height="1" fill="rgb(128,128,128)"/>
  <rect x="16" y="13" width="1" height="1" fill="rgb(28,28,28)"/>
  <rect x="16" y="14" width="1" height="1" fill="rgb(48,48,48)"/>
  <rect x="16" y="15" width="1" height="1" fill="rgb(50,50,50)"/>
  <rect x="16" y="16" width="1" height="1" fill="rgb(26,26,26)" fill-opacity="0.5859375"/>
  <rect x="16" y="17" width="1" height="4" fill="rgb(255,255,255)" fill-opacity="0.0078125"/>
  <rect x="17" y="0" width="1" height="10" fill="rgb(255,255,255)" fill-opacity="0.0078125"/>
  <rect x="17" y="10" width="1" height="1" fill="rgb(26,26,26)" fill-opacity="0.203125"/>
  <rect x="17" y="11" width="1" height="1" fill="rgb(48,48,48)"/>
  <rect x="17" y="12" width="1" height="1" fill="rgb(109,109,109)"/>
  <rect x="17" y="13" width="1" height="1" fill="rgb(65,65,65)"/>
  <rect x="17" y="14" width="1" height="1" fill="rgb(60,60,60)"/>
  <rect x="17" y="15" width="1" height="1" fill="rgb(30,30,30)" fill-opacity="0.9609375"/>
  <rect x="17" y="16" width="1" height="1" fill="rgb(23,23,23)" fill-opacity="0.09375"/>
  <rect x="17" y="17" width="1" height="4" fill="rgb(255,255,255)" fill-opacity="0.0078125"/>
  <rect x="18" y="0" width="1" height="11" fill="rgb(255,255,255)" fill-opacity="0.0078125"/>
  <rect x="18" y="11" width="1" height="1" fill="rgb(25,25,25)" fill-opacity="0.5546875"/>
  <rect x="18" y="12" width="1" height="2" fill="rgb(26,26,26)" fill-opacity="0.9140625"/>
  <rect x="18" y="14" width="1" height="1" fill="rgb(26,26,26)" fill-opacity="0.890625"/>
  <rect x="18" y="15" width="1" height="1" fill="rgb(27,27,27)" fill-opacity="0.375"/>
  <rect x="18" y="16" width="1" height="5" fill="rgb(255,255,255)" fill-opacity="0.0078125"/>
  <rect x="19" y="0" width="1" height="21" fill="rgb(255,255,255)" fill-opacity="0.0078125"/>
  <rect x="20" y="0" width="1" height="21" fill="rgb(255,255,255)" fill-opacity="0.0078125"/>
</svg>