<svg xmlns="http://www.w3.org/2000/svg" shape-rendering="crispEdges" width="21" height="21" viewBox="0 0 21 21">
  <rect x="0" y="0" width="1" height="21" fill="rgb(255,255,255)" fill-opacity="0.0078125"/>
  <rect x="1" y="0" width="1" height="21" fill="rgb(255,255,255)" fill-opacity="0.0078125"/>
  <rect x="2" y="0" width="1" height="21" fill="rgb(255,255,255)" fill-opacity="0.0078125"/>
  <rect x="3" y="0" width="1" height="21" fill="rgb(255,255,255)" fill-opacity="0.0078125"/>
  <rect x="4" y="0" width="1" height="5" fill="rgb(255,255,255)" fill-opacity="0.0078125"/>
  <rect x="4" y="5" width="1" height="1" fill="rgb(0,0,0)" fill-opacity="0.296875"/>
  <rect x="4" y="6" width="1" height="1" fill="rgb(6,6,6)" fill-opacity="0.8046875"/>
  <rect x="4" y="7" width="1" height="1" fill="rgb(5,5,5)" fill-opacity="0.4296875"/>
  <rect x="4" y="8" width="1" height="1" fill="rgb(0,0,0)" fill-opacity="0.03125"/>
  <rect x="4" y="9" width="1" height="12" fill="rgb(255,255,255)" fill-opacity="0.0078125"/>
  <rect x="5" y="0" width="1" height="4" fill="rgb(255,255,255)" fill-opacity="0.0078125"/>
  <rect x="5" y="4" width="1" height="1" fill="rgb(0,0,0)" fill-opacity="0.1328125"/>
  <rect x="5" y="5" width="1" height="1" fill="rgb(45,45,45)" fill-opacity="0.9765625"/>
  <rect x="5" y="6" width="1" height="1" fill="rgb(220,220,220)"/>
  <rect x="5" y="7" width="1" height="1" fill="rgb(190,190,190)"/>
  <rect x="5" y="8" width="1" height="1" fill="rgb(28,28,28)" fill-opacity="0.8359375"/>
  <rect x="5" y="9" width="1" height="1" fill="rgb(0,0,0)" fill-opacity="0.0703125"/>
  <rect x="5" y="10" width="1" height="11" fill="rgb(255,255,255)" fill-opacity="0.0078125"/>
  <rect x="6" y="0" width="1" height="4" fill="rgb(255,255,255)" fill-opacity="0.0078125"/>
  <rect x="6" y="4" width="1" height="1" fill="rgb(0,0,0)" fill-opacity="0.4375"/>
  <rect x="6" y="5" width="1" height="1" fill="rgb(151,151,151)"/>
  <rect x="6" y="6" width="1" height="1" fill="rgb(128,128,128)"/>
  <rect x="6" y="7" width="1" height="1" fill="rgb(189,189,189)"/>
  <rect x="6" y="8" width="1" height="1" fill="rgb(199,199,199)" fill-opacity="0.9921875"/>
  <rect x="6" y="9" width="1" height="1" fill="rgb(20,20,20)" fill-opacity="0.859375"/>
  <rect x="6" y="10" width="1" height="1" fill="rgb(0,0,0)" fill-opacity="0.09375"/>
  <rect x="6" y="11" width="1" height="10" fill="rgb(255,255,255)" fill-opacity="0.0078125"/>
  <rect x="7" y="0" width="1" height="4" fill="rgb(255,255,255)" fill-opacity="0.0078125"/>
  <rect x="7" y="4" width="1" height="1" fill="rgb(3,3,3)" fill-opacity="0.5859375"/>
  <rect x="7" y="5" width="1" height="1" fill="rgb(189,189,189)"/>
  <rect x="7" y="6" width="1" height="1" fill="rgb(63,63,63)"/>
  <rect x="7" y="7" width="1" height="1" fill="rgb(111,111,111)"/>
  <rect x="7" y="8" width="1" height="1" fill="rgb(230,230,230)"/>
  <rect x="7" y="9" width="1" height="1" fill="rgb(163,163,163)"/>
  <rect x="7" y="10" width="1" height="1" fill="rgb(19,19,19)" fill-opacity="0.8828125"/>
  <rect x="7" y="11" width="1" height="1" fill="rgb(0,0,0)" fill-opacity="0.1171875"/>
  <rect x="7" y="12" width="1" height="9" fill="rgb(255,255,255)" fill-opacity="0.0078125"/>
  <rect x="8" y="0" width="1" height="4" fill="rgb(255,255,255)" fill-opacity="0.0078125"/>
  <rect x="8" y="4" width="1" height="1" fill="rgb(7,7,7)" fill-opacity="0.75"/>
  <rect x="8" y="5" width="1" height="1" fill="rgb(195,195,195)"/>
  <rect x="8" y="6" width="1" height="1" fill="rgb(64,64,64)"/>
  <rect x="8" y="7" width="1" height="1" fill="rgb(94,94,94)"/>
  <rect x="8" y="8" width="1" height="1" fill="rgb(231,231,231)"/>
  <rect x="8" y="9" width="1" height="1" fill="rgb(206,206,206)"/>
  <rect x="8" y="10" width="1" height="1" fill="rgb(158,158,158)"/>
  <rect x="8" y="11" width="1" height="1" fill="rgb(19,19,19)" fill-opacity="0.8984375"/>
  <rect x="8" y="12" width="1" height="1" fill="rgb(0,0,0)" fill-opacity="0.1484375"/>
  <rect x="8" y="13" width="1" height="8" fill="rgb(255,255,255)" fill-opacity="0.0078125"/>
  <rect x="9" y="0" width="1" height="4" fill="rgb(255,255,255)" fill-opacity="0.0078125"/>
  <rect x="9" y="4" width="1" height="1" fill="rgb(7,7,7)" fill-opacity="0.875"/>
  <rect x="9" y="5" width="1" height="1" fill="rgb(199,199,199)"/>
  <rect x="9" y="6" width="1" height="1" fill="rgb(72,72,72)"/>
  <rect x="9" y="7" width="1" height="1" fill="rgb(84,84,84)"/>
  <rect x="9" y="8" width="1" height="1" fill="rgb(239,239,239)"/>
  <rect x="9" y="9" width="1" height="1" fill="rgb(194,194,194)"/>
  <rect x="9" y="10" width="1" height="1" fill="rgb(188,188,188)"/>
  <rect x="9" y="11" width="1" height="1" fill="rgb(151,151,151)"/>
  <rect x="9" y="12" width="1" height="1" fill="rgb(40,40,40)" fill-opacity="0.9296875"/>
  <rect x="9" y="13" width="1" height="1" fill="rgb(50,50,50)" fill-opacity="0.921875"/>
  <rect x="9" y="14" width="1" height="2" fill="rgb(49,49,49)" fill-opacity="0.921875"/>
  <rect x="9" y="16" width="1" height="1" fill="rgb(48,48,48)" fill-opacity="0.921875"/>
  <rect x="9" y="17" width="1" height="1" fill="rgb(47,47,47)" fill-opacity="0.921875"/>
  <rect x="9" y="18" width="1" height="1" fill="rgb(12,12,12)" fill-opacity="0.8984375"/>
  <rect x="9" y="19" width="1" height="1" fill="rgb(0,0,0)" fill-opacity="0.015625"/>
  <rect x="9" y="20" width="1" height="1" fill="rgb(255,255,255)" fill-opacity="0.0078125"/>
  <rect x="10" y="0" width="1" height="4" fill="rgb(255,255,255)" fill-opacity="0.0078125"/>
  <rect x="10" y="4" width="1" height="1" fill="rgb(3,3,3)" fill-opacity="0.96875"/>
  <rect x="10" y="5" width="1" height="1" fill="rgb(203,203,203)"/>
  <rect x="10" y="6" width="1" height="1" fill="rgb(84,84,84)"/>
  <rect x="10" y="7" width="1" height="1" fill="rgb(81,81,81)"/>
  <rect x="10" y="8" width="1" height="1" fill="rgb(250,250,250)"/>
  <rect x="10" y="9" width="1" height="1" fill="rgb(183,183,183)"/>
  <rect x="10" y="10" width="1" height="1" fill="rgb(176,176,176)"/>
  <rect x="10" y="11" width="1" height="1" fill="rgb(170,170,170)"/>
  <rect x="10" y="12" width="1" height="1" fill="rgb(182,182,182)"/>
  <rect x="10" y="13" width="1" height="4" fill="rgb(255,255,255)"/>
  <rect x="10" y="17" width="1" height="1" fill="rgb(214,214,214)" fill-opacity="0.9921875"/>
  <rect x="10" y="18" width="1" height="1" fill="rgb(14,14,14)" fill-opacity="0.6328125"/>
  <rect x="10" y="19" width="1" height="2" fill="rgb(255,255,255)" fill-opacity="0.0078125"/>
  <rect x="11" y="0" width="1" height="4" fill="rgb(255,255,255)" fill-opacity="0.0078125"/>
  <rect x="11" y="4" width="1" height="1" fill="rgb(3,3,3)" fill-opacity="0.96875"/>
  <rect x="11" y="5" width="1" height="1" fill="rgb(203,203,203)"/>
  <rect x="11" y="6" width="1" height="1" fill="rgb(101,101,101)"/>
  <rect x="11" y="7" width="1" height="1" fill="rgb(97,97,97)"/>
  <rect x="11" y="8" width="1" height="1" fill="rgb(251,251,251)"/>
  <rect x="11" y="9" width="1" height="1" fill="rgb(171,171,171)"/>
  <rect x="11" y="10" width="1" height="1" fill="rgb(165,165,165)"/>
  <rect x="11" y="11" width="1" height="1" fill="rgb(159,159,159)"/>
  <rect x="11" y="12" width="1" height="1" fill="rgb(157,157,157)"/>
  <rect x="11" y="13" width="1" height="1" fill="rgb(198,198,198)"/>
  <rect x="11" y="14" width="1" height="2" fill="rgb(197,197,197)"/>
  <rect x="11" y="16" width="1" height="1" fill="rgb(191,191,191)"/>
  <rect x="11" y="17" width="1" height="1" fill="rgb(35,35,35)" fill-opacity="0.9140625"/>
  <rect x="11" y="18" width="1" height="1" fill="rgb(0,0,0)" fill-opacity="0.046875"/>
  <rect x="11" y="19" width="1" height="2" fill="rgb(255,255,255)" fill-opacity="0.0078125"/>
  <rect x="12" y="0" width="1" height="4" fill="rgb(255,255,255)" fill-opacity="0.0078125"/>
  <rect x="12" y="4" width="1" height="1" fill="rgb(9,9,9)" fill-opacity="0.875"/>
  <rect x="12" y="5" width="1" height="1" fill="rgb(201,201,201)"/>
  <rect x="12" y="6" width="1" height="1" fill="rgb(121,121,121)"/>
  <rect x="12" y="7" width="1" height="1" fill="rgb(125,125,125)"/>
  <rect x="12" y="8" width="1" height="1" fill="rgb(242,242,242)"/>
  <rect x="12" y="9" width="1" height="1" fill="rgb(160,160,160)"/>
  <rect x="12" y="10" width="1" height="1" fill="rgb(153,153,153)"/>
  <rect x="12" y="11" width="1" height="1" fill="rgb(122,122,122)"/>
  <rect x="12" y="12" width="1" height="1" fill="rgb(25,25,25)" fill-opacity="0.9375"/>
  <rect x="12" y="13" width="1" height="2" fill="rgb(33,33,33)" fill-opacity="0.921875"/>
  <rect x="12" y="15" width="1" height="1" fill="rgb(32,32,32)" fill-opacity="0.921875"/>
  <rect x="12" y="16" width="1" height="1" fill="rgb(22,22,22)" fill-opacity="0.921875"/>
  <rect x="12" y="17" width="1" height="1" fill="rgb(0,0,0)" fill-opacity="0.25"/>
  <rect x="12" y="18" width="1" height="3" fill="rgb(255,255,255)" fill-opacity="0.0078125"/>
  <rect x="13" y="0" width="1" height="4" fill="rgb(255,255,255)" fill-opacity="0.0078125"/>
  <rect x="13" y="4" width="1" height="1" fill="rgb(12,12,12)" fill-opacity="0.75"/>
  <rect x="13" y="5" width="1" height="1" fill="rgb(200,200,200)"/>
  <rect x="13" y="6" width="1" height="1" fill="rgb(141,141,141)"/>
  <rect x="13" y="7" width="1" height="1" fill="rgb(150,150,150)"/>
  <rect x="13" y="8" width="1" height="1" fill="rgb(234,234,234)"/>
  <rect x="13" y="9" width="1" height="1" fill="rgb(148,148,148)"/>
  <rect x="13" y="10" width="1" height="1" fill="rgb(111,111,111)"/>
  <rect x="13" y="11" width="1" height="1" fill="rgb(13,13,13)" fill-opacity="0.8984375"/>
  <rect x="13" y="12" width="1" height="1" fill="rgb(0,0,0)" fill-opacity="0.1484375"/>
  <rect x="13" y="13" width="1" height="8" fill="rgb(255,255,255)" fill-opacity="0.0078125"/>
  <rect x="14" y="0" width="1" height="4" fill="rgb(255,255,255)" fill-opacity="0.0078125"/>
  <rect x="14" y="4" width="1" height="1" fill="rgb(7,7,7)" fill-opacity="0.5859375"/>
  <rect x="14" y="5" width="1" height="1" fill="rgb(198,198,198)"/>
  <rect x="14" y="6" width="1" height="1" fill="rgb(161,161,161)"/>
  <rect x="14" y="7" width="1" height="1" fill="rgb(171,171,171)"/>
  <rect x="14" y="8" width="1" height="1" fill="rgb(224,224,224)"/>
  <rect x="14" y="9" width="1" height="1" fill="rgb(101,101,101)"/>
  <rect x="14" y="10" width="1" height="1" fill="rgb(11,11,11)" fill-opacity="0.8828125"/>
  <rect x="14" y="11" width="1" height="1" fill="rgb(0,0,0)" fill-opacity="0.1171875"/>
  <rect x="14" y="12" width="1" height="9" fill="rgb(255,255,255)" fill-opacity="0.0078125"/>
  <rect x="15" y="0" width="1" height="4" fill="rgb(255,255,255)" fill-opacity="0.0078125"/>
  <rect x="15" y="4" width="1" height="1" fill="rgb(0,0,0)" fill-opacity="0.4375"/>
  <rect x="15" y="5" width="1" height="1" fill="rgb(174,174,174)"/>
  <rect x="15" y="6" width="1" height="1" fill="rgb(190,190,190)"/>
  <rect x="15" y="7" width="1" height="1" fill="rgb(214,214,214)"/>
  <rect x="15" y="8" width="1" height="1" fill="rgb(183,183,183)" fill-opacity="0.9921875"/>
  <rect x="15" y="9" width="1" height="1" fill="rgb(11,11,11)" fill-opacity="0.859375"/>
  <rect x="15" y="10" width="1" height="1" fill="rgb(0,0,0)" fill-opacity="0.09375"/>
  <rect x="15" y="11" width="1" height="10" fill="rgb(255,255,255)" fill-opacity="0.0078125"/>
  <rect x="16" y="0" width="1" height="4" fill="rgb(255,255,255)" fill-opacity="0.0078125"/>
  <rect x="16" y="4" width="1" height="1" fill="rgb(0,0,0)" fill-opacity="0.1328125"/>
  <rect x="16" y="5" width="1" height="1" fill="rgb(65,65,65)" fill-opacity="0.9765625"/>
  <rect x="16" y="6" width="1" height="1" fill="rgb(223,223,223)"/>
  <rect x="16" y="7" width="1" height="1" fill="rgb(214,214,214)"/>
  <rect x="16" y="8" width="1" height="1" fill="rgb(28,28,28)" fill-opacity="0.8359375"/>
  <rect x="16" y="9" width="1" height="1" fill="rgb(0,0,0)" fill-opacity="0.0703125"/>
  <rect x="16" y="10" width="1" height="11" fill="rgb(255,255,255)" fill-opacity="0.0078125"/>
  <rect x="17" y="0" width="1" height="5" fill="rgb(255,255,255)" fill-opacity="0.0078125"/>
  <rect x="17" y="5" width="1" height="1" fill="rgb(0,0,0)" fill-opacity="0.296875"/>
  <rect x="17" y="6" width="1" height="1" fill="rgb(15,15,15)" fill-opacity="0.8046875"/>
  <rect x="17" y="7" width="1" height="1" fill="rgb(7,7,7)" fill-opacity="0.4296875"/>
  <rect x="17" y="8" width="1" height="1" fill="rgb(0,0,0)" fill-opacity="0.03125"/>
  <rect x="17" y="9" width="1" height="12" fill="rgb(255,255,255)" fill-opacity="0.0078125"/>
  <rect x="18" y="0" width="1" height="21" fill="rgb(255,255,255)" fill-opacity="0.0078125"/>
  <rect x="19" y="0" width="1" height="21" fill="rgb(255,255,255)" fill-opacity="0.0078125"/>
  <rect x="20" y="0" width="1" height="21" fill="rgb(255,255,255)" fill-opacity="0.0078125"/>
</svg>