<svg xmlns="http://www.w3.org/2000/svg" shape-rendering="crispEdges" width="21" height="21" viewBox="0 0 21 21">
  <rect x="0" y="0" width="21" height="1" fill="rgb(255,255,255)" fill-opacity="0.0078125"/>
  <rect x="0" y="1" width="21" height="1" fill="rgb(255,255,255)" fill-opacity="0.0078125"/>
  <rect x="0" y="2" width="21" height="1" fill="rgb(255,255,255)" fill-opacity="0.0078125"/>
  <rect x="0" y="3" width="21" height="1" fill="rgb(255,255,255)" fill-opacity="0.0078125"/>
  <rect x="0" y="4" width="7" height="1" fill="rgb(255,255,255)" fill-opacity="0.0078125"/>
  <rect x="7" y="4" width="1" height="1" fill="rgb(0,0,0)" fill-opacity="0.0546875"/>
  <rect x="8" y="4" width="1" height="1" fill="rgb(4,4,4)" fill-opacity="0.5"/>
  <rect x="9" y="4" width="1" height="1" fill="rgb(11,11,11)" fill-opacity="0.75"/>
  <rect x="10" y="4" width="2" height="1" fill="rgb(7,7,7)" fill-opacity="0.9140625"/>
  <rect x="12" y="4" width="1" height="1" fill="rgb(12,12,12)" fill-opacity="0.75"/>
  <rect x="13" y="4" width="1" height="1" fill="rgb(4,4,4)" fill-opacity="0.5"/>
  <rect x="14" y="4" width="1" height="1" fill="rgb(0,0,0)" fill-opacity="0.0546875"/>
  <rect x="15" y="4" width="6" height="1" fill="rgb(255,255,255)" fill-opacity="0.0078125"/>
  <rect x="0" y="5" width="6" height="1" fill="rgb(255,255,255)" fill-opacity="0.0078125"/>
  <rect x="6" y="5" width="1" height="1" fill="rgb(0,0,0)" fill-opacity="0.25"/>
  <rect x="7" y="5" width="1" height="1" fill="rgb(15,15,15)" fill-opacity="0.8828125"/>
  <rect x="8" y="5" width="1" height="1" fill="rgb(189,189,189)" fill-opacity="0.953125"/>
  <rect x="9" y="5" width="1" height="1" fill="rgb(240,240,240)" fill-opacity="0.9609375"/>
  <rect x="10" y="5" width="1" height="1" fill="rgb(219,219,219)" fill-opacity="0.9609375"/>
  <rect x="11" y="5" width="1" height="1" fill="rgb(253,253,253)" fill-opacity="0.9609375"/>
  <rect x="12" y="5" width="1" height="1" fill="rgb(234,234,234)" fill-opacity="0.9609375"/>
  <rect x="13" y="5" width="1" height="1" fill="rgb(171,171,171)" fill-opacity="0.953125"/>
  <rect x="14" y="5" width="1" height="1" fill="rgb(14,14,14)" fill-opacity="0.8828125"/>
  <rect x="15" y="5" width="1" height="1" fill="rgb(0,0,0)" fill-opacity="0.25"/>
  <rect x="16" y="5" width="5" height="1" fill="rgb(255,255,255)" fill-opacity="0.0078125"/>
  <rect x="0" y="6" width="5" height="1" fill="rgb(255,255,255)" fill-opacity="0.0078125"/>
  <rect x="5" y="6" width="1" height="1" fill="rgb(0,0,0)" fill-opacity="0.2734375"/>
  <rect x="6" y="6" width="1" height="1" fill="rgb(66,66,66)" fill-opacity="0.9296875"/>
  <rect x="7" y="6" width="1" height="1" fill="rgb(245,245,245)" fill-opacity="0.9609375"/>
  <rect x="8" y="6" width="1" height="1" fill="rgb(251,251,251)" fill-opacity="0.9609375"/>
  <rect x="9" y="6" width="1" height="1" fill="rgb(241,241,241)" fill-opacity="0.9609375"/>
  <rect x="10" y="6" width="1" height="1" fill="rgb(174,174,174)" fill-opacity="0.9609375"/>
  <rect x="11" y="6" width="1" height="1" fill="rgb(235,235,235)" fill-opacity="0.9609375"/>
  <rect x="12" y="6" width="1" height="1" fill="rgb(241,241,241)" fill-opacity="0.9609375"/>
  <rect x="13" y="6" width="1" height="1" fill="rgb(251,251,251)" fill-opacity="0.9609375"/>
  <rect x="14" y="6" width="1" height="1" fill="rgb(231,231,231)" fill-opacity="0.9609375"/>
  <rect x="15" y="6" width="1" height="1" fill="rgb(40,40,40)" fill-opacity="0.921875"/>
  <rect x="16" y="6" width="1" height="1" fill="rgb(0,0,0)" fill-opacity="0.2734375"/>
  <rect x="17" y="6" width="4" height="1" fill="rgb(255,255,255)" fill-opacity="0.0078125"/>
  <rect x="0" y="7" width="4" height="1" fill="rgb(255,255,255)" fill-opacity="0.0078125"/>
  <rect x="4" y="7" width="1" height="1" fill="rgb(0,0,0)" fill-opacity="0.0625"/>
  <rect x="5" y="7" width="1" height="1" fill="rgb(12,12,12)" fill-opacity="0.890625"/>
  <rect x="6" y="7" width="1" height="1" fill="rgb(244,244,244)" fill-opacity="0.9609375"/>
  <rect x="7" y="7" width="1" height="1" fill="rgb(247,247,247)" fill-opacity="0.9609375"/>
  <rect x="8" y="7" width="1" height="1" fill="rgb(237,237,237)" fill-opacity="0.9609375"/>
  <rect x="9" y="7" width="1" height="1" fill="rgb(235,235,235)" fill-opacity="0.9609375"/>
  <rect x="10" y="7" width="1" height="1" fill="rgb(234,234,234)" fill-opacity="0.9609375"/>
  <rect x="11" y="7" width="1" height="1" fill="rgb(237,237,237)" fill-opacity="0.9609375"/>
  <rect x="12" y="7" width="1" height="1" fill="rgb(195,195,195)" fill-opacity="0.9609375"/>
  <rect x="13" y="7" width="1" height="1" fill="rgb(62,62,62)" fill-opacity="0.9609375"/>
  <rect x="14" y="7" width="1" height="1" fill="rgb(235,235,235)" fill-opacity="0.9609375"/>
  <rect x="15" y="7" width="1" height="1" fill="rgb(215,215,215)" fill-opacity="0.9609375"/>
  <rect x="16" y="7" width="1" height="1" fill="rgb(11,11,11)" fill-opacity="0.890625"/>
  <rect x="17" y="7" width="1" height="1" fill="rgb(0,0,0)" fill-opacity="0.0625"/>
  <rect x="18" y="7" width="3" height="1" fill="rgb(255,255,255)" fill-opacity="0.0078125"/>
  <rect x="0" y="8" width="4" height="1" fill="rgb(255,255,255)" fill-opacity="0.0078125"/>
  <rect x="4" y="8" width="1" height="1" fill="rgb(4,4,4)" fill-opacity="0.5"/>
  <rect x="5" y="8" width="1" height="1" fill="rgb(184,184,184)" fill-opacity="0.953125"/>
  <rect x="6" y="8" width="1" height="1" fill="rgb(251,251,251)" fill-opacity="0.9609375"/>
  <rect x="7" y="8" width="1" height="1" fill="rgb(237,237,237)" fill-opacity="0.9609375"/>
  <rect x="8" y="8" width="1" height="1" fill="rgb(236,236,236)" fill-opacity="0.9609375"/>
  <rect x="9" y="8" width="1" height="1" fill="rgb(234,234,234)" fill-opacity="0.9609375"/>
  <rect x="10" y="8" width="1" height="1" fill="rgb(237,237,237)" fill-opacity="0.9609375"/>
  <rect x="11" y="8" width="1" height="1" fill="rgb(195,195,195)" fill-opacity="0.9609375"/>
  <rect x="12" y="8" width="1" height="1" fill="rgb(79,79,79)" fill-opacity="0.9609375"/>
  <rect x="13" y="8" width="1" height="1" fill="rgb(157,157,157)" fill-opacity="0.9609375"/>
  <rect x="14" y="8" width="1" height="1" fill="rgb(204,204,204)" fill-opacity="0.9609375"/>
  <rect x="15" y="8" width="1" height="1" fill="rgb(231,231,231)" fill-opacity="0.9609375"/>
  <rect x="16" y="8" width="1" height="1" fill="rgb(126,126,126)" fill-opacity="0.9453125"/>
  <rect x="17" y="8" width="1" height="1" fill="rgb(6,6,6)" fill-opacity="0.5"/>
  <rect x="18" y="8" width="3" height="1" fill="rgb(255,255,255)" fill-opacity="0.0078125"/>
  <rect x="0" y="9" width="4" height="1" fill="rgb(255,255,255)" fill-opacity="0.0078125"/>
  <rect x="4" y="9" width="1" height="1" fill="rgb(11,11,11)" fill-opacity="0.75"/>
  <rect x="5" y="9" width="1" height="1" fill="rgb(238,238,238)" fill-opacity="0.9609375"/>
  <rect x="6" y="9" width="1" height="1" fill="rgb(243,243,243)" fill-opacity="0.9609375"/>
  <rect x="7" y="9" width="1" height="1" fill="rgb(236,236,236)" fill-opacity="0.9609375"/>
  <rect x="8" y="9" width="1" height="1" fill="rgb(235,235,235)" fill-opacity="0.9609375"/>
  <rect x="9" y="9" width="1" height="1" fill="rgb(237,237,237)" fill-opacity="0.9609375"/>
  <rect x="10" y="9" width="1" height="1" fill="rgb(195,195,195)" fill-opacity="0.9609375"/>
  <rect x="11" y="9" width="1" height="1" fill="rgb(75,75,75)" fill-opacity="0.9609375"/>
  <rect x="12" y="9" width="1" height="1" fill="rgb(165,165,165)" fill-opacity="0.9609375"/>
  <rect x="13" y="9" width="1" height="1" fill="rgb(205,205,205)" fill-opacity="0.9609375"/>
  <rect x="14" y="9" width="1" height="1" fill="rgb(203,203,203)" fill-opacity="0.9609375"/>
  <rect x="15" y="9" width="1" height="1" fill="rgb(218,218,218)" fill-opacity="0.9609375"/>
  <rect x="16" y="9" width="1" height="1" fill="rgb(192,192,192)" fill-opacity="0.9609375"/>
  <rect x="17" y="9" width="1" height="1" fill="rgb(16,16,16)" fill-opacity="0.75"/>
  <rect x="18" y="9" width="3" height="1" fill="rgb(255,255,255)" fill-opacity="0.0078125"/>
  <rect x="0" y="10" width="4" height="1" fill="rgb(255,255,255)" fill-opacity="0.0078125"/>
  <rect x="4" y="10" width="1" height="1" fill="rgb(7,7,7)" fill-opacity="0.921875"/>
  <rect x="5" y="10" width="1" height="1" fill="rgb(252,252,252)" fill-opacity="0.9609375"/>
  <rect x="6" y="10" width="1" height="1" fill="rgb(238,238,238)" fill-opacity="0.9609375"/>
  <rect x="7" y="10" width="1" height="1" fill="rgb(235,235,235)" fill-opacity="0.9609375"/>
  <rect x="8" y="10" width="1" height="1" fill="rgb(234,234,234)" fill-opacity="0.9609375"/>
  <rect x="9" y="10" width="1" height="1" fill="rgb(243,243,243)" fill-opacity="0.9609375"/>
  <rect x="10" y="10" width="1" height="1" fill="rgb(59,59,59)" fill-opacity="0.9609375"/>
  <rect x="11" y="10" width="1" height="1" fill="rgb(152,152,152)" fill-opacity="0.9609375"/>
  <rect x="12" y="10" width="1" height="1" fill="rgb(205,205,205)" fill-opacity="0.9609375"/>
  <rect x="13" y="10" width="1" height="1" fill="rgb(203,203,203)" fill-opacity="0.9609375"/>
  <rect x="14" y="10" width="1" height="1" fill="rgb(209,209,209)" fill-opacity="0.9609375"/>
  <rect x="15" y="10" width="1" height="1" fill="rgb(122,122,122)" fill-opacity="0.9609375"/>
  <rect x="16" y="10" width="1" height="1" fill="rgb(175,175,175)" fill-opacity="0.9609375"/>
  <rect x="17" y="10" width="1" height="1" fill="rgb(9,9,9)" fill-opacity="0.921875"/>
  <rect x="18" y="10" width="3" height="1" fill="rgb(255,255,255)" fill-opacity="0.0078125"/>
  <rect x="0" y="11" width="4" height="1" fill="rgb(255,255,255)" fill-opacity="0.0078125"/>
  <rect x="4" y="11" width="1" height="1" fill="rgb(5,5,5)" fill-opacity="0.921875"/>
  <rect x="5" y="11" width="1" height="1" fill="rgb(220,220,220)" fill-opacity="0.9609375"/>
  <rect x="6" y="11" width="1" height="1" fill="rgb(175,175,175)" fill-opacity="0.9609375"/>
  <rect x="7" y="11" width="1" height="1" fill="rgb(232,232,232)" fill-opacity="0.9609375"/>
  <rect x="8" y="11" width="1" height="1" fill="rgb(216,216,216)" fill-opacity="0.9609375"/>
  <rect x="9" y="11" width="1" height="1" fill="rgb(221,218,218)" fill-opacity="0.9609375"/>
  <rect x="10" y="11" width="1" height="1" fill="rgb(174,12,12)" fill-opacity="0.9609375"/>
  <rect x="11" y="11" width="1" height="1" fill="rgb(218,153,153)" fill-opacity="0.9609375"/>
  <rect x="12" y="11" width="1" height="1" fill="rgb(211,211,211)" fill-opacity="0.9609375"/>
  <rect x="13" y="11" width="1" height="1" fill="rgb(209,209,209)" fill-opacity="0.9609375"/>
  <rect x="14" y="11" width="1" height="1" fill="rgb(216,216,216)" fill-opacity="0.9609375"/>
  <rect x="15" y="11" width="1" height="1" fill="rgb(225,225,225)" fill-opacity="0.9609375"/>
  <rect x="16" y="11" width="1" height="1" fill="rgb(224,224,224)" fill-opacity="0.9609375"/>
  <rect x="17" y="11" width="1" height="1" fill="rgb(9,9,9)" fill-opacity="0.921875"/>
  <rect x="18" y="11" width="3" height="1" fill="rgb(255,255,255)" fill-opacity="0.0078125"/>
  <rect x="0" y="12" width="4" height="1" fill="rgb(255,255,255)" fill-opacity="0.0078125"/>
  <rect x="4" y="12" width="1" height="1" fill="rgb(12,12,12)" fill-opacity="0.7578125"/>
  <rect x="5" y="12" width="1" height="1" fill="rgb(236,236,236)" fill-opacity="0.9609375"/>
  <rect x="6" y="12" width="1" height="1" fill="rgb(241,241,241)" fill-opacity="0.9609375"/>
  <rect x="7" y="12" width="1" height="1" fill="rgb(225,225,225)" fill-opacity="0.9609375"/>
  <rect x="8" y="12" width="1" height="1" fill="rgb(186,186,186)" fill-opacity="0.9609375"/>
  <rect x="9" y="12" width="1" height="1" fill="rgb(198,198,198)" fill-opacity="0.9609375"/>
  <rect x="10" y="12" width="1" height="1" fill="rgb(218,153,153)" fill-opacity="0.9609375"/>
  <rect x="11" y="12" width="1" height="1" fill="rgb(171,3,3)" fill-opacity="0.9609375"/>
  <rect x="12" y="12" width="1" height="1" fill="rgb(220,155,155)" fill-opacity="0.9609375"/>
  <rect x="13" y="12" width="1" height="1" fill="rgb(222,222,222)" fill-opacity="0.9609375"/>
  <rect x="14" y="12" width="1" height="1" fill="rgb(223,223,223)" fill-opacity="0.9609375"/>
  <rect x="15" y="12" width="1" height="1" fill="rgb(232,232,232)" fill-opacity="0.9609375"/>
  <rect x="16" y="12" width="1" height="1" fill="rgb(185,185,185)" fill-opacity="0.9609375"/>
  <rect x="17" y="12" width="1" height="1" fill="rgb(19,19,19)" fill-opacity="0.7578125"/>
  <rect x="18" y="12" width="3" height="1" fill="rgb(255,255,255)" fill-opacity="0.0078125"/>
  <rect x="0" y="13" width="4" height="1" fill="rgb(255,255,255)" fill-opacity="0.0078125"/>
  <rect x="4" y="13" width="1" height="1" fill="rgb(4,4,4)" fill-opacity="0.5078125"/>
  <rect x="5" y="13" width="1" height="1" fill="rgb(172,172,172)" fill-opacity="0.953125"/>
  <rect x="6" y="13" width="1" height="1" fill="rgb(250,250,250)" fill-opacity="0.9609375"/>
  <rect x="7" y="13" width="1" height="1" fill="rgb(199,199,199)" fill-opacity="0.9609375"/>
  <rect x="8" y="13" width="1" height="1" fill="rgb(189,189,189)" fill-opacity="0.9609375"/>
  <rect x="9" y="13" width="1" height="1" fill="rgb(196,196,196)" fill-opacity="0.9609375"/>
  <rect x="10" y="13" width="1" height="1" fill="rgb(211,211,211)" fill-opacity="0.9609375"/>
  <rect x="11" y="13" width="1" height="1" fill="rgb(220,155,155)" fill-opacity="0.9609375"/>
  <rect x="12" y="13" width="1" height="1" fill="rgb(174,12,12)" fill-opacity="0.9609375"/>
  <rect x="13" y="13" width="1" height="1" fill="rgb(238,235,235)" fill-opacity="0.9609375"/>
  <rect x="14" y="13" width="1" height="1" fill="rgb(229,229,229)" fill-opacity="0.9609375"/>
  <rect x="15" y="13" width="1" height="1" fill="rgb(241,241,241)" fill-opacity="0.9609375"/>
  <rect x="16" y="13" width="1" height="1" fill="rgb(113,113,113)" fill-opacity="0.9375"/>
  <rect x="17" y="13" width="1" height="1" fill="rgb(8,8,8)" fill-opacity="0.5078125"/>
  <rect x="18" y="13" width="3" height="1" fill="rgb(255,255,255)" fill-opacity="0.0078125"/>
  <rect x="0" y="14" width="4" height="1" fill="rgb(255,255,255)" fill-opacity="0.0078125"/>
  <rect x="4" y="14" width="1" height="1" fill="rgb(0,0,0)" fill-opacity="0.0625"/>
  <rect x="5" y="14" width="1" height="1" fill="rgb(9,9,9)" fill-opacity="0.890625"/>
  <rect x="6" y="14" width="1" height="1" fill="rgb(237,237,237)" fill-opacity="0.9609375"/>
  <rect x="7" y="14" width="1" height="1" fill="rgb(222,222,222)" fill-opacity="0.9609375"/>
  <rect x="8" y="14" width="1" height="1" fill="rgb(196,196,196)" fill-opacity="0.9609375"/>
  <rect x="9" y="14" width="1" height="1" fill="rgb(203,203,203)" fill-opacity="0.9609375"/>
  <rect x="10" y="14" width="1" height="1" fill="rgb(210,210,210)" fill-opacity="0.9609375"/>
  <rect x="11" y="14" width="1" height="1" fill="rgb(221,221,221)" fill-opacity="0.9609375"/>
  <rect x="12" y="14" width="1" height="1" fill="rgb(236,233,233)" fill-opacity="0.9609375"/>
  <rect x="13" y="14" width="1" height="1" fill="rgb(232,232,232)" fill-opacity="0.9609375"/>
  <rect x="14" y="14" width="1" height="1" fill="rgb(239,239,239)" fill-opacity="0.9609375"/>
  <rect x="15" y="14" width="1" height="1" fill="rgb(201,201,201)" fill-opacity="0.9609375"/>
  <rect x="16" y="14" width="1" height="1" fill="rgb(11,11,11)" fill-opacity="0.890625"/>
  <rect x="17" y="14" width="1" height="1" fill="rgb(0,0,0)" fill-opacity="0.0625"/>
  <rect x="18" y="14" width="3" height="1" fill="rgb(255,255,255)" fill-opacity="0.0078125"/>
  <rect x="0" y="15" width="5" height="1" fill="rgb(255,255,255)" fill-opacity="0.0078125"/>
  <rect x="5" y="15" width="1" height="1" fill="rgb(0,0,0)" fill-opacity="0.2890625"/>
  <rect x="6" y="15" width="1" height="1" fill="rgb(40,40,40)" fill-opacity="0.921875"/>
  <rect x="7" y="15" width="1" height="1" fill="rgb(223,223,223)" fill-opacity="0.9609375"/>
  <rect x="8" y="15" width="1" height="1" fill="rgb(235,235,235)" fill-opacity="0.9609375"/>
  <rect x="9" y="15" width="1" height="1" fill="rgb(220,220,220)" fill-opacity="0.9609375"/>
  <rect x="10" y="15" width="1" height="1" fill="rgb(219,219,219)" fill-opacity="0.9609375"/>
  <rect x="11" y="15" width="1" height="1" fill="rgb(125,125,125)" fill-opacity="0.9609375"/>
  <rect x="12" y="15" width="1" height="1" fill="rgb(233,233,233)" fill-opacity="0.9609375"/>
  <rect x="13" y="15" width="1" height="1" fill="rgb(241,241,241)" fill-opacity="0.9609375"/>
  <rect x="14" y="15" width="1" height="1" fill="rgb(201,201,201)" fill-opacity="0.9609375"/>
  <rect x="15" y="15" width="1" height="1" fill="rgb(24,24,24)" fill-opacity="0.921875"/>
  <rect x="16" y="15" width="1" height="1" fill="rgb(0,0,0)" fill-opacity="0.2890625"/>
  <rect x="17" y="15" width="4" height="1" fill="rgb(255,255,255)" fill-opacity="0.0078125"/>
  <rect x="0" y="16" width="6" height="1" fill="rgb(255,255,255)" fill-opacity="0.0078125"/>
  <rect x="6" y="16" width="1" height="1" fill="rgb(0,0,0)" fill-opacity="0.28125"/>
  <rect x="7" y="16" width="1" height="1" fill="rgb(10,10,10)" fill-opacity="0.8984375"/>
  <rect x="8" y="16" width="1" height="1" fill="rgb(139,139,139)" fill-opacity="0.9453125"/>
  <rect x="9" y="16" width="1" height="1" fill="rgb(203,203,203)" fill-opacity="0.9609375"/>
  <rect x="10" y="16" width="1" height="1" fill="rgb(230,230,230)" fill-opacity="0.9609375"/>
  <rect x="11" y="16" width="1" height="1" fill="rgb(179,179,179)" fill-opacity="0.9609375"/>
  <rect x="12" y="16" width="1" height="1" fill="rgb(193,193,193)" fill-opacity="0.9609375"/>
  <rect x="13" y="16" width="1" height="1" fill="rgb(117,117,117)" fill-opacity="0.9453125"/>
  <rect x="14" y="16" width="1" height="1" fill="rgb(11,11,11)" fill-opacity="0.8984375"/>
  <rect x="15" y="16" width="1" height="1" fill="rgb(0,0,0)" fill-opacity="0.28125"/>
  <rect x="16" y="16" width="5" height="1" fill="rgb(255,255,255)" fill-opacity="0.0078125"/>
  <rect x="0" y="17" width="7" height="1" fill="rgb(255,255,255)" fill-opacity="0.0078125"/>
  <rect x="7" y="17" width="1" height="1" fill="rgb(0,0,0)" fill-opacity="0.0703125"/>
  <rect x="8" y="17" width="1" height="1" fill="rgb(8,8,8)" fill-opacity="0.515625"/>
  <rect x="9" y="17" width="1" height="1" fill="rgb(17,17,17)" fill-opacity="0.7734375"/>
  <rect x="10" y="17" width="2" height="1" fill="rgb(6,6,6)" fill-opacity="0.9296875"/>
  <rect x="12" y="17" width="1" height="1" fill="rgb(18,18,18)" fill-opacity="0.7734375"/>
  <rect x="13" y="17" width="1" height="1" fill="rgb(10,10,10)" fill-opacity="0.515625"/>
  <rect x="14" y="17" width="1" height="1" fill="rgb(0,0,0)" fill-opacity="0.0703125"/>
  <rect x="15" y="17" width="6" height="1" fill="rgb(255,255,255)" fill-opacity="0.0078125"/>
  <rect x="0" y="18" width="10" height="1" fill="rgb(255,255,255)" fill-opacity="0.0078125"/>
  <rect x="10" y="18" width="2" height="1" fill="rgb(0,0,0)" fill-opacity="0.0078125"/>
  <rect x="12" y="18" width="9" height="1" fill="rgb(255,255,255)" fill-opacity="0.0078125"/>
  <rect x="0" y="19" width="21" height="1" fill="rgb(255,255,255)" fill-opacity="0.0078125"/>
  <rect x="0" y="20" width="21" height="1" fill="rgb(255,255,255)" fill-opacity="0.0078125"/>
</svg>