<svg xmlns="http://www.w3.org/2000/svg" shape-rendering="crispEdges" width="21" height="21" viewBox="0 0 21 21">
  <rect x="0" y="0" width="1" height="21" fill="rgb(255,255,255)" fill-opacity="0.0078125"/>
  <rect x="1" y="0" width="1" height="21" fill="rgb(255,255,255)" fill-opacity="0.0078125"/>
  <rect x="2" y="0" width="1" height="21" fill="rgb(255,255,255)" fill-opacity="0.0078125"/>
  <rect x="3" y="0" width="1" height="6" fill="rgb(255,255,255)" fill-opacity="0.0078125"/>
  <rect x="3" y="6" width="1" height="1" fill="rgb(85,44,0)"/>
  <rect x="3" y="7" width="1" height="2" fill="rgb(255,152,42)"/>
  <rect x="3" y="9" width="1" height="2" fill="rgb(85,44,0)"/>
  <rect x="3" y="11" width="1" height="2" fill="rgb(255,152,42)"/>
  <rect x="3" y="13" width="1" height="2" fill="rgb(85,44,0)"/>
  <rect x="3" y="15" width="1" height="2" fill="rgb(255,152,42)"/>
  <rect x="3" y="17" width="1" height="2" fill="rgb(85,44,0)"/>
  <rect x="3" y="19" width="1" height="2" fill="rgb(255,255,255)" fill-opacity="0.0078125"/>
  <rect x="4" y="0" width="1" height="6" fill="rgb(255,255,255)" fill-opacity="0.0078125"/>
  <rect x="4" y="6" width="1" height="1" fill="rgb(85,44,0)"/>
  <rect x="4" y="7" width="1" height="11" fill="rgb(160,160,160)" fill-opacity="0.3515625"/>
  <rect x="4" y="18" width="1" height="1" fill="rgb(255,152,42)"/>
  <rect x="4" y="19" width="1" height="2" fill="rgb(255,255,255)" fill-opacity="0.0078125"/>
  <rect x="5" y="0" width="1" height="6" fill="rgb(255,255,255)" fill-opacity="0.0078125"/>
  <rect x="5" y="6" width="1" height="1" fill="rgb(255,152,42)"/>
  <rect x="5" y="7" width="1" height="1" fill="rgb(160,160,160)" fill-opacity="0.3515625"/>
  <rect x="5" y="8" width="1" height="6" fill="rgb(255,255,255)" fill-opacity="0.2578125"/>
  <rect x="5" y="14" width="1" height="1" fill="rgb(170,164,162)" fill-opacity="0.359375"/>
  <rect x="5" y="15" width="1" height="3" fill="rgb(255,255,255)" fill-opacity="0.2578125"/>
  <rect x="5" y="18" width="1" height="1" fill="rgb(255,152,42)"/>
  <rect x="5" y="19" width="1" height="2" fill="rgb(255,255,255)" fill-opacity="0.0078125"/>
  <rect x="6" y="0" width="1" height="6" fill="rgb(255,255,255)" fill-opacity="0.0078125"/>
  <rect x="6" y="6" width="1" height="1" fill="rgb(255,152,42)"/>
  <rect x="6" y="7" width="1" height="1" fill="rgb(160,160,160)" fill-opacity="0.3515625"/>
  <rect x="6" y="8" width="1" height="4" fill="rgb(255,255,255)" fill-opacity="0.2578125"/>
  <rect x="6" y="12" width="1" height="1" fill="rgb(177,171,165)" fill-opacity="0.3515625"/>
  <rect x="6" y="13" width="1" height="1" fill="rgb(74,56,40)" fill-opacity="0.8828125"/>
  <rect x="6" y="14" width="1" height="1" fill="rgb(90,54,29)"/>
  <rect x="6" y="15" width="1" height="1" fill="rgb(62,44,32)" fill-opacity="0.8203125"/>
  <rect x="6" y="16" width="1" height="2" fill="rgb(255,255,255)" fill-opacity="0.2578125"/>
  <rect x="6" y="18" width="1" height="1" fill="rgb(85,44,0)"/>
  <rect x="6" y="19" width="1" height="2" fill="rgb(255,255,255)" fill-opacity="0.0078125"/>
  <rect x="7" y="0" width="1" height="6" fill="rgb(255,255,255)" fill-opacity="0.0078125"/>
  <rect x="7" y="6" width="1" height="1" fill="rgb(85,44,0)"/>
  <rect x="7" y="7" width="1" height="1" fill="rgb(160,160,160)" fill-opacity="0.3515625"/>
  <rect x="7" y="8" width="1" height="3" fill="rgb(255,255,255)" fill-opacity="0.2578125"/>
  <rect x="7" y="11" width="1" height="1" fill="rgb(177,171,165)" fill-opacity="0.3515625"/>
  <rect x="7" y="12" width="1" height="1" fill="rgb(73,52,39)" fill-opacity="0.9296875"/>
  <rect x="7" y="13" width="1" height="1" fill="rgb(208,183,166)"/>
  <rect x="7" y="14" width="1" height="1" fill="rgb(181,127,91)"/>
  <rect x="7" y="15" width="1" height="1" fill="rgb(86,49,24)"/>
  <rect x="7" y="16" width="1" height="1" fill="rgb(183,180,174)" fill-opacity="0.3359375"/>
  <rect x="7" y="17" width="1" height="1" fill="rgb(255,255,255)" fill-opacity="0.2578125"/>
  <rect x="7" y="18" width="1" height="1" fill="rgb(85,44,0)"/>
  <rect x="7" y="19" width="1" height="2" fill="rgb(255,255,255)" fill-opacity="0.0078125"/>
  <rect x="8" y="0" width="1" height="6" fill="rgb(255,255,255)" fill-opacity="0.0078125"/>
  <rect x="8" y="6" width="1" height="1" fill="rgb(85,44,0)"/>
  <rect x="8" y="7" width="1" height="1" fill="rgb(160,160,160)" fill-opacity="0.3515625"/>
  <rect x="8" y="8" width="1" height="2" fill="rgb(255,255,255)" fill-opacity="0.2578125"/>
  <rect x="8" y="10" width="1" height="1" fill="rgb(177,171,165)" fill-opacity="0.3515625"/>
  <rect x="8" y="11" width="1" height="1" fill="rgb(73,52,39)" fill-opacity="0.9296875"/>
  <rect x="8" y="12" width="1" height="1" fill="rgb(208,183,166)"/>
  <rect x="8" y="13" width="1" height="1" fill="rgb(189,140,109)"/>
  <rect x="8" y="14" width="1" height="1" fill="rgb(141,80,39)"/>
  <rect x="8" y="15" width="1" height="1" fill="rgb(60,39,23)" fill-opacity="0.8984375"/>
  <rect x="8" y="16" width="1" height="1" fill="rgb(240,236,236)" fill-opacity="0.2734375"/>
  <rect x="8" y="17" width="1" height="1" fill="rgb(255,255,255)" fill-opacity="0.2578125"/>
  <rect x="8" y="18" width="1" height="1" fill="rgb(255,152,42)"/>
  <rect x="8" y="19" width="1" height="2" fill="rgb(255,255,255)" fill-opacity="0.0078125"/>
  <rect x="9" y="0" width="1" height="6" fill="rgb(255,255,255)" fill-opacity="0.0078125"/>
  <rect x="9" y="6" width="1" height="1" fill="rgb(255,152,42)"/>
  <rect x="9" y="7" width="1" height="1" fill="rgb(160,160,160)" fill-opacity="0.3515625"/>
  <rect x="9" y="8" width="1" height="2" fill="rgb(255,255,255)" fill-opacity="0.2578125"/>
  <rect x="9" y="10" width="1" height="1" fill="rgb(58,41,29)" fill-opacity="0.84375"/>
  <rect x="9" y="11" width="1" height="1" fill="rgb(205,178,161)"/>
  <rect x="9" y="12" width="1" height="1" fill="rgb(189,140,109)"/>
  <rect x="9" y="13" width="1" height="1" fill="rgb(141,80,39)"/>
  <rect x="9" y="14" width="1" height="1" fill="rgb(59,36,22)" fill-opacity="0.921875"/>
  <rect x="9" y="15" width="1" height="1" fill="rgb(177,171,165)" fill-opacity="0.3515625"/>
  <rect x="9" y="16" width="1" height="2" fill="rgb(255,255,255)" fill-opacity="0.2578125"/>
  <rect x="9" y="18" width="1" height="1" fill="rgb(255,152,42)"/>
  <rect x="9" y="19" width="1" height="2" fill="rgb(255,255,255)" fill-opacity="0.0078125"/>
  <rect x="10" y="0" width="1" height="5" fill="rgb(255,255,255)" fill-opacity="0.0078125"/>
  <rect x="10" y="5" width="1" height="1" fill="rgb(0,0,0)" fill-opacity="0.3671875"/>
  <rect x="10" y="6" width="1" height="1" fill="rgb(76,45,13)"/>
  <rect x="10" y="7" width="1" height="1" fill="rgb(7,7,7)" fill-opacity="0.890625"/>
  <rect x="10" y="8" width="1" height="1" fill="rgb(24,24,24)" fill-opacity="0.78125"/>
  <rect x="10" y="9" width="1" height="1" fill="rgb(72,72,72)" fill-opacity="0.546875"/>
  <rect x="10" y="10" width="1" height="1" fill="rgb(77,68,63)" fill-opacity="0.984375"/>
  <rect x="10" y="11" width="1" height="1" fill="rgb(168,105,64)"/>
  <rect x="10" y="12" width="1" height="1" fill="rgb(139,78,38)"/>
  <rect x="10" y="13" width="1" height="1" fill="rgb(59,36,22)" fill-opacity="0.921875"/>
  <rect x="10" y="14" width="1" height="1" fill="rgb(177,171,165)" fill-opacity="0.3515625"/>
  <rect x="10" y="15" width="1" height="3" fill="rgb(255,255,255)" fill-opacity="0.2578125"/>
  <rect x="10" y="18" width="1" height="1" fill="rgb(85,44,0)"/>
  <rect x="10" y="19" width="1" height="2" fill="rgb(255,255,255)" fill-opacity="0.0078125"/>
  <rect x="11" y="0" width="1" height="4" fill="rgb(255,255,255)" fill-opacity="0.0078125"/>
  <rect x="11" y="4" width="1" height="1" fill="rgb(0,0,0)" fill-opacity="0.640625"/>
  <rect x="11" y="5" width="1" height="1" fill="rgb(20,20,20)" fill-opacity="0.59375"/>
  <rect x="11" y="6" width="1" height="1" fill="rgb(154,154,154)" fill-opacity="0.328125"/>
  <rect x="11" y="7" width="1" height="1" fill="rgb(214,214,214)" fill-opacity="0.4453125"/>
  <rect x="11" y="8" width="1" height="1" fill="rgb(193,193,193)" fill-opacity="0.4375"/>
  <rect x="11" y="9" width="1" height="1" fill="rgb(60,60,60)" fill-opacity="0.7265625"/>
  <rect x="11" y="10" width="1" height="1" fill="rgb(179,179,179)"/>
  <rect x="11" y="11" width="1" height="1" fill="rgb(79,69,63)" fill-opacity="0.9921875"/>
  <rect x="11" y="12" width="1" height="1" fill="rgb(60,46,33)" fill-opacity="0.7890625"/>
  <rect x="11" y="13" width="1" height="1" fill="rgb(177,171,165)" fill-opacity="0.3515625"/>
  <rect x="11" y="14" width="1" height="4" fill="rgb(255,255,255)" fill-opacity="0.2578125"/>
  <rect x="11" y="18" width="1" height="1" fill="rgb(85,44,0)"/>
  <rect x="11" y="19" width="1" height="2" fill="rgb(255,255,255)" fill-opacity="0.0078125"/>
  <rect x="12" y="0" width="1" height="3" fill="rgb(255,255,255)" fill-opacity="0.0078125"/>
  <rect x="12" y="3" width="1" height="1" fill="rgb(0,0,0)" fill-opacity="0.375"/>
  <rect x="12" y="4" width="1" height="1" fill="rgb(19,19,19)" fill-opacity="0.6328125"/>
  <rect x="12" y="5" width="1" height="1" fill="rgb(244,244,245)" fill-opacity="0.84375"/>
  <rect x="12" y="6" width="1" height="1" fill="rgb(233,235,239)" fill-opacity="0.859375"/>
  <rect x="12" y="7" width="1" height="1" fill="rgb(87,104,129)" fill-opacity="0.359375"/>
  <rect x="12" y="8" width="1" height="1" fill="rgb(171,176,178)" fill-opacity="0.40625"/>
  <rect x="12" y="9" width="1" height="1" fill="rgb(244,244,244)" fill-opacity="0.65625"/>
  <rect x="12" y="10" width="1" height="1" fill="rgb(71,71,71)" fill-opacity="0.7421875"/>
  <rect x="12" y="11" width="1" height="1" fill="rgb(76,76,76)" fill-opacity="0.53125"/>
  <rect x="12" y="12" width="1" height="6" fill="rgb(255,255,255)" fill-opacity="0.2578125"/>
  <rect x="12" y="18" width="1" height="1" fill="rgb(255,152,42)"/>
  <rect x="12" y="19" width="1" height="2" fill="rgb(255,255,255)" fill-opacity="0.0078125"/>
  <rect x="13" y="0" width="1" height="3" fill="rgb(255,255,255)" fill-opacity="0.0078125"/>
  <rect x="13" y="3" width="1" height="1" fill="rgb(0,0,0)" fill-opacity="0.71875"/>
  <rect x="13" y="4" width="1" height="1" fill="rgb(171,171,171)" fill-opacity="0.3046875"/>
  <rect x="13" y="5" width="1" height="1" fill="rgb(235,236,239)" fill-opacity="0.8515625"/>
  <rect x="13" y="6" width="1" height="1" fill="rgb(233,235,239)" fill-opacity="0.8125"/>
  <rect x="13" y="7" width="1" height="1" fill="rgb(77,84,102)" fill-opacity="0.28125"/>
  <rect x="13" y="8" width="1" height="1" fill="rgb(129,102,102)" fill-opacity="0.2578125"/>
  <rect x="13" y="9" width="1" height="1" fill="rgb(224,212,212)" fill-opacity="0.421875"/>
  <rect x="13" y="10" width="1" height="1" fill="rgb(230,230,230)" fill-opacity="0.6328125"/>
  <rect x="13" y="11" width="1" height="1" fill="rgb(24,24,24)" fill-opacity="0.78125"/>
  <rect x="13" y="12" width="1" height="6" fill="rgb(255,255,255)" fill-opacity="0.2578125"/>
  <rect x="13" y="18" width="1" height="1" fill="rgb(255,152,42)"/>
  <rect x="13" y="19" width="1" height="2" fill="rgb(255,255,255)" fill-opacity="0.0078125"/>
  <rect x="14" y="0" width="1" height="3" fill="rgb(255,255,255)" fill-opacity="0.0078125"/>
  <rect x="14" y="3" width="1" height="1" fill="rgb(0,0,0)" fill-opacity="0.828125"/>
  <rect x="14" y="4" width="1" height="1" fill="rgb(219,219,219)" fill-opacity="0.453125"/>
  <rect x="14" y="5" width="1" height="1" fill="rgb(80,89,104)" fill-opacity="0.328125"/>
  <rect x="14" y="6" width="1" height="1" fill="rgb(63,71,86)" fill-opacity="0.2578125"/>
  <rect x="14" y="7" width="1" height="1" fill="rgb(185,164,164)" fill-opacity="0.390625"/>
  <rect x="14" y="8" width="1" height="1" fill="rgb(222,182,177)" fill-opacity="0.4296875"/>
  <rect x="14" y="9" width="1" height="1" fill="rgb(236,185,180)" fill-opacity="0.375"/>
  <rect x="14" y="10" width="1" height="1" fill="rgb(255,255,255)" fill-opacity="0.90625"/>
  <rect x="14" y="11" width="1" height="1" fill="rgb(8,8,8)" fill-opacity="0.875"/>
  <rect x="14" y="12" width="1" height="6" fill="rgb(255,255,255)" fill-opacity="0.2578125"/>
  <rect x="14" y="18" width="1" height="1" fill="rgb(85,44,0)"/>
  <rect x="14" y="19" width="1" height="2" fill="rgb(255,255,255)" fill-opacity="0.0078125"/>
  <rect x="15" y="0" width="1" height="3" fill="rgb(255,255,255)" fill-opacity="0.0078125"/>
  <rect x="15" y="3" width="1" height="1" fill="rgb(0,0,0)" fill-opacity="0.7265625"/>
  <rect x="15" y="4" width="1" height="1" fill="rgb(205,205,205)" fill-opacity="0.40625"/>
  <rect x="15" y="5" width="1" height="1" fill="rgb(172,174,174)" fill-opacity="0.3984375"/>
  <rect x="15" y="6" width="1" height="1" fill="rgb(118,91,91)" fill-opacity="0.2265625"/>
  <rect x="15" y="7" width="1" height="1" fill="rgb(224,189,184)" fill-opacity="0.4296875"/>
  <rect x="15" y="8" width="1" height="1" fill="rgb(246,203,198)" fill-opacity="0.5625"/>
  <rect x="15" y="9" width="1" height="1" fill="rgb(255,218,215)" fill-opacity="0.625"/>
  <rect x="15" y="10" width="1" height="1" fill="rgb(189,184,162)"/>
  <rect x="15" y="11" width="1" height="1" fill="rgb(25,20,0)"/>
  <rect x="15" y="12" width="1" height="2" fill="rgb(255,152,42)"/>
  <rect x="15" y="14" width="1" height="2" fill="rgb(85,44,0)"/>
  <rect x="15" y="16" width="1" height="2" fill="rgb(255,152,42)"/>
  <rect x="15" y="18" width="1" height="1" fill="rgb(85,44,0)"/>
  <rect x="15" y="19" width="1" height="2" fill="rgb(255,255,255)" fill-opacity="0.0078125"/>
  <rect x="16" y="0" width="1" height="3" fill="rgb(255,255,255)" fill-opacity="0.0078125"/>
  <rect x="16" y="3" width="1" height="1" fill="rgb(0,0,0)" fill-opacity="0.375"/>
  <rect x="16" y="4" width="1" height="1" fill="rgb(50,50,50)" fill-opacity="0.6640625"/>
  <rect x="16" y="5" width="1" height="1" fill="rgb(246,246,246)" fill-opacity="0.6640625"/>
  <rect x="16" y="6" width="1" height="1" fill="rgb(222,214,214)" fill-opacity="0.421875"/>
  <rect x="16" y="7" width="1" height="1" fill="rgb(236,197,191)" fill-opacity="0.3671875"/>
  <rect x="16" y="8" width="1" height="1" fill="rgb(255,221,217)" fill-opacity="0.625"/>
  <rect x="16" y="9" width="1" height="1" fill="rgb(255,250,248)" fill-opacity="0.921875"/>
  <rect x="16" y="10" width="1" height="1" fill="rgb(81,81,81)" fill-opacity="0.6875"/>
  <rect x="16" y="11" width="1" height="1" fill="rgb(0,0,0)" fill-opacity="0.3671875"/>
  <rect x="16" y="12" width="1" height="9" fill="rgb(255,255,255)" fill-opacity="0.0078125"/>
  <rect x="17" y="0" width="1" height="4" fill="rgb(255,255,255)" fill-opacity="0.0078125"/>
  <rect x="17" y="4" width="1" height="1" fill="rgb(0,0,0)" fill-opacity="0.640625"/>
  <rect x="17" y="5" width="1" height="1" fill="rgb(68,68,68)" fill-opacity="0.65625"/>
  <rect x="17" y="6" width="1" height="1" fill="rgb(237,237,237)" fill-opacity="0.6171875"/>
  <rect x="17" y="7" width="1" height="1" fill="rgb(255,255,255)" fill-opacity="0.921875"/>
  <rect x="17" y="8" width="1" height="1" fill="rgb(242,242,242)" fill-opacity="0.671875"/>
  <rect x="17" y="9" width="1" height="1" fill="rgb(80,80,80)" fill-opacity="0.6953125"/>
  <rect x="17" y="10" width="1" height="1" fill="rgb(0,0,0)" fill-opacity="0.640625"/>
  <rect x="17" y="11" width="1" height="10" fill="rgb(255,255,255)" fill-opacity="0.0078125"/>
  <rect x="18" y="0" width="1" height="5" fill="rgb(255,255,255)" fill-opacity="0.0078125"/>
  <rect x="18" y="5" width="1" height="1" fill="rgb(0,0,0)" fill-opacity="0.375"/>
  <rect x="18" y="6" width="1" height="1" fill="rgb(0,0,0)" fill-opacity="0.7265625"/>
  <rect x="18" y="7" width="1" height="1" fill="rgb(0,0,0)" fill-opacity="0.828125"/>
  <rect x="18" y="8" width="1" height="1" fill="rgb(0,0,0)" fill-opacity="0.7265625"/>
  <rect x="18" y="9" width="1" height="1" fill="rgb(0,0,0)" fill-opacity="0.375"/>
  <rect x="18" y="10" width="1" height="11" fill="rgb(255,255,255)" fill-opacity="0.0078125"/>
  <rect x="19" y="0" width="1" height="21" fill="rgb(255,255,255)" fill-opacity="0.0078125"/>
  <rect x="20" y="0" width="1" height="21" fill="rgb(255,255,255)" fill-opacity="0.0078125"/>
</svg>