<svg xmlns="http://www.w3.org/2000/svg" shape-rendering="crispEdges" width="21" height="21" viewBox="0 0 21 21">
  <rect x="0" y="0" width="1" height="21" fill="rgb(255,255,255)" fill-opacity="0.0078125"/>
  <rect x="1" y="0" width="1" height="21" fill="rgb(255,255,255)" fill-opacity="0.0078125"/>
  <rect x="2" y="0" width="1" height="21" fill="rgb(255,255,255)" fill-opacity="0.0078125"/>
  <rect x="3" y="0" width="1" height="7" fill="rgb(255,255,255)" fill-opacity="0.0078125"/>
  <rect x="3" y="7" width="1" height="1" fill="rgb(128,0,0)" fill-opacity="0.078125"/>
  <rect x="3" y="8" width="1" height="1" fill="rgb(128,0,0)" fill-opacity="0.265625"/>
  <rect x="3" y="9" width="1" height="1" fill="rgb(134,8,8)" fill-opacity="0.375"/>
  <rect x="3" y="10" width="1" height="2" fill="rgb(131,4,4)" fill-opacity="0.46875"/>
  <rect x="3" y="12" width="1" height="1" fill="rgb(134,8,8)" fill-opacity="0.375"/>
  <rect x="3" y="13" width="1" height="1" fill="rgb(128,0,0)" fill-opacity="0.265625"/>
  <rect x="3" y="14" width="1" height="1" fill="rgb(128,0,0)" fill-opacity="0.078125"/>
  <rect x="3" y="15" width="1" height="6" fill="rgb(255,255,255)" fill-opacity="0.0078125"/>
  <rect x="4" y="0" width="1" height="5" fill="rgb(255,255,255)" fill-opacity="0.0078125"/>
  <rect x="4" y="5" width="1" height="1" fill="rgb(0,0,0)" fill-opacity="0.0078125"/>
  <rect x="4" y="6" width="1" height="1" fill="rgb(130,4,4)" fill-opacity="0.2265625"/>
  <rect x="4" y="7" width="1" height="1" fill="rgb(145,36,36)" fill-opacity="0.4765625"/>
  <rect x="4" y="8" width="1" height="1" fill="rgb(238,215,215)" fill-opacity="0.4765625"/>
  <rect x="4" y="9" width="1" height="1" fill="rgb(251,247,247)" fill-opacity="0.4921875"/>
  <rect x="4" y="10" width="1" height="2" fill="rgb(255,255,255)" fill-opacity="0.5"/>
  <rect x="4" y="12" width="1" height="1" fill="rgb(251,247,247)" fill-opacity="0.4921875"/>
  <rect x="4" y="13" width="1" height="1" fill="rgb(238,217,217)" fill-opacity="0.4765625"/>
  <rect x="4" y="14" width="1" height="1" fill="rgb(145,36,36)" fill-opacity="0.4765625"/>
  <rect x="4" y="15" width="1" height="1" fill="rgb(130,4,4)" fill-opacity="0.2265625"/>
  <rect x="4" y="16" width="1" height="1" fill="rgb(0,0,0)" fill-opacity="0.0078125"/>
  <rect x="4" y="17" width="1" height="4" fill="rgb(255,255,255)" fill-opacity="0.0078125"/>
  <rect x="5" y="0" width="1" height="4" fill="rgb(255,255,255)" fill-opacity="0.0078125"/>
  <rect x="5" y="4" width="1" height="1" fill="rgb(0,0,0)" fill-opacity="0.0078125"/>
  <rect x="5" y="5" width="1" height="1" fill="rgb(130,5,5)" fill-opacity="0.3828125"/>
  <rect x="5" y="6" width="1" height="1" fill="rgb(207,153,153)" fill-opacity="0.46875"/>
  <rect x="5" y="7" width="1" height="1" fill="rgb(255,253,253)" fill-opacity="0.5"/>
  <rect x="5" y="8" width="1" height="1" fill="rgb(242,222,222)" fill-opacity="0.484375"/>
  <rect x="5" y="9" width="1" height="1" fill="rgb(217,151,151)" fill-opacity="0.453125"/>
  <rect x="5" y="10" width="1" height="1" fill="rgb(195,85,85)" fill-opacity="0.4375"/>
  <rect x="5" y="11" width="1" height="1" fill="rgb(199,94,94)" fill-opacity="0.4296875"/>
  <rect x="5" y="12" width="1" height="1" fill="rgb(228,166,166)" fill-opacity="0.4453125"/>
  <rect x="5" y="13" width="1" height="1" fill="rgb(247,230,230)" fill-opacity="0.4765625"/>
  <rect x="5" y="14" width="1" height="1" fill="rgb(255,255,255)" fill-opacity="0.5"/>
  <rect x="5" y="15" width="1" height="1" fill="rgb(203,147,147)" fill-opacity="0.46875"/>
  <rect x="5" y="16" width="1" height="1" fill="rgb(130,5,5)" fill-opacity="0.3828125"/>
  <rect x="5" y="17" width="1" height="1" fill="rgb(0,0,0)" fill-opacity="0.0078125"/>
  <rect x="5" y="18" width="1" height="3" fill="rgb(255,255,255)" fill-opacity="0.0078125"/>
  <rect x="6" y="0" width="1" height="4" fill="rgb(255,255,255)" fill-opacity="0.0078125"/>
  <rect x="6" y="4" width="1" height="1" fill="rgb(132,4,4)" fill-opacity="0.234375"/>
  <rect x="6" y="5" width="1" height="1" fill="rgb(204,148,148)" fill-opacity="0.46875"/>
  <rect x="6" y="6" width="1" height="1" fill="rgb(253,253,253)" fill-opacity="0.5"/>
  <rect x="6" y="7" width="1" height="1" fill="rgb(206,125,125)" fill-opacity="0.453125"/>
  <rect x="6" y="8" width="1" height="1" fill="rgb(181,62,62)" fill-opacity="0.421875"/>
  <rect x="6" y="9" width="1" height="1" fill="rgb(167,107,107)" fill-opacity="0.421875"/>
  <rect x="6" y="10" width="1" height="1" fill="rgb(214,164,164)" fill-opacity="0.34375"/>
  <rect x="6" y="11" width="1" height="1" fill="rgb(242,187,187)" fill-opacity="0.3125"/>
  <rect x="6" y="12" width="1" height="1" fill="rgb(231,155,155)" fill-opacity="0.3359375"/>
  <rect x="6" y="13" width="1" height="1" fill="rgb(209,102,102)" fill-opacity="0.375"/>
  <rect x="6" y="14" width="1" height="1" fill="rgb(231,163,163)" fill-opacity="0.4140625"/>
  <rect x="6" y="15" width="1" height="1" fill="rgb(255,251,251)" fill-opacity="0.4921875"/>
  <rect x="6" y="16" width="1" height="1" fill="rgb(192,128,128)" fill-opacity="0.46875"/>
  <rect x="6" y="17" width="1" height="1" fill="rgb(132,4,4)" fill-opacity="0.234375"/>
  <rect x="6" y="18" width="1" height="3" fill="rgb(255,255,255)" fill-opacity="0.0078125"/>
  <rect x="7" y="0" width="1" height="3" fill="rgb(255,255,255)" fill-opacity="0.0078125"/>
  <rect x="7" y="3" width="1" height="1" fill="rgb(134,0,0)" fill-opacity="0.078125"/>
  <rect x="7" y="4" width="1" height="1" fill="rgb(150,42,42)" fill-opacity="0.4765625"/>
  <rect x="7" y="5" width="1" height="1" fill="rgb(255,253,253)" fill-opacity="0.5"/>
  <rect x="7" y="6" width="1" height="1" fill="rgb(206,126,126)" fill-opacity="0.453125"/>
  <rect x="7" y="7" width="1" height="1" fill="rgb(118,65,65)" fill-opacity="0.546875"/>
  <rect x="7" y="8" width="1" height="1" fill="rgb(44,43,43)" fill-opacity="0.9375"/>
  <rect x="7" y="9" width="1" height="1" fill="rgb(61,60,60)" fill-opacity="0.9765625"/>
  <rect x="7" y="10" width="1" height="1" fill="rgb(39,39,39)" fill-opacity="0.9921875"/>
  <rect x="7" y="11" width="1" height="1" fill="rgb(50,48,48)" fill-opacity="0.8984375"/>
  <rect x="7" y="12" width="1" height="1" fill="rgb(113,96,96)" fill-opacity="0.5234375"/>
  <rect x="7" y="13" width="1" height="1" fill="rgb(252,208,208)" fill-opacity="0.3046875"/>
  <rect x="7" y="14" width="1" height="1" fill="rgb(228,145,145)" fill-opacity="0.34375"/>
  <rect x="7" y="15" width="1" height="1" fill="rgb(235,169,169)" fill-opacity="0.3984375"/>
  <rect x="7" y="16" width="1" height="1" fill="rgb(253,247,247)" fill-opacity="0.484375"/>
  <rect x="7" y="17" width="1" height="1" fill="rgb(143,30,30)" fill-opacity="0.4765625"/>
  <rect x="7" y="18" width="1" height="1" fill="rgb(134,0,0)" fill-opacity="0.078125"/>
  <rect x="7" y="19" width="1" height="2" fill="rgb(255,255,255)" fill-opacity="0.0078125"/>
  <rect x="8" y="0" width="1" height="3" fill="rgb(255,255,255)" fill-opacity="0.0078125"/>
  <rect x="8" y="3" width="1" height="1" fill="rgb(128,0,0)" fill-opacity="0.265625"/>
  <rect x="8" y="4" width="1" height="1" fill="rgb(238,217,217)" fill-opacity="0.4765625"/>
  <rect x="8" y="5" width="1" height="1" fill="rgb(242,219,219)" fill-opacity="0.4765625"/>
  <rect x="8" y="6" width="1" height="1" fill="rgb(179,62,62)" fill-opacity="0.421875"/>
  <rect x="8" y="7" width="1" height="1" fill="rgb(44,43,43)" fill-opacity="0.9375"/>
  <rect x="8" y="8" width="1" height="1" fill="rgb(214,214,214)"/>
  <rect x="8" y="9" width="1" height="2" fill="rgb(255,255,255)"/>
  <rect x="8" y="11" width="1" height="1" fill="rgb(215,215,215)"/>
  <rect x="8" y="12" width="1" height="1" fill="rgb(101,100,100)" fill-opacity="0.9765625"/>
  <rect x="8" y="13" width="1" height="1" fill="rgb(50,48,48)" fill-opacity="0.90625"/>
  <rect x="8" y="14" width="1" height="1" fill="rgb(173,145,145)" fill-opacity="0.3984375"/>
  <rect x="8" y="15" width="1" height="1" fill="rgb(229,138,138)" fill-opacity="0.34375"/>
  <rect x="8" y="16" width="1" height="1" fill="rgb(250,225,225)" fill-opacity="0.4375"/>
  <rect x="8" y="17" width="1" height="1" fill="rgb(220,177,177)" fill-opacity="0.453125"/>
  <rect x="8" y="18" width="1" height="1" fill="rgb(128,0,0)" fill-opacity="0.265625"/>
  <rect x="8" y="19" width="1" height="2" fill="rgb(255,255,255)" fill-opacity="0.0078125"/>
  <rect x="9" y="0" width="1" height="3" fill="rgb(255,255,255)" fill-opacity="0.0078125"/>
  <rect x="9" y="3" width="1" height="1" fill="rgb(134,8,8)" fill-opacity="0.375"/>
  <rect x="9" y="4" width="1" height="1" fill="rgb(251,247,247)" fill-opacity="0.4921875"/>
  <rect x="9" y="5" width="1" height="1" fill="rgb(215,143,143)" fill-opacity="0.453125"/>
  <rect x="9" y="6" width="1" height="1" fill="rgb(167,105,105)" fill-opacity="0.421875"/>
  <rect x="9" y="7" width="1" height="1" fill="rgb(61,60,60)" fill-opacity="0.9765625"/>
  <rect x="9" y="8" width="1" height="5" fill="rgb(255,255,255)"/>
  <rect x="9" y="13" width="1" height="1" fill="rgb(197,197,197)"/>
  <rect x="9" y="14" width="1" height="1" fill="rgb(48,47,47)" fill-opacity="0.96875"/>
  <rect x="9" y="15" width="1" height="1" fill="rgb(129,100,100)" fill-opacity="0.4921875"/>
  <rect x="9" y="16" width="1" height="1" fill="rgb(244,194,194)" fill-opacity="0.3828125"/>
  <rect x="9" y="17" width="1" height="1" fill="rgb(237,213,213)" fill-opacity="0.453125"/>
  <rect x="9" y="18" width="1" height="1" fill="rgb(134,8,8)" fill-opacity="0.375"/>
  <rect x="9" y="19" width="1" height="2" fill="rgb(255,255,255)" fill-opacity="0.0078125"/>
  <rect x="10" y="0" width="1" height="3" fill="rgb(255,255,255)" fill-opacity="0.0078125"/>
  <rect x="10" y="3" width="1" height="1" fill="rgb(131,4,4)" fill-opacity="0.46875"/>
  <rect x="10" y="4" width="1" height="1" fill="rgb(255,255,255)" fill-opacity="0.5"/>
  <rect x="10" y="5" width="1" height="1" fill="rgb(191,80,80)" fill-opacity="0.4375"/>
  <rect x="10" y="6" width="1" height="1" fill="rgb(214,164,164)" fill-opacity="0.34375"/>
  <rect x="10" y="7" width="1" height="1" fill="rgb(39,39,39)" fill-opacity="0.9921875"/>
  <rect x="10" y="8" width="1" height="6" fill="rgb(255,255,255)"/>
  <rect x="10" y="14" width="1" height="1" fill="rgb(215,215,215)"/>
  <rect x="10" y="15" width="1" height="1" fill="rgb(53,53,53)" fill-opacity="0.9765625"/>
  <rect x="10" y="16" width="1" height="1" fill="rgb(133,98,98)" fill-opacity="0.515625"/>
  <rect x="10" y="17" width="1" height="1" fill="rgb(248,235,235)" fill-opacity="0.453125"/>
  <rect x="10" y="18" width="1" height="1" fill="rgb(131,4,4)" fill-opacity="0.46875"/>
  <rect x="10" y="19" width="1" height="2" fill="rgb(255,255,255)" fill-opacity="0.0078125"/>
  <rect x="11" y="0" width="1" height="3" fill="rgb(255,255,255)" fill-opacity="0.0078125"/>
  <rect x="11" y="3" width="1" height="1" fill="rgb(131,4,4)" fill-opacity="0.46875"/>
  <rect x="11" y="4" width="1" height="1" fill="rgb(255,255,255)" fill-opacity="0.5"/>
  <rect x="11" y="5" width="1" height="1" fill="rgb(195,88,88)" fill-opacity="0.4375"/>
  <rect x="11" y="6" width="1" height="1" fill="rgb(242,184,184)" fill-opacity="0.3125"/>
  <rect x="11" y="7" width="1" height="1" fill="rgb(47,46,46)" fill-opacity="0.9140625"/>
  <rect x="11" y="8" width="1" height="1" fill="rgb(218,218,218)"/>
  <rect x="11" y="9" width="1" height="3" fill="rgb(255,255,255)"/>
  <rect x="11" y="12" width="1" height="1" fill="rgb(254,254,254)"/>
  <rect x="11" y="13" width="1" height="1" fill="rgb(240,240,240)"/>
  <rect x="11" y="14" width="1" height="1" fill="rgb(231,231,231)"/>
  <rect x="11" y="15" width="1" height="1" fill="rgb(197,197,197)"/>
  <rect x="11" y="16" width="1" height="1" fill="rgb(44,43,43)" fill-opacity="0.96875"/>
  <rect x="11" y="17" width="1" height="1" fill="rgb(188,177,177)" fill-opacity="0.515625"/>
  <rect x="11" y="18" width="1" height="1" fill="rgb(131,4,4)" fill-opacity="0.46875"/>
  <rect x="11" y="19" width="1" height="2" fill="rgb(255,255,255)" fill-opacity="0.0078125"/>
  <rect x="12" y="0" width="1" height="3" fill="rgb(255,255,255)" fill-opacity="0.0078125"/>
  <rect x="12" y="3" width="1" height="1" fill="rgb(134,8,8)" fill-opacity="0.375"/>
  <rect x="12" y="4" width="1" height="1" fill="rgb(251,247,247)" fill-opacity="0.4921875"/>
  <rect x="12" y="5" width="1" height="1" fill="rgb(225,161,161)" fill-opacity="0.4375"/>
  <rect x="12" y="6" width="1" height="1" fill="rgb(228,150,150)" fill-opacity="0.3359375"/>
  <rect x="12" y="7" width="1" height="1" fill="rgb(98,84,84)" fill-opacity="0.578125"/>
  <rect x="12" y="8" width="1" height="1" fill="rgb(119,119,119)" fill-opacity="0.96875"/>
  <rect x="12" y="9" width="1" height="2" fill="rgb(255,255,255)"/>
  <rect x="12" y="11" width="1" height="1" fill="rgb(254,254,254)"/>
  <rect x="12" y="12" width="1" height="1" fill="rgb(239,239,239)"/>
  <rect x="12" y="13" width="1" height="1" fill="rgb(225,225,225)"/>
  <rect x="12" y="14" width="1" height="1" fill="rgb(209,209,209)"/>
  <rect x="12" y="15" width="1" height="1" fill="rgb(207,207,207)"/>
  <rect x="12" y="16" width="1" height="1" fill="rgb(158,158,158)"/>
  <rect x="12" y="17" width="1" height="1" fill="rgb(50,48,48)" fill-opacity="0.921875"/>
  <rect x="12" y="18" width="1" height="1" fill="rgb(133,8,8)" fill-opacity="0.3828125"/>
  <rect x="12" y="19" width="1" height="2" fill="rgb(255,255,255)" fill-opacity="0.0078125"/>
  <rect x="13" y="0" width="1" height="3" fill="rgb(255,255,255)" fill-opacity="0.0078125"/>
  <rect x="13" y="3" width="1" height="1" fill="rgb(129,0,0)" fill-opacity="0.2578125"/>
  <rect x="13" y="4" width="1" height="1" fill="rgb(238,217,217)" fill-opacity="0.4765625"/>
  <rect x="13" y="5" width="1" height="1" fill="rgb(247,227,227)" fill-opacity="0.4765625"/>
  <rect x="13" y="6" width="1" height="1" fill="rgb(207,98,98)" fill-opacity="0.3828125"/>
  <rect x="13" y="7" width="1" height="1" fill="rgb(233,192,192)" fill-opacity="0.3203125"/>
  <rect x="13" y="8" width="1" height="1" fill="rgb(44,43,43)" fill-opacity="0.9375"/>
  <rect x="13" y="9" width="1" height="1" fill="rgb(208,208,208)"/>
  <rect x="13" y="10" width="1" height="1" fill="rgb(254,254,254)"/>
  <rect x="13" y="11" width="1" height="1" fill="rgb(239,239,239)"/>
  <rect x="13" y="12" width="1" height="1" fill="rgb(224,224,224)"/>
  <rect x="13" y="13" width="1" height="1" fill="rgb(209,209,209)"/>
  <rect x="13" y="14" width="1" height="1" fill="rgb(194,194,194)"/>
  <rect x="13" y="15" width="1" height="1" fill="rgb(180,180,180)"/>
  <rect x="13" y="16" width="1" height="1" fill="rgb(187,187,187)"/>
  <rect x="13" y="17" width="1" height="1" fill="rgb(75,74,74)" fill-opacity="0.984375"/>
  <rect x="13" y="18" width="1" height="1" fill="rgb(61,16,16)" fill-opacity="0.5"/>
  <rect x="13" y="19" width="1" height="2" fill="rgb(255,255,255)" fill-opacity="0.0078125"/>
  <rect x="14" y="0" width="1" height="3" fill="rgb(255,255,255)" fill-opacity="0.0078125"/>
  <rect x="14" y="3" width="1" height="1" fill="rgb(135,0,0)" fill-opacity="0.0703125"/>
  <rect x="14" y="4" width="1" height="1" fill="rgb(150,40,40)" fill-opacity="0.4765625"/>
  <rect x="14" y="5" width="1" height="1" fill="rgb(255,253,253)" fill-opacity="0.5"/>
  <rect x="14" y="6" width="1" height="1" fill="rgb(229,161,161)" fill-opacity="0.421875"/>
  <rect x="14" y="7" width="1" height="1" fill="rgb(226,141,141)" fill-opacity="0.34375"/>
  <rect x="14" y="8" width="1" height="1" fill="rgb(159,132,132)" fill-opacity="0.421875"/>
  <rect x="14" y="9" width="1" height="1" fill="rgb(47,47,47)" fill-opacity="0.96875"/>
  <rect x="14" y="10" width="1" height="1" fill="rgb(223,223,223)"/>
  <rect x="14" y="11" width="1" height="1" fill="rgb(230,230,230)"/>
  <rect x="14" y="12" width="1" height="1" fill="rgb(209,209,209)"/>
  <rect x="14" y="13" width="1" height="1" fill="rgb(194,194,194)"/>
  <rect x="14" y="14" width="1" height="1" fill="rgb(179,179,179)"/>
  <rect x="14" y="15" width="1" height="1" fill="rgb(165,165,165)"/>
  <rect x="14" y="16" width="1" height="1" fill="rgb(157,157,157)"/>
  <rect x="14" y="17" width="1" height="1" fill="rgb(136,136,136)"/>
  <rect x="14" y="18" width="1" height="1" fill="rgb(39,38,38)" fill-opacity="0.8671875"/>
  <rect x="14" y="19" width="1" height="2" fill="rgb(255,255,255)" fill-opacity="0.0078125"/>
  <rect x="15" y="0" width="1" height="4" fill="rgb(255,255,255)" fill-opacity="0.0078125"/>
  <rect x="15" y="4" width="1" height="1" fill="rgb(128,0,0)" fill-opacity="0.2265625"/>
  <rect x="15" y="5" width="1" height="1" fill="rgb(195,133,133)" fill-opacity="0.46875"/>
  <rect x="15" y="6" width="1" height="1" fill="rgb(253,249,249)" fill-opacity="0.4921875"/>
  <rect x="15" y="7" width="1" height="1" fill="rgb(235,170,170)" fill-opacity="0.40625"/>
  <rect x="15" y="8" width="1" height="1" fill="rgb(226,132,132)" fill-opacity="0.3515625"/>
  <rect x="15" y="9" width="1" height="1" fill="rgb(114,88,88)" fill-opacity="0.5390625"/>
  <rect x="15" y="10" width="1" height="1" fill="rgb(57,56,56)" fill-opacity="0.9765625"/>
  <rect x="15" y="11" width="1" height="1" fill="rgb(204,204,204)"/>
  <rect x="15" y="12" width="1" height="1" fill="rgb(206,206,206)"/>
  <rect x="15" y="13" width="1" height="1" fill="rgb(179,179,179)"/>
  <rect x="15" y="14" width="1" height="1" fill="rgb(164,164,164)"/>
  <rect x="15" y="15" width="1" height="1" fill="rgb(149,149,149)"/>
  <rect x="15" y="16" width="1" height="1" fill="rgb(134,134,134)"/>
  <rect x="15" y="17" width="1" height="1" fill="rgb(147,147,147)"/>
  <rect x="15" y="18" width="1" height="1" fill="rgb(28,28,28)" fill-opacity="0.9921875"/>
  <rect x="15" y="19" width="1" height="1" fill="rgb(23,23,23)" fill-opacity="0.046875"/>
  <rect x="15" y="20" width="1" height="1" fill="rgb(255,255,255)" fill-opacity="0.0078125"/>
  <rect x="16" y="0" width="1" height="5" fill="rgb(255,255,255)" fill-opacity="0.0078125"/>
  <rect x="16" y="5" width="1" height="1" fill="rgb(133,6,6)" fill-opacity="0.3671875"/>
  <rect x="16" y="6" width="1" height="1" fill="rgb(192,126,126)" fill-opacity="0.4609375"/>
  <rect x="16" y="7" width="1" height="1" fill="rgb(251,247,247)" fill-opacity="0.4765625"/>
  <rect x="16" y="8" width="1" height="1" fill="rgb(250,225,225)" fill-opacity="0.4375"/>
  <rect x="16" y="9" width="1" height="1" fill="rgb(242,193,193)" fill-opacity="0.390625"/>
  <rect x="16" y="10" width="1" height="1" fill="rgb(115,84,84)" fill-opacity="0.5625"/>
  <rect x="16" y="11" width="1" height="1" fill="rgb(43,42,42)" fill-opacity="0.9765625"/>
  <rect x="16" y="12" width="1" height="1" fill="rgb(164,164,164)"/>
  <rect x="16" y="13" width="1" height="1" fill="rgb(186,186,186)"/>
  <rect x="16" y="14" width="1" height="1" fill="rgb(157,157,157)"/>
  <rect x="16" y="15" width="1" height="1" fill="rgb(134,134,134)"/>
  <rect x="16" y="16" width="1" height="1" fill="rgb(119,119,119)"/>
  <rect x="16" y="17" width="1" height="1" fill="rgb(129,129,129)"/>
  <rect x="16" y="18" width="1" height="1" fill="rgb(37,37,37)" fill-opacity="0.96875"/>
  <rect x="16" y="19" width="1" height="1" fill="rgb(25,25,25)" fill-opacity="0.125"/>
  <rect x="16" y="20" width="1" height="1" fill="rgb(255,255,255)" fill-opacity="0.0078125"/>
  <rect x="17" y="0" width="1" height="6" fill="rgb(255,255,255)" fill-opacity="0.0078125"/>
  <rect x="17" y="6" width="1" height="1" fill="rgb(130,0,0)" fill-opacity="0.21875"/>
  <rect x="17" y="7" width="1" height="1" fill="rgb(140,23,23)" fill-opacity="0.4765625"/>
  <rect x="17" y="8" width="1" height="1" fill="rgb(217,170,170)" fill-opacity="0.453125"/>
  <rect x="17" y="9" width="1" height="1" fill="rgb(237,210,210)" fill-opacity="0.4453125"/>
  <rect x="17" y="10" width="1" height="1" fill="rgb(248,232,232)" fill-opacity="0.4453125"/>
  <rect x="17" y="11" width="1" height="1" fill="rgb(176,165,165)" fill-opacity="0.5234375"/>
  <rect x="17" y="12" width="1" height="1" fill="rgb(46,44,44)" fill-opacity="0.9375"/>
  <rect x="17" y="13" width="1" height="1" fill="rgb(81,80,80)" fill-opacity="0.9765625"/>
  <rect x="17" y="14" width="1" height="1" fill="rgb(136,136,136)"/>
  <rect x="17" y="15" width="1" height="1" fill="rgb(147,147,147)"/>
  <rect x="17" y="16" width="1" height="1" fill="rgb(128,128,128)"/>
  <rect x="17" y="17" width="1" height="1" fill="rgb(98,98,98)"/>
  <rect x="17" y="18" width="1" height="1" fill="rgb(36,36,36)" fill-opacity="0.9140625"/>
  <rect x="17" y="19" width="1" height="1" fill="rgb(0,0,0)" fill-opacity="0.015625"/>
  <rect x="17" y="20" width="1" height="1" fill="rgb(255,255,255)" fill-opacity="0.0078125"/>
  <rect x="18" y="0" width="1" height="7" fill="rgb(255,255,255)" fill-opacity="0.0078125"/>
  <rect x="18" y="7" width="1" height="1" fill="rgb(135,0,0)" fill-opacity="0.0703125"/>
  <rect x="18" y="8" width="1" height="1" fill="rgb(128,0,0)" fill-opacity="0.25"/>
  <rect x="18" y="9" width="1" height="1" fill="rgb(135,8,8)" fill-opacity="0.359375"/>
  <rect x="18" y="10" width="1" height="2" fill="rgb(132,4,4)" fill-opacity="0.4609375"/>
  <rect x="18" y="12" width="1" height="1" fill="rgb(129,8,8)" fill-opacity="0.3671875"/>
  <rect x="18" y="13" width="1" height="1" fill="rgb(57,18,18)" fill-opacity="0.5078125"/>
  <rect x="18" y="14" width="1" height="1" fill="rgb(39,38,38)" fill-opacity="0.875"/>
  <rect x="18" y="15" width="1" height="1" fill="rgb(28,28,28)" fill-opacity="0.9921875"/>
  <rect x="18" y="16" width="1" height="1" fill="rgb(39,39,39)" fill-opacity="0.96875"/>
  <rect x="18" y="17" width="1" height="1" fill="rgb(36,36,36)" fill-opacity="0.9140625"/>
  <rect x="18" y="18" width="1" height="1" fill="rgb(30,30,30)" fill-opacity="0.2734375"/>
  <rect x="18" y="19" width="1" height="2" fill="rgb(255,255,255)" fill-opacity="0.0078125"/>
  <rect x="19" y="0" width="1" height="15" fill="rgb(255,255,255)" fill-opacity="0.0078125"/>
  <rect x="19" y="15" width="1" height="1" fill="rgb(23,23,23)" fill-opacity="0.046875"/>
  <rect x="19" y="16" width="1" height="1" fill="rgb(25,25,25)" fill-opacity="0.125"/>
  <rect x="19" y="17" width="1" height="1" fill="rgb(0,0,0)" fill-opacity="0.015625"/>
  <rect x="19" y="18" width="1" height="3" fill="rgb(255,255,255)" fill-opacity="0.0078125"/>
  <rect x="20" y="0" width="1" height="21" fill="rgb(255,255,255)" fill-opacity="0.0078125"/>
</svg>