<svg xmlns="http://www.w3.org/2000/svg" shape-rendering="crispEdges" width="21" height="21" viewBox="0 0 21 21">
  <rect x="0" y="0" width="1" height="21" fill="rgb(255,255,255)" fill-opacity="0.0078125"/>
  <rect x="1" y="0" width="1" height="21" fill="rgb(255,255,255)" fill-opacity="0.0078125"/>
  <rect x="2" y="0" width="1" height="21" fill="rgb(255,255,255)" fill-opacity="0.0078125"/>
  <rect x="3" y="0" width="1" height="21" fill="rgb(255,255,255)" fill-opacity="0.0078125"/>
  <rect x="4" y="0" width="1" height="5" fill="rgb(255,255,255)" fill-opacity="0.0078125"/>
  <rect x="4" y="5" width="1" height="13" fill="rgb(26,26,26)" fill-opacity="0.1640625"/>
  <rect x="4" y="18" width="1" height="3" fill="rgb(255,255,255)" fill-opacity="0.0078125"/>
  <rect x="5" y="0" width="1" height="5" fill="rgb(255,255,255)" fill-opacity="0.0078125"/>
  <rect x="5" y="5" width="1" height="1" fill="rgb(24,24,24)" fill-opacity="0.171875"/>
  <rect x="5" y="6" width="1" height="3" fill="rgb(255,255,255)" fill-opacity="0.125"/>
  <rect x="5" y="9" width="1" height="1" fill="rgb(255,255,255)" fill-opacity="0.1171875"/>
  <rect x="5" y="10" width="1" height="2" fill="rgb(255,255,255)" fill-opacity="0.109375"/>
  <rect x="5" y="12" width="1" height="1" fill="rgb(255,255,255)" fill-opacity="0.1015625"/>
  <rect x="5" y="13" width="1" height="1" fill="rgb(255,255,255)" fill-opacity="0.09375"/>
  <rect x="5" y="14" width="1" height="2" fill="rgb(255,255,255)" fill-opacity="0.0859375"/>
  <rect x="5" y="16" width="1" height="1" fill="rgb(255,255,255)" fill-opacity="0.078125"/>
  <rect x="5" y="17" width="1" height="1" fill="rgb(24,24,24)" fill-opacity="0.171875"/>
  <rect x="5" y="18" width="1" height="3" fill="rgb(255,255,255)" fill-opacity="0.0078125"/>
  <rect x="6" y="0" width="1" height="5" fill="rgb(255,255,255)" fill-opacity="0.0078125"/>
  <rect x="6" y="5" width="1" height="1" fill="rgb(24,24,24)" fill-opacity="0.171875"/>
  <rect x="6" y="6" width="1" height="1" fill="rgb(255,255,255)" fill-opacity="0.125"/>
  <rect x="6" y="7" width="1" height="1" fill="rgb(255,255,255)" fill-opacity="0.0078125"/>
  <rect x="6" y="8" width="1" height="1" fill="rgb(64,64,64)" fill-opacity="0.0234375"/>
  <rect x="6" y="9" width="1" height="1" fill="rgb(31,31,31)" fill-opacity="0.484375"/>
  <rect x="6" y="10" width="1" height="1" fill="rgb(36,36,36)" fill-opacity="0.84375"/>
  <rect x="6" y="11" width="1" height="1" fill="rgb(30,30,30)" fill-opacity="0.96875"/>
  <rect x="6" y="12" width="1" height="1" fill="rgb(37,37,37)" fill-opacity="0.84375"/>
  <rect x="6" y="13" width="1" height="1" fill="rgb(33,33,33)" fill-opacity="0.484375"/>
  <rect x="6" y="14" width="1" height="1" fill="rgb(64,64,64)" fill-opacity="0.0234375"/>
  <rect x="6" y="15" width="1" height="1" fill="rgb(255,255,255)" fill-opacity="0.0078125"/>
  <rect x="6" y="16" width="1" height="1" fill="rgb(255,255,255)" fill-opacity="0.078125"/>
  <rect x="6" y="17" width="1" height="1" fill="rgb(24,24,24)" fill-opacity="0.171875"/>
  <rect x="6" y="18" width="1" height="3" fill="rgb(255,255,255)" fill-opacity="0.0078125"/>
  <rect x="7" y="0" width="1" height="5" fill="rgb(255,255,255)" fill-opacity="0.0078125"/>
  <rect x="7" y="5" width="1" height="1" fill="rgb(24,24,24)" fill-opacity="0.171875"/>
  <rect x="7" y="6" width="1" height="1" fill="rgb(255,255,255)" fill-opacity="0.125"/>
  <rect x="7" y="7" width="1" height="1" fill="rgb(0,0,0)" fill-opacity="0.015625"/>
  <rect x="7" y="8" width="1" height="1" fill="rgb(34,34,34)" fill-opacity="0.7890625"/>
  <rect x="7" y="9" width="1" height="1" fill="rgb(102,102,102)" fill-opacity="0.96875"/>
  <rect x="7" y="10" width="1" height="1" fill="rgb(211,211,211)"/>
  <rect x="7" y="11" width="1" height="1" fill="rgb(240,240,240)"/>
  <rect x="7" y="12" width="1" height="1" fill="rgb(200,200,200)"/>
  <rect x="7" y="13" width="1" height="1" fill="rgb(92,92,92)" fill-opacity="0.9609375"/>
  <rect x="7" y="14" width="1" height="1" fill="rgb(37,37,37)" fill-opacity="0.7890625"/>
  <rect x="7" y="15" width="1" height="1" fill="rgb(0,0,0)" fill-opacity="0.015625"/>
  <rect x="7" y="16" width="1" height="1" fill="rgb(255,255,255)" fill-opacity="0.0703125"/>
  <rect x="7" y="17" width="1" height="1" fill="rgb(24,24,24)" fill-opacity="0.171875"/>
  <rect x="7" y="18" width="1" height="3" fill="rgb(255,255,255)" fill-opacity="0.0078125"/>
  <rect x="8" y="0" width="1" height="5" fill="rgb(255,255,255)" fill-opacity="0.0078125"/>
  <rect x="8" y="5" width="1" height="1" fill="rgb(24,24,24)" fill-opacity="0.171875"/>
  <rect x="8" y="6" width="1" height="1" fill="rgb(255,255,255)" fill-opacity="0.1171875"/>
  <rect x="8" y="7" width="1" height="1" fill="rgb(31,31,31)" fill-opacity="0.484375"/>
  <rect x="8" y="8" width="1" height="1" fill="rgb(104,104,104)" fill-opacity="0.96875"/>
  <rect x="8" y="9" width="1" height="1" fill="rgb(249,249,249)"/>
  <rect x="8" y="10" width="1" height="1" fill="rgb(215,215,215)"/>
  <rect x="8" y="11" width="1" height="1" fill="rgb(202,202,202)"/>
  <rect x="8" y="12" width="1" height="1" fill="rgb(218,218,218)"/>
  <rect x="8" y="13" width="1" height="1" fill="rgb(227,227,227)"/>
  <rect x="8" y="14" width="1" height="1" fill="rgb(81,81,81)" fill-opacity="0.9609375"/>
  <rect x="8" y="15" width="1" height="1" fill="rgb(33,33,33)" fill-opacity="0.484375"/>
  <rect x="8" y="16" width="1" height="1" fill="rgb(255,255,255)" fill-opacity="0.0625"/>
  <rect x="8" y="17" width="1" height="1" fill="rgb(24,24,24)" fill-opacity="0.171875"/>
  <rect x="8" y="18" width="1" height="3" fill="rgb(255,255,255)" fill-opacity="0.0078125"/>
  <rect x="9" y="0" width="1" height="5" fill="rgb(255,255,255)" fill-opacity="0.0078125"/>
  <rect x="9" y="5" width="1" height="1" fill="rgb(24,24,24)" fill-opacity="0.171875"/>
  <rect x="9" y="6" width="1" height="1" fill="rgb(255,255,255)" fill-opacity="0.1171875"/>
  <rect x="9" y="7" width="1" height="1" fill="rgb(34,34,34)" fill-opacity="0.875"/>
  <rect x="9" y="8" width="1" height="1" fill="rgb(213,213,213)"/>
  <rect x="9" y="9" width="1" height="1" fill="rgb(217,217,217)"/>
  <rect x="9" y="10" width="1" height="1" fill="rgb(196,196,196)"/>
  <rect x="9" y="11" width="1" height="1" fill="rgb(205,205,205)"/>
  <rect x="9" y="12" width="1" height="1" fill="rgb(215,215,215)"/>
  <rect x="9" y="13" width="1" height="1" fill="rgb(226,226,226)"/>
  <rect x="9" y="14" width="1" height="1" fill="rgb(183,183,183)"/>
  <rect x="9" y="15" width="1" height="1" fill="rgb(39,39,39)" fill-opacity="0.875"/>
  <rect x="9" y="16" width="1" height="1" fill="rgb(255,255,255)" fill-opacity="0.0546875"/>
  <rect x="9" y="17" width="1" height="1" fill="rgb(24,24,24)" fill-opacity="0.171875"/>
  <rect x="9" y="18" width="1" height="3" fill="rgb(255,255,255)" fill-opacity="0.0078125"/>
  <rect x="10" y="0" width="1" height="5" fill="rgb(255,255,255)" fill-opacity="0.0078125"/>
  <rect x="10" y="5" width="1" height="1" fill="rgb(24,24,24)" fill-opacity="0.171875"/>
  <rect x="10" y="6" width="1" height="1" fill="rgb(255,255,255)" fill-opacity="0.109375"/>
  <rect x="10" y="7" width="1" height="1" fill="rgb(27,27,27)" fill-opacity="0.984375"/>
  <rect x="10" y="8" width="1" height="1" fill="rgb(245,245,245)"/>
  <rect x="10" y="9" width="1" height="1" fill="rgb(203,203,203)"/>
  <rect x="10" y="10" width="1" height="1" fill="rgb(205,205,205)"/>
  <rect x="10" y="11" width="1" height="1" fill="rgb(214,214,214)"/>
  <rect x="10" y="12" width="1" height="1" fill="rgb(224,224,224)"/>
  <rect x="10" y="13" width="1" height="1" fill="rgb(233,233,233)"/>
  <rect x="10" y="14" width="1" height="1" fill="rgb(225,225,225)"/>
  <rect x="10" y="15" width="1" height="1" fill="rgb(28,28,28)" fill-opacity="0.984375"/>
  <rect x="10" y="16" width="1" height="1" fill="rgb(255,255,255)" fill-opacity="0.0546875"/>
  <rect x="10" y="17" width="1" height="1" fill="rgb(24,24,24)" fill-opacity="0.171875"/>
  <rect x="10" y="18" width="1" height="3" fill="rgb(255,255,255)" fill-opacity="0.0078125"/>
  <rect x="11" y="0" width="1" height="5" fill="rgb(255,255,255)" fill-opacity="0.0078125"/>
  <rect x="11" y="5" width="1" height="1" fill="rgb(24,24,24)" fill-opacity="0.171875"/>
  <rect x="11" y="6" width="1" height="1" fill="rgb(255,255,255)" fill-opacity="0.1015625"/>
  <rect x="11" y="7" width="1" height="1" fill="rgb(35,35,35)" fill-opacity="0.8828125"/>
  <rect x="11" y="8" width="1" height="1" fill="rgb(204,204,204)"/>
  <rect x="11" y="9" width="1" height="1" fill="rgb(218,218,218)"/>
  <rect x="11" y="10" width="1" height="1" fill="rgb(214,214,214)"/>
  <rect x="11" y="11" width="1" height="1" fill="rgb(223,223,223)"/>
  <rect x="11" y="12" width="1" height="1" fill="rgb(233,233,233)"/>
  <rect x="11" y="13" width="1" height="1" fill="rgb(242,242,242)"/>
  <rect x="11" y="14" width="1" height="1" fill="rgb(199,199,199)"/>
  <rect x="11" y="15" width="1" height="1" fill="rgb(40,40,40)" fill-opacity="0.8828125"/>
  <rect x="11" y="16" width="1" height="1" fill="rgb(255,255,255)" fill-opacity="0.046875"/>
  <rect x="11" y="17" width="1" height="1" fill="rgb(24,24,24)" fill-opacity="0.171875"/>
  <rect x="11" y="18" width="1" height="3" fill="rgb(255,255,255)" fill-opacity="0.0078125"/>
  <rect x="12" y="0" width="1" height="5" fill="rgb(255,255,255)" fill-opacity="0.0078125"/>
  <rect x="12" y="5" width="1" height="1" fill="rgb(24,24,24)" fill-opacity="0.171875"/>
  <rect x="12" y="6" width="1" height="1" fill="rgb(255,255,255)" fill-opacity="0.09375"/>
  <rect x="12" y="7" width="1" height="1" fill="rgb(32,32,32)" fill-opacity="0.5078125"/>
  <rect x="12" y="8" width="1" height="1" fill="rgb(98,98,98)" fill-opacity="0.96875"/>
  <rect x="12" y="9" width="1" height="1" fill="rgb(228,228,228)"/>
  <rect x="12" y="10" width="1" height="1" fill="rgb(225,225,225)"/>
  <rect x="12" y="11" width="1" height="1" fill="rgb(233,233,233)"/>
  <rect x="12" y="12" width="1" height="1" fill="rgb(242,242,242)"/>
  <rect x="12" y="13" width="1" height="1" fill="rgb(251,251,251)"/>
  <rect x="12" y="14" width="1" height="1" fill="rgb(86,86,86)" fill-opacity="0.96875"/>
  <rect x="12" y="15" width="1" height="1" fill="rgb(34,34,34)" fill-opacity="0.5078125"/>
  <rect x="12" y="16" width="1" height="1" fill="rgb(255,255,255)" fill-opacity="0.0390625"/>
  <rect x="12" y="17" width="1" height="1" fill="rgb(24,24,24)" fill-opacity="0.171875"/>
  <rect x="12" y="18" width="1" height="3" fill="rgb(255,255,255)" fill-opacity="0.0078125"/>
  <rect x="13" y="0" width="1" height="5" fill="rgb(255,255,255)" fill-opacity="0.0078125"/>
  <rect x="13" y="5" width="1" height="1" fill="rgb(24,24,24)" fill-opacity="0.171875"/>
  <rect x="13" y="6" width="1" height="1" fill="rgb(255,255,255)" fill-opacity="0.09375"/>
  <rect x="13" y="7" width="1" height="1" fill="rgb(51,51,51)" fill-opacity="0.0234375"/>
  <rect x="13" y="8" width="1" height="1" fill="rgb(37,37,37)" fill-opacity="0.8203125"/>
  <rect x="13" y="9" width="1" height="1" fill="rgb(92,92,92)" fill-opacity="0.9609375"/>
  <rect x="13" y="10" width="1" height="1" fill="rgb(192,192,192)"/>
  <rect x="13" y="11" width="1" height="1" fill="rgb(233,233,233)"/>
  <rect x="13" y="12" width="1" height="1" fill="rgb(208,208,208)"/>
  <rect x="13" y="13" width="1" height="1" fill="rgb(93,93,93)" fill-opacity="0.9609375"/>
  <rect x="13" y="14" width="1" height="1" fill="rgb(39,39,39)" fill-opacity="0.8203125"/>
  <rect x="13" y="15" width="1" height="1" fill="rgb(51,51,51)" fill-opacity="0.0234375"/>
  <rect x="13" y="16" width="1" height="1" fill="rgb(255,255,255)" fill-opacity="0.0390625"/>
  <rect x="13" y="17" width="1" height="1" fill="rgb(24,24,24)" fill-opacity="0.171875"/>
  <rect x="13" y="18" width="1" height="3" fill="rgb(255,255,255)" fill-opacity="0.0078125"/>
  <rect x="14" y="0" width="1" height="5" fill="rgb(255,255,255)" fill-opacity="0.0078125"/>
  <rect x="14" y="5" width="1" height="1" fill="rgb(24,24,24)" fill-opacity="0.171875"/>
  <rect x="14" y="6" width="1" height="1" fill="rgb(255,255,255)" fill-opacity="0.0859375"/>
  <rect x="14" y="7" width="1" height="1" fill="rgb(255,255,255)" fill-opacity="0.0078125"/>
  <rect x="14" y="8" width="1" height="1" fill="rgb(51,51,51)" fill-opacity="0.0234375"/>
  <rect x="14" y="9" width="1" height="1" fill="rgb(33,33,33)" fill-opacity="0.515625"/>
  <rect x="14" y="10" width="1" height="1" fill="rgb(40,40,40)" fill-opacity="0.875"/>
  <rect x="14" y="11" width="1" height="1" fill="rgb(29,29,29)" fill-opacity="0.984375"/>
  <rect x="14" y="12" width="1" height="1" fill="rgb(41,41,41)" fill-opacity="0.875"/>
  <rect x="14" y="13" width="1" height="1" fill="rgb(33,33,33)" fill-opacity="0.515625"/>
  <rect x="14" y="14" width="1" height="1" fill="rgb(51,51,51)" fill-opacity="0.0234375"/>
  <rect x="14" y="15" width="1" height="1" fill="rgb(255,255,255)" fill-opacity="0.0078125"/>
  <rect x="14" y="16" width="1" height="1" fill="rgb(255,255,255)" fill-opacity="0.03125"/>
  <rect x="14" y="17" width="1" height="1" fill="rgb(24,24,24)" fill-opacity="0.171875"/>
  <rect x="14" y="18" width="1" height="3" fill="rgb(255,255,255)" fill-opacity="0.0078125"/>
  <rect x="15" y="0" width="1" height="5" fill="rgb(255,255,255)" fill-opacity="0.0078125"/>
  <rect x="15" y="5" width="1" height="1" fill="rgb(24,24,24)" fill-opacity="0.171875"/>
  <rect x="15" y="6" width="1" height="1" fill="rgb(255,255,255)" fill-opacity="0.078125"/>
  <rect x="15" y="7" width="1" height="1" fill="rgb(255,255,255)" fill-opacity="0.0703125"/>
  <rect x="15" y="8" width="1" height="2" fill="rgb(255,255,255)" fill-opacity="0.0625"/>
  <rect x="15" y="10" width="1" height="1" fill="rgb(255,255,255)" fill-opacity="0.0546875"/>
  <rect x="15" y="11" width="1" height="2" fill="rgb(255,255,255)" fill-opacity="0.046875"/>
  <rect x="15" y="13" width="1" height="1" fill="rgb(255,255,255)" fill-opacity="0.0390625"/>
  <rect x="15" y="14" width="1" height="2" fill="rgb(255,255,255)" fill-opacity="0.03125"/>
  <rect x="15" y="16" width="1" height="1" fill="rgb(255,255,255)" fill-opacity="0.0234375"/>
  <rect x="15" y="17" width="1" height="1" fill="rgb(24,24,24)" fill-opacity="0.171875"/>
  <rect x="15" y="18" width="1" height="3" fill="rgb(255,255,255)" fill-opacity="0.0078125"/>
  <rect x="16" y="0" width="1" height="5" fill="rgb(255,255,255)" fill-opacity="0.0078125"/>
  <rect x="16" y="5" width="1" height="1" fill="rgb(25,25,25)" fill-opacity="0.1640625"/>
  <rect x="16" y="6" width="1" height="1" fill="rgb(32,32,32)" fill-opacity="0.1640625"/>
  <rect x="16" y="7" width="1" height="10" fill="rgb(26,26,26)" fill-opacity="0.1640625"/>
  <rect x="16" y="17" width="1" height="1" fill="rgb(25,25,25)" fill-opacity="0.1640625"/>
  <rect x="16" y="18" width="1" height="3" fill="rgb(255,255,255)" fill-opacity="0.0078125"/>
  <rect x="17" y="0" width="1" height="21" fill="rgb(255,255,255)" fill-opacity="0.0078125"/>
  <rect x="18" y="0" width="1" height="21" fill="rgb(255,255,255)" fill-opacity="0.0078125"/>
  <rect x="19" y="0" width="1" height="21" fill="rgb(255,255,255)" fill-opacity="0.0078125"/>
  <rect x="20" y="0" width="1" height="21" fill="rgb(255,255,255)" fill-opacity="0.0078125"/>
</svg>