<svg xmlns="http://www.w3.org/2000/svg" shape-rendering="crispEdges" width="21" height="21" viewBox="0 0 21 21">
  <rect x="0" y="0" width="21" height="1" fill="rgb(255,255,255)" fill-opacity="0.0078125"/>
  <rect x="0" y="1" width="21" height="1" fill="rgb(255,255,255)" fill-opacity="0.0078125"/>
  <rect x="0" y="2" width="21" height="1" fill="rgb(255,255,255)" fill-opacity="0.0078125"/>
  <rect x="0" y="3" width="7" height="1" fill="rgb(255,255,255)" fill-opacity="0.0078125"/>
  <rect x="7" y="3" width="1" height="1" fill="rgb(17,17,34)" fill-opacity="0.0625"/>
  <rect x="8" y="3" width="1" height="1" fill="rgb(13,31,55)" fill-opacity="0.7421875"/>
  <rect x="9" y="3" width="1" height="1" fill="rgb(15,29,47)" fill-opacity="0.28125"/>
  <rect x="10" y="3" width="11" height="1" fill="rgb(255,255,255)" fill-opacity="0.0078125"/>
  <rect x="0" y="4" width="6" height="1" fill="rgb(255,255,255)" fill-opacity="0.0078125"/>
  <rect x="6" y="4" width="1" height="1" fill="rgb(9,19,38)" fill-opacity="0.109375"/>
  <rect x="7" y="4" width="1" height="1" fill="rgb(20,37,62)" fill-opacity="0.859375"/>
  <rect x="8" y="4" width="1" height="1" fill="rgb(82,118,171)" fill-opacity="0.9921875"/>
  <rect x="9" y="4" width="1" height="1" fill="rgb(29,47,74)" fill-opacity="0.9140625"/>
  <rect x="10" y="4" width="1" height="1" fill="rgb(12,23,41)" fill-opacity="0.1796875"/>
  <rect x="11" y="4" width="10" height="1" fill="rgb(255,255,255)" fill-opacity="0.0078125"/>
  <rect x="0" y="5" width="5" height="1" fill="rgb(255,255,255)" fill-opacity="0.0078125"/>
  <rect x="5" y="5" width="1" height="1" fill="rgb(12,24,43)" fill-opacity="0.171875"/>
  <rect x="6" y="5" width="1" height="1" fill="rgb(23,40,65)" fill-opacity="0.8984375"/>
  <rect x="7" y="5" width="1" height="1" fill="rgb(107,143,195)"/>
  <rect x="8" y="5" width="1" height="1" fill="rgb(96,143,210)"/>
  <rect x="9" y="5" width="1" height="1" fill="rgb(154,179,217)"/>
  <rect x="10" y="5" width="1" height="1" fill="rgb(94,108,131)" fill-opacity="0.9375"/>
  <rect x="11" y="5" width="1" height="1" fill="rgb(68,80,99)" fill-opacity="0.9140625"/>
  <rect x="12" y="5" width="1" height="1" fill="rgb(37,51,70)" fill-opacity="0.8671875"/>
  <rect x="13" y="5" width="1" height="1" fill="rgb(33,45,65)" fill-opacity="0.7109375"/>
  <rect x="14" y="5" width="1" height="1" fill="rgb(13,26,39)" fill-opacity="0.15625"/>
  <rect x="15" y="5" width="6" height="1" fill="rgb(255,255,255)" fill-opacity="0.0078125"/>
  <rect x="0" y="6" width="4" height="1" fill="rgb(255,255,255)" fill-opacity="0.0078125"/>
  <rect x="4" y="6" width="1" height="1" fill="rgb(12,25,45)" fill-opacity="0.25"/>
  <rect x="5" y="6" width="1" height="1" fill="rgb(27,46,72)" fill-opacity="0.9140625"/>
  <rect x="6" y="6" width="1" height="1" fill="rgb(109,147,202)"/>
  <rect x="7" y="6" width="1" height="1" fill="rgb(69,123,203)"/>
  <rect x="8" y="6" width="1" height="1" fill="rgb(68,123,204)"/>
  <rect x="9" y="6" width="1" height="1" fill="rgb(117,158,219)"/>
  <rect x="10" y="6" width="1" height="1" fill="rgb(178,201,236)"/>
  <rect x="11" y="6" width="1" height="1" fill="rgb(214,226,246)"/>
  <rect x="12" y="6" width="1" height="1" fill="rgb(226,235,249)"/>
  <rect x="13" y="6" width="1" height="1" fill="rgb(193,205,223)"/>
  <rect x="14" y="6" width="1" height="1" fill="rgb(54,67,85)" fill-opacity="0.9140625"/>
  <rect x="15" y="6" width="1" height="1" fill="rgb(8,25,41)" fill-opacity="0.125"/>
  <rect x="16" y="6" width="5" height="1" fill="rgb(255,255,255)" fill-opacity="0.0078125"/>
  <rect x="0" y="7" width="3" height="1" fill="rgb(255,255,255)" fill-opacity="0.0078125"/>
  <rect x="3" y="7" width="1" height="1" fill="rgb(11,23,40)" fill-opacity="0.1796875"/>
  <rect x="4" y="7" width="1" height="1" fill="rgb(26,44,72)" fill-opacity="0.9296875"/>
  <rect x="5" y="7" width="1" height="1" fill="rgb(110,150,207)"/>
  <rect x="6" y="7" width="1" height="1" fill="rgb(62,119,201)"/>
  <rect x="7" y="7" width="1" height="1" fill="rgb(66,122,203)"/>
  <rect x="8" y="7" width="1" height="1" fill="rgb(101,147,214)"/>
  <rect x="9" y="7" width="1" height="1" fill="rgb(136,172,225)"/>
  <rect x="10" y="7" width="1" height="1" fill="rgb(171,197,237)"/>
  <rect x="11" y="7" width="2" height="1" fill="rgb(181,204,240)"/>
  <rect x="13" y="7" width="1" height="1" fill="rgb(180,203,238)"/>
  <rect x="14" y="7" width="1" height="1" fill="rgb(161,182,214)"/>
  <rect x="15" y="7" width="1" height="1" fill="rgb(24,40,63)" fill-opacity="0.8359375"/>
  <rect x="16" y="7" width="1" height="1" fill="rgb(0,0,64)" fill-opacity="0.0234375"/>
  <rect x="17" y="7" width="4" height="1" fill="rgb(255,255,255)" fill-opacity="0.0078125"/>
  <rect x="0" y="8" width="3" height="1" fill="rgb(255,255,255)" fill-opacity="0.0078125"/>
  <rect x="3" y="8" width="1" height="1" fill="rgb(17,17,34)" fill-opacity="0.0625"/>
  <rect x="4" y="8" width="1" height="1" fill="rgb(23,40,65)" fill-opacity="0.8984375"/>
  <rect x="5" y="8" width="1" height="1" fill="rgb(109,147,204)"/>
  <rect x="6" y="8" width="1" height="1" fill="rgb(139,173,223)"/>
  <rect x="7" y="8" width="1" height="1" fill="rgb(162,190,230)"/>
  <rect x="8" y="8" width="1" height="1" fill="rgb(188,208,238)"/>
  <rect x="9" y="8" width="1" height="1" fill="rgb(196,215,242)"/>
  <rect x="10" y="8" width="1" height="1" fill="rgb(191,211,242)"/>
  <rect x="11" y="8" width="1" height="1" fill="rgb(181,204,240)"/>
  <rect x="12" y="8" width="1" height="1" fill="rgb(172,197,237)"/>
  <rect x="13" y="8" width="1" height="1" fill="rgb(139,174,227)"/>
  <rect x="14" y="8" width="1" height="1" fill="rgb(125,164,221)"/>
  <rect x="15" y="8" width="1" height="1" fill="rgb(72,105,151)" fill-opacity="0.984375"/>
  <rect x="16" y="8" width="1" height="1" fill="rgb(45,66,94)" fill-opacity="0.9765625"/>
  <rect x="17" y="8" width="1" height="1" fill="rgb(20,32,53)" fill-opacity="0.6015625"/>
  <rect x="18" y="8" width="3" height="1" fill="rgb(255,255,255)" fill-opacity="0.0078125"/>
  <rect x="0" y="9" width="4" height="1" fill="rgb(255,255,255)" fill-opacity="0.0078125"/>
  <rect x="4" y="9" width="1" height="1" fill="rgb(9,24,47)" fill-opacity="0.21875"/>
  <rect x="5" y="9" width="1" height="1" fill="rgb(16,34,57)" fill-opacity="0.828125"/>
  <rect x="6" y="9" width="1" height="1" fill="rgb(47,62,85)" fill-opacity="0.8984375"/>
  <rect x="7" y="9" width="1" height="1" fill="rgb(61,73,94)" fill-opacity="0.8984375"/>
  <rect x="8" y="9" width="1" height="1" fill="rgb(74,85,102)" fill-opacity="0.90625"/>
  <rect x="9" y="9" width="1" height="1" fill="rgb(117,126,139)" fill-opacity="0.9375"/>
  <rect x="10" y="9" width="1" height="1" fill="rgb(174,183,197)" fill-opacity="0.9765625"/>
  <rect x="11" y="9" width="1" height="1" fill="rgb(205,220,242)"/>
  <rect x="12" y="9" width="1" height="1" fill="rgb(142,176,227)"/>
  <rect x="13" y="9" width="1" height="1" fill="rgb(108,152,217)"/>
  <rect x="14" y="9" width="1" height="1" fill="rgb(73,125,201)"/>
  <rect x="15" y="9" width="1" height="1" fill="rgb(79,126,196)"/>
  <rect x="16" y="9" width="1" height="1" fill="rgb(133,169,220)"/>
  <rect x="17" y="9" width="1" height="1" fill="rgb(40,58,83)" fill-opacity="0.8984375"/>
  <rect x="18" y="9" width="3" height="1" fill="rgb(255,255,255)" fill-opacity="0.0078125"/>
  <rect x="0" y="10" width="9" height="1" fill="rgb(255,255,255)" fill-opacity="0.0078125"/>
  <rect x="9" y="10" width="1" height="1" fill="rgb(0,0,51)" fill-opacity="0.0234375"/>
  <rect x="10" y="10" width="1" height="1" fill="rgb(21,34,53)" fill-opacity="0.4765625"/>
  <rect x="11" y="10" width="1" height="1" fill="rgb(110,126,147)" fill-opacity="0.9453125"/>
  <rect x="12" y="10" width="1" height="1" fill="rgb(135,171,223)"/>
  <rect x="13" y="10" width="1" height="1" fill="rgb(74,126,201)"/>
  <rect x="14" y="10" width="1" height="1" fill="rgb(79,126,195)"/>
  <rect x="15" y="10" width="1" height="1" fill="rgb(133,169,221)"/>
  <rect x="16" y="10" width="1" height="1" fill="rgb(68,97,138)" fill-opacity="0.9921875"/>
  <rect x="17" y="10" width="1" height="1" fill="rgb(10,23,40)" fill-opacity="0.3046875"/>
  <rect x="18" y="10" width="3" height="1" fill="rgb(255,255,255)" fill-opacity="0.0078125"/>
  <rect x="0" y="11" width="11" height="1" fill="rgb(255,255,255)" fill-opacity="0.0078125"/>
  <rect x="11" y="11" width="1" height="1" fill="rgb(26,41,63)" fill-opacity="0.78125"/>
  <rect x="12" y="11" width="1" height="1" fill="rgb(100,137,192)"/>
  <rect x="13" y="11" width="1" height="1" fill="rgb(81,128,196)"/>
  <rect x="14" y="11" width="1" height="1" fill="rgb(133,169,221)"/>
  <rect x="15" y="11" width="1" height="1" fill="rgb(68,98,139)" fill-opacity="0.9921875"/>
  <rect x="16" y="11" width="1" height="1" fill="rgb(10,23,39)" fill-opacity="0.3125"/>
  <rect x="17" y="11" width="4" height="1" fill="rgb(255,255,255)" fill-opacity="0.0078125"/>
  <rect x="0" y="12" width="11" height="1" fill="rgb(255,255,255)" fill-opacity="0.0078125"/>
  <rect x="11" y="12" width="1" height="1" fill="rgb(11,24,41)" fill-opacity="0.46875"/>
  <rect x="12" y="12" width="1" height="1" fill="rgb(74,103,145)"/>
  <rect x="13" y="12" width="1" height="1" fill="rgb(133,168,221)"/>
  <rect x="14" y="12" width="1" height="1" fill="rgb(69,98,140)" fill-opacity="0.9921875"/>
  <rect x="15" y="12" width="1" height="1" fill="rgb(10,23,39)" fill-opacity="0.3125"/>
  <rect x="16" y="12" width="5" height="1" fill="rgb(255,255,255)" fill-opacity="0.0078125"/>
  <rect x="0" y="13" width="10" height="1" fill="rgb(255,255,255)" fill-opacity="0.0078125"/>
  <rect x="10" y="13" width="1" height="1" fill="rgb(11,23,40)" fill-opacity="0.3515625"/>
  <rect x="11" y="13" width="1" height="1" fill="rgb(68,91,123)" fill-opacity="0.9921875"/>
  <rect x="12" y="13" width="1" height="1" fill="rgb(134,169,221)"/>
  <rect x="13" y="13" width="1" height="1" fill="rgb(68,97,138)" fill-opacity="0.9921875"/>
  <rect x="14" y="13" width="1" height="1" fill="rgb(10,22,41)" fill-opacity="0.3203125"/>
  <rect x="15" y="13" width="6" height="1" fill="rgb(255,255,255)" fill-opacity="0.0078125"/>
  <rect x="0" y="14" width="9" height="1" fill="rgb(255,255,255)" fill-opacity="0.0078125"/>
  <rect x="9" y="14" width="1" height="1" fill="rgb(12,23,41)" fill-opacity="0.34375"/>
  <rect x="10" y="14" width="1" height="1" fill="rgb(67,90,122)" fill-opacity="0.9921875"/>
  <rect x="11" y="14" width="1" height="1" fill="rgb(134,169,221)"/>
  <rect x="12" y="14" width="1" height="1" fill="rgb(65,87,118)" fill-opacity="0.9921875"/>
  <rect x="13" y="14" width="1" height="1" fill="rgb(9,22,41)" fill-opacity="0.3203125"/>
  <rect x="14" y="14" width="7" height="1" fill="rgb(255,255,255)" fill-opacity="0.0078125"/>
  <rect x="0" y="15" width="8" height="1" fill="rgb(255,255,255)" fill-opacity="0.0078125"/>
  <rect x="8" y="15" width="1" height="1" fill="rgb(12,24,39)" fill-opacity="0.34375"/>
  <rect x="9" y="15" width="1" height="1" fill="rgb(67,89,121)" fill-opacity="0.9921875"/>
  <rect x="10" y="15" width="1" height="1" fill="rgb(134,169,221)"/>
  <rect x="11" y="15" width="1" height="1" fill="rgb(65,87,119)" fill-opacity="0.9921875"/>
  <rect x="12" y="15" width="1" height="1" fill="rgb(12,22,40)" fill-opacity="0.328125"/>
  <rect x="13" y="15" width="8" height="1" fill="rgb(255,255,255)" fill-opacity="0.0078125"/>
  <rect x="0" y="16" width="7" height="1" fill="rgb(255,255,255)" fill-opacity="0.0078125"/>
  <rect x="7" y="16" width="1" height="1" fill="rgb(11,22,40)" fill-opacity="0.28125"/>
  <rect x="8" y="16" width="1" height="1" fill="rgb(66,89,121)" fill-opacity="0.9921875"/>
  <rect x="9" y="16" width="1" height="1" fill="rgb(134,169,221)"/>
  <rect x="10" y="16" width="1" height="1" fill="rgb(66,88,120)" fill-opacity="0.9921875"/>
  <rect x="11" y="16" width="1" height="1" fill="rgb(12,22,40)" fill-opacity="0.328125"/>
  <rect x="12" y="16" width="9" height="1" fill="rgb(255,255,255)" fill-opacity="0.0078125"/>
  <rect x="0" y="17" width="7" height="1" fill="rgb(255,255,255)" fill-opacity="0.0078125"/>
  <rect x="7" y="17" width="1" height="1" fill="rgb(18,31,51)" fill-opacity="0.6875"/>
  <rect x="8" y="17" width="1" height="1" fill="rgb(132,167,219)"/>
  <rect x="9" y="17" width="1" height="1" fill="rgb(66,89,121)" fill-opacity="0.9921875"/>
  <rect x="10" y="17" width="1" height="1" fill="rgb(12,22,40)" fill-opacity="0.328125"/>
  <rect x="11" y="17" width="10" height="1" fill="rgb(255,255,255)" fill-opacity="0.0078125"/>
  <rect x="0" y="18" width="7" height="1" fill="rgb(255,255,255)" fill-opacity="0.0078125"/>
  <rect x="7" y="18" width="1" height="1" fill="rgb(13,25,42)" fill-opacity="0.2421875"/>
  <rect x="8" y="18" width="1" height="1" fill="rgb(21,34,53)" fill-opacity="0.703125"/>
  <rect x="9" y="18" width="1" height="1" fill="rgb(10,23,39)" fill-opacity="0.3125"/>
  <rect x="10" y="18" width="11" height="1" fill="rgb(255,255,255)" fill-opacity="0.0078125"/>
  <rect x="0" y="19" width="21" height="1" fill="rgb(255,255,255)" fill-opacity="0.0078125"/>
  <rect x="0" y="20" width="21" height="1" fill="rgb(255,255,255)" fill-opacity="0.0078125"/>
</svg>