<svg xmlns="http://www.w3.org/2000/svg" shape-rendering="crispEdges" width="21" height="21" viewBox="0 0 21 21">
  <rect x="0" y="0" width="21" height="1" fill="rgb(255,255,255)" fill-opacity="0.0078125"/>
  <rect x="0" y="1" width="21" height="1" fill="rgb(255,255,255)" fill-opacity="0.0078125"/>
  <rect x="0" y="2" width="21" height="1" fill="rgb(255,255,255)" fill-opacity="0.0078125"/>
  <rect x="0" y="3" width="3" height="1" fill="rgb(255,255,255)" fill-opacity="0.0078125"/>
  <rect x="3" y="3" width="1" height="1" fill="rgb(62,44,4)" fill-opacity="0.796875"/>
  <rect x="4" y="3" width="3" height="1" fill="rgb(65,46,4)" fill-opacity="0.9140625"/>
  <rect x="7" y="3" width="1" height="1" fill="rgb(65,46,5)" fill-opacity="0.9140625"/>
  <rect x="8" y="3" width="1" height="1" fill="rgb(65,47,8)" fill-opacity="0.9140625"/>
  <rect x="9" y="3" width="1" height="1" fill="rgb(65,49,10)" fill-opacity="0.9140625"/>
  <rect x="10" y="3" width="1" height="1" fill="rgb(62,48,10)" fill-opacity="0.796875"/>
  <rect x="11" y="3" width="10" height="1" fill="rgb(255,255,255)" fill-opacity="0.0078125"/>
  <rect x="0" y="4" width="3" height="1" fill="rgb(255,255,255)" fill-opacity="0.0078125"/>
  <rect x="3" y="4" width="1" height="1" fill="rgb(65,46,4)" fill-opacity="0.9140625"/>
  <rect x="4" y="4" width="1" height="1" fill="rgb(255,224,191)"/>
  <rect x="5" y="4" width="1" height="1" fill="rgb(201,177,151)"/>
  <rect x="6" y="4" width="1" height="1" fill="rgb(255,246,236)"/>
  <rect x="7" y="4" width="1" height="1" fill="rgb(255,246,237)"/>
  <rect x="8" y="4" width="1" height="1" fill="rgb(255,247,239)"/>
  <rect x="9" y="4" width="1" height="1" fill="rgb(255,235,213)"/>
  <rect x="10" y="4" width="1" height="1" fill="rgb(65,49,12)" fill-opacity="0.9140625"/>
  <rect x="11" y="4" width="10" height="1" fill="rgb(255,255,255)" fill-opacity="0.0078125"/>
  <rect x="0" y="5" width="3" height="1" fill="rgb(255,255,255)" fill-opacity="0.0078125"/>
  <rect x="3" y="5" width="1" height="1" fill="rgb(65,46,4)" fill-opacity="0.9140625"/>
  <rect x="4" y="5" width="1" height="1" fill="rgb(255,213,168)"/>
  <rect x="5" y="5" width="1" height="1" fill="rgb(183,110,31)"/>
  <rect x="6" y="5" width="1" height="1" fill="rgb(255,189,117)"/>
  <rect x="7" y="5" width="1" height="1" fill="rgb(255,158,53)"/>
  <rect x="8" y="5" width="1" height="1" fill="rgb(255,169,76)"/>
  <rect x="9" y="5" width="1" height="1" fill="rgb(255,181,100)"/>
  <rect x="10" y="5" width="1" height="1" fill="rgb(65,49,12)" fill-opacity="0.9140625"/>
  <rect x="11" y="5" width="10" height="1" fill="rgb(255,255,255)" fill-opacity="0.0078125"/>
  <rect x="0" y="6" width="3" height="1" fill="rgb(255,255,255)" fill-opacity="0.0078125"/>
  <rect x="3" y="6" width="1" height="1" fill="rgb(62,44,4)" fill-opacity="0.796875"/>
  <rect x="4" y="6" width="1" height="1" fill="rgb(65,46,4)" fill-opacity="0.9140625"/>
  <rect x="5" y="6" width="1" height="1" fill="rgb(63,45,5)" fill-opacity="0.953125"/>
  <rect x="6" y="6" width="1" height="1" fill="rgb(70,54,16)" fill-opacity="0.953125"/>
  <rect x="7" y="6" width="1" height="1" fill="rgb(63,45,6)" fill-opacity="0.953125"/>
  <rect x="8" y="6" width="1" height="1" fill="rgb(65,47,8)" fill-opacity="0.9140625"/>
  <rect x="9" y="6" width="1" height="1" fill="rgb(65,49,10)" fill-opacity="0.9140625"/>
  <rect x="10" y="6" width="1" height="1" fill="rgb(62,48,10)" fill-opacity="0.796875"/>
  <rect x="11" y="6" width="10" height="1" fill="rgb(255,255,255)" fill-opacity="0.0078125"/>
  <rect x="0" y="7" width="5" height="1" fill="rgb(255,255,255)" fill-opacity="0.0078125"/>
  <rect x="5" y="7" width="1" height="1" fill="rgb(26,26,26)" fill-opacity="0.4609375"/>
  <rect x="6" y="7" width="1" height="1" fill="rgb(189,209,245)" fill-opacity="0.5"/>
  <rect x="7" y="7" width="1" height="1" fill="rgb(26,26,26)" fill-opacity="0.4609375"/>
  <rect x="8" y="7" width="13" height="1" fill="rgb(255,255,255)" fill-opacity="0.0078125"/>
  <rect x="0" y="8" width="5" height="1" fill="rgb(255,255,255)" fill-opacity="0.0078125"/>
  <rect x="5" y="8" width="1" height="1" fill="rgb(26,26,26)" fill-opacity="0.4609375"/>
  <rect x="6" y="8" width="1" height="1" fill="rgb(189,209,245)" fill-opacity="0.5"/>
  <rect x="7" y="8" width="1" height="1" fill="rgb(26,26,26)" fill-opacity="0.4609375"/>
  <rect x="8" y="8" width="13" height="1" fill="rgb(255,255,255)" fill-opacity="0.0078125"/>
  <rect x="0" y="9" width="5" height="1" fill="rgb(255,255,255)" fill-opacity="0.0078125"/>
  <rect x="5" y="9" width="1" height="1" fill="rgb(26,26,26)" fill-opacity="0.4609375"/>
  <rect x="6" y="9" width="1" height="1" fill="rgb(189,209,245)" fill-opacity="0.5"/>
  <rect x="7" y="9" width="1" height="1" fill="rgb(26,26,26)" fill-opacity="0.4609375"/>
  <rect x="8" y="9" width="2" height="1" fill="rgb(255,255,255)" fill-opacity="0.0078125"/>
  <rect x="10" y="9" width="1" height="1" fill="rgb(46,46,46)" fill-opacity="0.7265625"/>
  <rect x="11" y="9" width="6" height="1" fill="rgb(54,54,54)" fill-opacity="0.8515625"/>
  <rect x="17" y="9" width="1" height="1" fill="rgb(46,46,46)" fill-opacity="0.7265625"/>
  <rect x="18" y="9" width="3" height="1" fill="rgb(255,255,255)" fill-opacity="0.0078125"/>
  <rect x="0" y="10" width="5" height="1" fill="rgb(255,255,255)" fill-opacity="0.0078125"/>
  <rect x="5" y="10" width="1" height="1" fill="rgb(26,26,26)" fill-opacity="0.4609375"/>
  <rect x="6" y="10" width="1" height="1" fill="rgb(153,169,200)" fill-opacity="0.5546875"/>
  <rect x="7" y="10" width="1" height="1" fill="rgb(26,26,26)" fill-opacity="0.5"/>
  <rect x="8" y="10" width="2" height="1" fill="rgb(26,26,26)" fill-opacity="0.4609375"/>
  <rect x="10" y="10" width="1" height="1" fill="rgb(53,53,53)" fill-opacity="0.9140625"/>
  <rect x="11" y="10" width="1" height="1" fill="rgb(255,255,255)"/>
  <rect x="12" y="10" width="1" height="1" fill="rgb(201,201,201)"/>
  <rect x="13" y="10" width="3" height="1" fill="rgb(255,255,255)"/>
  <rect x="16" y="10" width="1" height="1" fill="rgb(249,249,249)"/>
  <rect x="17" y="10" width="1" height="1" fill="rgb(54,54,54)" fill-opacity="0.8515625"/>
  <rect x="18" y="10" width="3" height="1" fill="rgb(255,255,255)" fill-opacity="0.0078125"/>
  <rect x="0" y="11" width="5" height="1" fill="rgb(255,255,255)" fill-opacity="0.0078125"/>
  <rect x="5" y="11" width="1" height="1" fill="rgb(26,26,26)" fill-opacity="0.4609375"/>
  <rect x="6" y="11" width="1" height="1" fill="rgb(230,237,251)" fill-opacity="0.7265625"/>
  <rect x="7" y="11" width="1" height="1" fill="rgb(153,169,200)" fill-opacity="0.5546875"/>
  <rect x="8" y="11" width="2" height="1" fill="rgb(189,209,245)" fill-opacity="0.5"/>
  <rect x="10" y="11" width="1" height="1" fill="rgb(63,65,67)" fill-opacity="0.921875"/>
  <rect x="11" y="11" width="1" height="1" fill="rgb(243,243,243)"/>
  <rect x="12" y="11" width="1" height="1" fill="rgb(141,141,141)"/>
  <rect x="13" y="11" width="1" height="1" fill="rgb(217,217,217)"/>
  <rect x="14" y="11" width="3" height="1" fill="rgb(179,179,179)"/>
  <rect x="17" y="11" width="1" height="1" fill="rgb(54,54,54)" fill-opacity="0.8515625"/>
  <rect x="18" y="11" width="3" height="1" fill="rgb(255,255,255)" fill-opacity="0.0078125"/>
  <rect x="0" y="12" width="5" height="1" fill="rgb(255,255,255)" fill-opacity="0.0078125"/>
  <rect x="5" y="12" width="1" height="1" fill="rgb(26,26,26)" fill-opacity="0.4609375"/>
  <rect x="6" y="12" width="1" height="1" fill="rgb(153,169,200)" fill-opacity="0.5546875"/>
  <rect x="7" y="12" width="1" height="1" fill="rgb(26,26,26)" fill-opacity="0.5"/>
  <rect x="8" y="12" width="2" height="1" fill="rgb(26,26,26)" fill-opacity="0.4609375"/>
  <rect x="10" y="12" width="1" height="1" fill="rgb(43,43,43)" fill-opacity="0.84375"/>
  <rect x="11" y="12" width="1" height="1" fill="rgb(54,54,54)" fill-opacity="0.875"/>
  <rect x="12" y="12" width="5" height="1" fill="rgb(54,54,54)" fill-opacity="0.8515625"/>
  <rect x="17" y="12" width="1" height="1" fill="rgb(46,46,46)" fill-opacity="0.7265625"/>
  <rect x="18" y="12" width="3" height="1" fill="rgb(255,255,255)" fill-opacity="0.0078125"/>
  <rect x="0" y="13" width="5" height="1" fill="rgb(255,255,255)" fill-opacity="0.0078125"/>
  <rect x="5" y="13" width="1" height="1" fill="rgb(26,26,26)" fill-opacity="0.4609375"/>
  <rect x="6" y="13" width="1" height="1" fill="rgb(189,209,245)" fill-opacity="0.5"/>
  <rect x="7" y="13" width="1" height="1" fill="rgb(26,26,26)" fill-opacity="0.4609375"/>
  <rect x="8" y="13" width="13" height="1" fill="rgb(255,255,255)" fill-opacity="0.0078125"/>
  <rect x="0" y="14" width="5" height="1" fill="rgb(255,255,255)" fill-opacity="0.0078125"/>
  <rect x="5" y="14" width="1" height="1" fill="rgb(26,26,26)" fill-opacity="0.4609375"/>
  <rect x="6" y="14" width="1" height="1" fill="rgb(189,209,245)" fill-opacity="0.5"/>
  <rect x="7" y="14" width="1" height="1" fill="rgb(26,26,26)" fill-opacity="0.4609375"/>
  <rect x="8" y="14" width="13" height="1" fill="rgb(255,255,255)" fill-opacity="0.0078125"/>
  <rect x="0" y="15" width="5" height="1" fill="rgb(255,255,255)" fill-opacity="0.0078125"/>
  <rect x="5" y="15" width="1" height="1" fill="rgb(26,26,26)" fill-opacity="0.4609375"/>
  <rect x="6" y="15" width="1" height="1" fill="rgb(153,169,200)" fill-opacity="0.5546875"/>
  <rect x="7" y="15" width="1" height="1" fill="rgb(26,26,26)" fill-opacity="0.5"/>
  <rect x="8" y="15" width="2" height="1" fill="rgb(26,26,26)" fill-opacity="0.4609375"/>
  <rect x="10" y="15" width="1" height="1" fill="rgb(43,43,43)" fill-opacity="0.84375"/>
  <rect x="11" y="15" width="1" height="1" fill="rgb(54,54,54)" fill-opacity="0.875"/>
  <rect x="12" y="15" width="5" height="1" fill="rgb(54,54,54)" fill-opacity="0.8515625"/>
  <rect x="17" y="15" width="1" height="1" fill="rgb(46,46,46)" fill-opacity="0.7265625"/>
  <rect x="18" y="15" width="3" height="1" fill="rgb(255,255,255)" fill-opacity="0.0078125"/>
  <rect x="0" y="16" width="5" height="1" fill="rgb(255,255,255)" fill-opacity="0.0078125"/>
  <rect x="5" y="16" width="1" height="1" fill="rgb(26,26,26)" fill-opacity="0.4296875"/>
  <rect x="6" y="16" width="1" height="1" fill="rgb(222,229,241)" fill-opacity="0.7265625"/>
  <rect x="7" y="16" width="1" height="1" fill="rgb(153,169,200)" fill-opacity="0.5546875"/>
  <rect x="8" y="16" width="2" height="1" fill="rgb(189,209,245)" fill-opacity="0.5"/>
  <rect x="10" y="16" width="1" height="1" fill="rgb(63,65,67)" fill-opacity="0.921875"/>
  <rect x="11" y="16" width="1" height="1" fill="rgb(255,255,255)"/>
  <rect x="12" y="16" width="1" height="1" fill="rgb(201,201,201)"/>
  <rect x="13" y="16" width="3" height="1" fill="rgb(255,255,255)"/>
  <rect x="16" y="16" width="1" height="1" fill="rgb(249,249,249)"/>
  <rect x="17" y="16" width="1" height="1" fill="rgb(54,54,54)" fill-opacity="0.8515625"/>
  <rect x="18" y="16" width="3" height="1" fill="rgb(255,255,255)" fill-opacity="0.0078125"/>
  <rect x="0" y="17" width="5" height="1" fill="rgb(255,255,255)" fill-opacity="0.0078125"/>
  <rect x="5" y="17" width="1" height="1" fill="rgb(24,24,24)" fill-opacity="0.171875"/>
  <rect x="6" y="17" width="1" height="1" fill="rgb(26,26,26)" fill-opacity="0.4375"/>
  <rect x="7" y="17" width="3" height="1" fill="rgb(26,26,26)" fill-opacity="0.4609375"/>
  <rect x="10" y="17" width="1" height="1" fill="rgb(53,53,53)" fill-opacity="0.9140625"/>
  <rect x="11" y="17" width="1" height="1" fill="rgb(243,243,243)"/>
  <rect x="12" y="17" width="1" height="1" fill="rgb(141,141,141)"/>
  <rect x="13" y="17" width="1" height="1" fill="rgb(217,217,217)"/>
  <rect x="14" y="17" width="3" height="1" fill="rgb(179,179,179)"/>
  <rect x="17" y="17" width="1" height="1" fill="rgb(54,54,54)" fill-opacity="0.8515625"/>
  <rect x="18" y="17" width="3" height="1" fill="rgb(255,255,255)" fill-opacity="0.0078125"/>
  <rect x="0" y="18" width="10" height="1" fill="rgb(255,255,255)" fill-opacity="0.0078125"/>
  <rect x="10" y="18" width="1" height="1" fill="rgb(46,46,46)" fill-opacity="0.7265625"/>
  <rect x="11" y="18" width="6" height="1" fill="rgb(54,54,54)" fill-opacity="0.8515625"/>
  <rect x="17" y="18" width="1" height="1" fill="rgb(46,46,46)" fill-opacity="0.7265625"/>
  <rect x="18" y="18" width="3" height="1" fill="rgb(255,255,255)" fill-opacity="0.0078125"/>
  <rect x="0" y="19" width="21" height="1" fill="rgb(255,255,255)" fill-opacity="0.0078125"/>
  <rect x="0" y="20" width="21" height="1" fill="rgb(255,255,255)" fill-opacity="0.0078125"/>
</svg>