<svg xmlns="http://www.w3.org/2000/svg" shape-rendering="crispEdges" width="21" height="21" viewBox="0 0 21 21">
  <rect x="0" y="0" width="21" height="1" fill="rgb(255,255,255)" fill-opacity="0.0078125"/>
  <rect x="0" y="1" width="21" height="1" fill="rgb(255,255,255)" fill-opacity="0.0078125"/>
  <rect x="0" y="2" width="21" height="1" fill="rgb(255,255,255)" fill-opacity="0.0078125"/>
  <rect x="0" y="3" width="3" height="1" fill="rgb(255,255,255)" fill-opacity="0.0078125"/>
  <rect x="3" y="3" width="1" height="1" fill="rgb(4,55,132)" fill-opacity="0.734375"/>
  <rect x="4" y="3" width="2" height="1" fill="rgb(0,51,128)" fill-opacity="0.8046875"/>
  <rect x="6" y="3" width="1" height="1" fill="rgb(4,55,132)" fill-opacity="0.734375"/>
  <rect x="7" y="3" width="8" height="1" fill="rgb(255,0,0)" fill-opacity="0.015625"/>
  <rect x="15" y="3" width="1" height="1" fill="rgb(4,55,132)" fill-opacity="0.734375"/>
  <rect x="16" y="3" width="2" height="1" fill="rgb(0,51,128)" fill-opacity="0.8046875"/>
  <rect x="18" y="3" width="1" height="1" fill="rgb(4,55,132)" fill-opacity="0.734375"/>
  <rect x="19" y="3" width="2" height="1" fill="rgb(255,255,255)" fill-opacity="0.0078125"/>
  <rect x="0" y="4" width="3" height="1" fill="rgb(255,255,255)" fill-opacity="0.0078125"/>
  <rect x="3" y="4" width="1" height="1" fill="rgb(0,51,128)" fill-opacity="0.8046875"/>
  <rect x="4" y="4" width="1" height="1" fill="rgb(204,225,255)" fill-opacity="0.8046875"/>
  <rect x="5" y="4" width="1" height="1" fill="rgb(193,218,255)" fill-opacity="0.8046875"/>
  <rect x="6" y="4" width="1" height="1" fill="rgb(0,51,128)" fill-opacity="0.8046875"/>
  <rect x="7" y="4" width="1" height="1" fill="rgb(28,0,0)" fill-opacity="0.078125"/>
  <rect x="8" y="4" width="1" height="1" fill="rgb(2,0,0)" fill-opacity="0.4921875"/>
  <rect x="9" y="4" width="1" height="1" fill="rgb(4,3,3)" fill-opacity="0.734375"/>
  <rect x="10" y="4" width="1" height="1" fill="rgb(41,41,41)" fill-opacity="0.9375"/>
  <rect x="11" y="4" width="1" height="1" fill="rgb(41,41,41)" fill-opacity="0.9296875"/>
  <rect x="12" y="4" width="1" height="1" fill="rgb(5,4,4)" fill-opacity="0.734375"/>
  <rect x="13" y="4" width="1" height="1" fill="rgb(2,0,0)" fill-opacity="0.4921875"/>
  <rect x="14" y="4" width="1" height="1" fill="rgb(28,0,0)" fill-opacity="0.078125"/>
  <rect x="15" y="4" width="1" height="1" fill="rgb(0,51,128)" fill-opacity="0.8046875"/>
  <rect x="16" y="4" width="1" height="1" fill="rgb(204,225,255)" fill-opacity="0.8046875"/>
  <rect x="17" y="4" width="1" height="1" fill="rgb(193,218,255)" fill-opacity="0.8046875"/>
  <rect x="18" y="4" width="1" height="1" fill="rgb(0,51,128)" fill-opacity="0.8046875"/>
  <rect x="19" y="4" width="2" height="1" fill="rgb(255,255,255)" fill-opacity="0.0078125"/>
  <rect x="0" y="5" width="3" height="1" fill="rgb(255,255,255)" fill-opacity="0.0078125"/>
  <rect x="3" y="5" width="1" height="1" fill="rgb(0,51,128)" fill-opacity="0.8046875"/>
  <rect x="4" y="5" width="1" height="1" fill="rgb(193,218,255)" fill-opacity="0.8046875"/>
  <rect x="5" y="5" width="1" height="1" fill="rgb(128,179,255)" fill-opacity="0.8046875"/>
  <rect x="6" y="5" width="1" height="1" fill="rgb(0,35,87)" fill-opacity="0.859375"/>
  <rect x="7" y="5" width="1" height="1" fill="rgb(26,26,26)" fill-opacity="0.90625"/>
  <rect x="8" y="5" width="1" height="1" fill="rgb(143,143,143)"/>
  <rect x="9" y="5" width="1" height="1" fill="rgb(206,206,206)"/>
  <rect x="10" y="5" width="1" height="1" fill="rgb(219,219,219)"/>
  <rect x="11" y="5" width="1" height="1" fill="rgb(223,223,223)"/>
  <rect x="12" y="5" width="1" height="1" fill="rgb(219,219,219)"/>
  <rect x="13" y="5" width="1" height="1" fill="rgb(158,158,158)"/>
  <rect x="14" y="5" width="1" height="1" fill="rgb(29,29,29)" fill-opacity="0.90625"/>
  <rect x="15" y="5" width="1" height="1" fill="rgb(0,35,87)" fill-opacity="0.859375"/>
  <rect x="16" y="5" width="1" height="1" fill="rgb(193,218,255)" fill-opacity="0.8046875"/>
  <rect x="17" y="5" width="1" height="1" fill="rgb(128,179,255)" fill-opacity="0.8046875"/>
  <rect x="18" y="5" width="1" height="1" fill="rgb(0,51,128)" fill-opacity="0.8046875"/>
  <rect x="19" y="5" width="2" height="1" fill="rgb(255,255,255)" fill-opacity="0.0078125"/>
  <rect x="0" y="6" width="3" height="1" fill="rgb(255,255,255)" fill-opacity="0.0078125"/>
  <rect x="3" y="6" width="1" height="1" fill="rgb(4,55,132)" fill-opacity="0.734375"/>
  <rect x="4" y="6" width="1" height="1" fill="rgb(0,51,128)" fill-opacity="0.8046875"/>
  <rect x="5" y="6" width="1" height="1" fill="rgb(0,35,87)" fill-opacity="0.859375"/>
  <rect x="6" y="6" width="1" height="1" fill="rgb(61,61,62)"/>
  <rect x="7" y="6" width="1" height="1" fill="rgb(198,198,198)"/>
  <rect x="8" y="6" width="1" height="1" fill="rgb(206,206,206)"/>
  <rect x="9" y="6" width="1" height="1" fill="rgb(126,126,126)"/>
  <rect x="10" y="6" width="1" height="1" fill="rgb(84,84,84)"/>
  <rect x="11" y="6" width="1" height="1" fill="rgb(86,86,86)"/>
  <rect x="12" y="6" width="1" height="1" fill="rgb(134,134,134)"/>
  <rect x="13" y="6" width="2" height="1" fill="rgb(227,227,227)"/>
  <rect x="15" y="6" width="1" height="1" fill="rgb(73,73,74)"/>
  <rect x="16" y="6" width="1" height="1" fill="rgb(0,35,87)" fill-opacity="0.859375"/>
  <rect x="17" y="6" width="1" height="1" fill="rgb(0,51,128)" fill-opacity="0.8046875"/>
  <rect x="18" y="6" width="1" height="1" fill="rgb(4,55,132)" fill-opacity="0.734375"/>
  <rect x="19" y="6" width="2" height="1" fill="rgb(255,255,255)" fill-opacity="0.0078125"/>
  <rect x="0" y="7" width="3" height="1" fill="rgb(255,255,255)" fill-opacity="0.0078125"/>
  <rect x="3" y="7" width="1" height="1" fill="rgb(255,0,0)" fill-opacity="0.015625"/>
  <rect x="4" y="7" width="1" height="1" fill="rgb(28,0,0)" fill-opacity="0.078125"/>
  <rect x="5" y="7" width="1" height="1" fill="rgb(26,26,26)" fill-opacity="0.90625"/>
  <rect x="6" y="7" width="1" height="1" fill="rgb(198,198,198)"/>
  <rect x="7" y="7" width="1" height="1" fill="rgb(173,173,173)"/>
  <rect x="8" y="7" width="1" height="1" fill="rgb(32,32,32)" fill-opacity="0.921875"/>
  <rect x="9" y="7" width="1" height="1" fill="rgb(3,0,0)" fill-opacity="0.3828125"/>
  <rect x="10" y="7" width="2" height="1" fill="rgb(15,0,0)" fill-opacity="0.140625"/>
  <rect x="12" y="7" width="1" height="1" fill="rgb(3,0,0)" fill-opacity="0.3828125"/>
  <rect x="13" y="7" width="1" height="1" fill="rgb(35,35,35)" fill-opacity="0.921875"/>
  <rect x="14" y="7" width="1" height="1" fill="rgb(198,198,198)"/>
  <rect x="15" y="7" width="1" height="1" fill="rgb(236,236,236)"/>
  <rect x="16" y="7" width="1" height="1" fill="rgb(31,31,31)" fill-opacity="0.90625"/>
  <rect x="17" y="7" width="1" height="1" fill="rgb(28,0,0)" fill-opacity="0.078125"/>
  <rect x="18" y="7" width="1" height="1" fill="rgb(255,0,0)" fill-opacity="0.015625"/>
  <rect x="19" y="7" width="2" height="1" fill="rgb(255,255,255)" fill-opacity="0.0078125"/>
  <rect x="0" y="8" width="3" height="1" fill="rgb(255,255,255)" fill-opacity="0.0078125"/>
  <rect x="3" y="8" width="1" height="1" fill="rgb(255,0,0)" fill-opacity="0.015625"/>
  <rect x="4" y="8" width="1" height="1" fill="rgb(2,0,0)" fill-opacity="0.4921875"/>
  <rect x="5" y="8" width="1" height="1" fill="rgb(144,144,144)"/>
  <rect x="6" y="8" width="1" height="1" fill="rgb(206,206,206)"/>
  <rect x="7" y="8" width="1" height="1" fill="rgb(32,32,32)" fill-opacity="0.921875"/>
  <rect x="8" y="8" width="1" height="1" fill="rgb(21,0,0)" fill-opacity="0.1015625"/>
  <rect x="9" y="8" width="4" height="1" fill="rgb(255,0,0)" fill-opacity="0.015625"/>
  <rect x="13" y="8" width="1" height="1" fill="rgb(21,0,0)" fill-opacity="0.1015625"/>
  <rect x="14" y="8" width="1" height="1" fill="rgb(36,36,36)" fill-opacity="0.921875"/>
  <rect x="15" y="8" width="1" height="1" fill="rgb(244,244,244)"/>
  <rect x="16" y="8" width="1" height="1" fill="rgb(174,174,174)"/>
  <rect x="17" y="8" width="1" height="1" fill="rgb(2,0,0)" fill-opacity="0.4921875"/>
  <rect x="18" y="8" width="1" height="1" fill="rgb(255,0,0)" fill-opacity="0.015625"/>
  <rect x="19" y="8" width="2" height="1" fill="rgb(255,255,255)" fill-opacity="0.0078125"/>
  <rect x="0" y="9" width="3" height="1" fill="rgb(255,255,255)" fill-opacity="0.0078125"/>
  <rect x="3" y="9" width="1" height="1" fill="rgb(255,0,0)" fill-opacity="0.015625"/>
  <rect x="4" y="9" width="1" height="1" fill="rgb(4,3,3)" fill-opacity="0.734375"/>
  <rect x="5" y="9" width="1" height="1" fill="rgb(207,207,207)"/>
  <rect x="6" y="9" width="1" height="1" fill="rgb(127,127,127)"/>
  <rect x="7" y="9" width="1" height="1" fill="rgb(3,0,0)" fill-opacity="0.3828125"/>
  <rect x="8" y="9" width="6" height="1" fill="rgb(255,0,0)" fill-opacity="0.015625"/>
  <rect x="14" y="9" width="1" height="1" fill="rgb(3,0,0)" fill-opacity="0.3828125"/>
  <rect x="15" y="9" width="1" height="1" fill="rgb(147,147,147)"/>
  <rect x="16" y="9" width="1" height="1" fill="rgb(245,245,245)"/>
  <rect x="17" y="9" width="1" height="1" fill="rgb(5,4,4)" fill-opacity="0.734375"/>
  <rect x="18" y="9" width="1" height="1" fill="rgb(255,0,0)" fill-opacity="0.015625"/>
  <rect x="19" y="9" width="2" height="1" fill="rgb(255,255,255)" fill-opacity="0.0078125"/>
  <rect x="0" y="10" width="3" height="1" fill="rgb(255,255,255)" fill-opacity="0.0078125"/>
  <rect x="3" y="10" width="1" height="1" fill="rgb(255,0,0)" fill-opacity="0.015625"/>
  <rect x="4" y="10" width="1" height="1" fill="rgb(41,41,41)" fill-opacity="0.9296875"/>
  <rect x="5" y="10" width="1" height="1" fill="rgb(220,220,220)"/>
  <rect x="6" y="10" width="1" height="1" fill="rgb(85,85,85)"/>
  <rect x="7" y="10" width="1" height="1" fill="rgb(15,0,0)" fill-opacity="0.140625"/>
  <rect x="8" y="10" width="6" height="1" fill="rgb(255,0,0)" fill-opacity="0.015625"/>
  <rect x="14" y="10" width="1" height="1" fill="rgb(15,0,0)" fill-opacity="0.140625"/>
  <rect x="15" y="10" width="1" height="1" fill="rgb(96,96,96)"/>
  <rect x="16" y="10" width="1" height="1" fill="rgb(255,255,255)"/>
  <rect x="17" y="10" width="1" height="1" fill="rgb(48,48,48)" fill-opacity="0.9375"/>
  <rect x="18" y="10" width="1" height="1" fill="rgb(255,0,0)" fill-opacity="0.015625"/>
  <rect x="19" y="10" width="2" height="1" fill="rgb(255,255,255)" fill-opacity="0.0078125"/>
  <rect x="0" y="11" width="3" height="1" fill="rgb(255,255,255)" fill-opacity="0.0078125"/>
  <rect x="3" y="11" width="1" height="1" fill="rgb(255,0,0)" fill-opacity="0.015625"/>
  <rect x="4" y="11" width="1" height="1" fill="rgb(42,42,42)" fill-opacity="0.9375"/>
  <rect x="5" y="11" width="1" height="1" fill="rgb(225,225,225)"/>
  <rect x="6" y="11" width="1" height="1" fill="rgb(86,86,86)"/>
  <rect x="7" y="11" width="1" height="1" fill="rgb(15,0,0)" fill-opacity="0.140625"/>
  <rect x="8" y="11" width="6" height="1" fill="rgb(255,0,0)" fill-opacity="0.015625"/>
  <rect x="14" y="11" width="1" height="1" fill="rgb(15,0,0)" fill-opacity="0.140625"/>
  <rect x="15" y="11" width="1" height="1" fill="rgb(96,96,96)"/>
  <rect x="16" y="11" width="1" height="1" fill="rgb(255,255,255)"/>
  <rect x="17" y="11" width="1" height="1" fill="rgb(48,48,48)" fill-opacity="0.9375"/>
  <rect x="18" y="11" width="1" height="1" fill="rgb(255,0,0)" fill-opacity="0.015625"/>
  <rect x="19" y="11" width="2" height="1" fill="rgb(255,255,255)" fill-opacity="0.0078125"/>
  <rect x="0" y="12" width="3" height="1" fill="rgb(255,255,255)" fill-opacity="0.0078125"/>
  <rect x="3" y="12" width="1" height="1" fill="rgb(255,0,0)" fill-opacity="0.015625"/>
  <rect x="4" y="12" width="1" height="1" fill="rgb(5,4,4)" fill-opacity="0.734375"/>
  <rect x="5" y="12" width="1" height="1" fill="rgb(221,221,221)"/>
  <rect x="6" y="12" width="1" height="1" fill="rgb(135,135,135)"/>
  <rect x="7" y="12" width="1" height="1" fill="rgb(3,0,0)" fill-opacity="0.3828125"/>
  <rect x="8" y="12" width="6" height="1" fill="rgb(255,0,0)" fill-opacity="0.015625"/>
  <rect x="14" y="12" width="1" height="1" fill="rgb(3,0,0)" fill-opacity="0.3828125"/>
  <rect x="15" y="12" width="1" height="1" fill="rgb(147,147,147)"/>
  <rect x="16" y="12" width="1" height="1" fill="rgb(245,245,245)"/>
  <rect x="17" y="12" width="1" height="1" fill="rgb(5,4,4)" fill-opacity="0.734375"/>
  <rect x="18" y="12" width="1" height="1" fill="rgb(255,0,0)" fill-opacity="0.015625"/>
  <rect x="19" y="12" width="2" height="1" fill="rgb(255,255,255)" fill-opacity="0.0078125"/>
  <rect x="0" y="13" width="3" height="1" fill="rgb(255,255,255)" fill-opacity="0.0078125"/>
  <rect x="3" y="13" width="1" height="1" fill="rgb(255,0,0)" fill-opacity="0.015625"/>
  <rect x="4" y="13" width="1" height="1" fill="rgb(2,0,0)" fill-opacity="0.4921875"/>
  <rect x="5" y="13" width="1" height="1" fill="rgb(160,160,160)"/>
  <rect x="6" y="13" width="1" height="1" fill="rgb(229,229,229)"/>
  <rect x="7" y="13" width="1" height="1" fill="rgb(35,35,35)" fill-opacity="0.921875"/>
  <rect x="8" y="13" width="1" height="1" fill="rgb(21,0,0)" fill-opacity="0.1015625"/>
  <rect x="9" y="13" width="4" height="1" fill="rgb(255,0,0)" fill-opacity="0.015625"/>
  <rect x="13" y="13" width="1" height="1" fill="rgb(21,0,0)" fill-opacity="0.1015625"/>
  <rect x="14" y="13" width="1" height="1" fill="rgb(37,37,37)" fill-opacity="0.921875"/>
  <rect x="15" y="13" width="1" height="1" fill="rgb(244,244,244)"/>
  <rect x="16" y="13" width="1" height="1" fill="rgb(174,174,174)"/>
  <rect x="17" y="13" width="1" height="1" fill="rgb(2,0,0)" fill-opacity="0.4921875"/>
  <rect x="18" y="13" width="1" height="1" fill="rgb(255,0,0)" fill-opacity="0.015625"/>
  <rect x="19" y="13" width="2" height="1" fill="rgb(255,255,255)" fill-opacity="0.0078125"/>
  <rect x="0" y="14" width="3" height="1" fill="rgb(255,255,255)" fill-opacity="0.0078125"/>
  <rect x="3" y="14" width="1" height="1" fill="rgb(255,0,0)" fill-opacity="0.015625"/>
  <rect x="4" y="14" width="1" height="1" fill="rgb(28,0,0)" fill-opacity="0.078125"/>
  <rect x="5" y="14" width="1" height="1" fill="rgb(29,29,29)" fill-opacity="0.90625"/>
  <rect x="6" y="14" width="1" height="1" fill="rgb(230,230,230)"/>
  <rect x="7" y="14" width="1" height="1" fill="rgb(199,199,199)"/>
  <rect x="8" y="14" width="1" height="1" fill="rgb(37,37,37)" fill-opacity="0.921875"/>
  <rect x="9" y="14" width="1" height="1" fill="rgb(3,0,0)" fill-opacity="0.3828125"/>
  <rect x="10" y="14" width="2" height="1" fill="rgb(15,0,0)" fill-opacity="0.140625"/>
  <rect x="12" y="14" width="1" height="1" fill="rgb(3,0,0)" fill-opacity="0.3828125"/>
  <rect x="13" y="14" width="1" height="1" fill="rgb(37,37,37)" fill-opacity="0.921875"/>
  <rect x="14" y="14" width="1" height="1" fill="rgb(205,205,205)"/>
  <rect x="15" y="14" width="1" height="1" fill="rgb(240,240,240)"/>
  <rect x="16" y="14" width="1" height="1" fill="rgb(31,31,31)" fill-opacity="0.90625"/>
  <rect x="17" y="14" width="1" height="1" fill="rgb(28,0,0)" fill-opacity="0.078125"/>
  <rect x="18" y="14" width="1" height="1" fill="rgb(255,0,0)" fill-opacity="0.015625"/>
  <rect x="19" y="14" width="2" height="1" fill="rgb(255,255,255)" fill-opacity="0.0078125"/>
  <rect x="0" y="15" width="3" height="1" fill="rgb(255,255,255)" fill-opacity="0.0078125"/>
  <rect x="3" y="15" width="1" height="1" fill="rgb(4,55,132)" fill-opacity="0.734375"/>
  <rect x="4" y="15" width="1" height="1" fill="rgb(0,51,128)" fill-opacity="0.8046875"/>
  <rect x="5" y="15" width="1" height="1" fill="rgb(0,35,87)" fill-opacity="0.859375"/>
  <rect x="6" y="15" width="1" height="1" fill="rgb(74,74,75)"/>
  <rect x="7" y="15" width="1" height="1" fill="rgb(238,238,238)"/>
  <rect x="8" y="15" width="1" height="1" fill="rgb(244,244,244)"/>
  <rect x="9" y="15" width="1" height="1" fill="rgb(147,147,147)"/>
  <rect x="10" y="15" width="2" height="1" fill="rgb(96,96,96)"/>
  <rect x="12" y="15" width="1" height="1" fill="rgb(147,147,147)"/>
  <rect x="13" y="15" width="1" height="1" fill="rgb(244,244,244)"/>
  <rect x="14" y="15" width="1" height="1" fill="rgb(240,240,240)"/>
  <rect x="15" y="15" width="1" height="1" fill="rgb(76,76,77)"/>
  <rect x="16" y="15" width="1" height="1" fill="rgb(0,35,87)" fill-opacity="0.859375"/>
  <rect x="17" y="15" width="1" height="1" fill="rgb(0,51,128)" fill-opacity="0.8046875"/>
  <rect x="18" y="15" width="1" height="1" fill="rgb(4,55,132)" fill-opacity="0.734375"/>
  <rect x="19" y="15" width="2" height="1" fill="rgb(255,255,255)" fill-opacity="0.0078125"/>
  <rect x="0" y="16" width="3" height="1" fill="rgb(255,255,255)" fill-opacity="0.0078125"/>
  <rect x="3" y="16" width="1" height="1" fill="rgb(0,51,128)" fill-opacity="0.8046875"/>
  <rect x="4" y="16" width="1" height="1" fill="rgb(204,225,255)" fill-opacity="0.8046875"/>
  <rect x="5" y="16" width="1" height="1" fill="rgb(193,218,255)" fill-opacity="0.8046875"/>
  <rect x="6" y="16" width="1" height="1" fill="rgb(0,35,87)" fill-opacity="0.859375"/>
  <rect x="7" y="16" width="1" height="1" fill="rgb(31,31,31)" fill-opacity="0.90625"/>
  <rect x="8" y="16" width="1" height="1" fill="rgb(174,174,174)"/>
  <rect x="9" y="16" width="1" height="1" fill="rgb(245,245,245)"/>
  <rect x="10" y="16" width="2" height="1" fill="rgb(255,255,255)"/>
  <rect x="12" y="16" width="1" height="1" fill="rgb(245,245,245)"/>
  <rect x="13" y="16" width="1" height="1" fill="rgb(174,174,174)"/>
  <rect x="14" y="16" width="1" height="1" fill="rgb(31,31,31)" fill-opacity="0.90625"/>
  <rect x="15" y="16" width="1" height="1" fill="rgb(0,35,87)" fill-opacity="0.859375"/>
  <rect x="16" y="16" width="1" height="1" fill="rgb(204,225,255)" fill-opacity="0.8046875"/>
  <rect x="17" y="16" width="1" height="1" fill="rgb(193,218,255)" fill-opacity="0.8046875"/>
  <rect x="18" y="16" width="1" height="1" fill="rgb(0,51,128)" fill-opacity="0.8046875"/>
  <rect x="19" y="16" width="2" height="1" fill="rgb(255,255,255)" fill-opacity="0.0078125"/>
  <rect x="0" y="17" width="3" height="1" fill="rgb(255,255,255)" fill-opacity="0.0078125"/>
  <rect x="3" y="17" width="1" height="1" fill="rgb(0,51,128)" fill-opacity="0.8046875"/>
  <rect x="4" y="17" width="1" height="1" fill="rgb(193,218,255)" fill-opacity="0.8046875"/>
  <rect x="5" y="17" width="1" height="1" fill="rgb(128,179,255)" fill-opacity="0.8046875"/>
  <rect x="6" y="17" width="1" height="1" fill="rgb(0,51,128)" fill-opacity="0.8046875"/>
  <rect x="7" y="17" width="1" height="1" fill="rgb(28,0,0)" fill-opacity="0.078125"/>
  <rect x="8" y="17" width="1" height="1" fill="rgb(2,0,0)" fill-opacity="0.4921875"/>
  <rect x="9" y="17" width="1" height="1" fill="rgb(5,4,4)" fill-opacity="0.734375"/>
  <rect x="10" y="17" width="2" height="1" fill="rgb(48,48,48)" fill-opacity="0.9375"/>
  <rect x="12" y="17" width="1" height="1" fill="rgb(5,4,4)" fill-opacity="0.734375"/>
  <rect x="13" y="17" width="1" height="1" fill="rgb(2,0,0)" fill-opacity="0.4921875"/>
  <rect x="14" y="17" width="1" height="1" fill="rgb(28,0,0)" fill-opacity="0.078125"/>
  <rect x="15" y="17" width="1" height="1" fill="rgb(0,51,128)" fill-opacity="0.8046875"/>
  <rect x="16" y="17" width="1" height="1" fill="rgb(193,218,255)" fill-opacity="0.8046875"/>
  <rect x="17" y="17" width="1" height="1" fill="rgb(128,179,255)" fill-opacity="0.8046875"/>
  <rect x="18" y="17" width="1" height="1" fill="rgb(0,51,128)" fill-opacity="0.8046875"/>
  <rect x="19" y="17" width="2" height="1" fill="rgb(255,255,255)" fill-opacity="0.0078125"/>
  <rect x="0" y="18" width="3" height="1" fill="rgb(255,255,255)" fill-opacity="0.0078125"/>
  <rect x="3" y="18" width="1" height="1" fill="rgb(4,55,132)" fill-opacity="0.734375"/>
  <rect x="4" y="18" width="2" height="1" fill="rgb(0,51,128)" fill-opacity="0.8046875"/>
  <rect x="6" y="18" width="1" height="1" fill="rgb(4,55,132)" fill-opacity="0.734375"/>
  <rect x="7" y="18" width="8" height="1" fill="rgb(255,0,0)" fill-opacity="0.015625"/>
  <rect x="15" y="18" width="1" height="1" fill="rgb(4,55,132)" fill-opacity="0.734375"/>
  <rect x="16" y="18" width="2" height="1" fill="rgb(0,51,128)" fill-opacity="0.8046875"/>
  <rect x="18" y="18" width="1" height="1" fill="rgb(4,55,132)" fill-opacity="0.734375"/>
  <rect x="19" y="18" width="2" height="1" fill="rgb(255,255,255)" fill-opacity="0.0078125"/>
  <rect x="0" y="19" width="21" height="1" fill="rgb(255,255,255)" fill-opacity="0.0078125"/>
  <rect x="0" y="20" width="21" height="1" fill="rgb(255,255,255)" fill-opacity="0.0078125"/>
</svg>