<svg xmlns="http://www.w3.org/2000/svg" shape-rendering="crispEdges" width="21" height="21" viewBox="0 0 21 21">
  <rect x="0" y="0" width="21" height="1" fill="rgb(255,255,255)" fill-opacity="0.0078125"/>
  <rect x="0" y="1" width="21" height="1" fill="rgb(255,255,255)" fill-opacity="0.0078125"/>
  <rect x="0" y="2" width="21" height="1" fill="rgb(255,255,255)" fill-opacity="0.0078125"/>
  <rect x="0" y="3" width="21" height="1" fill="rgb(255,255,255)" fill-opacity="0.0078125"/>
  <rect x="0" y="4" width="8" height="1" fill="rgb(255,255,255)" fill-opacity="0.0078125"/>
  <rect x="8" y="4" width="1" height="1" fill="rgb(45,28,0)" fill-opacity="0.2890625"/>
  <rect x="9" y="4" width="1" height="1" fill="rgb(49,26,2)" fill-opacity="0.9296875"/>
  <rect x="10" y="4" width="1" height="1" fill="rgb(47,25,1)" fill-opacity="0.9453125"/>
  <rect x="11" y="4" width="1" height="1" fill="rgb(44,23,0)" fill-opacity="0.578125"/>
  <rect x="12" y="4" width="1" height="1" fill="rgb(44,22,0)" fill-opacity="0.2734375"/>
  <rect x="13" y="4" width="1" height="1" fill="rgb(57,28,0)" fill-opacity="0.0390625"/>
  <rect x="14" y="4" width="7" height="1" fill="rgb(255,255,255)" fill-opacity="0.0078125"/>
  <rect x="0" y="5" width="8" height="1" fill="rgb(255,255,255)" fill-opacity="0.0078125"/>
  <rect x="8" y="5" width="1" height="1" fill="rgb(50,27,2)" fill-opacity="0.9296875"/>
  <rect x="9" y="5" width="1" height="1" fill="rgb(254,221,187)"/>
  <rect x="10" y="5" width="1" height="1" fill="rgb(255,214,171)"/>
  <rect x="11" y="5" width="1" height="1" fill="rgb(165,109,50)"/>
  <rect x="12" y="5" width="1" height="1" fill="rgb(135,87,37)"/>
  <rect x="13" y="5" width="1" height="1" fill="rgb(66,39,10)" fill-opacity="0.921875"/>
  <rect x="14" y="5" width="1" height="1" fill="rgb(44,23,0)" fill-opacity="0.390625"/>
  <rect x="15" y="5" width="1" height="1" fill="rgb(0,0,0)" fill-opacity="0.015625"/>
  <rect x="16" y="5" width="5" height="1" fill="rgb(255,255,255)" fill-opacity="0.0078125"/>
  <rect x="0" y="6" width="8" height="1" fill="rgb(255,255,255)" fill-opacity="0.0078125"/>
  <rect x="8" y="6" width="1" height="1" fill="rgb(50,27,2)" fill-opacity="0.9296875"/>
  <rect x="9" y="6" width="1" height="1" fill="rgb(254,213,171)"/>
  <rect x="10" y="6" width="1" height="1" fill="rgb(255,173,85)"/>
  <rect x="11" y="6" width="1" height="1" fill="rgb(233,160,81)"/>
  <rect x="12" y="6" width="1" height="1" fill="rgb(255,176,90)"/>
  <rect x="13" y="6" width="1" height="1" fill="rgb(246,167,81)"/>
  <rect x="14" y="6" width="1" height="1" fill="rgb(144,94,41)"/>
  <rect x="15" y="6" width="1" height="1" fill="rgb(44,23,0)" fill-opacity="0.6640625"/>
  <rect x="16" y="6" width="5" height="1" fill="rgb(255,255,255)" fill-opacity="0.0078125"/>
  <rect x="0" y="7" width="8" height="1" fill="rgb(255,255,255)" fill-opacity="0.0078125"/>
  <rect x="8" y="7" width="1" height="1" fill="rgb(44,26,0)" fill-opacity="0.28125"/>
  <rect x="9" y="7" width="1" height="1" fill="rgb(48,26,2)" fill-opacity="0.9375"/>
  <rect x="10" y="7" width="1" height="1" fill="rgb(46,24,1)" fill-opacity="0.96875"/>
  <rect x="11" y="7" width="1" height="1" fill="rgb(54,29,3)" fill-opacity="0.90625"/>
  <rect x="12" y="7" width="1" height="1" fill="rgb(94,59,23)" fill-opacity="0.9921875"/>
  <rect x="13" y="7" width="1" height="1" fill="rgb(209,143,72)"/>
  <rect x="14" y="7" width="1" height="1" fill="rgb(255,174,86)"/>
  <rect x="15" y="7" width="1" height="1" fill="rgb(134,88,37)"/>
  <rect x="16" y="7" width="1" height="1" fill="rgb(43,23,0)" fill-opacity="0.3984375"/>
  <rect x="17" y="7" width="4" height="1" fill="rgb(255,255,255)" fill-opacity="0.0078125"/>
  <rect x="0" y="8" width="12" height="1" fill="rgb(255,255,255)" fill-opacity="0.0078125"/>
  <rect x="12" y="8" width="1" height="1" fill="rgb(45,19,0)" fill-opacity="0.1640625"/>
  <rect x="13" y="8" width="1" height="1" fill="rgb(48,26,2)" fill-opacity="0.8125"/>
  <rect x="14" y="8" width="1" height="1" fill="rgb(215,146,75)"/>
  <rect x="15" y="8" width="1" height="1" fill="rgb(247,168,85)"/>
  <rect x="16" y="8" width="1" height="1" fill="rgb(54,29,4)" fill-opacity="0.84375"/>
  <rect x="17" y="8" width="4" height="1" fill="rgb(255,255,255)" fill-opacity="0.0078125"/>
  <rect x="0" y="9" width="13" height="1" fill="rgb(255,255,255)" fill-opacity="0.0078125"/>
  <rect x="13" y="9" width="1" height="1" fill="rgb(44,24,0)" fill-opacity="0.2578125"/>
  <rect x="14" y="9" width="1" height="1" fill="rgb(133,90,43)"/>
  <rect x="15" y="9" width="1" height="1" fill="rgb(255,178,94)"/>
  <rect x="16" y="9" width="1" height="1" fill="rgb(90,55,19)" fill-opacity="0.9921875"/>
  <rect x="17" y="9" width="1" height="1" fill="rgb(36,36,0)" fill-opacity="0.03125"/>
  <rect x="18" y="9" width="3" height="1" fill="rgb(255,255,255)" fill-opacity="0.0078125"/>
  <rect x="0" y="10" width="13" height="1" fill="rgb(255,255,255)" fill-opacity="0.0078125"/>
  <rect x="13" y="10" width="1" height="1" fill="rgb(42,21,0)" fill-opacity="0.3359375"/>
  <rect x="14" y="10" width="1" height="1" fill="rgb(153,105,54)"/>
  <rect x="15" y="10" width="1" height="1" fill="rgb(255,181,101)"/>
  <rect x="16" y="10" width="1" height="1" fill="rgb(80,49,17)" fill-opacity="0.9765625"/>
  <rect x="17" y="10" width="1" height="1" fill="rgb(51,0,0)" fill-opacity="0.0234375"/>
  <rect x="18" y="10" width="3" height="1" fill="rgb(255,255,255)" fill-opacity="0.0078125"/>
  <rect x="0" y="11" width="12" height="1" fill="rgb(255,255,255)" fill-opacity="0.0078125"/>
  <rect x="12" y="11" width="1" height="1" fill="rgb(43,43,0)" fill-opacity="0.03125"/>
  <rect x="13" y="11" width="1" height="1" fill="rgb(44,23,0)" fill-opacity="0.75"/>
  <rect x="14" y="11" width="1" height="1" fill="rgb(223,161,95)"/>
  <rect x="15" y="11" width="1" height="1" fill="rgb(228,164,94)"/>
  <rect x="16" y="11" width="1" height="1" fill="rgb(43,22,0)" fill-opacity="0.71875"/>
  <rect x="17" y="11" width="4" height="1" fill="rgb(255,255,255)" fill-opacity="0.0078125"/>
  <rect x="0" y="12" width="11" height="1" fill="rgb(255,255,255)" fill-opacity="0.0078125"/>
  <rect x="11" y="12" width="1" height="1" fill="rgb(46,23,0)" fill-opacity="0.046875"/>
  <rect x="12" y="12" width="1" height="1" fill="rgb(43,22,0)" fill-opacity="0.6953125"/>
  <rect x="13" y="12" width="1" height="1" fill="rgb(181,132,80)"/>
  <rect x="14" y="12" width="1" height="1" fill="rgb(255,190,120)"/>
  <rect x="15" y="12" width="1" height="1" fill="rgb(155,108,59)"/>
  <rect x="16" y="12" width="1" height="1" fill="rgb(44,23,0)" fill-opacity="0.390625"/>
  <rect x="17" y="12" width="4" height="1" fill="rgb(255,255,255)" fill-opacity="0.0078125"/>
  <rect x="0" y="13" width="9" height="1" fill="rgb(255,255,255)" fill-opacity="0.0078125"/>
  <rect x="9" y="13" width="1" height="1" fill="rgb(57,28,0)" fill-opacity="0.0390625"/>
  <rect x="10" y="13" width="1" height="1" fill="rgb(44,23,0)" fill-opacity="0.4375"/>
  <rect x="11" y="13" width="1" height="1" fill="rgb(69,43,16)" fill-opacity="0.9296875"/>
  <rect x="12" y="13" width="1" height="1" fill="rgb(190,143,92)"/>
  <rect x="13" y="13" width="1" height="1" fill="rgb(255,196,132)"/>
  <rect x="14" y="13" width="1" height="1" fill="rgb(191,140,86)"/>
  <rect x="15" y="13" width="1" height="1" fill="rgb(45,23,1)" fill-opacity="0.7578125"/>
  <rect x="16" y="13" width="1" height="1" fill="rgb(51,0,0)" fill-opacity="0.0234375"/>
  <rect x="17" y="13" width="4" height="1" fill="rgb(255,255,255)" fill-opacity="0.0078125"/>
  <rect x="0" y="14" width="5" height="1" fill="rgb(255,255,255)" fill-opacity="0.0078125"/>
  <rect x="5" y="14" width="1" height="1" fill="rgb(44,26,0)" fill-opacity="0.2734375"/>
  <rect x="6" y="14" width="1" height="1" fill="rgb(48,26,2)" fill-opacity="0.9296875"/>
  <rect x="7" y="14" width="1" height="1" fill="rgb(47,25,1)" fill-opacity="0.96875"/>
  <rect x="8" y="14" width="1" height="1" fill="rgb(63,37,13)" fill-opacity="0.9140625"/>
  <rect x="9" y="14" width="1" height="1" fill="rgb(107,77,42)" fill-opacity="0.9921875"/>
  <rect x="10" y="14" width="1" height="1" fill="rgb(176,135,91)"/>
  <rect x="11" y="14" width="1" height="1" fill="rgb(249,199,144)"/>
  <rect x="12" y="14" width="1" height="1" fill="rgb(255,202,144)"/>
  <rect x="13" y="14" width="1" height="1" fill="rgb(194,147,95)"/>
  <rect x="14" y="14" width="1" height="1" fill="rgb(48,26,3)" fill-opacity="0.78125"/>
  <rect x="15" y="14" width="1" height="1" fill="rgb(43,21,0)" fill-opacity="0.0546875"/>
  <rect x="16" y="14" width="5" height="1" fill="rgb(255,255,255)" fill-opacity="0.0078125"/>
  <rect x="0" y="15" width="5" height="1" fill="rgb(255,255,255)" fill-opacity="0.0078125"/>
  <rect x="5" y="15" width="1" height="1" fill="rgb(60,36,13)" fill-opacity="0.9296875"/>
  <rect x="6" y="15" width="1" height="1" fill="rgb(255,234,211)"/>
  <rect x="7" y="15" width="1" height="1" fill="rgb(255,228,198)"/>
  <rect x="8" y="15" width="1" height="1" fill="rgb(222,178,131)"/>
  <rect x="9" y="15" width="1" height="1" fill="rgb(255,213,168)"/>
  <rect x="10" y="15" width="1" height="1" fill="rgb(255,210,162)"/>
  <rect x="11" y="15" width="1" height="1" fill="rgb(217,172,123)"/>
  <rect x="12" y="15" width="1" height="1" fill="rgb(108,77,41)" fill-opacity="0.9921875"/>
  <rect x="13" y="15" width="1" height="1" fill="rgb(43,22,0)" fill-opacity="0.6328125"/>
  <rect x="14" y="15" width="1" height="1" fill="rgb(36,18,0)" fill-opacity="0.0625"/>
  <rect x="15" y="15" width="6" height="1" fill="rgb(255,255,255)" fill-opacity="0.0078125"/>
  <rect x="0" y="16" width="5" height="1" fill="rgb(255,255,255)" fill-opacity="0.0078125"/>
  <rect x="5" y="16" width="1" height="1" fill="rgb(59,34,10)" fill-opacity="0.9375"/>
  <rect x="6" y="16" width="1" height="1" fill="rgb(255,228,200)"/>
  <rect x="7" y="16" width="1" height="1" fill="rgb(255,202,145)"/>
  <rect x="8" y="16" width="1" height="1" fill="rgb(163,115,67)"/>
  <rect x="9" y="16" width="1" height="1" fill="rgb(157,121,82)"/>
  <rect x="10" y="16" width="1" height="1" fill="rgb(103,74,40)" fill-opacity="0.9921875"/>
  <rect x="11" y="16" width="1" height="1" fill="rgb(44,22,0)" fill-opacity="0.6484375"/>
  <rect x="12" y="16" width="1" height="1" fill="rgb(46,20,0)" fill-opacity="0.15625"/>
  <rect x="13" y="16" width="8" height="1" fill="rgb(255,255,255)" fill-opacity="0.0078125"/>
  <rect x="0" y="17" width="5" height="1" fill="rgb(255,255,255)" fill-opacity="0.0078125"/>
  <rect x="5" y="17" width="1" height="1" fill="rgb(44,26,0)" fill-opacity="0.2734375"/>
  <rect x="6" y="17" width="1" height="1" fill="rgb(49,26,2)" fill-opacity="0.9296875"/>
  <rect x="7" y="17" width="1" height="1" fill="rgb(47,25,1)" fill-opacity="0.9453125"/>
  <rect x="8" y="17" width="1" height="1" fill="rgb(43,24,0)" fill-opacity="0.5546875"/>
  <rect x="9" y="17" width="1" height="1" fill="rgb(45,22,0)" fill-opacity="0.2265625"/>
  <rect x="10" y="17" width="1" height="1" fill="rgb(36,18,0)" fill-opacity="0.0625"/>
  <rect x="11" y="17" width="10" height="1" fill="rgb(255,255,255)" fill-opacity="0.0078125"/>
  <rect x="0" y="18" width="21" height="1" fill="rgb(255,255,255)" fill-opacity="0.0078125"/>
  <rect x="0" y="19" width="21" height="1" fill="rgb(255,255,255)" fill-opacity="0.0078125"/>
  <rect x="0" y="20" width="21" height="1" fill="rgb(255,255,255)" fill-opacity="0.0078125"/>
</svg>