<svg xmlns="http://www.w3.org/2000/svg" shape-rendering="crispEdges" width="21" height="21" viewBox="0 0 21 21">
  <rect x="0" y="0" width="21" height="1" fill="rgb(255,255,255)" fill-opacity="0.0078125"/>
  <rect x="0" y="1" width="21" height="1" fill="rgb(255,255,255)" fill-opacity="0.0078125"/>
  <rect x="0" y="2" width="21" height="1" fill="rgb(255,255,255)" fill-opacity="0.0078125"/>
  <rect x="0" y="3" width="7" height="1" fill="rgb(255,255,255)" fill-opacity="0.0078125"/>
  <rect x="7" y="3" width="1" height="1" fill="rgb(57,57,57)" fill-opacity="0.9140625"/>
  <rect x="8" y="3" width="8" height="1" fill="rgb(51,51,51)"/>
  <rect x="16" y="3" width="1" height="1" fill="rgb(57,57,57)" fill-opacity="0.9140625"/>
  <rect x="17" y="3" width="4" height="1" fill="rgb(255,255,255)" fill-opacity="0.0078125"/>
  <rect x="0" y="4" width="7" height="1" fill="rgb(255,255,255)" fill-opacity="0.0078125"/>
  <rect x="7" y="4" width="1" height="1" fill="rgb(51,51,51)"/>
  <rect x="8" y="4" width="1" height="1" fill="rgb(238,183,176)"/>
  <rect x="9" y="4" width="1" height="1" fill="rgb(239,187,180)"/>
  <rect x="10" y="4" width="1" height="1" fill="rgb(248,248,248)"/>
  <rect x="11" y="4" width="1" height="1" fill="rgb(246,246,246)"/>
  <rect x="12" y="4" width="1" height="1" fill="rgb(225,129,117)"/>
  <rect x="13" y="4" width="1" height="1" fill="rgb(221,110,96)"/>
  <rect x="14" y="4" width="1" height="1" fill="rgb(242,242,242)"/>
  <rect x="15" y="4" width="1" height="1" fill="rgb(238,238,238)"/>
  <rect x="16" y="4" width="1" height="1" fill="rgb(51,51,51)"/>
  <rect x="17" y="4" width="4" height="1" fill="rgb(255,255,255)" fill-opacity="0.0078125"/>
  <rect x="0" y="5" width="7" height="1" fill="rgb(255,255,255)" fill-opacity="0.0078125"/>
  <rect x="7" y="5" width="1" height="1" fill="rgb(51,51,51)"/>
  <rect x="8" y="5" width="1" height="1" fill="rgb(241,196,190)"/>
  <rect x="9" y="5" width="1" height="1" fill="rgb(200,23,0)"/>
  <rect x="10" y="5" width="2" height="1" fill="rgb(236,236,236)"/>
  <rect x="12" y="5" width="2" height="1" fill="rgb(200,23,0)"/>
  <rect x="14" y="5" width="2" height="1" fill="rgb(236,236,236)"/>
  <rect x="16" y="5" width="1" height="1" fill="rgb(51,51,51)"/>
  <rect x="17" y="5" width="4" height="1" fill="rgb(255,255,255)" fill-opacity="0.0078125"/>
  <rect x="0" y="6" width="7" height="1" fill="rgb(255,255,255)" fill-opacity="0.0078125"/>
  <rect x="7" y="6" width="1" height="1" fill="rgb(51,51,51)"/>
  <rect x="8" y="6" width="1" height="1" fill="rgb(249,249,249)"/>
  <rect x="9" y="6" width="1" height="1" fill="rgb(236,236,236)"/>
  <rect x="10" y="6" width="2" height="1" fill="rgb(200,23,0)"/>
  <rect x="12" y="6" width="2" height="1" fill="rgb(236,236,236)"/>
  <rect x="14" y="6" width="2" height="1" fill="rgb(200,23,0)"/>
  <rect x="16" y="6" width="1" height="1" fill="rgb(51,51,51)"/>
  <rect x="17" y="6" width="4" height="1" fill="rgb(255,255,255)" fill-opacity="0.0078125"/>
  <rect x="0" y="7" width="7" height="1" fill="rgb(255,255,255)" fill-opacity="0.0078125"/>
  <rect x="7" y="7" width="1" height="1" fill="rgb(51,51,51)"/>
  <rect x="8" y="7" width="1" height="1" fill="rgb(248,248,248)"/>
  <rect x="9" y="7" width="1" height="1" fill="rgb(235,235,235)"/>
  <rect x="10" y="7" width="2" height="1" fill="rgb(198,23,0)"/>
  <rect x="12" y="7" width="1" height="1" fill="rgb(233,233,233)"/>
  <rect x="13" y="7" width="1" height="1" fill="rgb(232,232,232)"/>
  <rect x="14" y="7" width="1" height="1" fill="rgb(196,23,0)"/>
  <rect x="15" y="7" width="1" height="1" fill="rgb(196,22,0)"/>
  <rect x="16" y="7" width="1" height="1" fill="rgb(51,51,51)"/>
  <rect x="17" y="7" width="4" height="1" fill="rgb(255,255,255)" fill-opacity="0.0078125"/>
  <rect x="0" y="8" width="7" height="1" fill="rgb(255,255,255)" fill-opacity="0.0078125"/>
  <rect x="7" y="8" width="1" height="1" fill="rgb(51,51,51)"/>
  <rect x="8" y="8" width="1" height="1" fill="rgb(215,155,147)"/>
  <rect x="9" y="8" width="1" height="1" fill="rgb(182,21,0)"/>
  <rect x="10" y="8" width="2" height="1" fill="rgb(215,215,215)"/>
  <rect x="12" y="8" width="2" height="1" fill="rgb(181,21,0)"/>
  <rect x="14" y="8" width="1" height="1" fill="rgb(213,213,213)"/>
  <rect x="15" y="8" width="1" height="1" fill="rgb(212,212,212)"/>
  <rect x="16" y="8" width="1" height="1" fill="rgb(51,51,51)"/>
  <rect x="17" y="8" width="4" height="1" fill="rgb(255,255,255)" fill-opacity="0.0078125"/>
  <rect x="0" y="9" width="5" height="1" fill="rgb(255,255,255)" fill-opacity="0.0078125"/>
  <rect x="5" y="9" width="1" height="1" fill="rgb(28,28,28)" fill-opacity="0.1796875"/>
  <rect x="6" y="9" width="1" height="1" fill="rgb(33,33,33)" fill-opacity="0.6171875"/>
  <rect x="7" y="9" width="1" height="1" fill="rgb(51,51,51)"/>
  <rect x="8" y="9" width="1" height="1" fill="rgb(195,134,126)"/>
  <rect x="9" y="9" width="1" height="1" fill="rgb(166,19,0)"/>
  <rect x="10" y="9" width="1" height="1" fill="rgb(196,196,196)"/>
  <rect x="11" y="9" width="1" height="1" fill="rgb(195,195,195)"/>
  <rect x="12" y="9" width="1" height="1" fill="rgb(165,19,0)"/>
  <rect x="13" y="9" width="1" height="1" fill="rgb(164,19,0)"/>
  <rect x="14" y="9" width="2" height="1" fill="rgb(193,193,193)"/>
  <rect x="16" y="9" width="1" height="1" fill="rgb(51,51,51)"/>
  <rect x="17" y="9" width="1" height="1" fill="rgb(38,38,38)" fill-opacity="0.7109375"/>
  <rect x="18" y="9" width="1" height="1" fill="rgb(28,28,28)" fill-opacity="0.1875"/>
  <rect x="19" y="9" width="2" height="1" fill="rgb(255,255,255)" fill-opacity="0.0078125"/>
  <rect x="0" y="10" width="4" height="1" fill="rgb(255,255,255)" fill-opacity="0.0078125"/>
  <rect x="4" y="10" width="1" height="1" fill="rgb(26,26,26)" fill-opacity="0.5390625"/>
  <rect x="5" y="10" width="1" height="1" fill="rgb(95,95,95)"/>
  <rect x="6" y="10" width="1" height="1" fill="rgb(144,144,144)"/>
  <rect x="7" y="10" width="1" height="1" fill="rgb(51,51,51)"/>
  <rect x="8" y="10" width="1" height="1" fill="rgb(186,186,186)"/>
  <rect x="9" y="10" width="1" height="1" fill="rgb(178,178,178)"/>
  <rect x="10" y="10" width="1" height="1" fill="rgb(150,17,0)"/>
  <rect x="11" y="10" width="1" height="1" fill="rgb(149,17,0)"/>
  <rect x="12" y="10" width="1" height="1" fill="rgb(176,176,176)"/>
  <rect x="13" y="10" width="1" height="1" fill="rgb(175,175,175)"/>
  <rect x="14" y="10" width="1" height="1" fill="rgb(148,17,0)"/>
  <rect x="15" y="10" width="1" height="1" fill="rgb(147,17,0)"/>
  <rect x="16" y="10" width="1" height="1" fill="rgb(85,85,85)"/>
  <rect x="17" y="10" width="1" height="1" fill="rgb(204,204,204)"/>
  <rect x="18" y="10" width="1" height="1" fill="rgb(30,30,30)" fill-opacity="0.828125"/>
  <rect x="19" y="10" width="2" height="1" fill="rgb(255,255,255)" fill-opacity="0.0078125"/>
  <rect x="0" y="11" width="4" height="1" fill="rgb(255,255,255)" fill-opacity="0.0078125"/>
  <rect x="4" y="11" width="1" height="1" fill="rgb(38,38,38)" fill-opacity="0.9140625"/>
  <rect x="5" y="11" width="1" height="1" fill="rgb(254,254,254)"/>
  <rect x="6" y="11" width="1" height="1" fill="rgb(216,216,216)"/>
  <rect x="7" y="11" width="1" height="1" fill="rgb(82,82,82)"/>
  <rect x="8" y="11" width="1" height="1" fill="rgb(165,165,165)"/>
  <rect x="9" y="11" width="1" height="1" fill="rgb(158,158,158)"/>
  <rect x="10" y="11" width="2" height="1" fill="rgb(133,15,0)"/>
  <rect x="12" y="11" width="1" height="1" fill="rgb(157,157,157)"/>
  <rect x="13" y="11" width="1" height="1" fill="rgb(156,156,156)"/>
  <rect x="14" y="11" width="1" height="1" fill="rgb(147,45,32)"/>
  <rect x="15" y="11" width="1" height="1" fill="rgb(206,160,154)"/>
  <rect x="16" y="11" width="1" height="1" fill="rgb(237,237,237)"/>
  <rect x="17" y="11" width="1" height="1" fill="rgb(211,211,211)"/>
  <rect x="18" y="11" width="1" height="1" fill="rgb(32,32,32)" fill-opacity="0.9140625"/>
  <rect x="19" y="11" width="2" height="1" fill="rgb(255,255,255)" fill-opacity="0.0078125"/>
  <rect x="0" y="12" width="4" height="1" fill="rgb(255,255,255)" fill-opacity="0.0078125"/>
  <rect x="4" y="12" width="1" height="1" fill="rgb(26,26,26)" fill-opacity="0.9140625"/>
  <rect x="5" y="12" width="1" height="1" fill="rgb(228,228,228)"/>
  <rect x="6" y="12" width="1" height="1" fill="rgb(231,231,231)"/>
  <rect x="7" y="12" width="1" height="1" fill="rgb(252,252,252)"/>
  <rect x="8" y="12" width="1" height="1" fill="rgb(205,183,180)"/>
  <rect x="9" y="12" width="1" height="1" fill="rgb(130,36,23)"/>
  <rect x="10" y="12" width="1" height="1" fill="rgb(139,139,139)"/>
  <rect x="11" y="12" width="1" height="1" fill="rgb(138,138,138)"/>
  <rect x="12" y="12" width="1" height="1" fill="rgb(127,33,21)"/>
  <rect x="13" y="12" width="1" height="1" fill="rgb(195,151,145)"/>
  <rect x="14" y="12" width="1" height="1" fill="rgb(252,252,252)"/>
  <rect x="15" y="12" width="1" height="1" fill="rgb(226,226,226)"/>
  <rect x="16" y="12" width="1" height="1" fill="rgb(142,142,142)"/>
  <rect x="17" y="12" width="1" height="1" fill="rgb(144,144,144)"/>
  <rect x="18" y="12" width="1" height="1" fill="rgb(26,26,26)" fill-opacity="0.9140625"/>
  <rect x="19" y="12" width="2" height="1" fill="rgb(255,255,255)" fill-opacity="0.0078125"/>
  <rect x="0" y="13" width="4" height="1" fill="rgb(255,255,255)" fill-opacity="0.0078125"/>
  <rect x="4" y="13" width="1" height="1" fill="rgb(26,26,26)" fill-opacity="0.9140625"/>
  <rect x="5" y="13" width="1" height="1" fill="rgb(219,219,219)"/>
  <rect x="6" y="13" width="1" height="1" fill="rgb(179,179,179)"/>
  <rect x="7" y="13" width="1" height="1" fill="rgb(203,203,203)"/>
  <rect x="8" y="13" width="1" height="1" fill="rgb(241,238,238)"/>
  <rect x="9" y="13" width="1" height="1" fill="rgb(249,246,245)"/>
  <rect x="10" y="13" width="1" height="1" fill="rgb(187,187,187)"/>
  <rect x="11" y="13" width="1" height="1" fill="rgb(186,186,186)"/>
  <rect x="12" y="13" width="1" height="1" fill="rgb(247,244,243)"/>
  <rect x="13" y="13" width="1" height="1" fill="rgb(234,231,231)"/>
  <rect x="14" y="13" width="1" height="1" fill="rgb(155,155,155)"/>
  <rect x="15" y="13" width="1" height="1" fill="rgb(103,103,103)"/>
  <rect x="16" y="13" width="1" height="1" fill="rgb(106,106,106)"/>
  <rect x="17" y="13" width="1" height="1" fill="rgb(142,142,142)"/>
  <rect x="18" y="13" width="1" height="1" fill="rgb(26,26,26)" fill-opacity="0.9140625"/>
  <rect x="19" y="13" width="2" height="1" fill="rgb(255,255,255)" fill-opacity="0.0078125"/>
  <rect x="0" y="14" width="4" height="1" fill="rgb(255,255,255)" fill-opacity="0.0078125"/>
  <rect x="4" y="14" width="1" height="1" fill="rgb(26,26,26)" fill-opacity="0.890625"/>
  <rect x="5" y="14" width="1" height="1" fill="rgb(212,212,212)"/>
  <rect x="6" y="14" width="1" height="1" fill="rgb(199,199,199)"/>
  <rect x="7" y="14" width="1" height="1" fill="rgb(181,181,181)"/>
  <rect x="8" y="14" width="1" height="1" fill="rgb(180,180,180)"/>
  <rect x="9" y="14" width="1" height="1" fill="rgb(211,211,211)"/>
  <rect x="10" y="14" width="1" height="1" fill="rgb(245,245,245)"/>
  <rect x="11" y="14" width="1" height="1" fill="rgb(240,240,240)"/>
  <rect x="12" y="14" width="1" height="1" fill="rgb(167,167,167)"/>
  <rect x="13" y="14" width="1" height="1" fill="rgb(105,105,105)"/>
  <rect x="14" y="14" width="1" height="1" fill="rgb(104,104,104)"/>
  <rect x="15" y="14" width="1" height="1" fill="rgb(124,124,124)"/>
  <rect x="16" y="14" width="1" height="1" fill="rgb(140,140,140)"/>
  <rect x="17" y="14" width="1" height="1" fill="rgb(93,93,93)"/>
  <rect x="18" y="14" width="1" height="1" fill="rgb(26,26,26)" fill-opacity="0.7421875"/>
  <rect x="19" y="14" width="2" height="1" fill="rgb(255,255,255)" fill-opacity="0.0078125"/>
  <rect x="0" y="15" width="4" height="1" fill="rgb(255,255,255)" fill-opacity="0.0078125"/>
  <rect x="4" y="15" width="1" height="1" fill="rgb(27,27,27)" fill-opacity="0.375"/>
  <rect x="5" y="15" width="1" height="1" fill="rgb(51,51,51)" fill-opacity="0.96875"/>
  <rect x="6" y="15" width="1" height="1" fill="rgb(154,154,154)"/>
  <rect x="7" y="15" width="1" height="1" fill="rgb(210,210,210)"/>
  <rect x="8" y="15" width="1" height="1" fill="rgb(194,194,194)"/>
  <rect x="9" y="15" width="2" height="1" fill="rgb(180,180,180)"/>
  <rect x="11" y="15" width="1" height="1" fill="rgb(105,105,105)"/>
  <rect x="12" y="15" width="1" height="1" fill="rgb(103,103,103)"/>
  <rect x="13" y="15" width="1" height="1" fill="rgb(123,123,123)"/>
  <rect x="14" y="15" width="1" height="1" fill="rgb(143,143,143)"/>
  <rect x="15" y="15" width="1" height="1" fill="rgb(105,105,105)"/>
  <rect x="16" y="15" width="1" height="1" fill="rgb(42,42,42)" fill-opacity="0.9765625"/>
  <rect x="17" y="15" width="1" height="1" fill="rgb(26,26,26)" fill-opacity="0.5390625"/>
  <rect x="18" y="15" width="1" height="1" fill="rgb(32,32,32)" fill-opacity="0.0703125"/>
  <rect x="19" y="15" width="2" height="1" fill="rgb(255,255,255)" fill-opacity="0.0078125"/>
  <rect x="0" y="16" width="5" height="1" fill="rgb(255,255,255)" fill-opacity="0.0078125"/>
  <rect x="5" y="16" width="1" height="1" fill="rgb(23,23,23)" fill-opacity="0.09375"/>
  <rect x="6" y="16" width="1" height="1" fill="rgb(26,26,26)" fill-opacity="0.5859375"/>
  <rect x="7" y="16" width="1" height="1" fill="rgb(63,63,63)" fill-opacity="0.9921875"/>
  <rect x="8" y="16" width="1" height="1" fill="rgb(165,165,165)"/>
  <rect x="9" y="16" width="1" height="1" fill="rgb(205,205,205)"/>
  <rect x="10" y="16" width="1" height="1" fill="rgb(189,189,189)"/>
  <rect x="11" y="16" width="1" height="1" fill="rgb(120,120,120)"/>
  <rect x="12" y="16" width="1" height="1" fill="rgb(147,147,147)"/>
  <rect x="13" y="16" width="1" height="1" fill="rgb(119,119,119)"/>
  <rect x="14" y="16" width="1" height="1" fill="rgb(49,49,49)" fill-opacity="0.9921875"/>
  <rect x="15" y="16" width="1" height="1" fill="rgb(26,26,26)" fill-opacity="0.609375"/>
  <rect x="16" y="16" width="1" height="1" fill="rgb(28,28,28)" fill-opacity="0.109375"/>
  <rect x="17" y="16" width="4" height="1" fill="rgb(255,255,255)" fill-opacity="0.0078125"/>
  <rect x="0" y="17" width="7" height="1" fill="rgb(255,255,255)" fill-opacity="0.0078125"/>
  <rect x="7" y="17" width="1" height="1" fill="rgb(28,28,28)" fill-opacity="0.1484375"/>
  <rect x="8" y="17" width="1" height="1" fill="rgb(26,26,26)" fill-opacity="0.6640625"/>
  <rect x="9" y="17" width="1" height="1" fill="rgb(75,75,75)"/>
  <rect x="10" y="17" width="1" height="1" fill="rgb(173,173,173)"/>
  <rect x="11" y="17" width="1" height="1" fill="rgb(131,131,131)"/>
  <rect x="12" y="17" width="1" height="1" fill="rgb(60,60,60)"/>
  <rect x="13" y="17" width="1" height="1" fill="rgb(27,27,27)" fill-opacity="0.6796875"/>
  <rect x="14" y="17" width="1" height="1" fill="rgb(26,26,26)" fill-opacity="0.15625"/>
  <rect x="15" y="17" width="6" height="1" fill="rgb(255,255,255)" fill-opacity="0.0078125"/>
  <rect x="0" y="18" width="9" height="1" fill="rgb(255,255,255)" fill-opacity="0.0078125"/>
  <rect x="9" y="18" width="1" height="1" fill="rgb(24,24,24)" fill-opacity="0.2109375"/>
  <rect x="10" y="18" width="2" height="1" fill="rgb(26,26,26)" fill-opacity="0.703125"/>
  <rect x="12" y="18" width="1" height="1" fill="rgb(28,28,28)" fill-opacity="0.21875"/>
  <rect x="13" y="18" width="8" height="1" fill="rgb(255,255,255)" fill-opacity="0.0078125"/>
  <rect x="0" y="19" width="21" height="1" fill="rgb(255,255,255)" fill-opacity="0.0078125"/>
  <rect x="0" y="20" width="21" height="1" fill="rgb(255,255,255)" fill-opacity="0.0078125"/>
</svg>