<svg xmlns="http://www.w3.org/2000/svg" shape-rendering="crispEdges" width="21" height="21" viewBox="0 0 21 21">
  <rect x="0" y="0" width="1" height="21" fill="rgb(255,255,255)" fill-opacity="0.0078125"/>
  <rect x="1" y="0" width="1" height="21" fill="rgb(255,255,255)" fill-opacity="0.0078125"/>
  <rect x="2" y="0" width="1" height="21" fill="rgb(255,255,255)" fill-opacity="0.0078125"/>
  <rect x="3" y="0" width="1" height="13" fill="rgb(255,255,255)" fill-opacity="0.0078125"/>
  <rect x="3" y="13" width="1" height="1" fill="rgb(24,24,24)" fill-opacity="0.2109375"/>
  <rect x="3" y="14" width="1" height="1" fill="rgb(27,27,27)" fill-opacity="0.640625"/>
  <rect x="3" y="15" width="1" height="1" fill="rgb(28,28,28)" fill-opacity="0.1875"/>
  <rect x="3" y="16" width="1" height="5" fill="rgb(255,255,255)" fill-opacity="0.0078125"/>
  <rect x="4" y="0" width="1" height="13" fill="rgb(255,255,255)" fill-opacity="0.0078125"/>
  <rect x="4" y="13" width="1" height="1" fill="rgb(26,26,26)" fill-opacity="0.6953125"/>
  <rect x="4" y="14" width="1" height="1" fill="rgb(255,255,255)"/>
  <rect x="4" y="15" width="1" height="1" fill="rgb(26,26,26)" fill-opacity="0.734375"/>
  <rect x="4" y="16" width="1" height="5" fill="rgb(255,255,255)" fill-opacity="0.0078125"/>
  <rect x="5" y="0" width="1" height="13" fill="rgb(255,255,255)" fill-opacity="0.0078125"/>
  <rect x="5" y="13" width="1" height="1" fill="rgb(27,27,27)" fill-opacity="0.7578125"/>
  <rect x="5" y="14" width="1" height="1" fill="rgb(255,255,255)"/>
  <rect x="5" y="15" width="1" height="1" fill="rgb(27,27,27)" fill-opacity="0.7578125"/>
  <rect x="5" y="16" width="1" height="5" fill="rgb(255,255,255)" fill-opacity="0.0078125"/>
  <rect x="6" y="0" width="1" height="12" fill="rgb(255,255,255)" fill-opacity="0.0078125"/>
  <rect x="6" y="12" width="1" height="1" fill="rgb(0,0,0)" fill-opacity="0.015625"/>
  <rect x="6" y="13" width="1" height="1" fill="rgb(26,26,26)" fill-opacity="0.8828125"/>
  <rect x="6" y="14" width="1" height="1" fill="rgb(255,255,255)"/>
  <rect x="6" y="15" width="1" height="1" fill="rgb(26,26,26)" fill-opacity="0.96875"/>
  <rect x="6" y="16" width="1" height="1" fill="rgb(27,27,27)" fill-opacity="0.7578125"/>
  <rect x="6" y="17" width="1" height="1" fill="rgb(26,26,26)" fill-opacity="0.6953125"/>
  <rect x="6" y="18" width="1" height="1" fill="rgb(24,24,24)" fill-opacity="0.2109375"/>
  <rect x="6" y="19" width="1" height="2" fill="rgb(255,255,255)" fill-opacity="0.0078125"/>
  <rect x="7" y="0" width="1" height="11" fill="rgb(255,255,255)" fill-opacity="0.0078125"/>
  <rect x="7" y="11" width="1" height="1" fill="rgb(0,0,0)" fill-opacity="0.015625"/>
  <rect x="7" y="12" width="1" height="1" fill="rgb(26,26,26)" fill-opacity="0.625"/>
  <rect x="7" y="13" width="1" height="1" fill="rgb(106,110,118)"/>
  <rect x="7" y="14" width="1" height="4" fill="rgb(255,255,255)"/>
  <rect x="7" y="18" width="1" height="1" fill="rgb(27,27,27)" fill-opacity="0.640625"/>
  <rect x="7" y="19" width="1" height="2" fill="rgb(255,255,255)" fill-opacity="0.0078125"/>
  <rect x="8" y="0" width="1" height="8" fill="rgb(255,255,255)" fill-opacity="0.0078125"/>
  <rect x="8" y="8" width="1" height="1" fill="rgb(24,24,24)" fill-opacity="0.2109375"/>
  <rect x="8" y="9" width="1" height="1" fill="rgb(27,27,27)" fill-opacity="0.640625"/>
  <rect x="8" y="10" width="1" height="1" fill="rgb(27,27,27)" fill-opacity="0.1953125"/>
  <rect x="8" y="11" width="1" height="1" fill="rgb(26,26,26)" fill-opacity="0.625"/>
  <rect x="8" y="12" width="1" height="1" fill="rgb(132,138,148)"/>
  <rect x="8" y="13" width="1" height="1" fill="rgb(172,182,195)"/>
  <rect x="8" y="14" width="1" height="1" fill="rgb(106,110,118)"/>
  <rect x="8" y="15" width="1" height="1" fill="rgb(27,27,27)" fill-opacity="0.8984375"/>
  <rect x="8" y="16" width="1" height="1" fill="rgb(27,27,27)" fill-opacity="0.7578125"/>
  <rect x="8" y="17" width="1" height="1" fill="rgb(26,26,26)" fill-opacity="0.734375"/>
  <rect x="8" y="18" width="1" height="1" fill="rgb(28,28,28)" fill-opacity="0.1875"/>
  <rect x="8" y="19" width="1" height="2" fill="rgb(255,255,255)" fill-opacity="0.0078125"/>
  <rect x="9" y="0" width="1" height="8" fill="rgb(255,255,255)" fill-opacity="0.0078125"/>
  <rect x="9" y="8" width="1" height="1" fill="rgb(26,26,26)" fill-opacity="0.6953125"/>
  <rect x="9" y="9" width="1" height="1" fill="rgb(255,255,255)"/>
  <rect x="9" y="10" width="1" height="1" fill="rgb(26,26,26)" fill-opacity="0.8984375"/>
  <rect x="9" y="11" width="1" height="1" fill="rgb(132,138,148)"/>
  <rect x="9" y="12" width="1" height="1" fill="rgb(215,227,244)"/>
  <rect x="9" y="13" width="1" height="1" fill="rgb(132,138,148)"/>
  <rect x="9" y="14" width="1" height="1" fill="rgb(26,26,26)" fill-opacity="0.625"/>
  <rect x="9" y="15" width="1" height="1" fill="rgb(0,0,0)" fill-opacity="0.015625"/>
  <rect x="9" y="16" width="1" height="5" fill="rgb(255,255,255)" fill-opacity="0.0078125"/>
  <rect x="10" y="0" width="1" height="8" fill="rgb(255,255,255)" fill-opacity="0.0078125"/>
  <rect x="10" y="8" width="1" height="1" fill="rgb(27,27,27)" fill-opacity="0.7578125"/>
  <rect x="10" y="9" width="1" height="1" fill="rgb(255,255,255)"/>
  <rect x="10" y="10" width="1" height="1" fill="rgb(106,110,118)"/>
  <rect x="10" y="11" width="1" height="1" fill="rgb(215,227,244)"/>
  <rect x="10" y="12" width="1" height="1" fill="rgb(132,138,148)"/>
  <rect x="10" y="13" width="1" height="1" fill="rgb(26,26,26)" fill-opacity="0.625"/>
  <rect x="10" y="14" width="1" height="1" fill="rgb(0,0,0)" fill-opacity="0.015625"/>
  <rect x="10" y="15" width="1" height="6" fill="rgb(255,255,255)" fill-opacity="0.0078125"/>
  <rect x="11" y="0" width="1" height="7" fill="rgb(255,255,255)" fill-opacity="0.0078125"/>
  <rect x="11" y="7" width="1" height="1" fill="rgb(0,0,0)" fill-opacity="0.015625"/>
  <rect x="11" y="8" width="1" height="1" fill="rgb(26,26,26)" fill-opacity="0.90625"/>
  <rect x="11" y="9" width="1" height="1" fill="rgb(255,255,255)"/>
  <rect x="11" y="10" width="1" height="1" fill="rgb(172,182,195)"/>
  <rect x="11" y="11" width="1" height="1" fill="rgb(106,110,118)"/>
  <rect x="11" y="12" width="1" height="1" fill="rgb(26,26,26)" fill-opacity="0.8828125"/>
  <rect x="11" y="13" width="1" height="1" fill="rgb(23,23,23)" fill-opacity="0.21875"/>
  <rect x="11" y="14" width="1" height="7" fill="rgb(255,255,255)" fill-opacity="0.0078125"/>
  <rect x="12" y="0" width="1" height="6" fill="rgb(255,255,255)" fill-opacity="0.0078125"/>
  <rect x="12" y="6" width="1" height="1" fill="rgb(0,0,0)" fill-opacity="0.015625"/>
  <rect x="12" y="7" width="1" height="1" fill="rgb(26,26,26)" fill-opacity="0.625"/>
  <rect x="12" y="8" width="1" height="1" fill="rgb(106,110,118)"/>
  <rect x="12" y="9" width="1" height="4" fill="rgb(255,255,255)"/>
  <rect x="12" y="13" width="1" height="1" fill="rgb(27,27,27)" fill-opacity="0.640625"/>
  <rect x="12" y="14" width="1" height="7" fill="rgb(255,255,255)" fill-opacity="0.0078125"/>
  <rect x="13" y="0" width="1" height="3" fill="rgb(255,255,255)" fill-opacity="0.0078125"/>
  <rect x="13" y="3" width="1" height="1" fill="rgb(24,24,24)" fill-opacity="0.2109375"/>
  <rect x="13" y="4" width="1" height="1" fill="rgb(27,27,27)" fill-opacity="0.640625"/>
  <rect x="13" y="5" width="1" height="1" fill="rgb(27,27,27)" fill-opacity="0.1953125"/>
  <rect x="13" y="6" width="1" height="1" fill="rgb(26,26,26)" fill-opacity="0.625"/>
  <rect x="13" y="7" width="1" height="1" fill="rgb(132,138,148)"/>
  <rect x="13" y="8" width="1" height="1" fill="rgb(172,182,195)"/>
  <rect x="13" y="9" width="1" height="1" fill="rgb(106,110,118)"/>
  <rect x="13" y="10" width="1" height="1" fill="rgb(26,26,26)" fill-opacity="0.90625"/>
  <rect x="13" y="11" width="1" height="1" fill="rgb(27,27,27)" fill-opacity="0.7578125"/>
  <rect x="13" y="12" width="1" height="1" fill="rgb(26,26,26)" fill-opacity="0.734375"/>
  <rect x="13" y="13" width="1" height="1" fill="rgb(28,28,28)" fill-opacity="0.1875"/>
  <rect x="13" y="14" width="1" height="7" fill="rgb(255,255,255)" fill-opacity="0.0078125"/>
  <rect x="14" y="0" width="1" height="3" fill="rgb(255,255,255)" fill-opacity="0.0078125"/>
  <rect x="14" y="3" width="1" height="1" fill="rgb(26,26,26)" fill-opacity="0.6953125"/>
  <rect x="14" y="4" width="1" height="1" fill="rgb(255,255,255)"/>
  <rect x="14" y="5" width="1" height="1" fill="rgb(26,26,26)" fill-opacity="0.8984375"/>
  <rect x="14" y="6" width="1" height="1" fill="rgb(132,138,148)"/>
  <rect x="14" y="7" width="1" height="1" fill="rgb(215,227,244)"/>
  <rect x="14" y="8" width="1" height="1" fill="rgb(132,138,148)"/>
  <rect x="14" y="9" width="1" height="1" fill="rgb(26,26,26)" fill-opacity="0.625"/>
  <rect x="14" y="10" width="1" height="1" fill="rgb(0,0,0)" fill-opacity="0.015625"/>
  <rect x="14" y="11" width="1" height="10" fill="rgb(255,255,255)" fill-opacity="0.0078125"/>
  <rect x="15" y="0" width="1" height="3" fill="rgb(255,255,255)" fill-opacity="0.0078125"/>
  <rect x="15" y="3" width="1" height="1" fill="rgb(27,27,27)" fill-opacity="0.7578125"/>
  <rect x="15" y="4" width="1" height="1" fill="rgb(255,255,255)"/>
  <rect x="15" y="5" width="1" height="1" fill="rgb(106,110,118)"/>
  <rect x="15" y="6" width="1" height="1" fill="rgb(215,227,244)"/>
  <rect x="15" y="7" width="1" height="1" fill="rgb(132,138,148)"/>
  <rect x="15" y="8" width="1" height="1" fill="rgb(26,26,26)" fill-opacity="0.625"/>
  <rect x="15" y="9" width="1" height="1" fill="rgb(0,0,0)" fill-opacity="0.015625"/>
  <rect x="15" y="10" width="1" height="11" fill="rgb(255,255,255)" fill-opacity="0.0078125"/>
  <rect x="16" y="0" width="1" height="3" fill="rgb(255,255,255)" fill-opacity="0.0078125"/>
  <rect x="16" y="3" width="1" height="1" fill="rgb(27,27,27)" fill-opacity="0.7578125"/>
  <rect x="16" y="4" width="1" height="1" fill="rgb(255,255,255)"/>
  <rect x="16" y="5" width="1" height="1" fill="rgb(172,182,195)"/>
  <rect x="16" y="6" width="1" height="1" fill="rgb(106,110,118)"/>
  <rect x="16" y="7" width="1" height="1" fill="rgb(26,26,26)" fill-opacity="0.8828125"/>
  <rect x="16" y="8" width="1" height="1" fill="rgb(23,23,23)" fill-opacity="0.21875"/>
  <rect x="16" y="9" width="1" height="12" fill="rgb(255,255,255)" fill-opacity="0.0078125"/>
  <rect x="17" y="0" width="1" height="3" fill="rgb(255,255,255)" fill-opacity="0.0078125"/>
  <rect x="17" y="3" width="1" height="1" fill="rgb(27,27,27)" fill-opacity="0.7578125"/>
  <rect x="17" y="4" width="1" height="4" fill="rgb(255,255,255)"/>
  <rect x="17" y="8" width="1" height="1" fill="rgb(27,27,27)" fill-opacity="0.640625"/>
  <rect x="17" y="9" width="1" height="12" fill="rgb(255,255,255)" fill-opacity="0.0078125"/>
  <rect x="18" y="0" width="1" height="3" fill="rgb(255,255,255)" fill-opacity="0.0078125"/>
  <rect x="18" y="3" width="1" height="1" fill="rgb(27,27,27)" fill-opacity="0.5703125"/>
  <rect x="18" y="4" width="1" height="3" fill="rgb(27,27,27)" fill-opacity="0.7578125"/>
  <rect x="18" y="7" width="1" height="1" fill="rgb(26,26,26)" fill-opacity="0.734375"/>
  <rect x="18" y="8" width="1" height="1" fill="rgb(28,28,28)" fill-opacity="0.1875"/>
  <rect x="18" y="9" width="1" height="12" fill="rgb(255,255,255)" fill-opacity="0.0078125"/>
  <rect x="19" y="0" width="1" height="21" fill="rgb(255,255,255)" fill-opacity="0.0078125"/>
  <rect x="20" y="0" width="1" height="21" fill="rgb(255,255,255)" fill-opacity="0.0078125"/>
</svg>