<svg xmlns="http://www.w3.org/2000/svg" shape-rendering="crispEdges" width="21" height="21" viewBox="0 0 21 21">
  <rect x="0" y="0" width="21" height="1" fill="rgb(255,255,255)" fill-opacity="0.0078125"/>
  <rect x="0" y="1" width="21" height="1" fill="rgb(255,255,255)" fill-opacity="0.0078125"/>
  <rect x="0" y="2" width="21" height="1" fill="rgb(255,255,255)" fill-opacity="0.0078125"/>
  <rect x="0" y="3" width="21" height="1" fill="rgb(255,255,255)" fill-opacity="0.0078125"/>
  <rect x="0" y="4" width="4" height="1" fill="rgb(255,255,255)" fill-opacity="0.0078125"/>
  <rect x="4" y="4" width="1" height="1" fill="rgb(41,41,41)" fill-opacity="0.796875"/>
  <rect x="5" y="4" width="2" height="1" fill="rgb(44,44,44)" fill-opacity="0.9140625"/>
  <rect x="7" y="4" width="4" height="1" fill="rgb(45,45,45)" fill-opacity="0.9140625"/>
  <rect x="11" y="4" width="3" height="1" fill="rgb(46,46,46)" fill-opacity="0.9140625"/>
  <rect x="14" y="4" width="3" height="1" fill="rgb(47,47,47)" fill-opacity="0.9140625"/>
  <rect x="17" y="4" width="1" height="1" fill="rgb(44,44,44)" fill-opacity="0.796875"/>
  <rect x="18" y="4" width="3" height="1" fill="rgb(255,255,255)" fill-opacity="0.0078125"/>
  <rect x="0" y="5" width="4" height="1" fill="rgb(255,255,255)" fill-opacity="0.0078125"/>
  <rect x="4" y="5" width="1" height="1" fill="rgb(44,44,44)" fill-opacity="0.9140625"/>
  <rect x="5" y="5" width="1" height="1" fill="rgb(249,249,249)"/>
  <rect x="6" y="5" width="10" height="1" fill="rgb(255,255,255)"/>
  <rect x="16" y="5" width="1" height="1" fill="rgb(253,253,253)"/>
  <rect x="17" y="5" width="1" height="1" fill="rgb(48,48,48)" fill-opacity="0.9140625"/>
  <rect x="18" y="5" width="3" height="1" fill="rgb(255,255,255)" fill-opacity="0.0078125"/>
  <rect x="0" y="6" width="4" height="1" fill="rgb(255,255,255)" fill-opacity="0.0078125"/>
  <rect x="4" y="6" width="1" height="1" fill="rgb(44,44,44)" fill-opacity="0.9140625"/>
  <rect x="5" y="6" width="1" height="1" fill="rgb(255,255,255)"/>
  <rect x="6" y="6" width="1" height="1" fill="rgb(214,214,214)"/>
  <rect x="7" y="6" width="1" height="1" fill="rgb(217,217,217)"/>
  <rect x="8" y="6" width="2" height="1" fill="rgb(180,21,0)"/>
  <rect x="10" y="6" width="1" height="1" fill="rgb(226,226,226)"/>
  <rect x="11" y="6" width="1" height="1" fill="rgb(229,229,229)"/>
  <rect x="12" y="6" width="2" height="1" fill="rgb(180,21,0)"/>
  <rect x="14" y="6" width="1" height="1" fill="rgb(239,239,239)"/>
  <rect x="15" y="6" width="1" height="1" fill="rgb(242,242,242)"/>
  <rect x="16" y="6" width="1" height="1" fill="rgb(255,255,255)"/>
  <rect x="17" y="6" width="1" height="1" fill="rgb(48,48,48)" fill-opacity="0.9140625"/>
  <rect x="18" y="6" width="3" height="1" fill="rgb(255,255,255)" fill-opacity="0.0078125"/>
  <rect x="0" y="7" width="4" height="1" fill="rgb(255,255,255)" fill-opacity="0.0078125"/>
  <rect x="4" y="7" width="1" height="1" fill="rgb(45,45,45)" fill-opacity="0.9140625"/>
  <rect x="5" y="7" width="1" height="1" fill="rgb(255,255,255)"/>
  <rect x="6" y="7" width="1" height="1" fill="rgb(217,217,217)"/>
  <rect x="7" y="7" width="1" height="1" fill="rgb(220,220,220)"/>
  <rect x="8" y="7" width="2" height="1" fill="rgb(180,21,0)"/>
  <rect x="10" y="7" width="1" height="1" fill="rgb(229,229,229)"/>
  <rect x="11" y="7" width="1" height="1" fill="rgb(232,232,232)"/>
  <rect x="12" y="7" width="2" height="1" fill="rgb(180,21,0)"/>
  <rect x="14" y="7" width="1" height="1" fill="rgb(242,242,242)"/>
  <rect x="15" y="7" width="1" height="1" fill="rgb(245,245,245)"/>
  <rect x="16" y="7" width="1" height="1" fill="rgb(255,255,255)"/>
  <rect x="17" y="7" width="1" height="1" fill="rgb(48,48,48)" fill-opacity="0.9140625"/>
  <rect x="18" y="7" width="3" height="1" fill="rgb(255,255,255)" fill-opacity="0.0078125"/>
  <rect x="0" y="8" width="4" height="1" fill="rgb(255,255,255)" fill-opacity="0.0078125"/>
  <rect x="4" y="8" width="1" height="1" fill="rgb(45,45,45)" fill-opacity="0.9140625"/>
  <rect x="5" y="8" width="1" height="1" fill="rgb(255,255,255)"/>
  <rect x="6" y="8" width="2" height="1" fill="rgb(180,21,0)"/>
  <rect x="8" y="8" width="1" height="1" fill="rgb(226,226,226)"/>
  <rect x="9" y="8" width="1" height="1" fill="rgb(229,229,229)"/>
  <rect x="10" y="8" width="2" height="1" fill="rgb(180,21,0)"/>
  <rect x="12" y="8" width="1" height="1" fill="rgb(238,238,238)"/>
  <rect x="13" y="8" width="1" height="1" fill="rgb(242,242,242)"/>
  <rect x="14" y="8" width="2" height="1" fill="rgb(180,21,0)"/>
  <rect x="16" y="8" width="1" height="1" fill="rgb(255,255,255)"/>
  <rect x="17" y="8" width="1" height="1" fill="rgb(49,49,49)" fill-opacity="0.9140625"/>
  <rect x="18" y="8" width="3" height="1" fill="rgb(255,255,255)" fill-opacity="0.0078125"/>
  <rect x="0" y="9" width="4" height="1" fill="rgb(255,255,255)" fill-opacity="0.0078125"/>
  <rect x="4" y="9" width="1" height="1" fill="rgb(45,45,45)" fill-opacity="0.9140625"/>
  <rect x="5" y="9" width="1" height="1" fill="rgb(255,255,255)"/>
  <rect x="6" y="9" width="2" height="1" fill="rgb(180,21,0)"/>
  <rect x="8" y="9" width="1" height="1" fill="rgb(229,229,229)"/>
  <rect x="9" y="9" width="1" height="1" fill="rgb(232,232,232)"/>
  <rect x="10" y="9" width="2" height="1" fill="rgb(180,21,0)"/>
  <rect x="12" y="9" width="1" height="1" fill="rgb(241,241,241)"/>
  <rect x="13" y="9" width="1" height="1" fill="rgb(245,245,245)"/>
  <rect x="14" y="9" width="2" height="1" fill="rgb(180,21,0)"/>
  <rect x="16" y="9" width="1" height="1" fill="rgb(255,255,255)"/>
  <rect x="17" y="9" width="1" height="1" fill="rgb(49,49,49)" fill-opacity="0.9140625"/>
  <rect x="18" y="9" width="3" height="1" fill="rgb(255,255,255)" fill-opacity="0.0078125"/>
  <rect x="0" y="10" width="4" height="1" fill="rgb(255,255,255)" fill-opacity="0.0078125"/>
  <rect x="4" y="10" width="1" height="1" fill="rgb(45,45,45)" fill-opacity="0.9140625"/>
  <rect x="5" y="10" width="1" height="1" fill="rgb(255,255,255)"/>
  <rect x="6" y="10" width="1" height="1" fill="rgb(226,226,226)"/>
  <rect x="7" y="10" width="1" height="1" fill="rgb(229,229,229)"/>
  <rect x="8" y="10" width="2" height="1" fill="rgb(180,21,0)"/>
  <rect x="10" y="10" width="1" height="1" fill="rgb(238,238,238)"/>
  <rect x="11" y="10" width="1" height="1" fill="rgb(241,241,241)"/>
  <rect x="12" y="10" width="2" height="1" fill="rgb(180,21,0)"/>
  <rect x="14" y="10" width="1" height="1" fill="rgb(251,251,251)"/>
  <rect x="15" y="10" width="1" height="1" fill="rgb(254,254,254)"/>
  <rect x="16" y="10" width="1" height="1" fill="rgb(255,255,255)"/>
  <rect x="17" y="10" width="1" height="1" fill="rgb(49,49,49)" fill-opacity="0.9140625"/>
  <rect x="18" y="10" width="3" height="1" fill="rgb(255,255,255)" fill-opacity="0.0078125"/>
  <rect x="0" y="11" width="4" height="1" fill="rgb(255,255,255)" fill-opacity="0.0078125"/>
  <rect x="4" y="11" width="1" height="1" fill="rgb(46,46,46)" fill-opacity="0.9140625"/>
  <rect x="5" y="11" width="1" height="1" fill="rgb(255,255,255)"/>
  <rect x="6" y="11" width="1" height="1" fill="rgb(228,228,228)"/>
  <rect x="7" y="11" width="1" height="1" fill="rgb(232,232,232)"/>
  <rect x="8" y="11" width="2" height="1" fill="rgb(180,21,0)"/>
  <rect x="10" y="11" width="1" height="1" fill="rgb(241,241,241)"/>
  <rect x="11" y="11" width="1" height="1" fill="rgb(244,244,244)"/>
  <rect x="12" y="11" width="2" height="1" fill="rgb(180,21,0)"/>
  <rect x="14" y="11" width="1" height="1" fill="rgb(254,254,254)"/>
  <rect x="15" y="11" width="2" height="1" fill="rgb(255,255,255)"/>
  <rect x="17" y="11" width="1" height="1" fill="rgb(49,49,49)" fill-opacity="0.9140625"/>
  <rect x="18" y="11" width="3" height="1" fill="rgb(255,255,255)" fill-opacity="0.0078125"/>
  <rect x="0" y="12" width="4" height="1" fill="rgb(255,255,255)" fill-opacity="0.0078125"/>
  <rect x="4" y="12" width="1" height="1" fill="rgb(46,46,46)" fill-opacity="0.9140625"/>
  <rect x="5" y="12" width="1" height="1" fill="rgb(255,255,255)"/>
  <rect x="6" y="12" width="2" height="1" fill="rgb(180,21,0)"/>
  <rect x="8" y="12" width="1" height="1" fill="rgb(238,238,238)"/>
  <rect x="9" y="12" width="1" height="1" fill="rgb(241,241,241)"/>
  <rect x="10" y="12" width="2" height="1" fill="rgb(180,21,0)"/>
  <rect x="12" y="12" width="1" height="1" fill="rgb(250,250,250)"/>
  <rect x="13" y="12" width="1" height="1" fill="rgb(253,253,253)"/>
  <rect x="14" y="12" width="2" height="1" fill="rgb(180,21,0)"/>
  <rect x="16" y="12" width="1" height="1" fill="rgb(255,255,255)"/>
  <rect x="17" y="12" width="1" height="1" fill="rgb(49,49,49)" fill-opacity="0.9140625"/>
  <rect x="18" y="12" width="3" height="1" fill="rgb(255,255,255)" fill-opacity="0.0078125"/>
  <rect x="0" y="13" width="4" height="1" fill="rgb(255,255,255)" fill-opacity="0.0078125"/>
  <rect x="4" y="13" width="1" height="1" fill="rgb(46,46,46)" fill-opacity="0.9140625"/>
  <rect x="5" y="13" width="1" height="1" fill="rgb(255,255,255)"/>
  <rect x="6" y="13" width="2" height="1" fill="rgb(180,21,0)"/>
  <rect x="8" y="13" width="1" height="1" fill="rgb(241,241,241)"/>
  <rect x="9" y="13" width="1" height="1" fill="rgb(244,244,244)"/>
  <rect x="10" y="13" width="2" height="1" fill="rgb(180,21,0)"/>
  <rect x="12" y="13" width="1" height="1" fill="rgb(253,253,253)"/>
  <rect x="13" y="13" width="1" height="1" fill="rgb(255,255,255)"/>
  <rect x="14" y="13" width="2" height="1" fill="rgb(180,21,0)"/>
  <rect x="16" y="13" width="1" height="1" fill="rgb(255,255,255)"/>
  <rect x="17" y="13" width="1" height="1" fill="rgb(49,49,49)" fill-opacity="0.9140625"/>
  <rect x="18" y="13" width="3" height="1" fill="rgb(255,255,255)" fill-opacity="0.0078125"/>
  <rect x="0" y="14" width="4" height="1" fill="rgb(255,255,255)" fill-opacity="0.0078125"/>
  <rect x="4" y="14" width="1" height="1" fill="rgb(47,47,47)" fill-opacity="0.9140625"/>
  <rect x="5" y="14" width="1" height="1" fill="rgb(252,252,252)"/>
  <rect x="6" y="14" width="1" height="1" fill="rgb(237,237,237)"/>
  <rect x="7" y="14" width="1" height="1" fill="rgb(240,240,240)"/>
  <rect x="8" y="14" width="1" height="1" fill="rgb(244,244,244)"/>
  <rect x="9" y="14" width="1" height="1" fill="rgb(247,247,247)"/>
  <rect x="10" y="14" width="1" height="1" fill="rgb(250,250,250)"/>
  <rect x="11" y="14" width="1" height="1" fill="rgb(253,253,253)"/>
  <rect x="12" y="14" width="5" height="1" fill="rgb(255,255,255)"/>
  <rect x="17" y="14" width="1" height="1" fill="rgb(49,49,49)" fill-opacity="0.9140625"/>
  <rect x="18" y="14" width="3" height="1" fill="rgb(255,255,255)" fill-opacity="0.0078125"/>
  <rect x="0" y="15" width="4" height="1" fill="rgb(255,255,255)" fill-opacity="0.0078125"/>
  <rect x="4" y="15" width="1" height="1" fill="rgb(47,47,47)" fill-opacity="0.9140625"/>
  <rect x="5" y="15" width="1" height="1" fill="rgb(248,248,248)"/>
  <rect x="6" y="15" width="1" height="1" fill="rgb(110,110,110)"/>
  <rect x="7" y="15" width="1" height="1" fill="rgb(227,227,227)"/>
  <rect x="8" y="15" width="7" height="1" fill="rgb(102,102,102)"/>
  <rect x="15" y="15" width="1" height="1" fill="rgb(106,106,106)"/>
  <rect x="16" y="15" width="1" height="1" fill="rgb(255,255,255)"/>
  <rect x="17" y="15" width="1" height="1" fill="rgb(49,49,49)" fill-opacity="0.9140625"/>
  <rect x="18" y="15" width="3" height="1" fill="rgb(255,255,255)" fill-opacity="0.0078125"/>
  <rect x="0" y="16" width="4" height="1" fill="rgb(255,255,255)" fill-opacity="0.0078125"/>
  <rect x="4" y="16" width="1" height="1" fill="rgb(46,46,46)" fill-opacity="0.7890625"/>
  <rect x="5" y="16" width="1" height="1" fill="rgb(197,197,197)" fill-opacity="0.9921875"/>
  <rect x="6" y="16" width="1" height="1" fill="rgb(248,248,248)"/>
  <rect x="7" y="16" width="1" height="1" fill="rgb(249,249,249)"/>
  <rect x="8" y="16" width="1" height="1" fill="rgb(252,252,252)"/>
  <rect x="9" y="16" width="1" height="1" fill="rgb(254,254,254)"/>
  <rect x="10" y="16" width="6" height="1" fill="rgb(255,255,255)"/>
  <rect x="16" y="16" width="1" height="1" fill="rgb(209,209,209)" fill-opacity="0.9921875"/>
  <rect x="17" y="16" width="1" height="1" fill="rgb(44,44,44)" fill-opacity="0.84375"/>
  <rect x="18" y="16" width="3" height="1" fill="rgb(255,255,255)" fill-opacity="0.0078125"/>
  <rect x="0" y="17" width="4" height="1" fill="rgb(255,255,255)" fill-opacity="0.0078125"/>
  <rect x="4" y="17" width="1" height="1" fill="rgb(21,21,21)" fill-opacity="0.0546875"/>
  <rect x="5" y="17" width="1" height="1" fill="rgb(46,46,46)" fill-opacity="0.7890625"/>
  <rect x="6" y="17" width="3" height="1" fill="rgb(48,48,48)" fill-opacity="0.9140625"/>
  <rect x="9" y="17" width="7" height="1" fill="rgb(49,49,49)" fill-opacity="0.9140625"/>
  <rect x="16" y="17" width="1" height="1" fill="rgb(46,46,46)" fill-opacity="0.8125"/>
  <rect x="17" y="17" width="1" height="1" fill="rgb(24,24,24)" fill-opacity="0.0859375"/>
  <rect x="18" y="17" width="3" height="1" fill="rgb(255,255,255)" fill-opacity="0.0078125"/>
  <rect x="0" y="18" width="21" height="1" fill="rgb(255,255,255)" fill-opacity="0.0078125"/>
  <rect x="0" y="19" width="21" height="1" fill="rgb(255,255,255)" fill-opacity="0.0078125"/>
  <rect x="0" y="20" width="21" height="1" fill="rgb(255,255,255)" fill-opacity="0.0078125"/>
</svg>