<svg xmlns="http://www.w3.org/2000/svg" shape-rendering="crispEdges" width="21" height="21" viewBox="0 0 21 21">
  <rect x="0" y="0" width="1" height="21" fill="rgb(255,255,255)" fill-opacity="0.0078125"/>
  <rect x="1" y="0" width="1" height="21" fill="rgb(255,255,255)" fill-opacity="0.0078125"/>
  <rect x="2" y="0" width="1" height="21" fill="rgb(255,255,255)" fill-opacity="0.0078125"/>
  <rect x="3" y="0" width="1" height="21" fill="rgb(255,255,255)" fill-opacity="0.0078125"/>
  <rect x="4" y="0" width="1" height="21" fill="rgb(255,255,255)" fill-opacity="0.0078125"/>
  <rect x="5" y="0" width="1" height="21" fill="rgb(255,255,255)" fill-opacity="0.0078125"/>
  <rect x="6" y="0" width="1" height="6" fill="rgb(255,255,255)" fill-opacity="0.0078125"/>
  <rect x="6" y="6" width="1" height="1" fill="rgb(0,0,0)" fill-opacity="0.125"/>
  <rect x="6" y="7" width="1" height="1" fill="rgb(0,0,0)" fill-opacity="0.296875"/>
  <rect x="6" y="8" width="1" height="6" fill="rgb(0,0,0)" fill-opacity="0.3046875"/>
  <rect x="6" y="14" width="1" height="1" fill="rgb(0,0,0)" fill-opacity="0.296875"/>
  <rect x="6" y="15" width="1" height="1" fill="rgb(170,170,170)" fill-opacity="0.1484375"/>
  <rect x="6" y="16" width="1" height="5" fill="rgb(255,255,255)" fill-opacity="0.0078125"/>
  <rect x="7" y="0" width="1" height="6" fill="rgb(255,255,255)" fill-opacity="0.0078125"/>
  <rect x="7" y="6" width="1" height="1" fill="rgb(0,0,0)" fill-opacity="0.296875"/>
  <rect x="7" y="7" width="1" height="1" fill="rgb(194,194,194)" fill-opacity="0.25"/>
  <rect x="7" y="8" width="1" height="6" fill="rgb(230,230,230)" fill-opacity="0.2421875"/>
  <rect x="7" y="14" width="1" height="1" fill="rgb(216,216,216)" fill-opacity="0.2578125"/>
  <rect x="7" y="15" width="1" height="1" fill="rgb(255,255,255)" fill-opacity="0.3984375"/>
  <rect x="7" y="16" width="1" height="5" fill="rgb(255,255,255)" fill-opacity="0.0078125"/>
  <rect x="8" y="0" width="1" height="6" fill="rgb(255,255,255)" fill-opacity="0.0078125"/>
  <rect x="8" y="6" width="1" height="1" fill="rgb(0,0,0)" fill-opacity="0.3046875"/>
  <rect x="8" y="7" width="1" height="8" fill="rgb(230,230,230)" fill-opacity="0.2421875"/>
  <rect x="8" y="15" width="1" height="1" fill="rgb(255,255,255)" fill-opacity="0.40625"/>
  <rect x="8" y="16" width="1" height="5" fill="rgb(255,255,255)" fill-opacity="0.0078125"/>
  <rect x="9" y="0" width="1" height="6" fill="rgb(255,255,255)" fill-opacity="0.0078125"/>
  <rect x="9" y="6" width="1" height="1" fill="rgb(0,0,0)" fill-opacity="0.3046875"/>
  <rect x="9" y="7" width="1" height="8" fill="rgb(230,230,230)" fill-opacity="0.2421875"/>
  <rect x="9" y="15" width="1" height="1" fill="rgb(255,255,255)" fill-opacity="0.40625"/>
  <rect x="9" y="16" width="1" height="5" fill="rgb(255,255,255)" fill-opacity="0.0078125"/>
  <rect x="10" y="0" width="1" height="6" fill="rgb(255,255,255)" fill-opacity="0.0078125"/>
  <rect x="10" y="6" width="1" height="1" fill="rgb(0,0,0)" fill-opacity="0.3046875"/>
  <rect x="10" y="7" width="1" height="8" fill="rgb(230,230,230)" fill-opacity="0.2421875"/>
  <rect x="10" y="15" width="1" height="1" fill="rgb(255,255,255)" fill-opacity="0.40625"/>
  <rect x="10" y="16" width="1" height="5" fill="rgb(255,255,255)" fill-opacity="0.0078125"/>
  <rect x="11" y="0" width="1" height="6" fill="rgb(255,255,255)" fill-opacity="0.0078125"/>
  <rect x="11" y="6" width="1" height="1" fill="rgb(0,0,0)" fill-opacity="0.3046875"/>
  <rect x="11" y="7" width="1" height="8" fill="rgb(230,230,230)" fill-opacity="0.2421875"/>
  <rect x="11" y="15" width="1" height="1" fill="rgb(255,255,255)" fill-opacity="0.40625"/>
  <rect x="11" y="16" width="1" height="5" fill="rgb(255,255,255)" fill-opacity="0.0078125"/>
  <rect x="12" y="0" width="1" height="6" fill="rgb(255,255,255)" fill-opacity="0.0078125"/>
  <rect x="12" y="6" width="1" height="1" fill="rgb(0,0,0)" fill-opacity="0.3046875"/>
  <rect x="12" y="7" width="1" height="8" fill="rgb(230,230,230)" fill-opacity="0.2421875"/>
  <rect x="12" y="15" width="1" height="1" fill="rgb(255,255,255)" fill-opacity="0.40625"/>
  <rect x="12" y="16" width="1" height="5" fill="rgb(255,255,255)" fill-opacity="0.0078125"/>
  <rect x="13" y="0" width="1" height="6" fill="rgb(255,255,255)" fill-opacity="0.0078125"/>
  <rect x="13" y="6" width="1" height="1" fill="rgb(0,0,0)" fill-opacity="0.3046875"/>
  <rect x="13" y="7" width="1" height="8" fill="rgb(230,230,230)" fill-opacity="0.2421875"/>
  <rect x="13" y="15" width="1" height="1" fill="rgb(255,255,255)" fill-opacity="0.40625"/>
  <rect x="13" y="16" width="1" height="5" fill="rgb(255,255,255)" fill-opacity="0.0078125"/>
  <rect x="14" y="0" width="1" height="6" fill="rgb(255,255,255)" fill-opacity="0.0078125"/>
  <rect x="14" y="6" width="1" height="1" fill="rgb(0,0,0)" fill-opacity="0.296875"/>
  <rect x="14" y="7" width="1" height="1" fill="rgb(215,215,215)" fill-opacity="0.2578125"/>
  <rect x="14" y="8" width="1" height="6" fill="rgb(230,230,230)" fill-opacity="0.2421875"/>
  <rect x="14" y="14" width="1" height="1" fill="rgb(236,236,236)" fill-opacity="0.265625"/>
  <rect x="14" y="15" width="1" height="1" fill="rgb(255,255,255)" fill-opacity="0.3984375"/>
  <rect x="14" y="16" width="1" height="5" fill="rgb(255,255,255)" fill-opacity="0.0078125"/>
  <rect x="15" y="0" width="1" height="6" fill="rgb(255,255,255)" fill-opacity="0.0078125"/>
  <rect x="15" y="6" width="1" height="1" fill="rgb(135,135,135)" fill-opacity="0.1484375"/>
  <rect x="15" y="7" width="1" height="1" fill="rgb(255,255,255)" fill-opacity="0.3984375"/>
  <rect x="15" y="8" width="1" height="6" fill="rgb(255,255,255)" fill-opacity="0.40625"/>
  <rect x="15" y="14" width="1" height="1" fill="rgb(255,255,255)" fill-opacity="0.3984375"/>
  <rect x="15" y="15" width="1" height="1" fill="rgb(255,255,255)" fill-opacity="0.171875"/>
  <rect x="15" y="16" width="1" height="5" fill="rgb(255,255,255)" fill-opacity="0.0078125"/>
  <rect x="16" y="0" width="1" height="21" fill="rgb(255,255,255)" fill-opacity="0.0078125"/>
  <rect x="17" y="0" width="1" height="21" fill="rgb(255,255,255)" fill-opacity="0.0078125"/>
  <rect x="18" y="0" width="1" height="21" fill="rgb(255,255,255)" fill-opacity="0.0078125"/>
  <rect x="19" y="0" width="1" height="21" fill="rgb(255,255,255)" fill-opacity="0.0078125"/>
  <rect x="20" y="0" width="1" height="21" fill="rgb(255,255,255)" fill-opacity="0.0078125"/>
</svg>