<svg xmlns="http://www.w3.org/2000/svg" shape-rendering="crispEdges" width="21" height="21" viewBox="0 0 21 21">
  <rect x="0" y="0" width="21" height="1" fill="rgb(255,255,255)" fill-opacity="0.0078125"/>
  <rect x="0" y="1" width="21" height="1" fill="rgb(255,255,255)" fill-opacity="0.0078125"/>
  <rect x="0" y="2" width="21" height="1" fill="rgb(255,255,255)" fill-opacity="0.0078125"/>
  <rect x="0" y="3" width="21" height="1" fill="rgb(255,255,255)" fill-opacity="0.0078125"/>
  <rect x="0" y="4" width="21" height="1" fill="rgb(255,255,255)" fill-opacity="0.0078125"/>
  <rect x="0" y="5" width="6" height="1" fill="rgb(255,255,255)" fill-opacity="0.0078125"/>
  <rect x="6" y="5" width="1" height="1" fill="rgb(45,45,45)" fill-opacity="0.796875"/>
  <rect x="7" y="5" width="9" height="1" fill="rgb(49,49,49)" fill-opacity="0.9140625"/>
  <rect x="16" y="5" width="1" height="1" fill="rgb(45,45,45)" fill-opacity="0.796875"/>
  <rect x="17" y="5" width="4" height="1" fill="rgb(255,255,255)" fill-opacity="0.0078125"/>
  <rect x="0" y="6" width="6" height="1" fill="rgb(255,255,255)" fill-opacity="0.0078125"/>
  <rect x="6" y="6" width="1" height="1" fill="rgb(49,49,49)" fill-opacity="0.9140625"/>
  <rect x="7" y="6" width="9" height="1" fill="rgb(255,255,255)"/>
  <rect x="16" y="6" width="1" height="1" fill="rgb(49,49,49)" fill-opacity="0.9140625"/>
  <rect x="17" y="6" width="4" height="1" fill="rgb(255,255,255)" fill-opacity="0.0078125"/>
  <rect x="0" y="7" width="6" height="1" fill="rgb(255,255,255)" fill-opacity="0.0078125"/>
  <rect x="6" y="7" width="1" height="1" fill="rgb(49,49,49)" fill-opacity="0.9140625"/>
  <rect x="7" y="7" width="1" height="1" fill="rgb(255,255,255)"/>
  <rect x="8" y="7" width="1" height="1" fill="rgb(212,212,212)"/>
  <rect x="9" y="7" width="5" height="1" fill="rgb(204,204,204)"/>
  <rect x="14" y="7" width="1" height="1" fill="rgb(212,212,212)"/>
  <rect x="15" y="7" width="1" height="1" fill="rgb(255,255,255)"/>
  <rect x="16" y="7" width="1" height="1" fill="rgb(49,49,49)" fill-opacity="0.9140625"/>
  <rect x="17" y="7" width="4" height="1" fill="rgb(255,255,255)" fill-opacity="0.0078125"/>
  <rect x="0" y="8" width="6" height="1" fill="rgb(255,255,255)" fill-opacity="0.0078125"/>
  <rect x="6" y="8" width="1" height="1" fill="rgb(49,49,49)" fill-opacity="0.9140625"/>
  <rect x="7" y="8" width="1" height="1" fill="rgb(254,254,254)"/>
  <rect x="8" y="8" width="1" height="1" fill="rgb(75,75,75)" fill-opacity="0.9375"/>
  <rect x="9" y="8" width="1" height="1" fill="rgb(49,49,49)" fill-opacity="0.9140625"/>
  <rect x="10" y="8" width="4" height="1" fill="rgb(48,48,48)" fill-opacity="0.9140625"/>
  <rect x="14" y="8" width="1" height="1" fill="rgb(75,75,75)" fill-opacity="0.9375"/>
  <rect x="15" y="8" width="1" height="1" fill="rgb(248,248,248)"/>
  <rect x="16" y="8" width="1" height="1" fill="rgb(48,48,48)" fill-opacity="0.9140625"/>
  <rect x="17" y="8" width="4" height="1" fill="rgb(255,255,255)" fill-opacity="0.0078125"/>
  <rect x="0" y="9" width="6" height="1" fill="rgb(255,255,255)" fill-opacity="0.0078125"/>
  <rect x="6" y="9" width="1" height="1" fill="rgb(48,48,48)" fill-opacity="0.9140625"/>
  <rect x="7" y="9" width="1" height="1" fill="rgb(247,247,247)"/>
  <rect x="8" y="9" width="1" height="1" fill="rgb(48,48,48)" fill-opacity="0.9140625"/>
  <rect x="9" y="9" width="5" height="1" fill="rgb(255,255,255)" fill-opacity="0.0078125"/>
  <rect x="14" y="9" width="1" height="1" fill="rgb(48,48,48)" fill-opacity="0.9140625"/>
  <rect x="15" y="9" width="1" height="1" fill="rgb(241,241,241)"/>
  <rect x="16" y="9" width="1" height="1" fill="rgb(47,47,47)" fill-opacity="0.9140625"/>
  <rect x="17" y="9" width="4" height="1" fill="rgb(255,255,255)" fill-opacity="0.0078125"/>
  <rect x="0" y="10" width="6" height="1" fill="rgb(255,255,255)" fill-opacity="0.0078125"/>
  <rect x="6" y="10" width="1" height="1" fill="rgb(47,47,47)" fill-opacity="0.9140625"/>
  <rect x="7" y="10" width="1" height="1" fill="rgb(239,239,239)"/>
  <rect x="8" y="10" width="1" height="1" fill="rgb(47,47,47)" fill-opacity="0.9140625"/>
  <rect x="9" y="10" width="5" height="1" fill="rgb(255,255,255)" fill-opacity="0.0078125"/>
  <rect x="14" y="10" width="1" height="1" fill="rgb(47,47,47)" fill-opacity="0.9140625"/>
  <rect x="15" y="10" width="1" height="1" fill="rgb(234,234,234)"/>
  <rect x="16" y="10" width="1" height="1" fill="rgb(47,47,47)" fill-opacity="0.9140625"/>
  <rect x="17" y="10" width="4" height="1" fill="rgb(255,255,255)" fill-opacity="0.0078125"/>
  <rect x="0" y="11" width="6" height="1" fill="rgb(255,255,255)" fill-opacity="0.0078125"/>
  <rect x="6" y="11" width="1" height="1" fill="rgb(47,47,47)" fill-opacity="0.9140625"/>
  <rect x="7" y="11" width="1" height="1" fill="rgb(232,232,232)"/>
  <rect x="8" y="11" width="1" height="1" fill="rgb(47,47,47)" fill-opacity="0.9140625"/>
  <rect x="9" y="11" width="5" height="1" fill="rgb(255,255,255)" fill-opacity="0.0078125"/>
  <rect x="14" y="11" width="1" height="1" fill="rgb(46,46,46)" fill-opacity="0.9140625"/>
  <rect x="15" y="11" width="1" height="1" fill="rgb(226,226,226)"/>
  <rect x="16" y="11" width="1" height="1" fill="rgb(46,46,46)" fill-opacity="0.9140625"/>
  <rect x="17" y="11" width="4" height="1" fill="rgb(255,255,255)" fill-opacity="0.0078125"/>
  <rect x="0" y="12" width="6" height="1" fill="rgb(255,255,255)" fill-opacity="0.0078125"/>
  <rect x="6" y="12" width="1" height="1" fill="rgb(46,46,46)" fill-opacity="0.9140625"/>
  <rect x="7" y="12" width="1" height="1" fill="rgb(225,225,225)"/>
  <rect x="8" y="12" width="1" height="1" fill="rgb(46,46,46)" fill-opacity="0.9140625"/>
  <rect x="9" y="12" width="5" height="1" fill="rgb(255,255,255)" fill-opacity="0.0078125"/>
  <rect x="14" y="12" width="1" height="1" fill="rgb(45,45,45)" fill-opacity="0.9140625"/>
  <rect x="15" y="12" width="1" height="1" fill="rgb(219,219,219)"/>
  <rect x="16" y="12" width="1" height="1" fill="rgb(45,45,45)" fill-opacity="0.9140625"/>
  <rect x="17" y="12" width="4" height="1" fill="rgb(255,255,255)" fill-opacity="0.0078125"/>
  <rect x="0" y="13" width="4" height="1" fill="rgb(255,255,255)" fill-opacity="0.0078125"/>
  <rect x="4" y="13" width="1" height="1" fill="rgb(23,23,23)" fill-opacity="0.09375"/>
  <rect x="5" y="13" width="1" height="1" fill="rgb(46,46,46)" fill-opacity="0.6796875"/>
  <rect x="6" y="13" width="1" height="1" fill="rgb(63,63,63)" fill-opacity="0.9453125"/>
  <rect x="7" y="13" width="1" height="1" fill="rgb(218,218,218)"/>
  <rect x="8" y="13" width="1" height="1" fill="rgb(45,45,45)" fill-opacity="0.9140625"/>
  <rect x="9" y="13" width="3" height="1" fill="rgb(255,255,255)" fill-opacity="0.0078125"/>
  <rect x="12" y="13" width="1" height="1" fill="rgb(23,23,23)" fill-opacity="0.09375"/>
  <rect x="13" y="13" width="1" height="1" fill="rgb(46,46,46)" fill-opacity="0.6796875"/>
  <rect x="14" y="13" width="1" height="1" fill="rgb(62,62,62)" fill-opacity="0.9453125"/>
  <rect x="15" y="13" width="1" height="1" fill="rgb(212,212,212)"/>
  <rect x="16" y="13" width="1" height="1" fill="rgb(45,45,45)" fill-opacity="0.9140625"/>
  <rect x="17" y="13" width="4" height="1" fill="rgb(255,255,255)" fill-opacity="0.0078125"/>
  <rect x="0" y="14" width="3" height="1" fill="rgb(255,255,255)" fill-opacity="0.0078125"/>
  <rect x="3" y="14" width="1" height="1" fill="rgb(26,26,26)" fill-opacity="0.1953125"/>
  <rect x="4" y="14" width="1" height="1" fill="rgb(80,80,80)" fill-opacity="0.921875"/>
  <rect x="5" y="14" width="1" height="1" fill="rgb(233,233,233)"/>
  <rect x="6" y="14" width="1" height="1" fill="rgb(254,254,254)"/>
  <rect x="7" y="14" width="1" height="1" fill="rgb(227,227,227)"/>
  <rect x="8" y="14" width="1" height="1" fill="rgb(44,44,44)" fill-opacity="0.9140625"/>
  <rect x="9" y="14" width="2" height="1" fill="rgb(255,255,255)" fill-opacity="0.0078125"/>
  <rect x="11" y="14" width="1" height="1" fill="rgb(26,26,26)" fill-opacity="0.1953125"/>
  <rect x="12" y="14" width="1" height="1" fill="rgb(79,79,79)" fill-opacity="0.921875"/>
  <rect x="13" y="14" width="1" height="1" fill="rgb(232,232,232)"/>
  <rect x="14" y="14" width="1" height="1" fill="rgb(254,254,254)"/>
  <rect x="15" y="14" width="1" height="1" fill="rgb(224,224,224)"/>
  <rect x="16" y="14" width="1" height="1" fill="rgb(43,43,43)" fill-opacity="0.9140625"/>
  <rect x="17" y="14" width="4" height="1" fill="rgb(255,255,255)" fill-opacity="0.0078125"/>
  <rect x="0" y="15" width="3" height="1" fill="rgb(255,255,255)" fill-opacity="0.0078125"/>
  <rect x="3" y="15" width="1" height="1" fill="rgb(46,46,46)" fill-opacity="0.65625"/>
  <rect x="4" y="15" width="1" height="1" fill="rgb(236,236,236)"/>
  <rect x="5" y="15" width="1" height="1" fill="rgb(227,227,227)"/>
  <rect x="6" y="15" width="1" height="1" fill="rgb(213,213,213)"/>
  <rect x="7" y="15" width="1" height="1" fill="rgb(170,170,170)"/>
  <rect x="8" y="15" width="1" height="1" fill="rgb(45,45,45)" fill-opacity="0.7421875"/>
  <rect x="9" y="15" width="2" height="1" fill="rgb(255,255,255)" fill-opacity="0.0078125"/>
  <rect x="11" y="15" width="1" height="1" fill="rgb(46,46,46)" fill-opacity="0.65625"/>
  <rect x="12" y="15" width="1" height="1" fill="rgb(235,235,235)"/>
  <rect x="13" y="15" width="1" height="1" fill="rgb(224,224,224)"/>
  <rect x="14" y="15" width="1" height="1" fill="rgb(208,208,208)"/>
  <rect x="15" y="15" width="1" height="1" fill="rgb(165,165,165)"/>
  <rect x="16" y="15" width="1" height="1" fill="rgb(43,43,43)" fill-opacity="0.7421875"/>
  <rect x="17" y="15" width="4" height="1" fill="rgb(255,255,255)" fill-opacity="0.0078125"/>
  <rect x="0" y="16" width="3" height="1" fill="rgb(255,255,255)" fill-opacity="0.0078125"/>
  <rect x="3" y="16" width="1" height="1" fill="rgb(43,43,43)" fill-opacity="0.8203125"/>
  <rect x="4" y="16" width="1" height="1" fill="rgb(218,218,218)"/>
  <rect x="5" y="16" width="1" height="1" fill="rgb(206,206,206)"/>
  <rect x="6" y="16" width="1" height="1" fill="rgb(154,154,154)"/>
  <rect x="7" y="16" width="1" height="1" fill="rgb(46,46,46)" fill-opacity="0.9140625"/>
  <rect x="8" y="16" width="1" height="1" fill="rgb(28,28,28)" fill-opacity="0.21875"/>
  <rect x="9" y="16" width="2" height="1" fill="rgb(255,255,255)" fill-opacity="0.0078125"/>
  <rect x="11" y="16" width="1" height="1" fill="rgb(43,43,43)" fill-opacity="0.8203125"/>
  <rect x="12" y="16" width="1" height="1" fill="rgb(216,216,216)"/>
  <rect x="13" y="16" width="1" height="1" fill="rgb(202,202,202)"/>
  <rect x="14" y="16" width="1" height="1" fill="rgb(149,149,149)"/>
  <rect x="15" y="16" width="1" height="1" fill="rgb(46,46,46)" fill-opacity="0.9140625"/>
  <rect x="16" y="16" width="1" height="1" fill="rgb(28,28,28)" fill-opacity="0.21875"/>
  <rect x="17" y="16" width="4" height="1" fill="rgb(255,255,255)" fill-opacity="0.0078125"/>
  <rect x="0" y="17" width="3" height="1" fill="rgb(255,255,255)" fill-opacity="0.0078125"/>
  <rect x="3" y="17" width="1" height="1" fill="rgb(30,30,30)" fill-opacity="0.203125"/>
  <rect x="4" y="17" width="1" height="1" fill="rgb(42,42,42)" fill-opacity="0.828125"/>
  <rect x="5" y="17" width="1" height="1" fill="rgb(42,42,42)" fill-opacity="0.859375"/>
  <rect x="6" y="17" width="1" height="1" fill="rgb(42,42,42)" fill-opacity="0.7109375"/>
  <rect x="7" y="17" width="1" height="1" fill="rgb(26,26,26)" fill-opacity="0.1171875"/>
  <rect x="8" y="17" width="3" height="1" fill="rgb(255,255,255)" fill-opacity="0.0078125"/>
  <rect x="11" y="17" width="1" height="1" fill="rgb(30,30,30)" fill-opacity="0.203125"/>
  <rect x="12" y="17" width="1" height="1" fill="rgb(41,41,41)" fill-opacity="0.828125"/>
  <rect x="13" y="17" width="1" height="1" fill="rgb(41,41,41)" fill-opacity="0.859375"/>
  <rect x="14" y="17" width="1" height="1" fill="rgb(42,42,42)" fill-opacity="0.7109375"/>
  <rect x="15" y="17" width="1" height="1" fill="rgb(26,26,26)" fill-opacity="0.1171875"/>
  <rect x="16" y="17" width="5" height="1" fill="rgb(255,255,255)" fill-opacity="0.0078125"/>
  <rect x="0" y="18" width="21" height="1" fill="rgb(255,255,255)" fill-opacity="0.0078125"/>
  <rect x="0" y="19" width="21" height="1" fill="rgb(255,255,255)" fill-opacity="0.0078125"/>
  <rect x="0" y="20" width="21" height="1" fill="rgb(255,255,255)" fill-opacity="0.0078125"/>
</svg>