<svg xmlns="http://www.w3.org/2000/svg" shape-rendering="crispEdges" width="21" height="21" viewBox="0 0 21 21">
  <rect x="0" y="0" width="21" height="1" fill="rgb(255,255,255)" fill-opacity="0.0078125"/>
  <rect x="0" y="1" width="21" height="1" fill="rgb(255,255,255)" fill-opacity="0.0078125"/>
  <rect x="0" y="2" width="21" height="1" fill="rgb(255,255,255)" fill-opacity="0.0078125"/>
  <rect x="0" y="3" width="3" height="1" fill="rgb(255,255,255)" fill-opacity="0.0078125"/>
  <rect x="3" y="3" width="1" height="1" fill="rgb(28,40,57)" fill-opacity="0.828125"/>
  <rect x="4" y="3" width="1" height="1" fill="rgb(33,45,62)" fill-opacity="0.9140625"/>
  <rect x="5" y="3" width="1" height="1" fill="rgb(27,39,56)" fill-opacity="0.828125"/>
  <rect x="6" y="3" width="10" height="1" fill="rgb(255,255,255)" fill-opacity="0.0078125"/>
  <rect x="16" y="3" width="1" height="1" fill="rgb(29,41,58)" fill-opacity="0.8046875"/>
  <rect x="17" y="3" width="1" height="1" fill="rgb(32,44,60)" fill-opacity="0.9140625"/>
  <rect x="18" y="3" width="1" height="1" fill="rgb(29,40,58)" fill-opacity="0.796875"/>
  <rect x="19" y="3" width="2" height="1" fill="rgb(255,255,255)" fill-opacity="0.0078125"/>
  <rect x="0" y="4" width="3" height="1" fill="rgb(255,255,255)" fill-opacity="0.0078125"/>
  <rect x="3" y="4" width="1" height="1" fill="rgb(37,49,66)" fill-opacity="0.8984375"/>
  <rect x="4" y="4" width="1" height="1" fill="rgb(215,227,244)"/>
  <rect x="5" y="4" width="1" height="1" fill="rgb(32,44,61)" fill-opacity="0.9765625"/>
  <rect x="6" y="4" width="10" height="1" fill="rgb(23,45,80)" fill-opacity="0.7578125"/>
  <rect x="16" y="4" width="1" height="1" fill="rgb(36,48,67)" fill-opacity="0.9765625"/>
  <rect x="17" y="4" width="1" height="1" fill="rgb(215,227,244)"/>
  <rect x="18" y="4" width="1" height="1" fill="rgb(32,44,60)" fill-opacity="0.9140625"/>
  <rect x="19" y="4" width="2" height="1" fill="rgb(255,255,255)" fill-opacity="0.0078125"/>
  <rect x="0" y="5" width="3" height="1" fill="rgb(255,255,255)" fill-opacity="0.0078125"/>
  <rect x="3" y="5" width="1" height="1" fill="rgb(29,41,58)" fill-opacity="0.8046875"/>
  <rect x="4" y="5" width="1" height="1" fill="rgb(31,44,62)" fill-opacity="0.9609375"/>
  <rect x="5" y="5" width="1" height="1" fill="rgb(32,48,73)"/>
  <rect x="6" y="5" width="1" height="1" fill="rgb(210,223,240)"/>
  <rect x="7" y="5" width="1" height="1" fill="rgb(214,225,241)"/>
  <rect x="8" y="5" width="1" height="1" fill="rgb(209,222,240)"/>
  <rect x="9" y="5" width="1" height="1" fill="rgb(205,219,239)"/>
  <rect x="10" y="5" width="1" height="1" fill="rgb(202,217,238)"/>
  <rect x="11" y="5" width="1" height="1" fill="rgb(200,216,237)"/>
  <rect x="12" y="5" width="1" height="1" fill="rgb(201,216,237)"/>
  <rect x="13" y="5" width="1" height="1" fill="rgb(201,216,238)"/>
  <rect x="14" y="5" width="1" height="1" fill="rgb(203,218,239)"/>
  <rect x="15" y="5" width="1" height="1" fill="rgb(202,216,238)"/>
  <rect x="16" y="5" width="1" height="1" fill="rgb(47,61,81)"/>
  <rect x="17" y="5" width="1" height="1" fill="rgb(31,44,62)" fill-opacity="0.9609375"/>
  <rect x="18" y="5" width="1" height="1" fill="rgb(29,40,58)" fill-opacity="0.796875"/>
  <rect x="19" y="5" width="2" height="1" fill="rgb(255,255,255)" fill-opacity="0.0078125"/>
  <rect x="0" y="6" width="4" height="1" fill="rgb(255,255,255)" fill-opacity="0.0078125"/>
  <rect x="4" y="6" width="1" height="1" fill="rgb(28,57,85)" fill-opacity="0.0390625"/>
  <rect x="5" y="6" width="1" height="1" fill="rgb(22,44,80)" fill-opacity="0.859375"/>
  <rect x="6" y="6" width="1" height="1" fill="rgb(161,182,211)"/>
  <rect x="7" y="6" width="1" height="1" fill="rgb(143,174,219)"/>
  <rect x="8" y="6" width="1" height="1" fill="rgb(98,141,204)"/>
  <rect x="9" y="6" width="1" height="1" fill="rgb(110,150,208)"/>
  <rect x="10" y="6" width="1" height="1" fill="rgb(123,159,212)"/>
  <rect x="11" y="6" width="1" height="1" fill="rgb(135,168,216)"/>
  <rect x="12" y="6" width="1" height="1" fill="rgb(147,177,220)"/>
  <rect x="13" y="6" width="1" height="1" fill="rgb(159,186,225)"/>
  <rect x="14" y="6" width="1" height="1" fill="rgb(172,195,229)"/>
  <rect x="15" y="6" width="1" height="1" fill="rgb(145,166,195)"/>
  <rect x="16" y="6" width="1" height="1" fill="rgb(28,49,84)" fill-opacity="0.765625"/>
  <rect x="17" y="6" width="1" height="1" fill="rgb(0,64,64)" fill-opacity="0.0234375"/>
  <rect x="18" y="6" width="3" height="1" fill="rgb(255,255,255)" fill-opacity="0.0078125"/>
  <rect x="0" y="7" width="5" height="1" fill="rgb(255,255,255)" fill-opacity="0.0078125"/>
  <rect x="5" y="7" width="1" height="1" fill="rgb(20,46,82)" fill-opacity="0.203125"/>
  <rect x="6" y="7" width="1" height="1" fill="rgb(48,72,108)" fill-opacity="0.9921875"/>
  <rect x="7" y="7" width="1" height="1" fill="rgb(188,205,231)"/>
  <rect x="8" y="7" width="1" height="1" fill="rgb(122,158,212)"/>
  <rect x="9" y="7" width="1" height="1" fill="rgb(120,157,211)"/>
  <rect x="10" y="7" width="1" height="1" fill="rgb(132,166,215)"/>
  <rect x="11" y="7" width="1" height="1" fill="rgb(145,175,220)"/>
  <rect x="12" y="7" width="1" height="1" fill="rgb(157,184,224)"/>
  <rect x="13" y="7" width="1" height="1" fill="rgb(169,193,228)"/>
  <rect x="14" y="7" width="1" height="1" fill="rgb(162,183,213)"/>
  <rect x="15" y="7" width="1" height="1" fill="rgb(38,61,94)" fill-opacity="0.90625"/>
  <rect x="16" y="7" width="1" height="1" fill="rgb(24,49,85)" fill-opacity="0.0859375"/>
  <rect x="17" y="7" width="4" height="1" fill="rgb(255,255,255)" fill-opacity="0.0078125"/>
  <rect x="0" y="8" width="6" height="1" fill="rgb(255,255,255)" fill-opacity="0.0078125"/>
  <rect x="6" y="8" width="1" height="1" fill="rgb(21,45,81)" fill-opacity="0.4765625"/>
  <rect x="7" y="8" width="1" height="1" fill="rgb(103,127,164)"/>
  <rect x="8" y="8" width="1" height="1" fill="rgb(175,197,229)"/>
  <rect x="9" y="8" width="1" height="1" fill="rgb(129,164,214)"/>
  <rect x="10" y="8" width="1" height="1" fill="rgb(142,173,219)"/>
  <rect x="11" y="8" width="1" height="1" fill="rgb(154,182,223)"/>
  <rect x="12" y="8" width="1" height="1" fill="rgb(166,191,227)"/>
  <rect x="13" y="8" width="1" height="1" fill="rgb(174,194,225)"/>
  <rect x="14" y="8" width="1" height="1" fill="rgb(55,78,109)" fill-opacity="0.984375"/>
  <rect x="15" y="8" width="1" height="1" fill="rgb(20,45,80)" fill-opacity="0.203125"/>
  <rect x="16" y="8" width="5" height="1" fill="rgb(255,255,255)" fill-opacity="0.0078125"/>
  <rect x="0" y="9" width="6" height="1" fill="rgb(255,255,255)" fill-opacity="0.0078125"/>
  <rect x="6" y="9" width="1" height="1" fill="rgb(0,0,128)" fill-opacity="0.015625"/>
  <rect x="7" y="9" width="1" height="1" fill="rgb(23,47,80)" fill-opacity="0.7734375"/>
  <rect x="8" y="9" width="1" height="1" fill="rgb(156,177,208)"/>
  <rect x="9" y="9" width="1" height="1" fill="rgb(161,187,225)"/>
  <rect x="10" y="9" width="1" height="1" fill="rgb(151,180,222)"/>
  <rect x="11" y="9" width="1" height="1" fill="rgb(163,189,226)"/>
  <rect x="12" y="9" width="1" height="1" fill="rgb(176,198,230)"/>
  <rect x="13" y="9" width="1" height="1" fill="rgb(79,100,133)"/>
  <rect x="14" y="9" width="1" height="1" fill="rgb(22,44,80)" fill-opacity="0.3671875"/>
  <rect x="15" y="9" width="6" height="1" fill="rgb(255,255,255)" fill-opacity="0.0078125"/>
  <rect x="0" y="10" width="7" height="1" fill="rgb(255,255,255)" fill-opacity="0.0078125"/>
  <rect x="7" y="10" width="1" height="1" fill="rgb(25,41,82)" fill-opacity="0.125"/>
  <rect x="8" y="10" width="1" height="1" fill="rgb(52,76,110)" fill-opacity="0.96875"/>
  <rect x="9" y="10" width="1" height="1" fill="rgb(182,202,230)"/>
  <rect x="10" y="10" width="1" height="1" fill="rgb(165,190,226)"/>
  <rect x="11" y="10" width="1" height="1" fill="rgb(173,196,229)"/>
  <rect x="12" y="10" width="1" height="1" fill="rgb(109,130,161)"/>
  <rect x="13" y="10" width="1" height="1" fill="rgb(21,44,80)" fill-opacity="0.5703125"/>
  <rect x="14" y="10" width="7" height="1" fill="rgb(255,255,255)" fill-opacity="0.0078125"/>
  <rect x="0" y="11" width="3" height="1" fill="rgb(255,255,255)" fill-opacity="0.0078125"/>
  <rect x="3" y="11" width="1" height="1" fill="rgb(30,30,30)" fill-opacity="0.265625"/>
  <rect x="4" y="11" width="1" height="1" fill="rgb(42,42,42)" fill-opacity="0.3125"/>
  <rect x="5" y="11" width="1" height="1" fill="rgb(31,31,31)" fill-opacity="0.2578125"/>
  <rect x="6" y="11" width="2" height="1" fill="rgb(255,255,255)" fill-opacity="0.0078125"/>
  <rect x="8" y="11" width="1" height="1" fill="rgb(22,44,80)" fill-opacity="0.3671875"/>
  <rect x="9" y="11" width="1" height="1" fill="rgb(109,131,163)"/>
  <rect x="10" y="11" width="1" height="1" fill="rgb(186,205,233)"/>
  <rect x="11" y="11" width="1" height="1" fill="rgb(135,157,188)"/>
  <rect x="12" y="11" width="1" height="1" fill="rgb(24,48,82)" fill-opacity="0.7578125"/>
  <rect x="13" y="11" width="1" height="1" fill="rgb(0,64,64)" fill-opacity="0.0234375"/>
  <rect x="14" y="11" width="2" height="1" fill="rgb(255,255,255)" fill-opacity="0.0078125"/>
  <rect x="16" y="11" width="1" height="1" fill="rgb(45,45,45)" fill-opacity="0.2265625"/>
  <rect x="17" y="11" width="1" height="1" fill="rgb(66,66,66)" fill-opacity="0.28125"/>
  <rect x="18" y="11" width="1" height="1" fill="rgb(46,46,46)" fill-opacity="0.21875"/>
  <rect x="19" y="11" width="2" height="1" fill="rgb(255,255,255)" fill-opacity="0.0078125"/>
  <rect x="0" y="12" width="3" height="1" fill="rgb(255,255,255)" fill-opacity="0.0078125"/>
  <rect x="3" y="12" width="1" height="1" fill="rgb(23,23,23)" fill-opacity="0.34375"/>
  <rect x="4" y="12" width="1" height="1" fill="rgb(255,255,255)" fill-opacity="0.2890625"/>
  <rect x="5" y="12" width="1" height="1" fill="rgb(37,37,37)" fill-opacity="0.359375"/>
  <rect x="6" y="12" width="1" height="1" fill="rgb(27,27,27)" fill-opacity="0.3359375"/>
  <rect x="7" y="12" width="2" height="1" fill="rgb(30,30,30)" fill-opacity="0.3359375"/>
  <rect x="9" y="12" width="1" height="1" fill="rgb(28,42,61)" fill-opacity="0.9609375"/>
  <rect x="10" y="12" width="1" height="1" fill="rgb(41,54,72)"/>
  <rect x="11" y="12" width="1" height="1" fill="rgb(29,44,64)" fill-opacity="0.9921875"/>
  <rect x="12" y="12" width="1" height="1" fill="rgb(35,40,48)" fill-opacity="0.375"/>
  <rect x="13" y="12" width="2" height="1" fill="rgb(38,38,38)" fill-opacity="0.3203125"/>
  <rect x="15" y="12" width="1" height="1" fill="rgb(39,39,39)" fill-opacity="0.3125"/>
  <rect x="16" y="12" width="1" height="1" fill="rgb(60,60,60)" fill-opacity="0.3359375"/>
  <rect x="17" y="12" width="1" height="1" fill="rgb(255,255,255)" fill-opacity="0.2890625"/>
  <rect x="18" y="12" width="1" height="1" fill="rgb(46,46,46)" fill-opacity="0.3046875"/>
  <rect x="19" y="12" width="2" height="1" fill="rgb(255,255,255)" fill-opacity="0.0078125"/>
  <rect x="0" y="13" width="3" height="1" fill="rgb(255,255,255)" fill-opacity="0.0078125"/>
  <rect x="3" y="13" width="1" height="1" fill="rgb(12,12,12)" fill-opacity="0.3359375"/>
  <rect x="4" y="13" width="1" height="1" fill="rgb(13,13,13)" fill-opacity="0.375"/>
  <rect x="5" y="13" width="1" height="1" fill="rgb(32,32,32)" fill-opacity="0.3828125"/>
  <rect x="6" y="13" width="3" height="1" fill="rgb(255,255,255)" fill-opacity="0.2890625"/>
  <rect x="9" y="13" width="1" height="1" fill="rgb(37,49,65)" fill-opacity="0.9453125"/>
  <rect x="10" y="13" width="1" height="1" fill="rgb(215,227,244)"/>
  <rect x="11" y="13" width="1" height="1" fill="rgb(42,54,70)" fill-opacity="0.9375"/>
  <rect x="12" y="13" width="3" height="1" fill="rgb(255,255,255)" fill-opacity="0.2890625"/>
  <rect x="15" y="13" width="1" height="1" fill="rgb(245,245,245)" fill-opacity="0.2890625"/>
  <rect x="16" y="13" width="1" height="1" fill="rgb(49,49,49)" fill-opacity="0.375"/>
  <rect x="17" y="13" width="1" height="1" fill="rgb(29,29,29)" fill-opacity="0.34375"/>
  <rect x="18" y="13" width="1" height="1" fill="rgb(21,21,21)" fill-opacity="0.2890625"/>
  <rect x="19" y="13" width="2" height="1" fill="rgb(255,255,255)" fill-opacity="0.0078125"/>
  <rect x="0" y="14" width="4" height="1" fill="rgb(255,255,255)" fill-opacity="0.0078125"/>
  <rect x="4" y="14" width="1" height="1" fill="rgb(0,0,0)" fill-opacity="0.03125"/>
  <rect x="5" y="14" width="1" height="1" fill="rgb(19,19,19)" fill-opacity="0.3203125"/>
  <rect x="6" y="14" width="1" height="1" fill="rgb(62,62,62)" fill-opacity="0.359375"/>
  <rect x="7" y="14" width="1" height="1" fill="rgb(234,234,234)" fill-opacity="0.296875"/>
  <rect x="8" y="14" width="1" height="1" fill="rgb(255,255,255)" fill-opacity="0.2890625"/>
  <rect x="9" y="14" width="1" height="1" fill="rgb(44,55,71)" fill-opacity="0.859375"/>
  <rect x="10" y="14" width="1" height="1" fill="rgb(38,49,65)" fill-opacity="0.9375"/>
  <rect x="11" y="14" width="1" height="1" fill="rgb(43,55,71)" fill-opacity="0.859375"/>
  <rect x="12" y="14" width="2" height="1" fill="rgb(255,255,255)" fill-opacity="0.2890625"/>
  <rect x="14" y="14" width="1" height="1" fill="rgb(195,195,195)" fill-opacity="0.3046875"/>
  <rect x="15" y="14" width="1" height="1" fill="rgb(42,42,42)" fill-opacity="0.359375"/>
  <rect x="16" y="14" width="1" height="1" fill="rgb(24,24,24)" fill-opacity="0.25"/>
  <rect x="17" y="14" width="1" height="1" fill="rgb(0,0,0)" fill-opacity="0.0234375"/>
  <rect x="18" y="14" width="3" height="1" fill="rgb(255,255,255)" fill-opacity="0.0078125"/>
  <rect x="0" y="15" width="5" height="1" fill="rgb(255,255,255)" fill-opacity="0.0078125"/>
  <rect x="5" y="15" width="1" height="1" fill="rgb(0,0,0)" fill-opacity="0.0078125"/>
  <rect x="6" y="15" width="1" height="1" fill="rgb(21,21,21)" fill-opacity="0.25"/>
  <rect x="7" y="15" width="1" height="1" fill="rgb(27,27,27)" fill-opacity="0.375"/>
  <rect x="8" y="15" width="1" height="1" fill="rgb(208,208,208)" fill-opacity="0.3046875"/>
  <rect x="9" y="15" width="4" height="1" fill="rgb(255,255,255)" fill-opacity="0.2890625"/>
  <rect x="13" y="15" width="1" height="1" fill="rgb(114,114,114)" fill-opacity="0.3359375"/>
  <rect x="14" y="15" width="1" height="1" fill="rgb(8,8,8)" fill-opacity="0.3828125"/>
  <rect x="15" y="15" width="1" height="1" fill="rgb(7,7,7)" fill-opacity="0.1484375"/>
  <rect x="16" y="15" width="5" height="1" fill="rgb(255,255,255)" fill-opacity="0.0078125"/>
  <rect x="0" y="16" width="7" height="1" fill="rgb(255,255,255)" fill-opacity="0.0078125"/>
  <rect x="7" y="16" width="1" height="1" fill="rgb(13,13,13)" fill-opacity="0.1640625"/>
  <rect x="8" y="16" width="1" height="1" fill="rgb(13,13,13)" fill-opacity="0.3828125"/>
  <rect x="9" y="16" width="1" height="1" fill="rgb(21,21,21)" fill-opacity="0.390625"/>
  <rect x="10" y="16" width="1" height="1" fill="rgb(0,0,0)" fill-opacity="0.40625"/>
  <rect x="11" y="16" width="1" height="1" fill="rgb(23,23,23)" fill-opacity="0.390625"/>
  <rect x="12" y="16" width="1" height="1" fill="rgb(39,39,39)" fill-opacity="0.359375"/>
  <rect x="13" y="16" width="1" height="1" fill="rgb(10,10,10)" fill-opacity="0.3203125"/>
  <rect x="14" y="16" width="1" height="1" fill="rgb(0,0,0)" fill-opacity="0.0546875"/>
  <rect x="15" y="16" width="6" height="1" fill="rgb(255,255,255)" fill-opacity="0.0078125"/>
  <rect x="0" y="17" width="8" height="1" fill="rgb(255,255,255)" fill-opacity="0.0078125"/>
  <rect x="8" y="17" width="1" height="1" fill="rgb(0,0,0)" fill-opacity="0.09375"/>
  <rect x="9" y="17" width="1" height="1" fill="rgb(0,0,0)" fill-opacity="0.40625"/>
  <rect x="10" y="17" width="1" height="1" fill="rgb(255,255,255)" fill-opacity="0.2890625"/>
  <rect x="11" y="17" width="1" height="1" fill="rgb(0,0,0)" fill-opacity="0.40625"/>
  <rect x="12" y="17" width="1" height="1" fill="rgb(5,5,5)" fill-opacity="0.1953125"/>
  <rect x="13" y="17" width="1" height="1" fill="rgb(0,0,0)" fill-opacity="0.0078125"/>
  <rect x="14" y="17" width="7" height="1" fill="rgb(255,255,255)" fill-opacity="0.0078125"/>
  <rect x="0" y="18" width="9" height="1" fill="rgb(255,255,255)" fill-opacity="0.0078125"/>
  <rect x="9" y="18" width="1" height="1" fill="rgb(6,6,6)" fill-opacity="0.3671875"/>
  <rect x="10" y="18" width="1" height="1" fill="rgb(0,0,0)" fill-opacity="0.40625"/>
  <rect x="11" y="18" width="1" height="1" fill="rgb(6,6,6)" fill-opacity="0.3671875"/>
  <rect x="12" y="18" width="9" height="1" fill="rgb(255,255,255)" fill-opacity="0.0078125"/>
  <rect x="0" y="19" width="21" height="1" fill="rgb(255,255,255)" fill-opacity="0.0078125"/>
  <rect x="0" y="20" width="21" height="1" fill="rgb(255,255,255)" fill-opacity="0.0078125"/>
</svg>