<svg xmlns="http://www.w3.org/2000/svg" shape-rendering="crispEdges" width="21" height="21" viewBox="0 0 21 21">
  <rect x="0" y="0" width="21" height="1" fill="rgb(255,255,255)" fill-opacity="0.0078125"/>
  <rect x="0" y="1" width="21" height="1" fill="rgb(255,255,255)" fill-opacity="0.0078125"/>
  <rect x="0" y="2" width="21" height="1" fill="rgb(255,255,255)" fill-opacity="0.0078125"/>
  <rect x="0" y="3" width="21" height="1" fill="rgb(255,255,255)" fill-opacity="0.0078125"/>
  <rect x="0" y="4" width="21" height="1" fill="rgb(255,255,255)" fill-opacity="0.0078125"/>
  <rect x="0" y="5" width="21" height="1" fill="rgb(255,255,255)" fill-opacity="0.0078125"/>
  <rect x="0" y="6" width="21" height="1" fill="rgb(255,255,255)" fill-opacity="0.0078125"/>
  <rect x="0" y="7" width="7" height="1" fill="rgb(255,255,255)" fill-opacity="0.0078125"/>
  <rect x="7" y="7" width="1" height="1" fill="rgb(13,13,13)" fill-opacity="0.15625"/>
  <rect x="8" y="7" width="1" height="1" fill="rgb(47,47,47)" fill-opacity="0.640625"/>
  <rect x="9" y="7" width="1" height="1" fill="rgb(44,44,44)" fill-opacity="0.8828125"/>
  <rect x="10" y="7" width="1" height="1" fill="rgb(49,49,49)" fill-opacity="0.9765625"/>
  <rect x="11" y="7" width="1" height="1" fill="rgb(43,43,43)" fill-opacity="0.96875"/>
  <rect x="12" y="7" width="1" height="1" fill="rgb(40,40,40)" fill-opacity="0.875"/>
  <rect x="13" y="7" width="1" height="1" fill="rgb(45,45,45)" fill-opacity="0.6328125"/>
  <rect x="14" y="7" width="1" height="1" fill="rgb(8,8,8)" fill-opacity="0.140625"/>
  <rect x="15" y="7" width="6" height="1" fill="rgb(255,255,255)" fill-opacity="0.0078125"/>
  <rect x="0" y="8" width="5" height="1" fill="rgb(255,255,255)" fill-opacity="0.0078125"/>
  <rect x="5" y="8" width="1" height="1" fill="rgb(93,93,93)" fill-opacity="0.046875"/>
  <rect x="6" y="8" width="1" height="1" fill="rgb(59,59,59)" fill-opacity="0.8046875"/>
  <rect x="7" y="8" width="1" height="1" fill="rgb(92,92,92)" fill-opacity="0.9609375"/>
  <rect x="8" y="8" width="1" height="1" fill="rgb(160,160,160)"/>
  <rect x="9" y="8" width="1" height="1" fill="rgb(223,223,223)"/>
  <rect x="10" y="8" width="1" height="1" fill="rgb(208,208,208)"/>
  <rect x="11" y="8" width="1" height="1" fill="rgb(139,139,139)"/>
  <rect x="12" y="8" width="1" height="1" fill="rgb(127,127,127)"/>
  <rect x="13" y="8" width="1" height="1" fill="rgb(158,158,158)"/>
  <rect x="14" y="8" width="1" height="1" fill="rgb(83,83,83)" fill-opacity="0.9609375"/>
  <rect x="15" y="8" width="1" height="1" fill="rgb(56,56,56)" fill-opacity="0.7890625"/>
  <rect x="16" y="8" width="1" height="1" fill="rgb(85,85,85)" fill-opacity="0.0390625"/>
  <rect x="17" y="8" width="4" height="1" fill="rgb(255,255,255)" fill-opacity="0.0078125"/>
  <rect x="0" y="9" width="4" height="1" fill="rgb(255,255,255)" fill-opacity="0.0078125"/>
  <rect x="4" y="9" width="1" height="1" fill="rgb(44,44,44)" fill-opacity="0.1171875"/>
  <rect x="5" y="9" width="1" height="1" fill="rgb(54,54,54)" fill-opacity="0.9375"/>
  <rect x="6" y="9" width="1" height="1" fill="rgb(173,173,173)"/>
  <rect x="7" y="9" width="1" height="1" fill="rgb(255,255,255)"/>
  <rect x="8" y="9" width="1" height="1" fill="rgb(171,171,171)"/>
  <rect x="9" y="9" width="1" height="1" fill="rgb(206,206,206)"/>
  <rect x="10" y="9" width="1" height="1" fill="rgb(107,107,107)"/>
  <rect x="11" y="9" width="1" height="1" fill="rgb(4,4,4)"/>
  <rect x="12" y="9" width="1" height="1" fill="rgb(128,128,128)"/>
  <rect x="13" y="9" width="1" height="1" fill="rgb(157,157,157)"/>
  <rect x="14" y="9" width="1" height="1" fill="rgb(241,241,241)"/>
  <rect x="15" y="9" width="1" height="1" fill="rgb(153,153,153)"/>
  <rect x="16" y="9" width="1" height="1" fill="rgb(48,48,48)" fill-opacity="0.9296875"/>
  <rect x="17" y="9" width="1" height="1" fill="rgb(32,32,32)" fill-opacity="0.1015625"/>
  <rect x="18" y="9" width="3" height="1" fill="rgb(255,255,255)" fill-opacity="0.0078125"/>
  <rect x="0" y="10" width="4" height="1" fill="rgb(255,255,255)" fill-opacity="0.0078125"/>
  <rect x="4" y="10" width="1" height="1" fill="rgb(31,31,31)" fill-opacity="0.8125"/>
  <rect x="5" y="10" width="1" height="1" fill="rgb(178,178,178)"/>
  <rect x="6" y="10" width="2" height="1" fill="rgb(255,255,255)"/>
  <rect x="8" y="10" width="1" height="1" fill="rgb(158,158,158)"/>
  <rect x="9" y="10" width="1" height="1" fill="rgb(145,145,145)"/>
  <rect x="10" y="10" width="1" height="1" fill="rgb(12,12,12)"/>
  <rect x="11" y="10" width="1" height="1" fill="rgb(16,16,16)"/>
  <rect x="12" y="10" width="1" height="1" fill="rgb(128,128,128)"/>
  <rect x="13" y="10" width="1" height="1" fill="rgb(157,157,157)"/>
  <rect x="14" y="10" width="1" height="1" fill="rgb(241,241,241)"/>
  <rect x="15" y="10" width="1" height="1" fill="rgb(232,232,232)"/>
  <rect x="16" y="10" width="1" height="1" fill="rgb(149,149,149)"/>
  <rect x="17" y="10" width="1" height="1" fill="rgb(25,25,25)" fill-opacity="0.7734375"/>
  <rect x="18" y="10" width="3" height="1" fill="rgb(255,255,255)" fill-opacity="0.0078125"/>
  <rect x="0" y="11" width="4" height="1" fill="rgb(255,255,255)" fill-opacity="0.0078125"/>
  <rect x="4" y="11" width="1" height="1" fill="rgb(6,6,6)" fill-opacity="0.1640625"/>
  <rect x="5" y="11" width="1" height="1" fill="rgb(41,41,41)" fill-opacity="0.921875"/>
  <rect x="6" y="11" width="1" height="1" fill="rgb(234,234,234)"/>
  <rect x="7" y="11" width="1" height="1" fill="rgb(255,255,255)"/>
  <rect x="8" y="11" width="1" height="1" fill="rgb(205,205,205)"/>
  <rect x="9" y="11" width="4" height="1" fill="rgb(128,128,128)"/>
  <rect x="13" y="11" width="1" height="1" fill="rgb(207,207,207)"/>
  <rect x="14" y="11" width="1" height="1" fill="rgb(240,240,240)"/>
  <rect x="15" y="11" width="1" height="1" fill="rgb(208,208,208)"/>
  <rect x="16" y="11" width="1" height="1" fill="rgb(33,33,33)" fill-opacity="0.90625"/>
  <rect x="17" y="11" width="1" height="1" fill="rgb(0,0,0)" fill-opacity="0.1484375"/>
  <rect x="18" y="11" width="3" height="1" fill="rgb(255,255,255)" fill-opacity="0.0078125"/>
  <rect x="0" y="12" width="5" height="1" fill="rgb(255,255,255)" fill-opacity="0.0078125"/>
  <rect x="5" y="12" width="1" height="1" fill="rgb(23,23,23)" fill-opacity="0.21875"/>
  <rect x="6" y="12" width="1" height="1" fill="rgb(50,50,50)" fill-opacity="0.9375"/>
  <rect x="7" y="12" width="1" height="1" fill="rgb(237,237,237)"/>
  <rect x="8" y="12" width="1" height="1" fill="rgb(253,253,253)"/>
  <rect x="9" y="12" width="1" height="1" fill="rgb(206,206,206)"/>
  <rect x="10" y="12" width="1" height="1" fill="rgb(153,153,153)"/>
  <rect x="11" y="12" width="1" height="1" fill="rgb(155,155,155)"/>
  <rect x="12" y="12" width="1" height="1" fill="rgb(208,208,208)"/>
  <rect x="13" y="12" width="1" height="1" fill="rgb(247,247,247)"/>
  <rect x="14" y="12" width="1" height="1" fill="rgb(220,220,220)"/>
  <rect x="15" y="12" width="1" height="1" fill="rgb(42,42,42)" fill-opacity="0.9296875"/>
  <rect x="16" y="12" width="1" height="1" fill="rgb(11,11,11)" fill-opacity="0.1875"/>
  <rect x="17" y="12" width="4" height="1" fill="rgb(255,255,255)" fill-opacity="0.0078125"/>
  <rect x="0" y="13" width="6" height="1" fill="rgb(255,255,255)" fill-opacity="0.0078125"/>
  <rect x="6" y="13" width="1" height="1" fill="rgb(9,9,9)" fill-opacity="0.21875"/>
  <rect x="7" y="13" width="1" height="1" fill="rgb(29,29,29)" fill-opacity="0.8359375"/>
  <rect x="8" y="13" width="1" height="1" fill="rgb(144,144,144)" fill-opacity="0.890625"/>
  <rect x="9" y="13" width="1" height="1" fill="rgb(232,232,232)" fill-opacity="0.9921875"/>
  <rect x="10" y="13" width="2" height="1" fill="rgb(255,255,255)"/>
  <rect x="12" y="13" width="1" height="1" fill="rgb(230,230,230)" fill-opacity="0.9921875"/>
  <rect x="13" y="13" width="1" height="1" fill="rgb(135,135,135)" fill-opacity="0.8828125"/>
  <rect x="14" y="13" width="1" height="1" fill="rgb(26,26,26)" fill-opacity="0.8203125"/>
  <rect x="15" y="13" width="1" height="1" fill="rgb(5,5,5)" fill-opacity="0.1953125"/>
  <rect x="16" y="13" width="5" height="1" fill="rgb(255,255,255)" fill-opacity="0.0078125"/>
  <rect x="0" y="14" width="7" height="1" fill="rgb(255,255,255)" fill-opacity="0.0078125"/>
  <rect x="7" y="14" width="1" height="1" fill="rgb(0,0,0)" fill-opacity="0.015625"/>
  <rect x="8" y="14" width="1" height="1" fill="rgb(0,0,0)" fill-opacity="0.3828125"/>
  <rect x="9" y="14" width="1" height="1" fill="rgb(5,5,5)" fill-opacity="0.6171875"/>
  <rect x="10" y="14" width="1" height="1" fill="rgb(19,19,19)" fill-opacity="0.75"/>
  <rect x="11" y="14" width="1" height="1" fill="rgb(18,18,18)" fill-opacity="0.7421875"/>
  <rect x="12" y="14" width="1" height="1" fill="rgb(3,3,3)" fill-opacity="0.609375"/>
  <rect x="13" y="14" width="1" height="1" fill="rgb(0,0,0)" fill-opacity="0.3671875"/>
  <rect x="14" y="14" width="1" height="1" fill="rgb(0,0,0)" fill-opacity="0.015625"/>
  <rect x="15" y="14" width="6" height="1" fill="rgb(255,255,255)" fill-opacity="0.0078125"/>
  <rect x="0" y="15" width="21" height="1" fill="rgb(255,255,255)" fill-opacity="0.0078125"/>
  <rect x="0" y="16" width="21" height="1" fill="rgb(255,255,255)" fill-opacity="0.0078125"/>
  <rect x="0" y="17" width="21" height="1" fill="rgb(255,255,255)" fill-opacity="0.0078125"/>
  <rect x="0" y="18" width="21" height="1" fill="rgb(255,255,255)" fill-opacity="0.0078125"/>
  <rect x="0" y="19" width="21" height="1" fill="rgb(255,255,255)" fill-opacity="0.0078125"/>
  <rect x="0" y="20" width="21" height="1" fill="rgb(255,255,255)" fill-opacity="0.0078125"/>
</svg>