<svg xmlns="http://www.w3.org/2000/svg" shape-rendering="crispEdges" width="21" height="21" viewBox="0 0 21 21">
  <rect x="0" y="0" width="21" height="1" fill="rgb(255,255,255)" fill-opacity="0.0078125"/>
  <rect x="0" y="1" width="21" height="1" fill="rgb(255,255,255)" fill-opacity="0.0078125"/>
  <rect x="0" y="2" width="21" height="1" fill="rgb(255,255,255)" fill-opacity="0.0078125"/>
  <rect x="0" y="3" width="3" height="1" fill="rgb(255,255,255)" fill-opacity="0.0078125"/>
  <rect x="3" y="3" width="1" height="1" fill="rgb(51,51,51)" fill-opacity="0.8828125"/>
  <rect x="4" y="3" width="2" height="1" fill="rgb(51,51,51)"/>
  <rect x="6" y="3" width="1" height="1" fill="rgb(51,51,51)" fill-opacity="0.8828125"/>
  <rect x="7" y="3" width="3" height="1" fill="rgb(255,255,255)" fill-opacity="0.0078125"/>
  <rect x="10" y="3" width="1" height="1" fill="rgb(51,51,51)" fill-opacity="0.8828125"/>
  <rect x="11" y="3" width="2" height="1" fill="rgb(51,51,51)"/>
  <rect x="13" y="3" width="1" height="1" fill="rgb(51,51,51)" fill-opacity="0.8828125"/>
  <rect x="14" y="3" width="7" height="1" fill="rgb(255,255,255)" fill-opacity="0.0078125"/>
  <rect x="0" y="4" width="3" height="1" fill="rgb(255,255,255)" fill-opacity="0.0078125"/>
  <rect x="3" y="4" width="1" height="1" fill="rgb(51,51,51)"/>
  <rect x="4" y="4" width="2" height="1" fill="rgb(255,255,255)"/>
  <rect x="6" y="4" width="1" height="1" fill="rgb(51,51,51)"/>
  <rect x="7" y="4" width="3" height="1" fill="rgb(255,255,255)" fill-opacity="0.0078125"/>
  <rect x="10" y="4" width="1" height="1" fill="rgb(51,51,51)"/>
  <rect x="11" y="4" width="2" height="1" fill="rgb(255,255,255)"/>
  <rect x="13" y="4" width="1" height="1" fill="rgb(51,51,51)"/>
  <rect x="14" y="4" width="7" height="1" fill="rgb(255,255,255)" fill-opacity="0.0078125"/>
  <rect x="0" y="5" width="3" height="1" fill="rgb(255,255,255)" fill-opacity="0.0078125"/>
  <rect x="3" y="5" width="1" height="1" fill="rgb(51,51,51)"/>
  <rect x="4" y="5" width="2" height="1" fill="rgb(255,255,255)"/>
  <rect x="6" y="5" width="1" height="1" fill="rgb(51,51,51)"/>
  <rect x="7" y="5" width="3" height="1" fill="rgb(255,255,255)" fill-opacity="0.0078125"/>
  <rect x="10" y="5" width="1" height="1" fill="rgb(51,51,51)"/>
  <rect x="11" y="5" width="2" height="1" fill="rgb(255,255,255)"/>
  <rect x="13" y="5" width="1" height="1" fill="rgb(51,51,51)"/>
  <rect x="14" y="5" width="7" height="1" fill="rgb(255,255,255)" fill-opacity="0.0078125"/>
  <rect x="0" y="6" width="3" height="1" fill="rgb(255,255,255)" fill-opacity="0.0078125"/>
  <rect x="3" y="6" width="1" height="1" fill="rgb(51,51,51)" fill-opacity="0.8828125"/>
  <rect x="4" y="6" width="2" height="1" fill="rgb(51,51,51)"/>
  <rect x="6" y="6" width="1" height="1" fill="rgb(51,51,51)" fill-opacity="0.8828125"/>
  <rect x="7" y="6" width="3" height="1" fill="rgb(255,255,255)" fill-opacity="0.0078125"/>
  <rect x="10" y="6" width="1" height="1" fill="rgb(51,51,51)" fill-opacity="0.8828125"/>
  <rect x="11" y="6" width="2" height="1" fill="rgb(51,51,51)"/>
  <rect x="13" y="6" width="1" height="1" fill="rgb(51,51,51)" fill-opacity="0.8828125"/>
  <rect x="14" y="6" width="7" height="1" fill="rgb(255,255,255)" fill-opacity="0.0078125"/>
  <rect x="0" y="7" width="21" height="1" fill="rgb(255,255,255)" fill-opacity="0.0078125"/>
  <rect x="0" y="8" width="10" height="1" fill="rgb(255,255,255)" fill-opacity="0.0078125"/>
  <rect x="10" y="8" width="1" height="1" fill="rgb(51,51,51)" fill-opacity="0.0234375"/>
  <rect x="11" y="8" width="1" height="1" fill="rgb(36,34,25)" fill-opacity="0.453125"/>
  <rect x="12" y="8" width="1" height="1" fill="rgb(54,46,24)" fill-opacity="0.765625"/>
  <rect x="13" y="8" width="1" height="1" fill="rgb(58,48,38)" fill-opacity="0.8984375"/>
  <rect x="14" y="8" width="1" height="1" fill="rgb(54,33,25)" fill-opacity="0.765625"/>
  <rect x="15" y="8" width="1" height="1" fill="rgb(36,29,27)" fill-opacity="0.453125"/>
  <rect x="16" y="8" width="1" height="1" fill="rgb(51,51,51)" fill-opacity="0.0234375"/>
  <rect x="17" y="8" width="4" height="1" fill="rgb(255,255,255)" fill-opacity="0.0078125"/>
  <rect x="0" y="9" width="9" height="1" fill="rgb(255,255,255)" fill-opacity="0.0078125"/>
  <rect x="9" y="9" width="1" height="1" fill="rgb(28,28,28)" fill-opacity="0.1484375"/>
  <rect x="10" y="9" width="1" height="1" fill="rgb(56,51,36)" fill-opacity="0.875"/>
  <rect x="11" y="9" width="1" height="1" fill="rgb(196,179,133)" fill-opacity="0.9921875"/>
  <rect x="12" y="9" width="1" height="1" fill="rgb(244,229,188)"/>
  <rect x="13" y="9" width="1" height="1" fill="rgb(254,232,201)" fill-opacity="0.9296875"/>
  <rect x="14" y="9" width="1" height="1" fill="rgb(242,196,177)"/>
  <rect x="15" y="9" width="1" height="1" fill="rgb(187,139,120)" fill-opacity="0.9921875"/>
  <rect x="16" y="9" width="1" height="1" fill="rgb(55,40,35)" fill-opacity="0.8671875"/>
  <rect x="17" y="9" width="1" height="1" fill="rgb(28,28,28)" fill-opacity="0.1484375"/>
  <rect x="18" y="9" width="3" height="1" fill="rgb(255,255,255)" fill-opacity="0.0078125"/>
  <rect x="0" y="10" width="3" height="1" fill="rgb(255,255,255)" fill-opacity="0.0078125"/>
  <rect x="3" y="10" width="1" height="1" fill="rgb(51,51,51)" fill-opacity="0.8828125"/>
  <rect x="4" y="10" width="2" height="1" fill="rgb(51,51,51)"/>
  <rect x="6" y="10" width="1" height="1" fill="rgb(51,51,51)" fill-opacity="0.8828125"/>
  <rect x="7" y="10" width="1" height="1" fill="rgb(255,255,255)" fill-opacity="0.0078125"/>
  <rect x="8" y="10" width="1" height="1" fill="rgb(51,51,51)" fill-opacity="0.0234375"/>
  <rect x="9" y="10" width="1" height="1" fill="rgb(53,48,31)" fill-opacity="0.8671875"/>
  <rect x="10" y="10" width="1" height="1" fill="rgb(241,224,179)"/>
  <rect x="11" y="10" width="1" height="1" fill="rgb(255,222,129)"/>
  <rect x="12" y="10" width="1" height="1" fill="rgb(255,196,32)"/>
  <rect x="13" y="10" width="1" height="1" fill="rgb(255,157,17)" fill-opacity="0.7578125"/>
  <rect x="14" y="10" width="1" height="1" fill="rgb(255,101,40)"/>
  <rect x="15" y="10" width="1" height="1" fill="rgb(255,155,116)"/>
  <rect x="16" y="10" width="1" height="1" fill="rgb(234,171,146)"/>
  <rect x="17" y="10" width="1" height="1" fill="rgb(52,37,31)" fill-opacity="0.8671875"/>
  <rect x="18" y="10" width="1" height="1" fill="rgb(51,51,51)" fill-opacity="0.0234375"/>
  <rect x="19" y="10" width="2" height="1" fill="rgb(255,255,255)" fill-opacity="0.0078125"/>
  <rect x="0" y="11" width="3" height="1" fill="rgb(255,255,255)" fill-opacity="0.0078125"/>
  <rect x="3" y="11" width="1" height="1" fill="rgb(51,51,51)"/>
  <rect x="4" y="11" width="2" height="1" fill="rgb(255,255,255)"/>
  <rect x="6" y="11" width="1" height="1" fill="rgb(51,51,51)"/>
  <rect x="7" y="11" width="1" height="1" fill="rgb(255,255,255)" fill-opacity="0.0078125"/>
  <rect x="8" y="11" width="1" height="1" fill="rgb(29,29,26)" fill-opacity="0.421875"/>
  <rect x="9" y="11" width="1" height="1" fill="rgb(176,184,121)" fill-opacity="0.9453125"/>
  <rect x="10" y="11" width="1" height="1" fill="rgb(253,230,147)" fill-opacity="0.890625"/>
  <rect x="11" y="11" width="2" height="1" fill="rgb(255,191,14)"/>
  <rect x="13" y="11" width="1" height="1" fill="rgb(255,157,17)" fill-opacity="0.7578125"/>
  <rect x="14" y="11" width="2" height="1" fill="rgb(255,90,25)"/>
  <rect x="16" y="11" width="1" height="1" fill="rgb(235,150,150)" fill-opacity="0.8671875"/>
  <rect x="17" y="11" width="1" height="1" fill="rgb(148,106,137)" fill-opacity="0.9375"/>
  <rect x="18" y="11" width="1" height="1" fill="rgb(29,26,29)" fill-opacity="0.421875"/>
  <rect x="19" y="11" width="2" height="1" fill="rgb(255,255,255)" fill-opacity="0.0078125"/>
  <rect x="0" y="12" width="3" height="1" fill="rgb(255,255,255)" fill-opacity="0.0078125"/>
  <rect x="3" y="12" width="1" height="1" fill="rgb(51,51,51)"/>
  <rect x="4" y="12" width="2" height="1" fill="rgb(255,255,255)"/>
  <rect x="6" y="12" width="1" height="1" fill="rgb(51,51,51)"/>
  <rect x="7" y="12" width="1" height="1" fill="rgb(255,255,255)" fill-opacity="0.0078125"/>
  <rect x="8" y="12" width="1" height="1" fill="rgb(43,47,24)" fill-opacity="0.71875"/>
  <rect x="9" y="12" width="1" height="1" fill="rgb(226,241,166)"/>
  <rect x="10" y="12" width="1" height="1" fill="rgb(212,255,38)"/>
  <rect x="11" y="12" width="1" height="1" fill="rgb(221,234,5)" fill-opacity="0.8046875"/>
  <rect x="12" y="12" width="1" height="1" fill="rgb(254,194,14)" fill-opacity="0.8671875"/>
  <rect x="13" y="12" width="1" height="1" fill="rgb(255,157,17)" fill-opacity="0.7578125"/>
  <rect x="14" y="12" width="1" height="1" fill="rgb(239,82,49)" fill-opacity="0.8671875"/>
  <rect x="15" y="12" width="1" height="1" fill="rgb(180,50,137)" fill-opacity="0.8046875"/>
  <rect x="16" y="12" width="1" height="1" fill="rgb(181,67,158)"/>
  <rect x="17" y="12" width="1" height="1" fill="rgb(194,136,183)"/>
  <rect x="18" y="12" width="1" height="1" fill="rgb(40,28,38)" fill-opacity="0.71875"/>
  <rect x="19" y="12" width="2" height="1" fill="rgb(255,255,255)" fill-opacity="0.0078125"/>
  <rect x="0" y="13" width="3" height="1" fill="rgb(255,255,255)" fill-opacity="0.0078125"/>
  <rect x="3" y="13" width="1" height="1" fill="rgb(51,51,51)" fill-opacity="0.8828125"/>
  <rect x="4" y="13" width="2" height="1" fill="rgb(51,51,51)"/>
  <rect x="6" y="13" width="1" height="1" fill="rgb(51,51,51)" fill-opacity="0.8828125"/>
  <rect x="7" y="13" width="1" height="1" fill="rgb(255,255,255)" fill-opacity="0.0078125"/>
  <rect x="8" y="13" width="1" height="1" fill="rgb(41,45,24)" fill-opacity="0.875"/>
  <rect x="9" y="13" width="1" height="1" fill="rgb(239,254,181)"/>
  <rect x="10" y="13" width="1" height="1" fill="rgb(206,255,9)"/>
  <rect x="11" y="13" width="1" height="1" fill="rgb(204,255,0)"/>
  <rect x="12" y="13" width="1" height="1" fill="rgb(204,254,1)" fill-opacity="0.9296875"/>
  <rect x="13" y="13" width="1" height="1" fill="rgb(134,168,102)" fill-opacity="0.671875"/>
  <rect x="14" y="13" width="1" height="1" fill="rgb(161,50,153)" fill-opacity="0.9296875"/>
  <rect x="15" y="13" width="1" height="1" fill="rgb(173,47,148)"/>
  <rect x="16" y="13" width="1" height="1" fill="rgb(175,52,151)"/>
  <rect x="17" y="13" width="1" height="1" fill="rgb(210,145,197)"/>
  <rect x="18" y="13" width="1" height="1" fill="rgb(39,27,37)" fill-opacity="0.875"/>
  <rect x="19" y="13" width="2" height="1" fill="rgb(255,255,255)" fill-opacity="0.0078125"/>
  <rect x="0" y="14" width="8" height="1" fill="rgb(255,255,255)" fill-opacity="0.0078125"/>
  <rect x="8" y="14" width="1" height="1" fill="rgb(40,44,24)" fill-opacity="0.703125"/>
  <rect x="9" y="14" width="1" height="1" fill="rgb(220,238,146)"/>
  <rect x="10" y="14" width="1" height="1" fill="rgb(211,255,36)" fill-opacity="0.9921875"/>
  <rect x="11" y="14" width="1" height="1" fill="rgb(162,246,35)" fill-opacity="0.765625"/>
  <rect x="12" y="14" width="1" height="1" fill="rgb(18,216,155)" fill-opacity="0.9296875"/>
  <rect x="13" y="14" width="1" height="1" fill="rgb(0,173,193)" fill-opacity="0.7578125"/>
  <rect x="14" y="14" width="1" height="1" fill="rgb(1,95,239)" fill-opacity="0.9296875"/>
  <rect x="15" y="14" width="1" height="1" fill="rgb(83,72,196)" fill-opacity="0.765625"/>
  <rect x="16" y="14" width="1" height="1" fill="rgb(180,68,159)" fill-opacity="0.9921875"/>
  <rect x="17" y="14" width="1" height="1" fill="rgb(188,120,174)"/>
  <rect x="18" y="14" width="1" height="1" fill="rgb(38,27,36)" fill-opacity="0.703125"/>
  <rect x="19" y="14" width="2" height="1" fill="rgb(255,255,255)" fill-opacity="0.0078125"/>
  <rect x="0" y="15" width="8" height="1" fill="rgb(255,255,255)" fill-opacity="0.0078125"/>
  <rect x="8" y="15" width="1" height="1" fill="rgb(27,27,27)" fill-opacity="0.40625"/>
  <rect x="9" y="15" width="1" height="1" fill="rgb(147,166,100)" fill-opacity="0.9140625"/>
  <rect x="10" y="15" width="1" height="1" fill="rgb(150,239,192)" fill-opacity="0.9140625"/>
  <rect x="11" y="15" width="2" height="1" fill="rgb(0,212,170)"/>
  <rect x="13" y="15" width="1" height="1" fill="rgb(0,173,193)" fill-opacity="0.7578125"/>
  <rect x="14" y="15" width="2" height="1" fill="rgb(0,96,240)"/>
  <rect x="16" y="15" width="1" height="1" fill="rgb(94,151,243)" fill-opacity="0.890625"/>
  <rect x="17" y="15" width="1" height="1" fill="rgb(108,88,126)" fill-opacity="0.8984375"/>
  <rect x="18" y="15" width="1" height="1" fill="rgb(27,27,27)" fill-opacity="0.40625"/>
  <rect x="19" y="15" width="2" height="1" fill="rgb(255,255,255)" fill-opacity="0.0078125"/>
  <rect x="0" y="16" width="8" height="1" fill="rgb(255,255,255)" fill-opacity="0.0078125"/>
  <rect x="8" y="16" width="1" height="1" fill="rgb(0,0,0)" fill-opacity="0.0234375"/>
  <rect x="9" y="16" width="1" height="1" fill="rgb(26,40,37)" fill-opacity="0.84375"/>
  <rect x="10" y="16" width="1" height="1" fill="rgb(119,208,190)" fill-opacity="0.984375"/>
  <rect x="11" y="16" width="1" height="1" fill="rgb(100,229,203)"/>
  <rect x="12" y="16" width="1" height="1" fill="rgb(31,217,180)"/>
  <rect x="13" y="16" width="1" height="1" fill="rgb(13,177,196)" fill-opacity="0.765625"/>
  <rect x="14" y="16" width="1" height="1" fill="rgb(28,113,242)"/>
  <rect x="15" y="16" width="1" height="1" fill="rgb(79,145,245)"/>
  <rect x="16" y="16" width="1" height="1" fill="rgb(84,134,211)" fill-opacity="0.9765625"/>
  <rect x="17" y="16" width="1" height="1" fill="rgb(26,32,42)" fill-opacity="0.84375"/>
  <rect x="18" y="16" width="1" height="1" fill="rgb(0,0,0)" fill-opacity="0.0234375"/>
  <rect x="19" y="16" width="2" height="1" fill="rgb(255,255,255)" fill-opacity="0.0078125"/>
  <rect x="0" y="17" width="9" height="1" fill="rgb(255,255,255)" fill-opacity="0.0078125"/>
  <rect x="9" y="17" width="1" height="1" fill="rgb(23,23,23)" fill-opacity="0.140625"/>
  <rect x="10" y="17" width="1" height="1" fill="rgb(27,43,40)" fill-opacity="0.828125"/>
  <rect x="11" y="17" width="1" height="1" fill="rgb(76,150,136)" fill-opacity="0.9609375"/>
  <rect x="12" y="17" width="1" height="1" fill="rgb(104,210,189)"/>
  <rect x="13" y="17" width="1" height="1" fill="rgb(132,210,219)" fill-opacity="0.875"/>
  <rect x="14" y="17" width="1" height="1" fill="rgb(91,143,221)"/>
  <rect x="15" y="17" width="1" height="1" fill="rgb(62,98,152)" fill-opacity="0.953125"/>
  <rect x="16" y="17" width="1" height="1" fill="rgb(26,33,44)" fill-opacity="0.828125"/>
  <rect x="17" y="17" width="1" height="1" fill="rgb(23,23,23)" fill-opacity="0.140625"/>
  <rect x="18" y="17" width="3" height="1" fill="rgb(255,255,255)" fill-opacity="0.0078125"/>
  <rect x="0" y="18" width="10" height="1" fill="rgb(255,255,255)" fill-opacity="0.0078125"/>
  <rect x="10" y="18" width="1" height="1" fill="rgb(0,0,0)" fill-opacity="0.015625"/>
  <rect x="11" y="18" width="1" height="1" fill="rgb(25,25,25)" fill-opacity="0.3984375"/>
  <rect x="12" y="18" width="1" height="1" fill="rgb(24,42,39)" fill-opacity="0.6953125"/>
  <rect x="13" y="18" width="1" height="1" fill="rgb(23,37,41)" fill-opacity="0.859375"/>
  <rect x="14" y="18" width="1" height="1" fill="rgb(24,32,45)" fill-opacity="0.6953125"/>
  <rect x="15" y="18" width="1" height="1" fill="rgb(25,25,25)" fill-opacity="0.3984375"/>
  <rect x="16" y="18" width="1" height="1" fill="rgb(0,0,0)" fill-opacity="0.015625"/>
  <rect x="17" y="18" width="4" height="1" fill="rgb(255,255,255)" fill-opacity="0.0078125"/>
  <rect x="0" y="19" width="21" height="1" fill="rgb(255,255,255)" fill-opacity="0.0078125"/>
  <rect x="0" y="20" width="21" height="1" fill="rgb(255,255,255)" fill-opacity="0.0078125"/>
</svg>