<svg xmlns="http://www.w3.org/2000/svg" shape-rendering="crispEdges" width="21" height="21" viewBox="0 0 21 21">
  <rect x="0" y="0" width="1" height="21" fill="rgb(255,255,255)" fill-opacity="0.0078125"/>
  <rect x="1" y="0" width="1" height="21" fill="rgb(255,255,255)" fill-opacity="0.0078125"/>
  <rect x="2" y="0" width="1" height="21" fill="rgb(255,255,255)" fill-opacity="0.0078125"/>
  <rect x="3" y="0" width="1" height="21" fill="rgb(255,255,255)" fill-opacity="0.0078125"/>
  <rect x="4" y="0" width="1" height="11" fill="rgb(255,255,255)" fill-opacity="0.0078125"/>
  <rect x="4" y="11" width="1" height="1" fill="rgb(0,0,0)" fill-opacity="0.234375"/>
  <rect x="4" y="12" width="1" height="1" fill="rgb(0,0,0)" fill-opacity="0.5078125"/>
  <rect x="4" y="13" width="1" height="1" fill="rgb(0,0,0)" fill-opacity="0.640625"/>
  <rect x="4" y="14" width="1" height="1" fill="rgb(19,19,19)" fill-opacity="0.7890625"/>
  <rect x="4" y="15" width="1" height="1" fill="rgb(31,31,31)" fill-opacity="0.8359375"/>
  <rect x="4" y="16" width="1" height="1" fill="rgb(0,0,0)" fill-opacity="0.3046875"/>
  <rect x="4" y="17" width="1" height="4" fill="rgb(255,255,255)" fill-opacity="0.0078125"/>
  <rect x="5" y="0" width="1" height="8" fill="rgb(255,255,255)" fill-opacity="0.0078125"/>
  <rect x="5" y="8" width="1" height="1" fill="rgb(0,0,0)" fill-opacity="0.015625"/>
  <rect x="5" y="9" width="1" height="1" fill="rgb(0,0,0)" fill-opacity="0.3984375"/>
  <rect x="5" y="10" width="1" height="1" fill="rgb(24,24,24)" fill-opacity="0.8359375"/>
  <rect x="5" y="11" width="1" height="1" fill="rgb(114,114,114)"/>
  <rect x="5" y="12" width="1" height="1" fill="rgb(186,186,186)"/>
  <rect x="5" y="13" width="1" height="1" fill="rgb(216,216,216)"/>
  <rect x="5" y="14" width="1" height="1" fill="rgb(230,230,230)"/>
  <rect x="5" y="15" width="1" height="1" fill="rgb(227,227,227)"/>
  <rect x="5" y="16" width="1" height="1" fill="rgb(23,23,23)" fill-opacity="0.78125"/>
  <rect x="5" y="17" width="1" height="4" fill="rgb(255,255,255)" fill-opacity="0.0078125"/>
  <rect x="6" y="0" width="1" height="7" fill="rgb(255,255,255)" fill-opacity="0.0078125"/>
  <rect x="6" y="7" width="1" height="1" fill="rgb(0,0,0)" fill-opacity="0.03125"/>
  <rect x="6" y="8" width="1" height="1" fill="rgb(7,7,7)" fill-opacity="0.6875"/>
  <rect x="6" y="9" width="1" height="1" fill="rgb(134,134,134)"/>
  <rect x="6" y="10" width="1" height="1" fill="rgb(224,224,224)"/>
  <rect x="6" y="11" width="1" height="1" fill="rgb(222,222,222)"/>
  <rect x="6" y="12" width="1" height="1" fill="rgb(147,147,147)"/>
  <rect x="6" y="13" width="1" height="1" fill="rgb(106,106,106)"/>
  <rect x="6" y="14" width="1" height="1" fill="rgb(78,78,78)"/>
  <rect x="6" y="15" width="1" height="1" fill="rgb(44,44,44)" fill-opacity="0.9296875"/>
  <rect x="6" y="16" width="1" height="1" fill="rgb(0,0,0)" fill-opacity="0.3125"/>
  <rect x="6" y="17" width="1" height="4" fill="rgb(255,255,255)" fill-opacity="0.0078125"/>
  <rect x="7" y="0" width="1" height="6" fill="rgb(255,255,255)" fill-opacity="0.0078125"/>
  <rect x="7" y="6" width="1" height="1" fill="rgb(0,0,0)" fill-opacity="0.015625"/>
  <rect x="7" y="7" width="1" height="1" fill="rgb(11,11,11)" fill-opacity="0.7578125"/>
  <rect x="7" y="8" width="1" height="1" fill="rgb(164,164,164)"/>
  <rect x="7" y="9" width="1" height="1" fill="rgb(225,225,225)"/>
  <rect x="7" y="10" width="1" height="1" fill="rgb(109,109,109)"/>
  <rect x="7" y="11" width="1" height="1" fill="rgb(20,20,20)" fill-opacity="0.8125"/>
  <rect x="7" y="12" width="1" height="1" fill="rgb(0,0,0)" fill-opacity="0.3984375"/>
  <rect x="7" y="13" width="1" height="1" fill="rgb(0,0,0)" fill-opacity="0.203125"/>
  <rect x="7" y="14" width="1" height="1" fill="rgb(0,0,0)" fill-opacity="0.0703125"/>
  <rect x="7" y="15" width="1" height="6" fill="rgb(255,255,255)" fill-opacity="0.0078125"/>
  <rect x="8" y="0" width="1" height="6" fill="rgb(255,255,255)" fill-opacity="0.0078125"/>
  <rect x="8" y="6" width="1" height="1" fill="rgb(0,0,0)" fill-opacity="0.3359375"/>
  <rect x="8" y="7" width="1" height="1" fill="rgb(134,134,134)"/>
  <rect x="8" y="8" width="1" height="1" fill="rgb(220,220,220)"/>
  <rect x="8" y="9" width="1" height="1" fill="rgb(65,65,65)" fill-opacity="0.96875"/>
  <rect x="8" y="10" width="1" height="1" fill="rgb(0,0,0)" fill-opacity="0.296875"/>
  <rect x="8" y="11" width="1" height="10" fill="rgb(255,255,255)" fill-opacity="0.0078125"/>
  <rect x="9" y="0" width="1" height="6" fill="rgb(255,255,255)" fill-opacity="0.0078125"/>
  <rect x="9" y="6" width="1" height="1" fill="rgb(5,5,5)" fill-opacity="0.6640625"/>
  <rect x="9" y="7" width="1" height="1" fill="rgb(211,211,211)"/>
  <rect x="9" y="8" width="1" height="1" fill="rgb(125,125,125)"/>
  <rect x="9" y="9" width="1" height="1" fill="rgb(0,0,0)" fill-opacity="0.3125"/>
  <rect x="9" y="10" width="1" height="11" fill="rgb(255,255,255)" fill-opacity="0.0078125"/>
  <rect x="10" y="0" width="1" height="6" fill="rgb(255,255,255)" fill-opacity="0.0078125"/>
  <rect x="10" y="6" width="1" height="1" fill="rgb(42,42,42)" fill-opacity="0.8671875"/>
  <rect x="10" y="7" width="1" height="1" fill="rgb(230,230,230)"/>
  <rect x="10" y="8" width="1" height="1" fill="rgb(70,70,70)" fill-opacity="0.9921875"/>
  <rect x="10" y="9" width="1" height="1" fill="rgb(0,0,0)" fill-opacity="0.03125"/>
  <rect x="10" y="10" width="1" height="11" fill="rgb(255,255,255)" fill-opacity="0.0078125"/>
  <rect x="11" y="0" width="1" height="6" fill="rgb(255,255,255)" fill-opacity="0.0078125"/>
  <rect x="11" y="6" width="1" height="1" fill="rgb(4,4,4)" fill-opacity="0.671875"/>
  <rect x="11" y="7" width="1" height="1" fill="rgb(213,213,213)"/>
  <rect x="11" y="8" width="1" height="1" fill="rgb(124,124,124)"/>
  <rect x="11" y="9" width="1" height="1" fill="rgb(0,0,0)" fill-opacity="0.296875"/>
  <rect x="11" y="10" width="1" height="11" fill="rgb(255,255,255)" fill-opacity="0.0078125"/>
  <rect x="12" y="0" width="1" height="6" fill="rgb(255,255,255)" fill-opacity="0.0078125"/>
  <rect x="12" y="6" width="1" height="1" fill="rgb(0,0,0)" fill-opacity="0.3515625"/>
  <rect x="12" y="7" width="1" height="1" fill="rgb(138,138,138)"/>
  <rect x="12" y="8" width="1" height="1" fill="rgb(218,218,218)"/>
  <rect x="12" y="9" width="1" height="1" fill="rgb(60,60,60)" fill-opacity="0.9609375"/>
  <rect x="12" y="10" width="1" height="1" fill="rgb(0,0,0)" fill-opacity="0.265625"/>
  <rect x="12" y="11" width="1" height="10" fill="rgb(255,255,255)" fill-opacity="0.0078125"/>
  <rect x="13" y="0" width="1" height="6" fill="rgb(255,255,255)" fill-opacity="0.0078125"/>
  <rect x="13" y="6" width="1" height="1" fill="rgb(0,0,0)" fill-opacity="0.0234375"/>
  <rect x="13" y="7" width="1" height="1" fill="rgb(13,13,13)" fill-opacity="0.78125"/>
  <rect x="13" y="8" width="1" height="1" fill="rgb(170,170,170)"/>
  <rect x="13" y="9" width="1" height="1" fill="rgb(224,224,224)"/>
  <rect x="13" y="10" width="1" height="1" fill="rgb(102,102,102)"/>
  <rect x="13" y="11" width="1" height="1" fill="rgb(17,17,17)" fill-opacity="0.78125"/>
  <rect x="13" y="12" width="1" height="1" fill="rgb(0,0,0)" fill-opacity="0.3671875"/>
  <rect x="13" y="13" width="1" height="1" fill="rgb(0,0,0)" fill-opacity="0.171875"/>
  <rect x="13" y="14" width="1" height="1" fill="rgb(0,0,0)" fill-opacity="0.0390625"/>
  <rect x="13" y="15" width="1" height="6" fill="rgb(255,255,255)" fill-opacity="0.0078125"/>
  <rect x="14" y="0" width="1" height="7" fill="rgb(255,255,255)" fill-opacity="0.0078125"/>
  <rect x="14" y="7" width="1" height="1" fill="rgb(0,0,0)" fill-opacity="0.046875"/>
  <rect x="14" y="8" width="1" height="1" fill="rgb(8,8,8)" fill-opacity="0.734375"/>
  <rect x="14" y="9" width="1" height="1" fill="rgb(142,142,142)"/>
  <rect x="14" y="10" width="1" height="1" fill="rgb(226,226,226)"/>
  <rect x="14" y="11" width="1" height="1" fill="rgb(219,219,219)"/>
  <rect x="14" y="12" width="1" height="1" fill="rgb(140,140,140)"/>
  <rect x="14" y="13" width="1" height="1" fill="rgb(99,99,99)"/>
  <rect x="14" y="14" width="1" height="1" fill="rgb(72,72,72)"/>
  <rect x="14" y="15" width="1" height="1" fill="rgb(38,38,38)" fill-opacity="0.890625"/>
  <rect x="14" y="16" width="1" height="1" fill="rgb(0,0,0)" fill-opacity="0.3046875"/>
  <rect x="14" y="17" width="1" height="4" fill="rgb(255,255,255)" fill-opacity="0.0078125"/>
  <rect x="15" y="0" width="1" height="8" fill="rgb(255,255,255)" fill-opacity="0.0078125"/>
  <rect x="15" y="8" width="1" height="1" fill="rgb(0,0,0)" fill-opacity="0.0234375"/>
  <rect x="15" y="9" width="1" height="1" fill="rgb(0,0,0)" fill-opacity="0.4296875"/>
  <rect x="15" y="10" width="1" height="1" fill="rgb(29,29,29)" fill-opacity="0.8671875"/>
  <rect x="15" y="11" width="1" height="1" fill="rgb(121,121,121)"/>
  <rect x="15" y="12" width="1" height="1" fill="rgb(193,193,193)"/>
  <rect x="15" y="13" width="1" height="1" fill="rgb(223,223,223)"/>
  <rect x="15" y="14" width="1" height="1" fill="rgb(230,230,230)"/>
  <rect x="15" y="15" width="1" height="1" fill="rgb(227,227,227)"/>
  <rect x="15" y="16" width="1" height="1" fill="rgb(23,23,23)" fill-opacity="0.78125"/>
  <rect x="15" y="17" width="1" height="4" fill="rgb(255,255,255)" fill-opacity="0.0078125"/>
  <rect x="16" y="0" width="1" height="11" fill="rgb(255,255,255)" fill-opacity="0.0078125"/>
  <rect x="16" y="11" width="1" height="1" fill="rgb(0,0,0)" fill-opacity="0.265625"/>
  <rect x="16" y="12" width="1" height="1" fill="rgb(0,0,0)" fill-opacity="0.5390625"/>
  <rect x="16" y="13" width="1" height="1" fill="rgb(1,1,1)" fill-opacity="0.671875"/>
  <rect x="16" y="14" width="1" height="1" fill="rgb(28,28,28)" fill-opacity="0.8203125"/>
  <rect x="16" y="15" width="1" height="1" fill="rgb(39,39,39)" fill-opacity="0.8984375"/>
  <rect x="16" y="16" width="1" height="1" fill="rgb(0,0,0)" fill-opacity="0.3203125"/>
  <rect x="16" y="17" width="1" height="4" fill="rgb(255,255,255)" fill-opacity="0.0078125"/>
  <rect x="17" y="0" width="1" height="21" fill="rgb(255,255,255)" fill-opacity="0.0078125"/>
  <rect x="18" y="0" width="1" height="21" fill="rgb(255,255,255)" fill-opacity="0.0078125"/>
  <rect x="19" y="0" width="1" height="21" fill="rgb(255,255,255)" fill-opacity="0.0078125"/>
  <rect x="20" y="0" width="1" height="21" fill="rgb(255,255,255)" fill-opacity="0.0078125"/>
</svg>