<svg xmlns="http://www.w3.org/2000/svg" shape-rendering="crispEdges" width="21" height="21" viewBox="0 0 21 21">
  <rect x="0" y="0" width="1" height="21" fill="rgb(255,255,255)" fill-opacity="0.0078125"/>
  <rect x="1" y="0" width="1" height="21" fill="rgb(255,255,255)" fill-opacity="0.0078125"/>
  <rect x="2" y="0" width="1" height="21" fill="rgb(255,255,255)" fill-opacity="0.0078125"/>
  <rect x="3" y="0" width="1" height="21" fill="rgb(255,255,255)" fill-opacity="0.0078125"/>
  <rect x="4" y="0" width="1" height="4" fill="rgb(255,255,255)" fill-opacity="0.0078125"/>
  <rect x="4" y="4" width="1" height="1" fill="rgb(39,58,81)" fill-opacity="0.765625"/>
  <rect x="4" y="5" width="1" height="4" fill="rgb(52,69,93)" fill-opacity="0.9140625"/>
  <rect x="4" y="9" width="1" height="1" fill="rgb(39,58,81)" fill-opacity="0.765625"/>
  <rect x="4" y="10" width="1" height="11" fill="rgb(255,255,255)" fill-opacity="0.0078125"/>
  <rect x="5" y="0" width="1" height="4" fill="rgb(255,255,255)" fill-opacity="0.0078125"/>
  <rect x="5" y="4" width="1" height="1" fill="rgb(52,69,93)" fill-opacity="0.9140625"/>
  <rect x="5" y="5" width="1" height="1" fill="rgb(240,244,250)"/>
  <rect x="5" y="6" width="1" height="1" fill="rgb(253,254,254)"/>
  <rect x="5" y="7" width="1" height="1" fill="rgb(250,251,253)"/>
  <rect x="5" y="8" width="1" height="1" fill="rgb(213,221,234)"/>
  <rect x="5" y="9" width="1" height="1" fill="rgb(52,69,93)" fill-opacity="0.9140625"/>
  <rect x="5" y="10" width="1" height="11" fill="rgb(255,255,255)" fill-opacity="0.0078125"/>
  <rect x="6" y="0" width="1" height="4" fill="rgb(255,255,255)" fill-opacity="0.0078125"/>
  <rect x="6" y="4" width="1" height="1" fill="rgb(52,69,93)" fill-opacity="0.9140625"/>
  <rect x="6" y="5" width="1" height="1" fill="rgb(158,183,220)"/>
  <rect x="6" y="6" width="1" height="1" fill="rgb(117,148,195)"/>
  <rect x="6" y="7" width="1" height="1" fill="rgb(76,114,169)"/>
  <rect x="6" y="8" width="1" height="1" fill="rgb(35,79,144)"/>
  <rect x="6" y="9" width="1" height="1" fill="rgb(72,92,118)" fill-opacity="0.9765625"/>
  <rect x="6" y="10" width="1" height="2" fill="rgb(51,68,93)" fill-opacity="0.9140625"/>
  <rect x="6" y="12" width="1" height="2" fill="rgb(49,68,93)" fill-opacity="0.9140625"/>
  <rect x="6" y="14" width="1" height="2" fill="rgb(49,67,93)" fill-opacity="0.9140625"/>
  <rect x="6" y="16" width="1" height="1" fill="rgb(49,67,92)" fill-opacity="0.9140625"/>
  <rect x="6" y="17" width="1" height="1" fill="rgb(38,57,81)" fill-opacity="0.765625"/>
  <rect x="6" y="18" width="1" height="3" fill="rgb(255,255,255)" fill-opacity="0.0078125"/>
  <rect x="7" y="0" width="1" height="4" fill="rgb(255,255,255)" fill-opacity="0.0078125"/>
  <rect x="7" y="4" width="1" height="1" fill="rgb(49,67,92)" fill-opacity="0.9140625"/>
  <rect x="7" y="5" width="1" height="1" fill="rgb(158,183,220)"/>
  <rect x="7" y="6" width="1" height="1" fill="rgb(117,148,195)"/>
  <rect x="7" y="7" width="1" height="1" fill="rgb(76,114,169)"/>
  <rect x="7" y="8" width="1" height="1" fill="rgb(128,156,197)"/>
  <rect x="7" y="9" width="1" height="1" fill="rgb(208,221,240)"/>
  <rect x="7" y="10" width="1" height="1" fill="rgb(221,230,244)"/>
  <rect x="7" y="11" width="1" height="1" fill="rgb(193,206,225)"/>
  <rect x="7" y="12" width="1" height="1" fill="rgb(154,174,204)"/>
  <rect x="7" y="13" width="1" height="1" fill="rgb(186,203,228)"/>
  <rect x="7" y="14" width="1" height="1" fill="rgb(199,214,237)"/>
  <rect x="7" y="15" width="1" height="1" fill="rgb(196,212,236)"/>
  <rect x="7" y="16" width="1" height="1" fill="rgb(232,238,248)"/>
  <rect x="7" y="17" width="1" height="1" fill="rgb(46,65,92)" fill-opacity="0.9140625"/>
  <rect x="7" y="18" width="1" height="3" fill="rgb(255,255,255)" fill-opacity="0.0078125"/>
  <rect x="8" y="0" width="1" height="4" fill="rgb(255,255,255)" fill-opacity="0.0078125"/>
  <rect x="8" y="4" width="1" height="1" fill="rgb(46,65,92)" fill-opacity="0.9140625"/>
  <rect x="8" y="5" width="1" height="1" fill="rgb(227,234,245)"/>
  <rect x="8" y="6" width="1" height="1" fill="rgb(175,193,220)"/>
  <rect x="8" y="7" width="1" height="1" fill="rgb(120,151,198)"/>
  <rect x="8" y="8" width="1" height="1" fill="rgb(157,184,224)"/>
  <rect x="8" y="9" width="1" height="1" fill="rgb(156,184,223)"/>
  <rect x="8" y="10" width="1" height="1" fill="rgb(160,186,224)"/>
  <rect x="8" y="11" width="1" height="1" fill="rgb(180,199,228)"/>
  <rect x="8" y="12" width="1" height="1" fill="rgb(187,203,226)"/>
  <rect x="8" y="13" width="1" height="1" fill="rgb(131,157,194)"/>
  <rect x="8" y="14" width="1" height="1" fill="rgb(130,160,203)"/>
  <rect x="8" y="15" width="1" height="1" fill="rgb(151,180,222)"/>
  <rect x="8" y="16" width="1" height="1" fill="rgb(234,240,248)"/>
  <rect x="8" y="17" width="1" height="1" fill="rgb(44,64,91)" fill-opacity="0.9140625"/>
  <rect x="8" y="18" width="1" height="3" fill="rgb(255,255,255)" fill-opacity="0.0078125"/>
  <rect x="9" y="0" width="1" height="4" fill="rgb(255,255,255)" fill-opacity="0.0078125"/>
  <rect x="9" y="4" width="1" height="1" fill="rgb(31,47,69)" fill-opacity="0.6875"/>
  <rect x="9" y="5" width="1" height="1" fill="rgb(100,119,148)"/>
  <rect x="9" y="6" width="1" height="1" fill="rgb(202,214,233)"/>
  <rect x="9" y="7" width="1" height="1" fill="rgb(196,212,236)"/>
  <rect x="9" y="8" width="1" height="1" fill="rgb(141,172,218)"/>
  <rect x="9" y="9" width="1" height="1" fill="rgb(119,146,186)"/>
  <rect x="9" y="10" width="1" height="1" fill="rgb(95,117,149)"/>
  <rect x="9" y="11" width="1" height="1" fill="rgb(117,144,183)"/>
  <rect x="9" y="12" width="1" height="1" fill="rgb(146,177,220)"/>
  <rect x="9" y="13" width="1" height="1" fill="rgb(178,199,229)"/>
  <rect x="9" y="14" width="1" height="1" fill="rgb(116,147,192)"/>
  <rect x="9" y="15" width="1" height="1" fill="rgb(125,159,207)"/>
  <rect x="9" y="16" width="1" height="1" fill="rgb(225,234,245)"/>
  <rect x="9" y="17" width="1" height="1" fill="rgb(41,62,90)" fill-opacity="0.9140625"/>
  <rect x="9" y="18" width="1" height="3" fill="rgb(255,255,255)" fill-opacity="0.0078125"/>
  <rect x="10" y="0" width="1" height="5" fill="rgb(255,255,255)" fill-opacity="0.0078125"/>
  <rect x="10" y="5" width="1" height="1" fill="rgb(0,0,0)" fill-opacity="0.84375"/>
  <rect x="10" y="6" width="1" height="1" fill="rgb(76,95,123)"/>
  <rect x="10" y="7" width="1" height="1" fill="rgb(217,227,243)"/>
  <rect x="10" y="8" width="1" height="1" fill="rgb(125,160,213)"/>
  <rect x="10" y="9" width="1" height="1" fill="rgb(81,106,140)"/>
  <rect x="10" y="10" width="1" height="1" fill="rgb(242,246,251)"/>
  <rect x="10" y="11" width="1" height="1" fill="rgb(78,101,136)"/>
  <rect x="10" y="12" width="1" height="1" fill="rgb(77,101,135)"/>
  <rect x="10" y="13" width="1" height="1" fill="rgb(93,116,149)"/>
  <rect x="10" y="14" width="1" height="1" fill="rgb(134,160,197)"/>
  <rect x="10" y="15" width="1" height="1" fill="rgb(100,136,191)"/>
  <rect x="10" y="16" width="1" height="1" fill="rgb(216,227,242)"/>
  <rect x="10" y="17" width="1" height="1" fill="rgb(38,59,89)" fill-opacity="0.9140625"/>
  <rect x="10" y="18" width="1" height="3" fill="rgb(255,255,255)" fill-opacity="0.0078125"/>
  <rect x="11" y="0" width="1" height="5" fill="rgb(255,255,255)" fill-opacity="0.0078125"/>
  <rect x="11" y="5" width="1" height="1" fill="rgb(0,0,0)" fill-opacity="0.84375"/>
  <rect x="11" y="6" width="1" height="1" fill="rgb(70,92,121)"/>
  <rect x="11" y="7" width="1" height="1" fill="rgb(207,220,239)"/>
  <rect x="11" y="8" width="1" height="1" fill="rgb(108,148,207)"/>
  <rect x="11" y="9" width="1" height="1" fill="rgb(70,97,135)"/>
  <rect x="11" y="10" width="1" height="3" fill="rgb(240,244,250)"/>
  <rect x="11" y="13" width="1" height="1" fill="rgb(198,207,221)"/>
  <rect x="11" y="14" width="1" height="1" fill="rgb(102,128,166)"/>
  <rect x="11" y="15" width="1" height="1" fill="rgb(88,129,189)"/>
  <rect x="11" y="16" width="1" height="1" fill="rgb(204,218,239)"/>
  <rect x="11" y="17" width="1" height="1" fill="rgb(36,57,88)" fill-opacity="0.9140625"/>
  <rect x="11" y="18" width="1" height="3" fill="rgb(255,255,255)" fill-opacity="0.0078125"/>
  <rect x="12" y="0" width="1" height="4" fill="rgb(255,255,255)" fill-opacity="0.0078125"/>
  <rect x="12" y="4" width="1" height="1" fill="rgb(26,44,67)" fill-opacity="0.6875"/>
  <rect x="12" y="5" width="1" height="1" fill="rgb(84,108,141)"/>
  <rect x="12" y="6" width="1" height="1" fill="rgb(178,196,223)"/>
  <rect x="12" y="7" width="1" height="1" fill="rgb(158,185,223)"/>
  <rect x="12" y="8" width="1" height="1" fill="rgb(91,136,201)"/>
  <rect x="12" y="9" width="1" height="1" fill="rgb(76,115,170)"/>
  <rect x="12" y="10" width="1" height="1" fill="rgb(59,89,133)"/>
  <rect x="12" y="11" width="1" height="2" fill="rgb(56,86,128)"/>
  <rect x="12" y="13" width="1" height="1" fill="rgb(59,88,133)"/>
  <rect x="12" y="14" width="1" height="1" fill="rgb(97,135,190)"/>
  <rect x="12" y="15" width="1" height="1" fill="rgb(79,124,189)"/>
  <rect x="12" y="16" width="1" height="1" fill="rgb(189,207,233)"/>
  <rect x="12" y="17" width="1" height="1" fill="rgb(33,56,88)" fill-opacity="0.9140625"/>
  <rect x="12" y="18" width="1" height="3" fill="rgb(255,255,255)" fill-opacity="0.0078125"/>
  <rect x="13" y="0" width="1" height="4" fill="rgb(255,255,255)" fill-opacity="0.0078125"/>
  <rect x="13" y="4" width="1" height="1" fill="rgb(34,56,88)" fill-opacity="0.9140625"/>
  <rect x="13" y="5" width="1" height="1" fill="rgb(209,221,238)"/>
  <rect x="13" y="6" width="1" height="1" fill="rgb(158,179,212)"/>
  <rect x="13" y="7" width="1" height="1" fill="rgb(76,120,182)"/>
  <rect x="13" y="8" width="1" height="1" fill="rgb(74,124,196)"/>
  <rect x="13" y="9" width="1" height="1" fill="rgb(74,124,195)"/>
  <rect x="13" y="10" width="1" height="1" fill="rgb(73,123,195)"/>
  <rect x="13" y="11" width="1" height="1" fill="rgb(72,122,195)"/>
  <rect x="13" y="12" width="1" height="1" fill="rgb(71,122,195)"/>
  <rect x="13" y="13" width="1" height="1" fill="rgb(73,123,195)"/>
  <rect x="13" y="14" width="1" height="1" fill="rgb(71,121,191)"/>
  <rect x="13" y="15" width="1" height="1" fill="rgb(68,118,191)"/>
  <rect x="13" y="16" width="1" height="1" fill="rgb(174,196,228)"/>
  <rect x="13" y="17" width="1" height="1" fill="rgb(31,54,87)" fill-opacity="0.9140625"/>
  <rect x="13" y="18" width="1" height="3" fill="rgb(255,255,255)" fill-opacity="0.0078125"/>
  <rect x="14" y="0" width="1" height="4" fill="rgb(255,255,255)" fill-opacity="0.0078125"/>
  <rect x="14" y="4" width="1" height="1" fill="rgb(31,54,87)" fill-opacity="0.9140625"/>
  <rect x="14" y="5" width="1" height="1" fill="rgb(150,176,215)"/>
  <rect x="14" y="6" width="1" height="1" fill="rgb(109,142,190)"/>
  <rect x="14" y="7" width="1" height="1" fill="rgb(69,108,165)"/>
  <rect x="14" y="8" width="1" height="1" fill="rgb(44,93,165)"/>
  <rect x="14" y="9" width="1" height="1" fill="rgb(77,127,197)"/>
  <rect x="14" y="10" width="1" height="1" fill="rgb(87,133,200)"/>
  <rect x="14" y="11" width="1" height="1" fill="rgb(83,130,198)"/>
  <rect x="14" y="12" width="1" height="1" fill="rgb(79,127,197)"/>
  <rect x="14" y="13" width="1" height="1" fill="rgb(74,123,196)"/>
  <rect x="14" y="14" width="1" height="1" fill="rgb(70,121,193)"/>
  <rect x="14" y="15" width="1" height="1" fill="rgb(65,117,192)"/>
  <rect x="14" y="16" width="1" height="1" fill="rgb(140,171,217)"/>
  <rect x="14" y="17" width="1" height="1" fill="rgb(29,53,86)" fill-opacity="0.9140625"/>
  <rect x="14" y="18" width="1" height="3" fill="rgb(255,255,255)" fill-opacity="0.0078125"/>
  <rect x="15" y="0" width="1" height="4" fill="rgb(255,255,255)" fill-opacity="0.0078125"/>
  <rect x="15" y="4" width="1" height="1" fill="rgb(29,53,86)" fill-opacity="0.9140625"/>
  <rect x="15" y="5" width="1" height="1" fill="rgb(149,175,214)"/>
  <rect x="15" y="6" width="1" height="1" fill="rgb(108,141,189)"/>
  <rect x="15" y="7" width="1" height="1" fill="rgb(68,107,164)"/>
  <rect x="15" y="8" width="1" height="1" fill="rgb(29,74,140)"/>
  <rect x="15" y="9" width="1" height="1" fill="rgb(35,64,105)" fill-opacity="0.9765625"/>
  <rect x="15" y="10" width="1" height="1" fill="rgb(27,52,86)" fill-opacity="0.9140625"/>
  <rect x="15" y="11" width="1" height="1" fill="rgb(26,51,86)" fill-opacity="0.9140625"/>
  <rect x="15" y="12" width="1" height="5" fill="rgb(26,51,85)" fill-opacity="0.9140625"/>
  <rect x="15" y="17" width="1" height="1" fill="rgb(22,45,75)" fill-opacity="0.765625"/>
  <rect x="15" y="18" width="1" height="3" fill="rgb(255,255,255)" fill-opacity="0.0078125"/>
  <rect x="16" y="0" width="1" height="4" fill="rgb(255,255,255)" fill-opacity="0.0078125"/>
  <rect x="16" y="4" width="1" height="1" fill="rgb(26,51,85)" fill-opacity="0.9140625"/>
  <rect x="16" y="5" width="1" height="1" fill="rgb(199,213,234)"/>
  <rect x="16" y="6" width="1" height="1" fill="rgb(189,204,225)"/>
  <rect x="16" y="7" width="1" height="1" fill="rgb(168,186,212)"/>
  <rect x="16" y="8" width="1" height="1" fill="rgb(129,154,191)"/>
  <rect x="16" y="9" width="1" height="1" fill="rgb(25,49,85)" fill-opacity="0.9140625"/>
  <rect x="16" y="10" width="1" height="11" fill="rgb(255,255,255)" fill-opacity="0.0078125"/>
  <rect x="17" y="0" width="1" height="4" fill="rgb(255,255,255)" fill-opacity="0.0078125"/>
  <rect x="17" y="4" width="1" height="1" fill="rgb(21,43,75)" fill-opacity="0.765625"/>
  <rect x="17" y="5" width="1" height="3" fill="rgb(23,48,84)" fill-opacity="0.9140625"/>
  <rect x="17" y="8" width="1" height="1" fill="rgb(22,47,84)" fill-opacity="0.9140625"/>
  <rect x="17" y="9" width="1" height="1" fill="rgb(20,43,75)" fill-opacity="0.765625"/>
  <rect x="17" y="10" width="1" height="11" fill="rgb(255,255,255)" fill-opacity="0.0078125"/>
  <rect x="18" y="0" width="1" height="21" fill="rgb(255,255,255)" fill-opacity="0.0078125"/>
  <rect x="19" y="0" width="1" height="21" fill="rgb(255,255,255)" fill-opacity="0.0078125"/>
  <rect x="20" y="0" width="1" height="21" fill="rgb(255,255,255)" fill-opacity="0.0078125"/>
</svg>