<svg xmlns="http://www.w3.org/2000/svg" shape-rendering="crispEdges" width="21" height="21" viewBox="0 0 21 21">
  <rect x="0" y="0" width="1" height="21" fill="rgb(255,255,255)" fill-opacity="0.0078125"/>
  <rect x="1" y="0" width="1" height="21" fill="rgb(255,255,255)" fill-opacity="0.0078125"/>
  <rect x="2" y="0" width="1" height="21" fill="rgb(255,255,255)" fill-opacity="0.0078125"/>
  <rect x="3" y="0" width="1" height="21" fill="rgb(255,255,255)" fill-opacity="0.0078125"/>
  <rect x="4" y="0" width="1" height="5" fill="rgb(255,255,255)" fill-opacity="0.0078125"/>
  <rect x="4" y="5" width="1" height="1" fill="rgb(51,51,51)" fill-opacity="0.5390625"/>
  <rect x="4" y="6" width="1" height="7" fill="rgb(51,51,51)"/>
  <rect x="4" y="13" width="1" height="1" fill="rgb(51,51,51)" fill-opacity="0.9921875"/>
  <rect x="4" y="14" width="1" height="1" fill="rgb(50,50,50)" fill-opacity="0.5"/>
  <rect x="4" y="15" width="1" height="6" fill="rgb(255,255,255)" fill-opacity="0.0078125"/>
  <rect x="5" y="0" width="1" height="4" fill="rgb(255,255,255)" fill-opacity="0.0078125"/>
  <rect x="5" y="4" width="1" height="1" fill="rgb(51,51,51)" fill-opacity="0.125"/>
  <rect x="5" y="5" width="1" height="1" fill="rgb(79,79,79)"/>
  <rect x="5" y="6" width="1" height="1" fill="rgb(249,249,249)"/>
  <rect x="5" y="7" width="1" height="1" fill="rgb(242,202,197)"/>
  <rect x="5" y="8" width="1" height="1" fill="rgb(241,195,189)"/>
  <rect x="5" y="9" width="1" height="1" fill="rgb(248,248,248)"/>
  <rect x="5" y="10" width="1" height="1" fill="rgb(247,247,247)"/>
  <rect x="5" y="11" width="1" height="1" fill="rgb(236,173,165)"/>
  <rect x="5" y="12" width="1" height="1" fill="rgb(234,165,156)"/>
  <rect x="5" y="13" width="1" height="1" fill="rgb(240,240,240)"/>
  <rect x="5" y="14" width="1" height="1" fill="rgb(79,79,79)" fill-opacity="0.9921875"/>
  <rect x="5" y="15" width="1" height="1" fill="rgb(49,49,49)" fill-opacity="0.1875"/>
  <rect x="5" y="16" width="1" height="5" fill="rgb(255,255,255)" fill-opacity="0.0078125"/>
  <rect x="6" y="0" width="1" height="4" fill="rgb(255,255,255)" fill-opacity="0.0078125"/>
  <rect x="6" y="4" width="1" height="1" fill="rgb(51,51,51)" fill-opacity="0.46875"/>
  <rect x="6" y="5" width="1" height="1" fill="rgb(194,194,194)"/>
  <rect x="6" y="6" width="1" height="1" fill="rgb(252,252,252)"/>
  <rect x="6" y="7" width="1" height="2" fill="rgb(200,23,0)"/>
  <rect x="6" y="9" width="1" height="2" fill="rgb(230,230,230)"/>
  <rect x="6" y="11" width="1" height="2" fill="rgb(200,23,0)"/>
  <rect x="6" y="13" width="1" height="1" fill="rgb(237,237,237)"/>
  <rect x="6" y="14" width="1" height="1" fill="rgb(185,185,185)"/>
  <rect x="6" y="15" width="1" height="1" fill="rgb(50,50,50)" fill-opacity="0.71875"/>
  <rect x="6" y="16" width="1" height="5" fill="rgb(255,255,255)" fill-opacity="0.0078125"/>
  <rect x="7" y="0" width="1" height="4" fill="rgb(255,255,255)" fill-opacity="0.0078125"/>
  <rect x="7" y="4" width="1" height="1" fill="rgb(51,51,51)" fill-opacity="0.8203125"/>
  <rect x="7" y="5" width="1" height="1" fill="rgb(247,247,247)"/>
  <rect x="7" y="6" width="1" height="1" fill="rgb(255,255,255)"/>
  <rect x="7" y="7" width="1" height="1" fill="rgb(237,237,237)"/>
  <rect x="7" y="8" width="1" height="1" fill="rgb(230,230,230)"/>
  <rect x="7" y="9" width="1" height="2" fill="rgb(200,23,0)"/>
  <rect x="7" y="11" width="1" height="2" fill="rgb(230,230,230)"/>
  <rect x="7" y="13" width="1" height="1" fill="rgb(201,28,6)"/>
  <rect x="7" y="14" width="1" height="1" fill="rgb(222,118,104)"/>
  <rect x="7" y="15" width="1" height="1" fill="rgb(89,89,89)"/>
  <rect x="7" y="16" width="1" height="1" fill="rgb(53,53,53)" fill-opacity="0.25"/>
  <rect x="7" y="17" width="1" height="4" fill="rgb(255,255,255)" fill-opacity="0.0078125"/>
  <rect x="8" y="0" width="1" height="3" fill="rgb(255,255,255)" fill-opacity="0.0078125"/>
  <rect x="8" y="3" width="1" height="1" fill="rgb(52,52,52)" fill-opacity="0.1796875"/>
  <rect x="8" y="4" width="1" height="1" fill="rgb(108,108,108)"/>
  <rect x="8" y="5" width="1" height="2" fill="rgb(255,255,255)"/>
  <rect x="8" y="7" width="1" height="1" fill="rgb(248,248,248)"/>
  <rect x="8" y="8" width="1" height="1" fill="rgb(230,230,230)"/>
  <rect x="8" y="9" width="1" height="2" fill="rgb(200,23,0)"/>
  <rect x="8" y="11" width="1" height="2" fill="rgb(230,230,230)"/>
  <rect x="8" y="13" width="1" height="1" fill="rgb(200,23,0)"/>
  <rect x="8" y="14" width="1" height="1" fill="rgb(209,61,42)"/>
  <rect x="8" y="15" width="1" height="1" fill="rgb(191,191,191)"/>
  <rect x="8" y="16" width="1" height="1" fill="rgb(51,51,51)" fill-opacity="0.7890625"/>
  <rect x="8" y="17" width="1" height="4" fill="rgb(255,255,255)" fill-opacity="0.0078125"/>
  <rect x="9" y="0" width="1" height="3" fill="rgb(255,255,255)" fill-opacity="0.0078125"/>
  <rect x="9" y="3" width="1" height="1" fill="rgb(51,51,51)" fill-opacity="0.53125"/>
  <rect x="9" y="4" width="1" height="1" fill="rgb(213,213,213)"/>
  <rect x="9" y="5" width="1" height="3" fill="rgb(255,255,255)"/>
  <rect x="9" y="8" width="1" height="1" fill="rgb(205,49,29)"/>
  <rect x="9" y="9" width="1" height="2" fill="rgb(230,230,230)"/>
  <rect x="9" y="11" width="1" height="2" fill="rgb(200,23,0)"/>
  <rect x="9" y="13" width="1" height="2" fill="rgb(230,230,230)"/>
  <rect x="9" y="15" width="1" height="1" fill="rgb(215,86,69)"/>
  <rect x="9" y="16" width="1" height="1" fill="rgb(126,85,80)"/>
  <rect x="9" y="17" width="1" height="1" fill="rgb(50,50,50)" fill-opacity="0.328125"/>
  <rect x="9" y="18" width="1" height="3" fill="rgb(255,255,255)" fill-opacity="0.0078125"/>
  <rect x="10" y="0" width="1" height="3" fill="rgb(255,255,255)" fill-opacity="0.0078125"/>
  <rect x="10" y="3" width="1" height="1" fill="rgb(52,52,52)" fill-opacity="0.8671875"/>
  <rect x="10" y="4" width="1" height="1" fill="rgb(251,251,251)"/>
  <rect x="10" y="5" width="1" height="3" fill="rgb(255,255,255)"/>
  <rect x="10" y="8" width="1" height="1" fill="rgb(217,106,92)"/>
  <rect x="10" y="9" width="1" height="2" fill="rgb(230,230,230)"/>
  <rect x="10" y="11" width="1" height="2" fill="rgb(200,23,0)"/>
  <rect x="10" y="13" width="1" height="2" fill="rgb(230,230,230)"/>
  <rect x="10" y="15" width="1" height="1" fill="rgb(205,42,21)"/>
  <rect x="10" y="16" width="1" height="1" fill="rgb(208,101,87)"/>
  <rect x="10" y="17" width="1" height="1" fill="rgb(51,51,51)" fill-opacity="0.8046875"/>
  <rect x="10" y="18" width="1" height="3" fill="rgb(255,255,255)" fill-opacity="0.0078125"/>
  <rect x="11" y="0" width="1" height="3" fill="rgb(255,255,255)" fill-opacity="0.0078125"/>
  <rect x="11" y="3" width="1" height="1" fill="rgb(52,52,52)" fill-opacity="0.8671875"/>
  <rect x="11" y="4" width="1" height="1" fill="rgb(242,242,242)"/>
  <rect x="11" y="5" width="1" height="3" fill="rgb(255,255,255)"/>
  <rect x="11" y="8" width="1" height="1" fill="rgb(199,199,199)"/>
  <rect x="11" y="9" width="1" height="6" fill="rgb(96,96,96)"/>
  <rect x="11" y="15" width="1" height="1" fill="rgb(107,107,107)"/>
  <rect x="11" y="16" width="1" height="1" fill="rgb(112,112,112)"/>
  <rect x="11" y="17" width="1" height="1" fill="rgb(51,51,51)" fill-opacity="0.8046875"/>
  <rect x="11" y="18" width="1" height="3" fill="rgb(255,255,255)" fill-opacity="0.0078125"/>
  <rect x="12" y="0" width="1" height="3" fill="rgb(255,255,255)" fill-opacity="0.0078125"/>
  <rect x="12" y="3" width="1" height="1" fill="rgb(51,51,51)" fill-opacity="0.53125"/>
  <rect x="12" y="4" width="1" height="1" fill="rgb(187,187,187)"/>
  <rect x="12" y="5" width="1" height="3" fill="rgb(255,255,255)"/>
  <rect x="12" y="8" width="1" height="1" fill="rgb(131,131,131)"/>
  <rect x="12" y="9" width="1" height="5" fill="rgb(102,102,102)"/>
  <rect x="12" y="14" width="1" height="1" fill="rgb(104,104,104)"/>
  <rect x="12" y="15" width="1" height="1" fill="rgb(126,126,126)"/>
  <rect x="12" y="16" width="1" height="1" fill="rgb(71,71,71)"/>
  <rect x="12" y="17" width="1" height="1" fill="rgb(50,50,50)" fill-opacity="0.328125"/>
  <rect x="12" y="18" width="1" height="3" fill="rgb(255,255,255)" fill-opacity="0.0078125"/>
  <rect x="13" y="0" width="1" height="3" fill="rgb(255,255,255)" fill-opacity="0.0078125"/>
  <rect x="13" y="3" width="1" height="1" fill="rgb(52,52,52)" fill-opacity="0.1796875"/>
  <rect x="13" y="4" width="1" height="1" fill="rgb(95,95,95)"/>
  <rect x="13" y="5" width="1" height="2" fill="rgb(255,255,255)"/>
  <rect x="13" y="7" width="1" height="1" fill="rgb(215,215,215)"/>
  <rect x="13" y="8" width="1" height="4" fill="rgb(108,108,108)"/>
  <rect x="13" y="12" width="1" height="2" fill="rgb(109,109,109)"/>
  <rect x="13" y="14" width="1" height="1" fill="rgb(119,119,119)"/>
  <rect x="13" y="15" width="1" height="1" fill="rgb(106,106,106)"/>
  <rect x="13" y="16" width="1" height="1" fill="rgb(51,51,51)" fill-opacity="0.7890625"/>
  <rect x="13" y="17" width="1" height="4" fill="rgb(255,255,255)" fill-opacity="0.0078125"/>
  <rect x="14" y="0" width="1" height="4" fill="rgb(255,255,255)" fill-opacity="0.0078125"/>
  <rect x="14" y="4" width="1" height="1" fill="rgb(51,51,51)" fill-opacity="0.8203125"/>
  <rect x="14" y="5" width="1" height="1" fill="rgb(231,231,231)"/>
  <rect x="14" y="6" width="1" height="1" fill="rgb(255,255,255)"/>
  <rect x="14" y="7" width="1" height="1" fill="rgb(152,152,152)"/>
  <rect x="14" y="8" width="1" height="1" fill="rgb(114,114,114)"/>
  <rect x="14" y="9" width="1" height="4" fill="rgb(115,115,115)"/>
  <rect x="14" y="13" width="1" height="1" fill="rgb(116,116,116)"/>
  <rect x="14" y="14" width="1" height="1" fill="rgb(128,128,128)"/>
  <rect x="14" y="15" width="1" height="1" fill="rgb(64,64,64)"/>
  <rect x="14" y="16" width="1" height="1" fill="rgb(53,53,53)" fill-opacity="0.25"/>
  <rect x="14" y="17" width="1" height="4" fill="rgb(255,255,255)" fill-opacity="0.0078125"/>
  <rect x="15" y="0" width="1" height="4" fill="rgb(255,255,255)" fill-opacity="0.0078125"/>
  <rect x="15" y="4" width="1" height="1" fill="rgb(51,51,51)" fill-opacity="0.46875"/>
  <rect x="15" y="5" width="1" height="1" fill="rgb(165,165,165)"/>
  <rect x="15" y="6" width="1" height="1" fill="rgb(235,235,235)"/>
  <rect x="15" y="7" width="1" height="6" fill="rgb(121,121,121)"/>
  <rect x="15" y="13" width="1" height="1" fill="rgb(127,127,127)"/>
  <rect x="15" y="14" width="1" height="1" fill="rgb(99,99,99)"/>
  <rect x="15" y="15" width="1" height="1" fill="rgb(50,50,50)" fill-opacity="0.71875"/>
  <rect x="15" y="16" width="1" height="5" fill="rgb(255,255,255)" fill-opacity="0.0078125"/>
  <rect x="16" y="0" width="1" height="4" fill="rgb(255,255,255)" fill-opacity="0.0078125"/>
  <rect x="16" y="4" width="1" height="1" fill="rgb(51,51,51)" fill-opacity="0.125"/>
  <rect x="16" y="5" width="1" height="1" fill="rgb(74,74,74)"/>
  <rect x="16" y="6" width="1" height="1" fill="rgb(191,191,191)"/>
  <rect x="16" y="7" width="1" height="1" fill="rgb(157,157,157)"/>
  <rect x="16" y="8" width="1" height="1" fill="rgb(153,153,153)"/>
  <rect x="16" y="9" width="1" height="1" fill="rgb(149,149,149)"/>
  <rect x="16" y="10" width="1" height="1" fill="rgb(145,145,145)"/>
  <rect x="16" y="11" width="1" height="1" fill="rgb(141,141,141)"/>
  <rect x="16" y="12" width="1" height="1" fill="rgb(137,137,137)"/>
  <rect x="16" y="13" width="1" height="1" fill="rgb(130,130,130)"/>
  <rect x="16" y="14" width="1" height="1" fill="rgb(58,58,58)" fill-opacity="0.9921875"/>
  <rect x="16" y="15" width="1" height="1" fill="rgb(49,49,49)" fill-opacity="0.1875"/>
  <rect x="16" y="16" width="1" height="5" fill="rgb(255,255,255)" fill-opacity="0.0078125"/>
  <rect x="17" y="0" width="1" height="5" fill="rgb(255,255,255)" fill-opacity="0.0078125"/>
  <rect x="17" y="5" width="1" height="1" fill="rgb(51,51,51)" fill-opacity="0.5390625"/>
  <rect x="17" y="6" width="1" height="7" fill="rgb(51,51,51)"/>
  <rect x="17" y="13" width="1" height="1" fill="rgb(51,51,51)" fill-opacity="0.9921875"/>
  <rect x="17" y="14" width="1" height="1" fill="rgb(50,50,50)" fill-opacity="0.5"/>
  <rect x="17" y="15" width="1" height="6" fill="rgb(255,255,255)" fill-opacity="0.0078125"/>
  <rect x="18" y="0" width="1" height="21" fill="rgb(255,255,255)" fill-opacity="0.0078125"/>
  <rect x="19" y="0" width="1" height="21" fill="rgb(255,255,255)" fill-opacity="0.0078125"/>
  <rect x="20" y="0" width="1" height="21" fill="rgb(255,255,255)" fill-opacity="0.0078125"/>
</svg>