<svg xmlns="http://www.w3.org/2000/svg" shape-rendering="crispEdges" width="21" height="21" viewBox="0 0 21 21">
  <rect x="0" y="0" width="21" height="1" fill="rgb(255,255,255)" fill-opacity="0.0078125"/>
  <rect x="0" y="1" width="21" height="1" fill="rgb(255,255,255)" fill-opacity="0.0078125"/>
  <rect x="0" y="2" width="21" height="1" fill="rgb(255,255,255)" fill-opacity="0.0078125"/>
  <rect x="0" y="3" width="9" height="1" fill="rgb(255,255,255)" fill-opacity="0.0078125"/>
  <rect x="9" y="3" width="1" height="1" fill="rgb(25,25,25)" fill-opacity="0.2109375"/>
  <rect x="10" y="3" width="2" height="1" fill="rgb(22,22,22)" fill-opacity="0.640625"/>
  <rect x="12" y="3" width="1" height="1" fill="rgb(21,21,21)" fill-opacity="0.2421875"/>
  <rect x="13" y="3" width="8" height="1" fill="rgb(255,255,255)" fill-opacity="0.0078125"/>
  <rect x="0" y="4" width="4" height="1" fill="rgb(255,255,255)" fill-opacity="0.0078125"/>
  <rect x="4" y="4" width="2" height="1" fill="rgb(0,0,0)" fill-opacity="0.1171875"/>
  <rect x="6" y="4" width="3" height="1" fill="rgb(255,255,255)" fill-opacity="0.0078125"/>
  <rect x="9" y="4" width="1" height="1" fill="rgb(21,21,21)" fill-opacity="0.625"/>
  <rect x="10" y="4" width="1" height="1" fill="rgb(225,225,225)" fill-opacity="0.8984375"/>
  <rect x="11" y="4" width="1" height="1" fill="rgb(230,230,230)" fill-opacity="0.90625"/>
  <rect x="12" y="4" width="1" height="1" fill="rgb(29,29,29)" fill-opacity="0.65625"/>
  <rect x="13" y="4" width="3" height="1" fill="rgb(255,255,255)" fill-opacity="0.0078125"/>
  <rect x="16" y="4" width="2" height="1" fill="rgb(0,0,0)" fill-opacity="0.1171875"/>
  <rect x="18" y="4" width="3" height="1" fill="rgb(255,255,255)" fill-opacity="0.0078125"/>
  <rect x="0" y="5" width="3" height="1" fill="rgb(255,255,255)" fill-opacity="0.0078125"/>
  <rect x="3" y="5" width="1" height="1" fill="rgb(0,0,0)" fill-opacity="0.53125"/>
  <rect x="4" y="5" width="2" height="1" fill="rgb(1,1,0)" fill-opacity="0.9921875"/>
  <rect x="6" y="5" width="1" height="1" fill="rgb(0,0,0)" fill-opacity="0.53125"/>
  <rect x="7" y="5" width="2" height="1" fill="rgb(255,255,255)" fill-opacity="0.0078125"/>
  <rect x="9" y="5" width="1" height="1" fill="rgb(19,19,19)" fill-opacity="0.6328125"/>
  <rect x="10" y="5" width="1" height="1" fill="rgb(225,225,225)" fill-opacity="0.8984375"/>
  <rect x="11" y="5" width="1" height="1" fill="rgb(230,230,230)" fill-opacity="0.90625"/>
  <rect x="12" y="5" width="1" height="1" fill="rgb(29,29,29)" fill-opacity="0.671875"/>
  <rect x="13" y="5" width="2" height="1" fill="rgb(255,255,255)" fill-opacity="0.0078125"/>
  <rect x="15" y="5" width="1" height="1" fill="rgb(0,0,0)" fill-opacity="0.53125"/>
  <rect x="16" y="5" width="2" height="1" fill="rgb(1,1,0)" fill-opacity="0.9921875"/>
  <rect x="18" y="5" width="1" height="1" fill="rgb(0,0,0)" fill-opacity="0.53125"/>
  <rect x="19" y="5" width="2" height="1" fill="rgb(255,255,255)" fill-opacity="0.0078125"/>
  <rect x="0" y="6" width="2" height="1" fill="rgb(255,255,255)" fill-opacity="0.0078125"/>
  <rect x="2" y="6" width="1" height="1" fill="rgb(0,0,0)" fill-opacity="0.1015625"/>
  <rect x="3" y="6" width="1" height="1" fill="rgb(1,1,0)" fill-opacity="0.9921875"/>
  <rect x="4" y="6" width="2" height="1" fill="rgb(255,255,255)"/>
  <rect x="6" y="6" width="1" height="1" fill="rgb(2,2,1)"/>
  <rect x="7" y="6" width="1" height="1" fill="rgb(89,89,89)" fill-opacity="0.9140625"/>
  <rect x="8" y="6" width="1" height="1" fill="rgb(96,96,96)" fill-opacity="0.90625"/>
  <rect x="9" y="6" width="1" height="1" fill="rgb(83,83,83)" fill-opacity="0.90625"/>
  <rect x="10" y="6" width="1" height="1" fill="rgb(69,69,69)" fill-opacity="0.90625"/>
  <rect x="11" y="6" width="1" height="1" fill="rgb(68,68,68)" fill-opacity="0.90625"/>
  <rect x="12" y="6" width="1" height="1" fill="rgb(80,80,80)" fill-opacity="0.90625"/>
  <rect x="13" y="6" width="1" height="1" fill="rgb(92,92,92)" fill-opacity="0.90625"/>
  <rect x="14" y="6" width="1" height="1" fill="rgb(82,82,82)" fill-opacity="0.9140625"/>
  <rect x="15" y="6" width="1" height="1" fill="rgb(2,2,1)"/>
  <rect x="16" y="6" width="2" height="1" fill="rgb(255,255,255)"/>
  <rect x="18" y="6" width="1" height="1" fill="rgb(1,1,0)" fill-opacity="0.9921875"/>
  <rect x="19" y="6" width="1" height="1" fill="rgb(0,0,0)" fill-opacity="0.1015625"/>
  <rect x="20" y="6" width="1" height="1" fill="rgb(255,255,255)" fill-opacity="0.0078125"/>
  <rect x="0" y="7" width="2" height="1" fill="rgb(255,255,255)" fill-opacity="0.0078125"/>
  <rect x="2" y="7" width="1" height="1" fill="rgb(0,0,0)" fill-opacity="0.1015625"/>
  <rect x="3" y="7" width="1" height="1" fill="rgb(1,1,0)"/>
  <rect x="4" y="7" width="2" height="1" fill="rgb(255,255,255)"/>
  <rect x="6" y="7" width="1" height="1" fill="rgb(3,3,2)"/>
  <rect x="7" y="7" width="1" height="1" fill="rgb(208,208,208)" fill-opacity="0.9140625"/>
  <rect x="8" y="7" width="1" height="1" fill="rgb(230,230,230)" fill-opacity="0.90625"/>
  <rect x="9" y="7" width="1" height="1" fill="rgb(225,225,225)" fill-opacity="0.90625"/>
  <rect x="10" y="7" width="1" height="1" fill="rgb(206,206,206)" fill-opacity="0.90625"/>
  <rect x="11" y="7" width="1" height="1" fill="rgb(203,203,203)" fill-opacity="0.90625"/>
  <rect x="12" y="7" width="2" height="1" fill="rgb(215,215,215)" fill-opacity="0.90625"/>
  <rect x="14" y="7" width="1" height="1" fill="rgb(190,190,190)" fill-opacity="0.9140625"/>
  <rect x="15" y="7" width="1" height="1" fill="rgb(2,2,1)"/>
  <rect x="16" y="7" width="2" height="1" fill="rgb(255,255,255)"/>
  <rect x="18" y="7" width="1" height="1" fill="rgb(1,1,0)" fill-opacity="0.9921875"/>
  <rect x="19" y="7" width="1" height="1" fill="rgb(0,0,0)" fill-opacity="0.1015625"/>
  <rect x="20" y="7" width="1" height="1" fill="rgb(255,255,255)" fill-opacity="0.0078125"/>
  <rect x="0" y="8" width="3" height="1" fill="rgb(255,255,255)" fill-opacity="0.0078125"/>
  <rect x="3" y="8" width="1" height="1" fill="rgb(3,3,3)" fill-opacity="0.6171875"/>
  <rect x="4" y="8" width="1" height="1" fill="rgb(1,1,0)"/>
  <rect x="5" y="8" width="1" height="1" fill="rgb(2,2,1)"/>
  <rect x="6" y="8" width="1" height="1" fill="rgb(43,43,43)" fill-opacity="0.953125"/>
  <rect x="7" y="8" width="1" height="1" fill="rgb(95,95,95)" fill-opacity="0.90625"/>
  <rect x="8" y="8" width="1" height="1" fill="rgb(94,94,94)" fill-opacity="0.90625"/>
  <rect x="9" y="8" width="1" height="1" fill="rgb(137,137,137)" fill-opacity="0.90625"/>
  <rect x="10" y="8" width="1" height="1" fill="rgb(220,220,220)" fill-opacity="0.90625"/>
  <rect x="11" y="8" width="1" height="1" fill="rgb(136,136,136)" fill-opacity="0.90625"/>
  <rect x="12" y="8" width="1" height="1" fill="rgb(91,91,91)" fill-opacity="0.90625"/>
  <rect x="13" y="8" width="1" height="1" fill="rgb(90,90,90)" fill-opacity="0.90625"/>
  <rect x="14" y="8" width="1" height="1" fill="rgb(89,89,89)" fill-opacity="0.90625"/>
  <rect x="15" y="8" width="1" height="1" fill="rgb(39,39,39)" fill-opacity="0.953125"/>
  <rect x="16" y="8" width="1" height="1" fill="rgb(1,1,0)"/>
  <rect x="17" y="8" width="1" height="1" fill="rgb(1,1,0)" fill-opacity="0.9921875"/>
  <rect x="18" y="8" width="1" height="1" fill="rgb(0,0,0)" fill-opacity="0.53125"/>
  <rect x="19" y="8" width="2" height="1" fill="rgb(255,255,255)" fill-opacity="0.0078125"/>
  <rect x="0" y="9" width="4" height="1" fill="rgb(255,255,255)" fill-opacity="0.0078125"/>
  <rect x="4" y="9" width="2" height="1" fill="rgb(0,0,0)" fill-opacity="0.1171875"/>
  <rect x="6" y="9" width="2" height="1" fill="rgb(255,255,255)" fill-opacity="0.0078125"/>
  <rect x="8" y="9" width="1" height="1" fill="rgb(29,29,29)" fill-opacity="0.1796875"/>
  <rect x="9" y="9" width="1" height="1" fill="rgb(111,111,111)" fill-opacity="0.90625"/>
  <rect x="10" y="9" width="1" height="1" fill="rgb(215,215,215)" fill-opacity="0.90625"/>
  <rect x="11" y="9" width="1" height="1" fill="rgb(110,110,110)" fill-opacity="0.90625"/>
  <rect x="12" y="9" width="1" height="1" fill="rgb(28,28,28)" fill-opacity="0.1796875"/>
  <rect x="13" y="9" width="3" height="1" fill="rgb(255,255,255)" fill-opacity="0.0078125"/>
  <rect x="16" y="9" width="2" height="1" fill="rgb(0,0,0)" fill-opacity="0.1171875"/>
  <rect x="18" y="9" width="3" height="1" fill="rgb(255,255,255)" fill-opacity="0.0078125"/>
  <rect x="0" y="10" width="8" height="1" fill="rgb(255,255,255)" fill-opacity="0.0078125"/>
  <rect x="8" y="10" width="1" height="1" fill="rgb(29,29,29)" fill-opacity="0.5625"/>
  <rect x="9" y="10" width="1" height="1" fill="rgb(187,187,187)" fill-opacity="0.90625"/>
  <rect x="10" y="10" width="1" height="1" fill="rgb(210,210,210)" fill-opacity="0.90625"/>
  <rect x="11" y="10" width="1" height="1" fill="rgb(181,181,181)" fill-opacity="0.90625"/>
  <rect x="12" y="10" width="1" height="1" fill="rgb(29,29,29)" fill-opacity="0.5625"/>
  <rect x="13" y="10" width="8" height="1" fill="rgb(255,255,255)" fill-opacity="0.0078125"/>
  <rect x="0" y="11" width="7" height="1" fill="rgb(255,255,255)" fill-opacity="0.0078125"/>
  <rect x="7" y="11" width="1" height="1" fill="rgb(26,26,26)" fill-opacity="0.0859375"/>
  <rect x="8" y="11" width="1" height="1" fill="rgb(84,84,84)" fill-opacity="0.8828125"/>
  <rect x="9" y="11" width="1" height="1" fill="rgb(210,210,210)" fill-opacity="0.90625"/>
  <rect x="10" y="11" width="1" height="1" fill="rgb(195,195,195)" fill-opacity="0.90625"/>
  <rect x="11" y="11" width="1" height="1" fill="rgb(203,203,203)" fill-opacity="0.90625"/>
  <rect x="12" y="11" width="1" height="1" fill="rgb(79,79,79)" fill-opacity="0.8828125"/>
  <rect x="13" y="11" width="1" height="1" fill="rgb(26,26,26)" fill-opacity="0.0859375"/>
  <rect x="14" y="11" width="7" height="1" fill="rgb(255,255,255)" fill-opacity="0.0078125"/>
  <rect x="0" y="12" width="7" height="1" fill="rgb(255,255,255)" fill-opacity="0.0078125"/>
  <rect x="7" y="12" width="1" height="1" fill="rgb(27,27,27)" fill-opacity="0.453125"/>
  <rect x="8" y="12" width="1" height="1" fill="rgb(162,162,162)" fill-opacity="0.90625"/>
  <rect x="9" y="12" width="1" height="1" fill="rgb(203,203,203)" fill-opacity="0.90625"/>
  <rect x="10" y="12" width="1" height="1" fill="rgb(70,70,70)" fill-opacity="0.90625"/>
  <rect x="11" y="12" width="1" height="1" fill="rgb(197,197,197)" fill-opacity="0.90625"/>
  <rect x="12" y="12" width="1" height="1" fill="rgb(153,153,153)" fill-opacity="0.90625"/>
  <rect x="13" y="12" width="1" height="1" fill="rgb(27,27,27)" fill-opacity="0.453125"/>
  <rect x="14" y="12" width="7" height="1" fill="rgb(255,255,255)" fill-opacity="0.0078125"/>
  <rect x="0" y="13" width="6" height="1" fill="rgb(255,255,255)" fill-opacity="0.0078125"/>
  <rect x="6" y="13" width="1" height="1" fill="rgb(51,51,51)" fill-opacity="0.0234375"/>
  <rect x="7" y="13" width="1" height="1" fill="rgb(59,59,59)" fill-opacity="0.8359375"/>
  <rect x="8" y="13" width="1" height="1" fill="rgb(203,203,203)" fill-opacity="0.90625"/>
  <rect x="9" y="13" width="1" height="1" fill="rgb(144,144,144)" fill-opacity="0.90625"/>
  <rect x="10" y="13" width="1" height="1" fill="rgb(26,26,26)" fill-opacity="0.7421875"/>
  <rect x="11" y="13" width="1" height="1" fill="rgb(140,140,140)" fill-opacity="0.90625"/>
  <rect x="12" y="13" width="1" height="1" fill="rgb(191,191,191)" fill-opacity="0.90625"/>
  <rect x="13" y="13" width="1" height="1" fill="rgb(55,55,55)" fill-opacity="0.8359375"/>
  <rect x="14" y="13" width="1" height="1" fill="rgb(51,51,51)" fill-opacity="0.0234375"/>
  <rect x="15" y="13" width="6" height="1" fill="rgb(255,255,255)" fill-opacity="0.0078125"/>
  <rect x="0" y="14" width="6" height="1" fill="rgb(255,255,255)" fill-opacity="0.0078125"/>
  <rect x="6" y="14" width="1" height="1" fill="rgb(26,26,26)" fill-opacity="0.3203125"/>
  <rect x="7" y="14" width="1" height="1" fill="rgb(128,128,128)" fill-opacity="0.90625"/>
  <rect x="8" y="14" width="1" height="1" fill="rgb(198,198,198)" fill-opacity="0.90625"/>
  <rect x="9" y="14" width="1" height="1" fill="rgb(70,70,70)" fill-opacity="0.8671875"/>
  <rect x="10" y="14" width="1" height="1" fill="rgb(32,32,32)" fill-opacity="0.1015625"/>
  <rect x="11" y="14" width="1" height="1" fill="rgb(69,69,69)" fill-opacity="0.8671875"/>
  <rect x="12" y="14" width="1" height="1" fill="rgb(188,188,188)" fill-opacity="0.90625"/>
  <rect x="13" y="14" width="1" height="1" fill="rgb(118,118,118)" fill-opacity="0.90625"/>
  <rect x="14" y="14" width="1" height="1" fill="rgb(25,25,25)" fill-opacity="0.3203125"/>
  <rect x="15" y="14" width="6" height="1" fill="rgb(255,255,255)" fill-opacity="0.0078125"/>
  <rect x="0" y="15" width="6" height="1" fill="rgb(255,255,255)" fill-opacity="0.0078125"/>
  <rect x="6" y="15" width="1" height="1" fill="rgb(36,36,36)" fill-opacity="0.703125"/>
  <rect x="7" y="15" width="1" height="1" fill="rgb(188,188,188)" fill-opacity="0.90625"/>
  <rect x="8" y="15" width="1" height="1" fill="rgb(166,166,166)" fill-opacity="0.90625"/>
  <rect x="9" y="15" width="1" height="1" fill="rgb(26,26,26)" fill-opacity="0.5390625"/>
  <rect x="10" y="15" width="1" height="1" fill="rgb(255,255,255)" fill-opacity="0.0078125"/>
  <rect x="11" y="15" width="1" height="1" fill="rgb(26,26,26)" fill-opacity="0.5390625"/>
  <rect x="12" y="15" width="1" height="1" fill="rgb(156,156,156)" fill-opacity="0.90625"/>
  <rect x="13" y="15" width="1" height="1" fill="rgb(172,172,172)" fill-opacity="0.90625"/>
  <rect x="14" y="15" width="1" height="1" fill="rgb(34,34,34)" fill-opacity="0.703125"/>
  <rect x="15" y="15" width="6" height="1" fill="rgb(255,255,255)" fill-opacity="0.0078125"/>
  <rect x="0" y="16" width="6" height="1" fill="rgb(255,255,255)" fill-opacity="0.0078125"/>
  <rect x="6" y="16" width="1" height="1" fill="rgb(72,72,72)" fill-opacity="0.8359375"/>
  <rect x="7" y="16" width="1" height="1" fill="rgb(193,193,193)" fill-opacity="0.90625"/>
  <rect x="8" y="16" width="1" height="1" fill="rgb(93,93,93)" fill-opacity="0.90625"/>
  <rect x="9" y="16" width="1" height="1" fill="rgb(31,31,31)" fill-opacity="0.1640625"/>
  <rect x="10" y="16" width="1" height="1" fill="rgb(255,255,255)" fill-opacity="0.0078125"/>
  <rect x="11" y="16" width="1" height="1" fill="rgb(31,31,31)" fill-opacity="0.1640625"/>
  <rect x="12" y="16" width="1" height="1" fill="rgb(86,86,86)" fill-opacity="0.90625"/>
  <rect x="13" y="16" width="1" height="1" fill="rgb(176,176,176)" fill-opacity="0.90625"/>
  <rect x="14" y="16" width="1" height="1" fill="rgb(65,65,65)" fill-opacity="0.875"/>
  <rect x="15" y="16" width="1" height="1" fill="rgb(0,0,0)" fill-opacity="0.0078125"/>
  <rect x="16" y="16" width="5" height="1" fill="rgb(255,255,255)" fill-opacity="0.0078125"/>
  <rect x="0" y="17" width="6" height="1" fill="rgb(255,255,255)" fill-opacity="0.0078125"/>
  <rect x="6" y="17" width="1" height="1" fill="rgb(29,29,29)" fill-opacity="0.4453125"/>
  <rect x="7" y="17" width="1" height="1" fill="rgb(64,64,64)" fill-opacity="0.8515625"/>
  <rect x="8" y="17" width="1" height="1" fill="rgb(28,28,28)" fill-opacity="0.5"/>
  <rect x="9" y="17" width="3" height="1" fill="rgb(255,255,255)" fill-opacity="0.0078125"/>
  <rect x="12" y="17" width="1" height="1" fill="rgb(27,27,27)" fill-opacity="0.4453125"/>
  <rect x="13" y="17" width="1" height="1" fill="rgb(60,60,60)" fill-opacity="0.8515625"/>
  <rect x="14" y="17" width="1" height="1" fill="rgb(30,30,30)" fill-opacity="0.4375"/>
  <rect x="15" y="17" width="6" height="1" fill="rgb(255,255,255)" fill-opacity="0.0078125"/>
  <rect x="0" y="18" width="21" height="1" fill="rgb(255,255,255)" fill-opacity="0.0078125"/>
  <rect x="0" y="19" width="21" height="1" fill="rgb(255,255,255)" fill-opacity="0.0078125"/>
  <rect x="0" y="20" width="21" height="1" fill="rgb(255,255,255)" fill-opacity="0.0078125"/>
</svg>