<svg xmlns="http://www.w3.org/2000/svg" shape-rendering="crispEdges" width="21" height="21" viewBox="0 0 21 21">
  <rect x="0" y="0" width="1" height="21" fill="rgb(255,255,255)" fill-opacity="0.0078125"/>
  <rect x="1" y="0" width="1" height="21" fill="rgb(255,255,255)" fill-opacity="0.0078125"/>
  <rect x="2" y="0" width="1" height="21" fill="rgb(255,255,255)" fill-opacity="0.0078125"/>
  <rect x="3" y="0" width="1" height="3" fill="rgb(255,255,255)" fill-opacity="0.0078125"/>
  <rect x="3" y="3" width="1" height="10" fill="rgb(85,85,85)" fill-opacity="0.015625"/>
  <rect x="3" y="13" width="1" height="1" fill="rgb(43,37,3)" fill-opacity="0.3828125"/>
  <rect x="3" y="14" width="1" height="4" fill="rgb(42,38,2)" fill-opacity="0.5"/>
  <rect x="3" y="18" width="1" height="1" fill="rgb(43,37,3)" fill-opacity="0.3828125"/>
  <rect x="3" y="19" width="1" height="2" fill="rgb(255,255,255)" fill-opacity="0.0078125"/>
  <rect x="4" y="0" width="1" height="3" fill="rgb(255,255,255)" fill-opacity="0.0078125"/>
  <rect x="4" y="3" width="1" height="10" fill="rgb(85,85,85)" fill-opacity="0.015625"/>
  <rect x="4" y="13" width="1" height="1" fill="rgb(42,38,2)" fill-opacity="0.5"/>
  <rect x="4" y="14" width="1" height="4" fill="rgb(253,250,212)" fill-opacity="0.65625"/>
  <rect x="4" y="18" width="1" height="1" fill="rgb(42,38,2)" fill-opacity="0.5"/>
  <rect x="4" y="19" width="1" height="2" fill="rgb(255,255,255)" fill-opacity="0.0078125"/>
  <rect x="5" y="0" width="1" height="3" fill="rgb(255,255,255)" fill-opacity="0.0078125"/>
  <rect x="5" y="3" width="1" height="1" fill="rgb(107,95,2)" fill-opacity="0.4921875"/>
  <rect x="5" y="4" width="1" height="1" fill="rgb(121,109,16)" fill-opacity="0.9296875"/>
  <rect x="5" y="5" width="1" height="1" fill="rgb(107,95,2)" fill-opacity="0.5"/>
  <rect x="5" y="6" width="1" height="7" fill="rgb(85,85,85)" fill-opacity="0.015625"/>
  <rect x="5" y="13" width="1" height="1" fill="rgb(43,37,3)" fill-opacity="0.3828125"/>
  <rect x="5" y="14" width="1" height="1" fill="rgb(44,39,0)" fill-opacity="0.6015625"/>
  <rect x="5" y="15" width="1" height="1" fill="rgb(147,140,92)" fill-opacity="0.65625"/>
  <rect x="5" y="16" width="1" height="1" fill="rgb(208,200,156)" fill-opacity="0.65625"/>
  <rect x="5" y="17" width="1" height="1" fill="rgb(253,250,212)" fill-opacity="0.65625"/>
  <rect x="5" y="18" width="1" height="1" fill="rgb(42,38,2)" fill-opacity="0.5"/>
  <rect x="5" y="19" width="1" height="2" fill="rgb(255,255,255)" fill-opacity="0.0078125"/>
  <rect x="6" y="0" width="1" height="2" fill="rgb(255,255,255)" fill-opacity="0.0078125"/>
  <rect x="6" y="2" width="1" height="1" fill="rgb(128,128,0)" fill-opacity="0.015625"/>
  <rect x="6" y="3" width="1" height="1" fill="rgb(124,114,21)" fill-opacity="0.9609375"/>
  <rect x="6" y="4" width="1" height="1" fill="rgb(254,245,169)"/>
  <rect x="6" y="5" width="1" height="1" fill="rgb(131,120,27)" fill-opacity="0.9921875"/>
  <rect x="6" y="6" width="1" height="1" fill="rgb(143,143,64)" fill-opacity="0.0703125"/>
  <rect x="6" y="7" width="1" height="1" fill="rgb(191,159,128)" fill-opacity="0.0390625"/>
  <rect x="6" y="8" width="1" height="1" fill="rgb(182,182,146)" fill-opacity="0.03125"/>
  <rect x="6" y="9" width="1" height="1" fill="rgb(153,153,102)" fill-opacity="0.0234375"/>
  <rect x="6" y="10" width="1" height="2" fill="rgb(85,85,85)" fill-opacity="0.015625"/>
  <rect x="6" y="12" width="1" height="1" fill="rgb(64,64,64)" fill-opacity="0.0234375"/>
  <rect x="6" y="13" width="1" height="1" fill="rgb(44,39,2)" fill-opacity="0.4140625"/>
  <rect x="6" y="14" width="1" height="1" fill="rgb(137,134,102)" fill-opacity="0.65625"/>
  <rect x="6" y="15" width="1" height="1" fill="rgb(214,211,182)" fill-opacity="0.65625"/>
  <rect x="6" y="16" width="1" height="1" fill="rgb(147,140,92)" fill-opacity="0.65625"/>
  <rect x="6" y="17" width="1" height="1" fill="rgb(253,250,212)" fill-opacity="0.65625"/>
  <rect x="6" y="18" width="1" height="1" fill="rgb(42,38,2)" fill-opacity="0.5"/>
  <rect x="6" y="19" width="1" height="2" fill="rgb(255,255,255)" fill-opacity="0.0078125"/>
  <rect x="7" y="0" width="1" height="2" fill="rgb(255,255,255)" fill-opacity="0.0078125"/>
  <rect x="7" y="2" width="1" height="1" fill="rgb(255,255,0)" fill-opacity="0.0078125"/>
  <rect x="7" y="3" width="1" height="1" fill="rgb(124,114,22)" fill-opacity="0.9765625"/>
  <rect x="7" y="4" width="1" height="1" fill="rgb(255,246,170)"/>
  <rect x="7" y="5" width="1" height="1" fill="rgb(145,135,45)"/>
  <rect x="7" y="6" width="1" height="1" fill="rgb(173,163,82)" fill-opacity="0.203125"/>
  <rect x="7" y="7" width="1" height="1" fill="rgb(235,226,167)" fill-opacity="0.109375"/>
  <rect x="7" y="8" width="1" height="1" fill="rgb(232,220,162)" fill-opacity="0.09375"/>
  <rect x="7" y="9" width="1" height="1" fill="rgb(223,207,159)" fill-opacity="0.0703125"/>
  <rect x="7" y="10" width="1" height="1" fill="rgb(198,198,142)" fill-opacity="0.0390625"/>
  <rect x="7" y="11" width="1" height="1" fill="rgb(128,128,85)" fill-opacity="0.03125"/>
  <rect x="7" y="12" width="1" height="1" fill="rgb(44,39,2)" fill-opacity="0.4140625"/>
  <rect x="7" y="13" width="1" height="1" fill="rgb(137,134,102)" fill-opacity="0.65625"/>
  <rect x="7" y="14" width="1" height="1" fill="rgb(214,211,182)" fill-opacity="0.65625"/>
  <rect x="7" y="15" width="1" height="1" fill="rgb(137,134,102)" fill-opacity="0.65625"/>
  <rect x="7" y="16" width="1" height="1" fill="rgb(44,39,0)" fill-opacity="0.6015625"/>
  <rect x="7" y="17" width="1" height="1" fill="rgb(253,250,212)" fill-opacity="0.65625"/>
  <rect x="7" y="18" width="1" height="1" fill="rgb(42,38,2)" fill-opacity="0.5"/>
  <rect x="7" y="19" width="1" height="2" fill="rgb(255,255,255)" fill-opacity="0.0078125"/>
  <rect x="8" y="0" width="1" height="2" fill="rgb(255,255,255)" fill-opacity="0.0078125"/>
  <rect x="8" y="2" width="1" height="1" fill="rgb(255,255,128)" fill-opacity="0.015625"/>
  <rect x="8" y="3" width="1" height="1" fill="rgb(117,106,11)" fill-opacity="0.9140625"/>
  <rect x="8" y="4" width="1" height="1" fill="rgb(255,246,170)"/>
  <rect x="8" y="5" width="1" height="1" fill="rgb(156,145,57)"/>
  <rect x="8" y="6" width="1" height="1" fill="rgb(164,157,66)" fill-opacity="0.2890625"/>
  <rect x="8" y="7" width="1" height="1" fill="rgb(241,234,163)" fill-opacity="0.1484375"/>
  <rect x="8" y="8" width="1" height="1" fill="rgb(240,233,165)" fill-opacity="0.140625"/>
  <rect x="8" y="9" width="1" height="1" fill="rgb(238,230,170)" fill-opacity="0.125"/>
  <rect x="8" y="10" width="1" height="1" fill="rgb(226,216,157)" fill-opacity="0.109375"/>
  <rect x="8" y="11" width="1" height="1" fill="rgb(57,53,11)" fill-opacity="0.4375"/>
  <rect x="8" y="12" width="1" height="1" fill="rgb(138,135,103)" fill-opacity="0.6640625"/>
  <rect x="8" y="13" width="1" height="1" fill="rgb(214,211,182)" fill-opacity="0.65625"/>
  <rect x="8" y="14" width="1" height="1" fill="rgb(137,134,102)" fill-opacity="0.65625"/>
  <rect x="8" y="15" width="1" height="1" fill="rgb(44,39,2)" fill-opacity="0.4140625"/>
  <rect x="8" y="16" width="1" height="1" fill="rgb(43,37,3)" fill-opacity="0.3828125"/>
  <rect x="8" y="17" width="1" height="1" fill="rgb(42,38,2)" fill-opacity="0.5"/>
  <rect x="8" y="18" width="1" height="1" fill="rgb(43,37,3)" fill-opacity="0.3828125"/>
  <rect x="8" y="19" width="1" height="2" fill="rgb(255,255,255)" fill-opacity="0.0078125"/>
  <rect x="9" y="0" width="1" height="2" fill="rgb(255,255,255)" fill-opacity="0.0078125"/>
  <rect x="9" y="2" width="1" height="1" fill="rgb(255,255,170)" fill-opacity="0.015625"/>
  <rect x="9" y="3" width="1" height="1" fill="rgb(109,97,2)" fill-opacity="0.8515625"/>
  <rect x="9" y="4" width="1" height="1" fill="rgb(253,244,168)"/>
  <rect x="9" y="5" width="1" height="1" fill="rgb(169,159,72)"/>
  <rect x="9" y="6" width="1" height="1" fill="rgb(166,155,52)" fill-opacity="0.4609375"/>
  <rect x="9" y="7" width="1" height="1" fill="rgb(251,239,123)" fill-opacity="0.25"/>
  <rect x="9" y="8" width="1" height="1" fill="rgb(250,240,137)" fill-opacity="0.2109375"/>
  <rect x="9" y="9" width="1" height="1" fill="rgb(236,224,143)" fill-opacity="0.1640625"/>
  <rect x="9" y="10" width="1" height="1" fill="rgb(77,70,27)" fill-opacity="0.484375"/>
  <rect x="9" y="11" width="1" height="1" fill="rgb(143,141,106)" fill-opacity="0.6953125"/>
  <rect x="9" y="12" width="1" height="1" fill="rgb(215,212,182)" fill-opacity="0.6796875"/>
  <rect x="9" y="13" width="1" height="1" fill="rgb(138,135,103)" fill-opacity="0.6640625"/>
  <rect x="9" y="14" width="1" height="1" fill="rgb(44,39,2)" fill-opacity="0.4140625"/>
  <rect x="9" y="15" width="1" height="1" fill="rgb(64,64,64)" fill-opacity="0.0234375"/>
  <rect x="9" y="16" width="1" height="3" fill="rgb(85,85,85)" fill-opacity="0.015625"/>
  <rect x="9" y="19" width="1" height="2" fill="rgb(255,255,255)" fill-opacity="0.0078125"/>
  <rect x="10" y="0" width="1" height="2" fill="rgb(255,255,255)" fill-opacity="0.0078125"/>
  <rect x="10" y="2" width="1" height="1" fill="rgb(255,255,85)" fill-opacity="0.015625"/>
  <rect x="10" y="3" width="1" height="1" fill="rgb(111,101,6)" fill-opacity="0.71875"/>
  <rect x="10" y="4" width="1" height="1" fill="rgb(227,218,138)"/>
  <rect x="10" y="5" width="1" height="1" fill="rgb(203,193,111)"/>
  <rect x="10" y="6" width="1" height="1" fill="rgb(136,124,23)" fill-opacity="0.6484375"/>
  <rect x="10" y="7" width="1" height="1" fill="rgb(251,240,120)" fill-opacity="0.28125"/>
  <rect x="10" y="8" width="1" height="1" fill="rgb(251,237,118)" fill-opacity="0.2734375"/>
  <rect x="10" y="9" width="1" height="1" fill="rgb(100,92,33)" fill-opacity="0.546875"/>
  <rect x="10" y="10" width="1" height="1" fill="rgb(147,144,106)" fill-opacity="0.71875"/>
  <rect x="10" y="11" width="1" height="1" fill="rgb(216,213,181)" fill-opacity="0.703125"/>
  <rect x="10" y="12" width="1" height="1" fill="rgb(143,141,106)" fill-opacity="0.6953125"/>
  <rect x="10" y="13" width="1" height="1" fill="rgb(57,53,11)" fill-opacity="0.4375"/>
  <rect x="10" y="14" width="1" height="1" fill="rgb(128,128,85)" fill-opacity="0.03125"/>
  <rect x="10" y="15" width="1" height="4" fill="rgb(85,85,85)" fill-opacity="0.015625"/>
  <rect x="10" y="19" width="1" height="2" fill="rgb(255,255,255)" fill-opacity="0.0078125"/>
  <rect x="11" y="0" width="1" height="2" fill="rgb(255,255,255)" fill-opacity="0.0078125"/>
  <rect x="11" y="2" width="1" height="1" fill="rgb(255,255,0)" fill-opacity="0.0078125"/>
  <rect x="11" y="3" width="1" height="1" fill="rgb(118,107,11)" fill-opacity="0.4765625"/>
  <rect x="11" y="4" width="1" height="1" fill="rgb(186,176,91)"/>
  <rect x="11" y="5" width="1" height="1" fill="rgb(240,231,153)"/>
  <rect x="11" y="6" width="1" height="1" fill="rgb(119,107,12)" fill-opacity="0.8515625"/>
  <rect x="11" y="7" width="1" height="1" fill="rgb(252,239,133)" fill-opacity="0.375"/>
  <rect x="11" y="8" width="1" height="1" fill="rgb(206,193,98)" fill-opacity="0.375"/>
  <rect x="11" y="9" width="1" height="1" fill="rgb(152,148,104)" fill-opacity="0.75"/>
  <rect x="11" y="10" width="1" height="1" fill="rgb(219,215,175)" fill-opacity="0.7421875"/>
  <rect x="11" y="11" width="1" height="1" fill="rgb(147,143,106)" fill-opacity="0.71875"/>
  <rect x="11" y="12" width="1" height="1" fill="rgb(77,70,27)" fill-opacity="0.484375"/>
  <rect x="11" y="13" width="1" height="1" fill="rgb(226,216,157)" fill-opacity="0.109375"/>
  <rect x="11" y="14" width="1" height="1" fill="rgb(198,198,142)" fill-opacity="0.0390625"/>
  <rect x="11" y="15" width="1" height="1" fill="rgb(128,128,64)" fill-opacity="0.0234375"/>
  <rect x="11" y="16" width="1" height="3" fill="rgb(85,85,85)" fill-opacity="0.015625"/>
  <rect x="11" y="19" width="1" height="2" fill="rgb(255,255,255)" fill-opacity="0.0078125"/>
  <rect x="12" y="0" width="1" height="3" fill="rgb(255,255,255)" fill-opacity="0.0078125"/>
  <rect x="12" y="3" width="1" height="1" fill="rgb(114,109,11)" fill-opacity="0.1875"/>
  <rect x="12" y="4" width="1" height="1" fill="rgb(145,135,45)"/>
  <rect x="12" y="5" width="1" height="1" fill="rgb(255,246,170)"/>
  <rect x="12" y="6" width="1" height="1" fill="rgb(142,132,41)"/>
  <rect x="12" y="7" width="1" height="1" fill="rgb(185,172,75)" fill-opacity="0.5625"/>
  <rect x="12" y="8" width="1" height="1" fill="rgb(249,236,149)" fill-opacity="0.46875"/>
  <rect x="12" y="9" width="1" height="1" fill="rgb(224,219,177)" fill-opacity="0.7734375"/>
  <rect x="12" y="10" width="1" height="1" fill="rgb(153,149,106)" fill-opacity="0.75"/>
  <rect x="12" y="11" width="1" height="1" fill="rgb(101,95,34)" fill-opacity="0.5390625"/>
  <rect x="12" y="12" width="1" height="1" fill="rgb(236,224,149)" fill-opacity="0.1640625"/>
  <rect x="12" y="13" width="1" height="1" fill="rgb(238,230,162)" fill-opacity="0.125"/>
  <rect x="12" y="14" width="1" height="1" fill="rgb(221,221,153)" fill-opacity="0.0625"/>
  <rect x="12" y="15" width="1" height="1" fill="rgb(153,153,102)" fill-opacity="0.0234375"/>
  <rect x="12" y="16" width="1" height="3" fill="rgb(85,85,85)" fill-opacity="0.015625"/>
  <rect x="12" y="19" width="1" height="2" fill="rgb(255,255,255)" fill-opacity="0.0078125"/>
  <rect x="13" y="0" width="1" height="3" fill="rgb(255,255,255)" fill-opacity="0.0078125"/>
  <rect x="13" y="3" width="1" height="1" fill="rgb(85,85,85)" fill-opacity="0.015625"/>
  <rect x="13" y="4" width="1" height="1" fill="rgb(108,97,3)" fill-opacity="0.78125"/>
  <rect x="13" y="5" width="1" height="1" fill="rgb(219,210,129)"/>
  <rect x="13" y="6" width="1" height="1" fill="rgb(231,221,143)"/>
  <rect x="13" y="7" width="1" height="1" fill="rgb(119,108,13)" fill-opacity="0.9140625"/>
  <rect x="13" y="8" width="1" height="1" fill="rgb(239,225,126)" fill-opacity="0.4375"/>
  <rect x="13" y="9" width="1" height="1" fill="rgb(246,231,147)" fill-opacity="0.46875"/>
  <rect x="13" y="10" width="1" height="1" fill="rgb(213,200,100)" fill-opacity="0.3671875"/>
  <rect x="13" y="11" width="1" height="1" fill="rgb(251,237,118)" fill-opacity="0.2734375"/>
  <rect x="13" y="12" width="1" height="1" fill="rgb(250,240,137)" fill-opacity="0.2109375"/>
  <rect x="13" y="13" width="1" height="1" fill="rgb(240,233,165)" fill-opacity="0.140625"/>
  <rect x="13" y="14" width="1" height="1" fill="rgb(232,220,151)" fill-opacity="0.09375"/>
  <rect x="13" y="15" width="1" height="1" fill="rgb(170,170,128)" fill-opacity="0.03125"/>
  <rect x="13" y="16" width="1" height="3" fill="rgb(85,85,85)" fill-opacity="0.015625"/>
  <rect x="13" y="19" width="1" height="2" fill="rgb(255,255,255)" fill-opacity="0.0078125"/>
  <rect x="14" y="0" width="1" height="3" fill="rgb(255,255,255)" fill-opacity="0.0078125"/>
  <rect x="14" y="3" width="1" height="1" fill="rgb(85,85,85)" fill-opacity="0.015625"/>
  <rect x="14" y="4" width="1" height="1" fill="rgb(102,96,6)" fill-opacity="0.1796875"/>
  <rect x="14" y="5" width="1" height="1" fill="rgb(132,121,29)" fill-opacity="0.984375"/>
  <rect x="14" y="6" width="1" height="1" fill="rgb(251,242,166)"/>
  <rect x="14" y="7" width="1" height="1" fill="rgb(194,185,101)"/>
  <rect x="14" y="8" width="1" height="1" fill="rgb(119,108,13)" fill-opacity="0.9140625"/>
  <rect x="14" y="9" width="1" height="1" fill="rgb(185,172,75)" fill-opacity="0.5625"/>
  <rect x="14" y="10" width="1" height="1" fill="rgb(252,239,133)" fill-opacity="0.375"/>
  <rect x="14" y="11" width="1" height="1" fill="rgb(251,237,120)" fill-opacity="0.28125"/>
  <rect x="14" y="12" width="1" height="1" fill="rgb(251,239,123)" fill-opacity="0.25"/>
  <rect x="14" y="13" width="1" height="1" fill="rgb(241,234,156)" fill-opacity="0.1484375"/>
  <rect x="14" y="14" width="1" height="1" fill="rgb(235,226,167)" fill-opacity="0.109375"/>
  <rect x="14" y="15" width="1" height="1" fill="rgb(182,182,146)" fill-opacity="0.03125"/>
  <rect x="14" y="16" width="1" height="3" fill="rgb(85,85,85)" fill-opacity="0.015625"/>
  <rect x="14" y="19" width="1" height="2" fill="rgb(255,255,255)" fill-opacity="0.0078125"/>
  <rect x="15" y="0" width="1" height="3" fill="rgb(255,255,255)" fill-opacity="0.0078125"/>
  <rect x="15" y="3" width="1" height="2" fill="rgb(85,85,85)" fill-opacity="0.015625"/>
  <rect x="15" y="5" width="1" height="1" fill="rgb(105,95,0)" fill-opacity="0.5078125"/>
  <rect x="15" y="6" width="1" height="1" fill="rgb(169,158,71)"/>
  <rect x="15" y="7" width="1" height="1" fill="rgb(252,243,167)"/>
  <rect x="15" y="8" width="1" height="1" fill="rgb(230,221,142)"/>
  <rect x="15" y="9" width="1" height="1" fill="rgb(140,129,39)"/>
  <rect x="15" y="10" width="1" height="1" fill="rgb(119,107,12)" fill-opacity="0.8515625"/>
  <rect x="15" y="11" width="1" height="1" fill="rgb(136,124,23)" fill-opacity="0.6484375"/>
  <rect x="15" y="12" width="1" height="1" fill="rgb(166,155,52)" fill-opacity="0.4609375"/>
  <rect x="15" y="13" width="1" height="1" fill="rgb(164,157,66)" fill-opacity="0.2890625"/>
  <rect x="15" y="14" width="1" height="1" fill="rgb(173,168,77)" fill-opacity="0.203125"/>
  <rect x="15" y="15" width="1" height="1" fill="rgb(153,153,68)" fill-opacity="0.0625"/>
  <rect x="15" y="16" width="1" height="3" fill="rgb(85,85,85)" fill-opacity="0.015625"/>
  <rect x="15" y="19" width="1" height="2" fill="rgb(255,255,255)" fill-opacity="0.0078125"/>
  <rect x="16" y="0" width="1" height="3" fill="rgb(255,255,255)" fill-opacity="0.0078125"/>
  <rect x="16" y="3" width="1" height="2" fill="rgb(85,85,85)" fill-opacity="0.015625"/>
  <rect x="16" y="5" width="1" height="1" fill="rgb(102,102,51)" fill-opacity="0.0234375"/>
  <rect x="16" y="6" width="1" height="1" fill="rgb(105,95,0)" fill-opacity="0.5078125"/>
  <rect x="16" y="7" width="1" height="1" fill="rgb(133,121,30)" fill-opacity="0.984375"/>
  <rect x="16" y="8" width="1" height="1" fill="rgb(223,213,133)"/>
  <rect x="16" y="9" width="1" height="1" fill="rgb(255,246,170)"/>
  <rect x="16" y="10" width="1" height="1" fill="rgb(230,221,142)"/>
  <rect x="16" y="11" width="1" height="1" fill="rgb(192,183,99)"/>
  <rect x="16" y="12" width="1" height="1" fill="rgb(158,148,59)"/>
  <rect x="16" y="13" width="1" height="1" fill="rgb(146,136,46)"/>
  <rect x="16" y="14" width="1" height="1" fill="rgb(140,130,39)"/>
  <rect x="16" y="15" width="1" height="1" fill="rgb(128,116,24)" fill-opacity="0.9765625"/>
  <rect x="16" y="16" width="1" height="1" fill="rgb(107,96,2)" fill-opacity="0.484375"/>
  <rect x="16" y="17" width="1" height="2" fill="rgb(85,85,85)" fill-opacity="0.015625"/>
  <rect x="16" y="19" width="1" height="2" fill="rgb(255,255,255)" fill-opacity="0.0078125"/>
  <rect x="17" y="0" width="1" height="3" fill="rgb(255,255,255)" fill-opacity="0.0078125"/>
  <rect x="17" y="3" width="1" height="4" fill="rgb(85,85,85)" fill-opacity="0.015625"/>
  <rect x="17" y="7" width="1" height="1" fill="rgb(102,96,6)" fill-opacity="0.1796875"/>
  <rect x="17" y="8" width="1" height="1" fill="rgb(107,97,1)" fill-opacity="0.7734375"/>
  <rect x="17" y="9" width="1" height="1" fill="rgb(157,147,59)"/>
  <rect x="17" y="10" width="1" height="1" fill="rgb(199,189,107)"/>
  <rect x="17" y="11" width="1" height="1" fill="rgb(238,229,151)"/>
  <rect x="17" y="12" width="1" height="3" fill="rgb(255,246,170)"/>
  <rect x="17" y="15" width="1" height="1" fill="rgb(253,244,168)"/>
  <rect x="17" y="16" width="1" height="1" fill="rgb(120,109,16)" fill-opacity="0.9296875"/>
  <rect x="17" y="17" width="1" height="2" fill="rgb(85,85,85)" fill-opacity="0.015625"/>
  <rect x="17" y="19" width="1" height="2" fill="rgb(255,255,255)" fill-opacity="0.0078125"/>
  <rect x="18" y="0" width="1" height="3" fill="rgb(255,255,255)" fill-opacity="0.0078125"/>
  <rect x="18" y="3" width="1" height="6" fill="rgb(85,85,85)" fill-opacity="0.015625"/>
  <rect x="18" y="9" width="1" height="1" fill="rgb(114,109,11)" fill-opacity="0.1875"/>
  <rect x="18" y="10" width="1" height="1" fill="rgb(117,106,9)" fill-opacity="0.4765625"/>
  <rect x="18" y="11" width="1" height="1" fill="rgb(111,101,4)" fill-opacity="0.71875"/>
  <rect x="18" y="12" width="1" height="1" fill="rgb(121,108,15)" fill-opacity="0.8671875"/>
  <rect x="18" y="13" width="1" height="1" fill="rgb(125,114,21)" fill-opacity="0.921875"/>
  <rect x="18" y="14" width="1" height="1" fill="rgb(129,118,26)" fill-opacity="0.9765625"/>
  <rect x="18" y="15" width="1" height="1" fill="rgb(128,116,23)" fill-opacity="0.9921875"/>
  <rect x="18" y="16" width="1" height="1" fill="rgb(106,95,2)" fill-opacity="0.484375"/>
  <rect x="18" y="17" width="1" height="2" fill="rgb(85,85,85)" fill-opacity="0.015625"/>
  <rect x="18" y="19" width="1" height="2" fill="rgb(255,255,255)" fill-opacity="0.0078125"/>
  <rect x="19" y="0" width="1" height="10" fill="rgb(255,255,255)" fill-opacity="0.0078125"/>
  <rect x="19" y="10" width="1" height="1" fill="rgb(255,255,0)" fill-opacity="0.0078125"/>
  <rect x="19" y="11" width="1" height="1" fill="rgb(255,255,128)" fill-opacity="0.015625"/>
  <rect x="19" y="12" width="1" height="2" fill="rgb(255,255,170)" fill-opacity="0.015625"/>
  <rect x="19" y="14" width="1" height="1" fill="rgb(255,255,0)" fill-opacity="0.0078125"/>
  <rect x="19" y="15" width="1" height="1" fill="rgb(128,128,0)" fill-opacity="0.015625"/>
  <rect x="19" y="16" width="1" height="5" fill="rgb(255,255,255)" fill-opacity="0.0078125"/>
  <rect x="20" y="0" width="1" height="21" fill="rgb(255,255,255)" fill-opacity="0.0078125"/>
</svg>