<svg xmlns="http://www.w3.org/2000/svg" shape-rendering="crispEdges" width="21" height="21" viewBox="0 0 21 21">
  <rect x="0" y="0" width="1" height="21" fill="rgb(255,255,255)" fill-opacity="0.0078125"/>
  <rect x="1" y="0" width="1" height="21" fill="rgb(255,255,255)" fill-opacity="0.0078125"/>
  <rect x="2" y="0" width="1" height="21" fill="rgb(255,255,255)" fill-opacity="0.0078125"/>
  <rect x="3" y="0" width="1" height="21" fill="rgb(255,255,255)" fill-opacity="0.0078125"/>
  <rect x="4" y="0" width="1" height="4" fill="rgb(255,255,255)" fill-opacity="0.0078125"/>
  <rect x="4" y="4" width="1" height="1" fill="rgb(23,49,89)" fill-opacity="0.7734375"/>
  <rect x="4" y="5" width="1" height="1" fill="rgb(24,51,91)" fill-opacity="0.890625"/>
  <rect x="4" y="6" width="1" height="1" fill="rgb(26,53,93)" fill-opacity="0.890625"/>
  <rect x="4" y="7" width="1" height="1" fill="rgb(27,54,94)" fill-opacity="0.890625"/>
  <rect x="4" y="8" width="1" height="1" fill="rgb(29,55,94)" fill-opacity="0.890625"/>
  <rect x="4" y="9" width="1" height="1" fill="rgb(30,54,91)" fill-opacity="0.7734375"/>
  <rect x="4" y="10" width="1" height="5" fill="rgb(255,255,255)" fill-opacity="0.0078125"/>
  <rect x="4" y="15" width="1" height="1" fill="rgb(0,0,0)" fill-opacity="0.1015625"/>
  <rect x="4" y="16" width="1" height="1" fill="rgb(18,15,7)" fill-opacity="0.2734375"/>
  <rect x="4" y="17" width="1" height="1" fill="rgb(0,0,0)" fill-opacity="0.0859375"/>
  <rect x="4" y="18" width="1" height="3" fill="rgb(255,255,255)" fill-opacity="0.0078125"/>
  <rect x="5" y="0" width="1" height="4" fill="rgb(255,255,255)" fill-opacity="0.0078125"/>
  <rect x="5" y="4" width="1" height="1" fill="rgb(24,51,90)" fill-opacity="0.9140625"/>
  <rect x="5" y="5" width="1" height="1" fill="rgb(191,209,234)"/>
  <rect x="5" y="6" width="1" height="1" fill="rgb(214,225,242)"/>
  <rect x="5" y="7" width="1" height="1" fill="rgb(218,228,243)"/>
  <rect x="5" y="8" width="1" height="1" fill="rgb(203,217,238)"/>
  <rect x="5" y="9" width="1" height="1" fill="rgb(32,56,93)" fill-opacity="0.9140625"/>
  <rect x="5" y="10" width="1" height="4" fill="rgb(255,255,255)" fill-opacity="0.0078125"/>
  <rect x="5" y="14" width="1" height="1" fill="rgb(0,0,0)" fill-opacity="0.1171875"/>
  <rect x="5" y="15" width="1" height="1" fill="rgb(157,123,58)" fill-opacity="0.625"/>
  <rect x="5" y="16" width="1" height="1" fill="rgb(250,197,91)" fill-opacity="0.96875"/>
  <rect x="5" y="17" width="1" height="1" fill="rgb(14,11,4)" fill-opacity="0.28125"/>
  <rect x="5" y="18" width="1" height="3" fill="rgb(255,255,255)" fill-opacity="0.0078125"/>
  <rect x="6" y="0" width="1" height="4" fill="rgb(255,255,255)" fill-opacity="0.0078125"/>
  <rect x="6" y="4" width="1" height="1" fill="rgb(25,52,91)" fill-opacity="0.9140625"/>
  <rect x="6" y="5" width="1" height="1" fill="rgb(219,229,243)"/>
  <rect x="6" y="6" width="1" height="1" fill="rgb(96,140,203)"/>
  <rect x="6" y="7" width="1" height="1" fill="rgb(111,151,208)"/>
  <rect x="6" y="8" width="1" height="1" fill="rgb(127,162,213)"/>
  <rect x="6" y="9" width="1" height="1" fill="rgb(34,58,93)" fill-opacity="0.9140625"/>
  <rect x="6" y="10" width="1" height="3" fill="rgb(255,255,255)" fill-opacity="0.0078125"/>
  <rect x="6" y="13" width="1" height="1" fill="rgb(0,0,0)" fill-opacity="0.1171875"/>
  <rect x="6" y="14" width="1" height="1" fill="rgb(157,123,58)" fill-opacity="0.625"/>
  <rect x="6" y="15" width="1" height="1" fill="rgb(254,201,93)" fill-opacity="0.9921875"/>
  <rect x="6" y="16" width="1" height="1" fill="rgb(131,102,48)" fill-opacity="0.671875"/>
  <rect x="6" y="17" width="1" height="1" fill="rgb(0,0,0)" fill-opacity="0.2890625"/>
  <rect x="6" y="18" width="1" height="1" fill="rgb(0,0,0)" fill-opacity="0.03125"/>
  <rect x="6" y="19" width="1" height="2" fill="rgb(255,255,255)" fill-opacity="0.0078125"/>
  <rect x="7" y="0" width="1" height="4" fill="rgb(255,255,255)" fill-opacity="0.0078125"/>
  <rect x="7" y="4" width="1" height="1" fill="rgb(27,54,92)" fill-opacity="0.9140625"/>
  <rect x="7" y="5" width="1" height="1" fill="rgb(223,232,244)"/>
  <rect x="7" y="6" width="1" height="1" fill="rgb(111,150,208)"/>
  <rect x="7" y="7" width="1" height="1" fill="rgb(127,162,214)"/>
  <rect x="7" y="8" width="1" height="1" fill="rgb(144,175,219)"/>
  <rect x="7" y="9" width="1" height="1" fill="rgb(36,59,95)" fill-opacity="0.9140625"/>
  <rect x="7" y="10" width="1" height="2" fill="rgb(255,255,255)" fill-opacity="0.0078125"/>
  <rect x="7" y="12" width="1" height="1" fill="rgb(0,0,0)" fill-opacity="0.1171875"/>
  <rect x="7" y="13" width="1" height="1" fill="rgb(157,123,58)" fill-opacity="0.625"/>
  <rect x="7" y="14" width="1" height="1" fill="rgb(254,201,93)" fill-opacity="0.9921875"/>
  <rect x="7" y="15" width="1" height="1" fill="rgb(131,102,48)" fill-opacity="0.671875"/>
  <rect x="7" y="16" width="1" height="1" fill="rgb(0,0,0)" fill-opacity="0.296875"/>
  <rect x="7" y="17" width="1" height="1" fill="rgb(0,0,0)" fill-opacity="0.1171875"/>
  <rect x="7" y="18" width="1" height="3" fill="rgb(255,255,255)" fill-opacity="0.0078125"/>
  <rect x="8" y="0" width="1" height="4" fill="rgb(255,255,255)" fill-opacity="0.0078125"/>
  <rect x="8" y="4" width="1" height="1" fill="rgb(30,55,92)" fill-opacity="0.9140625"/>
  <rect x="8" y="5" width="1" height="1" fill="rgb(210,222,240)"/>
  <rect x="8" y="6" width="1" height="1" fill="rgb(129,164,214)"/>
  <rect x="8" y="7" width="1" height="1" fill="rgb(146,176,220)"/>
  <rect x="8" y="8" width="1" height="1" fill="rgb(162,188,226)"/>
  <rect x="8" y="9" width="1" height="1" fill="rgb(38,60,96)" fill-opacity="0.9140625"/>
  <rect x="8" y="10" width="1" height="1" fill="rgb(255,255,255)" fill-opacity="0.0078125"/>
  <rect x="8" y="11" width="1" height="1" fill="rgb(0,0,0)" fill-opacity="0.1171875"/>
  <rect x="8" y="12" width="1" height="1" fill="rgb(157,123,58)" fill-opacity="0.625"/>
  <rect x="8" y="13" width="1" height="1" fill="rgb(254,201,93)" fill-opacity="0.9921875"/>
  <rect x="8" y="14" width="1" height="1" fill="rgb(131,102,48)" fill-opacity="0.671875"/>
  <rect x="8" y="15" width="1" height="1" fill="rgb(0,0,0)" fill-opacity="0.296875"/>
  <rect x="8" y="16" width="1" height="1" fill="rgb(0,0,0)" fill-opacity="0.1171875"/>
  <rect x="8" y="17" width="1" height="4" fill="rgb(255,255,255)" fill-opacity="0.0078125"/>
  <rect x="9" y="0" width="1" height="4" fill="rgb(255,255,255)" fill-opacity="0.0078125"/>
  <rect x="9" y="4" width="1" height="1" fill="rgb(30,55,92)" fill-opacity="0.8046875"/>
  <rect x="9" y="5" width="1" height="1" fill="rgb(36,60,98)" fill-opacity="0.8984375"/>
  <rect x="9" y="6" width="1" height="1" fill="rgb(38,62,98)" fill-opacity="0.8984375"/>
  <rect x="9" y="7" width="1" height="1" fill="rgb(40,63,99)" fill-opacity="0.8984375"/>
  <rect x="9" y="8" width="1" height="1" fill="rgb(42,65,99)" fill-opacity="0.8984375"/>
  <rect x="9" y="9" width="1" height="1" fill="rgb(37,60,93)" fill-opacity="0.8046875"/>
  <rect x="9" y="10" width="1" height="1" fill="rgb(0,0,0)" fill-opacity="0.1171875"/>
  <rect x="9" y="11" width="1" height="1" fill="rgb(157,123,58)" fill-opacity="0.625"/>
  <rect x="9" y="12" width="1" height="1" fill="rgb(254,201,93)" fill-opacity="0.9921875"/>
  <rect x="9" y="13" width="1" height="1" fill="rgb(131,102,48)" fill-opacity="0.671875"/>
  <rect x="9" y="14" width="1" height="1" fill="rgb(0,0,0)" fill-opacity="0.296875"/>
  <rect x="9" y="15" width="1" height="1" fill="rgb(0,0,0)" fill-opacity="0.1171875"/>
  <rect x="9" y="16" width="1" height="5" fill="rgb(255,255,255)" fill-opacity="0.0078125"/>
  <rect x="10" y="0" width="1" height="9" fill="rgb(255,255,255)" fill-opacity="0.0078125"/>
  <rect x="10" y="9" width="1" height="1" fill="rgb(0,0,0)" fill-opacity="0.1171875"/>
  <rect x="10" y="10" width="1" height="1" fill="rgb(157,123,58)" fill-opacity="0.625"/>
  <rect x="10" y="11" width="1" height="1" fill="rgb(254,201,93)" fill-opacity="0.9921875"/>
  <rect x="10" y="12" width="1" height="1" fill="rgb(131,102,48)" fill-opacity="0.671875"/>
  <rect x="10" y="13" width="1" height="1" fill="rgb(0,0,0)" fill-opacity="0.296875"/>
  <rect x="10" y="14" width="1" height="1" fill="rgb(0,0,0)" fill-opacity="0.1171875"/>
  <rect x="10" y="15" width="1" height="6" fill="rgb(255,255,255)" fill-opacity="0.0078125"/>
  <rect x="11" y="0" width="1" height="8" fill="rgb(255,255,255)" fill-opacity="0.0078125"/>
  <rect x="11" y="8" width="1" height="1" fill="rgb(0,0,0)" fill-opacity="0.1171875"/>
  <rect x="11" y="9" width="1" height="1" fill="rgb(157,123,58)" fill-opacity="0.625"/>
  <rect x="11" y="10" width="1" height="1" fill="rgb(254,201,93)" fill-opacity="0.9921875"/>
  <rect x="11" y="11" width="1" height="1" fill="rgb(131,102,48)" fill-opacity="0.671875"/>
  <rect x="11" y="12" width="1" height="1" fill="rgb(0,0,0)" fill-opacity="0.296875"/>
  <rect x="11" y="13" width="1" height="1" fill="rgb(0,0,0)" fill-opacity="0.1171875"/>
  <rect x="11" y="14" width="1" height="7" fill="rgb(255,255,255)" fill-opacity="0.0078125"/>
  <rect x="12" y="0" width="1" height="7" fill="rgb(255,255,255)" fill-opacity="0.0078125"/>
  <rect x="12" y="7" width="1" height="1" fill="rgb(0,0,0)" fill-opacity="0.1171875"/>
  <rect x="12" y="8" width="1" height="1" fill="rgb(157,123,58)" fill-opacity="0.625"/>
  <rect x="12" y="9" width="1" height="1" fill="rgb(254,201,93)" fill-opacity="0.9921875"/>
  <rect x="12" y="10" width="1" height="1" fill="rgb(131,102,48)" fill-opacity="0.671875"/>
  <rect x="12" y="11" width="1" height="1" fill="rgb(0,0,0)" fill-opacity="0.296875"/>
  <rect x="12" y="12" width="1" height="1" fill="rgb(25,25,25)" fill-opacity="0.3984375"/>
  <rect x="12" y="13" width="1" height="1" fill="rgb(36,36,36)" fill-opacity="0.3671875"/>
  <rect x="12" y="14" width="1" height="2" fill="rgb(38,38,38)" fill-opacity="0.3671875"/>
  <rect x="12" y="16" width="1" height="1" fill="rgb(41,41,41)" fill-opacity="0.3671875"/>
  <rect x="12" y="17" width="1" height="1" fill="rgb(41,41,41)" fill-opacity="0.3203125"/>
  <rect x="12" y="18" width="1" height="3" fill="rgb(255,255,255)" fill-opacity="0.0078125"/>
  <rect x="13" y="0" width="1" height="6" fill="rgb(255,255,255)" fill-opacity="0.0078125"/>
  <rect x="13" y="6" width="1" height="1" fill="rgb(0,0,0)" fill-opacity="0.1171875"/>
  <rect x="13" y="7" width="1" height="1" fill="rgb(157,123,58)" fill-opacity="0.625"/>
  <rect x="13" y="8" width="1" height="1" fill="rgb(254,201,93)" fill-opacity="0.9921875"/>
  <rect x="13" y="9" width="1" height="1" fill="rgb(131,102,48)" fill-opacity="0.671875"/>
  <rect x="13" y="10" width="1" height="1" fill="rgb(0,0,0)" fill-opacity="0.296875"/>
  <rect x="13" y="11" width="1" height="1" fill="rgb(0,0,0)" fill-opacity="0.1171875"/>
  <rect x="13" y="12" width="1" height="1" fill="rgb(36,36,36)" fill-opacity="0.3671875"/>
  <rect x="13" y="13" width="1" height="1" fill="rgb(220,220,220)" fill-opacity="0.40625"/>
  <rect x="13" y="14" width="1" height="1" fill="rgb(233,233,233)" fill-opacity="0.40625"/>
  <rect x="13" y="15" width="1" height="1" fill="rgb(235,235,235)" fill-opacity="0.40625"/>
  <rect x="13" y="16" width="1" height="1" fill="rgb(233,233,233)" fill-opacity="0.40625"/>
  <rect x="13" y="17" width="1" height="1" fill="rgb(44,44,44)" fill-opacity="0.3671875"/>
  <rect x="13" y="18" width="1" height="3" fill="rgb(255,255,255)" fill-opacity="0.0078125"/>
  <rect x="14" y="0" width="1" height="5" fill="rgb(255,255,255)" fill-opacity="0.0078125"/>
  <rect x="14" y="5" width="1" height="1" fill="rgb(0,0,0)" fill-opacity="0.1171875"/>
  <rect x="14" y="6" width="1" height="1" fill="rgb(157,123,58)" fill-opacity="0.625"/>
  <rect x="14" y="7" width="1" height="1" fill="rgb(254,201,93)" fill-opacity="0.9921875"/>
  <rect x="14" y="8" width="1" height="1" fill="rgb(131,102,48)" fill-opacity="0.671875"/>
  <rect x="14" y="9" width="1" height="1" fill="rgb(0,0,0)" fill-opacity="0.296875"/>
  <rect x="14" y="10" width="1" height="1" fill="rgb(0,0,0)" fill-opacity="0.1171875"/>
  <rect x="14" y="11" width="1" height="1" fill="rgb(255,255,255)" fill-opacity="0.0078125"/>
  <rect x="14" y="12" width="1" height="1" fill="rgb(38,38,38)" fill-opacity="0.3671875"/>
  <rect x="14" y="13" width="1" height="1" fill="rgb(235,235,235)" fill-opacity="0.40625"/>
  <rect x="14" y="14" width="1" height="1" fill="rgb(173,173,173)" fill-opacity="0.40625"/>
  <rect x="14" y="15" width="1" height="1" fill="rgb(185,185,185)" fill-opacity="0.40625"/>
  <rect x="14" y="16" width="1" height="1" fill="rgb(200,200,200)" fill-opacity="0.40625"/>
  <rect x="14" y="17" width="1" height="1" fill="rgb(44,44,44)" fill-opacity="0.3671875"/>
  <rect x="14" y="18" width="1" height="3" fill="rgb(255,255,255)" fill-opacity="0.0078125"/>
  <rect x="15" y="0" width="1" height="4" fill="rgb(255,255,255)" fill-opacity="0.0078125"/>
  <rect x="15" y="4" width="1" height="1" fill="rgb(0,0,0)" fill-opacity="0.109375"/>
  <rect x="15" y="5" width="1" height="1" fill="rgb(157,123,58)" fill-opacity="0.625"/>
  <rect x="15" y="6" width="1" height="1" fill="rgb(254,201,93)" fill-opacity="0.9921875"/>
  <rect x="15" y="7" width="1" height="1" fill="rgb(131,102,48)" fill-opacity="0.671875"/>
  <rect x="15" y="8" width="1" height="1" fill="rgb(0,0,0)" fill-opacity="0.296875"/>
  <rect x="15" y="9" width="1" height="1" fill="rgb(0,0,0)" fill-opacity="0.1171875"/>
  <rect x="15" y="10" width="1" height="2" fill="rgb(255,255,255)" fill-opacity="0.0078125"/>
  <rect x="15" y="12" width="1" height="1" fill="rgb(38,38,38)" fill-opacity="0.3671875"/>
  <rect x="15" y="13" width="1" height="1" fill="rgb(238,238,238)" fill-opacity="0.40625"/>
  <rect x="15" y="14" width="1" height="1" fill="rgb(183,183,183)" fill-opacity="0.40625"/>
  <rect x="15" y="15" width="1" height="1" fill="rgb(198,198,198)" fill-opacity="0.40625"/>
  <rect x="15" y="16" width="1" height="1" fill="rgb(210,210,210)" fill-opacity="0.40625"/>
  <rect x="15" y="17" width="1" height="1" fill="rgb(47,47,47)" fill-opacity="0.3671875"/>
  <rect x="15" y="18" width="1" height="3" fill="rgb(255,255,255)" fill-opacity="0.0078125"/>
  <rect x="16" y="0" width="1" height="4" fill="rgb(255,255,255)" fill-opacity="0.0078125"/>
  <rect x="16" y="4" width="1" height="1" fill="rgb(15,12,4)" fill-opacity="0.265625"/>
  <rect x="16" y="5" width="1" height="1" fill="rgb(250,197,91)" fill-opacity="0.96875"/>
  <rect x="16" y="6" width="1" height="1" fill="rgb(131,102,48)" fill-opacity="0.671875"/>
  <rect x="16" y="7" width="1" height="1" fill="rgb(0,0,0)" fill-opacity="0.296875"/>
  <rect x="16" y="8" width="1" height="1" fill="rgb(0,0,0)" fill-opacity="0.1171875"/>
  <rect x="16" y="9" width="1" height="3" fill="rgb(255,255,255)" fill-opacity="0.0078125"/>
  <rect x="16" y="12" width="1" height="1" fill="rgb(41,41,41)" fill-opacity="0.3671875"/>
  <rect x="16" y="13" width="1" height="1" fill="rgb(230,230,230)" fill-opacity="0.40625"/>
  <rect x="16" y="14" width="1" height="1" fill="rgb(195,195,195)" fill-opacity="0.40625"/>
  <rect x="16" y="15" width="1" height="1" fill="rgb(210,210,210)" fill-opacity="0.40625"/>
  <rect x="16" y="16" width="1" height="1" fill="rgb(223,223,223)" fill-opacity="0.40625"/>
  <rect x="16" y="17" width="1" height="1" fill="rgb(47,47,47)" fill-opacity="0.3671875"/>
  <rect x="16" y="18" width="1" height="3" fill="rgb(255,255,255)" fill-opacity="0.0078125"/>
  <rect x="17" y="0" width="1" height="4" fill="rgb(255,255,255)" fill-opacity="0.0078125"/>
  <rect x="17" y="4" width="1" height="1" fill="rgb(0,0,0)" fill-opacity="0.0859375"/>
  <rect x="17" y="5" width="1" height="1" fill="rgb(17,14,7)" fill-opacity="0.296875"/>
  <rect x="17" y="6" width="1" height="1" fill="rgb(0,0,0)" fill-opacity="0.28125"/>
  <rect x="17" y="7" width="1" height="1" fill="rgb(0,0,0)" fill-opacity="0.1171875"/>
  <rect x="17" y="8" width="1" height="4" fill="rgb(255,255,255)" fill-opacity="0.0078125"/>
  <rect x="17" y="12" width="1" height="1" fill="rgb(38,38,38)" fill-opacity="0.3203125"/>
  <rect x="17" y="13" width="1" height="2" fill="rgb(44,44,44)" fill-opacity="0.3671875"/>
  <rect x="17" y="15" width="1" height="2" fill="rgb(47,47,47)" fill-opacity="0.3671875"/>
  <rect x="17" y="17" width="1" height="1" fill="rgb(44,44,44)" fill-opacity="0.3203125"/>
  <rect x="17" y="18" width="1" height="3" fill="rgb(255,255,255)" fill-opacity="0.0078125"/>
  <rect x="18" y="0" width="1" height="6" fill="rgb(255,255,255)" fill-opacity="0.0078125"/>
  <rect x="18" y="6" width="1" height="1" fill="rgb(0,0,0)" fill-opacity="0.03125"/>
  <rect x="18" y="7" width="1" height="14" fill="rgb(255,255,255)" fill-opacity="0.0078125"/>
  <rect x="19" y="0" width="1" height="21" fill="rgb(255,255,255)" fill-opacity="0.0078125"/>
  <rect x="20" y="0" width="1" height="21" fill="rgb(255,255,255)" fill-opacity="0.0078125"/>
</svg>