<svg xmlns="http://www.w3.org/2000/svg" shape-rendering="crispEdges" width="21" height="21" viewBox="0 0 21 21">
  <rect x="0" y="0" width="21" height="1" fill="rgb(255,255,255)" fill-opacity="0.0078125"/>
  <rect x="0" y="1" width="21" height="1" fill="rgb(255,255,255)" fill-opacity="0.0078125"/>
  <rect x="0" y="2" width="21" height="1" fill="rgb(255,255,255)" fill-opacity="0.0078125"/>
  <rect x="0" y="3" width="21" height="1" fill="rgb(255,255,255)" fill-opacity="0.0078125"/>
  <rect x="0" y="4" width="21" height="1" fill="rgb(255,255,255)" fill-opacity="0.0078125"/>
  <rect x="0" y="5" width="7" height="1" fill="rgb(255,255,255)" fill-opacity="0.0078125"/>
  <rect x="7" y="5" width="1" height="1" fill="rgb(0,0,0)" fill-opacity="0.15625"/>
  <rect x="8" y="5" width="1" height="1" fill="rgb(0,0,0)" fill-opacity="0.5546875"/>
  <rect x="9" y="5" width="1" height="1" fill="rgb(0,0,0)" fill-opacity="0.84375"/>
  <rect x="10" y="5" width="1" height="1" fill="rgb(0,0,0)" fill-opacity="0.953125"/>
  <rect x="11" y="5" width="1" height="1" fill="rgb(0,0,0)" fill-opacity="0.8515625"/>
  <rect x="12" y="5" width="1" height="1" fill="rgb(0,0,0)" fill-opacity="0.5625"/>
  <rect x="13" y="5" width="1" height="1" fill="rgb(0,0,0)" fill-opacity="0.1640625"/>
  <rect x="14" y="5" width="7" height="1" fill="rgb(255,255,255)" fill-opacity="0.0078125"/>
  <rect x="0" y="6" width="5" height="1" fill="rgb(255,255,255)" fill-opacity="0.0078125"/>
  <rect x="5" y="6" width="1" height="1" fill="rgb(0,0,0)" fill-opacity="0.0078125"/>
  <rect x="6" y="6" width="1" height="1" fill="rgb(0,0,0)" fill-opacity="0.4453125"/>
  <rect x="7" y="6" width="1" height="1" fill="rgb(2,2,2)" fill-opacity="0.8671875"/>
  <rect x="8" y="6" width="1" height="1" fill="rgb(73,73,73)" fill-opacity="0.6171875"/>
  <rect x="9" y="6" width="1" height="1" fill="rgb(68,68,68)" fill-opacity="0.7578125"/>
  <rect x="10" y="6" width="1" height="1" fill="rgb(245,245,245)" fill-opacity="0.5078125"/>
  <rect x="11" y="6" width="1" height="1" fill="rgb(71,71,71)" fill-opacity="0.75"/>
  <rect x="12" y="6" width="1" height="1" fill="rgb(70,70,70)" fill-opacity="0.609375"/>
  <rect x="13" y="6" width="1" height="1" fill="rgb(3,3,3)" fill-opacity="0.8671875"/>
  <rect x="14" y="6" width="1" height="1" fill="rgb(0,0,0)" fill-opacity="0.46875"/>
  <rect x="15" y="6" width="1" height="1" fill="rgb(0,0,0)" fill-opacity="0.015625"/>
  <rect x="16" y="6" width="5" height="1" fill="rgb(255,255,255)" fill-opacity="0.0078125"/>
  <rect x="0" y="7" width="5" height="1" fill="rgb(255,255,255)" fill-opacity="0.0078125"/>
  <rect x="5" y="7" width="1" height="1" fill="rgb(0,0,0)" fill-opacity="0.4375"/>
  <rect x="6" y="7" width="1" height="1" fill="rgb(15,15,15)" fill-opacity="0.75"/>
  <rect x="7" y="7" width="1" height="1" fill="rgb(224,224,224)" fill-opacity="0.5234375"/>
  <rect x="8" y="7" width="1" height="1" fill="rgb(114,114,114)" fill-opacity="0.6953125"/>
  <rect x="9" y="7" width="1" height="1" fill="rgb(203,203,203)" fill-opacity="0.5625"/>
  <rect x="10" y="7" width="1" height="1" fill="rgb(255,255,255)" fill-opacity="0.5"/>
  <rect x="11" y="7" width="1" height="1" fill="rgb(216,216,216)" fill-opacity="0.546875"/>
  <rect x="12" y="7" width="1" height="1" fill="rgb(106,106,106)" fill-opacity="0.7109375"/>
  <rect x="13" y="7" width="1" height="1" fill="rgb(227,227,227)" fill-opacity="0.5"/>
  <rect x="14" y="7" width="1" height="1" fill="rgb(15,15,15)" fill-opacity="0.7265625"/>
  <rect x="15" y="7" width="1" height="1" fill="rgb(0,0,0)" fill-opacity="0.46875"/>
  <rect x="16" y="7" width="5" height="1" fill="rgb(255,255,255)" fill-opacity="0.0078125"/>
  <rect x="0" y="8" width="4" height="1" fill="rgb(255,255,255)" fill-opacity="0.0078125"/>
  <rect x="4" y="8" width="1" height="1" fill="rgb(0,0,0)" fill-opacity="0.1484375"/>
  <rect x="5" y="8" width="1" height="1" fill="rgb(3,3,3)" fill-opacity="0.875"/>
  <rect x="6" y="8" width="1" height="1" fill="rgb(222,222,222)" fill-opacity="0.515625"/>
  <rect x="7" y="8" width="1" height="1" fill="rgb(255,255,255)" fill-opacity="0.5"/>
  <rect x="8" y="8" width="1" height="1" fill="rgb(87,87,87)" fill-opacity="0.75"/>
  <rect x="9" y="8" width="1" height="1" fill="rgb(253,253,253)" fill-opacity="0.5078125"/>
  <rect x="10" y="8" width="2" height="1" fill="rgb(255,255,255)" fill-opacity="0.5"/>
  <rect x="12" y="8" width="1" height="1" fill="rgb(86,86,86)" fill-opacity="0.75"/>
  <rect x="13" y="8" width="1" height="1" fill="rgb(243,243,243)" fill-opacity="0.5"/>
  <rect x="14" y="8" width="1" height="1" fill="rgb(198,198,198)" fill-opacity="0.515625"/>
  <rect x="15" y="8" width="1" height="1" fill="rgb(1,1,1)" fill-opacity="0.8671875"/>
  <rect x="16" y="8" width="1" height="1" fill="rgb(0,0,0)" fill-opacity="0.1640625"/>
  <rect x="17" y="8" width="4" height="1" fill="rgb(255,255,255)" fill-opacity="0.0078125"/>
  <rect x="0" y="9" width="4" height="1" fill="rgb(255,255,255)" fill-opacity="0.0078125"/>
  <rect x="4" y="9" width="1" height="1" fill="rgb(0,0,0)" fill-opacity="0.53125"/>
  <rect x="5" y="9" width="1" height="1" fill="rgb(78,78,78)" fill-opacity="0.5859375"/>
  <rect x="6" y="9" width="1" height="1" fill="rgb(243,243,243)" fill-opacity="0.515625"/>
  <rect x="7" y="9" width="1" height="1" fill="rgb(239,239,239)" fill-opacity="0.515625"/>
  <rect x="8" y="9" width="1" height="1" fill="rgb(82,82,82)" fill-opacity="0.7578125"/>
  <rect x="9" y="9" width="2" height="1" fill="rgb(241,241,241)" fill-opacity="0.515625"/>
  <rect x="11" y="9" width="1" height="1" fill="rgb(239,239,239)" fill-opacity="0.515625"/>
  <rect x="12" y="9" width="1" height="1" fill="rgb(77,77,77)" fill-opacity="0.7578125"/>
  <rect x="13" y="9" width="1" height="1" fill="rgb(208,208,208)" fill-opacity="0.515625"/>
  <rect x="14" y="9" width="1" height="1" fill="rgb(190,190,190)" fill-opacity="0.515625"/>
  <rect x="15" y="9" width="1" height="1" fill="rgb(58,58,58)" fill-opacity="0.5546875"/>
  <rect x="16" y="9" width="1" height="1" fill="rgb(0,0,0)" fill-opacity="0.5625"/>
  <rect x="17" y="9" width="4" height="1" fill="rgb(255,255,255)" fill-opacity="0.0078125"/>
  <rect x="0" y="10" width="4" height="1" fill="rgb(255,255,255)" fill-opacity="0.0078125"/>
  <rect x="4" y="10" width="1" height="1" fill="rgb(0,0,0)" fill-opacity="0.765625"/>
  <rect x="5" y="10" width="1" height="1" fill="rgb(120,120,120)" fill-opacity="0.640625"/>
  <rect x="6" y="10" width="1" height="1" fill="rgb(184,184,184)" fill-opacity="0.5859375"/>
  <rect x="7" y="10" width="1" height="1" fill="rgb(203,203,203)" fill-opacity="0.5625"/>
  <rect x="8" y="10" width="1" height="1" fill="rgb(77,77,77)" fill-opacity="0.7734375"/>
  <rect x="9" y="10" width="1" height="1" fill="rgb(232,232,232)" fill-opacity="0.5234375"/>
  <rect x="10" y="10" width="1" height="1" fill="rgb(238,238,238)" fill-opacity="0.5234375"/>
  <rect x="11" y="10" width="1" height="1" fill="rgb(219,219,219)" fill-opacity="0.5234375"/>
  <rect x="12" y="10" width="1" height="1" fill="rgb(67,67,67)" fill-opacity="0.765625"/>
  <rect x="13" y="10" width="1" height="1" fill="rgb(160,160,160)" fill-opacity="0.5546875"/>
  <rect x="14" y="10" width="1" height="1" fill="rgb(131,131,131)" fill-opacity="0.578125"/>
  <rect x="15" y="10" width="1" height="1" fill="rgb(76,76,76)" fill-opacity="0.59375"/>
  <rect x="16" y="10" width="1" height="1" fill="rgb(0,0,0)" fill-opacity="0.796875"/>
  <rect x="17" y="10" width="4" height="1" fill="rgb(255,255,255)" fill-opacity="0.0078125"/>
  <rect x="0" y="11" width="4" height="1" fill="rgb(255,255,255)" fill-opacity="0.0078125"/>
  <rect x="4" y="11" width="1" height="1" fill="rgb(0,0,0)" fill-opacity="0.9375"/>
  <rect x="5" y="11" width="1" height="1" fill="rgb(199,199,199)" fill-opacity="0.5546875"/>
  <rect x="6" y="11" width="2" height="1" fill="rgb(255,255,255)" fill-opacity="0.5"/>
  <rect x="8" y="11" width="1" height="1" fill="rgb(85,85,85)" fill-opacity="0.75"/>
  <rect x="9" y="11" width="1" height="1" fill="rgb(255,255,255)" fill-opacity="0.5"/>
  <rect x="10" y="11" width="1" height="1" fill="rgb(239,239,239)" fill-opacity="0.5"/>
  <rect x="11" y="11" width="1" height="1" fill="rgb(217,217,217)" fill-opacity="0.5"/>
  <rect x="12" y="11" width="1" height="1" fill="rgb(65,65,65)" fill-opacity="0.75"/>
  <rect x="13" y="11" width="1" height="1" fill="rgb(175,175,175)" fill-opacity="0.5"/>
  <rect x="14" y="11" width="1" height="1" fill="rgb(155,155,155)" fill-opacity="0.5"/>
  <rect x="15" y="11" width="1" height="1" fill="rgb(111,111,111)" fill-opacity="0.5078125"/>
  <rect x="16" y="11" width="1" height="1" fill="rgb(0,0,0)" fill-opacity="0.953125"/>
  <rect x="17" y="11" width="4" height="1" fill="rgb(255,255,255)" fill-opacity="0.0078125"/>
  <rect x="0" y="12" width="4" height="1" fill="rgb(255,255,255)" fill-opacity="0.0078125"/>
  <rect x="4" y="12" width="1" height="1" fill="rgb(0,0,0)" fill-opacity="0.7890625"/>
  <rect x="5" y="12" width="1" height="1" fill="rgb(53,53,53)" fill-opacity="0.796875"/>
  <rect x="6" y="12" width="1" height="1" fill="rgb(179,179,179)" fill-opacity="0.59375"/>
  <rect x="7" y="12" width="1" height="1" fill="rgb(249,249,249)" fill-opacity="0.5078125"/>
  <rect x="8" y="12" width="1" height="1" fill="rgb(85,85,85)" fill-opacity="0.75"/>
  <rect x="9" y="12" width="1" height="1" fill="rgb(237,237,237)" fill-opacity="0.5"/>
  <rect x="10" y="12" width="1" height="1" fill="rgb(217,217,217)" fill-opacity="0.5"/>
  <rect x="11" y="12" width="1" height="1" fill="rgb(195,195,195)" fill-opacity="0.5"/>
  <rect x="12" y="12" width="1" height="1" fill="rgb(59,59,59)" fill-opacity="0.75"/>
  <rect x="13" y="12" width="1" height="1" fill="rgb(148,148,148)" fill-opacity="0.5078125"/>
  <rect x="14" y="12" width="1" height="1" fill="rgb(95,95,95)" fill-opacity="0.5859375"/>
  <rect x="15" y="12" width="1" height="1" fill="rgb(22,22,22)" fill-opacity="0.78125"/>
  <rect x="16" y="12" width="1" height="1" fill="rgb(0,0,0)" fill-opacity="0.8203125"/>
  <rect x="17" y="12" width="4" height="1" fill="rgb(255,255,255)" fill-opacity="0.0078125"/>
  <rect x="0" y="13" width="4" height="1" fill="rgb(255,255,255)" fill-opacity="0.0078125"/>
  <rect x="4" y="13" width="1" height="1" fill="rgb(0,0,0)" fill-opacity="0.5234375"/>
  <rect x="5" y="13" width="1" height="1" fill="rgb(70,70,70)" fill-opacity="0.6015625"/>
  <rect x="6" y="13" width="1" height="1" fill="rgb(126,126,126)" fill-opacity="0.671875"/>
  <rect x="7" y="13" width="1" height="1" fill="rgb(90,90,90)" fill-opacity="0.7421875"/>
  <rect x="8" y="13" width="1" height="1" fill="rgb(34,34,34)" fill-opacity="0.875"/>
  <rect x="9" y="13" width="1" height="1" fill="rgb(72,72,72)" fill-opacity="0.75"/>
  <rect x="10" y="13" width="1" height="1" fill="rgb(65,65,65)" fill-opacity="0.75"/>
  <rect x="11" y="13" width="1" height="1" fill="rgb(57,57,57)" fill-opacity="0.75"/>
  <rect x="12" y="13" width="1" height="1" fill="rgb(22,22,22)" fill-opacity="0.875"/>
  <rect x="13" y="13" width="1" height="1" fill="rgb(46,46,46)" fill-opacity="0.7421875"/>
  <rect x="14" y="13" width="1" height="1" fill="rgb(52,52,52)" fill-opacity="0.6796875"/>
  <rect x="15" y="13" width="1" height="1" fill="rgb(23,23,23)" fill-opacity="0.5703125"/>
  <rect x="16" y="13" width="1" height="1" fill="rgb(0,0,0)" fill-opacity="0.5546875"/>
  <rect x="17" y="13" width="4" height="1" fill="rgb(255,255,255)" fill-opacity="0.0078125"/>
  <rect x="0" y="14" width="4" height="1" fill="rgb(255,255,255)" fill-opacity="0.0078125"/>
  <rect x="4" y="14" width="1" height="1" fill="rgb(0,0,0)" fill-opacity="0.1328125"/>
  <rect x="5" y="14" width="1" height="1" fill="rgb(2,2,2)" fill-opacity="0.875"/>
  <rect x="6" y="14" width="1" height="1" fill="rgb(216,216,216)" fill-opacity="0.5234375"/>
  <rect x="7" y="14" width="1" height="1" fill="rgb(235,235,235)" fill-opacity="0.5"/>
  <rect x="8" y="14" width="1" height="1" fill="rgb(72,72,72)" fill-opacity="0.75"/>
  <rect x="9" y="14" width="1" height="1" fill="rgb(191,191,191)" fill-opacity="0.5078125"/>
  <rect x="10" y="14" width="1" height="1" fill="rgb(171,171,171)" fill-opacity="0.5"/>
  <rect x="11" y="14" width="1" height="1" fill="rgb(151,151,151)" fill-opacity="0.5"/>
  <rect x="12" y="14" width="1" height="1" fill="rgb(43,43,43)" fill-opacity="0.75"/>
  <rect x="13" y="14" width="1" height="1" fill="rgb(108,108,108)" fill-opacity="0.5"/>
  <rect x="14" y="14" width="1" height="1" fill="rgb(76,76,76)" fill-opacity="0.4921875"/>
  <rect x="15" y="14" width="1" height="1" fill="rgb(0,0,0)" fill-opacity="0.8671875"/>
  <rect x="16" y="14" width="1" height="1" fill="rgb(0,0,0)" fill-opacity="0.15625"/>
  <rect x="17" y="14" width="4" height="1" fill="rgb(255,255,255)" fill-opacity="0.0078125"/>
  <rect x="0" y="15" width="5" height="1" fill="rgb(255,255,255)" fill-opacity="0.0078125"/>
  <rect x="5" y="15" width="1" height="1" fill="rgb(0,0,0)" fill-opacity="0.4140625"/>
  <rect x="6" y="15" width="1" height="1" fill="rgb(9,9,9)" fill-opacity="0.7578125"/>
  <rect x="7" y="15" width="1" height="1" fill="rgb(178,178,178)" fill-opacity="0.5078125"/>
  <rect x="8" y="15" width="1" height="1" fill="rgb(86,86,86)" fill-opacity="0.6875"/>
  <rect x="9" y="15" width="1" height="1" fill="rgb(134,134,134)" fill-opacity="0.5625"/>
  <rect x="10" y="15" width="1" height="1" fill="rgb(149,149,149)" fill-opacity="0.5"/>
  <rect x="11" y="15" width="1" height="1" fill="rgb(106,106,106)" fill-opacity="0.546875"/>
  <rect x="12" y="15" width="1" height="1" fill="rgb(46,46,46)" fill-opacity="0.703125"/>
  <rect x="13" y="15" width="1" height="1" fill="rgb(74,74,74)" fill-opacity="0.5"/>
  <rect x="14" y="15" width="1" height="1" fill="rgb(3,3,3)" fill-opacity="0.734375"/>
  <rect x="15" y="15" width="1" height="1" fill="rgb(0,0,0)" fill-opacity="0.4453125"/>
  <rect x="16" y="15" width="5" height="1" fill="rgb(255,255,255)" fill-opacity="0.0078125"/>
  <rect x="0" y="16" width="6" height="1" fill="rgb(255,255,255)" fill-opacity="0.0078125"/>
  <rect x="6" y="16" width="1" height="1" fill="rgb(0,0,0)" fill-opacity="0.4140625"/>
  <rect x="7" y="16" width="1" height="1" fill="rgb(2,2,2)" fill-opacity="0.875"/>
  <rect x="8" y="16" width="1" height="1" fill="rgb(38,38,38)" fill-opacity="0.609375"/>
  <rect x="9" y="16" width="1" height="1" fill="rgb(35,35,35)" fill-opacity="0.75"/>
  <rect x="10" y="16" width="1" height="1" fill="rgb(114,114,114)" fill-opacity="0.46875"/>
  <rect x="11" y="16" width="1" height="1" fill="rgb(24,24,24)" fill-opacity="0.7421875"/>
  <rect x="12" y="16" width="1" height="1" fill="rgb(20,20,20)" fill-opacity="0.6015625"/>
  <rect x="13" y="16" width="1" height="1" fill="rgb(0,0,0)" fill-opacity="0.8671875"/>
  <rect x="14" y="16" width="1" height="1" fill="rgb(0,0,0)" fill-opacity="0.4375"/>
  <rect x="15" y="16" width="1" height="1" fill="rgb(0,0,0)" fill-opacity="0.0078125"/>
  <rect x="16" y="16" width="5" height="1" fill="rgb(255,255,255)" fill-opacity="0.0078125"/>
  <rect x="0" y="17" width="7" height="1" fill="rgb(255,255,255)" fill-opacity="0.0078125"/>
  <rect x="7" y="17" width="1" height="1" fill="rgb(0,0,0)" fill-opacity="0.1328125"/>
  <rect x="8" y="17" width="1" height="1" fill="rgb(0,0,0)" fill-opacity="0.5234375"/>
  <rect x="9" y="17" width="1" height="1" fill="rgb(0,0,0)" fill-opacity="0.8125"/>
  <rect x="10" y="17" width="1" height="1" fill="rgb(0,0,0)" fill-opacity="0.9453125"/>
  <rect x="11" y="17" width="1" height="1" fill="rgb(0,0,0)" fill-opacity="0.828125"/>
  <rect x="12" y="17" width="1" height="1" fill="rgb(0,0,0)" fill-opacity="0.53125"/>
  <rect x="13" y="17" width="1" height="1" fill="rgb(0,0,0)" fill-opacity="0.1484375"/>
  <rect x="14" y="17" width="7" height="1" fill="rgb(255,255,255)" fill-opacity="0.0078125"/>
  <rect x="0" y="18" width="21" height="1" fill="rgb(255,255,255)" fill-opacity="0.0078125"/>
  <rect x="0" y="19" width="21" height="1" fill="rgb(255,255,255)" fill-opacity="0.0078125"/>
  <rect x="0" y="20" width="21" height="1" fill="rgb(255,255,255)" fill-opacity="0.0078125"/>
</svg>