<svg xmlns="http://www.w3.org/2000/svg" shape-rendering="crispEdges" width="21" height="21" viewBox="0 0 21 21">
  <rect x="0" y="0" width="21" height="1" fill="rgb(255,255,255)" fill-opacity="0.0078125"/>
  <rect x="0" y="1" width="21" height="1" fill="rgb(255,255,255)" fill-opacity="0.0078125"/>
  <rect x="0" y="2" width="6" height="1" fill="rgb(255,255,255)" fill-opacity="0.0078125"/>
  <rect x="6" y="2" width="1" height="1" fill="rgb(0,0,0)" fill-opacity="0.0078125"/>
  <rect x="7" y="2" width="1" height="1" fill="rgb(0,0,0)" fill-opacity="0.015625"/>
  <rect x="8" y="2" width="1" height="1" fill="rgb(0,0,0)" fill-opacity="0.0078125"/>
  <rect x="9" y="2" width="12" height="1" fill="rgb(255,255,255)" fill-opacity="0.0078125"/>
  <rect x="0" y="3" width="5" height="1" fill="rgb(255,255,255)" fill-opacity="0.0078125"/>
  <rect x="5" y="3" width="1" height="1" fill="rgb(23,23,23)" fill-opacity="0.6171875"/>
  <rect x="6" y="3" width="1" height="1" fill="rgb(45,45,45)" fill-opacity="0.9921875"/>
  <rect x="7" y="3" width="1" height="1" fill="rgb(25,25,25)" fill-opacity="0.984375"/>
  <rect x="8" y="3" width="1" height="1" fill="rgb(27,27,27)" fill-opacity="0.984375"/>
  <rect x="9" y="3" width="1" height="1" fill="rgb(29,29,29)" fill-opacity="0.984375"/>
  <rect x="10" y="3" width="1" height="1" fill="rgb(30,30,30)" fill-opacity="0.984375"/>
  <rect x="11" y="3" width="1" height="1" fill="rgb(33,33,33)" fill-opacity="0.984375"/>
  <rect x="12" y="3" width="1" height="1" fill="rgb(36,36,36)" fill-opacity="0.9453125"/>
  <rect x="13" y="3" width="8" height="1" fill="rgb(255,255,255)" fill-opacity="0.0078125"/>
  <rect x="0" y="4" width="4" height="1" fill="rgb(255,255,255)" fill-opacity="0.0078125"/>
  <rect x="4" y="4" width="1" height="1" fill="rgb(24,24,24)" fill-opacity="0.6328125"/>
  <rect x="5" y="4" width="1" height="1" fill="rgb(78,78,78)" fill-opacity="0.984375"/>
  <rect x="6" y="4" width="1" height="1" fill="rgb(255,255,255)"/>
  <rect x="7" y="4" width="1" height="1" fill="rgb(175,175,175)"/>
  <rect x="8" y="4" width="1" height="1" fill="rgb(229,229,229)"/>
  <rect x="9" y="4" width="1" height="1" fill="rgb(230,230,230)"/>
  <rect x="10" y="4" width="1" height="1" fill="rgb(227,227,227)"/>
  <rect x="11" y="4" width="1" height="1" fill="rgb(224,224,224)"/>
  <rect x="12" y="4" width="1" height="1" fill="rgb(36,36,36)" fill-opacity="0.984375"/>
  <rect x="13" y="4" width="8" height="1" fill="rgb(255,255,255)" fill-opacity="0.0078125"/>
  <rect x="0" y="5" width="3" height="1" fill="rgb(255,255,255)" fill-opacity="0.0078125"/>
  <rect x="3" y="5" width="1" height="1" fill="rgb(23,23,23)" fill-opacity="0.6171875"/>
  <rect x="4" y="5" width="1" height="1" fill="rgb(78,78,78)" fill-opacity="0.984375"/>
  <rect x="5" y="5" width="2" height="1" fill="rgb(255,255,255)"/>
  <rect x="7" y="5" width="1" height="1" fill="rgb(92,11,0)"/>
  <rect x="8" y="5" width="1" height="1" fill="rgb(140,16,0)"/>
  <rect x="9" y="5" width="1" height="1" fill="rgb(249,249,249)"/>
  <rect x="10" y="5" width="1" height="1" fill="rgb(255,255,255)"/>
  <rect x="11" y="5" width="1" height="1" fill="rgb(219,219,219)"/>
  <rect x="12" y="5" width="1" height="1" fill="rgb(39,39,39)" fill-opacity="0.984375"/>
  <rect x="13" y="5" width="8" height="1" fill="rgb(255,255,255)" fill-opacity="0.0078125"/>
  <rect x="0" y="6" width="2" height="1" fill="rgb(255,255,255)" fill-opacity="0.0078125"/>
  <rect x="2" y="6" width="1" height="1" fill="rgb(0,0,0)" fill-opacity="0.0078125"/>
  <rect x="3" y="6" width="1" height="1" fill="rgb(45,45,45)" fill-opacity="0.9921875"/>
  <rect x="4" y="6" width="3" height="1" fill="rgb(255,255,255)"/>
  <rect x="7" y="6" width="1" height="1" fill="rgb(85,10,0)"/>
  <rect x="8" y="6" width="1" height="1" fill="rgb(140,16,0)"/>
  <rect x="9" y="6" width="1" height="1" fill="rgb(249,249,249)"/>
  <rect x="10" y="6" width="1" height="1" fill="rgb(255,255,255)"/>
  <rect x="11" y="6" width="1" height="1" fill="rgb(227,227,227)"/>
  <rect x="12" y="6" width="1" height="1" fill="rgb(41,41,41)" fill-opacity="0.984375"/>
  <rect x="13" y="6" width="8" height="1" fill="rgb(255,255,255)" fill-opacity="0.0078125"/>
  <rect x="0" y="7" width="2" height="1" fill="rgb(255,255,255)" fill-opacity="0.0078125"/>
  <rect x="2" y="7" width="1" height="1" fill="rgb(0,0,0)" fill-opacity="0.015625"/>
  <rect x="3" y="7" width="1" height="1" fill="rgb(26,26,26)" fill-opacity="0.984375"/>
  <rect x="4" y="7" width="1" height="1" fill="rgb(185,185,185)"/>
  <rect x="5" y="7" width="1" height="1" fill="rgb(92,11,0)"/>
  <rect x="6" y="7" width="1" height="1" fill="rgb(85,10,0)"/>
  <rect x="7" y="7" width="1" height="1" fill="rgb(135,135,135)"/>
  <rect x="8" y="7" width="1" height="1" fill="rgb(212,212,212)"/>
  <rect x="9" y="7" width="1" height="1" fill="rgb(177,21,0)"/>
  <rect x="10" y="7" width="1" height="1" fill="rgb(180,21,0)"/>
  <rect x="11" y="7" width="1" height="1" fill="rgb(235,235,235)"/>
  <rect x="12" y="7" width="1" height="1" fill="rgb(48,48,48)"/>
  <rect x="13" y="7" width="1" height="1" fill="rgb(25,25,25)" fill-opacity="0.984375"/>
  <rect x="14" y="7" width="1" height="1" fill="rgb(27,27,27)" fill-opacity="0.984375"/>
  <rect x="15" y="7" width="1" height="1" fill="rgb(28,28,28)" fill-opacity="0.984375"/>
  <rect x="16" y="7" width="1" height="1" fill="rgb(30,30,30)" fill-opacity="0.984375"/>
  <rect x="17" y="7" width="1" height="1" fill="rgb(33,33,33)" fill-opacity="0.984375"/>
  <rect x="18" y="7" width="1" height="1" fill="rgb(36,36,36)" fill-opacity="0.9453125"/>
  <rect x="19" y="7" width="2" height="1" fill="rgb(255,255,255)" fill-opacity="0.0078125"/>
  <rect x="0" y="8" width="2" height="1" fill="rgb(255,255,255)" fill-opacity="0.0078125"/>
  <rect x="2" y="8" width="1" height="1" fill="rgb(0,0,0)" fill-opacity="0.0078125"/>
  <rect x="3" y="8" width="1" height="1" fill="rgb(28,28,28)" fill-opacity="0.984375"/>
  <rect x="4" y="8" width="1" height="1" fill="rgb(244,244,244)"/>
  <rect x="5" y="8" width="2" height="1" fill="rgb(140,16,0)"/>
  <rect x="7" y="8" width="1" height="1" fill="rgb(212,212,212)"/>
  <rect x="8" y="8" width="1" height="1" fill="rgb(241,241,241)"/>
  <rect x="9" y="8" width="1" height="1" fill="rgb(179,21,0)"/>
  <rect x="10" y="8" width="1" height="1" fill="rgb(180,21,0)"/>
  <rect x="11" y="8" width="1" height="1" fill="rgb(244,244,244)"/>
  <rect x="12" y="8" width="1" height="1" fill="rgb(138,138,138)"/>
  <rect x="13" y="8" width="1" height="1" fill="rgb(253,253,253)"/>
  <rect x="14" y="8" width="2" height="1" fill="rgb(255,255,255)"/>
  <rect x="16" y="8" width="1" height="1" fill="rgb(254,254,254)"/>
  <rect x="17" y="8" width="1" height="1" fill="rgb(244,244,244)"/>
  <rect x="18" y="8" width="1" height="1" fill="rgb(36,36,36)" fill-opacity="0.984375"/>
  <rect x="19" y="8" width="2" height="1" fill="rgb(255,255,255)" fill-opacity="0.0078125"/>
  <rect x="0" y="9" width="3" height="1" fill="rgb(255,255,255)" fill-opacity="0.0078125"/>
  <rect x="3" y="9" width="1" height="1" fill="rgb(30,30,30)" fill-opacity="0.984375"/>
  <rect x="4" y="9" width="1" height="1" fill="rgb(243,243,243)"/>
  <rect x="5" y="9" width="2" height="1" fill="rgb(250,250,250)"/>
  <rect x="7" y="9" width="1" height="1" fill="rgb(177,21,0)"/>
  <rect x="8" y="9" width="1" height="1" fill="rgb(179,21,0)"/>
  <rect x="9" y="9" width="2" height="1" fill="rgb(255,255,255)"/>
  <rect x="11" y="9" width="1" height="1" fill="rgb(252,252,252)"/>
  <rect x="12" y="9" width="1" height="1" fill="rgb(135,135,135)"/>
  <rect x="13" y="9" width="1" height="1" fill="rgb(169,169,169)"/>
  <rect x="14" y="9" width="1" height="1" fill="rgb(182,182,182)"/>
  <rect x="15" y="9" width="1" height="1" fill="rgb(196,196,196)"/>
  <rect x="16" y="9" width="1" height="1" fill="rgb(209,209,209)"/>
  <rect x="17" y="9" width="1" height="1" fill="rgb(223,223,223)"/>
  <rect x="18" y="9" width="1" height="1" fill="rgb(38,38,38)" fill-opacity="0.984375"/>
  <rect x="19" y="9" width="2" height="1" fill="rgb(255,255,255)" fill-opacity="0.0078125"/>
  <rect x="0" y="10" width="3" height="1" fill="rgb(255,255,255)" fill-opacity="0.0078125"/>
  <rect x="3" y="10" width="1" height="1" fill="rgb(33,33,33)" fill-opacity="0.984375"/>
  <rect x="4" y="10" width="1" height="1" fill="rgb(241,241,241)"/>
  <rect x="5" y="10" width="2" height="1" fill="rgb(255,255,255)"/>
  <rect x="7" y="10" width="2" height="1" fill="rgb(180,21,0)"/>
  <rect x="9" y="10" width="3" height="1" fill="rgb(255,255,255)"/>
  <rect x="12" y="10" width="5" height="1" fill="rgb(77,77,77)"/>
  <rect x="17" y="10" width="1" height="1" fill="rgb(233,233,233)"/>
  <rect x="18" y="10" width="1" height="1" fill="rgb(40,40,40)" fill-opacity="0.984375"/>
  <rect x="19" y="10" width="2" height="1" fill="rgb(255,255,255)" fill-opacity="0.0078125"/>
  <rect x="0" y="11" width="3" height="1" fill="rgb(255,255,255)" fill-opacity="0.0078125"/>
  <rect x="3" y="11" width="1" height="1" fill="rgb(35,35,35)" fill-opacity="0.984375"/>
  <rect x="4" y="11" width="1" height="1" fill="rgb(239,239,239)"/>
  <rect x="5" y="11" width="2" height="1" fill="rgb(180,21,0)"/>
  <rect x="7" y="11" width="2" height="1" fill="rgb(255,255,255)"/>
  <rect x="9" y="11" width="2" height="1" fill="rgb(180,21,0)"/>
  <rect x="11" y="11" width="1" height="1" fill="rgb(255,255,255)"/>
  <rect x="12" y="11" width="1" height="1" fill="rgb(155,155,155)"/>
  <rect x="13" y="11" width="1" height="1" fill="rgb(189,189,189)"/>
  <rect x="14" y="11" width="1" height="1" fill="rgb(203,203,203)"/>
  <rect x="15" y="11" width="1" height="1" fill="rgb(216,216,216)"/>
  <rect x="16" y="11" width="1" height="1" fill="rgb(230,230,230)"/>
  <rect x="17" y="11" width="1" height="1" fill="rgb(243,243,243)"/>
  <rect x="18" y="11" width="1" height="1" fill="rgb(41,41,41)" fill-opacity="0.984375"/>
  <rect x="19" y="11" width="2" height="1" fill="rgb(255,255,255)" fill-opacity="0.0078125"/>
  <rect x="0" y="12" width="3" height="1" fill="rgb(255,255,255)" fill-opacity="0.0078125"/>
  <rect x="3" y="12" width="1" height="1" fill="rgb(37,37,37)" fill-opacity="0.984375"/>
  <rect x="4" y="12" width="1" height="1" fill="rgb(241,241,241)"/>
  <rect x="5" y="12" width="2" height="1" fill="rgb(180,21,0)"/>
  <rect x="7" y="12" width="2" height="1" fill="rgb(255,255,255)"/>
  <rect x="9" y="12" width="2" height="1" fill="rgb(180,21,0)"/>
  <rect x="11" y="12" width="1" height="1" fill="rgb(255,255,255)"/>
  <rect x="12" y="12" width="5" height="1" fill="rgb(77,77,77)"/>
  <rect x="17" y="12" width="1" height="1" fill="rgb(253,253,253)"/>
  <rect x="18" y="12" width="1" height="1" fill="rgb(43,43,43)" fill-opacity="0.984375"/>
  <rect x="19" y="12" width="2" height="1" fill="rgb(255,255,255)" fill-opacity="0.0078125"/>
  <rect x="0" y="13" width="3" height="1" fill="rgb(255,255,255)" fill-opacity="0.0078125"/>
  <rect x="3" y="13" width="1" height="1" fill="rgb(39,39,39)" fill-opacity="0.984375"/>
  <rect x="4" y="13" width="1" height="1" fill="rgb(243,243,243)"/>
  <rect x="5" y="13" width="1" height="1" fill="rgb(242,242,242)"/>
  <rect x="6" y="13" width="1" height="1" fill="rgb(249,249,249)"/>
  <rect x="7" y="13" width="5" height="1" fill="rgb(255,255,255)"/>
  <rect x="12" y="13" width="1" height="1" fill="rgb(175,175,175)"/>
  <rect x="13" y="13" width="1" height="1" fill="rgb(209,209,209)"/>
  <rect x="14" y="13" width="1" height="1" fill="rgb(223,223,223)"/>
  <rect x="15" y="13" width="1" height="1" fill="rgb(236,236,236)"/>
  <rect x="16" y="13" width="1" height="1" fill="rgb(250,250,250)"/>
  <rect x="17" y="13" width="1" height="1" fill="rgb(255,255,255)"/>
  <rect x="18" y="13" width="1" height="1" fill="rgb(44,44,44)" fill-opacity="0.984375"/>
  <rect x="19" y="13" width="2" height="1" fill="rgb(255,255,255)" fill-opacity="0.0078125"/>
  <rect x="0" y="14" width="3" height="1" fill="rgb(255,255,255)" fill-opacity="0.0078125"/>
  <rect x="3" y="14" width="1" height="1" fill="rgb(44,44,44)" fill-opacity="0.9453125"/>
  <rect x="4" y="14" width="1" height="1" fill="rgb(42,42,42)" fill-opacity="0.984375"/>
  <rect x="5" y="14" width="1" height="1" fill="rgb(43,43,43)" fill-opacity="0.984375"/>
  <rect x="6" y="14" width="1" height="1" fill="rgb(44,44,44)" fill-opacity="0.984375"/>
  <rect x="7" y="14" width="1" height="1" fill="rgb(46,46,46)" fill-opacity="0.984375"/>
  <rect x="8" y="14" width="1" height="1" fill="rgb(47,47,47)" fill-opacity="0.984375"/>
  <rect x="9" y="14" width="1" height="1" fill="rgb(59,59,59)"/>
  <rect x="10" y="14" width="1" height="1" fill="rgb(177,177,177)"/>
  <rect x="11" y="14" width="6" height="1" fill="rgb(77,77,77)"/>
  <rect x="17" y="14" width="1" height="1" fill="rgb(255,255,255)"/>
  <rect x="18" y="14" width="1" height="1" fill="rgb(46,46,46)" fill-opacity="0.984375"/>
  <rect x="19" y="14" width="2" height="1" fill="rgb(255,255,255)" fill-opacity="0.0078125"/>
  <rect x="0" y="15" width="9" height="1" fill="rgb(255,255,255)" fill-opacity="0.0078125"/>
  <rect x="9" y="15" width="1" height="1" fill="rgb(35,35,35)" fill-opacity="0.984375"/>
  <rect x="10" y="15" width="1" height="1" fill="rgb(247,247,247)"/>
  <rect x="11" y="15" width="1" height="1" fill="rgb(203,203,203)"/>
  <rect x="12" y="15" width="1" height="1" fill="rgb(216,216,216)"/>
  <rect x="13" y="15" width="1" height="1" fill="rgb(230,230,230)"/>
  <rect x="14" y="15" width="1" height="1" fill="rgb(243,243,243)"/>
  <rect x="15" y="15" width="3" height="1" fill="rgb(255,255,255)"/>
  <rect x="18" y="15" width="1" height="1" fill="rgb(48,48,48)" fill-opacity="0.984375"/>
  <rect x="19" y="15" width="2" height="1" fill="rgb(255,255,255)" fill-opacity="0.0078125"/>
  <rect x="0" y="16" width="9" height="1" fill="rgb(255,255,255)" fill-opacity="0.0078125"/>
  <rect x="9" y="16" width="1" height="1" fill="rgb(38,38,38)" fill-opacity="0.984375"/>
  <rect x="10" y="16" width="1" height="1" fill="rgb(243,243,243)"/>
  <rect x="11" y="16" width="1" height="1" fill="rgb(213,213,213)"/>
  <rect x="12" y="16" width="1" height="1" fill="rgb(226,226,226)"/>
  <rect x="13" y="16" width="1" height="1" fill="rgb(240,240,240)"/>
  <rect x="14" y="16" width="1" height="1" fill="rgb(253,253,253)"/>
  <rect x="15" y="16" width="1" height="1" fill="rgb(255,255,255)"/>
  <rect x="16" y="16" width="1" height="1" fill="rgb(77,77,77)"/>
  <rect x="17" y="16" width="1" height="1" fill="rgb(255,255,255)"/>
  <rect x="18" y="16" width="1" height="1" fill="rgb(49,49,49)" fill-opacity="0.984375"/>
  <rect x="19" y="16" width="2" height="1" fill="rgb(255,255,255)" fill-opacity="0.0078125"/>
  <rect x="0" y="17" width="9" height="1" fill="rgb(255,255,255)" fill-opacity="0.0078125"/>
  <rect x="9" y="17" width="1" height="1" fill="rgb(39,39,39)" fill-opacity="0.984375"/>
  <rect x="10" y="17" width="1" height="1" fill="rgb(236,236,236)"/>
  <rect x="11" y="17" width="1" height="1" fill="rgb(223,223,223)"/>
  <rect x="12" y="17" width="1" height="1" fill="rgb(237,237,237)"/>
  <rect x="13" y="17" width="1" height="1" fill="rgb(250,250,250)"/>
  <rect x="14" y="17" width="4" height="1" fill="rgb(255,255,255)"/>
  <rect x="18" y="17" width="1" height="1" fill="rgb(51,51,51)" fill-opacity="0.984375"/>
  <rect x="19" y="17" width="2" height="1" fill="rgb(255,255,255)" fill-opacity="0.0078125"/>
  <rect x="0" y="18" width="9" height="1" fill="rgb(255,255,255)" fill-opacity="0.0078125"/>
  <rect x="9" y="18" width="1" height="1" fill="rgb(43,43,43)" fill-opacity="0.9453125"/>
  <rect x="10" y="18" width="1" height="1" fill="rgb(41,41,41)" fill-opacity="0.984375"/>
  <rect x="11" y="18" width="1" height="1" fill="rgb(43,43,43)" fill-opacity="0.984375"/>
  <rect x="12" y="18" width="1" height="1" fill="rgb(44,44,44)" fill-opacity="0.984375"/>
  <rect x="13" y="18" width="1" height="1" fill="rgb(46,46,46)" fill-opacity="0.984375"/>
  <rect x="14" y="18" width="1" height="1" fill="rgb(47,47,47)" fill-opacity="0.984375"/>
  <rect x="15" y="18" width="1" height="1" fill="rgb(48,48,48)" fill-opacity="0.984375"/>
  <rect x="16" y="18" width="1" height="1" fill="rgb(50,50,50)" fill-opacity="0.984375"/>
  <rect x="17" y="18" width="1" height="1" fill="rgb(51,51,51)" fill-opacity="0.984375"/>
  <rect x="18" y="18" width="1" height="1" fill="rgb(61,61,61)" fill-opacity="0.9453125"/>
  <rect x="19" y="18" width="2" height="1" fill="rgb(255,255,255)" fill-opacity="0.0078125"/>
  <rect x="0" y="19" width="21" height="1" fill="rgb(255,255,255)" fill-opacity="0.0078125"/>
  <rect x="0" y="20" width="21" height="1" fill="rgb(255,255,255)" fill-opacity="0.0078125"/>
</svg>