<svg xmlns="http://www.w3.org/2000/svg" shape-rendering="crispEdges" width="21" height="21" viewBox="0 0 21 21">
  <rect x="0" y="0" width="1" height="21" fill="rgb(255,255,255)" fill-opacity="0.0078125"/>
  <rect x="1" y="0" width="1" height="21" fill="rgb(255,255,255)" fill-opacity="0.0078125"/>
  <rect x="2" y="0" width="1" height="21" fill="rgb(255,255,255)" fill-opacity="0.0078125"/>
  <rect x="3" y="0" width="1" height="5" fill="rgb(255,255,255)" fill-opacity="0.0078125"/>
  <rect x="3" y="5" width="1" height="1" fill="rgb(128,110,26)" fill-opacity="0.234375"/>
  <rect x="3" y="6" width="1" height="1" fill="rgb(193,182,91)" fill-opacity="0.71875"/>
  <rect x="3" y="7" width="1" height="1" fill="rgb(128,110,26)" fill-opacity="0.234375"/>
  <rect x="3" y="8" width="1" height="4" fill="rgb(255,255,255)" fill-opacity="0.0078125"/>
  <rect x="3" y="12" width="1" height="1" fill="rgb(161,142,47)" fill-opacity="0.109375"/>
  <rect x="3" y="13" width="1" height="1" fill="rgb(202,189,89)" fill-opacity="0.5703125"/>
  <rect x="3" y="14" width="1" height="1" fill="rgb(155,137,46)" fill-opacity="0.1171875"/>
  <rect x="3" y="15" width="1" height="6" fill="rgb(255,255,255)" fill-opacity="0.0078125"/>
  <rect x="4" y="0" width="1" height="5" fill="rgb(255,255,255)" fill-opacity="0.0078125"/>
  <rect x="4" y="5" width="1" height="1" fill="rgb(113,73,25)" fill-opacity="0.71875"/>
  <rect x="4" y="6" width="1" height="1" fill="rgb(201,188,134)" fill-opacity="0.9609375"/>
  <rect x="4" y="7" width="1" height="1" fill="rgb(112,73,25)" fill-opacity="0.71875"/>
  <rect x="4" y="8" width="1" height="4" fill="rgb(255,255,255)" fill-opacity="0.0078125"/>
  <rect x="4" y="12" width="1" height="1" fill="rgb(138,123,45)" fill-opacity="0.5"/>
  <rect x="4" y="13" width="1" height="1" fill="rgb(196,185,107)" fill-opacity="0.8203125"/>
  <rect x="4" y="14" width="1" height="1" fill="rgb(138,123,45)" fill-opacity="0.5"/>
  <rect x="4" y="15" width="1" height="6" fill="rgb(255,255,255)" fill-opacity="0.0078125"/>
  <rect x="5" y="0" width="1" height="3" fill="rgb(255,255,255)" fill-opacity="0.0078125"/>
  <rect x="5" y="3" width="1" height="1" fill="rgb(128,110,26)" fill-opacity="0.234375"/>
  <rect x="5" y="4" width="1" height="1" fill="rgb(112,73,25)" fill-opacity="0.71875"/>
  <rect x="5" y="5" width="1" height="1" fill="rgb(87,74,61)"/>
  <rect x="5" y="6" width="1" height="1" fill="rgb(242,240,229)"/>
  <rect x="5" y="7" width="1" height="1" fill="rgb(87,74,61)"/>
  <rect x="5" y="8" width="1" height="1" fill="rgb(113,73,25)" fill-opacity="0.71875"/>
  <rect x="5" y="9" width="1" height="1" fill="rgb(128,110,26)" fill-opacity="0.234375"/>
  <rect x="5" y="10" width="1" height="1" fill="rgb(255,255,255)" fill-opacity="0.0078125"/>
  <rect x="5" y="11" width="1" height="1" fill="rgb(113,85,28)" fill-opacity="0.0390625"/>
  <rect x="5" y="12" width="1" height="1" fill="rgb(137,110,56)" fill-opacity="0.8203125"/>
  <rect x="5" y="13" width="1" height="1" fill="rgb(205,195,140)" fill-opacity="0.953125"/>
  <rect x="5" y="14" width="1" height="1" fill="rgb(137,110,56)" fill-opacity="0.8203125"/>
  <rect x="5" y="15" width="1" height="1" fill="rgb(113,85,28)" fill-opacity="0.0390625"/>
  <rect x="5" y="16" width="1" height="5" fill="rgb(255,255,255)" fill-opacity="0.0078125"/>
  <rect x="6" y="0" width="1" height="3" fill="rgb(255,255,255)" fill-opacity="0.0078125"/>
  <rect x="6" y="3" width="1" height="1" fill="rgb(193,182,91)" fill-opacity="0.71875"/>
  <rect x="6" y="4" width="1" height="1" fill="rgb(201,188,134)" fill-opacity="0.9609375"/>
  <rect x="6" y="5" width="1" height="1" fill="rgb(242,240,229)"/>
  <rect x="6" y="6" width="1" height="1" fill="rgb(255,255,255)"/>
  <rect x="6" y="7" width="1" height="1" fill="rgb(242,240,229)"/>
  <rect x="6" y="8" width="1" height="1" fill="rgb(201,188,134)" fill-opacity="0.9609375"/>
  <rect x="6" y="9" width="1" height="1" fill="rgb(193,182,91)" fill-opacity="0.71875"/>
  <rect x="6" y="10" width="1" height="1" fill="rgb(113,85,28)" fill-opacity="0.0390625"/>
  <rect x="6" y="11" width="1" height="1" fill="rgb(54,34,28)" fill-opacity="0.46875"/>
  <rect x="6" y="12" width="1" height="1" fill="rgb(118,106,89)"/>
  <rect x="6" y="13" width="1" height="1" fill="rgb(220,216,188)"/>
  <rect x="6" y="14" width="1" height="1" fill="rgb(118,106,89)"/>
  <rect x="6" y="15" width="1" height="1" fill="rgb(56,36,30)" fill-opacity="0.46875"/>
  <rect x="6" y="16" width="1" height="1" fill="rgb(113,85,28)" fill-opacity="0.0390625"/>
  <rect x="6" y="17" width="1" height="4" fill="rgb(255,255,255)" fill-opacity="0.0078125"/>
  <rect x="7" y="0" width="1" height="3" fill="rgb(255,255,255)" fill-opacity="0.0078125"/>
  <rect x="7" y="3" width="1" height="1" fill="rgb(128,110,26)" fill-opacity="0.234375"/>
  <rect x="7" y="4" width="1" height="1" fill="rgb(112,73,25)" fill-opacity="0.71875"/>
  <rect x="7" y="5" width="1" height="1" fill="rgb(87,74,61)"/>
  <rect x="7" y="6" width="1" height="1" fill="rgb(242,240,229)"/>
  <rect x="7" y="7" width="1" height="1" fill="rgb(87,74,61)"/>
  <rect x="7" y="8" width="1" height="1" fill="rgb(115,75,26)" fill-opacity="0.75"/>
  <rect x="7" y="9" width="1" height="1" fill="rgb(135,118,38)" fill-opacity="0.609375"/>
  <rect x="7" y="10" width="1" height="1" fill="rgb(137,110,56)" fill-opacity="0.8203125"/>
  <rect x="7" y="11" width="1" height="1" fill="rgb(118,106,89)"/>
  <rect x="7" y="12" width="1" height="1" fill="rgb(185,178,158)"/>
  <rect x="7" y="13" width="1" height="1" fill="rgb(255,255,255)"/>
  <rect x="7" y="14" width="1" height="1" fill="rgb(185,178,158)"/>
  <rect x="7" y="15" width="1" height="1" fill="rgb(118,106,89)"/>
  <rect x="7" y="16" width="1" height="1" fill="rgb(137,110,56)" fill-opacity="0.8203125"/>
  <rect x="7" y="17" width="1" height="1" fill="rgb(138,123,45)" fill-opacity="0.5"/>
  <rect x="7" y="18" width="1" height="1" fill="rgb(161,142,47)" fill-opacity="0.109375"/>
  <rect x="7" y="19" width="1" height="2" fill="rgb(255,255,255)" fill-opacity="0.0078125"/>
  <rect x="8" y="0" width="1" height="5" fill="rgb(255,255,255)" fill-opacity="0.0078125"/>
  <rect x="8" y="5" width="1" height="1" fill="rgb(113,73,25)" fill-opacity="0.71875"/>
  <rect x="8" y="6" width="1" height="1" fill="rgb(201,188,134)" fill-opacity="0.9609375"/>
  <rect x="8" y="7" width="1" height="1" fill="rgb(112,73,25)" fill-opacity="0.71875"/>
  <rect x="8" y="8" width="1" height="1" fill="rgb(202,189,89)" fill-opacity="0.5703125"/>
  <rect x="8" y="9" width="1" height="1" fill="rgb(196,185,107)" fill-opacity="0.8203125"/>
  <rect x="8" y="10" width="1" height="1" fill="rgb(205,195,140)" fill-opacity="0.953125"/>
  <rect x="8" y="11" width="1" height="1" fill="rgb(220,216,188)"/>
  <rect x="8" y="12" width="1" height="3" fill="rgb(255,255,255)"/>
  <rect x="8" y="15" width="1" height="1" fill="rgb(220,216,188)"/>
  <rect x="8" y="16" width="1" height="1" fill="rgb(205,195,140)" fill-opacity="0.953125"/>
  <rect x="8" y="17" width="1" height="1" fill="rgb(196,185,107)" fill-opacity="0.8203125"/>
  <rect x="8" y="18" width="1" height="1" fill="rgb(202,189,89)" fill-opacity="0.5703125"/>
  <rect x="8" y="19" width="1" height="2" fill="rgb(255,255,255)" fill-opacity="0.0078125"/>
  <rect x="9" y="0" width="1" height="5" fill="rgb(255,255,255)" fill-opacity="0.0078125"/>
  <rect x="9" y="5" width="1" height="1" fill="rgb(128,110,26)" fill-opacity="0.234375"/>
  <rect x="9" y="6" width="1" height="1" fill="rgb(193,182,91)" fill-opacity="0.71875"/>
  <rect x="9" y="7" width="1" height="1" fill="rgb(128,110,26)" fill-opacity="0.234375"/>
  <rect x="9" y="8" width="1" height="1" fill="rgb(161,142,47)" fill-opacity="0.109375"/>
  <rect x="9" y="9" width="1" height="1" fill="rgb(138,123,45)" fill-opacity="0.5"/>
  <rect x="9" y="10" width="1" height="1" fill="rgb(137,110,56)" fill-opacity="0.8203125"/>
  <rect x="9" y="11" width="1" height="1" fill="rgb(118,106,89)"/>
  <rect x="9" y="12" width="1" height="1" fill="rgb(185,178,157)"/>
  <rect x="9" y="13" width="1" height="1" fill="rgb(255,255,255)"/>
  <rect x="9" y="14" width="1" height="1" fill="rgb(185,178,158)"/>
  <rect x="9" y="15" width="1" height="1" fill="rgb(118,106,89)"/>
  <rect x="9" y="16" width="1" height="1" fill="rgb(137,110,56)" fill-opacity="0.8203125"/>
  <rect x="9" y="17" width="1" height="1" fill="rgb(138,123,45)" fill-opacity="0.5"/>
  <rect x="9" y="18" width="1" height="1" fill="rgb(155,137,46)" fill-opacity="0.1171875"/>
  <rect x="9" y="19" width="1" height="2" fill="rgb(255,255,255)" fill-opacity="0.0078125"/>
  <rect x="10" y="0" width="1" height="6" fill="rgb(255,255,255)" fill-opacity="0.0078125"/>
  <rect x="10" y="6" width="1" height="1" fill="rgb(134,107,27)" fill-opacity="0.078125"/>
  <rect x="10" y="7" width="1" height="1" fill="rgb(199,185,86)" fill-opacity="0.5703125"/>
  <rect x="10" y="8" width="1" height="1" fill="rgb(128,115,26)" fill-opacity="0.0859375"/>
  <rect x="10" y="9" width="1" height="1" fill="rgb(255,255,255)" fill-opacity="0.0078125"/>
  <rect x="10" y="10" width="1" height="1" fill="rgb(113,85,28)" fill-opacity="0.0390625"/>
  <rect x="10" y="11" width="1" height="1" fill="rgb(56,36,30)" fill-opacity="0.46875"/>
  <rect x="10" y="12" width="1" height="1" fill="rgb(118,106,89)"/>
  <rect x="10" y="13" width="1" height="1" fill="rgb(220,216,188)"/>
  <rect x="10" y="14" width="1" height="1" fill="rgb(118,106,89)"/>
  <rect x="10" y="15" width="1" height="1" fill="rgb(56,39,30)" fill-opacity="0.46875"/>
  <rect x="10" y="16" width="1" height="1" fill="rgb(113,85,28)" fill-opacity="0.0390625"/>
  <rect x="10" y="17" width="1" height="4" fill="rgb(255,255,255)" fill-opacity="0.0078125"/>
  <rect x="11" y="0" width="1" height="6" fill="rgb(255,255,255)" fill-opacity="0.0078125"/>
  <rect x="11" y="6" width="1" height="1" fill="rgb(124,106,35)" fill-opacity="0.453125"/>
  <rect x="11" y="7" width="1" height="1" fill="rgb(198,188,116)" fill-opacity="0.875"/>
  <rect x="11" y="8" width="1" height="1" fill="rgb(124,106,35)" fill-opacity="0.453125"/>
  <rect x="11" y="9" width="1" height="2" fill="rgb(255,255,255)" fill-opacity="0.0078125"/>
  <rect x="11" y="11" width="1" height="1" fill="rgb(113,85,28)" fill-opacity="0.0390625"/>
  <rect x="11" y="12" width="1" height="1" fill="rgb(137,110,56)" fill-opacity="0.8203125"/>
  <rect x="11" y="13" width="1" height="1" fill="rgb(205,195,140)" fill-opacity="0.953125"/>
  <rect x="11" y="14" width="1" height="1" fill="rgb(137,110,56)" fill-opacity="0.8203125"/>
  <rect x="11" y="15" width="1" height="1" fill="rgb(113,85,28)" fill-opacity="0.0390625"/>
  <rect x="11" y="16" width="1" height="5" fill="rgb(255,255,255)" fill-opacity="0.0078125"/>
  <rect x="12" y="0" width="1" height="5" fill="rgb(255,255,255)" fill-opacity="0.0078125"/>
  <rect x="12" y="5" width="1" height="1" fill="rgb(73,36,36)" fill-opacity="0.0625"/>
  <rect x="12" y="6" width="1" height="1" fill="rgb(102,75,49)" fill-opacity="0.921875"/>
  <rect x="12" y="7" width="1" height="1" fill="rgb(210,202,164)" fill-opacity="0.9921875"/>
  <rect x="12" y="8" width="1" height="1" fill="rgb(107,77,47)" fill-opacity="0.921875"/>
  <rect x="12" y="9" width="1" height="1" fill="rgb(73,36,36)" fill-opacity="0.0625"/>
  <rect x="12" y="10" width="1" height="2" fill="rgb(255,255,255)" fill-opacity="0.0078125"/>
  <rect x="12" y="12" width="1" height="1" fill="rgb(138,123,45)" fill-opacity="0.5"/>
  <rect x="12" y="13" width="1" height="1" fill="rgb(196,185,107)" fill-opacity="0.8203125"/>
  <rect x="12" y="14" width="1" height="1" fill="rgb(137,122,42)" fill-opacity="0.53125"/>
  <rect x="12" y="15" width="1" height="1" fill="rgb(188,177,82)" fill-opacity="0.5546875"/>
  <rect x="12" y="16" width="1" height="1" fill="rgb(128,112,16)" fill-opacity="0.0703125"/>
  <rect x="12" y="17" width="1" height="4" fill="rgb(255,255,255)" fill-opacity="0.0078125"/>
  <rect x="13" y="0" width="1" height="3" fill="rgb(255,255,255)" fill-opacity="0.0078125"/>
  <rect x="13" y="3" width="1" height="1" fill="rgb(128,115,26)" fill-opacity="0.0859375"/>
  <rect x="13" y="4" width="1" height="1" fill="rgb(124,106,35)" fill-opacity="0.453125"/>
  <rect x="13" y="5" width="1" height="1" fill="rgb(109,78,47)" fill-opacity="0.921875"/>
  <rect x="13" y="6" width="1" height="1" fill="rgb(142,131,113)"/>
  <rect x="13" y="7" width="1" height="1" fill="rgb(249,248,242)"/>
  <rect x="13" y="8" width="1" height="1" fill="rgb(142,131,113)"/>
  <rect x="13" y="9" width="1" height="1" fill="rgb(101,75,50)" fill-opacity="0.921875"/>
  <rect x="13" y="10" width="1" height="1" fill="rgb(124,106,35)" fill-opacity="0.453125"/>
  <rect x="13" y="11" width="1" height="1" fill="rgb(134,107,27)" fill-opacity="0.078125"/>
  <rect x="13" y="12" width="1" height="1" fill="rgb(155,137,46)" fill-opacity="0.1171875"/>
  <rect x="13" y="13" width="1" height="1" fill="rgb(202,189,89)" fill-opacity="0.5703125"/>
  <rect x="13" y="14" width="1" height="1" fill="rgb(116,88,21)" fill-opacity="0.46875"/>
  <rect x="13" y="15" width="1" height="1" fill="rgb(199,188,129)" fill-opacity="0.9296875"/>
  <rect x="13" y="16" width="1" height="1" fill="rgb(107,79,18)" fill-opacity="0.3984375"/>
  <rect x="13" y="17" width="1" height="4" fill="rgb(255,255,255)" fill-opacity="0.0078125"/>
  <rect x="14" y="0" width="1" height="3" fill="rgb(255,255,255)" fill-opacity="0.0078125"/>
  <rect x="14" y="3" width="1" height="1" fill="rgb(199,185,86)" fill-opacity="0.5703125"/>
  <rect x="14" y="4" width="1" height="1" fill="rgb(198,188,116)" fill-opacity="0.875"/>
  <rect x="14" y="5" width="1" height="1" fill="rgb(211,203,163)" fill-opacity="0.9921875"/>
  <rect x="14" y="6" width="1" height="1" fill="rgb(249,248,242)"/>
  <rect x="14" y="7" width="1" height="1" fill="rgb(255,255,255)"/>
  <rect x="14" y="8" width="1" height="1" fill="rgb(249,248,242)"/>
  <rect x="14" y="9" width="1" height="1" fill="rgb(210,202,164)" fill-opacity="0.9921875"/>
  <rect x="14" y="10" width="1" height="1" fill="rgb(198,188,116)" fill-opacity="0.875"/>
  <rect x="14" y="11" width="1" height="1" fill="rgb(199,185,86)" fill-opacity="0.5703125"/>
  <rect x="14" y="12" width="1" height="1" fill="rgb(128,112,16)" fill-opacity="0.0703125"/>
  <rect x="14" y="13" width="1" height="1" fill="rgb(110,79,18)" fill-opacity="0.3984375"/>
  <rect x="14" y="14" width="1" height="1" fill="rgb(81,67,57)" fill-opacity="0.9921875"/>
  <rect x="14" y="15" width="1" height="1" fill="rgb(242,240,229)"/>
  <rect x="14" y="16" width="1" height="1" fill="rgb(81,67,57)" fill-opacity="0.9921875"/>
  <rect x="14" y="17" width="1" height="1" fill="rgb(109,81,18)" fill-opacity="0.390625"/>
  <rect x="14" y="18" width="1" height="1" fill="rgb(128,109,18)" fill-opacity="0.0625"/>
  <rect x="14" y="19" width="1" height="2" fill="rgb(255,255,255)" fill-opacity="0.0078125"/>
  <rect x="15" y="0" width="1" height="3" fill="rgb(255,255,255)" fill-opacity="0.0078125"/>
  <rect x="15" y="3" width="1" height="1" fill="rgb(134,107,27)" fill-opacity="0.078125"/>
  <rect x="15" y="4" width="1" height="1" fill="rgb(124,106,35)" fill-opacity="0.453125"/>
  <rect x="15" y="5" width="1" height="1" fill="rgb(109,78,47)" fill-opacity="0.921875"/>
  <rect x="15" y="6" width="1" height="1" fill="rgb(141,130,112)"/>
  <rect x="15" y="7" width="1" height="1" fill="rgb(249,248,242)"/>
  <rect x="15" y="8" width="1" height="1" fill="rgb(141,131,113)"/>
  <rect x="15" y="9" width="1" height="1" fill="rgb(107,77,48)" fill-opacity="0.921875"/>
  <rect x="15" y="10" width="1" height="1" fill="rgb(124,106,35)" fill-opacity="0.453125"/>
  <rect x="15" y="11" width="1" height="1" fill="rgb(128,115,26)" fill-opacity="0.0859375"/>
  <rect x="15" y="12" width="1" height="1" fill="rgb(189,176,83)" fill-opacity="0.546875"/>
  <rect x="15" y="13" width="1" height="1" fill="rgb(199,188,129)" fill-opacity="0.9296875"/>
  <rect x="15" y="14" width="1" height="1" fill="rgb(242,240,229)"/>
  <rect x="15" y="15" width="1" height="1" fill="rgb(255,255,255)"/>
  <rect x="15" y="16" width="1" height="1" fill="rgb(242,240,229)"/>
  <rect x="15" y="17" width="1" height="1" fill="rgb(199,188,129)" fill-opacity="0.9296875"/>
  <rect x="15" y="18" width="1" height="1" fill="rgb(189,176,83)" fill-opacity="0.546875"/>
  <rect x="15" y="19" width="1" height="2" fill="rgb(255,255,255)" fill-opacity="0.0078125"/>
  <rect x="16" y="0" width="1" height="5" fill="rgb(255,255,255)" fill-opacity="0.0078125"/>
  <rect x="16" y="5" width="1" height="1" fill="rgb(73,36,36)" fill-opacity="0.0625"/>
  <rect x="16" y="6" width="1" height="1" fill="rgb(100,75,50)" fill-opacity="0.921875"/>
  <rect x="16" y="7" width="1" height="1" fill="rgb(209,202,164)" fill-opacity="0.9921875"/>
  <rect x="16" y="8" width="1" height="1" fill="rgb(100,75,50)" fill-opacity="0.921875"/>
  <rect x="16" y="9" width="1" height="1" fill="rgb(73,36,36)" fill-opacity="0.0625"/>
  <rect x="16" y="10" width="1" height="2" fill="rgb(255,255,255)" fill-opacity="0.0078125"/>
  <rect x="16" y="12" width="1" height="1" fill="rgb(119,102,17)" fill-opacity="0.0625"/>
  <rect x="16" y="13" width="1" height="1" fill="rgb(107,79,18)" fill-opacity="0.3984375"/>
  <rect x="16" y="14" width="1" height="1" fill="rgb(81,67,57)" fill-opacity="0.9921875"/>
  <rect x="16" y="15" width="1" height="1" fill="rgb(242,240,229)"/>
  <rect x="16" y="16" width="1" height="1" fill="rgb(81,66,57)" fill-opacity="0.9921875"/>
  <rect x="16" y="17" width="1" height="1" fill="rgb(109,81,18)" fill-opacity="0.390625"/>
  <rect x="16" y="18" width="1" height="1" fill="rgb(128,109,18)" fill-opacity="0.0625"/>
  <rect x="16" y="19" width="1" height="2" fill="rgb(255,255,255)" fill-opacity="0.0078125"/>
  <rect x="17" y="0" width="1" height="6" fill="rgb(255,255,255)" fill-opacity="0.0078125"/>
  <rect x="17" y="6" width="1" height="1" fill="rgb(124,106,35)" fill-opacity="0.453125"/>
  <rect x="17" y="7" width="1" height="1" fill="rgb(198,188,116)" fill-opacity="0.875"/>
  <rect x="17" y="8" width="1" height="1" fill="rgb(124,106,35)" fill-opacity="0.453125"/>
  <rect x="17" y="9" width="1" height="5" fill="rgb(255,255,255)" fill-opacity="0.0078125"/>
  <rect x="17" y="14" width="1" height="1" fill="rgb(109,79,17)" fill-opacity="0.40625"/>
  <rect x="17" y="15" width="1" height="1" fill="rgb(199,188,129)" fill-opacity="0.9296875"/>
  <rect x="17" y="16" width="1" height="1" fill="rgb(110,79,18)" fill-opacity="0.3984375"/>
  <rect x="17" y="17" width="1" height="4" fill="rgb(255,255,255)" fill-opacity="0.0078125"/>
  <rect x="18" y="0" width="1" height="6" fill="rgb(255,255,255)" fill-opacity="0.0078125"/>
  <rect x="18" y="6" width="1" height="1" fill="rgb(128,115,26)" fill-opacity="0.0859375"/>
  <rect x="18" y="7" width="1" height="1" fill="rgb(199,185,86)" fill-opacity="0.5703125"/>
  <rect x="18" y="8" width="1" height="1" fill="rgb(134,107,27)" fill-opacity="0.078125"/>
  <rect x="18" y="9" width="1" height="5" fill="rgb(255,255,255)" fill-opacity="0.0078125"/>
  <rect x="18" y="14" width="1" height="1" fill="rgb(135,105,15)" fill-opacity="0.0703125"/>
  <rect x="18" y="15" width="1" height="1" fill="rgb(188,177,82)" fill-opacity="0.5546875"/>
  <rect x="18" y="16" width="1" height="1" fill="rgb(119,102,17)" fill-opacity="0.0625"/>
  <rect x="18" y="17" width="1" height="4" fill="rgb(255,255,255)" fill-opacity="0.0078125"/>
  <rect x="19" y="0" width="1" height="21" fill="rgb(255,255,255)" fill-opacity="0.0078125"/>
  <rect x="20" y="0" width="1" height="21" fill="rgb(255,255,255)" fill-opacity="0.0078125"/>
</svg>