<svg xmlns="http://www.w3.org/2000/svg" shape-rendering="crispEdges" width="21" height="21" viewBox="0 0 21 21">
  <rect x="0" y="0" width="1" height="21" fill="rgb(255,255,255)" fill-opacity="0.0078125"/>
  <rect x="1" y="0" width="1" height="21" fill="rgb(255,255,255)" fill-opacity="0.0078125"/>
  <rect x="2" y="0" width="1" height="21" fill="rgb(255,255,255)" fill-opacity="0.0078125"/>
  <rect x="3" y="0" width="1" height="7" fill="rgb(255,255,255)" fill-opacity="0.0078125"/>
  <rect x="3" y="7" width="1" height="1" fill="rgb(128,0,0)" fill-opacity="0.078125"/>
  <rect x="3" y="8" width="1" height="1" fill="rgb(128,0,0)" fill-opacity="0.265625"/>
  <rect x="3" y="9" width="1" height="1" fill="rgb(134,8,8)" fill-opacity="0.375"/>
  <rect x="3" y="10" width="1" height="2" fill="rgb(131,4,4)" fill-opacity="0.46875"/>
  <rect x="3" y="12" width="1" height="1" fill="rgb(134,8,8)" fill-opacity="0.375"/>
  <rect x="3" y="13" width="1" height="1" fill="rgb(128,0,0)" fill-opacity="0.265625"/>
  <rect x="3" y="14" width="1" height="1" fill="rgb(128,0,0)" fill-opacity="0.078125"/>
  <rect x="3" y="15" width="1" height="6" fill="rgb(255,255,255)" fill-opacity="0.0078125"/>
  <rect x="4" y="0" width="1" height="5" fill="rgb(255,255,255)" fill-opacity="0.0078125"/>
  <rect x="4" y="5" width="1" height="1" fill="rgb(0,0,0)" fill-opacity="0.0078125"/>
  <rect x="4" y="6" width="1" height="1" fill="rgb(130,4,4)" fill-opacity="0.2265625"/>
  <rect x="4" y="7" width="1" height="1" fill="rgb(145,36,36)" fill-opacity="0.4765625"/>
  <rect x="4" y="8" width="1" height="1" fill="rgb(238,215,215)" fill-opacity="0.4765625"/>
  <rect x="4" y="9" width="1" height="1" fill="rgb(251,247,247)" fill-opacity="0.4921875"/>
  <rect x="4" y="10" width="1" height="2" fill="rgb(255,255,255)" fill-opacity="0.5"/>
  <rect x="4" y="12" width="1" height="1" fill="rgb(251,247,247)" fill-opacity="0.4921875"/>
  <rect x="4" y="13" width="1" height="1" fill="rgb(238,217,217)" fill-opacity="0.4765625"/>
  <rect x="4" y="14" width="1" height="1" fill="rgb(145,36,36)" fill-opacity="0.4765625"/>
  <rect x="4" y="15" width="1" height="1" fill="rgb(130,4,4)" fill-opacity="0.2265625"/>
  <rect x="4" y="16" width="1" height="1" fill="rgb(0,0,0)" fill-opacity="0.0078125"/>
  <rect x="4" y="17" width="1" height="4" fill="rgb(255,255,255)" fill-opacity="0.0078125"/>
  <rect x="5" y="0" width="1" height="4" fill="rgb(255,255,255)" fill-opacity="0.0078125"/>
  <rect x="5" y="4" width="1" height="1" fill="rgb(0,0,0)" fill-opacity="0.0078125"/>
  <rect x="5" y="5" width="1" height="1" fill="rgb(130,5,5)" fill-opacity="0.3828125"/>
  <rect x="5" y="6" width="1" height="1" fill="rgb(207,153,153)" fill-opacity="0.46875"/>
  <rect x="5" y="7" width="1" height="1" fill="rgb(255,253,253)" fill-opacity="0.5"/>
  <rect x="5" y="8" width="1" height="1" fill="rgb(242,222,222)" fill-opacity="0.484375"/>
  <rect x="5" y="9" width="1" height="1" fill="rgb(217,151,151)" fill-opacity="0.453125"/>
  <rect x="5" y="10" width="1" height="1" fill="rgb(195,85,85)" fill-opacity="0.4375"/>
  <rect x="5" y="11" width="1" height="1" fill="rgb(199,94,94)" fill-opacity="0.4296875"/>
  <rect x="5" y="12" width="1" height="1" fill="rgb(228,166,166)" fill-opacity="0.4453125"/>
  <rect x="5" y="13" width="1" height="1" fill="rgb(247,230,230)" fill-opacity="0.4765625"/>
  <rect x="5" y="14" width="1" height="1" fill="rgb(255,255,255)" fill-opacity="0.5"/>
  <rect x="5" y="15" width="1" height="1" fill="rgb(203,147,147)" fill-opacity="0.46875"/>
  <rect x="5" y="16" width="1" height="1" fill="rgb(130,5,5)" fill-opacity="0.3828125"/>
  <rect x="5" y="17" width="1" height="1" fill="rgb(0,0,0)" fill-opacity="0.0078125"/>
  <rect x="5" y="18" width="1" height="3" fill="rgb(255,255,255)" fill-opacity="0.0078125"/>
  <rect x="6" y="0" width="1" height="4" fill="rgb(255,255,255)" fill-opacity="0.0078125"/>
  <rect x="6" y="4" width="1" height="1" fill="rgb(132,4,4)" fill-opacity="0.234375"/>
  <rect x="6" y="5" width="1" height="1" fill="rgb(204,148,148)" fill-opacity="0.46875"/>
  <rect x="6" y="6" width="1" height="1" fill="rgb(253,253,253)" fill-opacity="0.5"/>
  <rect x="6" y="7" width="1" height="1" fill="rgb(206,125,125)" fill-opacity="0.453125"/>
  <rect x="6" y="8" width="1" height="1" fill="rgb(187,63,63)" fill-opacity="0.4140625"/>
  <rect x="6" y="9" width="1" height="1" fill="rgb(223,141,141)" fill-opacity="0.34375"/>
  <rect x="6" y="10" width="1" height="1" fill="rgb(242,184,184)" fill-opacity="0.3125"/>
  <rect x="6" y="11" width="1" height="1" fill="rgb(242,187,187)" fill-opacity="0.3125"/>
  <rect x="6" y="12" width="1" height="1" fill="rgb(231,155,155)" fill-opacity="0.3359375"/>
  <rect x="6" y="13" width="1" height="1" fill="rgb(209,102,102)" fill-opacity="0.375"/>
  <rect x="6" y="14" width="1" height="1" fill="rgb(231,163,163)" fill-opacity="0.4140625"/>
  <rect x="6" y="15" width="1" height="1" fill="rgb(255,251,251)" fill-opacity="0.4921875"/>
  <rect x="6" y="16" width="1" height="1" fill="rgb(192,128,128)" fill-opacity="0.46875"/>
  <rect x="6" y="17" width="1" height="1" fill="rgb(132,4,4)" fill-opacity="0.234375"/>
  <rect x="6" y="18" width="1" height="3" fill="rgb(255,255,255)" fill-opacity="0.0078125"/>
  <rect x="7" y="0" width="1" height="3" fill="rgb(255,255,255)" fill-opacity="0.0078125"/>
  <rect x="7" y="3" width="1" height="1" fill="rgb(134,0,0)" fill-opacity="0.078125"/>
  <rect x="7" y="4" width="1" height="1" fill="rgb(150,42,42)" fill-opacity="0.4765625"/>
  <rect x="7" y="5" width="1" height="1" fill="rgb(255,253,253)" fill-opacity="0.5"/>
  <rect x="7" y="6" width="1" height="1" fill="rgb(206,126,126)" fill-opacity="0.453125"/>
  <rect x="7" y="7" width="1" height="1" fill="rgb(202,98,98)" fill-opacity="0.3828125"/>
  <rect x="7" y="8" width="1" height="1" fill="rgb(255,211,211)" fill-opacity="0.296875"/>
  <rect x="7" y="9" width="1" height="1" fill="rgb(252,208,208)" fill-opacity="0.3046875"/>
  <rect x="7" y="10" width="1" height="1" fill="rgb(100,86,86)" fill-opacity="0.578125"/>
  <rect x="7" y="11" width="1" height="1" fill="rgb(59,55,55)" fill-opacity="0.8359375"/>
  <rect x="7" y="12" width="1" height="2" fill="rgb(37,36,36)" fill-opacity="0.96875"/>
  <rect x="7" y="14" width="1" height="1" fill="rgb(60,52,52)" fill-opacity="0.8515625"/>
  <rect x="7" y="15" width="1" height="1" fill="rgb(104,79,79)" fill-opacity="0.6484375"/>
  <rect x="7" y="16" width="1" height="1" fill="rgb(251,245,245)" fill-opacity="0.484375"/>
  <rect x="7" y="17" width="1" height="1" fill="rgb(143,30,30)" fill-opacity="0.4765625"/>
  <rect x="7" y="18" width="1" height="1" fill="rgb(134,0,0)" fill-opacity="0.078125"/>
  <rect x="7" y="19" width="1" height="2" fill="rgb(255,255,255)" fill-opacity="0.0078125"/>
  <rect x="8" y="0" width="1" height="3" fill="rgb(255,255,255)" fill-opacity="0.0078125"/>
  <rect x="8" y="3" width="1" height="1" fill="rgb(128,0,0)" fill-opacity="0.265625"/>
  <rect x="8" y="4" width="1" height="1" fill="rgb(238,217,217)" fill-opacity="0.4765625"/>
  <rect x="8" y="5" width="1" height="1" fill="rgb(242,219,219)" fill-opacity="0.4765625"/>
  <rect x="8" y="6" width="1" height="1" fill="rgb(185,63,63)" fill-opacity="0.4140625"/>
  <rect x="8" y="7" width="1" height="1" fill="rgb(255,211,211)" fill-opacity="0.296875"/>
  <rect x="8" y="8" width="1" height="1" fill="rgb(192,162,162)" fill-opacity="0.3671875"/>
  <rect x="8" y="9" width="1" height="1" fill="rgb(54,51,51)" fill-opacity="0.8515625"/>
  <rect x="8" y="10" width="1" height="1" fill="rgb(94,94,94)" fill-opacity="0.96875"/>
  <rect x="8" y="11" width="1" height="1" fill="rgb(204,204,204)"/>
  <rect x="8" y="12" width="1" height="2" fill="rgb(238,238,238)"/>
  <rect x="8" y="14" width="1" height="1" fill="rgb(205,205,205)"/>
  <rect x="8" y="15" width="1" height="1" fill="rgb(98,97,97)" fill-opacity="0.9765625"/>
  <rect x="8" y="16" width="1" height="1" fill="rgb(58,56,56)" fill-opacity="0.890625"/>
  <rect x="8" y="17" width="1" height="1" fill="rgb(180,147,147)" fill-opacity="0.515625"/>
  <rect x="8" y="18" width="1" height="1" fill="rgb(128,0,0)" fill-opacity="0.265625"/>
  <rect x="8" y="19" width="1" height="2" fill="rgb(255,255,255)" fill-opacity="0.0078125"/>
  <rect x="9" y="0" width="1" height="3" fill="rgb(255,255,255)" fill-opacity="0.0078125"/>
  <rect x="9" y="3" width="1" height="1" fill="rgb(133,8,8)" fill-opacity="0.3828125"/>
  <rect x="9" y="4" width="1" height="1" fill="rgb(251,247,247)" fill-opacity="0.4921875"/>
  <rect x="9" y="5" width="1" height="1" fill="rgb(215,143,143)" fill-opacity="0.453125"/>
  <rect x="9" y="6" width="1" height="1" fill="rgb(223,138,138)" fill-opacity="0.34375"/>
  <rect x="9" y="7" width="1" height="1" fill="rgb(252,208,208)" fill-opacity="0.3046875"/>
  <rect x="9" y="8" width="1" height="1" fill="rgb(54,51,51)" fill-opacity="0.8515625"/>
  <rect x="9" y="9" width="1" height="1" fill="rgb(162,162,162)" fill-opacity="0.9921875"/>
  <rect x="9" y="10" width="1" height="1" fill="rgb(254,254,254)"/>
  <rect x="9" y="11" width="1" height="4" fill="rgb(255,255,255)"/>
  <rect x="9" y="15" width="1" height="1" fill="rgb(253,253,253)"/>
  <rect x="9" y="16" width="1" height="1" fill="rgb(159,159,159)"/>
  <rect x="9" y="17" width="1" height="1" fill="rgb(58,56,56)" fill-opacity="0.890625"/>
  <rect x="9" y="18" width="1" height="1" fill="rgb(131,8,8)" fill-opacity="0.3828125"/>
  <rect x="9" y="19" width="1" height="2" fill="rgb(255,255,255)" fill-opacity="0.0078125"/>
  <rect x="10" y="0" width="1" height="3" fill="rgb(255,255,255)" fill-opacity="0.0078125"/>
  <rect x="10" y="3" width="1" height="1" fill="rgb(130,4,4)" fill-opacity="0.4765625"/>
  <rect x="10" y="4" width="1" height="1" fill="rgb(255,255,255)" fill-opacity="0.5"/>
  <rect x="10" y="5" width="1" height="1" fill="rgb(191,80,80)" fill-opacity="0.4375"/>
  <rect x="10" y="6" width="1" height="1" fill="rgb(242,184,184)" fill-opacity="0.3125"/>
  <rect x="10" y="7" width="1" height="1" fill="rgb(100,86,86)" fill-opacity="0.578125"/>
  <rect x="10" y="8" width="1" height="1" fill="rgb(97,97,97)" fill-opacity="0.96875"/>
  <rect x="10" y="9" width="1" height="1" fill="rgb(254,254,254)"/>
  <rect x="10" y="10" width="1" height="4" fill="rgb(255,255,255)"/>
  <rect x="10" y="14" width="1" height="1" fill="rgb(251,251,251)"/>
  <rect x="10" y="15" width="1" height="1" fill="rgb(233,233,233)"/>
  <rect x="10" y="16" width="1" height="1" fill="rgb(226,226,226)"/>
  <rect x="10" y="17" width="1" height="1" fill="rgb(91,91,91)" fill-opacity="0.984375"/>
  <rect x="10" y="18" width="1" height="1" fill="rgb(71,22,22)" fill-opacity="0.6953125"/>
  <rect x="10" y="19" width="1" height="2" fill="rgb(255,255,255)" fill-opacity="0.0078125"/>
  <rect x="11" y="0" width="1" height="3" fill="rgb(255,255,255)" fill-opacity="0.0078125"/>
  <rect x="11" y="3" width="1" height="1" fill="rgb(131,4,4)" fill-opacity="0.46875"/>
  <rect x="11" y="4" width="1" height="1" fill="rgb(255,255,255)" fill-opacity="0.5"/>
  <rect x="11" y="5" width="1" height="1" fill="rgb(195,88,88)" fill-opacity="0.4375"/>
  <rect x="11" y="6" width="1" height="1" fill="rgb(242,184,184)" fill-opacity="0.3125"/>
  <rect x="11" y="7" width="1" height="1" fill="rgb(60,56,56)" fill-opacity="0.8359375"/>
  <rect x="11" y="8" width="1" height="1" fill="rgb(204,204,204)"/>
  <rect x="11" y="9" width="1" height="4" fill="rgb(255,255,255)"/>
  <rect x="11" y="13" width="1" height="1" fill="rgb(251,251,251)"/>
  <rect x="11" y="14" width="1" height="1" fill="rgb(231,231,231)"/>
  <rect x="11" y="15" width="1" height="1" fill="rgb(211,211,211)"/>
  <rect x="11" y="16" width="1" height="1" fill="rgb(199,199,199)"/>
  <rect x="11" y="17" width="1" height="1" fill="rgb(171,171,171)"/>
  <rect x="11" y="18" width="1" height="1" fill="rgb(54,40,40)" fill-opacity="0.8828125"/>
  <rect x="11" y="19" width="1" height="2" fill="rgb(255,255,255)" fill-opacity="0.0078125"/>
  <rect x="12" y="0" width="1" height="3" fill="rgb(255,255,255)" fill-opacity="0.0078125"/>
  <rect x="12" y="3" width="1" height="1" fill="rgb(134,8,8)" fill-opacity="0.375"/>
  <rect x="12" y="4" width="1" height="1" fill="rgb(251,247,247)" fill-opacity="0.4921875"/>
  <rect x="12" y="5" width="1" height="1" fill="rgb(225,161,161)" fill-opacity="0.4375"/>
  <rect x="12" y="6" width="1" height="1" fill="rgb(228,150,150)" fill-opacity="0.3359375"/>
  <rect x="12" y="7" width="1" height="1" fill="rgb(37,36,36)" fill-opacity="0.96875"/>
  <rect x="12" y="8" width="1" height="1" fill="rgb(238,238,238)"/>
  <rect x="12" y="9" width="1" height="3" fill="rgb(255,255,255)"/>
  <rect x="12" y="12" width="1" height="1" fill="rgb(250,250,250)"/>
  <rect x="12" y="13" width="1" height="1" fill="rgb(230,230,230)"/>
  <rect x="12" y="14" width="1" height="1" fill="rgb(210,210,210)"/>
  <rect x="12" y="15" width="1" height="1" fill="rgb(190,190,190)"/>
  <rect x="12" y="16" width="1" height="2" fill="rgb(174,174,174)"/>
  <rect x="12" y="18" width="1" height="1" fill="rgb(36,34,34)" fill-opacity="0.96875"/>
  <rect x="12" y="19" width="1" height="2" fill="rgb(255,255,255)" fill-opacity="0.0078125"/>
  <rect x="13" y="0" width="1" height="3" fill="rgb(255,255,255)" fill-opacity="0.0078125"/>
  <rect x="13" y="3" width="1" height="1" fill="rgb(129,0,0)" fill-opacity="0.2578125"/>
  <rect x="13" y="4" width="1" height="1" fill="rgb(238,217,217)" fill-opacity="0.4765625"/>
  <rect x="13" y="5" width="1" height="1" fill="rgb(247,227,227)" fill-opacity="0.4765625"/>
  <rect x="13" y="6" width="1" height="1" fill="rgb(207,98,98)" fill-opacity="0.3828125"/>
  <rect x="13" y="7" width="1" height="1" fill="rgb(37,36,36)" fill-opacity="0.96875"/>
  <rect x="13" y="8" width="1" height="1" fill="rgb(238,238,238)"/>
  <rect x="13" y="9" width="1" height="2" fill="rgb(255,255,255)"/>
  <rect x="13" y="11" width="1" height="1" fill="rgb(249,249,249)"/>
  <rect x="13" y="12" width="1" height="1" fill="rgb(229,229,229)"/>
  <rect x="13" y="13" width="1" height="1" fill="rgb(209,209,209)"/>
  <rect x="13" y="14" width="1" height="1" fill="rgb(190,190,190)"/>
  <rect x="13" y="15" width="1" height="1" fill="rgb(170,170,170)"/>
  <rect x="13" y="16" width="1" height="1" fill="rgb(154,154,154)"/>
  <rect x="13" y="17" width="1" height="1" fill="rgb(160,160,160)"/>
  <rect x="13" y="18" width="1" height="1" fill="rgb(36,34,34)" fill-opacity="0.96875"/>
  <rect x="13" y="19" width="1" height="2" fill="rgb(255,255,255)" fill-opacity="0.0078125"/>
  <rect x="14" y="0" width="1" height="3" fill="rgb(255,255,255)" fill-opacity="0.0078125"/>
  <rect x="14" y="3" width="1" height="1" fill="rgb(135,0,0)" fill-opacity="0.0703125"/>
  <rect x="14" y="4" width="1" height="1" fill="rgb(150,40,40)" fill-opacity="0.4765625"/>
  <rect x="14" y="5" width="1" height="1" fill="rgb(255,253,253)" fill-opacity="0.5"/>
  <rect x="14" y="6" width="1" height="1" fill="rgb(229,161,161)" fill-opacity="0.421875"/>
  <rect x="14" y="7" width="1" height="1" fill="rgb(60,52,52)" fill-opacity="0.8515625"/>
  <rect x="14" y="8" width="1" height="1" fill="rgb(205,205,205)"/>
  <rect x="14" y="9" width="1" height="1" fill="rgb(255,255,255)"/>
  <rect x="14" y="10" width="1" height="1" fill="rgb(249,249,249)"/>
  <rect x="14" y="11" width="1" height="1" fill="rgb(229,229,229)"/>
  <rect x="14" y="12" width="1" height="1" fill="rgb(209,209,209)"/>
  <rect x="14" y="13" width="1" height="1" fill="rgb(189,189,189)"/>
  <rect x="14" y="14" width="1" height="1" fill="rgb(169,169,169)"/>
  <rect x="14" y="15" width="1" height="1" fill="rgb(149,149,149)"/>
  <rect x="14" y="16" width="1" height="1" fill="rgb(141,141,141)"/>
  <rect x="14" y="17" width="1" height="1" fill="rgb(133,133,133)"/>
  <rect x="14" y="18" width="1" height="1" fill="rgb(46,44,44)" fill-opacity="0.796875"/>
  <rect x="14" y="19" width="1" height="2" fill="rgb(255,255,255)" fill-opacity="0.0078125"/>
  <rect x="15" y="0" width="1" height="4" fill="rgb(255,255,255)" fill-opacity="0.0078125"/>
  <rect x="15" y="4" width="1" height="1" fill="rgb(128,0,0)" fill-opacity="0.2265625"/>
  <rect x="15" y="5" width="1" height="1" fill="rgb(195,133,133)" fill-opacity="0.46875"/>
  <rect x="15" y="6" width="1" height="1" fill="rgb(253,249,249)" fill-opacity="0.4921875"/>
  <rect x="15" y="7" width="1" height="1" fill="rgb(106,81,81)" fill-opacity="0.640625"/>
  <rect x="15" y="8" width="1" height="1" fill="rgb(97,96,96)" fill-opacity="0.9765625"/>
  <rect x="15" y="9" width="1" height="1" fill="rgb(251,251,251)"/>
  <rect x="15" y="10" width="1" height="1" fill="rgb(230,230,230)"/>
  <rect x="15" y="11" width="1" height="1" fill="rgb(209,209,209)"/>
  <rect x="15" y="12" width="1" height="1" fill="rgb(189,189,189)"/>
  <rect x="15" y="13" width="1" height="1" fill="rgb(169,169,169)"/>
  <rect x="15" y="14" width="1" height="1" fill="rgb(149,149,149)"/>
  <rect x="15" y="15" width="1" height="1" fill="rgb(131,131,131)"/>
  <rect x="15" y="16" width="1" height="1" fill="rgb(137,137,137)"/>
  <rect x="15" y="17" width="1" height="1" fill="rgb(74,73,73)" fill-opacity="0.9765625"/>
  <rect x="15" y="18" width="1" height="1" fill="rgb(33,33,33)" fill-opacity="0.4296875"/>
  <rect x="15" y="19" width="1" height="2" fill="rgb(255,255,255)" fill-opacity="0.0078125"/>
  <rect x="16" y="0" width="1" height="5" fill="rgb(255,255,255)" fill-opacity="0.0078125"/>
  <rect x="16" y="5" width="1" height="1" fill="rgb(133,6,6)" fill-opacity="0.3671875"/>
  <rect x="16" y="6" width="1" height="1" fill="rgb(192,126,126)" fill-opacity="0.4609375"/>
  <rect x="16" y="7" width="1" height="1" fill="rgb(249,245,245)" fill-opacity="0.484375"/>
  <rect x="16" y="8" width="1" height="1" fill="rgb(60,58,58)" fill-opacity="0.8828125"/>
  <rect x="16" y="9" width="1" height="1" fill="rgb(155,155,155)" fill-opacity="0.9921875"/>
  <rect x="16" y="10" width="1" height="1" fill="rgb(224,224,224)"/>
  <rect x="16" y="11" width="1" height="1" fill="rgb(196,196,196)"/>
  <rect x="16" y="12" width="1" height="1" fill="rgb(172,172,172)"/>
  <rect x="16" y="13" width="1" height="1" fill="rgb(152,152,152)"/>
  <rect x="16" y="14" width="1" height="1" fill="rgb(140,140,140)"/>
  <rect x="16" y="15" width="1" height="1" fill="rgb(138,138,138)"/>
  <rect x="16" y="16" width="1" height="1" fill="rgb(110,110,110)"/>
  <rect x="16" y="17" width="1" height="1" fill="rgb(39,39,39)" fill-opacity="0.8046875"/>
  <rect x="16" y="18" width="1" height="1" fill="rgb(0,0,0)" fill-opacity="0.0078125"/>
  <rect x="16" y="19" width="1" height="2" fill="rgb(255,255,255)" fill-opacity="0.0078125"/>
  <rect x="17" y="0" width="1" height="6" fill="rgb(255,255,255)" fill-opacity="0.0078125"/>
  <rect x="17" y="6" width="1" height="1" fill="rgb(130,0,0)" fill-opacity="0.21875"/>
  <rect x="17" y="7" width="1" height="1" fill="rgb(140,23,23)" fill-opacity="0.4765625"/>
  <rect x="17" y="8" width="1" height="1" fill="rgb(179,141,141)" fill-opacity="0.5078125"/>
  <rect x="17" y="9" width="1" height="1" fill="rgb(60,57,57)" fill-opacity="0.8828125"/>
  <rect x="17" y="10" width="1" height="1" fill="rgb(87,87,87)" fill-opacity="0.9765625"/>
  <rect x="17" y="11" width="1" height="1" fill="rgb(164,164,164)"/>
  <rect x="17" y="12" width="1" height="1" fill="rgb(173,173,173)"/>
  <rect x="17" y="13" width="1" height="1" fill="rgb(153,153,153)"/>
  <rect x="17" y="14" width="1" height="1" fill="rgb(133,133,133)"/>
  <rect x="17" y="15" width="1" height="1" fill="rgb(70,69,69)" fill-opacity="0.9765625"/>
  <rect x="17" y="16" width="1" height="1" fill="rgb(39,39,39)" fill-opacity="0.8046875"/>
  <rect x="17" y="17" width="1" height="1" fill="rgb(28,28,28)" fill-opacity="0.109375"/>
  <rect x="17" y="18" width="1" height="3" fill="rgb(255,255,255)" fill-opacity="0.0078125"/>
  <rect x="18" y="0" width="1" height="7" fill="rgb(255,255,255)" fill-opacity="0.0078125"/>
  <rect x="18" y="7" width="1" height="1" fill="rgb(135,0,0)" fill-opacity="0.0703125"/>
  <rect x="18" y="8" width="1" height="1" fill="rgb(128,0,0)" fill-opacity="0.25"/>
  <rect x="18" y="9" width="1" height="1" fill="rgb(130,8,8)" fill-opacity="0.3671875"/>
  <rect x="18" y="10" width="1" height="1" fill="rgb(72,19,19)" fill-opacity="0.671875"/>
  <rect x="18" y="11" width="1" height="1" fill="rgb(53,37,37)" fill-opacity="0.875"/>
  <rect x="18" y="12" width="1" height="1" fill="rgb(35,33,33)" fill-opacity="0.96875"/>
  <rect x="18" y="13" width="1" height="1" fill="rgb(35,33,33)" fill-opacity="0.9609375"/>
  <rect x="18" y="14" width="1" height="1" fill="rgb(45,42,42)" fill-opacity="0.7890625"/>
  <rect x="18" y="15" width="1" height="1" fill="rgb(29,29,29)" fill-opacity="0.4140625"/>
  <rect x="18" y="16" width="1" height="1" fill="rgb(0,0,0)" fill-opacity="0.0078125"/>
  <rect x="18" y="17" width="1" height="4" fill="rgb(255,255,255)" fill-opacity="0.0078125"/>
  <rect x="19" y="0" width="1" height="21" fill="rgb(255,255,255)" fill-opacity="0.0078125"/>
  <rect x="20" y="0" width="1" height="21" fill="rgb(255,255,255)" fill-opacity="0.0078125"/>
</svg>