<svg xmlns="http://www.w3.org/2000/svg" shape-rendering="crispEdges" width="21" height="21" viewBox="0 0 21 21">
  <rect x="0" y="0" width="1" height="21" fill="rgb(255,255,255)" fill-opacity="0.0078125"/>
  <rect x="1" y="0" width="1" height="21" fill="rgb(255,255,255)" fill-opacity="0.0078125"/>
  <rect x="2" y="0" width="1" height="21" fill="rgb(255,255,255)" fill-opacity="0.0078125"/>
  <rect x="3" y="0" width="1" height="14" fill="rgb(255,255,255)" fill-opacity="0.0078125"/>
  <rect x="3" y="14" width="1" height="1" fill="rgb(22,43,82)" fill-opacity="0.234375"/>
  <rect x="3" y="15" width="1" height="1" fill="rgb(35,55,87)" fill-opacity="0.6953125"/>
  <rect x="3" y="16" width="1" height="1" fill="rgb(24,47,80)" fill-opacity="0.21875"/>
  <rect x="3" y="17" width="1" height="4" fill="rgb(255,255,255)" fill-opacity="0.0078125"/>
  <rect x="4" y="0" width="1" height="13" fill="rgb(255,255,255)" fill-opacity="0.0078125"/>
  <rect x="4" y="13" width="1" height="1" fill="rgb(21,47,81)" fill-opacity="0.2421875"/>
  <rect x="4" y="14" width="1" height="1" fill="rgb(51,69,100)" fill-opacity="0.9609375"/>
  <rect x="4" y="15" width="1" height="1" fill="rgb(227,229,232)"/>
  <rect x="4" y="16" width="1" height="1" fill="rgb(100,116,138)" fill-opacity="0.96875"/>
  <rect x="4" y="17" width="1" height="1" fill="rgb(21,47,81)" fill-opacity="0.2421875"/>
  <rect x="4" y="18" width="1" height="3" fill="rgb(255,255,255)" fill-opacity="0.0078125"/>
  <rect x="5" y="0" width="1" height="12" fill="rgb(255,255,255)" fill-opacity="0.0078125"/>
  <rect x="5" y="12" width="1" height="1" fill="rgb(21,47,81)" fill-opacity="0.2421875"/>
  <rect x="5" y="13" width="1" height="1" fill="rgb(45,65,96)" fill-opacity="0.9609375"/>
  <rect x="5" y="14" width="1" height="1" fill="rgb(198,201,204)"/>
  <rect x="5" y="15" width="1" height="1" fill="rgb(200,200,200)"/>
  <rect x="5" y="16" width="1" height="1" fill="rgb(232,233,235)"/>
  <rect x="5" y="17" width="1" height="1" fill="rgb(101,117,139)" fill-opacity="0.96875"/>
  <rect x="5" y="18" width="1" height="1" fill="rgb(24,43,82)" fill-opacity="0.2109375"/>
  <rect x="5" y="19" width="1" height="2" fill="rgb(255,255,255)" fill-opacity="0.0078125"/>
  <rect x="6" y="0" width="1" height="11" fill="rgb(255,255,255)" fill-opacity="0.0078125"/>
  <rect x="6" y="11" width="1" height="1" fill="rgb(21,47,81)" fill-opacity="0.2421875"/>
  <rect x="6" y="12" width="1" height="1" fill="rgb(43,64,95)" fill-opacity="0.9609375"/>
  <rect x="6" y="13" width="1" height="1" fill="rgb(197,199,203)"/>
  <rect x="6" y="14" width="1" height="1" fill="rgb(173,173,173)"/>
  <rect x="6" y="15" width="1" height="1" fill="rgb(181,181,181)"/>
  <rect x="6" y="16" width="1" height="1" fill="rgb(215,215,215)"/>
  <rect x="6" y="17" width="1" height="1" fill="rgb(223,225,229)"/>
  <rect x="6" y="18" width="1" height="1" fill="rgb(41,61,93)" fill-opacity="0.65625"/>
  <rect x="6" y="19" width="1" height="2" fill="rgb(255,255,255)" fill-opacity="0.0078125"/>
  <rect x="7" y="0" width="1" height="10" fill="rgb(255,255,255)" fill-opacity="0.0078125"/>
  <rect x="7" y="10" width="1" height="1" fill="rgb(21,47,81)" fill-opacity="0.2421875"/>
  <rect x="7" y="11" width="1" height="1" fill="rgb(42,63,94)" fill-opacity="0.9609375"/>
  <rect x="7" y="12" width="1" height="1" fill="rgb(195,197,201)"/>
  <rect x="7" y="13" width="1" height="1" fill="rgb(171,171,171)"/>
  <rect x="7" y="14" width="1" height="1" fill="rgb(179,179,179)"/>
  <rect x="7" y="15" width="1" height="1" fill="rgb(194,194,194)"/>
  <rect x="7" y="16" width="1" height="1" fill="rgb(163,169,177)"/>
  <rect x="7" y="17" width="1" height="1" fill="rgb(34,55,88)" fill-opacity="0.953125"/>
  <rect x="7" y="18" width="1" height="1" fill="rgb(22,43,82)" fill-opacity="0.234375"/>
  <rect x="7" y="19" width="1" height="2" fill="rgb(255,255,255)" fill-opacity="0.0078125"/>
  <rect x="8" y="0" width="1" height="10" fill="rgb(255,255,255)" fill-opacity="0.0078125"/>
  <rect x="8" y="10" width="1" height="1" fill="rgb(27,49,82)" fill-opacity="0.9609375"/>
  <rect x="8" y="11" width="1" height="1" fill="rgb(194,197,200)"/>
  <rect x="8" y="12" width="1" height="1" fill="rgb(168,168,168)"/>
  <rect x="8" y="13" width="1" height="1" fill="rgb(176,176,176)"/>
  <rect x="8" y="14" width="1" height="1" fill="rgb(192,192,192)"/>
  <rect x="8" y="15" width="1" height="1" fill="rgb(162,168,176)"/>
  <rect x="8" y="16" width="1" height="1" fill="rgb(31,54,86)" fill-opacity="0.953125"/>
  <rect x="8" y="17" width="1" height="1" fill="rgb(21,47,81)" fill-opacity="0.2421875"/>
  <rect x="8" y="18" width="1" height="3" fill="rgb(255,255,255)" fill-opacity="0.0078125"/>
  <rect x="9" y="0" width="1" height="10" fill="rgb(255,255,255)" fill-opacity="0.0078125"/>
  <rect x="9" y="10" width="1" height="1" fill="rgb(28,51,85)"/>
  <rect x="9" y="11" width="1" height="1" fill="rgb(205,205,205)"/>
  <rect x="9" y="12" width="1" height="1" fill="rgb(174,174,174)"/>
  <rect x="9" y="13" width="1" height="1" fill="rgb(190,190,190)"/>
  <rect x="9" y="14" width="1" height="1" fill="rgb(161,166,175)"/>
  <rect x="9" y="15" width="1" height="1" fill="rgb(31,54,86)" fill-opacity="0.953125"/>
  <rect x="9" y="16" width="1" height="1" fill="rgb(21,47,81)" fill-opacity="0.2421875"/>
  <rect x="9" y="17" width="1" height="4" fill="rgb(255,255,255)" fill-opacity="0.0078125"/>
  <rect x="10" y="0" width="1" height="9" fill="rgb(255,255,255)" fill-opacity="0.0078125"/>
  <rect x="10" y="9" width="1" height="1" fill="rgb(21,46,81)" fill-opacity="0.2890625"/>
  <rect x="10" y="10" width="1" height="1" fill="rgb(96,108,125)"/>
  <rect x="10" y="11" width="1" height="1" fill="rgb(196,196,196)"/>
  <rect x="10" y="12" width="1" height="1" fill="rgb(187,187,187)"/>
  <rect x="10" y="13" width="1" height="1" fill="rgb(160,166,174)"/>
  <rect x="10" y="14" width="1" height="1" fill="rgb(31,54,87)" fill-opacity="0.953125"/>
  <rect x="10" y="15" width="1" height="1" fill="rgb(21,47,81)" fill-opacity="0.2421875"/>
  <rect x="10" y="16" width="1" height="5" fill="rgb(255,255,255)" fill-opacity="0.0078125"/>
  <rect x="11" y="0" width="1" height="6" fill="rgb(255,255,255)" fill-opacity="0.0078125"/>
  <rect x="11" y="6" width="1" height="1" fill="rgb(0,0,0)" fill-opacity="0.0703125"/>
  <rect x="11" y="7" width="1" height="1" fill="rgb(5,3,3)" fill-opacity="0.5859375"/>
  <rect x="11" y="8" width="1" height="1" fill="rgb(21,46,81)" fill-opacity="0.2890625"/>
  <rect x="11" y="9" width="1" height="1" fill="rgb(100,111,130)" fill-opacity="0.9921875"/>
  <rect x="11" y="10" width="1" height="1" fill="rgb(212,212,212)"/>
  <rect x="11" y="11" width="1" height="1" fill="rgb(92,106,127)"/>
  <rect x="11" y="12" width="1" height="1" fill="rgb(22,45,80)"/>
  <rect x="11" y="13" width="1" height="1" fill="rgb(27,49,83)" fill-opacity="0.9609375"/>
  <rect x="11" y="14" width="1" height="1" fill="rgb(21,47,81)" fill-opacity="0.2421875"/>
  <rect x="11" y="15" width="1" height="6" fill="rgb(255,255,255)" fill-opacity="0.0078125"/>
  <rect x="12" y="0" width="1" height="6" fill="rgb(255,255,255)" fill-opacity="0.0078125"/>
  <rect x="12" y="6" width="1" height="1" fill="rgb(62,58,53)" fill-opacity="0.9453125"/>
  <rect x="12" y="7" width="1" height="1" fill="rgb(202,186,171)"/>
  <rect x="12" y="8" width="1" height="1" fill="rgb(30,25,20)"/>
  <rect x="12" y="9" width="1" height="1" fill="rgb(203,204,204)"/>
  <rect x="12" y="10" width="1" height="1" fill="rgb(99,113,133)" fill-opacity="0.984375"/>
  <rect x="12" y="11" width="1" height="1" fill="rgb(21,46,81)" fill-opacity="0.2890625"/>
  <rect x="12" y="12" width="1" height="9" fill="rgb(255,255,255)" fill-opacity="0.0078125"/>
  <rect x="13" y="0" width="1" height="4" fill="rgb(255,255,255)" fill-opacity="0.0078125"/>
  <rect x="13" y="4" width="1" height="1" fill="rgb(0,0,0)" fill-opacity="0.0390625"/>
  <rect x="13" y="5" width="1" height="1" fill="rgb(0,0,0)" fill-opacity="0.2578125"/>
  <rect x="13" y="6" width="1" height="1" fill="rgb(147,136,127)"/>
  <rect x="13" y="7" width="1" height="1" fill="rgb(218,194,170)"/>
  <rect x="13" y="8" width="1" height="1" fill="rgb(176,136,98)"/>
  <rect x="13" y="9" width="1" height="1" fill="rgb(28,23,19)"/>
  <rect x="13" y="10" width="1" height="1" fill="rgb(21,46,81)" fill-opacity="0.2890625"/>
  <rect x="13" y="11" width="1" height="10" fill="rgb(255,255,255)" fill-opacity="0.0078125"/>
  <rect x="14" y="0" width="1" height="3" fill="rgb(255,255,255)" fill-opacity="0.0078125"/>
  <rect x="14" y="3" width="1" height="1" fill="rgb(0,0,0)" fill-opacity="0.2265625"/>
  <rect x="14" y="4" width="1" height="1" fill="rgb(57,53,49)" fill-opacity="0.96875"/>
  <rect x="14" y="5" width="1" height="1" fill="rgb(185,170,155)" fill-opacity="0.9921875"/>
  <rect x="14" y="6" width="1" height="1" fill="rgb(238,227,217)"/>
  <rect x="14" y="7" width="1" height="1" fill="rgb(201,167,135)"/>
  <rect x="14" y="8" width="1" height="1" fill="rgb(164,122,88)"/>
  <rect x="14" y="9" width="1" height="1" fill="rgb(123,88,63)"/>
  <rect x="14" y="10" width="1" height="1" fill="rgb(13,8,6)" fill-opacity="0.625"/>
  <rect x="14" y="11" width="1" height="10" fill="rgb(255,255,255)" fill-opacity="0.0078125"/>
  <rect x="15" y="0" width="1" height="3" fill="rgb(255,255,255)" fill-opacity="0.0078125"/>
  <rect x="15" y="3" width="1" height="1" fill="rgb(30,27,25)" fill-opacity="0.84375"/>
  <rect x="15" y="4" width="1" height="1" fill="rgb(235,225,215)"/>
  <rect x="15" y="5" width="1" height="1" fill="rgb(217,192,167)"/>
  <rect x="15" y="6" width="1" height="1" fill="rgb(199,161,124)"/>
  <rect x="15" y="7" width="1" height="1" fill="rgb(164,124,90)"/>
  <rect x="15" y="8" width="1" height="1" fill="rgb(73,52,37)"/>
  <rect x="15" y="9" width="1" height="1" fill="rgb(39,25,18)" fill-opacity="0.9609375"/>
  <rect x="15" y="10" width="1" height="1" fill="rgb(0,0,0)" fill-opacity="0.1015625"/>
  <rect x="15" y="11" width="1" height="10" fill="rgb(255,255,255)" fill-opacity="0.0078125"/>
  <rect x="16" y="0" width="1" height="3" fill="rgb(255,255,255)" fill-opacity="0.0078125"/>
  <rect x="16" y="3" width="1" height="1" fill="rgb(24,22,19)" fill-opacity="0.828125"/>
  <rect x="16" y="4" width="1" height="1" fill="rgb(222,206,191)"/>
  <rect x="16" y="5" width="1" height="1" fill="rgb(192,150,109)"/>
  <rect x="16" y="6" width="1" height="1" fill="rgb(173,131,95)"/>
  <rect x="16" y="7" width="1" height="1" fill="rgb(109,80,56)" fill-opacity="0.984375"/>
  <rect x="16" y="8" width="1" height="1" fill="rgb(0,0,0)" fill-opacity="0.2890625"/>
  <rect x="16" y="9" width="1" height="1" fill="rgb(0,0,0)" fill-opacity="0.015625"/>
  <rect x="16" y="10" width="1" height="11" fill="rgb(255,255,255)" fill-opacity="0.0078125"/>
  <rect x="17" y="0" width="1" height="3" fill="rgb(255,255,255)" fill-opacity="0.0078125"/>
  <rect x="17" y="3" width="1" height="1" fill="rgb(0,0,0)" fill-opacity="0.3203125"/>
  <rect x="17" y="4" width="1" height="1" fill="rgb(39,30,23)" fill-opacity="0.9609375"/>
  <rect x="17" y="5" width="1" height="1" fill="rgb(153,116,84)"/>
  <rect x="17" y="6" width="1" height="1" fill="rgb(137,99,71)"/>
  <rect x="17" y="7" width="1" height="1" fill="rgb(15,10,8)" fill-opacity="0.96875"/>
  <rect x="17" y="8" width="1" height="1" fill="rgb(0,0,0)" fill-opacity="0.0546875"/>
  <rect x="17" y="9" width="1" height="12" fill="rgb(255,255,255)" fill-opacity="0.0078125"/>
  <rect x="18" y="0" width="1" height="4" fill="rgb(255,255,255)" fill-opacity="0.0078125"/>
  <rect x="18" y="4" width="1" height="1" fill="rgb(0,0,0)" fill-opacity="0.3359375"/>
  <rect x="18" y="5" width="1" height="1" fill="rgb(9,7,5)" fill-opacity="0.84375"/>
  <rect x="18" y="6" width="1" height="1" fill="rgb(7,5,3)" fill-opacity="0.8828125"/>
  <rect x="18" y="7" width="1" height="1" fill="rgb(0,0,0)" fill-opacity="0.265625"/>
  <rect x="18" y="8" width="1" height="13" fill="rgb(255,255,255)" fill-opacity="0.0078125"/>
  <rect x="19" y="0" width="1" height="21" fill="rgb(255,255,255)" fill-opacity="0.0078125"/>
  <rect x="20" y="0" width="1" height="21" fill="rgb(255,255,255)" fill-opacity="0.0078125"/>
</svg>