<svg xmlns="http://www.w3.org/2000/svg" shape-rendering="crispEdges" width="21" height="21" viewBox="0 0 21 21">
  <rect x="0" y="0" width="1" height="21" fill="rgb(255,255,255)" fill-opacity="0.0078125"/>
  <rect x="1" y="0" width="1" height="21" fill="rgb(255,255,255)" fill-opacity="0.0078125"/>
  <rect x="2" y="0" width="1" height="21" fill="rgb(255,255,255)" fill-opacity="0.0078125"/>
  <rect x="3" y="0" width="1" height="13" fill="rgb(255,255,255)" fill-opacity="0.0078125"/>
  <rect x="3" y="13" width="1" height="1" fill="rgb(0,0,0)" fill-opacity="0.03125"/>
  <rect x="3" y="14" width="1" height="1" fill="rgb(0,0,0)" fill-opacity="0.0703125"/>
  <rect x="3" y="15" width="1" height="1" fill="rgb(0,0,0)" fill-opacity="0.1171875"/>
  <rect x="3" y="16" width="1" height="1" fill="rgb(0,0,0)" fill-opacity="0.09375"/>
  <rect x="3" y="17" width="1" height="4" fill="rgb(255,255,255)" fill-opacity="0.0078125"/>
  <rect x="4" y="0" width="1" height="8" fill="rgb(255,255,255)" fill-opacity="0.0078125"/>
  <rect x="4" y="8" width="1" height="1" fill="rgb(0,0,0)" fill-opacity="0.03125"/>
  <rect x="4" y="9" width="1" height="1" fill="rgb(0,0,0)" fill-opacity="0.25"/>
  <rect x="4" y="10" width="1" height="1" fill="rgb(0,0,0)" fill-opacity="0.515625"/>
  <rect x="4" y="11" width="1" height="1" fill="rgb(5,5,5)" fill-opacity="0.78125"/>
  <rect x="4" y="12" width="1" height="1" fill="rgb(41,41,41)" fill-opacity="0.953125"/>
  <rect x="4" y="13" width="1" height="1" fill="rgb(53,53,53)" fill-opacity="0.9609375"/>
  <rect x="4" y="14" width="1" height="1" fill="rgb(65,65,65)" fill-opacity="0.9609375"/>
  <rect x="4" y="15" width="1" height="1" fill="rgb(76,76,76)" fill-opacity="0.9609375"/>
  <rect x="4" y="16" width="1" height="1" fill="rgb(70,70,70)" fill-opacity="0.9609375"/>
  <rect x="4" y="17" width="1" height="1" fill="rgb(3,3,3)" fill-opacity="0.6015625"/>
  <rect x="4" y="18" width="1" height="3" fill="rgb(255,255,255)" fill-opacity="0.0078125"/>
  <rect x="5" y="0" width="1" height="6" fill="rgb(255,255,255)" fill-opacity="0.0078125"/>
  <rect x="5" y="6" width="1" height="1" fill="rgb(0,0,0)" fill-opacity="0.03125"/>
  <rect x="5" y="7" width="1" height="1" fill="rgb(0,0,0)" fill-opacity="0.4296875"/>
  <rect x="5" y="8" width="1" height="1" fill="rgb(28,28,28)" fill-opacity="0.90625"/>
  <rect x="5" y="9" width="1" height="1" fill="rgb(112,112,112)" fill-opacity="0.9609375"/>
  <rect x="5" y="10" width="1" height="1" fill="rgb(180,180,180)" fill-opacity="0.9609375"/>
  <rect x="5" y="11" width="1" height="1" fill="rgb(243,243,243)" fill-opacity="0.9609375"/>
  <rect x="5" y="12" width="1" height="5" fill="rgb(255,255,255)" fill-opacity="0.9609375"/>
  <rect x="5" y="17" width="1" height="1" fill="rgb(58,58,58)" fill-opacity="0.953125"/>
  <rect x="5" y="18" width="1" height="1" fill="rgb(0,0,0)" fill-opacity="0.0390625"/>
  <rect x="5" y="19" width="1" height="2" fill="rgb(255,255,255)" fill-opacity="0.0078125"/>
  <rect x="6" y="0" width="1" height="4" fill="rgb(255,255,255)" fill-opacity="0.0078125"/>
  <rect x="6" y="4" width="1" height="1" fill="rgb(0,0,0)" fill-opacity="0.015625"/>
  <rect x="6" y="5" width="1" height="1" fill="rgb(0,0,0)" fill-opacity="0.328125"/>
  <rect x="6" y="6" width="1" height="1" fill="rgb(19,19,19)" fill-opacity="0.78125"/>
  <rect x="6" y="7" width="1" height="1" fill="rgb(133,133,133)" fill-opacity="0.9375"/>
  <rect x="6" y="8" width="1" height="1" fill="rgb(236,236,236)" fill-opacity="0.9609375"/>
  <rect x="6" y="9" width="1" height="1" fill="rgb(251,251,251)" fill-opacity="0.9609375"/>
  <rect x="6" y="10" width="1" height="1" fill="rgb(252,252,252)" fill-opacity="0.9609375"/>
  <rect x="6" y="11" width="1" height="1" fill="rgb(200,200,200)" fill-opacity="0.9609375"/>
  <rect x="6" y="12" width="1" height="1" fill="rgb(141,141,141)" fill-opacity="0.9609375"/>
  <rect x="6" y="13" width="1" height="1" fill="rgb(123,123,123)" fill-opacity="0.9609375"/>
  <rect x="6" y="14" width="1" height="1" fill="rgb(111,111,111)" fill-opacity="0.9609375"/>
  <rect x="6" y="15" width="1" height="1" fill="rgb(100,100,100)" fill-opacity="0.9609375"/>
  <rect x="6" y="16" width="1" height="1" fill="rgb(79,79,79)" fill-opacity="0.9609375"/>
  <rect x="6" y="17" width="1" height="1" fill="rgb(0,0,0)" fill-opacity="0.6015625"/>
  <rect x="6" y="18" width="1" height="3" fill="rgb(255,255,255)" fill-opacity="0.0078125"/>
  <rect x="7" y="0" width="1" height="4" fill="rgb(255,255,255)" fill-opacity="0.0078125"/>
  <rect x="7" y="4" width="1" height="1" fill="rgb(6,6,6)" fill-opacity="0.546875"/>
  <rect x="7" y="5" width="1" height="1" fill="rgb(115,115,115)" fill-opacity="0.875"/>
  <rect x="7" y="6" width="1" height="1" fill="rgb(218,218,218)" fill-opacity="0.953125"/>
  <rect x="7" y="7" width="1" height="1" fill="rgb(237,237,237)" fill-opacity="0.9609375"/>
  <rect x="7" y="8" width="1" height="1" fill="rgb(210,210,210)" fill-opacity="0.953125"/>
  <rect x="7" y="9" width="1" height="1" fill="rgb(91,91,91)" fill-opacity="0.953125"/>
  <rect x="7" y="10" width="1" height="1" fill="rgb(17,17,17)" fill-opacity="0.875"/>
  <rect x="7" y="11" width="1" height="1" fill="rgb(0,0,0)" fill-opacity="0.609375"/>
  <rect x="7" y="12" width="1" height="1" fill="rgb(0,0,0)" fill-opacity="0.3671875"/>
  <rect x="7" y="13" width="1" height="1" fill="rgb(0,0,0)" fill-opacity="0.2890625"/>
  <rect x="7" y="14" width="1" height="1" fill="rgb(0,0,0)" fill-opacity="0.2421875"/>
  <rect x="7" y="15" width="1" height="1" fill="rgb(0,0,0)" fill-opacity="0.2265625"/>
  <rect x="7" y="16" width="1" height="1" fill="rgb(0,0,0)" fill-opacity="0.1875"/>
  <rect x="7" y="17" width="1" height="4" fill="rgb(255,255,255)" fill-opacity="0.0078125"/>
  <rect x="8" y="0" width="1" height="3" fill="rgb(255,255,255)" fill-opacity="0.0078125"/>
  <rect x="8" y="3" width="1" height="1" fill="rgb(0,0,0)" fill-opacity="0.015625"/>
  <rect x="8" y="4" width="1" height="1" fill="rgb(62,62,62)" fill-opacity="0.78125"/>
  <rect x="8" y="5" width="1" height="1" fill="rgb(223,223,223)" fill-opacity="0.9609375"/>
  <rect x="8" y="6" width="1" height="1" fill="rgb(208,208,208)" fill-opacity="0.9453125"/>
  <rect x="8" y="7" width="1" height="1" fill="rgb(101,101,101)" fill-opacity="0.890625"/>
  <rect x="8" y="8" width="1" height="1" fill="rgb(6,6,6)" fill-opacity="0.6640625"/>
  <rect x="8" y="9" width="1" height="1" fill="rgb(0,0,0)" fill-opacity="0.2109375"/>
  <rect x="8" y="10" width="1" height="1" fill="rgb(255,255,255)" fill-opacity="0.0078125"/>
  <rect x="8" y="11" width="1" height="1" fill="rgb(0,0,0)" fill-opacity="0.1953125"/>
  <rect x="8" y="12" width="1" height="1" fill="rgb(0,0,0)" fill-opacity="0.5703125"/>
  <rect x="8" y="13" width="1" height="1" fill="rgb(0,0,0)" fill-opacity="0.71875"/>
  <rect x="8" y="14" width="1" height="1" fill="rgb(27,27,27)" fill-opacity="0.859375"/>
  <rect x="8" y="15" width="1" height="1" fill="rgb(58,58,58)" fill-opacity="0.953125"/>
  <rect x="8" y="16" width="1" height="1" fill="rgb(69,69,69)" fill-opacity="0.953125"/>
  <rect x="8" y="17" width="1" height="1" fill="rgb(7,7,7)" fill-opacity="0.6015625"/>
  <rect x="8" y="18" width="1" height="3" fill="rgb(255,255,255)" fill-opacity="0.0078125"/>
  <rect x="9" y="0" width="1" height="4" fill="rgb(255,255,255)" fill-opacity="0.0078125"/>
  <rect x="9" y="4" width="1" height="1" fill="rgb(0,0,0)" fill-opacity="0.4140625"/>
  <rect x="9" y="5" width="1" height="1" fill="rgb(64,64,64)" fill-opacity="0.78125"/>
  <rect x="9" y="6" width="1" height="1" fill="rgb(13,13,13)" fill-opacity="0.6328125"/>
  <rect x="9" y="7" width="1" height="1" fill="rgb(0,0,0)" fill-opacity="0.234375"/>
  <rect x="9" y="8" width="1" height="1" fill="rgb(255,255,255)" fill-opacity="0.0078125"/>
  <rect x="9" y="9" width="1" height="1" fill="rgb(0,0,0)" fill-opacity="0.2265625"/>
  <rect x="9" y="10" width="1" height="1" fill="rgb(9,9,9)" fill-opacity="0.6875"/>
  <rect x="9" y="11" width="1" height="1" fill="rgb(100,100,100)" fill-opacity="0.9609375"/>
  <rect x="9" y="12" width="1" height="1" fill="rgb(207,207,207)" fill-opacity="0.9609375"/>
  <rect x="9" y="13" width="1" height="1" fill="rgb(246,246,246)" fill-opacity="0.9609375"/>
  <rect x="9" y="14" width="1" height="3" fill="rgb(255,255,255)" fill-opacity="0.9609375"/>
  <rect x="9" y="17" width="1" height="1" fill="rgb(61,61,61)" fill-opacity="0.953125"/>
  <rect x="9" y="18" width="1" height="1" fill="rgb(0,0,0)" fill-opacity="0.0546875"/>
  <rect x="9" y="19" width="1" height="2" fill="rgb(255,255,255)" fill-opacity="0.0078125"/>
  <rect x="10" y="0" width="1" height="8" fill="rgb(255,255,255)" fill-opacity="0.0078125"/>
  <rect x="10" y="8" width="1" height="1" fill="rgb(0,0,0)" fill-opacity="0.4140625"/>
  <rect x="10" y="9" width="1" height="1" fill="rgb(83,83,83)" fill-opacity="0.890625"/>
  <rect x="10" y="10" width="1" height="1" fill="rgb(217,217,217)" fill-opacity="0.953125"/>
  <rect x="10" y="11" width="1" height="1" fill="rgb(247,247,247)" fill-opacity="0.9609375"/>
  <rect x="10" y="12" width="1" height="1" fill="rgb(243,243,243)" fill-opacity="0.9609375"/>
  <rect x="10" y="13" width="1" height="1" fill="rgb(194,194,194)" fill-opacity="0.9609375"/>
  <rect x="10" y="14" width="1" height="1" fill="rgb(160,160,160)" fill-opacity="0.9609375"/>
  <rect x="10" y="15" width="1" height="1" fill="rgb(125,125,125)" fill-opacity="0.9609375"/>
  <rect x="10" y="16" width="1" height="1" fill="rgb(87,87,87)" fill-opacity="0.9609375"/>
  <rect x="10" y="17" width="1" height="1" fill="rgb(2,2,2)" fill-opacity="0.6171875"/>
  <rect x="10" y="18" width="1" height="3" fill="rgb(255,255,255)" fill-opacity="0.0078125"/>
  <rect x="11" y="0" width="1" height="6" fill="rgb(255,255,255)" fill-opacity="0.0078125"/>
  <rect x="11" y="6" width="1" height="1" fill="rgb(0,0,0)" fill-opacity="0.03125"/>
  <rect x="11" y="7" width="1" height="1" fill="rgb(0,0,0)" fill-opacity="0.5078125"/>
  <rect x="11" y="8" width="1" height="1" fill="rgb(123,123,123)" fill-opacity="0.875"/>
  <rect x="11" y="9" width="1" height="1" fill="rgb(232,232,232)" fill-opacity="0.9609375"/>
  <rect x="11" y="10" width="1" height="1" fill="rgb(225,225,225)" fill-opacity="0.953125"/>
  <rect x="11" y="11" width="1" height="1" fill="rgb(124,124,124)" fill-opacity="0.9296875"/>
  <rect x="11" y="12" width="1" height="1" fill="rgb(18,18,18)" fill-opacity="0.8828125"/>
  <rect x="11" y="13" width="1" height="1" fill="rgb(0,0,0)" fill-opacity="0.5703125"/>
  <rect x="11" y="14" width="1" height="1" fill="rgb(0,0,0)" fill-opacity="0.421875"/>
  <rect x="11" y="15" width="1" height="1" fill="rgb(0,0,0)" fill-opacity="0.296875"/>
  <rect x="11" y="16" width="1" height="1" fill="rgb(0,0,0)" fill-opacity="0.171875"/>
  <rect x="11" y="17" width="1" height="4" fill="rgb(255,255,255)" fill-opacity="0.0078125"/>
  <rect x="12" y="0" width="1" height="5" fill="rgb(255,255,255)" fill-opacity="0.0078125"/>
  <rect x="12" y="5" width="1" height="1" fill="rgb(0,0,0)" fill-opacity="0.0078125"/>
  <rect x="12" y="6" width="1" height="1" fill="rgb(8,8,8)" fill-opacity="0.5234375"/>
  <rect x="12" y="7" width="1" height="1" fill="rgb(153,153,153)" fill-opacity="0.875"/>
  <rect x="12" y="8" width="1" height="1" fill="rgb(225,225,225)" fill-opacity="0.9609375"/>
  <rect x="12" y="9" width="1" height="1" fill="rgb(199,199,199)" fill-opacity="0.9375"/>
  <rect x="12" y="10" width="1" height="1" fill="rgb(37,37,37)" fill-opacity="0.8203125"/>
  <rect x="12" y="11" width="1" height="1" fill="rgb(0,0,0)" fill-opacity="0.3984375"/>
  <rect x="12" y="12" width="1" height="1" fill="rgb(0,0,0)" fill-opacity="0.125"/>
  <rect x="12" y="13" width="1" height="1" fill="rgb(0,0,0)" fill-opacity="0.3984375"/>
  <rect x="12" y="14" width="1" height="1" fill="rgb(0,0,0)" fill-opacity="0.65625"/>
  <rect x="12" y="15" width="1" height="1" fill="rgb(35,35,35)" fill-opacity="0.90625"/>
  <rect x="12" y="16" width="1" height="1" fill="rgb(68,68,68)" fill-opacity="0.953125"/>
  <rect x="12" y="17" width="1" height="1" fill="rgb(3,3,3)" fill-opacity="0.6015625"/>
  <rect x="12" y="18" width="1" height="3" fill="rgb(255,255,255)" fill-opacity="0.0078125"/>
  <rect x="13" y="0" width="1" height="5" fill="rgb(255,255,255)" fill-opacity="0.0078125"/>
  <rect x="13" y="5" width="1" height="1" fill="rgb(0,0,0)" fill-opacity="0.0078125"/>
  <rect x="13" y="6" width="1" height="1" fill="rgb(65,65,65)" fill-opacity="0.7265625"/>
  <rect x="13" y="7" width="1" height="1" fill="rgb(216,216,216)" fill-opacity="0.9609375"/>
  <rect x="13" y="8" width="1" height="1" fill="rgb(174,174,174)" fill-opacity="0.90625"/>
  <rect x="13" y="9" width="1" height="1" fill="rgb(19,19,19)" fill-opacity="0.6953125"/>
  <rect x="13" y="10" width="1" height="1" fill="rgb(0,0,0)" fill-opacity="0.15625"/>
  <rect x="13" y="11" width="1" height="1" fill="rgb(0,0,0)" fill-opacity="0.0703125"/>
  <rect x="13" y="12" width="1" height="1" fill="rgb(16,16,16)" fill-opacity="0.7421875"/>
  <rect x="13" y="13" width="1" height="1" fill="rgb(146,146,146)" fill-opacity="0.9375"/>
  <rect x="13" y="14" width="1" height="1" fill="rgb(218,218,218)" fill-opacity="0.9609375"/>
  <rect x="13" y="15" width="1" height="2" fill="rgb(255,255,255)" fill-opacity="0.9609375"/>
  <rect x="13" y="17" width="1" height="1" fill="rgb(57,57,57)" fill-opacity="0.953125"/>
  <rect x="13" y="18" width="1" height="1" fill="rgb(0,0,0)" fill-opacity="0.0546875"/>
  <rect x="13" y="19" width="1" height="2" fill="rgb(255,255,255)" fill-opacity="0.0078125"/>
  <rect x="14" y="0" width="1" height="6" fill="rgb(255,255,255)" fill-opacity="0.0078125"/>
  <rect x="14" y="6" width="1" height="1" fill="rgb(0,0,0)" fill-opacity="0.3828125"/>
  <rect x="14" y="7" width="1" height="1" fill="rgb(60,60,60)" fill-opacity="0.7265625"/>
  <rect x="14" y="8" width="1" height="1" fill="rgb(6,6,6)" fill-opacity="0.515625"/>
  <rect x="14" y="9" width="1" height="1" fill="rgb(0,0,0)" fill-opacity="0.0703125"/>
  <rect x="14" y="10" width="1" height="1" fill="rgb(0,0,0)" fill-opacity="0.0546875"/>
  <rect x="14" y="11" width="1" height="1" fill="rgb(12,12,12)" fill-opacity="0.6640625"/>
  <rect x="14" y="12" width="1" height="1" fill="rgb(188,188,188)" fill-opacity="0.9375"/>
  <rect x="14" y="13" width="1" height="1" fill="rgb(244,244,244)" fill-opacity="0.9609375"/>
  <rect x="14" y="14" width="1" height="1" fill="rgb(224,224,224)" fill-opacity="0.9609375"/>
  <rect x="14" y="15" width="1" height="1" fill="rgb(162,162,162)" fill-opacity="0.9609375"/>
  <rect x="14" y="16" width="1" height="1" fill="rgb(93,93,93)" fill-opacity="0.9609375"/>
  <rect x="14" y="17" width="1" height="1" fill="rgb(2,2,2)" fill-opacity="0.6328125"/>
  <rect x="14" y="18" width="1" height="3" fill="rgb(255,255,255)" fill-opacity="0.0078125"/>
  <rect x="15" y="0" width="1" height="7" fill="rgb(255,255,255)" fill-opacity="0.0078125"/>
  <rect x="15" y="7" width="1" height="1" fill="rgb(0,0,0)" fill-opacity="0.03125"/>
  <rect x="15" y="8" width="1" height="2" fill="rgb(255,255,255)" fill-opacity="0.0078125"/>
  <rect x="15" y="10" width="1" height="1" fill="rgb(7,7,7)" fill-opacity="0.5546875"/>
  <rect x="15" y="11" width="1" height="1" fill="rgb(175,175,175)" fill-opacity="0.9140625"/>
  <rect x="15" y="12" width="1" height="1" fill="rgb(235,235,235)" fill-opacity="0.9609375"/>
  <rect x="15" y="13" width="1" height="1" fill="rgb(156,156,156)" fill-opacity="0.921875"/>
  <rect x="15" y="14" width="1" height="1" fill="rgb(1,1,1)" fill-opacity="0.6953125"/>
  <rect x="15" y="15" width="1" height="1" fill="rgb(0,0,0)" fill-opacity="0.421875"/>
  <rect x="15" y="16" width="1" height="1" fill="rgb(0,0,0)" fill-opacity="0.1953125"/>
  <rect x="15" y="17" width="1" height="4" fill="rgb(255,255,255)" fill-opacity="0.0078125"/>
  <rect x="16" y="0" width="1" height="9" fill="rgb(255,255,255)" fill-opacity="0.0078125"/>
  <rect x="16" y="9" width="1" height="1" fill="rgb(0,0,0)" fill-opacity="0.0234375"/>
  <rect x="16" y="10" width="1" height="1" fill="rgb(72,72,72)" fill-opacity="0.7734375"/>
  <rect x="16" y="11" width="1" height="1" fill="rgb(227,227,227)" fill-opacity="0.9609375"/>
  <rect x="16" y="12" width="1" height="1" fill="rgb(166,166,166)" fill-opacity="0.90625"/>
  <rect x="16" y="13" width="1" height="1" fill="rgb(5,5,5)" fill-opacity="0.59375"/>
  <rect x="16" y="14" width="1" height="1" fill="rgb(0,0,0)" fill-opacity="0.0234375"/>
  <rect x="16" y="15" width="1" height="6" fill="rgb(255,255,255)" fill-opacity="0.0078125"/>
  <rect x="17" y="0" width="1" height="10" fill="rgb(255,255,255)" fill-opacity="0.0078125"/>
  <rect x="17" y="10" width="1" height="1" fill="rgb(2,2,2)" fill-opacity="0.4296875"/>
  <rect x="17" y="11" width="1" height="1" fill="rgb(64,64,64)" fill-opacity="0.7734375"/>
  <rect x="17" y="12" width="1" height="1" fill="rgb(8,8,8)" fill-opacity="0.515625"/>
  <rect x="17" y="13" width="1" height="1" fill="rgb(0,0,0)" fill-opacity="0.0390625"/>
  <rect x="17" y="14" width="1" height="7" fill="rgb(255,255,255)" fill-opacity="0.0078125"/>
  <rect x="18" y="0" width="1" height="11" fill="rgb(255,255,255)" fill-opacity="0.0078125"/>
  <rect x="18" y="11" width="1" height="1" fill="rgb(0,0,0)" fill-opacity="0.0390625"/>
  <rect x="18" y="12" width="1" height="9" fill="rgb(255,255,255)" fill-opacity="0.0078125"/>
  <rect x="19" y="0" width="1" height="21" fill="rgb(255,255,255)" fill-opacity="0.0078125"/>
  <rect x="20" y="0" width="1" height="21" fill="rgb(255,255,255)" fill-opacity="0.0078125"/>
</svg>