<svg xmlns="http://www.w3.org/2000/svg" shape-rendering="crispEdges" width="21" height="21" viewBox="0 0 21 21">
  <rect x="0" y="0" width="1" height="21" fill="rgb(255,255,255)" fill-opacity="0.0078125"/>
  <rect x="1" y="0" width="1" height="21" fill="rgb(255,255,255)" fill-opacity="0.0078125"/>
  <rect x="2" y="0" width="1" height="21" fill="rgb(255,255,255)" fill-opacity="0.0078125"/>
  <rect x="3" y="0" width="1" height="21" fill="rgb(255,255,255)" fill-opacity="0.0078125"/>
  <rect x="4" y="0" width="1" height="21" fill="rgb(255,255,255)" fill-opacity="0.0078125"/>
  <rect x="5" y="0" width="1" height="13" fill="rgb(255,255,255)" fill-opacity="0.0078125"/>
  <rect x="5" y="13" width="1" height="1" fill="rgb(9,9,9)" fill-opacity="0.9140625"/>
  <rect x="5" y="14" width="1" height="2" fill="rgb(0,0,0)"/>
  <rect x="5" y="16" width="1" height="1" fill="rgb(9,9,9)" fill-opacity="0.9140625"/>
  <rect x="5" y="17" width="1" height="4" fill="rgb(255,255,255)" fill-opacity="0.0078125"/>
  <rect x="6" y="0" width="1" height="7" fill="rgb(255,255,255)" fill-opacity="0.0078125"/>
  <rect x="6" y="7" width="1" height="1" fill="rgb(0,0,0)"/>
  <rect x="6" y="8" width="1" height="1" fill="rgb(204,204,204)"/>
  <rect x="6" y="9" width="1" height="1" fill="rgb(0,0,0)"/>
  <rect x="6" y="10" width="1" height="1" fill="rgb(204,204,204)"/>
  <rect x="6" y="11" width="1" height="1" fill="rgb(0,0,0)"/>
  <rect x="6" y="12" width="1" height="1" fill="rgb(204,204,204)"/>
  <rect x="6" y="13" width="1" height="1" fill="rgb(0,0,0)"/>
  <rect x="6" y="14" width="1" height="2" fill="rgb(255,255,255)"/>
  <rect x="6" y="16" width="1" height="1" fill="rgb(0,0,0)"/>
  <rect x="6" y="17" width="1" height="4" fill="rgb(255,255,255)" fill-opacity="0.0078125"/>
  <rect x="7" y="0" width="1" height="7" fill="rgb(255,255,255)" fill-opacity="0.0078125"/>
  <rect x="7" y="7" width="1" height="1" fill="rgb(204,204,204)"/>
  <rect x="7" y="8" width="1" height="2" fill="rgb(255,255,255)" fill-opacity="0.015625"/>
  <rect x="7" y="10" width="1" height="3" fill="rgb(255,255,255)" fill-opacity="0.0078125"/>
  <rect x="7" y="13" width="1" height="1" fill="rgb(0,0,0)"/>
  <rect x="7" y="14" width="1" height="2" fill="rgb(255,255,255)"/>
  <rect x="7" y="16" width="1" height="1" fill="rgb(0,0,0)"/>
  <rect x="7" y="17" width="1" height="4" fill="rgb(255,255,255)" fill-opacity="0.0078125"/>
  <rect x="8" y="0" width="1" height="7" fill="rgb(255,255,255)" fill-opacity="0.0078125"/>
  <rect x="8" y="7" width="1" height="1" fill="rgb(0,0,0)"/>
  <rect x="8" y="8" width="1" height="1" fill="rgb(255,255,255)" fill-opacity="0.015625"/>
  <rect x="8" y="9" width="1" height="4" fill="rgb(255,255,255)" fill-opacity="0.0078125"/>
  <rect x="8" y="13" width="1" height="1" fill="rgb(9,9,9)" fill-opacity="0.9140625"/>
  <rect x="8" y="14" width="1" height="2" fill="rgb(0,0,0)"/>
  <rect x="8" y="16" width="1" height="1" fill="rgb(9,9,9)" fill-opacity="0.9140625"/>
  <rect x="8" y="17" width="1" height="4" fill="rgb(255,255,255)" fill-opacity="0.0078125"/>
  <rect x="9" y="0" width="1" height="7" fill="rgb(255,255,255)" fill-opacity="0.0078125"/>
  <rect x="9" y="7" width="1" height="1" fill="rgb(204,204,204)"/>
  <rect x="9" y="8" width="1" height="7" fill="rgb(255,255,255)" fill-opacity="0.0078125"/>
  <rect x="9" y="15" width="1" height="1" fill="rgb(204,204,204)"/>
  <rect x="9" y="16" width="1" height="5" fill="rgb(255,255,255)" fill-opacity="0.0078125"/>
  <rect x="10" y="0" width="1" height="7" fill="rgb(255,255,255)" fill-opacity="0.0078125"/>
  <rect x="10" y="7" width="1" height="1" fill="rgb(0,0,0)"/>
  <rect x="10" y="8" width="1" height="7" fill="rgb(255,255,255)" fill-opacity="0.0078125"/>
  <rect x="10" y="15" width="1" height="1" fill="rgb(0,0,0)"/>
  <rect x="10" y="16" width="1" height="5" fill="rgb(255,255,255)" fill-opacity="0.0078125"/>
  <rect x="11" y="0" width="1" height="7" fill="rgb(255,255,255)" fill-opacity="0.0078125"/>
  <rect x="11" y="7" width="1" height="1" fill="rgb(204,204,204)"/>
  <rect x="11" y="8" width="1" height="7" fill="rgb(255,255,255)" fill-opacity="0.0078125"/>
  <rect x="11" y="15" width="1" height="1" fill="rgb(204,204,204)"/>
  <rect x="11" y="16" width="1" height="5" fill="rgb(255,255,255)" fill-opacity="0.0078125"/>
  <rect x="12" y="0" width="1" height="6" fill="rgb(255,255,255)" fill-opacity="0.0078125"/>
  <rect x="12" y="6" width="1" height="1" fill="rgb(9,9,9)" fill-opacity="0.9140625"/>
  <rect x="12" y="7" width="1" height="2" fill="rgb(0,0,0)"/>
  <rect x="12" y="9" width="1" height="1" fill="rgb(9,9,9)" fill-opacity="0.9140625"/>
  <rect x="12" y="10" width="1" height="5" fill="rgb(255,255,255)" fill-opacity="0.0078125"/>
  <rect x="12" y="15" width="1" height="1" fill="rgb(0,0,0)"/>
  <rect x="12" y="16" width="1" height="5" fill="rgb(255,255,255)" fill-opacity="0.0078125"/>
  <rect x="13" y="0" width="1" height="6" fill="rgb(255,255,255)" fill-opacity="0.0078125"/>
  <rect x="13" y="6" width="1" height="1" fill="rgb(0,0,0)"/>
  <rect x="13" y="7" width="1" height="2" fill="rgb(255,255,255)"/>
  <rect x="13" y="9" width="1" height="1" fill="rgb(0,0,0)"/>
  <rect x="13" y="10" width="1" height="5" fill="rgb(255,255,255)" fill-opacity="0.0078125"/>
  <rect x="13" y="15" width="1" height="1" fill="rgb(204,204,204)"/>
  <rect x="13" y="16" width="1" height="5" fill="rgb(255,255,255)" fill-opacity="0.0078125"/>
  <rect x="14" y="0" width="1" height="6" fill="rgb(255,255,255)" fill-opacity="0.0078125"/>
  <rect x="14" y="6" width="1" height="1" fill="rgb(0,0,0)"/>
  <rect x="14" y="7" width="1" height="2" fill="rgb(255,255,255)"/>
  <rect x="14" y="9" width="1" height="1" fill="rgb(0,0,0)"/>
  <rect x="14" y="10" width="1" height="1" fill="rgb(204,204,204)"/>
  <rect x="14" y="11" width="1" height="1" fill="rgb(0,0,0)"/>
  <rect x="14" y="12" width="1" height="1" fill="rgb(204,204,204)"/>
  <rect x="14" y="13" width="1" height="1" fill="rgb(0,0,0)"/>
  <rect x="14" y="14" width="1" height="1" fill="rgb(204,204,204)"/>
  <rect x="14" y="15" width="1" height="1" fill="rgb(0,0,0)"/>
  <rect x="14" y="16" width="1" height="5" fill="rgb(255,255,255)" fill-opacity="0.0078125"/>
  <rect x="15" y="0" width="1" height="6" fill="rgb(255,255,255)" fill-opacity="0.0078125"/>
  <rect x="15" y="6" width="1" height="1" fill="rgb(9,9,9)" fill-opacity="0.9140625"/>
  <rect x="15" y="7" width="1" height="2" fill="rgb(0,0,0)"/>
  <rect x="15" y="9" width="1" height="1" fill="rgb(9,9,9)" fill-opacity="0.9140625"/>
  <rect x="15" y="10" width="1" height="11" fill="rgb(255,255,255)" fill-opacity="0.0078125"/>
  <rect x="16" y="0" width="1" height="21" fill="rgb(255,255,255)" fill-opacity="0.0078125"/>
  <rect x="17" y="0" width="1" height="21" fill="rgb(255,255,255)" fill-opacity="0.0078125"/>
  <rect x="18" y="0" width="1" height="21" fill="rgb(255,255,255)" fill-opacity="0.0078125"/>
  <rect x="19" y="0" width="1" height="21" fill="rgb(255,255,255)" fill-opacity="0.0078125"/>
  <rect x="20" y="0" width="1" height="21" fill="rgb(255,255,255)" fill-opacity="0.0078125"/>
</svg>