<svg xmlns="http://www.w3.org/2000/svg" shape-rendering="crispEdges" width="21" height="21" viewBox="0 0 21 21">
  <rect x="0" y="0" width="1" height="21" fill="rgb(255,255,255)" fill-opacity="0.0078125"/>
  <rect x="1" y="0" width="1" height="21" fill="rgb(255,255,255)" fill-opacity="0.0078125"/>
  <rect x="2" y="0" width="1" height="21" fill="rgb(255,255,255)" fill-opacity="0.0078125"/>
  <rect x="3" y="0" width="1" height="16" fill="rgb(255,255,255)" fill-opacity="0.0078125"/>
  <rect x="3" y="16" width="1" height="1" fill="rgb(0,0,0)" fill-opacity="0.0234375"/>
  <rect x="3" y="17" width="1" height="1" fill="rgb(0,0,0)" fill-opacity="0.0390625"/>
  <rect x="3" y="18" width="1" height="3" fill="rgb(255,255,255)" fill-opacity="0.0078125"/>
  <rect x="4" y="0" width="1" height="15" fill="rgb(255,255,255)" fill-opacity="0.0078125"/>
  <rect x="4" y="15" width="1" height="1" fill="rgb(0,0,0)" fill-opacity="0.1171875"/>
  <rect x="4" y="16" width="1" height="1" fill="rgb(139,109,50)" fill-opacity="0.578125"/>
  <rect x="4" y="17" width="1" height="1" fill="rgb(117,92,42)" fill-opacity="0.5234375"/>
  <rect x="4" y="18" width="1" height="1" fill="rgb(0,0,0)" fill-opacity="0.03125"/>
  <rect x="4" y="19" width="1" height="2" fill="rgb(255,255,255)" fill-opacity="0.0078125"/>
  <rect x="5" y="0" width="1" height="5" fill="rgb(255,255,255)" fill-opacity="0.0078125"/>
  <rect x="5" y="5" width="1" height="1" fill="rgb(27,53,91)" fill-opacity="0.75"/>
  <rect x="5" y="6" width="1" height="1" fill="rgb(27,52,90)" fill-opacity="0.8984375"/>
  <rect x="5" y="7" width="1" height="2" fill="rgb(28,53,90)" fill-opacity="0.8984375"/>
  <rect x="5" y="9" width="1" height="1" fill="rgb(27,53,89)" fill-opacity="0.9140625"/>
  <rect x="5" y="10" width="1" height="1" fill="rgb(29,55,91)" fill-opacity="0.8984375"/>
  <rect x="5" y="11" width="1" height="2" fill="rgb(30,55,91)" fill-opacity="0.8984375"/>
  <rect x="5" y="13" width="1" height="1" fill="rgb(31,56,91)" fill-opacity="0.8984375"/>
  <rect x="5" y="14" width="1" height="1" fill="rgb(44,65,97)" fill-opacity="0.625"/>
  <rect x="5" y="15" width="1" height="1" fill="rgb(157,123,58)" fill-opacity="0.625"/>
  <rect x="5" y="16" width="1" height="1" fill="rgb(254,201,93)" fill-opacity="0.9921875"/>
  <rect x="5" y="17" width="1" height="1" fill="rgb(119,95,44)" fill-opacity="0.625"/>
  <rect x="5" y="18" width="1" height="1" fill="rgb(0,0,0)" fill-opacity="0.109375"/>
  <rect x="5" y="19" width="1" height="2" fill="rgb(255,255,255)" fill-opacity="0.0078125"/>
  <rect x="6" y="0" width="1" height="5" fill="rgb(255,255,255)" fill-opacity="0.0078125"/>
  <rect x="6" y="5" width="1" height="1" fill="rgb(27,54,91)" fill-opacity="0.9140625"/>
  <rect x="6" y="6" width="1" height="1" fill="rgb(181,201,230)"/>
  <rect x="6" y="7" width="1" height="1" fill="rgb(198,214,237)"/>
  <rect x="6" y="8" width="1" height="1" fill="rgb(185,205,232)"/>
  <rect x="6" y="9" width="1" height="1" fill="rgb(37,63,103)"/>
  <rect x="6" y="10" width="1" height="1" fill="rgb(191,209,234)"/>
  <rect x="6" y="11" width="1" height="1" fill="rgb(207,220,239)"/>
  <rect x="6" y="12" width="1" height="1" fill="rgb(196,212,236)"/>
  <rect x="6" y="13" width="1" height="1" fill="rgb(109,141,186)" fill-opacity="0.921875"/>
  <rect x="6" y="14" width="1" height="1" fill="rgb(155,128,72)" fill-opacity="0.6875"/>
  <rect x="6" y="15" width="1" height="1" fill="rgb(254,201,93)" fill-opacity="0.9921875"/>
  <rect x="6" y="16" width="1" height="1" fill="rgb(131,102,48)" fill-opacity="0.671875"/>
  <rect x="6" y="17" width="1" height="1" fill="rgb(0,0,0)" fill-opacity="0.2890625"/>
  <rect x="6" y="18" width="1" height="1" fill="rgb(0,0,0)" fill-opacity="0.1015625"/>
  <rect x="6" y="19" width="1" height="2" fill="rgb(255,255,255)" fill-opacity="0.0078125"/>
  <rect x="7" y="0" width="1" height="5" fill="rgb(255,255,255)" fill-opacity="0.0078125"/>
  <rect x="7" y="5" width="1" height="1" fill="rgb(29,54,91)" fill-opacity="0.9140625"/>
  <rect x="7" y="6" width="1" height="1" fill="rgb(205,218,238)"/>
  <rect x="7" y="7" width="1" height="1" fill="rgb(101,144,204)"/>
  <rect x="7" y="8" width="1" height="1" fill="rgb(104,146,206)"/>
  <rect x="7" y="9" width="1" height="1" fill="rgb(38,64,103)"/>
  <rect x="7" y="10" width="1" height="1" fill="rgb(212,224,241)"/>
  <rect x="7" y="11" width="1" height="1" fill="rgb(124,160,213)"/>
  <rect x="7" y="12" width="1" height="1" fill="rgb(112,143,188)" fill-opacity="0.921875"/>
  <rect x="7" y="13" width="1" height="1" fill="rgb(155,128,72)" fill-opacity="0.6875"/>
  <rect x="7" y="14" width="1" height="1" fill="rgb(254,201,93)" fill-opacity="0.9921875"/>
  <rect x="7" y="15" width="1" height="1" fill="rgb(130,102,49)" fill-opacity="0.6796875"/>
  <rect x="7" y="16" width="1" height="1" fill="rgb(20,20,20)" fill-opacity="0.4453125"/>
  <rect x="7" y="17" width="1" height="1" fill="rgb(0,0,0)" fill-opacity="0.1171875"/>
  <rect x="7" y="18" width="1" height="3" fill="rgb(255,255,255)" fill-opacity="0.0078125"/>
  <rect x="8" y="0" width="1" height="5" fill="rgb(255,255,255)" fill-opacity="0.0078125"/>
  <rect x="8" y="5" width="1" height="1" fill="rgb(29,54,91)" fill-opacity="0.9140625"/>
  <rect x="8" y="6" width="1" height="1" fill="rgb(196,212,235)"/>
  <rect x="8" y="7" width="1" height="1" fill="rgb(100,143,204)"/>
  <rect x="8" y="8" width="1" height="1" fill="rgb(106,147,206)"/>
  <rect x="8" y="9" width="1" height="1" fill="rgb(39,65,103)"/>
  <rect x="8" y="10" width="1" height="1" fill="rgb(204,219,239)"/>
  <rect x="8" y="11" width="1" height="1" fill="rgb(108,141,186)" fill-opacity="0.921875"/>
  <rect x="8" y="12" width="1" height="1" fill="rgb(155,128,72)" fill-opacity="0.6875"/>
  <rect x="8" y="13" width="1" height="1" fill="rgb(254,201,93)" fill-opacity="0.9921875"/>
  <rect x="8" y="14" width="1" height="1" fill="rgb(130,102,49)" fill-opacity="0.6796875"/>
  <rect x="8" y="15" width="1" height="1" fill="rgb(69,69,69)" fill-opacity="0.5390625"/>
  <rect x="8" y="16" width="1" height="1" fill="rgb(28,28,28)" fill-opacity="0.4375"/>
  <rect x="8" y="17" width="1" height="4" fill="rgb(255,255,255)" fill-opacity="0.0078125"/>
  <rect x="9" y="0" width="1" height="5" fill="rgb(255,255,255)" fill-opacity="0.0078125"/>
  <rect x="9" y="5" width="1" height="1" fill="rgb(26,51,87)" fill-opacity="0.9453125"/>
  <rect x="9" y="6" width="1" height="1" fill="rgb(37,64,104)"/>
  <rect x="9" y="7" width="1" height="1" fill="rgb(38,64,103)"/>
  <rect x="9" y="8" width="1" height="1" fill="rgb(39,65,103)"/>
  <rect x="9" y="9" width="1" height="1" fill="rgb(25,49,84)"/>
  <rect x="9" y="10" width="1" height="1" fill="rgb(78,106,145)" fill-opacity="0.9453125"/>
  <rect x="9" y="11" width="1" height="1" fill="rgb(155,128,72)" fill-opacity="0.6875"/>
  <rect x="9" y="12" width="1" height="1" fill="rgb(254,201,93)" fill-opacity="0.9921875"/>
  <rect x="9" y="13" width="1" height="1" fill="rgb(130,102,49)" fill-opacity="0.6796875"/>
  <rect x="9" y="14" width="1" height="1" fill="rgb(57,57,57)" fill-opacity="0.53125"/>
  <rect x="9" y="15" width="1" height="1" fill="rgb(133,133,133)" fill-opacity="0.46875"/>
  <rect x="9" y="16" width="1" height="1" fill="rgb(38,38,38)" fill-opacity="0.3671875"/>
  <rect x="9" y="17" width="1" height="4" fill="rgb(255,255,255)" fill-opacity="0.0078125"/>
  <rect x="10" y="0" width="1" height="5" fill="rgb(255,255,255)" fill-opacity="0.0078125"/>
  <rect x="10" y="5" width="1" height="1" fill="rgb(30,55,92)" fill-opacity="0.9140625"/>
  <rect x="10" y="6" width="1" height="1" fill="rgb(190,208,234)"/>
  <rect x="10" y="7" width="1" height="1" fill="rgb(206,220,239)"/>
  <rect x="10" y="8" width="1" height="1" fill="rgb(195,211,235)"/>
  <rect x="10" y="9" width="1" height="1" fill="rgb(72,100,139)" fill-opacity="0.953125"/>
  <rect x="10" y="10" width="1" height="1" fill="rgb(155,128,72)" fill-opacity="0.6875"/>
  <rect x="10" y="11" width="1" height="1" fill="rgb(254,201,93)" fill-opacity="0.9921875"/>
  <rect x="10" y="12" width="1" height="1" fill="rgb(130,102,49)" fill-opacity="0.6796875"/>
  <rect x="10" y="13" width="1" height="1" fill="rgb(57,57,57)" fill-opacity="0.53125"/>
  <rect x="10" y="14" width="1" height="1" fill="rgb(109,109,109)" fill-opacity="0.46875"/>
  <rect x="10" y="15" width="1" height="1" fill="rgb(185,185,185)" fill-opacity="0.40625"/>
  <rect x="10" y="16" width="1" height="1" fill="rgb(41,41,41)" fill-opacity="0.3671875"/>
  <rect x="10" y="17" width="1" height="4" fill="rgb(255,255,255)" fill-opacity="0.0078125"/>
  <rect x="11" y="0" width="1" height="5" fill="rgb(255,255,255)" fill-opacity="0.0078125"/>
  <rect x="11" y="5" width="1" height="1" fill="rgb(31,55,92)" fill-opacity="0.9140625"/>
  <rect x="11" y="6" width="1" height="1" fill="rgb(212,224,241)"/>
  <rect x="11" y="7" width="1" height="1" fill="rgb(123,159,212)"/>
  <rect x="11" y="8" width="1" height="1" fill="rgb(111,141,187)" fill-opacity="0.921875"/>
  <rect x="11" y="9" width="1" height="1" fill="rgb(155,128,72)" fill-opacity="0.6875"/>
  <rect x="11" y="10" width="1" height="1" fill="rgb(254,201,93)" fill-opacity="0.9921875"/>
  <rect x="11" y="11" width="1" height="1" fill="rgb(130,102,49)" fill-opacity="0.6796875"/>
  <rect x="11" y="12" width="1" height="1" fill="rgb(57,57,57)" fill-opacity="0.53125"/>
  <rect x="11" y="13" width="1" height="1" fill="rgb(109,109,109)" fill-opacity="0.46875"/>
  <rect x="11" y="14" width="1" height="1" fill="rgb(163,163,163)" fill-opacity="0.40625"/>
  <rect x="11" y="15" width="1" height="1" fill="rgb(195,195,195)" fill-opacity="0.40625"/>
  <rect x="11" y="16" width="1" height="1" fill="rgb(44,44,44)" fill-opacity="0.3671875"/>
  <rect x="11" y="17" width="1" height="4" fill="rgb(255,255,255)" fill-opacity="0.0078125"/>
  <rect x="12" y="0" width="1" height="5" fill="rgb(255,255,255)" fill-opacity="0.0078125"/>
  <rect x="12" y="5" width="1" height="1" fill="rgb(31,56,92)" fill-opacity="0.9140625"/>
  <rect x="12" y="6" width="1" height="1" fill="rgb(204,218,238)"/>
  <rect x="12" y="7" width="1" height="1" fill="rgb(107,139,185)" fill-opacity="0.921875"/>
  <rect x="12" y="8" width="1" height="1" fill="rgb(155,128,72)" fill-opacity="0.6875"/>
  <rect x="12" y="9" width="1" height="1" fill="rgb(254,201,93)" fill-opacity="0.9921875"/>
  <rect x="12" y="10" width="1" height="1" fill="rgb(130,102,49)" fill-opacity="0.6796875"/>
  <rect x="12" y="11" width="1" height="1" fill="rgb(57,57,57)" fill-opacity="0.53125"/>
  <rect x="12" y="12" width="1" height="1" fill="rgb(109,109,109)" fill-opacity="0.46875"/>
  <rect x="12" y="13" width="1" height="1" fill="rgb(163,163,163)" fill-opacity="0.40625"/>
  <rect x="12" y="14" width="1" height="1" fill="rgb(180,180,180)" fill-opacity="0.40625"/>
  <rect x="12" y="15" width="1" height="1" fill="rgb(205,205,205)" fill-opacity="0.40625"/>
  <rect x="12" y="16" width="1" height="1" fill="rgb(44,44,44)" fill-opacity="0.3671875"/>
  <rect x="12" y="17" width="1" height="4" fill="rgb(255,255,255)" fill-opacity="0.0078125"/>
  <rect x="13" y="0" width="1" height="5" fill="rgb(255,255,255)" fill-opacity="0.0078125"/>
  <rect x="13" y="5" width="1" height="1" fill="rgb(32,56,92)" fill-opacity="0.9140625"/>
  <rect x="13" y="6" width="1" height="1" fill="rgb(108,139,185)" fill-opacity="0.921875"/>
  <rect x="13" y="7" width="1" height="1" fill="rgb(155,128,72)" fill-opacity="0.6875"/>
  <rect x="13" y="8" width="1" height="1" fill="rgb(254,201,93)" fill-opacity="0.9921875"/>
  <rect x="13" y="9" width="1" height="1" fill="rgb(130,102,49)" fill-opacity="0.6796875"/>
  <rect x="13" y="10" width="1" height="1" fill="rgb(59,59,59)" fill-opacity="0.53125"/>
  <rect x="13" y="11" width="1" height="1" fill="rgb(109,109,109)" fill-opacity="0.46875"/>
  <rect x="13" y="12" width="1" height="1" fill="rgb(165,165,165)" fill-opacity="0.40625"/>
  <rect x="13" y="13" width="1" height="1" fill="rgb(180,180,180)" fill-opacity="0.40625"/>
  <rect x="13" y="14" width="1" height="1" fill="rgb(200,200,200)" fill-opacity="0.40625"/>
  <rect x="13" y="15" width="1" height="1" fill="rgb(220,220,220)" fill-opacity="0.40625"/>
  <rect x="13" y="16" width="1" height="1" fill="rgb(47,47,47)" fill-opacity="0.3671875"/>
  <rect x="13" y="17" width="1" height="4" fill="rgb(255,255,255)" fill-opacity="0.0078125"/>
  <rect x="14" y="0" width="1" height="5" fill="rgb(255,255,255)" fill-opacity="0.0078125"/>
  <rect x="14" y="5" width="1" height="1" fill="rgb(42,66,99)" fill-opacity="0.6875"/>
  <rect x="14" y="6" width="1" height="1" fill="rgb(155,128,72)" fill-opacity="0.6875"/>
  <rect x="14" y="7" width="1" height="1" fill="rgb(254,201,93)" fill-opacity="0.9921875"/>
  <rect x="14" y="8" width="1" height="1" fill="rgb(130,102,49)" fill-opacity="0.6796875"/>
  <rect x="14" y="9" width="1" height="1" fill="rgb(59,59,59)" fill-opacity="0.53125"/>
  <rect x="14" y="10" width="1" height="1" fill="rgb(111,111,111)" fill-opacity="0.46875"/>
  <rect x="14" y="11" width="1" height="1" fill="rgb(165,165,165)" fill-opacity="0.40625"/>
  <rect x="14" y="12" width="1" height="1" fill="rgb(183,183,183)" fill-opacity="0.40625"/>
  <rect x="14" y="13" width="1" height="1" fill="rgb(200,200,200)" fill-opacity="0.40625"/>
  <rect x="14" y="14" width="1" height="1" fill="rgb(220,220,220)" fill-opacity="0.40625"/>
  <rect x="14" y="15" width="1" height="1" fill="rgb(238,238,238)" fill-opacity="0.40625"/>
  <rect x="14" y="16" width="1" height="1" fill="rgb(49,49,49)" fill-opacity="0.3671875"/>
  <rect x="14" y="17" width="1" height="4" fill="rgb(255,255,255)" fill-opacity="0.0078125"/>
  <rect x="15" y="0" width="1" height="4" fill="rgb(255,255,255)" fill-opacity="0.0078125"/>
  <rect x="15" y="4" width="1" height="1" fill="rgb(0,0,0)" fill-opacity="0.1171875"/>
  <rect x="15" y="5" width="1" height="1" fill="rgb(157,123,58)" fill-opacity="0.625"/>
  <rect x="15" y="6" width="1" height="1" fill="rgb(254,201,93)" fill-opacity="0.9921875"/>
  <rect x="15" y="7" width="1" height="1" fill="rgb(130,102,49)" fill-opacity="0.6796875"/>
  <rect x="15" y="8" width="1" height="1" fill="rgb(74,74,74)" fill-opacity="0.5390625"/>
  <rect x="15" y="9" width="1" height="1" fill="rgb(141,141,141)" fill-opacity="0.46875"/>
  <rect x="15" y="10" width="1" height="1" fill="rgb(190,190,190)" fill-opacity="0.40625"/>
  <rect x="15" y="11" width="1" height="1" fill="rgb(200,200,200)" fill-opacity="0.40625"/>
  <rect x="15" y="12" width="1" height="1" fill="rgb(210,210,210)" fill-opacity="0.40625"/>
  <rect x="15" y="13" width="1" height="1" fill="rgb(223,223,223)" fill-opacity="0.40625"/>
  <rect x="15" y="14" width="1" height="1" fill="rgb(238,238,238)" fill-opacity="0.40625"/>
  <rect x="15" y="15" width="1" height="1" fill="rgb(255,255,255)" fill-opacity="0.40625"/>
  <rect x="15" y="16" width="1" height="1" fill="rgb(49,49,49)" fill-opacity="0.3671875"/>
  <rect x="15" y="17" width="1" height="4" fill="rgb(255,255,255)" fill-opacity="0.0078125"/>
  <rect x="16" y="0" width="1" height="3" fill="rgb(255,255,255)" fill-opacity="0.0078125"/>
  <rect x="16" y="3" width="1" height="1" fill="rgb(0,0,0)" fill-opacity="0.0390625"/>
  <rect x="16" y="4" width="1" height="1" fill="rgb(141,112,52)" fill-opacity="0.5859375"/>
  <rect x="16" y="5" width="1" height="1" fill="rgb(254,201,93)" fill-opacity="0.9921875"/>
  <rect x="16" y="6" width="1" height="1" fill="rgb(131,102,48)" fill-opacity="0.671875"/>
  <rect x="16" y="7" width="1" height="1" fill="rgb(24,24,24)" fill-opacity="0.46875"/>
  <rect x="16" y="8" width="1" height="1" fill="rgb(27,27,27)" fill-opacity="0.4453125"/>
  <rect x="16" y="9" width="1" height="1" fill="rgb(41,41,41)" fill-opacity="0.375"/>
  <rect x="16" y="10" width="1" height="1" fill="rgb(43,43,43)" fill-opacity="0.375"/>
  <rect x="16" y="11" width="1" height="1" fill="rgb(46,46,46)" fill-opacity="0.375"/>
  <rect x="16" y="12" width="1" height="2" fill="rgb(49,49,49)" fill-opacity="0.375"/>
  <rect x="16" y="14" width="1" height="2" fill="rgb(52,52,52)" fill-opacity="0.375"/>
  <rect x="16" y="16" width="1" height="1" fill="rgb(42,42,42)" fill-opacity="0.34375"/>
  <rect x="16" y="17" width="1" height="4" fill="rgb(255,255,255)" fill-opacity="0.0078125"/>
  <rect x="17" y="0" width="1" height="3" fill="rgb(255,255,255)" fill-opacity="0.0078125"/>
  <rect x="17" y="3" width="1" height="1" fill="rgb(0,0,0)" fill-opacity="0.03125"/>
  <rect x="17" y="4" width="1" height="1" fill="rgb(117,92,42)" fill-opacity="0.5234375"/>
  <rect x="17" y="5" width="1" height="1" fill="rgb(117,93,42)" fill-opacity="0.6171875"/>
  <rect x="17" y="6" width="1" height="1" fill="rgb(0,0,0)" fill-opacity="0.296875"/>
  <rect x="17" y="7" width="1" height="1" fill="rgb(0,0,0)" fill-opacity="0.1171875"/>
  <rect x="17" y="8" width="1" height="13" fill="rgb(255,255,255)" fill-opacity="0.0078125"/>
  <rect x="18" y="0" width="1" height="4" fill="rgb(255,255,255)" fill-opacity="0.0078125"/>
  <rect x="18" y="4" width="1" height="1" fill="rgb(0,0,0)" fill-opacity="0.0390625"/>
  <rect x="18" y="5" width="1" height="2" fill="rgb(0,0,0)" fill-opacity="0.1015625"/>
  <rect x="18" y="7" width="1" height="14" fill="rgb(255,255,255)" fill-opacity="0.0078125"/>
  <rect x="19" y="0" width="1" height="21" fill="rgb(255,255,255)" fill-opacity="0.0078125"/>
  <rect x="20" y="0" width="1" height="21" fill="rgb(255,255,255)" fill-opacity="0.0078125"/>
</svg>