<svg xmlns="http://www.w3.org/2000/svg" shape-rendering="crispEdges" width="21" height="21" viewBox="0 0 21 21">
  <rect x="0" y="0" width="1" height="21" fill="rgb(255,255,255)" fill-opacity="0.0078125"/>
  <rect x="1" y="0" width="1" height="21" fill="rgb(255,255,255)" fill-opacity="0.0078125"/>
  <rect x="2" y="0" width="1" height="21" fill="rgb(255,255,255)" fill-opacity="0.0078125"/>
  <rect x="3" y="0" width="1" height="21" fill="rgb(255,255,255)" fill-opacity="0.0078125"/>
  <rect x="4" y="0" width="1" height="21" fill="rgb(255,255,255)" fill-opacity="0.0078125"/>
  <rect x="5" y="0" width="1" height="21" fill="rgb(255,255,255)" fill-opacity="0.0078125"/>
  <rect x="6" y="0" width="1" height="21" fill="rgb(255,255,255)" fill-opacity="0.0078125"/>
  <rect x="7" y="0" width="1" height="21" fill="rgb(255,255,255)" fill-opacity="0.0078125"/>
  <rect x="8" y="0" width="1" height="3" fill="rgb(255,255,255)" fill-opacity="0.0078125"/>
  <rect x="8" y="3" width="1" height="1" fill="rgb(49,49,49)" fill-opacity="0.265625"/>
  <rect x="8" y="4" width="1" height="1" fill="rgb(60,60,60)" fill-opacity="0.8515625"/>
  <rect x="8" y="5" width="1" height="1" fill="rgb(61,61,61)" fill-opacity="0.8515625"/>
  <rect x="8" y="6" width="1" height="1" fill="rgb(59,59,59)" fill-opacity="0.8515625"/>
  <rect x="8" y="7" width="1" height="1" fill="rgb(50,50,50)" fill-opacity="0.625"/>
  <rect x="8" y="8" width="1" height="1" fill="rgb(23,23,23)" fill-opacity="0.140625"/>
  <rect x="8" y="9" width="1" height="4" fill="rgb(255,255,255)" fill-opacity="0.0078125"/>
  <rect x="8" y="13" width="1" height="1" fill="rgb(43,43,43)" fill-opacity="0.3515625"/>
  <rect x="8" y="14" width="1" height="1" fill="rgb(53,53,53)" fill-opacity="0.8125"/>
  <rect x="8" y="15" width="1" height="1" fill="rgb(62,62,62)" fill-opacity="0.84375"/>
  <rect x="8" y="16" width="1" height="1" fill="rgb(61,61,61)" fill-opacity="0.8515625"/>
  <rect x="8" y="17" width="1" height="1" fill="rgb(60,60,60)" fill-opacity="0.84375"/>
  <rect x="8" y="18" width="1" height="1" fill="rgb(53,53,53)" fill-opacity="0.2734375"/>
  <rect x="8" y="19" width="1" height="2" fill="rgb(255,255,255)" fill-opacity="0.0078125"/>
  <rect x="9" y="0" width="1" height="3" fill="rgb(255,255,255)" fill-opacity="0.0078125"/>
  <rect x="9" y="3" width="1" height="1" fill="rgb(188,188,188)" fill-opacity="0.40625"/>
  <rect x="9" y="4" width="1" height="2" fill="rgb(255,255,255)"/>
  <rect x="9" y="6" width="1" height="1" fill="rgb(238,238,238)"/>
  <rect x="9" y="7" width="1" height="1" fill="rgb(220,220,220)"/>
  <rect x="9" y="8" width="1" height="1" fill="rgb(62,62,62)" fill-opacity="0.90625"/>
  <rect x="9" y="9" width="1" height="1" fill="rgb(27,27,27)" fill-opacity="0.15625"/>
  <rect x="9" y="10" width="1" height="2" fill="rgb(255,255,255)" fill-opacity="0.0078125"/>
  <rect x="9" y="12" width="1" height="1" fill="rgb(26,26,26)" fill-opacity="0.234375"/>
  <rect x="9" y="13" width="1" height="1" fill="rgb(84,84,84)" fill-opacity="0.9296875"/>
  <rect x="9" y="14" width="1" height="2" fill="rgb(255,255,255)"/>
  <rect x="9" y="16" width="1" height="1" fill="rgb(238,238,238)"/>
  <rect x="9" y="17" width="1" height="1" fill="rgb(220,220,220)"/>
  <rect x="9" y="18" width="1" height="1" fill="rgb(206,206,206)" fill-opacity="0.3515625"/>
  <rect x="9" y="19" width="1" height="2" fill="rgb(255,255,255)" fill-opacity="0.0078125"/>
  <rect x="10" y="0" width="1" height="3" fill="rgb(255,255,255)" fill-opacity="0.0078125"/>
  <rect x="10" y="3" width="1" height="1" fill="rgb(255,255,255)" fill-opacity="0.40625"/>
  <rect x="10" y="4" width="1" height="1" fill="rgb(59,59,59)" fill-opacity="0.859375"/>
  <rect x="10" y="5" width="1" height="1" fill="rgb(61,61,61)" fill-opacity="0.8515625"/>
  <rect x="10" y="6" width="1" height="1" fill="rgb(59,59,59)" fill-opacity="0.859375"/>
  <rect x="10" y="7" width="1" height="1" fill="rgb(136,136,136)" fill-opacity="0.9375"/>
  <rect x="10" y="8" width="1" height="1" fill="rgb(220,220,220)"/>
  <rect x="10" y="9" width="1" height="1" fill="rgb(47,47,47)" fill-opacity="0.578125"/>
  <rect x="10" y="10" width="1" height="2" fill="rgb(255,255,255)" fill-opacity="0.0078125"/>
  <rect x="10" y="12" width="1" height="1" fill="rgb(50,50,50)" fill-opacity="0.671875"/>
  <rect x="10" y="13" width="1" height="1" fill="rgb(255,255,255)"/>
  <rect x="10" y="14" width="1" height="1" fill="rgb(129,129,129)" fill-opacity="0.9296875"/>
  <rect x="10" y="15" width="1" height="1" fill="rgb(60,60,60)" fill-opacity="0.859375"/>
  <rect x="10" y="16" width="1" height="1" fill="rgb(61,61,61)" fill-opacity="0.8515625"/>
  <rect x="10" y="17" width="1" height="1" fill="rgb(60,60,60)" fill-opacity="0.8671875"/>
  <rect x="10" y="18" width="1" height="1" fill="rgb(149,149,149)" fill-opacity="0.3359375"/>
  <rect x="10" y="19" width="1" height="2" fill="rgb(255,255,255)" fill-opacity="0.0078125"/>
  <rect x="11" y="0" width="1" height="3" fill="rgb(255,255,255)" fill-opacity="0.0078125"/>
  <rect x="11" y="3" width="1" height="1" fill="rgb(60,60,60)" fill-opacity="0.359375"/>
  <rect x="11" y="4" width="1" height="3" fill="rgb(0,0,0)" fill-opacity="0.15625"/>
  <rect x="11" y="7" width="1" height="1" fill="rgb(59,59,59)" fill-opacity="0.8828125"/>
  <rect x="11" y="8" width="1" height="1" fill="rgb(220,220,220)"/>
  <rect x="11" y="9" width="1" height="1" fill="rgb(49,49,49)" fill-opacity="0.84375"/>
  <rect x="11" y="10" width="1" height="2" fill="rgb(255,255,255)" fill-opacity="0.0078125"/>
  <rect x="11" y="12" width="1" height="1" fill="rgb(51,51,51)" fill-opacity="0.875"/>
  <rect x="11" y="13" width="1" height="1" fill="rgb(220,220,220)"/>
  <rect x="11" y="14" width="1" height="1" fill="rgb(62,62,62)" fill-opacity="0.8671875"/>
  <rect x="11" y="15" width="1" height="3" fill="rgb(0,0,0)" fill-opacity="0.15625"/>
  <rect x="11" y="18" width="1" height="1" fill="rgb(61,61,61)" fill-opacity="0.3203125"/>
  <rect x="11" y="19" width="1" height="2" fill="rgb(255,255,255)" fill-opacity="0.0078125"/>
  <rect x="12" y="0" width="1" height="3" fill="rgb(255,255,255)" fill-opacity="0.0078125"/>
  <rect x="12" y="3" width="1" height="1" fill="rgb(135,135,135)" fill-opacity="0.3828125"/>
  <rect x="12" y="4" width="1" height="1" fill="rgb(59,59,59)" fill-opacity="0.859375"/>
  <rect x="12" y="5" width="1" height="1" fill="rgb(61,61,61)" fill-opacity="0.8515625"/>
  <rect x="12" y="6" width="1" height="1" fill="rgb(59,59,59)" fill-opacity="0.859375"/>
  <rect x="12" y="7" width="1" height="1" fill="rgb(136,136,136)" fill-opacity="0.9375"/>
  <rect x="12" y="8" width="1" height="1" fill="rgb(220,220,220)"/>
  <rect x="12" y="9" width="1" height="1" fill="rgb(47,47,47)" fill-opacity="0.578125"/>
  <rect x="12" y="10" width="1" height="2" fill="rgb(255,255,255)" fill-opacity="0.0078125"/>
  <rect x="12" y="12" width="1" height="1" fill="rgb(50,50,50)" fill-opacity="0.671875"/>
  <rect x="12" y="13" width="1" height="1" fill="rgb(220,220,220)"/>
  <rect x="12" y="14" width="1" height="1" fill="rgb(129,129,129)" fill-opacity="0.9296875"/>
  <rect x="12" y="15" width="1" height="1" fill="rgb(60,60,60)" fill-opacity="0.859375"/>
  <rect x="12" y="16" width="1" height="1" fill="rgb(61,61,61)" fill-opacity="0.8515625"/>
  <rect x="12" y="17" width="1" height="1" fill="rgb(59,59,59)" fill-opacity="0.8671875"/>
  <rect x="12" y="18" width="1" height="1" fill="rgb(143,143,143)" fill-opacity="0.3359375"/>
  <rect x="12" y="19" width="1" height="2" fill="rgb(255,255,255)" fill-opacity="0.0078125"/>
  <rect x="13" y="0" width="1" height="3" fill="rgb(255,255,255)" fill-opacity="0.0078125"/>
  <rect x="13" y="3" width="1" height="1" fill="rgb(188,188,188)" fill-opacity="0.40625"/>
  <rect x="13" y="4" width="1" height="4" fill="rgb(220,220,220)"/>
  <rect x="13" y="8" width="1" height="1" fill="rgb(62,62,62)" fill-opacity="0.90625"/>
  <rect x="13" y="9" width="1" height="1" fill="rgb(27,27,27)" fill-opacity="0.15625"/>
  <rect x="13" y="10" width="1" height="2" fill="rgb(255,255,255)" fill-opacity="0.0078125"/>
  <rect x="13" y="12" width="1" height="1" fill="rgb(26,26,26)" fill-opacity="0.234375"/>
  <rect x="13" y="13" width="1" height="1" fill="rgb(84,84,84)" fill-opacity="0.9296875"/>
  <rect x="13" y="14" width="1" height="4" fill="rgb(220,220,220)"/>
  <rect x="13" y="18" width="1" height="1" fill="rgb(181,181,181)" fill-opacity="0.3515625"/>
  <rect x="13" y="19" width="1" height="2" fill="rgb(255,255,255)" fill-opacity="0.0078125"/>
  <rect x="14" y="0" width="1" height="3" fill="rgb(255,255,255)" fill-opacity="0.0078125"/>
  <rect x="14" y="3" width="1" height="1" fill="rgb(49,49,49)" fill-opacity="0.265625"/>
  <rect x="14" y="4" width="1" height="1" fill="rgb(60,60,60)" fill-opacity="0.8515625"/>
  <rect x="14" y="5" width="1" height="1" fill="rgb(61,61,61)" fill-opacity="0.8515625"/>
  <rect x="14" y="6" width="1" height="1" fill="rgb(59,59,59)" fill-opacity="0.8515625"/>
  <rect x="14" y="7" width="1" height="1" fill="rgb(50,50,50)" fill-opacity="0.625"/>
  <rect x="14" y="8" width="1" height="1" fill="rgb(23,23,23)" fill-opacity="0.140625"/>
  <rect x="14" y="9" width="1" height="4" fill="rgb(255,255,255)" fill-opacity="0.0078125"/>
  <rect x="14" y="13" width="1" height="1" fill="rgb(43,43,43)" fill-opacity="0.3515625"/>
  <rect x="14" y="14" width="1" height="1" fill="rgb(53,53,53)" fill-opacity="0.8125"/>
  <rect x="14" y="15" width="1" height="1" fill="rgb(62,62,62)" fill-opacity="0.84375"/>
  <rect x="14" y="16" width="1" height="1" fill="rgb(61,61,61)" fill-opacity="0.8515625"/>
  <rect x="14" y="17" width="1" height="1" fill="rgb(60,60,60)" fill-opacity="0.84375"/>
  <rect x="14" y="18" width="1" height="1" fill="rgb(48,48,48)" fill-opacity="0.2109375"/>
  <rect x="14" y="19" width="1" height="2" fill="rgb(255,255,255)" fill-opacity="0.0078125"/>
  <rect x="15" y="0" width="1" height="21" fill="rgb(255,255,255)" fill-opacity="0.0078125"/>
  <rect x="16" y="0" width="1" height="21" fill="rgb(255,255,255)" fill-opacity="0.0078125"/>
  <rect x="17" y="0" width="1" height="21" fill="rgb(255,255,255)" fill-opacity="0.0078125"/>
  <rect x="18" y="0" width="1" height="21" fill="rgb(255,255,255)" fill-opacity="0.0078125"/>
  <rect x="19" y="0" width="1" height="21" fill="rgb(255,255,255)" fill-opacity="0.0078125"/>
  <rect x="20" y="0" width="1" height="21" fill="rgb(255,255,255)" fill-opacity="0.0078125"/>
</svg>