<svg xmlns="http://www.w3.org/2000/svg" shape-rendering="crispEdges" width="21" height="21" viewBox="0 0 21 21">
  <rect x="0" y="0" width="1" height="21" fill="rgb(255,255,255)" fill-opacity="0.0078125"/>
  <rect x="1" y="0" width="1" height="21" fill="rgb(255,255,255)" fill-opacity="0.0078125"/>
  <rect x="2" y="0" width="1" height="21" fill="rgb(255,255,255)" fill-opacity="0.0078125"/>
  <rect x="3" y="0" width="1" height="11" fill="rgb(255,255,255)" fill-opacity="0.0078125"/>
  <rect x="3" y="11" width="1" height="1" fill="rgb(52,52,52)" fill-opacity="0.296875"/>
  <rect x="3" y="12" width="1" height="1" fill="rgb(50,50,50)" fill-opacity="0.84375"/>
  <rect x="3" y="13" width="1" height="1" fill="rgb(50,50,50)" fill-opacity="0.796875"/>
  <rect x="3" y="14" width="1" height="1" fill="rgb(47,47,47)" fill-opacity="0.28125"/>
  <rect x="3" y="15" width="1" height="6" fill="rgb(255,255,255)" fill-opacity="0.0078125"/>
  <rect x="4" y="0" width="1" height="11" fill="rgb(255,255,255)" fill-opacity="0.0078125"/>
  <rect x="4" y="11" width="1" height="1" fill="rgb(56,51,50)" fill-opacity="0.8984375"/>
  <rect x="4" y="12" width="1" height="1" fill="rgb(246,169,134)" fill-opacity="0.9296875"/>
  <rect x="4" y="13" width="1" height="1" fill="rgb(246,165,131)" fill-opacity="0.8828125"/>
  <rect x="4" y="14" width="1" height="1" fill="rgb(50,50,50)" fill-opacity="0.71875"/>
  <rect x="4" y="15" width="1" height="6" fill="rgb(255,255,255)" fill-opacity="0.0078125"/>
  <rect x="5" y="0" width="1" height="10" fill="rgb(255,255,255)" fill-opacity="0.0078125"/>
  <rect x="5" y="10" width="1" height="1" fill="rgb(51,51,51)" fill-opacity="0.2578125"/>
  <rect x="5" y="11" width="1" height="1" fill="rgb(143,76,46)" fill-opacity="0.9296875"/>
  <rect x="5" y="12" width="1" height="1" fill="rgb(246,165,131)" fill-opacity="0.8828125"/>
  <rect x="5" y="13" width="1" height="1" fill="rgb(239,101,41)" fill-opacity="0.8359375"/>
  <rect x="5" y="14" width="1" height="1" fill="rgb(51,51,51)" fill-opacity="0.6953125"/>
  <rect x="5" y="15" width="1" height="6" fill="rgb(255,255,255)" fill-opacity="0.0078125"/>
  <rect x="6" y="0" width="1" height="9" fill="rgb(255,255,255)" fill-opacity="0.0078125"/>
  <rect x="6" y="9" width="1" height="1" fill="rgb(36,36,36)" fill-opacity="0.03125"/>
  <rect x="6" y="10" width="1" height="1" fill="rgb(84,60,51)" fill-opacity="0.8125"/>
  <rect x="6" y="11" width="1" height="1" fill="rgb(233,100,42)" fill-opacity="0.8828125"/>
  <rect x="6" y="12" width="1" height="1" fill="rgb(238,101,41)" fill-opacity="0.8359375"/>
  <rect x="6" y="13" width="1" height="1" fill="rgb(97,63,49)" fill-opacity="0.78125"/>
  <rect x="6" y="14" width="1" height="1" fill="rgb(47,47,47)" fill-opacity="0.2578125"/>
  <rect x="6" y="15" width="1" height="6" fill="rgb(255,255,255)" fill-opacity="0.0078125"/>
  <rect x="7" y="0" width="1" height="3" fill="rgb(255,255,255)" fill-opacity="0.0078125"/>
  <rect x="7" y="3" width="1" height="1" fill="rgb(50,50,50)" fill-opacity="0.2890625"/>
  <rect x="7" y="4" width="1" height="1" fill="rgb(50,50,50)" fill-opacity="0.7578125"/>
  <rect x="7" y="5" width="1" height="1" fill="rgb(50,50,50)" fill-opacity="0.8828125"/>
  <rect x="7" y="6" width="1" height="1" fill="rgb(50,50,50)" fill-opacity="0.7578125"/>
  <rect x="7" y="7" width="1" height="1" fill="rgb(52,52,52)" fill-opacity="0.6640625"/>
  <rect x="7" y="8" width="1" height="1" fill="rgb(51,51,51)" fill-opacity="0.6484375"/>
  <rect x="7" y="9" width="1" height="1" fill="rgb(51,51,51)" fill-opacity="0.7109375"/>
  <rect x="7" y="10" width="1" height="1" fill="rgb(189,87,43)" fill-opacity="0.8828125"/>
  <rect x="7" y="11" width="1" height="1" fill="rgb(239,101,41)" fill-opacity="0.8359375"/>
  <rect x="7" y="12" width="1" height="1" fill="rgb(167,82,45)" fill-opacity="0.7890625"/>
  <rect x="7" y="13" width="1" height="1" fill="rgb(52,52,52)" fill-opacity="0.2890625"/>
  <rect x="7" y="14" width="1" height="7" fill="rgb(255,255,255)" fill-opacity="0.0078125"/>
  <rect x="8" y="0" width="1" height="3" fill="rgb(255,255,255)" fill-opacity="0.0078125"/>
  <rect x="8" y="3" width="1" height="1" fill="rgb(50,50,50)" fill-opacity="0.7578125"/>
  <rect x="8" y="4" width="1" height="2" fill="rgb(150,187,242)"/>
  <rect x="8" y="6" width="1" height="1" fill="rgb(73,137,233)"/>
  <rect x="8" y="7" width="1" height="1" fill="rgb(73,137,233)" fill-opacity="0.9765625"/>
  <rect x="8" y="8" width="1" height="1" fill="rgb(73,137,233)" fill-opacity="0.9296875"/>
  <rect x="8" y="9" width="1" height="1" fill="rgb(104,157,237)" fill-opacity="0.8828125"/>
  <rect x="8" y="10" width="1" height="1" fill="rgb(225,235,249)" fill-opacity="0.8359375"/>
  <rect x="8" y="11" width="1" height="1" fill="rgb(200,133,117)" fill-opacity="0.78125"/>
  <rect x="8" y="12" width="1" height="1" fill="rgb(68,56,51)" fill-opacity="0.578125"/>
  <rect x="8" y="13" width="1" height="1" fill="rgb(0,0,0)" fill-opacity="0.0078125"/>
  <rect x="8" y="14" width="1" height="7" fill="rgb(255,255,255)" fill-opacity="0.0078125"/>
  <rect x="9" y="0" width="1" height="3" fill="rgb(255,255,255)" fill-opacity="0.0078125"/>
  <rect x="9" y="3" width="1" height="1" fill="rgb(50,50,50)" fill-opacity="0.7578125"/>
  <rect x="9" y="4" width="1" height="1" fill="rgb(149,186,242)"/>
  <rect x="9" y="5" width="1" height="1" fill="rgb(74,138,233)"/>
  <rect x="9" y="6" width="1" height="1" fill="rgb(73,137,233)" fill-opacity="0.9765625"/>
  <rect x="9" y="7" width="1" height="1" fill="rgb(73,137,233)" fill-opacity="0.9296875"/>
  <rect x="9" y="8" width="1" height="1" fill="rgb(73,137,233)" fill-opacity="0.8828125"/>
  <rect x="9" y="9" width="1" height="1" fill="rgb(109,160,237)" fill-opacity="0.828125"/>
  <rect x="9" y="10" width="1" height="1" fill="rgb(236,242,252)" fill-opacity="0.78125"/>
  <rect x="9" y="11" width="1" height="1" fill="rgb(166,165,130)" fill-opacity="0.734375"/>
  <rect x="9" y="12" width="1" height="1" fill="rgb(58,60,53)" fill-opacity="0.515625"/>
  <rect x="9" y="13" width="1" height="8" fill="rgb(255,255,255)" fill-opacity="0.0078125"/>
  <rect x="10" y="0" width="1" height="3" fill="rgb(255,255,255)" fill-opacity="0.0078125"/>
  <rect x="10" y="3" width="1" height="1" fill="rgb(50,50,50)" fill-opacity="0.2890625"/>
  <rect x="10" y="4" width="1" height="1" fill="rgb(50,50,50)" fill-opacity="0.765625"/>
  <rect x="10" y="5" width="1" height="1" fill="rgb(50,50,50)" fill-opacity="0.8359375"/>
  <rect x="10" y="6" width="1" height="1" fill="rgb(50,50,50)" fill-opacity="0.703125"/>
  <rect x="10" y="7" width="1" height="1" fill="rgb(52,52,52)" fill-opacity="0.578125"/>
  <rect x="10" y="8" width="1" height="1" fill="rgb(51,51,51)" fill-opacity="0.546875"/>
  <rect x="10" y="9" width="1" height="1" fill="rgb(50,50,50)" fill-opacity="0.6015625"/>
  <rect x="10" y="10" width="1" height="1" fill="rgb(119,140,60)" fill-opacity="0.734375"/>
  <rect x="10" y="11" width="1" height="1" fill="rgb(134,161,63)" fill-opacity="0.703125"/>
  <rect x="10" y="12" width="1" height="1" fill="rgb(89,103,53)" fill-opacity="0.703125"/>
  <rect x="10" y="13" width="1" height="1" fill="rgb(74,74,74)" fill-opacity="0.8203125"/>
  <rect x="10" y="14" width="1" height="4" fill="rgb(87,87,87)" fill-opacity="0.859375"/>
  <rect x="10" y="18" width="1" height="1" fill="rgb(78,78,78)" fill-opacity="0.71875"/>
  <rect x="10" y="19" width="1" height="2" fill="rgb(255,255,255)" fill-opacity="0.0078125"/>
  <rect x="11" y="0" width="1" height="9" fill="rgb(255,255,255)" fill-opacity="0.0078125"/>
  <rect x="11" y="9" width="1" height="1" fill="rgb(32,32,32)" fill-opacity="0.1328125"/>
  <rect x="11" y="10" width="1" height="1" fill="rgb(43,45,38)" fill-opacity="0.7890625"/>
  <rect x="11" y="11" width="1" height="1" fill="rgb(58,65,43)" fill-opacity="0.890625"/>
  <rect x="11" y="12" width="1" height="1" fill="rgb(91,95,79)" fill-opacity="0.90625"/>
  <rect x="11" y="13" width="1" height="1" fill="rgb(114,115,114)" fill-opacity="0.984375"/>
  <rect x="11" y="14" width="1" height="4" fill="rgb(255,255,255)"/>
  <rect x="11" y="18" width="1" height="1" fill="rgb(88,88,88)" fill-opacity="0.859375"/>
  <rect x="11" y="19" width="1" height="2" fill="rgb(255,255,255)" fill-opacity="0.0078125"/>
  <rect x="12" y="0" width="1" height="9" fill="rgb(255,255,255)" fill-opacity="0.0078125"/>
  <rect x="12" y="9" width="1" height="1" fill="rgb(27,27,27)" fill-opacity="0.453125"/>
  <rect x="12" y="10" width="1" height="1" fill="rgb(120,120,120)" fill-opacity="0.84375"/>
  <rect x="12" y="11" width="1" height="1" fill="rgb(239,240,239)" fill-opacity="0.9921875"/>
  <rect x="12" y="12" width="1" height="6" fill="rgb(255,255,255)"/>
  <rect x="12" y="18" width="1" height="1" fill="rgb(90,90,90)" fill-opacity="0.859375"/>
  <rect x="12" y="19" width="1" height="2" fill="rgb(255,255,255)" fill-opacity="0.0078125"/>
  <rect x="13" y="0" width="1" height="8" fill="rgb(255,255,255)" fill-opacity="0.0078125"/>
  <rect x="13" y="8" width="1" height="1" fill="rgb(32,32,32)" fill-opacity="0.0390625"/>
  <rect x="13" y="9" width="1" height="1" fill="rgb(28,28,28)" fill-opacity="0.6796875"/>
  <rect x="13" y="10" width="1" height="1" fill="rgb(236,236,236)" fill-opacity="0.96875"/>
  <rect x="13" y="11" width="1" height="1" fill="rgb(203,203,203)" fill-opacity="0.9609375"/>
  <rect x="13" y="12" width="1" height="1" fill="rgb(107,109,101)" fill-opacity="0.8828125"/>
  <rect x="13" y="13" width="1" height="1" fill="rgb(115,116,114)" fill-opacity="0.984375"/>
  <rect x="13" y="14" width="1" height="4" fill="rgb(255,255,255)"/>
  <rect x="13" y="18" width="1" height="1" fill="rgb(89,89,89)" fill-opacity="0.859375"/>
  <rect x="13" y="19" width="1" height="2" fill="rgb(255,255,255)" fill-opacity="0.0078125"/>
  <rect x="14" y="0" width="1" height="8" fill="rgb(255,255,255)" fill-opacity="0.0078125"/>
  <rect x="14" y="8" width="1" height="1" fill="rgb(27,27,27)" fill-opacity="0.1875"/>
  <rect x="14" y="9" width="1" height="1" fill="rgb(66,66,66)" fill-opacity="0.75"/>
  <rect x="14" y="10" width="1" height="1" fill="rgb(255,255,255)"/>
  <rect x="14" y="11" width="1" height="1" fill="rgb(118,118,118)" fill-opacity="0.8359375"/>
  <rect x="14" y="12" width="1" height="1" fill="rgb(34,34,34)" fill-opacity="0.6875"/>
  <rect x="14" y="13" width="1" height="1" fill="rgb(80,80,80)" fill-opacity="0.9375"/>
  <rect x="14" y="14" width="1" height="1" fill="rgb(254,254,254)"/>
  <rect x="14" y="15" width="1" height="1" fill="rgb(245,245,245)"/>
  <rect x="14" y="16" width="1" height="1" fill="rgb(244,244,244)"/>
  <rect x="14" y="17" width="1" height="1" fill="rgb(249,249,249)"/>
  <rect x="14" y="18" width="1" height="1" fill="rgb(85,85,85)" fill-opacity="0.859375"/>
  <rect x="14" y="19" width="1" height="2" fill="rgb(255,255,255)" fill-opacity="0.0078125"/>
  <rect x="15" y="0" width="1" height="8" fill="rgb(255,255,255)" fill-opacity="0.0078125"/>
  <rect x="15" y="8" width="1" height="1" fill="rgb(32,32,32)" fill-opacity="0.0390625"/>
  <rect x="15" y="9" width="1" height="1" fill="rgb(28,28,28)" fill-opacity="0.6796875"/>
  <rect x="15" y="10" width="1" height="1" fill="rgb(220,220,220)" fill-opacity="0.96875"/>
  <rect x="15" y="11" width="1" height="1" fill="rgb(195,195,195)" fill-opacity="0.921875"/>
  <rect x="15" y="12" width="1" height="1" fill="rgb(89,89,89)" fill-opacity="0.7734375"/>
  <rect x="15" y="13" width="1" height="1" fill="rgb(107,107,107)" fill-opacity="0.96875"/>
  <rect x="15" y="14" width="1" height="1" fill="rgb(250,250,250)"/>
  <rect x="15" y="15" width="1" height="2" fill="rgb(223,223,223)"/>
  <rect x="15" y="17" width="1" height="1" fill="rgb(234,234,234)"/>
  <rect x="15" y="18" width="1" height="1" fill="rgb(82,82,82)" fill-opacity="0.859375"/>
  <rect x="15" y="19" width="1" height="2" fill="rgb(255,255,255)" fill-opacity="0.0078125"/>
  <rect x="16" y="0" width="1" height="9" fill="rgb(255,255,255)" fill-opacity="0.0078125"/>
  <rect x="16" y="9" width="1" height="1" fill="rgb(27,27,27)" fill-opacity="0.453125"/>
  <rect x="16" y="10" width="1" height="1" fill="rgb(108,108,108)" fill-opacity="0.8125"/>
  <rect x="16" y="11" width="1" height="1" fill="rgb(209,209,209)" fill-opacity="0.9765625"/>
  <rect x="16" y="12" width="1" height="2" fill="rgb(220,220,220)"/>
  <rect x="16" y="14" width="1" height="1" fill="rgb(243,243,243)"/>
  <rect x="16" y="15" width="1" height="2" fill="rgb(202,202,202)"/>
  <rect x="16" y="17" width="1" height="1" fill="rgb(216,216,216)"/>
  <rect x="16" y="18" width="1" height="1" fill="rgb(78,78,78)" fill-opacity="0.859375"/>
  <rect x="16" y="19" width="1" height="2" fill="rgb(255,255,255)" fill-opacity="0.0078125"/>
  <rect x="17" y="0" width="1" height="9" fill="rgb(255,255,255)" fill-opacity="0.0078125"/>
  <rect x="17" y="9" width="1" height="1" fill="rgb(29,29,29)" fill-opacity="0.109375"/>
  <rect x="17" y="10" width="1" height="1" fill="rgb(26,26,26)" fill-opacity="0.4609375"/>
  <rect x="17" y="11" width="1" height="1" fill="rgb(33,33,33)" fill-opacity="0.703125"/>
  <rect x="17" y="12" width="1" height="1" fill="rgb(68,68,68)" fill-opacity="0.765625"/>
  <rect x="17" y="13" width="1" height="1" fill="rgb(95,95,95)" fill-opacity="0.96875"/>
  <rect x="17" y="14" width="1" height="1" fill="rgb(226,226,226)"/>
  <rect x="17" y="15" width="1" height="1" fill="rgb(219,219,219)"/>
  <rect x="17" y="16" width="1" height="1" fill="rgb(207,207,207)"/>
  <rect x="17" y="17" width="1" height="1" fill="rgb(194,194,194)"/>
  <rect x="17" y="18" width="1" height="1" fill="rgb(73,73,73)" fill-opacity="0.859375"/>
  <rect x="17" y="19" width="1" height="2" fill="rgb(255,255,255)" fill-opacity="0.0078125"/>
  <rect x="18" y="0" width="1" height="11" fill="rgb(255,255,255)" fill-opacity="0.0078125"/>
  <rect x="18" y="11" width="1" height="1" fill="rgb(30,30,30)" fill-opacity="0.0703125"/>
  <rect x="18" y="12" width="1" height="1" fill="rgb(28,28,28)" fill-opacity="0.1796875"/>
  <rect x="18" y="13" width="1" height="1" fill="rgb(63,63,63)" fill-opacity="0.765625"/>
  <rect x="18" y="14" width="1" height="3" fill="rgb(73,73,73)" fill-opacity="0.859375"/>
  <rect x="18" y="17" width="1" height="1" fill="rgb(71,71,71)" fill-opacity="0.859375"/>
  <rect x="18" y="18" width="1" height="1" fill="rgb(66,66,66)" fill-opacity="0.71875"/>
  <rect x="18" y="19" width="1" height="2" fill="rgb(255,255,255)" fill-opacity="0.0078125"/>
  <rect x="19" y="0" width="1" height="21" fill="rgb(255,255,255)" fill-opacity="0.0078125"/>
  <rect x="20" y="0" width="1" height="21" fill="rgb(255,255,255)" fill-opacity="0.0078125"/>
</svg>