<svg xmlns="http://www.w3.org/2000/svg" shape-rendering="crispEdges" width="21" height="21" viewBox="0 0 21 21">
  <rect x="0" y="0" width="21" height="1" fill="rgb(255,255,255)" fill-opacity="0.0078125"/>
  <rect x="0" y="1" width="21" height="1" fill="rgb(255,255,255)" fill-opacity="0.0078125"/>
  <rect x="0" y="2" width="21" height="1" fill="rgb(255,255,255)" fill-opacity="0.0078125"/>
  <rect x="0" y="3" width="3" height="1" fill="rgb(255,255,255)" fill-opacity="0.0078125"/>
  <rect x="3" y="3" width="1" height="1" fill="rgb(4,55,132)" fill-opacity="0.734375"/>
  <rect x="4" y="3" width="2" height="1" fill="rgb(0,51,128)" fill-opacity="0.8046875"/>
  <rect x="6" y="3" width="1" height="1" fill="rgb(4,55,132)" fill-opacity="0.734375"/>
  <rect x="7" y="3" width="8" height="1" fill="rgb(255,0,0)" fill-opacity="0.015625"/>
  <rect x="15" y="3" width="1" height="1" fill="rgb(4,55,132)" fill-opacity="0.734375"/>
  <rect x="16" y="3" width="2" height="1" fill="rgb(0,51,128)" fill-opacity="0.8046875"/>
  <rect x="18" y="3" width="1" height="1" fill="rgb(4,55,132)" fill-opacity="0.734375"/>
  <rect x="19" y="3" width="2" height="1" fill="rgb(255,255,255)" fill-opacity="0.0078125"/>
  <rect x="0" y="4" width="3" height="1" fill="rgb(255,255,255)" fill-opacity="0.0078125"/>
  <rect x="3" y="4" width="1" height="1" fill="rgb(0,51,128)" fill-opacity="0.8046875"/>
  <rect x="4" y="4" width="1" height="1" fill="rgb(204,225,255)" fill-opacity="0.8046875"/>
  <rect x="5" y="4" width="1" height="1" fill="rgb(193,218,255)" fill-opacity="0.8046875"/>
  <rect x="6" y="4" width="1" height="1" fill="rgb(0,51,128)" fill-opacity="0.8046875"/>
  <rect x="7" y="4" width="1" height="1" fill="rgb(85,0,0)" fill-opacity="0.03125"/>
  <rect x="8" y="4" width="1" height="1" fill="rgb(28,25,25)" fill-opacity="0.359375"/>
  <rect x="9" y="4" width="1" height="1" fill="rgb(39,37,37)" fill-opacity="0.6171875"/>
  <rect x="10" y="4" width="2" height="1" fill="rgb(41,41,41)" fill-opacity="0.8515625"/>
  <rect x="12" y="4" width="1" height="1" fill="rgb(39,37,37)" fill-opacity="0.6171875"/>
  <rect x="13" y="4" width="1" height="1" fill="rgb(28,25,25)" fill-opacity="0.359375"/>
  <rect x="14" y="4" width="1" height="1" fill="rgb(85,0,0)" fill-opacity="0.03125"/>
  <rect x="15" y="4" width="1" height="1" fill="rgb(0,51,128)" fill-opacity="0.8046875"/>
  <rect x="16" y="4" width="1" height="1" fill="rgb(204,225,255)" fill-opacity="0.8046875"/>
  <rect x="17" y="4" width="1" height="1" fill="rgb(193,218,255)" fill-opacity="0.8046875"/>
  <rect x="18" y="4" width="1" height="1" fill="rgb(0,51,128)" fill-opacity="0.8046875"/>
  <rect x="19" y="4" width="2" height="1" fill="rgb(255,255,255)" fill-opacity="0.0078125"/>
  <rect x="0" y="5" width="3" height="1" fill="rgb(255,255,255)" fill-opacity="0.0078125"/>
  <rect x="3" y="5" width="1" height="1" fill="rgb(0,51,128)" fill-opacity="0.8046875"/>
  <rect x="4" y="5" width="1" height="1" fill="rgb(193,218,255)" fill-opacity="0.8046875"/>
  <rect x="5" y="5" width="1" height="1" fill="rgb(128,179,255)" fill-opacity="0.8046875"/>
  <rect x="6" y="5" width="1" height="1" fill="rgb(6,47,107)" fill-opacity="0.8359375"/>
  <rect x="7" y="5" width="1" height="1" fill="rgb(39,39,39)" fill-opacity="0.8515625"/>
  <rect x="8" y="5" width="1" height="1" fill="rgb(113,113,113)" fill-opacity="0.96875"/>
  <rect x="9" y="5" width="1" height="1" fill="rgb(190,190,190)"/>
  <rect x="10" y="5" width="2" height="1" fill="rgb(224,224,224)"/>
  <rect x="12" y="5" width="1" height="1" fill="rgb(190,190,190)"/>
  <rect x="13" y="5" width="1" height="1" fill="rgb(114,114,114)" fill-opacity="0.96875"/>
  <rect x="14" y="5" width="1" height="1" fill="rgb(39,39,39)" fill-opacity="0.8515625"/>
  <rect x="15" y="5" width="1" height="1" fill="rgb(6,47,107)" fill-opacity="0.8359375"/>
  <rect x="16" y="5" width="1" height="1" fill="rgb(193,218,255)" fill-opacity="0.8046875"/>
  <rect x="17" y="5" width="1" height="1" fill="rgb(128,179,255)" fill-opacity="0.8046875"/>
  <rect x="18" y="5" width="1" height="1" fill="rgb(0,51,128)" fill-opacity="0.8046875"/>
  <rect x="19" y="5" width="2" height="1" fill="rgb(255,255,255)" fill-opacity="0.0078125"/>
  <rect x="0" y="6" width="3" height="1" fill="rgb(255,255,255)" fill-opacity="0.0078125"/>
  <rect x="3" y="6" width="1" height="1" fill="rgb(4,55,132)" fill-opacity="0.734375"/>
  <rect x="4" y="6" width="1" height="1" fill="rgb(0,51,128)" fill-opacity="0.8046875"/>
  <rect x="5" y="6" width="1" height="1" fill="rgb(6,44,102)" fill-opacity="0.84375"/>
  <rect x="6" y="6" width="1" height="1" fill="rgb(45,47,49)" fill-opacity="0.9921875"/>
  <rect x="7" y="6" width="1" height="1" fill="rgb(200,200,200)"/>
  <rect x="8" y="6" width="6" height="1" fill="rgb(255,255,255)"/>
  <rect x="14" y="6" width="1" height="1" fill="rgb(196,196,196)"/>
  <rect x="15" y="6" width="1" height="1" fill="rgb(45,47,49)" fill-opacity="0.9921875"/>
  <rect x="16" y="6" width="1" height="1" fill="rgb(6,44,102)" fill-opacity="0.84375"/>
  <rect x="17" y="6" width="1" height="1" fill="rgb(0,51,128)" fill-opacity="0.8046875"/>
  <rect x="18" y="6" width="1" height="1" fill="rgb(4,55,132)" fill-opacity="0.734375"/>
  <rect x="19" y="6" width="2" height="1" fill="rgb(255,255,255)" fill-opacity="0.0078125"/>
  <rect x="0" y="7" width="3" height="1" fill="rgb(255,255,255)" fill-opacity="0.0078125"/>
  <rect x="3" y="7" width="1" height="1" fill="rgb(255,0,0)" fill-opacity="0.015625"/>
  <rect x="4" y="7" width="1" height="1" fill="rgb(77,26,26)" fill-opacity="0.046875"/>
  <rect x="5" y="7" width="1" height="1" fill="rgb(37,37,37)" fill-opacity="0.8828125"/>
  <rect x="6" y="7" width="1" height="1" fill="rgb(209,209,209)"/>
  <rect x="7" y="7" width="6" height="1" fill="rgb(255,255,255)"/>
  <rect x="13" y="7" width="1" height="1" fill="rgb(246,246,246)"/>
  <rect x="14" y="7" width="1" height="1" fill="rgb(235,235,235)"/>
  <rect x="15" y="7" width="1" height="1" fill="rgb(189,189,189)"/>
  <rect x="16" y="7" width="1" height="1" fill="rgb(37,37,37)" fill-opacity="0.8828125"/>
  <rect x="17" y="7" width="1" height="1" fill="rgb(77,26,26)" fill-opacity="0.046875"/>
  <rect x="18" y="7" width="1" height="1" fill="rgb(255,0,0)" fill-opacity="0.015625"/>
  <rect x="19" y="7" width="2" height="1" fill="rgb(255,255,255)" fill-opacity="0.0078125"/>
  <rect x="0" y="8" width="3" height="1" fill="rgb(255,255,255)" fill-opacity="0.0078125"/>
  <rect x="3" y="8" width="1" height="1" fill="rgb(255,0,0)" fill-opacity="0.015625"/>
  <rect x="4" y="8" width="1" height="1" fill="rgb(33,31,31)" fill-opacity="0.4609375"/>
  <rect x="5" y="8" width="1" height="1" fill="rgb(126,126,126)" fill-opacity="0.9765625"/>
  <rect x="6" y="8" width="6" height="1" fill="rgb(255,255,255)"/>
  <rect x="12" y="8" width="1" height="1" fill="rgb(246,246,246)"/>
  <rect x="13" y="8" width="1" height="1" fill="rgb(229,229,229)"/>
  <rect x="14" y="8" width="2" height="1" fill="rgb(213,213,213)"/>
  <rect x="16" y="8" width="1" height="1" fill="rgb(111,111,111)" fill-opacity="0.9765625"/>
  <rect x="17" y="8" width="1" height="1" fill="rgb(33,31,31)" fill-opacity="0.4609375"/>
  <rect x="18" y="8" width="1" height="1" fill="rgb(255,0,0)" fill-opacity="0.015625"/>
  <rect x="19" y="8" width="2" height="1" fill="rgb(255,255,255)" fill-opacity="0.0078125"/>
  <rect x="0" y="9" width="3" height="1" fill="rgb(255,255,255)" fill-opacity="0.0078125"/>
  <rect x="3" y="9" width="1" height="1" fill="rgb(255,0,0)" fill-opacity="0.015625"/>
  <rect x="4" y="9" width="1" height="1" fill="rgb(45,44,44)" fill-opacity="0.7578125"/>
  <rect x="5" y="9" width="1" height="1" fill="rgb(205,205,205)"/>
  <rect x="6" y="9" width="5" height="1" fill="rgb(255,255,255)"/>
  <rect x="11" y="9" width="1" height="1" fill="rgb(247,247,247)"/>
  <rect x="12" y="9" width="1" height="1" fill="rgb(230,230,230)"/>
  <rect x="13" y="9" width="1" height="1" fill="rgb(213,213,213)"/>
  <rect x="14" y="9" width="1" height="1" fill="rgb(196,196,196)"/>
  <rect x="15" y="9" width="1" height="1" fill="rgb(187,187,187)"/>
  <rect x="16" y="9" width="1" height="1" fill="rgb(159,159,159)"/>
  <rect x="17" y="9" width="1" height="1" fill="rgb(45,44,44)" fill-opacity="0.7578125"/>
  <rect x="18" y="9" width="1" height="1" fill="rgb(255,0,0)" fill-opacity="0.015625"/>
  <rect x="19" y="9" width="2" height="1" fill="rgb(255,255,255)" fill-opacity="0.0078125"/>
  <rect x="0" y="10" width="3" height="1" fill="rgb(255,255,255)" fill-opacity="0.0078125"/>
  <rect x="3" y="10" width="1" height="1" fill="rgb(255,0,0)" fill-opacity="0.015625"/>
  <rect x="4" y="10" width="1" height="1" fill="rgb(33,33,33)" fill-opacity="0.9453125"/>
  <rect x="5" y="10" width="1" height="1" fill="rgb(206,206,206)"/>
  <rect x="6" y="10" width="4" height="1" fill="rgb(255,255,255)"/>
  <rect x="10" y="10" width="1" height="1" fill="rgb(247,247,247)"/>
  <rect x="11" y="10" width="1" height="1" fill="rgb(230,230,230)"/>
  <rect x="12" y="10" width="1" height="1" fill="rgb(213,213,213)"/>
  <rect x="13" y="10" width="1" height="1" fill="rgb(197,197,197)"/>
  <rect x="14" y="10" width="1" height="1" fill="rgb(179,179,179)"/>
  <rect x="15" y="10" width="1" height="1" fill="rgb(165,165,165)"/>
  <rect x="16" y="10" width="1" height="1" fill="rgb(123,123,123)"/>
  <rect x="17" y="10" width="1" height="1" fill="rgb(30,30,30)" fill-opacity="0.953125"/>
  <rect x="18" y="10" width="1" height="1" fill="rgb(255,0,0)" fill-opacity="0.015625"/>
  <rect x="19" y="10" width="2" height="1" fill="rgb(255,255,255)" fill-opacity="0.0078125"/>
  <rect x="0" y="11" width="3" height="1" fill="rgb(255,255,255)" fill-opacity="0.0078125"/>
  <rect x="3" y="11" width="1" height="1" fill="rgb(255,0,0)" fill-opacity="0.015625"/>
  <rect x="4" y="11" width="1" height="1" fill="rgb(33,33,33)" fill-opacity="0.9609375"/>
  <rect x="5" y="11" width="1" height="1" fill="rgb(175,175,175)"/>
  <rect x="6" y="11" width="1" height="1" fill="rgb(165,165,165)"/>
  <rect x="7" y="11" width="1" height="1" fill="rgb(235,235,235)"/>
  <rect x="8" y="11" width="1" height="1" fill="rgb(255,255,255)"/>
  <rect x="9" y="11" width="1" height="1" fill="rgb(248,248,248)"/>
  <rect x="10" y="11" width="1" height="1" fill="rgb(231,231,231)"/>
  <rect x="11" y="11" width="1" height="1" fill="rgb(213,213,213)"/>
  <rect x="12" y="11" width="1" height="1" fill="rgb(197,197,197)"/>
  <rect x="13" y="11" width="1" height="1" fill="rgb(180,180,180)"/>
  <rect x="14" y="11" width="1" height="1" fill="rgb(144,144,144)"/>
  <rect x="15" y="11" width="1" height="1" fill="rgb(72,72,72)"/>
  <rect x="16" y="11" width="1" height="1" fill="rgb(89,89,89)"/>
  <rect x="17" y="11" width="1" height="1" fill="rgb(33,33,33)" fill-opacity="0.9609375"/>
  <rect x="18" y="11" width="1" height="1" fill="rgb(255,0,0)" fill-opacity="0.015625"/>
  <rect x="19" y="11" width="2" height="1" fill="rgb(255,255,255)" fill-opacity="0.0078125"/>
  <rect x="0" y="12" width="3" height="1" fill="rgb(255,255,255)" fill-opacity="0.0078125"/>
  <rect x="3" y="12" width="1" height="1" fill="rgb(255,0,0)" fill-opacity="0.015625"/>
  <rect x="4" y="12" width="1" height="1" fill="rgb(44,44,44)" fill-opacity="0.7734375"/>
  <rect x="5" y="12" width="1" height="1" fill="rgb(209,209,209)"/>
  <rect x="6" y="12" width="1" height="1" fill="rgb(220,220,220)"/>
  <rect x="7" y="12" width="1" height="1" fill="rgb(152,152,152)"/>
  <rect x="8" y="12" width="1" height="1" fill="rgb(119,119,119)"/>
  <rect x="9" y="12" width="1" height="1" fill="rgb(101,101,101)"/>
  <rect x="10" y="12" width="1" height="1" fill="rgb(90,90,90)"/>
  <rect x="11" y="12" width="1" height="1" fill="rgb(82,82,82)"/>
  <rect x="12" y="12" width="1" height="1" fill="rgb(71,71,71)"/>
  <rect x="13" y="12" width="1" height="1" fill="rgb(64,64,64)"/>
  <rect x="14" y="12" width="1" height="1" fill="rgb(73,73,73)"/>
  <rect x="15" y="12" width="1" height="1" fill="rgb(116,116,116)"/>
  <rect x="16" y="12" width="1" height="1" fill="rgb(135,135,135)"/>
  <rect x="17" y="12" width="1" height="1" fill="rgb(44,44,44)" fill-opacity="0.7734375"/>
  <rect x="18" y="12" width="1" height="1" fill="rgb(255,0,0)" fill-opacity="0.015625"/>
  <rect x="19" y="12" width="2" height="1" fill="rgb(255,255,255)" fill-opacity="0.0078125"/>
  <rect x="0" y="13" width="3" height="1" fill="rgb(255,255,255)" fill-opacity="0.0078125"/>
  <rect x="3" y="13" width="1" height="1" fill="rgb(255,0,0)" fill-opacity="0.015625"/>
  <rect x="4" y="13" width="1" height="1" fill="rgb(35,33,33)" fill-opacity="0.515625"/>
  <rect x="5" y="13" width="1" height="1" fill="rgb(141,141,141)" fill-opacity="0.984375"/>
  <rect x="6" y="13" width="1" height="1" fill="rgb(255,255,255)"/>
  <rect x="7" y="13" width="1" height="1" fill="rgb(249,249,249)"/>
  <rect x="8" y="13" width="1" height="1" fill="rgb(232,232,232)"/>
  <rect x="9" y="13" width="1" height="1" fill="rgb(214,214,214)"/>
  <rect x="10" y="13" width="1" height="1" fill="rgb(194,194,194)"/>
  <rect x="11" y="13" width="1" height="1" fill="rgb(179,179,179)"/>
  <rect x="12" y="13" width="1" height="1" fill="rgb(164,164,164)"/>
  <rect x="13" y="13" width="1" height="1" fill="rgb(146,146,146)"/>
  <rect x="14" y="13" width="1" height="1" fill="rgb(129,129,129)"/>
  <rect x="15" y="13" width="1" height="1" fill="rgb(138,138,138)"/>
  <rect x="16" y="13" width="1" height="1" fill="rgb(100,100,100)" fill-opacity="0.984375"/>
  <rect x="17" y="13" width="1" height="1" fill="rgb(35,33,33)" fill-opacity="0.515625"/>
  <rect x="18" y="13" width="1" height="1" fill="rgb(255,0,0)" fill-opacity="0.015625"/>
  <rect x="19" y="13" width="2" height="1" fill="rgb(255,255,255)" fill-opacity="0.0078125"/>
  <rect x="0" y="14" width="3" height="1" fill="rgb(255,255,255)" fill-opacity="0.0078125"/>
  <rect x="3" y="14" width="1" height="1" fill="rgb(255,0,0)" fill-opacity="0.015625"/>
  <rect x="4" y="14" width="1" height="1" fill="rgb(57,28,28)" fill-opacity="0.078125"/>
  <rect x="5" y="14" width="1" height="1" fill="rgb(37,37,37)" fill-opacity="0.9296875"/>
  <rect x="6" y="14" width="1" height="1" fill="rgb(216,216,216)"/>
  <rect x="7" y="14" width="1" height="1" fill="rgb(237,237,237)"/>
  <rect x="8" y="14" width="1" height="1" fill="rgb(215,215,215)"/>
  <rect x="9" y="14" width="1" height="1" fill="rgb(197,197,197)"/>
  <rect x="10" y="14" width="1" height="1" fill="rgb(181,181,181)"/>
  <rect x="11" y="14" width="1" height="1" fill="rgb(164,164,164)"/>
  <rect x="12" y="14" width="1" height="1" fill="rgb(147,147,147)"/>
  <rect x="13" y="14" width="1" height="1" fill="rgb(129,129,129)"/>
  <rect x="14" y="14" width="1" height="1" fill="rgb(130,130,130)"/>
  <rect x="15" y="14" width="1" height="1" fill="rgb(129,129,129)"/>
  <rect x="16" y="14" width="1" height="1" fill="rgb(37,37,37)" fill-opacity="0.9296875"/>
  <rect x="17" y="14" width="1" height="1" fill="rgb(57,28,28)" fill-opacity="0.078125"/>
  <rect x="18" y="14" width="1" height="1" fill="rgb(255,0,0)" fill-opacity="0.015625"/>
  <rect x="19" y="14" width="2" height="1" fill="rgb(255,255,255)" fill-opacity="0.0078125"/>
  <rect x="0" y="15" width="3" height="1" fill="rgb(255,255,255)" fill-opacity="0.0078125"/>
  <rect x="3" y="15" width="1" height="1" fill="rgb(4,55,132)" fill-opacity="0.734375"/>
  <rect x="4" y="15" width="1" height="1" fill="rgb(0,51,128)" fill-opacity="0.8046875"/>
  <rect x="5" y="15" width="1" height="1" fill="rgb(8,43,95)" fill-opacity="0.859375"/>
  <rect x="6" y="15" width="1" height="1" fill="rgb(51,53,55)" fill-opacity="0.9921875"/>
  <rect x="7" y="15" width="1" height="1" fill="rgb(197,197,197)"/>
  <rect x="8" y="15" width="1" height="1" fill="rgb(214,214,214)"/>
  <rect x="9" y="15" width="1" height="1" fill="rgb(190,190,190)"/>
  <rect x="10" y="15" width="1" height="1" fill="rgb(168,168,168)"/>
  <rect x="11" y="15" width="1" height="1" fill="rgb(151,151,151)"/>
  <rect x="12" y="15" width="1" height="1" fill="rgb(141,141,141)"/>
  <rect x="13" y="15" width="1" height="1" fill="rgb(138,138,138)"/>
  <rect x="14" y="15" width="1" height="1" fill="rgb(123,123,123)"/>
  <rect x="15" y="15" width="1" height="1" fill="rgb(44,46,48)" fill-opacity="0.9921875"/>
  <rect x="16" y="15" width="1" height="1" fill="rgb(8,43,95)" fill-opacity="0.859375"/>
  <rect x="17" y="15" width="1" height="1" fill="rgb(0,51,128)" fill-opacity="0.8046875"/>
  <rect x="18" y="15" width="1" height="1" fill="rgb(4,55,132)" fill-opacity="0.734375"/>
  <rect x="19" y="15" width="2" height="1" fill="rgb(255,255,255)" fill-opacity="0.0078125"/>
  <rect x="0" y="16" width="3" height="1" fill="rgb(255,255,255)" fill-opacity="0.0078125"/>
  <rect x="3" y="16" width="1" height="1" fill="rgb(0,51,128)" fill-opacity="0.8046875"/>
  <rect x="4" y="16" width="1" height="1" fill="rgb(204,225,255)" fill-opacity="0.8046875"/>
  <rect x="5" y="16" width="1" height="1" fill="rgb(193,218,255)" fill-opacity="0.8046875"/>
  <rect x="6" y="16" width="1" height="1" fill="rgb(8,42,94)" fill-opacity="0.859375"/>
  <rect x="7" y="16" width="1" height="1" fill="rgb(36,36,36)" fill-opacity="0.9296875"/>
  <rect x="8" y="16" width="1" height="1" fill="rgb(118,118,118)" fill-opacity="0.984375"/>
  <rect x="9" y="16" width="1" height="1" fill="rgb(163,163,163)"/>
  <rect x="10" y="16" width="1" height="1" fill="rgb(168,168,168)"/>
  <rect x="11" y="16" width="1" height="1" fill="rgb(160,160,160)"/>
  <rect x="12" y="16" width="1" height="1" fill="rgb(131,131,131)"/>
  <rect x="13" y="16" width="1" height="1" fill="rgb(101,101,101)" fill-opacity="0.9765625"/>
  <rect x="14" y="16" width="1" height="1" fill="rgb(36,36,36)" fill-opacity="0.9296875"/>
  <rect x="15" y="16" width="1" height="1" fill="rgb(8,42,94)" fill-opacity="0.859375"/>
  <rect x="16" y="16" width="1" height="1" fill="rgb(204,225,255)" fill-opacity="0.8046875"/>
  <rect x="17" y="16" width="1" height="1" fill="rgb(193,218,255)" fill-opacity="0.8046875"/>
  <rect x="18" y="16" width="1" height="1" fill="rgb(0,51,128)" fill-opacity="0.8046875"/>
  <rect x="19" y="16" width="2" height="1" fill="rgb(255,255,255)" fill-opacity="0.0078125"/>
  <rect x="0" y="17" width="3" height="1" fill="rgb(255,255,255)" fill-opacity="0.0078125"/>
  <rect x="3" y="17" width="1" height="1" fill="rgb(0,51,128)" fill-opacity="0.8046875"/>
  <rect x="4" y="17" width="1" height="1" fill="rgb(193,218,255)" fill-opacity="0.8046875"/>
  <rect x="5" y="17" width="1" height="1" fill="rgb(128,179,255)" fill-opacity="0.8046875"/>
  <rect x="6" y="17" width="1" height="1" fill="rgb(0,51,128)" fill-opacity="0.8046875"/>
  <rect x="7" y="17" width="1" height="1" fill="rgb(60,30,30)" fill-opacity="0.0703125"/>
  <rect x="8" y="17" width="1" height="1" fill="rgb(34,32,32)" fill-opacity="0.5"/>
  <rect x="9" y="17" width="1" height="1" fill="rgb(44,44,44)" fill-opacity="0.765625"/>
  <rect x="10" y="17" width="2" height="1" fill="rgb(35,35,35)" fill-opacity="0.953125"/>
  <rect x="12" y="17" width="1" height="1" fill="rgb(44,44,44)" fill-opacity="0.765625"/>
  <rect x="13" y="17" width="1" height="1" fill="rgb(34,32,32)" fill-opacity="0.5"/>
  <rect x="14" y="17" width="1" height="1" fill="rgb(60,30,30)" fill-opacity="0.0703125"/>
  <rect x="15" y="17" width="1" height="1" fill="rgb(0,51,128)" fill-opacity="0.8046875"/>
  <rect x="16" y="17" width="1" height="1" fill="rgb(193,218,255)" fill-opacity="0.8046875"/>
  <rect x="17" y="17" width="1" height="1" fill="rgb(128,179,255)" fill-opacity="0.8046875"/>
  <rect x="18" y="17" width="1" height="1" fill="rgb(0,51,128)" fill-opacity="0.8046875"/>
  <rect x="19" y="17" width="2" height="1" fill="rgb(255,255,255)" fill-opacity="0.0078125"/>
  <rect x="0" y="18" width="3" height="1" fill="rgb(255,255,255)" fill-opacity="0.0078125"/>
  <rect x="3" y="18" width="1" height="1" fill="rgb(4,55,132)" fill-opacity="0.734375"/>
  <rect x="4" y="18" width="2" height="1" fill="rgb(0,51,128)" fill-opacity="0.8046875"/>
  <rect x="6" y="18" width="1" height="1" fill="rgb(4,55,132)" fill-opacity="0.734375"/>
  <rect x="7" y="18" width="8" height="1" fill="rgb(255,0,0)" fill-opacity="0.015625"/>
  <rect x="15" y="18" width="1" height="1" fill="rgb(4,55,132)" fill-opacity="0.734375"/>
  <rect x="16" y="18" width="2" height="1" fill="rgb(0,51,128)" fill-opacity="0.8046875"/>
  <rect x="18" y="18" width="1" height="1" fill="rgb(4,55,132)" fill-opacity="0.734375"/>
  <rect x="19" y="18" width="2" height="1" fill="rgb(255,255,255)" fill-opacity="0.0078125"/>
  <rect x="0" y="19" width="21" height="1" fill="rgb(255,255,255)" fill-opacity="0.0078125"/>
  <rect x="0" y="20" width="21" height="1" fill="rgb(255,255,255)" fill-opacity="0.0078125"/>
</svg>