<svg xmlns="http://www.w3.org/2000/svg" shape-rendering="crispEdges" width="21" height="21" viewBox="0 0 21 21">
  <rect x="0" y="0" width="1" height="21" fill="rgb(255,255,255)" fill-opacity="0.0078125"/>
  <rect x="1" y="0" width="1" height="21" fill="rgb(255,255,255)" fill-opacity="0.0078125"/>
  <rect x="2" y="0" width="1" height="21" fill="rgb(255,255,255)" fill-opacity="0.0078125"/>
  <rect x="3" y="0" width="1" height="21" fill="rgb(255,255,255)" fill-opacity="0.0078125"/>
  <rect x="4" y="0" width="1" height="7" fill="rgb(255,255,255)" fill-opacity="0.0078125"/>
  <rect x="4" y="7" width="1" height="1" fill="rgb(21,21,21)" fill-opacity="0.0546875"/>
  <rect x="4" y="8" width="1" height="1" fill="rgb(26,28,30)" fill-opacity="0.5"/>
  <rect x="4" y="9" width="1" height="1" fill="rgb(28,31,33)" fill-opacity="0.78125"/>
  <rect x="4" y="10" width="1" height="2" fill="rgb(27,29,30)" fill-opacity="0.9453125"/>
  <rect x="4" y="12" width="1" height="1" fill="rgb(28,31,33)" fill-opacity="0.7890625"/>
  <rect x="4" y="13" width="1" height="1" fill="rgb(27,29,29)" fill-opacity="0.515625"/>
  <rect x="4" y="14" width="1" height="1" fill="rgb(18,18,18)" fill-opacity="0.0625"/>
  <rect x="4" y="15" width="1" height="6" fill="rgb(255,255,255)" fill-opacity="0.0078125"/>
  <rect x="5" y="0" width="1" height="6" fill="rgb(255,255,255)" fill-opacity="0.0078125"/>
  <rect x="5" y="6" width="1" height="1" fill="rgb(27,27,27)" fill-opacity="0.2578125"/>
  <rect x="5" y="7" width="1" height="1" fill="rgb(29,30,32)" fill-opacity="0.90625"/>
  <rect x="5" y="8" width="1" height="1" fill="rgb(104,113,124)" fill-opacity="0.984375"/>
  <rect x="5" y="9" width="1" height="1" fill="rgb(152,162,175)"/>
  <rect x="5" y="10" width="1" height="1" fill="rgb(177,186,199)"/>
  <rect x="5" y="11" width="1" height="1" fill="rgb(171,181,194)"/>
  <rect x="5" y="12" width="1" height="1" fill="rgb(137,149,164)"/>
  <rect x="5" y="13" width="1" height="1" fill="rgb(90,99,112)" fill-opacity="0.984375"/>
  <rect x="5" y="14" width="1" height="1" fill="rgb(28,30,32)" fill-opacity="0.9140625"/>
  <rect x="5" y="15" width="1" height="1" fill="rgb(26,26,26)" fill-opacity="0.28125"/>
  <rect x="5" y="16" width="1" height="5" fill="rgb(255,255,255)" fill-opacity="0.0078125"/>
  <rect x="6" y="0" width="1" height="5" fill="rgb(255,255,255)" fill-opacity="0.0078125"/>
  <rect x="6" y="5" width="1" height="1" fill="rgb(27,27,27)" fill-opacity="0.265625"/>
  <rect x="6" y="6" width="1" height="1" fill="rgb(51,53,56)" fill-opacity="0.9453125"/>
  <rect x="6" y="7" width="1" height="1" fill="rgb(167,176,187)"/>
  <rect x="6" y="8" width="1" height="1" fill="rgb(163,175,190)"/>
  <rect x="6" y="9" width="1" height="1" fill="rgb(96,116,142)"/>
  <rect x="6" y="10" width="1" height="1" fill="rgb(65,89,119)"/>
  <rect x="6" y="11" width="1" height="1" fill="rgb(64,88,119)"/>
  <rect x="6" y="12" width="1" height="1" fill="rgb(89,109,136)"/>
  <rect x="6" y="13" width="1" height="1" fill="rgb(137,152,171)"/>
  <rect x="6" y="14" width="1" height="1" fill="rgb(132,145,161)"/>
  <rect x="6" y="15" width="1" height="1" fill="rgb(43,45,50)" fill-opacity="0.9453125"/>
  <rect x="6" y="16" width="1" height="1" fill="rgb(24,24,24)" fill-opacity="0.296875"/>
  <rect x="6" y="17" width="1" height="4" fill="rgb(255,255,255)" fill-opacity="0.0078125"/>
  <rect x="7" y="0" width="1" height="4" fill="rgb(255,255,255)" fill-opacity="0.0078125"/>
  <rect x="7" y="4" width="1" height="1" fill="rgb(18,18,18)" fill-opacity="0.0625"/>
  <rect x="7" y="5" width="1" height="1" fill="rgb(30,31,33)" fill-opacity="0.9140625"/>
  <rect x="7" y="6" width="1" height="1" fill="rgb(172,180,191)"/>
  <rect x="7" y="7" width="1" height="1" fill="rgb(124,140,162)"/>
  <rect x="7" y="8" width="1" height="1" fill="rgb(47,73,107)"/>
  <rect x="7" y="9" width="1" height="4" fill="rgb(46,72,106)"/>
  <rect x="7" y="13" width="1" height="1" fill="rgb(56,80,112)"/>
  <rect x="7" y="14" width="1" height="1" fill="rgb(113,130,151)"/>
  <rect x="7" y="15" width="1" height="1" fill="rgb(135,146,160)"/>
  <rect x="7" y="16" width="1" height="1" fill="rgb(29,32,33)" fill-opacity="0.921875"/>
  <rect x="7" y="17" width="1" height="1" fill="rgb(28,28,28)" fill-opacity="0.078125"/>
  <rect x="7" y="18" width="1" height="3" fill="rgb(255,255,255)" fill-opacity="0.0078125"/>
  <rect x="8" y="0" width="1" height="4" fill="rgb(255,255,255)" fill-opacity="0.0078125"/>
  <rect x="8" y="4" width="1" height="1" fill="rgb(27,29,29)" fill-opacity="0.515625"/>
  <rect x="8" y="5" width="1" height="1" fill="rgb(113,121,133)" fill-opacity="0.984375"/>
  <rect x="8" y="6" width="1" height="1" fill="rgb(163,175,190)"/>
  <rect x="8" y="7" width="1" height="1" fill="rgb(47,73,107)"/>
  <rect x="8" y="8" width="1" height="2" fill="rgb(46,72,106)"/>
  <rect x="8" y="10" width="1" height="1" fill="rgb(59,83,115)"/>
  <rect x="8" y="11" width="1" height="1" fill="rgb(46,72,106)"/>
  <rect x="8" y="12" width="1" height="1" fill="rgb(54,79,111)"/>
  <rect x="8" y="13" width="1" height="1" fill="rgb(65,87,116)"/>
  <rect x="8" y="14" width="1" height="1" fill="rgb(75,95,122)"/>
  <rect x="8" y="15" width="1" height="1" fill="rgb(142,154,170)"/>
  <rect x="8" y="16" width="1" height="1" fill="rgb(95,104,113)" fill-opacity="0.984375"/>
  <rect x="8" y="17" width="1" height="1" fill="rgb(31,31,33)" fill-opacity="0.546875"/>
  <rect x="8" y="18" width="1" height="3" fill="rgb(255,255,255)" fill-opacity="0.0078125"/>
  <rect x="9" y="0" width="1" height="4" fill="rgb(255,255,255)" fill-opacity="0.0078125"/>
  <rect x="9" y="4" width="1" height="1" fill="rgb(28,31,33)" fill-opacity="0.7890625"/>
  <rect x="9" y="5" width="1" height="1" fill="rgb(163,172,183)"/>
  <rect x="9" y="6" width="1" height="1" fill="rgb(87,108,135)"/>
  <rect x="9" y="7" width="1" height="3" fill="rgb(46,72,106)"/>
  <rect x="9" y="10" width="1" height="1" fill="rgb(243,244,246)"/>
  <rect x="9" y="11" width="1" height="1" fill="rgb(54,79,111)"/>
  <rect x="9" y="12" width="1" height="1" fill="rgb(64,87,116)"/>
  <rect x="9" y="13" width="1" height="1" fill="rgb(74,95,122)"/>
  <rect x="9" y="14" width="1" height="1" fill="rgb(213,217,223)"/>
  <rect x="9" y="15" width="1" height="1" fill="rgb(116,130,149)"/>
  <rect x="9" y="16" width="1" height="1" fill="rgb(138,146,157)"/>
  <rect x="9" y="17" width="1" height="1" fill="rgb(34,35,38)" fill-opacity="0.8046875"/>
  <rect x="9" y="18" width="1" height="3" fill="rgb(255,255,255)" fill-opacity="0.0078125"/>
  <rect x="10" y="0" width="1" height="4" fill="rgb(255,255,255)" fill-opacity="0.0078125"/>
  <rect x="10" y="4" width="1" height="1" fill="rgb(28,30,31)" fill-opacity="0.953125"/>
  <rect x="10" y="5" width="1" height="1" fill="rgb(191,198,209)"/>
  <rect x="10" y="6" width="1" height="1" fill="rgb(56,81,113)"/>
  <rect x="10" y="7" width="1" height="1" fill="rgb(222,226,232)"/>
  <rect x="10" y="8" width="1" height="1" fill="rgb(221,225,230)"/>
  <rect x="10" y="9" width="1" height="1" fill="rgb(46,72,106)"/>
  <rect x="10" y="10" width="1" height="5" fill="rgb(255,255,255)"/>
  <rect x="10" y="15" width="1" height="1" fill="rgb(111,124,143)"/>
  <rect x="10" y="16" width="1" height="1" fill="rgb(161,169,180)"/>
  <rect x="10" y="17" width="1" height="1" fill="rgb(31,32,32)" fill-opacity="0.9453125"/>
  <rect x="10" y="18" width="1" height="3" fill="rgb(255,255,255)" fill-opacity="0.0078125"/>
  <rect x="11" y="0" width="1" height="4" fill="rgb(255,255,255)" fill-opacity="0.0078125"/>
  <rect x="11" y="4" width="1" height="1" fill="rgb(28,30,31)" fill-opacity="0.953125"/>
  <rect x="11" y="5" width="1" height="1" fill="rgb(186,194,205)"/>
  <rect x="11" y="6" width="1" height="1" fill="rgb(55,80,112)"/>
  <rect x="11" y="7" width="1" height="1" fill="rgb(222,226,232)"/>
  <rect x="11" y="8" width="1" height="1" fill="rgb(221,225,230)"/>
  <rect x="11" y="9" width="1" height="1" fill="rgb(54,78,110)"/>
  <rect x="11" y="10" width="1" height="5" fill="rgb(255,255,255)"/>
  <rect x="11" y="15" width="1" height="1" fill="rgb(119,132,148)"/>
  <rect x="11" y="16" width="1" height="1" fill="rgb(165,172,181)"/>
  <rect x="11" y="17" width="1" height="1" fill="rgb(32,32,33)" fill-opacity="0.9453125"/>
  <rect x="11" y="18" width="1" height="3" fill="rgb(255,255,255)" fill-opacity="0.0078125"/>
  <rect x="12" y="0" width="1" height="4" fill="rgb(255,255,255)" fill-opacity="0.0078125"/>
  <rect x="12" y="4" width="1" height="1" fill="rgb(28,31,33)" fill-opacity="0.7890625"/>
  <rect x="12" y="5" width="1" height="1" fill="rgb(151,160,174)"/>
  <rect x="12" y="6" width="1" height="1" fill="rgb(81,103,131)"/>
  <rect x="12" y="7" width="1" height="1" fill="rgb(46,72,106)"/>
  <rect x="12" y="8" width="1" height="1" fill="rgb(53,78,110)"/>
  <rect x="12" y="9" width="1" height="1" fill="rgb(64,86,116)"/>
  <rect x="12" y="10" width="1" height="1" fill="rgb(74,94,121)"/>
  <rect x="12" y="11" width="1" height="1" fill="rgb(84,102,127)"/>
  <rect x="12" y="12" width="1" height="1" fill="rgb(94,111,133)"/>
  <rect x="12" y="13" width="1" height="1" fill="rgb(104,119,138)"/>
  <rect x="12" y="14" width="1" height="1" fill="rgb(220,223,228)"/>
  <rect x="12" y="15" width="1" height="1" fill="rgb(137,147,160)"/>
  <rect x="12" y="16" width="1" height="1" fill="rgb(147,152,160)"/>
  <rect x="12" y="17" width="1" height="1" fill="rgb(38,38,39)" fill-opacity="0.8046875"/>
  <rect x="12" y="18" width="1" height="3" fill="rgb(255,255,255)" fill-opacity="0.0078125"/>
  <rect x="13" y="0" width="1" height="4" fill="rgb(255,255,255)" fill-opacity="0.0078125"/>
  <rect x="13" y="4" width="1" height="1" fill="rgb(27,29,29)" fill-opacity="0.515625"/>
  <rect x="13" y="5" width="1" height="1" fill="rgb(102,110,122)" fill-opacity="0.984375"/>
  <rect x="13" y="6" width="1" height="1" fill="rgb(140,155,173)"/>
  <rect x="13" y="7" width="1" height="1" fill="rgb(53,78,110)"/>
  <rect x="13" y="8" width="1" height="1" fill="rgb(63,86,116)"/>
  <rect x="13" y="9" width="1" height="1" fill="rgb(73,94,121)"/>
  <rect x="13" y="10" width="1" height="1" fill="rgb(84,102,127)"/>
  <rect x="13" y="11" width="1" height="1" fill="rgb(94,111,132)"/>
  <rect x="13" y="12" width="1" height="1" fill="rgb(104,119,138)"/>
  <rect x="13" y="13" width="1" height="1" fill="rgb(114,127,144)"/>
  <rect x="13" y="14" width="1" height="1" fill="rgb(124,135,149)"/>
  <rect x="13" y="15" width="1" height="1" fill="rgb(162,169,178)"/>
  <rect x="13" y="16" width="1" height="1" fill="rgb(109,112,116)" fill-opacity="0.984375"/>
  <rect x="13" y="17" width="1" height="1" fill="rgb(33,35,35)" fill-opacity="0.546875"/>
  <rect x="13" y="18" width="1" height="3" fill="rgb(255,255,255)" fill-opacity="0.0078125"/>
  <rect x="14" y="0" width="1" height="4" fill="rgb(255,255,255)" fill-opacity="0.0078125"/>
  <rect x="14" y="4" width="1" height="1" fill="rgb(18,18,18)" fill-opacity="0.0625"/>
  <rect x="14" y="5" width="1" height="1" fill="rgb(31,32,34)" fill-opacity="0.9140625"/>
  <rect x="14" y="6" width="1" height="1" fill="rgb(147,157,171)"/>
  <rect x="14" y="7" width="1" height="1" fill="rgb(113,130,152)"/>
  <rect x="14" y="8" width="1" height="1" fill="rgb(73,94,121)"/>
  <rect x="14" y="9" width="1" height="1" fill="rgb(83,102,127)"/>
  <rect x="14" y="10" width="1" height="1" fill="rgb(94,110,132)"/>
  <rect x="14" y="11" width="1" height="1" fill="rgb(104,118,138)"/>
  <rect x="14" y="12" width="1" height="1" fill="rgb(114,127,143)"/>
  <rect x="14" y="13" width="1" height="1" fill="rgb(124,135,149)"/>
  <rect x="14" y="14" width="1" height="1" fill="rgb(152,160,170)"/>
  <rect x="14" y="15" width="1" height="1" fill="rgb(155,160,166)"/>
  <rect x="14" y="16" width="1" height="1" fill="rgb(36,36,36)" fill-opacity="0.921875"/>
  <rect x="14" y="17" width="1" height="1" fill="rgb(28,28,28)" fill-opacity="0.078125"/>
  <rect x="14" y="18" width="1" height="3" fill="rgb(255,255,255)" fill-opacity="0.0078125"/>
  <rect x="15" y="0" width="1" height="5" fill="rgb(255,255,255)" fill-opacity="0.0078125"/>
  <rect x="15" y="5" width="1" height="1" fill="rgb(27,27,27)" fill-opacity="0.265625"/>
  <rect x="15" y="6" width="1" height="1" fill="rgb(48,50,53)" fill-opacity="0.9453125"/>
  <rect x="15" y="7" width="1" height="1" fill="rgb(144,154,167)"/>
  <rect x="15" y="8" width="1" height="1" fill="rgb(146,158,173)"/>
  <rect x="15" y="9" width="1" height="1" fill="rgb(116,130,149)"/>
  <rect x="15" y="10" width="1" height="1" fill="rgb(110,124,143)"/>
  <rect x="15" y="11" width="1" height="1" fill="rgb(120,131,147)"/>
  <rect x="15" y="12" width="1" height="1" fill="rgb(138,148,161)"/>
  <rect x="15" y="13" width="1" height="1" fill="rgb(163,170,179)"/>
  <rect x="15" y="14" width="1" height="1" fill="rgb(154,159,165)"/>
  <rect x="15" y="15" width="1" height="1" fill="rgb(51,51,52)" fill-opacity="0.9453125"/>
  <rect x="15" y="16" width="1" height="1" fill="rgb(28,28,28)" fill-opacity="0.296875"/>
  <rect x="15" y="17" width="1" height="4" fill="rgb(255,255,255)" fill-opacity="0.0078125"/>
  <rect x="16" y="0" width="1" height="6" fill="rgb(255,255,255)" fill-opacity="0.0078125"/>
  <rect x="16" y="6" width="1" height="1" fill="rgb(27,27,27)" fill-opacity="0.2578125"/>
  <rect x="16" y="7" width="1" height="1" fill="rgb(31,32,33)" fill-opacity="0.90625"/>
  <rect x="16" y="8" width="1" height="1" fill="rgb(99,107,114)" fill-opacity="0.9765625"/>
  <rect x="16" y="9" width="1" height="1" fill="rgb(141,149,160)"/>
  <rect x="16" y="10" width="1" height="1" fill="rgb(165,172,183)"/>
  <rect x="16" y="11" width="1" height="1" fill="rgb(167,173,183)"/>
  <rect x="16" y="12" width="1" height="1" fill="rgb(147,153,159)"/>
  <rect x="16" y="13" width="1" height="1" fill="rgb(108,111,114)" fill-opacity="0.9765625"/>
  <rect x="16" y="14" width="1" height="1" fill="rgb(35,36,36)" fill-opacity="0.9140625"/>
  <rect x="16" y="15" width="1" height="1" fill="rgb(26,26,26)" fill-opacity="0.28125"/>
  <rect x="16" y="16" width="1" height="5" fill="rgb(255,255,255)" fill-opacity="0.0078125"/>
  <rect x="17" y="0" width="1" height="7" fill="rgb(255,255,255)" fill-opacity="0.0078125"/>
  <rect x="17" y="7" width="1" height="1" fill="rgb(21,21,21)" fill-opacity="0.0546875"/>
  <rect x="17" y="8" width="1" height="1" fill="rgb(30,30,30)" fill-opacity="0.5"/>
  <rect x="17" y="9" width="1" height="1" fill="rgb(35,35,37)" fill-opacity="0.78125"/>
  <rect x="17" y="10" width="1" height="1" fill="rgb(31,32,32)" fill-opacity="0.9453125"/>
  <rect x="17" y="11" width="1" height="1" fill="rgb(32,32,33)" fill-opacity="0.9453125"/>
  <rect x="17" y="12" width="1" height="1" fill="rgb(37,37,38)" fill-opacity="0.7890625"/>
  <rect x="17" y="13" width="1" height="1" fill="rgb(33,33,33)" fill-opacity="0.515625"/>
  <rect x="17" y="14" width="1" height="1" fill="rgb(18,18,18)" fill-opacity="0.0625"/>
  <rect x="17" y="15" width="1" height="6" fill="rgb(255,255,255)" fill-opacity="0.0078125"/>
  <rect x="18" y="0" width="1" height="21" fill="rgb(255,255,255)" fill-opacity="0.0078125"/>
  <rect x="19" y="0" width="1" height="21" fill="rgb(255,255,255)" fill-opacity="0.0078125"/>
  <rect x="20" y="0" width="1" height="21" fill="rgb(255,255,255)" fill-opacity="0.0078125"/>
</svg>