<svg xmlns="http://www.w3.org/2000/svg" shape-rendering="crispEdges" width="21" height="21" viewBox="0 0 21 21">
  <rect x="0" y="0" width="21" height="1" fill="rgb(255,255,255)" fill-opacity="0.0078125"/>
  <rect x="0" y="1" width="21" height="1" fill="rgb(255,255,255)" fill-opacity="0.0078125"/>
  <rect x="0" y="2" width="21" height="1" fill="rgb(255,255,255)" fill-opacity="0.0078125"/>
  <rect x="0" y="3" width="21" height="1" fill="rgb(255,255,255)" fill-opacity="0.0078125"/>
  <rect x="0" y="4" width="4" height="1" fill="rgb(255,255,255)" fill-opacity="0.0078125"/>
  <rect x="4" y="4" width="1" height="1" fill="rgb(28,28,28)" fill-opacity="0.796875"/>
  <rect x="5" y="4" width="12" height="1" fill="rgb(29,29,29)" fill-opacity="0.9140625"/>
  <rect x="17" y="4" width="1" height="1" fill="rgb(28,28,28)" fill-opacity="0.796875"/>
  <rect x="18" y="4" width="3" height="1" fill="rgb(255,255,255)" fill-opacity="0.0078125"/>
  <rect x="0" y="5" width="4" height="1" fill="rgb(255,255,255)" fill-opacity="0.0078125"/>
  <rect x="4" y="5" width="1" height="1" fill="rgb(29,29,29)" fill-opacity="0.9140625"/>
  <rect x="5" y="5" width="1" height="1" fill="rgb(171,175,168)"/>
  <rect x="6" y="5" width="1" height="1" fill="rgb(178,182,175)"/>
  <rect x="7" y="5" width="1" height="1" fill="rgb(174,178,171)"/>
  <rect x="8" y="5" width="1" height="1" fill="rgb(168,172,165)"/>
  <rect x="9" y="5" width="1" height="1" fill="rgb(164,168,161)"/>
  <rect x="10" y="5" width="1" height="1" fill="rgb(159,163,156)"/>
  <rect x="11" y="5" width="1" height="1" fill="rgb(154,158,151)"/>
  <rect x="12" y="5" width="1" height="1" fill="rgb(149,153,146)"/>
  <rect x="13" y="5" width="1" height="1" fill="rgb(143,147,140)"/>
  <rect x="14" y="5" width="1" height="1" fill="rgb(138,142,135)"/>
  <rect x="15" y="5" width="1" height="1" fill="rgb(135,139,132)"/>
  <rect x="16" y="5" width="1" height="1" fill="rgb(130,133,127)"/>
  <rect x="17" y="5" width="1" height="1" fill="rgb(29,29,29)" fill-opacity="0.9140625"/>
  <rect x="18" y="5" width="3" height="1" fill="rgb(255,255,255)" fill-opacity="0.0078125"/>
  <rect x="0" y="6" width="4" height="1" fill="rgb(255,255,255)" fill-opacity="0.0078125"/>
  <rect x="4" y="6" width="1" height="1" fill="rgb(29,29,29)" fill-opacity="0.9140625"/>
  <rect x="5" y="6" width="1" height="1" fill="rgb(187,187,187)"/>
  <rect x="6" y="6" width="8" height="1" fill="rgb(51,51,51)"/>
  <rect x="14" y="6" width="1" height="1" fill="rgb(55,55,55)"/>
  <rect x="15" y="6" width="1" height="1" fill="rgb(61,61,61)"/>
  <rect x="16" y="6" width="1" height="1" fill="rgb(120,120,120)"/>
  <rect x="17" y="6" width="1" height="1" fill="rgb(29,29,29)" fill-opacity="0.9140625"/>
  <rect x="18" y="6" width="3" height="1" fill="rgb(255,255,255)" fill-opacity="0.0078125"/>
  <rect x="0" y="7" width="4" height="1" fill="rgb(255,255,255)" fill-opacity="0.0078125"/>
  <rect x="4" y="7" width="1" height="1" fill="rgb(29,29,29)" fill-opacity="0.9140625"/>
  <rect x="5" y="7" width="1" height="1" fill="rgb(174,178,171)"/>
  <rect x="6" y="7" width="1" height="1" fill="rgb(83,87,80)"/>
  <rect x="7" y="7" width="1" height="1" fill="rgb(255,255,255)"/>
  <rect x="8" y="7" width="5" height="1" fill="rgb(83,87,80)"/>
  <rect x="13" y="7" width="1" height="1" fill="rgb(87,91,84)"/>
  <rect x="14" y="7" width="1" height="1" fill="rgb(92,96,90)"/>
  <rect x="15" y="7" width="1" height="1" fill="rgb(98,101,95)"/>
  <rect x="16" y="7" width="1" height="1" fill="rgb(135,139,132)"/>
  <rect x="17" y="7" width="1" height="1" fill="rgb(29,29,29)" fill-opacity="0.9140625"/>
  <rect x="18" y="7" width="3" height="1" fill="rgb(255,255,255)" fill-opacity="0.0078125"/>
  <rect x="0" y="8" width="4" height="1" fill="rgb(255,255,255)" fill-opacity="0.0078125"/>
  <rect x="4" y="8" width="1" height="1" fill="rgb(29,29,29)" fill-opacity="0.9140625"/>
  <rect x="5" y="8" width="1" height="1" fill="rgb(173,173,173)"/>
  <rect x="6" y="8" width="2" height="1" fill="rgb(51,51,51)"/>
  <rect x="8" y="8" width="1" height="1" fill="rgb(255,255,255)"/>
  <rect x="9" y="8" width="3" height="1" fill="rgb(51,51,51)"/>
  <rect x="12" y="8" width="1" height="1" fill="rgb(57,57,57)"/>
  <rect x="13" y="8" width="1" height="1" fill="rgb(64,64,64)"/>
  <rect x="14" y="8" width="1" height="1" fill="rgb(70,70,70)"/>
  <rect x="15" y="8" width="1" height="1" fill="rgb(76,76,76)"/>
  <rect x="16" y="8" width="1" height="1" fill="rgb(119,119,119)"/>
  <rect x="17" y="8" width="1" height="1" fill="rgb(29,29,29)" fill-opacity="0.9140625"/>
  <rect x="18" y="8" width="3" height="1" fill="rgb(255,255,255)" fill-opacity="0.0078125"/>
  <rect x="0" y="9" width="4" height="1" fill="rgb(255,255,255)" fill-opacity="0.0078125"/>
  <rect x="4" y="9" width="1" height="1" fill="rgb(29,29,29)" fill-opacity="0.9140625"/>
  <rect x="5" y="9" width="1" height="1" fill="rgb(164,168,161)"/>
  <rect x="6" y="9" width="3" height="1" fill="rgb(83,87,80)"/>
  <rect x="9" y="9" width="1" height="1" fill="rgb(255,255,255)"/>
  <rect x="10" y="9" width="1" height="1" fill="rgb(84,88,81)"/>
  <rect x="11" y="9" width="1" height="1" fill="rgb(90,94,87)"/>
  <rect x="12" y="9" width="1" height="1" fill="rgb(94,98,92)"/>
  <rect x="13" y="9" width="1" height="1" fill="rgb(100,103,97)"/>
  <rect x="14" y="9" width="1" height="1" fill="rgb(105,109,103)"/>
  <rect x="15" y="9" width="1" height="1" fill="rgb(111,114,108)"/>
  <rect x="16" y="9" width="1" height="1" fill="rgb(136,140,134)"/>
  <rect x="17" y="9" width="1" height="1" fill="rgb(29,29,29)" fill-opacity="0.9140625"/>
  <rect x="18" y="9" width="3" height="1" fill="rgb(255,255,255)" fill-opacity="0.0078125"/>
  <rect x="0" y="10" width="4" height="1" fill="rgb(255,255,255)" fill-opacity="0.0078125"/>
  <rect x="4" y="10" width="1" height="1" fill="rgb(29,29,29)" fill-opacity="0.9140625"/>
  <rect x="5" y="10" width="1" height="1" fill="rgb(159,159,159)"/>
  <rect x="6" y="10" width="2" height="1" fill="rgb(51,51,51)"/>
  <rect x="8" y="10" width="1" height="1" fill="rgb(255,255,255)"/>
  <rect x="9" y="10" width="1" height="1" fill="rgb(54,54,54)"/>
  <rect x="10" y="10" width="1" height="1" fill="rgb(60,60,60)"/>
  <rect x="11" y="10" width="1" height="1" fill="rgb(66,66,66)"/>
  <rect x="12" y="10" width="1" height="1" fill="rgb(73,73,73)"/>
  <rect x="13" y="10" width="1" height="1" fill="rgb(79,79,79)"/>
  <rect x="14" y="10" width="1" height="1" fill="rgb(85,85,85)"/>
  <rect x="15" y="10" width="1" height="1" fill="rgb(91,91,91)"/>
  <rect x="16" y="10" width="1" height="1" fill="rgb(121,121,121)"/>
  <rect x="17" y="10" width="1" height="1" fill="rgb(29,29,29)" fill-opacity="0.9140625"/>
  <rect x="18" y="10" width="3" height="1" fill="rgb(255,255,255)" fill-opacity="0.0078125"/>
  <rect x="0" y="11" width="4" height="1" fill="rgb(255,255,255)" fill-opacity="0.0078125"/>
  <rect x="4" y="11" width="1" height="1" fill="rgb(29,29,29)" fill-opacity="0.9140625"/>
  <rect x="5" y="11" width="1" height="1" fill="rgb(154,158,151)"/>
  <rect x="6" y="11" width="1" height="1" fill="rgb(83,87,80)"/>
  <rect x="7" y="11" width="1" height="1" fill="rgb(255,255,255)"/>
  <rect x="8" y="11" width="1" height="1" fill="rgb(86,90,83)"/>
  <rect x="9" y="11" width="1" height="1" fill="rgb(92,96,89)"/>
  <rect x="10" y="11" width="3" height="1" fill="rgb(255,255,255)"/>
  <rect x="13" y="11" width="1" height="1" fill="rgb(113,116,110)"/>
  <rect x="14" y="11" width="1" height="1" fill="rgb(118,121,116)"/>
  <rect x="15" y="11" width="1" height="1" fill="rgb(123,127,121)"/>
  <rect x="16" y="11" width="1" height="1" fill="rgb(140,143,138)"/>
  <rect x="17" y="11" width="1" height="1" fill="rgb(29,29,29)" fill-opacity="0.9140625"/>
  <rect x="18" y="11" width="3" height="1" fill="rgb(255,255,255)" fill-opacity="0.0078125"/>
  <rect x="0" y="12" width="4" height="1" fill="rgb(255,255,255)" fill-opacity="0.0078125"/>
  <rect x="4" y="12" width="1" height="1" fill="rgb(29,29,29)" fill-opacity="0.9140625"/>
  <rect x="5" y="12" width="1" height="1" fill="rgb(145,145,145)"/>
  <rect x="6" y="12" width="1" height="1" fill="rgb(51,51,51)"/>
  <rect x="7" y="12" width="1" height="1" fill="rgb(57,57,57)"/>
  <rect x="8" y="12" width="1" height="1" fill="rgb(63,63,63)"/>
  <rect x="9" y="12" width="1" height="1" fill="rgb(69,69,69)"/>
  <rect x="10" y="12" width="1" height="1" fill="rgb(75,75,75)"/>
  <rect x="11" y="12" width="1" height="1" fill="rgb(81,81,81)"/>
  <rect x="12" y="12" width="1" height="1" fill="rgb(88,88,88)"/>
  <rect x="13" y="12" width="1" height="1" fill="rgb(93,93,93)"/>
  <rect x="14" y="12" width="1" height="1" fill="rgb(100,100,100)"/>
  <rect x="15" y="12" width="1" height="1" fill="rgb(106,106,106)"/>
  <rect x="16" y="12" width="1" height="1" fill="rgb(124,124,124)"/>
  <rect x="17" y="12" width="1" height="1" fill="rgb(29,29,29)" fill-opacity="0.9140625"/>
  <rect x="18" y="12" width="3" height="1" fill="rgb(255,255,255)" fill-opacity="0.0078125"/>
  <rect x="0" y="13" width="4" height="1" fill="rgb(255,255,255)" fill-opacity="0.0078125"/>
  <rect x="4" y="13" width="1" height="1" fill="rgb(29,29,29)" fill-opacity="0.9140625"/>
  <rect x="5" y="13" width="1" height="1" fill="rgb(143,147,140)"/>
  <rect x="6" y="13" width="1" height="1" fill="rgb(88,92,85)"/>
  <rect x="7" y="13" width="1" height="1" fill="rgb(94,98,91)"/>
  <rect x="8" y="13" width="1" height="1" fill="rgb(99,103,96)"/>
  <rect x="9" y="13" width="1" height="1" fill="rgb(105,108,102)"/>
  <rect x="10" y="13" width="1" height="1" fill="rgb(110,113,107)"/>
  <rect x="11" y="13" width="1" height="1" fill="rgb(115,118,112)"/>
  <rect x="12" y="13" width="1" height="1" fill="rgb(120,123,118)"/>
  <rect x="13" y="13" width="1" height="1" fill="rgb(125,129,123)"/>
  <rect x="14" y="13" width="1" height="1" fill="rgb(131,134,129)"/>
  <rect x="15" y="13" width="1" height="1" fill="rgb(136,138,134)"/>
  <rect x="16" y="13" width="1" height="1" fill="rgb(145,148,143)"/>
  <rect x="17" y="13" width="1" height="1" fill="rgb(29,29,29)" fill-opacity="0.9140625"/>
  <rect x="18" y="13" width="3" height="1" fill="rgb(255,255,255)" fill-opacity="0.0078125"/>
  <rect x="0" y="14" width="4" height="1" fill="rgb(255,255,255)" fill-opacity="0.0078125"/>
  <rect x="4" y="14" width="1" height="1" fill="rgb(29,29,29)" fill-opacity="0.9140625"/>
  <rect x="5" y="14" width="1" height="1" fill="rgb(136,136,136)"/>
  <rect x="6" y="14" width="1" height="1" fill="rgb(65,65,65)"/>
  <rect x="7" y="14" width="1" height="1" fill="rgb(72,72,72)"/>
  <rect x="8" y="14" width="1" height="1" fill="rgb(77,77,77)"/>
  <rect x="9" y="14" width="1" height="1" fill="rgb(84,84,84)"/>
  <rect x="10" y="14" width="1" height="1" fill="rgb(90,90,90)"/>
  <rect x="11" y="14" width="1" height="1" fill="rgb(97,97,97)"/>
  <rect x="12" y="14" width="1" height="1" fill="rgb(102,102,102)"/>
  <rect x="13" y="14" width="1" height="1" fill="rgb(109,109,109)"/>
  <rect x="14" y="14" width="1" height="1" fill="rgb(115,115,115)"/>
  <rect x="15" y="14" width="1" height="1" fill="rgb(121,121,121)"/>
  <rect x="16" y="14" width="1" height="1" fill="rgb(128,128,128)"/>
  <rect x="17" y="14" width="1" height="1" fill="rgb(29,29,29)" fill-opacity="0.9140625"/>
  <rect x="18" y="14" width="3" height="1" fill="rgb(255,255,255)" fill-opacity="0.0078125"/>
  <rect x="0" y="15" width="4" height="1" fill="rgb(255,255,255)" fill-opacity="0.0078125"/>
  <rect x="4" y="15" width="1" height="1" fill="rgb(29,29,29)" fill-opacity="0.9140625"/>
  <rect x="5" y="15" width="1" height="1" fill="rgb(143,147,141)"/>
  <rect x="6" y="15" width="1" height="1" fill="rgb(101,105,99)"/>
  <rect x="7" y="15" width="1" height="1" fill="rgb(107,110,104)"/>
  <rect x="8" y="15" width="1" height="1" fill="rgb(112,115,110)"/>
  <rect x="9" y="15" width="1" height="1" fill="rgb(117,121,115)"/>
  <rect x="10" y="15" width="1" height="1" fill="rgb(122,125,120)"/>
  <rect x="11" y="15" width="1" height="1" fill="rgb(128,130,125)"/>
  <rect x="12" y="15" width="1" height="1" fill="rgb(133,136,131)"/>
  <rect x="13" y="15" width="1" height="1" fill="rgb(138,141,136)"/>
  <rect x="14" y="15" width="1" height="1" fill="rgb(143,146,141)"/>
  <rect x="15" y="15" width="1" height="1" fill="rgb(148,151,147)"/>
  <rect x="16" y="15" width="1" height="1" fill="rgb(154,156,152)"/>
  <rect x="17" y="15" width="1" height="1" fill="rgb(29,29,29)" fill-opacity="0.9140625"/>
  <rect x="18" y="15" width="3" height="1" fill="rgb(255,255,255)" fill-opacity="0.0078125"/>
  <rect x="0" y="16" width="4" height="1" fill="rgb(255,255,255)" fill-opacity="0.0078125"/>
  <rect x="4" y="16" width="1" height="1" fill="rgb(29,29,29)" fill-opacity="0.9140625"/>
  <rect x="5" y="16" width="1" height="1" fill="rgb(126,126,126)"/>
  <rect x="6" y="16" width="1" height="1" fill="rgb(130,130,130)"/>
  <rect x="7" y="16" width="3" height="1" fill="rgb(128,128,128)"/>
  <rect x="10" y="16" width="2" height="1" fill="rgb(127,127,127)"/>
  <rect x="12" y="16" width="1" height="1" fill="rgb(128,128,128)"/>
  <rect x="13" y="16" width="1" height="1" fill="rgb(130,130,130)"/>
  <rect x="14" y="16" width="1" height="1" fill="rgb(131,131,131)"/>
  <rect x="15" y="16" width="1" height="1" fill="rgb(136,136,136)"/>
  <rect x="16" y="16" width="1" height="1" fill="rgb(142,142,142)"/>
  <rect x="17" y="16" width="1" height="1" fill="rgb(29,29,29)" fill-opacity="0.9140625"/>
  <rect x="18" y="16" width="3" height="1" fill="rgb(255,255,255)" fill-opacity="0.0078125"/>
  <rect x="0" y="17" width="4" height="1" fill="rgb(255,255,255)" fill-opacity="0.0078125"/>
  <rect x="4" y="17" width="1" height="1" fill="rgb(28,28,28)" fill-opacity="0.796875"/>
  <rect x="5" y="17" width="12" height="1" fill="rgb(29,29,29)" fill-opacity="0.9140625"/>
  <rect x="17" y="17" width="1" height="1" fill="rgb(28,28,28)" fill-opacity="0.796875"/>
  <rect x="18" y="17" width="3" height="1" fill="rgb(255,255,255)" fill-opacity="0.0078125"/>
  <rect x="0" y="18" width="21" height="1" fill="rgb(255,255,255)" fill-opacity="0.0078125"/>
  <rect x="0" y="19" width="21" height="1" fill="rgb(255,255,255)" fill-opacity="0.0078125"/>
  <rect x="0" y="20" width="21" height="1" fill="rgb(255,255,255)" fill-opacity="0.0078125"/>
</svg>