<svg xmlns="http://www.w3.org/2000/svg" shape-rendering="crispEdges" width="21" height="21" viewBox="0 0 21 21">
  <rect x="0" y="0" width="21" height="1" fill="rgb(255,255,255)" fill-opacity="0.0078125"/>
  <rect x="0" y="1" width="21" height="1" fill="rgb(255,255,255)" fill-opacity="0.0078125"/>
  <rect x="0" y="2" width="21" height="1" fill="rgb(255,255,255)" fill-opacity="0.0078125"/>
  <rect x="0" y="3" width="8" height="1" fill="rgb(255,255,255)" fill-opacity="0.0078125"/>
  <rect x="8" y="3" width="1" height="1" fill="rgb(52,52,52)" fill-opacity="0.390625"/>
  <rect x="9" y="3" width="1" height="1" fill="rgb(51,51,51)" fill-opacity="0.90625"/>
  <rect x="10" y="3" width="1" height="1" fill="rgb(51,51,51)" fill-opacity="0.9140625"/>
  <rect x="11" y="3" width="1" height="1" fill="rgb(52,52,52)" fill-opacity="0.4296875"/>
  <rect x="12" y="3" width="9" height="1" fill="rgb(255,255,255)" fill-opacity="0.0078125"/>
  <rect x="0" y="4" width="4" height="1" fill="rgb(255,255,255)" fill-opacity="0.0078125"/>
  <rect x="4" y="4" width="1" height="1" fill="rgb(64,64,64)" fill-opacity="0.0390625"/>
  <rect x="5" y="4" width="1" height="1" fill="rgb(52,52,52)" fill-opacity="0.6796875"/>
  <rect x="6" y="4" width="1" height="1" fill="rgb(65,65,65)" fill-opacity="0.8671875"/>
  <rect x="7" y="4" width="1" height="1" fill="rgb(53,53,53)" fill-opacity="0.25"/>
  <rect x="8" y="4" width="1" height="1" fill="rgb(51,51,51)" fill-opacity="0.8828125"/>
  <rect x="9" y="4" width="1" height="1" fill="rgb(242,242,242)"/>
  <rect x="10" y="4" width="1" height="1" fill="rgb(244,244,244)"/>
  <rect x="11" y="4" width="1" height="1" fill="rgb(57,57,57)" fill-opacity="0.921875"/>
  <rect x="12" y="4" width="1" height="1" fill="rgb(52,52,52)" fill-opacity="0.296875"/>
  <rect x="13" y="4" width="1" height="1" fill="rgb(61,61,61)" fill-opacity="0.8828125"/>
  <rect x="14" y="4" width="1" height="1" fill="rgb(51,51,51)" fill-opacity="0.6875"/>
  <rect x="15" y="4" width="1" height="1" fill="rgb(64,64,64)" fill-opacity="0.0390625"/>
  <rect x="16" y="4" width="5" height="1" fill="rgb(255,255,255)" fill-opacity="0.0078125"/>
  <rect x="0" y="5" width="4" height="1" fill="rgb(255,255,255)" fill-opacity="0.0078125"/>
  <rect x="4" y="5" width="1" height="1" fill="rgb(52,52,52)" fill-opacity="0.6796875"/>
  <rect x="5" y="5" width="1" height="1" fill="rgb(222,222,222)"/>
  <rect x="6" y="5" width="1" height="1" fill="rgb(246,246,246)"/>
  <rect x="7" y="5" width="1" height="1" fill="rgb(70,70,70)" fill-opacity="0.9765625"/>
  <rect x="8" y="5" width="1" height="1" fill="rgb(114,114,114)"/>
  <rect x="9" y="5" width="1" height="1" fill="rgb(253,253,253)"/>
  <rect x="10" y="5" width="1" height="1" fill="rgb(180,180,180)"/>
  <rect x="11" y="5" width="1" height="1" fill="rgb(87,87,87)"/>
  <rect x="12" y="5" width="1" height="1" fill="rgb(101,101,101)"/>
  <rect x="13" y="5" width="1" height="1" fill="rgb(236,236,236)"/>
  <rect x="14" y="5" width="1" height="1" fill="rgb(121,121,121)"/>
  <rect x="15" y="5" width="1" height="1" fill="rgb(51,51,51)" fill-opacity="0.6875"/>
  <rect x="16" y="5" width="5" height="1" fill="rgb(255,255,255)" fill-opacity="0.0078125"/>
  <rect x="0" y="6" width="4" height="1" fill="rgb(255,255,255)" fill-opacity="0.0078125"/>
  <rect x="4" y="6" width="1" height="1" fill="rgb(62,62,62)" fill-opacity="0.8671875"/>
  <rect x="5" y="6" width="1" height="1" fill="rgb(246,246,246)"/>
  <rect x="6" y="6" width="1" height="1" fill="rgb(191,191,191)"/>
  <rect x="7" y="6" width="1" height="1" fill="rgb(198,198,198)"/>
  <rect x="8" y="6" width="1" height="1" fill="rgb(243,243,243)"/>
  <rect x="9" y="6" width="1" height="1" fill="rgb(215,215,215)"/>
  <rect x="10" y="6" width="1" height="1" fill="rgb(181,181,181)"/>
  <rect x="11" y="6" width="1" height="1" fill="rgb(184,184,184)"/>
  <rect x="12" y="6" width="1" height="1" fill="rgb(228,228,228)"/>
  <rect x="13" y="6" width="1" height="1" fill="rgb(210,210,210)"/>
  <rect x="14" y="6" width="1" height="1" fill="rgb(165,165,165)"/>
  <rect x="15" y="6" width="1" height="1" fill="rgb(60,60,60)" fill-opacity="0.8828125"/>
  <rect x="16" y="6" width="5" height="1" fill="rgb(255,255,255)" fill-opacity="0.0078125"/>
  <rect x="0" y="7" width="4" height="1" fill="rgb(255,255,255)" fill-opacity="0.0078125"/>
  <rect x="4" y="7" width="1" height="1" fill="rgb(50,50,50)" fill-opacity="0.2421875"/>
  <rect x="5" y="7" width="1" height="1" fill="rgb(70,70,70)" fill-opacity="0.96875"/>
  <rect x="6" y="7" width="2" height="1" fill="rgb(175,175,175)"/>
  <rect x="8" y="7" width="1" height="1" fill="rgb(178,178,178)"/>
  <rect x="9" y="7" width="1" height="1" fill="rgb(181,181,181)"/>
  <rect x="10" y="7" width="1" height="1" fill="rgb(184,184,184)"/>
  <rect x="11" y="7" width="2" height="1" fill="rgb(187,187,187)"/>
  <rect x="13" y="7" width="1" height="1" fill="rgb(180,180,180)"/>
  <rect x="14" y="7" width="1" height="1" fill="rgb(73,73,73)"/>
  <rect x="15" y="7" width="1" height="1" fill="rgb(52,52,52)" fill-opacity="0.2890625"/>
  <rect x="16" y="7" width="5" height="1" fill="rgb(255,255,255)" fill-opacity="0.0078125"/>
  <rect x="0" y="8" width="3" height="1" fill="rgb(255,255,255)" fill-opacity="0.0078125"/>
  <rect x="3" y="8" width="1" height="1" fill="rgb(52,52,52)" fill-opacity="0.390625"/>
  <rect x="4" y="8" width="1" height="1" fill="rgb(51,51,51)" fill-opacity="0.90625"/>
  <rect x="5" y="8" width="1" height="1" fill="rgb(110,110,110)"/>
  <rect x="6" y="8" width="1" height="1" fill="rgb(241,241,241)"/>
  <rect x="7" y="8" width="1" height="1" fill="rgb(178,178,178)"/>
  <rect x="8" y="8" width="1" height="1" fill="rgb(55,55,55)" fill-opacity="0.9921875"/>
  <rect x="9" y="8" width="2" height="1" fill="rgb(51,51,51)" fill-opacity="0.9140625"/>
  <rect x="11" y="8" width="1" height="1" fill="rgb(110,110,110)"/>
  <rect x="12" y="8" width="1" height="1" fill="rgb(223,223,223)"/>
  <rect x="13" y="8" width="1" height="1" fill="rgb(171,171,171)"/>
  <rect x="14" y="8" width="1" height="1" fill="rgb(86,86,86)"/>
  <rect x="15" y="8" width="1" height="1" fill="rgb(51,51,51)" fill-opacity="0.9140625"/>
  <rect x="16" y="8" width="1" height="1" fill="rgb(52,52,52)" fill-opacity="0.4296875"/>
  <rect x="17" y="8" width="4" height="1" fill="rgb(255,255,255)" fill-opacity="0.0078125"/>
  <rect x="0" y="9" width="3" height="1" fill="rgb(255,255,255)" fill-opacity="0.0078125"/>
  <rect x="3" y="9" width="1" height="1" fill="rgb(51,51,51)" fill-opacity="0.8828125"/>
  <rect x="4" y="9" width="1" height="1" fill="rgb(242,242,242)"/>
  <rect x="5" y="9" width="1" height="1" fill="rgb(255,255,255)"/>
  <rect x="6" y="9" width="1" height="1" fill="rgb(215,215,215)"/>
  <rect x="7" y="9" width="1" height="1" fill="rgb(181,181,181)"/>
  <rect x="8" y="9" width="1" height="1" fill="rgb(56,56,56)" fill-opacity="0.9140625"/>
  <rect x="9" y="9" width="2" height="1" fill="rgb(255,255,255)" fill-opacity="0.0078125"/>
  <rect x="11" y="9" width="1" height="1" fill="rgb(127,127,127)" fill-opacity="0.921875"/>
  <rect x="12" y="9" width="1" height="1" fill="rgb(213,213,213)"/>
  <rect x="13" y="9" width="1" height="1" fill="rgb(162,162,162)"/>
  <rect x="14" y="9" width="1" height="1" fill="rgb(154,154,154)"/>
  <rect x="15" y="9" width="1" height="1" fill="rgb(147,147,147)"/>
  <rect x="16" y="9" width="1" height="1" fill="rgb(56,56,56)" fill-opacity="0.9140625"/>
  <rect x="17" y="9" width="4" height="1" fill="rgb(255,255,255)" fill-opacity="0.0078125"/>
  <rect x="0" y="10" width="3" height="1" fill="rgb(255,255,255)" fill-opacity="0.0078125"/>
  <rect x="3" y="10" width="1" height="1" fill="rgb(51,51,51)" fill-opacity="0.8828125"/>
  <rect x="4" y="10" width="1" height="1" fill="rgb(240,240,240)"/>
  <rect x="5" y="10" width="1" height="1" fill="rgb(179,179,179)"/>
  <rect x="6" y="10" width="1" height="1" fill="rgb(182,182,182)"/>
  <rect x="7" y="10" width="1" height="1" fill="rgb(185,185,185)"/>
  <rect x="8" y="10" width="1" height="1" fill="rgb(56,56,56)" fill-opacity="0.9140625"/>
  <rect x="9" y="10" width="1" height="1" fill="rgb(255,255,255)" fill-opacity="0.0078125"/>
  <rect x="10" y="10" width="1" height="1" fill="rgb(124,124,124)" fill-opacity="0.40625"/>
  <rect x="11" y="10" width="1" height="1" fill="rgb(139,139,139)" fill-opacity="0.9765625"/>
  <rect x="12" y="10" width="1" height="1" fill="rgb(150,150,150)"/>
  <rect x="13" y="10" width="1" height="1" fill="rgb(125,125,125)"/>
  <rect x="14" y="10" width="1" height="1" fill="rgb(113,113,113)"/>
  <rect x="15" y="10" width="1" height="1" fill="rgb(100,100,100)"/>
  <rect x="16" y="10" width="1" height="1" fill="rgb(74,74,74)" fill-opacity="0.984375"/>
  <rect x="17" y="10" width="1" height="1" fill="rgb(68,68,68)" fill-opacity="0.8125"/>
  <rect x="18" y="10" width="1" height="1" fill="rgb(43,43,43)" fill-opacity="0.6875"/>
  <rect x="19" y="10" width="2" height="1" fill="rgb(255,255,255)" fill-opacity="0.0078125"/>
  <rect x="0" y="11" width="3" height="1" fill="rgb(255,255,255)" fill-opacity="0.0078125"/>
  <rect x="3" y="11" width="1" height="1" fill="rgb(52,52,52)" fill-opacity="0.390625"/>
  <rect x="4" y="11" width="1" height="1" fill="rgb(51,51,51)" fill-opacity="0.90625"/>
  <rect x="5" y="11" width="1" height="1" fill="rgb(80,80,80)"/>
  <rect x="6" y="11" width="1" height="1" fill="rgb(185,185,185)"/>
  <rect x="7" y="11" width="1" height="1" fill="rgb(188,188,188)"/>
  <rect x="8" y="11" width="1" height="1" fill="rgb(109,109,109)"/>
  <rect x="9" y="11" width="1" height="1" fill="rgb(125,125,125)" fill-opacity="0.9453125"/>
  <rect x="10" y="11" width="1" height="1" fill="rgb(129,129,129)" fill-opacity="0.984375"/>
  <rect x="11" y="11" width="7" height="1" fill="rgb(255,255,255)"/>
  <rect x="18" y="11" width="1" height="1" fill="rgb(42,42,42)" fill-opacity="0.859375"/>
  <rect x="19" y="11" width="2" height="1" fill="rgb(255,255,255)" fill-opacity="0.0078125"/>
  <rect x="0" y="12" width="4" height="1" fill="rgb(255,255,255)" fill-opacity="0.0078125"/>
  <rect x="4" y="12" width="1" height="1" fill="rgb(50,50,50)" fill-opacity="0.2421875"/>
  <rect x="5" y="12" width="1" height="1" fill="rgb(102,102,102)" fill-opacity="0.96875"/>
  <rect x="6" y="12" width="1" height="1" fill="rgb(243,243,243)"/>
  <rect x="7" y="12" width="1" height="1" fill="rgb(190,190,190)"/>
  <rect x="8" y="12" width="1" height="1" fill="rgb(217,217,217)"/>
  <rect x="9" y="12" width="1" height="1" fill="rgb(209,209,209)"/>
  <rect x="10" y="12" width="1" height="1" fill="rgb(140,140,140)"/>
  <rect x="11" y="12" width="1" height="1" fill="rgb(255,255,255)"/>
  <rect x="12" y="12" width="5" height="1" fill="rgb(0,0,0)"/>
  <rect x="17" y="12" width="1" height="1" fill="rgb(255,255,255)"/>
  <rect x="18" y="12" width="1" height="1" fill="rgb(30,30,30)" fill-opacity="0.8984375"/>
  <rect x="19" y="12" width="2" height="1" fill="rgb(255,255,255)" fill-opacity="0.0078125"/>
  <rect x="0" y="13" width="4" height="1" fill="rgb(255,255,255)" fill-opacity="0.0078125"/>
  <rect x="4" y="13" width="1" height="1" fill="rgb(84,84,84)" fill-opacity="0.8828125"/>
  <rect x="5" y="13" width="1" height="1" fill="rgb(247,247,247)"/>
  <rect x="6" y="13" width="1" height="1" fill="rgb(203,203,203)"/>
  <rect x="7" y="13" width="1" height="1" fill="rgb(175,175,175)"/>
  <rect x="8" y="13" width="1" height="1" fill="rgb(168,168,168)"/>
  <rect x="9" y="13" width="1" height="1" fill="rgb(160,160,160)"/>
  <rect x="10" y="13" width="1" height="1" fill="rgb(111,111,111)"/>
  <rect x="11" y="13" width="7" height="1" fill="rgb(255,255,255)"/>
  <rect x="18" y="13" width="1" height="1" fill="rgb(19,19,19)" fill-opacity="0.9375"/>
  <rect x="19" y="13" width="2" height="1" fill="rgb(255,255,255)" fill-opacity="0.0078125"/>
  <rect x="0" y="14" width="4" height="1" fill="rgb(255,255,255)" fill-opacity="0.0078125"/>
  <rect x="4" y="14" width="1" height="1" fill="rgb(54,54,54)" fill-opacity="0.6875"/>
  <rect x="5" y="14" width="1" height="1" fill="rgb(132,132,132)"/>
  <rect x="6" y="14" width="1" height="1" fill="rgb(160,160,160)"/>
  <rect x="7" y="14" width="1" height="1" fill="rgb(72,72,72)" fill-opacity="0.9765625"/>
  <rect x="8" y="14" width="1" height="1" fill="rgb(84,84,84)"/>
  <rect x="9" y="14" width="1" height="1" fill="rgb(151,151,151)"/>
  <rect x="10" y="14" width="1" height="1" fill="rgb(94,94,94)"/>
  <rect x="11" y="14" width="1" height="1" fill="rgb(255,255,255)"/>
  <rect x="12" y="14" width="5" height="1" fill="rgb(0,0,0)"/>
  <rect x="17" y="14" width="1" height="1" fill="rgb(255,255,255)"/>
  <rect x="18" y="14" width="1" height="1" fill="rgb(8,8,8)" fill-opacity="0.96875"/>
  <rect x="19" y="14" width="2" height="1" fill="rgb(255,255,255)" fill-opacity="0.0078125"/>
  <rect x="0" y="15" width="4" height="1" fill="rgb(255,255,255)" fill-opacity="0.0078125"/>
  <rect x="4" y="15" width="1" height="1" fill="rgb(64,64,64)" fill-opacity="0.0390625"/>
  <rect x="5" y="15" width="1" height="1" fill="rgb(52,52,52)" fill-opacity="0.6796875"/>
  <rect x="6" y="15" width="1" height="1" fill="rgb(60,60,60)" fill-opacity="0.8671875"/>
  <rect x="7" y="15" width="1" height="1" fill="rgb(53,53,53)" fill-opacity="0.25"/>
  <rect x="8" y="15" width="1" height="1" fill="rgb(51,51,51)" fill-opacity="0.8828125"/>
  <rect x="9" y="15" width="1" height="1" fill="rgb(139,139,139)"/>
  <rect x="10" y="15" width="1" height="1" fill="rgb(78,78,78)"/>
  <rect x="11" y="15" width="7" height="1" fill="rgb(255,255,255)"/>
  <rect x="18" y="15" width="1" height="1" fill="rgb(0,0,0)"/>
  <rect x="19" y="15" width="2" height="1" fill="rgb(255,255,255)" fill-opacity="0.0078125"/>
  <rect x="0" y="16" width="8" height="1" fill="rgb(255,255,255)" fill-opacity="0.0078125"/>
  <rect x="8" y="16" width="1" height="1" fill="rgb(52,52,52)" fill-opacity="0.390625"/>
  <rect x="9" y="16" width="1" height="1" fill="rgb(51,51,51)" fill-opacity="0.90625"/>
  <rect x="10" y="16" width="1" height="1" fill="rgb(50,50,50)" fill-opacity="0.984375"/>
  <rect x="11" y="16" width="1" height="1" fill="rgb(255,255,255)"/>
  <rect x="12" y="16" width="3" height="1" fill="rgb(0,0,0)"/>
  <rect x="15" y="16" width="3" height="1" fill="rgb(255,255,255)"/>
  <rect x="18" y="16" width="1" height="1" fill="rgb(0,0,0)"/>
  <rect x="19" y="16" width="2" height="1" fill="rgb(255,255,255)" fill-opacity="0.0078125"/>
  <rect x="0" y="17" width="10" height="1" fill="rgb(255,255,255)" fill-opacity="0.0078125"/>
  <rect x="10" y="17" width="1" height="1" fill="rgb(37,37,37)" fill-opacity="0.859375"/>
  <rect x="11" y="17" width="7" height="1" fill="rgb(255,255,255)"/>
  <rect x="18" y="17" width="1" height="1" fill="rgb(0,0,0)"/>
  <rect x="19" y="17" width="2" height="1" fill="rgb(255,255,255)" fill-opacity="0.0078125"/>
  <rect x="0" y="18" width="10" height="1" fill="rgb(255,255,255)" fill-opacity="0.0078125"/>
  <rect x="10" y="18" width="1" height="1" fill="rgb(27,27,27)" fill-opacity="0.7890625"/>
  <rect x="11" y="18" width="1" height="1" fill="rgb(21,21,21)" fill-opacity="0.953125"/>
  <rect x="12" y="18" width="1" height="1" fill="rgb(12,12,12)" fill-opacity="0.96875"/>
  <rect x="13" y="18" width="1" height="1" fill="rgb(4,4,4)" fill-opacity="0.9921875"/>
  <rect x="14" y="18" width="4" height="1" fill="rgb(0,0,0)"/>
  <rect x="18" y="18" width="1" height="1" fill="rgb(10,10,10)" fill-opacity="0.9140625"/>
  <rect x="19" y="18" width="2" height="1" fill="rgb(255,255,255)" fill-opacity="0.0078125"/>
  <rect x="0" y="19" width="21" height="1" fill="rgb(255,255,255)" fill-opacity="0.0078125"/>
  <rect x="0" y="20" width="21" height="1" fill="rgb(255,255,255)" fill-opacity="0.0078125"/>
</svg>