<svg xmlns="http://www.w3.org/2000/svg" shape-rendering="crispEdges" width="21" height="21" viewBox="0 0 21 21">
  <rect x="0" y="0" width="21" height="1" fill="rgb(255,255,255)" fill-opacity="0.0078125"/>
  <rect x="0" y="1" width="21" height="1" fill="rgb(255,255,255)" fill-opacity="0.0078125"/>
  <rect x="0" y="2" width="21" height="1" fill="rgb(255,255,255)" fill-opacity="0.0078125"/>
  <rect x="0" y="3" width="12" height="1" fill="rgb(255,255,255)" fill-opacity="0.0078125"/>
  <rect x="12" y="3" width="1" height="1" fill="rgb(0,0,0)" fill-opacity="0.0625"/>
  <rect x="13" y="3" width="1" height="1" fill="rgb(23,23,23)" fill-opacity="0.609375"/>
  <rect x="14" y="3" width="1" height="1" fill="rgb(24,24,24)" fill-opacity="0.875"/>
  <rect x="15" y="3" width="1" height="1" fill="rgb(23,23,23)" fill-opacity="0.8828125"/>
  <rect x="16" y="3" width="1" height="1" fill="rgb(23,23,23)" fill-opacity="0.625"/>
  <rect x="17" y="3" width="1" height="1" fill="rgb(0,0,0)" fill-opacity="0.0703125"/>
  <rect x="18" y="3" width="3" height="1" fill="rgb(255,255,255)" fill-opacity="0.0078125"/>
  <rect x="0" y="4" width="11" height="1" fill="rgb(255,255,255)" fill-opacity="0.0078125"/>
  <rect x="11" y="4" width="1" height="1" fill="rgb(0,0,0)" fill-opacity="0.046875"/>
  <rect x="12" y="4" width="1" height="1" fill="rgb(22,22,22)" fill-opacity="0.875"/>
  <rect x="13" y="4" width="1" height="1" fill="rgb(199,199,199)" fill-opacity="0.984375"/>
  <rect x="14" y="4" width="2" height="1" fill="rgb(254,254,254)"/>
  <rect x="16" y="4" width="1" height="1" fill="rgb(201,201,201)" fill-opacity="0.9921875"/>
  <rect x="17" y="4" width="1" height="1" fill="rgb(22,22,22)" fill-opacity="0.8828125"/>
  <rect x="18" y="4" width="1" height="1" fill="rgb(0,0,0)" fill-opacity="0.0625"/>
  <rect x="19" y="4" width="2" height="1" fill="rgb(255,255,255)" fill-opacity="0.0078125"/>
  <rect x="0" y="5" width="9" height="1" fill="rgb(255,255,255)" fill-opacity="0.0078125"/>
  <rect x="9" y="5" width="2" height="1" fill="rgb(0,0,0)" fill-opacity="0.0078125"/>
  <rect x="11" y="5" width="1" height="1" fill="rgb(27,27,27)" fill-opacity="0.59375"/>
  <rect x="12" y="5" width="1" height="1" fill="rgb(189,189,189)" fill-opacity="0.9921875"/>
  <rect x="13" y="5" width="3" height="1" fill="rgb(255,255,255)"/>
  <rect x="16" y="5" width="1" height="1" fill="rgb(251,251,251)"/>
  <rect x="17" y="5" width="1" height="1" fill="rgb(161,161,161)" fill-opacity="0.9921875"/>
  <rect x="18" y="5" width="1" height="1" fill="rgb(18,18,18)" fill-opacity="0.625"/>
  <rect x="19" y="5" width="2" height="1" fill="rgb(255,255,255)" fill-opacity="0.0078125"/>
  <rect x="0" y="6" width="3" height="1" fill="rgb(255,255,255)" fill-opacity="0.0078125"/>
  <rect x="3" y="6" width="1" height="1" fill="rgb(0,85,170)" fill-opacity="0.015625"/>
  <rect x="4" y="6" width="1" height="1" fill="rgb(46,70,128)" fill-opacity="0.09375"/>
  <rect x="5" y="6" width="1" height="1" fill="rgb(0,0,128)" fill-opacity="0.015625"/>
  <rect x="6" y="6" width="1" height="1" fill="rgb(255,255,255)" fill-opacity="0.0078125"/>
  <rect x="7" y="6" width="1" height="1" fill="rgb(0,0,0)" fill-opacity="0.0078125"/>
  <rect x="8" y="6" width="3" height="1" fill="rgb(0,0,0)" fill-opacity="0.015625"/>
  <rect x="11" y="6" width="1" height="1" fill="rgb(24,26,27)" fill-opacity="0.8984375"/>
  <rect x="12" y="6" width="1" height="1" fill="rgb(252,252,252)"/>
  <rect x="13" y="6" width="2" height="1" fill="rgb(255,255,255)"/>
  <rect x="15" y="6" width="1" height="1" fill="rgb(222,222,222)"/>
  <rect x="16" y="6" width="1" height="1" fill="rgb(214,214,214)"/>
  <rect x="17" y="6" width="1" height="1" fill="rgb(204,204,204)"/>
  <rect x="18" y="6" width="1" height="1" fill="rgb(11,11,11)" fill-opacity="0.8828125"/>
  <rect x="19" y="6" width="2" height="1" fill="rgb(255,255,255)" fill-opacity="0.0078125"/>
  <rect x="0" y="7" width="4" height="1" fill="rgb(255,255,255)" fill-opacity="0.0078125"/>
  <rect x="4" y="7" width="1" height="1" fill="rgb(145,165,196)" fill-opacity="0.296875"/>
  <rect x="5" y="7" width="1" height="1" fill="rgb(75,101,142)" fill-opacity="0.421875"/>
  <rect x="6" y="7" width="1" height="1" fill="rgb(26,51,102)" fill-opacity="0.203125"/>
  <rect x="7" y="7" width="3" height="1" fill="rgb(0,0,0)" fill-opacity="0.015625"/>
  <rect x="10" y="7" width="1" height="1" fill="rgb(0,0,36)" fill-opacity="0.03125"/>
  <rect x="11" y="7" width="1" height="1" fill="rgb(25,28,33)" fill-opacity="0.9609375"/>
  <rect x="12" y="7" width="1" height="1" fill="rgb(252,252,252)"/>
  <rect x="13" y="7" width="1" height="1" fill="rgb(254,254,254)"/>
  <rect x="14" y="7" width="1" height="1" fill="rgb(216,216,216)"/>
  <rect x="15" y="7" width="1" height="1" fill="rgb(179,179,179)"/>
  <rect x="16" y="7" width="1" height="1" fill="rgb(183,183,183)"/>
  <rect x="17" y="7" width="1" height="1" fill="rgb(173,173,173)"/>
  <rect x="18" y="7" width="1" height="1" fill="rgb(7,7,7)" fill-opacity="0.8828125"/>
  <rect x="19" y="7" width="2" height="1" fill="rgb(255,255,255)" fill-opacity="0.0078125"/>
  <rect x="0" y="8" width="3" height="1" fill="rgb(255,255,255)" fill-opacity="0.0078125"/>
  <rect x="3" y="8" width="1" height="1" fill="rgb(64,64,128)" fill-opacity="0.0234375"/>
  <rect x="4" y="8" width="1" height="1" fill="rgb(171,189,215)" fill-opacity="0.28125"/>
  <rect x="5" y="8" width="1" height="1" fill="rgb(178,197,226)" fill-opacity="0.484375"/>
  <rect x="6" y="8" width="1" height="1" fill="rgb(100,125,167)" fill-opacity="0.6015625"/>
  <rect x="7" y="8" width="1" height="1" fill="rgb(25,55,103)" fill-opacity="0.515625"/>
  <rect x="8" y="8" width="1" height="1" fill="rgb(0,34,51)" fill-opacity="0.0625"/>
  <rect x="9" y="8" width="1" height="1" fill="rgb(0,0,0)" fill-opacity="0.0234375"/>
  <rect x="10" y="8" width="1" height="1" fill="rgb(8,38,87)" fill-opacity="0.3984375"/>
  <rect x="11" y="8" width="1" height="1" fill="rgb(65,74,89)" fill-opacity="0.9375"/>
  <rect x="12" y="8" width="1" height="1" fill="rgb(185,185,185)"/>
  <rect x="13" y="8" width="1" height="1" fill="rgb(248,248,248)"/>
  <rect x="14" y="8" width="1" height="1" fill="rgb(207,207,207)"/>
  <rect x="15" y="8" width="1" height="1" fill="rgb(179,179,179)"/>
  <rect x="16" y="8" width="1" height="1" fill="rgb(186,186,186)"/>
  <rect x="17" y="8" width="1" height="1" fill="rgb(80,80,80)" fill-opacity="0.9921875"/>
  <rect x="18" y="8" width="1" height="1" fill="rgb(3,3,3)" fill-opacity="0.625"/>
  <rect x="19" y="8" width="2" height="1" fill="rgb(255,255,255)" fill-opacity="0.0078125"/>
  <rect x="0" y="9" width="3" height="1" fill="rgb(255,255,255)" fill-opacity="0.0078125"/>
  <rect x="3" y="9" width="1" height="1" fill="rgb(0,0,128)" fill-opacity="0.015625"/>
  <rect x="4" y="9" width="1" height="1" fill="rgb(88,112,151)" fill-opacity="0.2578125"/>
  <rect x="5" y="9" width="1" height="1" fill="rgb(167,185,215)" fill-opacity="0.5"/>
  <rect x="6" y="9" width="1" height="1" fill="rgb(181,203,233)" fill-opacity="0.5625"/>
  <rect x="7" y="9" width="1" height="1" fill="rgb(128,154,191)" fill-opacity="0.671875"/>
  <rect x="8" y="9" width="1" height="1" fill="rgb(19,47,96)" fill-opacity="0.703125"/>
  <rect x="9" y="9" width="1" height="1" fill="rgb(0,28,71)" fill-opacity="0.21875"/>
  <rect x="10" y="9" width="1" height="1" fill="rgb(41,69,116)" fill-opacity="0.7578125"/>
  <rect x="11" y="9" width="1" height="1" fill="rgb(192,208,235)" fill-opacity="0.9140625"/>
  <rect x="12" y="9" width="1" height="1" fill="rgb(29,34,41)" fill-opacity="0.9765625"/>
  <rect x="13" y="9" width="1" height="1" fill="rgb(148,149,150)"/>
  <rect x="14" y="9" width="1" height="1" fill="rgb(193,193,193)"/>
  <rect x="15" y="9" width="1" height="1" fill="rgb(164,164,164)"/>
  <rect x="16" y="9" width="1" height="1" fill="rgb(76,76,76)" fill-opacity="0.984375"/>
  <rect x="17" y="9" width="1" height="1" fill="rgb(2,2,2)" fill-opacity="0.8828125"/>
  <rect x="18" y="9" width="1" height="1" fill="rgb(0,0,0)" fill-opacity="0.0625"/>
  <rect x="19" y="9" width="2" height="1" fill="rgb(255,255,255)" fill-opacity="0.0078125"/>
  <rect x="0" y="10" width="4" height="1" fill="rgb(255,255,255)" fill-opacity="0.0078125"/>
  <rect x="4" y="10" width="1" height="1" fill="rgb(36,73,109)" fill-opacity="0.03125"/>
  <rect x="5" y="10" width="1" height="1" fill="rgb(76,103,142)" fill-opacity="0.4375"/>
  <rect x="6" y="10" width="1" height="1" fill="rgb(158,179,215)" fill-opacity="0.578125"/>
  <rect x="7" y="10" width="1" height="1" fill="rgb(179,201,236)" fill-opacity="0.6328125"/>
  <rect x="8" y="10" width="1" height="1" fill="rgb(154,177,213)" fill-opacity="0.7265625"/>
  <rect x="9" y="10" width="1" height="1" fill="rgb(33,62,109)" fill-opacity="0.7578125"/>
  <rect x="10" y="10" width="1" height="1" fill="rgb(168,188,220)" fill-opacity="0.8515625"/>
  <rect x="11" y="10" width="1" height="1" fill="rgb(164,193,244)" fill-opacity="0.84375"/>
  <rect x="12" y="10" width="1" height="1" fill="rgb(99,144,223)" fill-opacity="0.8125"/>
  <rect x="13" y="10" width="1" height="1" fill="rgb(65,76,95)" fill-opacity="0.9453125"/>
  <rect x="14" y="10" width="1" height="1" fill="rgb(30,34,38)" fill-opacity="0.984375"/>
  <rect x="15" y="10" width="1" height="1" fill="rgb(7,10,16)" fill-opacity="0.96875"/>
  <rect x="16" y="10" width="1" height="1" fill="rgb(2,3,6)" fill-opacity="0.6640625"/>
  <rect x="17" y="10" width="1" height="1" fill="rgb(0,0,0)" fill-opacity="0.0703125"/>
  <rect x="18" y="10" width="3" height="1" fill="rgb(255,255,255)" fill-opacity="0.0078125"/>
  <rect x="0" y="11" width="5" height="1" fill="rgb(255,255,255)" fill-opacity="0.0078125"/>
  <rect x="5" y="11" width="1" height="1" fill="rgb(16,32,96)" fill-opacity="0.0703125"/>
  <rect x="6" y="11" width="1" height="1" fill="rgb(51,81,127)" fill-opacity="0.546875"/>
  <rect x="7" y="11" width="1" height="1" fill="rgb(159,182,218)" fill-opacity="0.65625"/>
  <rect x="8" y="11" width="1" height="1" fill="rgb(169,194,236)" fill-opacity="0.6796875"/>
  <rect x="9" y="11" width="1" height="1" fill="rgb(189,210,244)" fill-opacity="0.796875"/>
  <rect x="10" y="11" width="1" height="1" fill="rgb(191,213,246)" fill-opacity="0.8515625"/>
  <rect x="11" y="11" width="1" height="1" fill="rgb(112,160,240)" fill-opacity="0.78125"/>
  <rect x="12" y="11" width="1" height="1" fill="rgb(144,180,243)" fill-opacity="0.84375"/>
  <rect x="13" y="11" width="1" height="1" fill="rgb(179,201,240)" fill-opacity="0.8984375"/>
  <rect x="14" y="11" width="1" height="1" fill="rgb(27,58,109)" fill-opacity="0.75"/>
  <rect x="15" y="11" width="1" height="1" fill="rgb(0,30,79)" fill-opacity="0.171875"/>
  <rect x="16" y="11" width="1" height="1" fill="rgb(0,0,0)" fill-opacity="0.015625"/>
  <rect x="17" y="11" width="4" height="1" fill="rgb(255,255,255)" fill-opacity="0.0078125"/>
  <rect x="0" y="12" width="5" height="1" fill="rgb(255,255,255)" fill-opacity="0.0078125"/>
  <rect x="5" y="12" width="1" height="1" fill="rgb(0,0,0)" fill-opacity="0.015625"/>
  <rect x="6" y="12" width="1" height="1" fill="rgb(10,39,88)" fill-opacity="0.109375"/>
  <rect x="7" y="12" width="1" height="1" fill="rgb(50,78,124)" fill-opacity="0.6640625"/>
  <rect x="8" y="12" width="1" height="1" fill="rgb(176,199,235)" fill-opacity="0.7109375"/>
  <rect x="9" y="12" width="1" height="1" fill="rgb(158,188,237)" fill-opacity="0.7265625"/>
  <rect x="10" y="12" width="1" height="1" fill="rgb(130,170,236)" fill-opacity="0.7421875"/>
  <rect x="11" y="12" width="1" height="1" fill="rgb(125,168,240)" fill-opacity="0.796875"/>
  <rect x="12" y="12" width="1" height="1" fill="rgb(181,204,244)" fill-opacity="0.8984375"/>
  <rect x="13" y="12" width="1" height="1" fill="rgb(34,66,115)" fill-opacity="0.7578125"/>
  <rect x="14" y="12" width="1" height="1" fill="rgb(0,31,73)" fill-opacity="0.1953125"/>
  <rect x="15" y="12" width="2" height="1" fill="rgb(0,0,0)" fill-opacity="0.015625"/>
  <rect x="17" y="12" width="4" height="1" fill="rgb(255,255,255)" fill-opacity="0.0078125"/>
  <rect x="0" y="13" width="5" height="1" fill="rgb(255,255,255)" fill-opacity="0.0078125"/>
  <rect x="5" y="13" width="1" height="1" fill="rgb(0,0,0)" fill-opacity="0.0078125"/>
  <rect x="6" y="13" width="1" height="1" fill="rgb(0,0,0)" fill-opacity="0.015625"/>
  <rect x="7" y="13" width="1" height="1" fill="rgb(19,44,93)" fill-opacity="0.328125"/>
  <rect x="8" y="13" width="1" height="1" fill="rgb(95,120,161)" fill-opacity="0.7265625"/>
  <rect x="9" y="13" width="1" height="1" fill="rgb(170,197,240)" fill-opacity="0.75"/>
  <rect x="10" y="13" width="1" height="1" fill="rgb(125,167,236)" fill-opacity="0.734375"/>
  <rect x="11" y="13" width="1" height="1" fill="rgb(171,199,245)" fill-opacity="0.859375"/>
  <rect x="12" y="13" width="1" height="1" fill="rgb(95,122,169)" fill-opacity="0.8046875"/>
  <rect x="13" y="13" width="1" height="1" fill="rgb(6,34,84)" fill-opacity="0.328125"/>
  <rect x="14" y="13" width="2" height="1" fill="rgb(0,0,0)" fill-opacity="0.015625"/>
  <rect x="16" y="13" width="1" height="1" fill="rgb(0,0,0)" fill-opacity="0.0078125"/>
  <rect x="17" y="13" width="4" height="1" fill="rgb(255,255,255)" fill-opacity="0.0078125"/>
  <rect x="0" y="14" width="6" height="1" fill="rgb(255,255,255)" fill-opacity="0.0078125"/>
  <rect x="6" y="14" width="2" height="1" fill="rgb(0,0,0)" fill-opacity="0.015625"/>
  <rect x="8" y="14" width="1" height="1" fill="rgb(13,43,93)" fill-opacity="0.6328125"/>
  <rect x="9" y="14" width="1" height="1" fill="rgb(154,178,217)" fill-opacity="0.78125"/>
  <rect x="10" y="14" width="1" height="1" fill="rgb(171,198,243)" fill-opacity="0.8125"/>
  <rect x="11" y="14" width="1" height="1" fill="rgb(153,178,222)" fill-opacity="0.859375"/>
  <rect x="12" y="14" width="1" height="1" fill="rgb(10,42,95)" fill-opacity="0.625"/>
  <rect x="13" y="14" width="1" height="1" fill="rgb(0,0,0)" fill-opacity="0.0234375"/>
  <rect x="14" y="14" width="2" height="1" fill="rgb(0,0,0)" fill-opacity="0.015625"/>
  <rect x="16" y="14" width="5" height="1" fill="rgb(255,255,255)" fill-opacity="0.0078125"/>
  <rect x="0" y="15" width="6" height="1" fill="rgb(255,255,255)" fill-opacity="0.0078125"/>
  <rect x="6" y="15" width="1" height="1" fill="rgb(0,0,0)" fill-opacity="0.0078125"/>
  <rect x="7" y="15" width="1" height="1" fill="rgb(0,0,0)" fill-opacity="0.015625"/>
  <rect x="8" y="15" width="1" height="1" fill="rgb(0,20,69)" fill-opacity="0.109375"/>
  <rect x="9" y="15" width="1" height="1" fill="rgb(32,62,108)" fill-opacity="0.734375"/>
  <rect x="10" y="15" width="1" height="1" fill="rgb(167,192,234)" fill-opacity="0.8203125"/>
  <rect x="11" y="15" width="1" height="1" fill="rgb(36,67,115)" fill-opacity="0.75"/>
  <rect x="12" y="15" width="1" height="1" fill="rgb(0,20,69)" fill-opacity="0.109375"/>
  <rect x="13" y="15" width="2" height="1" fill="rgb(0,0,0)" fill-opacity="0.015625"/>
  <rect x="15" y="15" width="1" height="1" fill="rgb(0,0,0)" fill-opacity="0.0078125"/>
  <rect x="16" y="15" width="5" height="1" fill="rgb(255,255,255)" fill-opacity="0.0078125"/>
  <rect x="0" y="16" width="7" height="1" fill="rgb(255,255,255)" fill-opacity="0.0078125"/>
  <rect x="7" y="16" width="1" height="1" fill="rgb(49,49,49)" fill-opacity="0.125"/>
  <rect x="8" y="16" width="1" height="1" fill="rgb(50,50,50)" fill-opacity="0.265625"/>
  <rect x="9" y="16" width="1" height="1" fill="rgb(27,42,67)" fill-opacity="0.5234375"/>
  <rect x="10" y="16" width="1" height="1" fill="rgb(9,36,81)" fill-opacity="0.8671875"/>
  <rect x="11" y="16" width="1" height="1" fill="rgb(25,42,71)" fill-opacity="0.5234375"/>
  <rect x="12" y="16" width="1" height="1" fill="rgb(49,49,49)" fill-opacity="0.25"/>
  <rect x="13" y="16" width="1" height="1" fill="rgb(51,51,51)" fill-opacity="0.140625"/>
  <rect x="14" y="16" width="1" height="1" fill="rgb(0,0,0)" fill-opacity="0.0078125"/>
  <rect x="15" y="16" width="6" height="1" fill="rgb(255,255,255)" fill-opacity="0.0078125"/>
  <rect x="0" y="17" width="6" height="1" fill="rgb(255,255,255)" fill-opacity="0.0078125"/>
  <rect x="6" y="17" width="1" height="1" fill="rgb(50,50,50)" fill-opacity="0.1484375"/>
  <rect x="7" y="17" width="1" height="1" fill="rgb(51,51,51)" fill-opacity="0.4921875"/>
  <rect x="8" y="17" width="1" height="1" fill="rgb(51,51,51)" fill-opacity="0.671875"/>
  <rect x="9" y="17" width="1" height="1" fill="rgb(50,50,50)" fill-opacity="0.8203125"/>
  <rect x="10" y="17" width="1" height="1" fill="rgb(49,49,51)" fill-opacity="0.8515625"/>
  <rect x="11" y="17" width="1" height="1" fill="rgb(50,50,50)" fill-opacity="0.78125"/>
  <rect x="12" y="17" width="1" height="1" fill="rgb(51,51,51)" fill-opacity="0.609375"/>
  <rect x="13" y="17" width="1" height="1" fill="rgb(51,51,51)" fill-opacity="0.421875"/>
  <rect x="14" y="17" width="1" height="1" fill="rgb(44,44,44)" fill-opacity="0.1171875"/>
  <rect x="15" y="17" width="6" height="1" fill="rgb(255,255,255)" fill-opacity="0.0078125"/>
  <rect x="0" y="18" width="7" height="1" fill="rgb(255,255,255)" fill-opacity="0.0078125"/>
  <rect x="7" y="18" width="1" height="1" fill="rgb(49,49,49)" fill-opacity="0.125"/>
  <rect x="8" y="18" width="1" height="1" fill="rgb(51,51,51)" fill-opacity="0.2578125"/>
  <rect x="9" y="18" width="1" height="1" fill="rgb(49,49,49)" fill-opacity="0.3515625"/>
  <rect x="10" y="18" width="1" height="1" fill="rgb(49,49,49)" fill-opacity="0.4140625"/>
  <rect x="11" y="18" width="1" height="1" fill="rgb(49,49,49)" fill-opacity="0.328125"/>
  <rect x="12" y="18" width="1" height="1" fill="rgb(49,49,49)" fill-opacity="0.25"/>
  <rect x="13" y="18" width="1" height="1" fill="rgb(53,53,53)" fill-opacity="0.140625"/>
  <rect x="14" y="18" width="1" height="1" fill="rgb(0,0,0)" fill-opacity="0.0078125"/>
  <rect x="15" y="18" width="6" height="1" fill="rgb(255,255,255)" fill-opacity="0.0078125"/>
  <rect x="0" y="19" width="21" height="1" fill="rgb(255,255,255)" fill-opacity="0.0078125"/>
  <rect x="0" y="20" width="21" height="1" fill="rgb(255,255,255)" fill-opacity="0.0078125"/>
</svg>