<svg xmlns="http://www.w3.org/2000/svg" shape-rendering="crispEdges" width="21" height="21" viewBox="0 0 21 21">
  <rect x="0" y="0" width="21" height="1" fill="rgb(255,255,255)" fill-opacity="0.0078125"/>
  <rect x="0" y="1" width="21" height="1" fill="rgb(255,255,255)" fill-opacity="0.0078125"/>
  <rect x="0" y="2" width="21" height="1" fill="rgb(255,255,255)" fill-opacity="0.0078125"/>
  <rect x="0" y="3" width="21" height="1" fill="rgb(255,255,255)" fill-opacity="0.0078125"/>
  <rect x="0" y="4" width="21" height="1" fill="rgb(255,255,255)" fill-opacity="0.0078125"/>
  <rect x="0" y="5" width="21" height="1" fill="rgb(255,255,255)" fill-opacity="0.0078125"/>
  <rect x="0" y="6" width="21" height="1" fill="rgb(255,255,255)" fill-opacity="0.0078125"/>
  <rect x="0" y="7" width="21" height="1" fill="rgb(255,255,255)" fill-opacity="0.0078125"/>
  <rect x="0" y="8" width="3" height="1" fill="rgb(255,255,255)" fill-opacity="0.0078125"/>
  <rect x="3" y="8" width="1" height="1" fill="rgb(26,26,26)" fill-opacity="0.3203125"/>
  <rect x="4" y="8" width="1" height="1" fill="rgb(50,50,50)" fill-opacity="0.859375"/>
  <rect x="5" y="8" width="11" height="1" fill="rgb(64,64,64)" fill-opacity="0.9296875"/>
  <rect x="16" y="8" width="1" height="1" fill="rgb(51,51,51)" fill-opacity="0.8828125"/>
  <rect x="17" y="8" width="1" height="1" fill="rgb(27,27,27)" fill-opacity="0.3359375"/>
  <rect x="18" y="8" width="3" height="1" fill="rgb(255,255,255)" fill-opacity="0.0078125"/>
  <rect x="0" y="9" width="3" height="1" fill="rgb(255,255,255)" fill-opacity="0.0078125"/>
  <rect x="3" y="9" width="1" height="1" fill="rgb(52,52,52)" fill-opacity="0.8515625"/>
  <rect x="4" y="9" width="1" height="1" fill="rgb(205,205,205)"/>
  <rect x="5" y="9" width="11" height="1" fill="rgb(215,215,215)"/>
  <rect x="16" y="9" width="1" height="1" fill="rgb(208,208,208)"/>
  <rect x="17" y="9" width="1" height="1" fill="rgb(55,55,55)" fill-opacity="0.8671875"/>
  <rect x="18" y="9" width="3" height="1" fill="rgb(255,255,255)" fill-opacity="0.0078125"/>
  <rect x="0" y="10" width="3" height="1" fill="rgb(255,255,255)" fill-opacity="0.0078125"/>
  <rect x="3" y="10" width="1" height="1" fill="rgb(65,65,65)" fill-opacity="0.90625"/>
  <rect x="4" y="10" width="1" height="1" fill="rgb(215,215,215)"/>
  <rect x="5" y="10" width="1" height="1" fill="rgb(95,95,95)"/>
  <rect x="6" y="10" width="9" height="1" fill="rgb(64,64,64)" fill-opacity="0.9296875"/>
  <rect x="15" y="10" width="1" height="1" fill="rgb(90,90,90)"/>
  <rect x="16" y="10" width="1" height="1" fill="rgb(215,215,215)"/>
  <rect x="17" y="10" width="1" height="1" fill="rgb(71,71,71)" fill-opacity="0.9296875"/>
  <rect x="18" y="10" width="3" height="1" fill="rgb(255,255,255)" fill-opacity="0.0078125"/>
  <rect x="0" y="11" width="3" height="1" fill="rgb(255,255,255)" fill-opacity="0.0078125"/>
  <rect x="3" y="11" width="1" height="1" fill="rgb(65,65,65)" fill-opacity="0.90625"/>
  <rect x="4" y="11" width="1" height="1" fill="rgb(215,215,215)"/>
  <rect x="5" y="11" width="1" height="1" fill="rgb(71,71,71)" fill-opacity="0.9296875"/>
  <rect x="6" y="11" width="9" height="1" fill="rgb(255,255,255)" fill-opacity="0.0078125"/>
  <rect x="15" y="11" width="1" height="1" fill="rgb(65,65,65)" fill-opacity="0.90625"/>
  <rect x="16" y="11" width="1" height="1" fill="rgb(215,215,215)"/>
  <rect x="17" y="11" width="1" height="1" fill="rgb(71,71,71)" fill-opacity="0.9296875"/>
  <rect x="18" y="11" width="3" height="1" fill="rgb(255,255,255)" fill-opacity="0.0078125"/>
  <rect x="0" y="12" width="3" height="1" fill="rgb(255,255,255)" fill-opacity="0.0078125"/>
  <rect x="3" y="12" width="1" height="1" fill="rgb(65,65,65)" fill-opacity="0.90625"/>
  <rect x="4" y="12" width="1" height="1" fill="rgb(215,215,215)"/>
  <rect x="5" y="12" width="1" height="1" fill="rgb(71,71,71)" fill-opacity="0.9296875"/>
  <rect x="6" y="12" width="9" height="1" fill="rgb(255,255,255)" fill-opacity="0.0078125"/>
  <rect x="15" y="12" width="1" height="1" fill="rgb(65,65,65)" fill-opacity="0.90625"/>
  <rect x="16" y="12" width="1" height="1" fill="rgb(215,215,215)"/>
  <rect x="17" y="12" width="1" height="1" fill="rgb(71,71,71)" fill-opacity="0.9296875"/>
  <rect x="18" y="12" width="3" height="1" fill="rgb(255,255,255)" fill-opacity="0.0078125"/>
  <rect x="0" y="13" width="3" height="1" fill="rgb(255,255,255)" fill-opacity="0.0078125"/>
  <rect x="3" y="13" width="1" height="1" fill="rgb(54,54,54)" fill-opacity="0.84375"/>
  <rect x="4" y="13" width="1" height="1" fill="rgb(212,212,212)"/>
  <rect x="5" y="13" width="1" height="1" fill="rgb(60,60,60)" fill-opacity="0.90625"/>
  <rect x="6" y="13" width="9" height="1" fill="rgb(255,255,255)" fill-opacity="0.0078125"/>
  <rect x="15" y="13" width="1" height="1" fill="rgb(54,54,54)" fill-opacity="0.84375"/>
  <rect x="16" y="13" width="1" height="1" fill="rgb(212,212,212)"/>
  <rect x="17" y="13" width="1" height="1" fill="rgb(60,60,60)" fill-opacity="0.90625"/>
  <rect x="18" y="13" width="3" height="1" fill="rgb(255,255,255)" fill-opacity="0.0078125"/>
  <rect x="0" y="14" width="3" height="1" fill="rgb(255,255,255)" fill-opacity="0.0078125"/>
  <rect x="3" y="14" width="1" height="1" fill="rgb(26,26,26)" fill-opacity="0.3046875"/>
  <rect x="4" y="14" width="1" height="1" fill="rgb(44,44,44)" fill-opacity="0.796875"/>
  <rect x="5" y="14" width="1" height="1" fill="rgb(25,25,25)" fill-opacity="0.3203125"/>
  <rect x="6" y="14" width="9" height="1" fill="rgb(255,255,255)" fill-opacity="0.0078125"/>
  <rect x="15" y="14" width="1" height="1" fill="rgb(26,26,26)" fill-opacity="0.3046875"/>
  <rect x="16" y="14" width="1" height="1" fill="rgb(44,44,44)" fill-opacity="0.796875"/>
  <rect x="17" y="14" width="1" height="1" fill="rgb(25,25,25)" fill-opacity="0.3203125"/>
  <rect x="18" y="14" width="3" height="1" fill="rgb(255,255,255)" fill-opacity="0.0078125"/>
  <rect x="0" y="15" width="21" height="1" fill="rgb(255,255,255)" fill-opacity="0.0078125"/>
  <rect x="0" y="16" width="21" height="1" fill="rgb(255,255,255)" fill-opacity="0.0078125"/>
  <rect x="0" y="17" width="21" height="1" fill="rgb(255,255,255)" fill-opacity="0.0078125"/>
  <rect x="0" y="18" width="21" height="1" fill="rgb(255,255,255)" fill-opacity="0.0078125"/>
  <rect x="0" y="19" width="21" height="1" fill="rgb(255,255,255)" fill-opacity="0.0078125"/>
  <rect x="0" y="20" width="21" height="1" fill="rgb(255,255,255)" fill-opacity="0.0078125"/>
</svg>