<svg xmlns="http://www.w3.org/2000/svg" shape-rendering="crispEdges" width="21" height="21" viewBox="0 0 21 21">
  <rect x="0" y="0" width="1" height="21" fill="rgb(255,255,255)" fill-opacity="0.0078125"/>
  <rect x="1" y="0" width="1" height="21" fill="rgb(255,255,255)" fill-opacity="0.0078125"/>
  <rect x="2" y="0" width="1" height="21" fill="rgb(255,255,255)" fill-opacity="0.0078125"/>
  <rect x="3" y="0" width="1" height="21" fill="rgb(255,255,255)" fill-opacity="0.0078125"/>
  <rect x="4" y="0" width="1" height="5" fill="rgb(255,255,255)" fill-opacity="0.0078125"/>
  <rect x="4" y="5" width="1" height="1" fill="rgb(26,26,26)" fill-opacity="0.8359375"/>
  <rect x="4" y="6" width="1" height="2" fill="rgb(27,27,27)" fill-opacity="0.890625"/>
  <rect x="4" y="8" width="1" height="1" fill="rgb(28,28,28)" fill-opacity="0.890625"/>
  <rect x="4" y="9" width="1" height="1" fill="rgb(29,29,29)" fill-opacity="0.890625"/>
  <rect x="4" y="10" width="1" height="2" fill="rgb(30,30,30)" fill-opacity="0.890625"/>
  <rect x="4" y="12" width="1" height="1" fill="rgb(32,32,32)" fill-opacity="0.890625"/>
  <rect x="4" y="13" width="1" height="1" fill="rgb(33,33,33)" fill-opacity="0.890625"/>
  <rect x="4" y="14" width="1" height="2" fill="rgb(34,34,34)" fill-opacity="0.890625"/>
  <rect x="4" y="16" width="1" height="1" fill="rgb(35,35,35)" fill-opacity="0.890625"/>
  <rect x="4" y="17" width="1" height="1" fill="rgb(31,31,31)" fill-opacity="0.8359375"/>
  <rect x="4" y="18" width="1" height="3" fill="rgb(255,255,255)" fill-opacity="0.0078125"/>
  <rect x="5" y="0" width="1" height="5" fill="rgb(255,255,255)" fill-opacity="0.0078125"/>
  <rect x="5" y="5" width="1" height="1" fill="rgb(26,26,26)" fill-opacity="0.9140625"/>
  <rect x="5" y="6" width="1" height="1" fill="rgb(165,165,165)"/>
  <rect x="5" y="7" width="1" height="1" fill="rgb(168,168,168)"/>
  <rect x="5" y="8" width="1" height="1" fill="rgb(171,171,171)"/>
  <rect x="5" y="9" width="1" height="1" fill="rgb(169,169,169)"/>
  <rect x="5" y="10" width="1" height="1" fill="rgb(167,167,167)"/>
  <rect x="5" y="11" width="1" height="1" fill="rgb(166,166,166)"/>
  <rect x="5" y="12" width="1" height="1" fill="rgb(165,165,165)"/>
  <rect x="5" y="13" width="1" height="2" fill="rgb(164,164,164)"/>
  <rect x="5" y="15" width="1" height="1" fill="rgb(163,163,163)"/>
  <rect x="5" y="16" width="1" height="1" fill="rgb(164,164,164)"/>
  <rect x="5" y="17" width="1" height="1" fill="rgb(35,35,35)" fill-opacity="0.9140625"/>
  <rect x="5" y="18" width="1" height="3" fill="rgb(255,255,255)" fill-opacity="0.0078125"/>
  <rect x="6" y="0" width="1" height="5" fill="rgb(255,255,255)" fill-opacity="0.0078125"/>
  <rect x="6" y="5" width="1" height="1" fill="rgb(27,27,27)" fill-opacity="0.9140625"/>
  <rect x="6" y="6" width="1" height="1" fill="rgb(171,171,171)"/>
  <rect x="6" y="7" width="1" height="1" fill="rgb(57,57,57)"/>
  <rect x="6" y="8" width="1" height="1" fill="rgb(65,65,65)"/>
  <rect x="6" y="9" width="1" height="1" fill="rgb(71,71,71)"/>
  <rect x="6" y="10" width="1" height="1" fill="rgb(78,78,78)"/>
  <rect x="6" y="11" width="1" height="1" fill="rgb(84,84,84)"/>
  <rect x="6" y="12" width="1" height="1" fill="rgb(91,91,91)"/>
  <rect x="6" y="13" width="1" height="1" fill="rgb(98,98,98)"/>
  <rect x="6" y="14" width="1" height="1" fill="rgb(106,106,106)"/>
  <rect x="6" y="15" width="1" height="1" fill="rgb(113,113,113)"/>
  <rect x="6" y="16" width="1" height="1" fill="rgb(166,166,166)"/>
  <rect x="6" y="17" width="1" height="1" fill="rgb(36,36,36)" fill-opacity="0.9140625"/>
  <rect x="6" y="18" width="1" height="3" fill="rgb(255,255,255)" fill-opacity="0.0078125"/>
  <rect x="7" y="0" width="1" height="5" fill="rgb(255,255,255)" fill-opacity="0.0078125"/>
  <rect x="7" y="5" width="1" height="1" fill="rgb(27,27,27)" fill-opacity="0.9140625"/>
  <rect x="7" y="6" width="1" height="1" fill="rgb(174,174,174)"/>
  <rect x="7" y="7" width="1" height="1" fill="rgb(60,60,60)"/>
  <rect x="7" y="8" width="1" height="1" fill="rgb(67,67,67)"/>
  <rect x="7" y="9" width="1" height="1" fill="rgb(119,119,119)"/>
  <rect x="7" y="10" width="1" height="1" fill="rgb(205,205,205)"/>
  <rect x="7" y="11" width="1" height="1" fill="rgb(246,246,246)"/>
  <rect x="7" y="12" width="1" height="1" fill="rgb(206,206,206)"/>
  <rect x="7" y="13" width="1" height="1" fill="rgb(143,143,143)"/>
  <rect x="7" y="14" width="1" height="1" fill="rgb(110,110,110)"/>
  <rect x="7" y="15" width="1" height="1" fill="rgb(117,117,117)"/>
  <rect x="7" y="16" width="1" height="1" fill="rgb(166,166,166)"/>
  <rect x="7" y="17" width="1" height="1" fill="rgb(36,36,36)" fill-opacity="0.9140625"/>
  <rect x="7" y="18" width="1" height="3" fill="rgb(255,255,255)" fill-opacity="0.0078125"/>
  <rect x="8" y="0" width="1" height="5" fill="rgb(255,255,255)" fill-opacity="0.0078125"/>
  <rect x="8" y="5" width="1" height="1" fill="rgb(29,29,29)" fill-opacity="0.9140625"/>
  <rect x="8" y="6" width="1" height="1" fill="rgb(171,171,171)"/>
  <rect x="8" y="7" width="1" height="1" fill="rgb(66,66,66)"/>
  <rect x="8" y="8" width="1" height="1" fill="rgb(123,123,123)"/>
  <rect x="8" y="9" width="1" height="1" fill="rgb(246,246,246)"/>
  <rect x="8" y="10" width="1" height="1" fill="rgb(201,201,201)"/>
  <rect x="8" y="11" width="1" height="1" fill="rgb(183,183,183)"/>
  <rect x="8" y="12" width="1" height="1" fill="rgb(208,208,208)"/>
  <rect x="8" y="13" width="1" height="1" fill="rgb(221,221,221)"/>
  <rect x="8" y="14" width="1" height="1" fill="rgb(149,149,149)"/>
  <rect x="8" y="15" width="1" height="1" fill="rgb(124,124,124)"/>
  <rect x="8" y="16" width="1" height="1" fill="rgb(167,167,167)"/>
  <rect x="8" y="17" width="1" height="1" fill="rgb(37,37,37)" fill-opacity="0.9140625"/>
  <rect x="8" y="18" width="1" height="3" fill="rgb(255,255,255)" fill-opacity="0.0078125"/>
  <rect x="9" y="0" width="1" height="5" fill="rgb(255,255,255)" fill-opacity="0.0078125"/>
  <rect x="9" y="5" width="1" height="1" fill="rgb(30,30,30)" fill-opacity="0.9140625"/>
  <rect x="9" y="6" width="1" height="1" fill="rgb(168,168,168)"/>
  <rect x="9" y="7" width="1" height="1" fill="rgb(73,73,73)"/>
  <rect x="9" y="8" width="1" height="1" fill="rgb(207,207,207)"/>
  <rect x="9" y="9" width="1" height="1" fill="rgb(202,202,202)"/>
  <rect x="9" y="10" width="1" height="1" fill="rgb(172,172,172)"/>
  <rect x="9" y="11" width="1" height="1" fill="rgb(189,189,189)"/>
  <rect x="9" y="12" width="1" height="1" fill="rgb(204,204,204)"/>
  <rect x="9" y="13" width="1" height="1" fill="rgb(220,220,220)"/>
  <rect x="9" y="14" width="1" height="1" fill="rgb(207,207,207)"/>
  <rect x="9" y="15" width="1" height="1" fill="rgb(130,130,130)"/>
  <rect x="9" y="16" width="1" height="1" fill="rgb(168,168,168)"/>
  <rect x="9" y="17" width="1" height="1" fill="rgb(38,38,38)" fill-opacity="0.9140625"/>
  <rect x="9" y="18" width="1" height="3" fill="rgb(255,255,255)" fill-opacity="0.0078125"/>
  <rect x="10" y="0" width="1" height="5" fill="rgb(255,255,255)" fill-opacity="0.0078125"/>
  <rect x="10" y="5" width="1" height="1" fill="rgb(30,30,30)" fill-opacity="0.9140625"/>
  <rect x="10" y="6" width="1" height="1" fill="rgb(165,165,165)"/>
  <rect x="10" y="7" width="1" height="1" fill="rgb(79,79,79)"/>
  <rect x="10" y="8" width="1" height="1" fill="rgb(249,249,249)"/>
  <rect x="10" y="9" width="1" height="1" fill="rgb(183,183,183)"/>
  <rect x="10" y="10" width="1" height="1" fill="rgb(187,187,187)"/>
  <rect x="10" y="11" width="1" height="1" fill="rgb(202,202,202)"/>
  <rect x="10" y="12" width="1" height="1" fill="rgb(216,216,216)"/>
  <rect x="10" y="13" width="1" height="1" fill="rgb(228,228,228)"/>
  <rect x="10" y="14" width="1" height="1" fill="rgb(235,235,235)"/>
  <rect x="10" y="15" width="1" height="1" fill="rgb(137,137,137)"/>
  <rect x="10" y="16" width="1" height="1" fill="rgb(170,170,170)"/>
  <rect x="10" y="17" width="1" height="1" fill="rgb(38,38,38)" fill-opacity="0.9140625"/>
  <rect x="10" y="18" width="1" height="3" fill="rgb(255,255,255)" fill-opacity="0.0078125"/>
  <rect x="11" y="0" width="1" height="5" fill="rgb(255,255,255)" fill-opacity="0.0078125"/>
  <rect x="11" y="5" width="1" height="1" fill="rgb(31,31,31)" fill-opacity="0.9140625"/>
  <rect x="11" y="6" width="1" height="1" fill="rgb(164,164,164)"/>
  <rect x="11" y="7" width="1" height="1" fill="rgb(86,86,86)"/>
  <rect x="11" y="8" width="1" height="1" fill="rgb(219,219,219)"/>
  <rect x="11" y="9" width="1" height="1" fill="rgb(209,209,209)"/>
  <rect x="11" y="10" width="1" height="1" fill="rgb(200,200,200)"/>
  <rect x="11" y="11" width="1" height="1" fill="rgb(214,214,214)"/>
  <rect x="11" y="12" width="1" height="1" fill="rgb(227,227,227)"/>
  <rect x="11" y="13" width="1" height="1" fill="rgb(239,239,239)"/>
  <rect x="11" y="14" width="1" height="1" fill="rgb(227,227,227)"/>
  <rect x="11" y="15" width="1" height="1" fill="rgb(143,143,143)"/>
  <rect x="11" y="16" width="1" height="1" fill="rgb(171,171,171)"/>
  <rect x="11" y="17" width="1" height="1" fill="rgb(40,40,40)" fill-opacity="0.9140625"/>
  <rect x="11" y="18" width="1" height="3" fill="rgb(255,255,255)" fill-opacity="0.0078125"/>
  <rect x="12" y="0" width="1" height="5" fill="rgb(255,255,255)" fill-opacity="0.0078125"/>
  <rect x="12" y="5" width="1" height="1" fill="rgb(31,31,31)" fill-opacity="0.9140625"/>
  <rect x="12" y="6" width="1" height="1" fill="rgb(162,162,162)"/>
  <rect x="12" y="7" width="1" height="1" fill="rgb(92,92,92)"/>
  <rect x="12" y="8" width="1" height="1" fill="rgb(148,148,148)"/>
  <rect x="12" y="9" width="1" height="1" fill="rgb(226,226,226)"/>
  <rect x="12" y="10" width="1" height="1" fill="rgb(217,217,217)"/>
  <rect x="12" y="11" width="1" height="1" fill="rgb(226,226,226)"/>
  <rect x="12" y="12" width="1" height="1" fill="rgb(238,238,238)"/>
  <rect x="12" y="13" width="1" height="1" fill="rgb(248,248,248)"/>
  <rect x="12" y="14" width="1" height="1" fill="rgb(177,177,177)"/>
  <rect x="12" y="15" width="1" height="1" fill="rgb(150,150,150)"/>
  <rect x="12" y="16" width="1" height="1" fill="rgb(174,174,174)"/>
  <rect x="12" y="17" width="1" height="1" fill="rgb(40,40,40)" fill-opacity="0.9140625"/>
  <rect x="12" y="18" width="1" height="3" fill="rgb(255,255,255)" fill-opacity="0.0078125"/>
  <rect x="13" y="0" width="1" height="5" fill="rgb(255,255,255)" fill-opacity="0.0078125"/>
  <rect x="13" y="5" width="1" height="1" fill="rgb(32,32,32)" fill-opacity="0.9140625"/>
  <rect x="13" y="6" width="1" height="1" fill="rgb(161,161,161)"/>
  <rect x="13" y="7" width="1" height="1" fill="rgb(99,99,99)"/>
  <rect x="13" y="8" width="1" height="1" fill="rgb(106,106,106)"/>
  <rect x="13" y="9" width="1" height="1" fill="rgb(153,153,153)"/>
  <rect x="13" y="10" width="1" height="1" fill="rgb(208,208,208)"/>
  <rect x="13" y="11" width="1" height="1" fill="rgb(234,234,234)"/>
  <rect x="13" y="12" width="1" height="1" fill="rgb(227,227,227)"/>
  <rect x="13" y="13" width="1" height="1" fill="rgb(178,178,178)"/>
  <rect x="13" y="14" width="1" height="1" fill="rgb(149,149,149)"/>
  <rect x="13" y="15" width="1" height="1" fill="rgb(156,156,156)"/>
  <rect x="13" y="16" width="1" height="1" fill="rgb(177,177,177)"/>
  <rect x="13" y="17" width="1" height="1" fill="rgb(41,41,41)" fill-opacity="0.9140625"/>
  <rect x="13" y="18" width="1" height="3" fill="rgb(255,255,255)" fill-opacity="0.0078125"/>
  <rect x="14" y="0" width="1" height="5" fill="rgb(255,255,255)" fill-opacity="0.0078125"/>
  <rect x="14" y="5" width="1" height="1" fill="rgb(33,33,33)" fill-opacity="0.9140625"/>
  <rect x="14" y="6" width="1" height="1" fill="rgb(160,160,160)"/>
  <rect x="14" y="7" width="1" height="1" fill="rgb(105,105,105)"/>
  <rect x="14" y="8" width="1" height="1" fill="rgb(112,112,112)"/>
  <rect x="14" y="9" width="1" height="1" fill="rgb(120,120,120)"/>
  <rect x="14" y="10" width="1" height="1" fill="rgb(127,127,127)"/>
  <rect x="14" y="11" width="1" height="1" fill="rgb(134,134,134)"/>
  <rect x="14" y="12" width="1" height="1" fill="rgb(141,141,141)"/>
  <rect x="14" y="13" width="1" height="1" fill="rgb(148,148,148)"/>
  <rect x="14" y="14" width="1" height="1" fill="rgb(156,156,156)"/>
  <rect x="14" y="15" width="1" height="1" fill="rgb(163,163,163)"/>
  <rect x="14" y="16" width="1" height="1" fill="rgb(180,180,180)"/>
  <rect x="14" y="17" width="1" height="1" fill="rgb(42,42,42)" fill-opacity="0.9140625"/>
  <rect x="14" y="18" width="1" height="3" fill="rgb(255,255,255)" fill-opacity="0.0078125"/>
  <rect x="15" y="0" width="1" height="5" fill="rgb(255,255,255)" fill-opacity="0.0078125"/>
  <rect x="15" y="5" width="1" height="1" fill="rgb(33,33,33)" fill-opacity="0.9140625"/>
  <rect x="15" y="6" width="1" height="2" fill="rgb(159,159,159)"/>
  <rect x="15" y="8" width="1" height="1" fill="rgb(160,160,160)"/>
  <rect x="15" y="9" width="1" height="1" fill="rgb(162,162,162)"/>
  <rect x="15" y="10" width="1" height="1" fill="rgb(163,163,163)"/>
  <rect x="15" y="11" width="1" height="1" fill="rgb(165,165,165)"/>
  <rect x="15" y="12" width="1" height="1" fill="rgb(169,169,169)"/>
  <rect x="15" y="13" width="1" height="1" fill="rgb(172,172,172)"/>
  <rect x="15" y="14" width="1" height="1" fill="rgb(175,175,175)"/>
  <rect x="15" y="15" width="1" height="1" fill="rgb(179,179,179)"/>
  <rect x="15" y="16" width="1" height="1" fill="rgb(183,183,183)"/>
  <rect x="15" y="17" width="1" height="1" fill="rgb(42,42,42)" fill-opacity="0.9140625"/>
  <rect x="15" y="18" width="1" height="3" fill="rgb(255,255,255)" fill-opacity="0.0078125"/>
  <rect x="16" y="0" width="1" height="5" fill="rgb(255,255,255)" fill-opacity="0.0078125"/>
  <rect x="16" y="5" width="1" height="1" fill="rgb(30,30,30)" fill-opacity="0.8671875"/>
  <rect x="16" y="6" width="1" height="2" fill="rgb(40,40,40)" fill-opacity="0.8984375"/>
  <rect x="16" y="8" width="1" height="1" fill="rgb(41,41,41)" fill-opacity="0.8984375"/>
  <rect x="16" y="9" width="1" height="1" fill="rgb(42,42,42)" fill-opacity="0.8984375"/>
  <rect x="16" y="10" width="1" height="3" fill="rgb(43,43,43)" fill-opacity="0.8984375"/>
  <rect x="16" y="13" width="1" height="1" fill="rgb(45,45,45)" fill-opacity="0.8984375"/>
  <rect x="16" y="14" width="1" height="2" fill="rgb(46,46,46)" fill-opacity="0.8984375"/>
  <rect x="16" y="16" width="1" height="1" fill="rgb(48,48,48)" fill-opacity="0.8984375"/>
  <rect x="16" y="17" width="1" height="1" fill="rgb(36,36,36)" fill-opacity="0.8671875"/>
  <rect x="16" y="18" width="1" height="3" fill="rgb(255,255,255)" fill-opacity="0.0078125"/>
  <rect x="17" y="0" width="1" height="21" fill="rgb(255,255,255)" fill-opacity="0.0078125"/>
  <rect x="18" y="0" width="1" height="21" fill="rgb(255,255,255)" fill-opacity="0.0078125"/>
  <rect x="19" y="0" width="1" height="21" fill="rgb(255,255,255)" fill-opacity="0.0078125"/>
  <rect x="20" y="0" width="1" height="21" fill="rgb(255,255,255)" fill-opacity="0.0078125"/>
</svg>