<svg xmlns="http://www.w3.org/2000/svg" shape-rendering="crispEdges" width="21" height="21" viewBox="0 0 21 21">
  <rect x="0" y="0" width="21" height="1" fill="rgb(255,255,255)" fill-opacity="0.0078125"/>
  <rect x="0" y="1" width="21" height="1" fill="rgb(255,255,255)" fill-opacity="0.0078125"/>
  <rect x="0" y="2" width="21" height="1" fill="rgb(255,255,255)" fill-opacity="0.0078125"/>
  <rect x="0" y="3" width="21" height="1" fill="rgb(255,255,255)" fill-opacity="0.0078125"/>
  <rect x="0" y="4" width="21" height="1" fill="rgb(255,255,255)" fill-opacity="0.0078125"/>
  <rect x="0" y="5" width="21" height="1" fill="rgb(255,255,255)" fill-opacity="0.0078125"/>
  <rect x="0" y="6" width="9" height="1" fill="rgb(255,255,255)" fill-opacity="0.0078125"/>
  <rect x="9" y="6" width="1" height="1" fill="rgb(32,32,32)" fill-opacity="0.7734375"/>
  <rect x="10" y="6" width="1" height="1" fill="rgb(35,35,35)" fill-opacity="0.9140625"/>
  <rect x="11" y="6" width="1" height="1" fill="rgb(37,37,37)" fill-opacity="0.9140625"/>
  <rect x="12" y="6" width="1" height="1" fill="rgb(37,37,37)" fill-opacity="0.8046875"/>
  <rect x="13" y="6" width="8" height="1" fill="rgb(255,255,255)" fill-opacity="0.0078125"/>
  <rect x="0" y="7" width="9" height="1" fill="rgb(255,255,255)" fill-opacity="0.0078125"/>
  <rect x="9" y="7" width="1" height="1" fill="rgb(37,37,37)" fill-opacity="0.890625"/>
  <rect x="10" y="7" width="1" height="1" fill="rgb(237,237,237)"/>
  <rect x="11" y="7" width="1" height="1" fill="rgb(241,241,241)"/>
  <rect x="12" y="7" width="1" height="1" fill="rgb(45,45,45)" fill-opacity="0.8984375"/>
  <rect x="13" y="7" width="8" height="1" fill="rgb(255,255,255)" fill-opacity="0.0078125"/>
  <rect x="0" y="8" width="9" height="1" fill="rgb(255,255,255)" fill-opacity="0.0078125"/>
  <rect x="9" y="8" width="1" height="1" fill="rgb(39,39,39)" fill-opacity="0.890625"/>
  <rect x="10" y="8" width="1" height="1" fill="rgb(252,252,252)"/>
  <rect x="11" y="8" width="1" height="1" fill="rgb(173,173,173)"/>
  <rect x="12" y="8" width="1" height="1" fill="rgb(47,47,47)" fill-opacity="0.8984375"/>
  <rect x="13" y="8" width="8" height="1" fill="rgb(255,255,255)" fill-opacity="0.0078125"/>
  <rect x="0" y="9" width="6" height="1" fill="rgb(255,255,255)" fill-opacity="0.0078125"/>
  <rect x="6" y="9" width="1" height="1" fill="rgb(34,34,34)" fill-opacity="0.7734375"/>
  <rect x="7" y="9" width="1" height="1" fill="rgb(36,36,36)" fill-opacity="0.9140625"/>
  <rect x="8" y="9" width="1" height="1" fill="rgb(37,37,37)" fill-opacity="0.9140625"/>
  <rect x="9" y="9" width="1" height="1" fill="rgb(54,54,54)" fill-opacity="0.9296875"/>
  <rect x="10" y="9" width="1" height="1" fill="rgb(253,253,253)"/>
  <rect x="11" y="9" width="1" height="1" fill="rgb(190,190,190)"/>
  <rect x="12" y="9" width="1" height="1" fill="rgb(70,70,70)" fill-opacity="0.9296875"/>
  <rect x="13" y="9" width="1" height="1" fill="rgb(45,45,45)" fill-opacity="0.9140625"/>
  <rect x="14" y="9" width="1" height="1" fill="rgb(47,47,47)" fill-opacity="0.9140625"/>
  <rect x="15" y="9" width="1" height="1" fill="rgb(46,46,46)" fill-opacity="0.8046875"/>
  <rect x="16" y="9" width="5" height="1" fill="rgb(255,255,255)" fill-opacity="0.0078125"/>
  <rect x="0" y="10" width="6" height="1" fill="rgb(255,255,255)" fill-opacity="0.0078125"/>
  <rect x="6" y="10" width="1" height="1" fill="rgb(38,38,38)" fill-opacity="0.890625"/>
  <rect x="7" y="10" width="1" height="1" fill="rgb(238,238,238)"/>
  <rect x="8" y="10" width="2" height="1" fill="rgb(255,255,255)"/>
  <rect x="10" y="10" width="1" height="1" fill="rgb(248,248,248)"/>
  <rect x="11" y="10" width="1" height="1" fill="rgb(207,207,207)"/>
  <rect x="12" y="10" width="1" height="1" fill="rgb(221,221,221)"/>
  <rect x="13" y="10" width="1" height="1" fill="rgb(236,236,236)"/>
  <rect x="14" y="10" width="1" height="1" fill="rgb(252,252,252)"/>
  <rect x="15" y="10" width="1" height="1" fill="rgb(56,56,56)" fill-opacity="0.8984375"/>
  <rect x="16" y="10" width="5" height="1" fill="rgb(255,255,255)" fill-opacity="0.0078125"/>
  <rect x="0" y="11" width="6" height="1" fill="rgb(255,255,255)" fill-opacity="0.0078125"/>
  <rect x="6" y="11" width="1" height="1" fill="rgb(39,39,39)" fill-opacity="0.890625"/>
  <rect x="7" y="11" width="1" height="1" fill="rgb(207,207,207)"/>
  <rect x="8" y="11" width="1" height="1" fill="rgb(179,179,179)"/>
  <rect x="9" y="11" width="1" height="1" fill="rgb(194,194,194)"/>
  <rect x="10" y="11" width="1" height="1" fill="rgb(209,209,209)"/>
  <rect x="11" y="11" width="1" height="1" fill="rgb(224,224,224)"/>
  <rect x="12" y="11" width="1" height="1" fill="rgb(239,239,239)"/>
  <rect x="13" y="11" width="1" height="1" fill="rgb(254,254,254)"/>
  <rect x="14" y="11" width="1" height="1" fill="rgb(255,255,255)"/>
  <rect x="15" y="11" width="1" height="1" fill="rgb(56,56,56)" fill-opacity="0.8984375"/>
  <rect x="16" y="11" width="5" height="1" fill="rgb(255,255,255)" fill-opacity="0.0078125"/>
  <rect x="0" y="12" width="6" height="1" fill="rgb(255,255,255)" fill-opacity="0.0078125"/>
  <rect x="6" y="12" width="1" height="1" fill="rgb(39,39,39)" fill-opacity="0.7734375"/>
  <rect x="7" y="12" width="1" height="1" fill="rgb(42,42,42)" fill-opacity="0.9140625"/>
  <rect x="8" y="12" width="1" height="1" fill="rgb(43,43,43)" fill-opacity="0.9140625"/>
  <rect x="9" y="12" width="1" height="1" fill="rgb(66,66,66)" fill-opacity="0.9296875"/>
  <rect x="10" y="12" width="1" height="1" fill="rgb(227,227,227)"/>
  <rect x="11" y="12" width="1" height="1" fill="rgb(242,242,242)"/>
  <rect x="12" y="12" width="1" height="1" fill="rgb(83,83,83)" fill-opacity="0.9296875"/>
  <rect x="13" y="12" width="2" height="1" fill="rgb(49,49,49)" fill-opacity="0.9140625"/>
  <rect x="15" y="12" width="1" height="1" fill="rgb(46,46,46)" fill-opacity="0.8046875"/>
  <rect x="16" y="12" width="5" height="1" fill="rgb(255,255,255)" fill-opacity="0.0078125"/>
  <rect x="0" y="13" width="9" height="1" fill="rgb(255,255,255)" fill-opacity="0.0078125"/>
  <rect x="9" y="13" width="1" height="1" fill="rgb(50,50,50)" fill-opacity="0.890625"/>
  <rect x="10" y="13" width="1" height="1" fill="rgb(245,245,245)"/>
  <rect x="11" y="13" width="1" height="1" fill="rgb(255,255,255)"/>
  <rect x="12" y="13" width="1" height="1" fill="rgb(56,56,56)" fill-opacity="0.8984375"/>
  <rect x="13" y="13" width="8" height="1" fill="rgb(255,255,255)" fill-opacity="0.0078125"/>
  <rect x="0" y="14" width="9" height="1" fill="rgb(255,255,255)" fill-opacity="0.0078125"/>
  <rect x="9" y="14" width="1" height="1" fill="rgb(51,51,51)" fill-opacity="0.890625"/>
  <rect x="10" y="14" width="2" height="1" fill="rgb(255,255,255)"/>
  <rect x="12" y="14" width="1" height="1" fill="rgb(56,56,56)" fill-opacity="0.8984375"/>
  <rect x="13" y="14" width="8" height="1" fill="rgb(255,255,255)" fill-opacity="0.0078125"/>
  <rect x="0" y="15" width="9" height="1" fill="rgb(255,255,255)" fill-opacity="0.0078125"/>
  <rect x="9" y="15" width="1" height="1" fill="rgb(47,47,47)" fill-opacity="0.7734375"/>
  <rect x="10" y="15" width="2" height="1" fill="rgb(49,49,49)" fill-opacity="0.9140625"/>
  <rect x="12" y="15" width="1" height="1" fill="rgb(46,46,46)" fill-opacity="0.8046875"/>
  <rect x="13" y="15" width="8" height="1" fill="rgb(255,255,255)" fill-opacity="0.0078125"/>
  <rect x="0" y="16" width="21" height="1" fill="rgb(255,255,255)" fill-opacity="0.0078125"/>
  <rect x="0" y="17" width="21" height="1" fill="rgb(255,255,255)" fill-opacity="0.0078125"/>
  <rect x="0" y="18" width="21" height="1" fill="rgb(255,255,255)" fill-opacity="0.0078125"/>
  <rect x="0" y="19" width="21" height="1" fill="rgb(255,255,255)" fill-opacity="0.0078125"/>
  <rect x="0" y="20" width="21" height="1" fill="rgb(255,255,255)" fill-opacity="0.0078125"/>
</svg>