<svg xmlns="http://www.w3.org/2000/svg" shape-rendering="crispEdges" width="21" height="21" viewBox="0 0 21 21">
  <rect x="0" y="0" width="21" height="1" fill="rgb(255,255,255)" fill-opacity="0.0078125"/>
  <rect x="0" y="1" width="21" height="1" fill="rgb(255,255,255)" fill-opacity="0.0078125"/>
  <rect x="0" y="2" width="21" height="1" fill="rgb(255,255,255)" fill-opacity="0.0078125"/>
  <rect x="0" y="3" width="14" height="1" fill="rgb(255,255,255)" fill-opacity="0.0078125"/>
  <rect x="14" y="3" width="1" height="1" fill="rgb(0,0,0)" fill-opacity="0.4296875"/>
  <rect x="15" y="3" width="1" height="1" fill="rgb(26,26,26)" fill-opacity="0.828125"/>
  <rect x="16" y="3" width="1" height="1" fill="rgb(74,74,74)" fill-opacity="0.9921875"/>
  <rect x="17" y="3" width="1" height="1" fill="rgb(80,80,80)"/>
  <rect x="18" y="3" width="1" height="1" fill="rgb(66,66,66)" fill-opacity="0.5078125"/>
  <rect x="19" y="3" width="2" height="1" fill="rgb(255,255,255)" fill-opacity="0.0078125"/>
  <rect x="0" y="4" width="13" height="1" fill="rgb(255,255,255)" fill-opacity="0.0078125"/>
  <rect x="13" y="4" width="1" height="1" fill="rgb(2,2,2)" fill-opacity="0.5546875"/>
  <rect x="14" y="4" width="1" height="1" fill="rgb(145,145,145)"/>
  <rect x="15" y="4" width="1" height="1" fill="rgb(254,254,254)"/>
  <rect x="16" y="4" width="2" height="1" fill="rgb(255,255,255)"/>
  <rect x="18" y="4" width="1" height="1" fill="rgb(207,207,207)" fill-opacity="0.5078125"/>
  <rect x="19" y="4" width="2" height="1" fill="rgb(255,255,255)" fill-opacity="0.0078125"/>
  <rect x="0" y="5" width="3" height="1" fill="rgb(255,255,255)" fill-opacity="0.0078125"/>
  <rect x="3" y="5" width="1" height="1" fill="rgb(68,77,61)" fill-opacity="0.4296875"/>
  <rect x="4" y="5" width="2" height="1" fill="rgb(77,90,69)"/>
  <rect x="6" y="5" width="1" height="1" fill="rgb(55,61,49)" fill-opacity="0.8984375"/>
  <rect x="7" y="5" width="1" height="1" fill="rgb(26,26,26)" fill-opacity="0.46875"/>
  <rect x="8" y="5" width="1" height="1" fill="rgb(0,0,0)" fill-opacity="0.015625"/>
  <rect x="9" y="5" width="3" height="1" fill="rgb(255,255,255)" fill-opacity="0.0078125"/>
  <rect x="12" y="5" width="1" height="1" fill="rgb(0,0,0)" fill-opacity="0.1484375"/>
  <rect x="13" y="5" width="1" height="1" fill="rgb(95,95,95)"/>
  <rect x="14" y="5" width="1" height="1" fill="rgb(255,255,255)"/>
  <rect x="15" y="5" width="1" height="1" fill="rgb(178,178,178)"/>
  <rect x="16" y="5" width="1" height="1" fill="rgb(88,88,88)"/>
  <rect x="17" y="5" width="1" height="1" fill="rgb(80,80,80)"/>
  <rect x="18" y="5" width="1" height="1" fill="rgb(66,66,66)" fill-opacity="0.5078125"/>
  <rect x="19" y="5" width="2" height="1" fill="rgb(255,255,255)" fill-opacity="0.0078125"/>
  <rect x="0" y="6" width="3" height="1" fill="rgb(255,255,255)" fill-opacity="0.0078125"/>
  <rect x="3" y="6" width="1" height="1" fill="rgb(159,192,138)" fill-opacity="0.4296875"/>
  <rect x="4" y="6" width="2" height="1" fill="rgb(189,231,162)"/>
  <rect x="6" y="6" width="1" height="1" fill="rgb(184,226,160)"/>
  <rect x="7" y="6" width="1" height="1" fill="rgb(124,150,110)"/>
  <rect x="8" y="6" width="1" height="1" fill="rgb(25,25,25)" fill-opacity="0.5546875"/>
  <rect x="9" y="6" width="3" height="1" fill="rgb(255,255,255)" fill-opacity="0.0078125"/>
  <rect x="12" y="6" width="1" height="1" fill="rgb(0,0,0)" fill-opacity="0.53125"/>
  <rect x="13" y="6" width="1" height="1" fill="rgb(198,198,198)"/>
  <rect x="14" y="6" width="1" height="1" fill="rgb(235,235,235)"/>
  <rect x="15" y="6" width="1" height="1" fill="rgb(8,8,8)" fill-opacity="0.7578125"/>
  <rect x="16" y="6" width="1" height="1" fill="rgb(0,0,0)" fill-opacity="0.0625"/>
  <rect x="17" y="6" width="4" height="1" fill="rgb(255,255,255)" fill-opacity="0.0078125"/>
  <rect x="0" y="7" width="3" height="1" fill="rgb(255,255,255)" fill-opacity="0.0078125"/>
  <rect x="3" y="7" width="1" height="1" fill="rgb(68,77,61)" fill-opacity="0.4296875"/>
  <rect x="4" y="7" width="1" height="1" fill="rgb(77,90,69)"/>
  <rect x="5" y="7" width="1" height="1" fill="rgb(78,91,69)"/>
  <rect x="6" y="7" width="1" height="1" fill="rgb(129,158,117)"/>
  <rect x="7" y="7" width="1" height="1" fill="rgb(172,213,156)"/>
  <rect x="8" y="7" width="1" height="1" fill="rgb(79,95,74)" fill-opacity="0.9921875"/>
  <rect x="9" y="7" width="1" height="1" fill="rgb(26,26,26)" fill-opacity="0.15625"/>
  <rect x="10" y="7" width="1" height="1" fill="rgb(255,255,255)" fill-opacity="0.0078125"/>
  <rect x="11" y="7" width="1" height="1" fill="rgb(0,0,0)" fill-opacity="0.0234375"/>
  <rect x="12" y="7" width="1" height="1" fill="rgb(46,46,46)" fill-opacity="0.921875"/>
  <rect x="13" y="7" width="1" height="1" fill="rgb(255,255,255)"/>
  <rect x="14" y="7" width="1" height="1" fill="rgb(141,141,141)"/>
  <rect x="15" y="7" width="1" height="1" fill="rgb(0,0,0)" fill-opacity="0.3125"/>
  <rect x="16" y="7" width="5" height="1" fill="rgb(255,255,255)" fill-opacity="0.0078125"/>
  <rect x="0" y="8" width="5" height="1" fill="rgb(255,255,255)" fill-opacity="0.0078125"/>
  <rect x="5" y="8" width="1" height="1" fill="rgb(51,51,51)" fill-opacity="0.0234375"/>
  <rect x="6" y="8" width="1" height="1" fill="rgb(31,33,31)" fill-opacity="0.734375"/>
  <rect x="7" y="8" width="1" height="1" fill="rgb(149,187,141)"/>
  <rect x="8" y="8" width="1" height="1" fill="rgb(132,164,125)"/>
  <rect x="9" y="8" width="1" height="1" fill="rgb(27,27,27)" fill-opacity="0.4921875"/>
  <rect x="10" y="8" width="1" height="1" fill="rgb(255,255,255)" fill-opacity="0.0078125"/>
  <rect x="11" y="8" width="1" height="1" fill="rgb(0,0,0)" fill-opacity="0.3125"/>
  <rect x="12" y="8" width="1" height="1" fill="rgb(141,141,141)"/>
  <rect x="13" y="8" width="1" height="1" fill="rgb(255,255,255)"/>
  <rect x="14" y="8" width="1" height="1" fill="rgb(46,46,46)" fill-opacity="0.921875"/>
  <rect x="15" y="8" width="1" height="1" fill="rgb(0,0,0)" fill-opacity="0.0234375"/>
  <rect x="16" y="8" width="5" height="1" fill="rgb(255,255,255)" fill-opacity="0.0078125"/>
  <rect x="0" y="9" width="6" height="1" fill="rgb(255,255,255)" fill-opacity="0.0078125"/>
  <rect x="6" y="9" width="1" height="1" fill="rgb(27,27,27)" fill-opacity="0.34375"/>
  <rect x="7" y="9" width="1" height="1" fill="rgb(110,137,108)"/>
  <rect x="8" y="9" width="1" height="1" fill="rgb(147,185,144)"/>
  <rect x="9" y="9" width="1" height="1" fill="rgb(37,39,35)" fill-opacity="0.765625"/>
  <rect x="10" y="9" width="1" height="1" fill="rgb(0,0,0)" fill-opacity="0.0625"/>
  <rect x="11" y="9" width="1" height="1" fill="rgb(8,8,8)" fill-opacity="0.7578125"/>
  <rect x="12" y="9" width="1" height="1" fill="rgb(235,235,235)"/>
  <rect x="13" y="9" width="1" height="1" fill="rgb(198,198,198)"/>
  <rect x="14" y="9" width="1" height="1" fill="rgb(0,0,0)" fill-opacity="0.53125"/>
  <rect x="15" y="9" width="6" height="1" fill="rgb(255,255,255)" fill-opacity="0.0078125"/>
  <rect x="0" y="10" width="3" height="1" fill="rgb(255,255,255)" fill-opacity="0.0078125"/>
  <rect x="3" y="10" width="1" height="1" fill="rgb(66,66,66)" fill-opacity="0.4296875"/>
  <rect x="4" y="10" width="6" height="1" fill="rgb(80,80,80)"/>
  <rect x="10" y="10" width="1" height="1" fill="rgb(88,88,88)"/>
  <rect x="11" y="10" width="1" height="1" fill="rgb(178,178,178)"/>
  <rect x="12" y="10" width="1" height="1" fill="rgb(255,255,255)"/>
  <rect x="13" y="10" width="1" height="1" fill="rgb(95,95,95)"/>
  <rect x="14" y="10" width="1" height="1" fill="rgb(0,0,0)" fill-opacity="0.1484375"/>
  <rect x="15" y="10" width="6" height="1" fill="rgb(255,255,255)" fill-opacity="0.0078125"/>
  <rect x="0" y="11" width="3" height="1" fill="rgb(255,255,255)" fill-opacity="0.0078125"/>
  <rect x="3" y="11" width="1" height="1" fill="rgb(208,208,208)" fill-opacity="0.4296875"/>
  <rect x="4" y="11" width="7" height="1" fill="rgb(255,255,255)"/>
  <rect x="11" y="11" width="1" height="1" fill="rgb(254,254,254)"/>
  <rect x="12" y="11" width="1" height="1" fill="rgb(145,145,145)"/>
  <rect x="13" y="11" width="1" height="1" fill="rgb(2,2,2)" fill-opacity="0.5546875"/>
  <rect x="14" y="11" width="7" height="1" fill="rgb(255,255,255)" fill-opacity="0.0078125"/>
  <rect x="0" y="12" width="3" height="1" fill="rgb(255,255,255)" fill-opacity="0.0078125"/>
  <rect x="3" y="12" width="1" height="1" fill="rgb(66,66,66)" fill-opacity="0.4296875"/>
  <rect x="4" y="12" width="6" height="1" fill="rgb(80,80,80)"/>
  <rect x="10" y="12" width="1" height="1" fill="rgb(73,73,73)"/>
  <rect x="11" y="12" width="1" height="1" fill="rgb(26,26,26)" fill-opacity="0.828125"/>
  <rect x="12" y="12" width="1" height="1" fill="rgb(0,0,0)" fill-opacity="0.4296875"/>
  <rect x="13" y="12" width="8" height="1" fill="rgb(255,255,255)" fill-opacity="0.0078125"/>
  <rect x="0" y="13" width="7" height="1" fill="rgb(255,255,255)" fill-opacity="0.0078125"/>
  <rect x="7" y="13" width="1" height="1" fill="rgb(26,26,26)" fill-opacity="0.234375"/>
  <rect x="8" y="13" width="1" height="1" fill="rgb(92,113,91)"/>
  <rect x="9" y="13" width="1" height="1" fill="rgb(147,186,145)"/>
  <rect x="10" y="13" width="1" height="1" fill="rgb(56,65,55)" fill-opacity="0.9375"/>
  <rect x="11" y="13" width="1" height="1" fill="rgb(0,0,0)" fill-opacity="0.015625"/>
  <rect x="12" y="13" width="2" height="1" fill="rgb(255,255,255)" fill-opacity="0.0078125"/>
  <rect x="14" y="13" width="1" height="1" fill="rgb(0,0,0)" fill-opacity="0.0078125"/>
  <rect x="15" y="13" width="1" height="1" fill="rgb(27,27,27)" fill-opacity="0.375"/>
  <rect x="16" y="13" width="1" height="1" fill="rgb(32,34,31)" fill-opacity="0.71875"/>
  <rect x="17" y="13" width="1" height="1" fill="rgb(68,80,62)" fill-opacity="0.96875"/>
  <rect x="18" y="13" width="1" height="1" fill="rgb(68,78,60)" fill-opacity="0.5078125"/>
  <rect x="19" y="13" width="2" height="1" fill="rgb(255,255,255)" fill-opacity="0.0078125"/>
  <rect x="0" y="14" width="7" height="1" fill="rgb(255,255,255)" fill-opacity="0.0078125"/>
  <rect x="7" y="14" width="1" height="1" fill="rgb(0,0,0)" fill-opacity="0.0078125"/>
  <rect x="8" y="14" width="1" height="1" fill="rgb(54,63,52)" fill-opacity="0.921875"/>
  <rect x="9" y="14" width="1" height="1" fill="rgb(158,198,150)"/>
  <rect x="10" y="14" width="1" height="1" fill="rgb(101,124,96)"/>
  <rect x="11" y="14" width="1" height="1" fill="rgb(26,26,26)" fill-opacity="0.234375"/>
  <rect x="12" y="14" width="1" height="1" fill="rgb(255,255,255)" fill-opacity="0.0078125"/>
  <rect x="13" y="14" width="1" height="1" fill="rgb(0,0,0)" fill-opacity="0.0078125"/>
  <rect x="14" y="14" width="1" height="1" fill="rgb(27,27,27)" fill-opacity="0.625"/>
  <rect x="15" y="14" width="1" height="1" fill="rgb(117,141,102)"/>
  <rect x="16" y="14" width="1" height="1" fill="rgb(183,224,157)"/>
  <rect x="17" y="14" width="1" height="1" fill="rgb(189,231,162)"/>
  <rect x="18" y="14" width="1" height="1" fill="rgb(159,193,137)" fill-opacity="0.5078125"/>
  <rect x="19" y="14" width="2" height="1" fill="rgb(255,255,255)" fill-opacity="0.0078125"/>
  <rect x="0" y="15" width="8" height="1" fill="rgb(255,255,255)" fill-opacity="0.0078125"/>
  <rect x="8" y="15" width="1" height="1" fill="rgb(26,26,26)" fill-opacity="0.5859375"/>
  <rect x="9" y="15" width="1" height="1" fill="rgb(150,185,137)"/>
  <rect x="10" y="15" width="1" height="1" fill="rgb(153,188,139)"/>
  <rect x="11" y="15" width="1" height="1" fill="rgb(34,37,34)" fill-opacity="0.765625"/>
  <rect x="12" y="15" width="1" height="1" fill="rgb(25,25,25)" fill-opacity="0.1640625"/>
  <rect x="13" y="15" width="1" height="1" fill="rgb(28,28,28)" fill-opacity="0.6015625"/>
  <rect x="14" y="15" width="1" height="1" fill="rgb(124,150,108)"/>
  <rect x="15" y="15" width="1" height="1" fill="rgb(189,231,162)"/>
  <rect x="16" y="15" width="1" height="1" fill="rgb(149,180,128)"/>
  <rect x="17" y="15" width="1" height="1" fill="rgb(92,109,81)"/>
  <rect x="18" y="15" width="1" height="1" fill="rgb(68,78,60)" fill-opacity="0.5078125"/>
  <rect x="19" y="15" width="2" height="1" fill="rgb(255,255,255)" fill-opacity="0.0078125"/>
  <rect x="0" y="16" width="8" height="1" fill="rgb(255,255,255)" fill-opacity="0.0078125"/>
  <rect x="8" y="16" width="1" height="1" fill="rgb(25,25,25)" fill-opacity="0.2109375"/>
  <rect x="9" y="16" width="1" height="1" fill="rgb(85,102,78)"/>
  <rect x="10" y="16" width="1" height="1" fill="rgb(180,222,159)"/>
  <rect x="11" y="16" width="1" height="1" fill="rgb(148,181,130)"/>
  <rect x="12" y="16" width="1" height="1" fill="rgb(95,113,84)"/>
  <rect x="13" y="16" width="1" height="1" fill="rgb(142,172,123)"/>
  <rect x="14" y="16" width="1" height="1" fill="rgb(189,231,162)"/>
  <rect x="15" y="16" width="1" height="1" fill="rgb(136,164,118)"/>
  <rect x="16" y="16" width="1" height="1" fill="rgb(28,30,28)" fill-opacity="0.640625"/>
  <rect x="17" y="16" width="1" height="1" fill="rgb(25,25,25)" fill-opacity="0.125"/>
  <rect x="18" y="16" width="3" height="1" fill="rgb(255,255,255)" fill-opacity="0.0078125"/>
  <rect x="0" y="17" width="9" height="1" fill="rgb(255,255,255)" fill-opacity="0.0078125"/>
  <rect x="9" y="17" width="1" height="1" fill="rgb(26,26,26)" fill-opacity="0.46875"/>
  <rect x="10" y="17" width="1" height="1" fill="rgb(109,131,96)"/>
  <rect x="11" y="17" width="1" height="1" fill="rgb(183,224,157)"/>
  <rect x="12" y="17" width="1" height="1" fill="rgb(189,231,162)"/>
  <rect x="13" y="17" width="1" height="1" fill="rgb(186,227,159)"/>
  <rect x="14" y="17" width="1" height="1" fill="rgb(129,156,112)"/>
  <rect x="15" y="17" width="1" height="1" fill="rgb(32,34,31)" fill-opacity="0.65625"/>
  <rect x="16" y="17" width="1" height="1" fill="rgb(0,0,0)" fill-opacity="0.015625"/>
  <rect x="17" y="17" width="4" height="1" fill="rgb(255,255,255)" fill-opacity="0.0078125"/>
  <rect x="0" y="18" width="10" height="1" fill="rgb(255,255,255)" fill-opacity="0.0078125"/>
  <rect x="10" y="18" width="1" height="1" fill="rgb(26,26,26)" fill-opacity="0.3515625"/>
  <rect x="11" y="18" width="1" height="1" fill="rgb(35,38,34)" fill-opacity="0.765625"/>
  <rect x="12" y="18" width="1" height="1" fill="rgb(67,78,60)" fill-opacity="0.953125"/>
  <rect x="13" y="18" width="1" height="1" fill="rgb(40,42,37)" fill-opacity="0.78125"/>
  <rect x="14" y="18" width="1" height="1" fill="rgb(26,26,26)" fill-opacity="0.421875"/>
  <rect x="15" y="18" width="1" height="1" fill="rgb(0,0,0)" fill-opacity="0.015625"/>
  <rect x="16" y="18" width="5" height="1" fill="rgb(255,255,255)" fill-opacity="0.0078125"/>
  <rect x="0" y="19" width="21" height="1" fill="rgb(255,255,255)" fill-opacity="0.0078125"/>
  <rect x="0" y="20" width="21" height="1" fill="rgb(255,255,255)" fill-opacity="0.0078125"/>
</svg>