<svg xmlns="http://www.w3.org/2000/svg" shape-rendering="crispEdges" width="21" height="21" viewBox="0 0 21 21">
  <rect x="0" y="0" width="21" height="1" fill="rgb(255,255,255)" fill-opacity="0.0078125"/>
  <rect x="0" y="1" width="21" height="1" fill="rgb(255,255,255)" fill-opacity="0.0078125"/>
  <rect x="0" y="2" width="21" height="1" fill="rgb(255,255,255)" fill-opacity="0.0078125"/>
  <rect x="0" y="3" width="6" height="1" fill="rgb(255,255,255)" fill-opacity="0.0078125"/>
  <rect x="6" y="3" width="1" height="1" fill="rgb(0,0,0)" fill-opacity="0.0078125"/>
  <rect x="7" y="3" width="1" height="1" fill="rgb(37,37,37)" fill-opacity="0.4375"/>
  <rect x="8" y="3" width="1" height="1" fill="rgb(44,44,44)" fill-opacity="0.734375"/>
  <rect x="9" y="3" width="1" height="1" fill="rgb(50,50,50)" fill-opacity="0.8359375"/>
  <rect x="10" y="3" width="1" height="1" fill="rgb(46,46,46)" fill-opacity="0.84375"/>
  <rect x="11" y="3" width="1" height="1" fill="rgb(38,38,38)" fill-opacity="0.734375"/>
  <rect x="12" y="3" width="1" height="1" fill="rgb(28,28,28)" fill-opacity="0.4609375"/>
  <rect x="13" y="3" width="1" height="1" fill="rgb(0,0,0)" fill-opacity="0.015625"/>
  <rect x="14" y="3" width="7" height="1" fill="rgb(255,255,255)" fill-opacity="0.0078125"/>
  <rect x="0" y="4" width="6" height="1" fill="rgb(255,255,255)" fill-opacity="0.0078125"/>
  <rect x="6" y="4" width="1" height="1" fill="rgb(50,50,50)" fill-opacity="0.640625"/>
  <rect x="7" y="4" width="1" height="1" fill="rgb(131,131,131)" fill-opacity="0.984375"/>
  <rect x="8" y="4" width="1" height="1" fill="rgb(171,171,171)"/>
  <rect x="9" y="4" width="1" height="1" fill="rgb(169,169,169)"/>
  <rect x="10" y="4" width="1" height="1" fill="rgb(164,164,164)"/>
  <rect x="11" y="4" width="1" height="1" fill="rgb(157,157,157)"/>
  <rect x="12" y="4" width="1" height="1" fill="rgb(106,106,106)" fill-opacity="0.9921875"/>
  <rect x="13" y="4" width="1" height="1" fill="rgb(35,35,35)" fill-opacity="0.671875"/>
  <rect x="14" y="4" width="7" height="1" fill="rgb(255,255,255)" fill-opacity="0.0078125"/>
  <rect x="0" y="5" width="6" height="1" fill="rgb(255,255,255)" fill-opacity="0.0078125"/>
  <rect x="6" y="5" width="1" height="1" fill="rgb(60,60,60)" fill-opacity="0.8046875"/>
  <rect x="7" y="5" width="1" height="1" fill="rgb(213,213,213)"/>
  <rect x="8" y="5" width="1" height="1" fill="rgb(191,191,191)"/>
  <rect x="9" y="5" width="1" height="1" fill="rgb(196,196,196)"/>
  <rect x="10" y="5" width="1" height="1" fill="rgb(190,190,190)"/>
  <rect x="11" y="5" width="1" height="1" fill="rgb(165,165,165)"/>
  <rect x="12" y="5" width="1" height="1" fill="rgb(143,143,143)"/>
  <rect x="13" y="5" width="1" height="1" fill="rgb(26,26,26)" fill-opacity="0.828125"/>
  <rect x="14" y="5" width="7" height="1" fill="rgb(255,255,255)" fill-opacity="0.0078125"/>
  <rect x="0" y="6" width="6" height="1" fill="rgb(255,255,255)" fill-opacity="0.0078125"/>
  <rect x="6" y="6" width="1" height="1" fill="rgb(61,61,61)" fill-opacity="0.796875"/>
  <rect x="7" y="6" width="1" height="1" fill="rgb(213,213,213)"/>
  <rect x="8" y="6" width="1" height="1" fill="rgb(129,129,129)"/>
  <rect x="9" y="6" width="1" height="1" fill="rgb(105,105,105)"/>
  <rect x="10" y="6" width="1" height="1" fill="rgb(84,84,84)"/>
  <rect x="11" y="6" width="1" height="1" fill="rgb(62,62,62)"/>
  <rect x="12" y="6" width="1" height="1" fill="rgb(91,91,91)"/>
  <rect x="13" y="6" width="1" height="1" fill="rgb(25,25,25)" fill-opacity="0.8203125"/>
  <rect x="14" y="6" width="7" height="1" fill="rgb(255,255,255)" fill-opacity="0.0078125"/>
  <rect x="0" y="7" width="5" height="1" fill="rgb(255,255,255)" fill-opacity="0.0078125"/>
  <rect x="5" y="7" width="1" height="1" fill="rgb(83,83,83)" fill-opacity="0.1875"/>
  <rect x="6" y="7" width="1" height="1" fill="rgb(94,94,94)" fill-opacity="0.890625"/>
  <rect x="7" y="7" width="1" height="1" fill="rgb(126,168,231)"/>
  <rect x="8" y="7" width="1" height="1" fill="rgb(111,135,170)"/>
  <rect x="9" y="7" width="1" height="1" fill="rgb(103,111,122)"/>
  <rect x="10" y="7" width="1" height="1" fill="rgb(82,90,101)"/>
  <rect x="11" y="7" width="1" height="1" fill="rgb(59,82,116)"/>
  <rect x="12" y="7" width="1" height="1" fill="rgb(54,98,165)"/>
  <rect x="13" y="7" width="1" height="1" fill="rgb(53,53,53)" fill-opacity="0.9140625"/>
  <rect x="14" y="7" width="1" height="1" fill="rgb(31,31,31)" fill-opacity="0.234375"/>
  <rect x="15" y="7" width="6" height="1" fill="rgb(255,255,255)" fill-opacity="0.0078125"/>
  <rect x="0" y="8" width="5" height="1" fill="rgb(255,255,255)" fill-opacity="0.0078125"/>
  <rect x="5" y="8" width="1" height="1" fill="rgb(70,70,70)" fill-opacity="0.78125"/>
  <rect x="6" y="8" width="1" height="1" fill="rgb(236,236,236)"/>
  <rect x="7" y="8" width="1" height="1" fill="rgb(128,176,248)"/>
  <rect x="8" y="8" width="1" height="1" fill="rgb(50,128,245)"/>
  <rect x="9" y="8" width="1" height="1" fill="rgb(14,109,251)"/>
  <rect x="10" y="8" width="1" height="1" fill="rgb(11,106,249)"/>
  <rect x="11" y="8" width="1" height="1" fill="rgb(36,114,232)"/>
  <rect x="12" y="8" width="1" height="1" fill="rgb(77,127,202)"/>
  <rect x="13" y="8" width="1" height="1" fill="rgb(126,126,126)"/>
  <rect x="14" y="8" width="1" height="1" fill="rgb(32,32,32)" fill-opacity="0.8125"/>
  <rect x="15" y="8" width="6" height="1" fill="rgb(255,255,255)" fill-opacity="0.0078125"/>
  <rect x="0" y="9" width="5" height="1" fill="rgb(255,255,255)" fill-opacity="0.0078125"/>
  <rect x="5" y="9" width="1" height="1" fill="rgb(69,69,69)" fill-opacity="0.7890625"/>
  <rect x="6" y="9" width="1" height="1" fill="rgb(232,232,232)"/>
  <rect x="7" y="9" width="1" height="1" fill="rgb(231,231,231)"/>
  <rect x="8" y="9" width="1" height="1" fill="rgb(234,234,234)"/>
  <rect x="9" y="9" width="1" height="1" fill="rgb(229,229,229)"/>
  <rect x="10" y="9" width="1" height="1" fill="rgb(213,213,213)"/>
  <rect x="11" y="9" width="1" height="1" fill="rgb(181,181,181)"/>
  <rect x="12" y="9" width="1" height="1" fill="rgb(137,137,137)"/>
  <rect x="13" y="9" width="1" height="1" fill="rgb(81,81,81)"/>
  <rect x="14" y="9" width="1" height="1" fill="rgb(32,32,32)" fill-opacity="0.8125"/>
  <rect x="15" y="9" width="6" height="1" fill="rgb(255,255,255)" fill-opacity="0.0078125"/>
  <rect x="0" y="10" width="5" height="1" fill="rgb(255,255,255)" fill-opacity="0.0078125"/>
  <rect x="5" y="10" width="1" height="1" fill="rgb(43,43,43)" fill-opacity="0.453125"/>
  <rect x="6" y="10" width="1" height="1" fill="rgb(113,113,113)" fill-opacity="0.8359375"/>
  <rect x="7" y="10" width="1" height="1" fill="rgb(177,177,177)" fill-opacity="0.9921875"/>
  <rect x="8" y="10" width="1" height="1" fill="rgb(182,182,182)"/>
  <rect x="9" y="10" width="1" height="1" fill="rgb(165,165,165)"/>
  <rect x="10" y="10" width="1" height="1" fill="rgb(143,143,143)"/>
  <rect x="11" y="10" width="1" height="1" fill="rgb(120,120,120)"/>
  <rect x="12" y="10" width="1" height="1" fill="rgb(89,89,89)"/>
  <rect x="13" y="10" width="1" height="1" fill="rgb(48,48,48)" fill-opacity="0.859375"/>
  <rect x="14" y="10" width="1" height="1" fill="rgb(28,28,28)" fill-opacity="0.4765625"/>
  <rect x="15" y="10" width="6" height="1" fill="rgb(255,255,255)" fill-opacity="0.0078125"/>
  <rect x="0" y="11" width="6" height="1" fill="rgb(255,255,255)" fill-opacity="0.0078125"/>
  <rect x="6" y="11" width="1" height="1" fill="rgb(26,26,26)" fill-opacity="0.1953125"/>
  <rect x="7" y="11" width="1" height="1" fill="rgb(34,34,34)" fill-opacity="0.4765625"/>
  <rect x="8" y="11" width="1" height="1" fill="rgb(46,46,46)" fill-opacity="0.6796875"/>
  <rect x="9" y="11" width="1" height="1" fill="rgb(53,53,53)" fill-opacity="0.7734375"/>
  <rect x="10" y="11" width="1" height="1" fill="rgb(51,51,51)" fill-opacity="0.765625"/>
  <rect x="11" y="11" width="1" height="1" fill="rgb(41,41,41)" fill-opacity="0.671875"/>
  <rect x="12" y="11" width="1" height="1" fill="rgb(32,32,32)" fill-opacity="0.4765625"/>
  <rect x="13" y="11" width="1" height="1" fill="rgb(25,25,25)" fill-opacity="0.2109375"/>
  <rect x="14" y="11" width="7" height="1" fill="rgb(255,255,255)" fill-opacity="0.0078125"/>
  <rect x="0" y="12" width="6" height="1" fill="rgb(255,255,255)" fill-opacity="0.0078125"/>
  <rect x="6" y="12" width="1" height="1" fill="rgb(0,0,0)" fill-opacity="0.125"/>
  <rect x="7" y="12" width="1" height="1" fill="rgb(56,56,56)" fill-opacity="0.6640625"/>
  <rect x="8" y="12" width="1" height="1" fill="rgb(17,17,17)" fill-opacity="0.3671875"/>
  <rect x="9" y="12" width="5" height="1" fill="rgb(255,255,255)" fill-opacity="0.0078125"/>
  <rect x="14" y="12" width="1" height="1" fill="rgb(10,10,10)" fill-opacity="0.3125"/>
  <rect x="15" y="12" width="1" height="1" fill="rgb(55,55,55)" fill-opacity="0.6640625"/>
  <rect x="16" y="12" width="1" height="1" fill="rgb(0,0,0)" fill-opacity="0.1484375"/>
  <rect x="17" y="12" width="4" height="1" fill="rgb(255,255,255)" fill-opacity="0.0078125"/>
  <rect x="0" y="13" width="5" height="1" fill="rgb(255,255,255)" fill-opacity="0.0078125"/>
  <rect x="5" y="13" width="1" height="1" fill="rgb(0,0,0)" fill-opacity="0.125"/>
  <rect x="6" y="13" width="1" height="1" fill="rgb(87,87,87)" fill-opacity="0.828125"/>
  <rect x="7" y="13" width="1" height="1" fill="rgb(243,243,243)" fill-opacity="0.9921875"/>
  <rect x="8" y="13" width="1" height="1" fill="rgb(60,60,60)" fill-opacity="0.6875"/>
  <rect x="9" y="13" width="5" height="1" fill="rgb(255,255,255)" fill-opacity="0.0078125"/>
  <rect x="14" y="13" width="1" height="1" fill="rgb(52,52,52)" fill-opacity="0.640625"/>
  <rect x="15" y="13" width="1" height="1" fill="rgb(243,243,243)" fill-opacity="0.9921875"/>
  <rect x="16" y="13" width="1" height="1" fill="rgb(92,92,92)" fill-opacity="0.8515625"/>
  <rect x="17" y="13" width="1" height="1" fill="rgb(0,0,0)" fill-opacity="0.15625"/>
  <rect x="18" y="13" width="3" height="1" fill="rgb(255,255,255)" fill-opacity="0.0078125"/>
  <rect x="0" y="14" width="4" height="1" fill="rgb(255,255,255)" fill-opacity="0.0078125"/>
  <rect x="4" y="14" width="1" height="1" fill="rgb(0,0,0)" fill-opacity="0.1796875"/>
  <rect x="5" y="14" width="1" height="1" fill="rgb(84,84,84)" fill-opacity="0.859375"/>
  <rect x="6" y="14" width="1" height="1" fill="rgb(243,243,243)" fill-opacity="0.9921875"/>
  <rect x="7" y="14" width="1" height="1" fill="rgb(89,89,89)" fill-opacity="0.8828125"/>
  <rect x="8" y="14" width="1" height="1" fill="rgb(0,0,0)" fill-opacity="0.5703125"/>
  <rect x="9" y="14" width="5" height="1" fill="rgb(0,0,0)" fill-opacity="0.5078125"/>
  <rect x="14" y="14" width="1" height="1" fill="rgb(0,0,0)" fill-opacity="0.5625"/>
  <rect x="15" y="14" width="1" height="1" fill="rgb(83,83,83)" fill-opacity="0.8671875"/>
  <rect x="16" y="14" width="1" height="1" fill="rgb(243,243,243)" fill-opacity="0.9921875"/>
  <rect x="17" y="14" width="1" height="1" fill="rgb(90,90,90)" fill-opacity="0.875"/>
  <rect x="18" y="14" width="1" height="1" fill="rgb(0,0,0)" fill-opacity="0.15625"/>
  <rect x="19" y="14" width="2" height="1" fill="rgb(255,255,255)" fill-opacity="0.0078125"/>
  <rect x="0" y="15" width="4" height="1" fill="rgb(255,255,255)" fill-opacity="0.0078125"/>
  <rect x="4" y="15" width="1" height="1" fill="rgb(0,0,0)" fill-opacity="0.7421875"/>
  <rect x="5" y="15" width="1" height="1" fill="rgb(248,248,248)"/>
  <rect x="6" y="15" width="11" height="1" fill="rgb(255,255,255)"/>
  <rect x="17" y="15" width="1" height="1" fill="rgb(252,252,252)"/>
  <rect x="18" y="15" width="1" height="1" fill="rgb(0,0,0)" fill-opacity="0.7421875"/>
  <rect x="19" y="15" width="1" height="1" fill="rgb(0,0,0)" fill-opacity="0.015625"/>
  <rect x="20" y="15" width="1" height="1" fill="rgb(255,255,255)" fill-opacity="0.0078125"/>
  <rect x="0" y="16" width="4" height="1" fill="rgb(255,255,255)" fill-opacity="0.0078125"/>
  <rect x="4" y="16" width="1" height="1" fill="rgb(0,0,0)" fill-opacity="0.1640625"/>
  <rect x="5" y="16" width="1" height="1" fill="rgb(83,83,83)" fill-opacity="0.8671875"/>
  <rect x="6" y="16" width="1" height="1" fill="rgb(243,243,243)" fill-opacity="0.9921875"/>
  <rect x="7" y="16" width="1" height="1" fill="rgb(89,89,89)" fill-opacity="0.8828125"/>
  <rect x="8" y="16" width="1" height="1" fill="rgb(0,0,0)" fill-opacity="0.5703125"/>
  <rect x="9" y="16" width="5" height="1" fill="rgb(0,0,0)" fill-opacity="0.5078125"/>
  <rect x="14" y="16" width="1" height="1" fill="rgb(0,0,0)" fill-opacity="0.5625"/>
  <rect x="15" y="16" width="1" height="1" fill="rgb(83,83,83)" fill-opacity="0.8671875"/>
  <rect x="16" y="16" width="1" height="1" fill="rgb(243,243,243)" fill-opacity="0.9921875"/>
  <rect x="17" y="16" width="1" height="1" fill="rgb(90,90,90)" fill-opacity="0.875"/>
  <rect x="18" y="16" width="1" height="1" fill="rgb(0,0,0)" fill-opacity="0.171875"/>
  <rect x="19" y="16" width="2" height="1" fill="rgb(255,255,255)" fill-opacity="0.0078125"/>
  <rect x="0" y="17" width="5" height="1" fill="rgb(255,255,255)" fill-opacity="0.0078125"/>
  <rect x="5" y="17" width="1" height="1" fill="rgb(0,0,0)" fill-opacity="0.125"/>
  <rect x="6" y="17" width="1" height="1" fill="rgb(87,87,87)" fill-opacity="0.828125"/>
  <rect x="7" y="17" width="1" height="1" fill="rgb(243,243,243)" fill-opacity="0.9921875"/>
  <rect x="8" y="17" width="1" height="1" fill="rgb(63,63,63)" fill-opacity="0.703125"/>
  <rect x="9" y="17" width="5" height="1" fill="rgb(255,255,255)" fill-opacity="0.0078125"/>
  <rect x="14" y="17" width="1" height="1" fill="rgb(51,51,51)" fill-opacity="0.6328125"/>
  <rect x="15" y="17" width="1" height="1" fill="rgb(243,243,243)" fill-opacity="0.9921875"/>
  <rect x="16" y="17" width="1" height="1" fill="rgb(92,92,92)" fill-opacity="0.8515625"/>
  <rect x="17" y="17" width="1" height="1" fill="rgb(0,0,0)" fill-opacity="0.15625"/>
  <rect x="18" y="17" width="3" height="1" fill="rgb(255,255,255)" fill-opacity="0.0078125"/>
  <rect x="0" y="18" width="6" height="1" fill="rgb(255,255,255)" fill-opacity="0.0078125"/>
  <rect x="6" y="18" width="1" height="1" fill="rgb(0,0,0)" fill-opacity="0.125"/>
  <rect x="7" y="18" width="1" height="1" fill="rgb(54,54,54)" fill-opacity="0.6484375"/>
  <rect x="8" y="18" width="1" height="1" fill="rgb(14,14,14)" fill-opacity="0.3671875"/>
  <rect x="9" y="18" width="5" height="1" fill="rgb(255,255,255)" fill-opacity="0.0078125"/>
  <rect x="14" y="18" width="1" height="1" fill="rgb(6,6,6)" fill-opacity="0.3125"/>
  <rect x="15" y="18" width="1" height="1" fill="rgb(58,58,58)" fill-opacity="0.671875"/>
  <rect x="16" y="18" width="1" height="1" fill="rgb(0,0,0)" fill-opacity="0.1484375"/>
  <rect x="17" y="18" width="4" height="1" fill="rgb(255,255,255)" fill-opacity="0.0078125"/>
  <rect x="0" y="19" width="21" height="1" fill="rgb(255,255,255)" fill-opacity="0.0078125"/>
  <rect x="0" y="20" width="21" height="1" fill="rgb(255,255,255)" fill-opacity="0.0078125"/>
</svg>