<svg xmlns="http://www.w3.org/2000/svg" shape-rendering="crispEdges" width="21" height="21" viewBox="0 0 21 21">
  <rect x="0" y="0" width="21" height="1" fill="rgb(255,255,255)" fill-opacity="0.0078125"/>
  <rect x="0" y="1" width="21" height="1" fill="rgb(255,255,255)" fill-opacity="0.0078125"/>
  <rect x="0" y="2" width="21" height="1" fill="rgb(255,255,255)" fill-opacity="0.0078125"/>
  <rect x="0" y="3" width="21" height="1" fill="rgb(255,255,255)" fill-opacity="0.0078125"/>
  <rect x="0" y="4" width="4" height="1" fill="rgb(255,255,255)" fill-opacity="0.0078125"/>
  <rect x="4" y="4" width="1" height="1" fill="rgb(33,57,18)" fill-opacity="0.796875"/>
  <rect x="5" y="4" width="7" height="1" fill="rgb(36,59,21)" fill-opacity="0.9140625"/>
  <rect x="12" y="4" width="1" height="1" fill="rgb(33,57,18)" fill-opacity="0.796875"/>
  <rect x="13" y="4" width="8" height="1" fill="rgb(255,255,255)" fill-opacity="0.0078125"/>
  <rect x="0" y="5" width="4" height="1" fill="rgb(255,255,255)" fill-opacity="0.0078125"/>
  <rect x="4" y="5" width="1" height="1" fill="rgb(36,59,21)" fill-opacity="0.9140625"/>
  <rect x="5" y="5" width="1" height="1" fill="rgb(232,232,232)"/>
  <rect x="6" y="5" width="1" height="1" fill="rgb(242,242,242)"/>
  <rect x="7" y="5" width="1" height="1" fill="rgb(240,240,240)"/>
  <rect x="8" y="5" width="1" height="1" fill="rgb(237,237,237)"/>
  <rect x="9" y="5" width="1" height="1" fill="rgb(235,235,235)"/>
  <rect x="10" y="5" width="1" height="1" fill="rgb(232,232,232)"/>
  <rect x="11" y="5" width="1" height="1" fill="rgb(220,220,220)"/>
  <rect x="12" y="5" width="1" height="1" fill="rgb(36,59,21)" fill-opacity="0.9140625"/>
  <rect x="13" y="5" width="8" height="1" fill="rgb(255,255,255)" fill-opacity="0.0078125"/>
  <rect x="0" y="6" width="4" height="1" fill="rgb(255,255,255)" fill-opacity="0.0078125"/>
  <rect x="4" y="6" width="1" height="1" fill="rgb(36,59,21)" fill-opacity="0.9140625"/>
  <rect x="5" y="6" width="1" height="1" fill="rgb(242,242,242)"/>
  <rect x="6" y="6" width="1" height="1" fill="rgb(216,216,216)"/>
  <rect x="7" y="6" width="2" height="1" fill="rgb(210,210,210)"/>
  <rect x="9" y="6" width="1" height="1" fill="rgb(207,207,207)"/>
  <rect x="10" y="6" width="1" height="1" fill="rgb(193,193,193)"/>
  <rect x="11" y="6" width="1" height="1" fill="rgb(218,218,218)"/>
  <rect x="12" y="6" width="1" height="1" fill="rgb(36,59,21)" fill-opacity="0.9140625"/>
  <rect x="13" y="6" width="1" height="1" fill="rgb(128,128,0)" fill-opacity="0.015625"/>
  <rect x="14" y="6" width="7" height="1" fill="rgb(255,255,255)" fill-opacity="0.0078125"/>
  <rect x="0" y="7" width="4" height="1" fill="rgb(255,255,255)" fill-opacity="0.0078125"/>
  <rect x="4" y="7" width="1" height="1" fill="rgb(36,59,21)" fill-opacity="0.9140625"/>
  <rect x="5" y="7" width="1" height="1" fill="rgb(239,239,239)"/>
  <rect x="6" y="7" width="1" height="1" fill="rgb(210,210,210)"/>
  <rect x="7" y="7" width="1" height="1" fill="rgb(204,204,204)"/>
  <rect x="8" y="7" width="1" height="1" fill="rgb(201,201,201)"/>
  <rect x="9" y="7" width="1" height="1" fill="rgb(180,180,180)"/>
  <rect x="10" y="7" width="1" height="1" fill="rgb(166,166,166)"/>
  <rect x="11" y="7" width="1" height="1" fill="rgb(210,210,210)"/>
  <rect x="12" y="7" width="1" height="1" fill="rgb(36,59,21)" fill-opacity="0.9140625"/>
  <rect x="13" y="7" width="1" height="1" fill="rgb(128,255,0)" fill-opacity="0.015625"/>
  <rect x="14" y="7" width="1" height="1" fill="rgb(0,255,0)" fill-opacity="0.0078125"/>
  <rect x="15" y="7" width="6" height="1" fill="rgb(255,255,255)" fill-opacity="0.0078125"/>
  <rect x="0" y="8" width="4" height="1" fill="rgb(255,255,255)" fill-opacity="0.0078125"/>
  <rect x="4" y="8" width="1" height="1" fill="rgb(36,59,21)" fill-opacity="0.9140625"/>
  <rect x="5" y="8" width="1" height="1" fill="rgb(236,236,236)"/>
  <rect x="6" y="8" width="1" height="1" fill="rgb(210,210,210)"/>
  <rect x="7" y="8" width="1" height="1" fill="rgb(201,201,201)"/>
  <rect x="8" y="8" width="1" height="1" fill="rgb(180,180,180)"/>
  <rect x="9" y="8" width="1" height="1" fill="rgb(158,158,158)"/>
  <rect x="10" y="8" width="1" height="1" fill="rgb(121,126,118)"/>
  <rect x="11" y="8" width="1" height="1" fill="rgb(82,99,71)"/>
  <rect x="12" y="8" width="1" height="1" fill="rgb(31,55,16)" fill-opacity="0.9921875"/>
  <rect x="13" y="8" width="1" height="1" fill="rgb(31,55,15)" fill-opacity="0.9140625"/>
  <rect x="14" y="8" width="1" height="1" fill="rgb(36,61,21)" fill-opacity="0.7265625"/>
  <rect x="15" y="8" width="1" height="1" fill="rgb(20,45,0)" fill-opacity="0.203125"/>
  <rect x="16" y="8" width="5" height="1" fill="rgb(255,255,255)" fill-opacity="0.0078125"/>
  <rect x="0" y="9" width="4" height="1" fill="rgb(255,255,255)" fill-opacity="0.0078125"/>
  <rect x="4" y="9" width="1" height="1" fill="rgb(36,59,21)" fill-opacity="0.9140625"/>
  <rect x="5" y="9" width="1" height="1" fill="rgb(233,233,233)"/>
  <rect x="6" y="9" width="1" height="1" fill="rgb(206,206,206)"/>
  <rect x="7" y="9" width="1" height="1" fill="rgb(180,180,180)"/>
  <rect x="8" y="9" width="1" height="1" fill="rgb(158,158,158)"/>
  <rect x="9" y="9" width="1" height="1" fill="rgb(88,100,81)"/>
  <rect x="10" y="9" width="1" height="1" fill="rgb(68,87,55)"/>
  <rect x="11" y="9" width="1" height="1" fill="rgb(223,226,221)"/>
  <rect x="12" y="9" width="2" height="1" fill="rgb(251,251,251)"/>
  <rect x="14" y="9" width="1" height="1" fill="rgb(223,226,221)"/>
  <rect x="15" y="9" width="1" height="1" fill="rgb(65,85,51)" fill-opacity="0.9453125"/>
  <rect x="16" y="9" width="1" height="1" fill="rgb(34,60,17)" fill-opacity="0.4765625"/>
  <rect x="17" y="9" width="4" height="1" fill="rgb(255,255,255)" fill-opacity="0.0078125"/>
  <rect x="0" y="10" width="4" height="1" fill="rgb(255,255,255)" fill-opacity="0.0078125"/>
  <rect x="4" y="10" width="1" height="1" fill="rgb(36,59,21)" fill-opacity="0.9140625"/>
  <rect x="5" y="10" width="1" height="1" fill="rgb(230,230,230)"/>
  <rect x="6" y="10" width="1" height="1" fill="rgb(191,191,191)"/>
  <rect x="7" y="10" width="1" height="1" fill="rgb(164,164,164)"/>
  <rect x="8" y="10" width="1" height="1" fill="rgb(119,124,116)"/>
  <rect x="9" y="10" width="1" height="1" fill="rgb(68,87,55)"/>
  <rect x="10" y="10" width="1" height="1" fill="rgb(253,253,253)"/>
  <rect x="11" y="10" width="1" height="1" fill="rgb(250,250,250)"/>
  <rect x="12" y="10" width="2" height="1" fill="rgb(242,242,242)"/>
  <rect x="14" y="10" width="1" height="1" fill="rgb(250,250,250)"/>
  <rect x="15" y="10" width="1" height="1" fill="rgb(252,252,252)"/>
  <rect x="16" y="10" width="1" height="1" fill="rgb(61,81,50)" fill-opacity="0.953125"/>
  <rect x="17" y="10" width="1" height="1" fill="rgb(19,47,0)" fill-opacity="0.21875"/>
  <rect x="18" y="10" width="3" height="1" fill="rgb(255,255,255)" fill-opacity="0.0078125"/>
  <rect x="0" y="11" width="4" height="1" fill="rgb(255,255,255)" fill-opacity="0.0078125"/>
  <rect x="4" y="11" width="1" height="1" fill="rgb(36,59,21)" fill-opacity="0.9140625"/>
  <rect x="5" y="11" width="1" height="1" fill="rgb(219,219,219)"/>
  <rect x="6" y="11" width="1" height="1" fill="rgb(217,217,217)"/>
  <rect x="7" y="11" width="1" height="1" fill="rgb(209,209,209)"/>
  <rect x="8" y="11" width="1" height="1" fill="rgb(81,98,70)"/>
  <rect x="9" y="11" width="1" height="1" fill="rgb(223,226,221)"/>
  <rect x="10" y="11" width="1" height="1" fill="rgb(250,250,250)"/>
  <rect x="11" y="11" width="3" height="1" fill="rgb(236,236,236)"/>
  <rect x="14" y="11" width="1" height="1" fill="rgb(221,221,221)"/>
  <rect x="15" y="11" width="1" height="1" fill="rgb(232,232,232)"/>
  <rect x="16" y="11" width="1" height="1" fill="rgb(194,197,192)"/>
  <rect x="17" y="11" width="1" height="1" fill="rgb(36,59,21)" fill-opacity="0.7265625"/>
  <rect x="18" y="11" width="3" height="1" fill="rgb(255,255,255)" fill-opacity="0.0078125"/>
  <rect x="0" y="12" width="4" height="1" fill="rgb(255,255,255)" fill-opacity="0.0078125"/>
  <rect x="4" y="12" width="1" height="1" fill="rgb(33,57,18)" fill-opacity="0.796875"/>
  <rect x="5" y="12" width="3" height="1" fill="rgb(36,59,21)" fill-opacity="0.9140625"/>
  <rect x="8" y="12" width="1" height="1" fill="rgb(31,55,16)" fill-opacity="0.9921875"/>
  <rect x="9" y="12" width="1" height="1" fill="rgb(251,251,251)"/>
  <rect x="10" y="12" width="1" height="1" fill="rgb(242,242,242)"/>
  <rect x="11" y="12" width="2" height="1" fill="rgb(236,236,236)"/>
  <rect x="13" y="12" width="1" height="1" fill="rgb(220,220,220)"/>
  <rect x="14" y="12" width="1" height="1" fill="rgb(190,190,190)"/>
  <rect x="15" y="12" width="1" height="1" fill="rgb(185,185,185)"/>
  <rect x="16" y="12" width="1" height="1" fill="rgb(205,205,205)"/>
  <rect x="17" y="12" width="1" height="1" fill="rgb(31,54,15)" fill-opacity="0.9140625"/>
  <rect x="18" y="12" width="3" height="1" fill="rgb(255,255,255)" fill-opacity="0.0078125"/>
  <rect x="0" y="13" width="6" height="1" fill="rgb(255,255,255)" fill-opacity="0.0078125"/>
  <rect x="6" y="13" width="1" height="1" fill="rgb(128,128,0)" fill-opacity="0.015625"/>
  <rect x="7" y="13" width="1" height="1" fill="rgb(128,255,0)" fill-opacity="0.015625"/>
  <rect x="8" y="13" width="1" height="1" fill="rgb(31,55,15)" fill-opacity="0.9140625"/>
  <rect x="9" y="13" width="1" height="1" fill="rgb(251,251,251)"/>
  <rect x="10" y="13" width="1" height="1" fill="rgb(242,242,242)"/>
  <rect x="11" y="13" width="1" height="1" fill="rgb(236,236,236)"/>
  <rect x="12" y="13" width="1" height="1" fill="rgb(220,220,220)"/>
  <rect x="13" y="13" width="1" height="1" fill="rgb(189,189,189)"/>
  <rect x="14" y="13" width="2" height="1" fill="rgb(158,158,158)"/>
  <rect x="16" y="13" width="1" height="1" fill="rgb(180,180,180)"/>
  <rect x="17" y="13" width="1" height="1" fill="rgb(29,53,15)" fill-opacity="0.921875"/>
  <rect x="18" y="13" width="3" height="1" fill="rgb(255,255,255)" fill-opacity="0.0078125"/>
  <rect x="0" y="14" width="7" height="1" fill="rgb(255,255,255)" fill-opacity="0.0078125"/>
  <rect x="7" y="14" width="1" height="1" fill="rgb(0,255,0)" fill-opacity="0.0078125"/>
  <rect x="8" y="14" width="1" height="1" fill="rgb(36,61,21)" fill-opacity="0.7265625"/>
  <rect x="9" y="14" width="1" height="1" fill="rgb(223,226,221)"/>
  <rect x="10" y="14" width="1" height="1" fill="rgb(250,250,250)"/>
  <rect x="11" y="14" width="1" height="1" fill="rgb(218,218,218)"/>
  <rect x="12" y="14" width="1" height="1" fill="rgb(188,188,188)"/>
  <rect x="13" y="14" width="1" height="1" fill="rgb(157,157,157)"/>
  <rect x="14" y="14" width="1" height="1" fill="rgb(127,127,127)"/>
  <rect x="15" y="14" width="1" height="1" fill="rgb(165,165,165)"/>
  <rect x="16" y="14" width="1" height="1" fill="rgb(146,148,144)"/>
  <rect x="17" y="14" width="1" height="1" fill="rgb(36,60,21)" fill-opacity="0.7265625"/>
  <rect x="18" y="14" width="3" height="1" fill="rgb(255,255,255)" fill-opacity="0.0078125"/>
  <rect x="0" y="15" width="8" height="1" fill="rgb(255,255,255)" fill-opacity="0.0078125"/>
  <rect x="8" y="15" width="1" height="1" fill="rgb(20,45,0)" fill-opacity="0.203125"/>
  <rect x="9" y="15" width="1" height="1" fill="rgb(65,85,51)" fill-opacity="0.9453125"/>
  <rect x="10" y="15" width="1" height="1" fill="rgb(251,251,251)"/>
  <rect x="11" y="15" width="1" height="1" fill="rgb(231,231,231)"/>
  <rect x="12" y="15" width="1" height="1" fill="rgb(182,182,182)"/>
  <rect x="13" y="15" width="1" height="1" fill="rgb(156,156,156)"/>
  <rect x="14" y="15" width="1" height="1" fill="rgb(164,164,164)"/>
  <rect x="15" y="15" width="1" height="1" fill="rgb(169,170,169)"/>
  <rect x="16" y="15" width="1" height="1" fill="rgb(47,66,35)" fill-opacity="0.953125"/>
  <rect x="17" y="15" width="1" height="1" fill="rgb(19,43,0)" fill-opacity="0.2109375"/>
  <rect x="18" y="15" width="3" height="1" fill="rgb(255,255,255)" fill-opacity="0.0078125"/>
  <rect x="0" y="16" width="9" height="1" fill="rgb(255,255,255)" fill-opacity="0.0078125"/>
  <rect x="9" y="16" width="1" height="1" fill="rgb(34,60,17)" fill-opacity="0.4765625"/>
  <rect x="10" y="16" width="1" height="1" fill="rgb(61,81,50)" fill-opacity="0.953125"/>
  <rect x="11" y="16" width="1" height="1" fill="rgb(193,196,192)"/>
  <rect x="12" y="16" width="1" height="1" fill="rgb(205,205,204)"/>
  <rect x="13" y="16" width="1" height="1" fill="rgb(178,179,178)"/>
  <rect x="14" y="16" width="1" height="1" fill="rgb(144,148,143)"/>
  <rect x="15" y="16" width="1" height="1" fill="rgb(46,65,35)" fill-opacity="0.953125"/>
  <rect x="16" y="16" width="1" height="1" fill="rgb(32,57,17)" fill-opacity="0.4765625"/>
  <rect x="17" y="16" width="4" height="1" fill="rgb(255,255,255)" fill-opacity="0.0078125"/>
  <rect x="0" y="17" width="10" height="1" fill="rgb(255,255,255)" fill-opacity="0.0078125"/>
  <rect x="10" y="17" width="1" height="1" fill="rgb(19,47,0)" fill-opacity="0.21875"/>
  <rect x="11" y="17" width="1" height="1" fill="rgb(36,59,21)" fill-opacity="0.7265625"/>
  <rect x="12" y="17" width="1" height="1" fill="rgb(29,53,15)" fill-opacity="0.921875"/>
  <rect x="13" y="17" width="1" height="1" fill="rgb(31,54,15)" fill-opacity="0.9140625"/>
  <rect x="14" y="17" width="1" height="1" fill="rgb(36,60,21)" fill-opacity="0.7265625"/>
  <rect x="15" y="17" width="1" height="1" fill="rgb(19,43,0)" fill-opacity="0.2109375"/>
  <rect x="16" y="17" width="5" height="1" fill="rgb(255,255,255)" fill-opacity="0.0078125"/>
  <rect x="0" y="18" width="21" height="1" fill="rgb(255,255,255)" fill-opacity="0.0078125"/>
  <rect x="0" y="19" width="21" height="1" fill="rgb(255,255,255)" fill-opacity="0.0078125"/>
  <rect x="0" y="20" width="21" height="1" fill="rgb(255,255,255)" fill-opacity="0.0078125"/>
</svg>