<svg xmlns="http://www.w3.org/2000/svg" shape-rendering="crispEdges" width="21" height="21" viewBox="0 0 21 21">
  <rect x="0" y="0" width="21" height="1" fill="rgb(255,255,255)" fill-opacity="0.0078125"/>
  <rect x="0" y="1" width="21" height="1" fill="rgb(255,255,255)" fill-opacity="0.0078125"/>
  <rect x="0" y="2" width="21" height="1" fill="rgb(255,255,255)" fill-opacity="0.0078125"/>
  <rect x="0" y="3" width="13" height="1" fill="rgb(255,255,255)" fill-opacity="0.0078125"/>
  <rect x="13" y="3" width="1" height="1" fill="rgb(0,0,0)" fill-opacity="0.015625"/>
  <rect x="14" y="3" width="1" height="1" fill="rgb(32,32,32)" fill-opacity="0.0703125"/>
  <rect x="15" y="3" width="1" height="1" fill="rgb(0,0,0)" fill-opacity="0.015625"/>
  <rect x="16" y="3" width="5" height="1" fill="rgb(255,255,255)" fill-opacity="0.0078125"/>
  <rect x="0" y="4" width="11" height="1" fill="rgb(255,255,255)" fill-opacity="0.0078125"/>
  <rect x="11" y="4" width="1" height="1" fill="rgb(51,51,51)" fill-opacity="0.0234375"/>
  <rect x="12" y="4" width="1" height="1" fill="rgb(26,26,26)" fill-opacity="0.4765625"/>
  <rect x="13" y="4" width="1" height="1" fill="rgb(49,49,49)" fill-opacity="0.8984375"/>
  <rect x="14" y="4" width="1" height="1" fill="rgb(103,103,103)"/>
  <rect x="15" y="4" width="1" height="1" fill="rgb(58,58,58)" fill-opacity="0.90625"/>
  <rect x="16" y="4" width="1" height="1" fill="rgb(26,26,26)" fill-opacity="0.4765625"/>
  <rect x="17" y="4" width="1" height="1" fill="rgb(51,51,51)" fill-opacity="0.0234375"/>
  <rect x="18" y="4" width="3" height="1" fill="rgb(255,255,255)" fill-opacity="0.0078125"/>
  <rect x="0" y="5" width="10" height="1" fill="rgb(255,255,255)" fill-opacity="0.0078125"/>
  <rect x="10" y="5" width="1" height="1" fill="rgb(43,43,43)" fill-opacity="0.03125"/>
  <rect x="11" y="5" width="1" height="1" fill="rgb(32,32,32)" fill-opacity="0.703125"/>
  <rect x="12" y="5" width="1" height="1" fill="rgb(156,156,156)"/>
  <rect x="13" y="5" width="1" height="1" fill="rgb(236,236,236)"/>
  <rect x="14" y="5" width="1" height="1" fill="rgb(240,240,240)"/>
  <rect x="15" y="5" width="1" height="1" fill="rgb(238,238,238)"/>
  <rect x="16" y="5" width="1" height="1" fill="rgb(175,175,175)"/>
  <rect x="17" y="5" width="1" height="1" fill="rgb(34,34,34)" fill-opacity="0.703125"/>
  <rect x="18" y="5" width="1" height="1" fill="rgb(51,51,51)" fill-opacity="0.0234375"/>
  <rect x="19" y="5" width="2" height="1" fill="rgb(255,255,255)" fill-opacity="0.0078125"/>
  <rect x="0" y="6" width="8" height="1" fill="rgb(255,255,255)" fill-opacity="0.0078125"/>
  <rect x="8" y="6" width="1" height="1" fill="rgb(0,0,0)" fill-opacity="0.0234375"/>
  <rect x="9" y="6" width="1" height="1" fill="rgb(26,26,26)" fill-opacity="0.1171875"/>
  <rect x="10" y="6" width="1" height="1" fill="rgb(31,31,31)" fill-opacity="0.7109375"/>
  <rect x="11" y="6" width="1" height="1" fill="rgb(132,132,132)"/>
  <rect x="12" y="6" width="1" height="1" fill="rgb(215,215,215)"/>
  <rect x="13" y="6" width="1" height="1" fill="rgb(194,194,194)"/>
  <rect x="14" y="6" width="1" height="1" fill="rgb(120,120,120)"/>
  <rect x="15" y="6" width="1" height="1" fill="rgb(200,200,200)"/>
  <rect x="16" y="6" width="1" height="1" fill="rgb(240,240,240)"/>
  <rect x="17" y="6" width="1" height="1" fill="rgb(158,158,158)"/>
  <rect x="18" y="6" width="1" height="1" fill="rgb(26,26,26)" fill-opacity="0.4765625"/>
  <rect x="19" y="6" width="2" height="1" fill="rgb(255,255,255)" fill-opacity="0.0078125"/>
  <rect x="0" y="7" width="6" height="1" fill="rgb(255,255,255)" fill-opacity="0.0078125"/>
  <rect x="6" y="7" width="1" height="1" fill="rgb(51,51,51)" fill-opacity="0.0234375"/>
  <rect x="7" y="7" width="1" height="1" fill="rgb(27,27,27)" fill-opacity="0.4921875"/>
  <rect x="8" y="7" width="1" height="1" fill="rgb(92,92,92)" fill-opacity="0.9375"/>
  <rect x="9" y="7" width="1" height="1" fill="rgb(161,161,161)"/>
  <rect x="10" y="7" width="1" height="1" fill="rgb(130,130,130)"/>
  <rect x="11" y="7" width="1" height="1" fill="rgb(142,142,142)"/>
  <rect x="12" y="7" width="1" height="1" fill="rgb(135,135,135)"/>
  <rect x="13" y="7" width="1" height="1" fill="rgb(32,32,32)" fill-opacity="0.7109375"/>
  <rect x="14" y="7" width="1" height="1" fill="rgb(26,26,26)" fill-opacity="0.1953125"/>
  <rect x="15" y="7" width="1" height="1" fill="rgb(36,36,36)" fill-opacity="0.71875"/>
  <rect x="16" y="7" width="1" height="1" fill="rgb(190,190,190)"/>
  <rect x="17" y="7" width="1" height="1" fill="rgb(238,238,238)"/>
  <rect x="18" y="7" width="1" height="1" fill="rgb(55,55,55)" fill-opacity="0.90625"/>
  <rect x="19" y="7" width="1" height="1" fill="rgb(0,0,0)" fill-opacity="0.015625"/>
  <rect x="20" y="7" width="1" height="1" fill="rgb(255,255,255)" fill-opacity="0.0078125"/>
  <rect x="0" y="8" width="5" height="1" fill="rgb(255,255,255)" fill-opacity="0.0078125"/>
  <rect x="5" y="8" width="1" height="1" fill="rgb(43,43,43)" fill-opacity="0.03125"/>
  <rect x="6" y="8" width="1" height="1" fill="rgb(45,45,45)" fill-opacity="0.71875"/>
  <rect x="7" y="8" width="1" height="1" fill="rgb(216,216,216)"/>
  <rect x="8" y="8" width="2" height="1" fill="rgb(255,255,255)"/>
  <rect x="10" y="8" width="1" height="1" fill="rgb(250,250,250)"/>
  <rect x="11" y="8" width="1" height="1" fill="rgb(191,191,191)"/>
  <rect x="12" y="8" width="1" height="1" fill="rgb(37,37,37)" fill-opacity="0.921875"/>
  <rect x="13" y="8" width="1" height="1" fill="rgb(43,43,43)" fill-opacity="0.0546875"/>
  <rect x="14" y="8" width="1" height="1" fill="rgb(255,255,255)" fill-opacity="0.0078125"/>
  <rect x="15" y="8" width="1" height="1" fill="rgb(26,26,26)" fill-opacity="0.1953125"/>
  <rect x="16" y="8" width="1" height="1" fill="rgb(114,114,114)"/>
  <rect x="17" y="8" width="1" height="1" fill="rgb(240,240,240)"/>
  <rect x="18" y="8" width="1" height="1" fill="rgb(103,103,103)"/>
  <rect x="19" y="8" width="1" height="1" fill="rgb(32,32,32)" fill-opacity="0.0703125"/>
  <rect x="20" y="8" width="1" height="1" fill="rgb(255,255,255)" fill-opacity="0.0078125"/>
  <rect x="0" y="9" width="4" height="1" fill="rgb(255,255,255)" fill-opacity="0.0078125"/>
  <rect x="4" y="9" width="1" height="1" fill="rgb(43,43,43)" fill-opacity="0.03125"/>
  <rect x="5" y="9" width="1" height="1" fill="rgb(42,42,42)" fill-opacity="0.71875"/>
  <rect x="6" y="9" width="1" height="1" fill="rgb(219,219,219)"/>
  <rect x="7" y="9" width="1" height="1" fill="rgb(255,255,255)"/>
  <rect x="8" y="9" width="1" height="1" fill="rgb(213,213,213)"/>
  <rect x="9" y="9" width="1" height="1" fill="rgb(143,143,143)"/>
  <rect x="10" y="9" width="1" height="1" fill="rgb(178,178,178)"/>
  <rect x="11" y="9" width="1" height="1" fill="rgb(183,183,183)"/>
  <rect x="12" y="9" width="1" height="1" fill="rgb(114,114,114)"/>
  <rect x="13" y="9" width="1" height="1" fill="rgb(26,26,26)" fill-opacity="0.4765625"/>
  <rect x="14" y="9" width="1" height="1" fill="rgb(43,43,43)" fill-opacity="0.03125"/>
  <rect x="15" y="9" width="1" height="1" fill="rgb(31,31,31)" fill-opacity="0.7109375"/>
  <rect x="16" y="9" width="1" height="1" fill="rgb(189,189,189)"/>
  <rect x="17" y="9" width="1" height="1" fill="rgb(237,237,237)"/>
  <rect x="18" y="9" width="1" height="1" fill="rgb(50,50,50)" fill-opacity="0.8984375"/>
  <rect x="19" y="9" width="1" height="1" fill="rgb(0,0,0)" fill-opacity="0.015625"/>
  <rect x="20" y="9" width="1" height="1" fill="rgb(255,255,255)" fill-opacity="0.0078125"/>
  <rect x="0" y="10" width="3" height="1" fill="rgb(255,255,255)" fill-opacity="0.0078125"/>
  <rect x="3" y="10" width="1" height="1" fill="rgb(51,51,51)" fill-opacity="0.0234375"/>
  <rect x="4" y="10" width="1" height="1" fill="rgb(37,37,37)" fill-opacity="0.7109375"/>
  <rect x="5" y="10" width="1" height="1" fill="rgb(215,215,215)"/>
  <rect x="6" y="10" width="1" height="1" fill="rgb(255,255,255)"/>
  <rect x="7" y="10" width="1" height="1" fill="rgb(191,191,191)"/>
  <rect x="8" y="10" width="1" height="1" fill="rgb(69,69,69)"/>
  <rect x="9" y="10" width="1" height="1" fill="rgb(116,116,116)"/>
  <rect x="10" y="10" width="1" height="1" fill="rgb(67,67,67)"/>
  <rect x="11" y="10" width="1" height="1" fill="rgb(100,100,100)"/>
  <rect x="12" y="10" width="1" height="1" fill="rgb(142,142,142)"/>
  <rect x="13" y="10" width="1" height="1" fill="rgb(45,45,45)" fill-opacity="0.90625"/>
  <rect x="14" y="10" width="1" height="1" fill="rgb(30,30,30)" fill-opacity="0.703125"/>
  <rect x="15" y="10" width="1" height="1" fill="rgb(168,168,168)"/>
  <rect x="16" y="10" width="1" height="1" fill="rgb(240,240,240)"/>
  <rect x="17" y="10" width="1" height="1" fill="rgb(158,158,158)"/>
  <rect x="18" y="10" width="1" height="1" fill="rgb(26,26,26)" fill-opacity="0.4765625"/>
  <rect x="19" y="10" width="2" height="1" fill="rgb(255,255,255)" fill-opacity="0.0078125"/>
  <rect x="0" y="11" width="3" height="1" fill="rgb(255,255,255)" fill-opacity="0.0078125"/>
  <rect x="3" y="11" width="1" height="1" fill="rgb(26,26,26)" fill-opacity="0.4765625"/>
  <rect x="4" y="11" width="1" height="1" fill="rgb(201,201,201)"/>
  <rect x="5" y="11" width="1" height="1" fill="rgb(255,255,255)"/>
  <rect x="6" y="11" width="1" height="1" fill="rgb(183,183,183)"/>
  <rect x="7" y="11" width="1" height="1" fill="rgb(31,31,31)" fill-opacity="0.703125"/>
  <rect x="8" y="11" width="1" height="1" fill="rgb(46,46,46)" fill-opacity="0.8828125"/>
  <rect x="9" y="11" width="1" height="1" fill="rgb(164,164,164)"/>
  <rect x="10" y="11" width="1" height="1" fill="rgb(147,147,147)"/>
  <rect x="11" y="11" width="1" height="1" fill="rgb(68,68,68)"/>
  <rect x="12" y="11" width="1" height="1" fill="rgb(110,110,110)"/>
  <rect x="13" y="11" width="1" height="1" fill="rgb(71,71,71)"/>
  <rect x="14" y="11" width="1" height="1" fill="rgb(165,165,165)"/>
  <rect x="15" y="11" width="1" height="1" fill="rgb(240,240,240)"/>
  <rect x="16" y="11" width="1" height="1" fill="rgb(171,171,171)"/>
  <rect x="17" y="11" width="1" height="1" fill="rgb(32,32,32)" fill-opacity="0.703125"/>
  <rect x="18" y="11" width="1" height="1" fill="rgb(51,51,51)" fill-opacity="0.0234375"/>
  <rect x="19" y="11" width="2" height="1" fill="rgb(255,255,255)" fill-opacity="0.0078125"/>
  <rect x="0" y="12" width="2" height="1" fill="rgb(255,255,255)" fill-opacity="0.0078125"/>
  <rect x="2" y="12" width="1" height="1" fill="rgb(0,0,0)" fill-opacity="0.015625"/>
  <rect x="3" y="12" width="1" height="1" fill="rgb(60,60,60)" fill-opacity="0.90625"/>
  <rect x="4" y="12" width="1" height="1" fill="rgb(239,239,239)"/>
  <rect x="5" y="12" width="1" height="1" fill="rgb(188,188,188)"/>
  <rect x="6" y="12" width="1" height="1" fill="rgb(32,32,32)" fill-opacity="0.7109375"/>
  <rect x="7" y="12" width="1" height="1" fill="rgb(43,43,43)" fill-opacity="0.03125"/>
  <rect x="8" y="12" width="1" height="1" fill="rgb(26,26,26)" fill-opacity="0.4296875"/>
  <rect x="9" y="12" width="1" height="1" fill="rgb(155,155,155)"/>
  <rect x="10" y="12" width="1" height="1" fill="rgb(235,235,235)"/>
  <rect x="11" y="12" width="1" height="1" fill="rgb(189,189,189)"/>
  <rect x="12" y="12" width="1" height="1" fill="rgb(149,149,149)"/>
  <rect x="13" y="12" width="1" height="1" fill="rgb(186,186,186)"/>
  <rect x="14" y="12" width="1" height="1" fill="rgb(240,240,240)"/>
  <rect x="15" y="12" width="1" height="1" fill="rgb(173,173,173)"/>
  <rect x="16" y="12" width="1" height="1" fill="rgb(33,33,33)" fill-opacity="0.703125"/>
  <rect x="17" y="12" width="1" height="1" fill="rgb(43,43,43)" fill-opacity="0.03125"/>
  <rect x="18" y="12" width="3" height="1" fill="rgb(255,255,255)" fill-opacity="0.0078125"/>
  <rect x="0" y="13" width="2" height="1" fill="rgb(255,255,255)" fill-opacity="0.0078125"/>
  <rect x="2" y="13" width="1" height="1" fill="rgb(32,32,32)" fill-opacity="0.0703125"/>
  <rect x="3" y="13" width="1" height="1" fill="rgb(113,113,113)"/>
  <rect x="4" y="13" width="1" height="1" fill="rgb(200,200,200)"/>
  <rect x="5" y="13" width="1" height="1" fill="rgb(98,98,98)"/>
  <rect x="6" y="13" width="1" height="1" fill="rgb(26,26,26)" fill-opacity="0.1953125"/>
  <rect x="7" y="13" width="1" height="1" fill="rgb(255,255,255)" fill-opacity="0.0078125"/>
  <rect x="8" y="13" width="1" height="1" fill="rgb(15,15,15)" fill-opacity="0.0703125"/>
  <rect x="9" y="13" width="1" height="1" fill="rgb(33,33,33)" fill-opacity="0.9296875"/>
  <rect x="10" y="13" width="1" height="1" fill="rgb(171,171,171)"/>
  <rect x="11" y="13" width="2" height="1" fill="rgb(240,240,240)"/>
  <rect x="13" y="13" width="1" height="1" fill="rgb(239,239,239)"/>
  <rect x="14" y="13" width="1" height="1" fill="rgb(161,161,161)"/>
  <rect x="15" y="13" width="1" height="1" fill="rgb(33,33,33)" fill-opacity="0.703125"/>
  <rect x="16" y="13" width="1" height="1" fill="rgb(43,43,43)" fill-opacity="0.03125"/>
  <rect x="17" y="13" width="4" height="1" fill="rgb(255,255,255)" fill-opacity="0.0078125"/>
  <rect x="0" y="14" width="2" height="1" fill="rgb(255,255,255)" fill-opacity="0.0078125"/>
  <rect x="2" y="14" width="1" height="1" fill="rgb(0,0,0)" fill-opacity="0.015625"/>
  <rect x="3" y="14" width="1" height="1" fill="rgb(52,52,52)" fill-opacity="0.90625"/>
  <rect x="4" y="14" width="1" height="1" fill="rgb(158,158,158)"/>
  <rect x="5" y="14" width="1" height="1" fill="rgb(124,124,124)"/>
  <rect x="6" y="14" width="1" height="1" fill="rgb(32,32,32)" fill-opacity="0.7265625"/>
  <rect x="7" y="14" width="1" height="1" fill="rgb(25,25,25)" fill-opacity="0.2421875"/>
  <rect x="8" y="14" width="1" height="1" fill="rgb(28,28,28)" fill-opacity="0.7890625"/>
  <rect x="9" y="14" width="1" height="1" fill="rgb(99,99,99)"/>
  <rect x="10" y="14" width="1" height="1" fill="rgb(79,79,79)"/>
  <rect x="11" y="14" width="1" height="1" fill="rgb(99,99,99)"/>
  <rect x="12" y="14" width="1" height="1" fill="rgb(104,104,104)"/>
  <rect x="13" y="14" width="1" height="1" fill="rgb(68,68,68)" fill-opacity="0.8984375"/>
  <rect x="14" y="14" width="1" height="1" fill="rgb(26,26,26)" fill-opacity="0.4609375"/>
  <rect x="15" y="14" width="1" height="1" fill="rgb(51,51,51)" fill-opacity="0.0234375"/>
  <rect x="16" y="14" width="5" height="1" fill="rgb(255,255,255)" fill-opacity="0.0078125"/>
  <rect x="0" y="15" width="3" height="1" fill="rgb(255,255,255)" fill-opacity="0.0078125"/>
  <rect x="3" y="15" width="1" height="1" fill="rgb(26,26,26)" fill-opacity="0.4765625"/>
  <rect x="4" y="15" width="1" height="1" fill="rgb(103,103,103)"/>
  <rect x="5" y="15" width="1" height="1" fill="rgb(153,153,153)"/>
  <rect x="6" y="15" width="1" height="1" fill="rgb(121,121,121)"/>
  <rect x="7" y="15" width="1" height="1" fill="rgb(68,68,68)"/>
  <rect x="8" y="15" width="1" height="1" fill="rgb(117,117,117)"/>
  <rect x="9" y="15" width="1" height="1" fill="rgb(153,153,153)"/>
  <rect x="10" y="15" width="1" height="1" fill="rgb(93,93,93)"/>
  <rect x="11" y="15" width="1" height="1" fill="rgb(28,28,28)" fill-opacity="0.640625"/>
  <rect x="12" y="15" width="1" height="1" fill="rgb(26,26,26)" fill-opacity="0.046875"/>
  <rect x="13" y="15" width="1" height="1" fill="rgb(0,0,0)" fill-opacity="0.0078125"/>
  <rect x="14" y="15" width="7" height="1" fill="rgb(255,255,255)" fill-opacity="0.0078125"/>
  <rect x="0" y="16" width="3" height="1" fill="rgb(255,255,255)" fill-opacity="0.0078125"/>
  <rect x="3" y="16" width="1" height="1" fill="rgb(51,51,51)" fill-opacity="0.0234375"/>
  <rect x="4" y="16" width="1" height="1" fill="rgb(27,27,27)" fill-opacity="0.71875"/>
  <rect x="5" y="16" width="1" height="1" fill="rgb(102,102,102)"/>
  <rect x="6" y="16" width="3" height="1" fill="rgb(153,153,153)"/>
  <rect x="9" y="16" width="1" height="1" fill="rgb(109,109,109)"/>
  <rect x="10" y="16" width="1" height="1" fill="rgb(31,31,31)" fill-opacity="0.6484375"/>
  <rect x="11" y="16" width="1" height="1" fill="rgb(0,0,0)" fill-opacity="0.015625"/>
  <rect x="12" y="16" width="9" height="1" fill="rgb(255,255,255)" fill-opacity="0.0078125"/>
  <rect x="0" y="17" width="4" height="1" fill="rgb(255,255,255)" fill-opacity="0.0078125"/>
  <rect x="4" y="17" width="1" height="1" fill="rgb(43,43,43)" fill-opacity="0.03125"/>
  <rect x="5" y="17" width="1" height="1" fill="rgb(26,26,26)" fill-opacity="0.4609375"/>
  <rect x="6" y="17" width="1" height="1" fill="rgb(56,56,56)" fill-opacity="0.90625"/>
  <rect x="7" y="17" width="1" height="1" fill="rgb(80,80,80)"/>
  <rect x="8" y="17" width="1" height="1" fill="rgb(56,56,56)" fill-opacity="0.875"/>
  <rect x="9" y="17" width="1" height="1" fill="rgb(25,25,25)" fill-opacity="0.40625"/>
  <rect x="10" y="17" width="1" height="1" fill="rgb(0,0,0)" fill-opacity="0.015625"/>
  <rect x="11" y="17" width="10" height="1" fill="rgb(255,255,255)" fill-opacity="0.0078125"/>
  <rect x="0" y="18" width="6" height="1" fill="rgb(255,255,255)" fill-opacity="0.0078125"/>
  <rect x="6" y="18" width="1" height="1" fill="rgb(0,0,0)" fill-opacity="0.0078125"/>
  <rect x="7" y="18" width="1" height="1" fill="rgb(32,32,32)" fill-opacity="0.0390625"/>
  <rect x="8" y="18" width="13" height="1" fill="rgb(255,255,255)" fill-opacity="0.0078125"/>
  <rect x="0" y="19" width="21" height="1" fill="rgb(255,255,255)" fill-opacity="0.0078125"/>
  <rect x="0" y="20" width="21" height="1" fill="rgb(255,255,255)" fill-opacity="0.0078125"/>
</svg>