<svg xmlns="http://www.w3.org/2000/svg" shape-rendering="crispEdges" width="21" height="21" viewBox="0 0 21 21">
  <rect x="0" y="0" width="1" height="21" fill="rgb(255,255,255)" fill-opacity="0.0078125"/>
  <rect x="1" y="0" width="1" height="21" fill="rgb(255,255,255)" fill-opacity="0.0078125"/>
  <rect x="2" y="0" width="1" height="21" fill="rgb(255,255,255)" fill-opacity="0.0078125"/>
  <rect x="3" y="0" width="1" height="21" fill="rgb(255,255,255)" fill-opacity="0.0078125"/>
  <rect x="4" y="0" width="1" height="21" fill="rgb(255,255,255)" fill-opacity="0.0078125"/>
  <rect x="5" y="0" width="1" height="21" fill="rgb(255,255,255)" fill-opacity="0.0078125"/>
  <rect x="6" y="0" width="1" height="21" fill="rgb(255,255,255)" fill-opacity="0.0078125"/>
  <rect x="7" y="0" width="1" height="8" fill="rgb(255,255,255)" fill-opacity="0.0078125"/>
  <rect x="7" y="8" width="1" height="1" fill="rgb(0,0,0)" fill-opacity="0.1171875"/>
  <rect x="7" y="9" width="1" height="1" fill="rgb(1,1,1)" fill-opacity="0.6796875"/>
  <rect x="7" y="10" width="1" height="1" fill="rgb(1,1,1)" fill-opacity="0.9296875"/>
  <rect x="7" y="11" width="1" height="1" fill="rgb(15,15,15)" fill-opacity="0.9296875"/>
  <rect x="7" y="12" width="1" height="1" fill="rgb(55,55,55)" fill-opacity="0.6796875"/>
  <rect x="7" y="13" width="1" height="1" fill="rgb(91,91,91)" fill-opacity="0.1171875"/>
  <rect x="7" y="14" width="1" height="7" fill="rgb(255,255,255)" fill-opacity="0.0078125"/>
  <rect x="8" y="0" width="1" height="7" fill="rgb(255,255,255)" fill-opacity="0.0078125"/>
  <rect x="8" y="7" width="1" height="1" fill="rgb(0,0,0)" fill-opacity="0.1171875"/>
  <rect x="8" y="8" width="1" height="1" fill="rgb(1,1,1)" fill-opacity="0.9453125"/>
  <rect x="8" y="9" width="1" height="1" fill="rgb(7,7,7)" fill-opacity="0.9765625"/>
  <rect x="8" y="10" width="1" height="1" fill="rgb(18,18,18)"/>
  <rect x="8" y="11" width="1" height="1" fill="rgb(31,31,31)"/>
  <rect x="8" y="12" width="1" height="1" fill="rgb(67,67,67)" fill-opacity="0.9765625"/>
  <rect x="8" y="13" width="1" height="1" fill="rgb(120,120,120)" fill-opacity="0.9453125"/>
  <rect x="8" y="14" width="1" height="1" fill="rgb(158,158,158)" fill-opacity="0.1171875"/>
  <rect x="8" y="15" width="1" height="6" fill="rgb(255,255,255)" fill-opacity="0.0078125"/>
  <rect x="9" y="0" width="1" height="7" fill="rgb(255,255,255)" fill-opacity="0.0078125"/>
  <rect x="9" y="7" width="1" height="1" fill="rgb(1,1,1)" fill-opacity="0.6796875"/>
  <rect x="9" y="8" width="1" height="1" fill="rgb(7,7,7)" fill-opacity="0.9765625"/>
  <rect x="9" y="9" width="1" height="4" fill="rgb(26,26,26)"/>
  <rect x="9" y="13" width="1" height="1" fill="rgb(118,118,118)" fill-opacity="0.9765625"/>
  <rect x="9" y="14" width="1" height="1" fill="rgb(186,186,186)" fill-opacity="0.6796875"/>
  <rect x="9" y="15" width="1" height="6" fill="rgb(255,255,255)" fill-opacity="0.0078125"/>
  <rect x="10" y="0" width="1" height="7" fill="rgb(255,255,255)" fill-opacity="0.0078125"/>
  <rect x="10" y="7" width="1" height="1" fill="rgb(1,1,1)" fill-opacity="0.9375"/>
  <rect x="10" y="8" width="1" height="1" fill="rgb(18,18,18)"/>
  <rect x="10" y="9" width="1" height="4" fill="rgb(26,26,26)"/>
  <rect x="10" y="13" width="1" height="1" fill="rgb(75,75,75)"/>
  <rect x="10" y="14" width="1" height="1" fill="rgb(213,213,213)" fill-opacity="0.9375"/>
  <rect x="10" y="15" width="1" height="6" fill="rgb(255,255,255)" fill-opacity="0.0078125"/>
  <rect x="11" y="0" width="1" height="7" fill="rgb(255,255,255)" fill-opacity="0.0078125"/>
  <rect x="11" y="7" width="1" height="1" fill="rgb(1,1,1)" fill-opacity="0.9453125"/>
  <rect x="11" y="8" width="1" height="1" fill="rgb(20,20,20)"/>
  <rect x="11" y="9" width="1" height="4" fill="rgb(26,26,26)"/>
  <rect x="11" y="13" width="1" height="1" fill="rgb(83,83,83)"/>
  <rect x="11" y="14" width="1" height="1" fill="rgb(240,240,240)" fill-opacity="0.9453125"/>
  <rect x="11" y="15" width="1" height="6" fill="rgb(255,255,255)" fill-opacity="0.0078125"/>
  <rect x="12" y="0" width="1" height="7" fill="rgb(255,255,255)" fill-opacity="0.0078125"/>
  <rect x="12" y="7" width="1" height="1" fill="rgb(1,1,1)" fill-opacity="0.6953125"/>
  <rect x="12" y="8" width="1" height="1" fill="rgb(32,32,32)" fill-opacity="0.9765625"/>
  <rect x="12" y="9" width="1" height="4" fill="rgb(26,26,26)"/>
  <rect x="12" y="13" width="1" height="1" fill="rgb(176,176,176)" fill-opacity="0.9765625"/>
  <rect x="12" y="14" width="1" height="1" fill="rgb(248,248,248)" fill-opacity="0.6953125"/>
  <rect x="12" y="15" width="1" height="6" fill="rgb(255,255,255)" fill-opacity="0.0078125"/>
  <rect x="13" y="0" width="1" height="7" fill="rgb(255,255,255)" fill-opacity="0.0078125"/>
  <rect x="13" y="7" width="1" height="1" fill="rgb(24,24,24)" fill-opacity="0.1328125"/>
  <rect x="13" y="8" width="1" height="1" fill="rgb(62,62,62)" fill-opacity="0.953125"/>
  <rect x="13" y="9" width="1" height="1" fill="rgb(80,80,80)" fill-opacity="0.9765625"/>
  <rect x="13" y="10" width="1" height="1" fill="rgb(61,61,61)"/>
  <rect x="13" y="11" width="1" height="1" fill="rgb(73,73,73)"/>
  <rect x="13" y="12" width="1" height="1" fill="rgb(164,164,164)" fill-opacity="0.9765625"/>
  <rect x="13" y="13" width="1" height="1" fill="rgb(251,251,251)" fill-opacity="0.953125"/>
  <rect x="13" y="14" width="1" height="1" fill="rgb(255,255,255)" fill-opacity="0.1328125"/>
  <rect x="13" y="15" width="1" height="6" fill="rgb(255,255,255)" fill-opacity="0.0078125"/>
  <rect x="14" y="0" width="1" height="8" fill="rgb(255,255,255)" fill-opacity="0.0078125"/>
  <rect x="14" y="8" width="1" height="1" fill="rgb(93,93,93)" fill-opacity="0.1328125"/>
  <rect x="14" y="9" width="1" height="1" fill="rgb(127,127,127)" fill-opacity="0.7109375"/>
  <rect x="14" y="10" width="1" height="1" fill="rgb(167,167,167)" fill-opacity="0.953125"/>
  <rect x="14" y="11" width="1" height="1" fill="rgb(205,205,205)" fill-opacity="0.953125"/>
  <rect x="14" y="12" width="1" height="1" fill="rgb(242,242,242)" fill-opacity="0.7109375"/>
  <rect x="14" y="13" width="1" height="1" fill="rgb(255,255,255)" fill-opacity="0.1328125"/>
  <rect x="14" y="14" width="1" height="7" fill="rgb(255,255,255)" fill-opacity="0.0078125"/>
  <rect x="15" y="0" width="1" height="21" fill="rgb(255,255,255)" fill-opacity="0.0078125"/>
  <rect x="16" y="0" width="1" height="21" fill="rgb(255,255,255)" fill-opacity="0.0078125"/>
  <rect x="17" y="0" width="1" height="21" fill="rgb(255,255,255)" fill-opacity="0.0078125"/>
  <rect x="18" y="0" width="1" height="21" fill="rgb(255,255,255)" fill-opacity="0.0078125"/>
  <rect x="19" y="0" width="1" height="21" fill="rgb(255,255,255)" fill-opacity="0.0078125"/>
  <rect x="20" y="0" width="1" height="21" fill="rgb(255,255,255)" fill-opacity="0.0078125"/>
</svg>