<svg xmlns="http://www.w3.org/2000/svg" shape-rendering="crispEdges" width="21" height="21" viewBox="0 0 21 21">
  <rect x="0" y="0" width="21" height="1" fill="rgb(255,255,255)" fill-opacity="0.0078125"/>
  <rect x="0" y="1" width="21" height="1" fill="rgb(255,255,255)" fill-opacity="0.0078125"/>
  <rect x="0" y="2" width="21" height="1" fill="rgb(255,255,255)" fill-opacity="0.0078125"/>
  <rect x="0" y="3" width="4" height="1" fill="rgb(255,255,255)" fill-opacity="0.0078125"/>
  <rect x="4" y="3" width="1" height="1" fill="rgb(0,0,0)" fill-opacity="0.0078125"/>
  <rect x="5" y="3" width="1" height="1" fill="rgb(24,35,51)" fill-opacity="0.375"/>
  <rect x="6" y="3" width="1" height="1" fill="rgb(38,48,63)" fill-opacity="0.7890625"/>
  <rect x="7" y="3" width="1" height="1" fill="rgb(29,40,55)" fill-opacity="0.921875"/>
  <rect x="8" y="3" width="1" height="1" fill="rgb(45,55,70)" fill-opacity="0.8359375"/>
  <rect x="9" y="3" width="1" height="1" fill="rgb(26,35,50)" fill-opacity="0.4296875"/>
  <rect x="10" y="3" width="3" height="1" fill="rgb(0,0,0)" fill-opacity="0.0078125"/>
  <rect x="13" y="3" width="1" height="1" fill="rgb(32,32,32)" fill-opacity="0.0703125"/>
  <rect x="14" y="3" width="1" height="1" fill="rgb(200,200,200)" fill-opacity="0.171875"/>
  <rect x="15" y="3" width="1" height="1" fill="rgb(34,34,34)" fill-opacity="0.0625"/>
  <rect x="16" y="3" width="2" height="1" fill="rgb(0,0,0)" fill-opacity="0.0078125"/>
  <rect x="18" y="3" width="3" height="1" fill="rgb(255,255,255)" fill-opacity="0.0078125"/>
  <rect x="0" y="4" width="3" height="1" fill="rgb(255,255,255)" fill-opacity="0.0078125"/>
  <rect x="3" y="4" width="1" height="1" fill="rgb(0,0,0)" fill-opacity="0.0078125"/>
  <rect x="4" y="4" width="1" height="1" fill="rgb(35,45,61)" fill-opacity="0.6953125"/>
  <rect x="5" y="4" width="1" height="1" fill="rgb(134,140,149)" fill-opacity="0.953125"/>
  <rect x="6" y="4" width="1" height="1" fill="rgb(244,245,245)"/>
  <rect x="7" y="4" width="1" height="1" fill="rgb(255,255,255)"/>
  <rect x="8" y="4" width="1" height="1" fill="rgb(245,245,246)"/>
  <rect x="9" y="4" width="1" height="1" fill="rgb(140,144,152)" fill-opacity="0.9765625"/>
  <rect x="10" y="4" width="1" height="1" fill="rgb(33,44,59)" fill-opacity="0.7265625"/>
  <rect x="11" y="4" width="2" height="1" fill="rgb(128,128,128)" fill-opacity="0.015625"/>
  <rect x="13" y="4" width="1" height="1" fill="rgb(26,26,26)" fill-opacity="0.3828125"/>
  <rect x="14" y="4" width="1" height="1" fill="rgb(230,230,230)" fill-opacity="0.515625"/>
  <rect x="15" y="4" width="1" height="1" fill="rgb(27,27,27)" fill-opacity="0.3828125"/>
  <rect x="16" y="4" width="1" height="1" fill="rgb(128,128,128)" fill-opacity="0.015625"/>
  <rect x="17" y="4" width="1" height="1" fill="rgb(255,255,255)" fill-opacity="0.0078125"/>
  <rect x="18" y="4" width="1" height="1" fill="rgb(0,0,0)" fill-opacity="0.0078125"/>
  <rect x="19" y="4" width="2" height="1" fill="rgb(255,255,255)" fill-opacity="0.0078125"/>
  <rect x="0" y="5" width="3" height="1" fill="rgb(255,255,255)" fill-opacity="0.0078125"/>
  <rect x="3" y="5" width="1" height="1" fill="rgb(22,35,49)" fill-opacity="0.375"/>
  <rect x="4" y="5" width="1" height="1" fill="rgb(128,134,142)" fill-opacity="0.953125"/>
  <rect x="5" y="5" width="5" height="1" fill="rgb(255,255,255)"/>
  <rect x="10" y="5" width="1" height="1" fill="rgb(130,136,145)" fill-opacity="0.953125"/>
  <rect x="11" y="5" width="1" height="1" fill="rgb(25,37,51)" fill-opacity="0.4140625"/>
  <rect x="12" y="5" width="1" height="1" fill="rgb(170,170,170)" fill-opacity="0.015625"/>
  <rect x="13" y="5" width="1" height="1" fill="rgb(26,26,26)" fill-opacity="0.6484375"/>
  <rect x="14" y="5" width="1" height="1" fill="rgb(230,230,230)" fill-opacity="0.8515625"/>
  <rect x="15" y="5" width="1" height="1" fill="rgb(26,26,26)" fill-opacity="0.6484375"/>
  <rect x="16" y="5" width="2" height="1" fill="rgb(128,128,128)" fill-opacity="0.015625"/>
  <rect x="18" y="5" width="1" height="1" fill="rgb(0,0,0)" fill-opacity="0.0078125"/>
  <rect x="19" y="5" width="2" height="1" fill="rgb(255,255,255)" fill-opacity="0.0078125"/>
  <rect x="0" y="6" width="3" height="1" fill="rgb(255,255,255)" fill-opacity="0.0078125"/>
  <rect x="3" y="6" width="1" height="1" fill="rgb(38,48,63)" fill-opacity="0.7734375"/>
  <rect x="4" y="6" width="1" height="1" fill="rgb(242,242,243)"/>
  <rect x="5" y="6" width="1" height="1" fill="rgb(255,255,255)"/>
  <rect x="6" y="6" width="1" height="1" fill="rgb(128,170,234)"/>
  <rect x="7" y="6" width="1" height="1" fill="rgb(0,85,212)"/>
  <rect x="8" y="6" width="1" height="1" fill="rgb(125,167,231)"/>
  <rect x="9" y="6" width="1" height="1" fill="rgb(243,243,243)"/>
  <rect x="10" y="6" width="1" height="1" fill="rgb(227,228,229)"/>
  <rect x="11" y="6" width="1" height="1" fill="rgb(32,42,58)" fill-opacity="0.8125"/>
  <rect x="12" y="6" width="1" height="1" fill="rgb(170,170,170)" fill-opacity="0.015625"/>
  <rect x="13" y="6" width="1" height="1" fill="rgb(26,26,26)" fill-opacity="0.6484375"/>
  <rect x="14" y="6" width="1" height="1" fill="rgb(230,230,230)" fill-opacity="0.8515625"/>
  <rect x="15" y="6" width="1" height="1" fill="rgb(27,27,27)" fill-opacity="0.484375"/>
  <rect x="16" y="6" width="1" height="1" fill="rgb(170,170,170)" fill-opacity="0.015625"/>
  <rect x="17" y="6" width="1" height="1" fill="rgb(128,128,128)" fill-opacity="0.015625"/>
  <rect x="18" y="6" width="1" height="1" fill="rgb(0,0,0)" fill-opacity="0.0078125"/>
  <rect x="19" y="6" width="2" height="1" fill="rgb(255,255,255)" fill-opacity="0.0078125"/>
  <rect x="0" y="7" width="3" height="1" fill="rgb(255,255,255)" fill-opacity="0.0078125"/>
  <rect x="3" y="7" width="1" height="1" fill="rgb(31,41,57)" fill-opacity="0.90625"/>
  <rect x="4" y="7" width="2" height="1" fill="rgb(255,255,255)"/>
  <rect x="6" y="7" width="1" height="1" fill="rgb(0,85,212)"/>
  <rect x="7" y="7" width="1" height="1" fill="rgb(248,248,248)"/>
  <rect x="8" y="7" width="1" height="1" fill="rgb(0,85,212)"/>
  <rect x="9" y="7" width="1" height="1" fill="rgb(223,223,223)"/>
  <rect x="10" y="7" width="1" height="1" fill="rgb(237,237,237)"/>
  <rect x="11" y="7" width="1" height="1" fill="rgb(29,39,54)" fill-opacity="0.96875"/>
  <rect x="12" y="7" width="1" height="1" fill="rgb(26,26,26)" fill-opacity="0.6484375"/>
  <rect x="13" y="7" width="1" height="1" fill="rgb(26,26,26)" fill-opacity="0.8046875"/>
  <rect x="14" y="7" width="1" height="1" fill="rgb(230,230,230)" fill-opacity="0.640625"/>
  <rect x="15" y="7" width="1" height="1" fill="rgb(26,26,26)" fill-opacity="0.8046875"/>
  <rect x="16" y="7" width="1" height="1" fill="rgb(26,26,26)" fill-opacity="0.6484375"/>
  <rect x="17" y="7" width="1" height="1" fill="rgb(26,26,26)" fill-opacity="0.3828125"/>
  <rect x="18" y="7" width="1" height="1" fill="rgb(32,32,32)" fill-opacity="0.0703125"/>
  <rect x="19" y="7" width="2" height="1" fill="rgb(255,255,255)" fill-opacity="0.0078125"/>
  <rect x="0" y="8" width="3" height="1" fill="rgb(255,255,255)" fill-opacity="0.0078125"/>
  <rect x="3" y="8" width="1" height="1" fill="rgb(48,57,72)" fill-opacity="0.8203125"/>
  <rect x="4" y="8" width="1" height="1" fill="rgb(242,242,243)"/>
  <rect x="5" y="8" width="1" height="1" fill="rgb(255,255,255)"/>
  <rect x="6" y="8" width="1" height="1" fill="rgb(123,165,229)"/>
  <rect x="7" y="8" width="1" height="1" fill="rgb(0,85,212)"/>
  <rect x="8" y="8" width="1" height="1" fill="rgb(109,151,215)"/>
  <rect x="9" y="8" width="1" height="1" fill="rgb(218,218,218)"/>
  <rect x="10" y="8" width="1" height="1" fill="rgb(202,202,204)"/>
  <rect x="11" y="8" width="1" height="1" fill="rgb(63,72,84)" fill-opacity="0.9765625"/>
  <rect x="12" y="8" width="1" height="1" fill="rgb(230,230,230)" fill-opacity="0.8515625"/>
  <rect x="13" y="8" width="1" height="1" fill="rgb(230,230,230)" fill-opacity="0.640625"/>
  <rect x="14" y="8" width="3" height="1" fill="rgb(230,230,230)" fill-opacity="0.8515625"/>
  <rect x="17" y="8" width="1" height="1" fill="rgb(230,230,230)" fill-opacity="0.515625"/>
  <rect x="18" y="8" width="1" height="1" fill="rgb(200,200,200)" fill-opacity="0.171875"/>
  <rect x="19" y="8" width="2" height="1" fill="rgb(255,255,255)" fill-opacity="0.0078125"/>
  <rect x="0" y="9" width="3" height="1" fill="rgb(255,255,255)" fill-opacity="0.0078125"/>
  <rect x="3" y="9" width="1" height="1" fill="rgb(22,34,46)" fill-opacity="0.4140625"/>
  <rect x="4" y="9" width="1" height="1" fill="rgb(125,132,140)" fill-opacity="0.9765625"/>
  <rect x="5" y="9" width="1" height="1" fill="rgb(253,253,253)"/>
  <rect x="6" y="9" width="1" height="1" fill="rgb(240,240,240)"/>
  <rect x="7" y="9" width="1" height="1" fill="rgb(221,221,221)"/>
  <rect x="8" y="9" width="1" height="1" fill="rgb(219,219,219)"/>
  <rect x="9" y="9" width="1" height="1" fill="rgb(222,222,222)"/>
  <rect x="10" y="9" width="1" height="1" fill="rgb(91,97,106)" fill-opacity="0.984375"/>
  <rect x="11" y="9" width="1" height="1" fill="rgb(23,28,37)" fill-opacity="0.7890625"/>
  <rect x="12" y="9" width="1" height="1" fill="rgb(27,27,27)" fill-opacity="0.484375"/>
  <rect x="13" y="9" width="1" height="1" fill="rgb(26,26,26)" fill-opacity="0.8046875"/>
  <rect x="14" y="9" width="1" height="1" fill="rgb(230,230,230)" fill-opacity="0.8515625"/>
  <rect x="15" y="9" width="1" height="1" fill="rgb(26,26,26)" fill-opacity="0.8046875"/>
  <rect x="16" y="9" width="1" height="1" fill="rgb(26,26,26)" fill-opacity="0.6484375"/>
  <rect x="17" y="9" width="1" height="1" fill="rgb(27,27,27)" fill-opacity="0.3828125"/>
  <rect x="18" y="9" width="1" height="1" fill="rgb(34,34,34)" fill-opacity="0.0625"/>
  <rect x="19" y="9" width="2" height="1" fill="rgb(255,255,255)" fill-opacity="0.0078125"/>
  <rect x="0" y="10" width="3" height="1" fill="rgb(255,255,255)" fill-opacity="0.0078125"/>
  <rect x="3" y="10" width="1" height="1" fill="rgb(0,0,0)" fill-opacity="0.0078125"/>
  <rect x="4" y="10" width="1" height="1" fill="rgb(33,43,59)" fill-opacity="0.703125"/>
  <rect x="5" y="10" width="1" height="1" fill="rgb(120,125,135)" fill-opacity="0.953125"/>
  <rect x="6" y="10" width="1" height="1" fill="rgb(219,220,221)"/>
  <rect x="7" y="10" width="1" height="1" fill="rgb(233,233,233)"/>
  <rect x="8" y="10" width="1" height="1" fill="rgb(197,198,199)"/>
  <rect x="9" y="10" width="1" height="1" fill="rgb(91,97,106)" fill-opacity="0.984375"/>
  <rect x="10" y="10" width="1" height="1" fill="rgb(25,36,51)" fill-opacity="0.7265625"/>
  <rect x="11" y="10" width="1" height="1" fill="rgb(128,128,128)" fill-opacity="0.015625"/>
  <rect x="12" y="10" width="1" height="1" fill="rgb(170,170,170)" fill-opacity="0.015625"/>
  <rect x="13" y="10" width="1" height="1" fill="rgb(26,26,26)" fill-opacity="0.6484375"/>
  <rect x="14" y="10" width="1" height="1" fill="rgb(230,230,230)" fill-opacity="0.8515625"/>
  <rect x="15" y="10" width="1" height="1" fill="rgb(26,26,26)" fill-opacity="0.6484375"/>
  <rect x="16" y="10" width="1" height="1" fill="rgb(170,170,170)" fill-opacity="0.015625"/>
  <rect x="17" y="10" width="1" height="1" fill="rgb(128,128,128)" fill-opacity="0.015625"/>
  <rect x="18" y="10" width="1" height="1" fill="rgb(0,0,0)" fill-opacity="0.0078125"/>
  <rect x="19" y="10" width="2" height="1" fill="rgb(255,255,255)" fill-opacity="0.0078125"/>
  <rect x="0" y="11" width="3" height="1" fill="rgb(255,255,255)" fill-opacity="0.0078125"/>
  <rect x="3" y="11" width="1" height="1" fill="rgb(0,0,0)" fill-opacity="0.0078125"/>
  <rect x="4" y="11" width="1" height="1" fill="rgb(128,128,128)" fill-opacity="0.015625"/>
  <rect x="5" y="11" width="1" height="1" fill="rgb(24,37,53)" fill-opacity="0.3828125"/>
  <rect x="6" y="11" width="1" height="1" fill="rgb(32,43,58)" fill-opacity="0.796875"/>
  <rect x="7" y="11" width="1" height="1" fill="rgb(24,34,49)" fill-opacity="0.9765625"/>
  <rect x="8" y="11" width="1" height="1" fill="rgb(65,74,87)" fill-opacity="0.96875"/>
  <rect x="9" y="11" width="1" height="1" fill="rgb(23,28,36)" fill-opacity="0.78125"/>
  <rect x="10" y="11" width="2" height="1" fill="rgb(128,128,128)" fill-opacity="0.015625"/>
  <rect x="12" y="11" width="1" height="1" fill="rgb(170,170,170)" fill-opacity="0.015625"/>
  <rect x="13" y="11" width="1" height="1" fill="rgb(26,26,26)" fill-opacity="0.6484375"/>
  <rect x="14" y="11" width="1" height="1" fill="rgb(230,230,230)" fill-opacity="0.8515625"/>
  <rect x="15" y="11" width="1" height="1" fill="rgb(26,26,26)" fill-opacity="0.6484375"/>
  <rect x="16" y="11" width="1" height="1" fill="rgb(170,170,170)" fill-opacity="0.015625"/>
  <rect x="17" y="11" width="1" height="1" fill="rgb(128,128,128)" fill-opacity="0.015625"/>
  <rect x="18" y="11" width="1" height="1" fill="rgb(0,0,0)" fill-opacity="0.0078125"/>
  <rect x="19" y="11" width="2" height="1" fill="rgb(255,255,255)" fill-opacity="0.0078125"/>
  <rect x="0" y="12" width="3" height="1" fill="rgb(255,255,255)" fill-opacity="0.0078125"/>
  <rect x="3" y="12" width="1" height="1" fill="rgb(0,0,0)" fill-opacity="0.0078125"/>
  <rect x="4" y="12" width="1" height="1" fill="rgb(128,128,128)" fill-opacity="0.015625"/>
  <rect x="5" y="12" width="2" height="1" fill="rgb(170,170,170)" fill-opacity="0.015625"/>
  <rect x="7" y="12" width="1" height="1" fill="rgb(26,26,26)" fill-opacity="0.6484375"/>
  <rect x="8" y="12" width="1" height="1" fill="rgb(230,230,230)" fill-opacity="0.8515625"/>
  <rect x="9" y="12" width="1" height="1" fill="rgb(27,27,27)" fill-opacity="0.484375"/>
  <rect x="10" y="12" width="2" height="1" fill="rgb(170,170,170)" fill-opacity="0.015625"/>
  <rect x="12" y="12" width="1" height="1" fill="rgb(128,128,128)" fill-opacity="0.015625"/>
  <rect x="13" y="12" width="1" height="1" fill="rgb(26,26,26)" fill-opacity="0.6484375"/>
  <rect x="14" y="12" width="1" height="1" fill="rgb(230,230,230)" fill-opacity="0.8515625"/>
  <rect x="15" y="12" width="1" height="1" fill="rgb(26,26,26)" fill-opacity="0.6484375"/>
  <rect x="16" y="12" width="1" height="1" fill="rgb(170,170,170)" fill-opacity="0.015625"/>
  <rect x="17" y="12" width="1" height="1" fill="rgb(128,128,128)" fill-opacity="0.015625"/>
  <rect x="18" y="12" width="1" height="1" fill="rgb(0,0,0)" fill-opacity="0.0078125"/>
  <rect x="19" y="12" width="2" height="1" fill="rgb(255,255,255)" fill-opacity="0.0078125"/>
  <rect x="0" y="13" width="3" height="1" fill="rgb(255,255,255)" fill-opacity="0.0078125"/>
  <rect x="3" y="13" width="1" height="1" fill="rgb(27,27,27)" fill-opacity="0.078125"/>
  <rect x="4" y="13" width="1" height="1" fill="rgb(28,28,28)" fill-opacity="0.4765625"/>
  <rect x="5" y="13" width="2" height="1" fill="rgb(26,26,26)" fill-opacity="0.6484375"/>
  <rect x="7" y="13" width="1" height="1" fill="rgb(26,26,26)" fill-opacity="0.8046875"/>
  <rect x="8" y="13" width="1" height="1" fill="rgb(230,230,230)" fill-opacity="0.640625"/>
  <rect x="9" y="13" width="1" height="1" fill="rgb(26,26,26)" fill-opacity="0.8046875"/>
  <rect x="10" y="13" width="3" height="1" fill="rgb(26,26,26)" fill-opacity="0.6484375"/>
  <rect x="13" y="13" width="1" height="1" fill="rgb(27,27,27)" fill-opacity="0.6015625"/>
  <rect x="14" y="13" width="1" height="1" fill="rgb(230,230,230)" fill-opacity="0.8515625"/>
  <rect x="15" y="13" width="1" height="1" fill="rgb(26,26,26)" fill-opacity="0.8046875"/>
  <rect x="16" y="13" width="1" height="1" fill="rgb(26,26,26)" fill-opacity="0.6484375"/>
  <rect x="17" y="13" width="1" height="1" fill="rgb(26,26,26)" fill-opacity="0.3828125"/>
  <rect x="18" y="13" width="1" height="1" fill="rgb(32,32,32)" fill-opacity="0.0703125"/>
  <rect x="19" y="13" width="2" height="1" fill="rgb(255,255,255)" fill-opacity="0.0078125"/>
  <rect x="0" y="14" width="3" height="1" fill="rgb(255,255,255)" fill-opacity="0.0078125"/>
  <rect x="3" y="14" width="1" height="1" fill="rgb(202,202,202)" fill-opacity="0.2109375"/>
  <rect x="4" y="14" width="1" height="1" fill="rgb(230,230,230)" fill-opacity="0.640625"/>
  <rect x="5" y="14" width="2" height="1" fill="rgb(230,230,230)" fill-opacity="0.8515625"/>
  <rect x="7" y="14" width="1" height="1" fill="rgb(230,230,230)" fill-opacity="0.640625"/>
  <rect x="8" y="14" width="6" height="1" fill="rgb(230,230,230)" fill-opacity="0.8515625"/>
  <rect x="14" y="14" width="1" height="1" fill="rgb(230,230,230)" fill-opacity="0.640625"/>
  <rect x="15" y="14" width="2" height="1" fill="rgb(230,230,230)" fill-opacity="0.8515625"/>
  <rect x="17" y="14" width="1" height="1" fill="rgb(230,230,230)" fill-opacity="0.515625"/>
  <rect x="18" y="14" width="1" height="1" fill="rgb(200,200,200)" fill-opacity="0.171875"/>
  <rect x="19" y="14" width="2" height="1" fill="rgb(255,255,255)" fill-opacity="0.0078125"/>
  <rect x="0" y="15" width="3" height="1" fill="rgb(255,255,255)" fill-opacity="0.0078125"/>
  <rect x="3" y="15" width="1" height="1" fill="rgb(27,27,27)" fill-opacity="0.078125"/>
  <rect x="4" y="15" width="1" height="1" fill="rgb(27,27,27)" fill-opacity="0.4765625"/>
  <rect x="5" y="15" width="1" height="1" fill="rgb(26,26,26)" fill-opacity="0.6484375"/>
  <rect x="6" y="15" width="1" height="1" fill="rgb(27,27,27)" fill-opacity="0.484375"/>
  <rect x="7" y="15" width="1" height="1" fill="rgb(26,26,26)" fill-opacity="0.8046875"/>
  <rect x="8" y="15" width="1" height="1" fill="rgb(230,230,230)" fill-opacity="0.8515625"/>
  <rect x="9" y="15" width="1" height="1" fill="rgb(26,26,26)" fill-opacity="0.8046875"/>
  <rect x="10" y="15" width="3" height="1" fill="rgb(26,26,26)" fill-opacity="0.6484375"/>
  <rect x="13" y="15" width="1" height="1" fill="rgb(26,26,26)" fill-opacity="0.8046875"/>
  <rect x="14" y="15" width="1" height="1" fill="rgb(230,230,230)" fill-opacity="0.8515625"/>
  <rect x="15" y="15" width="1" height="1" fill="rgb(27,27,27)" fill-opacity="0.6015625"/>
  <rect x="16" y="15" width="1" height="1" fill="rgb(26,26,26)" fill-opacity="0.6484375"/>
  <rect x="17" y="15" width="1" height="1" fill="rgb(27,27,27)" fill-opacity="0.3828125"/>
  <rect x="18" y="15" width="1" height="1" fill="rgb(34,34,34)" fill-opacity="0.0625"/>
  <rect x="19" y="15" width="2" height="1" fill="rgb(255,255,255)" fill-opacity="0.0078125"/>
  <rect x="0" y="16" width="3" height="1" fill="rgb(255,255,255)" fill-opacity="0.0078125"/>
  <rect x="3" y="16" width="1" height="1" fill="rgb(0,0,0)" fill-opacity="0.0078125"/>
  <rect x="4" y="16" width="2" height="1" fill="rgb(128,128,128)" fill-opacity="0.015625"/>
  <rect x="6" y="16" width="1" height="1" fill="rgb(170,170,170)" fill-opacity="0.015625"/>
  <rect x="7" y="16" width="1" height="1" fill="rgb(26,26,26)" fill-opacity="0.6484375"/>
  <rect x="8" y="16" width="1" height="1" fill="rgb(230,230,230)" fill-opacity="0.8515625"/>
  <rect x="9" y="16" width="1" height="1" fill="rgb(26,26,26)" fill-opacity="0.6484375"/>
  <rect x="10" y="16" width="3" height="1" fill="rgb(170,170,170)" fill-opacity="0.015625"/>
  <rect x="13" y="16" width="1" height="1" fill="rgb(26,26,26)" fill-opacity="0.6484375"/>
  <rect x="14" y="16" width="1" height="1" fill="rgb(230,230,230)" fill-opacity="0.8515625"/>
  <rect x="15" y="16" width="1" height="1" fill="rgb(26,26,26)" fill-opacity="0.6484375"/>
  <rect x="16" y="16" width="2" height="1" fill="rgb(128,128,128)" fill-opacity="0.015625"/>
  <rect x="18" y="16" width="1" height="1" fill="rgb(0,0,0)" fill-opacity="0.0078125"/>
  <rect x="19" y="16" width="2" height="1" fill="rgb(255,255,255)" fill-opacity="0.0078125"/>
  <rect x="0" y="17" width="3" height="1" fill="rgb(255,255,255)" fill-opacity="0.0078125"/>
  <rect x="3" y="17" width="1" height="1" fill="rgb(0,0,0)" fill-opacity="0.0078125"/>
  <rect x="4" y="17" width="1" height="1" fill="rgb(255,255,255)" fill-opacity="0.0078125"/>
  <rect x="5" y="17" width="2" height="1" fill="rgb(128,128,128)" fill-opacity="0.015625"/>
  <rect x="7" y="17" width="1" height="1" fill="rgb(27,27,27)" fill-opacity="0.3828125"/>
  <rect x="8" y="17" width="1" height="1" fill="rgb(230,230,230)" fill-opacity="0.515625"/>
  <rect x="9" y="17" width="1" height="1" fill="rgb(26,26,26)" fill-opacity="0.3828125"/>
  <rect x="10" y="17" width="3" height="1" fill="rgb(128,128,128)" fill-opacity="0.015625"/>
  <rect x="13" y="17" width="1" height="1" fill="rgb(27,27,27)" fill-opacity="0.3828125"/>
  <rect x="14" y="17" width="1" height="1" fill="rgb(230,230,230)" fill-opacity="0.515625"/>
  <rect x="15" y="17" width="1" height="1" fill="rgb(26,26,26)" fill-opacity="0.3828125"/>
  <rect x="16" y="17" width="1" height="1" fill="rgb(128,128,128)" fill-opacity="0.015625"/>
  <rect x="17" y="17" width="1" height="1" fill="rgb(255,255,255)" fill-opacity="0.0078125"/>
  <rect x="18" y="17" width="1" height="1" fill="rgb(0,0,0)" fill-opacity="0.0078125"/>
  <rect x="19" y="17" width="2" height="1" fill="rgb(255,255,255)" fill-opacity="0.0078125"/>
  <rect x="0" y="18" width="4" height="1" fill="rgb(255,255,255)" fill-opacity="0.0078125"/>
  <rect x="4" y="18" width="3" height="1" fill="rgb(0,0,0)" fill-opacity="0.0078125"/>
  <rect x="7" y="18" width="1" height="1" fill="rgb(34,34,34)" fill-opacity="0.0625"/>
  <rect x="8" y="18" width="1" height="1" fill="rgb(200,200,200)" fill-opacity="0.171875"/>
  <rect x="9" y="18" width="1" height="1" fill="rgb(32,32,32)" fill-opacity="0.0703125"/>
  <rect x="10" y="18" width="3" height="1" fill="rgb(0,0,0)" fill-opacity="0.0078125"/>
  <rect x="13" y="18" width="1" height="1" fill="rgb(34,34,34)" fill-opacity="0.0625"/>
  <rect x="14" y="18" width="1" height="1" fill="rgb(200,200,200)" fill-opacity="0.171875"/>
  <rect x="15" y="18" width="1" height="1" fill="rgb(32,32,32)" fill-opacity="0.0703125"/>
  <rect x="16" y="18" width="2" height="1" fill="rgb(0,0,0)" fill-opacity="0.0078125"/>
  <rect x="18" y="18" width="3" height="1" fill="rgb(255,255,255)" fill-opacity="0.0078125"/>
  <rect x="0" y="19" width="21" height="1" fill="rgb(255,255,255)" fill-opacity="0.0078125"/>
  <rect x="0" y="20" width="21" height="1" fill="rgb(255,255,255)" fill-opacity="0.0078125"/>
</svg>