<svg xmlns="http://www.w3.org/2000/svg" shape-rendering="crispEdges" width="21" height="21" viewBox="0 0 21 21">
  <rect x="0" y="0" width="21" height="1" fill="rgb(255,255,255)" fill-opacity="0.0078125"/>
  <rect x="0" y="1" width="21" height="1" fill="rgb(255,255,255)" fill-opacity="0.0078125"/>
  <rect x="0" y="2" width="21" height="1" fill="rgb(255,255,255)" fill-opacity="0.0078125"/>
  <rect x="0" y="3" width="9" height="1" fill="rgb(255,255,255)" fill-opacity="0.0078125"/>
  <rect x="9" y="3" width="1" height="1" fill="rgb(22,22,22)" fill-opacity="0.2265625"/>
  <rect x="10" y="3" width="1" height="1" fill="rgb(21,21,21)" fill-opacity="0.703125"/>
  <rect x="11" y="3" width="1" height="1" fill="rgb(21,21,21)" fill-opacity="0.7109375"/>
  <rect x="12" y="3" width="1" height="1" fill="rgb(23,23,23)" fill-opacity="0.265625"/>
  <rect x="13" y="3" width="8" height="1" fill="rgb(255,255,255)" fill-opacity="0.0078125"/>
  <rect x="0" y="4" width="9" height="1" fill="rgb(255,255,255)" fill-opacity="0.0078125"/>
  <rect x="9" y="4" width="1" height="1" fill="rgb(19,19,19)" fill-opacity="0.6875"/>
  <rect x="10" y="4" width="1" height="1" fill="rgb(231,231,231)"/>
  <rect x="11" y="4" width="1" height="1" fill="rgb(236,236,236)"/>
  <rect x="12" y="4" width="1" height="1" fill="rgb(29,29,29)" fill-opacity="0.7265625"/>
  <rect x="13" y="4" width="8" height="1" fill="rgb(255,255,255)" fill-opacity="0.0078125"/>
  <rect x="0" y="5" width="9" height="1" fill="rgb(255,255,255)" fill-opacity="0.0078125"/>
  <rect x="9" y="5" width="1" height="1" fill="rgb(19,19,19)" fill-opacity="0.703125"/>
  <rect x="10" y="5" width="1" height="1" fill="rgb(231,231,231)"/>
  <rect x="11" y="5" width="1" height="1" fill="rgb(236,236,236)"/>
  <rect x="12" y="5" width="1" height="1" fill="rgb(29,29,29)" fill-opacity="0.734375"/>
  <rect x="13" y="5" width="8" height="1" fill="rgb(255,255,255)" fill-opacity="0.0078125"/>
  <rect x="0" y="6" width="3" height="1" fill="rgb(255,255,255)" fill-opacity="0.0078125"/>
  <rect x="3" y="6" width="1" height="1" fill="rgb(25,25,25)" fill-opacity="0.2421875"/>
  <rect x="4" y="6" width="1" height="1" fill="rgb(76,76,76)" fill-opacity="0.8828125"/>
  <rect x="5" y="6" width="4" height="1" fill="rgb(105,105,105)"/>
  <rect x="9" y="6" width="1" height="1" fill="rgb(91,91,91)"/>
  <rect x="10" y="6" width="1" height="1" fill="rgb(77,77,77)"/>
  <rect x="11" y="6" width="1" height="1" fill="rgb(76,76,76)"/>
  <rect x="12" y="6" width="1" height="1" fill="rgb(89,89,89)"/>
  <rect x="13" y="6" width="1" height="1" fill="rgb(101,101,101)"/>
  <rect x="14" y="6" width="1" height="1" fill="rgb(100,100,100)"/>
  <rect x="15" y="6" width="1" height="1" fill="rgb(98,98,98)"/>
  <rect x="16" y="6" width="1" height="1" fill="rgb(74,74,74)" fill-opacity="0.953125"/>
  <rect x="17" y="6" width="1" height="1" fill="rgb(27,27,27)" fill-opacity="0.2265625"/>
  <rect x="18" y="6" width="3" height="1" fill="rgb(255,255,255)" fill-opacity="0.0078125"/>
  <rect x="0" y="7" width="3" height="1" fill="rgb(255,255,255)" fill-opacity="0.0078125"/>
  <rect x="3" y="7" width="1" height="1" fill="rgb(27,27,27)" fill-opacity="0.6015625"/>
  <rect x="4" y="7" width="1" height="1" fill="rgb(244,244,244)"/>
  <rect x="5" y="7" width="4" height="1" fill="rgb(255,255,255)"/>
  <rect x="9" y="7" width="1" height="1" fill="rgb(254,254,254)"/>
  <rect x="10" y="7" width="1" height="1" fill="rgb(233,233,233)"/>
  <rect x="11" y="7" width="1" height="1" fill="rgb(230,230,230)"/>
  <rect x="12" y="7" width="1" height="1" fill="rgb(241,241,241)"/>
  <rect x="13" y="7" width="1" height="1" fill="rgb(239,239,239)"/>
  <rect x="14" y="7" width="1" height="1" fill="rgb(233,233,233)"/>
  <rect x="15" y="7" width="1" height="1" fill="rgb(229,229,229)"/>
  <rect x="16" y="7" width="1" height="1" fill="rgb(221,221,221)"/>
  <rect x="17" y="7" width="1" height="1" fill="rgb(30,30,30)" fill-opacity="0.640625"/>
  <rect x="18" y="7" width="3" height="1" fill="rgb(255,255,255)" fill-opacity="0.0078125"/>
  <rect x="0" y="8" width="3" height="1" fill="rgb(255,255,255)" fill-opacity="0.0078125"/>
  <rect x="3" y="8" width="1" height="1" fill="rgb(26,26,26)" fill-opacity="0.203125"/>
  <rect x="4" y="8" width="1" height="1" fill="rgb(77,77,77)" fill-opacity="0.9453125"/>
  <rect x="5" y="8" width="4" height="1" fill="rgb(105,105,105)"/>
  <rect x="9" y="8" width="1" height="1" fill="rgb(154,154,154)"/>
  <rect x="10" y="8" width="1" height="1" fill="rgb(246,246,246)"/>
  <rect x="11" y="8" width="1" height="1" fill="rgb(152,152,152)"/>
  <rect x="12" y="8" width="1" height="1" fill="rgb(99,99,99)"/>
  <rect x="13" y="8" width="1" height="1" fill="rgb(97,97,97)"/>
  <rect x="14" y="8" width="1" height="1" fill="rgb(95,95,95)"/>
  <rect x="15" y="8" width="1" height="1" fill="rgb(94,94,94)"/>
  <rect x="16" y="8" width="1" height="1" fill="rgb(72,72,72)" fill-opacity="0.8984375"/>
  <rect x="17" y="8" width="1" height="1" fill="rgb(27,27,27)" fill-opacity="0.265625"/>
  <rect x="18" y="8" width="3" height="1" fill="rgb(255,255,255)" fill-opacity="0.0078125"/>
  <rect x="0" y="9" width="8" height="1" fill="rgb(255,255,255)" fill-opacity="0.0078125"/>
  <rect x="8" y="9" width="1" height="1" fill="rgb(27,27,27)" fill-opacity="0.265625"/>
  <rect x="9" y="9" width="1" height="1" fill="rgb(124,124,124)"/>
  <rect x="10" y="9" width="1" height="1" fill="rgb(239,239,239)"/>
  <rect x="11" y="9" width="1" height="1" fill="rgb(119,119,119)"/>
  <rect x="12" y="9" width="1" height="1" fill="rgb(28,28,28)" fill-opacity="0.2578125"/>
  <rect x="13" y="9" width="8" height="1" fill="rgb(255,255,255)" fill-opacity="0.0078125"/>
  <rect x="0" y="10" width="8" height="1" fill="rgb(255,255,255)" fill-opacity="0.0078125"/>
  <rect x="8" y="10" width="1" height="1" fill="rgb(29,29,29)" fill-opacity="0.703125"/>
  <rect x="9" y="10" width="1" height="1" fill="rgb(207,207,207)"/>
  <rect x="10" y="10" width="1" height="1" fill="rgb(233,233,233)"/>
  <rect x="11" y="10" width="1" height="1" fill="rgb(199,199,199)"/>
  <rect x="12" y="10" width="1" height="1" fill="rgb(29,29,29)" fill-opacity="0.6953125"/>
  <rect x="13" y="10" width="8" height="1" fill="rgb(255,255,255)" fill-opacity="0.0078125"/>
  <rect x="0" y="11" width="7" height="1" fill="rgb(255,255,255)" fill-opacity="0.0078125"/>
  <rect x="7" y="11" width="1" height="1" fill="rgb(29,29,29)" fill-opacity="0.140625"/>
  <rect x="8" y="11" width="1" height="1" fill="rgb(89,89,89)"/>
  <rect x="9" y="11" width="1" height="1" fill="rgb(231,231,231)"/>
  <rect x="10" y="11" width="1" height="1" fill="rgb(215,215,215)"/>
  <rect x="11" y="11" width="1" height="1" fill="rgb(222,222,222)"/>
  <rect x="12" y="11" width="1" height="1" fill="rgb(83,83,83)"/>
  <rect x="13" y="11" width="1" height="1" fill="rgb(23,23,23)" fill-opacity="0.140625"/>
  <rect x="14" y="11" width="7" height="1" fill="rgb(255,255,255)" fill-opacity="0.0078125"/>
  <rect x="0" y="12" width="7" height="1" fill="rgb(255,255,255)" fill-opacity="0.0078125"/>
  <rect x="7" y="12" width="1" height="1" fill="rgb(26,26,26)" fill-opacity="0.5703125"/>
  <rect x="8" y="12" width="1" height="1" fill="rgb(177,177,177)"/>
  <rect x="9" y="12" width="1" height="1" fill="rgb(222,222,222)"/>
  <rect x="10" y="12" width="1" height="1" fill="rgb(74,74,74)"/>
  <rect x="11" y="12" width="1" height="1" fill="rgb(214,214,214)"/>
  <rect x="12" y="12" width="1" height="1" fill="rgb(163,163,163)"/>
  <rect x="13" y="12" width="1" height="1" fill="rgb(27,27,27)" fill-opacity="0.5703125"/>
  <rect x="14" y="12" width="7" height="1" fill="rgb(255,255,255)" fill-opacity="0.0078125"/>
  <rect x="0" y="13" width="6" height="1" fill="rgb(255,255,255)" fill-opacity="0.0078125"/>
  <rect x="6" y="13" width="1" height="1" fill="rgb(26,26,26)" fill-opacity="0.046875"/>
  <rect x="7" y="13" width="1" height="1" fill="rgb(61,61,61)" fill-opacity="0.9453125"/>
  <rect x="8" y="13" width="1" height="1" fill="rgb(223,223,223)"/>
  <rect x="9" y="13" width="1" height="1" fill="rgb(155,155,155)"/>
  <rect x="10" y="13" width="1" height="1" fill="rgb(26,26,26)" fill-opacity="0.890625"/>
  <rect x="11" y="13" width="1" height="1" fill="rgb(149,149,149)"/>
  <rect x="12" y="13" width="1" height="1" fill="rgb(204,204,204)"/>
  <rect x="13" y="13" width="1" height="1" fill="rgb(56,56,56)" fill-opacity="0.9453125"/>
  <rect x="14" y="13" width="1" height="1" fill="rgb(26,26,26)" fill-opacity="0.046875"/>
  <rect x="15" y="13" width="6" height="1" fill="rgb(255,255,255)" fill-opacity="0.0078125"/>
  <rect x="0" y="14" width="6" height="1" fill="rgb(255,255,255)" fill-opacity="0.0078125"/>
  <rect x="6" y="14" width="1" height="1" fill="rgb(25,25,25)" fill-opacity="0.3984375"/>
  <rect x="7" y="14" width="1" height="1" fill="rgb(139,139,139)"/>
  <rect x="8" y="14" width="1" height="1" fill="rgb(216,216,216)"/>
  <rect x="9" y="14" width="1" height="1" fill="rgb(74,74,74)" fill-opacity="0.984375"/>
  <rect x="10" y="14" width="1" height="1" fill="rgb(27,27,27)" fill-opacity="0.1953125"/>
  <rect x="11" y="14" width="1" height="1" fill="rgb(71,71,71)" fill-opacity="0.984375"/>
  <rect x="12" y="14" width="1" height="1" fill="rgb(198,198,198)"/>
  <rect x="13" y="14" width="1" height="1" fill="rgb(122,122,122)"/>
  <rect x="14" y="14" width="1" height="1" fill="rgb(25,25,25)" fill-opacity="0.3984375"/>
  <rect x="15" y="14" width="6" height="1" fill="rgb(255,255,255)" fill-opacity="0.0078125"/>
  <rect x="0" y="15" width="6" height="1" fill="rgb(255,255,255)" fill-opacity="0.0078125"/>
  <rect x="6" y="15" width="1" height="1" fill="rgb(37,37,37)" fill-opacity="0.8203125"/>
  <rect x="7" y="15" width="1" height="1" fill="rgb(204,204,204)"/>
  <rect x="8" y="15" width="1" height="1" fill="rgb(179,179,179)"/>
  <rect x="9" y="15" width="1" height="1" fill="rgb(26,26,26)" fill-opacity="0.65625"/>
  <rect x="10" y="15" width="1" height="1" fill="rgb(255,255,255)" fill-opacity="0.0078125"/>
  <rect x="11" y="15" width="1" height="1" fill="rgb(26,26,26)" fill-opacity="0.65625"/>
  <rect x="12" y="15" width="1" height="1" fill="rgb(163,163,163)"/>
  <rect x="13" y="15" width="1" height="1" fill="rgb(178,178,178)"/>
  <rect x="14" y="15" width="1" height="1" fill="rgb(34,34,34)" fill-opacity="0.8203125"/>
  <rect x="15" y="15" width="6" height="1" fill="rgb(255,255,255)" fill-opacity="0.0078125"/>
  <rect x="0" y="16" width="6" height="1" fill="rgb(255,255,255)" fill-opacity="0.0078125"/>
  <rect x="6" y="16" width="1" height="1" fill="rgb(72,72,72)" fill-opacity="0.953125"/>
  <rect x="7" y="16" width="1" height="1" fill="rgb(207,207,207)"/>
  <rect x="8" y="16" width="1" height="1" fill="rgb(99,99,99)"/>
  <rect x="9" y="16" width="1" height="1" fill="rgb(26,26,26)" fill-opacity="0.234375"/>
  <rect x="10" y="16" width="1" height="1" fill="rgb(255,255,255)" fill-opacity="0.0078125"/>
  <rect x="11" y="16" width="1" height="1" fill="rgb(26,26,26)" fill-opacity="0.234375"/>
  <rect x="12" y="16" width="1" height="1" fill="rgb(90,90,90)"/>
  <rect x="13" y="16" width="1" height="1" fill="rgb(180,180,180)"/>
  <rect x="14" y="16" width="1" height="1" fill="rgb(66,66,66)" fill-opacity="0.9921875"/>
  <rect x="15" y="16" width="1" height="1" fill="rgb(32,32,32)" fill-opacity="0.0390625"/>
  <rect x="16" y="16" width="5" height="1" fill="rgb(255,255,255)" fill-opacity="0.0078125"/>
  <rect x="0" y="17" width="6" height="1" fill="rgb(255,255,255)" fill-opacity="0.0078125"/>
  <rect x="6" y="17" width="1" height="1" fill="rgb(28,28,28)" fill-opacity="0.5390625"/>
  <rect x="7" y="17" width="1" height="1" fill="rgb(66,66,66)" fill-opacity="0.96875"/>
  <rect x="8" y="17" width="1" height="1" fill="rgb(29,29,29)" fill-opacity="0.6171875"/>
  <rect x="9" y="17" width="3" height="1" fill="rgb(255,255,255)" fill-opacity="0.0078125"/>
  <rect x="12" y="17" width="1" height="1" fill="rgb(26,26,26)" fill-opacity="0.5546875"/>
  <rect x="13" y="17" width="1" height="1" fill="rgb(59,59,59)" fill-opacity="0.96875"/>
  <rect x="14" y="17" width="1" height="1" fill="rgb(29,29,29)" fill-opacity="0.546875"/>
  <rect x="15" y="17" width="6" height="1" fill="rgb(255,255,255)" fill-opacity="0.0078125"/>
  <rect x="0" y="18" width="7" height="1" fill="rgb(255,255,255)" fill-opacity="0.0078125"/>
  <rect x="7" y="18" width="1" height="1" fill="rgb(0,0,0)" fill-opacity="0.015625"/>
  <rect x="8" y="18" width="5" height="1" fill="rgb(255,255,255)" fill-opacity="0.0078125"/>
  <rect x="13" y="18" width="1" height="1" fill="rgb(0,0,0)" fill-opacity="0.0078125"/>
  <rect x="14" y="18" width="7" height="1" fill="rgb(255,255,255)" fill-opacity="0.0078125"/>
  <rect x="0" y="19" width="21" height="1" fill="rgb(255,255,255)" fill-opacity="0.0078125"/>
  <rect x="0" y="20" width="21" height="1" fill="rgb(255,255,255)" fill-opacity="0.0078125"/>
</svg>