<svg xmlns="http://www.w3.org/2000/svg" shape-rendering="crispEdges" width="21" height="21" viewBox="0 0 21 21">
  <rect x="0" y="0" width="1" height="21" fill="rgb(255,255,255)" fill-opacity="0.0078125"/>
  <rect x="1" y="0" width="1" height="21" fill="rgb(255,255,255)" fill-opacity="0.0078125"/>
  <rect x="2" y="0" width="1" height="21" fill="rgb(255,255,255)" fill-opacity="0.0078125"/>
  <rect x="3" y="0" width="1" height="3" fill="rgb(255,255,255)" fill-opacity="0.0078125"/>
  <rect x="3" y="3" width="1" height="1" fill="rgb(34,34,34)" fill-opacity="0.9140625"/>
  <rect x="3" y="4" width="1" height="9" fill="rgb(26,26,26)"/>
  <rect x="3" y="13" width="1" height="1" fill="rgb(25,25,25)" fill-opacity="0.75"/>
  <rect x="3" y="14" width="1" height="1" fill="rgb(26,26,26)" fill-opacity="0.5078125"/>
  <rect x="3" y="15" width="1" height="1" fill="rgb(28,28,28)" fill-opacity="0.2578125"/>
  <rect x="3" y="16" width="1" height="5" fill="rgb(255,255,255)" fill-opacity="0.0078125"/>
  <rect x="4" y="0" width="1" height="3" fill="rgb(255,255,255)" fill-opacity="0.0078125"/>
  <rect x="4" y="3" width="1" height="1" fill="rgb(26,26,26)"/>
  <rect x="4" y="4" width="1" height="1" fill="rgb(205,140,133)"/>
  <rect x="4" y="5" width="1" height="1" fill="rgb(204,139,132)"/>
  <rect x="4" y="6" width="1" height="1" fill="rgb(196,122,113)"/>
  <rect x="4" y="7" width="1" height="3" fill="rgb(255,255,255)"/>
  <rect x="4" y="10" width="1" height="1" fill="rgb(178,69,54)"/>
  <rect x="4" y="11" width="1" height="1" fill="rgb(178,64,47)"/>
  <rect x="4" y="12" width="1" height="1" fill="rgb(180,61,41)" fill-opacity="0.75"/>
  <rect x="4" y="13" width="1" height="1" fill="rgb(255,255,255)" fill-opacity="0.5078125"/>
  <rect x="4" y="14" width="1" height="1" fill="rgb(255,255,255)" fill-opacity="0.2578125"/>
  <rect x="4" y="15" width="1" height="6" fill="rgb(255,255,255)" fill-opacity="0.0078125"/>
  <rect x="5" y="0" width="1" height="3" fill="rgb(255,255,255)" fill-opacity="0.0078125"/>
  <rect x="5" y="3" width="1" height="1" fill="rgb(26,26,26)"/>
  <rect x="5" y="4" width="1" height="1" fill="rgb(204,139,131)"/>
  <rect x="5" y="5" width="1" height="2" fill="rgb(150,16,0)"/>
  <rect x="5" y="7" width="1" height="3" fill="rgb(255,255,255)"/>
  <rect x="5" y="10" width="1" height="1" fill="rgb(173,51,33)"/>
  <rect x="5" y="11" width="1" height="1" fill="rgb(182,63,44)" fill-opacity="0.75"/>
  <rect x="5" y="12" width="1" height="1" fill="rgb(187,76,56)" fill-opacity="0.5078125"/>
  <rect x="5" y="13" width="1" height="1" fill="rgb(255,255,255)" fill-opacity="0.2578125"/>
  <rect x="5" y="14" width="1" height="2" fill="rgb(255,255,255)" fill-opacity="0.0078125"/>
  <rect x="5" y="16" width="1" height="1" fill="rgb(43,43,43)" fill-opacity="0.03125"/>
  <rect x="5" y="17" width="1" height="1" fill="rgb(45,37,32)" fill-opacity="0.8359375"/>
  <rect x="5" y="18" width="1" height="1" fill="rgb(45,38,33)" fill-opacity="0.828125"/>
  <rect x="5" y="19" width="1" height="2" fill="rgb(255,255,255)" fill-opacity="0.0078125"/>
  <rect x="6" y="0" width="1" height="3" fill="rgb(255,255,255)" fill-opacity="0.0078125"/>
  <rect x="6" y="3" width="1" height="1" fill="rgb(26,26,26)"/>
  <rect x="6" y="4" width="1" height="1" fill="rgb(195,119,110)"/>
  <rect x="6" y="5" width="1" height="2" fill="rgb(150,16,0)"/>
  <rect x="6" y="7" width="1" height="3" fill="rgb(255,255,255)"/>
  <rect x="6" y="10" width="1" height="1" fill="rgb(182,65,45)" fill-opacity="0.75"/>
  <rect x="6" y="11" width="1" height="1" fill="rgb(189,78,58)" fill-opacity="0.5078125"/>
  <rect x="6" y="12" width="1" height="1" fill="rgb(195,88,68)" fill-opacity="0.2578125"/>
  <rect x="6" y="13" width="1" height="3" fill="rgb(255,255,255)" fill-opacity="0.0078125"/>
  <rect x="6" y="16" width="1" height="1" fill="rgb(40,35,30)" fill-opacity="0.40625"/>
  <rect x="6" y="17" width="1" height="1" fill="rgb(105,79,67)" fill-opacity="0.9609375"/>
  <rect x="6" y="18" width="1" height="1" fill="rgb(51,41,36)" fill-opacity="0.921875"/>
  <rect x="6" y="19" width="1" height="2" fill="rgb(255,255,255)" fill-opacity="0.0078125"/>
  <rect x="7" y="0" width="1" height="3" fill="rgb(255,255,255)" fill-opacity="0.0078125"/>
  <rect x="7" y="3" width="1" height="1" fill="rgb(26,26,26)"/>
  <rect x="7" y="4" width="1" height="3" fill="rgb(255,255,255)"/>
  <rect x="7" y="7" width="1" height="1" fill="rgb(168,43,25)"/>
  <rect x="7" y="8" width="1" height="1" fill="rgb(176,56,37)"/>
  <rect x="7" y="9" width="1" height="1" fill="rgb(184,67,48)" fill-opacity="0.75"/>
  <rect x="7" y="10" width="1" height="1" fill="rgb(255,255,255)" fill-opacity="0.5078125"/>
  <rect x="7" y="11" width="1" height="1" fill="rgb(255,255,255)" fill-opacity="0.2578125"/>
  <rect x="7" y="12" width="1" height="3" fill="rgb(255,255,255)" fill-opacity="0.0078125"/>
  <rect x="7" y="15" width="1" height="1" fill="rgb(39,39,20)" fill-opacity="0.0546875"/>
  <rect x="7" y="16" width="1" height="1" fill="rgb(48,39,35)" fill-opacity="0.890625"/>
  <rect x="7" y="17" width="1" height="1" fill="rgb(168,131,112)"/>
  <rect x="7" y="18" width="1" height="1" fill="rgb(52,42,37)" fill-opacity="0.921875"/>
  <rect x="7" y="19" width="1" height="2" fill="rgb(255,255,255)" fill-opacity="0.0078125"/>
  <rect x="8" y="0" width="1" height="3" fill="rgb(255,255,255)" fill-opacity="0.0078125"/>
  <rect x="8" y="3" width="1" height="1" fill="rgb(26,26,26)"/>
  <rect x="8" y="4" width="1" height="3" fill="rgb(255,255,255)"/>
  <rect x="8" y="7" width="1" height="1" fill="rgb(177,58,39)"/>
  <rect x="8" y="8" width="1" height="1" fill="rgb(184,69,49)" fill-opacity="0.75"/>
  <rect x="8" y="9" width="1" height="1" fill="rgb(191,82,62)" fill-opacity="0.5078125"/>
  <rect x="8" y="10" width="1" height="1" fill="rgb(255,255,255)" fill-opacity="0.2578125"/>
  <rect x="8" y="11" width="1" height="3" fill="rgb(255,255,255)" fill-opacity="0.0078125"/>
  <rect x="8" y="14" width="1" height="1" fill="rgb(42,34,30)" fill-opacity="0.265625"/>
  <rect x="8" y="15" width="1" height="1" fill="rgb(51,42,38)" fill-opacity="0.8984375"/>
  <rect x="8" y="16" width="1" height="1" fill="rgb(156,131,118)" fill-opacity="0.9921875"/>
  <rect x="8" y="17" width="1" height="1" fill="rgb(173,132,111)"/>
  <rect x="8" y="18" width="1" height="1" fill="rgb(51,40,35)" fill-opacity="0.921875"/>
  <rect x="8" y="19" width="1" height="2" fill="rgb(255,255,255)" fill-opacity="0.0078125"/>
  <rect x="9" y="0" width="1" height="3" fill="rgb(255,255,255)" fill-opacity="0.0078125"/>
  <rect x="9" y="3" width="1" height="1" fill="rgb(26,26,26)"/>
  <rect x="9" y="4" width="1" height="3" fill="rgb(255,255,255)"/>
  <rect x="9" y="7" width="1" height="1" fill="rgb(186,71,52)" fill-opacity="0.75"/>
  <rect x="9" y="8" width="1" height="1" fill="rgb(193,84,64)" fill-opacity="0.5078125"/>
  <rect x="9" y="9" width="1" height="1" fill="rgb(199,96,76)" fill-opacity="0.2578125"/>
  <rect x="9" y="10" width="1" height="3" fill="rgb(255,255,255)" fill-opacity="0.0078125"/>
  <rect x="9" y="13" width="1" height="1" fill="rgb(50,39,35)" fill-opacity="0.484375"/>
  <rect x="9" y="14" width="1" height="1" fill="rgb(100,85,80)" fill-opacity="0.9453125"/>
  <rect x="9" y="15" width="1" height="1" fill="rgb(207,187,178)"/>
  <rect x="9" y="16" width="1" height="1" fill="rgb(187,153,136)"/>
  <rect x="9" y="17" width="1" height="1" fill="rgb(158,109,84)"/>
  <rect x="9" y="18" width="1" height="1" fill="rgb(49,39,34)" fill-opacity="0.890625"/>
  <rect x="9" y="19" width="1" height="2" fill="rgb(255,255,255)" fill-opacity="0.0078125"/>
  <rect x="10" y="0" width="1" height="3" fill="rgb(255,255,255)" fill-opacity="0.0078125"/>
  <rect x="10" y="3" width="1" height="1" fill="rgb(26,26,26)"/>
  <rect x="10" y="4" width="1" height="1" fill="rgb(181,72,56)"/>
  <rect x="10" y="5" width="1" height="1" fill="rgb(180,61,42)"/>
  <rect x="10" y="6" width="1" height="1" fill="rgb(187,73,53)" fill-opacity="0.75"/>
  <rect x="10" y="7" width="1" height="1" fill="rgb(255,255,255)" fill-opacity="0.5078125"/>
  <rect x="10" y="8" width="1" height="1" fill="rgb(255,255,255)" fill-opacity="0.2578125"/>
  <rect x="10" y="9" width="1" height="4" fill="rgb(255,255,255)" fill-opacity="0.0078125"/>
  <rect x="10" y="13" width="1" height="1" fill="rgb(59,50,44)" fill-opacity="0.8828125"/>
  <rect x="10" y="14" width="1" height="1" fill="rgb(225,210,203)"/>
  <rect x="10" y="15" width="1" height="1" fill="rgb(194,163,148)"/>
  <rect x="10" y="16" width="1" height="1" fill="rgb(157,108,83)"/>
  <rect x="10" y="17" width="1" height="1" fill="rgb(141,98,76)"/>
  <rect x="10" y="18" width="1" height="1" fill="rgb(50,40,34)" fill-opacity="0.796875"/>
  <rect x="10" y="19" width="1" height="2" fill="rgb(255,255,255)" fill-opacity="0.0078125"/>
  <rect x="11" y="0" width="1" height="3" fill="rgb(255,255,255)" fill-opacity="0.0078125"/>
  <rect x="11" y="3" width="1" height="1" fill="rgb(26,26,26)"/>
  <rect x="11" y="4" width="1" height="1" fill="rgb(183,69,51)"/>
  <rect x="11" y="5" width="1" height="1" fill="rgb(188,76,56)" fill-opacity="0.75"/>
  <rect x="11" y="6" width="1" height="1" fill="rgb(195,88,68)" fill-opacity="0.5078125"/>
  <rect x="11" y="7" width="1" height="1" fill="rgb(255,255,255)" fill-opacity="0.2578125"/>
  <rect x="11" y="8" width="1" height="4" fill="rgb(255,255,255)" fill-opacity="0.0078125"/>
  <rect x="11" y="12" width="1" height="1" fill="rgb(9,23,37)" fill-opacity="0.21875"/>
  <rect x="11" y="13" width="1" height="1" fill="rgb(66,69,77)" fill-opacity="0.9765625"/>
  <rect x="11" y="14" width="1" height="1" fill="rgb(180,148,133)"/>
  <rect x="11" y="15" width="1" height="2" fill="rgb(157,108,83)"/>
  <rect x="11" y="17" width="1" height="1" fill="rgb(70,53,44)" fill-opacity="0.9375"/>
  <rect x="11" y="18" width="1" height="1" fill="rgb(45,35,32)" fill-opacity="0.3203125"/>
  <rect x="11" y="19" width="1" height="2" fill="rgb(255,255,255)" fill-opacity="0.0078125"/>
  <rect x="12" y="0" width="1" height="3" fill="rgb(255,255,255)" fill-opacity="0.0078125"/>
  <rect x="12" y="3" width="1" height="1" fill="rgb(26,26,26)"/>
  <rect x="12" y="4" width="1" height="1" fill="rgb(190,77,57)" fill-opacity="0.75"/>
  <rect x="12" y="5" width="1" height="1" fill="rgb(195,90,70)" fill-opacity="0.5078125"/>
  <rect x="12" y="6" width="1" height="1" fill="rgb(203,100,80)" fill-opacity="0.2578125"/>
  <rect x="12" y="7" width="1" height="4" fill="rgb(255,255,255)" fill-opacity="0.0078125"/>
  <rect x="12" y="11" width="1" height="1" fill="rgb(12,24,39)" fill-opacity="0.3359375"/>
  <rect x="12" y="12" width="1" height="1" fill="rgb(129,136,146)" fill-opacity="0.921875"/>
  <rect x="12" y="13" width="1" height="1" fill="rgb(249,250,252)"/>
  <rect x="12" y="14" width="1" height="1" fill="rgb(119,132,148)"/>
  <rect x="12" y="15" width="1" height="1" fill="rgb(57,48,44)" fill-opacity="0.9296875"/>
  <rect x="12" y="16" width="1" height="1" fill="rgb(49,39,33)" fill-opacity="0.90625"/>
  <rect x="12" y="17" width="1" height="1" fill="rgb(49,40,34)" fill-opacity="0.5546875"/>
  <rect x="12" y="18" width="1" height="3" fill="rgb(255,255,255)" fill-opacity="0.0078125"/>
  <rect x="13" y="0" width="1" height="3" fill="rgb(255,255,255)" fill-opacity="0.0078125"/>
  <rect x="13" y="3" width="1" height="1" fill="rgb(25,25,25)" fill-opacity="0.75"/>
  <rect x="13" y="4" width="1" height="1" fill="rgb(255,255,255)" fill-opacity="0.5078125"/>
  <rect x="13" y="5" width="1" height="1" fill="rgb(255,255,255)" fill-opacity="0.2578125"/>
  <rect x="13" y="6" width="1" height="4" fill="rgb(255,255,255)" fill-opacity="0.0078125"/>
  <rect x="13" y="10" width="1" height="1" fill="rgb(33,8,14)" fill-opacity="0.7421875"/>
  <rect x="13" y="11" width="1" height="1" fill="rgb(173,98,80)" fill-opacity="0.9921875"/>
  <rect x="13" y="12" width="1" height="1" fill="rgb(240,226,224)"/>
  <rect x="13" y="13" width="1" height="1" fill="rgb(215,226,244)"/>
  <rect x="13" y="14" width="1" height="1" fill="rgb(158,181,217)" fill-opacity="0.9375"/>
  <rect x="13" y="15" width="1" height="1" fill="rgb(29,43,66)" fill-opacity="0.84375"/>
  <rect x="13" y="16" width="1" height="5" fill="rgb(255,255,255)" fill-opacity="0.0078125"/>
  <rect x="14" y="0" width="1" height="3" fill="rgb(255,255,255)" fill-opacity="0.0078125"/>
  <rect x="14" y="3" width="1" height="1" fill="rgb(26,26,26)" fill-opacity="0.5078125"/>
  <rect x="14" y="4" width="1" height="1" fill="rgb(255,255,255)" fill-opacity="0.2578125"/>
  <rect x="14" y="5" width="1" height="3" fill="rgb(255,255,255)" fill-opacity="0.0078125"/>
  <rect x="14" y="8" width="1" height="1" fill="rgb(51,0,0)" fill-opacity="0.0234375"/>
  <rect x="14" y="9" width="1" height="1" fill="rgb(50,5,5)" fill-opacity="0.65625"/>
  <rect x="14" y="10" width="1" height="1" fill="rgb(202,119,95)" fill-opacity="0.9765625"/>
  <rect x="14" y="11" width="1" height="1" fill="rgb(251,160,132)"/>
  <rect x="14" y="12" width="1" height="1" fill="rgb(229,75,29)"/>
  <rect x="14" y="13" width="1" height="1" fill="rgb(148,130,147)" fill-opacity="0.9453125"/>
  <rect x="14" y="14" width="1" height="1" fill="rgb(30,46,67)" fill-opacity="0.8828125"/>
  <rect x="14" y="15" width="1" height="1" fill="rgb(9,23,42)" fill-opacity="0.21875"/>
  <rect x="14" y="16" width="1" height="5" fill="rgb(255,255,255)" fill-opacity="0.0078125"/>
  <rect x="15" y="0" width="1" height="3" fill="rgb(255,255,255)" fill-opacity="0.0078125"/>
  <rect x="15" y="3" width="1" height="1" fill="rgb(28,28,28)" fill-opacity="0.2578125"/>
  <rect x="15" y="4" width="1" height="3" fill="rgb(255,255,255)" fill-opacity="0.0078125"/>
  <rect x="15" y="7" width="1" height="1" fill="rgb(51,0,0)" fill-opacity="0.0625"/>
  <rect x="15" y="8" width="1" height="1" fill="rgb(63,13,9)" fill-opacity="0.7578125"/>
  <rect x="15" y="9" width="1" height="1" fill="rgb(226,142,117)" fill-opacity="0.9453125"/>
  <rect x="15" y="10" width="1" height="1" fill="rgb(251,148,117)"/>
  <rect x="15" y="11" width="1" height="1" fill="rgb(247,72,18)"/>
  <rect x="15" y="12" width="1" height="1" fill="rgb(211,55,8)" fill-opacity="0.96875"/>
  <rect x="15" y="13" width="1" height="1" fill="rgb(64,12,9)" fill-opacity="0.984375"/>
  <rect x="15" y="14" width="1" height="1" fill="rgb(9,23,42)" fill-opacity="0.21875"/>
  <rect x="15" y="15" width="1" height="6" fill="rgb(255,255,255)" fill-opacity="0.0078125"/>
  <rect x="16" y="0" width="1" height="6" fill="rgb(255,255,255)" fill-opacity="0.0078125"/>
  <rect x="16" y="6" width="1" height="1" fill="rgb(44,0,0)" fill-opacity="0.1171875"/>
  <rect x="16" y="7" width="1" height="1" fill="rgb(80,26,20)" fill-opacity="0.859375"/>
  <rect x="16" y="8" width="1" height="1" fill="rgb(239,158,134)" fill-opacity="0.953125"/>
  <rect x="16" y="9" width="1" height="1" fill="rgb(251,134,98)"/>
  <rect x="16" y="10" width="1" height="1" fill="rgb(244,66,12)"/>
  <rect x="16" y="11" width="1" height="1" fill="rgb(216,55,7)" fill-opacity="0.953125"/>
  <rect x="16" y="12" width="1" height="1" fill="rgb(71,10,3)" fill-opacity="0.953125"/>
  <rect x="16" y="13" width="1" height="1" fill="rgb(29,10,17)" fill-opacity="0.421875"/>
  <rect x="16" y="14" width="1" height="7" fill="rgb(255,255,255)" fill-opacity="0.0078125"/>
  <rect x="17" y="0" width="1" height="5" fill="rgb(255,255,255)" fill-opacity="0.0078125"/>
  <rect x="17" y="5" width="1" height="1" fill="rgb(42,0,0)" fill-opacity="0.1953125"/>
  <rect x="17" y="6" width="1" height="1" fill="rgb(99,41,34)" fill-opacity="0.921875"/>
  <rect x="17" y="7" width="1" height="1" fill="rgb(247,169,145)" fill-opacity="0.96875"/>
  <rect x="17" y="8" width="1" height="1" fill="rgb(250,118,77)"/>
  <rect x="17" y="9" width="1" height="1" fill="rgb(242,64,9)"/>
  <rect x="17" y="10" width="1" height="1" fill="rgb(215,56,7)" fill-opacity="0.96875"/>
  <rect x="17" y="11" width="1" height="1" fill="rgb(79,12,1)" fill-opacity="0.9296875"/>
  <rect x="17" y="12" width="1" height="1" fill="rgb(43,0,0)" fill-opacity="0.265625"/>
  <rect x="17" y="13" width="1" height="8" fill="rgb(255,255,255)" fill-opacity="0.0078125"/>
  <rect x="18" y="0" width="1" height="5" fill="rgb(255,255,255)" fill-opacity="0.0078125"/>
  <rect x="18" y="5" width="1" height="1" fill="rgb(99,18,2)" fill-opacity="0.8203125"/>
  <rect x="18" y="6" width="1" height="1" fill="rgb(249,154,125)" fill-opacity="0.9765625"/>
  <rect x="18" y="7" width="1" height="1" fill="rgb(249,102,57)"/>
  <rect x="18" y="8" width="1" height="1" fill="rgb(240,64,9)"/>
  <rect x="18" y="9" width="1" height="1" fill="rgb(214,55,7)" fill-opacity="0.9765625"/>
  <rect x="18" y="10" width="1" height="1" fill="rgb(110,22,2)" fill-opacity="0.5859375"/>
  <rect x="18" y="11" width="1" height="1" fill="rgb(43,0,0)" fill-opacity="0.265625"/>
  <rect x="18" y="12" width="1" height="9" fill="rgb(255,255,255)" fill-opacity="0.0078125"/>
  <rect x="19" y="0" width="1" height="21" fill="rgb(255,255,255)" fill-opacity="0.0078125"/>
  <rect x="20" y="0" width="1" height="21" fill="rgb(255,255,255)" fill-opacity="0.0078125"/>
</svg>