<svg xmlns="http://www.w3.org/2000/svg" shape-rendering="crispEdges" width="21" height="21" viewBox="0 0 21 21">
  <rect x="0" y="0" width="1" height="21" fill="rgb(255,255,255)" fill-opacity="0.0078125"/>
  <rect x="1" y="0" width="1" height="21" fill="rgb(255,255,255)" fill-opacity="0.0078125"/>
  <rect x="2" y="0" width="1" height="21" fill="rgb(255,255,255)" fill-opacity="0.0078125"/>
  <rect x="3" y="0" width="1" height="6" fill="rgb(255,255,255)" fill-opacity="0.0078125"/>
  <rect x="3" y="6" width="1" height="2" fill="rgb(0,0,0)" fill-opacity="0.078125"/>
  <rect x="3" y="8" width="1" height="5" fill="rgb(255,255,255)" fill-opacity="0.0078125"/>
  <rect x="3" y="13" width="1" height="2" fill="rgb(0,0,0)" fill-opacity="0.078125"/>
  <rect x="3" y="15" width="1" height="6" fill="rgb(255,255,255)" fill-opacity="0.0078125"/>
  <rect x="4" y="0" width="1" height="5" fill="rgb(255,255,255)" fill-opacity="0.0078125"/>
  <rect x="4" y="5" width="1" height="1" fill="rgb(0,0,0)" fill-opacity="0.515625"/>
  <rect x="4" y="6" width="1" height="2" fill="rgb(0,0,0)" fill-opacity="0.9765625"/>
  <rect x="4" y="8" width="1" height="1" fill="rgb(0,0,0)" fill-opacity="0.515625"/>
  <rect x="4" y="9" width="1" height="3" fill="rgb(255,255,255)" fill-opacity="0.0078125"/>
  <rect x="4" y="12" width="1" height="1" fill="rgb(0,0,0)" fill-opacity="0.515625"/>
  <rect x="4" y="13" width="1" height="2" fill="rgb(0,0,0)" fill-opacity="0.9765625"/>
  <rect x="4" y="15" width="1" height="1" fill="rgb(0,0,0)" fill-opacity="0.515625"/>
  <rect x="4" y="16" width="1" height="5" fill="rgb(255,255,255)" fill-opacity="0.0078125"/>
  <rect x="5" y="0" width="1" height="4" fill="rgb(255,255,255)" fill-opacity="0.0078125"/>
  <rect x="5" y="4" width="1" height="1" fill="rgb(0,0,0)" fill-opacity="0.109375"/>
  <rect x="5" y="5" width="1" height="1" fill="rgb(0,0,0)" fill-opacity="0.9921875"/>
  <rect x="5" y="6" width="1" height="2" fill="rgb(249,249,249)"/>
  <rect x="5" y="8" width="1" height="1" fill="rgb(0,0,0)"/>
  <rect x="5" y="9" width="1" height="1" fill="rgb(22,22,22)" fill-opacity="0.734375"/>
  <rect x="5" y="10" width="1" height="1" fill="rgb(26,26,26)" fill-opacity="0.703125"/>
  <rect x="5" y="11" width="1" height="1" fill="rgb(22,22,22)" fill-opacity="0.734375"/>
  <rect x="5" y="12" width="1" height="1" fill="rgb(0,0,0)"/>
  <rect x="5" y="13" width="1" height="2" fill="rgb(249,249,249)"/>
  <rect x="5" y="15" width="1" height="1" fill="rgb(0,0,0)" fill-opacity="0.9921875"/>
  <rect x="5" y="16" width="1" height="1" fill="rgb(0,0,0)" fill-opacity="0.109375"/>
  <rect x="5" y="17" width="1" height="4" fill="rgb(255,255,255)" fill-opacity="0.0078125"/>
  <rect x="6" y="0" width="1" height="4" fill="rgb(255,255,255)" fill-opacity="0.0078125"/>
  <rect x="6" y="4" width="1" height="1" fill="rgb(0,0,0)" fill-opacity="0.125"/>
  <rect x="6" y="5" width="1" height="1" fill="rgb(0,0,0)" fill-opacity="0.9921875"/>
  <rect x="6" y="6" width="1" height="2" fill="rgb(255,255,255)"/>
  <rect x="6" y="8" width="1" height="1" fill="rgb(1,1,1)"/>
  <rect x="6" y="9" width="1" height="1" fill="rgb(214,214,214)" fill-opacity="0.7421875"/>
  <rect x="6" y="10" width="1" height="1" fill="rgb(252,252,252)" fill-opacity="0.703125"/>
  <rect x="6" y="11" width="1" height="1" fill="rgb(209,209,209)" fill-opacity="0.7421875"/>
  <rect x="6" y="12" width="1" height="1" fill="rgb(1,1,1)"/>
  <rect x="6" y="13" width="1" height="2" fill="rgb(255,255,255)"/>
  <rect x="6" y="15" width="1" height="1" fill="rgb(0,0,0)"/>
  <rect x="6" y="16" width="1" height="1" fill="rgb(0,0,0)" fill-opacity="0.125"/>
  <rect x="6" y="17" width="1" height="4" fill="rgb(255,255,255)" fill-opacity="0.0078125"/>
  <rect x="7" y="0" width="1" height="5" fill="rgb(255,255,255)" fill-opacity="0.0078125"/>
  <rect x="7" y="5" width="1" height="1" fill="rgb(5,5,5)" fill-opacity="0.671875"/>
  <rect x="7" y="6" width="1" height="1" fill="rgb(8,8,8)"/>
  <rect x="7" y="7" width="1" height="1" fill="rgb(9,9,9)"/>
  <rect x="7" y="8" width="1" height="1" fill="rgb(81,81,81)" fill-opacity="0.8671875"/>
  <rect x="7" y="9" width="1" height="3" fill="rgb(201,201,201)" fill-opacity="0.703125"/>
  <rect x="7" y="12" width="1" height="1" fill="rgb(72,72,72)" fill-opacity="0.8671875"/>
  <rect x="7" y="13" width="1" height="2" fill="rgb(9,9,9)"/>
  <rect x="7" y="15" width="1" height="1" fill="rgb(11,11,11)" fill-opacity="0.84375"/>
  <rect x="7" y="16" width="1" height="1" fill="rgb(32,32,32)" fill-opacity="0.0390625"/>
  <rect x="7" y="17" width="1" height="4" fill="rgb(255,255,255)" fill-opacity="0.0078125"/>
  <rect x="8" y="0" width="1" height="5" fill="rgb(255,255,255)" fill-opacity="0.0078125"/>
  <rect x="8" y="5" width="1" height="1" fill="rgb(29,29,29)" fill-opacity="0.515625"/>
  <rect x="8" y="6" width="1" height="1" fill="rgb(189,189,189)" fill-opacity="0.7421875"/>
  <rect x="8" y="7" width="1" height="1" fill="rgb(198,198,198)" fill-opacity="0.7421875"/>
  <rect x="8" y="8" width="1" height="1" fill="rgb(249,249,249)" fill-opacity="0.703125"/>
  <rect x="8" y="9" width="1" height="1" fill="rgb(202,202,202)" fill-opacity="0.703125"/>
  <rect x="8" y="10" width="1" height="3" fill="rgb(201,201,201)" fill-opacity="0.703125"/>
  <rect x="8" y="13" width="1" height="1" fill="rgb(168,168,168)" fill-opacity="0.7421875"/>
  <rect x="8" y="14" width="1" height="1" fill="rgb(190,190,190)" fill-opacity="0.7421875"/>
  <rect x="8" y="15" width="1" height="1" fill="rgb(131,131,131)" fill-opacity="0.703125"/>
  <rect x="8" y="16" width="1" height="1" fill="rgb(26,26,26)" fill-opacity="0.3515625"/>
  <rect x="8" y="17" width="1" height="4" fill="rgb(255,255,255)" fill-opacity="0.0078125"/>
  <rect x="9" y="0" width="1" height="4" fill="rgb(255,255,255)" fill-opacity="0.0078125"/>
  <rect x="9" y="4" width="1" height="1" fill="rgb(28,28,28)" fill-opacity="0.078125"/>
  <rect x="9" y="5" width="1" height="1" fill="rgb(87,87,87)" fill-opacity="0.703125"/>
  <rect x="9" y="6" width="1" height="2" fill="rgb(229,229,229)" fill-opacity="0.703125"/>
  <rect x="9" y="8" width="1" height="1" fill="rgb(249,249,249)" fill-opacity="0.703125"/>
  <rect x="9" y="9" width="1" height="1" fill="rgb(221,221,221)" fill-opacity="0.703125"/>
  <rect x="9" y="10" width="1" height="4" fill="rgb(201,201,201)" fill-opacity="0.703125"/>
  <rect x="9" y="14" width="1" height="1" fill="rgb(207,207,207)" fill-opacity="0.703125"/>
  <rect x="9" y="15" width="1" height="1" fill="rgb(215,215,215)" fill-opacity="0.703125"/>
  <rect x="9" y="16" width="1" height="1" fill="rgb(37,37,37)" fill-opacity="0.671875"/>
  <rect x="9" y="17" width="1" height="1" fill="rgb(17,17,17)" fill-opacity="0.0625"/>
  <rect x="9" y="18" width="1" height="3" fill="rgb(255,255,255)" fill-opacity="0.0078125"/>
  <rect x="10" y="0" width="1" height="4" fill="rgb(255,255,255)" fill-opacity="0.0078125"/>
  <rect x="10" y="4" width="1" height="1" fill="rgb(26,26,26)" fill-opacity="0.3203125"/>
  <rect x="10" y="5" width="1" height="1" fill="rgb(175,175,175)" fill-opacity="0.703125"/>
  <rect x="10" y="6" width="1" height="2" fill="rgb(229,229,229)" fill-opacity="0.703125"/>
  <rect x="10" y="8" width="1" height="1" fill="rgb(239,239,239)" fill-opacity="0.703125"/>
  <rect x="10" y="9" width="1" height="1" fill="rgb(245,245,245)" fill-opacity="0.703125"/>
  <rect x="10" y="10" width="1" height="5" fill="rgb(201,201,201)" fill-opacity="0.703125"/>
  <rect x="10" y="15" width="1" height="1" fill="rgb(217,217,217)" fill-opacity="0.703125"/>
  <rect x="10" y="16" width="1" height="1" fill="rgb(137,137,137)" fill-opacity="0.703125"/>
  <rect x="10" y="17" width="1" height="1" fill="rgb(27,27,27)" fill-opacity="0.4140625"/>
  <rect x="10" y="18" width="1" height="3" fill="rgb(255,255,255)" fill-opacity="0.0078125"/>
  <rect x="11" y="0" width="1" height="4" fill="rgb(255,255,255)" fill-opacity="0.0078125"/>
  <rect x="11" y="4" width="1" height="1" fill="rgb(26,26,26)" fill-opacity="0.5078125"/>
  <rect x="11" y="5" width="1" height="1" fill="rgb(221,221,221)" fill-opacity="0.703125"/>
  <rect x="11" y="6" width="1" height="2" fill="rgb(229,229,229)" fill-opacity="0.703125"/>
  <rect x="11" y="8" width="1" height="1" fill="rgb(231,231,231)" fill-opacity="0.703125"/>
  <rect x="11" y="9" width="1" height="1" fill="rgb(255,255,255)" fill-opacity="0.703125"/>
  <rect x="11" y="10" width="1" height="1" fill="rgb(236,236,236)" fill-opacity="0.703125"/>
  <rect x="11" y="11" width="1" height="1" fill="rgb(227,227,227)" fill-opacity="0.703125"/>
  <rect x="11" y="12" width="1" height="1" fill="rgb(219,219,219)" fill-opacity="0.703125"/>
  <rect x="11" y="13" width="1" height="1" fill="rgb(212,212,212)" fill-opacity="0.703125"/>
  <rect x="11" y="14" width="1" height="2" fill="rgb(205,205,205)" fill-opacity="0.703125"/>
  <rect x="11" y="16" width="1" height="1" fill="rgb(202,202,202)" fill-opacity="0.703125"/>
  <rect x="11" y="17" width="1" height="1" fill="rgb(27,27,27)" fill-opacity="0.6796875"/>
  <rect x="11" y="18" width="1" height="1" fill="rgb(51,51,51)" fill-opacity="0.0234375"/>
  <rect x="11" y="19" width="1" height="2" fill="rgb(255,255,255)" fill-opacity="0.0078125"/>
  <rect x="12" y="0" width="1" height="4" fill="rgb(255,255,255)" fill-opacity="0.0078125"/>
  <rect x="12" y="4" width="1" height="1" fill="rgb(26,26,26)" fill-opacity="0.3203125"/>
  <rect x="12" y="5" width="1" height="1" fill="rgb(172,172,172)" fill-opacity="0.703125"/>
  <rect x="12" y="6" width="1" height="2" fill="rgb(229,229,229)" fill-opacity="0.703125"/>
  <rect x="12" y="8" width="1" height="1" fill="rgb(236,236,236)" fill-opacity="0.703125"/>
  <rect x="12" y="9" width="1" height="1" fill="rgb(212,212,212)" fill-opacity="0.703125"/>
  <rect x="12" y="10" width="1" height="5" fill="rgb(103,103,103)" fill-opacity="0.703125"/>
  <rect x="12" y="15" width="1" height="1" fill="rgb(132,132,132)" fill-opacity="0.703125"/>
  <rect x="12" y="16" width="1" height="1" fill="rgb(88,88,88)" fill-opacity="0.703125"/>
  <rect x="12" y="17" width="1" height="1" fill="rgb(27,27,27)" fill-opacity="0.4140625"/>
  <rect x="12" y="18" width="1" height="3" fill="rgb(255,255,255)" fill-opacity="0.0078125"/>
  <rect x="13" y="0" width="1" height="4" fill="rgb(255,255,255)" fill-opacity="0.0078125"/>
  <rect x="13" y="4" width="1" height="1" fill="rgb(28,28,28)" fill-opacity="0.078125"/>
  <rect x="13" y="5" width="1" height="1" fill="rgb(95,95,95)" fill-opacity="0.703125"/>
  <rect x="13" y="6" width="1" height="2" fill="rgb(229,229,229)" fill-opacity="0.703125"/>
  <rect x="13" y="8" width="1" height="1" fill="rgb(227,227,227)" fill-opacity="0.703125"/>
  <rect x="13" y="9" width="1" height="1" fill="rgb(144,144,144)" fill-opacity="0.703125"/>
  <rect x="13" y="10" width="1" height="4" fill="rgb(103,103,103)" fill-opacity="0.703125"/>
  <rect x="13" y="14" width="1" height="1" fill="rgb(110,110,110)" fill-opacity="0.703125"/>
  <rect x="13" y="15" width="1" height="1" fill="rgb(130,130,130)" fill-opacity="0.703125"/>
  <rect x="13" y="16" width="1" height="1" fill="rgb(33,33,33)" fill-opacity="0.671875"/>
  <rect x="13" y="17" width="1" height="1" fill="rgb(17,17,17)" fill-opacity="0.0625"/>
  <rect x="13" y="18" width="1" height="3" fill="rgb(255,255,255)" fill-opacity="0.0078125"/>
  <rect x="14" y="0" width="1" height="5" fill="rgb(255,255,255)" fill-opacity="0.0078125"/>
  <rect x="14" y="5" width="1" height="1" fill="rgb(29,29,29)" fill-opacity="0.515625"/>
  <rect x="14" y="6" width="1" height="1" fill="rgb(217,217,217)" fill-opacity="0.703125"/>
  <rect x="14" y="7" width="1" height="1" fill="rgb(234,234,234)" fill-opacity="0.703125"/>
  <rect x="14" y="8" width="1" height="1" fill="rgb(199,199,199)" fill-opacity="0.703125"/>
  <rect x="14" y="9" width="1" height="1" fill="rgb(104,104,104)" fill-opacity="0.703125"/>
  <rect x="14" y="10" width="1" height="4" fill="rgb(103,103,103)" fill-opacity="0.703125"/>
  <rect x="14" y="14" width="1" height="1" fill="rgb(127,127,127)" fill-opacity="0.703125"/>
  <rect x="14" y="15" width="1" height="1" fill="rgb(68,68,68)" fill-opacity="0.703125"/>
  <rect x="14" y="16" width="1" height="1" fill="rgb(26,26,26)" fill-opacity="0.3515625"/>
  <rect x="14" y="17" width="1" height="4" fill="rgb(255,255,255)" fill-opacity="0.0078125"/>
  <rect x="15" y="0" width="1" height="5" fill="rgb(255,255,255)" fill-opacity="0.0078125"/>
  <rect x="15" y="5" width="1" height="1" fill="rgb(24,24,24)" fill-opacity="0.2578125"/>
  <rect x="15" y="6" width="1" height="1" fill="rgb(157,157,157)" fill-opacity="0.703125"/>
  <rect x="15" y="7" width="1" height="1" fill="rgb(215,215,215)" fill-opacity="0.703125"/>
  <rect x="15" y="8" width="1" height="1" fill="rgb(142,142,142)" fill-opacity="0.703125"/>
  <rect x="15" y="9" width="1" height="4" fill="rgb(103,103,103)" fill-opacity="0.703125"/>
  <rect x="15" y="13" width="1" height="2" fill="rgb(111,111,111)" fill-opacity="0.703125"/>
  <rect x="15" y="15" width="1" height="1" fill="rgb(28,28,28)" fill-opacity="0.640625"/>
  <rect x="15" y="16" width="1" height="1" fill="rgb(32,32,32)" fill-opacity="0.0390625"/>
  <rect x="15" y="17" width="1" height="4" fill="rgb(255,255,255)" fill-opacity="0.0078125"/>
  <rect x="16" y="0" width="1" height="5" fill="rgb(255,255,255)" fill-opacity="0.0078125"/>
  <rect x="16" y="5" width="1" height="1" fill="rgb(36,36,36)" fill-opacity="0.03125"/>
  <rect x="16" y="6" width="1" height="1" fill="rgb(75,75,75)" fill-opacity="0.6796875"/>
  <rect x="16" y="7" width="1" height="1" fill="rgb(192,192,192)" fill-opacity="0.703125"/>
  <rect x="16" y="8" width="1" height="1" fill="rgb(160,160,160)" fill-opacity="0.703125"/>
  <rect x="16" y="9" width="1" height="1" fill="rgb(151,151,151)" fill-opacity="0.703125"/>
  <rect x="16" y="10" width="1" height="1" fill="rgb(144,144,144)" fill-opacity="0.703125"/>
  <rect x="16" y="11" width="1" height="1" fill="rgb(137,137,137)" fill-opacity="0.703125"/>
  <rect x="16" y="12" width="1" height="1" fill="rgb(130,130,130)" fill-opacity="0.703125"/>
  <rect x="16" y="13" width="1" height="1" fill="rgb(123,123,123)" fill-opacity="0.703125"/>
  <rect x="16" y="14" width="1" height="1" fill="rgb(53,53,53)" fill-opacity="0.703125"/>
  <rect x="16" y="15" width="1" height="1" fill="rgb(28,28,28)" fill-opacity="0.2890625"/>
  <rect x="16" y="16" width="1" height="5" fill="rgb(255,255,255)" fill-opacity="0.0078125"/>
  <rect x="17" y="0" width="1" height="6" fill="rgb(255,255,255)" fill-opacity="0.0078125"/>
  <rect x="17" y="6" width="1" height="1" fill="rgb(25,25,25)" fill-opacity="0.4453125"/>
  <rect x="17" y="7" width="1" height="7" fill="rgb(26,26,26)" fill-opacity="0.703125"/>
  <rect x="17" y="14" width="1" height="1" fill="rgb(25,25,25)" fill-opacity="0.6015625"/>
  <rect x="17" y="15" width="1" height="1" fill="rgb(0,0,0)" fill-opacity="0.015625"/>
  <rect x="17" y="16" width="1" height="5" fill="rgb(255,255,255)" fill-opacity="0.0078125"/>
  <rect x="18" y="0" width="1" height="21" fill="rgb(255,255,255)" fill-opacity="0.0078125"/>
  <rect x="19" y="0" width="1" height="21" fill="rgb(255,255,255)" fill-opacity="0.0078125"/>
  <rect x="20" y="0" width="1" height="21" fill="rgb(255,255,255)" fill-opacity="0.0078125"/>
</svg>