<svg xmlns="http://www.w3.org/2000/svg" shape-rendering="crispEdges" width="21" height="21" viewBox="0 0 21 21">
  <rect x="0" y="0" width="1" height="21" fill="rgb(255,255,255)" fill-opacity="0.0078125"/>
  <rect x="1" y="0" width="1" height="21" fill="rgb(255,255,255)" fill-opacity="0.0078125"/>
  <rect x="2" y="0" width="1" height="21" fill="rgb(255,255,255)" fill-opacity="0.0078125"/>
  <rect x="3" y="0" width="1" height="21" fill="rgb(255,255,255)" fill-opacity="0.0078125"/>
  <rect x="4" y="0" width="1" height="15" fill="rgb(255,255,255)" fill-opacity="0.0078125"/>
  <rect x="4" y="15" width="1" height="1" fill="rgb(32,32,32)" fill-opacity="0.0390625"/>
  <rect x="4" y="16" width="1" height="1" fill="rgb(46,36,32)" fill-opacity="0.859375"/>
  <rect x="4" y="17" width="1" height="1" fill="rgb(46,38,33)" fill-opacity="0.8046875"/>
  <rect x="4" y="18" width="1" height="3" fill="rgb(255,255,255)" fill-opacity="0.0078125"/>
  <rect x="5" y="0" width="1" height="15" fill="rgb(255,255,255)" fill-opacity="0.0078125"/>
  <rect x="5" y="15" width="1" height="1" fill="rgb(44,37,32)" fill-opacity="0.4375"/>
  <rect x="5" y="16" width="1" height="1" fill="rgb(107,81,68)" fill-opacity="0.96875"/>
  <rect x="5" y="17" width="1" height="1" fill="rgb(50,42,36)" fill-opacity="0.9140625"/>
  <rect x="5" y="18" width="1" height="3" fill="rgb(255,255,255)" fill-opacity="0.0078125"/>
  <rect x="6" y="0" width="1" height="14" fill="rgb(255,255,255)" fill-opacity="0.0078125"/>
  <rect x="6" y="14" width="1" height="1" fill="rgb(30,30,30)" fill-opacity="0.0703125"/>
  <rect x="6" y="15" width="1" height="1" fill="rgb(49,40,36)" fill-opacity="0.8984375"/>
  <rect x="6" y="16" width="1" height="1" fill="rgb(169,132,113)"/>
  <rect x="6" y="17" width="1" height="1" fill="rgb(51,42,36)" fill-opacity="0.9140625"/>
  <rect x="6" y="18" width="1" height="3" fill="rgb(255,255,255)" fill-opacity="0.0078125"/>
  <rect x="7" y="0" width="1" height="13" fill="rgb(255,255,255)" fill-opacity="0.0078125"/>
  <rect x="7" y="13" width="1" height="1" fill="rgb(38,35,28)" fill-opacity="0.2890625"/>
  <rect x="7" y="14" width="1" height="1" fill="rgb(53,43,39)" fill-opacity="0.90625"/>
  <rect x="7" y="15" width="1" height="1" fill="rgb(160,134,120)" fill-opacity="0.9921875"/>
  <rect x="7" y="16" width="1" height="1" fill="rgb(173,131,110)"/>
  <rect x="7" y="17" width="1" height="1" fill="rgb(51,40,35)" fill-opacity="0.9140625"/>
  <rect x="7" y="18" width="1" height="3" fill="rgb(255,255,255)" fill-opacity="0.0078125"/>
  <rect x="8" y="0" width="1" height="12" fill="rgb(255,255,255)" fill-opacity="0.0078125"/>
  <rect x="8" y="12" width="1" height="1" fill="rgb(51,39,35)" fill-opacity="0.515625"/>
  <rect x="8" y="13" width="1" height="1" fill="rgb(102,89,81)" fill-opacity="0.9453125"/>
  <rect x="8" y="14" width="1" height="1" fill="rgb(209,188,179)"/>
  <rect x="8" y="15" width="1" height="1" fill="rgb(186,151,134)"/>
  <rect x="8" y="16" width="1" height="1" fill="rgb(157,108,83)"/>
  <rect x="8" y="17" width="1" height="1" fill="rgb(49,39,34)" fill-opacity="0.8828125"/>
  <rect x="8" y="18" width="1" height="3" fill="rgb(255,255,255)" fill-opacity="0.0078125"/>
  <rect x="9" y="0" width="1" height="12" fill="rgb(255,255,255)" fill-opacity="0.0078125"/>
  <rect x="9" y="12" width="1" height="1" fill="rgb(67,58,53)" fill-opacity="0.8984375"/>
  <rect x="9" y="13" width="1" height="1" fill="rgb(225,211,204)"/>
  <rect x="9" y="14" width="1" height="1" fill="rgb(193,162,146)"/>
  <rect x="9" y="15" width="1" height="1" fill="rgb(157,108,83)"/>
  <rect x="9" y="16" width="1" height="1" fill="rgb(138,96,74)"/>
  <rect x="9" y="17" width="1" height="1" fill="rgb(51,41,34)" fill-opacity="0.765625"/>
  <rect x="9" y="18" width="1" height="3" fill="rgb(255,255,255)" fill-opacity="0.0078125"/>
  <rect x="10" y="0" width="1" height="11" fill="rgb(255,255,255)" fill-opacity="0.0078125"/>
  <rect x="10" y="11" width="1" height="1" fill="rgb(16,24,40)" fill-opacity="0.2578125"/>
  <rect x="10" y="12" width="1" height="1" fill="rgb(75,78,83)" fill-opacity="0.9765625"/>
  <rect x="10" y="13" width="1" height="1" fill="rgb(186,156,141)"/>
  <rect x="10" y="14" width="1" height="2" fill="rgb(157,108,83)"/>
  <rect x="10" y="16" width="1" height="1" fill="rgb(68,51,42)" fill-opacity="0.9375"/>
  <rect x="10" y="17" width="1" height="1" fill="rgb(39,35,28)" fill-opacity="0.2890625"/>
  <rect x="10" y="18" width="1" height="3" fill="rgb(255,255,255)" fill-opacity="0.0078125"/>
  <rect x="11" y="0" width="1" height="10" fill="rgb(255,255,255)" fill-opacity="0.0078125"/>
  <rect x="11" y="10" width="1" height="1" fill="rgb(11,23,40)" fill-opacity="0.359375"/>
  <rect x="11" y="11" width="1" height="1" fill="rgb(135,142,151)" fill-opacity="0.921875"/>
  <rect x="11" y="12" width="1" height="1" fill="rgb(249,250,252)"/>
  <rect x="11" y="13" width="1" height="1" fill="rgb(116,126,143)" fill-opacity="0.9921875"/>
  <rect x="11" y="14" width="1" height="1" fill="rgb(56,47,43)" fill-opacity="0.921875"/>
  <rect x="11" y="15" width="1" height="1" fill="rgb(48,39,33)" fill-opacity="0.90625"/>
  <rect x="11" y="16" width="1" height="1" fill="rgb(50,38,35)" fill-opacity="0.5234375"/>
  <rect x="11" y="17" width="1" height="4" fill="rgb(255,255,255)" fill-opacity="0.0078125"/>
  <rect x="12" y="0" width="1" height="8" fill="rgb(255,255,255)" fill-opacity="0.0078125"/>
  <rect x="12" y="8" width="1" height="1" fill="rgb(0,0,0)" fill-opacity="0.0078125"/>
  <rect x="12" y="9" width="1" height="1" fill="rgb(34,8,13)" fill-opacity="0.7578125"/>
  <rect x="12" y="10" width="1" height="1" fill="rgb(178,101,83)" fill-opacity="0.9921875"/>
  <rect x="12" y="11" width="1" height="1" fill="rgb(239,226,224)"/>
  <rect x="12" y="12" width="1" height="1" fill="rgb(213,225,243)"/>
  <rect x="12" y="13" width="1" height="1" fill="rgb(154,179,215)" fill-opacity="0.9375"/>
  <rect x="12" y="14" width="1" height="1" fill="rgb(25,42,63)" fill-opacity="0.8125"/>
  <rect x="12" y="15" width="1" height="6" fill="rgb(255,255,255)" fill-opacity="0.0078125"/>
  <rect x="13" y="0" width="1" height="7" fill="rgb(255,255,255)" fill-opacity="0.0078125"/>
  <rect x="13" y="7" width="1" height="1" fill="rgb(64,0,0)" fill-opacity="0.0234375"/>
  <rect x="13" y="8" width="1" height="1" fill="rgb(53,8,5)" fill-opacity="0.6640625"/>
  <rect x="13" y="9" width="1" height="1" fill="rgb(207,121,99)" fill-opacity="0.984375"/>
  <rect x="13" y="10" width="1" height="1" fill="rgb(251,156,127)"/>
  <rect x="13" y="11" width="1" height="1" fill="rgb(227,71,26)"/>
  <rect x="13" y="12" width="1" height="1" fill="rgb(146,132,147)" fill-opacity="0.9375"/>
  <rect x="13" y="13" width="1" height="1" fill="rgb(26,42,66)" fill-opacity="0.8828125"/>
  <rect x="13" y="14" width="1" height="1" fill="rgb(10,26,41)" fill-opacity="0.203125"/>
  <rect x="13" y="15" width="1" height="6" fill="rgb(255,255,255)" fill-opacity="0.0078125"/>
  <rect x="14" y="0" width="1" height="6" fill="rgb(255,255,255)" fill-opacity="0.0078125"/>
  <rect x="14" y="6" width="1" height="1" fill="rgb(43,0,0)" fill-opacity="0.0546875"/>
  <rect x="14" y="7" width="1" height="1" fill="rgb(72,19,13)" fill-opacity="0.75"/>
  <rect x="14" y="8" width="1" height="1" fill="rgb(231,146,121)" fill-opacity="0.9609375"/>
  <rect x="14" y="9" width="1" height="1" fill="rgb(251,143,110)"/>
  <rect x="14" y="10" width="1" height="1" fill="rgb(246,69,16)"/>
  <rect x="14" y="11" width="1" height="1" fill="rgb(210,56,8)" fill-opacity="0.96875"/>
  <rect x="14" y="12" width="1" height="1" fill="rgb(61,13,10)" fill-opacity="0.984375"/>
  <rect x="14" y="13" width="1" height="1" fill="rgb(10,26,41)" fill-opacity="0.203125"/>
  <rect x="14" y="14" width="1" height="7" fill="rgb(255,255,255)" fill-opacity="0.0078125"/>
  <rect x="15" y="0" width="1" height="5" fill="rgb(255,255,255)" fill-opacity="0.0078125"/>
  <rect x="15" y="5" width="1" height="1" fill="rgb(44,0,0)" fill-opacity="0.09375"/>
  <rect x="15" y="6" width="1" height="1" fill="rgb(92,33,25)" fill-opacity="0.84375"/>
  <rect x="15" y="7" width="1" height="1" fill="rgb(242,160,136)" fill-opacity="0.9765625"/>
  <rect x="15" y="8" width="1" height="1" fill="rgb(250,127,89)"/>
  <rect x="15" y="9" width="1" height="1" fill="rgb(244,66,11)"/>
  <rect x="15" y="10" width="1" height="1" fill="rgb(215,55,7)" fill-opacity="0.96875"/>
  <rect x="15" y="11" width="1" height="1" fill="rgb(72,11,3)" fill-opacity="0.9609375"/>
  <rect x="15" y="12" width="1" height="1" fill="rgb(31,10,16)" fill-opacity="0.390625"/>
  <rect x="15" y="13" width="1" height="8" fill="rgb(255,255,255)" fill-opacity="0.0078125"/>
  <rect x="16" y="0" width="1" height="4" fill="rgb(255,255,255)" fill-opacity="0.0078125"/>
  <rect x="16" y="4" width="1" height="1" fill="rgb(40,0,0)" fill-opacity="0.15625"/>
  <rect x="16" y="5" width="1" height="1" fill="rgb(117,52,41)" fill-opacity="0.9140625"/>
  <rect x="16" y="6" width="1" height="1" fill="rgb(248,168,144)" fill-opacity="0.984375"/>
  <rect x="16" y="7" width="1" height="1" fill="rgb(250,110,67)"/>
  <rect x="16" y="8" width="1" height="1" fill="rgb(242,64,9)"/>
  <rect x="16" y="9" width="1" height="1" fill="rgb(214,56,7)" fill-opacity="0.984375"/>
  <rect x="16" y="10" width="1" height="1" fill="rgb(85,14,1)" fill-opacity="0.9296875"/>
  <rect x="16" y="11" width="1" height="1" fill="rgb(43,0,0)" fill-opacity="0.2421875"/>
  <rect x="16" y="12" width="1" height="9" fill="rgb(255,255,255)" fill-opacity="0.0078125"/>
  <rect x="17" y="0" width="1" height="3" fill="rgb(255,255,255)" fill-opacity="0.0078125"/>
  <rect x="17" y="3" width="1" height="1" fill="rgb(41,0,0)" fill-opacity="0.2265625"/>
  <rect x="17" y="4" width="1" height="1" fill="rgb(144,75,59)" fill-opacity="0.953125"/>
  <rect x="17" y="5" width="1" height="1" fill="rgb(250,168,144)" fill-opacity="0.9921875"/>
  <rect x="17" y="6" width="1" height="1" fill="rgb(249,94,47)"/>
  <rect x="17" y="7" width="1" height="1" fill="rgb(240,63,9)"/>
  <rect x="17" y="8" width="1" height="1" fill="rgb(213,55,7)"/>
  <rect x="17" y="9" width="1" height="1" fill="rgb(97,17,1)" fill-opacity="0.9453125"/>
  <rect x="17" y="10" width="1" height="1" fill="rgb(43,0,0)" fill-opacity="0.2421875"/>
  <rect x="17" y="11" width="1" height="10" fill="rgb(255,255,255)" fill-opacity="0.0078125"/>
  <rect x="18" y="0" width="1" height="3" fill="rgb(255,255,255)" fill-opacity="0.0078125"/>
  <rect x="18" y="3" width="1" height="1" fill="rgb(180,63,31)" fill-opacity="0.71875"/>
  <rect x="18" y="4" width="1" height="1" fill="rgb(251,159,131)"/>
  <rect x="18" y="5" width="1" height="1" fill="rgb(249,83,32)"/>
  <rect x="18" y="6" width="1" height="1" fill="rgb(238,63,9)"/>
  <rect x="18" y="7" width="1" height="1" fill="rgb(211,54,6)"/>
  <rect x="18" y="8" width="1" height="1" fill="rgb(115,24,2)" fill-opacity="0.890625"/>
  <rect x="18" y="9" width="1" height="1" fill="rgb(43,0,0)" fill-opacity="0.2421875"/>
  <rect x="18" y="10" width="1" height="11" fill="rgb(255,255,255)" fill-opacity="0.0078125"/>
  <rect x="19" y="0" width="1" height="21" fill="rgb(255,255,255)" fill-opacity="0.0078125"/>
  <rect x="20" y="0" width="1" height="21" fill="rgb(255,255,255)" fill-opacity="0.0078125"/>
</svg>