<svg xmlns="http://www.w3.org/2000/svg" shape-rendering="crispEdges" width="21" height="21" viewBox="0 0 21 21">
  <rect x="0" y="0" width="1" height="21" fill="rgb(255,255,255)" fill-opacity="0.0078125"/>
  <rect x="1" y="0" width="1" height="21" fill="rgb(255,255,255)" fill-opacity="0.0078125"/>
  <rect x="2" y="0" width="1" height="21" fill="rgb(255,255,255)" fill-opacity="0.0078125"/>
  <rect x="3" y="0" width="1" height="21" fill="rgb(255,255,255)" fill-opacity="0.0078125"/>
  <rect x="4" y="0" width="1" height="21" fill="rgb(255,255,255)" fill-opacity="0.0078125"/>
  <rect x="5" y="0" width="1" height="21" fill="rgb(255,255,255)" fill-opacity="0.0078125"/>
  <rect x="6" y="0" width="1" height="4" fill="rgb(255,255,255)" fill-opacity="0.0078125"/>
  <rect x="6" y="4" width="1" height="1" fill="rgb(25,25,25)" fill-opacity="0.2890625"/>
  <rect x="6" y="5" width="1" height="1" fill="rgb(27,27,27)" fill-opacity="0.7578125"/>
  <rect x="6" y="6" width="1" height="1" fill="rgb(25,25,25)" fill-opacity="0.2890625"/>
  <rect x="6" y="7" width="1" height="8" fill="rgb(255,255,255)" fill-opacity="0.0078125"/>
  <rect x="6" y="15" width="1" height="1" fill="rgb(25,25,25)" fill-opacity="0.2890625"/>
  <rect x="6" y="16" width="1" height="1" fill="rgb(27,27,27)" fill-opacity="0.7578125"/>
  <rect x="6" y="17" width="1" height="1" fill="rgb(25,25,25)" fill-opacity="0.2890625"/>
  <rect x="6" y="18" width="1" height="3" fill="rgb(255,255,255)" fill-opacity="0.0078125"/>
  <rect x="7" y="0" width="1" height="4" fill="rgb(255,255,255)" fill-opacity="0.0078125"/>
  <rect x="7" y="4" width="1" height="1" fill="rgb(27,27,27)" fill-opacity="0.7578125"/>
  <rect x="7" y="5" width="1" height="1" fill="rgb(240,240,240)"/>
  <rect x="7" y="6" width="1" height="1" fill="rgb(26,26,26)" fill-opacity="0.9453125"/>
  <rect x="7" y="7" width="1" height="8" fill="rgb(27,27,27)" fill-opacity="0.7578125"/>
  <rect x="7" y="15" width="1" height="1" fill="rgb(26,26,26)" fill-opacity="0.9453125"/>
  <rect x="7" y="16" width="1" height="1" fill="rgb(225,225,225)"/>
  <rect x="7" y="17" width="1" height="1" fill="rgb(27,27,27)" fill-opacity="0.7578125"/>
  <rect x="7" y="18" width="1" height="3" fill="rgb(255,255,255)" fill-opacity="0.0078125"/>
  <rect x="8" y="0" width="1" height="4" fill="rgb(255,255,255)" fill-opacity="0.0078125"/>
  <rect x="8" y="4" width="1" height="1" fill="rgb(27,27,27)" fill-opacity="0.7578125"/>
  <rect x="8" y="5" width="1" height="1" fill="rgb(228,228,228)"/>
  <rect x="8" y="6" width="1" height="1" fill="rgb(242,242,242)"/>
  <rect x="8" y="7" width="1" height="1" fill="rgb(241,241,241)"/>
  <rect x="8" y="8" width="1" height="1" fill="rgb(240,240,240)"/>
  <rect x="8" y="9" width="1" height="1" fill="rgb(239,239,239)"/>
  <rect x="8" y="10" width="1" height="1" fill="rgb(238,238,238)"/>
  <rect x="8" y="11" width="1" height="1" fill="rgb(237,237,237)"/>
  <rect x="8" y="12" width="1" height="1" fill="rgb(236,236,236)"/>
  <rect x="8" y="13" width="1" height="1" fill="rgb(235,235,235)"/>
  <rect x="8" y="14" width="1" height="2" fill="rgb(233,233,233)"/>
  <rect x="8" y="16" width="1" height="1" fill="rgb(202,202,202)"/>
  <rect x="8" y="17" width="1" height="1" fill="rgb(27,27,27)" fill-opacity="0.7578125"/>
  <rect x="8" y="18" width="1" height="3" fill="rgb(255,255,255)" fill-opacity="0.0078125"/>
  <rect x="9" y="0" width="1" height="4" fill="rgb(255,255,255)" fill-opacity="0.0078125"/>
  <rect x="9" y="4" width="1" height="1" fill="rgb(27,27,27)" fill-opacity="0.7578125"/>
  <rect x="9" y="5" width="1" height="1" fill="rgb(227,227,227)"/>
  <rect x="9" y="6" width="1" height="1" fill="rgb(225,225,225)"/>
  <rect x="9" y="7" width="1" height="1" fill="rgb(222,222,222)"/>
  <rect x="9" y="8" width="1" height="1" fill="rgb(220,220,220)"/>
  <rect x="9" y="9" width="1" height="1" fill="rgb(217,217,217)"/>
  <rect x="9" y="10" width="1" height="1" fill="rgb(215,215,215)"/>
  <rect x="9" y="11" width="1" height="1" fill="rgb(213,213,213)"/>
  <rect x="9" y="12" width="1" height="1" fill="rgb(210,210,210)"/>
  <rect x="9" y="13" width="1" height="1" fill="rgb(208,208,208)"/>
  <rect x="9" y="14" width="1" height="1" fill="rgb(205,205,205)"/>
  <rect x="9" y="15" width="1" height="1" fill="rgb(203,203,203)"/>
  <rect x="9" y="16" width="1" height="1" fill="rgb(201,201,201)"/>
  <rect x="9" y="17" width="1" height="1" fill="rgb(27,27,27)" fill-opacity="0.7578125"/>
  <rect x="9" y="18" width="1" height="3" fill="rgb(255,255,255)" fill-opacity="0.0078125"/>
  <rect x="10" y="0" width="1" height="4" fill="rgb(255,255,255)" fill-opacity="0.0078125"/>
  <rect x="10" y="4" width="1" height="1" fill="rgb(27,27,27)" fill-opacity="0.7578125"/>
  <rect x="10" y="5" width="1" height="1" fill="rgb(226,226,226)"/>
  <rect x="10" y="6" width="1" height="1" fill="rgb(26,26,26)" fill-opacity="0.9453125"/>
  <rect x="10" y="7" width="1" height="3" fill="rgb(27,27,27)" fill-opacity="0.7578125"/>
  <rect x="10" y="10" width="1" height="1" fill="rgb(26,26,26)" fill-opacity="0.9453125"/>
  <rect x="10" y="11" width="1" height="1" fill="rgb(212,212,212)"/>
  <rect x="10" y="12" width="1" height="1" fill="rgb(26,26,26)" fill-opacity="0.9453125"/>
  <rect x="10" y="13" width="1" height="2" fill="rgb(27,27,27)" fill-opacity="0.7578125"/>
  <rect x="10" y="15" width="1" height="1" fill="rgb(26,26,26)" fill-opacity="0.9453125"/>
  <rect x="10" y="16" width="1" height="1" fill="rgb(200,200,200)"/>
  <rect x="10" y="17" width="1" height="1" fill="rgb(27,27,27)" fill-opacity="0.7578125"/>
  <rect x="10" y="18" width="1" height="3" fill="rgb(255,255,255)" fill-opacity="0.0078125"/>
  <rect x="11" y="0" width="1" height="4" fill="rgb(255,255,255)" fill-opacity="0.0078125"/>
  <rect x="11" y="4" width="1" height="1" fill="rgb(27,27,27)" fill-opacity="0.7578125"/>
  <rect x="11" y="5" width="1" height="1" fill="rgb(225,225,225)"/>
  <rect x="11" y="6" width="1" height="1" fill="rgb(27,27,27)" fill-opacity="0.7578125"/>
  <rect x="11" y="7" width="1" height="3" fill="rgb(255,255,255)" fill-opacity="0.0078125"/>
  <rect x="11" y="10" width="1" height="1" fill="rgb(27,27,27)" fill-opacity="0.7578125"/>
  <rect x="11" y="11" width="1" height="1" fill="rgb(211,211,211)"/>
  <rect x="11" y="12" width="1" height="1" fill="rgb(27,27,27)" fill-opacity="0.7578125"/>
  <rect x="11" y="13" width="1" height="2" fill="rgb(255,255,255)" fill-opacity="0.0078125"/>
  <rect x="11" y="15" width="1" height="1" fill="rgb(25,25,25)" fill-opacity="0.2890625"/>
  <rect x="11" y="16" width="1" height="1" fill="rgb(27,27,27)" fill-opacity="0.7578125"/>
  <rect x="11" y="17" width="1" height="1" fill="rgb(25,25,25)" fill-opacity="0.2890625"/>
  <rect x="11" y="18" width="1" height="3" fill="rgb(255,255,255)" fill-opacity="0.0078125"/>
  <rect x="12" y="0" width="1" height="4" fill="rgb(255,255,255)" fill-opacity="0.0078125"/>
  <rect x="12" y="4" width="1" height="1" fill="rgb(27,27,27)" fill-opacity="0.7578125"/>
  <rect x="12" y="5" width="1" height="1" fill="rgb(224,224,224)"/>
  <rect x="12" y="6" width="1" height="1" fill="rgb(27,27,27)" fill-opacity="0.7578125"/>
  <rect x="12" y="7" width="1" height="2" fill="rgb(255,255,255)" fill-opacity="0.0078125"/>
  <rect x="12" y="9" width="1" height="1" fill="rgb(25,25,25)" fill-opacity="0.2890625"/>
  <rect x="12" y="10" width="1" height="1" fill="rgb(26,26,26)" fill-opacity="0.9453125"/>
  <rect x="12" y="11" width="1" height="1" fill="rgb(210,210,210)"/>
  <rect x="12" y="12" width="1" height="1" fill="rgb(26,26,26)" fill-opacity="0.9453125"/>
  <rect x="12" y="13" width="1" height="1" fill="rgb(25,25,25)" fill-opacity="0.2890625"/>
  <rect x="12" y="14" width="1" height="7" fill="rgb(255,255,255)" fill-opacity="0.0078125"/>
  <rect x="13" y="0" width="1" height="4" fill="rgb(255,255,255)" fill-opacity="0.0078125"/>
  <rect x="13" y="4" width="1" height="1" fill="rgb(27,27,27)" fill-opacity="0.7578125"/>
  <rect x="13" y="5" width="1" height="1" fill="rgb(223,223,223)"/>
  <rect x="13" y="6" width="1" height="1" fill="rgb(27,27,27)" fill-opacity="0.7578125"/>
  <rect x="13" y="7" width="1" height="2" fill="rgb(255,255,255)" fill-opacity="0.0078125"/>
  <rect x="13" y="9" width="1" height="1" fill="rgb(27,27,27)" fill-opacity="0.7578125"/>
  <rect x="13" y="10" width="1" height="1" fill="rgb(230,230,230)"/>
  <rect x="13" y="11" width="1" height="1" fill="rgb(209,209,209)"/>
  <rect x="13" y="12" width="1" height="1" fill="rgb(227,227,227)"/>
  <rect x="13" y="13" width="1" height="1" fill="rgb(27,27,27)" fill-opacity="0.7578125"/>
  <rect x="13" y="14" width="1" height="7" fill="rgb(255,255,255)" fill-opacity="0.0078125"/>
  <rect x="14" y="0" width="1" height="4" fill="rgb(255,255,255)" fill-opacity="0.0078125"/>
  <rect x="14" y="4" width="1" height="1" fill="rgb(27,27,27)" fill-opacity="0.7578125"/>
  <rect x="14" y="5" width="1" height="1" fill="rgb(222,222,222)"/>
  <rect x="14" y="6" width="1" height="1" fill="rgb(26,26,26)" fill-opacity="0.9453125"/>
  <rect x="14" y="7" width="1" height="1" fill="rgb(25,25,25)" fill-opacity="0.2890625"/>
  <rect x="14" y="8" width="1" height="1" fill="rgb(255,255,255)" fill-opacity="0.0078125"/>
  <rect x="14" y="9" width="1" height="1" fill="rgb(25,25,25)" fill-opacity="0.2890625"/>
  <rect x="14" y="10" width="1" height="3" fill="rgb(27,27,27)" fill-opacity="0.7578125"/>
  <rect x="14" y="13" width="1" height="1" fill="rgb(25,25,25)" fill-opacity="0.2890625"/>
  <rect x="14" y="14" width="1" height="7" fill="rgb(255,255,255)" fill-opacity="0.0078125"/>
  <rect x="15" y="0" width="1" height="4" fill="rgb(255,255,255)" fill-opacity="0.0078125"/>
  <rect x="15" y="4" width="1" height="1" fill="rgb(27,27,27)" fill-opacity="0.7578125"/>
  <rect x="15" y="5" width="1" height="1" fill="rgb(221,221,221)"/>
  <rect x="15" y="6" width="1" height="1" fill="rgb(234,234,234)"/>
  <rect x="15" y="7" width="1" height="1" fill="rgb(27,27,27)" fill-opacity="0.7578125"/>
  <rect x="15" y="8" width="1" height="13" fill="rgb(255,255,255)" fill-opacity="0.0078125"/>
  <rect x="16" y="0" width="1" height="4" fill="rgb(255,255,255)" fill-opacity="0.0078125"/>
  <rect x="16" y="4" width="1" height="1" fill="rgb(25,25,25)" fill-opacity="0.2890625"/>
  <rect x="16" y="5" width="1" height="2" fill="rgb(27,27,27)" fill-opacity="0.7578125"/>
  <rect x="16" y="7" width="1" height="1" fill="rgb(25,25,25)" fill-opacity="0.2890625"/>
  <rect x="16" y="8" width="1" height="13" fill="rgb(255,255,255)" fill-opacity="0.0078125"/>
  <rect x="17" y="0" width="1" height="21" fill="rgb(255,255,255)" fill-opacity="0.0078125"/>
  <rect x="18" y="0" width="1" height="21" fill="rgb(255,255,255)" fill-opacity="0.0078125"/>
  <rect x="19" y="0" width="1" height="21" fill="rgb(255,255,255)" fill-opacity="0.0078125"/>
  <rect x="20" y="0" width="1" height="21" fill="rgb(255,255,255)" fill-opacity="0.0078125"/>
</svg>