<svg xmlns="http://www.w3.org/2000/svg" shape-rendering="crispEdges" width="21" height="21" viewBox="0 0 21 21">
  <rect x="0" y="0" width="1" height="21" fill="rgb(255,255,255)" fill-opacity="0.0078125"/>
  <rect x="1" y="0" width="1" height="21" fill="rgb(255,255,255)" fill-opacity="0.0078125"/>
  <rect x="2" y="0" width="1" height="21" fill="rgb(255,255,255)" fill-opacity="0.0078125"/>
  <rect x="3" y="0" width="1" height="21" fill="rgb(255,255,255)" fill-opacity="0.0078125"/>
  <rect x="4" y="0" width="1" height="5" fill="rgb(255,255,255)" fill-opacity="0.0078125"/>
  <rect x="4" y="5" width="1" height="1" fill="rgb(70,36,0)" fill-opacity="0.0078125"/>
  <rect x="4" y="6" width="1" height="1" fill="rgb(70,35,0)" fill-opacity="0.0078125"/>
  <rect x="4" y="7" width="1" height="1" fill="rgb(69,37,6)" fill-opacity="0.0078125"/>
  <rect x="4" y="8" width="1" height="1" fill="rgb(73,36,0)" fill-opacity="0.0078125"/>
  <rect x="4" y="9" width="1" height="12" fill="rgb(255,255,255)" fill-opacity="0.0078125"/>
  <rect x="5" y="0" width="1" height="5" fill="rgb(255,255,255)" fill-opacity="0.0078125"/>
  <rect x="5" y="5" width="1" height="1" fill="rgb(70,35,0)" fill-opacity="0.0078125"/>
  <rect x="5" y="6" width="1" height="1" fill="rgb(106,85,4)" fill-opacity="0.734375"/>
  <rect x="5" y="7" width="1" height="7" fill="rgb(130,104,0)"/>
  <rect x="5" y="14" width="1" height="1" fill="rgb(123,99,4)" fill-opacity="0.9140625"/>
  <rect x="5" y="15" width="1" height="1" fill="rgb(64,64,0)" fill-opacity="0.0234375"/>
  <rect x="5" y="16" width="1" height="5" fill="rgb(255,255,255)" fill-opacity="0.0078125"/>
  <rect x="6" y="0" width="1" height="5" fill="rgb(255,255,255)" fill-opacity="0.0078125"/>
  <rect x="6" y="5" width="1" height="1" fill="rgb(0,0,0)" fill-opacity="0.03125"/>
  <rect x="6" y="6" width="1" height="1" fill="rgb(98,86,34)" fill-opacity="0.734375"/>
  <rect x="6" y="7" width="1" height="1" fill="rgb(154,126,24)" fill-opacity="0.984375"/>
  <rect x="6" y="8" width="1" height="6" fill="rgb(255,211,105)"/>
  <rect x="6" y="14" width="1" height="1" fill="rgb(150,122,21)" fill-opacity="0.984375"/>
  <rect x="6" y="15" width="1" height="1" fill="rgb(91,73,0)" fill-opacity="0.5234375"/>
  <rect x="6" y="16" width="1" height="5" fill="rgb(255,255,255)" fill-opacity="0.0078125"/>
  <rect x="7" y="0" width="1" height="5" fill="rgb(255,255,255)" fill-opacity="0.0078125"/>
  <rect x="7" y="5" width="1" height="1" fill="rgb(0,0,0)" fill-opacity="0.21875"/>
  <rect x="7" y="6" width="1" height="1" fill="rgb(163,163,160)" fill-opacity="0.609375"/>
  <rect x="7" y="7" width="1" height="1" fill="rgb(139,114,14)" fill-opacity="0.96875"/>
  <rect x="7" y="8" width="1" height="1" fill="rgb(224,185,79)"/>
  <rect x="7" y="9" width="1" height="5" fill="rgb(255,211,105)"/>
  <rect x="7" y="14" width="1" height="1" fill="rgb(224,185,79)"/>
  <rect x="7" y="15" width="1" height="1" fill="rgb(130,104,4)" fill-opacity="0.9609375"/>
  <rect x="7" y="16" width="1" height="1" fill="rgb(73,55,0)" fill-opacity="0.0625"/>
  <rect x="7" y="17" width="1" height="4" fill="rgb(255,255,255)" fill-opacity="0.0078125"/>
  <rect x="8" y="0" width="1" height="5" fill="rgb(255,255,255)" fill-opacity="0.0078125"/>
  <rect x="8" y="5" width="1" height="1" fill="rgb(2,2,2)" fill-opacity="0.4375"/>
  <rect x="8" y="6" width="1" height="1" fill="rgb(222,222,222)" fill-opacity="0.6015625"/>
  <rect x="8" y="7" width="1" height="1" fill="rgb(173,158,99)" fill-opacity="0.78125"/>
  <rect x="8" y="8" width="1" height="1" fill="rgb(165,134,33)" fill-opacity="0.984375"/>
  <rect x="8" y="9" width="1" height="6" fill="rgb(255,211,105)"/>
  <rect x="8" y="15" width="1" height="1" fill="rgb(162,132,30)" fill-opacity="0.984375"/>
  <rect x="8" y="16" width="1" height="1" fill="rgb(98,79,2)" fill-opacity="0.625"/>
  <rect x="8" y="17" width="1" height="4" fill="rgb(255,255,255)" fill-opacity="0.0078125"/>
  <rect x="9" y="0" width="1" height="4" fill="rgb(255,255,255)" fill-opacity="0.0078125"/>
  <rect x="9" y="4" width="1" height="1" fill="rgb(0,0,0)" fill-opacity="0.0625"/>
  <rect x="9" y="5" width="1" height="1" fill="rgb(69,69,69)" fill-opacity="0.6015625"/>
  <rect x="9" y="6" width="1" height="1" fill="rgb(230,230,230)" fill-opacity="0.6015625"/>
  <rect x="9" y="7" width="1" height="1" fill="rgb(223,221,213)" fill-opacity="0.625"/>
  <rect x="9" y="8" width="1" height="1" fill="rgb(135,110,8)" fill-opacity="0.984375"/>
  <rect x="9" y="9" width="1" height="1" fill="rgb(234,193,88)"/>
  <rect x="9" y="10" width="1" height="5" fill="rgb(255,211,105)"/>
  <rect x="9" y="15" width="1" height="1" fill="rgb(234,193,87)"/>
  <rect x="9" y="16" width="1" height="1" fill="rgb(131,105,4)" fill-opacity="0.984375"/>
  <rect x="9" y="17" width="1" height="1" fill="rgb(73,64,0)" fill-opacity="0.1171875"/>
  <rect x="9" y="18" width="1" height="3" fill="rgb(255,255,255)" fill-opacity="0.0078125"/>
  <rect x="10" y="0" width="1" height="4" fill="rgb(255,255,255)" fill-opacity="0.0078125"/>
  <rect x="10" y="4" width="1" height="1" fill="rgb(0,0,0)" fill-opacity="0.2734375"/>
  <rect x="10" y="5" width="1" height="1" fill="rgb(168,168,168)" fill-opacity="0.6015625"/>
  <rect x="10" y="6" width="1" height="2" fill="rgb(230,230,230)" fill-opacity="0.6015625"/>
  <rect x="10" y="8" width="1" height="1" fill="rgb(165,146,78)" fill-opacity="0.8203125"/>
  <rect x="10" y="9" width="1" height="1" fill="rgb(176,145,41)" fill-opacity="0.9921875"/>
  <rect x="10" y="10" width="1" height="6" fill="rgb(255,211,105)"/>
  <rect x="10" y="16" width="1" height="1" fill="rgb(175,143,41)" fill-opacity="0.984375"/>
  <rect x="10" y="17" width="1" height="1" fill="rgb(106,85,3)" fill-opacity="0.7109375"/>
  <rect x="10" y="18" width="1" height="1" fill="rgb(70,33,0)" fill-opacity="0.0078125"/>
  <rect x="10" y="19" width="1" height="2" fill="rgb(255,255,255)" fill-opacity="0.0078125"/>
  <rect x="11" y="0" width="1" height="4" fill="rgb(255,255,255)" fill-opacity="0.0078125"/>
  <rect x="11" y="4" width="1" height="1" fill="rgb(0,0,0)" fill-opacity="0.4375"/>
  <rect x="11" y="5" width="1" height="1" fill="rgb(220,220,220)" fill-opacity="0.6015625"/>
  <rect x="11" y="6" width="1" height="2" fill="rgb(230,230,230)" fill-opacity="0.6015625"/>
  <rect x="11" y="8" width="1" height="1" fill="rgb(214,211,196)" fill-opacity="0.640625"/>
  <rect x="11" y="9" width="1" height="1" fill="rgb(136,110,9)" fill-opacity="0.984375"/>
  <rect x="11" y="10" width="1" height="7" fill="rgb(130,104,0)"/>
  <rect x="11" y="17" width="1" height="1" fill="rgb(120,96,5)" fill-opacity="0.921875"/>
  <rect x="11" y="18" width="1" height="1" fill="rgb(0,0,0)" fill-opacity="0.0234375"/>
  <rect x="11" y="19" width="1" height="2" fill="rgb(255,255,255)" fill-opacity="0.0078125"/>
  <rect x="12" y="0" width="1" height="4" fill="rgb(255,255,255)" fill-opacity="0.0078125"/>
  <rect x="12" y="4" width="1" height="1" fill="rgb(0,0,0)" fill-opacity="0.2734375"/>
  <rect x="12" y="5" width="1" height="1" fill="rgb(168,168,168)" fill-opacity="0.6015625"/>
  <rect x="12" y="6" width="1" height="2" fill="rgb(230,230,230)" fill-opacity="0.6015625"/>
  <rect x="12" y="8" width="1" height="1" fill="rgb(227,227,227)" fill-opacity="0.6015625"/>
  <rect x="12" y="9" width="1" height="1" fill="rgb(112,112,112)" fill-opacity="0.6015625"/>
  <rect x="12" y="10" width="1" height="5" fill="rgb(102,102,102)" fill-opacity="0.6015625"/>
  <rect x="12" y="15" width="1" height="1" fill="rgb(132,132,132)" fill-opacity="0.6015625"/>
  <rect x="12" y="16" width="1" height="1" fill="rgb(77,77,77)" fill-opacity="0.6015625"/>
  <rect x="12" y="17" width="1" height="1" fill="rgb(0,0,0)" fill-opacity="0.3515625"/>
  <rect x="12" y="18" width="1" height="1" fill="rgb(0,0,0)" fill-opacity="0.0078125"/>
  <rect x="12" y="19" width="1" height="2" fill="rgb(255,255,255)" fill-opacity="0.0078125"/>
  <rect x="13" y="0" width="1" height="4" fill="rgb(255,255,255)" fill-opacity="0.0078125"/>
  <rect x="13" y="4" width="1" height="1" fill="rgb(0,0,0)" fill-opacity="0.0625"/>
  <rect x="13" y="5" width="1" height="1" fill="rgb(79,79,79)" fill-opacity="0.6015625"/>
  <rect x="13" y="6" width="1" height="2" fill="rgb(230,230,230)" fill-opacity="0.6015625"/>
  <rect x="13" y="8" width="1" height="1" fill="rgb(178,178,178)" fill-opacity="0.6015625"/>
  <rect x="13" y="9" width="1" height="5" fill="rgb(102,102,102)" fill-opacity="0.6015625"/>
  <rect x="13" y="14" width="1" height="1" fill="rgb(110,110,110)" fill-opacity="0.6015625"/>
  <rect x="13" y="15" width="1" height="1" fill="rgb(128,128,128)" fill-opacity="0.6015625"/>
  <rect x="13" y="16" width="1" height="1" fill="rgb(7,7,7)" fill-opacity="0.578125"/>
  <rect x="13" y="17" width="1" height="1" fill="rgb(0,0,0)" fill-opacity="0.0546875"/>
  <rect x="13" y="18" width="1" height="3" fill="rgb(255,255,255)" fill-opacity="0.0078125"/>
  <rect x="14" y="0" width="1" height="5" fill="rgb(255,255,255)" fill-opacity="0.0078125"/>
  <rect x="14" y="5" width="1" height="1" fill="rgb(2,2,2)" fill-opacity="0.4375"/>
  <rect x="14" y="6" width="1" height="1" fill="rgb(217,217,217)" fill-opacity="0.6015625"/>
  <rect x="14" y="7" width="1" height="1" fill="rgb(228,228,228)" fill-opacity="0.6015625"/>
  <rect x="14" y="8" width="1" height="1" fill="rgb(120,120,120)" fill-opacity="0.6015625"/>
  <rect x="14" y="9" width="1" height="5" fill="rgb(102,102,102)" fill-opacity="0.6015625"/>
  <rect x="14" y="14" width="1" height="1" fill="rgb(127,127,127)" fill-opacity="0.6015625"/>
  <rect x="14" y="15" width="1" height="1" fill="rgb(53,53,53)" fill-opacity="0.6015625"/>
  <rect x="14" y="16" width="1" height="1" fill="rgb(0,0,0)" fill-opacity="0.3046875"/>
  <rect x="14" y="17" width="1" height="4" fill="rgb(255,255,255)" fill-opacity="0.0078125"/>
  <rect x="15" y="0" width="1" height="5" fill="rgb(255,255,255)" fill-opacity="0.0078125"/>
  <rect x="15" y="5" width="1" height="1" fill="rgb(0,0,0)" fill-opacity="0.21875"/>
  <rect x="15" y="6" width="1" height="1" fill="rgb(150,150,150)" fill-opacity="0.6015625"/>
  <rect x="15" y="7" width="1" height="1" fill="rgb(188,188,188)" fill-opacity="0.6015625"/>
  <rect x="15" y="8" width="1" height="5" fill="rgb(102,102,102)" fill-opacity="0.6015625"/>
  <rect x="15" y="13" width="1" height="1" fill="rgb(112,112,112)" fill-opacity="0.6015625"/>
  <rect x="15" y="14" width="1" height="1" fill="rgb(107,107,107)" fill-opacity="0.6015625"/>
  <rect x="15" y="15" width="1" height="1" fill="rgb(2,2,2)" fill-opacity="0.546875"/>
  <rect x="15" y="16" width="1" height="1" fill="rgb(0,0,0)" fill-opacity="0.03125"/>
  <rect x="15" y="17" width="1" height="4" fill="rgb(255,255,255)" fill-opacity="0.0078125"/>
  <rect x="16" y="0" width="1" height="5" fill="rgb(255,255,255)" fill-opacity="0.0078125"/>
  <rect x="16" y="5" width="1" height="1" fill="rgb(0,0,0)" fill-opacity="0.03125"/>
  <rect x="16" y="6" width="1" height="1" fill="rgb(59,59,59)" fill-opacity="0.5859375"/>
  <rect x="16" y="7" width="1" height="1" fill="rgb(182,182,182)" fill-opacity="0.6015625"/>
  <rect x="16" y="8" width="1" height="1" fill="rgb(157,157,157)" fill-opacity="0.6015625"/>
  <rect x="16" y="9" width="1" height="1" fill="rgb(152,152,152)" fill-opacity="0.6015625"/>
  <rect x="16" y="10" width="1" height="1" fill="rgb(143,143,143)" fill-opacity="0.6015625"/>
  <rect x="16" y="11" width="1" height="1" fill="rgb(137,137,137)" fill-opacity="0.6015625"/>
  <rect x="16" y="12" width="1" height="1" fill="rgb(130,130,130)" fill-opacity="0.6015625"/>
  <rect x="16" y="13" width="1" height="1" fill="rgb(122,122,122)" fill-opacity="0.6015625"/>
  <rect x="16" y="14" width="1" height="1" fill="rgb(33,33,33)" fill-opacity="0.6015625"/>
  <rect x="16" y="15" width="1" height="1" fill="rgb(0,0,0)" fill-opacity="0.25"/>
  <rect x="16" y="16" width="1" height="5" fill="rgb(255,255,255)" fill-opacity="0.0078125"/>
  <rect x="17" y="0" width="1" height="5" fill="rgb(255,255,255)" fill-opacity="0.0078125"/>
  <rect x="17" y="5" width="1" height="1" fill="rgb(70,36,0)" fill-opacity="0.0078125"/>
  <rect x="17" y="6" width="1" height="1" fill="rgb(0,0,0)" fill-opacity="0.3828125"/>
  <rect x="17" y="7" width="1" height="7" fill="rgb(0,0,0)" fill-opacity="0.6015625"/>
  <rect x="17" y="14" width="1" height="1" fill="rgb(0,0,0)" fill-opacity="0.515625"/>
  <rect x="17" y="15" width="1" height="1" fill="rgb(0,0,0)" fill-opacity="0.015625"/>
  <rect x="17" y="16" width="1" height="5" fill="rgb(255,255,255)" fill-opacity="0.0078125"/>
  <rect x="18" y="0" width="1" height="21" fill="rgb(255,255,255)" fill-opacity="0.0078125"/>
  <rect x="19" y="0" width="1" height="21" fill="rgb(255,255,255)" fill-opacity="0.0078125"/>
  <rect x="20" y="0" width="1" height="21" fill="rgb(255,255,255)" fill-opacity="0.0078125"/>
</svg>