<svg xmlns="http://www.w3.org/2000/svg" shape-rendering="crispEdges" width="21" height="21" viewBox="0 0 21 21">
  <rect x="0" y="0" width="1" height="21" fill="rgb(255,255,255)" fill-opacity="0.0078125"/>
  <rect x="1" y="0" width="1" height="21" fill="rgb(255,255,255)" fill-opacity="0.0078125"/>
  <rect x="2" y="0" width="1" height="21" fill="rgb(255,255,255)" fill-opacity="0.0078125"/>
  <rect x="3" y="0" width="1" height="10" fill="rgb(255,255,255)" fill-opacity="0.0078125"/>
  <rect x="3" y="10" width="1" height="1" fill="rgb(0,0,0)" fill-opacity="0.0234375"/>
  <rect x="3" y="11" width="1" height="10" fill="rgb(255,255,255)" fill-opacity="0.0078125"/>
  <rect x="4" y="0" width="1" height="9" fill="rgb(255,255,255)" fill-opacity="0.0078125"/>
  <rect x="4" y="9" width="1" height="1" fill="rgb(6,6,6)" fill-opacity="0.5234375"/>
  <rect x="4" y="10" width="1" height="1" fill="rgb(80,80,80)" fill-opacity="0.984375"/>
  <rect x="4" y="11" width="1" height="1" fill="rgb(8,8,8)" fill-opacity="0.609375"/>
  <rect x="4" y="12" width="1" height="9" fill="rgb(255,255,255)" fill-opacity="0.0078125"/>
  <rect x="5" y="0" width="1" height="8" fill="rgb(255,255,255)" fill-opacity="0.0078125"/>
  <rect x="5" y="8" width="1" height="1" fill="rgb(0,0,0)" fill-opacity="0.0390625"/>
  <rect x="5" y="9" width="1" height="1" fill="rgb(74,74,74)" fill-opacity="0.984375"/>
  <rect x="5" y="10" width="1" height="1" fill="rgb(248,248,248)"/>
  <rect x="5" y="11" width="1" height="1" fill="rgb(102,102,102)"/>
  <rect x="5" y="12" width="1" height="1" fill="rgb(0,0,0)" fill-opacity="0.125"/>
  <rect x="5" y="13" width="1" height="8" fill="rgb(255,255,255)" fill-opacity="0.0078125"/>
  <rect x="6" y="0" width="1" height="8" fill="rgb(255,255,255)" fill-opacity="0.0078125"/>
  <rect x="6" y="8" width="1" height="1" fill="rgb(0,0,0)" fill-opacity="0.203125"/>
  <rect x="6" y="9" width="1" height="1" fill="rgb(73,73,73)"/>
  <rect x="6" y="10" width="1" height="1" fill="rgb(206,206,206)"/>
  <rect x="6" y="11" width="1" height="1" fill="rgb(92,92,92)"/>
  <rect x="6" y="12" width="1" height="1" fill="rgb(0,0,0)" fill-opacity="0.296875"/>
  <rect x="6" y="13" width="1" height="8" fill="rgb(255,255,255)" fill-opacity="0.0078125"/>
  <rect x="7" y="0" width="1" height="6" fill="rgb(255,255,255)" fill-opacity="0.0078125"/>
  <rect x="7" y="6" width="1" height="1" fill="rgb(0,0,0)" fill-opacity="0.015625"/>
  <rect x="7" y="7" width="1" height="1" fill="rgb(0,0,0)" fill-opacity="0.5234375"/>
  <rect x="7" y="8" width="1" height="1" fill="rgb(85,85,85)" fill-opacity="0.9921875"/>
  <rect x="7" y="9" width="1" height="1" fill="rgb(196,196,196)"/>
  <rect x="7" y="10" width="1" height="1" fill="rgb(242,242,242)"/>
  <rect x="7" y="11" width="1" height="1" fill="rgb(203,203,203)"/>
  <rect x="7" y="12" width="1" height="1" fill="rgb(96,96,96)"/>
  <rect x="7" y="13" width="1" height="1" fill="rgb(0,0,0)" fill-opacity="0.5859375"/>
  <rect x="7" y="14" width="1" height="1" fill="rgb(0,0,0)" fill-opacity="0.03125"/>
  <rect x="7" y="15" width="1" height="6" fill="rgb(255,255,255)" fill-opacity="0.0078125"/>
  <rect x="8" y="0" width="1" height="6" fill="rgb(255,255,255)" fill-opacity="0.0078125"/>
  <rect x="8" y="6" width="1" height="1" fill="rgb(0,0,0)" fill-opacity="0.5078125"/>
  <rect x="8" y="7" width="1" height="1" fill="rgb(149,149,149)"/>
  <rect x="8" y="8" width="1" height="2" fill="rgb(255,255,255)"/>
  <rect x="8" y="10" width="1" height="1" fill="rgb(249,249,249)"/>
  <rect x="8" y="11" width="1" height="2" fill="rgb(255,255,255)"/>
  <rect x="8" y="13" width="1" height="1" fill="rgb(169,169,169)"/>
  <rect x="8" y="14" width="1" height="1" fill="rgb(0,0,0)" fill-opacity="0.59375"/>
  <rect x="8" y="15" width="1" height="6" fill="rgb(255,255,255)" fill-opacity="0.0078125"/>
  <rect x="9" y="0" width="1" height="4" fill="rgb(255,255,255)" fill-opacity="0.0078125"/>
  <rect x="9" y="4" width="1" height="1" fill="rgb(0,0,0)" fill-opacity="0.09375"/>
  <rect x="9" y="5" width="1" height="1" fill="rgb(0,0,0)" fill-opacity="0.2265625"/>
  <rect x="9" y="6" width="1" height="1" fill="rgb(79,79,79)" fill-opacity="0.9921875"/>
  <rect x="9" y="7" width="1" height="1" fill="rgb(255,255,255)"/>
  <rect x="9" y="8" width="1" height="1" fill="rgb(218,218,218)"/>
  <rect x="9" y="9" width="1" height="1" fill="rgb(57,57,57)" fill-opacity="0.9453125"/>
  <rect x="9" y="10" width="1" height="1" fill="rgb(0,0,0)" fill-opacity="0.828125"/>
  <rect x="9" y="11" width="1" height="1" fill="rgb(46,46,46)" fill-opacity="0.9296875"/>
  <rect x="9" y="12" width="1" height="1" fill="rgb(209,209,209)"/>
  <rect x="9" y="13" width="1" height="1" fill="rgb(255,255,255)"/>
  <rect x="9" y="14" width="1" height="1" fill="rgb(100,100,100)"/>
  <rect x="9" y="15" width="1" height="1" fill="rgb(0,0,0)" fill-opacity="0.28125"/>
  <rect x="9" y="16" width="1" height="1" fill="rgb(0,0,0)" fill-opacity="0.0859375"/>
  <rect x="9" y="17" width="1" height="4" fill="rgb(255,255,255)" fill-opacity="0.0078125"/>
  <rect x="10" y="0" width="1" height="3" fill="rgb(255,255,255)" fill-opacity="0.0078125"/>
  <rect x="10" y="3" width="1" height="1" fill="rgb(2,2,2)" fill-opacity="0.53125"/>
  <rect x="10" y="4" width="1" height="1" fill="rgb(90,90,90)"/>
  <rect x="10" y="5" width="1" height="1" fill="rgb(85,85,85)"/>
  <rect x="10" y="6" width="1" height="1" fill="rgb(193,193,193)"/>
  <rect x="10" y="7" width="1" height="1" fill="rgb(255,255,255)"/>
  <rect x="10" y="8" width="1" height="1" fill="rgb(63,63,63)" fill-opacity="0.9609375"/>
  <rect x="10" y="9" width="1" height="1" fill="rgb(0,0,0)" fill-opacity="0.09375"/>
  <rect x="10" y="10" width="1" height="1" fill="rgb(255,255,255)" fill-opacity="0.0078125"/>
  <rect x="10" y="11" width="1" height="1" fill="rgb(0,0,0)" fill-opacity="0.0546875"/>
  <rect x="10" y="12" width="1" height="1" fill="rgb(43,43,43)" fill-opacity="0.9140625"/>
  <rect x="10" y="13" width="1" height="1" fill="rgb(255,255,255)"/>
  <rect x="10" y="14" width="1" height="1" fill="rgb(206,206,206)"/>
  <rect x="10" y="15" width="1" height="1" fill="rgb(84,84,84)"/>
  <rect x="10" y="16" width="1" height="1" fill="rgb(88,88,88)"/>
  <rect x="10" y="17" width="1" height="1" fill="rgb(15,15,15)" fill-opacity="0.6171875"/>
  <rect x="10" y="18" width="1" height="3" fill="rgb(255,255,255)" fill-opacity="0.0078125"/>
  <rect x="11" y="0" width="1" height="3" fill="rgb(255,255,255)" fill-opacity="0.0078125"/>
  <rect x="11" y="3" width="1" height="1" fill="rgb(65,65,65)" fill-opacity="0.9453125"/>
  <rect x="11" y="4" width="1" height="1" fill="rgb(246,246,246)"/>
  <rect x="11" y="5" width="1" height="1" fill="rgb(205,205,205)"/>
  <rect x="11" y="6" width="1" height="1" fill="rgb(236,236,236)"/>
  <rect x="11" y="7" width="1" height="1" fill="rgb(254,254,254)"/>
  <rect x="11" y="8" width="1" height="1" fill="rgb(8,8,8)" fill-opacity="0.8828125"/>
  <rect x="11" y="9" width="1" height="3" fill="rgb(255,255,255)" fill-opacity="0.0078125"/>
  <rect x="11" y="12" width="1" height="1" fill="rgb(0,0,0)" fill-opacity="0.8046875"/>
  <rect x="11" y="13" width="1" height="2" fill="rgb(244,244,244)"/>
  <rect x="11" y="15" width="1" height="1" fill="rgb(201,201,201)"/>
  <rect x="11" y="16" width="1" height="1" fill="rgb(242,242,242)"/>
  <rect x="11" y="17" width="1" height="1" fill="rgb(86,86,86)" fill-opacity="0.9921875"/>
  <rect x="11" y="18" width="1" height="1" fill="rgb(0,0,0)" fill-opacity="0.046875"/>
  <rect x="11" y="19" width="1" height="2" fill="rgb(255,255,255)" fill-opacity="0.0078125"/>
  <rect x="12" y="0" width="1" height="3" fill="rgb(255,255,255)" fill-opacity="0.0078125"/>
  <rect x="12" y="3" width="1" height="1" fill="rgb(4,4,4)" fill-opacity="0.5"/>
  <rect x="12" y="4" width="1" height="1" fill="rgb(77,77,77)" fill-opacity="0.984375"/>
  <rect x="12" y="5" width="1" height="1" fill="rgb(79,79,79)"/>
  <rect x="12" y="6" width="1" height="1" fill="rgb(189,189,189)"/>
  <rect x="12" y="7" width="1" height="1" fill="rgb(255,255,255)"/>
  <rect x="12" y="8" width="1" height="1" fill="rgb(67,67,67)" fill-opacity="0.9609375"/>
  <rect x="12" y="9" width="1" height="1" fill="rgb(0,0,0)" fill-opacity="0.109375"/>
  <rect x="12" y="10" width="1" height="1" fill="rgb(255,255,255)" fill-opacity="0.0078125"/>
  <rect x="12" y="11" width="1" height="1" fill="rgb(0,0,0)" fill-opacity="0.0703125"/>
  <rect x="12" y="12" width="1" height="1" fill="rgb(45,45,45)" fill-opacity="0.9296875"/>
  <rect x="12" y="13" width="1" height="1" fill="rgb(255,255,255)"/>
  <rect x="12" y="14" width="1" height="1" fill="rgb(203,203,203)"/>
  <rect x="12" y="15" width="1" height="1" fill="rgb(78,78,78)"/>
  <rect x="12" y="16" width="1" height="1" fill="rgb(87,87,87)"/>
  <rect x="12" y="17" width="1" height="1" fill="rgb(5,5,5)" fill-opacity="0.578125"/>
  <rect x="12" y="18" width="1" height="3" fill="rgb(255,255,255)" fill-opacity="0.0078125"/>
  <rect x="13" y="0" width="1" height="4" fill="rgb(255,255,255)" fill-opacity="0.0078125"/>
  <rect x="13" y="4" width="1" height="1" fill="rgb(0,0,0)" fill-opacity="0.0546875"/>
  <rect x="13" y="5" width="1" height="1" fill="rgb(0,0,0)" fill-opacity="0.1875"/>
  <rect x="13" y="6" width="1" height="1" fill="rgb(74,74,74)" fill-opacity="0.984375"/>
  <rect x="13" y="7" width="1" height="1" fill="rgb(255,255,255)"/>
  <rect x="13" y="8" width="1" height="1" fill="rgb(222,222,222)"/>
  <rect x="13" y="9" width="1" height="1" fill="rgb(65,65,65)" fill-opacity="0.9609375"/>
  <rect x="13" y="10" width="1" height="1" fill="rgb(2,2,2)" fill-opacity="0.8515625"/>
  <rect x="13" y="11" width="1" height="1" fill="rgb(54,54,54)" fill-opacity="0.9453125"/>
  <rect x="13" y="12" width="1" height="1" fill="rgb(213,213,213)"/>
  <rect x="13" y="13" width="1" height="1" fill="rgb(255,255,255)"/>
  <rect x="13" y="14" width="1" height="1" fill="rgb(95,95,95)"/>
  <rect x="13" y="15" width="1" height="1" fill="rgb(0,0,0)" fill-opacity="0.2421875"/>
  <rect x="13" y="16" width="1" height="1" fill="rgb(0,0,0)" fill-opacity="0.0703125"/>
  <rect x="13" y="17" width="1" height="4" fill="rgb(255,255,255)" fill-opacity="0.0078125"/>
  <rect x="14" y="0" width="1" height="6" fill="rgb(255,255,255)" fill-opacity="0.0078125"/>
  <rect x="14" y="6" width="1" height="1" fill="rgb(0,0,0)" fill-opacity="0.4765625"/>
  <rect x="14" y="7" width="1" height="1" fill="rgb(141,141,141)"/>
  <rect x="14" y="8" width="1" height="2" fill="rgb(255,255,255)"/>
  <rect x="14" y="10" width="1" height="1" fill="rgb(253,253,253)"/>
  <rect x="14" y="11" width="1" height="2" fill="rgb(255,255,255)"/>
  <rect x="14" y="13" width="1" height="1" fill="rgb(162,162,162)"/>
  <rect x="14" y="14" width="1" height="1" fill="rgb(0,0,0)" fill-opacity="0.5625"/>
  <rect x="14" y="15" width="1" height="6" fill="rgb(255,255,255)" fill-opacity="0.0078125"/>
  <rect x="15" y="0" width="1" height="6" fill="rgb(255,255,255)" fill-opacity="0.0078125"/>
  <rect x="15" y="6" width="1" height="1" fill="rgb(0,0,0)" fill-opacity="0.0078125"/>
  <rect x="15" y="7" width="1" height="1" fill="rgb(0,0,0)" fill-opacity="0.4921875"/>
  <rect x="15" y="8" width="1" height="1" fill="rgb(77,77,77)" fill-opacity="0.9921875"/>
  <rect x="15" y="9" width="1" height="1" fill="rgb(190,190,190)"/>
  <rect x="15" y="10" width="1" height="1" fill="rgb(239,239,239)"/>
  <rect x="15" y="11" width="1" height="1" fill="rgb(198,198,198)"/>
  <rect x="15" y="12" width="1" height="1" fill="rgb(88,88,88)"/>
  <rect x="15" y="13" width="1" height="1" fill="rgb(0,0,0)" fill-opacity="0.5546875"/>
  <rect x="15" y="14" width="1" height="1" fill="rgb(0,0,0)" fill-opacity="0.0234375"/>
  <rect x="15" y="15" width="1" height="6" fill="rgb(255,255,255)" fill-opacity="0.0078125"/>
  <rect x="16" y="0" width="1" height="8" fill="rgb(255,255,255)" fill-opacity="0.0078125"/>
  <rect x="16" y="8" width="1" height="1" fill="rgb(0,0,0)" fill-opacity="0.171875"/>
  <rect x="16" y="9" width="1" height="1" fill="rgb(73,73,73)"/>
  <rect x="16" y="10" width="1" height="1" fill="rgb(208,208,208)"/>
  <rect x="16" y="11" width="1" height="1" fill="rgb(93,93,93)"/>
  <rect x="16" y="12" width="1" height="1" fill="rgb(0,0,0)" fill-opacity="0.28125"/>
  <rect x="16" y="13" width="1" height="8" fill="rgb(255,255,255)" fill-opacity="0.0078125"/>
  <rect x="17" y="0" width="1" height="8" fill="rgb(255,255,255)" fill-opacity="0.0078125"/>
  <rect x="17" y="8" width="1" height="1" fill="rgb(0,0,0)" fill-opacity="0.0390625"/>
  <rect x="17" y="9" width="1" height="1" fill="rgb(77,77,77)"/>
  <rect x="17" y="10" width="1" height="1" fill="rgb(250,250,250)"/>
  <rect x="17" y="11" width="1" height="1" fill="rgb(92,92,92)"/>
  <rect x="17" y="12" width="1" height="1" fill="rgb(0,0,0)" fill-opacity="0.1015625"/>
  <rect x="17" y="13" width="1" height="8" fill="rgb(255,255,255)" fill-opacity="0.0078125"/>
  <rect x="18" y="0" width="1" height="9" fill="rgb(255,255,255)" fill-opacity="0.0078125"/>
  <rect x="18" y="9" width="1" height="1" fill="rgb(0,0,0)" fill-opacity="0.5078125"/>
  <rect x="18" y="10" width="1" height="1" fill="rgb(69,69,69)" fill-opacity="0.96875"/>
  <rect x="18" y="11" width="1" height="1" fill="rgb(10,10,10)" fill-opacity="0.5859375"/>
  <rect x="18" y="12" width="1" height="9" fill="rgb(255,255,255)" fill-opacity="0.0078125"/>
  <rect x="19" y="0" width="1" height="10" fill="rgb(255,255,255)" fill-opacity="0.0078125"/>
  <rect x="19" y="10" width="1" height="1" fill="rgb(0,0,0)" fill-opacity="0.015625"/>
  <rect x="19" y="11" width="1" height="10" fill="rgb(255,255,255)" fill-opacity="0.0078125"/>
  <rect x="20" y="0" width="1" height="21" fill="rgb(255,255,255)" fill-opacity="0.0078125"/>
</svg>