<svg xmlns="http://www.w3.org/2000/svg" shape-rendering="crispEdges" width="21" height="21" viewBox="0 0 21 21">
  <rect x="0" y="0" width="1" height="21" fill="rgb(255,255,255)" fill-opacity="0.0078125"/>
  <rect x="1" y="0" width="1" height="21" fill="rgb(255,255,255)" fill-opacity="0.0078125"/>
  <rect x="2" y="0" width="1" height="21" fill="rgb(255,255,255)" fill-opacity="0.0078125"/>
  <rect x="3" y="0" width="1" height="21" fill="rgb(255,255,255)" fill-opacity="0.0078125"/>
  <rect x="4" y="0" width="1" height="6" fill="rgb(255,255,255)" fill-opacity="0.0078125"/>
  <rect x="4" y="6" width="1" height="1" fill="rgb(42,42,42)" fill-opacity="0.6015625"/>
  <rect x="4" y="7" width="1" height="5" fill="rgb(47,47,47)" fill-opacity="0.6796875"/>
  <rect x="4" y="12" width="1" height="3" fill="rgb(48,48,48)" fill-opacity="0.671875"/>
  <rect x="4" y="15" width="1" height="1" fill="rgb(50,50,50)" fill-opacity="0.671875"/>
  <rect x="4" y="16" width="1" height="1" fill="rgb(50,50,50)" fill-opacity="0.6640625"/>
  <rect x="4" y="17" width="1" height="1" fill="rgb(43,43,43)" fill-opacity="0.578125"/>
  <rect x="4" y="18" width="1" height="1" fill="rgb(28,28,28)" fill-opacity="0.0390625"/>
  <rect x="4" y="19" width="1" height="2" fill="rgb(255,255,255)" fill-opacity="0.0078125"/>
  <rect x="5" y="0" width="1" height="6" fill="rgb(255,255,255)" fill-opacity="0.0078125"/>
  <rect x="5" y="6" width="1" height="1" fill="rgb(45,45,45)" fill-opacity="0.6875"/>
  <rect x="5" y="7" width="1" height="1" fill="rgb(252,252,252)" fill-opacity="0.75"/>
  <rect x="5" y="8" width="1" height="5" fill="rgb(255,255,255)" fill-opacity="0.75"/>
  <rect x="5" y="13" width="1" height="1" fill="rgb(254,254,254)" fill-opacity="0.75"/>
  <rect x="5" y="14" width="1" height="1" fill="rgb(250,250,250)" fill-opacity="0.75"/>
  <rect x="5" y="15" width="1" height="1" fill="rgb(246,246,246)" fill-opacity="0.75"/>
  <rect x="5" y="16" width="1" height="1" fill="rgb(242,242,242)" fill-opacity="0.75"/>
  <rect x="5" y="17" width="1" height="1" fill="rgb(184,184,184)" fill-opacity="0.7421875"/>
  <rect x="5" y="18" width="1" height="1" fill="rgb(43,43,43)" fill-opacity="0.5859375"/>
  <rect x="5" y="19" width="1" height="2" fill="rgb(255,255,255)" fill-opacity="0.0078125"/>
  <rect x="6" y="0" width="1" height="6" fill="rgb(255,255,255)" fill-opacity="0.0078125"/>
  <rect x="6" y="6" width="1" height="1" fill="rgb(45,45,45)" fill-opacity="0.6875"/>
  <rect x="6" y="7" width="1" height="1" fill="rgb(255,255,255)" fill-opacity="0.75"/>
  <rect x="6" y="8" width="1" height="8" fill="rgb(230,230,230)" fill-opacity="0.75"/>
  <rect x="6" y="16" width="1" height="1" fill="rgb(51,51,51)" fill-opacity="0.75"/>
  <rect x="6" y="17" width="1" height="1" fill="rgb(238,238,238)" fill-opacity="0.75"/>
  <rect x="6" y="18" width="1" height="1" fill="rgb(45,45,45)" fill-opacity="0.6875"/>
  <rect x="6" y="19" width="1" height="2" fill="rgb(255,255,255)" fill-opacity="0.0078125"/>
  <rect x="7" y="0" width="1" height="6" fill="rgb(255,255,255)" fill-opacity="0.0078125"/>
  <rect x="7" y="6" width="1" height="1" fill="rgb(45,45,45)" fill-opacity="0.6875"/>
  <rect x="7" y="7" width="1" height="1" fill="rgb(255,255,255)" fill-opacity="0.75"/>
  <rect x="7" y="8" width="1" height="9" fill="rgb(230,230,230)" fill-opacity="0.75"/>
  <rect x="7" y="17" width="1" height="1" fill="rgb(235,235,235)" fill-opacity="0.75"/>
  <rect x="7" y="18" width="1" height="1" fill="rgb(45,45,45)" fill-opacity="0.6875"/>
  <rect x="7" y="19" width="1" height="2" fill="rgb(255,255,255)" fill-opacity="0.0078125"/>
  <rect x="8" y="0" width="1" height="6" fill="rgb(255,255,255)" fill-opacity="0.0078125"/>
  <rect x="8" y="6" width="1" height="1" fill="rgb(45,45,45)" fill-opacity="0.6875"/>
  <rect x="8" y="7" width="1" height="1" fill="rgb(255,255,255)" fill-opacity="0.75"/>
  <rect x="8" y="8" width="1" height="2" fill="rgb(230,230,230)" fill-opacity="0.75"/>
  <rect x="8" y="10" width="1" height="1" fill="rgb(228,228,228)" fill-opacity="0.75"/>
  <rect x="8" y="11" width="1" height="1" fill="rgb(213,213,213)" fill-opacity="0.765625"/>
  <rect x="8" y="12" width="1" height="2" fill="rgb(206,206,206)" fill-opacity="0.7734375"/>
  <rect x="8" y="14" width="1" height="1" fill="rgb(207,207,207)" fill-opacity="0.7734375"/>
  <rect x="8" y="15" width="1" height="1" fill="rgb(226,226,226)" fill-opacity="0.7578125"/>
  <rect x="8" y="16" width="1" height="1" fill="rgb(51,51,51)" fill-opacity="0.75"/>
  <rect x="8" y="17" width="1" height="1" fill="rgb(234,234,234)" fill-opacity="0.75"/>
  <rect x="8" y="18" width="1" height="1" fill="rgb(45,45,45)" fill-opacity="0.6875"/>
  <rect x="8" y="19" width="1" height="2" fill="rgb(255,255,255)" fill-opacity="0.0078125"/>
  <rect x="9" y="0" width="1" height="3" fill="rgb(255,255,255)" fill-opacity="0.0078125"/>
  <rect x="9" y="3" width="1" height="1" fill="rgb(22,22,22)" fill-opacity="0.7578125"/>
  <rect x="9" y="4" width="1" height="2" fill="rgb(25,25,26)" fill-opacity="0.9140625"/>
  <rect x="9" y="6" width="1" height="1" fill="rgb(27,27,27)" fill-opacity="0.921875"/>
  <rect x="9" y="7" width="1" height="1" fill="rgb(251,251,251)" fill-opacity="0.7578125"/>
  <rect x="9" y="8" width="1" height="1" fill="rgb(230,230,230)" fill-opacity="0.75"/>
  <rect x="9" y="9" width="1" height="1" fill="rgb(228,228,228)" fill-opacity="0.75"/>
  <rect x="9" y="10" width="1" height="1" fill="rgb(213,213,213)" fill-opacity="0.765625"/>
  <rect x="9" y="11" width="1" height="1" fill="rgb(98,98,99)" fill-opacity="0.953125"/>
  <rect x="9" y="12" width="1" height="1" fill="rgb(105,105,105)" fill-opacity="0.984375"/>
  <rect x="9" y="13" width="1" height="1" fill="rgb(121,121,122)" fill-opacity="0.984375"/>
  <rect x="9" y="14" width="1" height="1" fill="rgb(140,140,141)" fill-opacity="0.953125"/>
  <rect x="9" y="15" width="1" height="1" fill="rgb(192,192,192)" fill-opacity="0.78125"/>
  <rect x="9" y="16" width="1" height="1" fill="rgb(51,51,51)" fill-opacity="0.75"/>
  <rect x="9" y="17" width="1" height="1" fill="rgb(232,232,232)" fill-opacity="0.75"/>
  <rect x="9" y="18" width="1" height="1" fill="rgb(45,45,45)" fill-opacity="0.6875"/>
  <rect x="9" y="19" width="1" height="2" fill="rgb(255,255,255)" fill-opacity="0.0078125"/>
  <rect x="10" y="0" width="1" height="3" fill="rgb(255,255,255)" fill-opacity="0.0078125"/>
  <rect x="10" y="3" width="1" height="1" fill="rgb(25,25,26)" fill-opacity="0.9140625"/>
  <rect x="10" y="4" width="1" height="2" fill="rgb(249,251,255)"/>
  <rect x="10" y="6" width="1" height="1" fill="rgb(118,118,120)" fill-opacity="0.984375"/>
  <rect x="10" y="7" width="1" height="1" fill="rgb(104,104,104)" fill-opacity="0.8984375"/>
  <rect x="10" y="8" width="1" height="1" fill="rgb(206,206,206)" fill-opacity="0.7734375"/>
  <rect x="10" y="9" width="1" height="1" fill="rgb(203,203,203)" fill-opacity="0.7734375"/>
  <rect x="10" y="10" width="1" height="1" fill="rgb(107,107,107)" fill-opacity="0.9140625"/>
  <rect x="10" y="11" width="1" height="1" fill="rgb(154,154,156)" fill-opacity="0.9921875"/>
  <rect x="10" y="12" width="1" height="2" fill="rgb(249,251,255)"/>
  <rect x="10" y="14" width="1" height="1" fill="rgb(137,138,138)" fill-opacity="0.984375"/>
  <rect x="10" y="15" width="1" height="1" fill="rgb(182,182,182)" fill-opacity="0.796875"/>
  <rect x="10" y="16" width="1" height="1" fill="rgb(51,51,51)" fill-opacity="0.75"/>
  <rect x="10" y="17" width="1" height="1" fill="rgb(231,231,231)" fill-opacity="0.75"/>
  <rect x="10" y="18" width="1" height="1" fill="rgb(45,45,45)" fill-opacity="0.6875"/>
  <rect x="10" y="19" width="1" height="2" fill="rgb(255,255,255)" fill-opacity="0.0078125"/>
  <rect x="11" y="0" width="1" height="3" fill="rgb(255,255,255)" fill-opacity="0.0078125"/>
  <rect x="11" y="3" width="1" height="1" fill="rgb(13,14,14)" fill-opacity="0.8671875"/>
  <rect x="11" y="4" width="1" height="1" fill="rgb(25,25,26)" fill-opacity="0.9140625"/>
  <rect x="11" y="5" width="1" height="1" fill="rgb(36,37,37)" fill-opacity="0.953125"/>
  <rect x="11" y="6" width="1" height="1" fill="rgb(246,248,253)"/>
  <rect x="11" y="7" width="1" height="1" fill="rgb(71,72,73)" fill-opacity="0.9921875"/>
  <rect x="11" y="8" width="1" height="1" fill="rgb(42,42,42)" fill-opacity="0.984375"/>
  <rect x="11" y="9" width="1" height="1" fill="rgb(58,58,58)" fill-opacity="0.984375"/>
  <rect x="11" y="10" width="1" height="1" fill="rgb(102,102,103)" fill-opacity="0.9921875"/>
  <rect x="11" y="11" width="1" height="1" fill="rgb(246,248,253)"/>
  <rect x="11" y="12" width="1" height="1" fill="rgb(111,111,112)" fill-opacity="0.9921875"/>
  <rect x="11" y="13" width="1" height="1" fill="rgb(122,122,122)" fill-opacity="0.984375"/>
  <rect x="11" y="14" width="1" height="1" fill="rgb(135,135,135)" fill-opacity="0.9765625"/>
  <rect x="11" y="15" width="1" height="1" fill="rgb(181,181,181)" fill-opacity="0.796875"/>
  <rect x="11" y="16" width="1" height="1" fill="rgb(51,51,51)" fill-opacity="0.75"/>
  <rect x="11" y="17" width="1" height="1" fill="rgb(230,230,230)" fill-opacity="0.75"/>
  <rect x="11" y="18" width="1" height="1" fill="rgb(45,45,45)" fill-opacity="0.6875"/>
  <rect x="11" y="19" width="1" height="2" fill="rgb(255,255,255)" fill-opacity="0.0078125"/>
  <rect x="12" y="0" width="1" height="5" fill="rgb(255,255,255)" fill-opacity="0.0078125"/>
  <rect x="12" y="5" width="1" height="1" fill="rgb(24,25,25)" fill-opacity="0.9140625"/>
  <rect x="12" y="6" width="1" height="3" fill="rgb(240,245,252)"/>
  <rect x="12" y="9" width="1" height="3" fill="rgb(240,244,252)"/>
  <rect x="12" y="12" width="1" height="1" fill="rgb(106,107,107)" fill-opacity="0.984375"/>
  <rect x="12" y="13" width="1" height="2" fill="rgb(160,160,160)" fill-opacity="0.8125"/>
  <rect x="12" y="15" width="1" height="1" fill="rgb(181,181,181)" fill-opacity="0.796875"/>
  <rect x="12" y="16" width="1" height="1" fill="rgb(51,51,51)" fill-opacity="0.75"/>
  <rect x="12" y="17" width="1" height="1" fill="rgb(230,230,230)" fill-opacity="0.75"/>
  <rect x="12" y="18" width="1" height="1" fill="rgb(45,45,45)" fill-opacity="0.6875"/>
  <rect x="12" y="19" width="1" height="2" fill="rgb(255,255,255)" fill-opacity="0.0078125"/>
  <rect x="13" y="0" width="1" height="3" fill="rgb(255,255,255)" fill-opacity="0.0078125"/>
  <rect x="13" y="3" width="1" height="1" fill="rgb(13,13,14)" fill-opacity="0.8671875"/>
  <rect x="13" y="4" width="1" height="1" fill="rgb(24,24,25)" fill-opacity="0.9140625"/>
  <rect x="13" y="5" width="1" height="1" fill="rgb(34,35,37)" fill-opacity="0.953125"/>
  <rect x="13" y="6" width="1" height="1" fill="rgb(231,237,248)"/>
  <rect x="13" y="7" width="1" height="1" fill="rgb(68,69,72)" fill-opacity="0.9921875"/>
  <rect x="13" y="8" width="1" height="1" fill="rgb(42,42,43)" fill-opacity="0.984375"/>
  <rect x="13" y="9" width="1" height="1" fill="rgb(57,58,59)" fill-opacity="0.984375"/>
  <rect x="13" y="10" width="1" height="1" fill="rgb(100,101,104)" fill-opacity="0.9921875"/>
  <rect x="13" y="11" width="1" height="1" fill="rgb(231,238,248)"/>
  <rect x="13" y="12" width="1" height="1" fill="rgb(109,110,112)" fill-opacity="0.9921875"/>
  <rect x="13" y="13" width="1" height="1" fill="rgb(122,123,124)" fill-opacity="0.984375"/>
  <rect x="13" y="14" width="1" height="1" fill="rgb(135,135,135)" fill-opacity="0.9765625"/>
  <rect x="13" y="15" width="1" height="1" fill="rgb(181,181,181)" fill-opacity="0.796875"/>
  <rect x="13" y="16" width="1" height="1" fill="rgb(51,51,51)" fill-opacity="0.75"/>
  <rect x="13" y="17" width="1" height="1" fill="rgb(230,230,230)" fill-opacity="0.75"/>
  <rect x="13" y="18" width="1" height="1" fill="rgb(45,45,45)" fill-opacity="0.6875"/>
  <rect x="13" y="19" width="1" height="2" fill="rgb(255,255,255)" fill-opacity="0.0078125"/>
  <rect x="14" y="0" width="1" height="3" fill="rgb(255,255,255)" fill-opacity="0.0078125"/>
  <rect x="14" y="3" width="1" height="1" fill="rgb(23,24,25)" fill-opacity="0.9140625"/>
  <rect x="14" y="4" width="1" height="2" fill="rgb(226,234,247)"/>
  <rect x="14" y="6" width="1" height="1" fill="rgb(107,111,117)" fill-opacity="0.984375"/>
  <rect x="14" y="7" width="1" height="1" fill="rgb(93,93,94)" fill-opacity="0.90625"/>
  <rect x="14" y="8" width="1" height="2" fill="rgb(181,181,181)" fill-opacity="0.796875"/>
  <rect x="14" y="10" width="1" height="1" fill="rgb(105,105,106)" fill-opacity="0.9140625"/>
  <rect x="14" y="11" width="1" height="1" fill="rgb(144,148,154)" fill-opacity="0.9921875"/>
  <rect x="14" y="12" width="1" height="1" fill="rgb(225,234,247)"/>
  <rect x="14" y="13" width="1" height="1" fill="rgb(225,233,247)"/>
  <rect x="14" y="14" width="1" height="1" fill="rgb(138,138,140)" fill-opacity="0.984375"/>
  <rect x="14" y="15" width="1" height="1" fill="rgb(181,181,181)" fill-opacity="0.796875"/>
  <rect x="14" y="16" width="1" height="1" fill="rgb(51,51,51)" fill-opacity="0.75"/>
  <rect x="14" y="17" width="1" height="1" fill="rgb(230,230,230)" fill-opacity="0.75"/>
  <rect x="14" y="18" width="1" height="1" fill="rgb(45,45,45)" fill-opacity="0.6875"/>
  <rect x="14" y="19" width="1" height="2" fill="rgb(255,255,255)" fill-opacity="0.0078125"/>
  <rect x="15" y="0" width="1" height="3" fill="rgb(255,255,255)" fill-opacity="0.0078125"/>
  <rect x="15" y="3" width="1" height="1" fill="rgb(20,20,22)" fill-opacity="0.7578125"/>
  <rect x="15" y="4" width="1" height="2" fill="rgb(22,23,25)" fill-opacity="0.9140625"/>
  <rect x="15" y="6" width="1" height="1" fill="rgb(25,25,27)" fill-opacity="0.921875"/>
  <rect x="15" y="7" width="1" height="1" fill="rgb(251,251,251)" fill-opacity="0.7578125"/>
  <rect x="15" y="8" width="1" height="1" fill="rgb(230,230,230)" fill-opacity="0.75"/>
  <rect x="15" y="9" width="1" height="1" fill="rgb(227,227,227)" fill-opacity="0.7578125"/>
  <rect x="15" y="10" width="1" height="1" fill="rgb(194,194,194)" fill-opacity="0.78125"/>
  <rect x="15" y="11" width="1" height="1" fill="rgb(99,100,101)" fill-opacity="0.953125"/>
  <rect x="15" y="12" width="1" height="1" fill="rgb(106,107,108)" fill-opacity="0.984375"/>
  <rect x="15" y="13" width="1" height="1" fill="rgb(121,122,124)" fill-opacity="0.984375"/>
  <rect x="15" y="14" width="1" height="1" fill="rgb(142,142,143)" fill-opacity="0.953125"/>
  <rect x="15" y="15" width="1" height="1" fill="rgb(183,183,183)" fill-opacity="0.7890625"/>
  <rect x="15" y="16" width="1" height="1" fill="rgb(51,51,51)" fill-opacity="0.75"/>
  <rect x="15" y="17" width="1" height="1" fill="rgb(230,230,230)" fill-opacity="0.75"/>
  <rect x="15" y="18" width="1" height="1" fill="rgb(45,45,45)" fill-opacity="0.6875"/>
  <rect x="15" y="19" width="1" height="2" fill="rgb(255,255,255)" fill-opacity="0.0078125"/>
  <rect x="16" y="0" width="1" height="6" fill="rgb(255,255,255)" fill-opacity="0.0078125"/>
  <rect x="16" y="6" width="1" height="1" fill="rgb(45,45,45)" fill-opacity="0.6875"/>
  <rect x="16" y="7" width="1" height="1" fill="rgb(251,251,251)" fill-opacity="0.75"/>
  <rect x="16" y="8" width="1" height="2" fill="rgb(254,254,254)" fill-opacity="0.75"/>
  <rect x="16" y="10" width="1" height="1" fill="rgb(246,246,246)" fill-opacity="0.7578125"/>
  <rect x="16" y="11" width="1" height="1" fill="rgb(203,203,203)" fill-opacity="0.7890625"/>
  <rect x="16" y="12" width="1" height="1" fill="rgb(191,191,191)" fill-opacity="0.796875"/>
  <rect x="16" y="13" width="1" height="1" fill="rgb(187,187,187)" fill-opacity="0.796875"/>
  <rect x="16" y="14" width="1" height="1" fill="rgb(186,186,186)" fill-opacity="0.7890625"/>
  <rect x="16" y="15" width="1" height="1" fill="rgb(216,216,216)" fill-opacity="0.765625"/>
  <rect x="16" y="16" width="1" height="1" fill="rgb(230,230,230)" fill-opacity="0.75"/>
  <rect x="16" y="17" width="1" height="1" fill="rgb(194,194,194)" fill-opacity="0.75"/>
  <rect x="16" y="18" width="1" height="1" fill="rgb(43,43,43)" fill-opacity="0.65625"/>
  <rect x="16" y="19" width="1" height="2" fill="rgb(255,255,255)" fill-opacity="0.0078125"/>
  <rect x="17" y="0" width="1" height="6" fill="rgb(255,255,255)" fill-opacity="0.0078125"/>
  <rect x="17" y="6" width="1" height="1" fill="rgb(44,44,44)" fill-opacity="0.6015625"/>
  <rect x="17" y="7" width="1" height="2" fill="rgb(47,47,47)" fill-opacity="0.6796875"/>
  <rect x="17" y="9" width="1" height="3" fill="rgb(49,49,49)" fill-opacity="0.6796875"/>
  <rect x="17" y="12" width="1" height="4" fill="rgb(50,50,50)" fill-opacity="0.6796875"/>
  <rect x="17" y="16" width="1" height="1" fill="rgb(52,52,52)" fill-opacity="0.6796875"/>
  <rect x="17" y="17" width="1" height="1" fill="rgb(45,45,45)" fill-opacity="0.640625"/>
  <rect x="17" y="18" width="1" height="1" fill="rgb(20,20,20)" fill-opacity="0.1015625"/>
  <rect x="17" y="19" width="1" height="2" fill="rgb(255,255,255)" fill-opacity="0.0078125"/>
  <rect x="18" y="0" width="1" height="21" fill="rgb(255,255,255)" fill-opacity="0.0078125"/>
  <rect x="19" y="0" width="1" height="21" fill="rgb(255,255,255)" fill-opacity="0.0078125"/>
  <rect x="20" y="0" width="1" height="21" fill="rgb(255,255,255)" fill-opacity="0.0078125"/>
</svg>