<svg xmlns="http://www.w3.org/2000/svg" shape-rendering="crispEdges" width="21" height="21" viewBox="0 0 21 21">
  <rect x="0" y="0" width="1" height="21" fill="rgb(255,255,255)" fill-opacity="0.0078125"/>
  <rect x="1" y="0" width="1" height="21" fill="rgb(255,255,255)" fill-opacity="0.0078125"/>
  <rect x="2" y="0" width="1" height="21" fill="rgb(255,255,255)" fill-opacity="0.0078125"/>
  <rect x="3" y="0" width="1" height="21" fill="rgb(255,255,255)" fill-opacity="0.0078125"/>
  <rect x="4" y="0" width="1" height="6" fill="rgb(255,255,255)" fill-opacity="0.0078125"/>
  <rect x="4" y="6" width="1" height="4" fill="rgb(0,0,0)" fill-opacity="0.0078125"/>
  <rect x="4" y="10" width="1" height="11" fill="rgb(255,255,255)" fill-opacity="0.0078125"/>
  <rect x="5" y="0" width="1" height="5" fill="rgb(255,255,255)" fill-opacity="0.0078125"/>
  <rect x="5" y="5" width="1" height="1" fill="rgb(0,0,0)" fill-opacity="0.0078125"/>
  <rect x="5" y="6" width="1" height="1" fill="rgb(26,26,26)" fill-opacity="0.1953125"/>
  <rect x="5" y="7" width="1" height="1" fill="rgb(52,52,52)" fill-opacity="0.3359375"/>
  <rect x="5" y="8" width="1" height="2" fill="rgb(41,41,41)" fill-opacity="0.3203125"/>
  <rect x="5" y="10" width="1" height="7" fill="rgb(45,45,45)" fill-opacity="0.3203125"/>
  <rect x="5" y="17" width="1" height="1" fill="rgb(46,46,46)" fill-opacity="0.265625"/>
  <rect x="5" y="18" width="1" height="3" fill="rgb(255,255,255)" fill-opacity="0.0078125"/>
  <rect x="6" y="0" width="1" height="4" fill="rgb(255,255,255)" fill-opacity="0.0078125"/>
  <rect x="6" y="4" width="1" height="1" fill="rgb(0,0,0)" fill-opacity="0.0078125"/>
  <rect x="6" y="5" width="1" height="1" fill="rgb(30,30,30)" fill-opacity="0.203125"/>
  <rect x="6" y="6" width="1" height="1" fill="rgb(101,101,101)" fill-opacity="0.3203125"/>
  <rect x="6" y="7" width="1" height="1" fill="rgb(255,255,255)" fill-opacity="0.3515625"/>
  <rect x="6" y="8" width="1" height="1" fill="rgb(212,212,212)" fill-opacity="0.3515625"/>
  <rect x="6" y="9" width="1" height="1" fill="rgb(252,252,252)" fill-opacity="0.3515625"/>
  <rect x="6" y="10" width="1" height="1" fill="rgb(255,255,255)" fill-opacity="0.3515625"/>
  <rect x="6" y="11" width="1" height="1" fill="rgb(252,252,252)" fill-opacity="0.3515625"/>
  <rect x="6" y="12" width="1" height="2" fill="rgb(249,249,249)" fill-opacity="0.3515625"/>
  <rect x="6" y="14" width="1" height="3" fill="rgb(246,246,246)" fill-opacity="0.3515625"/>
  <rect x="6" y="17" width="1" height="1" fill="rgb(48,48,48)" fill-opacity="0.3203125"/>
  <rect x="6" y="18" width="1" height="3" fill="rgb(255,255,255)" fill-opacity="0.0078125"/>
  <rect x="7" y="0" width="1" height="3" fill="rgb(255,255,255)" fill-opacity="0.0078125"/>
  <rect x="7" y="3" width="1" height="1" fill="rgb(0,0,0)" fill-opacity="0.0078125"/>
  <rect x="7" y="4" width="1" height="1" fill="rgb(30,30,30)" fill-opacity="0.203125"/>
  <rect x="7" y="5" width="1" height="1" fill="rgb(104,104,104)" fill-opacity="0.328125"/>
  <rect x="7" y="6" width="1" height="2" fill="rgb(255,255,255)" fill-opacity="0.3515625"/>
  <rect x="7" y="8" width="1" height="1" fill="rgb(163,163,163)" fill-opacity="0.3515625"/>
  <rect x="7" y="9" width="1" height="1" fill="rgb(192,192,192)" fill-opacity="0.3515625"/>
  <rect x="7" y="10" width="1" height="1" fill="rgb(212,212,212)" fill-opacity="0.3515625"/>
  <rect x="7" y="11" width="1" height="1" fill="rgb(155,155,155)" fill-opacity="0.3515625"/>
  <rect x="7" y="12" width="1" height="1" fill="rgb(160,160,160)" fill-opacity="0.3515625"/>
  <rect x="7" y="13" width="1" height="1" fill="rgb(229,229,229)" fill-opacity="0.3515625"/>
  <rect x="7" y="14" width="1" height="1" fill="rgb(232,232,232)" fill-opacity="0.3515625"/>
  <rect x="7" y="15" width="1" height="1" fill="rgb(238,238,238)" fill-opacity="0.3515625"/>
  <rect x="7" y="16" width="1" height="1" fill="rgb(241,241,241)" fill-opacity="0.3515625"/>
  <rect x="7" y="17" width="1" height="1" fill="rgb(48,48,48)" fill-opacity="0.3203125"/>
  <rect x="7" y="18" width="1" height="3" fill="rgb(255,255,255)" fill-opacity="0.0078125"/>
  <rect x="8" y="0" width="1" height="3" fill="rgb(255,255,255)" fill-opacity="0.0078125"/>
  <rect x="8" y="3" width="1" height="1" fill="rgb(0,0,0)" fill-opacity="0.0078125"/>
  <rect x="8" y="4" width="1" height="1" fill="rgb(54,54,54)" fill-opacity="0.3359375"/>
  <rect x="8" y="5" width="1" height="3" fill="rgb(255,255,255)" fill-opacity="0.3515625"/>
  <rect x="8" y="8" width="1" height="1" fill="rgb(166,166,166)" fill-opacity="0.3515625"/>
  <rect x="8" y="9" width="1" height="1" fill="rgb(195,195,195)" fill-opacity="0.3515625"/>
  <rect x="8" y="10" width="1" height="1" fill="rgb(215,215,215)" fill-opacity="0.3515625"/>
  <rect x="8" y="11" width="1" height="1" fill="rgb(95,95,95)" fill-opacity="0.3515625"/>
  <rect x="8" y="12" width="1" height="1" fill="rgb(97,97,97)" fill-opacity="0.3515625"/>
  <rect x="8" y="13" width="1" height="1" fill="rgb(232,232,232)" fill-opacity="0.3515625"/>
  <rect x="8" y="14" width="1" height="1" fill="rgb(235,235,235)" fill-opacity="0.3515625"/>
  <rect x="8" y="15" width="1" height="1" fill="rgb(241,241,241)" fill-opacity="0.3515625"/>
  <rect x="8" y="16" width="1" height="1" fill="rgb(246,246,246)" fill-opacity="0.3515625"/>
  <rect x="8" y="17" width="1" height="1" fill="rgb(48,48,48)" fill-opacity="0.3203125"/>
  <rect x="8" y="18" width="1" height="3" fill="rgb(255,255,255)" fill-opacity="0.0078125"/>
  <rect x="9" y="0" width="1" height="3" fill="rgb(255,255,255)" fill-opacity="0.0078125"/>
  <rect x="9" y="3" width="1" height="1" fill="rgb(0,0,0)" fill-opacity="0.0078125"/>
  <rect x="9" y="4" width="1" height="1" fill="rgb(44,44,44)" fill-opacity="0.328125"/>
  <rect x="9" y="5" width="1" height="1" fill="rgb(212,212,212)" fill-opacity="0.3515625"/>
  <rect x="9" y="6" width="1" height="1" fill="rgb(166,166,166)" fill-opacity="0.3515625"/>
  <rect x="9" y="7" width="1" height="1" fill="rgb(169,169,169)" fill-opacity="0.3515625"/>
  <rect x="9" y="8" width="1" height="1" fill="rgb(181,181,181)" fill-opacity="0.3515625"/>
  <rect x="9" y="9" width="1" height="1" fill="rgb(206,206,206)" fill-opacity="0.3515625"/>
  <rect x="9" y="10" width="1" height="1" fill="rgb(221,221,221)" fill-opacity="0.3515625"/>
  <rect x="9" y="11" width="1" height="1" fill="rgb(32,32,32)" fill-opacity="0.3515625"/>
  <rect x="9" y="12" width="1" height="1" fill="rgb(34,34,34)" fill-opacity="0.3515625"/>
  <rect x="9" y="13" width="1" height="1" fill="rgb(235,235,235)" fill-opacity="0.3515625"/>
  <rect x="9" y="14" width="1" height="1" fill="rgb(241,241,241)" fill-opacity="0.3515625"/>
  <rect x="9" y="15" width="1" height="1" fill="rgb(246,246,246)" fill-opacity="0.3515625"/>
  <rect x="9" y="16" width="1" height="1" fill="rgb(249,249,249)" fill-opacity="0.3515625"/>
  <rect x="9" y="17" width="1" height="1" fill="rgb(48,48,48)" fill-opacity="0.3203125"/>
  <rect x="9" y="18" width="1" height="3" fill="rgb(255,255,255)" fill-opacity="0.0078125"/>
  <rect x="10" y="0" width="1" height="3" fill="rgb(255,255,255)" fill-opacity="0.0078125"/>
  <rect x="10" y="3" width="1" height="1" fill="rgb(0,0,0)" fill-opacity="0.0078125"/>
  <rect x="10" y="4" width="1" height="1" fill="rgb(44,44,44)" fill-opacity="0.328125"/>
  <rect x="10" y="5" width="1" height="1" fill="rgb(255,255,255)" fill-opacity="0.3515625"/>
  <rect x="10" y="6" width="1" height="1" fill="rgb(189,189,189)" fill-opacity="0.3515625"/>
  <rect x="10" y="7" width="1" height="1" fill="rgb(192,192,192)" fill-opacity="0.3515625"/>
  <rect x="10" y="8" width="1" height="1" fill="rgb(203,203,203)" fill-opacity="0.3515625"/>
  <rect x="10" y="9" width="1" height="1" fill="rgb(218,218,218)" fill-opacity="0.3515625"/>
  <rect x="10" y="10" width="1" height="1" fill="rgb(226,226,226)" fill-opacity="0.3515625"/>
  <rect x="10" y="11" width="1" height="2" fill="rgb(0,0,0)" fill-opacity="0.3515625"/>
  <rect x="10" y="13" width="1" height="1" fill="rgb(241,241,241)" fill-opacity="0.3515625"/>
  <rect x="10" y="14" width="1" height="1" fill="rgb(246,246,246)" fill-opacity="0.3515625"/>
  <rect x="10" y="15" width="1" height="1" fill="rgb(249,249,249)" fill-opacity="0.3515625"/>
  <rect x="10" y="16" width="1" height="1" fill="rgb(252,252,252)" fill-opacity="0.3515625"/>
  <rect x="10" y="17" width="1" height="1" fill="rgb(48,48,48)" fill-opacity="0.3203125"/>
  <rect x="10" y="18" width="1" height="3" fill="rgb(255,255,255)" fill-opacity="0.0078125"/>
  <rect x="11" y="0" width="1" height="4" fill="rgb(255,255,255)" fill-opacity="0.0078125"/>
  <rect x="11" y="4" width="1" height="1" fill="rgb(44,44,44)" fill-opacity="0.3203125"/>
  <rect x="11" y="5" width="1" height="1" fill="rgb(252,252,252)" fill-opacity="0.3515625"/>
  <rect x="11" y="6" width="1" height="1" fill="rgb(209,209,209)" fill-opacity="0.3515625"/>
  <rect x="11" y="7" width="1" height="1" fill="rgb(215,215,215)" fill-opacity="0.3515625"/>
  <rect x="11" y="8" width="1" height="1" fill="rgb(221,221,221)" fill-opacity="0.3515625"/>
  <rect x="11" y="9" width="1" height="2" fill="rgb(6,6,6)" fill-opacity="0.3515625"/>
  <rect x="11" y="11" width="1" height="2" fill="rgb(0,0,0)" fill-opacity="0.3515625"/>
  <rect x="11" y="13" width="1" height="2" fill="rgb(6,6,6)" fill-opacity="0.3515625"/>
  <rect x="11" y="15" width="1" height="1" fill="rgb(252,252,252)" fill-opacity="0.3515625"/>
  <rect x="11" y="16" width="1" height="1" fill="rgb(255,255,255)" fill-opacity="0.3515625"/>
  <rect x="11" y="17" width="1" height="1" fill="rgb(48,48,48)" fill-opacity="0.3203125"/>
  <rect x="11" y="18" width="1" height="3" fill="rgb(255,255,255)" fill-opacity="0.0078125"/>
  <rect x="12" y="0" width="1" height="4" fill="rgb(255,255,255)" fill-opacity="0.0078125"/>
  <rect x="12" y="4" width="1" height="1" fill="rgb(47,47,47)" fill-opacity="0.3203125"/>
  <rect x="12" y="5" width="1" height="1" fill="rgb(249,249,249)" fill-opacity="0.3515625"/>
  <rect x="12" y="6" width="1" height="1" fill="rgb(218,218,218)" fill-opacity="0.3515625"/>
  <rect x="12" y="7" width="1" height="1" fill="rgb(223,223,223)" fill-opacity="0.3515625"/>
  <rect x="12" y="8" width="1" height="1" fill="rgb(229,229,229)" fill-opacity="0.3515625"/>
  <rect x="12" y="9" width="1" height="1" fill="rgb(232,232,232)" fill-opacity="0.3515625"/>
  <rect x="12" y="10" width="1" height="4" fill="rgb(0,0,0)" fill-opacity="0.3515625"/>
  <rect x="12" y="14" width="1" height="1" fill="rgb(252,252,252)" fill-opacity="0.3515625"/>
  <rect x="12" y="15" width="1" height="2" fill="rgb(255,255,255)" fill-opacity="0.3515625"/>
  <rect x="12" y="17" width="1" height="1" fill="rgb(48,48,48)" fill-opacity="0.3203125"/>
  <rect x="12" y="18" width="1" height="3" fill="rgb(255,255,255)" fill-opacity="0.0078125"/>
  <rect x="13" y="0" width="1" height="4" fill="rgb(255,255,255)" fill-opacity="0.0078125"/>
  <rect x="13" y="4" width="1" height="1" fill="rgb(47,47,47)" fill-opacity="0.3203125"/>
  <rect x="13" y="5" width="1" height="1" fill="rgb(246,246,246)" fill-opacity="0.3515625"/>
  <rect x="13" y="6" width="1" height="1" fill="rgb(223,223,223)" fill-opacity="0.3515625"/>
  <rect x="13" y="7" width="1" height="1" fill="rgb(229,229,229)" fill-opacity="0.3515625"/>
  <rect x="13" y="8" width="1" height="1" fill="rgb(232,232,232)" fill-opacity="0.3515625"/>
  <rect x="13" y="9" width="1" height="1" fill="rgb(235,235,235)" fill-opacity="0.3515625"/>
  <rect x="13" y="10" width="1" height="1" fill="rgb(241,241,241)" fill-opacity="0.3515625"/>
  <rect x="13" y="11" width="1" height="2" fill="rgb(0,0,0)" fill-opacity="0.3515625"/>
  <rect x="13" y="13" width="1" height="1" fill="rgb(252,252,252)" fill-opacity="0.3515625"/>
  <rect x="13" y="14" width="1" height="3" fill="rgb(255,255,255)" fill-opacity="0.3515625"/>
  <rect x="13" y="17" width="1" height="1" fill="rgb(48,48,48)" fill-opacity="0.3203125"/>
  <rect x="13" y="18" width="1" height="3" fill="rgb(255,255,255)" fill-opacity="0.0078125"/>
  <rect x="14" y="0" width="1" height="4" fill="rgb(255,255,255)" fill-opacity="0.0078125"/>
  <rect x="14" y="4" width="1" height="1" fill="rgb(47,47,47)" fill-opacity="0.3203125"/>
  <rect x="14" y="5" width="1" height="1" fill="rgb(244,244,244)" fill-opacity="0.3515625"/>
  <rect x="14" y="6" width="1" height="1" fill="rgb(229,229,229)" fill-opacity="0.3515625"/>
  <rect x="14" y="7" width="1" height="1" fill="rgb(232,232,232)" fill-opacity="0.3515625"/>
  <rect x="14" y="8" width="1" height="1" fill="rgb(235,235,235)" fill-opacity="0.3515625"/>
  <rect x="14" y="9" width="1" height="1" fill="rgb(241,241,241)" fill-opacity="0.3515625"/>
  <rect x="14" y="10" width="1" height="1" fill="rgb(244,244,244)" fill-opacity="0.3515625"/>
  <rect x="14" y="11" width="1" height="1" fill="rgb(186,186,186)" fill-opacity="0.3515625"/>
  <rect x="14" y="12" width="1" height="1" fill="rgb(189,189,189)" fill-opacity="0.3515625"/>
  <rect x="14" y="13" width="1" height="4" fill="rgb(255,255,255)" fill-opacity="0.3515625"/>
  <rect x="14" y="17" width="1" height="1" fill="rgb(48,48,48)" fill-opacity="0.3203125"/>
  <rect x="14" y="18" width="1" height="3" fill="rgb(255,255,255)" fill-opacity="0.0078125"/>
  <rect x="15" y="0" width="1" height="4" fill="rgb(255,255,255)" fill-opacity="0.0078125"/>
  <rect x="15" y="4" width="1" height="1" fill="rgb(47,47,47)" fill-opacity="0.3203125"/>
  <rect x="15" y="5" width="1" height="1" fill="rgb(241,241,241)" fill-opacity="0.3515625"/>
  <rect x="15" y="6" width="1" height="1" fill="rgb(232,232,232)" fill-opacity="0.3515625"/>
  <rect x="15" y="7" width="1" height="1" fill="rgb(235,235,235)" fill-opacity="0.3515625"/>
  <rect x="15" y="8" width="1" height="1" fill="rgb(241,241,241)" fill-opacity="0.3515625"/>
  <rect x="15" y="9" width="1" height="1" fill="rgb(244,244,244)" fill-opacity="0.3515625"/>
  <rect x="15" y="10" width="1" height="1" fill="rgb(249,249,249)" fill-opacity="0.3515625"/>
  <rect x="15" y="11" width="1" height="1" fill="rgb(252,252,252)" fill-opacity="0.3515625"/>
  <rect x="15" y="12" width="1" height="5" fill="rgb(255,255,255)" fill-opacity="0.3515625"/>
  <rect x="15" y="17" width="1" height="1" fill="rgb(48,48,48)" fill-opacity="0.3203125"/>
  <rect x="15" y="18" width="1" height="3" fill="rgb(255,255,255)" fill-opacity="0.0078125"/>
  <rect x="16" y="0" width="1" height="4" fill="rgb(255,255,255)" fill-opacity="0.0078125"/>
  <rect x="16" y="4" width="1" height="1" fill="rgb(41,41,41)" fill-opacity="0.296875"/>
  <rect x="16" y="5" width="1" height="2" fill="rgb(47,47,47)" fill-opacity="0.3203125"/>
  <rect x="16" y="7" width="1" height="10" fill="rgb(50,50,50)" fill-opacity="0.3203125"/>
  <rect x="16" y="17" width="1" height="1" fill="rgb(47,47,47)" fill-opacity="0.28125"/>
  <rect x="16" y="18" width="1" height="3" fill="rgb(255,255,255)" fill-opacity="0.0078125"/>
  <rect x="17" y="0" width="1" height="21" fill="rgb(255,255,255)" fill-opacity="0.0078125"/>
  <rect x="18" y="0" width="1" height="21" fill="rgb(255,255,255)" fill-opacity="0.0078125"/>
  <rect x="19" y="0" width="1" height="21" fill="rgb(255,255,255)" fill-opacity="0.0078125"/>
  <rect x="20" y="0" width="1" height="21" fill="rgb(255,255,255)" fill-opacity="0.0078125"/>
</svg>