<svg xmlns="http://www.w3.org/2000/svg" shape-rendering="crispEdges" width="21" height="21" viewBox="0 0 21 21">
  <rect x="0" y="0" width="21" height="1" fill="rgb(255,255,255)" fill-opacity="0.0078125"/>
  <rect x="0" y="1" width="21" height="1" fill="rgb(255,255,255)" fill-opacity="0.0078125"/>
  <rect x="0" y="2" width="21" height="1" fill="rgb(255,255,255)" fill-opacity="0.0078125"/>
  <rect x="0" y="3" width="21" height="1" fill="rgb(255,255,255)" fill-opacity="0.0078125"/>
  <rect x="0" y="4" width="21" height="1" fill="rgb(255,255,255)" fill-opacity="0.0078125"/>
  <rect x="0" y="5" width="21" height="1" fill="rgb(255,255,255)" fill-opacity="0.0078125"/>
  <rect x="0" y="6" width="21" height="1" fill="rgb(255,255,255)" fill-opacity="0.0078125"/>
  <rect x="0" y="7" width="7" height="1" fill="rgb(255,255,255)" fill-opacity="0.0078125"/>
  <rect x="7" y="7" width="1" height="1" fill="rgb(0,0,0)" fill-opacity="0.21875"/>
  <rect x="8" y="7" width="1" height="1" fill="rgb(0,0,0)" fill-opacity="0.53125"/>
  <rect x="9" y="7" width="1" height="1" fill="rgb(10,10,10)" fill-opacity="0.734375"/>
  <rect x="10" y="7" width="1" height="1" fill="rgb(42,42,42)" fill-opacity="0.890625"/>
  <rect x="11" y="7" width="1" height="1" fill="rgb(11,11,11)" fill-opacity="0.7421875"/>
  <rect x="12" y="7" width="1" height="1" fill="rgb(0,0,0)" fill-opacity="0.5390625"/>
  <rect x="13" y="7" width="1" height="1" fill="rgb(0,0,0)" fill-opacity="0.234375"/>
  <rect x="14" y="7" width="7" height="1" fill="rgb(255,255,255)" fill-opacity="0.0078125"/>
  <rect x="0" y="8" width="5" height="1" fill="rgb(255,255,255)" fill-opacity="0.0078125"/>
  <rect x="5" y="8" width="1" height="1" fill="rgb(0,0,0)" fill-opacity="0.046875"/>
  <rect x="6" y="8" width="1" height="1" fill="rgb(2,2,2)" fill-opacity="0.5859375"/>
  <rect x="7" y="8" width="1" height="1" fill="rgb(97,97,97)"/>
  <rect x="8" y="8" width="1" height="1" fill="rgb(187,187,187)"/>
  <rect x="9" y="8" width="1" height="1" fill="rgb(226,226,226)"/>
  <rect x="10" y="8" width="1" height="1" fill="rgb(230,230,230)"/>
  <rect x="11" y="8" width="1" height="1" fill="rgb(226,226,226)"/>
  <rect x="12" y="8" width="1" height="1" fill="rgb(189,189,189)"/>
  <rect x="13" y="8" width="1" height="1" fill="rgb(102,102,102)"/>
  <rect x="14" y="8" width="1" height="1" fill="rgb(3,3,3)" fill-opacity="0.609375"/>
  <rect x="15" y="8" width="1" height="1" fill="rgb(0,0,0)" fill-opacity="0.0546875"/>
  <rect x="16" y="8" width="5" height="1" fill="rgb(255,255,255)" fill-opacity="0.0078125"/>
  <rect x="0" y="9" width="4" height="1" fill="rgb(255,255,255)" fill-opacity="0.0078125"/>
  <rect x="4" y="9" width="1" height="1" fill="rgb(0,0,0)" fill-opacity="0.046875"/>
  <rect x="5" y="9" width="1" height="1" fill="rgb(25,25,25)" fill-opacity="0.8359375"/>
  <rect x="6" y="9" width="1" height="1" fill="rgb(170,170,170)"/>
  <rect x="7" y="9" width="1" height="1" fill="rgb(230,230,230)"/>
  <rect x="8" y="9" width="1" height="1" fill="rgb(155,155,155)"/>
  <rect x="9" y="9" width="1" height="1" fill="rgb(97,97,97)"/>
  <rect x="10" y="9" width="1" height="1" fill="rgb(62,62,62)" fill-opacity="0.984375"/>
  <rect x="11" y="9" width="1" height="1" fill="rgb(96,96,96)"/>
  <rect x="12" y="9" width="1" height="1" fill="rgb(152,152,152)"/>
  <rect x="13" y="9" width="1" height="1" fill="rgb(229,229,229)"/>
  <rect x="14" y="9" width="1" height="1" fill="rgb(174,174,174)"/>
  <rect x="15" y="9" width="1" height="1" fill="rgb(27,27,27)" fill-opacity="0.859375"/>
  <rect x="16" y="9" width="1" height="1" fill="rgb(0,0,0)" fill-opacity="0.0546875"/>
  <rect x="17" y="9" width="4" height="1" fill="rgb(255,255,255)" fill-opacity="0.0078125"/>
  <rect x="0" y="10" width="4" height="1" fill="rgb(255,255,255)" fill-opacity="0.0078125"/>
  <rect x="4" y="10" width="1" height="1" fill="rgb(0,0,0)" fill-opacity="0.5859375"/>
  <rect x="5" y="10" width="1" height="1" fill="rgb(168,168,168)"/>
  <rect x="6" y="10" width="1" height="1" fill="rgb(212,212,212)"/>
  <rect x="7" y="10" width="1" height="1" fill="rgb(69,69,69)" fill-opacity="0.9765625"/>
  <rect x="8" y="10" width="1" height="1" fill="rgb(0,0,0)" fill-opacity="0.453125"/>
  <rect x="9" y="10" width="1" height="1" fill="rgb(0,0,0)" fill-opacity="0.1328125"/>
  <rect x="10" y="10" width="1" height="1" fill="rgb(0,0,0)" fill-opacity="0.0078125"/>
  <rect x="11" y="10" width="1" height="1" fill="rgb(0,0,0)" fill-opacity="0.1328125"/>
  <rect x="12" y="10" width="1" height="1" fill="rgb(0,0,0)" fill-opacity="0.4375"/>
  <rect x="13" y="10" width="1" height="1" fill="rgb(64,64,64)" fill-opacity="0.96875"/>
  <rect x="14" y="10" width="1" height="1" fill="rgb(209,209,209)"/>
  <rect x="15" y="10" width="1" height="1" fill="rgb(174,174,174)"/>
  <rect x="16" y="10" width="1" height="1" fill="rgb(2,2,2)" fill-opacity="0.6171875"/>
  <rect x="17" y="10" width="4" height="1" fill="rgb(255,255,255)" fill-opacity="0.0078125"/>
  <rect x="0" y="11" width="3" height="1" fill="rgb(255,255,255)" fill-opacity="0.0078125"/>
  <rect x="3" y="11" width="1" height="1" fill="rgb(0,0,0)" fill-opacity="0.21875"/>
  <rect x="4" y="11" width="1" height="1" fill="rgb(91,91,91)"/>
  <rect x="5" y="11" width="1" height="1" fill="rgb(230,230,230)"/>
  <rect x="6" y="11" width="1" height="1" fill="rgb(68,68,68)" fill-opacity="0.9765625"/>
  <rect x="7" y="11" width="1" height="1" fill="rgb(0,0,0)" fill-opacity="0.1796875"/>
  <rect x="8" y="11" width="5" height="1" fill="rgb(255,255,255)" fill-opacity="0.0078125"/>
  <rect x="13" y="11" width="1" height="1" fill="rgb(0,0,0)" fill-opacity="0.15625"/>
  <rect x="14" y="11" width="1" height="1" fill="rgb(62,62,62)" fill-opacity="0.96875"/>
  <rect x="15" y="11" width="1" height="1" fill="rgb(229,229,229)"/>
  <rect x="16" y="11" width="1" height="1" fill="rgb(98,98,98)"/>
  <rect x="17" y="11" width="1" height="1" fill="rgb(0,0,0)" fill-opacity="0.25"/>
  <rect x="18" y="11" width="3" height="1" fill="rgb(255,255,255)" fill-opacity="0.0078125"/>
  <rect x="0" y="12" width="3" height="1" fill="rgb(255,255,255)" fill-opacity="0.0078125"/>
  <rect x="3" y="12" width="1" height="1" fill="rgb(0,0,0)" fill-opacity="0.5078125"/>
  <rect x="4" y="12" width="1" height="1" fill="rgb(180,180,180)"/>
  <rect x="5" y="12" width="1" height="1" fill="rgb(156,156,156)"/>
  <rect x="6" y="12" width="1" height="1" fill="rgb(0,0,0)" fill-opacity="0.46875"/>
  <rect x="7" y="12" width="7" height="1" fill="rgb(255,255,255)" fill-opacity="0.0078125"/>
  <rect x="14" y="12" width="1" height="1" fill="rgb(0,0,0)" fill-opacity="0.4375"/>
  <rect x="15" y="12" width="1" height="1" fill="rgb(149,149,149)"/>
  <rect x="16" y="12" width="1" height="1" fill="rgb(188,188,188)"/>
  <rect x="17" y="12" width="1" height="1" fill="rgb(0,0,0)" fill-opacity="0.53125"/>
  <rect x="18" y="12" width="3" height="1" fill="rgb(255,255,255)" fill-opacity="0.0078125"/>
  <rect x="0" y="13" width="3" height="1" fill="rgb(255,255,255)" fill-opacity="0.0078125"/>
  <rect x="3" y="13" width="1" height="1" fill="rgb(6,6,6)" fill-opacity="0.7109375"/>
  <rect x="4" y="13" width="1" height="1" fill="rgb(223,223,223)"/>
  <rect x="5" y="13" width="1" height="1" fill="rgb(98,98,98)"/>
  <rect x="6" y="13" width="1" height="1" fill="rgb(0,0,0)" fill-opacity="0.1484375"/>
  <rect x="7" y="13" width="7" height="1" fill="rgb(255,255,255)" fill-opacity="0.0078125"/>
  <rect x="14" y="13" width="1" height="1" fill="rgb(0,0,0)" fill-opacity="0.1015625"/>
  <rect x="15" y="13" width="1" height="1" fill="rgb(90,90,90)"/>
  <rect x="16" y="13" width="1" height="1" fill="rgb(226,226,226)"/>
  <rect x="17" y="13" width="1" height="1" fill="rgb(9,9,9)" fill-opacity="0.7421875"/>
  <rect x="18" y="13" width="3" height="1" fill="rgb(255,255,255)" fill-opacity="0.0078125"/>
  <rect x="0" y="14" width="3" height="1" fill="rgb(255,255,255)" fill-opacity="0.0078125"/>
  <rect x="3" y="14" width="1" height="1" fill="rgb(28,28,28)" fill-opacity="0.8203125"/>
  <rect x="4" y="14" width="1" height="1" fill="rgb(227,227,227)"/>
  <rect x="5" y="14" width="1" height="1" fill="rgb(47,47,47)" fill-opacity="0.9453125"/>
  <rect x="6" y="14" width="9" height="1" fill="rgb(255,255,255)" fill-opacity="0.0078125"/>
  <rect x="15" y="14" width="1" height="1" fill="rgb(39,39,39)" fill-opacity="0.90625"/>
  <rect x="16" y="14" width="1" height="1" fill="rgb(227,227,227)"/>
  <rect x="17" y="14" width="1" height="1" fill="rgb(35,35,35)" fill-opacity="0.8828125"/>
  <rect x="18" y="14" width="3" height="1" fill="rgb(255,255,255)" fill-opacity="0.0078125"/>
  <rect x="0" y="15" width="3" height="1" fill="rgb(255,255,255)" fill-opacity="0.0078125"/>
  <rect x="3" y="15" width="1" height="1" fill="rgb(0,0,0)" fill-opacity="0.3046875"/>
  <rect x="4" y="15" width="1" height="1" fill="rgb(23,23,23)" fill-opacity="0.796875"/>
  <rect x="5" y="15" width="1" height="1" fill="rgb(0,0,0)" fill-opacity="0.3203125"/>
  <rect x="6" y="15" width="9" height="1" fill="rgb(255,255,255)" fill-opacity="0.0078125"/>
  <rect x="15" y="15" width="1" height="1" fill="rgb(0,0,0)" fill-opacity="0.3046875"/>
  <rect x="16" y="15" width="1" height="1" fill="rgb(23,23,23)" fill-opacity="0.7890625"/>
  <rect x="17" y="15" width="1" height="1" fill="rgb(0,0,0)" fill-opacity="0.328125"/>
  <rect x="18" y="15" width="3" height="1" fill="rgb(255,255,255)" fill-opacity="0.0078125"/>
  <rect x="0" y="16" width="21" height="1" fill="rgb(255,255,255)" fill-opacity="0.0078125"/>
  <rect x="0" y="17" width="21" height="1" fill="rgb(255,255,255)" fill-opacity="0.0078125"/>
  <rect x="0" y="18" width="21" height="1" fill="rgb(255,255,255)" fill-opacity="0.0078125"/>
  <rect x="0" y="19" width="21" height="1" fill="rgb(255,255,255)" fill-opacity="0.0078125"/>
  <rect x="0" y="20" width="21" height="1" fill="rgb(255,255,255)" fill-opacity="0.0078125"/>
</svg>