<svg xmlns="http://www.w3.org/2000/svg" shape-rendering="crispEdges" width="21" height="21" viewBox="0 0 21 21">
  <rect x="0" y="0" width="21" height="1" fill="rgb(255,255,255)" fill-opacity="0.0078125"/>
  <rect x="0" y="1" width="21" height="1" fill="rgb(255,255,255)" fill-opacity="0.0078125"/>
  <rect x="0" y="2" width="21" height="1" fill="rgb(255,255,255)" fill-opacity="0.0078125"/>
  <rect x="0" y="3" width="21" height="1" fill="rgb(255,255,255)" fill-opacity="0.0078125"/>
  <rect x="0" y="4" width="7" height="1" fill="rgb(255,255,255)" fill-opacity="0.0078125"/>
  <rect x="7" y="4" width="1" height="1" fill="rgb(0,0,0)" fill-opacity="0.0234375"/>
  <rect x="8" y="4" width="1" height="1" fill="rgb(26,26,26)" fill-opacity="0.359375"/>
  <rect x="9" y="4" width="1" height="1" fill="rgb(38,38,38)" fill-opacity="0.6171875"/>
  <rect x="10" y="4" width="2" height="1" fill="rgb(41,41,41)" fill-opacity="0.8515625"/>
  <rect x="12" y="4" width="1" height="1" fill="rgb(38,38,38)" fill-opacity="0.6171875"/>
  <rect x="13" y="4" width="1" height="1" fill="rgb(26,26,26)" fill-opacity="0.359375"/>
  <rect x="14" y="4" width="1" height="1" fill="rgb(0,0,0)" fill-opacity="0.0234375"/>
  <rect x="15" y="4" width="6" height="1" fill="rgb(255,255,255)" fill-opacity="0.0078125"/>
  <rect x="0" y="5" width="6" height="1" fill="rgb(255,255,255)" fill-opacity="0.0078125"/>
  <rect x="6" y="5" width="1" height="1" fill="rgb(28,28,28)" fill-opacity="0.1875"/>
  <rect x="7" y="5" width="1" height="1" fill="rgb(40,40,40)" fill-opacity="0.8515625"/>
  <rect x="8" y="5" width="1" height="1" fill="rgb(148,148,148)" fill-opacity="0.9765625"/>
  <rect x="9" y="5" width="1" height="1" fill="rgb(226,226,226)"/>
  <rect x="10" y="5" width="1" height="1" fill="rgb(250,250,250)"/>
  <rect x="11" y="5" width="1" height="1" fill="rgb(251,251,251)"/>
  <rect x="12" y="5" width="1" height="1" fill="rgb(226,226,226)"/>
  <rect x="13" y="5" width="1" height="1" fill="rgb(150,150,150)" fill-opacity="0.9765625"/>
  <rect x="14" y="5" width="1" height="1" fill="rgb(40,40,40)" fill-opacity="0.8515625"/>
  <rect x="15" y="5" width="1" height="1" fill="rgb(28,28,28)" fill-opacity="0.1875"/>
  <rect x="16" y="5" width="5" height="1" fill="rgb(255,255,255)" fill-opacity="0.0078125"/>
  <rect x="0" y="6" width="5" height="1" fill="rgb(255,255,255)" fill-opacity="0.0078125"/>
  <rect x="5" y="6" width="1" height="1" fill="rgb(24,24,24)" fill-opacity="0.2109375"/>
  <rect x="6" y="6" width="1" height="1" fill="rgb(57,57,57)" fill-opacity="0.9609375"/>
  <rect x="7" y="6" width="1" height="1" fill="rgb(232,232,232)"/>
  <rect x="8" y="6" width="3" height="1" fill="rgb(255,255,255)"/>
  <rect x="11" y="6" width="1" height="1" fill="rgb(248,248,248)"/>
  <rect x="12" y="6" width="1" height="1" fill="rgb(241,241,241)"/>
  <rect x="13" y="6" width="1" height="1" fill="rgb(246,246,246)"/>
  <rect x="14" y="6" width="1" height="1" fill="rgb(220,220,220)"/>
  <rect x="15" y="6" width="1" height="1" fill="rgb(55,55,55)" fill-opacity="0.9609375"/>
  <rect x="16" y="6" width="1" height="1" fill="rgb(24,24,24)" fill-opacity="0.2109375"/>
  <rect x="17" y="6" width="4" height="1" fill="rgb(255,255,255)" fill-opacity="0.0078125"/>
  <rect x="0" y="7" width="4" height="1" fill="rgb(255,255,255)" fill-opacity="0.0078125"/>
  <rect x="4" y="7" width="1" height="1" fill="rgb(32,32,32)" fill-opacity="0.0390625"/>
  <rect x="5" y="7" width="1" height="1" fill="rgb(37,37,37)" fill-opacity="0.8828125"/>
  <rect x="6" y="7" width="1" height="1" fill="rgb(235,235,235)"/>
  <rect x="7" y="7" width="3" height="1" fill="rgb(255,255,255)"/>
  <rect x="10" y="7" width="1" height="1" fill="rgb(247,247,247)"/>
  <rect x="11" y="7" width="1" height="1" fill="rgb(233,233,233)"/>
  <rect x="12" y="7" width="1" height="1" fill="rgb(220,220,220)"/>
  <rect x="13" y="7" width="1" height="1" fill="rgb(206,206,206)"/>
  <rect x="14" y="7" width="1" height="1" fill="rgb(220,220,220)"/>
  <rect x="15" y="7" width="1" height="1" fill="rgb(205,205,205)"/>
  <rect x="16" y="7" width="1" height="1" fill="rgb(39,39,39)" fill-opacity="0.8828125"/>
  <rect x="17" y="7" width="1" height="1" fill="rgb(32,32,32)" fill-opacity="0.0390625"/>
  <rect x="18" y="7" width="3" height="1" fill="rgb(255,255,255)" fill-opacity="0.0078125"/>
  <rect x="0" y="8" width="4" height="1" fill="rgb(255,255,255)" fill-opacity="0.0078125"/>
  <rect x="4" y="8" width="1" height="1" fill="rgb(31,31,31)" fill-opacity="0.4609375"/>
  <rect x="5" y="8" width="1" height="1" fill="rgb(158,158,158)" fill-opacity="0.9765625"/>
  <rect x="6" y="8" width="3" height="1" fill="rgb(255,255,255)"/>
  <rect x="9" y="8" width="1" height="1" fill="rgb(247,247,247)"/>
  <rect x="10" y="8" width="1" height="1" fill="rgb(233,233,233)"/>
  <rect x="11" y="8" width="1" height="1" fill="rgb(220,220,220)"/>
  <rect x="12" y="8" width="1" height="1" fill="rgb(206,206,206)"/>
  <rect x="13" y="8" width="1" height="1" fill="rgb(193,193,193)"/>
  <rect x="14" y="8" width="1" height="1" fill="rgb(179,179,179)"/>
  <rect x="15" y="8" width="1" height="1" fill="rgb(211,211,211)"/>
  <rect x="16" y="8" width="1" height="1" fill="rgb(125,125,125)" fill-opacity="0.9765625"/>
  <rect x="17" y="8" width="1" height="1" fill="rgb(31,31,31)" fill-opacity="0.4609375"/>
  <rect x="18" y="8" width="3" height="1" fill="rgb(255,255,255)" fill-opacity="0.0078125"/>
  <rect x="0" y="9" width="4" height="1" fill="rgb(255,255,255)" fill-opacity="0.0078125"/>
  <rect x="4" y="9" width="1" height="1" fill="rgb(44,44,44)" fill-opacity="0.75"/>
  <rect x="5" y="9" width="1" height="1" fill="rgb(231,231,231)"/>
  <rect x="6" y="9" width="2" height="1" fill="rgb(255,255,255)"/>
  <rect x="8" y="9" width="1" height="1" fill="rgb(246,246,246)"/>
  <rect x="9" y="9" width="1" height="1" fill="rgb(233,233,233)"/>
  <rect x="10" y="9" width="1" height="1" fill="rgb(219,219,219)"/>
  <rect x="11" y="9" width="1" height="1" fill="rgb(205,205,205)"/>
  <rect x="12" y="9" width="1" height="1" fill="rgb(192,192,192)"/>
  <rect x="13" y="9" width="1" height="1" fill="rgb(179,179,179)"/>
  <rect x="14" y="9" width="1" height="1" fill="rgb(165,165,165)"/>
  <rect x="15" y="9" width="1" height="1" fill="rgb(171,171,171)"/>
  <rect x="16" y="9" width="1" height="1" fill="rgb(170,170,170)"/>
  <rect x="17" y="9" width="1" height="1" fill="rgb(44,44,44)" fill-opacity="0.75"/>
  <rect x="18" y="9" width="3" height="1" fill="rgb(255,255,255)" fill-opacity="0.0078125"/>
  <rect x="0" y="10" width="4" height="1" fill="rgb(255,255,255)" fill-opacity="0.0078125"/>
  <rect x="4" y="10" width="1" height="1" fill="rgb(35,35,35)" fill-opacity="0.9453125"/>
  <rect x="5" y="10" width="1" height="1" fill="rgb(251,251,251)"/>
  <rect x="6" y="10" width="1" height="1" fill="rgb(255,255,255)"/>
  <rect x="7" y="10" width="1" height="1" fill="rgb(246,246,246)"/>
  <rect x="8" y="10" width="1" height="1" fill="rgb(233,233,233)"/>
  <rect x="9" y="10" width="1" height="1" fill="rgb(219,219,219)"/>
  <rect x="10" y="10" width="1" height="1" fill="rgb(205,205,205)"/>
  <rect x="11" y="10" width="1" height="1" fill="rgb(192,192,192)"/>
  <rect x="12" y="10" width="1" height="1" fill="rgb(178,178,178)"/>
  <rect x="13" y="10" width="1" height="1" fill="rgb(165,165,165)"/>
  <rect x="14" y="10" width="1" height="1" fill="rgb(151,151,151)"/>
  <rect x="15" y="10" width="1" height="1" fill="rgb(144,144,144)"/>
  <rect x="16" y="10" width="1" height="1" fill="rgb(180,180,180)"/>
  <rect x="17" y="10" width="1" height="1" fill="rgb(35,35,35)" fill-opacity="0.9453125"/>
  <rect x="18" y="10" width="3" height="1" fill="rgb(255,255,255)" fill-opacity="0.0078125"/>
  <rect x="0" y="11" width="4" height="1" fill="rgb(255,255,255)" fill-opacity="0.0078125"/>
  <rect x="4" y="11" width="1" height="1" fill="rgb(33,33,33)" fill-opacity="0.9609375"/>
  <rect x="5" y="11" width="1" height="1" fill="rgb(252,252,252)"/>
  <rect x="6" y="11" width="1" height="1" fill="rgb(246,246,246)"/>
  <rect x="7" y="11" width="1" height="1" fill="rgb(232,232,232)"/>
  <rect x="8" y="11" width="1" height="1" fill="rgb(218,218,218)"/>
  <rect x="9" y="11" width="1" height="1" fill="rgb(205,205,205)"/>
  <rect x="10" y="11" width="1" height="1" fill="rgb(191,191,191)"/>
  <rect x="11" y="11" width="1" height="1" fill="rgb(178,178,178)"/>
  <rect x="12" y="11" width="1" height="1" fill="rgb(165,165,165)"/>
  <rect x="13" y="11" width="1" height="1" fill="rgb(151,151,151)"/>
  <rect x="14" y="11" width="1" height="1" fill="rgb(137,137,137)"/>
  <rect x="15" y="11" width="1" height="1" fill="rgb(131,131,131)"/>
  <rect x="16" y="11" width="1" height="1" fill="rgb(160,160,160)"/>
  <rect x="17" y="11" width="1" height="1" fill="rgb(33,33,33)" fill-opacity="0.9609375"/>
  <rect x="18" y="11" width="3" height="1" fill="rgb(255,255,255)" fill-opacity="0.0078125"/>
  <rect x="0" y="12" width="4" height="1" fill="rgb(255,255,255)" fill-opacity="0.0078125"/>
  <rect x="4" y="12" width="1" height="1" fill="rgb(44,44,44)" fill-opacity="0.7734375"/>
  <rect x="5" y="12" width="1" height="1" fill="rgb(231,231,231)"/>
  <rect x="6" y="12" width="1" height="1" fill="rgb(239,239,239)"/>
  <rect x="7" y="12" width="1" height="1" fill="rgb(218,218,218)"/>
  <rect x="8" y="12" width="1" height="1" fill="rgb(205,205,205)"/>
  <rect x="9" y="12" width="1" height="1" fill="rgb(191,191,191)"/>
  <rect x="10" y="12" width="1" height="1" fill="rgb(177,177,177)"/>
  <rect x="11" y="12" width="1" height="1" fill="rgb(164,164,164)"/>
  <rect x="12" y="12" width="1" height="1" fill="rgb(150,150,150)"/>
  <rect x="13" y="12" width="1" height="1" fill="rgb(137,137,137)"/>
  <rect x="14" y="12" width="1" height="1" fill="rgb(124,124,124)"/>
  <rect x="15" y="12" width="1" height="1" fill="rgb(127,127,127)"/>
  <rect x="16" y="12" width="1" height="1" fill="rgb(137,137,137)"/>
  <rect x="17" y="12" width="1" height="1" fill="rgb(44,44,44)" fill-opacity="0.7734375"/>
  <rect x="18" y="12" width="3" height="1" fill="rgb(255,255,255)" fill-opacity="0.0078125"/>
  <rect x="0" y="13" width="4" height="1" fill="rgb(255,255,255)" fill-opacity="0.0078125"/>
  <rect x="4" y="13" width="1" height="1" fill="rgb(34,34,34)" fill-opacity="0.5078125"/>
  <rect x="5" y="13" width="1" height="1" fill="rgb(166,166,166)" fill-opacity="0.984375"/>
  <rect x="6" y="13" width="1" height="1" fill="rgb(246,246,246)"/>
  <rect x="7" y="13" width="1" height="1" fill="rgb(205,205,205)"/>
  <rect x="8" y="13" width="1" height="1" fill="rgb(191,191,191)"/>
  <rect x="9" y="13" width="1" height="1" fill="rgb(177,177,177)"/>
  <rect x="10" y="13" width="1" height="1" fill="rgb(164,164,164)"/>
  <rect x="11" y="13" width="1" height="1" fill="rgb(150,150,150)"/>
  <rect x="12" y="13" width="1" height="1" fill="rgb(137,137,137)"/>
  <rect x="13" y="13" width="1" height="1" fill="rgb(123,123,123)"/>
  <rect x="14" y="13" width="1" height="1" fill="rgb(111,111,111)"/>
  <rect x="15" y="13" width="1" height="1" fill="rgb(135,135,135)"/>
  <rect x="16" y="13" width="1" height="1" fill="rgb(101,101,101)" fill-opacity="0.984375"/>
  <rect x="17" y="13" width="1" height="1" fill="rgb(34,34,34)" fill-opacity="0.5078125"/>
  <rect x="18" y="13" width="3" height="1" fill="rgb(255,255,255)" fill-opacity="0.0078125"/>
  <rect x="0" y="14" width="4" height="1" fill="rgb(255,255,255)" fill-opacity="0.0078125"/>
  <rect x="4" y="14" width="1" height="1" fill="rgb(32,32,32)" fill-opacity="0.0703125"/>
  <rect x="5" y="14" width="1" height="1" fill="rgb(37,37,37)" fill-opacity="0.9296875"/>
  <rect x="6" y="14" width="1" height="1" fill="rgb(227,227,227)"/>
  <rect x="7" y="14" width="1" height="1" fill="rgb(219,219,219)"/>
  <rect x="8" y="14" width="1" height="1" fill="rgb(178,178,178)"/>
  <rect x="9" y="14" width="1" height="1" fill="rgb(164,164,164)"/>
  <rect x="10" y="14" width="1" height="1" fill="rgb(150,150,150)"/>
  <rect x="11" y="14" width="1" height="1" fill="rgb(137,137,137)"/>
  <rect x="12" y="14" width="1" height="1" fill="rgb(123,123,123)"/>
  <rect x="13" y="14" width="1" height="1" fill="rgb(110,110,110)"/>
  <rect x="14" y="14" width="1" height="1" fill="rgb(123,123,123)"/>
  <rect x="15" y="14" width="1" height="1" fill="rgb(128,128,128)"/>
  <rect x="16" y="14" width="1" height="1" fill="rgb(36,36,36)" fill-opacity="0.9296875"/>
  <rect x="17" y="14" width="1" height="1" fill="rgb(32,32,32)" fill-opacity="0.0703125"/>
  <rect x="18" y="14" width="3" height="1" fill="rgb(255,255,255)" fill-opacity="0.0078125"/>
  <rect x="0" y="15" width="5" height="1" fill="rgb(255,255,255)" fill-opacity="0.0078125"/>
  <rect x="5" y="15" width="1" height="1" fill="rgb(25,25,25)" fill-opacity="0.28125"/>
  <rect x="6" y="15" width="1" height="1" fill="rgb(60,60,60)" fill-opacity="0.9609375"/>
  <rect x="7" y="15" width="1" height="1" fill="rgb(211,211,211)"/>
  <rect x="8" y="15" width="1" height="1" fill="rgb(214,214,214)"/>
  <rect x="9" y="15" width="1" height="1" fill="rgb(172,172,172)"/>
  <rect x="10" y="15" width="1" height="1" fill="rgb(145,145,145)"/>
  <rect x="11" y="15" width="1" height="1" fill="rgb(130,130,130)"/>
  <rect x="12" y="15" width="1" height="1" fill="rgb(129,129,129)"/>
  <rect x="13" y="15" width="1" height="1" fill="rgb(136,136,136)"/>
  <rect x="14" y="15" width="1" height="1" fill="rgb(122,122,122)"/>
  <rect x="15" y="15" width="1" height="1" fill="rgb(45,45,45)" fill-opacity="0.9609375"/>
  <rect x="16" y="15" width="1" height="1" fill="rgb(25,25,25)" fill-opacity="0.28125"/>
  <rect x="17" y="15" width="4" height="1" fill="rgb(255,255,255)" fill-opacity="0.0078125"/>
  <rect x="0" y="16" width="6" height="1" fill="rgb(255,255,255)" fill-opacity="0.0078125"/>
  <rect x="6" y="16" width="1" height="1" fill="rgb(25,25,25)" fill-opacity="0.2890625"/>
  <rect x="7" y="16" width="1" height="1" fill="rgb(37,37,37)" fill-opacity="0.9296875"/>
  <rect x="8" y="16" width="1" height="1" fill="rgb(133,133,133)" fill-opacity="0.984375"/>
  <rect x="9" y="16" width="1" height="1" fill="rgb(175,175,175)"/>
  <rect x="10" y="16" width="1" height="1" fill="rgb(178,178,178)"/>
  <rect x="11" y="16" width="1" height="1" fill="rgb(167,167,167)"/>
  <rect x="12" y="16" width="1" height="1" fill="rgb(135,135,135)"/>
  <rect x="13" y="16" width="1" height="1" fill="rgb(103,103,103)" fill-opacity="0.984375"/>
  <rect x="14" y="16" width="1" height="1" fill="rgb(36,36,36)" fill-opacity="0.9296875"/>
  <rect x="15" y="16" width="1" height="1" fill="rgb(25,25,25)" fill-opacity="0.2890625"/>
  <rect x="16" y="16" width="5" height="1" fill="rgb(255,255,255)" fill-opacity="0.0078125"/>
  <rect x="0" y="17" width="7" height="1" fill="rgb(255,255,255)" fill-opacity="0.0078125"/>
  <rect x="7" y="17" width="1" height="1" fill="rgb(34,34,34)" fill-opacity="0.0625"/>
  <rect x="8" y="17" width="1" height="1" fill="rgb(32,32,32)" fill-opacity="0.5"/>
  <rect x="9" y="17" width="1" height="1" fill="rgb(44,44,44)" fill-opacity="0.765625"/>
  <rect x="10" y="17" width="2" height="1" fill="rgb(35,35,35)" fill-opacity="0.953125"/>
  <rect x="12" y="17" width="1" height="1" fill="rgb(44,44,44)" fill-opacity="0.765625"/>
  <rect x="13" y="17" width="1" height="1" fill="rgb(32,32,32)" fill-opacity="0.5"/>
  <rect x="14" y="17" width="1" height="1" fill="rgb(34,34,34)" fill-opacity="0.0625"/>
  <rect x="15" y="17" width="6" height="1" fill="rgb(255,255,255)" fill-opacity="0.0078125"/>
  <rect x="0" y="18" width="21" height="1" fill="rgb(255,255,255)" fill-opacity="0.0078125"/>
  <rect x="0" y="19" width="21" height="1" fill="rgb(255,255,255)" fill-opacity="0.0078125"/>
  <rect x="0" y="20" width="21" height="1" fill="rgb(255,255,255)" fill-opacity="0.0078125"/>
</svg>