<svg xmlns="http://www.w3.org/2000/svg" shape-rendering="crispEdges" width="21" height="21" viewBox="0 0 21 21">
  <rect x="0" y="0" width="1" height="21" fill="rgb(255,255,255)" fill-opacity="0.0078125"/>
  <rect x="1" y="0" width="1" height="21" fill="rgb(255,255,255)" fill-opacity="0.0078125"/>
  <rect x="2" y="0" width="1" height="21" fill="rgb(255,255,255)" fill-opacity="0.0078125"/>
  <rect x="3" y="0" width="1" height="9" fill="rgb(255,255,255)" fill-opacity="0.0078125"/>
  <rect x="3" y="9" width="1" height="2" fill="rgb(85,44,0)"/>
  <rect x="3" y="11" width="1" height="2" fill="rgb(255,152,42)"/>
  <rect x="3" y="13" width="1" height="2" fill="rgb(85,44,0)"/>
  <rect x="3" y="15" width="1" height="2" fill="rgb(255,152,42)"/>
  <rect x="3" y="17" width="1" height="2" fill="rgb(85,44,0)"/>
  <rect x="3" y="19" width="1" height="2" fill="rgb(255,255,255)" fill-opacity="0.0078125"/>
  <rect x="4" y="0" width="1" height="9" fill="rgb(255,255,255)" fill-opacity="0.0078125"/>
  <rect x="4" y="9" width="1" height="1" fill="rgb(255,152,42)"/>
  <rect x="4" y="10" width="1" height="8" fill="rgb(150,150,150)" fill-opacity="0.3671875"/>
  <rect x="4" y="18" width="1" height="1" fill="rgb(255,152,42)"/>
  <rect x="4" y="19" width="1" height="2" fill="rgb(255,255,255)" fill-opacity="0.0078125"/>
  <rect x="5" y="0" width="1" height="9" fill="rgb(255,255,255)" fill-opacity="0.0078125"/>
  <rect x="5" y="9" width="1" height="1" fill="rgb(255,152,42)"/>
  <rect x="5" y="10" width="1" height="1" fill="rgb(150,150,150)" fill-opacity="0.3671875"/>
  <rect x="5" y="11" width="1" height="7" fill="rgb(255,255,255)" fill-opacity="0.2578125"/>
  <rect x="5" y="18" width="1" height="1" fill="rgb(255,152,42)"/>
  <rect x="5" y="19" width="1" height="2" fill="rgb(255,255,255)" fill-opacity="0.0078125"/>
  <rect x="6" y="0" width="1" height="4" fill="rgb(255,255,255)" fill-opacity="0.0078125"/>
  <rect x="6" y="4" width="1" height="1" fill="rgb(63,63,63)" fill-opacity="0.3515625"/>
  <rect x="6" y="5" width="1" height="1" fill="rgb(62,62,62)" fill-opacity="0.9453125"/>
  <rect x="6" y="6" width="1" height="7" fill="rgb(51,51,51)"/>
  <rect x="6" y="13" width="1" height="1" fill="rgb(62,62,62)" fill-opacity="0.9296875"/>
  <rect x="6" y="14" width="1" height="1" fill="rgb(131,131,131)" fill-opacity="0.46875"/>
  <rect x="6" y="15" width="1" height="3" fill="rgb(255,255,255)" fill-opacity="0.2578125"/>
  <rect x="6" y="18" width="1" height="1" fill="rgb(85,44,0)"/>
  <rect x="6" y="19" width="1" height="2" fill="rgb(255,255,255)" fill-opacity="0.0078125"/>
  <rect x="7" y="0" width="1" height="3" fill="rgb(255,255,255)" fill-opacity="0.0078125"/>
  <rect x="7" y="3" width="1" height="1" fill="rgb(51,51,51)" fill-opacity="0.5"/>
  <rect x="7" y="4" width="1" height="1" fill="rgb(53,53,53)"/>
  <rect x="7" y="5" width="1" height="1" fill="rgb(193,193,193)"/>
  <rect x="7" y="6" width="1" height="1" fill="rgb(221,221,221)"/>
  <rect x="7" y="7" width="1" height="1" fill="rgb(198,198,198)"/>
  <rect x="7" y="8" width="1" height="4" fill="rgb(117,117,117)"/>
  <rect x="7" y="12" width="1" height="1" fill="rgb(119,119,119)"/>
  <rect x="7" y="13" width="1" height="1" fill="rgb(162,162,162)"/>
  <rect x="7" y="14" width="1" height="1" fill="rgb(62,62,62)" fill-opacity="0.9140625"/>
  <rect x="7" y="15" width="1" height="3" fill="rgb(255,255,255)" fill-opacity="0.2578125"/>
  <rect x="7" y="18" width="1" height="1" fill="rgb(85,44,0)"/>
  <rect x="7" y="19" width="1" height="2" fill="rgb(255,255,255)" fill-opacity="0.0078125"/>
  <rect x="8" y="0" width="1" height="3" fill="rgb(255,255,255)" fill-opacity="0.0078125"/>
  <rect x="8" y="3" width="1" height="1" fill="rgb(58,58,58)" fill-opacity="0.890625"/>
  <rect x="8" y="4" width="1" height="1" fill="rgb(251,251,251)"/>
  <rect x="8" y="5" width="1" height="1" fill="rgb(171,171,171)"/>
  <rect x="8" y="6" width="1" height="1" fill="rgb(217,217,217)"/>
  <rect x="8" y="7" width="1" height="1" fill="rgb(175,175,175)"/>
  <rect x="8" y="8" width="1" height="4" fill="rgb(65,65,65)"/>
  <rect x="8" y="12" width="1" height="1" fill="rgb(70,70,70)"/>
  <rect x="8" y="13" width="1" height="1" fill="rgb(194,194,194)"/>
  <rect x="8" y="14" width="1" height="1" fill="rgb(54,54,54)" fill-opacity="0.9921875"/>
  <rect x="8" y="15" width="1" height="3" fill="rgb(255,255,255)" fill-opacity="0.2578125"/>
  <rect x="8" y="18" width="1" height="1" fill="rgb(255,152,42)"/>
  <rect x="8" y="19" width="1" height="2" fill="rgb(255,255,255)" fill-opacity="0.0078125"/>
  <rect x="9" y="0" width="1" height="3" fill="rgb(255,255,255)" fill-opacity="0.0078125"/>
  <rect x="9" y="3" width="1" height="1" fill="rgb(58,58,58)" fill-opacity="0.890625"/>
  <rect x="9" y="4" width="1" height="1" fill="rgb(251,251,251)"/>
  <rect x="9" y="5" width="1" height="1" fill="rgb(171,171,171)"/>
  <rect x="9" y="6" width="1" height="1" fill="rgb(215,207,207)"/>
  <rect x="9" y="7" width="1" height="1" fill="rgb(245,5,5)"/>
  <rect x="9" y="8" width="1" height="1" fill="rgb(50,50,50)"/>
  <rect x="9" y="9" width="1" height="2" fill="rgb(46,46,46)"/>
  <rect x="9" y="11" width="1" height="1" fill="rgb(50,50,50)"/>
  <rect x="9" y="12" width="1" height="1" fill="rgb(62,62,62)"/>
  <rect x="9" y="13" width="1" height="1" fill="rgb(191,191,191)"/>
  <rect x="9" y="14" width="1" height="1" fill="rgb(54,54,54)" fill-opacity="0.9921875"/>
  <rect x="9" y="15" width="1" height="3" fill="rgb(255,255,255)" fill-opacity="0.2578125"/>
  <rect x="9" y="18" width="1" height="1" fill="rgb(255,152,42)"/>
  <rect x="9" y="19" width="1" height="2" fill="rgb(255,255,255)" fill-opacity="0.0078125"/>
  <rect x="10" y="0" width="1" height="3" fill="rgb(255,255,255)" fill-opacity="0.0078125"/>
  <rect x="10" y="3" width="1" height="1" fill="rgb(51,51,51)" fill-opacity="0.5078125"/>
  <rect x="10" y="4" width="1" height="1" fill="rgb(53,53,53)"/>
  <rect x="10" y="5" width="1" height="1" fill="rgb(219,219,219)"/>
  <rect x="10" y="6" width="1" height="1" fill="rgb(203,203,203)"/>
  <rect x="10" y="7" width="1" height="1" fill="rgb(134,134,134)"/>
  <rect x="10" y="8" width="1" height="1" fill="rgb(167,167,167)"/>
  <rect x="10" y="9" width="1" height="1" fill="rgb(222,222,222)"/>
  <rect x="10" y="10" width="1" height="1" fill="rgb(161,161,161)"/>
  <rect x="10" y="11" width="1" height="1" fill="rgb(133,133,133)"/>
  <rect x="10" y="12" width="1" height="1" fill="rgb(69,69,69)"/>
  <rect x="10" y="13" width="1" height="1" fill="rgb(155,155,155)"/>
  <rect x="10" y="14" width="1" height="1" fill="rgb(54,54,54)" fill-opacity="0.9921875"/>
  <rect x="10" y="15" width="1" height="3" fill="rgb(255,255,255)" fill-opacity="0.2578125"/>
  <rect x="10" y="18" width="1" height="1" fill="rgb(85,44,0)"/>
  <rect x="10" y="19" width="1" height="2" fill="rgb(255,255,255)" fill-opacity="0.0078125"/>
  <rect x="11" y="0" width="1" height="3" fill="rgb(255,255,255)" fill-opacity="0.0078125"/>
  <rect x="11" y="3" width="1" height="1" fill="rgb(64,64,64)" fill-opacity="0.0390625"/>
  <rect x="11" y="4" width="1" height="1" fill="rgb(57,57,57)" fill-opacity="0.9921875"/>
  <rect x="11" y="5" width="1" height="1" fill="rgb(255,255,255)"/>
  <rect x="11" y="6" width="1" height="1" fill="rgb(172,172,172)"/>
  <rect x="11" y="7" width="1" height="1" fill="rgb(203,203,203)"/>
  <rect x="11" y="8" width="1" height="1" fill="rgb(225,225,225)"/>
  <rect x="11" y="9" width="1" height="1" fill="rgb(136,145,159)"/>
  <rect x="11" y="10" width="1" height="1" fill="rgb(70,92,124)"/>
  <rect x="11" y="11" width="1" height="1" fill="rgb(59,65,76)"/>
  <rect x="11" y="12" width="1" height="1" fill="rgb(149,148,149)"/>
  <rect x="11" y="13" width="1" height="1" fill="rgb(114,114,114)"/>
  <rect x="11" y="14" width="1" height="1" fill="rgb(45,45,45)" fill-opacity="0.9921875"/>
  <rect x="11" y="15" width="1" height="3" fill="rgb(255,255,255)" fill-opacity="0.2578125"/>
  <rect x="11" y="18" width="1" height="1" fill="rgb(85,44,0)"/>
  <rect x="11" y="19" width="1" height="2" fill="rgb(255,255,255)" fill-opacity="0.0078125"/>
  <rect x="12" y="0" width="1" height="3" fill="rgb(255,255,255)" fill-opacity="0.0078125"/>
  <rect x="12" y="3" width="1" height="1" fill="rgb(64,64,64)" fill-opacity="0.0390625"/>
  <rect x="12" y="4" width="1" height="1" fill="rgb(57,57,57)" fill-opacity="0.9921875"/>
  <rect x="12" y="5" width="1" height="1" fill="rgb(255,255,255)"/>
  <rect x="12" y="6" width="1" height="1" fill="rgb(158,158,158)"/>
  <rect x="12" y="7" width="1" height="1" fill="rgb(245,245,245)"/>
  <rect x="12" y="8" width="1" height="1" fill="rgb(177,177,177)"/>
  <rect x="12" y="9" width="1" height="1" fill="rgb(61,77,100)"/>
  <rect x="12" y="10" width="1" height="1" fill="rgb(77,80,97)"/>
  <rect x="12" y="11" width="1" height="1" fill="rgb(83,52,55)"/>
  <rect x="12" y="12" width="1" height="1" fill="rgb(108,75,70)"/>
  <rect x="12" y="13" width="1" height="1" fill="rgb(172,172,172)"/>
  <rect x="12" y="14" width="1" height="1" fill="rgb(34,34,34)" fill-opacity="0.9921875"/>
  <rect x="12" y="15" width="1" height="3" fill="rgb(255,255,255)" fill-opacity="0.2578125"/>
  <rect x="12" y="18" width="1" height="1" fill="rgb(255,152,42)"/>
  <rect x="12" y="19" width="1" height="2" fill="rgb(255,255,255)" fill-opacity="0.0078125"/>
  <rect x="13" y="0" width="1" height="3" fill="rgb(255,255,255)" fill-opacity="0.0078125"/>
  <rect x="13" y="3" width="1" height="1" fill="rgb(64,64,64)" fill-opacity="0.0390625"/>
  <rect x="13" y="4" width="1" height="1" fill="rgb(57,57,57)" fill-opacity="0.9921875"/>
  <rect x="13" y="5" width="1" height="1" fill="rgb(255,255,255)"/>
  <rect x="13" y="6" width="1" height="1" fill="rgb(155,155,155)"/>
  <rect x="13" y="7" width="1" height="1" fill="rgb(244,244,244)"/>
  <rect x="13" y="8" width="1" height="1" fill="rgb(176,176,176)"/>
  <rect x="13" y="9" width="1" height="1" fill="rgb(40,45,52)"/>
  <rect x="13" y="10" width="1" height="1" fill="rgb(66,40,40)"/>
  <rect x="13" y="11" width="1" height="1" fill="rgb(115,53,45)"/>
  <rect x="13" y="12" width="1" height="1" fill="rgb(155,94,86)"/>
  <rect x="13" y="13" width="1" height="1" fill="rgb(190,190,190)"/>
  <rect x="13" y="14" width="1" height="1" fill="rgb(28,28,28)"/>
  <rect x="13" y="15" width="1" height="3" fill="rgb(255,255,255)" fill-opacity="0.2578125"/>
  <rect x="13" y="18" width="1" height="1" fill="rgb(255,152,42)"/>
  <rect x="13" y="19" width="1" height="2" fill="rgb(255,255,255)" fill-opacity="0.0078125"/>
  <rect x="14" y="0" width="1" height="3" fill="rgb(255,255,255)" fill-opacity="0.0078125"/>
  <rect x="14" y="3" width="1" height="1" fill="rgb(64,64,64)" fill-opacity="0.0390625"/>
  <rect x="14" y="4" width="1" height="1" fill="rgb(57,57,57)" fill-opacity="0.9921875"/>
  <rect x="14" y="5" width="1" height="1" fill="rgb(255,255,255)"/>
  <rect x="14" y="6" width="1" height="1" fill="rgb(165,165,165)"/>
  <rect x="14" y="7" width="1" height="1" fill="rgb(175,175,175)"/>
  <rect x="14" y="8" width="1" height="1" fill="rgb(188,188,188)"/>
  <rect x="14" y="9" width="1" height="1" fill="rgb(150,150,150)"/>
  <rect x="14" y="10" width="1" height="1" fill="rgb(93,67,63)"/>
  <rect x="14" y="11" width="1" height="1" fill="rgb(150,92,84)"/>
  <rect x="14" y="12" width="1" height="1" fill="rgb(215,195,193)"/>
  <rect x="14" y="13" width="1" height="1" fill="rgb(137,137,137)"/>
  <rect x="14" y="14" width="1" height="1" fill="rgb(34,34,34)" fill-opacity="0.9921875"/>
  <rect x="14" y="15" width="1" height="2" fill="rgb(255,152,42)"/>
  <rect x="14" y="17" width="1" height="2" fill="rgb(85,44,0)"/>
  <rect x="14" y="19" width="1" height="2" fill="rgb(255,255,255)" fill-opacity="0.0078125"/>
  <rect x="15" y="0" width="1" height="3" fill="rgb(255,255,255)" fill-opacity="0.0078125"/>
  <rect x="15" y="3" width="1" height="1" fill="rgb(64,64,64)" fill-opacity="0.0390625"/>
  <rect x="15" y="4" width="1" height="1" fill="rgb(57,57,57)" fill-opacity="0.9921875"/>
  <rect x="15" y="5" width="1" height="1" fill="rgb(245,246,247)"/>
  <rect x="15" y="6" width="1" height="1" fill="rgb(42,51,62)"/>
  <rect x="15" y="7" width="1" height="1" fill="rgb(109,109,109)"/>
  <rect x="15" y="8" width="1" height="1" fill="rgb(92,92,92)"/>
  <rect x="15" y="9" width="1" height="1" fill="rgb(131,131,131)"/>
  <rect x="15" y="10" width="1" height="1" fill="rgb(176,176,176)"/>
  <rect x="15" y="11" width="1" height="1" fill="rgb(188,188,188)"/>
  <rect x="15" y="12" width="1" height="1" fill="rgb(112,112,112)"/>
  <rect x="15" y="13" width="1" height="1" fill="rgb(84,84,84)"/>
  <rect x="15" y="14" width="1" height="1" fill="rgb(46,46,46)" fill-opacity="0.9921875"/>
  <rect x="15" y="15" width="1" height="6" fill="rgb(255,255,255)" fill-opacity="0.0078125"/>
  <rect x="16" y="0" width="1" height="3" fill="rgb(255,255,255)" fill-opacity="0.0078125"/>
  <rect x="16" y="3" width="1" height="1" fill="rgb(64,64,64)" fill-opacity="0.0390625"/>
  <rect x="16" y="4" width="1" height="1" fill="rgb(56,56,56)" fill-opacity="0.9921875"/>
  <rect x="16" y="5" width="1" height="1" fill="rgb(247,247,247)"/>
  <rect x="16" y="6" width="1" height="1" fill="rgb(5,5,5)"/>
  <rect x="16" y="7" width="1" height="1" fill="rgb(127,127,127)"/>
  <rect x="16" y="8" width="1" height="1" fill="rgb(22,22,22)"/>
  <rect x="16" y="9" width="1" height="1" fill="rgb(20,20,20)"/>
  <rect x="16" y="10" width="1" height="1" fill="rgb(16,16,16)"/>
  <rect x="16" y="11" width="1" height="1" fill="rgb(12,12,12)"/>
  <rect x="16" y="12" width="1" height="1" fill="rgb(19,19,19)"/>
  <rect x="16" y="13" width="1" height="1" fill="rgb(141,141,141)"/>
  <rect x="16" y="14" width="1" height="1" fill="rgb(53,53,53)" fill-opacity="0.984375"/>
  <rect x="16" y="15" width="1" height="6" fill="rgb(255,255,255)" fill-opacity="0.0078125"/>
  <rect x="17" y="0" width="1" height="3" fill="rgb(255,255,255)" fill-opacity="0.0078125"/>
  <rect x="17" y="3" width="1" height="1" fill="rgb(0,0,0)" fill-opacity="0.0078125"/>
  <rect x="17" y="4" width="1" height="1" fill="rgb(61,61,61)" fill-opacity="0.9609375"/>
  <rect x="17" y="5" width="1" height="1" fill="rgb(213,213,213)"/>
  <rect x="17" y="6" width="1" height="1" fill="rgb(199,199,199)"/>
  <rect x="17" y="7" width="1" height="1" fill="rgb(162,162,162)"/>
  <rect x="17" y="8" width="1" height="4" fill="rgb(90,90,90)"/>
  <rect x="17" y="12" width="1" height="1" fill="rgb(92,92,92)"/>
  <rect x="17" y="13" width="1" height="1" fill="rgb(131,131,131)"/>
  <rect x="17" y="14" width="1" height="1" fill="rgb(53,53,53)" fill-opacity="0.8828125"/>
  <rect x="17" y="15" width="1" height="6" fill="rgb(255,255,255)" fill-opacity="0.0078125"/>
  <rect x="18" y="0" width="1" height="4" fill="rgb(255,255,255)" fill-opacity="0.0078125"/>
  <rect x="18" y="4" width="1" height="1" fill="rgb(63,63,63)" fill-opacity="0.3515625"/>
  <rect x="18" y="5" width="1" height="1" fill="rgb(61,61,61)" fill-opacity="0.9453125"/>
  <rect x="18" y="6" width="1" height="7" fill="rgb(51,51,51)"/>
  <rect x="18" y="13" width="1" height="1" fill="rgb(53,53,53)" fill-opacity="0.8984375"/>
  <rect x="18" y="14" width="1" height="1" fill="rgb(52,52,52)" fill-opacity="0.2890625"/>
  <rect x="18" y="15" width="1" height="6" fill="rgb(255,255,255)" fill-opacity="0.0078125"/>
  <rect x="19" y="0" width="1" height="21" fill="rgb(255,255,255)" fill-opacity="0.0078125"/>
  <rect x="20" y="0" width="1" height="21" fill="rgb(255,255,255)" fill-opacity="0.0078125"/>
</svg>