<svg xmlns="http://www.w3.org/2000/svg" shape-rendering="crispEdges" width="21" height="21" viewBox="0 0 21 21">
  <rect x="0" y="0" width="1" height="21" fill="rgb(255,255,255)" fill-opacity="0.0078125"/>
  <rect x="1" y="0" width="1" height="21" fill="rgb(255,255,255)" fill-opacity="0.0078125"/>
  <rect x="2" y="0" width="1" height="21" fill="rgb(255,255,255)" fill-opacity="0.0078125"/>
  <rect x="3" y="0" width="1" height="21" fill="rgb(255,255,255)" fill-opacity="0.0078125"/>
  <rect x="4" y="0" width="1" height="6" fill="rgb(255,255,255)" fill-opacity="0.0078125"/>
  <rect x="4" y="6" width="1" height="1" fill="rgb(53,53,53)" fill-opacity="0.25"/>
  <rect x="4" y="7" width="1" height="1" fill="rgb(55,55,55)" fill-opacity="0.890625"/>
  <rect x="4" y="8" width="1" height="1" fill="rgb(43,43,43)" fill-opacity="0.9140625"/>
  <rect x="4" y="9" width="1" height="1" fill="rgb(39,39,39)" fill-opacity="0.921875"/>
  <rect x="4" y="10" width="1" height="4" fill="rgb(35,35,35)" fill-opacity="0.9375"/>
  <rect x="4" y="14" width="1" height="1" fill="rgb(38,38,38)" fill-opacity="0.9296875"/>
  <rect x="4" y="15" width="1" height="1" fill="rgb(38,38,38)" fill-opacity="0.8203125"/>
  <rect x="4" y="16" width="1" height="1" fill="rgb(27,27,27)" fill-opacity="0.2265625"/>
  <rect x="4" y="17" width="1" height="4" fill="rgb(255,255,255)" fill-opacity="0.0078125"/>
  <rect x="5" y="0" width="1" height="5" fill="rgb(255,255,255)" fill-opacity="0.0078125"/>
  <rect x="5" y="5" width="1" height="1" fill="rgb(26,26,26)" fill-opacity="0.4609375"/>
  <rect x="5" y="6" width="1" height="1" fill="rgb(26,26,26)"/>
  <rect x="5" y="7" width="1" height="1" fill="rgb(197,197,197)"/>
  <rect x="5" y="8" width="1" height="1" fill="rgb(223,223,223)"/>
  <rect x="5" y="9" width="1" height="1" fill="rgb(194,194,194)"/>
  <rect x="5" y="10" width="1" height="2" fill="rgb(119,119,119)"/>
  <rect x="5" y="12" width="1" height="2" fill="rgb(118,118,118)"/>
  <rect x="5" y="14" width="1" height="1" fill="rgb(119,119,119)"/>
  <rect x="5" y="15" width="1" height="1" fill="rgb(175,175,175)"/>
  <rect x="5" y="16" width="1" height="1" fill="rgb(38,38,38)" fill-opacity="0.8203125"/>
  <rect x="5" y="17" width="1" height="4" fill="rgb(255,255,255)" fill-opacity="0.0078125"/>
  <rect x="6" y="0" width="1" height="5" fill="rgb(255,255,255)" fill-opacity="0.0078125"/>
  <rect x="6" y="5" width="1" height="1" fill="rgb(26,26,26)" fill-opacity="0.8515625"/>
  <rect x="6" y="6" width="1" height="1" fill="rgb(255,255,255)"/>
  <rect x="6" y="7" width="1" height="1" fill="rgb(168,168,168)"/>
  <rect x="6" y="8" width="1" height="1" fill="rgb(217,217,217)"/>
  <rect x="6" y="9" width="1" height="1" fill="rgb(178,178,178)"/>
  <rect x="6" y="10" width="1" height="4" fill="rgb(66,66,66)"/>
  <rect x="6" y="14" width="1" height="1" fill="rgb(67,67,67)"/>
  <rect x="6" y="15" width="1" height="1" fill="rgb(197,197,197)"/>
  <rect x="6" y="16" width="1" height="1" fill="rgb(41,41,41)" fill-opacity="0.90625"/>
  <rect x="6" y="17" width="1" height="4" fill="rgb(255,255,255)" fill-opacity="0.0078125"/>
  <rect x="7" y="0" width="1" height="5" fill="rgb(255,255,255)" fill-opacity="0.0078125"/>
  <rect x="7" y="5" width="1" height="1" fill="rgb(26,26,26)" fill-opacity="0.8515625"/>
  <rect x="7" y="6" width="1" height="1" fill="rgb(255,255,255)"/>
  <rect x="7" y="7" width="1" height="1" fill="rgb(168,168,168)"/>
  <rect x="7" y="8" width="1" height="1" fill="rgb(214,214,214)"/>
  <rect x="7" y="9" width="1" height="1" fill="rgb(248,0,0)"/>
  <rect x="7" y="10" width="1" height="1" fill="rgb(50,50,50)"/>
  <rect x="7" y="11" width="1" height="2" fill="rgb(46,46,46)"/>
  <rect x="7" y="13" width="1" height="1" fill="rgb(50,50,50)"/>
  <rect x="7" y="14" width="1" height="1" fill="rgb(58,58,58)"/>
  <rect x="7" y="15" width="1" height="1" fill="rgb(194,194,194)"/>
  <rect x="7" y="16" width="1" height="1" fill="rgb(41,41,41)" fill-opacity="0.9140625"/>
  <rect x="7" y="17" width="1" height="4" fill="rgb(255,255,255)" fill-opacity="0.0078125"/>
  <rect x="8" y="0" width="1" height="5" fill="rgb(255,255,255)" fill-opacity="0.0078125"/>
  <rect x="8" y="5" width="1" height="1" fill="rgb(26,26,26)" fill-opacity="0.4609375"/>
  <rect x="8" y="6" width="1" height="1" fill="rgb(26,26,26)"/>
  <rect x="8" y="7" width="1" height="1" fill="rgb(216,216,216)"/>
  <rect x="8" y="8" width="1" height="1" fill="rgb(204,204,204)"/>
  <rect x="8" y="9" width="1" height="1" fill="rgb(135,135,135)"/>
  <rect x="8" y="10" width="1" height="1" fill="rgb(163,163,163)"/>
  <rect x="8" y="11" width="1" height="1" fill="rgb(216,216,216)"/>
  <rect x="8" y="12" width="1" height="1" fill="rgb(167,167,167)"/>
  <rect x="8" y="13" width="1" height="1" fill="rgb(149,149,149)"/>
  <rect x="8" y="14" width="1" height="1" fill="rgb(87,87,87)"/>
  <rect x="8" y="15" width="1" height="1" fill="rgb(155,155,155)"/>
  <rect x="8" y="16" width="1" height="1" fill="rgb(40,40,40)" fill-opacity="0.9140625"/>
  <rect x="8" y="17" width="1" height="4" fill="rgb(255,255,255)" fill-opacity="0.0078125"/>
  <rect x="9" y="0" width="1" height="6" fill="rgb(255,255,255)" fill-opacity="0.0078125"/>
  <rect x="9" y="6" width="1" height="1" fill="rgb(55,55,55)" fill-opacity="0.953125"/>
  <rect x="9" y="7" width="1" height="1" fill="rgb(255,255,255)"/>
  <rect x="9" y="8" width="1" height="1" fill="rgb(174,174,174)"/>
  <rect x="9" y="9" width="1" height="1" fill="rgb(201,201,201)"/>
  <rect x="9" y="10" width="1" height="1" fill="rgb(220,220,220)"/>
  <rect x="9" y="11" width="1" height="1" fill="rgb(148,157,169)"/>
  <rect x="9" y="12" width="1" height="1" fill="rgb(84,106,138)"/>
  <rect x="9" y="13" width="1" height="1" fill="rgb(73,81,93)"/>
  <rect x="9" y="14" width="1" height="1" fill="rgb(159,157,157)"/>
  <rect x="9" y="15" width="1" height="1" fill="rgb(127,127,127)"/>
  <rect x="9" y="16" width="1" height="1" fill="rgb(32,32,32)" fill-opacity="0.9296875"/>
  <rect x="9" y="17" width="1" height="4" fill="rgb(255,255,255)" fill-opacity="0.0078125"/>
  <rect x="10" y="0" width="1" height="6" fill="rgb(255,255,255)" fill-opacity="0.0078125"/>
  <rect x="10" y="6" width="1" height="1" fill="rgb(55,55,55)" fill-opacity="0.953125"/>
  <rect x="10" y="7" width="1" height="1" fill="rgb(255,255,255)"/>
  <rect x="10" y="8" width="1" height="1" fill="rgb(158,158,158)"/>
  <rect x="10" y="9" width="1" height="1" fill="rgb(244,244,244)"/>
  <rect x="10" y="10" width="1" height="1" fill="rgb(179,179,179)"/>
  <rect x="10" y="11" width="1" height="1" fill="rgb(73,89,110)"/>
  <rect x="10" y="12" width="1" height="1" fill="rgb(77,82,100)"/>
  <rect x="10" y="13" width="1" height="1" fill="rgb(82,52,54)"/>
  <rect x="10" y="14" width="1" height="1" fill="rgb(116,81,76)"/>
  <rect x="10" y="15" width="1" height="1" fill="rgb(185,185,185)"/>
  <rect x="10" y="16" width="1" height="1" fill="rgb(23,23,23)" fill-opacity="0.9453125"/>
  <rect x="10" y="17" width="1" height="4" fill="rgb(255,255,255)" fill-opacity="0.0078125"/>
  <rect x="11" y="0" width="1" height="6" fill="rgb(255,255,255)" fill-opacity="0.0078125"/>
  <rect x="11" y="6" width="1" height="1" fill="rgb(55,55,55)" fill-opacity="0.953125"/>
  <rect x="11" y="7" width="1" height="1" fill="rgb(255,255,255)"/>
  <rect x="11" y="8" width="1" height="1" fill="rgb(156,156,156)"/>
  <rect x="11" y="9" width="1" height="1" fill="rgb(243,243,243)"/>
  <rect x="11" y="10" width="1" height="1" fill="rgb(178,178,178)"/>
  <rect x="11" y="11" width="1" height="1" fill="rgb(58,62,69)"/>
  <rect x="11" y="12" width="1" height="1" fill="rgb(65,40,42)"/>
  <rect x="11" y="13" width="1" height="1" fill="rgb(113,52,44)"/>
  <rect x="11" y="14" width="1" height="1" fill="rgb(162,98,89)"/>
  <rect x="11" y="15" width="1" height="1" fill="rgb(202,202,202)"/>
  <rect x="11" y="16" width="1" height="1" fill="rgb(19,19,19)" fill-opacity="0.953125"/>
  <rect x="11" y="17" width="1" height="4" fill="rgb(255,255,255)" fill-opacity="0.0078125"/>
  <rect x="12" y="0" width="1" height="6" fill="rgb(255,255,255)" fill-opacity="0.0078125"/>
  <rect x="12" y="6" width="1" height="1" fill="rgb(54,54,54)" fill-opacity="0.953125"/>
  <rect x="12" y="7" width="1" height="1" fill="rgb(255,255,255)"/>
  <rect x="12" y="8" width="1" height="1" fill="rgb(166,166,166)"/>
  <rect x="12" y="9" width="1" height="1" fill="rgb(174,174,174)"/>
  <rect x="12" y="10" width="1" height="1" fill="rgb(186,186,186)"/>
  <rect x="12" y="11" width="1" height="1" fill="rgb(163,163,163)"/>
  <rect x="12" y="12" width="1" height="1" fill="rgb(106,81,78)"/>
  <rect x="12" y="13" width="1" height="1" fill="rgb(157,99,91)"/>
  <rect x="12" y="14" width="1" height="1" fill="rgb(217,196,194)"/>
  <rect x="12" y="15" width="1" height="1" fill="rgb(154,154,154)"/>
  <rect x="12" y="16" width="1" height="1" fill="rgb(22,22,22)" fill-opacity="0.9453125"/>
  <rect x="12" y="17" width="1" height="4" fill="rgb(255,255,255)" fill-opacity="0.0078125"/>
  <rect x="13" y="0" width="1" height="6" fill="rgb(255,255,255)" fill-opacity="0.0078125"/>
  <rect x="13" y="6" width="1" height="1" fill="rgb(54,54,54)" fill-opacity="0.953125"/>
  <rect x="13" y="7" width="1" height="1" fill="rgb(255,255,255)"/>
  <rect x="13" y="8" width="1" height="1" fill="rgb(42,51,65)"/>
  <rect x="13" y="9" width="1" height="1" fill="rgb(111,111,111)"/>
  <rect x="13" y="10" width="1" height="1" fill="rgb(92,92,92)"/>
  <rect x="13" y="11" width="1" height="1" fill="rgb(139,139,139)"/>
  <rect x="13" y="12" width="1" height="1" fill="rgb(184,184,184)"/>
  <rect x="13" y="13" width="1" height="1" fill="rgb(199,199,199)"/>
  <rect x="13" y="14" width="1" height="1" fill="rgb(129,129,129)"/>
  <rect x="13" y="15" width="1" height="1" fill="rgb(88,88,88)"/>
  <rect x="13" y="16" width="1" height="1" fill="rgb(31,31,31)" fill-opacity="0.9296875"/>
  <rect x="13" y="17" width="1" height="4" fill="rgb(255,255,255)" fill-opacity="0.0078125"/>
  <rect x="14" y="0" width="1" height="6" fill="rgb(255,255,255)" fill-opacity="0.0078125"/>
  <rect x="14" y="6" width="1" height="1" fill="rgb(54,54,54)" fill-opacity="0.953125"/>
  <rect x="14" y="7" width="1" height="1" fill="rgb(255,255,255)"/>
  <rect x="14" y="8" width="1" height="1" fill="rgb(0,0,0)"/>
  <rect x="14" y="9" width="1" height="1" fill="rgb(130,130,130)"/>
  <rect x="14" y="10" width="1" height="1" fill="rgb(22,22,22)"/>
  <rect x="14" y="11" width="1" height="1" fill="rgb(20,20,20)"/>
  <rect x="14" y="12" width="1" height="1" fill="rgb(16,16,16)"/>
  <rect x="14" y="13" width="1" height="1" fill="rgb(12,12,12)"/>
  <rect x="14" y="14" width="1" height="1" fill="rgb(15,15,15)"/>
  <rect x="14" y="15" width="1" height="1" fill="rgb(141,141,141)"/>
  <rect x="14" y="16" width="1" height="1" fill="rgb(36,36,36)" fill-opacity="0.90625"/>
  <rect x="14" y="17" width="1" height="4" fill="rgb(255,255,255)" fill-opacity="0.0078125"/>
  <rect x="15" y="0" width="1" height="6" fill="rgb(255,255,255)" fill-opacity="0.0078125"/>
  <rect x="15" y="6" width="1" height="1" fill="rgb(54,54,54)" fill-opacity="0.890625"/>
  <rect x="15" y="7" width="1" height="1" fill="rgb(225,225,225)"/>
  <rect x="15" y="8" width="1" height="1" fill="rgb(200,200,200)"/>
  <rect x="15" y="9" width="1" height="1" fill="rgb(157,157,157)"/>
  <rect x="15" y="10" width="1" height="4" fill="rgb(89,89,89)"/>
  <rect x="15" y="14" width="1" height="1" fill="rgb(90,90,90)"/>
  <rect x="15" y="15" width="1" height="1" fill="rgb(139,139,139)"/>
  <rect x="15" y="16" width="1" height="1" fill="rgb(34,34,34)" fill-opacity="0.8203125"/>
  <rect x="15" y="17" width="1" height="4" fill="rgb(255,255,255)" fill-opacity="0.0078125"/>
  <rect x="16" y="0" width="1" height="6" fill="rgb(255,255,255)" fill-opacity="0.0078125"/>
  <rect x="16" y="6" width="1" height="1" fill="rgb(53,53,53)" fill-opacity="0.25"/>
  <rect x="16" y="7" width="1" height="1" fill="rgb(53,53,53)" fill-opacity="0.890625"/>
  <rect x="16" y="8" width="1" height="1" fill="rgb(37,37,37)" fill-opacity="0.9140625"/>
  <rect x="16" y="9" width="1" height="1" fill="rgb(32,32,32)" fill-opacity="0.9296875"/>
  <rect x="16" y="10" width="1" height="4" fill="rgb(28,28,28)" fill-opacity="0.953125"/>
  <rect x="16" y="14" width="1" height="1" fill="rgb(31,31,31)" fill-opacity="0.9375"/>
  <rect x="16" y="15" width="1" height="1" fill="rgb(33,33,33)" fill-opacity="0.8203125"/>
  <rect x="16" y="16" width="1" height="1" fill="rgb(27,27,27)" fill-opacity="0.2265625"/>
  <rect x="16" y="17" width="1" height="4" fill="rgb(255,255,255)" fill-opacity="0.0078125"/>
  <rect x="17" y="0" width="1" height="21" fill="rgb(255,255,255)" fill-opacity="0.0078125"/>
  <rect x="18" y="0" width="1" height="21" fill="rgb(255,255,255)" fill-opacity="0.0078125"/>
  <rect x="19" y="0" width="1" height="21" fill="rgb(255,255,255)" fill-opacity="0.0078125"/>
  <rect x="20" y="0" width="1" height="21" fill="rgb(255,255,255)" fill-opacity="0.0078125"/>
</svg>