<svg xmlns="http://www.w3.org/2000/svg" shape-rendering="crispEdges" width="21" height="21" viewBox="0 0 21 21">
  <rect x="0" y="0" width="1" height="21" fill="rgb(255,255,255)" fill-opacity="0.0078125"/>
  <rect x="1" y="0" width="1" height="21" fill="rgb(255,255,255)" fill-opacity="0.0078125"/>
  <rect x="2" y="0" width="1" height="21" fill="rgb(255,255,255)" fill-opacity="0.0078125"/>
  <rect x="3" y="0" width="1" height="9" fill="rgb(255,255,255)" fill-opacity="0.0078125"/>
  <rect x="3" y="9" width="1" height="1" fill="rgb(0,0,0)" fill-opacity="0.015625"/>
  <rect x="3" y="10" width="1" height="2" fill="rgb(81,74,22)" fill-opacity="0.5625"/>
  <rect x="3" y="12" width="1" height="1" fill="rgb(0,0,0)" fill-opacity="0.015625"/>
  <rect x="3" y="13" width="1" height="8" fill="rgb(255,255,255)" fill-opacity="0.0078125"/>
  <rect x="4" y="0" width="1" height="9" fill="rgb(255,255,255)" fill-opacity="0.0078125"/>
  <rect x="4" y="9" width="1" height="1" fill="rgb(75,68,17)" fill-opacity="0.296875"/>
  <rect x="4" y="10" width="1" height="2" fill="rgb(159,152,71)" fill-opacity="0.5703125"/>
  <rect x="4" y="12" width="1" height="1" fill="rgb(75,68,17)" fill-opacity="0.296875"/>
  <rect x="4" y="13" width="1" height="8" fill="rgb(255,255,255)" fill-opacity="0.0078125"/>
  <rect x="5" y="0" width="1" height="5" fill="rgb(255,255,255)" fill-opacity="0.0078125"/>
  <rect x="5" y="5" width="1" height="1" fill="rgb(80,75,20)" fill-opacity="0.515625"/>
  <rect x="5" y="6" width="1" height="1" fill="rgb(87,78,24)" fill-opacity="0.59375"/>
  <rect x="5" y="7" width="1" height="1" fill="rgb(76,71,16)" fill-opacity="0.375"/>
  <rect x="5" y="8" width="1" height="1" fill="rgb(55,55,18)" fill-opacity="0.0625"/>
  <rect x="5" y="9" width="1" height="1" fill="rgb(86,78,24)" fill-opacity="0.6171875"/>
  <rect x="5" y="10" width="1" height="2" fill="rgb(251,238,124)" fill-opacity="0.4765625"/>
  <rect x="5" y="12" width="1" height="1" fill="rgb(86,78,24)" fill-opacity="0.6171875"/>
  <rect x="5" y="13" width="1" height="1" fill="rgb(55,55,18)" fill-opacity="0.0625"/>
  <rect x="5" y="14" width="1" height="1" fill="rgb(76,71,16)" fill-opacity="0.375"/>
  <rect x="5" y="15" width="1" height="1" fill="rgb(87,78,24)" fill-opacity="0.59375"/>
  <rect x="5" y="16" width="1" height="1" fill="rgb(80,75,20)" fill-opacity="0.515625"/>
  <rect x="5" y="17" width="1" height="4" fill="rgb(255,255,255)" fill-opacity="0.0078125"/>
  <rect x="6" y="0" width="1" height="5" fill="rgb(255,255,255)" fill-opacity="0.0078125"/>
  <rect x="6" y="5" width="1" height="1" fill="rgb(87,78,24)" fill-opacity="0.59375"/>
  <rect x="6" y="6" width="1" height="1" fill="rgb(255,242,128)" fill-opacity="0.4765625"/>
  <rect x="6" y="7" width="1" height="1" fill="rgb(192,182,89)" fill-opacity="0.5390625"/>
  <rect x="6" y="8" width="1" height="1" fill="rgb(120,113,56)" fill-opacity="0.640625"/>
  <rect x="6" y="9" width="1" height="1" fill="rgb(201,192,125)" fill-opacity="0.6484375"/>
  <rect x="6" y="10" width="1" height="2" fill="rgb(255,244,166)" fill-opacity="0.625"/>
  <rect x="6" y="12" width="1" height="1" fill="rgb(201,192,125)" fill-opacity="0.6484375"/>
  <rect x="6" y="13" width="1" height="1" fill="rgb(120,113,56)" fill-opacity="0.640625"/>
  <rect x="6" y="14" width="1" height="1" fill="rgb(192,182,89)" fill-opacity="0.5390625"/>
  <rect x="6" y="15" width="1" height="1" fill="rgb(255,242,128)" fill-opacity="0.4765625"/>
  <rect x="6" y="16" width="1" height="1" fill="rgb(87,78,24)" fill-opacity="0.59375"/>
  <rect x="6" y="17" width="1" height="4" fill="rgb(255,255,255)" fill-opacity="0.0078125"/>
  <rect x="7" y="0" width="1" height="5" fill="rgb(255,255,255)" fill-opacity="0.0078125"/>
  <rect x="7" y="5" width="1" height="1" fill="rgb(76,71,16)" fill-opacity="0.375"/>
  <rect x="7" y="6" width="1" height="1" fill="rgb(192,182,89)" fill-opacity="0.5390625"/>
  <rect x="7" y="7" width="1" height="1" fill="rgb(255,242,152)" fill-opacity="0.5546875"/>
  <rect x="7" y="8" width="1" height="1" fill="rgb(240,227,151)" fill-opacity="0.65625"/>
  <rect x="7" y="9" width="1" height="1" fill="rgb(141,133,50)" fill-opacity="0.8671875"/>
  <rect x="7" y="10" width="1" height="2" fill="rgb(109,98,14)" fill-opacity="0.9609375"/>
  <rect x="7" y="12" width="1" height="1" fill="rgb(141,133,50)" fill-opacity="0.8671875"/>
  <rect x="7" y="13" width="1" height="1" fill="rgb(240,227,151)" fill-opacity="0.65625"/>
  <rect x="7" y="14" width="1" height="1" fill="rgb(255,242,152)" fill-opacity="0.5546875"/>
  <rect x="7" y="15" width="1" height="1" fill="rgb(192,182,89)" fill-opacity="0.5390625"/>
  <rect x="7" y="16" width="1" height="1" fill="rgb(76,71,16)" fill-opacity="0.375"/>
  <rect x="7" y="17" width="1" height="4" fill="rgb(255,255,255)" fill-opacity="0.0078125"/>
  <rect x="8" y="0" width="1" height="5" fill="rgb(255,255,255)" fill-opacity="0.0078125"/>
  <rect x="8" y="5" width="1" height="1" fill="rgb(55,55,18)" fill-opacity="0.0625"/>
  <rect x="8" y="6" width="1" height="1" fill="rgb(120,113,56)" fill-opacity="0.640625"/>
  <rect x="8" y="7" width="1" height="1" fill="rgb(240,227,151)" fill-opacity="0.65625"/>
  <rect x="8" y="8" width="1" height="1" fill="rgb(130,120,22)" fill-opacity="0.96875"/>
  <rect x="8" y="9" width="1" height="1" fill="rgb(232,219,94)"/>
  <rect x="8" y="10" width="1" height="1" fill="rgb(251,237,112)"/>
  <rect x="8" y="11" width="1" height="1" fill="rgb(236,214,25)"/>
  <rect x="8" y="12" width="1" height="1" fill="rgb(176,158,3)" fill-opacity="0.9921875"/>
  <rect x="8" y="13" width="1" height="1" fill="rgb(109,99,15)" fill-opacity="0.9609375"/>
  <rect x="8" y="14" width="1" height="1" fill="rgb(240,227,151)" fill-opacity="0.65625"/>
  <rect x="8" y="15" width="1" height="1" fill="rgb(120,113,56)" fill-opacity="0.640625"/>
  <rect x="8" y="16" width="1" height="1" fill="rgb(55,55,18)" fill-opacity="0.0625"/>
  <rect x="8" y="17" width="1" height="4" fill="rgb(255,255,255)" fill-opacity="0.0078125"/>
  <rect x="9" y="0" width="1" height="3" fill="rgb(255,255,255)" fill-opacity="0.0078125"/>
  <rect x="9" y="3" width="1" height="1" fill="rgb(0,0,0)" fill-opacity="0.015625"/>
  <rect x="9" y="4" width="1" height="1" fill="rgb(75,68,17)" fill-opacity="0.296875"/>
  <rect x="9" y="5" width="1" height="1" fill="rgb(86,78,24)" fill-opacity="0.6171875"/>
  <rect x="9" y="6" width="1" height="1" fill="rgb(201,192,125)" fill-opacity="0.6484375"/>
  <rect x="9" y="7" width="1" height="1" fill="rgb(141,133,50)" fill-opacity="0.8671875"/>
  <rect x="9" y="8" width="1" height="1" fill="rgb(232,219,94)"/>
  <rect x="9" y="9" width="1" height="2" fill="rgb(255,254,249)"/>
  <rect x="9" y="11" width="1" height="1" fill="rgb(254,243,141)"/>
  <rect x="9" y="12" width="1" height="1" fill="rgb(235,211,0)"/>
  <rect x="9" y="13" width="1" height="1" fill="rgb(167,150,3)" fill-opacity="0.9921875"/>
  <rect x="9" y="14" width="1" height="1" fill="rgb(141,133,50)" fill-opacity="0.8671875"/>
  <rect x="9" y="15" width="1" height="1" fill="rgb(201,192,125)" fill-opacity="0.6484375"/>
  <rect x="9" y="16" width="1" height="1" fill="rgb(86,78,24)" fill-opacity="0.6171875"/>
  <rect x="9" y="17" width="1" height="1" fill="rgb(75,68,17)" fill-opacity="0.296875"/>
  <rect x="9" y="18" width="1" height="1" fill="rgb(0,0,0)" fill-opacity="0.015625"/>
  <rect x="9" y="19" width="1" height="2" fill="rgb(255,255,255)" fill-opacity="0.0078125"/>
  <rect x="10" y="0" width="1" height="3" fill="rgb(255,255,255)" fill-opacity="0.0078125"/>
  <rect x="10" y="3" width="1" height="1" fill="rgb(81,74,22)" fill-opacity="0.5625"/>
  <rect x="10" y="4" width="1" height="1" fill="rgb(159,152,71)" fill-opacity="0.5703125"/>
  <rect x="10" y="5" width="1" height="1" fill="rgb(251,238,124)" fill-opacity="0.4765625"/>
  <rect x="10" y="6" width="1" height="1" fill="rgb(255,244,166)" fill-opacity="0.625"/>
  <rect x="10" y="7" width="1" height="1" fill="rgb(109,98,14)" fill-opacity="0.9609375"/>
  <rect x="10" y="8" width="1" height="1" fill="rgb(251,237,112)"/>
  <rect x="10" y="9" width="1" height="2" fill="rgb(255,254,249)"/>
  <rect x="10" y="11" width="1" height="1" fill="rgb(254,246,160)"/>
  <rect x="10" y="12" width="1" height="1" fill="rgb(247,221,0)"/>
  <rect x="10" y="13" width="1" height="1" fill="rgb(209,187,0)"/>
  <rect x="10" y="14" width="1" height="1" fill="rgb(109,98,14)" fill-opacity="0.9609375"/>
  <rect x="10" y="15" width="1" height="1" fill="rgb(255,244,166)" fill-opacity="0.625"/>
  <rect x="10" y="16" width="1" height="1" fill="rgb(251,238,124)" fill-opacity="0.4765625"/>
  <rect x="10" y="17" width="1" height="1" fill="rgb(159,152,71)" fill-opacity="0.5703125"/>
  <rect x="10" y="18" width="1" height="1" fill="rgb(81,74,22)" fill-opacity="0.5625"/>
  <rect x="10" y="19" width="1" height="2" fill="rgb(255,255,255)" fill-opacity="0.0078125"/>
  <rect x="11" y="0" width="1" height="3" fill="rgb(255,255,255)" fill-opacity="0.0078125"/>
  <rect x="11" y="3" width="1" height="1" fill="rgb(81,74,22)" fill-opacity="0.5625"/>
  <rect x="11" y="4" width="1" height="1" fill="rgb(159,152,71)" fill-opacity="0.5703125"/>
  <rect x="11" y="5" width="1" height="1" fill="rgb(251,238,124)" fill-opacity="0.4765625"/>
  <rect x="11" y="6" width="1" height="1" fill="rgb(255,244,166)" fill-opacity="0.625"/>
  <rect x="11" y="7" width="1" height="1" fill="rgb(109,98,14)" fill-opacity="0.9609375"/>
  <rect x="11" y="8" width="1" height="1" fill="rgb(236,214,25)"/>
  <rect x="11" y="9" width="1" height="1" fill="rgb(254,243,141)"/>
  <rect x="11" y="10" width="1" height="1" fill="rgb(254,246,160)"/>
  <rect x="11" y="11" width="1" height="1" fill="rgb(252,231,53)"/>
  <rect x="11" y="12" width="1" height="1" fill="rgb(235,211,0)"/>
  <rect x="11" y="13" width="1" height="1" fill="rgb(209,187,0)"/>
  <rect x="11" y="14" width="1" height="1" fill="rgb(109,98,14)" fill-opacity="0.9609375"/>
  <rect x="11" y="15" width="1" height="1" fill="rgb(255,244,166)" fill-opacity="0.625"/>
  <rect x="11" y="16" width="1" height="1" fill="rgb(251,238,124)" fill-opacity="0.4765625"/>
  <rect x="11" y="17" width="1" height="1" fill="rgb(159,152,71)" fill-opacity="0.5703125"/>
  <rect x="11" y="18" width="1" height="1" fill="rgb(81,74,22)" fill-opacity="0.5625"/>
  <rect x="11" y="19" width="1" height="2" fill="rgb(255,255,255)" fill-opacity="0.0078125"/>
  <rect x="12" y="0" width="1" height="3" fill="rgb(255,255,255)" fill-opacity="0.0078125"/>
  <rect x="12" y="3" width="1" height="1" fill="rgb(0,0,0)" fill-opacity="0.015625"/>
  <rect x="12" y="4" width="1" height="1" fill="rgb(75,68,17)" fill-opacity="0.296875"/>
  <rect x="12" y="5" width="1" height="1" fill="rgb(86,78,24)" fill-opacity="0.6171875"/>
  <rect x="12" y="6" width="1" height="1" fill="rgb(201,192,125)" fill-opacity="0.6484375"/>
  <rect x="12" y="7" width="1" height="1" fill="rgb(141,133,50)" fill-opacity="0.8671875"/>
  <rect x="12" y="8" width="1" height="1" fill="rgb(176,158,3)" fill-opacity="0.9921875"/>
  <rect x="12" y="9" width="1" height="1" fill="rgb(235,211,0)"/>
  <rect x="12" y="10" width="1" height="1" fill="rgb(247,221,0)"/>
  <rect x="12" y="11" width="1" height="1" fill="rgb(235,211,0)"/>
  <rect x="12" y="12" width="1" height="1" fill="rgb(216,194,0)"/>
  <rect x="12" y="13" width="1" height="1" fill="rgb(167,150,3)" fill-opacity="0.9921875"/>
  <rect x="12" y="14" width="1" height="1" fill="rgb(141,133,50)" fill-opacity="0.8671875"/>
  <rect x="12" y="15" width="1" height="1" fill="rgb(201,192,125)" fill-opacity="0.6484375"/>
  <rect x="12" y="16" width="1" height="1" fill="rgb(86,78,24)" fill-opacity="0.6171875"/>
  <rect x="12" y="17" width="1" height="1" fill="rgb(75,68,17)" fill-opacity="0.296875"/>
  <rect x="12" y="18" width="1" height="1" fill="rgb(0,0,0)" fill-opacity="0.015625"/>
  <rect x="12" y="19" width="1" height="2" fill="rgb(255,255,255)" fill-opacity="0.0078125"/>
  <rect x="13" y="0" width="1" height="5" fill="rgb(255,255,255)" fill-opacity="0.0078125"/>
  <rect x="13" y="5" width="1" height="1" fill="rgb(55,55,18)" fill-opacity="0.0625"/>
  <rect x="13" y="6" width="1" height="1" fill="rgb(120,113,56)" fill-opacity="0.640625"/>
  <rect x="13" y="7" width="1" height="1" fill="rgb(240,227,151)" fill-opacity="0.65625"/>
  <rect x="13" y="8" width="1" height="1" fill="rgb(109,99,15)" fill-opacity="0.9609375"/>
  <rect x="13" y="9" width="1" height="1" fill="rgb(167,150,3)" fill-opacity="0.9921875"/>
  <rect x="13" y="10" width="1" height="2" fill="rgb(209,187,0)"/>
  <rect x="13" y="12" width="1" height="1" fill="rgb(167,150,3)" fill-opacity="0.9921875"/>
  <rect x="13" y="13" width="1" height="1" fill="rgb(109,99,15)" fill-opacity="0.9609375"/>
  <rect x="13" y="14" width="1" height="1" fill="rgb(240,227,151)" fill-opacity="0.65625"/>
  <rect x="13" y="15" width="1" height="1" fill="rgb(120,113,56)" fill-opacity="0.640625"/>
  <rect x="13" y="16" width="1" height="1" fill="rgb(55,55,18)" fill-opacity="0.0625"/>
  <rect x="13" y="17" width="1" height="4" fill="rgb(255,255,255)" fill-opacity="0.0078125"/>
  <rect x="14" y="0" width="1" height="5" fill="rgb(255,255,255)" fill-opacity="0.0078125"/>
  <rect x="14" y="5" width="1" height="1" fill="rgb(76,71,16)" fill-opacity="0.375"/>
  <rect x="14" y="6" width="1" height="1" fill="rgb(192,182,89)" fill-opacity="0.5390625"/>
  <rect x="14" y="7" width="1" height="1" fill="rgb(255,242,152)" fill-opacity="0.5546875"/>
  <rect x="14" y="8" width="1" height="1" fill="rgb(240,227,151)" fill-opacity="0.65625"/>
  <rect x="14" y="9" width="1" height="1" fill="rgb(141,133,50)" fill-opacity="0.8671875"/>
  <rect x="14" y="10" width="1" height="2" fill="rgb(109,98,14)" fill-opacity="0.9609375"/>
  <rect x="14" y="12" width="1" height="1" fill="rgb(141,133,50)" fill-opacity="0.8671875"/>
  <rect x="14" y="13" width="1" height="1" fill="rgb(240,227,151)" fill-opacity="0.65625"/>
  <rect x="14" y="14" width="1" height="1" fill="rgb(255,242,152)" fill-opacity="0.5546875"/>
  <rect x="14" y="15" width="1" height="1" fill="rgb(192,182,89)" fill-opacity="0.5390625"/>
  <rect x="14" y="16" width="1" height="1" fill="rgb(76,71,16)" fill-opacity="0.375"/>
  <rect x="14" y="17" width="1" height="4" fill="rgb(255,255,255)" fill-opacity="0.0078125"/>
  <rect x="15" y="0" width="1" height="5" fill="rgb(255,255,255)" fill-opacity="0.0078125"/>
  <rect x="15" y="5" width="1" height="1" fill="rgb(87,78,24)" fill-opacity="0.59375"/>
  <rect x="15" y="6" width="1" height="1" fill="rgb(255,242,128)" fill-opacity="0.4765625"/>
  <rect x="15" y="7" width="1" height="1" fill="rgb(192,182,89)" fill-opacity="0.5390625"/>
  <rect x="15" y="8" width="1" height="1" fill="rgb(120,113,56)" fill-opacity="0.640625"/>
  <rect x="15" y="9" width="1" height="1" fill="rgb(201,192,125)" fill-opacity="0.6484375"/>
  <rect x="15" y="10" width="1" height="2" fill="rgb(255,244,166)" fill-opacity="0.625"/>
  <rect x="15" y="12" width="1" height="1" fill="rgb(201,192,125)" fill-opacity="0.6484375"/>
  <rect x="15" y="13" width="1" height="1" fill="rgb(120,113,56)" fill-opacity="0.640625"/>
  <rect x="15" y="14" width="1" height="1" fill="rgb(192,182,89)" fill-opacity="0.5390625"/>
  <rect x="15" y="15" width="1" height="1" fill="rgb(255,242,128)" fill-opacity="0.4765625"/>
  <rect x="15" y="16" width="1" height="1" fill="rgb(87,78,24)" fill-opacity="0.59375"/>
  <rect x="15" y="17" width="1" height="4" fill="rgb(255,255,255)" fill-opacity="0.0078125"/>
  <rect x="16" y="0" width="1" height="5" fill="rgb(255,255,255)" fill-opacity="0.0078125"/>
  <rect x="16" y="5" width="1" height="1" fill="rgb(80,75,20)" fill-opacity="0.515625"/>
  <rect x="16" y="6" width="1" height="1" fill="rgb(87,78,24)" fill-opacity="0.59375"/>
  <rect x="16" y="7" width="1" height="1" fill="rgb(76,71,16)" fill-opacity="0.375"/>
  <rect x="16" y="8" width="1" height="1" fill="rgb(55,55,18)" fill-opacity="0.0625"/>
  <rect x="16" y="9" width="1" height="1" fill="rgb(86,78,24)" fill-opacity="0.6171875"/>
  <rect x="16" y="10" width="1" height="2" fill="rgb(251,238,124)" fill-opacity="0.4765625"/>
  <rect x="16" y="12" width="1" height="1" fill="rgb(86,78,24)" fill-opacity="0.6171875"/>
  <rect x="16" y="13" width="1" height="1" fill="rgb(55,55,18)" fill-opacity="0.0625"/>
  <rect x="16" y="14" width="1" height="1" fill="rgb(76,71,16)" fill-opacity="0.375"/>
  <rect x="16" y="15" width="1" height="1" fill="rgb(87,78,24)" fill-opacity="0.59375"/>
  <rect x="16" y="16" width="1" height="1" fill="rgb(80,75,20)" fill-opacity="0.515625"/>
  <rect x="16" y="17" width="1" height="4" fill="rgb(255,255,255)" fill-opacity="0.0078125"/>
  <rect x="17" y="0" width="1" height="9" fill="rgb(255,255,255)" fill-opacity="0.0078125"/>
  <rect x="17" y="9" width="1" height="1" fill="rgb(75,68,17)" fill-opacity="0.296875"/>
  <rect x="17" y="10" width="1" height="2" fill="rgb(159,152,71)" fill-opacity="0.5703125"/>
  <rect x="17" y="12" width="1" height="1" fill="rgb(75,68,17)" fill-opacity="0.296875"/>
  <rect x="17" y="13" width="1" height="8" fill="rgb(255,255,255)" fill-opacity="0.0078125"/>
  <rect x="18" y="0" width="1" height="9" fill="rgb(255,255,255)" fill-opacity="0.0078125"/>
  <rect x="18" y="9" width="1" height="1" fill="rgb(0,0,0)" fill-opacity="0.015625"/>
  <rect x="18" y="10" width="1" height="2" fill="rgb(81,74,22)" fill-opacity="0.5625"/>
  <rect x="18" y="12" width="1" height="1" fill="rgb(0,0,0)" fill-opacity="0.015625"/>
  <rect x="18" y="13" width="1" height="8" fill="rgb(255,255,255)" fill-opacity="0.0078125"/>
  <rect x="19" y="0" width="1" height="21" fill="rgb(255,255,255)" fill-opacity="0.0078125"/>
  <rect x="20" y="0" width="1" height="21" fill="rgb(255,255,255)" fill-opacity="0.0078125"/>
</svg>