<svg xmlns="http://www.w3.org/2000/svg" shape-rendering="crispEdges" width="21" height="21" viewBox="0 0 21 21">
  <rect x="0" y="0" width="21" height="1" fill="rgb(255,255,255)" fill-opacity="0.0078125"/>
  <rect x="0" y="1" width="21" height="1" fill="rgb(255,255,255)" fill-opacity="0.0078125"/>
  <rect x="0" y="2" width="21" height="1" fill="rgb(255,255,255)" fill-opacity="0.0078125"/>
  <rect x="0" y="3" width="21" height="1" fill="rgb(255,255,255)" fill-opacity="0.0078125"/>
  <rect x="0" y="4" width="11" height="1" fill="rgb(255,255,255)" fill-opacity="0.0078125"/>
  <rect x="11" y="4" width="1" height="1" fill="rgb(0,0,0)" fill-opacity="0.015625"/>
  <rect x="12" y="4" width="1" height="1" fill="rgb(10,23,41)" fill-opacity="0.390625"/>
  <rect x="13" y="4" width="1" height="1" fill="rgb(20,32,50)" fill-opacity="0.84375"/>
  <rect x="14" y="4" width="1" height="1" fill="rgb(59,73,93)"/>
  <rect x="15" y="4" width="1" height="1" fill="rgb(25,38,56)" fill-opacity="0.84375"/>
  <rect x="16" y="4" width="1" height="1" fill="rgb(10,23,40)" fill-opacity="0.3984375"/>
  <rect x="17" y="4" width="1" height="1" fill="rgb(0,0,0)" fill-opacity="0.015625"/>
  <rect x="18" y="4" width="3" height="1" fill="rgb(255,255,255)" fill-opacity="0.0078125"/>
  <rect x="0" y="5" width="10" height="1" fill="rgb(255,255,255)" fill-opacity="0.0078125"/>
  <rect x="10" y="5" width="1" height="1" fill="rgb(0,0,64)" fill-opacity="0.0234375"/>
  <rect x="11" y="5" width="1" height="1" fill="rgb(12,24,42)" fill-opacity="0.671875"/>
  <rect x="12" y="5" width="1" height="1" fill="rgb(91,109,137)"/>
  <rect x="13" y="5" width="1" height="1" fill="rgb(174,194,227)"/>
  <rect x="14" y="5" width="1" height="1" fill="rgb(193,212,242)"/>
  <rect x="15" y="5" width="1" height="1" fill="rgb(186,206,234)"/>
  <rect x="16" y="5" width="1" height="1" fill="rgb(118,134,159)"/>
  <rect x="17" y="5" width="1" height="1" fill="rgb(13,25,41)" fill-opacity="0.6328125"/>
  <rect x="18" y="5" width="1" height="1" fill="rgb(0,0,0)" fill-opacity="0.0078125"/>
  <rect x="19" y="5" width="2" height="1" fill="rgb(255,255,255)" fill-opacity="0.0078125"/>
  <rect x="0" y="6" width="9" height="1" fill="rgb(255,255,255)" fill-opacity="0.0078125"/>
  <rect x="9" y="6" width="1" height="1" fill="rgb(0,0,0)" fill-opacity="0.015625"/>
  <rect x="10" y="6" width="1" height="1" fill="rgb(11,24,41)" fill-opacity="0.6640625"/>
  <rect x="11" y="6" width="1" height="1" fill="rgb(76,100,134)"/>
  <rect x="12" y="6" width="1" height="1" fill="rgb(138,166,208)"/>
  <rect x="13" y="6" width="1" height="1" fill="rgb(138,160,193)"/>
  <rect x="14" y="6" width="1" height="1" fill="rgb(100,116,140)"/>
  <rect x="15" y="6" width="1" height="1" fill="rgb(168,186,214)"/>
  <rect x="16" y="6" width="1" height="1" fill="rgb(193,212,242)"/>
  <rect x="17" y="6" width="1" height="1" fill="rgb(111,127,151)"/>
  <rect x="18" y="6" width="1" height="1" fill="rgb(12,24,41)" fill-opacity="0.421875"/>
  <rect x="19" y="6" width="2" height="1" fill="rgb(255,255,255)" fill-opacity="0.0078125"/>
  <rect x="0" y="7" width="6" height="1" fill="rgb(255,255,255)" fill-opacity="0.0078125"/>
  <rect x="6" y="7" width="1" height="1" fill="rgb(0,0,0)" fill-opacity="0.015625"/>
  <rect x="7" y="7" width="1" height="1" fill="rgb(10,22,39)" fill-opacity="0.4140625"/>
  <rect x="8" y="7" width="1" height="1" fill="rgb(48,64,86)" fill-opacity="0.875"/>
  <rect x="9" y="7" width="1" height="1" fill="rgb(105,125,153)"/>
  <rect x="10" y="7" width="1" height="1" fill="rgb(71,99,142)"/>
  <rect x="11" y="7" width="1" height="1" fill="rgb(95,130,181)"/>
  <rect x="12" y="7" width="1" height="1" fill="rgb(93,119,158)"/>
  <rect x="13" y="7" width="1" height="1" fill="rgb(19,31,50)" fill-opacity="0.8046875"/>
  <rect x="14" y="7" width="1" height="1" fill="rgb(9,17,32)" fill-opacity="0.3515625"/>
  <rect x="15" y="7" width="1" height="1" fill="rgb(26,37,57)" fill-opacity="0.8125"/>
  <rect x="16" y="7" width="1" height="1" fill="rgb(157,174,202)"/>
  <rect x="17" y="7" width="1" height="1" fill="rgb(189,208,238)"/>
  <rect x="18" y="7" width="1" height="1" fill="rgb(31,45,63)" fill-opacity="0.875"/>
  <rect x="19" y="7" width="1" height="1" fill="rgb(0,0,0)" fill-opacity="0.0078125"/>
  <rect x="20" y="7" width="1" height="1" fill="rgb(255,255,255)" fill-opacity="0.0078125"/>
  <rect x="0" y="8" width="5" height="1" fill="rgb(255,255,255)" fill-opacity="0.0078125"/>
  <rect x="5" y="8" width="1" height="1" fill="rgb(0,0,0)" fill-opacity="0.015625"/>
  <rect x="6" y="8" width="1" height="1" fill="rgb(23,37,53)" fill-opacity="0.65625"/>
  <rect x="7" y="8" width="1" height="1" fill="rgb(182,197,219)"/>
  <rect x="8" y="8" width="1" height="1" fill="rgb(226,236,249)"/>
  <rect x="9" y="8" width="1" height="1" fill="rgb(202,219,244)"/>
  <rect x="10" y="8" width="1" height="1" fill="rgb(175,201,238)"/>
  <rect x="11" y="8" width="1" height="1" fill="rgb(113,150,201)"/>
  <rect x="12" y="8" width="1" height="1" fill="rgb(18,30,49)" fill-opacity="0.9375"/>
  <rect x="13" y="8" width="1" height="1" fill="rgb(0,6,13)" fill-opacity="0.1640625"/>
  <rect x="14" y="8" width="1" height="1" fill="rgb(0,0,0)" fill-opacity="0.109375"/>
  <rect x="15" y="8" width="1" height="1" fill="rgb(7,18,28)" fill-opacity="0.2890625"/>
  <rect x="16" y="8" width="1" height="1" fill="rgb(85,101,124)"/>
  <rect x="17" y="8" width="1" height="1" fill="rgb(193,212,242)"/>
  <rect x="18" y="8" width="1" height="1" fill="rgb(76,91,112)"/>
  <rect x="19" y="8" width="1" height="1" fill="rgb(16,16,48)" fill-opacity="0.0703125"/>
  <rect x="20" y="8" width="1" height="1" fill="rgb(255,255,255)" fill-opacity="0.0078125"/>
  <rect x="0" y="9" width="4" height="1" fill="rgb(255,255,255)" fill-opacity="0.0078125"/>
  <rect x="4" y="9" width="1" height="1" fill="rgb(0,0,0)" fill-opacity="0.015625"/>
  <rect x="5" y="9" width="1" height="1" fill="rgb(19,33,50)" fill-opacity="0.640625"/>
  <rect x="6" y="9" width="1" height="1" fill="rgb(184,200,223)"/>
  <rect x="7" y="9" width="1" height="1" fill="rgb(219,231,248)"/>
  <rect x="8" y="9" width="1" height="1" fill="rgb(156,180,215)"/>
  <rect x="9" y="9" width="1" height="1" fill="rgb(101,140,195)"/>
  <rect x="10" y="9" width="1" height="1" fill="rgb(122,161,215)"/>
  <rect x="11" y="9" width="1" height="1" fill="rgb(116,161,226)"/>
  <rect x="12" y="9" width="1" height="1" fill="rgb(57,94,146)"/>
  <rect x="13" y="9" width="1" height="1" fill="rgb(10,21,35)" fill-opacity="0.4921875"/>
  <rect x="14" y="9" width="1" height="1" fill="rgb(0,0,0)" fill-opacity="0.1171875"/>
  <rect x="15" y="9" width="1" height="1" fill="rgb(12,24,39)" fill-opacity="0.6796875"/>
  <rect x="16" y="9" width="1" height="1" fill="rgb(141,158,184)"/>
  <rect x="17" y="9" width="1" height="1" fill="rgb(192,211,241)"/>
  <rect x="18" y="9" width="1" height="1" fill="rgb(35,48,67)" fill-opacity="0.9296875"/>
  <rect x="19" y="9" width="1" height="1" fill="rgb(0,0,64)" fill-opacity="0.0234375"/>
  <rect x="20" y="9" width="1" height="1" fill="rgb(255,255,255)" fill-opacity="0.0078125"/>
  <rect x="0" y="10" width="3" height="1" fill="rgb(255,255,255)" fill-opacity="0.0078125"/>
  <rect x="3" y="10" width="1" height="1" fill="rgb(0,0,0)" fill-opacity="0.0078125"/>
  <rect x="4" y="10" width="1" height="1" fill="rgb(16,27,46)" fill-opacity="0.6328125"/>
  <rect x="5" y="10" width="1" height="1" fill="rgb(171,189,214)"/>
  <rect x="6" y="10" width="1" height="1" fill="rgb(211,225,246)"/>
  <rect x="7" y="10" width="1" height="1" fill="rgb(137,163,200)"/>
  <rect x="8" y="10" width="1" height="1" fill="rgb(40,62,91)"/>
  <rect x="9" y="10" width="1" height="1" fill="rgb(75,112,168)"/>
  <rect x="10" y="10" width="1" height="1" fill="rgb(40,64,98)"/>
  <rect x="11" y="10" width="1" height="1" fill="rgb(56,98,155)"/>
  <rect x="12" y="10" width="1" height="1" fill="rgb(68,125,207)"/>
  <rect x="13" y="10" width="1" height="1" fill="rgb(17,35,60)" fill-opacity="0.890625"/>
  <rect x="14" y="10" width="1" height="1" fill="rgb(12,24,39)" fill-opacity="0.671875"/>
  <rect x="15" y="10" width="1" height="1" fill="rgb(120,136,161)"/>
  <rect x="16" y="10" width="1" height="1" fill="rgb(193,212,242)"/>
  <rect x="17" y="10" width="1" height="1" fill="rgb(133,150,175)"/>
  <rect x="18" y="10" width="1" height="1" fill="rgb(12,23,41)" fill-opacity="0.5234375"/>
  <rect x="19" y="10" width="2" height="1" fill="rgb(255,255,255)" fill-opacity="0.0078125"/>
  <rect x="0" y="11" width="3" height="1" fill="rgb(255,255,255)" fill-opacity="0.0078125"/>
  <rect x="3" y="11" width="1" height="1" fill="rgb(12,24,41)" fill-opacity="0.421875"/>
  <rect x="4" y="11" width="1" height="1" fill="rgb(149,169,197)"/>
  <rect x="5" y="11" width="1" height="1" fill="rgb(202,219,244)"/>
  <rect x="6" y="11" width="1" height="1" fill="rgb(137,165,204)"/>
  <rect x="7" y="11" width="1" height="1" fill="rgb(16,30,48)" fill-opacity="0.8046875"/>
  <rect x="8" y="11" width="1" height="1" fill="rgb(28,41,62)" fill-opacity="0.9375"/>
  <rect x="9" y="11" width="1" height="1" fill="rgb(104,136,186)"/>
  <rect x="10" y="11" width="1" height="1" fill="rgb(81,109,151)"/>
  <rect x="11" y="11" width="1" height="1" fill="rgb(31,59,96)"/>
  <rect x="12" y="11" width="1" height="1" fill="rgb(54,98,162)"/>
  <rect x="13" y="11" width="1" height="1" fill="rgb(32,59,99)"/>
  <rect x="14" y="11" width="1" height="1" fill="rgb(121,138,163)"/>
  <rect x="15" y="11" width="1" height="1" fill="rgb(193,212,242)"/>
  <rect x="16" y="11" width="1" height="1" fill="rgb(146,163,189)"/>
  <rect x="17" y="11" width="1" height="1" fill="rgb(21,32,50)" fill-opacity="0.7734375"/>
  <rect x="18" y="11" width="1" height="1" fill="rgb(0,26,51)" fill-opacity="0.046875"/>
  <rect x="19" y="11" width="2" height="1" fill="rgb(255,255,255)" fill-opacity="0.0078125"/>
  <rect x="0" y="12" width="2" height="1" fill="rgb(255,255,255)" fill-opacity="0.0078125"/>
  <rect x="2" y="12" width="1" height="1" fill="rgb(0,0,0)" fill-opacity="0.0078125"/>
  <rect x="3" y="12" width="1" height="1" fill="rgb(29,46,67)" fill-opacity="0.8828125"/>
  <rect x="4" y="12" width="1" height="1" fill="rgb(191,211,241)"/>
  <rect x="5" y="12" width="1" height="1" fill="rgb(144,174,215)"/>
  <rect x="6" y="12" width="1" height="1" fill="rgb(19,33,53)" fill-opacity="0.8046875"/>
  <rect x="7" y="12" width="1" height="1" fill="rgb(7,7,13)" fill-opacity="0.15625"/>
  <rect x="8" y="12" width="1" height="1" fill="rgb(9,20,33)" fill-opacity="0.5546875"/>
  <rect x="9" y="12" width="1" height="1" fill="rgb(98,123,160)"/>
  <rect x="10" y="12" width="1" height="1" fill="rgb(131,160,204)"/>
  <rect x="11" y="12" width="1" height="1" fill="rgb(106,129,166)"/>
  <rect x="12" y="12" width="1" height="1" fill="rgb(79,110,158)"/>
  <rect x="13" y="12" width="1" height="1" fill="rgb(133,151,180)"/>
  <rect x="14" y="12" width="1" height="1" fill="rgb(193,212,242)"/>
  <rect x="15" y="12" width="1" height="1" fill="rgb(146,163,189)"/>
  <rect x="16" y="12" width="1" height="1" fill="rgb(21,32,50)" fill-opacity="0.7734375"/>
  <rect x="17" y="12" width="1" height="1" fill="rgb(21,21,43)" fill-opacity="0.0546875"/>
  <rect x="18" y="12" width="3" height="1" fill="rgb(255,255,255)" fill-opacity="0.0078125"/>
  <rect x="0" y="13" width="2" height="1" fill="rgb(255,255,255)" fill-opacity="0.0078125"/>
  <rect x="2" y="13" width="1" height="1" fill="rgb(16,16,48)" fill-opacity="0.0703125"/>
  <rect x="3" y="13" width="1" height="1" fill="rgb(77,100,132)"/>
  <rect x="4" y="13" width="1" height="1" fill="rgb(158,190,235)"/>
  <rect x="5" y="13" width="1" height="1" fill="rgb(70,100,140)"/>
  <rect x="6" y="13" width="1" height="1" fill="rgb(7,17,28)" fill-opacity="0.2890625"/>
  <rect x="7" y="13" width="1" height="1" fill="rgb(0,0,0)" fill-opacity="0.109375"/>
  <rect x="8" y="13" width="1" height="1" fill="rgb(0,12,12)" fill-opacity="0.1640625"/>
  <rect x="9" y="13" width="1" height="1" fill="rgb(21,33,53)" fill-opacity="0.9453125"/>
  <rect x="10" y="13" width="1" height="1" fill="rgb(121,145,182)"/>
  <rect x="11" y="13" width="1" height="1" fill="rgb(171,193,228)"/>
  <rect x="12" y="13" width="1" height="1" fill="rgb(189,208,239)"/>
  <rect x="13" y="13" width="1" height="1" fill="rgb(193,212,242)"/>
  <rect x="14" y="13" width="1" height="1" fill="rgb(141,158,184)"/>
  <rect x="15" y="13" width="1" height="1" fill="rgb(21,32,50)" fill-opacity="0.7734375"/>
  <rect x="16" y="13" width="1" height="1" fill="rgb(21,21,43)" fill-opacity="0.0546875"/>
  <rect x="17" y="13" width="4" height="1" fill="rgb(255,255,255)" fill-opacity="0.0078125"/>
  <rect x="0" y="14" width="2" height="1" fill="rgb(255,255,255)" fill-opacity="0.0078125"/>
  <rect x="2" y="14" width="1" height="1" fill="rgb(0,0,64)" fill-opacity="0.0234375"/>
  <rect x="3" y="14" width="1" height="1" fill="rgb(38,56,83)" fill-opacity="0.9296875"/>
  <rect x="4" y="14" width="1" height="1" fill="rgb(124,167,228)"/>
  <rect x="5" y="14" width="1" height="1" fill="rgb(75,117,179)"/>
  <rect x="6" y="14" width="1" height="1" fill="rgb(12,25,42)" fill-opacity="0.6953125"/>
  <rect x="7" y="14" width="1" height="1" fill="rgb(8,16,27)" fill-opacity="0.2578125"/>
  <rect x="8" y="14" width="1" height="1" fill="rgb(11,24,40)" fill-opacity="0.7578125"/>
  <rect x="9" y="14" width="1" height="1" fill="rgb(43,82,134)"/>
  <rect x="10" y="14" width="1" height="1" fill="rgb(36,66,107)"/>
  <rect x="11" y="14" width="1" height="1" fill="rgb(74,99,136)"/>
  <rect x="12" y="14" width="1" height="1" fill="rgb(93,109,131)"/>
  <rect x="13" y="14" width="1" height="1" fill="rgb(57,72,92)" fill-opacity="0.9609375"/>
  <rect x="14" y="14" width="1" height="1" fill="rgb(11,22,41)" fill-opacity="0.546875"/>
  <rect x="15" y="14" width="1" height="1" fill="rgb(0,23,46)" fill-opacity="0.046875"/>
  <rect x="16" y="14" width="5" height="1" fill="rgb(255,255,255)" fill-opacity="0.0078125"/>
  <rect x="0" y="15" width="3" height="1" fill="rgb(255,255,255)" fill-opacity="0.0078125"/>
  <rect x="3" y="15" width="1" height="1" fill="rgb(12,23,41)" fill-opacity="0.5234375"/>
  <rect x="4" y="15" width="1" height="1" fill="rgb(64,105,164)"/>
  <rect x="5" y="15" width="1" height="1" fill="rgb(72,132,217)"/>
  <rect x="6" y="15" width="1" height="1" fill="rgb(54,100,164)"/>
  <rect x="7" y="15" width="1" height="1" fill="rgb(26,51,85)"/>
  <rect x="8" y="15" width="1" height="1" fill="rgb(51,95,157)"/>
  <rect x="9" y="15" width="1" height="1" fill="rgb(72,131,216)"/>
  <rect x="10" y="15" width="1" height="1" fill="rgb(45,83,137)"/>
  <rect x="11" y="15" width="1" height="1" fill="rgb(14,27,45)" fill-opacity="0.7109375"/>
  <rect x="12" y="15" width="1" height="1" fill="rgb(12,23,41)" fill-opacity="0.1796875"/>
  <rect x="13" y="15" width="1" height="1" fill="rgb(21,21,43)" fill-opacity="0.0546875"/>
  <rect x="14" y="15" width="7" height="1" fill="rgb(255,255,255)" fill-opacity="0.0078125"/>
  <rect x="0" y="16" width="3" height="1" fill="rgb(255,255,255)" fill-opacity="0.0078125"/>
  <rect x="3" y="16" width="1" height="1" fill="rgb(0,26,51)" fill-opacity="0.046875"/>
  <rect x="4" y="16" width="1" height="1" fill="rgb(13,28,47)" fill-opacity="0.7734375"/>
  <rect x="5" y="16" width="1" height="1" fill="rgb(52,95,157)"/>
  <rect x="6" y="16" width="3" height="1" fill="rgb(72,132,217)"/>
  <rect x="9" y="16" width="1" height="1" fill="rgb(56,103,171)"/>
  <rect x="10" y="16" width="1" height="1" fill="rgb(15,29,51)" fill-opacity="0.6875"/>
  <rect x="11" y="16" width="1" height="1" fill="rgb(0,0,51)" fill-opacity="0.0234375"/>
  <rect x="12" y="16" width="9" height="1" fill="rgb(255,255,255)" fill-opacity="0.0078125"/>
  <rect x="0" y="17" width="4" height="1" fill="rgb(255,255,255)" fill-opacity="0.0078125"/>
  <rect x="4" y="17" width="1" height="1" fill="rgb(0,23,46)" fill-opacity="0.046875"/>
  <rect x="5" y="17" width="1" height="1" fill="rgb(11,24,41)" fill-opacity="0.5390625"/>
  <rect x="6" y="17" width="1" height="1" fill="rgb(31,58,97)" fill-opacity="0.953125"/>
  <rect x="7" y="17" width="1" height="1" fill="rgb(41,77,126)"/>
  <rect x="8" y="17" width="1" height="1" fill="rgb(29,56,93)" fill-opacity="0.9296875"/>
  <rect x="9" y="17" width="1" height="1" fill="rgb(11,23,40)" fill-opacity="0.4765625"/>
  <rect x="10" y="17" width="1" height="1" fill="rgb(0,0,64)" fill-opacity="0.0234375"/>
  <rect x="11" y="17" width="10" height="1" fill="rgb(255,255,255)" fill-opacity="0.0078125"/>
  <rect x="0" y="18" width="6" height="1" fill="rgb(255,255,255)" fill-opacity="0.0078125"/>
  <rect x="6" y="18" width="1" height="1" fill="rgb(0,43,43)" fill-opacity="0.03125"/>
  <rect x="7" y="18" width="1" height="1" fill="rgb(11,21,43)" fill-opacity="0.1015625"/>
  <rect x="8" y="18" width="1" height="1" fill="rgb(0,0,64)" fill-opacity="0.0234375"/>
  <rect x="9" y="18" width="12" height="1" fill="rgb(255,255,255)" fill-opacity="0.0078125"/>
  <rect x="0" y="19" width="21" height="1" fill="rgb(255,255,255)" fill-opacity="0.0078125"/>
  <rect x="0" y="20" width="21" height="1" fill="rgb(255,255,255)" fill-opacity="0.0078125"/>
</svg>