<svg xmlns="http://www.w3.org/2000/svg" shape-rendering="crispEdges" width="21" height="21" viewBox="0 0 21 21">
  <rect x="0" y="0" width="21" height="1" fill="rgb(255,255,255)" fill-opacity="0.0078125"/>
  <rect x="0" y="1" width="21" height="1" fill="rgb(255,255,255)" fill-opacity="0.0078125"/>
  <rect x="0" y="2" width="21" height="1" fill="rgb(255,255,255)" fill-opacity="0.0078125"/>
  <rect x="0" y="3" width="21" height="1" fill="rgb(255,255,255)" fill-opacity="0.0078125"/>
  <rect x="0" y="4" width="4" height="1" fill="rgb(255,255,255)" fill-opacity="0.0078125"/>
  <rect x="4" y="4" width="1" height="1" fill="rgb(44,26,0)" fill-opacity="0.2734375"/>
  <rect x="5" y="4" width="1" height="1" fill="rgb(53,29,3)" fill-opacity="0.8828125"/>
  <rect x="6" y="4" width="1" height="1" fill="rgb(53,29,3)" fill-opacity="0.8984375"/>
  <rect x="7" y="4" width="1" height="1" fill="rgb(44,23,0)" fill-opacity="0.34375"/>
  <rect x="8" y="4" width="6" height="1" fill="rgb(43,21,0)" fill-opacity="0.1015625"/>
  <rect x="14" y="4" width="1" height="1" fill="rgb(44,23,0)" fill-opacity="0.34375"/>
  <rect x="15" y="4" width="1" height="1" fill="rgb(53,29,3)" fill-opacity="0.8984375"/>
  <rect x="16" y="4" width="1" height="1" fill="rgb(53,29,3)" fill-opacity="0.890625"/>
  <rect x="17" y="4" width="1" height="1" fill="rgb(44,26,0)" fill-opacity="0.2734375"/>
  <rect x="18" y="4" width="3" height="1" fill="rgb(255,255,255)" fill-opacity="0.0078125"/>
  <rect x="0" y="5" width="4" height="1" fill="rgb(255,255,255)" fill-opacity="0.0078125"/>
  <rect x="4" y="5" width="1" height="1" fill="rgb(53,29,3)" fill-opacity="0.90625"/>
  <rect x="5" y="5" width="1" height="1" fill="rgb(255,246,235)"/>
  <rect x="6" y="5" width="1" height="1" fill="rgb(255,242,229)"/>
  <rect x="7" y="5" width="1" height="1" fill="rgb(154,119,79)"/>
  <rect x="8" y="5" width="1" height="1" fill="rgb(147,114,79)"/>
  <rect x="9" y="5" width="1" height="1" fill="rgb(143,109,73)"/>
  <rect x="10" y="5" width="1" height="1" fill="rgb(140,105,68)"/>
  <rect x="11" y="5" width="1" height="1" fill="rgb(137,101,63)"/>
  <rect x="12" y="5" width="1" height="1" fill="rgb(133,97,57)"/>
  <rect x="13" y="5" width="1" height="1" fill="rgb(130,92,52)"/>
  <rect x="14" y="5" width="1" height="1" fill="rgb(129,87,44)"/>
  <rect x="15" y="5" width="1" height="1" fill="rgb(255,245,234)"/>
  <rect x="16" y="5" width="1" height="1" fill="rgb(255,238,220)"/>
  <rect x="17" y="5" width="1" height="1" fill="rgb(52,28,3)" fill-opacity="0.90625"/>
  <rect x="18" y="5" width="3" height="1" fill="rgb(255,255,255)" fill-opacity="0.0078125"/>
  <rect x="0" y="6" width="4" height="1" fill="rgb(255,255,255)" fill-opacity="0.0078125"/>
  <rect x="4" y="6" width="1" height="1" fill="rgb(52,29,3)" fill-opacity="0.9375"/>
  <rect x="5" y="6" width="1" height="1" fill="rgb(255,247,238)"/>
  <rect x="6" y="6" width="1" height="1" fill="rgb(255,237,217)"/>
  <rect x="7" y="6" width="1" height="1" fill="rgb(234,193,149)"/>
  <rect x="8" y="6" width="1" height="1" fill="rgb(255,216,174)"/>
  <rect x="9" y="6" width="1" height="1" fill="rgb(255,211,163)"/>
  <rect x="10" y="6" width="1" height="1" fill="rgb(255,205,152)"/>
  <rect x="11" y="6" width="1" height="1" fill="rgb(255,200,142)"/>
  <rect x="12" y="6" width="1" height="1" fill="rgb(255,195,130)"/>
  <rect x="13" y="6" width="1" height="1" fill="rgb(255,190,120)"/>
  <rect x="14" y="6" width="1" height="1" fill="rgb(234,164,88)"/>
  <rect x="15" y="6" width="1" height="1" fill="rgb(255,239,222)"/>
  <rect x="16" y="6" width="1" height="1" fill="rgb(255,202,146)"/>
  <rect x="17" y="6" width="1" height="1" fill="rgb(48,27,2)" fill-opacity="0.9375"/>
  <rect x="18" y="6" width="3" height="1" fill="rgb(255,255,255)" fill-opacity="0.0078125"/>
  <rect x="0" y="7" width="4" height="1" fill="rgb(255,255,255)" fill-opacity="0.0078125"/>
  <rect x="4" y="7" width="1" height="1" fill="rgb(43,24,0)" fill-opacity="0.46875"/>
  <rect x="5" y="7" width="1" height="1" fill="rgb(159,119,76)"/>
  <rect x="6" y="7" width="1" height="1" fill="rgb(204,152,95)"/>
  <rect x="7" y="7" width="1" height="1" fill="rgb(190,140,88)"/>
  <rect x="8" y="7" width="1" height="1" fill="rgb(119,87,55)"/>
  <rect x="9" y="7" width="1" height="1" fill="rgb(116,84,50)"/>
  <rect x="10" y="7" width="1" height="1" fill="rgb(113,80,46)"/>
  <rect x="11" y="7" width="1" height="1" fill="rgb(109,75,40)"/>
  <rect x="12" y="7" width="1" height="1" fill="rgb(106,71,36)"/>
  <rect x="13" y="7" width="1" height="1" fill="rgb(103,67,31)"/>
  <rect x="14" y="7" width="1" height="1" fill="rgb(175,116,52)"/>
  <rect x="15" y="7" width="1" height="1" fill="rgb(234,155,70)"/>
  <rect x="16" y="7" width="1" height="1" fill="rgb(124,78,29)"/>
  <rect x="17" y="7" width="1" height="1" fill="rgb(44,24,0)" fill-opacity="0.4609375"/>
  <rect x="18" y="7" width="3" height="1" fill="rgb(255,255,255)" fill-opacity="0.0078125"/>
  <rect x="0" y="8" width="5" height="1" fill="rgb(255,255,255)" fill-opacity="0.0078125"/>
  <rect x="5" y="8" width="1" height="1" fill="rgb(48,25,4)" fill-opacity="0.7578125"/>
  <rect x="6" y="8" width="1" height="1" fill="rgb(236,196,153)"/>
  <rect x="7" y="8" width="1" height="1" fill="rgb(245,202,155)"/>
  <rect x="8" y="8" width="1" height="1" fill="rgb(61,39,14)" fill-opacity="0.8828125"/>
  <rect x="9" y="8" width="1" height="1" fill="rgb(39,20,0)" fill-opacity="0.109375"/>
  <rect x="10" y="8" width="2" height="1" fill="rgb(43,21,0)" fill-opacity="0.1015625"/>
  <rect x="12" y="8" width="1" height="1" fill="rgb(39,20,0)" fill-opacity="0.109375"/>
  <rect x="13" y="8" width="1" height="1" fill="rgb(57,33,7)" fill-opacity="0.8828125"/>
  <rect x="14" y="8" width="1" height="1" fill="rgb(238,162,80)"/>
  <rect x="15" y="8" width="1" height="1" fill="rgb(220,149,71)"/>
  <rect x="16" y="8" width="1" height="1" fill="rgb(45,23,1)" fill-opacity="0.7578125"/>
  <rect x="17" y="8" width="4" height="1" fill="rgb(255,255,255)" fill-opacity="0.0078125"/>
  <rect x="0" y="9" width="5" height="1" fill="rgb(255,255,255)" fill-opacity="0.0078125"/>
  <rect x="5" y="9" width="1" height="1" fill="rgb(45,22,0)" fill-opacity="0.2265625"/>
  <rect x="6" y="9" width="1" height="1" fill="rgb(134,101,64)"/>
  <rect x="7" y="9" width="1" height="1" fill="rgb(255,205,152)"/>
  <rect x="8" y="9" width="1" height="1" fill="rgb(169,128,83)"/>
  <rect x="9" y="9" width="1" height="1" fill="rgb(43,21,0)" fill-opacity="0.375"/>
  <rect x="10" y="9" width="2" height="1" fill="rgb(255,255,255)" fill-opacity="0.0078125"/>
  <rect x="12" y="9" width="1" height="1" fill="rgb(43,21,0)" fill-opacity="0.375"/>
  <rect x="13" y="9" width="1" height="1" fill="rgb(150,99,45)"/>
  <rect x="14" y="9" width="1" height="1" fill="rgb(255,173,85)"/>
  <rect x="15" y="9" width="1" height="1" fill="rgb(111,71,27)"/>
  <rect x="16" y="9" width="1" height="1" fill="rgb(45,22,0)" fill-opacity="0.2265625"/>
  <rect x="17" y="9" width="4" height="1" fill="rgb(255,255,255)" fill-opacity="0.0078125"/>
  <rect x="0" y="10" width="6" height="1" fill="rgb(255,255,255)" fill-opacity="0.0078125"/>
  <rect x="6" y="10" width="1" height="1" fill="rgb(43,21,0)" fill-opacity="0.703125"/>
  <rect x="7" y="10" width="1" height="1" fill="rgb(223,173,119)"/>
  <rect x="8" y="10" width="1" height="1" fill="rgb(247,189,127)"/>
  <rect x="9" y="10" width="1" height="1" fill="rgb(68,40,15)" fill-opacity="0.8984375"/>
  <rect x="10" y="10" width="2" height="1" fill="rgb(43,43,0)" fill-opacity="0.03125"/>
  <rect x="12" y="10" width="1" height="1" fill="rgb(63,35,8)" fill-opacity="0.890625"/>
  <rect x="13" y="10" width="1" height="1" fill="rgb(244,165,81)"/>
  <rect x="14" y="10" width="1" height="1" fill="rgb(211,142,67)"/>
  <rect x="15" y="10" width="1" height="1" fill="rgb(43,21,0)" fill-opacity="0.703125"/>
  <rect x="16" y="10" width="5" height="1" fill="rgb(255,255,255)" fill-opacity="0.0078125"/>
  <rect x="0" y="11" width="6" height="1" fill="rgb(255,255,255)" fill-opacity="0.0078125"/>
  <rect x="6" y="11" width="1" height="1" fill="rgb(45,23,0)" fill-opacity="0.1796875"/>
  <rect x="7" y="11" width="1" height="1" fill="rgb(113,78,42)"/>
  <rect x="8" y="11" width="1" height="1" fill="rgb(255,190,120)"/>
  <rect x="9" y="11" width="1" height="1" fill="rgb(170,120,66)"/>
  <rect x="10" y="11" width="2" height="1" fill="rgb(44,23,0)" fill-opacity="0.4375"/>
  <rect x="12" y="11" width="1" height="1" fill="rgb(162,107,48)"/>
  <rect x="13" y="11" width="1" height="1" fill="rgb(255,173,85)"/>
  <rect x="14" y="11" width="1" height="1" fill="rgb(100,62,23)"/>
  <rect x="15" y="11" width="1" height="1" fill="rgb(45,23,0)" fill-opacity="0.1796875"/>
  <rect x="16" y="11" width="5" height="1" fill="rgb(255,255,255)" fill-opacity="0.0078125"/>
  <rect x="0" y="12" width="7" height="1" fill="rgb(255,255,255)" fill-opacity="0.0078125"/>
  <rect x="7" y="12" width="1" height="1" fill="rgb(44,22,0)" fill-opacity="0.6484375"/>
  <rect x="8" y="12" width="1" height="1" fill="rgb(206,147,84)"/>
  <rect x="9" y="12" width="1" height="1" fill="rgb(249,176,96)"/>
  <rect x="10" y="12" width="2" height="1" fill="rgb(69,41,11)" fill-opacity="0.9296875"/>
  <rect x="12" y="12" width="1" height="1" fill="rgb(249,169,83)"/>
  <rect x="13" y="12" width="1" height="1" fill="rgb(200,134,63)"/>
  <rect x="14" y="12" width="1" height="1" fill="rgb(44,22,0)" fill-opacity="0.6484375"/>
  <rect x="15" y="12" width="6" height="1" fill="rgb(255,255,255)" fill-opacity="0.0078125"/>
  <rect x="0" y="13" width="7" height="1" fill="rgb(255,255,255)" fill-opacity="0.0078125"/>
  <rect x="7" y="13" width="1" height="1" fill="rgb(44,22,0)" fill-opacity="0.140625"/>
  <rect x="8" y="13" width="1" height="1" fill="rgb(92,59,23)" fill-opacity="0.984375"/>
  <rect x="9" y="13" width="1" height="1" fill="rgb(255,174,88)"/>
  <rect x="10" y="13" width="2" height="1" fill="rgb(174,115,53)"/>
  <rect x="12" y="13" width="1" height="1" fill="rgb(255,173,85)"/>
  <rect x="13" y="13" width="1" height="1" fill="rgb(89,55,18)" fill-opacity="0.984375"/>
  <rect x="14" y="13" width="1" height="1" fill="rgb(44,22,0)" fill-opacity="0.140625"/>
  <rect x="15" y="13" width="6" height="1" fill="rgb(255,255,255)" fill-opacity="0.0078125"/>
  <rect x="0" y="14" width="8" height="1" fill="rgb(255,255,255)" fill-opacity="0.0078125"/>
  <rect x="8" y="14" width="1" height="1" fill="rgb(42,22,0)" fill-opacity="0.59375"/>
  <rect x="9" y="14" width="1" height="1" fill="rgb(189,126,59)"/>
  <rect x="10" y="14" width="1" height="1" fill="rgb(203,126,43)"/>
  <rect x="11" y="14" width="1" height="1" fill="rgb(201,124,42)"/>
  <rect x="12" y="14" width="1" height="1" fill="rgb(189,126,59)"/>
  <rect x="13" y="14" width="1" height="1" fill="rgb(42,22,0)" fill-opacity="0.59375"/>
  <rect x="14" y="14" width="7" height="1" fill="rgb(255,255,255)" fill-opacity="0.0078125"/>
  <rect x="0" y="15" width="8" height="1" fill="rgb(255,255,255)" fill-opacity="0.0078125"/>
  <rect x="8" y="15" width="1" height="1" fill="rgb(39,20,0)" fill-opacity="0.109375"/>
  <rect x="9" y="15" width="1" height="1" fill="rgb(87,53,17)"/>
  <rect x="10" y="15" width="1" height="1" fill="rgb(255,244,233)"/>
  <rect x="11" y="15" width="1" height="1" fill="rgb(255,238,219)"/>
  <rect x="12" y="15" width="1" height="1" fill="rgb(87,53,17)"/>
  <rect x="13" y="15" width="1" height="1" fill="rgb(39,20,0)" fill-opacity="0.109375"/>
  <rect x="14" y="15" width="7" height="1" fill="rgb(255,255,255)" fill-opacity="0.0078125"/>
  <rect x="0" y="16" width="9" height="1" fill="rgb(255,255,255)" fill-opacity="0.0078125"/>
  <rect x="9" y="16" width="1" height="1" fill="rgb(53,29,3)" fill-opacity="0.9453125"/>
  <rect x="10" y="16" width="1" height="1" fill="rgb(255,238,219)"/>
  <rect x="11" y="16" width="1" height="1" fill="rgb(255,202,145)"/>
  <rect x="12" y="16" width="1" height="1" fill="rgb(53,29,3)" fill-opacity="0.9453125"/>
  <rect x="13" y="16" width="8" height="1" fill="rgb(255,255,255)" fill-opacity="0.0078125"/>
  <rect x="0" y="17" width="9" height="1" fill="rgb(255,255,255)" fill-opacity="0.0078125"/>
  <rect x="9" y="17" width="1" height="1" fill="rgb(44,26,0)" fill-opacity="0.2734375"/>
  <rect x="10" y="17" width="2" height="1" fill="rgb(53,29,3)" fill-opacity="0.9296875"/>
  <rect x="12" y="17" width="1" height="1" fill="rgb(45,28,0)" fill-opacity="0.2890625"/>
  <rect x="13" y="17" width="8" height="1" fill="rgb(255,255,255)" fill-opacity="0.0078125"/>
  <rect x="0" y="18" width="21" height="1" fill="rgb(255,255,255)" fill-opacity="0.0078125"/>
  <rect x="0" y="19" width="21" height="1" fill="rgb(255,255,255)" fill-opacity="0.0078125"/>
  <rect x="0" y="20" width="21" height="1" fill="rgb(255,255,255)" fill-opacity="0.0078125"/>
</svg>