<svg xmlns="http://www.w3.org/2000/svg" shape-rendering="crispEdges" width="21" height="21" viewBox="0 0 21 21">
  <rect x="0" y="0" width="1" height="21" fill="rgb(255,255,255)" fill-opacity="0.0078125"/>
  <rect x="1" y="0" width="1" height="21" fill="rgb(255,255,255)" fill-opacity="0.0078125"/>
  <rect x="2" y="0" width="1" height="21" fill="rgb(255,255,255)" fill-opacity="0.0078125"/>
  <rect x="3" y="0" width="1" height="3" fill="rgb(255,255,255)" fill-opacity="0.0078125"/>
  <rect x="3" y="3" width="1" height="1" fill="rgb(21,44,80)" fill-opacity="0.0078125"/>
  <rect x="3" y="4" width="1" height="4" fill="rgb(23,45,80)" fill-opacity="0.0078125"/>
  <rect x="3" y="8" width="1" height="1" fill="rgb(21,44,80)" fill-opacity="0.0078125"/>
  <rect x="3" y="9" width="1" height="4" fill="rgb(255,255,255)" fill-opacity="0.0078125"/>
  <rect x="3" y="13" width="1" height="1" fill="rgb(21,44,80)" fill-opacity="0.0078125"/>
  <rect x="3" y="14" width="1" height="4" fill="rgb(23,45,80)" fill-opacity="0.0078125"/>
  <rect x="3" y="18" width="1" height="1" fill="rgb(21,44,80)" fill-opacity="0.0078125"/>
  <rect x="3" y="19" width="1" height="2" fill="rgb(255,255,255)" fill-opacity="0.0078125"/>
  <rect x="4" y="0" width="1" height="3" fill="rgb(255,255,255)" fill-opacity="0.0078125"/>
  <rect x="4" y="3" width="1" height="1" fill="rgb(23,45,80)" fill-opacity="0.0078125"/>
  <rect x="4" y="4" width="1" height="1" fill="rgb(193,215,248)" fill-opacity="0.0078125"/>
  <rect x="4" y="5" width="1" height="1" fill="rgb(192,214,247)" fill-opacity="0.0078125"/>
  <rect x="4" y="6" width="1" height="1" fill="rgb(190,213,247)" fill-opacity="0.0078125"/>
  <rect x="4" y="7" width="1" height="1" fill="rgb(189,212,246)" fill-opacity="0.0078125"/>
  <rect x="4" y="8" width="1" height="1" fill="rgb(23,45,80)" fill-opacity="0.0078125"/>
  <rect x="4" y="9" width="1" height="4" fill="rgb(255,255,255)" fill-opacity="0.0078125"/>
  <rect x="4" y="13" width="1" height="1" fill="rgb(23,45,80)" fill-opacity="0.0078125"/>
  <rect x="4" y="14" width="1" height="1" fill="rgb(49,49,49)" fill-opacity="0.171875"/>
  <rect x="4" y="15" width="1" height="1" fill="rgb(51,51,51)" fill-opacity="0.609375"/>
  <rect x="4" y="16" width="1" height="1" fill="rgb(51,51,51)" fill-opacity="0.6484375"/>
  <rect x="4" y="17" width="1" height="1" fill="rgb(51,51,51)" fill-opacity="0.125"/>
  <rect x="4" y="18" width="1" height="1" fill="rgb(23,45,80)" fill-opacity="0.0078125"/>
  <rect x="4" y="19" width="1" height="2" fill="rgb(255,255,255)" fill-opacity="0.0078125"/>
  <rect x="5" y="0" width="1" height="3" fill="rgb(255,255,255)" fill-opacity="0.0078125"/>
  <rect x="5" y="3" width="1" height="1" fill="rgb(23,45,80)" fill-opacity="0.0078125"/>
  <rect x="5" y="4" width="1" height="1" fill="rgb(192,214,247)" fill-opacity="0.0078125"/>
  <rect x="5" y="5" width="1" height="1" fill="rgb(154,172,198)" fill-opacity="0.0078125"/>
  <rect x="5" y="6" width="1" height="1" fill="rgb(78,95,123)" fill-opacity="0.0078125"/>
  <rect x="5" y="7" width="1" height="1" fill="rgb(23,46,80)" fill-opacity="0.0078125"/>
  <rect x="5" y="8" width="1" height="1" fill="rgb(21,44,80)" fill-opacity="0.0078125"/>
  <rect x="5" y="9" width="1" height="4" fill="rgb(255,255,255)" fill-opacity="0.0078125"/>
  <rect x="5" y="13" width="1" height="1" fill="rgb(51,51,51)" fill-opacity="0.203125"/>
  <rect x="5" y="14" width="1" height="1" fill="rgb(68,71,78)" fill-opacity="0.9453125"/>
  <rect x="5" y="15" width="1" height="1" fill="rgb(124,155,201)"/>
  <rect x="5" y="16" width="1" height="1" fill="rgb(64,103,162)"/>
  <rect x="5" y="17" width="1" height="1" fill="rgb(51,51,51)" fill-opacity="0.625"/>
  <rect x="5" y="18" width="1" height="1" fill="rgb(23,45,80)" fill-opacity="0.0078125"/>
  <rect x="5" y="19" width="1" height="2" fill="rgb(255,255,255)" fill-opacity="0.0078125"/>
  <rect x="6" y="0" width="1" height="3" fill="rgb(255,255,255)" fill-opacity="0.0078125"/>
  <rect x="6" y="3" width="1" height="1" fill="rgb(23,45,80)" fill-opacity="0.0078125"/>
  <rect x="6" y="4" width="1" height="1" fill="rgb(190,213,247)" fill-opacity="0.0078125"/>
  <rect x="6" y="5" width="1" height="1" fill="rgb(78,95,123)" fill-opacity="0.0078125"/>
  <rect x="6" y="6" width="1" height="1" fill="rgb(193,215,248)" fill-opacity="0.0078125"/>
  <rect x="6" y="7" width="1" height="1" fill="rgb(95,119,153)" fill-opacity="0.0078125"/>
  <rect x="6" y="8" width="1" height="1" fill="rgb(22,46,80)" fill-opacity="0.0078125"/>
  <rect x="6" y="9" width="1" height="3" fill="rgb(255,255,255)" fill-opacity="0.0078125"/>
  <rect x="6" y="12" width="1" height="1" fill="rgb(51,51,51)" fill-opacity="0.203125"/>
  <rect x="6" y="13" width="1" height="1" fill="rgb(68,71,78)" fill-opacity="0.9453125"/>
  <rect x="6" y="14" width="1" height="1" fill="rgb(182,202,231)"/>
  <rect x="6" y="15" width="1" height="1" fill="rgb(86,145,235)"/>
  <rect x="6" y="16" width="1" height="1" fill="rgb(66,111,178)"/>
  <rect x="6" y="17" width="1" height="1" fill="rgb(51,51,51)" fill-opacity="0.703125"/>
  <rect x="6" y="18" width="1" height="1" fill="rgb(23,45,80)" fill-opacity="0.0078125"/>
  <rect x="6" y="19" width="1" height="2" fill="rgb(255,255,255)" fill-opacity="0.0078125"/>
  <rect x="7" y="0" width="1" height="3" fill="rgb(255,255,255)" fill-opacity="0.0078125"/>
  <rect x="7" y="3" width="1" height="1" fill="rgb(23,45,80)" fill-opacity="0.0078125"/>
  <rect x="7" y="4" width="1" height="1" fill="rgb(189,212,246)" fill-opacity="0.0078125"/>
  <rect x="7" y="5" width="1" height="1" fill="rgb(23,46,80)" fill-opacity="0.0078125"/>
  <rect x="7" y="6" width="1" height="1" fill="rgb(95,119,153)" fill-opacity="0.0078125"/>
  <rect x="7" y="7" width="1" height="1" fill="rgb(187,211,246)" fill-opacity="0.0078125"/>
  <rect x="7" y="8" width="1" height="1" fill="rgb(93,116,153)" fill-opacity="0.0078125"/>
  <rect x="7" y="9" width="1" height="1" fill="rgb(22,46,80)" fill-opacity="0.0078125"/>
  <rect x="7" y="10" width="1" height="1" fill="rgb(255,255,255)" fill-opacity="0.0078125"/>
  <rect x="7" y="11" width="1" height="1" fill="rgb(51,51,51)" fill-opacity="0.203125"/>
  <rect x="7" y="12" width="1" height="1" fill="rgb(68,72,79)" fill-opacity="0.9453125"/>
  <rect x="7" y="13" width="1" height="1" fill="rgb(184,203,232)"/>
  <rect x="7" y="14" width="1" height="1" fill="rgb(89,147,235)"/>
  <rect x="7" y="15" width="1" height="1" fill="rgb(68,117,190)"/>
  <rect x="7" y="16" width="1" height="1" fill="rgb(52,55,61)" fill-opacity="0.9375"/>
  <rect x="7" y="17" width="1" height="1" fill="rgb(52,52,52)" fill-opacity="0.1796875"/>
  <rect x="7" y="18" width="1" height="1" fill="rgb(23,45,80)" fill-opacity="0.0078125"/>
  <rect x="7" y="19" width="1" height="2" fill="rgb(255,255,255)" fill-opacity="0.0078125"/>
  <rect x="8" y="0" width="1" height="3" fill="rgb(255,255,255)" fill-opacity="0.0078125"/>
  <rect x="8" y="3" width="1" height="1" fill="rgb(21,44,80)" fill-opacity="0.0078125"/>
  <rect x="8" y="4" width="1" height="1" fill="rgb(23,45,80)" fill-opacity="0.0078125"/>
  <rect x="8" y="5" width="1" height="1" fill="rgb(21,44,80)" fill-opacity="0.0078125"/>
  <rect x="8" y="6" width="1" height="1" fill="rgb(0,0,0)" fill-opacity="0.0078125"/>
  <rect x="8" y="7" width="1" height="1" fill="rgb(50,50,50)" fill-opacity="0.71875"/>
  <rect x="8" y="8" width="1" height="1" fill="rgb(50,50,50)" fill-opacity="0.7734375"/>
  <rect x="8" y="9" width="1" height="1" fill="rgb(53,53,53)" fill-opacity="0.1015625"/>
  <rect x="8" y="10" width="1" height="1" fill="rgb(51,51,51)" fill-opacity="0.203125"/>
  <rect x="8" y="11" width="1" height="1" fill="rgb(68,72,79)" fill-opacity="0.9453125"/>
  <rect x="8" y="12" width="1" height="1" fill="rgb(187,205,233)"/>
  <rect x="8" y="13" width="1" height="1" fill="rgb(96,152,235)"/>
  <rect x="8" y="14" width="1" height="1" fill="rgb(73,121,192)"/>
  <rect x="8" y="15" width="1" height="1" fill="rgb(52,55,61)" fill-opacity="0.9375"/>
  <rect x="8" y="16" width="1" height="1" fill="rgb(51,51,51)" fill-opacity="0.203125"/>
  <rect x="8" y="17" width="1" height="1" fill="rgb(23,45,80)" fill-opacity="0.0078125"/>
  <rect x="8" y="18" width="1" height="1" fill="rgb(21,44,80)" fill-opacity="0.0078125"/>
  <rect x="8" y="19" width="1" height="2" fill="rgb(255,255,255)" fill-opacity="0.0078125"/>
  <rect x="9" y="0" width="1" height="6" fill="rgb(255,255,255)" fill-opacity="0.0078125"/>
  <rect x="9" y="6" width="1" height="1" fill="rgb(52,52,52)" fill-opacity="0.2578125"/>
  <rect x="9" y="7" width="1" height="1" fill="rgb(126,134,146)"/>
  <rect x="9" y="8" width="1" height="1" fill="rgb(97,124,163)"/>
  <rect x="9" y="9" width="1" height="1" fill="rgb(51,51,51)" fill-opacity="0.875"/>
  <rect x="9" y="10" width="1" height="1" fill="rgb(68,73,79)" fill-opacity="0.953125"/>
  <rect x="9" y="11" width="1" height="1" fill="rgb(189,207,234)"/>
  <rect x="9" y="12" width="1" height="1" fill="rgb(103,156,236)"/>
  <rect x="9" y="13" width="1" height="1" fill="rgb(80,126,194)"/>
  <rect x="9" y="14" width="1" height="1" fill="rgb(52,55,61)" fill-opacity="0.9375"/>
  <rect x="9" y="15" width="1" height="1" fill="rgb(51,51,51)" fill-opacity="0.203125"/>
  <rect x="9" y="16" width="1" height="5" fill="rgb(255,255,255)" fill-opacity="0.0078125"/>
  <rect x="10" y="0" width="1" height="6" fill="rgb(255,255,255)" fill-opacity="0.0078125"/>
  <rect x="10" y="6" width="1" height="1" fill="rgb(51,51,51)" fill-opacity="0.6328125"/>
  <rect x="10" y="7" width="1" height="1" fill="rgb(183,197,217)"/>
  <rect x="10" y="8" width="1" height="1" fill="rgb(113,163,238)"/>
  <rect x="10" y="9" width="1" height="1" fill="rgb(89,118,162)"/>
  <rect x="10" y="10" width="1" height="1" fill="rgb(192,209,234)"/>
  <rect x="10" y="11" width="1" height="1" fill="rgb(110,161,237)"/>
  <rect x="10" y="12" width="1" height="1" fill="rgb(86,130,196)"/>
  <rect x="10" y="13" width="1" height="1" fill="rgb(53,57,62)" fill-opacity="0.9375"/>
  <rect x="10" y="14" width="1" height="1" fill="rgb(51,51,51)" fill-opacity="0.203125"/>
  <rect x="10" y="15" width="1" height="6" fill="rgb(255,255,255)" fill-opacity="0.0078125"/>
  <rect x="11" y="0" width="1" height="5" fill="rgb(255,255,255)" fill-opacity="0.0078125"/>
  <rect x="11" y="5" width="1" height="1" fill="rgb(43,43,43)" fill-opacity="0.0546875"/>
  <rect x="11" y="6" width="1" height="1" fill="rgb(76,78,80)" fill-opacity="0.9609375"/>
  <rect x="11" y="7" width="1" height="1" fill="rgb(179,203,240)"/>
  <rect x="11" y="8" width="1" height="1" fill="rgb(117,165,238)"/>
  <rect x="11" y="9" width="1" height="1" fill="rgb(113,163,238)"/>
  <rect x="11" y="10" width="1" height="1" fill="rgb(111,161,238)"/>
  <rect x="11" y="11" width="1" height="1" fill="rgb(92,135,198)"/>
  <rect x="11" y="12" width="1" height="1" fill="rgb(54,57,62)" fill-opacity="0.9453125"/>
  <rect x="11" y="13" width="1" height="1" fill="rgb(51,51,51)" fill-opacity="0.203125"/>
  <rect x="11" y="14" width="1" height="7" fill="rgb(255,255,255)" fill-opacity="0.0078125"/>
  <rect x="12" y="0" width="1" height="5" fill="rgb(255,255,255)" fill-opacity="0.0078125"/>
  <rect x="12" y="5" width="1" height="1" fill="rgb(50,50,50)" fill-opacity="0.3828125"/>
  <rect x="12" y="6" width="1" height="1" fill="rgb(159,169,183)"/>
  <rect x="12" y="7" width="1" height="1" fill="rgb(138,180,241)"/>
  <rect x="12" y="8" width="1" height="1" fill="rgb(121,168,239)"/>
  <rect x="12" y="9" width="1" height="1" fill="rgb(117,165,238)"/>
  <rect x="12" y="10" width="1" height="1" fill="rgb(113,163,238)"/>
  <rect x="12" y="11" width="1" height="1" fill="rgb(83,112,158)"/>
  <rect x="12" y="12" width="1" height="1" fill="rgb(51,51,51)" fill-opacity="0.875"/>
  <rect x="12" y="13" width="1" height="1" fill="rgb(53,53,53)" fill-opacity="0.1015625"/>
  <rect x="12" y="14" width="1" height="1" fill="rgb(22,46,80)" fill-opacity="0.0078125"/>
  <rect x="12" y="15" width="1" height="6" fill="rgb(255,255,255)" fill-opacity="0.0078125"/>
  <rect x="13" y="0" width="1" height="3" fill="rgb(255,255,255)" fill-opacity="0.0078125"/>
  <rect x="13" y="3" width="1" height="1" fill="rgb(21,44,80)" fill-opacity="0.0078125"/>
  <rect x="13" y="4" width="1" height="1" fill="rgb(23,45,80)" fill-opacity="0.0078125"/>
  <rect x="13" y="5" width="1" height="1" fill="rgb(52,52,52)" fill-opacity="0.7578125"/>
  <rect x="13" y="6" width="1" height="1" fill="rgb(192,207,229)"/>
  <rect x="13" y="7" width="1" height="1" fill="rgb(129,173,240)"/>
  <rect x="13" y="8" width="1" height="1" fill="rgb(125,171,239)"/>
  <rect x="13" y="9" width="1" height="1" fill="rgb(121,168,239)"/>
  <rect x="13" y="10" width="1" height="1" fill="rgb(117,165,238)"/>
  <rect x="13" y="11" width="1" height="1" fill="rgb(113,163,238)"/>
  <rect x="13" y="12" width="1" height="1" fill="rgb(81,110,153)"/>
  <rect x="13" y="13" width="1" height="1" fill="rgb(51,51,51)" fill-opacity="0.765625"/>
  <rect x="13" y="14" width="1" height="1" fill="rgb(78,106,147)" fill-opacity="0.0078125"/>
  <rect x="13" y="15" width="1" height="1" fill="rgb(22,46,80)" fill-opacity="0.0078125"/>
  <rect x="13" y="16" width="1" height="1" fill="rgb(21,44,80)" fill-opacity="0.0078125"/>
  <rect x="13" y="17" width="1" height="1" fill="rgb(22,45,80)" fill-opacity="0.0078125"/>
  <rect x="13" y="18" width="1" height="1" fill="rgb(21,44,80)" fill-opacity="0.0078125"/>
  <rect x="13" y="19" width="1" height="2" fill="rgb(255,255,255)" fill-opacity="0.0078125"/>
  <rect x="14" y="0" width="1" height="3" fill="rgb(255,255,255)" fill-opacity="0.0078125"/>
  <rect x="14" y="3" width="1" height="1" fill="rgb(23,45,80)" fill-opacity="0.0078125"/>
  <rect x="14" y="4" width="1" height="1" fill="rgb(53,53,53)" fill-opacity="0.140625"/>
  <rect x="14" y="5" width="1" height="1" fill="rgb(100,104,110)"/>
  <rect x="14" y="6" width="1" height="1" fill="rgb(179,205,244)"/>
  <rect x="14" y="7" width="1" height="1" fill="rgb(133,176,240)"/>
  <rect x="14" y="8" width="1" height="1" fill="rgb(129,173,240)"/>
  <rect x="14" y="9" width="1" height="1" fill="rgb(125,171,239)"/>
  <rect x="14" y="10" width="1" height="1" fill="rgb(115,160,227)"/>
  <rect x="14" y="11" width="1" height="1" fill="rgb(89,120,167)"/>
  <rect x="14" y="12" width="1" height="1" fill="rgb(63,74,92)"/>
  <rect x="14" y="13" width="1" height="1" fill="rgb(51,51,51)" fill-opacity="0.7265625"/>
  <rect x="14" y="14" width="1" height="1" fill="rgb(147,182,232)" fill-opacity="0.0078125"/>
  <rect x="14" y="15" width="1" height="1" fill="rgb(75,104,146)" fill-opacity="0.0078125"/>
  <rect x="14" y="16" width="1" height="1" fill="rgb(21,45,79)" fill-opacity="0.0078125"/>
  <rect x="14" y="17" width="1" height="1" fill="rgb(161,192,237)" fill-opacity="0.0078125"/>
  <rect x="14" y="18" width="1" height="1" fill="rgb(22,45,80)" fill-opacity="0.0078125"/>
  <rect x="14" y="19" width="1" height="2" fill="rgb(255,255,255)" fill-opacity="0.0078125"/>
  <rect x="15" y="0" width="1" height="3" fill="rgb(255,255,255)" fill-opacity="0.0078125"/>
  <rect x="15" y="3" width="1" height="1" fill="rgb(23,45,80)" fill-opacity="0.0078125"/>
  <rect x="15" y="4" width="1" height="1" fill="rgb(51,51,51)" fill-opacity="0.5078125"/>
  <rect x="15" y="5" width="1" height="1" fill="rgb(179,190,206)"/>
  <rect x="15" y="6" width="1" height="1" fill="rgb(145,184,242)"/>
  <rect x="15" y="7" width="1" height="1" fill="rgb(135,176,238)"/>
  <rect x="15" y="8" width="1" height="1" fill="rgb(109,144,195)"/>
  <rect x="15" y="9" width="1" height="1" fill="rgb(77,95,122)"/>
  <rect x="15" y="10" width="1" height="1" fill="rgb(52,54,56)" fill-opacity="0.9609375"/>
  <rect x="15" y="11" width="1" height="1" fill="rgb(51,51,51)" fill-opacity="0.6328125"/>
  <rect x="15" y="12" width="1" height="1" fill="rgb(51,51,51)" fill-opacity="0.2578125"/>
  <rect x="15" y="13" width="1" height="1" fill="rgb(0,0,0)" fill-opacity="0.0078125"/>
  <rect x="15" y="14" width="1" height="1" fill="rgb(75,104,146)" fill-opacity="0.0078125"/>
  <rect x="15" y="15" width="1" height="1" fill="rgb(142,177,230)" fill-opacity="0.0078125"/>
  <rect x="15" y="16" width="1" height="1" fill="rgb(73,102,146)" fill-opacity="0.0078125"/>
  <rect x="15" y="17" width="1" height="1" fill="rgb(160,191,236)" fill-opacity="0.0078125"/>
  <rect x="15" y="18" width="1" height="1" fill="rgb(22,45,80)" fill-opacity="0.0078125"/>
  <rect x="15" y="19" width="1" height="2" fill="rgb(255,255,255)" fill-opacity="0.0078125"/>
  <rect x="16" y="0" width="1" height="3" fill="rgb(255,255,255)" fill-opacity="0.0078125"/>
  <rect x="16" y="3" width="1" height="1" fill="rgb(23,45,80)" fill-opacity="0.0078125"/>
  <rect x="16" y="4" width="1" height="1" fill="rgb(51,51,51)" fill-opacity="0.8671875"/>
  <rect x="16" y="5" width="1" height="1" fill="rgb(174,191,217)"/>
  <rect x="16" y="6" width="1" height="1" fill="rgb(94,118,152)"/>
  <rect x="16" y="7" width="1" height="1" fill="rgb(59,64,72)"/>
  <rect x="16" y="8" width="1" height="1" fill="rgb(52,52,52)" fill-opacity="0.7578125"/>
  <rect x="16" y="9" width="1" height="1" fill="rgb(50,50,50)" fill-opacity="0.3828125"/>
  <rect x="16" y="10" width="1" height="1" fill="rgb(43,43,43)" fill-opacity="0.0546875"/>
  <rect x="16" y="11" width="1" height="2" fill="rgb(255,255,255)" fill-opacity="0.0078125"/>
  <rect x="16" y="13" width="1" height="1" fill="rgb(21,44,80)" fill-opacity="0.0078125"/>
  <rect x="16" y="14" width="1" height="1" fill="rgb(21,45,79)" fill-opacity="0.0078125"/>
  <rect x="16" y="15" width="1" height="1" fill="rgb(73,102,146)" fill-opacity="0.0078125"/>
  <rect x="16" y="16" width="1" height="1" fill="rgb(136,173,228)" fill-opacity="0.0078125"/>
  <rect x="16" y="17" width="1" height="1" fill="rgb(158,190,236)" fill-opacity="0.0078125"/>
  <rect x="16" y="18" width="1" height="1" fill="rgb(22,45,80)" fill-opacity="0.0078125"/>
  <rect x="16" y="19" width="1" height="2" fill="rgb(255,255,255)" fill-opacity="0.0078125"/>
  <rect x="17" y="0" width="1" height="3" fill="rgb(255,255,255)" fill-opacity="0.0078125"/>
  <rect x="17" y="3" width="1" height="1" fill="rgb(23,45,80)" fill-opacity="0.0078125"/>
  <rect x="17" y="4" width="1" height="1" fill="rgb(50,50,50)" fill-opacity="0.6796875"/>
  <rect x="17" y="5" width="1" height="1" fill="rgb(51,51,51)" fill-opacity="0.8515625"/>
  <rect x="17" y="6" width="1" height="1" fill="rgb(51,51,51)" fill-opacity="0.5078125"/>
  <rect x="17" y="7" width="1" height="1" fill="rgb(53,53,53)" fill-opacity="0.140625"/>
  <rect x="17" y="8" width="1" height="1" fill="rgb(23,45,80)" fill-opacity="0.0078125"/>
  <rect x="17" y="9" width="1" height="4" fill="rgb(255,255,255)" fill-opacity="0.0078125"/>
  <rect x="17" y="13" width="1" height="1" fill="rgb(22,45,80)" fill-opacity="0.0078125"/>
  <rect x="17" y="14" width="1" height="1" fill="rgb(161,192,237)" fill-opacity="0.0078125"/>
  <rect x="17" y="15" width="1" height="1" fill="rgb(160,191,236)" fill-opacity="0.0078125"/>
  <rect x="17" y="16" width="1" height="1" fill="rgb(158,190,236)" fill-opacity="0.0078125"/>
  <rect x="17" y="17" width="1" height="1" fill="rgb(157,189,235)" fill-opacity="0.0078125"/>
  <rect x="17" y="18" width="1" height="1" fill="rgb(22,45,80)" fill-opacity="0.0078125"/>
  <rect x="17" y="19" width="1" height="2" fill="rgb(255,255,255)" fill-opacity="0.0078125"/>
  <rect x="18" y="0" width="1" height="3" fill="rgb(255,255,255)" fill-opacity="0.0078125"/>
  <rect x="18" y="3" width="1" height="1" fill="rgb(21,44,80)" fill-opacity="0.0078125"/>
  <rect x="18" y="4" width="1" height="4" fill="rgb(23,45,80)" fill-opacity="0.0078125"/>
  <rect x="18" y="8" width="1" height="1" fill="rgb(21,44,80)" fill-opacity="0.0078125"/>
  <rect x="18" y="9" width="1" height="4" fill="rgb(255,255,255)" fill-opacity="0.0078125"/>
  <rect x="18" y="13" width="1" height="1" fill="rgb(21,44,80)" fill-opacity="0.0078125"/>
  <rect x="18" y="14" width="1" height="4" fill="rgb(22,45,80)" fill-opacity="0.0078125"/>
  <rect x="18" y="18" width="1" height="1" fill="rgb(21,44,80)" fill-opacity="0.0078125"/>
  <rect x="18" y="19" width="1" height="2" fill="rgb(255,255,255)" fill-opacity="0.0078125"/>
  <rect x="19" y="0" width="1" height="21" fill="rgb(255,255,255)" fill-opacity="0.0078125"/>
  <rect x="20" y="0" width="1" height="21" fill="rgb(255,255,255)" fill-opacity="0.0078125"/>
</svg>