<svg xmlns="http://www.w3.org/2000/svg" shape-rendering="crispEdges" width="21" height="21" viewBox="0 0 21 21">
  <rect x="0" y="0" width="21" height="1" fill="rgb(255,255,255)" fill-opacity="0.0078125"/>
  <rect x="0" y="1" width="21" height="1" fill="rgb(255,255,255)" fill-opacity="0.0078125"/>
  <rect x="0" y="2" width="21" height="1" fill="rgb(255,255,255)" fill-opacity="0.0078125"/>
  <rect x="0" y="3" width="21" height="1" fill="rgb(255,255,255)" fill-opacity="0.0078125"/>
  <rect x="0" y="4" width="21" height="1" fill="rgb(255,255,255)" fill-opacity="0.0078125"/>
  <rect x="0" y="5" width="21" height="1" fill="rgb(255,255,255)" fill-opacity="0.0078125"/>
  <rect x="0" y="6" width="8" height="1" fill="rgb(255,255,255)" fill-opacity="0.0078125"/>
  <rect x="8" y="6" width="1" height="1" fill="rgb(0,0,0)" fill-opacity="0.109375"/>
  <rect x="9" y="6" width="1" height="1" fill="rgb(0,0,0)" fill-opacity="0.296875"/>
  <rect x="10" y="6" width="2" height="1" fill="rgb(0,0,0)" fill-opacity="0.375"/>
  <rect x="12" y="6" width="1" height="1" fill="rgb(0,0,0)" fill-opacity="0.2734375"/>
  <rect x="13" y="6" width="1" height="1" fill="rgb(33,33,33)" fill-opacity="0.09375"/>
  <rect x="14" y="6" width="7" height="1" fill="rgb(255,255,255)" fill-opacity="0.0078125"/>
  <rect x="0" y="7" width="7" height="1" fill="rgb(255,255,255)" fill-opacity="0.0078125"/>
  <rect x="7" y="7" width="1" height="1" fill="rgb(0,0,0)" fill-opacity="0.203125"/>
  <rect x="8" y="7" width="1" height="1" fill="rgb(11,11,11)" fill-opacity="0.375"/>
  <rect x="9" y="7" width="1" height="1" fill="rgb(117,117,117)" fill-opacity="0.2890625"/>
  <rect x="10" y="7" width="2" height="1" fill="rgb(197,197,197)" fill-opacity="0.265625"/>
  <rect x="12" y="7" width="1" height="1" fill="rgb(143,143,143)" fill-opacity="0.2734375"/>
  <rect x="13" y="7" width="1" height="1" fill="rgb(95,95,95)" fill-opacity="0.328125"/>
  <rect x="14" y="7" width="1" height="1" fill="rgb(130,130,130)" fill-opacity="0.203125"/>
  <rect x="15" y="7" width="6" height="1" fill="rgb(255,255,255)" fill-opacity="0.0078125"/>
  <rect x="0" y="8" width="6" height="1" fill="rgb(255,255,255)" fill-opacity="0.0078125"/>
  <rect x="6" y="8" width="1" height="1" fill="rgb(0,0,0)" fill-opacity="0.109375"/>
  <rect x="7" y="8" width="1" height="1" fill="rgb(11,11,11)" fill-opacity="0.3828125"/>
  <rect x="8" y="8" width="1" height="1" fill="rgb(201,201,201)" fill-opacity="0.265625"/>
  <rect x="9" y="8" width="4" height="1" fill="rgb(231,231,231)" fill-opacity="0.2578125"/>
  <rect x="13" y="8" width="1" height="1" fill="rgb(219,219,219)" fill-opacity="0.2578125"/>
  <rect x="14" y="8" width="1" height="1" fill="rgb(177,177,177)" fill-opacity="0.3671875"/>
  <rect x="15" y="8" width="1" height="1" fill="rgb(197,197,197)" fill-opacity="0.125"/>
  <rect x="16" y="8" width="5" height="1" fill="rgb(255,255,255)" fill-opacity="0.0078125"/>
  <rect x="0" y="9" width="6" height="1" fill="rgb(255,255,255)" fill-opacity="0.0078125"/>
  <rect x="6" y="9" width="1" height="1" fill="rgb(0,0,0)" fill-opacity="0.2890625"/>
  <rect x="7" y="9" width="1" height="1" fill="rgb(113,113,113)" fill-opacity="0.2890625"/>
  <rect x="8" y="9" width="6" height="1" fill="rgb(231,231,231)" fill-opacity="0.2578125"/>
  <rect x="14" y="9" width="1" height="1" fill="rgb(217,217,217)" fill-opacity="0.2890625"/>
  <rect x="15" y="9" width="1" height="1" fill="rgb(237,237,237)" fill-opacity="0.328125"/>
  <rect x="16" y="9" width="5" height="1" fill="rgb(255,255,255)" fill-opacity="0.0078125"/>
  <rect x="0" y="10" width="6" height="1" fill="rgb(255,255,255)" fill-opacity="0.0078125"/>
  <rect x="6" y="10" width="1" height="1" fill="rgb(0,0,0)" fill-opacity="0.3671875"/>
  <rect x="7" y="10" width="1" height="1" fill="rgb(189,189,189)" fill-opacity="0.265625"/>
  <rect x="8" y="10" width="6" height="1" fill="rgb(231,231,231)" fill-opacity="0.2578125"/>
  <rect x="14" y="10" width="1" height="1" fill="rgb(232,232,232)" fill-opacity="0.265625"/>
  <rect x="15" y="10" width="1" height="1" fill="rgb(255,255,255)" fill-opacity="0.4609375"/>
  <rect x="16" y="10" width="5" height="1" fill="rgb(255,255,255)" fill-opacity="0.0078125"/>
  <rect x="0" y="11" width="6" height="1" fill="rgb(255,255,255)" fill-opacity="0.0078125"/>
  <rect x="6" y="11" width="1" height="1" fill="rgb(0,0,0)" fill-opacity="0.359375"/>
  <rect x="7" y="11" width="1" height="1" fill="rgb(192,192,192)" fill-opacity="0.2578125"/>
  <rect x="8" y="11" width="6" height="1" fill="rgb(231,231,231)" fill-opacity="0.2578125"/>
  <rect x="14" y="11" width="1" height="1" fill="rgb(233,233,233)" fill-opacity="0.2734375"/>
  <rect x="15" y="11" width="1" height="1" fill="rgb(255,255,255)" fill-opacity="0.53125"/>
  <rect x="16" y="11" width="5" height="1" fill="rgb(255,255,255)" fill-opacity="0.0078125"/>
  <rect x="0" y="12" width="6" height="1" fill="rgb(255,255,255)" fill-opacity="0.0078125"/>
  <rect x="6" y="12" width="1" height="1" fill="rgb(0,0,0)" fill-opacity="0.234375"/>
  <rect x="7" y="12" width="1" height="1" fill="rgb(146,146,146)" fill-opacity="0.2734375"/>
  <rect x="8" y="12" width="6" height="1" fill="rgb(231,231,231)" fill-opacity="0.2578125"/>
  <rect x="14" y="12" width="1" height="1" fill="rgb(243,243,243)" fill-opacity="0.328125"/>
  <rect x="15" y="12" width="1" height="1" fill="rgb(255,255,255)" fill-opacity="0.4375"/>
  <rect x="16" y="12" width="5" height="1" fill="rgb(255,255,255)" fill-opacity="0.0078125"/>
  <rect x="0" y="13" width="6" height="1" fill="rgb(255,255,255)" fill-opacity="0.0078125"/>
  <rect x="6" y="13" width="1" height="1" fill="rgb(58,58,58)" fill-opacity="0.09375"/>
  <rect x="7" y="13" width="1" height="1" fill="rgb(114,114,114)" fill-opacity="0.328125"/>
  <rect x="8" y="13" width="1" height="1" fill="rgb(220,220,220)" fill-opacity="0.2578125"/>
  <rect x="9" y="13" width="4" height="1" fill="rgb(231,231,231)" fill-opacity="0.2578125"/>
  <rect x="13" y="13" width="1" height="1" fill="rgb(236,236,236)" fill-opacity="0.265625"/>
  <rect x="14" y="13" width="1" height="1" fill="rgb(255,255,255)" fill-opacity="0.5390625"/>
  <rect x="15" y="13" width="1" height="1" fill="rgb(255,255,255)" fill-opacity="0.171875"/>
  <rect x="16" y="13" width="5" height="1" fill="rgb(255,255,255)" fill-opacity="0.0078125"/>
  <rect x="0" y="14" width="7" height="1" fill="rgb(255,255,255)" fill-opacity="0.0078125"/>
  <rect x="7" y="14" width="1" height="1" fill="rgb(149,149,149)" fill-opacity="0.1953125"/>
  <rect x="8" y="14" width="1" height="1" fill="rgb(198,198,198)" fill-opacity="0.359375"/>
  <rect x="9" y="14" width="1" height="1" fill="rgb(227,227,227)" fill-opacity="0.296875"/>
  <rect x="10" y="14" width="1" height="1" fill="rgb(240,240,240)" fill-opacity="0.265625"/>
  <rect x="11" y="14" width="1" height="1" fill="rgb(233,233,233)" fill-opacity="0.28125"/>
  <rect x="12" y="14" width="1" height="1" fill="rgb(243,243,243)" fill-opacity="0.3359375"/>
  <rect x="13" y="14" width="1" height="1" fill="rgb(255,255,255)" fill-opacity="0.5390625"/>
  <rect x="14" y="14" width="1" height="1" fill="rgb(255,255,255)" fill-opacity="0.3125"/>
  <rect x="15" y="14" width="6" height="1" fill="rgb(255,255,255)" fill-opacity="0.0078125"/>
  <rect x="0" y="15" width="8" height="1" fill="rgb(255,255,255)" fill-opacity="0.0078125"/>
  <rect x="8" y="15" width="1" height="1" fill="rgb(219,219,219)" fill-opacity="0.1171875"/>
  <rect x="9" y="15" width="1" height="1" fill="rgb(249,249,249)" fill-opacity="0.3359375"/>
  <rect x="10" y="15" width="1" height="1" fill="rgb(255,255,255)" fill-opacity="0.4765625"/>
  <rect x="11" y="15" width="1" height="1" fill="rgb(255,255,255)" fill-opacity="0.5390625"/>
  <rect x="12" y="15" width="1" height="1" fill="rgb(255,255,255)" fill-opacity="0.4453125"/>
  <rect x="13" y="15" width="1" height="1" fill="rgb(255,255,255)" fill-opacity="0.15625"/>
  <rect x="14" y="15" width="7" height="1" fill="rgb(255,255,255)" fill-opacity="0.0078125"/>
  <rect x="0" y="16" width="21" height="1" fill="rgb(255,255,255)" fill-opacity="0.0078125"/>
  <rect x="0" y="17" width="21" height="1" fill="rgb(255,255,255)" fill-opacity="0.0078125"/>
  <rect x="0" y="18" width="21" height="1" fill="rgb(255,255,255)" fill-opacity="0.0078125"/>
  <rect x="0" y="19" width="21" height="1" fill="rgb(255,255,255)" fill-opacity="0.0078125"/>
  <rect x="0" y="20" width="21" height="1" fill="rgb(255,255,255)" fill-opacity="0.0078125"/>
</svg>