<svg xmlns="http://www.w3.org/2000/svg" shape-rendering="crispEdges" width="21" height="21" viewBox="0 0 21 21">
  <rect x="0" y="0" width="1" height="21" fill="rgb(255,255,255)" fill-opacity="0.0078125"/>
  <rect x="1" y="0" width="1" height="21" fill="rgb(255,255,255)" fill-opacity="0.0078125"/>
  <rect x="2" y="0" width="1" height="21" fill="rgb(255,255,255)" fill-opacity="0.0078125"/>
  <rect x="3" y="0" width="1" height="21" fill="rgb(255,255,255)" fill-opacity="0.0078125"/>
  <rect x="4" y="0" width="1" height="13" fill="rgb(255,255,255)" fill-opacity="0.0078125"/>
  <rect x="4" y="13" width="1" height="1" fill="rgb(0,0,0)" fill-opacity="0.3203125"/>
  <rect x="4" y="14" width="1" height="1" fill="rgb(18,18,18)" fill-opacity="0.78125"/>
  <rect x="4" y="15" width="1" height="1" fill="rgb(0,0,0)" fill-opacity="0.3046875"/>
  <rect x="4" y="16" width="1" height="5" fill="rgb(255,255,255)" fill-opacity="0.0078125"/>
  <rect x="5" y="0" width="1" height="12" fill="rgb(255,255,255)" fill-opacity="0.0078125"/>
  <rect x="5" y="12" width="1" height="1" fill="rgb(0,0,0)" fill-opacity="0.171875"/>
  <rect x="5" y="13" width="1" height="1" fill="rgb(71,71,71)" fill-opacity="0.984375"/>
  <rect x="5" y="14" width="1" height="1" fill="rgb(227,227,227)"/>
  <rect x="5" y="15" width="1" height="1" fill="rgb(24,24,24)" fill-opacity="0.8046875"/>
  <rect x="5" y="16" width="1" height="5" fill="rgb(255,255,255)" fill-opacity="0.0078125"/>
  <rect x="6" y="0" width="1" height="11" fill="rgb(255,255,255)" fill-opacity="0.0078125"/>
  <rect x="6" y="11" width="1" height="1" fill="rgb(0,0,0)" fill-opacity="0.03125"/>
  <rect x="6" y="12" width="1" height="1" fill="rgb(16,16,16)" fill-opacity="0.7890625"/>
  <rect x="6" y="13" width="1" height="1" fill="rgb(206,206,206)"/>
  <rect x="6" y="14" width="1" height="1" fill="rgb(161,161,161)"/>
  <rect x="6" y="15" width="1" height="1" fill="rgb(0,0,0)" fill-opacity="0.5234375"/>
  <rect x="6" y="16" width="1" height="5" fill="rgb(255,255,255)" fill-opacity="0.0078125"/>
  <rect x="7" y="0" width="1" height="10" fill="rgb(255,255,255)" fill-opacity="0.0078125"/>
  <rect x="7" y="10" width="1" height="1" fill="rgb(0,0,0)" fill-opacity="0.0546875"/>
  <rect x="7" y="11" width="1" height="1" fill="rgb(8,8,8)" fill-opacity="0.71875"/>
  <rect x="7" y="12" width="1" height="1" fill="rgb(161,161,161)"/>
  <rect x="7" y="13" width="1" height="1" fill="rgb(220,220,220)"/>
  <rect x="7" y="14" width="1" height="1" fill="rgb(32,32,32)" fill-opacity="0.890625"/>
  <rect x="7" y="15" width="1" height="1" fill="rgb(0,0,0)" fill-opacity="0.0390625"/>
  <rect x="7" y="16" width="1" height="5" fill="rgb(255,255,255)" fill-opacity="0.0078125"/>
  <rect x="8" y="0" width="1" height="8" fill="rgb(255,255,255)" fill-opacity="0.0078125"/>
  <rect x="8" y="8" width="1" height="1" fill="rgb(0,0,0)" fill-opacity="0.1328125"/>
  <rect x="8" y="9" width="1" height="1" fill="rgb(0,0,0)" fill-opacity="0.4453125"/>
  <rect x="8" y="10" width="1" height="1" fill="rgb(43,43,43)" fill-opacity="0.9375"/>
  <rect x="8" y="11" width="1" height="1" fill="rgb(174,174,174)"/>
  <rect x="8" y="12" width="1" height="1" fill="rgb(221,221,221)"/>
  <rect x="8" y="13" width="1" height="1" fill="rgb(64,64,64)" fill-opacity="0.9765625"/>
  <rect x="8" y="14" width="1" height="1" fill="rgb(0,0,0)" fill-opacity="0.25"/>
  <rect x="8" y="15" width="1" height="6" fill="rgb(255,255,255)" fill-opacity="0.0078125"/>
  <rect x="9" y="0" width="1" height="6" fill="rgb(255,255,255)" fill-opacity="0.0078125"/>
  <rect x="9" y="6" width="1" height="1" fill="rgb(0,0,0)" fill-opacity="0.2734375"/>
  <rect x="9" y="7" width="1" height="1" fill="rgb(34,34,34)" fill-opacity="0.8828125"/>
  <rect x="9" y="8" width="1" height="1" fill="rgb(92,92,92)"/>
  <rect x="9" y="9" width="1" height="1" fill="rgb(155,155,155)"/>
  <rect x="9" y="10" width="1" height="1" fill="rgb(228,228,228)"/>
  <rect x="9" y="11" width="1" height="1" fill="rgb(200,200,200)"/>
  <rect x="9" y="12" width="1" height="1" fill="rgb(56,56,56)" fill-opacity="0.96875"/>
  <rect x="9" y="13" width="1" height="1" fill="rgb(0,0,0)" fill-opacity="0.2578125"/>
  <rect x="9" y="14" width="1" height="7" fill="rgb(255,255,255)" fill-opacity="0.0078125"/>
  <rect x="10" y="0" width="1" height="6" fill="rgb(255,255,255)" fill-opacity="0.0078125"/>
  <rect x="10" y="6" width="1" height="1" fill="rgb(27,27,27)" fill-opacity="0.7890625"/>
  <rect x="10" y="7" width="1" height="1" fill="rgb(227,227,227)"/>
  <rect x="10" y="8" width="1" height="2" fill="rgb(230,230,230)"/>
  <rect x="10" y="10" width="1" height="1" fill="rgb(168,168,168)"/>
  <rect x="10" y="11" width="1" height="1" fill="rgb(6,6,6)" fill-opacity="0.96875"/>
  <rect x="10" y="12" width="1" height="1" fill="rgb(0,0,0)" fill-opacity="0.25"/>
  <rect x="10" y="13" width="1" height="8" fill="rgb(255,255,255)" fill-opacity="0.0078125"/>
  <rect x="11" y="0" width="1" height="6" fill="rgb(255,255,255)" fill-opacity="0.0078125"/>
  <rect x="11" y="6" width="1" height="1" fill="rgb(0,0,0)" fill-opacity="0.3671875"/>
  <rect x="11" y="7" width="1" height="1" fill="rgb(59,59,59)" fill-opacity="0.9765625"/>
  <rect x="11" y="8" width="1" height="1" fill="rgb(118,118,118)"/>
  <rect x="11" y="9" width="1" height="1" fill="rgb(179,179,179)"/>
  <rect x="11" y="10" width="1" height="1" fill="rgb(230,230,230)"/>
  <rect x="11" y="11" width="1" height="1" fill="rgb(189,189,189)"/>
  <rect x="11" y="12" width="1" height="1" fill="rgb(50,50,50)" fill-opacity="0.9453125"/>
  <rect x="11" y="13" width="1" height="1" fill="rgb(0,0,0)" fill-opacity="0.203125"/>
  <rect x="11" y="14" width="1" height="7" fill="rgb(255,255,255)" fill-opacity="0.0078125"/>
  <rect x="12" y="0" width="1" height="7" fill="rgb(255,255,255)" fill-opacity="0.0078125"/>
  <rect x="12" y="7" width="1" height="1" fill="rgb(0,0,0)" fill-opacity="0.0390625"/>
  <rect x="12" y="8" width="1" height="1" fill="rgb(0,0,0)" fill-opacity="0.234375"/>
  <rect x="12" y="9" width="1" height="1" fill="rgb(0,0,0)" fill-opacity="0.515625"/>
  <rect x="12" y="10" width="1" height="1" fill="rgb(58,58,58)" fill-opacity="0.9609375"/>
  <rect x="12" y="11" width="1" height="1" fill="rgb(186,186,186)"/>
  <rect x="12" y="12" width="1" height="1" fill="rgb(216,216,216)"/>
  <rect x="12" y="13" width="1" height="1" fill="rgb(52,52,52)" fill-opacity="0.953125"/>
  <rect x="12" y="14" width="1" height="1" fill="rgb(0,0,0)" fill-opacity="0.1953125"/>
  <rect x="12" y="15" width="1" height="6" fill="rgb(255,255,255)" fill-opacity="0.0078125"/>
  <rect x="13" y="0" width="1" height="10" fill="rgb(255,255,255)" fill-opacity="0.0078125"/>
  <rect x="13" y="10" width="1" height="1" fill="rgb(0,0,0)" fill-opacity="0.0859375"/>
  <rect x="13" y="11" width="1" height="1" fill="rgb(16,16,16)" fill-opacity="0.796875"/>
  <rect x="13" y="12" width="1" height="1" fill="rgb(177,177,177)"/>
  <rect x="13" y="13" width="1" height="1" fill="rgb(216,216,216)"/>
  <rect x="13" y="14" width="1" height="1" fill="rgb(26,26,26)" fill-opacity="0.84375"/>
  <rect x="13" y="15" width="1" height="1" fill="rgb(0,0,0)" fill-opacity="0.0234375"/>
  <rect x="13" y="16" width="1" height="5" fill="rgb(255,255,255)" fill-opacity="0.0078125"/>
  <rect x="14" y="0" width="1" height="11" fill="rgb(255,255,255)" fill-opacity="0.0078125"/>
  <rect x="14" y="11" width="1" height="1" fill="rgb(0,0,0)" fill-opacity="0.0546875"/>
  <rect x="14" y="12" width="1" height="1" fill="rgb(23,23,23)" fill-opacity="0.8359375"/>
  <rect x="14" y="13" width="1" height="1" fill="rgb(215,215,215)"/>
  <rect x="14" y="14" width="1" height="1" fill="rgb(145,145,145)"/>
  <rect x="14" y="15" width="1" height="1" fill="rgb(0,0,0)" fill-opacity="0.4453125"/>
  <rect x="14" y="16" width="1" height="5" fill="rgb(255,255,255)" fill-opacity="0.0078125"/>
  <rect x="15" y="0" width="1" height="12" fill="rgb(255,255,255)" fill-opacity="0.0078125"/>
  <rect x="15" y="12" width="1" height="1" fill="rgb(0,0,0)" fill-opacity="0.2265625"/>
  <rect x="15" y="13" width="1" height="1" fill="rgb(92,92,92)"/>
  <rect x="15" y="14" width="1" height="1" fill="rgb(229,229,229)"/>
  <rect x="15" y="15" width="1" height="1" fill="rgb(25,25,25)" fill-opacity="0.7734375"/>
  <rect x="15" y="16" width="1" height="5" fill="rgb(255,255,255)" fill-opacity="0.0078125"/>
  <rect x="16" y="0" width="1" height="13" fill="rgb(255,255,255)" fill-opacity="0.0078125"/>
  <rect x="16" y="13" width="1" height="1" fill="rgb(2,2,2)" fill-opacity="0.5234375"/>
  <rect x="16" y="14" width="1" height="1" fill="rgb(51,51,51)" fill-opacity="0.9296875"/>
  <rect x="16" y="15" width="1" height="1" fill="rgb(0,0,0)" fill-opacity="0.421875"/>
  <rect x="16" y="16" width="1" height="5" fill="rgb(255,255,255)" fill-opacity="0.0078125"/>
  <rect x="17" y="0" width="1" height="21" fill="rgb(255,255,255)" fill-opacity="0.0078125"/>
  <rect x="18" y="0" width="1" height="21" fill="rgb(255,255,255)" fill-opacity="0.0078125"/>
  <rect x="19" y="0" width="1" height="21" fill="rgb(255,255,255)" fill-opacity="0.0078125"/>
  <rect x="20" y="0" width="1" height="21" fill="rgb(255,255,255)" fill-opacity="0.0078125"/>
</svg>