<svg xmlns="http://www.w3.org/2000/svg" shape-rendering="crispEdges" width="21" height="21" viewBox="0 0 21 21">
  <rect x="0" y="0" width="1" height="21" fill="rgb(255,255,255)" fill-opacity="0.0078125"/>
  <rect x="1" y="0" width="1" height="21" fill="rgb(255,255,255)" fill-opacity="0.0078125"/>
  <rect x="2" y="0" width="1" height="21" fill="rgb(255,255,255)" fill-opacity="0.0078125"/>
  <rect x="3" y="0" width="1" height="21" fill="rgb(255,255,255)" fill-opacity="0.0078125"/>
  <rect x="4" y="0" width="1" height="4" fill="rgb(255,255,255)" fill-opacity="0.0078125"/>
  <rect x="4" y="4" width="1" height="1" fill="rgb(45,45,45)" fill-opacity="0.8125"/>
  <rect x="4" y="5" width="1" height="3" fill="rgb(45,45,45)" fill-opacity="0.9375"/>
  <rect x="4" y="8" width="1" height="2" fill="rgb(46,46,46)" fill-opacity="0.9375"/>
  <rect x="4" y="10" width="1" height="2" fill="rgb(47,47,47)" fill-opacity="0.9375"/>
  <rect x="4" y="12" width="1" height="3" fill="rgb(48,48,48)" fill-opacity="0.9375"/>
  <rect x="4" y="15" width="1" height="2" fill="rgb(49,49,49)" fill-opacity="0.9375"/>
  <rect x="4" y="17" width="1" height="1" fill="rgb(44,44,44)" fill-opacity="0.7890625"/>
  <rect x="4" y="18" width="1" height="3" fill="rgb(255,255,255)" fill-opacity="0.0078125"/>
  <rect x="5" y="0" width="1" height="4" fill="rgb(255,255,255)" fill-opacity="0.0078125"/>
  <rect x="5" y="4" width="1" height="1" fill="rgb(47,47,47)" fill-opacity="0.9140625"/>
  <rect x="5" y="5" width="1" height="1" fill="rgb(219,173,168)"/>
  <rect x="5" y="6" width="1" height="1" fill="rgb(225,187,182)"/>
  <rect x="5" y="7" width="1" height="1" fill="rgb(221,178,173)"/>
  <rect x="5" y="8" width="1" height="1" fill="rgb(255,255,255)"/>
  <rect x="5" y="9" width="1" height="2" fill="rgb(254,254,254)"/>
  <rect x="5" y="11" width="1" height="1" fill="rgb(214,155,147)"/>
  <rect x="5" y="12" width="1" height="1" fill="rgb(213,151,142)"/>
  <rect x="5" y="13" width="1" height="1" fill="rgb(212,148,138)"/>
  <rect x="5" y="14" width="1" height="2" fill="rgb(255,255,255)"/>
  <rect x="5" y="16" width="1" height="1" fill="rgb(234,234,234)" fill-opacity="0.9609375"/>
  <rect x="5" y="17" width="1" height="1" fill="rgb(16,16,16)" fill-opacity="0.6875"/>
  <rect x="5" y="18" width="1" height="3" fill="rgb(255,255,255)" fill-opacity="0.0078125"/>
  <rect x="6" y="0" width="1" height="4" fill="rgb(255,255,255)" fill-opacity="0.0078125"/>
  <rect x="6" y="4" width="1" height="1" fill="rgb(47,47,47)" fill-opacity="0.9140625"/>
  <rect x="6" y="5" width="1" height="1" fill="rgb(225,187,182)"/>
  <rect x="6" y="6" width="1" height="2" fill="rgb(150,16,0)"/>
  <rect x="6" y="8" width="1" height="1" fill="rgb(233,233,233)"/>
  <rect x="6" y="9" width="1" height="1" fill="rgb(238,238,238)"/>
  <rect x="6" y="10" width="1" height="1" fill="rgb(243,243,243)"/>
  <rect x="6" y="11" width="1" height="1" fill="rgb(168,43,25)"/>
  <rect x="6" y="12" width="1" height="1" fill="rgb(173,51,33)"/>
  <rect x="6" y="13" width="1" height="1" fill="rgb(178,59,40)"/>
  <rect x="6" y="14" width="1" height="1" fill="rgb(255,255,255)"/>
  <rect x="6" y="15" width="1" height="1" fill="rgb(234,234,234)" fill-opacity="0.9609375"/>
  <rect x="6" y="16" width="1" height="1" fill="rgb(56,56,56)" fill-opacity="0.7109375"/>
  <rect x="6" y="17" width="1" height="1" fill="rgb(29,29,29)" fill-opacity="0.390625"/>
  <rect x="6" y="18" width="1" height="3" fill="rgb(255,255,255)" fill-opacity="0.0078125"/>
  <rect x="7" y="0" width="1" height="4" fill="rgb(255,255,255)" fill-opacity="0.0078125"/>
  <rect x="7" y="4" width="1" height="1" fill="rgb(48,48,48)" fill-opacity="0.9140625"/>
  <rect x="7" y="5" width="1" height="1" fill="rgb(221,178,173)"/>
  <rect x="7" y="6" width="1" height="1" fill="rgb(150,16,0)"/>
  <rect x="7" y="7" width="1" height="1" fill="rgb(152,20,3)"/>
  <rect x="7" y="8" width="1" height="1" fill="rgb(238,238,238)"/>
  <rect x="7" y="9" width="1" height="1" fill="rgb(242,242,242)"/>
  <rect x="7" y="10" width="1" height="1" fill="rgb(247,247,247)"/>
  <rect x="7" y="11" width="1" height="1" fill="rgb(173,50,32)"/>
  <rect x="7" y="12" width="1" height="1" fill="rgb(178,58,39)"/>
  <rect x="7" y="13" width="1" height="1" fill="rgb(182,65,46)"/>
  <rect x="7" y="14" width="1" height="1" fill="rgb(234,234,234)" fill-opacity="0.9609375"/>
  <rect x="7" y="15" width="1" height="1" fill="rgb(47,47,47)" fill-opacity="0.7421875"/>
  <rect x="7" y="16" width="1" height="1" fill="rgb(46,46,46)" fill-opacity="0.328125"/>
  <rect x="7" y="17" width="1" height="1" fill="rgb(53,53,53)" fill-opacity="0.25"/>
  <rect x="7" y="18" width="1" height="3" fill="rgb(255,255,255)" fill-opacity="0.0078125"/>
  <rect x="8" y="0" width="1" height="4" fill="rgb(255,255,255)" fill-opacity="0.0078125"/>
  <rect x="8" y="4" width="1" height="1" fill="rgb(48,48,48)" fill-opacity="0.9140625"/>
  <rect x="8" y="5" width="1" height="1" fill="rgb(255,255,255)"/>
  <rect x="8" y="6" width="1" height="1" fill="rgb(233,233,233)"/>
  <rect x="8" y="7" width="1" height="1" fill="rgb(238,238,238)"/>
  <rect x="8" y="8" width="1" height="1" fill="rgb(162,34,16)"/>
  <rect x="8" y="9" width="1" height="1" fill="rgb(166,41,23)"/>
  <rect x="8" y="10" width="1" height="1" fill="rgb(172,49,31)"/>
  <rect x="8" y="11" width="1" height="2" fill="rgb(255,255,255)"/>
  <rect x="8" y="13" width="1" height="1" fill="rgb(234,234,234)" fill-opacity="0.9609375"/>
  <rect x="8" y="14" width="1" height="1" fill="rgb(46,27,22)" fill-opacity="0.71875"/>
  <rect x="8" y="15" width="1" height="1" fill="rgb(33,33,33)" fill-opacity="0.3359375"/>
  <rect x="8" y="16" width="1" height="1" fill="rgb(113,113,113)" fill-opacity="0.171875"/>
  <rect x="8" y="17" width="1" height="1" fill="rgb(53,53,53)" fill-opacity="0.25"/>
  <rect x="8" y="18" width="1" height="3" fill="rgb(255,255,255)" fill-opacity="0.0078125"/>
  <rect x="9" y="0" width="1" height="4" fill="rgb(255,255,255)" fill-opacity="0.0078125"/>
  <rect x="9" y="4" width="1" height="1" fill="rgb(48,48,48)" fill-opacity="0.9140625"/>
  <rect x="9" y="5" width="1" height="1" fill="rgb(255,255,255)"/>
  <rect x="9" y="6" width="1" height="1" fill="rgb(238,238,238)"/>
  <rect x="9" y="7" width="1" height="1" fill="rgb(242,242,242)"/>
  <rect x="9" y="8" width="1" height="1" fill="rgb(165,39,21)"/>
  <rect x="9" y="9" width="1" height="1" fill="rgb(171,49,30)"/>
  <rect x="9" y="10" width="1" height="1" fill="rgb(176,56,37)"/>
  <rect x="9" y="11" width="1" height="1" fill="rgb(255,255,255)"/>
  <rect x="9" y="12" width="1" height="1" fill="rgb(234,234,234)" fill-opacity="0.9609375"/>
  <rect x="9" y="13" width="1" height="1" fill="rgb(47,47,47)" fill-opacity="0.7421875"/>
  <rect x="9" y="14" width="1" height="1" fill="rgb(33,33,33)" fill-opacity="0.3359375"/>
  <rect x="9" y="15" width="1" height="1" fill="rgb(255,255,255)" fill-opacity="0.1171875"/>
  <rect x="9" y="16" width="1" height="1" fill="rgb(255,255,255)" fill-opacity="0.0859375"/>
  <rect x="9" y="17" width="1" height="1" fill="rgb(53,53,53)" fill-opacity="0.25"/>
  <rect x="9" y="18" width="1" height="3" fill="rgb(255,255,255)" fill-opacity="0.0078125"/>
  <rect x="10" y="0" width="1" height="4" fill="rgb(255,255,255)" fill-opacity="0.0078125"/>
  <rect x="10" y="4" width="1" height="1" fill="rgb(49,49,49)" fill-opacity="0.9140625"/>
  <rect x="10" y="5" width="1" height="1" fill="rgb(255,255,255)"/>
  <rect x="10" y="6" width="1" height="1" fill="rgb(242,242,242)"/>
  <rect x="10" y="7" width="1" height="1" fill="rgb(247,247,247)"/>
  <rect x="10" y="8" width="1" height="1" fill="rgb(170,46,28)"/>
  <rect x="10" y="9" width="1" height="1" fill="rgb(175,54,35)"/>
  <rect x="10" y="10" width="1" height="1" fill="rgb(180,62,43)"/>
  <rect x="10" y="11" width="1" height="1" fill="rgb(234,234,234)" fill-opacity="0.9609375"/>
  <rect x="10" y="12" width="1" height="1" fill="rgb(56,56,56)" fill-opacity="0.7109375"/>
  <rect x="10" y="13" width="1" height="1" fill="rgb(30,30,30)" fill-opacity="0.3359375"/>
  <rect x="10" y="14" width="1" height="1" fill="rgb(76,76,76)" fill-opacity="0.1875"/>
  <rect x="10" y="15" width="1" height="1" fill="rgb(255,255,255)" fill-opacity="0.125"/>
  <rect x="10" y="16" width="1" height="1" fill="rgb(255,255,255)" fill-opacity="0.0859375"/>
  <rect x="10" y="17" width="1" height="1" fill="rgb(53,53,53)" fill-opacity="0.25"/>
  <rect x="10" y="18" width="1" height="3" fill="rgb(255,255,255)" fill-opacity="0.0078125"/>
  <rect x="11" y="0" width="1" height="4" fill="rgb(255,255,255)" fill-opacity="0.0078125"/>
  <rect x="11" y="4" width="1" height="1" fill="rgb(50,50,50)" fill-opacity="0.9140625"/>
  <rect x="11" y="5" width="1" height="1" fill="rgb(211,151,143)"/>
  <rect x="11" y="6" width="1" height="1" fill="rgb(164,37,19)"/>
  <rect x="11" y="7" width="1" height="1" fill="rgb(169,45,27)"/>
  <rect x="11" y="8" width="1" height="2" fill="rgb(255,255,255)"/>
  <rect x="11" y="10" width="1" height="1" fill="rgb(234,234,234)" fill-opacity="0.9609375"/>
  <rect x="11" y="11" width="1" height="1" fill="rgb(37,18,15)" fill-opacity="0.7421875"/>
  <rect x="11" y="12" width="1" height="1" fill="rgb(30,30,30)" fill-opacity="0.3359375"/>
  <rect x="11" y="13" width="1" height="1" fill="rgb(255,255,255)" fill-opacity="0.1171875"/>
  <rect x="11" y="14" width="1" height="1" fill="rgb(255,255,255)" fill-opacity="0.125"/>
  <rect x="11" y="15" width="1" height="1" fill="rgb(92,92,92)" fill-opacity="0.1875"/>
  <rect x="11" y="16" width="1" height="1" fill="rgb(105,105,105)" fill-opacity="0.15625"/>
  <rect x="11" y="17" width="1" height="1" fill="rgb(53,53,53)" fill-opacity="0.25"/>
  <rect x="11" y="18" width="1" height="3" fill="rgb(255,255,255)" fill-opacity="0.0078125"/>
  <rect x="12" y="0" width="1" height="4" fill="rgb(255,255,255)" fill-opacity="0.0078125"/>
  <rect x="12" y="4" width="1" height="1" fill="rgb(50,50,50)" fill-opacity="0.9140625"/>
  <rect x="12" y="5" width="1" height="1" fill="rgb(209,146,137)"/>
  <rect x="12" y="6" width="1" height="1" fill="rgb(169,44,26)"/>
  <rect x="12" y="7" width="1" height="1" fill="rgb(173,51,33)"/>
  <rect x="12" y="8" width="1" height="1" fill="rgb(255,255,255)"/>
  <rect x="12" y="9" width="1" height="1" fill="rgb(234,234,234)" fill-opacity="0.9609375"/>
  <rect x="12" y="10" width="1" height="1" fill="rgb(56,56,56)" fill-opacity="0.7109375"/>
  <rect x="12" y="11" width="1" height="1" fill="rgb(30,30,30)" fill-opacity="0.3359375"/>
  <rect x="12" y="12" width="1" height="1" fill="rgb(71,71,71)" fill-opacity="0.1875"/>
  <rect x="12" y="13" width="1" height="1" fill="rgb(255,255,255)" fill-opacity="0.125"/>
  <rect x="12" y="14" width="1" height="1" fill="rgb(255,255,255)" fill-opacity="0.1328125"/>
  <rect x="12" y="15" width="1" height="1" fill="rgb(103,103,103)" fill-opacity="0.1875"/>
  <rect x="12" y="16" width="1" height="1" fill="rgb(110,110,110)" fill-opacity="0.1484375"/>
  <rect x="12" y="17" width="1" height="1" fill="rgb(53,53,53)" fill-opacity="0.25"/>
  <rect x="12" y="18" width="1" height="3" fill="rgb(255,255,255)" fill-opacity="0.0078125"/>
  <rect x="13" y="0" width="1" height="4" fill="rgb(255,255,255)" fill-opacity="0.0078125"/>
  <rect x="13" y="4" width="1" height="1" fill="rgb(50,50,50)" fill-opacity="0.9140625"/>
  <rect x="13" y="5" width="1" height="1" fill="rgb(208,141,131)"/>
  <rect x="13" y="6" width="1" height="1" fill="rgb(173,50,32)"/>
  <rect x="13" y="7" width="1" height="1" fill="rgb(177,58,39)"/>
  <rect x="13" y="8" width="1" height="1" fill="rgb(234,234,234)" fill-opacity="0.9609375"/>
  <rect x="13" y="9" width="1" height="1" fill="rgb(47,47,47)" fill-opacity="0.7421875"/>
  <rect x="13" y="10" width="1" height="1" fill="rgb(30,30,30)" fill-opacity="0.3359375"/>
  <rect x="13" y="11" width="1" height="1" fill="rgb(255,255,255)" fill-opacity="0.1171875"/>
  <rect x="13" y="12" width="1" height="1" fill="rgb(255,255,255)" fill-opacity="0.125"/>
  <rect x="13" y="13" width="1" height="1" fill="rgb(92,92,92)" fill-opacity="0.1875"/>
  <rect x="13" y="14" width="1" height="1" fill="rgb(103,103,103)" fill-opacity="0.1875"/>
  <rect x="13" y="15" width="1" height="1" fill="rgb(255,255,255)" fill-opacity="0.1484375"/>
  <rect x="13" y="16" width="1" height="1" fill="rgb(255,255,255)" fill-opacity="0.0703125"/>
  <rect x="13" y="17" width="1" height="1" fill="rgb(53,53,53)" fill-opacity="0.25"/>
  <rect x="13" y="18" width="1" height="3" fill="rgb(255,255,255)" fill-opacity="0.0078125"/>
  <rect x="14" y="0" width="1" height="4" fill="rgb(255,255,255)" fill-opacity="0.0078125"/>
  <rect x="14" y="4" width="1" height="1" fill="rgb(51,51,51)" fill-opacity="0.9140625"/>
  <rect x="14" y="5" width="1" height="2" fill="rgb(255,255,255)"/>
  <rect x="14" y="7" width="1" height="1" fill="rgb(234,234,234)" fill-opacity="0.9609375"/>
  <rect x="14" y="8" width="1" height="1" fill="rgb(44,24,20)" fill-opacity="0.7109375"/>
  <rect x="14" y="9" width="1" height="1" fill="rgb(27,27,27)" fill-opacity="0.3359375"/>
  <rect x="14" y="10" width="1" height="1" fill="rgb(71,71,71)" fill-opacity="0.1875"/>
  <rect x="14" y="11" width="1" height="1" fill="rgb(255,255,255)" fill-opacity="0.125"/>
  <rect x="14" y="12" width="1" height="1" fill="rgb(255,255,255)" fill-opacity="0.1328125"/>
  <rect x="14" y="13" width="1" height="1" fill="rgb(103,103,103)" fill-opacity="0.1875"/>
  <rect x="14" y="14" width="1" height="1" fill="rgb(112,112,112)" fill-opacity="0.1953125"/>
  <rect x="14" y="15" width="1" height="1" fill="rgb(255,255,255)" fill-opacity="0.15625"/>
  <rect x="14" y="16" width="1" height="1" fill="rgb(255,255,255)" fill-opacity="0.0703125"/>
  <rect x="14" y="17" width="1" height="1" fill="rgb(53,53,53)" fill-opacity="0.25"/>
  <rect x="14" y="18" width="1" height="3" fill="rgb(255,255,255)" fill-opacity="0.0078125"/>
  <rect x="15" y="0" width="1" height="4" fill="rgb(255,255,255)" fill-opacity="0.0078125"/>
  <rect x="15" y="4" width="1" height="1" fill="rgb(51,51,51)" fill-opacity="0.9140625"/>
  <rect x="15" y="5" width="1" height="1" fill="rgb(255,255,255)"/>
  <rect x="15" y="6" width="1" height="1" fill="rgb(234,234,234)" fill-opacity="0.9609375"/>
  <rect x="15" y="7" width="1" height="1" fill="rgb(47,47,47)" fill-opacity="0.7421875"/>
  <rect x="15" y="8" width="1" height="1" fill="rgb(27,27,27)" fill-opacity="0.3359375"/>
  <rect x="15" y="9" width="1" height="1" fill="rgb(255,255,255)" fill-opacity="0.1171875"/>
  <rect x="15" y="10" width="1" height="1" fill="rgb(255,255,255)" fill-opacity="0.125"/>
  <rect x="15" y="11" width="1" height="1" fill="rgb(87,87,87)" fill-opacity="0.1875"/>
  <rect x="15" y="12" width="1" height="1" fill="rgb(98,98,98)" fill-opacity="0.1875"/>
  <rect x="15" y="13" width="1" height="1" fill="rgb(255,255,255)" fill-opacity="0.1484375"/>
  <rect x="15" y="14" width="1" height="1" fill="rgb(255,255,255)" fill-opacity="0.15625"/>
  <rect x="15" y="15" width="1" height="1" fill="rgb(130,130,130)" fill-opacity="0.1953125"/>
  <rect x="15" y="16" width="1" height="1" fill="rgb(112,112,112)" fill-opacity="0.1328125"/>
  <rect x="15" y="17" width="1" height="1" fill="rgb(53,53,53)" fill-opacity="0.25"/>
  <rect x="15" y="18" width="1" height="3" fill="rgb(255,255,255)" fill-opacity="0.0078125"/>
  <rect x="16" y="0" width="1" height="4" fill="rgb(255,255,255)" fill-opacity="0.0078125"/>
  <rect x="16" y="4" width="1" height="1" fill="rgb(51,51,51)" fill-opacity="0.9296875"/>
  <rect x="16" y="5" width="1" height="1" fill="rgb(234,234,234)" fill-opacity="0.9609375"/>
  <rect x="16" y="6" width="1" height="1" fill="rgb(60,60,60)" fill-opacity="0.7265625"/>
  <rect x="16" y="7" width="1" height="1" fill="rgb(54,54,54)" fill-opacity="0.3515625"/>
  <rect x="16" y="8" width="1" height="1" fill="rgb(120,120,120)" fill-opacity="0.203125"/>
  <rect x="16" y="9" width="1" height="1" fill="rgb(255,255,255)" fill-opacity="0.1484375"/>
  <rect x="16" y="10" width="1" height="1" fill="rgb(255,255,255)" fill-opacity="0.15625"/>
  <rect x="16" y="11" width="1" height="1" fill="rgb(135,135,135)" fill-opacity="0.203125"/>
  <rect x="16" y="12" width="1" height="1" fill="rgb(145,145,145)" fill-opacity="0.203125"/>
  <rect x="16" y="13" width="1" height="1" fill="rgb(255,255,255)" fill-opacity="0.171875"/>
  <rect x="16" y="14" width="1" height="1" fill="rgb(255,255,255)" fill-opacity="0.1796875"/>
  <rect x="16" y="15" width="1" height="1" fill="rgb(162,162,162)" fill-opacity="0.2109375"/>
  <rect x="16" y="16" width="1" height="1" fill="rgb(102,102,102)" fill-opacity="0.125"/>
  <rect x="16" y="17" width="1" height="1" fill="rgb(53,53,53)" fill-opacity="0.25"/>
  <rect x="16" y="18" width="1" height="3" fill="rgb(255,255,255)" fill-opacity="0.0078125"/>
  <rect x="17" y="0" width="1" height="4" fill="rgb(255,255,255)" fill-opacity="0.0078125"/>
  <rect x="17" y="4" width="1" height="1" fill="rgb(48,48,48)" fill-opacity="0.7734375"/>
  <rect x="17" y="5" width="1" height="1" fill="rgb(20,20,20)" fill-opacity="0.6640625"/>
  <rect x="17" y="6" width="1" height="1" fill="rgb(29,29,29)" fill-opacity="0.3828125"/>
  <rect x="17" y="7" width="1" height="1" fill="rgb(53,53,53)" fill-opacity="0.25"/>
  <rect x="17" y="8" width="1" height="5" fill="rgb(54,54,54)" fill-opacity="0.2421875"/>
  <rect x="17" y="13" width="1" height="3" fill="rgb(59,59,59)" fill-opacity="0.2421875"/>
  <rect x="17" y="16" width="1" height="1" fill="rgb(50,50,50)" fill-opacity="0.2421875"/>
  <rect x="17" y="17" width="1" height="1" fill="rgb(50,50,50)" fill-opacity="0.2265625"/>
  <rect x="17" y="18" width="1" height="3" fill="rgb(255,255,255)" fill-opacity="0.0078125"/>
  <rect x="18" y="0" width="1" height="4" fill="rgb(255,255,255)" fill-opacity="0.0078125"/>
  <rect x="18" y="4" width="1" height="1" fill="rgb(0,0,0)" fill-opacity="0.0078125"/>
  <rect x="18" y="5" width="1" height="12" fill="rgb(0,0,0)" fill-opacity="0.015625"/>
  <rect x="18" y="17" width="1" height="1" fill="rgb(0,0,0)" fill-opacity="0.0078125"/>
  <rect x="18" y="18" width="1" height="3" fill="rgb(255,255,255)" fill-opacity="0.0078125"/>
  <rect x="19" y="0" width="1" height="21" fill="rgb(255,255,255)" fill-opacity="0.0078125"/>
  <rect x="20" y="0" width="1" height="21" fill="rgb(255,255,255)" fill-opacity="0.0078125"/>
</svg>