<svg xmlns="http://www.w3.org/2000/svg" shape-rendering="crispEdges" width="21" height="21" viewBox="0 0 21 21">
  <rect x="0" y="0" width="21" height="1" fill="rgb(255,255,255)" fill-opacity="0.0078125"/>
  <rect x="0" y="1" width="21" height="1" fill="rgb(255,255,255)" fill-opacity="0.0078125"/>
  <rect x="0" y="2" width="21" height="1" fill="rgb(255,255,255)" fill-opacity="0.0078125"/>
  <rect x="0" y="3" width="21" height="1" fill="rgb(255,255,255)" fill-opacity="0.0078125"/>
  <rect x="0" y="4" width="21" height="1" fill="rgb(255,255,255)" fill-opacity="0.0078125"/>
  <rect x="0" y="5" width="5" height="1" fill="rgb(255,255,255)" fill-opacity="0.0078125"/>
  <rect x="5" y="5" width="1" height="1" fill="rgb(38,38,38)" fill-opacity="0.796875"/>
  <rect x="6" y="5" width="1" height="1" fill="rgb(40,40,40)" fill-opacity="0.9140625"/>
  <rect x="7" y="5" width="3" height="1" fill="rgb(41,41,41)" fill-opacity="0.9140625"/>
  <rect x="10" y="5" width="2" height="1" fill="rgb(42,42,42)" fill-opacity="0.9140625"/>
  <rect x="12" y="5" width="2" height="1" fill="rgb(43,43,43)" fill-opacity="0.9140625"/>
  <rect x="14" y="5" width="2" height="1" fill="rgb(44,44,44)" fill-opacity="0.9140625"/>
  <rect x="16" y="5" width="1" height="1" fill="rgb(45,45,45)" fill-opacity="0.9140625"/>
  <rect x="17" y="5" width="1" height="1" fill="rgb(41,41,41)" fill-opacity="0.796875"/>
  <rect x="18" y="5" width="3" height="1" fill="rgb(255,255,255)" fill-opacity="0.0078125"/>
  <rect x="0" y="6" width="5" height="1" fill="rgb(255,255,255)" fill-opacity="0.0078125"/>
  <rect x="5" y="6" width="1" height="1" fill="rgb(40,40,40)" fill-opacity="0.9140625"/>
  <rect x="6" y="6" width="1" height="1" fill="rgb(244,244,244)"/>
  <rect x="7" y="6" width="1" height="1" fill="rgb(255,255,255)"/>
  <rect x="8" y="6" width="1" height="1" fill="rgb(231,231,231)"/>
  <rect x="9" y="6" width="1" height="1" fill="rgb(140,140,140)"/>
  <rect x="10" y="6" width="1" height="1" fill="rgb(247,247,247)"/>
  <rect x="11" y="6" width="1" height="1" fill="rgb(250,250,250)"/>
  <rect x="12" y="6" width="1" height="1" fill="rgb(227,227,227)"/>
  <rect x="13" y="6" width="1" height="1" fill="rgb(140,140,140)"/>
  <rect x="14" y="6" width="1" height="1" fill="rgb(249,249,249)"/>
  <rect x="15" y="6" width="1" height="1" fill="rgb(252,252,252)"/>
  <rect x="16" y="6" width="1" height="1" fill="rgb(236,236,236)"/>
  <rect x="17" y="6" width="1" height="1" fill="rgb(45,45,45)" fill-opacity="0.9140625"/>
  <rect x="18" y="6" width="3" height="1" fill="rgb(255,255,255)" fill-opacity="0.0078125"/>
  <rect x="0" y="7" width="5" height="1" fill="rgb(255,255,255)" fill-opacity="0.0078125"/>
  <rect x="5" y="7" width="1" height="1" fill="rgb(41,41,41)" fill-opacity="0.9140625"/>
  <rect x="6" y="7" width="1" height="1" fill="rgb(255,255,255)"/>
  <rect x="7" y="7" width="1" height="1" fill="rgb(176,176,176)"/>
  <rect x="8" y="7" width="1" height="1" fill="rgb(223,223,223)"/>
  <rect x="9" y="7" width="1" height="1" fill="rgb(140,140,140)"/>
  <rect x="10" y="7" width="1" height="1" fill="rgb(255,255,255)"/>
  <rect x="11" y="7" width="1" height="1" fill="rgb(195,195,195)"/>
  <rect x="12" y="7" width="1" height="1" fill="rgb(225,225,225)"/>
  <rect x="13" y="7" width="1" height="1" fill="rgb(139,139,139)"/>
  <rect x="14" y="7" width="1" height="1" fill="rgb(255,255,255)"/>
  <rect x="15" y="7" width="1" height="1" fill="rgb(214,214,214)"/>
  <rect x="16" y="7" width="1" height="1" fill="rgb(235,235,235)"/>
  <rect x="17" y="7" width="1" height="1" fill="rgb(46,46,46)" fill-opacity="0.9140625"/>
  <rect x="18" y="7" width="3" height="1" fill="rgb(255,255,255)" fill-opacity="0.0078125"/>
  <rect x="0" y="8" width="5" height="1" fill="rgb(255,255,255)" fill-opacity="0.0078125"/>
  <rect x="5" y="8" width="1" height="1" fill="rgb(41,41,41)" fill-opacity="0.9140625"/>
  <rect x="6" y="8" width="1" height="1" fill="rgb(230,230,230)"/>
  <rect x="7" y="8" width="1" height="1" fill="rgb(222,222,222)"/>
  <rect x="8" y="8" width="1" height="1" fill="rgb(207,207,207)"/>
  <rect x="9" y="8" width="1" height="1" fill="rgb(140,140,140)"/>
  <rect x="10" y="8" width="1" height="1" fill="rgb(243,243,243)"/>
  <rect x="11" y="8" width="1" height="1" fill="rgb(233,233,233)"/>
  <rect x="12" y="8" width="1" height="1" fill="rgb(218,218,218)"/>
  <rect x="13" y="8" width="1" height="1" fill="rgb(139,139,139)"/>
  <rect x="14" y="8" width="1" height="1" fill="rgb(247,247,247)"/>
  <rect x="15" y="8" width="1" height="1" fill="rgb(241,241,241)"/>
  <rect x="16" y="8" width="1" height="1" fill="rgb(231,231,231)"/>
  <rect x="17" y="8" width="1" height="1" fill="rgb(46,46,46)" fill-opacity="0.9140625"/>
  <rect x="18" y="8" width="3" height="1" fill="rgb(255,255,255)" fill-opacity="0.0078125"/>
  <rect x="0" y="9" width="5" height="1" fill="rgb(255,255,255)" fill-opacity="0.0078125"/>
  <rect x="5" y="9" width="1" height="1" fill="rgb(42,42,42)" fill-opacity="0.9140625"/>
  <rect x="6" y="9" width="1" height="1" fill="rgb(138,138,138)"/>
  <rect x="7" y="9" width="2" height="1" fill="rgb(139,139,139)"/>
  <rect x="9" y="9" width="1" height="1" fill="rgb(111,111,111)"/>
  <rect x="10" y="9" width="3" height="1" fill="rgb(139,139,139)"/>
  <rect x="13" y="9" width="1" height="1" fill="rgb(100,100,100)"/>
  <rect x="14" y="9" width="1" height="1" fill="rgb(137,137,137)"/>
  <rect x="15" y="9" width="1" height="1" fill="rgb(136,136,136)"/>
  <rect x="16" y="9" width="1" height="1" fill="rgb(135,135,135)"/>
  <rect x="17" y="9" width="1" height="1" fill="rgb(47,47,47)" fill-opacity="0.9140625"/>
  <rect x="18" y="9" width="3" height="1" fill="rgb(255,255,255)" fill-opacity="0.0078125"/>
  <rect x="0" y="10" width="5" height="1" fill="rgb(255,255,255)" fill-opacity="0.0078125"/>
  <rect x="5" y="10" width="1" height="1" fill="rgb(42,42,42)" fill-opacity="0.9140625"/>
  <rect x="6" y="10" width="1" height="1" fill="rgb(247,247,247)"/>
  <rect x="7" y="10" width="1" height="1" fill="rgb(255,255,255)"/>
  <rect x="8" y="10" width="1" height="1" fill="rgb(244,244,244)"/>
  <rect x="9" y="10" width="1" height="1" fill="rgb(139,139,139)"/>
  <rect x="10" y="10" width="1" height="1" fill="rgb(249,249,249)"/>
  <rect x="11" y="10" width="1" height="1" fill="rgb(255,255,255)"/>
  <rect x="12" y="10" width="1" height="1" fill="rgb(241,241,241)"/>
  <rect x="13" y="10" width="1" height="1" fill="rgb(137,137,137)"/>
  <rect x="14" y="10" width="1" height="1" fill="rgb(251,251,251)"/>
  <rect x="15" y="10" width="1" height="1" fill="rgb(255,255,255)"/>
  <rect x="16" y="10" width="1" height="1" fill="rgb(248,248,248)"/>
  <rect x="17" y="10" width="1" height="1" fill="rgb(47,47,47)" fill-opacity="0.9140625"/>
  <rect x="18" y="10" width="3" height="1" fill="rgb(255,255,255)" fill-opacity="0.0078125"/>
  <rect x="0" y="11" width="5" height="1" fill="rgb(255,255,255)" fill-opacity="0.0078125"/>
  <rect x="5" y="11" width="1" height="1" fill="rgb(42,42,42)" fill-opacity="0.9140625"/>
  <rect x="6" y="11" width="1" height="1" fill="rgb(250,250,250)"/>
  <rect x="7" y="11" width="1" height="1" fill="rgb(196,196,196)"/>
  <rect x="8" y="11" width="1" height="1" fill="rgb(234,234,234)"/>
  <rect x="9" y="11" width="1" height="1" fill="rgb(138,138,138)"/>
  <rect x="10" y="11" width="1" height="1" fill="rgb(255,255,255)"/>
  <rect x="11" y="11" width="1" height="1" fill="rgb(214,214,214)"/>
  <rect x="12" y="11" width="1" height="1" fill="rgb(237,237,237)"/>
  <rect x="13" y="11" width="1" height="1" fill="rgb(135,135,135)"/>
  <rect x="14" y="11" width="1" height="1" fill="rgb(255,255,255)"/>
  <rect x="15" y="11" width="1" height="1" fill="rgb(233,233,233)"/>
  <rect x="16" y="11" width="1" height="1" fill="rgb(247,247,247)"/>
  <rect x="17" y="11" width="1" height="1" fill="rgb(48,48,48)" fill-opacity="0.9140625"/>
  <rect x="18" y="11" width="3" height="1" fill="rgb(255,255,255)" fill-opacity="0.0078125"/>
  <rect x="0" y="12" width="5" height="1" fill="rgb(255,255,255)" fill-opacity="0.0078125"/>
  <rect x="5" y="12" width="1" height="1" fill="rgb(43,43,43)" fill-opacity="0.9140625"/>
  <rect x="6" y="12" width="1" height="1" fill="rgb(227,227,227)"/>
  <rect x="7" y="12" width="1" height="1" fill="rgb(225,225,225)"/>
  <rect x="8" y="12" width="1" height="1" fill="rgb(218,218,218)"/>
  <rect x="9" y="12" width="1" height="1" fill="rgb(138,138,138)"/>
  <rect x="10" y="12" width="1" height="1" fill="rgb(241,241,241)"/>
  <rect x="11" y="12" width="1" height="1" fill="rgb(237,237,237)"/>
  <rect x="12" y="12" width="1" height="1" fill="rgb(231,231,231)"/>
  <rect x="13" y="12" width="1" height="1" fill="rgb(134,134,134)"/>
  <rect x="14" y="12" width="2" height="1" fill="rgb(247,247,247)"/>
  <rect x="16" y="12" width="1" height="1" fill="rgb(246,246,246)"/>
  <rect x="17" y="12" width="1" height="1" fill="rgb(48,48,48)" fill-opacity="0.9140625"/>
  <rect x="18" y="12" width="3" height="1" fill="rgb(255,255,255)" fill-opacity="0.0078125"/>
  <rect x="0" y="13" width="5" height="1" fill="rgb(255,255,255)" fill-opacity="0.0078125"/>
  <rect x="5" y="13" width="1" height="1" fill="rgb(43,43,43)" fill-opacity="0.9140625"/>
  <rect x="6" y="13" width="1" height="1" fill="rgb(138,138,138)"/>
  <rect x="7" y="13" width="2" height="1" fill="rgb(137,137,137)"/>
  <rect x="9" y="13" width="1" height="1" fill="rgb(97,97,97)"/>
  <rect x="10" y="13" width="1" height="1" fill="rgb(135,135,135)"/>
  <rect x="11" y="13" width="1" height="1" fill="rgb(134,134,134)"/>
  <rect x="12" y="13" width="1" height="1" fill="rgb(133,133,133)"/>
  <rect x="13" y="13" width="1" height="1" fill="rgb(81,81,81)"/>
  <rect x="14" y="13" width="1" height="1" fill="rgb(131,131,131)"/>
  <rect x="15" y="13" width="1" height="1" fill="rgb(129,129,129)"/>
  <rect x="16" y="13" width="1" height="1" fill="rgb(127,127,127)"/>
  <rect x="17" y="13" width="1" height="1" fill="rgb(48,48,48)" fill-opacity="0.9140625"/>
  <rect x="18" y="13" width="3" height="1" fill="rgb(255,255,255)" fill-opacity="0.0078125"/>
  <rect x="0" y="14" width="5" height="1" fill="rgb(255,255,255)" fill-opacity="0.0078125"/>
  <rect x="5" y="14" width="1" height="1" fill="rgb(44,44,44)" fill-opacity="0.9140625"/>
  <rect x="6" y="14" width="1" height="1" fill="rgb(249,249,249)"/>
  <rect x="7" y="14" width="1" height="1" fill="rgb(255,255,255)"/>
  <rect x="8" y="14" width="1" height="1" fill="rgb(247,247,247)"/>
  <rect x="9" y="14" width="1" height="1" fill="rgb(135,135,135)"/>
  <rect x="10" y="14" width="1" height="1" fill="rgb(251,251,251)"/>
  <rect x="11" y="14" width="1" height="1" fill="rgb(255,255,255)"/>
  <rect x="12" y="14" width="1" height="1" fill="rgb(248,248,248)"/>
  <rect x="13" y="14" width="1" height="1" fill="rgb(130,130,130)"/>
  <rect x="14" y="14" width="1" height="1" fill="rgb(254,254,254)"/>
  <rect x="15" y="14" width="1" height="1" fill="rgb(255,255,255)"/>
  <rect x="16" y="14" width="1" height="1" fill="rgb(254,254,254)"/>
  <rect x="17" y="14" width="1" height="1" fill="rgb(49,49,49)" fill-opacity="0.9140625"/>
  <rect x="18" y="14" width="3" height="1" fill="rgb(255,255,255)" fill-opacity="0.0078125"/>
  <rect x="0" y="15" width="5" height="1" fill="rgb(255,255,255)" fill-opacity="0.0078125"/>
  <rect x="5" y="15" width="1" height="1" fill="rgb(44,44,44)" fill-opacity="0.9140625"/>
  <rect x="6" y="15" width="1" height="1" fill="rgb(251,251,251)"/>
  <rect x="7" y="15" width="1" height="1" fill="rgb(215,215,215)"/>
  <rect x="8" y="15" width="1" height="1" fill="rgb(241,241,241)"/>
  <rect x="9" y="15" width="1" height="1" fill="rgb(134,134,134)"/>
  <rect x="10" y="15" width="1" height="1" fill="rgb(255,255,255)"/>
  <rect x="11" y="15" width="1" height="1" fill="rgb(234,234,234)"/>
  <rect x="12" y="15" width="1" height="1" fill="rgb(247,247,247)"/>
  <rect x="13" y="15" width="1" height="1" fill="rgb(128,128,128)"/>
  <rect x="14" y="15" width="1" height="1" fill="rgb(255,255,255)"/>
  <rect x="15" y="15" width="1" height="1" fill="rgb(252,252,252)"/>
  <rect x="16" y="15" width="1" height="1" fill="rgb(255,255,255)"/>
  <rect x="17" y="15" width="1" height="1" fill="rgb(49,49,49)" fill-opacity="0.9140625"/>
  <rect x="18" y="15" width="3" height="1" fill="rgb(255,255,255)" fill-opacity="0.0078125"/>
  <rect x="0" y="16" width="5" height="1" fill="rgb(255,255,255)" fill-opacity="0.0078125"/>
  <rect x="5" y="16" width="1" height="1" fill="rgb(45,45,45)" fill-opacity="0.9140625"/>
  <rect x="6" y="16" width="2" height="1" fill="rgb(236,236,236)"/>
  <rect x="8" y="16" width="1" height="1" fill="rgb(233,233,233)"/>
  <rect x="9" y="16" width="1" height="1" fill="rgb(132,132,132)"/>
  <rect x="10" y="16" width="1" height="1" fill="rgb(248,248,248)"/>
  <rect x="11" y="16" width="1" height="1" fill="rgb(247,247,247)"/>
  <rect x="12" y="16" width="1" height="1" fill="rgb(246,246,246)"/>
  <rect x="13" y="16" width="1" height="1" fill="rgb(125,125,125)"/>
  <rect x="14" y="16" width="1" height="1" fill="rgb(254,254,254)"/>
  <rect x="15" y="16" width="2" height="1" fill="rgb(255,255,255)"/>
  <rect x="17" y="16" width="1" height="1" fill="rgb(49,49,49)" fill-opacity="0.9140625"/>
  <rect x="18" y="16" width="3" height="1" fill="rgb(255,255,255)" fill-opacity="0.0078125"/>
  <rect x="0" y="17" width="5" height="1" fill="rgb(255,255,255)" fill-opacity="0.0078125"/>
  <rect x="5" y="17" width="1" height="1" fill="rgb(43,43,43)" fill-opacity="0.796875"/>
  <rect x="6" y="17" width="1" height="1" fill="rgb(45,45,45)" fill-opacity="0.9140625"/>
  <rect x="7" y="17" width="2" height="1" fill="rgb(46,46,46)" fill-opacity="0.9140625"/>
  <rect x="9" y="17" width="2" height="1" fill="rgb(47,47,47)" fill-opacity="0.9140625"/>
  <rect x="11" y="17" width="2" height="1" fill="rgb(48,48,48)" fill-opacity="0.9140625"/>
  <rect x="13" y="17" width="4" height="1" fill="rgb(49,49,49)" fill-opacity="0.9140625"/>
  <rect x="17" y="17" width="1" height="1" fill="rgb(45,45,45)" fill-opacity="0.796875"/>
  <rect x="18" y="17" width="3" height="1" fill="rgb(255,255,255)" fill-opacity="0.0078125"/>
  <rect x="0" y="18" width="21" height="1" fill="rgb(255,255,255)" fill-opacity="0.0078125"/>
  <rect x="0" y="19" width="21" height="1" fill="rgb(255,255,255)" fill-opacity="0.0078125"/>
  <rect x="0" y="20" width="21" height="1" fill="rgb(255,255,255)" fill-opacity="0.0078125"/>
</svg>