<svg xmlns="http://www.w3.org/2000/svg" shape-rendering="crispEdges" width="21" height="21" viewBox="0 0 21 21">
  <rect x="0" y="0" width="21" height="1" fill="rgb(255,255,255)" fill-opacity="0.0078125"/>
  <rect x="0" y="1" width="21" height="1" fill="rgb(255,255,255)" fill-opacity="0.0078125"/>
  <rect x="0" y="2" width="21" height="1" fill="rgb(255,255,255)" fill-opacity="0.0078125"/>
  <rect x="0" y="3" width="8" height="1" fill="rgb(255,255,255)" fill-opacity="0.0078125"/>
  <rect x="8" y="3" width="1" height="1" fill="rgb(26,26,26)" fill-opacity="0.15625"/>
  <rect x="9" y="3" width="1" height="1" fill="rgb(35,35,35)" fill-opacity="0.5703125"/>
  <rect x="10" y="3" width="2" height="1" fill="rgb(37,37,37)" fill-opacity="0.75"/>
  <rect x="12" y="3" width="1" height="1" fill="rgb(35,35,35)" fill-opacity="0.5703125"/>
  <rect x="13" y="3" width="1" height="1" fill="rgb(26,26,26)" fill-opacity="0.15625"/>
  <rect x="14" y="3" width="7" height="1" fill="rgb(255,255,255)" fill-opacity="0.0078125"/>
  <rect x="0" y="4" width="7" height="1" fill="rgb(255,255,255)" fill-opacity="0.0078125"/>
  <rect x="7" y="4" width="1" height="1" fill="rgb(34,34,34)" fill-opacity="0.359375"/>
  <rect x="8" y="4" width="1" height="1" fill="rgb(73,74,76)" fill-opacity="0.8046875"/>
  <rect x="9" y="4" width="1" height="1" fill="rgb(194,196,201)" fill-opacity="0.8515625"/>
  <rect x="10" y="4" width="1" height="1" fill="rgb(216,219,224)" fill-opacity="0.8984375"/>
  <rect x="11" y="4" width="1" height="1" fill="rgb(212,215,221)" fill-opacity="0.875"/>
  <rect x="12" y="4" width="1" height="1" fill="rgb(182,187,192)" fill-opacity="0.796875"/>
  <rect x="13" y="4" width="1" height="1" fill="rgb(65,66,67)" fill-opacity="0.7890625"/>
  <rect x="14" y="4" width="1" height="1" fill="rgb(34,34,34)" fill-opacity="0.359375"/>
  <rect x="15" y="4" width="6" height="1" fill="rgb(255,255,255)" fill-opacity="0.0078125"/>
  <rect x="0" y="5" width="6" height="1" fill="rgb(255,255,255)" fill-opacity="0.0078125"/>
  <rect x="6" y="5" width="1" height="1" fill="rgb(26,26,26)" fill-opacity="0.1640625"/>
  <rect x="7" y="5" width="1" height="1" fill="rgb(75,77,79)" fill-opacity="0.796875"/>
  <rect x="8" y="5" width="1" height="1" fill="rgb(241,242,243)" fill-opacity="0.96875"/>
  <rect x="9" y="5" width="1" height="1" fill="rgb(226,223,225)" fill-opacity="0.9375"/>
  <rect x="10" y="5" width="1" height="1" fill="rgb(125,110,122)" fill-opacity="0.734375"/>
  <rect x="11" y="5" width="1" height="1" fill="rgb(120,119,133)" fill-opacity="0.703125"/>
  <rect x="12" y="5" width="1" height="1" fill="rgb(155,162,174)" fill-opacity="0.71875"/>
  <rect x="13" y="5" width="1" height="1" fill="rgb(196,201,209)" fill-opacity="0.78125"/>
  <rect x="14" y="5" width="1" height="1" fill="rgb(64,64,67)" fill-opacity="0.78125"/>
  <rect x="15" y="5" width="1" height="1" fill="rgb(26,26,26)" fill-opacity="0.1640625"/>
  <rect x="16" y="5" width="5" height="1" fill="rgb(255,255,255)" fill-opacity="0.0078125"/>
  <rect x="0" y="6" width="6" height="1" fill="rgb(255,255,255)" fill-opacity="0.0078125"/>
  <rect x="6" y="6" width="1" height="1" fill="rgb(37,37,37)" fill-opacity="0.59375"/>
  <rect x="7" y="6" width="1" height="1" fill="rgb(190,193,199)" fill-opacity="0.84375"/>
  <rect x="8" y="6" width="1" height="1" fill="rgb(226,223,226)" fill-opacity="0.9296875"/>
  <rect x="9" y="6" width="1" height="1" fill="rgb(220,211,213)" fill-opacity="0.9140625"/>
  <rect x="10" y="6" width="1" height="1" fill="rgb(147,125,135)" fill-opacity="0.734375"/>
  <rect x="11" y="6" width="1" height="1" fill="rgb(148,138,149)" fill-opacity="0.7109375"/>
  <rect x="12" y="6" width="1" height="1" fill="rgb(140,146,160)" fill-opacity="0.6640625"/>
  <rect x="13" y="6" width="1" height="1" fill="rgb(168,175,187)" fill-opacity="0.6875"/>
  <rect x="14" y="6" width="1" height="1" fill="rgb(169,173,179)" fill-opacity="0.703125"/>
  <rect x="15" y="6" width="1" height="1" fill="rgb(37,37,37)" fill-opacity="0.59375"/>
  <rect x="16" y="6" width="5" height="1" fill="rgb(255,255,255)" fill-opacity="0.0078125"/>
  <rect x="0" y="7" width="6" height="1" fill="rgb(255,255,255)" fill-opacity="0.0078125"/>
  <rect x="6" y="7" width="1" height="1" fill="rgb(37,37,37)" fill-opacity="0.765625"/>
  <rect x="7" y="7" width="1" height="1" fill="rgb(212,214,220)" fill-opacity="0.890625"/>
  <rect x="8" y="7" width="1" height="1" fill="rgb(136,120,132)" fill-opacity="0.7421875"/>
  <rect x="9" y="7" width="1" height="1" fill="rgb(155,134,142)" fill-opacity="0.75"/>
  <rect x="10" y="7" width="1" height="1" fill="rgb(169,154,162)" fill-opacity="0.7421875"/>
  <rect x="11" y="7" width="1" height="1" fill="rgb(174,171,179)" fill-opacity="0.7265625"/>
  <rect x="12" y="7" width="1" height="1" fill="rgb(170,178,189)" fill-opacity="0.6875"/>
  <rect x="13" y="7" width="1" height="1" fill="rgb(168,178,189)" fill-opacity="0.6484375"/>
  <rect x="14" y="7" width="1" height="1" fill="rgb(200,205,213)" fill-opacity="0.6953125"/>
  <rect x="15" y="7" width="1" height="1" fill="rgb(37,37,37)" fill-opacity="0.765625"/>
  <rect x="16" y="7" width="5" height="1" fill="rgb(255,255,255)" fill-opacity="0.0078125"/>
  <rect x="0" y="8" width="6" height="1" fill="rgb(255,255,255)" fill-opacity="0.0078125"/>
  <rect x="6" y="8" width="1" height="1" fill="rgb(37,37,37)" fill-opacity="0.7109375"/>
  <rect x="7" y="8" width="1" height="1" fill="rgb(210,213,219)" fill-opacity="0.8671875"/>
  <rect x="8" y="8" width="1" height="1" fill="rgb(153,155,167)" fill-opacity="0.7421875"/>
  <rect x="9" y="8" width="1" height="1" fill="rgb(226,223,225)" fill-opacity="0.8984375"/>
  <rect x="10" y="8" width="1" height="1" fill="rgb(188,182,189)" fill-opacity="0.7578125"/>
  <rect x="11" y="8" width="1" height="1" fill="rgb(197,199,206)" fill-opacity="0.7578125"/>
  <rect x="12" y="8" width="1" height="1" fill="rgb(236,237,240)" fill-opacity="0.890625"/>
  <rect x="13" y="8" width="1" height="1" fill="rgb(191,195,206)" fill-opacity="0.671875"/>
  <rect x="14" y="8" width="1" height="1" fill="rgb(199,202,209)" fill-opacity="0.6640625"/>
  <rect x="15" y="8" width="1" height="1" fill="rgb(37,37,37)" fill-opacity="0.7109375"/>
  <rect x="16" y="8" width="5" height="1" fill="rgb(255,255,255)" fill-opacity="0.0078125"/>
  <rect x="0" y="9" width="6" height="1" fill="rgb(255,255,255)" fill-opacity="0.0078125"/>
  <rect x="6" y="9" width="1" height="1" fill="rgb(33,33,33)" fill-opacity="0.484375"/>
  <rect x="7" y="9" width="1" height="1" fill="rgb(179,183,188)" fill-opacity="0.8203125"/>
  <rect x="8" y="9" width="1" height="1" fill="rgb(206,211,217)" fill-opacity="0.828125"/>
  <rect x="9" y="9" width="1" height="1" fill="rgb(175,180,190)" fill-opacity="0.7265625"/>
  <rect x="10" y="9" width="1" height="1" fill="rgb(247,247,248)" fill-opacity="0.953125"/>
  <rect x="11" y="9" width="1" height="1" fill="rgb(249,249,250)" fill-opacity="0.9609375"/>
  <rect x="12" y="9" width="1" height="1" fill="rgb(208,213,218)" fill-opacity="0.734375"/>
  <rect x="13" y="9" width="1" height="1" fill="rgb(213,217,221)" fill-opacity="0.71875"/>
  <rect x="14" y="9" width="1" height="1" fill="rgb(151,155,158)" fill-opacity="0.6953125"/>
  <rect x="15" y="9" width="1" height="1" fill="rgb(33,33,33)" fill-opacity="0.484375"/>
  <rect x="16" y="9" width="5" height="1" fill="rgb(255,255,255)" fill-opacity="0.0078125"/>
  <rect x="0" y="10" width="6" height="1" fill="rgb(255,255,255)" fill-opacity="0.0078125"/>
  <rect x="6" y="10" width="1" height="1" fill="rgb(21,21,21)" fill-opacity="0.0546875"/>
  <rect x="7" y="10" width="1" height="1" fill="rgb(45,47,47)" fill-opacity="0.75"/>
  <rect x="8" y="10" width="1" height="1" fill="rgb(216,219,223)" fill-opacity="0.8671875"/>
  <rect x="9" y="10" width="1" height="1" fill="rgb(206,210,218)" fill-opacity="0.78125"/>
  <rect x="10" y="10" width="1" height="1" fill="rgb(175,177,184)" fill-opacity="0.765625"/>
  <rect x="11" y="10" width="1" height="1" fill="rgb(183,187,191)" fill-opacity="0.7734375"/>
  <rect x="12" y="10" width="1" height="1" fill="rgb(219,221,228)" fill-opacity="0.7421875"/>
  <rect x="13" y="10" width="1" height="1" fill="rgb(205,207,211)" fill-opacity="0.75"/>
  <rect x="14" y="10" width="1" height="1" fill="rgb(43,43,43)" fill-opacity="0.7578125"/>
  <rect x="15" y="10" width="1" height="1" fill="rgb(20,20,20)" fill-opacity="0.0546875"/>
  <rect x="16" y="10" width="5" height="1" fill="rgb(255,255,255)" fill-opacity="0.0078125"/>
  <rect x="0" y="11" width="7" height="1" fill="rgb(255,255,255)" fill-opacity="0.0078125"/>
  <rect x="7" y="11" width="1" height="1" fill="rgb(24,24,24)" fill-opacity="0.1328125"/>
  <rect x="8" y="11" width="1" height="1" fill="rgb(83,85,89)" fill-opacity="0.8125"/>
  <rect x="9" y="11" width="1" height="1" fill="rgb(230,232,236)" fill-opacity="0.84375"/>
  <rect x="10" y="11" width="1" height="1" fill="rgb(182,187,194)" fill-opacity="0.6875"/>
  <rect x="11" y="11" width="1" height="1" fill="rgb(191,194,201)" fill-opacity="0.671875"/>
  <rect x="12" y="11" width="1" height="1" fill="rgb(232,234,237)" fill-opacity="0.78125"/>
  <rect x="13" y="11" width="1" height="1" fill="rgb(74,76,78)" fill-opacity="0.796875"/>
  <rect x="14" y="11" width="1" height="1" fill="rgb(28,28,28)" fill-opacity="0.1484375"/>
  <rect x="15" y="11" width="6" height="1" fill="rgb(255,255,255)" fill-opacity="0.0078125"/>
  <rect x="0" y="12" width="8" height="1" fill="rgb(255,255,255)" fill-opacity="0.0078125"/>
  <rect x="8" y="12" width="1" height="1" fill="rgb(36,36,36)" fill-opacity="0.6875"/>
  <rect x="9" y="12" width="1" height="1" fill="rgb(219,221,224)" fill-opacity="0.7734375"/>
  <rect x="10" y="12" width="1" height="1" fill="rgb(200,204,212)" fill-opacity="0.6328125"/>
  <rect x="11" y="12" width="1" height="1" fill="rgb(207,211,219)" fill-opacity="0.625"/>
  <rect x="12" y="12" width="1" height="1" fill="rgb(217,220,223)" fill-opacity="0.71875"/>
  <rect x="13" y="12" width="1" height="1" fill="rgb(36,36,36)" fill-opacity="0.6875"/>
  <rect x="14" y="12" width="7" height="1" fill="rgb(255,255,255)" fill-opacity="0.0078125"/>
  <rect x="0" y="13" width="8" height="1" fill="rgb(255,255,255)" fill-opacity="0.0078125"/>
  <rect x="8" y="13" width="1" height="1" fill="rgb(48,46,37)" fill-opacity="0.8359375"/>
  <rect x="9" y="13" width="1" height="1" fill="rgb(87,84,71)" fill-opacity="0.96875"/>
  <rect x="10" y="13" width="1" height="1" fill="rgb(78,75,62)" fill-opacity="0.953125"/>
  <rect x="11" y="13" width="1" height="1" fill="rgb(63,60,47)" fill-opacity="0.9375"/>
  <rect x="12" y="13" width="1" height="1" fill="rgb(68,65,52)" fill-opacity="0.9609375"/>
  <rect x="13" y="13" width="1" height="1" fill="rgb(47,43,35)" fill-opacity="0.8359375"/>
  <rect x="14" y="13" width="7" height="1" fill="rgb(255,255,255)" fill-opacity="0.0078125"/>
  <rect x="0" y="14" width="7" height="1" fill="rgb(255,255,255)" fill-opacity="0.0078125"/>
  <rect x="7" y="14" width="1" height="1" fill="rgb(28,28,28)" fill-opacity="0.2578125"/>
  <rect x="8" y="14" width="1" height="1" fill="rgb(103,101,92)"/>
  <rect x="9" y="14" width="1" height="1" fill="rgb(243,243,238)"/>
  <rect x="10" y="14" width="1" height="1" fill="rgb(234,233,225)"/>
  <rect x="11" y="14" width="1" height="1" fill="rgb(178,174,149)"/>
  <rect x="12" y="14" width="1" height="1" fill="rgb(160,156,127)"/>
  <rect x="13" y="14" width="1" height="1" fill="rgb(57,54,44)"/>
  <rect x="14" y="14" width="1" height="1" fill="rgb(28,28,28)" fill-opacity="0.2578125"/>
  <rect x="15" y="14" width="6" height="1" fill="rgb(255,255,255)" fill-opacity="0.0078125"/>
  <rect x="0" y="15" width="8" height="1" fill="rgb(255,255,255)" fill-opacity="0.0078125"/>
  <rect x="8" y="15" width="1" height="1" fill="rgb(38,36,30)"/>
  <rect x="9" y="15" width="1" height="1" fill="rgb(147,142,124)"/>
  <rect x="10" y="15" width="1" height="1" fill="rgb(141,136,116)"/>
  <rect x="11" y="15" width="2" height="1" fill="rgb(115,108,84)"/>
  <rect x="13" y="15" width="1" height="1" fill="rgb(36,34,28)"/>
  <rect x="14" y="15" width="7" height="1" fill="rgb(255,255,255)" fill-opacity="0.0078125"/>
  <rect x="0" y="16" width="7" height="1" fill="rgb(255,255,255)" fill-opacity="0.0078125"/>
  <rect x="7" y="16" width="1" height="1" fill="rgb(28,28,28)" fill-opacity="0.2578125"/>
  <rect x="8" y="16" width="1" height="1" fill="rgb(103,101,92)"/>
  <rect x="9" y="16" width="1" height="1" fill="rgb(243,242,237)"/>
  <rect x="10" y="16" width="1" height="1" fill="rgb(233,232,224)"/>
  <rect x="11" y="16" width="1" height="1" fill="rgb(177,173,148)"/>
  <rect x="12" y="16" width="1" height="1" fill="rgb(159,155,126)"/>
  <rect x="13" y="16" width="1" height="1" fill="rgb(57,54,44)"/>
  <rect x="14" y="16" width="1" height="1" fill="rgb(28,28,28)" fill-opacity="0.2578125"/>
  <rect x="15" y="16" width="6" height="1" fill="rgb(255,255,255)" fill-opacity="0.0078125"/>
  <rect x="0" y="17" width="8" height="1" fill="rgb(255,255,255)" fill-opacity="0.0078125"/>
  <rect x="8" y="17" width="1" height="1" fill="rgb(36,35,28)" fill-opacity="0.7265625"/>
  <rect x="9" y="17" width="1" height="1" fill="rgb(72,69,56)"/>
  <rect x="10" y="17" width="2" height="1" fill="rgb(108,103,83)"/>
  <rect x="12" y="17" width="1" height="1" fill="rgb(72,69,56)"/>
  <rect x="13" y="17" width="1" height="1" fill="rgb(36,35,28)" fill-opacity="0.7265625"/>
  <rect x="14" y="17" width="7" height="1" fill="rgb(255,255,255)" fill-opacity="0.0078125"/>
  <rect x="0" y="18" width="10" height="1" fill="rgb(255,255,255)" fill-opacity="0.0078125"/>
  <rect x="10" y="18" width="1" height="1" fill="rgb(38,38,38)"/>
  <rect x="11" y="18" width="1" height="1" fill="rgb(0,0,0)"/>
  <rect x="12" y="18" width="9" height="1" fill="rgb(255,255,255)" fill-opacity="0.0078125"/>
  <rect x="0" y="19" width="21" height="1" fill="rgb(255,255,255)" fill-opacity="0.0078125"/>
  <rect x="0" y="20" width="21" height="1" fill="rgb(255,255,255)" fill-opacity="0.0078125"/>
</svg>