<svg xmlns="http://www.w3.org/2000/svg" shape-rendering="crispEdges" width="21" height="21" viewBox="0 0 21 21">
  <rect x="0" y="0" width="21" height="1" fill="rgb(255,255,255)" fill-opacity="0.0078125"/>
  <rect x="0" y="1" width="21" height="1" fill="rgb(255,255,255)" fill-opacity="0.0078125"/>
  <rect x="0" y="2" width="21" height="1" fill="rgb(255,255,255)" fill-opacity="0.0078125"/>
  <rect x="0" y="3" width="3" height="1" fill="rgb(255,255,255)" fill-opacity="0.0078125"/>
  <rect x="3" y="3" width="1" height="1" fill="rgb(17,34,59)" fill-opacity="0.359375"/>
  <rect x="4" y="3" width="1" height="1" fill="rgb(37,55,84)" fill-opacity="0.765625"/>
  <rect x="5" y="3" width="2" height="1" fill="rgb(35,54,83)" fill-opacity="0.8046875"/>
  <rect x="7" y="3" width="1" height="1" fill="rgb(28,47,74)" fill-opacity="0.78125"/>
  <rect x="8" y="3" width="1" height="1" fill="rgb(0,17,43)" fill-opacity="0.3515625"/>
  <rect x="9" y="3" width="4" height="1" fill="rgb(255,255,255)" fill-opacity="0.0078125"/>
  <rect x="13" y="3" width="1" height="1" fill="rgb(0,18,42)" fill-opacity="0.3359375"/>
  <rect x="14" y="3" width="1" height="1" fill="rgb(25,45,71)" fill-opacity="0.765625"/>
  <rect x="15" y="3" width="2" height="1" fill="rgb(35,54,83)" fill-opacity="0.8046875"/>
  <rect x="17" y="3" width="1" height="1" fill="rgb(36,54,84)" fill-opacity="0.7734375"/>
  <rect x="18" y="3" width="1" height="1" fill="rgb(17,34,59)" fill-opacity="0.359375"/>
  <rect x="19" y="3" width="2" height="1" fill="rgb(255,255,255)" fill-opacity="0.0078125"/>
  <rect x="0" y="4" width="3" height="1" fill="rgb(255,255,255)" fill-opacity="0.0078125"/>
  <rect x="3" y="4" width="1" height="1" fill="rgb(36,54,84)" fill-opacity="0.7734375"/>
  <rect x="4" y="4" width="3" height="1" fill="rgb(185,213,255)" fill-opacity="0.8046875"/>
  <rect x="7" y="4" width="1" height="1" fill="rgb(184,211,253)" fill-opacity="0.8046875"/>
  <rect x="8" y="4" width="1" height="1" fill="rgb(17,35,62)" fill-opacity="0.7109375"/>
  <rect x="9" y="4" width="4" height="1" fill="rgb(255,255,255)" fill-opacity="0.0078125"/>
  <rect x="13" y="4" width="1" height="1" fill="rgb(17,35,62)" fill-opacity="0.7109375"/>
  <rect x="14" y="4" width="1" height="1" fill="rgb(184,211,253)" fill-opacity="0.8046875"/>
  <rect x="15" y="4" width="3" height="1" fill="rgb(185,213,255)" fill-opacity="0.8046875"/>
  <rect x="18" y="4" width="1" height="1" fill="rgb(37,55,84)" fill-opacity="0.765625"/>
  <rect x="19" y="4" width="2" height="1" fill="rgb(255,255,255)" fill-opacity="0.0078125"/>
  <rect x="0" y="5" width="3" height="1" fill="rgb(255,255,255)" fill-opacity="0.0078125"/>
  <rect x="3" y="5" width="1" height="1" fill="rgb(35,54,83)" fill-opacity="0.8046875"/>
  <rect x="4" y="5" width="1" height="1" fill="rgb(185,213,255)" fill-opacity="0.8046875"/>
  <rect x="5" y="5" width="1" height="1" fill="rgb(63,84,115)" fill-opacity="0.8046875"/>
  <rect x="6" y="5" width="1" height="1" fill="rgb(35,54,83)" fill-opacity="0.8046875"/>
  <rect x="7" y="5" width="1" height="1" fill="rgb(25,45,71)" fill-opacity="0.765625"/>
  <rect x="8" y="5" width="1" height="1" fill="rgb(0,18,42)" fill-opacity="0.3359375"/>
  <rect x="9" y="5" width="4" height="1" fill="rgb(255,255,255)" fill-opacity="0.0078125"/>
  <rect x="13" y="5" width="1" height="1" fill="rgb(0,17,43)" fill-opacity="0.3515625"/>
  <rect x="14" y="5" width="1" height="1" fill="rgb(28,47,74)" fill-opacity="0.78125"/>
  <rect x="15" y="5" width="1" height="1" fill="rgb(35,54,83)" fill-opacity="0.8046875"/>
  <rect x="16" y="5" width="1" height="1" fill="rgb(63,84,115)" fill-opacity="0.8046875"/>
  <rect x="17" y="5" width="1" height="1" fill="rgb(185,213,255)" fill-opacity="0.8046875"/>
  <rect x="18" y="5" width="1" height="1" fill="rgb(35,54,83)" fill-opacity="0.8046875"/>
  <rect x="19" y="5" width="2" height="1" fill="rgb(255,255,255)" fill-opacity="0.0078125"/>
  <rect x="0" y="6" width="3" height="1" fill="rgb(255,255,255)" fill-opacity="0.0078125"/>
  <rect x="3" y="6" width="1" height="1" fill="rgb(35,54,83)" fill-opacity="0.8046875"/>
  <rect x="4" y="6" width="1" height="1" fill="rgb(185,213,255)" fill-opacity="0.8046875"/>
  <rect x="5" y="6" width="1" height="1" fill="rgb(35,54,83)" fill-opacity="0.8046875"/>
  <rect x="6" y="6" width="1" height="1" fill="rgb(49,49,49)" fill-opacity="0.7265625"/>
  <rect x="7" y="6" width="8" height="1" fill="rgb(59,59,59)" fill-opacity="0.8515625"/>
  <rect x="15" y="6" width="1" height="1" fill="rgb(49,49,49)" fill-opacity="0.7265625"/>
  <rect x="16" y="6" width="1" height="1" fill="rgb(35,54,83)" fill-opacity="0.8046875"/>
  <rect x="17" y="6" width="1" height="1" fill="rgb(185,213,255)" fill-opacity="0.8046875"/>
  <rect x="18" y="6" width="1" height="1" fill="rgb(35,54,83)" fill-opacity="0.8046875"/>
  <rect x="19" y="6" width="2" height="1" fill="rgb(255,255,255)" fill-opacity="0.0078125"/>
  <rect x="0" y="7" width="3" height="1" fill="rgb(255,255,255)" fill-opacity="0.0078125"/>
  <rect x="3" y="7" width="1" height="1" fill="rgb(25,45,71)" fill-opacity="0.765625"/>
  <rect x="4" y="7" width="1" height="1" fill="rgb(184,211,253)" fill-opacity="0.8046875"/>
  <rect x="5" y="7" width="1" height="1" fill="rgb(28,47,74)" fill-opacity="0.78125"/>
  <rect x="6" y="7" width="1" height="1" fill="rgb(59,59,59)" fill-opacity="0.8515625"/>
  <rect x="7" y="7" width="7" height="1" fill="rgb(255,255,255)"/>
  <rect x="14" y="7" width="1" height="1" fill="rgb(247,247,247)"/>
  <rect x="15" y="7" width="1" height="1" fill="rgb(59,59,59)" fill-opacity="0.8515625"/>
  <rect x="16" y="7" width="1" height="1" fill="rgb(25,45,71)" fill-opacity="0.765625"/>
  <rect x="17" y="7" width="1" height="1" fill="rgb(184,211,253)" fill-opacity="0.8046875"/>
  <rect x="18" y="7" width="1" height="1" fill="rgb(28,47,74)" fill-opacity="0.78125"/>
  <rect x="19" y="7" width="2" height="1" fill="rgb(255,255,255)" fill-opacity="0.0078125"/>
  <rect x="0" y="8" width="3" height="1" fill="rgb(255,255,255)" fill-opacity="0.0078125"/>
  <rect x="3" y="8" width="1" height="1" fill="rgb(0,18,42)" fill-opacity="0.3359375"/>
  <rect x="4" y="8" width="1" height="1" fill="rgb(17,35,62)" fill-opacity="0.7109375"/>
  <rect x="5" y="8" width="1" height="1" fill="rgb(0,17,43)" fill-opacity="0.3515625"/>
  <rect x="6" y="8" width="1" height="1" fill="rgb(59,59,59)" fill-opacity="0.8515625"/>
  <rect x="7" y="8" width="1" height="1" fill="rgb(247,247,247)"/>
  <rect x="8" y="8" width="7" height="1" fill="rgb(204,204,204)"/>
  <rect x="15" y="8" width="1" height="1" fill="rgb(59,59,59)" fill-opacity="0.8515625"/>
  <rect x="16" y="8" width="1" height="1" fill="rgb(0,18,42)" fill-opacity="0.3359375"/>
  <rect x="17" y="8" width="1" height="1" fill="rgb(17,35,62)" fill-opacity="0.7109375"/>
  <rect x="18" y="8" width="1" height="1" fill="rgb(0,17,43)" fill-opacity="0.3515625"/>
  <rect x="19" y="8" width="2" height="1" fill="rgb(255,255,255)" fill-opacity="0.0078125"/>
  <rect x="0" y="9" width="6" height="1" fill="rgb(255,255,255)" fill-opacity="0.0078125"/>
  <rect x="6" y="9" width="1" height="1" fill="rgb(49,49,49)" fill-opacity="0.7265625"/>
  <rect x="7" y="9" width="5" height="1" fill="rgb(59,59,59)" fill-opacity="0.8515625"/>
  <rect x="12" y="9" width="1" height="1" fill="rgb(81,81,81)" fill-opacity="0.9140625"/>
  <rect x="13" y="9" width="1" height="1" fill="rgb(247,247,247)"/>
  <rect x="14" y="9" width="1" height="1" fill="rgb(204,204,204)"/>
  <rect x="15" y="9" width="1" height="1" fill="rgb(59,59,59)" fill-opacity="0.8515625"/>
  <rect x="16" y="9" width="5" height="1" fill="rgb(255,255,255)" fill-opacity="0.0078125"/>
  <rect x="0" y="10" width="12" height="1" fill="rgb(255,255,255)" fill-opacity="0.0078125"/>
  <rect x="12" y="10" width="1" height="1" fill="rgb(59,59,59)" fill-opacity="0.8515625"/>
  <rect x="13" y="10" width="1" height="1" fill="rgb(255,255,255)"/>
  <rect x="14" y="10" width="1" height="1" fill="rgb(204,204,204)"/>
  <rect x="15" y="10" width="1" height="1" fill="rgb(59,59,59)" fill-opacity="0.8515625"/>
  <rect x="16" y="10" width="5" height="1" fill="rgb(255,255,255)" fill-opacity="0.0078125"/>
  <rect x="0" y="11" width="12" height="1" fill="rgb(255,255,255)" fill-opacity="0.0078125"/>
  <rect x="12" y="11" width="1" height="1" fill="rgb(59,59,59)" fill-opacity="0.8515625"/>
  <rect x="13" y="11" width="1" height="1" fill="rgb(255,255,255)"/>
  <rect x="14" y="11" width="1" height="1" fill="rgb(204,204,204)"/>
  <rect x="15" y="11" width="1" height="1" fill="rgb(59,59,59)" fill-opacity="0.8515625"/>
  <rect x="16" y="11" width="5" height="1" fill="rgb(255,255,255)" fill-opacity="0.0078125"/>
  <rect x="0" y="12" width="6" height="1" fill="rgb(255,255,255)" fill-opacity="0.0078125"/>
  <rect x="6" y="12" width="1" height="1" fill="rgb(49,49,49)" fill-opacity="0.7265625"/>
  <rect x="7" y="12" width="5" height="1" fill="rgb(59,59,59)" fill-opacity="0.8515625"/>
  <rect x="12" y="12" width="1" height="1" fill="rgb(81,81,81)" fill-opacity="0.9140625"/>
  <rect x="13" y="12" width="1" height="1" fill="rgb(255,255,255)"/>
  <rect x="14" y="12" width="1" height="1" fill="rgb(204,204,204)"/>
  <rect x="15" y="12" width="1" height="1" fill="rgb(59,59,59)" fill-opacity="0.8515625"/>
  <rect x="16" y="12" width="5" height="1" fill="rgb(255,255,255)" fill-opacity="0.0078125"/>
  <rect x="0" y="13" width="3" height="1" fill="rgb(255,255,255)" fill-opacity="0.0078125"/>
  <rect x="3" y="13" width="1" height="1" fill="rgb(0,17,43)" fill-opacity="0.3515625"/>
  <rect x="4" y="13" width="1" height="1" fill="rgb(17,35,62)" fill-opacity="0.7109375"/>
  <rect x="5" y="13" width="1" height="1" fill="rgb(0,18,42)" fill-opacity="0.3359375"/>
  <rect x="6" y="13" width="1" height="1" fill="rgb(59,59,59)" fill-opacity="0.8515625"/>
  <rect x="7" y="13" width="7" height="1" fill="rgb(255,255,255)"/>
  <rect x="14" y="13" width="1" height="1" fill="rgb(204,204,204)"/>
  <rect x="15" y="13" width="1" height="1" fill="rgb(59,59,59)" fill-opacity="0.8515625"/>
  <rect x="16" y="13" width="1" height="1" fill="rgb(0,17,43)" fill-opacity="0.3515625"/>
  <rect x="17" y="13" width="1" height="1" fill="rgb(17,35,62)" fill-opacity="0.7109375"/>
  <rect x="18" y="13" width="1" height="1" fill="rgb(0,18,42)" fill-opacity="0.3359375"/>
  <rect x="19" y="13" width="2" height="1" fill="rgb(255,255,255)" fill-opacity="0.0078125"/>
  <rect x="0" y="14" width="3" height="1" fill="rgb(255,255,255)" fill-opacity="0.0078125"/>
  <rect x="3" y="14" width="1" height="1" fill="rgb(28,47,74)" fill-opacity="0.78125"/>
  <rect x="4" y="14" width="1" height="1" fill="rgb(184,211,253)" fill-opacity="0.8046875"/>
  <rect x="5" y="14" width="1" height="1" fill="rgb(25,45,71)" fill-opacity="0.765625"/>
  <rect x="6" y="14" width="1" height="1" fill="rgb(59,59,59)" fill-opacity="0.8515625"/>
  <rect x="7" y="14" width="1" height="1" fill="rgb(247,247,247)"/>
  <rect x="8" y="14" width="7" height="1" fill="rgb(204,204,204)"/>
  <rect x="15" y="14" width="1" height="1" fill="rgb(59,59,59)" fill-opacity="0.8515625"/>
  <rect x="16" y="14" width="1" height="1" fill="rgb(28,47,74)" fill-opacity="0.78125"/>
  <rect x="17" y="14" width="1" height="1" fill="rgb(184,211,253)" fill-opacity="0.8046875"/>
  <rect x="18" y="14" width="1" height="1" fill="rgb(25,45,71)" fill-opacity="0.765625"/>
  <rect x="19" y="14" width="2" height="1" fill="rgb(255,255,255)" fill-opacity="0.0078125"/>
  <rect x="0" y="15" width="3" height="1" fill="rgb(255,255,255)" fill-opacity="0.0078125"/>
  <rect x="3" y="15" width="1" height="1" fill="rgb(35,54,83)" fill-opacity="0.8046875"/>
  <rect x="4" y="15" width="1" height="1" fill="rgb(185,213,255)" fill-opacity="0.8046875"/>
  <rect x="5" y="15" width="1" height="1" fill="rgb(35,54,83)" fill-opacity="0.8046875"/>
  <rect x="6" y="15" width="1" height="1" fill="rgb(49,49,49)" fill-opacity="0.7265625"/>
  <rect x="7" y="15" width="8" height="1" fill="rgb(59,59,59)" fill-opacity="0.8515625"/>
  <rect x="15" y="15" width="1" height="1" fill="rgb(49,49,49)" fill-opacity="0.7265625"/>
  <rect x="16" y="15" width="1" height="1" fill="rgb(35,54,83)" fill-opacity="0.8046875"/>
  <rect x="17" y="15" width="1" height="1" fill="rgb(185,213,255)" fill-opacity="0.8046875"/>
  <rect x="18" y="15" width="1" height="1" fill="rgb(35,54,83)" fill-opacity="0.8046875"/>
  <rect x="19" y="15" width="2" height="1" fill="rgb(255,255,255)" fill-opacity="0.0078125"/>
  <rect x="0" y="16" width="3" height="1" fill="rgb(255,255,255)" fill-opacity="0.0078125"/>
  <rect x="3" y="16" width="1" height="1" fill="rgb(35,54,83)" fill-opacity="0.8046875"/>
  <rect x="4" y="16" width="1" height="1" fill="rgb(185,213,255)" fill-opacity="0.8046875"/>
  <rect x="5" y="16" width="1" height="1" fill="rgb(63,84,115)" fill-opacity="0.8046875"/>
  <rect x="6" y="16" width="1" height="1" fill="rgb(35,54,83)" fill-opacity="0.8046875"/>
  <rect x="7" y="16" width="1" height="1" fill="rgb(28,47,74)" fill-opacity="0.78125"/>
  <rect x="8" y="16" width="1" height="1" fill="rgb(0,17,43)" fill-opacity="0.3515625"/>
  <rect x="9" y="16" width="4" height="1" fill="rgb(255,255,255)" fill-opacity="0.0078125"/>
  <rect x="13" y="16" width="1" height="1" fill="rgb(0,18,42)" fill-opacity="0.3359375"/>
  <rect x="14" y="16" width="1" height="1" fill="rgb(25,45,71)" fill-opacity="0.765625"/>
  <rect x="15" y="16" width="1" height="1" fill="rgb(35,54,83)" fill-opacity="0.8046875"/>
  <rect x="16" y="16" width="1" height="1" fill="rgb(63,84,115)" fill-opacity="0.8046875"/>
  <rect x="17" y="16" width="1" height="1" fill="rgb(185,213,255)" fill-opacity="0.8046875"/>
  <rect x="18" y="16" width="1" height="1" fill="rgb(35,54,83)" fill-opacity="0.8046875"/>
  <rect x="19" y="16" width="2" height="1" fill="rgb(255,255,255)" fill-opacity="0.0078125"/>
  <rect x="0" y="17" width="3" height="1" fill="rgb(255,255,255)" fill-opacity="0.0078125"/>
  <rect x="3" y="17" width="1" height="1" fill="rgb(37,55,84)" fill-opacity="0.765625"/>
  <rect x="4" y="17" width="3" height="1" fill="rgb(185,213,255)" fill-opacity="0.8046875"/>
  <rect x="7" y="17" width="1" height="1" fill="rgb(184,211,253)" fill-opacity="0.8046875"/>
  <rect x="8" y="17" width="1" height="1" fill="rgb(17,35,62)" fill-opacity="0.7109375"/>
  <rect x="9" y="17" width="4" height="1" fill="rgb(255,255,255)" fill-opacity="0.0078125"/>
  <rect x="13" y="17" width="1" height="1" fill="rgb(17,35,62)" fill-opacity="0.7109375"/>
  <rect x="14" y="17" width="1" height="1" fill="rgb(184,211,253)" fill-opacity="0.8046875"/>
  <rect x="15" y="17" width="3" height="1" fill="rgb(185,213,255)" fill-opacity="0.8046875"/>
  <rect x="18" y="17" width="1" height="1" fill="rgb(36,54,84)" fill-opacity="0.7734375"/>
  <rect x="19" y="17" width="2" height="1" fill="rgb(255,255,255)" fill-opacity="0.0078125"/>
  <rect x="0" y="18" width="3" height="1" fill="rgb(255,255,255)" fill-opacity="0.0078125"/>
  <rect x="3" y="18" width="1" height="1" fill="rgb(17,34,59)" fill-opacity="0.359375"/>
  <rect x="4" y="18" width="1" height="1" fill="rgb(36,54,84)" fill-opacity="0.7734375"/>
  <rect x="5" y="18" width="2" height="1" fill="rgb(35,54,83)" fill-opacity="0.8046875"/>
  <rect x="7" y="18" width="1" height="1" fill="rgb(25,45,71)" fill-opacity="0.765625"/>
  <rect x="8" y="18" width="1" height="1" fill="rgb(0,18,42)" fill-opacity="0.3359375"/>
  <rect x="9" y="18" width="4" height="1" fill="rgb(255,255,255)" fill-opacity="0.0078125"/>
  <rect x="13" y="18" width="1" height="1" fill="rgb(0,17,43)" fill-opacity="0.3515625"/>
  <rect x="14" y="18" width="1" height="1" fill="rgb(28,47,74)" fill-opacity="0.78125"/>
  <rect x="15" y="18" width="2" height="1" fill="rgb(35,54,83)" fill-opacity="0.8046875"/>
  <rect x="17" y="18" width="1" height="1" fill="rgb(37,55,84)" fill-opacity="0.765625"/>
  <rect x="18" y="18" width="1" height="1" fill="rgb(17,34,59)" fill-opacity="0.359375"/>
  <rect x="19" y="18" width="2" height="1" fill="rgb(255,255,255)" fill-opacity="0.0078125"/>
  <rect x="0" y="19" width="21" height="1" fill="rgb(255,255,255)" fill-opacity="0.0078125"/>
  <rect x="0" y="20" width="21" height="1" fill="rgb(255,255,255)" fill-opacity="0.0078125"/>
</svg>