<svg xmlns="http://www.w3.org/2000/svg" shape-rendering="crispEdges" width="21" height="21" viewBox="0 0 21 21">
  <rect x="0" y="0" width="21" height="1" fill="rgb(255,255,255)" fill-opacity="0.0078125"/>
  <rect x="0" y="1" width="21" height="1" fill="rgb(255,255,255)" fill-opacity="0.0078125"/>
  <rect x="0" y="2" width="21" height="1" fill="rgb(255,255,255)" fill-opacity="0.0078125"/>
  <rect x="0" y="3" width="21" height="1" fill="rgb(255,255,255)" fill-opacity="0.0078125"/>
  <rect x="0" y="4" width="21" height="1" fill="rgb(255,255,255)" fill-opacity="0.0078125"/>
  <rect x="0" y="5" width="21" height="1" fill="rgb(255,255,255)" fill-opacity="0.0078125"/>
  <rect x="0" y="6" width="21" height="1" fill="rgb(255,255,255)" fill-opacity="0.0078125"/>
  <rect x="0" y="7" width="21" height="1" fill="rgb(255,255,255)" fill-opacity="0.0078125"/>
  <rect x="0" y="8" width="5" height="1" fill="rgb(255,255,255)" fill-opacity="0.0078125"/>
  <rect x="5" y="8" width="1" height="1" fill="rgb(0,0,0)" fill-opacity="0.140625"/>
  <rect x="6" y="8" width="1" height="1" fill="rgb(56,56,56)" fill-opacity="0.671875"/>
  <rect x="7" y="8" width="1" height="1" fill="rgb(12,12,12)" fill-opacity="0.34375"/>
  <rect x="8" y="8" width="6" height="1" fill="rgb(255,255,255)" fill-opacity="0.0078125"/>
  <rect x="14" y="8" width="1" height="1" fill="rgb(12,12,12)" fill-opacity="0.34375"/>
  <rect x="15" y="8" width="1" height="1" fill="rgb(53,53,53)" fill-opacity="0.65625"/>
  <rect x="16" y="8" width="1" height="1" fill="rgb(0,0,0)" fill-opacity="0.140625"/>
  <rect x="17" y="8" width="4" height="1" fill="rgb(255,255,255)" fill-opacity="0.0078125"/>
  <rect x="0" y="9" width="4" height="1" fill="rgb(255,255,255)" fill-opacity="0.0078125"/>
  <rect x="4" y="9" width="1" height="1" fill="rgb(0,0,0)" fill-opacity="0.140625"/>
  <rect x="5" y="9" width="1" height="1" fill="rgb(86,86,86)" fill-opacity="0.8359375"/>
  <rect x="6" y="9" width="1" height="1" fill="rgb(242,242,242)" fill-opacity="0.9921875"/>
  <rect x="7" y="9" width="1" height="1" fill="rgb(53,53,53)" fill-opacity="0.65625"/>
  <rect x="8" y="9" width="6" height="1" fill="rgb(255,255,255)" fill-opacity="0.0078125"/>
  <rect x="14" y="9" width="1" height="1" fill="rgb(56,56,56)" fill-opacity="0.671875"/>
  <rect x="15" y="9" width="1" height="1" fill="rgb(241,241,241)" fill-opacity="0.9921875"/>
  <rect x="16" y="9" width="1" height="1" fill="rgb(85,85,85)" fill-opacity="0.8359375"/>
  <rect x="17" y="9" width="1" height="1" fill="rgb(0,0,0)" fill-opacity="0.140625"/>
  <rect x="18" y="9" width="3" height="1" fill="rgb(255,255,255)" fill-opacity="0.0078125"/>
  <rect x="0" y="10" width="3" height="1" fill="rgb(255,255,255)" fill-opacity="0.0078125"/>
  <rect x="3" y="10" width="1" height="1" fill="rgb(0,0,0)" fill-opacity="0.1953125"/>
  <rect x="4" y="10" width="1" height="1" fill="rgb(83,83,83)" fill-opacity="0.8671875"/>
  <rect x="5" y="10" width="1" height="1" fill="rgb(242,242,242)" fill-opacity="0.9921875"/>
  <rect x="6" y="10" width="1" height="1" fill="rgb(83,83,83)" fill-opacity="0.8671875"/>
  <rect x="7" y="10" width="1" height="1" fill="rgb(0,0,0)" fill-opacity="0.5625"/>
  <rect x="8" y="10" width="6" height="1" fill="rgb(0,0,0)" fill-opacity="0.5078125"/>
  <rect x="14" y="10" width="1" height="1" fill="rgb(0,0,0)" fill-opacity="0.5625"/>
  <rect x="15" y="10" width="1" height="1" fill="rgb(83,83,83)" fill-opacity="0.8671875"/>
  <rect x="16" y="10" width="1" height="1" fill="rgb(242,242,242)" fill-opacity="0.9921875"/>
  <rect x="17" y="10" width="1" height="1" fill="rgb(86,86,86)" fill-opacity="0.8359375"/>
  <rect x="18" y="10" width="1" height="1" fill="rgb(0,0,0)" fill-opacity="0.140625"/>
  <rect x="19" y="10" width="2" height="1" fill="rgb(255,255,255)" fill-opacity="0.0078125"/>
  <rect x="0" y="11" width="2" height="1" fill="rgb(255,255,255)" fill-opacity="0.0078125"/>
  <rect x="2" y="11" width="1" height="1" fill="rgb(0,0,0)" fill-opacity="0.0078125"/>
  <rect x="3" y="11" width="1" height="1" fill="rgb(0,0,0)" fill-opacity="0.7578125"/>
  <rect x="4" y="11" width="1" height="1" fill="rgb(251,251,251)"/>
  <rect x="5" y="11" width="12" height="1" fill="rgb(255,255,255)"/>
  <rect x="17" y="11" width="1" height="1" fill="rgb(251,251,251)"/>
  <rect x="18" y="11" width="1" height="1" fill="rgb(0,0,0)" fill-opacity="0.6953125"/>
  <rect x="19" y="11" width="1" height="1" fill="rgb(0,0,0)" fill-opacity="0.0078125"/>
  <rect x="20" y="11" width="1" height="1" fill="rgb(255,255,255)" fill-opacity="0.0078125"/>
  <rect x="0" y="12" width="3" height="1" fill="rgb(255,255,255)" fill-opacity="0.0078125"/>
  <rect x="3" y="12" width="1" height="1" fill="rgb(0,0,0)" fill-opacity="0.171875"/>
  <rect x="4" y="12" width="1" height="1" fill="rgb(83,83,83)" fill-opacity="0.8671875"/>
  <rect x="5" y="12" width="1" height="1" fill="rgb(242,242,242)" fill-opacity="0.9921875"/>
  <rect x="6" y="12" width="1" height="1" fill="rgb(83,83,83)" fill-opacity="0.8671875"/>
  <rect x="7" y="12" width="1" height="1" fill="rgb(0,0,0)" fill-opacity="0.5625"/>
  <rect x="8" y="12" width="6" height="1" fill="rgb(0,0,0)" fill-opacity="0.5078125"/>
  <rect x="14" y="12" width="1" height="1" fill="rgb(0,0,0)" fill-opacity="0.5625"/>
  <rect x="15" y="12" width="1" height="1" fill="rgb(83,83,83)" fill-opacity="0.8671875"/>
  <rect x="16" y="12" width="1" height="1" fill="rgb(242,242,242)" fill-opacity="0.9921875"/>
  <rect x="17" y="12" width="1" height="1" fill="rgb(86,86,86)" fill-opacity="0.8359375"/>
  <rect x="18" y="12" width="1" height="1" fill="rgb(0,0,0)" fill-opacity="0.140625"/>
  <rect x="19" y="12" width="2" height="1" fill="rgb(255,255,255)" fill-opacity="0.0078125"/>
  <rect x="0" y="13" width="4" height="1" fill="rgb(255,255,255)" fill-opacity="0.0078125"/>
  <rect x="4" y="13" width="1" height="1" fill="rgb(0,0,0)" fill-opacity="0.140625"/>
  <rect x="5" y="13" width="1" height="1" fill="rgb(86,86,86)" fill-opacity="0.8359375"/>
  <rect x="6" y="13" width="1" height="1" fill="rgb(242,242,242)" fill-opacity="0.9921875"/>
  <rect x="7" y="13" width="1" height="1" fill="rgb(56,56,56)" fill-opacity="0.671875"/>
  <rect x="8" y="13" width="6" height="1" fill="rgb(255,255,255)" fill-opacity="0.0078125"/>
  <rect x="14" y="13" width="1" height="1" fill="rgb(53,53,53)" fill-opacity="0.65625"/>
  <rect x="15" y="13" width="1" height="1" fill="rgb(242,242,242)" fill-opacity="0.9921875"/>
  <rect x="16" y="13" width="1" height="1" fill="rgb(86,86,86)" fill-opacity="0.8359375"/>
  <rect x="17" y="13" width="1" height="1" fill="rgb(0,0,0)" fill-opacity="0.140625"/>
  <rect x="18" y="13" width="3" height="1" fill="rgb(255,255,255)" fill-opacity="0.0078125"/>
  <rect x="0" y="14" width="5" height="1" fill="rgb(255,255,255)" fill-opacity="0.0078125"/>
  <rect x="5" y="14" width="1" height="1" fill="rgb(0,0,0)" fill-opacity="0.140625"/>
  <rect x="6" y="14" width="1" height="1" fill="rgb(53,53,53)" fill-opacity="0.65625"/>
  <rect x="7" y="14" width="1" height="1" fill="rgb(12,12,12)" fill-opacity="0.34375"/>
  <rect x="8" y="14" width="6" height="1" fill="rgb(255,255,255)" fill-opacity="0.0078125"/>
  <rect x="14" y="14" width="1" height="1" fill="rgb(12,12,12)" fill-opacity="0.34375"/>
  <rect x="15" y="14" width="1" height="1" fill="rgb(56,56,56)" fill-opacity="0.671875"/>
  <rect x="16" y="14" width="1" height="1" fill="rgb(0,0,0)" fill-opacity="0.140625"/>
  <rect x="17" y="14" width="4" height="1" fill="rgb(255,255,255)" fill-opacity="0.0078125"/>
  <rect x="0" y="15" width="21" height="1" fill="rgb(255,255,255)" fill-opacity="0.0078125"/>
  <rect x="0" y="16" width="21" height="1" fill="rgb(255,255,255)" fill-opacity="0.0078125"/>
  <rect x="0" y="17" width="21" height="1" fill="rgb(255,255,255)" fill-opacity="0.0078125"/>
  <rect x="0" y="18" width="21" height="1" fill="rgb(255,255,255)" fill-opacity="0.0078125"/>
  <rect x="0" y="19" width="21" height="1" fill="rgb(255,255,255)" fill-opacity="0.0078125"/>
  <rect x="0" y="20" width="21" height="1" fill="rgb(255,255,255)" fill-opacity="0.0078125"/>
</svg>