<svg xmlns="http://www.w3.org/2000/svg" shape-rendering="crispEdges" width="21" height="21" viewBox="0 0 21 21">
  <rect x="0" y="0" width="21" height="1" fill="rgb(255,255,255)" fill-opacity="0.0078125"/>
  <rect x="0" y="1" width="21" height="1" fill="rgb(255,255,255)" fill-opacity="0.0078125"/>
  <rect x="0" y="2" width="21" height="1" fill="rgb(255,255,255)" fill-opacity="0.0078125"/>
  <rect x="0" y="3" width="10" height="1" fill="rgb(255,255,255)" fill-opacity="0.0078125"/>
  <rect x="10" y="3" width="1" height="1" fill="rgb(0,0,0)" fill-opacity="0.0078125"/>
  <rect x="11" y="3" width="1" height="1" fill="rgb(0,0,0)" fill-opacity="0.40625"/>
  <rect x="12" y="3" width="1" height="1" fill="rgb(8,8,8)" fill-opacity="0.75"/>
  <rect x="13" y="3" width="1" height="1" fill="rgb(26,26,26)" fill-opacity="0.8984375"/>
  <rect x="14" y="3" width="1" height="1" fill="rgb(7,7,7)" fill-opacity="0.75"/>
  <rect x="15" y="3" width="1" height="1" fill="rgb(0,0,0)" fill-opacity="0.4140625"/>
  <rect x="16" y="3" width="1" height="1" fill="rgb(0,0,0)" fill-opacity="0.0078125"/>
  <rect x="17" y="3" width="4" height="1" fill="rgb(255,255,255)" fill-opacity="0.0078125"/>
  <rect x="0" y="4" width="4" height="1" fill="rgb(255,255,255)" fill-opacity="0.0078125"/>
  <rect x="4" y="4" width="1" height="1" fill="rgb(0,0,0)" fill-opacity="0.0078125"/>
  <rect x="5" y="4" width="1" height="1" fill="rgb(0,0,0)" fill-opacity="0.40625"/>
  <rect x="6" y="4" width="1" height="1" fill="rgb(4,4,4)" fill-opacity="0.75"/>
  <rect x="7" y="4" width="1" height="1" fill="rgb(13,13,13)" fill-opacity="0.890625"/>
  <rect x="8" y="4" width="1" height="1" fill="rgb(4,4,4)" fill-opacity="0.75"/>
  <rect x="9" y="4" width="1" height="1" fill="rgb(0,0,0)" fill-opacity="0.4140625"/>
  <rect x="10" y="4" width="1" height="1" fill="rgb(3,3,3)" fill-opacity="0.6953125"/>
  <rect x="11" y="4" width="1" height="1" fill="rgb(136,136,136)" fill-opacity="0.875"/>
  <rect x="12" y="4" width="1" height="1" fill="rgb(211,211,211)" fill-opacity="0.9140625"/>
  <rect x="13" y="4" width="1" height="1" fill="rgb(196,196,196)" fill-opacity="0.9375"/>
  <rect x="14" y="4" width="1" height="1" fill="rgb(192,192,192)" fill-opacity="0.8984375"/>
  <rect x="15" y="4" width="1" height="1" fill="rgb(99,99,99)" fill-opacity="0.859375"/>
  <rect x="16" y="4" width="1" height="1" fill="rgb(1,1,1)" fill-opacity="0.703125"/>
  <rect x="17" y="4" width="1" height="1" fill="rgb(0,0,0)" fill-opacity="0.015625"/>
  <rect x="18" y="4" width="3" height="1" fill="rgb(255,255,255)" fill-opacity="0.0078125"/>
  <rect x="0" y="5" width="3" height="1" fill="rgb(255,255,255)" fill-opacity="0.0078125"/>
  <rect x="3" y="5" width="1" height="1" fill="rgb(0,0,0)" fill-opacity="0.015625"/>
  <rect x="4" y="5" width="1" height="1" fill="rgb(0,0,0)" fill-opacity="0.6953125"/>
  <rect x="5" y="5" width="1" height="1" fill="rgb(112,112,112)" fill-opacity="0.8671875"/>
  <rect x="6" y="5" width="1" height="1" fill="rgb(189,189,189)" fill-opacity="0.8984375"/>
  <rect x="7" y="5" width="1" height="1" fill="rgb(175,175,175)" fill-opacity="0.9296875"/>
  <rect x="8" y="5" width="1" height="1" fill="rgb(165,165,165)" fill-opacity="0.875"/>
  <rect x="9" y="5" width="1" height="1" fill="rgb(73,73,73)" fill-opacity="0.8984375"/>
  <rect x="10" y="5" width="1" height="1" fill="rgb(126,126,126)" fill-opacity="0.953125"/>
  <rect x="11" y="5" width="1" height="1" fill="rgb(186,186,186)" fill-opacity="0.9765625"/>
  <rect x="12" y="5" width="1" height="1" fill="rgb(122,122,122)" fill-opacity="0.984375"/>
  <rect x="13" y="5" width="1" height="1" fill="rgb(106,106,106)" fill-opacity="0.984375"/>
  <rect x="14" y="5" width="1" height="1" fill="rgb(105,105,105)" fill-opacity="0.984375"/>
  <rect x="15" y="5" width="1" height="1" fill="rgb(141,141,141)" fill-opacity="0.9765625"/>
  <rect x="16" y="5" width="1" height="1" fill="rgb(88,88,88)" fill-opacity="0.8203125"/>
  <rect x="17" y="5" width="1" height="1" fill="rgb(0,0,0)" fill-opacity="0.4375"/>
  <rect x="18" y="5" width="3" height="1" fill="rgb(255,255,255)" fill-opacity="0.0078125"/>
  <rect x="0" y="6" width="3" height="1" fill="rgb(255,255,255)" fill-opacity="0.0078125"/>
  <rect x="3" y="6" width="1" height="1" fill="rgb(0,0,0)" fill-opacity="0.4375"/>
  <rect x="4" y="6" width="1" height="1" fill="rgb(114,114,114)" fill-opacity="0.859375"/>
  <rect x="5" y="6" width="1" height="1" fill="rgb(169,169,169)" fill-opacity="0.9765625"/>
  <rect x="6" y="6" width="1" height="1" fill="rgb(102,102,102)" fill-opacity="0.984375"/>
  <rect x="7" y="6" width="1" height="1" fill="rgb(86,86,86)" fill-opacity="0.984375"/>
  <rect x="8" y="6" width="1" height="1" fill="rgb(90,90,90)" fill-opacity="0.984375"/>
  <rect x="9" y="6" width="1" height="1" fill="rgb(123,123,123)" fill-opacity="0.984375"/>
  <rect x="10" y="6" width="1" height="1" fill="rgb(179,179,179)" fill-opacity="0.96875"/>
  <rect x="11" y="6" width="1" height="1" fill="rgb(119,119,119)" fill-opacity="0.984375"/>
  <rect x="12" y="6" width="1" height="1" fill="rgb(153,153,153)" fill-opacity="0.984375"/>
  <rect x="13" y="6" width="1" height="1" fill="rgb(168,168,168)" fill-opacity="0.984375"/>
  <rect x="14" y="6" width="1" height="1" fill="rgb(107,107,107)" fill-opacity="0.984375"/>
  <rect x="15" y="6" width="1" height="1" fill="rgb(82,82,82)" fill-opacity="0.984375"/>
  <rect x="16" y="6" width="1" height="1" fill="rgb(133,133,133)" fill-opacity="0.8671875"/>
  <rect x="17" y="6" width="1" height="1" fill="rgb(5,5,5)" fill-opacity="0.796875"/>
  <rect x="18" y="6" width="3" height="1" fill="rgb(255,255,255)" fill-opacity="0.0078125"/>
  <rect x="0" y="7" width="3" height="1" fill="rgb(255,255,255)" fill-opacity="0.0078125"/>
  <rect x="3" y="7" width="1" height="1" fill="rgb(6,6,6)" fill-opacity="0.796875"/>
  <rect x="4" y="7" width="1" height="1" fill="rgb(185,185,185)" fill-opacity="0.90625"/>
  <rect x="5" y="7" width="1" height="1" fill="rgb(97,97,97)" fill-opacity="0.984375"/>
  <rect x="6" y="7" width="1" height="1" fill="rgb(143,143,143)" fill-opacity="0.984375"/>
  <rect x="7" y="7" width="1" height="1" fill="rgb(160,160,160)" fill-opacity="0.984375"/>
  <rect x="8" y="7" width="1" height="1" fill="rgb(98,98,98)" fill-opacity="0.984375"/>
  <rect x="9" y="7" width="1" height="1" fill="rgb(73,73,73)" fill-opacity="0.984375"/>
  <rect x="10" y="7" width="1" height="1" fill="rgb(105,105,105)" fill-opacity="0.9765625"/>
  <rect x="11" y="7" width="1" height="1" fill="rgb(100,100,100)" fill-opacity="0.984375"/>
  <rect x="12" y="7" width="1" height="1" fill="rgb(173,173,173)" fill-opacity="0.984375"/>
  <rect x="13" y="7" width="1" height="1" fill="rgb(54,54,54)" fill-opacity="0.984375"/>
  <rect x="14" y="7" width="1" height="1" fill="rgb(85,85,85)" fill-opacity="0.984375"/>
  <rect x="15" y="7" width="1" height="1" fill="rgb(65,65,65)" fill-opacity="0.984375"/>
  <rect x="16" y="7" width="1" height="1" fill="rgb(102,102,102)" fill-opacity="0.9453125"/>
  <rect x="17" y="7" width="1" height="1" fill="rgb(12,12,12)" fill-opacity="0.953125"/>
  <rect x="18" y="7" width="3" height="1" fill="rgb(255,255,255)" fill-opacity="0.0078125"/>
  <rect x="0" y="8" width="3" height="1" fill="rgb(255,255,255)" fill-opacity="0.0078125"/>
  <rect x="3" y="8" width="1" height="1" fill="rgb(22,22,22)" fill-opacity="0.953125"/>
  <rect x="4" y="8" width="1" height="1" fill="rgb(165,165,165)" fill-opacity="0.953125"/>
  <rect x="5" y="8" width="1" height="1" fill="rgb(82,82,82)" fill-opacity="0.984375"/>
  <rect x="6" y="8" width="1" height="1" fill="rgb(165,165,165)" fill-opacity="0.984375"/>
  <rect x="7" y="8" width="1" height="1" fill="rgb(53,53,53)" fill-opacity="0.984375"/>
  <rect x="8" y="8" width="1" height="1" fill="rgb(78,78,78)" fill-opacity="0.984375"/>
  <rect x="9" y="8" width="1" height="1" fill="rgb(62,62,62)" fill-opacity="0.984375"/>
  <rect x="10" y="8" width="1" height="1" fill="rgb(60,60,60)" fill-opacity="0.9765625"/>
  <rect x="11" y="8" width="1" height="1" fill="rgb(89,89,89)" fill-opacity="0.984375"/>
  <rect x="12" y="8" width="1" height="1" fill="rgb(110,110,110)" fill-opacity="0.984375"/>
  <rect x="13" y="8" width="1" height="1" fill="rgb(83,83,83)" fill-opacity="0.984375"/>
  <rect x="14" y="8" width="1" height="1" fill="rgb(63,63,63)" fill-opacity="0.984375"/>
  <rect x="15" y="8" width="1" height="1" fill="rgb(56,56,56)" fill-opacity="0.984375"/>
  <rect x="16" y="8" width="1" height="1" fill="rgb(88,88,88)" fill-opacity="0.859375"/>
  <rect x="17" y="8" width="1" height="1" fill="rgb(4,4,4)" fill-opacity="0.8203125"/>
  <rect x="18" y="8" width="3" height="1" fill="rgb(255,255,255)" fill-opacity="0.0078125"/>
  <rect x="0" y="9" width="3" height="1" fill="rgb(255,255,255)" fill-opacity="0.0078125"/>
  <rect x="3" y="9" width="1" height="1" fill="rgb(10,10,10)" fill-opacity="0.8203125"/>
  <rect x="4" y="9" width="1" height="1" fill="rgb(161,161,161)" fill-opacity="0.8984375"/>
  <rect x="5" y="9" width="1" height="1" fill="rgb(81,81,81)" fill-opacity="0.984375"/>
  <rect x="6" y="9" width="1" height="1" fill="rgb(100,100,100)" fill-opacity="0.984375"/>
  <rect x="7" y="9" width="1" height="1" fill="rgb(75,75,75)" fill-opacity="0.984375"/>
  <rect x="8" y="9" width="1" height="1" fill="rgb(60,60,60)" fill-opacity="0.984375"/>
  <rect x="9" y="9" width="1" height="1" fill="rgb(55,55,55)" fill-opacity="0.984375"/>
  <rect x="10" y="9" width="1" height="1" fill="rgb(48,48,48)" fill-opacity="0.9453125"/>
  <rect x="11" y="9" width="1" height="1" fill="rgb(78,78,78)" fill-opacity="0.984375"/>
  <rect x="12" y="9" width="1" height="1" fill="rgb(69,69,69)" fill-opacity="0.984375"/>
  <rect x="13" y="9" width="1" height="1" fill="rgb(60,60,60)" fill-opacity="0.984375"/>
  <rect x="14" y="9" width="1" height="1" fill="rgb(52,52,52)" fill-opacity="0.984375"/>
  <rect x="15" y="9" width="1" height="1" fill="rgb(67,67,67)" fill-opacity="0.984375"/>
  <rect x="16" y="9" width="1" height="1" fill="rgb(41,41,41)" fill-opacity="0.765625"/>
  <rect x="17" y="9" width="1" height="1" fill="rgb(0,0,0)" fill-opacity="0.5"/>
  <rect x="18" y="9" width="3" height="1" fill="rgb(255,255,255)" fill-opacity="0.0078125"/>
  <rect x="0" y="10" width="3" height="1" fill="rgb(255,255,255)" fill-opacity="0.0078125"/>
  <rect x="3" y="10" width="1" height="1" fill="rgb(0,0,0)" fill-opacity="0.5"/>
  <rect x="4" y="10" width="1" height="1" fill="rgb(92,92,92)" fill-opacity="0.8203125"/>
  <rect x="5" y="10" width="1" height="1" fill="rgb(111,111,111)" fill-opacity="0.984375"/>
  <rect x="6" y="10" width="1" height="1" fill="rgb(65,65,65)" fill-opacity="0.984375"/>
  <rect x="7" y="10" width="1" height="1" fill="rgb(58,58,58)" fill-opacity="0.984375"/>
  <rect x="8" y="10" width="1" height="1" fill="rgb(55,55,55)" fill-opacity="0.984375"/>
  <rect x="9" y="10" width="1" height="1" fill="rgb(123,123,123)" fill-opacity="0.984375"/>
  <rect x="10" y="10" width="2" height="1" fill="rgb(122,122,122)" fill-opacity="0.9765625"/>
  <rect x="12" y="10" width="1" height="1" fill="rgb(126,126,126)" fill-opacity="0.9765625"/>
  <rect x="13" y="10" width="1" height="1" fill="rgb(84,84,84)" fill-opacity="0.9765625"/>
  <rect x="14" y="10" width="1" height="1" fill="rgb(78,78,78)" fill-opacity="0.8828125"/>
  <rect x="15" y="10" width="1" height="1" fill="rgb(39,39,39)" fill-opacity="0.78125"/>
  <rect x="16" y="10" width="1" height="1" fill="rgb(1,1,1)" fill-opacity="0.796875"/>
  <rect x="17" y="10" width="1" height="1" fill="rgb(0,0,0)" fill-opacity="0.03125"/>
  <rect x="18" y="10" width="3" height="1" fill="rgb(255,255,255)" fill-opacity="0.0078125"/>
  <rect x="0" y="11" width="3" height="1" fill="rgb(255,255,255)" fill-opacity="0.0078125"/>
  <rect x="3" y="11" width="1" height="1" fill="rgb(0,0,0)" fill-opacity="0.03125"/>
  <rect x="4" y="11" width="1" height="1" fill="rgb(1,1,1)" fill-opacity="0.7890625"/>
  <rect x="5" y="11" width="1" height="1" fill="rgb(74,74,74)" fill-opacity="0.796875"/>
  <rect x="6" y="11" width="1" height="1" fill="rgb(96,96,96)" fill-opacity="0.8828125"/>
  <rect x="7" y="11" width="1" height="1" fill="rgb(74,74,74)" fill-opacity="0.984375"/>
  <rect x="8" y="11" width="1" height="1" fill="rgb(58,58,58)" fill-opacity="0.9765625"/>
  <rect x="9" y="11" width="4" height="1" fill="rgb(104,104,104)" fill-opacity="0.984375"/>
  <rect x="13" y="11" width="1" height="1" fill="rgb(36,36,36)" fill-opacity="0.984375"/>
  <rect x="14" y="11" width="1" height="1" fill="rgb(3,3,3)" fill-opacity="0.8671875"/>
  <rect x="15" y="11" width="1" height="1" fill="rgb(0,0,0)" fill-opacity="0.53125"/>
  <rect x="16" y="11" width="1" height="1" fill="rgb(0,0,0)" fill-opacity="0.0390625"/>
  <rect x="17" y="11" width="4" height="1" fill="rgb(255,255,255)" fill-opacity="0.0078125"/>
  <rect x="0" y="12" width="4" height="1" fill="rgb(255,255,255)" fill-opacity="0.0078125"/>
  <rect x="4" y="12" width="1" height="1" fill="rgb(0,0,0)" fill-opacity="0.0390625"/>
  <rect x="5" y="12" width="1" height="1" fill="rgb(0,0,0)" fill-opacity="0.53125"/>
  <rect x="6" y="12" width="1" height="1" fill="rgb(3,3,3)" fill-opacity="0.8671875"/>
  <rect x="7" y="12" width="1" height="1" fill="rgb(31,31,31)" fill-opacity="0.984375"/>
  <rect x="8" y="12" width="1" height="1" fill="rgb(117,117,117)" fill-opacity="0.984375"/>
  <rect x="9" y="12" width="1" height="1" fill="rgb(185,185,185)" fill-opacity="0.984375"/>
  <rect x="10" y="12" width="1" height="1" fill="rgb(192,192,192)" fill-opacity="0.984375"/>
  <rect x="11" y="12" width="1" height="1" fill="rgb(183,183,183)" fill-opacity="0.984375"/>
  <rect x="12" y="12" width="1" height="1" fill="rgb(165,165,165)" fill-opacity="0.984375"/>
  <rect x="13" y="12" width="1" height="1" fill="rgb(26,26,26)" fill-opacity="0.984375"/>
  <rect x="14" y="12" width="2" height="1" fill="rgb(255,255,255)" fill-opacity="0.0078125"/>
  <rect x="16" y="12" width="1" height="1" fill="rgb(21,21,21)" fill-opacity="0.1015625"/>
  <rect x="17" y="12" width="1" height="1" fill="rgb(32,32,32)" fill-opacity="0.7109375"/>
  <rect x="18" y="12" width="1" height="1" fill="rgb(34,34,34)" fill-opacity="0.6171875"/>
  <rect x="19" y="12" width="2" height="1" fill="rgb(255,255,255)" fill-opacity="0.0078125"/>
  <rect x="0" y="13" width="5" height="1" fill="rgb(255,255,255)" fill-opacity="0.0078125"/>
  <rect x="5" y="13" width="1" height="1" fill="rgb(30,30,30)" fill-opacity="0.84375"/>
  <rect x="6" y="13" width="1" height="1" fill="rgb(27,27,27)" fill-opacity="0.953125"/>
  <rect x="7" y="13" width="1" height="1" fill="rgb(24,24,24)" fill-opacity="0.9609375"/>
  <rect x="8" y="13" width="1" height="1" fill="rgb(141,141,141)" fill-opacity="0.984375"/>
  <rect x="9" y="13" width="1" height="1" fill="rgb(116,116,116)" fill-opacity="0.984375"/>
  <rect x="10" y="13" width="1" height="1" fill="rgb(123,123,123)" fill-opacity="0.984375"/>
  <rect x="11" y="13" width="1" height="1" fill="rgb(124,124,124)" fill-opacity="0.984375"/>
  <rect x="12" y="13" width="1" height="1" fill="rgb(171,171,171)" fill-opacity="0.984375"/>
  <rect x="13" y="13" width="1" height="1" fill="rgb(33,33,33)" fill-opacity="0.953125"/>
  <rect x="14" y="13" width="2" height="1" fill="rgb(28,28,28)" fill-opacity="0.953125"/>
  <rect x="16" y="13" width="1" height="1" fill="rgb(41,41,41)" fill-opacity="0.9609375"/>
  <rect x="17" y="13" width="1" height="1" fill="rgb(177,177,177)" fill-opacity="0.9765625"/>
  <rect x="18" y="13" width="1" height="1" fill="rgb(33,33,33)" fill-opacity="0.8046875"/>
  <rect x="19" y="13" width="2" height="1" fill="rgb(255,255,255)" fill-opacity="0.0078125"/>
  <rect x="0" y="14" width="5" height="1" fill="rgb(255,255,255)" fill-opacity="0.0078125"/>
  <rect x="5" y="14" width="1" height="1" fill="rgb(26,26,26)" fill-opacity="0.984375"/>
  <rect x="6" y="14" width="2" height="1" fill="rgb(197,197,197)" fill-opacity="0.984375"/>
  <rect x="8" y="14" width="1" height="1" fill="rgb(204,204,204)" fill-opacity="0.984375"/>
  <rect x="9" y="14" width="1" height="1" fill="rgb(78,78,78)" fill-opacity="0.984375"/>
  <rect x="10" y="14" width="1" height="1" fill="rgb(105,105,105)" fill-opacity="0.984375"/>
  <rect x="11" y="14" width="1" height="1" fill="rgb(120,120,120)" fill-opacity="0.984375"/>
  <rect x="12" y="14" width="1" height="1" fill="rgb(157,157,157)" fill-opacity="0.984375"/>
  <rect x="13" y="14" width="1" height="1" fill="rgb(135,135,135)" fill-opacity="0.984375"/>
  <rect x="14" y="14" width="2" height="1" fill="rgb(247,247,247)" fill-opacity="0.984375"/>
  <rect x="16" y="14" width="1" height="1" fill="rgb(202,202,202)" fill-opacity="0.984375"/>
  <rect x="17" y="14" width="1" height="1" fill="rgb(215,215,215)" fill-opacity="0.984375"/>
  <rect x="18" y="14" width="1" height="1" fill="rgb(33,33,33)" fill-opacity="0.8046875"/>
  <rect x="19" y="14" width="2" height="1" fill="rgb(255,255,255)" fill-opacity="0.0078125"/>
  <rect x="0" y="15" width="5" height="1" fill="rgb(255,255,255)" fill-opacity="0.0078125"/>
  <rect x="5" y="15" width="1" height="1" fill="rgb(28,28,28)" fill-opacity="0.9140625"/>
  <rect x="6" y="15" width="1" height="1" fill="rgb(37,37,37)" fill-opacity="0.9609375"/>
  <rect x="7" y="15" width="1" height="1" fill="rgb(30,30,30)" fill-opacity="0.9609375"/>
  <rect x="8" y="15" width="1" height="1" fill="rgb(119,119,119)" fill-opacity="0.984375"/>
  <rect x="9" y="15" width="1" height="1" fill="rgb(55,55,55)" fill-opacity="0.984375"/>
  <rect x="10" y="15" width="1" height="1" fill="rgb(115,115,115)" fill-opacity="0.984375"/>
  <rect x="11" y="15" width="1" height="1" fill="rgb(120,120,120)" fill-opacity="0.984375"/>
  <rect x="12" y="15" width="1" height="1" fill="rgb(142,142,142)" fill-opacity="0.984375"/>
  <rect x="13" y="15" width="1" height="1" fill="rgb(59,59,59)" fill-opacity="0.984375"/>
  <rect x="14" y="15" width="2" height="1" fill="rgb(177,177,177)" fill-opacity="0.984375"/>
  <rect x="16" y="15" width="1" height="1" fill="rgb(130,130,130)" fill-opacity="0.984375"/>
  <rect x="17" y="15" width="1" height="1" fill="rgb(172,172,172)" fill-opacity="0.984375"/>
  <rect x="18" y="15" width="1" height="1" fill="rgb(33,33,33)" fill-opacity="0.8046875"/>
  <rect x="19" y="15" width="2" height="1" fill="rgb(255,255,255)" fill-opacity="0.0078125"/>
  <rect x="0" y="16" width="5" height="1" fill="rgb(255,255,255)" fill-opacity="0.0078125"/>
  <rect x="5" y="16" width="1" height="1" fill="rgb(32,32,32)" fill-opacity="0.0390625"/>
  <rect x="6" y="16" width="1" height="1" fill="rgb(32,32,32)" fill-opacity="0.0703125"/>
  <rect x="7" y="16" width="1" height="1" fill="rgb(26,26,26)" fill-opacity="0.9609375"/>
  <rect x="8" y="16" width="1" height="1" fill="rgb(117,117,117)" fill-opacity="0.984375"/>
  <rect x="9" y="16" width="1" height="1" fill="rgb(149,149,149)" fill-opacity="0.984375"/>
  <rect x="10" y="16" width="1" height="1" fill="rgb(147,147,147)" fill-opacity="0.984375"/>
  <rect x="11" y="16" width="1" height="1" fill="rgb(137,137,137)" fill-opacity="0.984375"/>
  <rect x="12" y="16" width="1" height="1" fill="rgb(128,128,128)" fill-opacity="0.984375"/>
  <rect x="13" y="16" width="1" height="1" fill="rgb(40,40,40)" fill-opacity="0.9453125"/>
  <rect x="14" y="16" width="2" height="1" fill="rgb(30,30,30)" fill-opacity="0.953125"/>
  <rect x="16" y="16" width="1" height="1" fill="rgb(41,41,41)" fill-opacity="0.953125"/>
  <rect x="17" y="16" width="1" height="1" fill="rgb(112,112,112)" fill-opacity="0.984375"/>
  <rect x="18" y="16" width="1" height="1" fill="rgb(33,33,33)" fill-opacity="0.8046875"/>
  <rect x="19" y="16" width="2" height="1" fill="rgb(255,255,255)" fill-opacity="0.0078125"/>
  <rect x="0" y="17" width="7" height="1" fill="rgb(255,255,255)" fill-opacity="0.0078125"/>
  <rect x="7" y="17" width="1" height="1" fill="rgb(25,25,25)" fill-opacity="0.28125"/>
  <rect x="8" y="17" width="1" height="1" fill="rgb(30,30,30)" fill-opacity="0.953125"/>
  <rect x="9" y="17" width="1" height="1" fill="rgb(31,31,31)" fill-opacity="0.953125"/>
  <rect x="10" y="17" width="1" height="1" fill="rgb(30,30,30)" fill-opacity="0.953125"/>
  <rect x="11" y="17" width="1" height="1" fill="rgb(29,29,29)" fill-opacity="0.953125"/>
  <rect x="12" y="17" width="1" height="1" fill="rgb(28,28,28)" fill-opacity="0.953125"/>
  <rect x="13" y="17" width="1" height="1" fill="rgb(28,28,28)" fill-opacity="0.9140625"/>
  <rect x="14" y="17" width="2" height="1" fill="rgb(32,32,32)" fill-opacity="0.0703125"/>
  <rect x="16" y="17" width="1" height="1" fill="rgb(27,27,27)" fill-opacity="0.1953125"/>
  <rect x="17" y="17" width="1" height="1" fill="rgb(30,30,30)" fill-opacity="0.8359375"/>
  <rect x="18" y="17" width="1" height="1" fill="rgb(34,34,34)" fill-opacity="0.6875"/>
  <rect x="19" y="17" width="2" height="1" fill="rgb(255,255,255)" fill-opacity="0.0078125"/>
  <rect x="0" y="18" width="8" height="1" fill="rgb(255,255,255)" fill-opacity="0.0078125"/>
  <rect x="8" y="18" width="1" height="1" fill="rgb(28,28,28)" fill-opacity="0.0390625"/>
  <rect x="9" y="18" width="4" height="1" fill="rgb(32,32,32)" fill-opacity="0.0703125"/>
  <rect x="13" y="18" width="1" height="1" fill="rgb(32,32,32)" fill-opacity="0.0390625"/>
  <rect x="14" y="18" width="3" height="1" fill="rgb(255,255,255)" fill-opacity="0.0078125"/>
  <rect x="17" y="18" width="1" height="1" fill="rgb(0,0,0)" fill-opacity="0.0078125"/>
  <rect x="18" y="18" width="1" height="1" fill="rgb(0,0,0)" fill-opacity="0.0234375"/>
  <rect x="19" y="18" width="2" height="1" fill="rgb(255,255,255)" fill-opacity="0.0078125"/>
  <rect x="0" y="19" width="21" height="1" fill="rgb(255,255,255)" fill-opacity="0.0078125"/>
  <rect x="0" y="20" width="21" height="1" fill="rgb(255,255,255)" fill-opacity="0.0078125"/>
</svg>