<svg xmlns="http://www.w3.org/2000/svg" shape-rendering="crispEdges" width="21" height="21" viewBox="0 0 21 21">
  <rect x="0" y="0" width="1" height="21" fill="rgb(255,255,255)" fill-opacity="0.0078125"/>
  <rect x="1" y="0" width="1" height="21" fill="rgb(255,255,255)" fill-opacity="0.0078125"/>
  <rect x="2" y="0" width="1" height="21" fill="rgb(255,255,255)" fill-opacity="0.0078125"/>
  <rect x="3" y="0" width="1" height="3" fill="rgb(255,255,255)" fill-opacity="0.0078125"/>
  <rect x="3" y="3" width="1" height="16" fill="rgb(255,255,255)" fill-opacity="0.015625"/>
  <rect x="3" y="19" width="1" height="2" fill="rgb(255,255,255)" fill-opacity="0.0078125"/>
  <rect x="4" y="0" width="1" height="3" fill="rgb(255,255,255)" fill-opacity="0.0078125"/>
  <rect x="4" y="3" width="1" height="16" fill="rgb(255,255,255)" fill-opacity="0.015625"/>
  <rect x="4" y="19" width="1" height="2" fill="rgb(255,255,255)" fill-opacity="0.0078125"/>
  <rect x="5" y="0" width="1" height="3" fill="rgb(255,255,255)" fill-opacity="0.0078125"/>
  <rect x="5" y="3" width="1" height="16" fill="rgb(255,255,255)" fill-opacity="0.015625"/>
  <rect x="5" y="19" width="1" height="2" fill="rgb(255,255,255)" fill-opacity="0.0078125"/>
  <rect x="6" y="0" width="1" height="3" fill="rgb(255,255,255)" fill-opacity="0.0078125"/>
  <rect x="6" y="3" width="1" height="16" fill="rgb(255,255,255)" fill-opacity="0.015625"/>
  <rect x="6" y="19" width="1" height="2" fill="rgb(255,255,255)" fill-opacity="0.0078125"/>
  <rect x="7" y="0" width="1" height="3" fill="rgb(255,255,255)" fill-opacity="0.0078125"/>
  <rect x="7" y="3" width="1" height="16" fill="rgb(255,255,255)" fill-opacity="0.015625"/>
  <rect x="7" y="19" width="1" height="2" fill="rgb(255,255,255)" fill-opacity="0.0078125"/>
  <rect x="8" y="0" width="1" height="3" fill="rgb(255,255,255)" fill-opacity="0.0078125"/>
  <rect x="8" y="3" width="1" height="1" fill="rgb(255,255,255)" fill-opacity="0.015625"/>
  <rect x="8" y="4" width="1" height="11" fill="rgb(28,28,28)" fill-opacity="0.7578125"/>
  <rect x="8" y="15" width="1" height="4" fill="rgb(255,255,255)" fill-opacity="0.015625"/>
  <rect x="8" y="19" width="1" height="2" fill="rgb(255,255,255)" fill-opacity="0.0078125"/>
  <rect x="9" y="0" width="1" height="3" fill="rgb(255,255,255)" fill-opacity="0.0078125"/>
  <rect x="9" y="3" width="1" height="2" fill="rgb(255,255,255)" fill-opacity="0.015625"/>
  <rect x="9" y="5" width="1" height="1" fill="rgb(26,26,26)"/>
  <rect x="9" y="6" width="1" height="7" fill="rgb(255,255,255)"/>
  <rect x="9" y="13" width="1" height="1" fill="rgb(26,26,26)"/>
  <rect x="9" y="14" width="1" height="5" fill="rgb(255,255,255)" fill-opacity="0.015625"/>
  <rect x="9" y="19" width="1" height="2" fill="rgb(255,255,255)" fill-opacity="0.0078125"/>
  <rect x="10" y="0" width="1" height="3" fill="rgb(255,255,255)" fill-opacity="0.0078125"/>
  <rect x="10" y="3" width="1" height="3" fill="rgb(255,255,255)" fill-opacity="0.015625"/>
  <rect x="10" y="6" width="1" height="1" fill="rgb(26,26,26)"/>
  <rect x="10" y="7" width="1" height="1" fill="rgb(208,208,208)"/>
  <rect x="10" y="8" width="1" height="1" fill="rgb(215,215,215)"/>
  <rect x="10" y="9" width="1" height="1" fill="rgb(222,222,222)"/>
  <rect x="10" y="10" width="1" height="1" fill="rgb(229,229,229)"/>
  <rect x="10" y="11" width="1" height="1" fill="rgb(236,236,236)"/>
  <rect x="10" y="12" width="1" height="1" fill="rgb(80,80,80)"/>
  <rect x="10" y="13" width="1" height="1" fill="rgb(28,28,28)" fill-opacity="0.5078125"/>
  <rect x="10" y="14" width="1" height="5" fill="rgb(255,255,255)" fill-opacity="0.015625"/>
  <rect x="10" y="19" width="1" height="2" fill="rgb(255,255,255)" fill-opacity="0.0078125"/>
  <rect x="11" y="0" width="1" height="3" fill="rgb(255,255,255)" fill-opacity="0.0078125"/>
  <rect x="11" y="3" width="1" height="4" fill="rgb(255,255,255)" fill-opacity="0.015625"/>
  <rect x="11" y="7" width="1" height="1" fill="rgb(26,26,26)"/>
  <rect x="11" y="8" width="1" height="1" fill="rgb(224,224,224)"/>
  <rect x="11" y="9" width="1" height="1" fill="rgb(231,231,231)"/>
  <rect x="11" y="10" width="1" height="1" fill="rgb(238,238,238)"/>
  <rect x="11" y="11" width="1" height="1" fill="rgb(245,245,245)"/>
  <rect x="11" y="12" width="1" height="1" fill="rgb(253,253,253)"/>
  <rect x="11" y="13" width="1" height="2" fill="rgb(26,26,26)"/>
  <rect x="11" y="15" width="1" height="4" fill="rgb(255,255,255)" fill-opacity="0.015625"/>
  <rect x="11" y="19" width="1" height="2" fill="rgb(255,255,255)" fill-opacity="0.0078125"/>
  <rect x="12" y="0" width="1" height="3" fill="rgb(255,255,255)" fill-opacity="0.0078125"/>
  <rect x="12" y="3" width="1" height="5" fill="rgb(255,255,255)" fill-opacity="0.015625"/>
  <rect x="12" y="8" width="1" height="1" fill="rgb(26,26,26)"/>
  <rect x="12" y="9" width="1" height="1" fill="rgb(240,240,240)"/>
  <rect x="12" y="10" width="1" height="1" fill="rgb(247,247,247)"/>
  <rect x="12" y="11" width="1" height="2" fill="rgb(45,45,45)" fill-opacity="0.8203125"/>
  <rect x="12" y="13" width="1" height="2" fill="rgb(255,255,255)"/>
  <rect x="12" y="15" width="1" height="2" fill="rgb(26,26,26)"/>
  <rect x="12" y="17" width="1" height="2" fill="rgb(255,255,255)" fill-opacity="0.015625"/>
  <rect x="12" y="19" width="1" height="2" fill="rgb(255,255,255)" fill-opacity="0.0078125"/>
  <rect x="13" y="0" width="1" height="3" fill="rgb(255,255,255)" fill-opacity="0.0078125"/>
  <rect x="13" y="3" width="1" height="6" fill="rgb(255,255,255)" fill-opacity="0.015625"/>
  <rect x="13" y="9" width="1" height="1" fill="rgb(26,26,26)"/>
  <rect x="13" y="10" width="1" height="1" fill="rgb(255,255,255)"/>
  <rect x="13" y="11" width="1" height="1" fill="rgb(28,28,28)" fill-opacity="0.7578125"/>
  <rect x="13" y="12" width="1" height="1" fill="rgb(255,255,255)" fill-opacity="0.015625"/>
  <rect x="13" y="13" width="1" height="2" fill="rgb(26,26,26)"/>
  <rect x="13" y="15" width="1" height="2" fill="rgb(255,255,255)"/>
  <rect x="13" y="17" width="1" height="1" fill="rgb(26,26,26)"/>
  <rect x="13" y="18" width="1" height="1" fill="rgb(255,255,255)" fill-opacity="0.015625"/>
  <rect x="13" y="19" width="1" height="2" fill="rgb(255,255,255)" fill-opacity="0.0078125"/>
  <rect x="14" y="0" width="1" height="3" fill="rgb(255,255,255)" fill-opacity="0.0078125"/>
  <rect x="14" y="3" width="1" height="7" fill="rgb(255,255,255)" fill-opacity="0.015625"/>
  <rect x="14" y="10" width="1" height="1" fill="rgb(26,26,26)"/>
  <rect x="14" y="11" width="1" height="1" fill="rgb(28,28,28)" fill-opacity="0.7578125"/>
  <rect x="14" y="12" width="1" height="3" fill="rgb(255,255,255)" fill-opacity="0.015625"/>
  <rect x="14" y="15" width="1" height="2" fill="rgb(26,26,26)"/>
  <rect x="14" y="17" width="1" height="1" fill="rgb(28,28,28)" fill-opacity="0.5078125"/>
  <rect x="14" y="18" width="1" height="1" fill="rgb(255,255,255)" fill-opacity="0.015625"/>
  <rect x="14" y="19" width="1" height="2" fill="rgb(255,255,255)" fill-opacity="0.0078125"/>
  <rect x="15" y="0" width="1" height="3" fill="rgb(255,255,255)" fill-opacity="0.0078125"/>
  <rect x="15" y="3" width="1" height="8" fill="rgb(255,255,255)" fill-opacity="0.015625"/>
  <rect x="15" y="11" width="1" height="1" fill="rgb(28,28,28)" fill-opacity="0.7578125"/>
  <rect x="15" y="12" width="1" height="7" fill="rgb(255,255,255)" fill-opacity="0.015625"/>
  <rect x="15" y="19" width="1" height="2" fill="rgb(255,255,255)" fill-opacity="0.0078125"/>
  <rect x="16" y="0" width="1" height="3" fill="rgb(255,255,255)" fill-opacity="0.0078125"/>
  <rect x="16" y="3" width="1" height="16" fill="rgb(255,255,255)" fill-opacity="0.015625"/>
  <rect x="16" y="19" width="1" height="2" fill="rgb(255,255,255)" fill-opacity="0.0078125"/>
  <rect x="17" y="0" width="1" height="3" fill="rgb(255,255,255)" fill-opacity="0.0078125"/>
  <rect x="17" y="3" width="1" height="16" fill="rgb(255,255,255)" fill-opacity="0.015625"/>
  <rect x="17" y="19" width="1" height="2" fill="rgb(255,255,255)" fill-opacity="0.0078125"/>
  <rect x="18" y="0" width="1" height="3" fill="rgb(255,255,255)" fill-opacity="0.0078125"/>
  <rect x="18" y="3" width="1" height="16" fill="rgb(255,255,255)" fill-opacity="0.015625"/>
  <rect x="18" y="19" width="1" height="2" fill="rgb(255,255,255)" fill-opacity="0.0078125"/>
  <rect x="19" y="0" width="1" height="21" fill="rgb(255,255,255)" fill-opacity="0.0078125"/>
  <rect x="20" y="0" width="1" height="21" fill="rgb(255,255,255)" fill-opacity="0.0078125"/>
</svg>