<svg xmlns="http://www.w3.org/2000/svg" shape-rendering="crispEdges" width="21" height="21" viewBox="0 0 21 21">
  <rect x="0" y="0" width="1" height="21" fill="rgb(255,255,255)" fill-opacity="0.0078125"/>
  <rect x="1" y="0" width="1" height="21" fill="rgb(255,255,255)" fill-opacity="0.0078125"/>
  <rect x="2" y="0" width="1" height="4" fill="rgb(255,255,255)" fill-opacity="0.0078125"/>
  <rect x="2" y="4" width="1" height="2" fill="rgb(149,74,0)" fill-opacity="0.1015625"/>
  <rect x="2" y="6" width="1" height="15" fill="rgb(255,255,255)" fill-opacity="0.0078125"/>
  <rect x="3" y="0" width="1" height="3" fill="rgb(255,255,255)" fill-opacity="0.0078125"/>
  <rect x="3" y="3" width="1" height="1" fill="rgb(149,77,0)" fill-opacity="0.53125"/>
  <rect x="3" y="4" width="1" height="2" fill="rgb(150,78,0)" fill-opacity="0.9921875"/>
  <rect x="3" y="6" width="1" height="1" fill="rgb(149,77,0)" fill-opacity="0.53125"/>
  <rect x="3" y="7" width="1" height="14" fill="rgb(255,255,255)" fill-opacity="0.0078125"/>
  <rect x="4" y="0" width="1" height="2" fill="rgb(255,255,255)" fill-opacity="0.0078125"/>
  <rect x="4" y="2" width="1" height="1" fill="rgb(146,82,0)" fill-opacity="0.1171875"/>
  <rect x="4" y="3" width="1" height="1" fill="rgb(150,78,0)" fill-opacity="0.9921875"/>
  <rect x="4" y="4" width="1" height="2" fill="rgb(255,212,165)"/>
  <rect x="4" y="6" width="1" height="1" fill="rgb(149,77,0)"/>
  <rect x="4" y="7" width="1" height="1" fill="rgb(114,67,7)" fill-opacity="0.15625"/>
  <rect x="4" y="8" width="1" height="13" fill="rgb(255,255,255)" fill-opacity="0.0078125"/>
  <rect x="5" y="0" width="1" height="2" fill="rgb(255,255,255)" fill-opacity="0.0078125"/>
  <rect x="5" y="2" width="1" height="1" fill="rgb(146,82,0)" fill-opacity="0.1171875"/>
  <rect x="5" y="3" width="1" height="1" fill="rgb(150,78,0)" fill-opacity="0.9921875"/>
  <rect x="5" y="4" width="1" height="2" fill="rgb(255,212,165)"/>
  <rect x="5" y="6" width="1" height="1" fill="rgb(150,79,2)"/>
  <rect x="5" y="7" width="1" height="1" fill="rgb(61,53,43)" fill-opacity="0.8515625"/>
  <rect x="5" y="8" width="1" height="1" fill="rgb(27,27,27)" fill-opacity="0.1171875"/>
  <rect x="5" y="9" width="1" height="12" fill="rgb(255,255,255)" fill-opacity="0.0078125"/>
  <rect x="6" y="0" width="1" height="3" fill="rgb(255,255,255)" fill-opacity="0.0078125"/>
  <rect x="6" y="3" width="1" height="1" fill="rgb(149,77,0)" fill-opacity="0.53125"/>
  <rect x="6" y="4" width="1" height="1" fill="rgb(149,78,0)" fill-opacity="0.9921875"/>
  <rect x="6" y="5" width="1" height="1" fill="rgb(150,79,2)"/>
  <rect x="6" y="6" width="1" height="1" fill="rgb(199,161,120)"/>
  <rect x="6" y="7" width="1" height="1" fill="rgb(227,227,227)"/>
  <rect x="6" y="8" width="1" height="1" fill="rgb(72,72,72)" fill-opacity="0.921875"/>
  <rect x="6" y="9" width="1" height="1" fill="rgb(27,27,27)" fill-opacity="0.1953125"/>
  <rect x="6" y="10" width="1" height="3" fill="rgb(255,255,255)" fill-opacity="0.0078125"/>
  <rect x="6" y="13" width="1" height="1" fill="rgb(32,32,32)" fill-opacity="0.0390625"/>
  <rect x="6" y="14" width="1" height="3" fill="rgb(32,32,32)" fill-opacity="0.0703125"/>
  <rect x="6" y="17" width="1" height="1" fill="rgb(51,51,51)" fill-opacity="0.0234375"/>
  <rect x="6" y="18" width="1" height="3" fill="rgb(255,255,255)" fill-opacity="0.0078125"/>
  <rect x="7" y="0" width="1" height="4" fill="rgb(255,255,255)" fill-opacity="0.0078125"/>
  <rect x="7" y="4" width="1" height="1" fill="rgb(143,71,0)" fill-opacity="0.1015625"/>
  <rect x="7" y="5" width="1" height="1" fill="rgb(47,35,23)" fill-opacity="0.5703125"/>
  <rect x="7" y="6" width="1" height="1" fill="rgb(119,119,119)"/>
  <rect x="7" y="7" width="1" height="1" fill="rgb(251,251,251)"/>
  <rect x="7" y="8" width="1" height="1" fill="rgb(245,245,245)"/>
  <rect x="7" y="9" width="1" height="1" fill="rgb(72,72,72)" fill-opacity="0.8359375"/>
  <rect x="7" y="10" width="1" height="2" fill="rgb(255,255,255)" fill-opacity="0.0078125"/>
  <rect x="7" y="12" width="1" height="1" fill="rgb(28,28,28)" fill-opacity="0.5078125"/>
  <rect x="7" y="13" width="1" height="1" fill="rgb(84,84,84)" fill-opacity="0.96875"/>
  <rect x="7" y="14" width="1" height="1" fill="rgb(96,96,96)"/>
  <rect x="7" y="15" width="1" height="1" fill="rgb(94,94,94)"/>
  <rect x="7" y="16" width="1" height="1" fill="rgb(93,93,93)"/>
  <rect x="7" y="17" width="1" height="1" fill="rgb(68,68,68)" fill-opacity="0.921875"/>
  <rect x="7" y="18" width="1" height="1" fill="rgb(25,25,25)" fill-opacity="0.28125"/>
  <rect x="7" y="19" width="1" height="2" fill="rgb(255,255,255)" fill-opacity="0.0078125"/>
  <rect x="8" y="0" width="1" height="6" fill="rgb(255,255,255)" fill-opacity="0.0078125"/>
  <rect x="8" y="6" width="1" height="1" fill="rgb(26,26,26)" fill-opacity="0.3984375"/>
  <rect x="8" y="7" width="1" height="1" fill="rgb(113,113,113)"/>
  <rect x="8" y="8" width="1" height="1" fill="rgb(253,253,253)"/>
  <rect x="8" y="9" width="1" height="1" fill="rgb(117,117,117)"/>
  <rect x="8" y="10" width="1" height="1" fill="rgb(32,32,32)" fill-opacity="0.0390625"/>
  <rect x="8" y="11" width="1" height="1" fill="rgb(26,26,26)" fill-opacity="0.4296875"/>
  <rect x="8" y="12" width="1" height="1" fill="rgb(136,136,136)"/>
  <rect x="8" y="13" width="1" height="1" fill="rgb(231,231,231)"/>
  <rect x="8" y="14" width="1" height="1" fill="rgb(225,225,225)"/>
  <rect x="8" y="15" width="1" height="1" fill="rgb(221,221,221)"/>
  <rect x="8" y="16" width="1" height="1" fill="rgb(216,216,216)"/>
  <rect x="8" y="17" width="1" height="1" fill="rgb(207,207,207)"/>
  <rect x="8" y="18" width="1" height="1" fill="rgb(29,29,29)" fill-opacity="0.6640625"/>
  <rect x="8" y="19" width="1" height="2" fill="rgb(255,255,255)" fill-opacity="0.0078125"/>
  <rect x="9" y="0" width="1" height="4" fill="rgb(255,255,255)" fill-opacity="0.0078125"/>
  <rect x="9" y="4" width="1" height="1" fill="rgb(27,27,27)" fill-opacity="0.265625"/>
  <rect x="9" y="5" width="1" height="1" fill="rgb(25,25,25)" fill-opacity="0.75"/>
  <rect x="9" y="6" width="1" height="1" fill="rgb(26,26,26)" fill-opacity="0.7734375"/>
  <rect x="9" y="7" width="1" height="1" fill="rgb(91,91,91)"/>
  <rect x="9" y="8" width="1" height="1" fill="rgb(250,250,250)"/>
  <rect x="9" y="9" width="1" height="1" fill="rgb(116,116,116)"/>
  <rect x="9" y="10" width="1" height="1" fill="rgb(28,28,28)" fill-opacity="0.296875"/>
  <rect x="9" y="11" width="1" height="1" fill="rgb(95,95,95)" fill-opacity="0.984375"/>
  <rect x="9" y="12" width="1" height="1" fill="rgb(232,232,232)"/>
  <rect x="9" y="13" width="1" height="1" fill="rgb(189,189,189)"/>
  <rect x="9" y="14" width="1" height="1" fill="rgb(93,93,93)"/>
  <rect x="9" y="15" width="1" height="1" fill="rgb(92,92,92)"/>
  <rect x="9" y="16" width="1" height="1" fill="rgb(91,91,91)"/>
  <rect x="9" y="17" width="1" height="1" fill="rgb(67,67,67)" fill-opacity="0.9765625"/>
  <rect x="9" y="18" width="1" height="1" fill="rgb(27,27,27)" fill-opacity="0.2578125"/>
  <rect x="9" y="19" width="1" height="2" fill="rgb(255,255,255)" fill-opacity="0.0078125"/>
  <rect x="10" y="0" width="1" height="4" fill="rgb(255,255,255)" fill-opacity="0.0078125"/>
  <rect x="10" y="4" width="1" height="1" fill="rgb(26,26,26)" fill-opacity="0.7265625"/>
  <rect x="10" y="5" width="1" height="1" fill="rgb(238,238,238)"/>
  <rect x="10" y="6" width="1" height="1" fill="rgb(244,244,244)"/>
  <rect x="10" y="7" width="1" height="1" fill="rgb(90,90,90)"/>
  <rect x="10" y="8" width="1" height="1" fill="rgb(246,246,246)"/>
  <rect x="10" y="9" width="1" height="1" fill="rgb(158,158,158)"/>
  <rect x="10" y="10" width="1" height="1" fill="rgb(106,106,106)"/>
  <rect x="10" y="11" width="1" height="1" fill="rgb(223,223,223)"/>
  <rect x="10" y="12" width="1" height="1" fill="rgb(214,214,214)"/>
  <rect x="10" y="13" width="1" height="1" fill="rgb(53,53,53)" fill-opacity="0.8984375"/>
  <rect x="10" y="14" width="1" height="1" fill="rgb(25,25,25)" fill-opacity="0.125"/>
  <rect x="10" y="15" width="1" height="2" fill="rgb(32,32,32)" fill-opacity="0.0703125"/>
  <rect x="10" y="17" width="1" height="1" fill="rgb(51,51,51)" fill-opacity="0.0234375"/>
  <rect x="10" y="18" width="1" height="3" fill="rgb(255,255,255)" fill-opacity="0.0078125"/>
  <rect x="11" y="0" width="1" height="4" fill="rgb(255,255,255)" fill-opacity="0.0078125"/>
  <rect x="11" y="4" width="1" height="1" fill="rgb(26,26,26)" fill-opacity="0.7265625"/>
  <rect x="11" y="5" width="1" height="1" fill="rgb(238,238,238)"/>
  <rect x="11" y="6" width="1" height="1" fill="rgb(244,244,244)"/>
  <rect x="11" y="7" width="1" height="1" fill="rgb(88,88,88)"/>
  <rect x="11" y="8" width="1" height="1" fill="rgb(242,242,242)"/>
  <rect x="11" y="9" width="1" height="1" fill="rgb(238,238,238)"/>
  <rect x="11" y="10" width="1" height="1" fill="rgb(233,233,233)"/>
  <rect x="11" y="11" width="1" height="1" fill="rgb(229,229,229)"/>
  <rect x="11" y="12" width="1" height="1" fill="rgb(153,153,153)"/>
  <rect x="11" y="13" width="1" height="1" fill="rgb(26,26,26)" fill-opacity="0.578125"/>
  <rect x="11" y="14" width="1" height="7" fill="rgb(255,255,255)" fill-opacity="0.0078125"/>
  <rect x="12" y="0" width="1" height="4" fill="rgb(255,255,255)" fill-opacity="0.0078125"/>
  <rect x="12" y="4" width="1" height="1" fill="rgb(27,27,27)" fill-opacity="0.265625"/>
  <rect x="12" y="5" width="1" height="1" fill="rgb(25,25,25)" fill-opacity="0.75"/>
  <rect x="12" y="6" width="1" height="1" fill="rgb(26,26,26)" fill-opacity="0.765625"/>
  <rect x="12" y="7" width="1" height="1" fill="rgb(87,87,87)"/>
  <rect x="12" y="8" width="1" height="1" fill="rgb(239,239,239)"/>
  <rect x="12" y="9" width="1" height="1" fill="rgb(154,154,154)"/>
  <rect x="12" y="10" width="1" height="1" fill="rgb(96,96,96)"/>
  <rect x="12" y="11" width="1" height="1" fill="rgb(185,185,185)"/>
  <rect x="12" y="12" width="1" height="1" fill="rgb(220,220,220)"/>
  <rect x="12" y="13" width="1" height="1" fill="rgb(73,73,73)" fill-opacity="0.984375"/>
  <rect x="12" y="14" width="1" height="1" fill="rgb(24,24,24)" fill-opacity="0.171875"/>
  <rect x="12" y="15" width="1" height="6" fill="rgb(255,255,255)" fill-opacity="0.0078125"/>
  <rect x="13" y="0" width="1" height="6" fill="rgb(255,255,255)" fill-opacity="0.0078125"/>
  <rect x="13" y="6" width="1" height="1" fill="rgb(28,28,28)" fill-opacity="0.109375"/>
  <rect x="13" y="7" width="1" height="1" fill="rgb(86,86,86)"/>
  <rect x="13" y="8" width="1" height="1" fill="rgb(235,235,235)"/>
  <rect x="13" y="9" width="1" height="1" fill="rgb(110,110,110)"/>
  <rect x="13" y="10" width="1" height="1" fill="rgb(27,27,27)" fill-opacity="0.15625"/>
  <rect x="13" y="11" width="1" height="1" fill="rgb(63,63,63)" fill-opacity="0.875"/>
  <rect x="13" y="12" width="1" height="1" fill="rgb(212,212,212)"/>
  <rect x="13" y="13" width="1" height="1" fill="rgb(187,187,187)"/>
  <rect x="13" y="14" width="1" height="1" fill="rgb(35,35,35)" fill-opacity="0.7421875"/>
  <rect x="13" y="15" width="1" height="6" fill="rgb(255,255,255)" fill-opacity="0.0078125"/>
  <rect x="14" y="0" width="1" height="4" fill="rgb(255,255,255)" fill-opacity="0.0078125"/>
  <rect x="14" y="4" width="1" height="1" fill="rgb(149,74,0)" fill-opacity="0.1015625"/>
  <rect x="14" y="5" width="1" height="1" fill="rgb(54,36,18)" fill-opacity="0.390625"/>
  <rect x="14" y="6" width="1" height="1" fill="rgb(68,68,68)" fill-opacity="0.9375"/>
  <rect x="14" y="7" width="1" height="1" fill="rgb(196,196,196)"/>
  <rect x="14" y="8" width="1" height="1" fill="rgb(232,232,232)"/>
  <rect x="14" y="9" width="1" height="1" fill="rgb(96,96,96)" fill-opacity="0.9765625"/>
  <rect x="14" y="10" width="1" height="1" fill="rgb(21,21,21)" fill-opacity="0.0546875"/>
  <rect x="14" y="11" width="1" height="1" fill="rgb(25,25,25)" fill-opacity="0.4453125"/>
  <rect x="14" y="12" width="1" height="1" fill="rgb(145,145,145)"/>
  <rect x="14" y="13" width="1" height="1" fill="rgb(209,209,209)"/>
  <rect x="14" y="14" width="1" height="1" fill="rgb(78,78,78)" fill-opacity="0.90625"/>
  <rect x="14" y="15" width="1" height="6" fill="rgb(255,255,255)" fill-opacity="0.0078125"/>
  <rect x="15" y="0" width="1" height="3" fill="rgb(255,255,255)" fill-opacity="0.0078125"/>
  <rect x="15" y="3" width="1" height="1" fill="rgb(149,77,0)" fill-opacity="0.53125"/>
  <rect x="15" y="4" width="1" height="1" fill="rgb(149,77,0)"/>
  <rect x="15" y="5" width="1" height="1" fill="rgb(150,79,2)"/>
  <rect x="15" y="6" width="1" height="1" fill="rgb(189,151,110)"/>
  <rect x="15" y="7" width="1" height="1" fill="rgb(232,232,232)"/>
  <rect x="15" y="8" width="1" height="1" fill="rgb(142,142,142)"/>
  <rect x="15" y="9" width="1" height="1" fill="rgb(34,34,34)" fill-opacity="0.5390625"/>
  <rect x="15" y="10" width="1" height="1" fill="rgb(21,21,21)" fill-opacity="0.0546875"/>
  <rect x="15" y="11" width="1" height="1" fill="rgb(54,54,54)" fill-opacity="0.8984375"/>
  <rect x="15" y="12" width="1" height="1" fill="rgb(204,204,204)"/>
  <rect x="15" y="13" width="1" height="1" fill="rgb(186,186,186)"/>
  <rect x="15" y="14" width="1" height="1" fill="rgb(37,37,37)" fill-opacity="0.75"/>
  <rect x="15" y="15" width="1" height="6" fill="rgb(255,255,255)" fill-opacity="0.0078125"/>
  <rect x="16" y="0" width="1" height="2" fill="rgb(255,255,255)" fill-opacity="0.0078125"/>
  <rect x="16" y="2" width="1" height="1" fill="rgb(146,82,0)" fill-opacity="0.1171875"/>
  <rect x="16" y="3" width="1" height="1" fill="rgb(150,78,0)" fill-opacity="0.9921875"/>
  <rect x="16" y="4" width="1" height="2" fill="rgb(255,212,165)"/>
  <rect x="16" y="6" width="1" height="1" fill="rgb(150,79,2)"/>
  <rect x="16" y="7" width="1" height="1" fill="rgb(87,79,70)" fill-opacity="0.9609375"/>
  <rect x="16" y="8" width="1" height="1" fill="rgb(26,26,26)" fill-opacity="0.390625"/>
  <rect x="16" y="9" width="1" height="1" fill="rgb(255,255,255)" fill-opacity="0.0078125"/>
  <rect x="16" y="10" width="1" height="1" fill="rgb(26,26,26)" fill-opacity="0.515625"/>
  <rect x="16" y="11" width="1" height="1" fill="rgb(160,160,160)"/>
  <rect x="16" y="12" width="1" height="1" fill="rgb(207,207,207)"/>
  <rect x="16" y="13" width="1" height="1" fill="rgb(81,81,81)" fill-opacity="0.984375"/>
  <rect x="16" y="14" width="1" height="1" fill="rgb(24,24,24)" fill-opacity="0.171875"/>
  <rect x="16" y="15" width="1" height="6" fill="rgb(255,255,255)" fill-opacity="0.0078125"/>
  <rect x="17" y="0" width="1" height="2" fill="rgb(255,255,255)" fill-opacity="0.0078125"/>
  <rect x="17" y="2" width="1" height="1" fill="rgb(146,82,0)" fill-opacity="0.1171875"/>
  <rect x="17" y="3" width="1" height="1" fill="rgb(150,78,0)" fill-opacity="0.9921875"/>
  <rect x="17" y="4" width="1" height="2" fill="rgb(255,212,165)"/>
  <rect x="17" y="6" width="1" height="1" fill="rgb(149,77,0)"/>
  <rect x="17" y="7" width="1" height="1" fill="rgb(91,58,14)" fill-opacity="0.2109375"/>
  <rect x="17" y="8" width="1" height="2" fill="rgb(255,255,255)" fill-opacity="0.0078125"/>
  <rect x="17" y="10" width="1" height="1" fill="rgb(26,26,26)" fill-opacity="0.609375"/>
  <rect x="17" y="11" width="1" height="1" fill="rgb(182,182,182)"/>
  <rect x="17" y="12" width="1" height="1" fill="rgb(137,137,137)"/>
  <rect x="17" y="13" width="1" height="1" fill="rgb(26,26,26)" fill-opacity="0.5078125"/>
  <rect x="17" y="14" width="1" height="7" fill="rgb(255,255,255)" fill-opacity="0.0078125"/>
  <rect x="18" y="0" width="1" height="3" fill="rgb(255,255,255)" fill-opacity="0.0078125"/>
  <rect x="18" y="3" width="1" height="1" fill="rgb(149,77,0)" fill-opacity="0.53125"/>
  <rect x="18" y="4" width="1" height="2" fill="rgb(150,78,0)" fill-opacity="0.9921875"/>
  <rect x="18" y="6" width="1" height="1" fill="rgb(149,77,0)" fill-opacity="0.53125"/>
  <rect x="18" y="7" width="1" height="3" fill="rgb(255,255,255)" fill-opacity="0.0078125"/>
  <rect x="18" y="10" width="1" height="1" fill="rgb(28,28,28)" fill-opacity="0.1484375"/>
  <rect x="18" y="11" width="1" height="1" fill="rgb(30,30,30)" fill-opacity="0.6328125"/>
  <rect x="18" y="12" width="1" height="1" fill="rgb(25,25,25)" fill-opacity="0.4765625"/>
  <rect x="18" y="13" width="1" height="1" fill="rgb(0,0,0)" fill-opacity="0.0234375"/>
  <rect x="18" y="14" width="1" height="7" fill="rgb(255,255,255)" fill-opacity="0.0078125"/>
  <rect x="19" y="0" width="1" height="4" fill="rgb(255,255,255)" fill-opacity="0.0078125"/>
  <rect x="19" y="4" width="1" height="2" fill="rgb(149,74,0)" fill-opacity="0.1015625"/>
  <rect x="19" y="6" width="1" height="15" fill="rgb(255,255,255)" fill-opacity="0.0078125"/>
  <rect x="20" y="0" width="1" height="21" fill="rgb(255,255,255)" fill-opacity="0.0078125"/>
</svg>