<svg xmlns="http://www.w3.org/2000/svg" shape-rendering="crispEdges" width="21" height="21" viewBox="0 0 21 21">
  <rect x="0" y="0" width="21" height="1" fill="rgb(255,255,255)" fill-opacity="0.0078125"/>
  <rect x="0" y="1" width="21" height="1" fill="rgb(255,255,255)" fill-opacity="0.0078125"/>
  <rect x="0" y="2" width="21" height="1" fill="rgb(255,255,255)" fill-opacity="0.0078125"/>
  <rect x="0" y="3" width="21" height="1" fill="rgb(255,255,255)" fill-opacity="0.0078125"/>
  <rect x="0" y="4" width="9" height="1" fill="rgb(255,255,255)" fill-opacity="0.0078125"/>
  <rect x="9" y="4" width="1" height="1" fill="rgb(53,52,47)" fill-opacity="0.984375"/>
  <rect x="10" y="4" width="6" height="1" fill="rgb(53,52,48)"/>
  <rect x="16" y="4" width="1" height="1" fill="rgb(53,52,47)" fill-opacity="0.984375"/>
  <rect x="17" y="4" width="4" height="1" fill="rgb(255,255,255)" fill-opacity="0.0078125"/>
  <rect x="0" y="5" width="3" height="1" fill="rgb(255,255,255)" fill-opacity="0.0078125"/>
  <rect x="3" y="5" width="1" height="1" fill="rgb(69,63,36)" fill-opacity="0.796875"/>
  <rect x="4" y="5" width="1" height="1" fill="rgb(73,64,37)" fill-opacity="0.9140625"/>
  <rect x="5" y="5" width="2" height="1" fill="rgb(71,64,37)" fill-opacity="0.9140625"/>
  <rect x="7" y="5" width="1" height="1" fill="rgb(69,62,35)" fill-opacity="0.796875"/>
  <rect x="8" y="5" width="1" height="1" fill="rgb(255,255,255)" fill-opacity="0.0078125"/>
  <rect x="9" y="5" width="1" height="1" fill="rgb(53,52,48)"/>
  <rect x="10" y="5" width="6" height="1" fill="rgb(255,255,255)"/>
  <rect x="16" y="5" width="1" height="1" fill="rgb(53,52,48)"/>
  <rect x="17" y="5" width="4" height="1" fill="rgb(255,255,255)" fill-opacity="0.0078125"/>
  <rect x="0" y="6" width="3" height="1" fill="rgb(255,255,255)" fill-opacity="0.0078125"/>
  <rect x="3" y="6" width="1" height="1" fill="rgb(71,64,37)" fill-opacity="0.9140625"/>
  <rect x="4" y="6" width="3" height="1" fill="rgb(255,255,255)"/>
  <rect x="7" y="6" width="1" height="1" fill="rgb(87,78,49)" fill-opacity="0.9375"/>
  <rect x="8" y="6" width="1" height="1" fill="rgb(70,63,36)" fill-opacity="0.9140625"/>
  <rect x="9" y="6" width="1" height="1" fill="rgb(57,54,43)" fill-opacity="0.9921875"/>
  <rect x="10" y="6" width="1" height="1" fill="rgb(255,255,255)"/>
  <rect x="11" y="6" width="2" height="1" fill="rgb(122,122,122)"/>
  <rect x="13" y="6" width="2" height="1" fill="rgb(121,121,121)"/>
  <rect x="15" y="6" width="1" height="1" fill="rgb(250,250,250)"/>
  <rect x="16" y="6" width="1" height="1" fill="rgb(53,52,48)"/>
  <rect x="17" y="6" width="4" height="1" fill="rgb(255,255,255)" fill-opacity="0.0078125"/>
  <rect x="0" y="7" width="3" height="1" fill="rgb(255,255,255)" fill-opacity="0.0078125"/>
  <rect x="3" y="7" width="1" height="1" fill="rgb(70,63,36)" fill-opacity="0.9140625"/>
  <rect x="4" y="7" width="3" height="1" fill="rgb(255,255,255)"/>
  <rect x="7" y="7" width="1" height="1" fill="rgb(219,214,192)"/>
  <rect x="8" y="7" width="1" height="1" fill="rgb(205,198,168)"/>
  <rect x="9" y="7" width="1" height="1" fill="rgb(80,79,75)"/>
  <rect x="10" y="7" width="1" height="1" fill="rgb(250,250,250)"/>
  <rect x="11" y="7" width="1" height="1" fill="rgb(237,237,237)"/>
  <rect x="12" y="7" width="1" height="1" fill="rgb(235,235,235)"/>
  <rect x="13" y="7" width="1" height="1" fill="rgb(233,233,233)"/>
  <rect x="14" y="7" width="1" height="1" fill="rgb(231,231,231)"/>
  <rect x="15" y="7" width="1" height="1" fill="rgb(233,233,233)"/>
  <rect x="16" y="7" width="1" height="1" fill="rgb(53,52,48)"/>
  <rect x="17" y="7" width="4" height="1" fill="rgb(255,255,255)" fill-opacity="0.0078125"/>
  <rect x="0" y="8" width="3" height="1" fill="rgb(255,255,255)" fill-opacity="0.0078125"/>
  <rect x="3" y="8" width="1" height="1" fill="rgb(69,62,35)" fill-opacity="0.9140625"/>
  <rect x="4" y="8" width="1" height="1" fill="rgb(215,210,188)"/>
  <rect x="5" y="8" width="1" height="1" fill="rgb(176,165,122)"/>
  <rect x="6" y="8" width="1" height="1" fill="rgb(174,163,120)"/>
  <rect x="7" y="8" width="1" height="1" fill="rgb(171,161,118)"/>
  <rect x="8" y="8" width="1" height="1" fill="rgb(169,158,116)"/>
  <rect x="9" y="8" width="1" height="1" fill="rgb(77,76,72)"/>
  <rect x="10" y="8" width="1" height="1" fill="rgb(241,241,241)"/>
  <rect x="11" y="8" width="1" height="1" fill="rgb(109,109,109)"/>
  <rect x="12" y="8" width="1" height="1" fill="rgb(108,108,108)"/>
  <rect x="13" y="8" width="2" height="1" fill="rgb(107,107,107)"/>
  <rect x="15" y="8" width="1" height="1" fill="rgb(212,212,212)"/>
  <rect x="16" y="8" width="1" height="1" fill="rgb(53,51,48)"/>
  <rect x="17" y="8" width="4" height="1" fill="rgb(255,255,255)" fill-opacity="0.0078125"/>
  <rect x="0" y="9" width="3" height="1" fill="rgb(255,255,255)" fill-opacity="0.0078125"/>
  <rect x="3" y="9" width="1" height="1" fill="rgb(68,60,34)" fill-opacity="0.9140625"/>
  <rect x="4" y="9" width="1" height="1" fill="rgb(210,204,183)"/>
  <rect x="5" y="9" width="1" height="1" fill="rgb(164,154,112)"/>
  <rect x="6" y="9" width="1" height="1" fill="rgb(162,152,110)"/>
  <rect x="7" y="9" width="1" height="1" fill="rgb(160,150,108)"/>
  <rect x="8" y="9" width="1" height="1" fill="rgb(158,147,106)"/>
  <rect x="9" y="9" width="1" height="1" fill="rgb(74,73,69)"/>
  <rect x="10" y="9" width="1" height="1" fill="rgb(229,229,229)"/>
  <rect x="11" y="9" width="1" height="1" fill="rgb(197,197,197)"/>
  <rect x="12" y="9" width="1" height="1" fill="rgb(195,195,195)"/>
  <rect x="13" y="9" width="1" height="1" fill="rgb(193,193,193)"/>
  <rect x="14" y="9" width="1" height="1" fill="rgb(191,191,191)"/>
  <rect x="15" y="9" width="1" height="1" fill="rgb(189,189,189)"/>
  <rect x="16" y="9" width="1" height="1" fill="rgb(53,51,48)"/>
  <rect x="17" y="9" width="4" height="1" fill="rgb(255,255,255)" fill-opacity="0.0078125"/>
  <rect x="0" y="10" width="3" height="1" fill="rgb(255,255,255)" fill-opacity="0.0078125"/>
  <rect x="3" y="10" width="1" height="1" fill="rgb(67,59,33)" fill-opacity="0.9140625"/>
  <rect x="4" y="10" width="1" height="1" fill="rgb(204,198,177)"/>
  <rect x="5" y="10" width="1" height="1" fill="rgb(153,143,102)"/>
  <rect x="6" y="10" width="1" height="1" fill="rgb(146,136,96)"/>
  <rect x="7" y="10" width="1" height="1" fill="rgb(142,131,94)"/>
  <rect x="8" y="10" width="1" height="1" fill="rgb(138,127,90)"/>
  <rect x="9" y="10" width="1" height="1" fill="rgb(126,118,83)"/>
  <rect x="10" y="10" width="1" height="1" fill="rgb(135,127,93)"/>
  <rect x="11" y="10" width="1" height="1" fill="rgb(128,120,87)"/>
  <rect x="12" y="10" width="1" height="1" fill="rgb(124,116,84)"/>
  <rect x="13" y="10" width="1" height="1" fill="rgb(120,112,80)"/>
  <rect x="14" y="10" width="1" height="1" fill="rgb(115,107,76)"/>
  <rect x="15" y="10" width="1" height="1" fill="rgb(111,103,72)"/>
  <rect x="16" y="10" width="1" height="1" fill="rgb(61,57,40)"/>
  <rect x="17" y="10" width="1" height="1" fill="rgb(63,56,29)" fill-opacity="0.984375"/>
  <rect x="18" y="10" width="1" height="1" fill="rgb(63,57,31)" fill-opacity="0.9453125"/>
  <rect x="19" y="10" width="2" height="1" fill="rgb(255,255,255)" fill-opacity="0.0078125"/>
  <rect x="0" y="11" width="3" height="1" fill="rgb(255,255,255)" fill-opacity="0.0078125"/>
  <rect x="3" y="11" width="1" height="1" fill="rgb(66,58,33)" fill-opacity="0.9140625"/>
  <rect x="4" y="11" width="1" height="1" fill="rgb(198,193,173)"/>
  <rect x="5" y="11" width="1" height="1" fill="rgb(141,132,93)"/>
  <rect x="6" y="11" width="1" height="1" fill="rgb(134,125,86)"/>
  <rect x="7" y="11" width="10" height="1" fill="rgb(246,243,234)"/>
  <rect x="17" y="11" width="1" height="1" fill="rgb(240,236,220)"/>
  <rect x="18" y="11" width="1" height="1" fill="rgb(60,53,27)" fill-opacity="0.984375"/>
  <rect x="19" y="11" width="2" height="1" fill="rgb(255,255,255)" fill-opacity="0.0078125"/>
  <rect x="0" y="12" width="3" height="1" fill="rgb(255,255,255)" fill-opacity="0.0078125"/>
  <rect x="3" y="12" width="1" height="1" fill="rgb(65,57,32)" fill-opacity="0.9140625"/>
  <rect x="4" y="12" width="1" height="1" fill="rgb(192,187,168)"/>
  <rect x="5" y="12" width="1" height="1" fill="rgb(130,120,83)"/>
  <rect x="6" y="12" width="1" height="1" fill="rgb(120,112,75)"/>
  <rect x="7" y="12" width="1" height="1" fill="rgb(246,243,234)"/>
  <rect x="8" y="12" width="10" height="1" fill="rgb(209,197,149)"/>
  <rect x="18" y="12" width="1" height="1" fill="rgb(60,52,26)" fill-opacity="0.984375"/>
  <rect x="19" y="12" width="2" height="1" fill="rgb(255,255,255)" fill-opacity="0.0078125"/>
  <rect x="0" y="13" width="3" height="1" fill="rgb(255,255,255)" fill-opacity="0.0078125"/>
  <rect x="3" y="13" width="1" height="1" fill="rgb(64,56,31)" fill-opacity="0.9140625"/>
  <rect x="4" y="13" width="1" height="1" fill="rgb(186,181,163)"/>
  <rect x="5" y="13" width="1" height="1" fill="rgb(118,109,73)"/>
  <rect x="6" y="13" width="1" height="1" fill="rgb(108,100,66)"/>
  <rect x="7" y="13" width="1" height="1" fill="rgb(246,243,234)"/>
  <rect x="8" y="13" width="10" height="1" fill="rgb(209,197,149)"/>
  <rect x="18" y="13" width="1" height="1" fill="rgb(60,52,26)" fill-opacity="0.984375"/>
  <rect x="19" y="13" width="2" height="1" fill="rgb(255,255,255)" fill-opacity="0.0078125"/>
  <rect x="0" y="14" width="3" height="1" fill="rgb(255,255,255)" fill-opacity="0.0078125"/>
  <rect x="3" y="14" width="1" height="1" fill="rgb(63,55,30)" fill-opacity="0.9140625"/>
  <rect x="4" y="14" width="1" height="1" fill="rgb(180,175,158)"/>
  <rect x="5" y="14" width="1" height="1" fill="rgb(107,98,64)"/>
  <rect x="6" y="14" width="1" height="1" fill="rgb(95,88,56)"/>
  <rect x="7" y="14" width="1" height="1" fill="rgb(246,243,234)"/>
  <rect x="8" y="14" width="10" height="1" fill="rgb(209,197,149)"/>
  <rect x="18" y="14" width="1" height="1" fill="rgb(60,52,26)" fill-opacity="0.984375"/>
  <rect x="19" y="14" width="2" height="1" fill="rgb(255,255,255)" fill-opacity="0.0078125"/>
  <rect x="0" y="15" width="3" height="1" fill="rgb(255,255,255)" fill-opacity="0.0078125"/>
  <rect x="3" y="15" width="1" height="1" fill="rgb(60,53,28)" fill-opacity="0.9140625"/>
  <rect x="4" y="15" width="1" height="1" fill="rgb(184,180,166)"/>
  <rect x="5" y="15" width="1" height="1" fill="rgb(134,128,106)"/>
  <rect x="6" y="15" width="1" height="1" fill="rgb(128,122,94)"/>
  <rect x="7" y="15" width="1" height="1" fill="rgb(244,241,230)"/>
  <rect x="8" y="15" width="10" height="1" fill="rgb(209,197,149)"/>
  <rect x="18" y="15" width="1" height="1" fill="rgb(59,52,26)" fill-opacity="0.984375"/>
  <rect x="19" y="15" width="2" height="1" fill="rgb(255,255,255)" fill-opacity="0.0078125"/>
  <rect x="0" y="16" width="3" height="1" fill="rgb(255,255,255)" fill-opacity="0.0078125"/>
  <rect x="3" y="16" width="1" height="1" fill="rgb(58,53,27)" fill-opacity="0.6015625"/>
  <rect x="4" y="16" width="1" height="1" fill="rgb(80,74,49)" fill-opacity="0.9765625"/>
  <rect x="5" y="16" width="1" height="1" fill="rgb(232,230,222)"/>
  <rect x="6" y="16" width="1" height="1" fill="rgb(239,236,223)"/>
  <rect x="7" y="16" width="1" height="1" fill="rgb(186,178,146)"/>
  <rect x="8" y="16" width="8" height="1" fill="rgb(170,160,121)"/>
  <rect x="16" y="16" width="1" height="1" fill="rgb(176,166,126)"/>
  <rect x="17" y="16" width="1" height="1" fill="rgb(84,76,46)" fill-opacity="0.9765625"/>
  <rect x="18" y="16" width="1" height="1" fill="rgb(63,56,29)" fill-opacity="0.8203125"/>
  <rect x="19" y="16" width="2" height="1" fill="rgb(255,255,255)" fill-opacity="0.0078125"/>
  <rect x="0" y="17" width="4" height="1" fill="rgb(255,255,255)" fill-opacity="0.0078125"/>
  <rect x="4" y="17" width="1" height="1" fill="rgb(57,52,25)" fill-opacity="0.71875"/>
  <rect x="5" y="17" width="1" height="1" fill="rgb(65,58,33)"/>
  <rect x="6" y="17" width="1" height="1" fill="rgb(67,59,35)" fill-opacity="0.9921875"/>
  <rect x="7" y="17" width="7" height="1" fill="rgb(59,52,27)" fill-opacity="0.9921875"/>
  <rect x="14" y="17" width="1" height="1" fill="rgb(60,53,27)" fill-opacity="0.9921875"/>
  <rect x="15" y="17" width="1" height="1" fill="rgb(60,52,26)" fill-opacity="0.984375"/>
  <rect x="16" y="17" width="1" height="1" fill="rgb(59,52,26)" fill-opacity="0.984375"/>
  <rect x="17" y="17" width="1" height="1" fill="rgb(63,56,29)" fill-opacity="0.8203125"/>
  <rect x="18" y="17" width="3" height="1" fill="rgb(255,255,255)" fill-opacity="0.0078125"/>
  <rect x="0" y="18" width="21" height="1" fill="rgb(255,255,255)" fill-opacity="0.0078125"/>
  <rect x="0" y="19" width="21" height="1" fill="rgb(255,255,255)" fill-opacity="0.0078125"/>
  <rect x="0" y="20" width="21" height="1" fill="rgb(255,255,255)" fill-opacity="0.0078125"/>
</svg>