<svg xmlns="http://www.w3.org/2000/svg" shape-rendering="crispEdges" width="21" height="21" viewBox="0 0 21 21">
  <rect x="0" y="0" width="21" height="1" fill="rgb(255,255,255)" fill-opacity="0.0078125"/>
  <rect x="0" y="1" width="21" height="1" fill="rgb(255,255,255)" fill-opacity="0.0078125"/>
  <rect x="0" y="2" width="21" height="1" fill="rgb(255,255,255)" fill-opacity="0.0078125"/>
  <rect x="0" y="3" width="3" height="1" fill="rgb(255,255,255)" fill-opacity="0.0078125"/>
  <rect x="3" y="3" width="1" height="1" fill="rgb(5,56,132)" fill-opacity="0.9140625"/>
  <rect x="4" y="3" width="2" height="1" fill="rgb(0,51,128)"/>
  <rect x="6" y="3" width="1" height="1" fill="rgb(5,56,132)" fill-opacity="0.9140625"/>
  <rect x="7" y="3" width="8" height="1" fill="rgb(255,0,0)" fill-opacity="0.015625"/>
  <rect x="15" y="3" width="1" height="1" fill="rgb(5,56,132)" fill-opacity="0.9140625"/>
  <rect x="16" y="3" width="2" height="1" fill="rgb(0,51,128)"/>
  <rect x="18" y="3" width="1" height="1" fill="rgb(5,56,132)" fill-opacity="0.9140625"/>
  <rect x="19" y="3" width="2" height="1" fill="rgb(255,255,255)" fill-opacity="0.0078125"/>
  <rect x="0" y="4" width="3" height="1" fill="rgb(255,255,255)" fill-opacity="0.0078125"/>
  <rect x="3" y="4" width="1" height="1" fill="rgb(0,51,128)"/>
  <rect x="4" y="4" width="1" height="1" fill="rgb(221,235,255)"/>
  <rect x="5" y="4" width="1" height="1" fill="rgb(213,230,255)"/>
  <rect x="6" y="4" width="1" height="1" fill="rgb(8,58,134)"/>
  <rect x="7" y="4" width="2" height="1" fill="rgb(47,91,161)" fill-opacity="0.6640625"/>
  <rect x="9" y="4" width="1" height="1" fill="rgb(40,68,112)" fill-opacity="0.7578125"/>
  <rect x="10" y="4" width="2" height="1" fill="rgb(27,29,33)" fill-opacity="0.9765625"/>
  <rect x="12" y="4" width="1" height="1" fill="rgb(39,66,110)" fill-opacity="0.7578125"/>
  <rect x="13" y="4" width="2" height="1" fill="rgb(47,91,161)" fill-opacity="0.6640625"/>
  <rect x="15" y="4" width="1" height="1" fill="rgb(9,59,135)"/>
  <rect x="16" y="4" width="1" height="1" fill="rgb(221,235,255)"/>
  <rect x="17" y="4" width="1" height="1" fill="rgb(213,230,255)"/>
  <rect x="18" y="4" width="1" height="1" fill="rgb(0,51,128)"/>
  <rect x="19" y="4" width="2" height="1" fill="rgb(255,255,255)" fill-opacity="0.0078125"/>
  <rect x="0" y="5" width="3" height="1" fill="rgb(255,255,255)" fill-opacity="0.0078125"/>
  <rect x="3" y="5" width="1" height="1" fill="rgb(0,51,128)"/>
  <rect x="4" y="5" width="1" height="1" fill="rgb(213,230,255)"/>
  <rect x="5" y="5" width="1" height="1" fill="rgb(170,204,255)"/>
  <rect x="6" y="5" width="1" height="1" fill="rgb(77,120,185)"/>
  <rect x="7" y="5" width="2" height="1" fill="rgb(170,203,254)" fill-opacity="0.7109375"/>
  <rect x="9" y="5" width="1" height="1" fill="rgb(33,35,38)" fill-opacity="0.9765625"/>
  <rect x="10" y="5" width="1" height="1" fill="rgb(251,251,251)"/>
  <rect x="11" y="5" width="1" height="1" fill="rgb(244,244,244)"/>
  <rect x="12" y="5" width="1" height="1" fill="rgb(28,29,31)" fill-opacity="0.9921875"/>
  <rect x="13" y="5" width="1" height="1" fill="rgb(170,201,252)" fill-opacity="0.7109375"/>
  <rect x="14" y="5" width="1" height="1" fill="rgb(170,203,254)" fill-opacity="0.7109375"/>
  <rect x="15" y="5" width="1" height="1" fill="rgb(77,120,185)"/>
  <rect x="16" y="5" width="1" height="1" fill="rgb(213,230,255)"/>
  <rect x="17" y="5" width="1" height="1" fill="rgb(170,204,255)"/>
  <rect x="18" y="5" width="1" height="1" fill="rgb(0,51,128)"/>
  <rect x="19" y="5" width="2" height="1" fill="rgb(255,255,255)" fill-opacity="0.0078125"/>
  <rect x="0" y="6" width="3" height="1" fill="rgb(255,255,255)" fill-opacity="0.0078125"/>
  <rect x="3" y="6" width="1" height="1" fill="rgb(5,56,132)" fill-opacity="0.9140625"/>
  <rect x="4" y="6" width="2" height="1" fill="rgb(0,51,128)"/>
  <rect x="6" y="6" width="1" height="1" fill="rgb(14,63,138)" fill-opacity="0.9296875"/>
  <rect x="7" y="6" width="2" height="1" fill="rgb(47,91,161)" fill-opacity="0.6640625"/>
  <rect x="9" y="6" width="1" height="1" fill="rgb(26,28,31)" fill-opacity="0.9765625"/>
  <rect x="10" y="6" width="1" height="1" fill="rgb(244,244,244)"/>
  <rect x="11" y="6" width="1" height="1" fill="rgb(236,236,236)"/>
  <rect x="12" y="6" width="1" height="1" fill="rgb(134,134,134)"/>
  <rect x="13" y="6" width="1" height="1" fill="rgb(15,29,51)" fill-opacity="0.859375"/>
  <rect x="14" y="6" width="1" height="1" fill="rgb(47,91,161)" fill-opacity="0.6640625"/>
  <rect x="15" y="6" width="1" height="1" fill="rgb(13,63,137)" fill-opacity="0.9296875"/>
  <rect x="16" y="6" width="2" height="1" fill="rgb(0,51,128)"/>
  <rect x="18" y="6" width="1" height="1" fill="rgb(5,56,132)" fill-opacity="0.9140625"/>
  <rect x="19" y="6" width="2" height="1" fill="rgb(255,255,255)" fill-opacity="0.0078125"/>
  <rect x="0" y="7" width="3" height="1" fill="rgb(255,255,255)" fill-opacity="0.0078125"/>
  <rect x="3" y="7" width="6" height="1" fill="rgb(255,0,0)" fill-opacity="0.015625"/>
  <rect x="9" y="7" width="1" height="1" fill="rgb(31,24,24)" fill-opacity="0.296875"/>
  <rect x="10" y="7" width="1" height="1" fill="rgb(25,25,25)" fill-opacity="0.96875"/>
  <rect x="11" y="7" width="1" height="1" fill="rgb(172,172,172)"/>
  <rect x="12" y="7" width="1" height="1" fill="rgb(228,228,228)"/>
  <rect x="13" y="7" width="1" height="1" fill="rgb(160,160,160)"/>
  <rect x="14" y="7" width="1" height="1" fill="rgb(2,0,0)" fill-opacity="0.5234375"/>
  <rect x="15" y="7" width="4" height="1" fill="rgb(255,0,0)" fill-opacity="0.015625"/>
  <rect x="19" y="7" width="2" height="1" fill="rgb(255,255,255)" fill-opacity="0.0078125"/>
  <rect x="0" y="8" width="3" height="1" fill="rgb(255,255,255)" fill-opacity="0.0078125"/>
  <rect x="3" y="8" width="7" height="1" fill="rgb(255,0,0)" fill-opacity="0.015625"/>
  <rect x="10" y="8" width="1" height="1" fill="rgb(70,0,0)" fill-opacity="0.046875"/>
  <rect x="11" y="8" width="1" height="1" fill="rgb(8,7,7)" fill-opacity="0.7578125"/>
  <rect x="12" y="8" width="1" height="1" fill="rgb(215,215,215)"/>
  <rect x="13" y="8" width="1" height="1" fill="rgb(252,252,252)"/>
  <rect x="14" y="8" width="1" height="1" fill="rgb(136,136,136)"/>
  <rect x="15" y="8" width="1" height="1" fill="rgb(4,0,0)" fill-opacity="0.4609375"/>
  <rect x="16" y="8" width="3" height="1" fill="rgb(255,0,0)" fill-opacity="0.015625"/>
  <rect x="19" y="8" width="2" height="1" fill="rgb(255,255,255)" fill-opacity="0.0078125"/>
  <rect x="0" y="9" width="3" height="1" fill="rgb(255,255,255)" fill-opacity="0.0078125"/>
  <rect x="3" y="9" width="8" height="1" fill="rgb(255,0,0)" fill-opacity="0.015625"/>
  <rect x="11" y="9" width="1" height="1" fill="rgb(51,0,0)" fill-opacity="0.0625"/>
  <rect x="12" y="9" width="1" height="1" fill="rgb(15,14,14)" fill-opacity="0.8046875"/>
  <rect x="13" y="9" width="1" height="1" fill="rgb(216,216,216)"/>
  <rect x="14" y="9" width="1" height="1" fill="rgb(247,247,247)"/>
  <rect x="15" y="9" width="1" height="1" fill="rgb(88,88,88)" fill-opacity="0.9921875"/>
  <rect x="16" y="9" width="1" height="1" fill="rgb(10,0,0)" fill-opacity="0.2109375"/>
  <rect x="17" y="9" width="2" height="1" fill="rgb(255,0,0)" fill-opacity="0.015625"/>
  <rect x="19" y="9" width="2" height="1" fill="rgb(255,255,255)" fill-opacity="0.0078125"/>
  <rect x="0" y="10" width="3" height="1" fill="rgb(255,255,255)" fill-opacity="0.0078125"/>
  <rect x="3" y="10" width="9" height="1" fill="rgb(255,0,0)" fill-opacity="0.015625"/>
  <rect x="12" y="10" width="1" height="1" fill="rgb(36,0,0)" fill-opacity="0.0859375"/>
  <rect x="13" y="10" width="1" height="1" fill="rgb(19,19,19)" fill-opacity="0.8671875"/>
  <rect x="14" y="10" width="1" height="1" fill="rgb(231,231,231)"/>
  <rect x="15" y="10" width="1" height="1" fill="rgb(227,227,227)"/>
  <rect x="16" y="10" width="1" height="1" fill="rgb(15,14,14)" fill-opacity="0.8125"/>
  <rect x="17" y="10" width="1" height="1" fill="rgb(128,0,0)" fill-opacity="0.03125"/>
  <rect x="18" y="10" width="1" height="1" fill="rgb(255,0,0)" fill-opacity="0.015625"/>
  <rect x="19" y="10" width="2" height="1" fill="rgb(255,255,255)" fill-opacity="0.0078125"/>
  <rect x="0" y="11" width="3" height="1" fill="rgb(255,255,255)" fill-opacity="0.0078125"/>
  <rect x="3" y="11" width="10" height="1" fill="rgb(255,0,0)" fill-opacity="0.015625"/>
  <rect x="13" y="11" width="1" height="1" fill="rgb(8,0,0)" fill-opacity="0.25"/>
  <rect x="14" y="11" width="1" height="1" fill="rgb(97,97,97)"/>
  <rect x="15" y="11" width="1" height="1" fill="rgb(240,240,240)"/>
  <rect x="16" y="11" width="1" height="1" fill="rgb(154,154,154)"/>
  <rect x="17" y="11" width="1" height="1" fill="rgb(5,0,0)" fill-opacity="0.3828125"/>
  <rect x="18" y="11" width="1" height="1" fill="rgb(255,0,0)" fill-opacity="0.015625"/>
  <rect x="19" y="11" width="2" height="1" fill="rgb(255,255,255)" fill-opacity="0.0078125"/>
  <rect x="0" y="12" width="3" height="1" fill="rgb(255,255,255)" fill-opacity="0.0078125"/>
  <rect x="3" y="12" width="11" height="1" fill="rgb(255,0,0)" fill-opacity="0.015625"/>
  <rect x="14" y="12" width="1" height="1" fill="rgb(2,0,0)" fill-opacity="0.6171875"/>
  <rect x="15" y="12" width="1" height="1" fill="rgb(201,201,201)"/>
  <rect x="16" y="12" width="1" height="1" fill="rgb(214,214,214)"/>
  <rect x="17" y="12" width="1" height="1" fill="rgb(2,0,0)" fill-opacity="0.671875"/>
  <rect x="18" y="12" width="1" height="1" fill="rgb(255,0,0)" fill-opacity="0.015625"/>
  <rect x="19" y="12" width="2" height="1" fill="rgb(255,255,255)" fill-opacity="0.0078125"/>
  <rect x="0" y="13" width="3" height="1" fill="rgb(255,255,255)" fill-opacity="0.0078125"/>
  <rect x="3" y="13" width="11" height="1" fill="rgb(255,0,0)" fill-opacity="0.015625"/>
  <rect x="14" y="13" width="1" height="1" fill="rgb(7,0,0)" fill-opacity="0.2890625"/>
  <rect x="15" y="13" width="1" height="1" fill="rgb(140,140,140)"/>
  <rect x="16" y="13" width="1" height="1" fill="rgb(233,233,233)"/>
  <rect x="17" y="13" width="1" height="1" fill="rgb(29,29,29)" fill-opacity="0.921875"/>
  <rect x="18" y="13" width="1" height="1" fill="rgb(255,0,0)" fill-opacity="0.015625"/>
  <rect x="19" y="13" width="2" height="1" fill="rgb(255,255,255)" fill-opacity="0.0078125"/>
  <rect x="0" y="14" width="3" height="1" fill="rgb(255,255,255)" fill-opacity="0.0078125"/>
  <rect x="3" y="14" width="3" height="1" fill="rgb(255,0,0)" fill-opacity="0.015625"/>
  <rect x="6" y="14" width="1" height="1" fill="rgb(32,25,25)" fill-opacity="0.28125"/>
  <rect x="7" y="14" width="1" height="1" fill="rgb(23,23,23)" fill-opacity="0.8984375"/>
  <rect x="8" y="14" width="1" height="1" fill="rgb(21,21,21)" fill-opacity="0.90625"/>
  <rect x="9" y="14" width="1" height="1" fill="rgb(32,25,25)" fill-opacity="0.28125"/>
  <rect x="10" y="14" width="4" height="1" fill="rgb(255,0,0)" fill-opacity="0.015625"/>
  <rect x="14" y="14" width="1" height="1" fill="rgb(23,0,0)" fill-opacity="0.1328125"/>
  <rect x="15" y="14" width="1" height="1" fill="rgb(100,100,100)"/>
  <rect x="16" y="14" width="1" height="1" fill="rgb(229,229,229)"/>
  <rect x="17" y="14" width="1" height="1" fill="rgb(65,65,65)" fill-opacity="0.9921875"/>
  <rect x="18" y="14" width="1" height="1" fill="rgb(128,0,0)" fill-opacity="0.03125"/>
  <rect x="19" y="14" width="2" height="1" fill="rgb(255,255,255)" fill-opacity="0.0078125"/>
  <rect x="0" y="15" width="3" height="1" fill="rgb(255,255,255)" fill-opacity="0.0078125"/>
  <rect x="3" y="15" width="3" height="1" fill="rgb(255,0,0)" fill-opacity="0.015625"/>
  <rect x="6" y="15" width="1" height="1" fill="rgb(26,26,26)" fill-opacity="0.9140625"/>
  <rect x="7" y="15" width="1" height="1" fill="rgb(250,250,250)"/>
  <rect x="8" y="15" width="1" height="1" fill="rgb(247,247,247)"/>
  <rect x="9" y="15" width="1" height="1" fill="rgb(19,19,19)" fill-opacity="0.984375"/>
  <rect x="10" y="15" width="1" height="1" fill="rgb(2,0,0)" fill-opacity="0.515625"/>
  <rect x="11" y="15" width="1" height="1" fill="rgb(9,0,0)" fill-opacity="0.2421875"/>
  <rect x="12" y="15" width="1" height="1" fill="rgb(23,0,0)" fill-opacity="0.140625"/>
  <rect x="13" y="15" width="1" height="1" fill="rgb(23,0,0)" fill-opacity="0.1328125"/>
  <rect x="14" y="15" width="1" height="1" fill="rgb(2,0,0)" fill-opacity="0.6171875"/>
  <rect x="15" y="15" width="1" height="1" fill="rgb(146,146,146)"/>
  <rect x="16" y="15" width="1" height="1" fill="rgb(226,226,226)"/>
  <rect x="17" y="15" width="1" height="1" fill="rgb(24,24,24)" fill-opacity="0.8828125"/>
  <rect x="18" y="15" width="1" height="1" fill="rgb(255,0,0)" fill-opacity="0.015625"/>
  <rect x="19" y="15" width="2" height="1" fill="rgb(255,255,255)" fill-opacity="0.0078125"/>
  <rect x="0" y="16" width="3" height="1" fill="rgb(255,255,255)" fill-opacity="0.0078125"/>
  <rect x="3" y="16" width="3" height="1" fill="rgb(255,0,0)" fill-opacity="0.015625"/>
  <rect x="6" y="16" width="1" height="1" fill="rgb(23,23,23)" fill-opacity="0.9375"/>
  <rect x="7" y="16" width="1" height="1" fill="rgb(247,247,247)"/>
  <rect x="8" y="16" width="1" height="1" fill="rgb(230,230,230)"/>
  <rect x="9" y="16" width="1" height="1" fill="rgb(205,205,205)"/>
  <rect x="10" y="16" width="1" height="1" fill="rgb(168,168,168)"/>
  <rect x="11" y="16" width="1" height="1" fill="rgb(119,119,119)"/>
  <rect x="12" y="16" width="1" height="1" fill="rgb(92,92,92)"/>
  <rect x="13" y="16" width="1" height="1" fill="rgb(87,87,87)"/>
  <rect x="14" y="16" width="1" height="1" fill="rgb(171,171,171)"/>
  <rect x="15" y="16" width="1" height="1" fill="rgb(222,222,222)"/>
  <rect x="16" y="16" width="1" height="1" fill="rgb(160,160,160)"/>
  <rect x="17" y="16" width="1" height="1" fill="rgb(2,0,0)" fill-opacity="0.578125"/>
  <rect x="18" y="16" width="1" height="1" fill="rgb(255,0,0)" fill-opacity="0.015625"/>
  <rect x="19" y="16" width="2" height="1" fill="rgb(255,255,255)" fill-opacity="0.0078125"/>
  <rect x="0" y="17" width="3" height="1" fill="rgb(255,255,255)" fill-opacity="0.0078125"/>
  <rect x="3" y="17" width="3" height="1" fill="rgb(255,0,0)" fill-opacity="0.015625"/>
  <rect x="6" y="17" width="1" height="1" fill="rgb(27,21,21)" fill-opacity="0.3359375"/>
  <rect x="7" y="17" width="1" height="1" fill="rgb(9,9,9)" fill-opacity="0.96875"/>
  <rect x="8" y="17" width="1" height="1" fill="rgb(77,77,77)"/>
  <rect x="9" y="17" width="1" height="1" fill="rgb(146,146,146)"/>
  <rect x="10" y="17" width="1" height="1" fill="rgb(222,222,222)"/>
  <rect x="11" y="17" width="1" height="1" fill="rgb(227,227,227)"/>
  <rect x="12" y="17" width="1" height="1" fill="rgb(225,225,225)"/>
  <rect x="13" y="17" width="1" height="1" fill="rgb(224,224,224)"/>
  <rect x="14" y="17" width="1" height="1" fill="rgb(210,210,210)"/>
  <rect x="15" y="17" width="1" height="1" fill="rgb(135,135,135)"/>
  <rect x="16" y="17" width="1" height="1" fill="rgb(17,17,17)" fill-opacity="0.8515625"/>
  <rect x="17" y="17" width="1" height="1" fill="rgb(36,0,0)" fill-opacity="0.0859375"/>
  <rect x="18" y="17" width="1" height="1" fill="rgb(255,0,0)" fill-opacity="0.015625"/>
  <rect x="19" y="17" width="2" height="1" fill="rgb(255,255,255)" fill-opacity="0.0078125"/>
  <rect x="0" y="18" width="3" height="1" fill="rgb(255,255,255)" fill-opacity="0.0078125"/>
  <rect x="3" y="18" width="5" height="1" fill="rgb(255,0,0)" fill-opacity="0.015625"/>
  <rect x="8" y="18" width="1" height="1" fill="rgb(28,0,0)" fill-opacity="0.109375"/>
  <rect x="9" y="18" width="1" height="1" fill="rgb(4,0,0)" fill-opacity="0.453125"/>
  <rect x="10" y="18" width="1" height="1" fill="rgb(5,4,4)" fill-opacity="0.78125"/>
  <rect x="11" y="18" width="1" height="1" fill="rgb(31,31,31)" fill-opacity="0.921875"/>
  <rect x="12" y="18" width="1" height="1" fill="rgb(52,52,52)" fill-opacity="0.9921875"/>
  <rect x="13" y="18" width="1" height="1" fill="rgb(66,66,66)"/>
  <rect x="14" y="18" width="1" height="1" fill="rgb(9,9,9)" fill-opacity="0.8671875"/>
  <rect x="15" y="18" width="1" height="1" fill="rgb(5,0,0)" fill-opacity="0.4375"/>
  <rect x="16" y="18" width="1" height="1" fill="rgb(55,0,0)" fill-opacity="0.0625"/>
  <rect x="17" y="18" width="2" height="1" fill="rgb(255,0,0)" fill-opacity="0.015625"/>
  <rect x="19" y="18" width="2" height="1" fill="rgb(255,255,255)" fill-opacity="0.0078125"/>
  <rect x="0" y="19" width="12" height="1" fill="rgb(255,255,255)" fill-opacity="0.0078125"/>
  <rect x="12" y="19" width="1" height="1" fill="rgb(0,0,0)" fill-opacity="0.015625"/>
  <rect x="13" y="19" width="1" height="1" fill="rgb(0,0,0)" fill-opacity="0.0625"/>
  <rect x="14" y="19" width="7" height="1" fill="rgb(255,255,255)" fill-opacity="0.0078125"/>
  <rect x="0" y="20" width="21" height="1" fill="rgb(255,255,255)" fill-opacity="0.0078125"/>
</svg>