<svg xmlns="http://www.w3.org/2000/svg" shape-rendering="crispEdges" width="21" height="21" viewBox="0 0 21 21">
  <rect x="0" y="0" width="1" height="21" fill="rgb(255,255,255)" fill-opacity="0.0078125"/>
  <rect x="1" y="0" width="1" height="21" fill="rgb(255,255,255)" fill-opacity="0.0078125"/>
  <rect x="2" y="0" width="1" height="21" fill="rgb(255,255,255)" fill-opacity="0.0078125"/>
  <rect x="3" y="0" width="1" height="21" fill="rgb(255,255,255)" fill-opacity="0.0078125"/>
  <rect x="4" y="0" width="1" height="21" fill="rgb(255,255,255)" fill-opacity="0.0078125"/>
  <rect x="5" y="0" width="1" height="21" fill="rgb(255,255,255)" fill-opacity="0.0078125"/>
  <rect x="6" y="0" width="1" height="21" fill="rgb(255,255,255)" fill-opacity="0.0078125"/>
  <rect x="7" y="0" width="1" height="21" fill="rgb(255,255,255)" fill-opacity="0.0078125"/>
  <rect x="8" y="0" width="1" height="21" fill="rgb(255,255,255)" fill-opacity="0.0078125"/>
  <rect x="9" y="0" width="1" height="6" fill="rgb(255,255,255)" fill-opacity="0.0078125"/>
  <rect x="9" y="6" width="1" height="1" fill="rgb(32,32,32)" fill-opacity="0.7265625"/>
  <rect x="9" y="7" width="1" height="9" fill="rgb(26,26,26)"/>
  <rect x="9" y="16" width="1" height="1" fill="rgb(39,39,39)" fill-opacity="0.7265625"/>
  <rect x="9" y="17" width="1" height="4" fill="rgb(255,255,255)" fill-opacity="0.0078125"/>
  <rect x="10" y="0" width="1" height="6" fill="rgb(255,255,255)" fill-opacity="0.0078125"/>
  <rect x="10" y="6" width="1" height="1" fill="rgb(27,27,27)" fill-opacity="0.265625"/>
  <rect x="10" y="7" width="1" height="1" fill="rgb(31,31,31)" fill-opacity="0.9609375"/>
  <rect x="10" y="8" width="1" height="1" fill="rgb(170,170,170)"/>
  <rect x="10" y="9" width="1" height="5" fill="rgb(255,255,255)"/>
  <rect x="10" y="14" width="1" height="1" fill="rgb(210,210,210)"/>
  <rect x="10" y="15" width="1" height="1" fill="rgb(36,36,36)" fill-opacity="0.9609375"/>
  <rect x="10" y="16" width="1" height="1" fill="rgb(27,27,27)" fill-opacity="0.265625"/>
  <rect x="10" y="17" width="1" height="4" fill="rgb(255,255,255)" fill-opacity="0.0078125"/>
  <rect x="11" y="0" width="1" height="7" fill="rgb(255,255,255)" fill-opacity="0.0078125"/>
  <rect x="11" y="7" width="1" height="1" fill="rgb(27,27,27)" fill-opacity="0.265625"/>
  <rect x="11" y="8" width="1" height="1" fill="rgb(32,32,32)" fill-opacity="0.9609375"/>
  <rect x="11" y="9" width="1" height="1" fill="rgb(145,145,145)"/>
  <rect x="11" y="10" width="1" height="1" fill="rgb(194,194,194)"/>
  <rect x="11" y="11" width="1" height="1" fill="rgb(207,207,207)"/>
  <rect x="11" y="12" width="1" height="1" fill="rgb(220,220,220)"/>
  <rect x="11" y="13" width="1" height="1" fill="rgb(184,184,184)"/>
  <rect x="11" y="14" width="1" height="1" fill="rgb(36,36,36)" fill-opacity="0.9609375"/>
  <rect x="11" y="15" width="1" height="1" fill="rgb(27,27,27)" fill-opacity="0.265625"/>
  <rect x="11" y="16" width="1" height="5" fill="rgb(255,255,255)" fill-opacity="0.0078125"/>
  <rect x="12" y="0" width="1" height="8" fill="rgb(255,255,255)" fill-opacity="0.0078125"/>
  <rect x="12" y="8" width="1" height="1" fill="rgb(27,27,27)" fill-opacity="0.265625"/>
  <rect x="12" y="9" width="1" height="1" fill="rgb(33,33,33)" fill-opacity="0.9609375"/>
  <rect x="12" y="10" width="1" height="1" fill="rgb(163,163,163)"/>
  <rect x="12" y="11" width="1" height="1" fill="rgb(218,218,218)"/>
  <rect x="12" y="12" width="1" height="1" fill="rgb(182,182,182)"/>
  <rect x="12" y="13" width="1" height="1" fill="rgb(36,36,36)" fill-opacity="0.9609375"/>
  <rect x="12" y="14" width="1" height="1" fill="rgb(27,27,27)" fill-opacity="0.265625"/>
  <rect x="12" y="15" width="1" height="6" fill="rgb(255,255,255)" fill-opacity="0.0078125"/>
  <rect x="13" y="0" width="1" height="9" fill="rgb(255,255,255)" fill-opacity="0.0078125"/>
  <rect x="13" y="9" width="1" height="1" fill="rgb(27,27,27)" fill-opacity="0.265625"/>
  <rect x="13" y="10" width="1" height="1" fill="rgb(34,34,34)" fill-opacity="0.9609375"/>
  <rect x="13" y="11" width="1" height="1" fill="rgb(139,139,139)"/>
  <rect x="13" y="12" width="1" height="1" fill="rgb(36,36,36)" fill-opacity="0.9609375"/>
  <rect x="13" y="13" width="1" height="1" fill="rgb(27,27,27)" fill-opacity="0.265625"/>
  <rect x="13" y="14" width="1" height="7" fill="rgb(255,255,255)" fill-opacity="0.0078125"/>
  <rect x="14" y="0" width="1" height="10" fill="rgb(255,255,255)" fill-opacity="0.0078125"/>
  <rect x="14" y="10" width="1" height="1" fill="rgb(27,27,27)" fill-opacity="0.265625"/>
  <rect x="14" y="11" width="1" height="1" fill="rgb(35,35,35)" fill-opacity="0.890625"/>
  <rect x="14" y="12" width="1" height="1" fill="rgb(27,27,27)" fill-opacity="0.265625"/>
  <rect x="14" y="13" width="1" height="8" fill="rgb(255,255,255)" fill-opacity="0.0078125"/>
  <rect x="15" y="0" width="1" height="21" fill="rgb(255,255,255)" fill-opacity="0.0078125"/>
  <rect x="16" y="0" width="1" height="21" fill="rgb(255,255,255)" fill-opacity="0.0078125"/>
  <rect x="17" y="0" width="1" height="21" fill="rgb(255,255,255)" fill-opacity="0.0078125"/>
  <rect x="18" y="0" width="1" height="21" fill="rgb(255,255,255)" fill-opacity="0.0078125"/>
  <rect x="19" y="0" width="1" height="21" fill="rgb(255,255,255)" fill-opacity="0.0078125"/>
  <rect x="20" y="0" width="1" height="21" fill="rgb(255,255,255)" fill-opacity="0.0078125"/>
</svg>