<svg xmlns="http://www.w3.org/2000/svg" shape-rendering="crispEdges" width="21" height="21" viewBox="0 0 21 21">
  <rect x="0" y="0" width="21" height="1" fill="rgb(255,255,255)" fill-opacity="0.0078125"/>
  <rect x="0" y="1" width="21" height="1" fill="rgb(255,255,255)" fill-opacity="0.0078125"/>
  <rect x="0" y="2" width="21" height="1" fill="rgb(255,255,255)" fill-opacity="0.0078125"/>
  <rect x="0" y="3" width="4" height="1" fill="rgb(255,255,255)" fill-opacity="0.0078125"/>
  <rect x="4" y="3" width="1" height="1" fill="rgb(35,35,29)" fill-opacity="0.1796875"/>
  <rect x="5" y="3" width="1" height="1" fill="rgb(37,32,27)" fill-opacity="0.4140625"/>
  <rect x="6" y="3" width="1" height="1" fill="rgb(36,31,29)" fill-opacity="0.421875"/>
  <rect x="7" y="3" width="1" height="1" fill="rgb(35,33,28)" fill-opacity="0.40625"/>
  <rect x="8" y="3" width="1" height="1" fill="rgb(36,18,18)" fill-opacity="0.0625"/>
  <rect x="9" y="3" width="4" height="1" fill="rgb(255,255,255)" fill-opacity="0.0078125"/>
  <rect x="13" y="3" width="1" height="1" fill="rgb(30,30,30)" fill-opacity="0.0703125"/>
  <rect x="14" y="3" width="1" height="1" fill="rgb(35,32,30)" fill-opacity="0.375"/>
  <rect x="15" y="3" width="1" height="1" fill="rgb(36,31,29)" fill-opacity="0.421875"/>
  <rect x="16" y="3" width="1" height="1" fill="rgb(37,32,27)" fill-opacity="0.4140625"/>
  <rect x="17" y="3" width="1" height="1" fill="rgb(35,35,29)" fill-opacity="0.1796875"/>
  <rect x="18" y="3" width="3" height="1" fill="rgb(255,255,255)" fill-opacity="0.0078125"/>
  <rect x="0" y="4" width="3" height="1" fill="rgb(255,255,255)" fill-opacity="0.0078125"/>
  <rect x="3" y="4" width="1" height="1" fill="rgb(35,35,29)" fill-opacity="0.1796875"/>
  <rect x="4" y="4" width="1" height="1" fill="rgb(120,116,112)" fill-opacity="0.703125"/>
  <rect x="5" y="4" width="1" height="1" fill="rgb(224,219,217)" fill-opacity="0.703125"/>
  <rect x="6" y="4" width="1" height="1" fill="rgb(227,222,219)" fill-opacity="0.703125"/>
  <rect x="7" y="4" width="1" height="1" fill="rgb(184,180,177)" fill-opacity="0.71875"/>
  <rect x="8" y="4" width="1" height="1" fill="rgb(35,34,34)" fill-opacity="0.6796875"/>
  <rect x="9" y="4" width="1" height="1" fill="rgb(42,42,42)" fill-opacity="0.7890625"/>
  <rect x="10" y="4" width="1" height="1" fill="rgb(54,33,33)" fill-opacity="0.9609375"/>
  <rect x="11" y="4" width="1" height="1" fill="rgb(53,33,33)" fill-opacity="0.953125"/>
  <rect x="12" y="4" width="1" height="1" fill="rgb(43,43,43)" fill-opacity="0.7734375"/>
  <rect x="13" y="4" width="1" height="1" fill="rgb(33,33,32)" fill-opacity="0.6640625"/>
  <rect x="14" y="4" width="1" height="1" fill="rgb(186,182,179)" fill-opacity="0.71875"/>
  <rect x="15" y="4" width="1" height="1" fill="rgb(227,222,219)" fill-opacity="0.703125"/>
  <rect x="16" y="4" width="1" height="1" fill="rgb(224,219,217)" fill-opacity="0.703125"/>
  <rect x="17" y="4" width="1" height="1" fill="rgb(120,116,112)" fill-opacity="0.703125"/>
  <rect x="18" y="4" width="1" height="1" fill="rgb(35,35,29)" fill-opacity="0.1796875"/>
  <rect x="19" y="4" width="2" height="1" fill="rgb(255,255,255)" fill-opacity="0.0078125"/>
  <rect x="0" y="5" width="3" height="1" fill="rgb(255,255,255)" fill-opacity="0.0078125"/>
  <rect x="3" y="5" width="1" height="1" fill="rgb(37,32,27)" fill-opacity="0.4140625"/>
  <rect x="4" y="5" width="1" height="1" fill="rgb(224,219,217)" fill-opacity="0.703125"/>
  <rect x="5" y="5" width="1" height="1" fill="rgb(56,53,50)" fill-opacity="0.609375"/>
  <rect x="6" y="5" width="1" height="1" fill="rgb(30,29,27)" fill-opacity="0.6015625"/>
  <rect x="7" y="5" width="1" height="1" fill="rgb(43,43,43)" fill-opacity="0.953125"/>
  <rect x="8" y="5" width="1" height="1" fill="rgb(204,204,204)" fill-opacity="0.9921875"/>
  <rect x="9" y="5" width="1" height="1" fill="rgb(244,244,244)"/>
  <rect x="10" y="5" width="1" height="1" fill="rgb(235,135,135)"/>
  <rect x="11" y="5" width="1" height="1" fill="rgb(231,113,113)"/>
  <rect x="12" y="5" width="1" height="1" fill="rgb(228,228,228)"/>
  <rect x="13" y="5" width="1" height="1" fill="rgb(164,164,164)" fill-opacity="0.984375"/>
  <rect x="14" y="5" width="1" height="1" fill="rgb(38,38,38)" fill-opacity="0.9453125"/>
  <rect x="15" y="5" width="1" height="1" fill="rgb(30,29,27)" fill-opacity="0.5625"/>
  <rect x="16" y="5" width="1" height="1" fill="rgb(56,53,50)" fill-opacity="0.609375"/>
  <rect x="17" y="5" width="1" height="1" fill="rgb(224,219,217)" fill-opacity="0.703125"/>
  <rect x="18" y="5" width="1" height="1" fill="rgb(37,32,27)" fill-opacity="0.4140625"/>
  <rect x="19" y="5" width="2" height="1" fill="rgb(255,255,255)" fill-opacity="0.0078125"/>
  <rect x="0" y="6" width="3" height="1" fill="rgb(255,255,255)" fill-opacity="0.0078125"/>
  <rect x="3" y="6" width="1" height="1" fill="rgb(36,31,29)" fill-opacity="0.421875"/>
  <rect x="4" y="6" width="1" height="1" fill="rgb(227,222,219)" fill-opacity="0.703125"/>
  <rect x="5" y="6" width="1" height="1" fill="rgb(33,29,29)" fill-opacity="0.5859375"/>
  <rect x="6" y="6" width="1" height="1" fill="rgb(100,98,98)" fill-opacity="0.96875"/>
  <rect x="7" y="6" width="1" height="1" fill="rgb(248,248,248)"/>
  <rect x="8" y="6" width="1" height="1" fill="rgb(255,255,255)"/>
  <rect x="9" y="6" width="1" height="1" fill="rgb(248,248,248)"/>
  <rect x="10" y="6" width="1" height="1" fill="rgb(223,68,68)"/>
  <rect x="11" y="6" width="1" height="1" fill="rgb(222,59,59)"/>
  <rect x="12" y="6" width="2" height="1" fill="rgb(239,239,239)"/>
  <rect x="14" y="6" width="1" height="1" fill="rgb(210,210,210)"/>
  <rect x="15" y="6" width="1" height="1" fill="rgb(57,54,54)" fill-opacity="0.953125"/>
  <rect x="16" y="6" width="1" height="1" fill="rgb(33,29,27)" fill-opacity="0.5546875"/>
  <rect x="17" y="6" width="1" height="1" fill="rgb(227,222,219)" fill-opacity="0.703125"/>
  <rect x="18" y="6" width="1" height="1" fill="rgb(36,31,29)" fill-opacity="0.421875"/>
  <rect x="19" y="6" width="2" height="1" fill="rgb(255,255,255)" fill-opacity="0.0078125"/>
  <rect x="0" y="7" width="3" height="1" fill="rgb(255,255,255)" fill-opacity="0.0078125"/>
  <rect x="3" y="7" width="1" height="1" fill="rgb(35,32,30)" fill-opacity="0.375"/>
  <rect x="4" y="7" width="1" height="1" fill="rgb(182,179,176)" fill-opacity="0.7265625"/>
  <rect x="5" y="7" width="1" height="1" fill="rgb(46,46,46)" fill-opacity="0.953125"/>
  <rect x="6" y="7" width="1" height="1" fill="rgb(248,248,248)"/>
  <rect x="7" y="7" width="1" height="1" fill="rgb(253,253,253)"/>
  <rect x="8" y="7" width="1" height="1" fill="rgb(223,223,223)"/>
  <rect x="9" y="7" width="1" height="1" fill="rgb(204,204,204)"/>
  <rect x="10" y="7" width="2" height="1" fill="rgb(212,0,0)"/>
  <rect x="12" y="7" width="1" height="1" fill="rgb(215,215,215)"/>
  <rect x="13" y="7" width="1" height="1" fill="rgb(226,226,226)"/>
  <rect x="14" y="7" width="1" height="1" fill="rgb(232,232,232)"/>
  <rect x="15" y="7" width="1" height="1" fill="rgb(192,192,192)"/>
  <rect x="16" y="7" width="1" height="1" fill="rgb(39,39,39)" fill-opacity="0.9375"/>
  <rect x="17" y="7" width="1" height="1" fill="rgb(188,184,181)" fill-opacity="0.71875"/>
  <rect x="18" y="7" width="1" height="1" fill="rgb(35,33,28)" fill-opacity="0.40625"/>
  <rect x="19" y="7" width="2" height="1" fill="rgb(255,255,255)" fill-opacity="0.0078125"/>
  <rect x="0" y="8" width="3" height="1" fill="rgb(255,255,255)" fill-opacity="0.0078125"/>
  <rect x="3" y="8" width="1" height="1" fill="rgb(30,30,30)" fill-opacity="0.0703125"/>
  <rect x="4" y="8" width="1" height="1" fill="rgb(35,34,34)" fill-opacity="0.6796875"/>
  <rect x="5" y="8" width="1" height="1" fill="rgb(207,207,207)" fill-opacity="0.9921875"/>
  <rect x="6" y="8" width="1" height="1" fill="rgb(255,255,255)"/>
  <rect x="7" y="8" width="1" height="1" fill="rgb(221,221,221)"/>
  <rect x="8" y="8" width="1" height="1" fill="rgb(198,198,198)"/>
  <rect x="9" y="8" width="1" height="1" fill="rgb(122,120,120)" fill-opacity="0.9921875"/>
  <rect x="10" y="8" width="1" height="1" fill="rgb(47,47,47)" fill-opacity="0.9453125"/>
  <rect x="11" y="8" width="1" height="1" fill="rgb(50,50,50)" fill-opacity="0.9453125"/>
  <rect x="12" y="8" width="1" height="1" fill="rgb(133,131,131)"/>
  <rect x="13" y="8" width="1" height="1" fill="rgb(220,220,220)"/>
  <rect x="14" y="8" width="1" height="1" fill="rgb(231,231,231)"/>
  <rect x="15" y="8" width="1" height="1" fill="rgb(230,230,230)"/>
  <rect x="16" y="8" width="1" height="1" fill="rgb(114,114,114)" fill-opacity="0.9765625"/>
  <rect x="17" y="8" width="1" height="1" fill="rgb(32,30,30)" fill-opacity="0.625"/>
  <rect x="18" y="8" width="1" height="1" fill="rgb(36,18,18)" fill-opacity="0.0625"/>
  <rect x="19" y="8" width="2" height="1" fill="rgb(255,255,255)" fill-opacity="0.0078125"/>
  <rect x="0" y="9" width="4" height="1" fill="rgb(255,255,255)" fill-opacity="0.0078125"/>
  <rect x="4" y="9" width="1" height="1" fill="rgb(42,42,42)" fill-opacity="0.7890625"/>
  <rect x="5" y="9" width="1" height="1" fill="rgb(244,244,244)"/>
  <rect x="6" y="9" width="1" height="1" fill="rgb(248,248,248)"/>
  <rect x="7" y="9" width="1" height="1" fill="rgb(205,205,205)"/>
  <rect x="8" y="9" width="1" height="1" fill="rgb(126,124,124)" fill-opacity="0.9921875"/>
  <rect x="9" y="9" width="1" height="1" fill="rgb(33,33,33)" fill-opacity="0.6953125"/>
  <rect x="10" y="9" width="1" height="1" fill="rgb(26,26,26)" fill-opacity="0.125"/>
  <rect x="11" y="9" width="1" height="1" fill="rgb(28,28,28)" fill-opacity="0.1484375"/>
  <rect x="12" y="9" width="1" height="1" fill="rgb(37,37,37)" fill-opacity="0.7421875"/>
  <rect x="13" y="9" width="1" height="1" fill="rgb(158,157,157)"/>
  <rect x="14" y="9" width="1" height="1" fill="rgb(241,241,241)"/>
  <rect x="15" y="9" width="1" height="1" fill="rgb(236,236,236)"/>
  <rect x="16" y="9" width="1" height="1" fill="rgb(183,183,183)"/>
  <rect x="17" y="9" width="1" height="1" fill="rgb(47,47,47)" fill-opacity="0.703125"/>
  <rect x="18" y="9" width="3" height="1" fill="rgb(255,255,255)" fill-opacity="0.0078125"/>
  <rect x="0" y="10" width="4" height="1" fill="rgb(255,255,255)" fill-opacity="0.0078125"/>
  <rect x="4" y="10" width="1" height="1" fill="rgb(50,36,36)" fill-opacity="0.953125"/>
  <rect x="5" y="10" width="1" height="1" fill="rgb(236,140,140)"/>
  <rect x="6" y="10" width="1" height="1" fill="rgb(224,71,71)"/>
  <rect x="7" y="10" width="1" height="1" fill="rgb(212,0,0)"/>
  <rect x="8" y="10" width="1" height="1" fill="rgb(49,49,49)" fill-opacity="0.9375"/>
  <rect x="9" y="10" width="1" height="1" fill="rgb(29,29,29)" fill-opacity="0.140625"/>
  <rect x="10" y="10" width="2" height="1" fill="rgb(255,255,255)" fill-opacity="0.0078125"/>
  <rect x="12" y="10" width="1" height="1" fill="rgb(23,23,23)" fill-opacity="0.1796875"/>
  <rect x="13" y="10" width="1" height="1" fill="rgb(71,71,71)" fill-opacity="0.9453125"/>
  <rect x="14" y="10" width="1" height="1" fill="rgb(227,89,89)"/>
  <rect x="15" y="10" width="1" height="1" fill="rgb(220,47,47)"/>
  <rect x="16" y="10" width="1" height="1" fill="rgb(212,0,0)"/>
  <rect x="17" y="10" width="1" height="1" fill="rgb(51,40,40)" fill-opacity="0.8984375"/>
  <rect x="18" y="10" width="3" height="1" fill="rgb(255,255,255)" fill-opacity="0.0078125"/>
  <rect x="0" y="11" width="4" height="1" fill="rgb(255,255,255)" fill-opacity="0.0078125"/>
  <rect x="4" y="11" width="1" height="1" fill="rgb(48,35,35)" fill-opacity="0.9453125"/>
  <rect x="5" y="11" width="1" height="1" fill="rgb(232,121,121)"/>
  <rect x="6" y="11" width="1" height="1" fill="rgb(223,63,63)"/>
  <rect x="7" y="11" width="1" height="1" fill="rgb(212,0,0)"/>
  <rect x="8" y="11" width="1" height="1" fill="rgb(55,55,55)" fill-opacity="0.9375"/>
  <rect x="9" y="11" width="1" height="1" fill="rgb(28,28,28)" fill-opacity="0.1875"/>
  <rect x="10" y="11" width="2" height="1" fill="rgb(255,255,255)" fill-opacity="0.0078125"/>
  <rect x="12" y="11" width="1" height="1" fill="rgb(28,28,28)" fill-opacity="0.21875"/>
  <rect x="13" y="11" width="1" height="1" fill="rgb(87,87,87)" fill-opacity="0.9453125"/>
  <rect x="14" y="11" width="1" height="1" fill="rgb(232,118,118)"/>
  <rect x="15" y="11" width="1" height="1" fill="rgb(221,55,55)"/>
  <rect x="16" y="11" width="1" height="1" fill="rgb(212,0,0)"/>
  <rect x="17" y="11" width="1" height="1" fill="rgb(51,41,41)" fill-opacity="0.890625"/>
  <rect x="18" y="11" width="3" height="1" fill="rgb(255,255,255)" fill-opacity="0.0078125"/>
  <rect x="0" y="12" width="4" height="1" fill="rgb(255,255,255)" fill-opacity="0.0078125"/>
  <rect x="4" y="12" width="1" height="1" fill="rgb(43,43,43)" fill-opacity="0.765625"/>
  <rect x="5" y="12" width="1" height="1" fill="rgb(230,230,230)"/>
  <rect x="6" y="12" width="1" height="1" fill="rgb(240,240,240)"/>
  <rect x="7" y="12" width="1" height="1" fill="rgb(217,217,217)"/>
  <rect x="8" y="12" width="1" height="1" fill="rgb(140,138,138)" fill-opacity="0.9921875"/>
  <rect x="9" y="12" width="1" height="1" fill="rgb(36,36,36)" fill-opacity="0.7578125"/>
  <rect x="10" y="12" width="1" height="1" fill="rgb(25,25,25)" fill-opacity="0.2109375"/>
  <rect x="11" y="12" width="1" height="1" fill="rgb(26,26,26)" fill-opacity="0.2421875"/>
  <rect x="12" y="12" width="1" height="1" fill="rgb(38,38,38)" fill-opacity="0.8046875"/>
  <rect x="13" y="12" width="1" height="1" fill="rgb(202,201,201)"/>
  <rect x="14" y="12" width="1" height="1" fill="rgb(253,253,253)"/>
  <rect x="15" y="12" width="1" height="1" fill="rgb(248,248,248)"/>
  <rect x="16" y="12" width="1" height="1" fill="rgb(187,187,187)"/>
  <rect x="17" y="12" width="1" height="1" fill="rgb(46,46,46)" fill-opacity="0.6796875"/>
  <rect x="18" y="12" width="3" height="1" fill="rgb(255,255,255)" fill-opacity="0.0078125"/>
  <rect x="0" y="13" width="3" height="1" fill="rgb(255,255,255)" fill-opacity="0.0078125"/>
  <rect x="3" y="13" width="1" height="1" fill="rgb(36,18,18)" fill-opacity="0.0625"/>
  <rect x="4" y="13" width="1" height="1" fill="rgb(34,34,32)" fill-opacity="0.65625"/>
  <rect x="5" y="13" width="1" height="1" fill="rgb(167,167,167)" fill-opacity="0.9765625"/>
  <rect x="6" y="13" width="1" height="1" fill="rgb(242,242,242)"/>
  <rect x="7" y="13" width="1" height="1" fill="rgb(228,228,228)"/>
  <rect x="8" y="13" width="1" height="1" fill="rgb(226,226,226)"/>
  <rect x="9" y="13" width="1" height="1" fill="rgb(170,170,170)"/>
  <rect x="10" y="13" width="1" height="1" fill="rgb(106,74,74)" fill-opacity="0.9453125"/>
  <rect x="11" y="13" width="1" height="1" fill="rgb(117,84,84)" fill-opacity="0.953125"/>
  <rect x="12" y="13" width="1" height="1" fill="rgb(207,206,206)"/>
  <rect x="13" y="13" width="2" height="1" fill="rgb(252,252,252)"/>
  <rect x="15" y="13" width="1" height="1" fill="rgb(250,250,250)"/>
  <rect x="16" y="13" width="1" height="1" fill="rgb(107,107,107)" fill-opacity="0.9609375"/>
  <rect x="17" y="13" width="1" height="1" fill="rgb(30,30,29)" fill-opacity="0.6015625"/>
  <rect x="18" y="13" width="1" height="1" fill="rgb(30,30,30)" fill-opacity="0.0703125"/>
  <rect x="19" y="13" width="2" height="1" fill="rgb(255,255,255)" fill-opacity="0.0078125"/>
  <rect x="0" y="14" width="3" height="1" fill="rgb(255,255,255)" fill-opacity="0.0078125"/>
  <rect x="3" y="14" width="1" height="1" fill="rgb(35,33,28)" fill-opacity="0.40625"/>
  <rect x="4" y="14" width="1" height="1" fill="rgb(188,184,181)" fill-opacity="0.71875"/>
  <rect x="5" y="14" width="1" height="1" fill="rgb(40,40,40)" fill-opacity="0.9296875"/>
  <rect x="6" y="14" width="1" height="1" fill="rgb(210,210,210)"/>
  <rect x="7" y="14" width="1" height="1" fill="rgb(235,235,235)"/>
  <rect x="8" y="14" width="1" height="1" fill="rgb(236,236,236)"/>
  <rect x="9" y="14" width="1" height="1" fill="rgb(243,243,243)"/>
  <rect x="10" y="14" width="1" height="1" fill="rgb(228,97,97)"/>
  <rect x="11" y="14" width="1" height="1" fill="rgb(233,124,124)"/>
  <rect x="12" y="14" width="1" height="1" fill="rgb(253,253,253)"/>
  <rect x="13" y="14" width="1" height="1" fill="rgb(252,252,252)"/>
  <rect x="14" y="14" width="1" height="1" fill="rgb(251,251,251)"/>
  <rect x="15" y="14" width="1" height="1" fill="rgb(188,187,187)"/>
  <rect x="16" y="14" width="1" height="1" fill="rgb(40,40,40)" fill-opacity="0.9140625"/>
  <rect x="17" y="14" width="1" height="1" fill="rgb(193,188,186)" fill-opacity="0.7109375"/>
  <rect x="18" y="14" width="1" height="1" fill="rgb(35,32,30)" fill-opacity="0.375"/>
  <rect x="19" y="14" width="2" height="1" fill="rgb(255,255,255)" fill-opacity="0.0078125"/>
  <rect x="0" y="15" width="3" height="1" fill="rgb(255,255,255)" fill-opacity="0.0078125"/>
  <rect x="3" y="15" width="1" height="1" fill="rgb(36,31,29)" fill-opacity="0.421875"/>
  <rect x="4" y="15" width="1" height="1" fill="rgb(227,222,219)" fill-opacity="0.703125"/>
  <rect x="5" y="15" width="1" height="1" fill="rgb(33,29,27)" fill-opacity="0.5546875"/>
  <rect x="6" y="15" width="1" height="1" fill="rgb(54,51,51)" fill-opacity="0.9609375"/>
  <rect x="7" y="15" width="1" height="1" fill="rgb(190,190,190)"/>
  <rect x="8" y="15" width="1" height="1" fill="rgb(233,233,233)"/>
  <rect x="9" y="15" width="1" height="1" fill="rgb(239,239,239)"/>
  <rect x="10" y="15" width="1" height="1" fill="rgb(219,42,42)"/>
  <rect x="11" y="15" width="1" height="1" fill="rgb(221,51,51)"/>
  <rect x="12" y="15" width="1" height="1" fill="rgb(250,250,250)"/>
  <rect x="13" y="15" width="1" height="1" fill="rgb(251,251,251)"/>
  <rect x="14" y="15" width="1" height="1" fill="rgb(195,194,194)"/>
  <rect x="15" y="15" width="1" height="1" fill="rgb(42,40,40)" fill-opacity="0.953125"/>
  <rect x="16" y="15" width="1" height="1" fill="rgb(31,29,27)" fill-opacity="0.5234375"/>
  <rect x="17" y="15" width="1" height="1" fill="rgb(227,222,219)" fill-opacity="0.703125"/>
  <rect x="18" y="15" width="1" height="1" fill="rgb(36,31,29)" fill-opacity="0.421875"/>
  <rect x="19" y="15" width="2" height="1" fill="rgb(255,255,255)" fill-opacity="0.0078125"/>
  <rect x="0" y="16" width="3" height="1" fill="rgb(255,255,255)" fill-opacity="0.0078125"/>
  <rect x="3" y="16" width="1" height="1" fill="rgb(37,32,27)" fill-opacity="0.4140625"/>
  <rect x="4" y="16" width="1" height="1" fill="rgb(224,219,217)" fill-opacity="0.703125"/>
  <rect x="5" y="16" width="1" height="1" fill="rgb(56,53,50)" fill-opacity="0.609375"/>
  <rect x="6" y="16" width="1" height="1" fill="rgb(32,28,28)" fill-opacity="0.5390625"/>
  <rect x="7" y="16" width="1" height="1" fill="rgb(39,39,38)" fill-opacity="0.921875"/>
  <rect x="8" y="16" width="1" height="1" fill="rgb(107,107,107)" fill-opacity="0.96875"/>
  <rect x="9" y="16" width="1" height="1" fill="rgb(175,175,175)"/>
  <rect x="10" y="16" width="2" height="1" fill="rgb(212,0,0)"/>
  <rect x="12" y="16" width="1" height="1" fill="rgb(180,180,180)"/>
  <rect x="13" y="16" width="1" height="1" fill="rgb(106,106,106)" fill-opacity="0.9609375"/>
  <rect x="14" y="16" width="1" height="1" fill="rgb(41,41,41)" fill-opacity="0.8984375"/>
  <rect x="15" y="16" width="1" height="1" fill="rgb(33,29,27)" fill-opacity="0.515625"/>
  <rect x="16" y="16" width="1" height="1" fill="rgb(56,53,50)" fill-opacity="0.609375"/>
  <rect x="17" y="16" width="1" height="1" fill="rgb(224,219,217)" fill-opacity="0.703125"/>
  <rect x="18" y="16" width="1" height="1" fill="rgb(37,32,27)" fill-opacity="0.4140625"/>
  <rect x="19" y="16" width="2" height="1" fill="rgb(255,255,255)" fill-opacity="0.0078125"/>
  <rect x="0" y="17" width="3" height="1" fill="rgb(255,255,255)" fill-opacity="0.0078125"/>
  <rect x="3" y="17" width="1" height="1" fill="rgb(35,35,29)" fill-opacity="0.1796875"/>
  <rect x="4" y="17" width="1" height="1" fill="rgb(120,116,112)" fill-opacity="0.703125"/>
  <rect x="5" y="17" width="1" height="1" fill="rgb(224,219,217)" fill-opacity="0.703125"/>
  <rect x="6" y="17" width="1" height="1" fill="rgb(227,222,219)" fill-opacity="0.703125"/>
  <rect x="7" y="17" width="1" height="1" fill="rgb(192,187,185)" fill-opacity="0.7109375"/>
  <rect x="8" y="17" width="1" height="1" fill="rgb(30,30,28)" fill-opacity="0.6015625"/>
  <rect x="9" y="17" width="1" height="1" fill="rgb(44,44,44)" fill-opacity="0.6796875"/>
  <rect x="10" y="17" width="1" height="1" fill="rgb(49,38,38)" fill-opacity="0.890625"/>
  <rect x="11" y="17" width="1" height="1" fill="rgb(51,40,40)" fill-opacity="0.8828125"/>
  <rect x="12" y="17" width="1" height="1" fill="rgb(44,44,44)" fill-opacity="0.65625"/>
  <rect x="13" y="17" width="1" height="1" fill="rgb(31,29,28)" fill-opacity="0.5859375"/>
  <rect x="14" y="17" width="1" height="1" fill="rgb(193,188,186)" fill-opacity="0.7109375"/>
  <rect x="15" y="17" width="1" height="1" fill="rgb(227,222,219)" fill-opacity="0.703125"/>
  <rect x="16" y="17" width="1" height="1" fill="rgb(224,219,217)" fill-opacity="0.703125"/>
  <rect x="17" y="17" width="1" height="1" fill="rgb(120,116,112)" fill-opacity="0.703125"/>
  <rect x="18" y="17" width="1" height="1" fill="rgb(35,35,29)" fill-opacity="0.1796875"/>
  <rect x="19" y="17" width="2" height="1" fill="rgb(255,255,255)" fill-opacity="0.0078125"/>
  <rect x="0" y="18" width="4" height="1" fill="rgb(255,255,255)" fill-opacity="0.0078125"/>
  <rect x="4" y="18" width="1" height="1" fill="rgb(35,35,29)" fill-opacity="0.1796875"/>
  <rect x="5" y="18" width="1" height="1" fill="rgb(37,32,27)" fill-opacity="0.4140625"/>
  <rect x="6" y="18" width="1" height="1" fill="rgb(36,31,29)" fill-opacity="0.421875"/>
  <rect x="7" y="18" width="1" height="1" fill="rgb(35,32,30)" fill-opacity="0.375"/>
  <rect x="8" y="18" width="1" height="1" fill="rgb(30,30,30)" fill-opacity="0.0703125"/>
  <rect x="9" y="18" width="4" height="1" fill="rgb(255,255,255)" fill-opacity="0.0078125"/>
  <rect x="13" y="18" width="1" height="1" fill="rgb(36,18,18)" fill-opacity="0.0625"/>
  <rect x="14" y="18" width="1" height="1" fill="rgb(35,33,28)" fill-opacity="0.40625"/>
  <rect x="15" y="18" width="1" height="1" fill="rgb(36,31,29)" fill-opacity="0.421875"/>
  <rect x="16" y="18" width="1" height="1" fill="rgb(37,32,27)" fill-opacity="0.4140625"/>
  <rect x="17" y="18" width="1" height="1" fill="rgb(35,35,29)" fill-opacity="0.1796875"/>
  <rect x="18" y="18" width="3" height="1" fill="rgb(255,255,255)" fill-opacity="0.0078125"/>
  <rect x="0" y="19" width="21" height="1" fill="rgb(255,255,255)" fill-opacity="0.0078125"/>
  <rect x="0" y="20" width="21" height="1" fill="rgb(255,255,255)" fill-opacity="0.0078125"/>
</svg>