<svg xmlns="http://www.w3.org/2000/svg" shape-rendering="crispEdges" width="21" height="21" viewBox="0 0 21 21">
  <rect x="0" y="0" width="21" height="1" fill="rgb(255,255,255)" fill-opacity="0.0078125"/>
  <rect x="0" y="1" width="21" height="1" fill="rgb(255,255,255)" fill-opacity="0.0078125"/>
  <rect x="0" y="2" width="21" height="1" fill="rgb(255,255,255)" fill-opacity="0.0078125"/>
  <rect x="0" y="3" width="21" height="1" fill="rgb(255,255,255)" fill-opacity="0.0078125"/>
  <rect x="0" y="4" width="21" height="1" fill="rgb(255,255,255)" fill-opacity="0.0078125"/>
  <rect x="0" y="5" width="5" height="1" fill="rgb(255,255,255)" fill-opacity="0.0078125"/>
  <rect x="5" y="5" width="1" height="1" fill="rgb(58,58,58)" fill-opacity="0.3125"/>
  <rect x="6" y="5" width="6" height="1" fill="rgb(52,52,52)" fill-opacity="0.3515625"/>
  <rect x="12" y="5" width="1" height="1" fill="rgb(31,48,74)" fill-opacity="0.640625"/>
  <rect x="13" y="5" width="1" height="1" fill="rgb(22,46,81)" fill-opacity="0.984375"/>
  <rect x="14" y="5" width="2" height="1" fill="rgb(22,46,81)" fill-opacity="0.9921875"/>
  <rect x="16" y="5" width="1" height="1" fill="rgb(26,49,84)" fill-opacity="0.921875"/>
  <rect x="17" y="5" width="4" height="1" fill="rgb(255,255,255)" fill-opacity="0.0078125"/>
  <rect x="0" y="6" width="5" height="1" fill="rgb(255,255,255)" fill-opacity="0.0078125"/>
  <rect x="5" y="6" width="1" height="1" fill="rgb(52,52,52)" fill-opacity="0.3515625"/>
  <rect x="6" y="6" width="1" height="1" fill="rgb(220,220,220)" fill-opacity="0.4609375"/>
  <rect x="7" y="6" width="4" height="1" fill="rgb(221,221,221)" fill-opacity="0.4765625"/>
  <rect x="11" y="6" width="1" height="1" fill="rgb(94,110,132)" fill-opacity="0.7109375"/>
  <rect x="12" y="6" width="1" height="1" fill="rgb(48,72,107)" fill-opacity="0.9765625"/>
  <rect x="13" y="6" width="1" height="1" fill="rgb(182,200,226)"/>
  <rect x="14" y="6" width="1" height="1" fill="rgb(197,213,235)"/>
  <rect x="15" y="6" width="1" height="1" fill="rgb(175,196,227)"/>
  <rect x="16" y="6" width="1" height="1" fill="rgb(22,45,80)"/>
  <rect x="17" y="6" width="4" height="1" fill="rgb(255,255,255)" fill-opacity="0.0078125"/>
  <rect x="0" y="7" width="5" height="1" fill="rgb(255,255,255)" fill-opacity="0.0078125"/>
  <rect x="5" y="7" width="1" height="1" fill="rgb(52,52,52)" fill-opacity="0.3515625"/>
  <rect x="6" y="7" width="1" height="1" fill="rgb(226,226,226)" fill-opacity="0.484375"/>
  <rect x="7" y="7" width="3" height="1" fill="rgb(204,204,204)" fill-opacity="0.359375"/>
  <rect x="10" y="7" width="1" height="1" fill="rgb(78,95,120)" fill-opacity="0.6484375"/>
  <rect x="11" y="7" width="1" height="1" fill="rgb(47,71,105)" fill-opacity="0.9765625"/>
  <rect x="12" y="7" width="1" height="1" fill="rgb(187,204,229)"/>
  <rect x="13" y="7" width="1" height="1" fill="rgb(136,169,216)"/>
  <rect x="14" y="7" width="1" height="1" fill="rgb(89,135,201)"/>
  <rect x="15" y="7" width="1" height="1" fill="rgb(184,204,232)"/>
  <rect x="16" y="7" width="1" height="1" fill="rgb(22,45,80)"/>
  <rect x="17" y="7" width="4" height="1" fill="rgb(255,255,255)" fill-opacity="0.0078125"/>
  <rect x="0" y="8" width="5" height="1" fill="rgb(255,255,255)" fill-opacity="0.0078125"/>
  <rect x="5" y="8" width="1" height="1" fill="rgb(52,52,52)" fill-opacity="0.3515625"/>
  <rect x="6" y="8" width="1" height="1" fill="rgb(226,226,226)" fill-opacity="0.484375"/>
  <rect x="7" y="8" width="2" height="1" fill="rgb(203,203,203)" fill-opacity="0.3515625"/>
  <rect x="9" y="8" width="1" height="1" fill="rgb(76,93,118)" fill-opacity="0.6484375"/>
  <rect x="10" y="8" width="1" height="1" fill="rgb(47,71,105)" fill-opacity="0.9765625"/>
  <rect x="11" y="8" width="1" height="1" fill="rgb(187,204,229)"/>
  <rect x="12" y="8" width="1" height="1" fill="rgb(136,169,216)"/>
  <rect x="13" y="8" width="1" height="1" fill="rgb(86,133,200)"/>
  <rect x="14" y="8" width="1" height="1" fill="rgb(94,139,202)"/>
  <rect x="15" y="8" width="1" height="1" fill="rgb(178,199,230)"/>
  <rect x="16" y="8" width="1" height="1" fill="rgb(22,45,80)"/>
  <rect x="17" y="8" width="4" height="1" fill="rgb(255,255,255)" fill-opacity="0.0078125"/>
  <rect x="0" y="9" width="5" height="1" fill="rgb(255,255,255)" fill-opacity="0.0078125"/>
  <rect x="5" y="9" width="1" height="1" fill="rgb(52,52,52)" fill-opacity="0.3515625"/>
  <rect x="6" y="9" width="1" height="1" fill="rgb(226,226,226)" fill-opacity="0.484375"/>
  <rect x="7" y="9" width="1" height="1" fill="rgb(203,203,203)" fill-opacity="0.3515625"/>
  <rect x="8" y="9" width="1" height="1" fill="rgb(76,93,118)" fill-opacity="0.6484375"/>
  <rect x="9" y="9" width="1" height="1" fill="rgb(47,71,105)" fill-opacity="0.9765625"/>
  <rect x="10" y="9" width="1" height="1" fill="rgb(186,204,228)"/>
  <rect x="11" y="9" width="1" height="1" fill="rgb(136,169,216)"/>
  <rect x="12" y="9" width="1" height="1" fill="rgb(87,133,200)"/>
  <rect x="13" y="9" width="1" height="1" fill="rgb(95,139,203)"/>
  <rect x="14" y="9" width="1" height="1" fill="rgb(102,145,205)"/>
  <rect x="15" y="9" width="1" height="1" fill="rgb(171,194,228)"/>
  <rect x="16" y="9" width="1" height="1" fill="rgb(22,45,80)"/>
  <rect x="17" y="9" width="4" height="1" fill="rgb(255,255,255)" fill-opacity="0.0078125"/>
  <rect x="0" y="10" width="5" height="1" fill="rgb(255,255,255)" fill-opacity="0.0078125"/>
  <rect x="5" y="10" width="1" height="1" fill="rgb(52,52,52)" fill-opacity="0.3515625"/>
  <rect x="6" y="10" width="1" height="1" fill="rgb(224,224,224)" fill-opacity="0.484375"/>
  <rect x="7" y="10" width="1" height="1" fill="rgb(76,93,118)" fill-opacity="0.6484375"/>
  <rect x="8" y="10" width="1" height="1" fill="rgb(47,71,105)" fill-opacity="0.9765625"/>
  <rect x="9" y="10" width="1" height="1" fill="rgb(186,204,228)"/>
  <rect x="10" y="10" width="1" height="1" fill="rgb(136,169,216)"/>
  <rect x="11" y="10" width="1" height="1" fill="rgb(88,134,200)"/>
  <rect x="12" y="10" width="1" height="1" fill="rgb(95,139,203)"/>
  <rect x="13" y="10" width="1" height="1" fill="rgb(103,145,205)"/>
  <rect x="14" y="10" width="1" height="1" fill="rgb(111,151,208)"/>
  <rect x="15" y="10" width="1" height="1" fill="rgb(167,191,227)"/>
  <rect x="16" y="10" width="1" height="1" fill="rgb(22,45,80)"/>
  <rect x="17" y="10" width="4" height="1" fill="rgb(255,255,255)" fill-opacity="0.0078125"/>
  <rect x="0" y="11" width="5" height="1" fill="rgb(255,255,255)" fill-opacity="0.0078125"/>
  <rect x="5" y="11" width="1" height="1" fill="rgb(52,52,52)" fill-opacity="0.3515625"/>
  <rect x="6" y="11" width="1" height="1" fill="rgb(96,111,134)" fill-opacity="0.7109375"/>
  <rect x="7" y="11" width="1" height="1" fill="rgb(47,71,107)" fill-opacity="0.9765625"/>
  <rect x="8" y="11" width="1" height="1" fill="rgb(186,203,228)"/>
  <rect x="9" y="11" width="1" height="1" fill="rgb(137,170,216)"/>
  <rect x="10" y="11" width="1" height="1" fill="rgb(88,134,200)"/>
  <rect x="11" y="11" width="1" height="1" fill="rgb(96,140,203)"/>
  <rect x="12" y="11" width="1" height="1" fill="rgb(104,145,206)"/>
  <rect x="13" y="11" width="1" height="1" fill="rgb(111,151,208)"/>
  <rect x="14" y="11" width="1" height="1" fill="rgb(119,157,211)"/>
  <rect x="15" y="11" width="1" height="1" fill="rgb(164,189,225)"/>
  <rect x="16" y="11" width="1" height="1" fill="rgb(22,45,80)"/>
  <rect x="17" y="11" width="4" height="1" fill="rgb(255,255,255)" fill-opacity="0.0078125"/>
  <rect x="0" y="12" width="5" height="1" fill="rgb(255,255,255)" fill-opacity="0.0078125"/>
  <rect x="5" y="12" width="1" height="1" fill="rgb(31,48,74)" fill-opacity="0.640625"/>
  <rect x="6" y="12" width="1" height="1" fill="rgb(47,71,107)" fill-opacity="0.9765625"/>
  <rect x="7" y="12" width="1" height="1" fill="rgb(185,202,228)"/>
  <rect x="8" y="12" width="1" height="1" fill="rgb(137,170,216)"/>
  <rect x="9" y="12" width="1" height="1" fill="rgb(89,135,201)"/>
  <rect x="10" y="12" width="1" height="1" fill="rgb(96,140,203)"/>
  <rect x="11" y="12" width="1" height="1" fill="rgb(104,146,206)"/>
  <rect x="12" y="12" width="1" height="1" fill="rgb(112,151,208)"/>
  <rect x="13" y="12" width="1" height="1" fill="rgb(119,157,211)"/>
  <rect x="14" y="12" width="1" height="1" fill="rgb(127,163,214)"/>
  <rect x="15" y="12" width="1" height="1" fill="rgb(161,187,225)"/>
  <rect x="16" y="12" width="1" height="1" fill="rgb(22,45,80)"/>
  <rect x="17" y="12" width="4" height="1" fill="rgb(255,255,255)" fill-opacity="0.0078125"/>
  <rect x="0" y="13" width="5" height="1" fill="rgb(255,255,255)" fill-opacity="0.0078125"/>
  <rect x="5" y="13" width="1" height="1" fill="rgb(22,45,80)"/>
  <rect x="6" y="13" width="1" height="1" fill="rgb(183,201,227)"/>
  <rect x="7" y="13" width="1" height="1" fill="rgb(137,169,216)"/>
  <rect x="8" y="13" width="1" height="1" fill="rgb(89,135,201)"/>
  <rect x="9" y="13" width="1" height="1" fill="rgb(97,141,203)"/>
  <rect x="10" y="13" width="1" height="1" fill="rgb(105,146,206)"/>
  <rect x="11" y="13" width="1" height="1" fill="rgb(112,152,209)"/>
  <rect x="12" y="13" width="1" height="1" fill="rgb(120,157,211)"/>
  <rect x="13" y="13" width="1" height="1" fill="rgb(128,163,214)"/>
  <rect x="14" y="13" width="1" height="1" fill="rgb(136,169,217)"/>
  <rect x="15" y="13" width="1" height="1" fill="rgb(160,186,225)"/>
  <rect x="16" y="13" width="1" height="1" fill="rgb(22,45,80)"/>
  <rect x="17" y="13" width="4" height="1" fill="rgb(255,255,255)" fill-opacity="0.0078125"/>
  <rect x="0" y="14" width="5" height="1" fill="rgb(255,255,255)" fill-opacity="0.0078125"/>
  <rect x="5" y="14" width="1" height="1" fill="rgb(22,45,80)"/>
  <rect x="6" y="14" width="1" height="1" fill="rgb(199,214,236)"/>
  <rect x="7" y="14" width="1" height="1" fill="rgb(90,135,201)"/>
  <rect x="8" y="14" width="1" height="1" fill="rgb(98,141,204)"/>
  <rect x="9" y="14" width="1" height="1" fill="rgb(105,147,206)"/>
  <rect x="10" y="14" width="1" height="1" fill="rgb(113,152,209)"/>
  <rect x="11" y="14" width="1" height="1" fill="rgb(121,158,211)"/>
  <rect x="12" y="14" width="1" height="1" fill="rgb(128,163,214)"/>
  <rect x="13" y="14" width="1" height="1" fill="rgb(136,169,217)"/>
  <rect x="14" y="14" width="1" height="1" fill="rgb(144,175,219)"/>
  <rect x="15" y="14" width="1" height="1" fill="rgb(160,186,225)"/>
  <rect x="16" y="14" width="1" height="1" fill="rgb(22,45,80)"/>
  <rect x="17" y="14" width="4" height="1" fill="rgb(255,255,255)" fill-opacity="0.0078125"/>
  <rect x="0" y="15" width="5" height="1" fill="rgb(255,255,255)" fill-opacity="0.0078125"/>
  <rect x="5" y="15" width="1" height="1" fill="rgb(22,45,80)"/>
  <rect x="6" y="15" width="1" height="1" fill="rgb(179,200,230)"/>
  <rect x="7" y="15" width="1" height="1" fill="rgb(181,201,231)"/>
  <rect x="8" y="15" width="1" height="1" fill="rgb(175,197,229)"/>
  <rect x="9" y="15" width="1" height="1" fill="rgb(170,193,227)"/>
  <rect x="10" y="15" width="1" height="1" fill="rgb(166,191,227)"/>
  <rect x="11" y="15" width="1" height="1" fill="rgb(163,189,225)"/>
  <rect x="12" y="15" width="1" height="1" fill="rgb(162,187,225)"/>
  <rect x="13" y="15" width="1" height="1" fill="rgb(161,186,225)"/>
  <rect x="14" y="15" width="1" height="1" fill="rgb(160,187,225)"/>
  <rect x="15" y="15" width="1" height="1" fill="rgb(161,187,225)"/>
  <rect x="16" y="15" width="1" height="1" fill="rgb(22,45,80)"/>
  <rect x="17" y="15" width="4" height="1" fill="rgb(255,255,255)" fill-opacity="0.0078125"/>
  <rect x="0" y="16" width="5" height="1" fill="rgb(255,255,255)" fill-opacity="0.0078125"/>
  <rect x="5" y="16" width="1" height="1" fill="rgb(24,48,83)" fill-opacity="0.9453125"/>
  <rect x="6" y="16" width="1" height="1" fill="rgb(25,48,83)" fill-opacity="0.9921875"/>
  <rect x="7" y="16" width="1" height="1" fill="rgb(27,49,85)" fill-opacity="0.9921875"/>
  <rect x="8" y="16" width="2" height="1" fill="rgb(26,48,84)" fill-opacity="0.9921875"/>
  <rect x="10" y="16" width="2" height="1" fill="rgb(25,48,83)" fill-opacity="0.9921875"/>
  <rect x="12" y="16" width="2" height="1" fill="rgb(25,47,83)" fill-opacity="0.9921875"/>
  <rect x="14" y="16" width="2" height="1" fill="rgb(24,47,82)" fill-opacity="0.9921875"/>
  <rect x="16" y="16" width="1" height="1" fill="rgb(28,50,84)" fill-opacity="0.9453125"/>
  <rect x="17" y="16" width="4" height="1" fill="rgb(255,255,255)" fill-opacity="0.0078125"/>
  <rect x="0" y="17" width="5" height="1" fill="rgb(255,255,255)" fill-opacity="0.0078125"/>
  <rect x="5" y="17" width="1" height="1" fill="rgb(0,51,51)" fill-opacity="0.0234375"/>
  <rect x="6" y="17" width="10" height="1" fill="rgb(46,46,93)" fill-opacity="0.046875"/>
  <rect x="16" y="17" width="1" height="1" fill="rgb(0,51,51)" fill-opacity="0.0234375"/>
  <rect x="17" y="17" width="4" height="1" fill="rgb(255,255,255)" fill-opacity="0.0078125"/>
  <rect x="0" y="18" width="21" height="1" fill="rgb(255,255,255)" fill-opacity="0.0078125"/>
  <rect x="0" y="19" width="21" height="1" fill="rgb(255,255,255)" fill-opacity="0.0078125"/>
  <rect x="0" y="20" width="21" height="1" fill="rgb(255,255,255)" fill-opacity="0.0078125"/>
</svg>