<svg xmlns="http://www.w3.org/2000/svg" shape-rendering="crispEdges" width="21" height="21" viewBox="0 0 21 21">
  <rect x="0" y="0" width="1" height="21" fill="rgb(255,255,255)" fill-opacity="0.0078125"/>
  <rect x="1" y="0" width="1" height="21" fill="rgb(255,255,255)" fill-opacity="0.0078125"/>
  <rect x="2" y="0" width="1" height="21" fill="rgb(255,255,255)" fill-opacity="0.0078125"/>
  <rect x="3" y="0" width="1" height="5" fill="rgb(255,255,255)" fill-opacity="0.0078125"/>
  <rect x="3" y="5" width="1" height="1" fill="rgb(44,40,0)" fill-opacity="0.2578125"/>
  <rect x="3" y="6" width="1" height="1" fill="rgb(44,39,0)" fill-opacity="0.484375"/>
  <rect x="3" y="7" width="1" height="1" fill="rgb(42,38,0)" fill-opacity="0.265625"/>
  <rect x="3" y="8" width="1" height="13" fill="rgb(255,255,255)" fill-opacity="0.0078125"/>
  <rect x="4" y="0" width="1" height="4" fill="rgb(255,255,255)" fill-opacity="0.0078125"/>
  <rect x="4" y="4" width="1" height="1" fill="rgb(43,36,0)" fill-opacity="0.3046875"/>
  <rect x="4" y="5" width="1" height="1" fill="rgb(123,122,82)" fill-opacity="0.6015625"/>
  <rect x="4" y="6" width="1" height="1" fill="rgb(245,245,203)" fill-opacity="0.6015625"/>
  <rect x="4" y="7" width="1" height="1" fill="rgb(123,122,82)" fill-opacity="0.6015625"/>
  <rect x="4" y="8" width="1" height="1" fill="rgb(43,36,0)" fill-opacity="0.3046875"/>
  <rect x="4" y="9" width="1" height="3" fill="rgb(255,255,255)" fill-opacity="0.0078125"/>
  <rect x="4" y="12" width="1" height="1" fill="rgb(43,38,0)" fill-opacity="0.375"/>
  <rect x="4" y="13" width="1" height="4" fill="rgb(43,39,0)" fill-opacity="0.4921875"/>
  <rect x="4" y="17" width="1" height="1" fill="rgb(43,38,0)" fill-opacity="0.375"/>
  <rect x="4" y="18" width="1" height="3" fill="rgb(255,255,255)" fill-opacity="0.0078125"/>
  <rect x="5" y="0" width="1" height="3" fill="rgb(255,255,255)" fill-opacity="0.0078125"/>
  <rect x="5" y="3" width="1" height="1" fill="rgb(45,38,0)" fill-opacity="0.296875"/>
  <rect x="5" y="4" width="1" height="1" fill="rgb(123,122,82)" fill-opacity="0.6015625"/>
  <rect x="5" y="5" width="1" height="1" fill="rgb(253,252,210)" fill-opacity="0.6015625"/>
  <rect x="5" y="6" width="1" height="1" fill="rgb(238,238,202)" fill-opacity="0.6015625"/>
  <rect x="5" y="7" width="1" height="1" fill="rgb(253,252,210)" fill-opacity="0.6015625"/>
  <rect x="5" y="8" width="1" height="1" fill="rgb(123,122,82)" fill-opacity="0.6015625"/>
  <rect x="5" y="9" width="1" height="1" fill="rgb(45,38,0)" fill-opacity="0.2890625"/>
  <rect x="5" y="10" width="1" height="2" fill="rgb(255,255,255)" fill-opacity="0.0078125"/>
  <rect x="5" y="12" width="1" height="1" fill="rgb(43,39,0)" fill-opacity="0.4921875"/>
  <rect x="5" y="13" width="1" height="4" fill="rgb(255,250,214)" fill-opacity="0.65625"/>
  <rect x="5" y="17" width="1" height="1" fill="rgb(43,39,0)" fill-opacity="0.4921875"/>
  <rect x="5" y="18" width="1" height="3" fill="rgb(255,255,255)" fill-opacity="0.0078125"/>
  <rect x="6" y="0" width="1" height="2" fill="rgb(255,255,255)" fill-opacity="0.0078125"/>
  <rect x="6" y="2" width="1" height="1" fill="rgb(85,85,0)" fill-opacity="0.015625"/>
  <rect x="6" y="3" width="1" height="1" fill="rgb(87,82,44)" fill-opacity="0.6015625"/>
  <rect x="6" y="4" width="1" height="1" fill="rgb(253,252,210)" fill-opacity="0.6015625"/>
  <rect x="6" y="5" width="1" height="1" fill="rgb(123,122,82)" fill-opacity="0.6015625"/>
  <rect x="6" y="6" width="1" height="1" fill="rgb(215,212,183)" fill-opacity="0.6015625"/>
  <rect x="6" y="7" width="1" height="1" fill="rgb(125,122,83)" fill-opacity="0.6015625"/>
  <rect x="6" y="8" width="1" height="1" fill="rgb(253,253,210)" fill-opacity="0.6015625"/>
  <rect x="6" y="9" width="1" height="1" fill="rgb(87,84,44)" fill-opacity="0.5859375"/>
  <rect x="6" y="10" width="1" height="1" fill="rgb(36,36,0)" fill-opacity="0.03125"/>
  <rect x="6" y="11" width="1" height="1" fill="rgb(255,255,255)" fill-opacity="0.0078125"/>
  <rect x="6" y="12" width="1" height="1" fill="rgb(43,38,0)" fill-opacity="0.375"/>
  <rect x="6" y="13" width="1" height="1" fill="rgb(43,39,0)" fill-opacity="0.59375"/>
  <rect x="6" y="14" width="1" height="1" fill="rgb(147,141,92)" fill-opacity="0.65625"/>
  <rect x="6" y="15" width="1" height="1" fill="rgb(207,201,157)" fill-opacity="0.65625"/>
  <rect x="6" y="16" width="1" height="1" fill="rgb(255,250,214)" fill-opacity="0.65625"/>
  <rect x="6" y="17" width="1" height="1" fill="rgb(43,39,0)" fill-opacity="0.4921875"/>
  <rect x="6" y="18" width="1" height="3" fill="rgb(255,255,255)" fill-opacity="0.0078125"/>
  <rect x="7" y="0" width="1" height="3" fill="rgb(255,255,255)" fill-opacity="0.0078125"/>
  <rect x="7" y="3" width="1" height="1" fill="rgb(51,46,9)" fill-opacity="0.4609375"/>
  <rect x="7" y="4" width="1" height="1" fill="rgb(87,84,44)" fill-opacity="0.5859375"/>
  <rect x="7" y="5" width="1" height="1" fill="rgb(47,42,2)" fill-opacity="0.53125"/>
  <rect x="7" y="6" width="1" height="1" fill="rgb(216,212,183)" fill-opacity="0.609375"/>
  <rect x="7" y="7" width="1" height="1" fill="rgb(48,43,2)" fill-opacity="0.5390625"/>
  <rect x="7" y="8" width="1" height="1" fill="rgb(89,86,44)" fill-opacity="0.609375"/>
  <rect x="7" y="9" width="1" height="1" fill="rgb(55,51,11)" fill-opacity="0.4765625"/>
  <rect x="7" y="10" width="1" height="1" fill="rgb(204,204,102)" fill-opacity="0.0234375"/>
  <rect x="7" y="11" width="1" height="1" fill="rgb(128,128,128)" fill-opacity="0.015625"/>
  <rect x="7" y="12" width="1" height="1" fill="rgb(45,40,0)" fill-opacity="0.40625"/>
  <rect x="7" y="13" width="1" height="1" fill="rgb(138,135,103)" fill-opacity="0.65625"/>
  <rect x="7" y="14" width="1" height="1" fill="rgb(214,210,183)" fill-opacity="0.65625"/>
  <rect x="7" y="15" width="1" height="1" fill="rgb(147,141,92)" fill-opacity="0.65625"/>
  <rect x="7" y="16" width="1" height="1" fill="rgb(255,250,214)" fill-opacity="0.65625"/>
  <rect x="7" y="17" width="1" height="1" fill="rgb(43,39,0)" fill-opacity="0.4921875"/>
  <rect x="7" y="18" width="1" height="3" fill="rgb(255,255,255)" fill-opacity="0.0078125"/>
  <rect x="8" y="0" width="1" height="3" fill="rgb(255,255,255)" fill-opacity="0.0078125"/>
  <rect x="8" y="3" width="1" height="1" fill="rgb(191,191,64)" fill-opacity="0.0234375"/>
  <rect x="8" y="4" width="1" height="1" fill="rgb(146,146,55)" fill-opacity="0.0625"/>
  <rect x="8" y="5" width="1" height="1" fill="rgb(54,50,4)" fill-opacity="0.484375"/>
  <rect x="8" y="6" width="1" height="1" fill="rgb(215,212,176)" fill-opacity="0.6328125"/>
  <rect x="8" y="7" width="1" height="1" fill="rgb(61,55,4)" fill-opacity="0.5078125"/>
  <rect x="8" y="8" width="1" height="1" fill="rgb(191,182,27)" fill-opacity="0.1171875"/>
  <rect x="8" y="9" width="1" height="1" fill="rgb(231,206,36)" fill-opacity="0.0859375"/>
  <rect x="8" y="10" width="1" height="1" fill="rgb(221,204,51)" fill-opacity="0.0625"/>
  <rect x="8" y="11" width="1" height="1" fill="rgb(52,47,5)" fill-opacity="0.4296875"/>
  <rect x="8" y="12" width="1" height="1" fill="rgb(139,136,102)" fill-opacity="0.65625"/>
  <rect x="8" y="13" width="1" height="1" fill="rgb(214,210,183)" fill-opacity="0.65625"/>
  <rect x="8" y="14" width="1" height="1" fill="rgb(138,135,103)" fill-opacity="0.65625"/>
  <rect x="8" y="15" width="1" height="1" fill="rgb(43,39,0)" fill-opacity="0.59375"/>
  <rect x="8" y="16" width="1" height="1" fill="rgb(255,250,214)" fill-opacity="0.65625"/>
  <rect x="8" y="17" width="1" height="1" fill="rgb(43,39,0)" fill-opacity="0.4921875"/>
  <rect x="8" y="18" width="1" height="3" fill="rgb(255,255,255)" fill-opacity="0.0078125"/>
  <rect x="9" y="0" width="1" height="3" fill="rgb(255,255,255)" fill-opacity="0.0078125"/>
  <rect x="9" y="3" width="1" height="1" fill="rgb(255,227,85)" fill-opacity="0.0390625"/>
  <rect x="9" y="4" width="1" height="1" fill="rgb(219,206,49)" fill-opacity="0.0859375"/>
  <rect x="9" y="5" width="1" height="1" fill="rgb(70,65,8)" fill-opacity="0.53125"/>
  <rect x="9" y="6" width="1" height="1" fill="rgb(214,209,167)" fill-opacity="0.6796875"/>
  <rect x="9" y="7" width="1" height="1" fill="rgb(76,72,9)" fill-opacity="0.5703125"/>
  <rect x="9" y="8" width="1" height="1" fill="rgb(195,190,37)" fill-opacity="0.21875"/>
  <rect x="9" y="9" width="1" height="1" fill="rgb(194,189,36)" fill-opacity="0.203125"/>
  <rect x="9" y="10" width="1" height="1" fill="rgb(70,66,4)" fill-opacity="0.4921875"/>
  <rect x="9" y="11" width="1" height="1" fill="rgb(142,139,100)" fill-opacity="0.6796875"/>
  <rect x="9" y="12" width="1" height="1" fill="rgb(214,211,181)" fill-opacity="0.6640625"/>
  <rect x="9" y="13" width="1" height="1" fill="rgb(139,136,102)" fill-opacity="0.65625"/>
  <rect x="9" y="14" width="1" height="1" fill="rgb(45,40,0)" fill-opacity="0.40625"/>
  <rect x="9" y="15" width="1" height="1" fill="rgb(43,38,0)" fill-opacity="0.375"/>
  <rect x="9" y="16" width="1" height="1" fill="rgb(43,39,0)" fill-opacity="0.4921875"/>
  <rect x="9" y="17" width="1" height="1" fill="rgb(43,38,0)" fill-opacity="0.375"/>
  <rect x="9" y="18" width="1" height="3" fill="rgb(255,255,255)" fill-opacity="0.0078125"/>
  <rect x="10" y="0" width="1" height="3" fill="rgb(255,255,255)" fill-opacity="0.0078125"/>
  <rect x="10" y="3" width="1" height="1" fill="rgb(220,197,35)" fill-opacity="0.09375"/>
  <rect x="10" y="4" width="1" height="1" fill="rgb(204,191,47)" fill-opacity="0.2421875"/>
  <rect x="10" y="5" width="1" height="1" fill="rgb(144,133,50)" fill-opacity="0.5625"/>
  <rect x="10" y="6" width="1" height="1" fill="rgb(207,199,149)" fill-opacity="0.75"/>
  <rect x="10" y="7" width="1" height="1" fill="rgb(139,129,69)" fill-opacity="0.5390625"/>
  <rect x="10" y="8" width="1" height="1" fill="rgb(237,222,129)" fill-opacity="0.2734375"/>
  <rect x="10" y="9" width="1" height="1" fill="rgb(92,86,28)" fill-opacity="0.546875"/>
  <rect x="10" y="10" width="1" height="1" fill="rgb(146,142,99)" fill-opacity="0.7265625"/>
  <rect x="10" y="11" width="1" height="1" fill="rgb(214,210,171)" fill-opacity="0.7109375"/>
  <rect x="10" y="12" width="1" height="1" fill="rgb(142,139,100)" fill-opacity="0.6796875"/>
  <rect x="10" y="13" width="1" height="1" fill="rgb(52,48,5)" fill-opacity="0.421875"/>
  <rect x="10" y="14" width="1" height="1" fill="rgb(170,85,85)" fill-opacity="0.015625"/>
  <rect x="10" y="15" width="1" height="6" fill="rgb(255,255,255)" fill-opacity="0.0078125"/>
  <rect x="11" y="0" width="1" height="3" fill="rgb(255,255,255)" fill-opacity="0.0078125"/>
  <rect x="11" y="3" width="1" height="1" fill="rgb(115,103,4)" fill-opacity="0.6875"/>
  <rect x="11" y="4" width="1" height="1" fill="rgb(136,124,33)"/>
  <rect x="11" y="5" width="1" height="1" fill="rgb(129,118,20)" fill-opacity="0.8671875"/>
  <rect x="11" y="6" width="1" height="1" fill="rgb(223,205,104)" fill-opacity="0.5703125"/>
  <rect x="11" y="7" width="1" height="1" fill="rgb(253,236,149)" fill-opacity="0.421875"/>
  <rect x="11" y="8" width="1" height="1" fill="rgb(149,138,83)" fill-opacity="0.5625"/>
  <rect x="11" y="9" width="1" height="1" fill="rgb(154,150,113)" fill-opacity="0.75"/>
  <rect x="11" y="10" width="1" height="1" fill="rgb(217,212,176)" fill-opacity="0.7421875"/>
  <rect x="11" y="11" width="1" height="1" fill="rgb(145,142,98)" fill-opacity="0.7265625"/>
  <rect x="11" y="12" width="1" height="1" fill="rgb(70,64,4)" fill-opacity="0.484375"/>
  <rect x="11" y="13" width="1" height="1" fill="rgb(221,204,51)" fill-opacity="0.0625"/>
  <rect x="11" y="14" width="1" height="1" fill="rgb(255,255,128)" fill-opacity="0.0234375"/>
  <rect x="11" y="15" width="1" height="1" fill="rgb(85,85,0)" fill-opacity="0.015625"/>
  <rect x="11" y="16" width="1" height="5" fill="rgb(255,255,255)" fill-opacity="0.0078125"/>
  <rect x="12" y="0" width="1" height="2" fill="rgb(255,255,255)" fill-opacity="0.0078125"/>
  <rect x="12" y="2" width="1" height="1" fill="rgb(109,109,0)" fill-opacity="0.0625"/>
  <rect x="12" y="3" width="1" height="1" fill="rgb(131,121,28)" fill-opacity="0.9921875"/>
  <rect x="12" y="4" width="1" height="1" fill="rgb(255,246,170)"/>
  <rect x="12" y="5" width="1" height="1" fill="rgb(198,188,105)"/>
  <rect x="12" y="6" width="1" height="1" fill="rgb(128,116,19)" fill-opacity="0.890625"/>
  <rect x="12" y="7" width="1" height="1" fill="rgb(242,223,120)" fill-opacity="0.5390625"/>
  <rect x="12" y="8" width="1" height="1" fill="rgb(187,176,117)" fill-opacity="0.6875"/>
  <rect x="12" y="9" width="1" height="1" fill="rgb(224,219,180)" fill-opacity="0.7734375"/>
  <rect x="12" y="10" width="1" height="1" fill="rgb(154,150,113)" fill-opacity="0.75"/>
  <rect x="12" y="11" width="1" height="1" fill="rgb(92,84,28)" fill-opacity="0.546875"/>
  <rect x="12" y="12" width="1" height="1" fill="rgb(197,191,37)" fill-opacity="0.1953125"/>
  <rect x="12" y="13" width="1" height="1" fill="rgb(219,206,36)" fill-opacity="0.0859375"/>
  <rect x="12" y="14" width="1" height="1" fill="rgb(55,51,11)" fill-opacity="0.4765625"/>
  <rect x="12" y="15" width="1" height="1" fill="rgb(87,84,44)" fill-opacity="0.6015625"/>
  <rect x="12" y="16" width="1" height="1" fill="rgb(45,38,0)" fill-opacity="0.296875"/>
  <rect x="12" y="17" width="1" height="4" fill="rgb(255,255,255)" fill-opacity="0.0078125"/>
  <rect x="13" y="0" width="1" height="3" fill="rgb(255,255,255)" fill-opacity="0.0078125"/>
  <rect x="13" y="3" width="1" height="1" fill="rgb(110,99,3)" fill-opacity="0.6953125"/>
  <rect x="13" y="4" width="1" height="1" fill="rgb(198,188,105)"/>
  <rect x="13" y="5" width="1" height="1" fill="rgb(255,246,170)"/>
  <rect x="13" y="6" width="1" height="1" fill="rgb(198,188,105)"/>
  <rect x="13" y="7" width="1" height="1" fill="rgb(128,116,19)" fill-opacity="0.890625"/>
  <rect x="13" y="8" width="1" height="1" fill="rgb(230,213,117)" fill-opacity="0.59375"/>
  <rect x="13" y="9" width="1" height="1" fill="rgb(185,175,116)" fill-opacity="0.6953125"/>
  <rect x="13" y="10" width="1" height="1" fill="rgb(161,150,92)" fill-opacity="0.5234375"/>
  <rect x="13" y="11" width="1" height="1" fill="rgb(233,222,129)" fill-opacity="0.2734375"/>
  <rect x="13" y="12" width="1" height="1" fill="rgb(198,194,38)" fill-opacity="0.21875"/>
  <rect x="13" y="13" width="1" height="1" fill="rgb(193,176,26)" fill-opacity="0.1171875"/>
  <rect x="13" y="14" width="1" height="1" fill="rgb(89,86,45)" fill-opacity="0.6015625"/>
  <rect x="13" y="15" width="1" height="1" fill="rgb(253,253,210)" fill-opacity="0.6015625"/>
  <rect x="13" y="16" width="1" height="1" fill="rgb(123,122,82)" fill-opacity="0.6015625"/>
  <rect x="13" y="17" width="1" height="1" fill="rgb(43,36,0)" fill-opacity="0.3046875"/>
  <rect x="13" y="18" width="1" height="3" fill="rgb(255,255,255)" fill-opacity="0.0078125"/>
  <rect x="14" y="0" width="1" height="3" fill="rgb(255,255,255)" fill-opacity="0.0078125"/>
  <rect x="14" y="3" width="1" height="1" fill="rgb(118,98,0)" fill-opacity="0.0546875"/>
  <rect x="14" y="4" width="1" height="1" fill="rgb(112,101,5)" fill-opacity="0.796875"/>
  <rect x="14" y="5" width="1" height="1" fill="rgb(198,188,105)"/>
  <rect x="14" y="6" width="1" height="1" fill="rgb(255,246,170)"/>
  <rect x="14" y="7" width="1" height="1" fill="rgb(198,188,105)"/>
  <rect x="14" y="8" width="1" height="1" fill="rgb(128,116,19)" fill-opacity="0.890625"/>
  <rect x="14" y="9" width="1" height="1" fill="rgb(242,223,120)" fill-opacity="0.5390625"/>
  <rect x="14" y="10" width="1" height="1" fill="rgb(255,236,151)" fill-opacity="0.4140625"/>
  <rect x="14" y="11" width="1" height="1" fill="rgb(134,125,64)" fill-opacity="0.53125"/>
  <rect x="14" y="12" width="1" height="1" fill="rgb(76,71,9)" fill-opacity="0.5703125"/>
  <rect x="14" y="13" width="1" height="1" fill="rgb(60,56,4)" fill-opacity="0.5078125"/>
  <rect x="14" y="14" width="1" height="1" fill="rgb(48,43,2)" fill-opacity="0.5390625"/>
  <rect x="14" y="15" width="1" height="1" fill="rgb(125,122,83)" fill-opacity="0.6015625"/>
  <rect x="14" y="16" width="1" height="1" fill="rgb(253,252,210)" fill-opacity="0.6015625"/>
  <rect x="14" y="17" width="1" height="1" fill="rgb(123,122,82)" fill-opacity="0.6015625"/>
  <rect x="14" y="18" width="1" height="1" fill="rgb(44,40,0)" fill-opacity="0.2578125"/>
  <rect x="14" y="19" width="1" height="2" fill="rgb(255,255,255)" fill-opacity="0.0078125"/>
  <rect x="15" y="0" width="1" height="4" fill="rgb(255,255,255)" fill-opacity="0.0078125"/>
  <rect x="15" y="4" width="1" height="1" fill="rgb(118,98,0)" fill-opacity="0.0546875"/>
  <rect x="15" y="5" width="1" height="1" fill="rgb(112,101,5)" fill-opacity="0.796875"/>
  <rect x="15" y="6" width="1" height="1" fill="rgb(198,188,105)"/>
  <rect x="15" y="7" width="1" height="1" fill="rgb(255,246,170)"/>
  <rect x="15" y="8" width="1" height="1" fill="rgb(198,188,105)"/>
  <rect x="15" y="9" width="1" height="1" fill="rgb(128,116,19)" fill-opacity="0.890625"/>
  <rect x="15" y="10" width="1" height="1" fill="rgb(223,205,106)" fill-opacity="0.5703125"/>
  <rect x="15" y="11" width="1" height="1" fill="rgb(204,198,148)" fill-opacity="0.7421875"/>
  <rect x="15" y="12" width="1" height="1" fill="rgb(215,210,169)" fill-opacity="0.671875"/>
  <rect x="15" y="13" width="1" height="1" fill="rgb(214,211,176)" fill-opacity="0.6328125"/>
  <rect x="15" y="14" width="1" height="1" fill="rgb(216,212,183)" fill-opacity="0.609375"/>
  <rect x="15" y="15" width="1" height="1" fill="rgb(215,212,183)" fill-opacity="0.6015625"/>
  <rect x="15" y="16" width="1" height="1" fill="rgb(238,238,202)" fill-opacity="0.6015625"/>
  <rect x="15" y="17" width="1" height="1" fill="rgb(245,245,203)" fill-opacity="0.6015625"/>
  <rect x="15" y="18" width="1" height="1" fill="rgb(44,39,0)" fill-opacity="0.484375"/>
  <rect x="15" y="19" width="1" height="2" fill="rgb(255,255,255)" fill-opacity="0.0078125"/>
  <rect x="16" y="0" width="1" height="5" fill="rgb(255,255,255)" fill-opacity="0.0078125"/>
  <rect x="16" y="5" width="1" height="1" fill="rgb(128,91,0)" fill-opacity="0.0625"/>
  <rect x="16" y="6" width="1" height="1" fill="rgb(112,101,5)" fill-opacity="0.796875"/>
  <rect x="16" y="7" width="1" height="1" fill="rgb(198,188,105)"/>
  <rect x="16" y="8" width="1" height="1" fill="rgb(255,246,170)"/>
  <rect x="16" y="9" width="1" height="1" fill="rgb(198,188,105)"/>
  <rect x="16" y="10" width="1" height="1" fill="rgb(135,122,24)" fill-opacity="0.84375"/>
  <rect x="16" y="11" width="1" height="1" fill="rgb(144,137,49)" fill-opacity="0.5546875"/>
  <rect x="16" y="12" width="1" height="1" fill="rgb(67,63,6)" fill-opacity="0.5234375"/>
  <rect x="16" y="13" width="1" height="1" fill="rgb(54,48,4)" fill-opacity="0.484375"/>
  <rect x="16" y="14" width="1" height="1" fill="rgb(45,39,2)" fill-opacity="0.5390625"/>
  <rect x="16" y="15" width="1" height="1" fill="rgb(123,122,82)" fill-opacity="0.6015625"/>
  <rect x="16" y="16" width="1" height="1" fill="rgb(253,252,210)" fill-opacity="0.6015625"/>
  <rect x="16" y="17" width="1" height="1" fill="rgb(123,122,82)" fill-opacity="0.6015625"/>
  <rect x="16" y="18" width="1" height="1" fill="rgb(42,38,0)" fill-opacity="0.265625"/>
  <rect x="16" y="19" width="1" height="2" fill="rgb(255,255,255)" fill-opacity="0.0078125"/>
  <rect x="17" y="0" width="1" height="6" fill="rgb(255,255,255)" fill-opacity="0.0078125"/>
  <rect x="17" y="6" width="1" height="1" fill="rgb(128,91,0)" fill-opacity="0.0625"/>
  <rect x="17" y="7" width="1" height="1" fill="rgb(112,101,5)" fill-opacity="0.796875"/>
  <rect x="17" y="8" width="1" height="1" fill="rgb(198,188,105)"/>
  <rect x="17" y="9" width="1" height="1" fill="rgb(255,246,170)"/>
  <rect x="17" y="10" width="1" height="1" fill="rgb(132,121,28)" fill-opacity="0.9921875"/>
  <rect x="17" y="11" width="1" height="1" fill="rgb(190,182,39)" fill-opacity="0.234375"/>
  <rect x="17" y="12" width="1" height="1" fill="rgb(228,215,40)" fill-opacity="0.078125"/>
  <rect x="17" y="13" width="1" height="1" fill="rgb(204,179,77)" fill-opacity="0.046875"/>
  <rect x="17" y="14" width="1" height="1" fill="rgb(87,84,44)" fill-opacity="0.6015625"/>
  <rect x="17" y="15" width="1" height="1" fill="rgb(253,252,210)" fill-opacity="0.6015625"/>
  <rect x="17" y="16" width="1" height="1" fill="rgb(123,122,82)" fill-opacity="0.6015625"/>
  <rect x="17" y="17" width="1" height="1" fill="rgb(43,36,0)" fill-opacity="0.3046875"/>
  <rect x="17" y="18" width="1" height="3" fill="rgb(255,255,255)" fill-opacity="0.0078125"/>
  <rect x="18" y="0" width="1" height="7" fill="rgb(255,255,255)" fill-opacity="0.0078125"/>
  <rect x="18" y="7" width="1" height="1" fill="rgb(118,98,0)" fill-opacity="0.0546875"/>
  <rect x="18" y="8" width="1" height="1" fill="rgb(109,98,3)" fill-opacity="0.7421875"/>
  <rect x="18" y="9" width="1" height="1" fill="rgb(135,125,33)" fill-opacity="0.9921875"/>
  <rect x="18" y="10" width="1" height="1" fill="rgb(116,106,4)" fill-opacity="0.6953125"/>
  <rect x="18" y="11" width="1" height="1" fill="rgb(220,197,35)" fill-opacity="0.09375"/>
  <rect x="18" y="12" width="1" height="1" fill="rgb(255,227,85)" fill-opacity="0.0390625"/>
  <rect x="18" y="13" width="1" height="1" fill="rgb(255,255,170)" fill-opacity="0.015625"/>
  <rect x="18" y="14" width="1" height="1" fill="rgb(51,46,9)" fill-opacity="0.4609375"/>
  <rect x="18" y="15" width="1" height="1" fill="rgb(86,84,44)" fill-opacity="0.5859375"/>
  <rect x="18" y="16" width="1" height="1" fill="rgb(45,38,0)" fill-opacity="0.2890625"/>
  <rect x="18" y="17" width="1" height="4" fill="rgb(255,255,255)" fill-opacity="0.0078125"/>
  <rect x="19" y="0" width="1" height="8" fill="rgb(255,255,255)" fill-opacity="0.0078125"/>
  <rect x="19" y="8" width="1" height="1" fill="rgb(0,0,0)" fill-opacity="0.0078125"/>
  <rect x="19" y="9" width="1" height="1" fill="rgb(128,128,0)" fill-opacity="0.0390625"/>
  <rect x="19" y="10" width="1" height="4" fill="rgb(255,255,255)" fill-opacity="0.0078125"/>
  <rect x="19" y="14" width="1" height="1" fill="rgb(0,0,0)" fill-opacity="0.0078125"/>
  <rect x="19" y="15" width="1" height="1" fill="rgb(36,36,0)" fill-opacity="0.03125"/>
  <rect x="19" y="16" width="1" height="5" fill="rgb(255,255,255)" fill-opacity="0.0078125"/>
  <rect x="20" y="0" width="1" height="21" fill="rgb(255,255,255)" fill-opacity="0.0078125"/>
</svg>