<svg xmlns="http://www.w3.org/2000/svg" shape-rendering="crispEdges" width="21" height="21" viewBox="0 0 21 21">
  <rect x="0" y="0" width="21" height="1" fill="rgb(255,255,255)" fill-opacity="0.0078125"/>
  <rect x="0" y="1" width="21" height="1" fill="rgb(255,255,255)" fill-opacity="0.0078125"/>
  <rect x="0" y="2" width="21" height="1" fill="rgb(255,255,255)" fill-opacity="0.0078125"/>
  <rect x="0" y="3" width="12" height="1" fill="rgb(255,255,255)" fill-opacity="0.0078125"/>
  <rect x="12" y="3" width="1" height="1" fill="rgb(51,51,51)" fill-opacity="0.046875"/>
  <rect x="13" y="3" width="1" height="1" fill="rgb(60,60,60)" fill-opacity="0.3203125"/>
  <rect x="14" y="3" width="1" height="1" fill="rgb(249,249,249)" fill-opacity="0.3515625"/>
  <rect x="15" y="3" width="1" height="1" fill="rgb(206,206,206)" fill-opacity="0.3515625"/>
  <rect x="16" y="3" width="1" height="1" fill="rgb(152,152,152)" fill-opacity="0.34375"/>
  <rect x="17" y="3" width="1" height="1" fill="rgb(60,60,60)" fill-opacity="0.3203125"/>
  <rect x="18" y="3" width="1" height="1" fill="rgb(51,51,51)" fill-opacity="0.046875"/>
  <rect x="19" y="3" width="2" height="1" fill="rgb(255,255,255)" fill-opacity="0.0078125"/>
  <rect x="0" y="4" width="3" height="1" fill="rgb(255,255,255)" fill-opacity="0.0078125"/>
  <rect x="3" y="4" width="1" height="1" fill="rgb(44,44,44)" fill-opacity="0.53125"/>
  <rect x="4" y="4" width="8" height="1" fill="rgb(43,43,43)" fill-opacity="0.6328125"/>
  <rect x="12" y="4" width="1" height="1" fill="rgb(55,55,55)" fill-opacity="0.84375"/>
  <rect x="13" y="4" width="1" height="1" fill="rgb(249,249,249)"/>
  <rect x="14" y="4" width="1" height="1" fill="rgb(169,169,169)" fill-opacity="0.9921875"/>
  <rect x="15" y="4" width="1" height="1" fill="rgb(76,76,76)" fill-opacity="0.921875"/>
  <rect x="16" y="4" width="1" height="1" fill="rgb(165,165,165)" fill-opacity="0.9765625"/>
  <rect x="17" y="4" width="1" height="1" fill="rgb(157,157,157)" fill-opacity="0.9921875"/>
  <rect x="18" y="4" width="1" height="1" fill="rgb(60,60,60)" fill-opacity="0.5703125"/>
  <rect x="19" y="4" width="2" height="1" fill="rgb(255,255,255)" fill-opacity="0.0078125"/>
  <rect x="0" y="5" width="3" height="1" fill="rgb(255,255,255)" fill-opacity="0.0078125"/>
  <rect x="3" y="5" width="1" height="1" fill="rgb(45,45,45)" fill-opacity="0.640625"/>
  <rect x="4" y="5" width="1" height="1" fill="rgb(248,248,248)" fill-opacity="0.703125"/>
  <rect x="5" y="5" width="6" height="1" fill="rgb(254,254,254)" fill-opacity="0.703125"/>
  <rect x="11" y="5" width="1" height="1" fill="rgb(251,251,251)" fill-opacity="0.703125"/>
  <rect x="12" y="5" width="1" height="1" fill="rgb(74,74,74)" fill-opacity="0.9765625"/>
  <rect x="13" y="5" width="1" height="1" fill="rgb(255,255,255)"/>
  <rect x="14" y="5" width="1" height="1" fill="rgb(64,64,64)" fill-opacity="0.96875"/>
  <rect x="15" y="5" width="1" height="1" fill="rgb(44,44,44)" fill-opacity="0.1171875"/>
  <rect x="16" y="5" width="1" height="1" fill="rgb(65,65,65)" fill-opacity="0.921875"/>
  <rect x="17" y="5" width="1" height="1" fill="rgb(215,215,215)"/>
  <rect x="18" y="5" width="1" height="1" fill="rgb(61,61,61)" fill-opacity="0.90625"/>
  <rect x="19" y="5" width="2" height="1" fill="rgb(255,255,255)" fill-opacity="0.0078125"/>
  <rect x="0" y="6" width="3" height="1" fill="rgb(255,255,255)" fill-opacity="0.0078125"/>
  <rect x="3" y="6" width="1" height="1" fill="rgb(45,45,45)" fill-opacity="0.640625"/>
  <rect x="4" y="6" width="1" height="1" fill="rgb(255,255,255)" fill-opacity="0.703125"/>
  <rect x="5" y="6" width="4" height="1" fill="rgb(218,218,218)" fill-opacity="0.703125"/>
  <rect x="9" y="6" width="1" height="1" fill="rgb(204,204,204)" fill-opacity="0.703125"/>
  <rect x="10" y="6" width="1" height="1" fill="rgb(182,182,182)" fill-opacity="0.703125"/>
  <rect x="11" y="6" width="1" height="1" fill="rgb(162,162,162)" fill-opacity="0.703125"/>
  <rect x="12" y="6" width="1" height="1" fill="rgb(67,67,67)" fill-opacity="0.9765625"/>
  <rect x="13" y="6" width="1" height="1" fill="rgb(238,238,238)"/>
  <rect x="14" y="6" width="1" height="1" fill="rgb(62,62,62)" fill-opacity="0.9765625"/>
  <rect x="15" y="6" width="1" height="1" fill="rgb(36,36,36)" fill-opacity="0.03125"/>
  <rect x="16" y="6" width="1" height="1" fill="rgb(63,63,63)" fill-opacity="0.921875"/>
  <rect x="17" y="6" width="1" height="1" fill="rgb(217,217,217)"/>
  <rect x="18" y="6" width="1" height="1" fill="rgb(61,61,61)" fill-opacity="0.90625"/>
  <rect x="19" y="6" width="2" height="1" fill="rgb(255,255,255)" fill-opacity="0.0078125"/>
  <rect x="0" y="7" width="3" height="1" fill="rgb(255,255,255)" fill-opacity="0.0078125"/>
  <rect x="3" y="7" width="1" height="1" fill="rgb(45,45,45)" fill-opacity="0.640625"/>
  <rect x="4" y="7" width="1" height="1" fill="rgb(255,255,255)" fill-opacity="0.703125"/>
  <rect x="5" y="7" width="4" height="1" fill="rgb(215,215,215)" fill-opacity="0.703125"/>
  <rect x="9" y="7" width="1" height="1" fill="rgb(202,202,202)" fill-opacity="0.703125"/>
  <rect x="10" y="7" width="1" height="1" fill="rgb(182,182,182)" fill-opacity="0.703125"/>
  <rect x="11" y="7" width="1" height="1" fill="rgb(162,162,162)" fill-opacity="0.703125"/>
  <rect x="12" y="7" width="1" height="1" fill="rgb(90,90,90)" fill-opacity="0.8828125"/>
  <rect x="13" y="7" width="1" height="1" fill="rgb(161,161,161)"/>
  <rect x="14" y="7" width="1" height="1" fill="rgb(140,140,140)" fill-opacity="0.984375"/>
  <rect x="15" y="7" width="1" height="1" fill="rgb(60,60,60)" fill-opacity="0.9296875"/>
  <rect x="16" y="7" width="1" height="1" fill="rgb(143,143,143)" fill-opacity="0.953125"/>
  <rect x="17" y="7" width="1" height="1" fill="rgb(162,162,162)"/>
  <rect x="18" y="7" width="1" height="1" fill="rgb(61,61,61)" fill-opacity="0.609375"/>
  <rect x="19" y="7" width="2" height="1" fill="rgb(255,255,255)" fill-opacity="0.0078125"/>
  <rect x="0" y="8" width="3" height="1" fill="rgb(255,255,255)" fill-opacity="0.0078125"/>
  <rect x="3" y="8" width="1" height="1" fill="rgb(45,45,45)" fill-opacity="0.640625"/>
  <rect x="4" y="8" width="1" height="1" fill="rgb(255,255,255)" fill-opacity="0.703125"/>
  <rect x="5" y="8" width="4" height="1" fill="rgb(215,215,215)" fill-opacity="0.703125"/>
  <rect x="9" y="8" width="1" height="1" fill="rgb(207,207,207)" fill-opacity="0.703125"/>
  <rect x="10" y="8" width="1" height="1" fill="rgb(188,188,188)" fill-opacity="0.703125"/>
  <rect x="11" y="8" width="1" height="1" fill="rgb(172,172,172)" fill-opacity="0.703125"/>
  <rect x="12" y="8" width="1" height="1" fill="rgb(140,140,140)" fill-opacity="0.7421875"/>
  <rect x="13" y="8" width="1" height="1" fill="rgb(71,71,71)" fill-opacity="0.984375"/>
  <rect x="14" y="8" width="1" height="1" fill="rgb(166,166,166)"/>
  <rect x="15" y="8" width="1" height="1" fill="rgb(215,215,215)"/>
  <rect x="16" y="8" width="1" height="1" fill="rgb(167,167,167)"/>
  <rect x="17" y="8" width="1" height="1" fill="rgb(66,66,66)" fill-opacity="0.9296875"/>
  <rect x="18" y="8" width="1" height="1" fill="rgb(44,44,44)" fill-opacity="0.140625"/>
  <rect x="19" y="8" width="2" height="1" fill="rgb(255,255,255)" fill-opacity="0.0078125"/>
  <rect x="0" y="9" width="3" height="1" fill="rgb(255,255,255)" fill-opacity="0.0078125"/>
  <rect x="3" y="9" width="1" height="1" fill="rgb(45,45,45)" fill-opacity="0.640625"/>
  <rect x="4" y="9" width="1" height="1" fill="rgb(255,255,255)" fill-opacity="0.703125"/>
  <rect x="5" y="9" width="4" height="1" fill="rgb(215,215,215)" fill-opacity="0.703125"/>
  <rect x="9" y="9" width="1" height="1" fill="rgb(214,214,214)" fill-opacity="0.703125"/>
  <rect x="10" y="9" width="1" height="1" fill="rgb(197,197,197)" fill-opacity="0.703125"/>
  <rect x="11" y="9" width="1" height="1" fill="rgb(182,182,182)" fill-opacity="0.703125"/>
  <rect x="12" y="9" width="1" height="1" fill="rgb(171,171,171)" fill-opacity="0.703125"/>
  <rect x="13" y="9" width="1" height="1" fill="rgb(150,150,150)" fill-opacity="0.75"/>
  <rect x="14" y="9" width="1" height="1" fill="rgb(55,55,55)" fill-opacity="0.875"/>
  <rect x="15" y="9" width="1" height="1" fill="rgb(58,58,58)" fill-opacity="0.921875"/>
  <rect x="16" y="9" width="1" height="1" fill="rgb(62,62,62)" fill-opacity="0.6328125"/>
  <rect x="17" y="9" width="1" height="1" fill="rgb(46,46,46)" fill-opacity="0.15625"/>
  <rect x="18" y="9" width="3" height="1" fill="rgb(255,255,255)" fill-opacity="0.0078125"/>
  <rect x="0" y="10" width="3" height="1" fill="rgb(255,255,255)" fill-opacity="0.0078125"/>
  <rect x="3" y="10" width="1" height="1" fill="rgb(45,45,45)" fill-opacity="0.640625"/>
  <rect x="4" y="10" width="1" height="1" fill="rgb(255,255,255)" fill-opacity="0.703125"/>
  <rect x="5" y="10" width="5" height="1" fill="rgb(215,215,215)" fill-opacity="0.703125"/>
  <rect x="10" y="10" width="1" height="1" fill="rgb(198,198,198)" fill-opacity="0.703125"/>
  <rect x="11" y="10" width="1" height="1" fill="rgb(178,178,178)" fill-opacity="0.703125"/>
  <rect x="12" y="10" width="2" height="1" fill="rgb(167,167,167)" fill-opacity="0.703125"/>
  <rect x="14" y="10" width="1" height="1" fill="rgb(35,35,35)" fill-opacity="0.65625"/>
  <rect x="15" y="10" width="6" height="1" fill="rgb(255,255,255)" fill-opacity="0.0078125"/>
  <rect x="0" y="11" width="3" height="1" fill="rgb(255,255,255)" fill-opacity="0.0078125"/>
  <rect x="3" y="11" width="1" height="1" fill="rgb(45,45,45)" fill-opacity="0.640625"/>
  <rect x="4" y="11" width="1" height="1" fill="rgb(255,255,255)" fill-opacity="0.703125"/>
  <rect x="5" y="11" width="4" height="1" fill="rgb(215,215,215)" fill-opacity="0.703125"/>
  <rect x="9" y="11" width="1" height="1" fill="rgb(207,207,207)" fill-opacity="0.703125"/>
  <rect x="10" y="11" width="1" height="1" fill="rgb(191,191,191)" fill-opacity="0.703125"/>
  <rect x="11" y="11" width="1" height="1" fill="rgb(171,171,171)" fill-opacity="0.703125"/>
  <rect x="12" y="11" width="1" height="1" fill="rgb(158,158,158)" fill-opacity="0.703125"/>
  <rect x="13" y="11" width="1" height="1" fill="rgb(152,152,152)" fill-opacity="0.703125"/>
  <rect x="14" y="11" width="1" height="1" fill="rgb(32,32,32)" fill-opacity="0.65625"/>
  <rect x="15" y="11" width="6" height="1" fill="rgb(255,255,255)" fill-opacity="0.0078125"/>
  <rect x="0" y="12" width="3" height="1" fill="rgb(255,255,255)" fill-opacity="0.0078125"/>
  <rect x="3" y="12" width="1" height="1" fill="rgb(45,45,45)" fill-opacity="0.640625"/>
  <rect x="4" y="12" width="1" height="1" fill="rgb(251,251,251)" fill-opacity="0.703125"/>
  <rect x="5" y="12" width="4" height="1" fill="rgb(215,215,215)" fill-opacity="0.703125"/>
  <rect x="9" y="12" width="1" height="1" fill="rgb(197,197,197)" fill-opacity="0.703125"/>
  <rect x="10" y="12" width="1" height="1" fill="rgb(179,179,179)" fill-opacity="0.703125"/>
  <rect x="11" y="12" width="1" height="1" fill="rgb(161,161,161)" fill-opacity="0.703125"/>
  <rect x="12" y="12" width="1" height="1" fill="rgb(145,145,145)" fill-opacity="0.703125"/>
  <rect x="13" y="12" width="1" height="1" fill="rgb(128,128,128)" fill-opacity="0.71875"/>
  <rect x="14" y="12" width="1" height="1" fill="rgb(42,42,42)" fill-opacity="0.8125"/>
  <rect x="15" y="12" width="1" height="1" fill="rgb(62,62,62)" fill-opacity="0.78125"/>
  <rect x="16" y="12" width="1" height="1" fill="rgb(54,54,54)" fill-opacity="0.4453125"/>
  <rect x="17" y="12" width="1" height="1" fill="rgb(51,51,51)" fill-opacity="0.0625"/>
  <rect x="18" y="12" width="3" height="1" fill="rgb(255,255,255)" fill-opacity="0.0078125"/>
  <rect x="0" y="13" width="3" height="1" fill="rgb(255,255,255)" fill-opacity="0.0078125"/>
  <rect x="3" y="13" width="1" height="1" fill="rgb(45,45,45)" fill-opacity="0.640625"/>
  <rect x="4" y="13" width="1" height="1" fill="rgb(246,246,246)" fill-opacity="0.703125"/>
  <rect x="5" y="13" width="3" height="1" fill="rgb(215,215,215)" fill-opacity="0.703125"/>
  <rect x="8" y="13" width="1" height="1" fill="rgb(214,214,214)" fill-opacity="0.703125"/>
  <rect x="9" y="13" width="1" height="1" fill="rgb(194,194,194)" fill-opacity="0.703125"/>
  <rect x="10" y="13" width="1" height="1" fill="rgb(175,175,175)" fill-opacity="0.703125"/>
  <rect x="11" y="13" width="1" height="1" fill="rgb(155,155,155)" fill-opacity="0.703125"/>
  <rect x="12" y="13" width="1" height="1" fill="rgb(123,123,123)" fill-opacity="0.734375"/>
  <rect x="13" y="13" width="1" height="1" fill="rgb(62,62,62)" fill-opacity="0.9765625"/>
  <rect x="14" y="13" width="1" height="1" fill="rgb(241,241,241)"/>
  <rect x="15" y="13" width="1" height="1" fill="rgb(197,197,197)"/>
  <rect x="16" y="13" width="1" height="1" fill="rgb(140,140,140)" fill-opacity="0.9765625"/>
  <rect x="17" y="13" width="1" height="1" fill="rgb(59,59,59)" fill-opacity="0.921875"/>
  <rect x="18" y="13" width="1" height="1" fill="rgb(41,41,41)" fill-opacity="0.1015625"/>
  <rect x="19" y="13" width="2" height="1" fill="rgb(255,255,255)" fill-opacity="0.0078125"/>
  <rect x="0" y="14" width="3" height="1" fill="rgb(255,255,255)" fill-opacity="0.0078125"/>
  <rect x="3" y="14" width="1" height="1" fill="rgb(45,45,45)" fill-opacity="0.640625"/>
  <rect x="4" y="14" width="1" height="1" fill="rgb(241,241,241)" fill-opacity="0.703125"/>
  <rect x="5" y="14" width="1" height="1" fill="rgb(85,85,85)" fill-opacity="0.703125"/>
  <rect x="6" y="14" width="1" height="1" fill="rgb(221,221,221)" fill-opacity="0.703125"/>
  <rect x="7" y="14" width="2" height="1" fill="rgb(85,85,85)" fill-opacity="0.703125"/>
  <rect x="9" y="14" width="1" height="1" fill="rgb(78,78,78)" fill-opacity="0.703125"/>
  <rect x="10" y="14" width="1" height="1" fill="rgb(70,70,70)" fill-opacity="0.703125"/>
  <rect x="11" y="14" width="1" height="1" fill="rgb(63,63,63)" fill-opacity="0.703125"/>
  <rect x="12" y="14" width="1" height="1" fill="rgb(57,57,57)" fill-opacity="0.8671875"/>
  <rect x="13" y="14" width="1" height="1" fill="rgb(242,242,242)"/>
  <rect x="14" y="14" width="1" height="1" fill="rgb(182,182,182)"/>
  <rect x="15" y="14" width="1" height="1" fill="rgb(87,87,87)" fill-opacity="0.921875"/>
  <rect x="16" y="14" width="1" height="1" fill="rgb(173,173,173)" fill-opacity="0.984375"/>
  <rect x="17" y="14" width="1" height="1" fill="rgb(150,150,150)" fill-opacity="0.984375"/>
  <rect x="18" y="14" width="1" height="1" fill="rgb(57,57,57)" fill-opacity="0.546875"/>
  <rect x="19" y="14" width="2" height="1" fill="rgb(255,255,255)" fill-opacity="0.0078125"/>
  <rect x="0" y="15" width="3" height="1" fill="rgb(255,255,255)" fill-opacity="0.0078125"/>
  <rect x="3" y="15" width="1" height="1" fill="rgb(44,44,44)" fill-opacity="0.5703125"/>
  <rect x="4" y="15" width="1" height="1" fill="rgb(203,203,203)" fill-opacity="0.703125"/>
  <rect x="5" y="15" width="1" height="1" fill="rgb(224,224,224)" fill-opacity="0.703125"/>
  <rect x="6" y="15" width="1" height="1" fill="rgb(218,218,218)" fill-opacity="0.703125"/>
  <rect x="7" y="15" width="1" height="1" fill="rgb(214,214,214)" fill-opacity="0.703125"/>
  <rect x="8" y="15" width="2" height="1" fill="rgb(207,207,207)" fill-opacity="0.703125"/>
  <rect x="10" y="15" width="2" height="1" fill="rgb(205,205,205)" fill-opacity="0.703125"/>
  <rect x="12" y="15" width="1" height="1" fill="rgb(71,71,71)" fill-opacity="0.96875"/>
  <rect x="13" y="15" width="1" height="1" fill="rgb(255,255,255)"/>
  <rect x="14" y="15" width="1" height="1" fill="rgb(66,66,66)" fill-opacity="0.96875"/>
  <rect x="15" y="15" width="1" height="1" fill="rgb(45,45,45)" fill-opacity="0.1796875"/>
  <rect x="16" y="15" width="1" height="1" fill="rgb(68,68,68)" fill-opacity="0.921875"/>
  <rect x="17" y="15" width="1" height="1" fill="rgb(214,214,214)"/>
  <rect x="18" y="15" width="1" height="1" fill="rgb(60,60,60)" fill-opacity="0.8984375"/>
  <rect x="19" y="15" width="2" height="1" fill="rgb(255,255,255)" fill-opacity="0.0078125"/>
  <rect x="0" y="16" width="3" height="1" fill="rgb(255,255,255)" fill-opacity="0.0078125"/>
  <rect x="3" y="16" width="1" height="1" fill="rgb(20,20,20)" fill-opacity="0.0546875"/>
  <rect x="4" y="16" width="1" height="1" fill="rgb(43,43,43)" fill-opacity="0.5859375"/>
  <rect x="5" y="16" width="7" height="1" fill="rgb(48,48,48)" fill-opacity="0.6484375"/>
  <rect x="12" y="16" width="1" height="1" fill="rgb(60,60,60)" fill-opacity="0.96875"/>
  <rect x="13" y="16" width="1" height="1" fill="rgb(241,241,241)"/>
  <rect x="14" y="16" width="1" height="1" fill="rgb(63,63,63)" fill-opacity="0.9609375"/>
  <rect x="15" y="16" width="1" height="1" fill="rgb(64,64,64)" fill-opacity="0.0234375"/>
  <rect x="16" y="16" width="1" height="1" fill="rgb(63,63,63)" fill-opacity="0.921875"/>
  <rect x="17" y="16" width="1" height="1" fill="rgb(218,218,218)"/>
  <rect x="18" y="16" width="1" height="1" fill="rgb(60,60,60)" fill-opacity="0.9140625"/>
  <rect x="19" y="16" width="2" height="1" fill="rgb(255,255,255)" fill-opacity="0.0078125"/>
  <rect x="0" y="17" width="12" height="1" fill="rgb(255,255,255)" fill-opacity="0.0078125"/>
  <rect x="12" y="17" width="1" height="1" fill="rgb(61,61,61)" fill-opacity="0.640625"/>
  <rect x="13" y="17" width="1" height="1" fill="rgb(167,167,167)"/>
  <rect x="14" y="17" width="1" height="1" fill="rgb(133,133,133)" fill-opacity="0.9453125"/>
  <rect x="15" y="17" width="1" height="1" fill="rgb(57,57,57)" fill-opacity="0.9296875"/>
  <rect x="16" y="17" width="1" height="1" fill="rgb(133,133,133)" fill-opacity="0.9453125"/>
  <rect x="17" y="17" width="1" height="1" fill="rgb(167,167,167)"/>
  <rect x="18" y="17" width="1" height="1" fill="rgb(61,61,61)" fill-opacity="0.640625"/>
  <rect x="19" y="17" width="2" height="1" fill="rgb(255,255,255)" fill-opacity="0.0078125"/>
  <rect x="0" y="18" width="12" height="1" fill="rgb(255,255,255)" fill-opacity="0.0078125"/>
  <rect x="12" y="18" width="1" height="1" fill="rgb(43,43,43)" fill-opacity="0.078125"/>
  <rect x="13" y="18" width="1" height="1" fill="rgb(71,71,71)" fill-opacity="0.4296875"/>
  <rect x="14" y="18" width="1" height="1" fill="rgb(178,178,178)" fill-opacity="0.4609375"/>
  <rect x="15" y="18" width="1" height="1" fill="rgb(220,220,220)" fill-opacity="0.4609375"/>
  <rect x="16" y="18" width="1" height="1" fill="rgb(178,178,178)" fill-opacity="0.4609375"/>
  <rect x="17" y="18" width="1" height="1" fill="rgb(71,71,71)" fill-opacity="0.4296875"/>
  <rect x="18" y="18" width="1" height="1" fill="rgb(43,43,43)" fill-opacity="0.078125"/>
  <rect x="19" y="18" width="2" height="1" fill="rgb(255,255,255)" fill-opacity="0.0078125"/>
  <rect x="0" y="19" width="21" height="1" fill="rgb(255,255,255)" fill-opacity="0.0078125"/>
  <rect x="0" y="20" width="21" height="1" fill="rgb(255,255,255)" fill-opacity="0.0078125"/>
</svg>