<svg xmlns="http://www.w3.org/2000/svg" shape-rendering="crispEdges" width="21" height="21" viewBox="0 0 21 21">
  <rect x="0" y="0" width="1" height="21" fill="rgb(255,255,255)" fill-opacity="0.0078125"/>
  <rect x="1" y="0" width="1" height="21" fill="rgb(255,255,255)" fill-opacity="0.0078125"/>
  <rect x="2" y="0" width="1" height="21" fill="rgb(255,255,255)" fill-opacity="0.0078125"/>
  <rect x="3" y="0" width="1" height="21" fill="rgb(255,255,255)" fill-opacity="0.0078125"/>
  <rect x="4" y="0" width="1" height="6" fill="rgb(255,255,255)" fill-opacity="0.0078125"/>
  <rect x="4" y="6" width="1" height="1" fill="rgb(57,57,57)" fill-opacity="0.5625"/>
  <rect x="4" y="7" width="1" height="1" fill="rgb(46,46,46)"/>
  <rect x="4" y="8" width="1" height="5" fill="rgb(66,66,66)"/>
  <rect x="4" y="13" width="1" height="1" fill="rgb(63,63,63)"/>
  <rect x="4" y="14" width="1" height="1" fill="rgb(51,51,51)"/>
  <rect x="4" y="15" width="1" height="1" fill="rgb(58,58,58)" fill-opacity="0.5859375"/>
  <rect x="4" y="16" width="1" height="5" fill="rgb(255,255,255)" fill-opacity="0.0078125"/>
  <rect x="5" y="0" width="1" height="6" fill="rgb(255,255,255)" fill-opacity="0.0078125"/>
  <rect x="5" y="6" width="1" height="1" fill="rgb(54,54,54)" fill-opacity="0.7109375"/>
  <rect x="5" y="7" width="1" height="1" fill="rgb(192,192,192)"/>
  <rect x="5" y="8" width="1" height="1" fill="rgb(251,251,251)"/>
  <rect x="5" y="9" width="1" height="1" fill="rgb(242,225,79)"/>
  <rect x="5" y="10" width="1" height="1" fill="rgb(240,215,0)"/>
  <rect x="5" y="11" width="1" height="1" fill="rgb(240,223,77)"/>
  <rect x="5" y="12" width="1" height="1" fill="rgb(238,238,238)"/>
  <rect x="5" y="13" width="1" height="1" fill="rgb(231,231,231)"/>
  <rect x="5" y="14" width="1" height="1" fill="rgb(226,226,226)"/>
  <rect x="5" y="15" width="1" height="1" fill="rgb(55,55,55)"/>
  <rect x="5" y="16" width="1" height="1" fill="rgb(76,76,76)" fill-opacity="0.1484375"/>
  <rect x="5" y="17" width="1" height="4" fill="rgb(255,255,255)" fill-opacity="0.0078125"/>
  <rect x="6" y="0" width="1" height="6" fill="rgb(255,255,255)" fill-opacity="0.0078125"/>
  <rect x="6" y="6" width="1" height="1" fill="rgb(73,73,73)" fill-opacity="0.171875"/>
  <rect x="6" y="7" width="1" height="1" fill="rgb(74,74,74)"/>
  <rect x="6" y="8" width="1" height="1" fill="rgb(250,250,250)"/>
  <rect x="6" y="9" width="1" height="1" fill="rgb(240,215,0)"/>
  <rect x="6" y="10" width="1" height="1" fill="rgb(255,255,255)"/>
  <rect x="6" y="11" width="1" height="1" fill="rgb(240,215,0)"/>
  <rect x="6" y="12" width="1" height="1" fill="rgb(218,218,218)"/>
  <rect x="6" y="13" width="1" height="1" fill="rgb(211,211,211)"/>
  <rect x="6" y="14" width="1" height="1" fill="rgb(215,215,215)"/>
  <rect x="6" y="15" width="1" height="1" fill="rgb(153,153,153)"/>
  <rect x="6" y="16" width="1" height="1" fill="rgb(55,55,55)" fill-opacity="0.75"/>
  <rect x="6" y="17" width="1" height="4" fill="rgb(255,255,255)" fill-opacity="0.0078125"/>
  <rect x="7" y="0" width="1" height="4" fill="rgb(255,255,255)" fill-opacity="0.0078125"/>
  <rect x="7" y="4" width="1" height="1" fill="rgb(77,77,77)" fill-opacity="0.1640625"/>
  <rect x="7" y="5" width="1" height="1" fill="rgb(62,62,62)" fill-opacity="0.6796875"/>
  <rect x="7" y="6" width="1" height="1" fill="rgb(53,53,53)" fill-opacity="0.71875"/>
  <rect x="7" y="7" width="1" height="1" fill="rgb(43,43,43)" fill-opacity="0.953125"/>
  <rect x="7" y="8" width="1" height="1" fill="rgb(220,220,220)"/>
  <rect x="7" y="9" width="1" height="1" fill="rgb(243,226,80)"/>
  <rect x="7" y="10" width="1" height="1" fill="rgb(240,215,0)"/>
  <rect x="7" y="11" width="1" height="1" fill="rgb(238,221,75)"/>
  <rect x="7" y="12" width="1" height="1" fill="rgb(227,227,227)"/>
  <rect x="7" y="13" width="1" height="1" fill="rgb(170,170,170)"/>
  <rect x="7" y="14" width="1" height="1" fill="rgb(111,111,111)"/>
  <rect x="7" y="15" width="1" height="1" fill="rgb(219,219,219)"/>
  <rect x="7" y="16" width="1" height="1" fill="rgb(52,52,52)"/>
  <rect x="7" y="17" width="1" height="1" fill="rgb(76,76,76)" fill-opacity="0.1484375"/>
  <rect x="7" y="18" width="1" height="3" fill="rgb(255,255,255)" fill-opacity="0.0078125"/>
  <rect x="8" y="0" width="1" height="4" fill="rgb(255,255,255)" fill-opacity="0.0078125"/>
  <rect x="8" y="4" width="1" height="1" fill="rgb(77,77,77)" fill-opacity="0.2265625"/>
  <rect x="8" y="5" width="1" height="1" fill="rgb(94,94,94)" fill-opacity="0.765625"/>
  <rect x="8" y="6" width="1" height="1" fill="rgb(238,238,238)" fill-opacity="0.8046875"/>
  <rect x="8" y="7" width="1" height="1" fill="rgb(203,203,203)" fill-opacity="0.8515625"/>
  <rect x="8" y="8" width="1" height="1" fill="rgb(100,100,100)"/>
  <rect x="8" y="9" width="1" height="1" fill="rgb(254,254,254)"/>
  <rect x="8" y="10" width="1" height="1" fill="rgb(249,249,249)"/>
  <rect x="8" y="11" width="1" height="1" fill="rgb(242,242,242)"/>
  <rect x="8" y="12" width="1" height="1" fill="rgb(235,235,235)"/>
  <rect x="8" y="13" width="1" height="1" fill="rgb(115,115,115)"/>
  <rect x="8" y="14" width="1" height="1" fill="rgb(75,75,75)"/>
  <rect x="8" y="15" width="1" height="1" fill="rgb(220,220,220)"/>
  <rect x="8" y="16" width="1" height="1" fill="rgb(140,140,140)"/>
  <rect x="8" y="17" width="1" height="1" fill="rgb(55,55,55)" fill-opacity="0.75"/>
  <rect x="8" y="18" width="1" height="3" fill="rgb(255,255,255)" fill-opacity="0.0078125"/>
  <rect x="9" y="0" width="1" height="4" fill="rgb(255,255,255)" fill-opacity="0.0078125"/>
  <rect x="9" y="4" width="1" height="1" fill="rgb(128,128,128)" fill-opacity="0.015625"/>
  <rect x="9" y="5" width="1" height="1" fill="rgb(60,60,60)" fill-opacity="0.640625"/>
  <rect x="9" y="6" width="1" height="1" fill="rgb(211,211,211)" fill-opacity="0.8046875"/>
  <rect x="9" y="7" width="1" height="1" fill="rgb(190,190,190)" fill-opacity="0.8046875"/>
  <rect x="9" y="8" width="1" height="1" fill="rgb(94,94,94)" fill-opacity="0.9765625"/>
  <rect x="9" y="9" width="1" height="1" fill="rgb(231,231,231)"/>
  <rect x="9" y="10" width="1" height="1" fill="rgb(255,255,255)"/>
  <rect x="9" y="11" width="1" height="1" fill="rgb(94,158,254)"/>
  <rect x="9" y="12" width="1" height="1" fill="rgb(92,156,252)"/>
  <rect x="9" y="13" width="1" height="1" fill="rgb(90,154,250)"/>
  <rect x="9" y="14" width="1" height="1" fill="rgb(89,153,249)"/>
  <rect x="9" y="15" width="1" height="1" fill="rgb(122,170,242)"/>
  <rect x="9" y="16" width="1" height="1" fill="rgb(216,216,216)"/>
  <rect x="9" y="17" width="1" height="1" fill="rgb(49,49,49)"/>
  <rect x="9" y="18" width="1" height="1" fill="rgb(76,76,76)" fill-opacity="0.1484375"/>
  <rect x="9" y="19" width="1" height="2" fill="rgb(255,255,255)" fill-opacity="0.0078125"/>
  <rect x="10" y="0" width="1" height="3" fill="rgb(255,255,255)" fill-opacity="0.0078125"/>
  <rect x="10" y="3" width="1" height="1" fill="rgb(73,73,73)" fill-opacity="0.484375"/>
  <rect x="10" y="4" width="1" height="1" fill="rgb(66,66,66)" fill-opacity="0.6953125"/>
  <rect x="10" y="5" width="1" height="1" fill="rgb(67,67,67)" fill-opacity="0.734375"/>
  <rect x="10" y="6" width="1" height="1" fill="rgb(126,126,126)" fill-opacity="0.796875"/>
  <rect x="10" y="7" width="1" height="1" fill="rgb(219,219,219)" fill-opacity="0.8046875"/>
  <rect x="10" y="8" width="1" height="1" fill="rgb(172,172,172)" fill-opacity="0.875"/>
  <rect x="10" y="9" width="1" height="1" fill="rgb(119,119,119)"/>
  <rect x="10" y="10" width="1" height="1" fill="rgb(255,255,255)"/>
  <rect x="10" y="11" width="1" height="1" fill="rgb(111,159,231)"/>
  <rect x="10" y="12" width="1" height="1" fill="rgb(63,127,222)"/>
  <rect x="10" y="13" width="1" height="1" fill="rgb(61,125,220)"/>
  <rect x="10" y="14" width="1" height="1" fill="rgb(60,124,219)"/>
  <rect x="10" y="15" width="1" height="1" fill="rgb(58,122,217)"/>
  <rect x="10" y="16" width="1" height="1" fill="rgb(227,227,227)"/>
  <rect x="10" y="17" width="1" height="1" fill="rgb(129,129,129)"/>
  <rect x="10" y="18" width="1" height="1" fill="rgb(55,55,55)" fill-opacity="0.75"/>
  <rect x="10" y="19" width="1" height="2" fill="rgb(255,255,255)" fill-opacity="0.0078125"/>
  <rect x="11" y="0" width="1" height="3" fill="rgb(255,255,255)" fill-opacity="0.0078125"/>
  <rect x="11" y="3" width="1" height="1" fill="rgb(72,72,72)" fill-opacity="0.578125"/>
  <rect x="11" y="4" width="1" height="1" fill="rgb(209,209,209)" fill-opacity="0.796875"/>
  <rect x="11" y="5" width="1" height="1" fill="rgb(218,218,218)" fill-opacity="0.8046875"/>
  <rect x="11" y="6" width="1" height="1" fill="rgb(169,169,169)" fill-opacity="0.8046875"/>
  <rect x="11" y="7" width="1" height="1" fill="rgb(223,223,223)" fill-opacity="0.8046875"/>
  <rect x="11" y="8" width="1" height="1" fill="rgb(205,205,205)" fill-opacity="0.8046875"/>
  <rect x="11" y="9" width="1" height="1" fill="rgb(90,90,90)" fill-opacity="0.984375"/>
  <rect x="11" y="10" width="1" height="1" fill="rgb(239,239,239)"/>
  <rect x="11" y="11" width="1" height="2" fill="rgb(255,255,255)"/>
  <rect x="11" y="13" width="1" height="1" fill="rgb(254,254,254)"/>
  <rect x="11" y="14" width="1" height="1" fill="rgb(249,249,249)"/>
  <rect x="11" y="15" width="1" height="1" fill="rgb(244,244,244)"/>
  <rect x="11" y="16" width="1" height="1" fill="rgb(236,236,236)"/>
  <rect x="11" y="17" width="1" height="1" fill="rgb(217,217,217)"/>
  <rect x="11" y="18" width="1" height="1" fill="rgb(47,47,47)"/>
  <rect x="11" y="19" width="1" height="1" fill="rgb(78,78,78)" fill-opacity="0.09375"/>
  <rect x="11" y="20" width="1" height="1" fill="rgb(255,255,255)" fill-opacity="0.0078125"/>
  <rect x="12" y="0" width="1" height="3" fill="rgb(255,255,255)" fill-opacity="0.0078125"/>
  <rect x="12" y="3" width="1" height="1" fill="rgb(77,77,77)" fill-opacity="0.28125"/>
  <rect x="12" y="4" width="1" height="1" fill="rgb(125,125,125)" fill-opacity="0.765625"/>
  <rect x="12" y="5" width="1" height="1" fill="rgb(211,211,211)" fill-opacity="0.8046875"/>
  <rect x="12" y="6" width="1" height="1" fill="rgb(175,175,175)" fill-opacity="0.8046875"/>
  <rect x="12" y="7" width="1" height="1" fill="rgb(163,163,163)" fill-opacity="0.8046875"/>
  <rect x="12" y="8" width="1" height="1" fill="rgb(224,224,224)" fill-opacity="0.8046875"/>
  <rect x="12" y="9" width="1" height="1" fill="rgb(182,182,182)" fill-opacity="0.8671875"/>
  <rect x="12" y="10" width="1" height="2" fill="rgb(81,81,81)"/>
  <rect x="12" y="12" width="1" height="1" fill="rgb(76,76,76)"/>
  <rect x="12" y="13" width="1" height="1" fill="rgb(71,71,71)"/>
  <rect x="12" y="14" width="1" height="1" fill="rgb(66,66,66)"/>
  <rect x="12" y="15" width="1" height="1" fill="rgb(42,42,42)"/>
  <rect x="12" y="16" width="1" height="1" fill="rgb(43,43,43)"/>
  <rect x="12" y="17" width="1" height="1" fill="rgb(39,39,39)"/>
  <rect x="12" y="18" width="1" height="1" fill="rgb(47,47,47)" fill-opacity="0.953125"/>
  <rect x="12" y="19" width="1" height="1" fill="rgb(81,81,81)" fill-opacity="0.078125"/>
  <rect x="12" y="20" width="1" height="1" fill="rgb(255,255,255)" fill-opacity="0.0078125"/>
  <rect x="13" y="0" width="1" height="3" fill="rgb(255,255,255)" fill-opacity="0.0078125"/>
  <rect x="13" y="3" width="1" height="1" fill="rgb(102,102,102)" fill-opacity="0.0234375"/>
  <rect x="13" y="4" width="1" height="1" fill="rgb(73,73,73)" fill-opacity="0.6328125"/>
  <rect x="13" y="5" width="1" height="1" fill="rgb(215,215,215)" fill-opacity="0.8046875"/>
  <rect x="13" y="6" width="1" height="1" fill="rgb(191,191,191)" fill-opacity="0.8046875"/>
  <rect x="13" y="7" width="1" height="1" fill="rgb(141,141,141)" fill-opacity="0.8046875"/>
  <rect x="13" y="8" width="1" height="1" fill="rgb(229,229,229)" fill-opacity="0.8046875"/>
  <rect x="13" y="9" width="1" height="1" fill="rgb(220,220,220)" fill-opacity="0.8046875"/>
  <rect x="13" y="10" width="1" height="1" fill="rgb(210,210,210)" fill-opacity="0.8046875"/>
  <rect x="13" y="11" width="1" height="1" fill="rgb(201,201,201)" fill-opacity="0.8046875"/>
  <rect x="13" y="12" width="1" height="1" fill="rgb(191,191,191)" fill-opacity="0.8046875"/>
  <rect x="13" y="13" width="1" height="1" fill="rgb(183,183,183)" fill-opacity="0.8046875"/>
  <rect x="13" y="14" width="1" height="1" fill="rgb(173,173,173)" fill-opacity="0.8046875"/>
  <rect x="13" y="15" width="1" height="1" fill="rgb(126,126,126)" fill-opacity="0.796875"/>
  <rect x="13" y="16" width="1" height="1" fill="rgb(54,54,54)" fill-opacity="0.640625"/>
  <rect x="13" y="17" width="1" height="1" fill="rgb(128,128,128)" fill-opacity="0.015625"/>
  <rect x="13" y="18" width="1" height="3" fill="rgb(255,255,255)" fill-opacity="0.0078125"/>
  <rect x="14" y="0" width="1" height="4" fill="rgb(255,255,255)" fill-opacity="0.0078125"/>
  <rect x="14" y="4" width="1" height="1" fill="rgb(78,78,78)" fill-opacity="0.328125"/>
  <rect x="14" y="5" width="1" height="1" fill="rgb(148,148,148)" fill-opacity="0.7734375"/>
  <rect x="14" y="6" width="1" height="1" fill="rgb(216,216,216)" fill-opacity="0.8046875"/>
  <rect x="14" y="7" width="1" height="1" fill="rgb(188,188,188)" fill-opacity="0.8046875"/>
  <rect x="14" y="8" width="1" height="1" fill="rgb(175,175,175)" fill-opacity="0.8046875"/>
  <rect x="14" y="9" width="1" height="1" fill="rgb(240,240,240)" fill-opacity="0.8046875"/>
  <rect x="14" y="10" width="1" height="1" fill="rgb(233,233,233)" fill-opacity="0.8046875"/>
  <rect x="14" y="11" width="1" height="1" fill="rgb(223,223,223)" fill-opacity="0.8046875"/>
  <rect x="14" y="12" width="1" height="1" fill="rgb(214,214,214)" fill-opacity="0.8046875"/>
  <rect x="14" y="13" width="1" height="1" fill="rgb(204,204,204)" fill-opacity="0.8046875"/>
  <rect x="14" y="14" width="1" height="1" fill="rgb(193,193,193)" fill-opacity="0.8046875"/>
  <rect x="14" y="15" width="1" height="1" fill="rgb(180,180,180)" fill-opacity="0.8046875"/>
  <rect x="14" y="16" width="1" height="1" fill="rgb(60,60,60)" fill-opacity="0.7734375"/>
  <rect x="14" y="17" width="1" height="1" fill="rgb(76,76,76)" fill-opacity="0.2265625"/>
  <rect x="14" y="18" width="1" height="3" fill="rgb(255,255,255)" fill-opacity="0.0078125"/>
  <rect x="15" y="0" width="1" height="4" fill="rgb(255,255,255)" fill-opacity="0.0078125"/>
  <rect x="15" y="4" width="1" height="1" fill="rgb(77,77,77)" fill-opacity="0.046875"/>
  <rect x="15" y="5" width="1" height="1" fill="rgb(75,75,75)" fill-opacity="0.65625"/>
  <rect x="15" y="6" width="1" height="1" fill="rgb(221,221,221)" fill-opacity="0.8046875"/>
  <rect x="15" y="7" width="1" height="1" fill="rgb(206,206,206)" fill-opacity="0.8046875"/>
  <rect x="15" y="8" width="1" height="1" fill="rgb(173,173,173)" fill-opacity="0.8046875"/>
  <rect x="15" y="9" width="1" height="1" fill="rgb(145,145,145)" fill-opacity="0.8046875"/>
  <rect x="15" y="10" width="1" height="1" fill="rgb(133,133,133)" fill-opacity="0.8046875"/>
  <rect x="15" y="11" width="1" height="1" fill="rgb(123,123,123)" fill-opacity="0.8046875"/>
  <rect x="15" y="12" width="1" height="1" fill="rgb(113,113,113)" fill-opacity="0.8046875"/>
  <rect x="15" y="13" width="1" height="1" fill="rgb(46,46,46)" fill-opacity="0.796875"/>
  <rect x="15" y="14" width="1" height="1" fill="rgb(51,51,51)" fill-opacity="0.75"/>
  <rect x="15" y="15" width="1" height="1" fill="rgb(49,49,49)" fill-opacity="0.7265625"/>
  <rect x="15" y="16" width="1" height="1" fill="rgb(55,55,55)" fill-opacity="0.6953125"/>
  <rect x="15" y="17" width="1" height="1" fill="rgb(79,79,79)" fill-opacity="0.171875"/>
  <rect x="15" y="18" width="1" height="3" fill="rgb(255,255,255)" fill-opacity="0.0078125"/>
  <rect x="16" y="0" width="1" height="5" fill="rgb(255,255,255)" fill-opacity="0.0078125"/>
  <rect x="16" y="5" width="1" height="1" fill="rgb(79,79,79)" fill-opacity="0.375"/>
  <rect x="16" y="6" width="1" height="1" fill="rgb(162,162,162)" fill-opacity="0.78125"/>
  <rect x="16" y="7" width="1" height="1" fill="rgb(223,223,223)" fill-opacity="0.8046875"/>
  <rect x="16" y="8" width="1" height="1" fill="rgb(208,208,208)" fill-opacity="0.8046875"/>
  <rect x="16" y="9" width="1" height="1" fill="rgb(198,198,198)" fill-opacity="0.8046875"/>
  <rect x="16" y="10" width="1" height="1" fill="rgb(188,188,188)" fill-opacity="0.8046875"/>
  <rect x="16" y="11" width="1" height="1" fill="rgb(178,178,178)" fill-opacity="0.8046875"/>
  <rect x="16" y="12" width="1" height="1" fill="rgb(166,166,166)" fill-opacity="0.8046875"/>
  <rect x="16" y="13" width="1" height="1" fill="rgb(121,121,121)" fill-opacity="0.796875"/>
  <rect x="16" y="14" width="1" height="1" fill="rgb(63,63,63)" fill-opacity="0.6171875"/>
  <rect x="16" y="15" width="1" height="1" fill="rgb(128,128,128)" fill-opacity="0.015625"/>
  <rect x="16" y="16" width="1" height="5" fill="rgb(255,255,255)" fill-opacity="0.0078125"/>
  <rect x="17" y="0" width="1" height="5" fill="rgb(255,255,255)" fill-opacity="0.0078125"/>
  <rect x="17" y="5" width="1" height="1" fill="rgb(85,85,85)" fill-opacity="0.078125"/>
  <rect x="17" y="6" width="1" height="1" fill="rgb(79,79,79)" fill-opacity="0.6875"/>
  <rect x="17" y="7" width="1" height="1" fill="rgb(233,233,233)" fill-opacity="0.8046875"/>
  <rect x="17" y="8" width="1" height="1" fill="rgb(231,231,231)" fill-opacity="0.8046875"/>
  <rect x="17" y="9" width="1" height="1" fill="rgb(223,223,223)" fill-opacity="0.8046875"/>
  <rect x="17" y="10" width="1" height="1" fill="rgb(213,213,213)" fill-opacity="0.8046875"/>
  <rect x="17" y="11" width="1" height="1" fill="rgb(201,201,201)" fill-opacity="0.8046875"/>
  <rect x="17" y="12" width="1" height="1" fill="rgb(190,190,190)" fill-opacity="0.8046875"/>
  <rect x="17" y="13" width="1" height="1" fill="rgb(178,178,178)" fill-opacity="0.8046875"/>
  <rect x="17" y="14" width="1" height="1" fill="rgb(69,69,69)" fill-opacity="0.7578125"/>
  <rect x="17" y="15" width="1" height="1" fill="rgb(76,76,76)" fill-opacity="0.2265625"/>
  <rect x="17" y="16" width="1" height="5" fill="rgb(255,255,255)" fill-opacity="0.0078125"/>
  <rect x="18" y="0" width="1" height="6" fill="rgb(255,255,255)" fill-opacity="0.0078125"/>
  <rect x="18" y="6" width="1" height="1" fill="rgb(75,75,75)" fill-opacity="0.3125"/>
  <rect x="18" y="7" width="1" height="1" fill="rgb(75,75,75)" fill-opacity="0.671875"/>
  <rect x="18" y="8" width="1" height="1" fill="rgb(73,73,73)" fill-opacity="0.6875"/>
  <rect x="18" y="9" width="1" height="1" fill="rgb(71,71,71)" fill-opacity="0.6953125"/>
  <rect x="18" y="10" width="1" height="1" fill="rgb(68,68,68)" fill-opacity="0.6953125"/>
  <rect x="18" y="11" width="1" height="2" fill="rgb(66,66,66)" fill-opacity="0.703125"/>
  <rect x="18" y="13" width="1" height="1" fill="rgb(63,63,63)" fill-opacity="0.703125"/>
  <rect x="18" y="14" width="1" height="1" fill="rgb(67,67,67)" fill-opacity="0.671875"/>
  <rect x="18" y="15" width="1" height="1" fill="rgb(79,79,79)" fill-opacity="0.171875"/>
  <rect x="18" y="16" width="1" height="5" fill="rgb(255,255,255)" fill-opacity="0.0078125"/>
  <rect x="19" y="0" width="1" height="21" fill="rgb(255,255,255)" fill-opacity="0.0078125"/>
  <rect x="20" y="0" width="1" height="21" fill="rgb(255,255,255)" fill-opacity="0.0078125"/>
</svg>