<svg xmlns="http://www.w3.org/2000/svg" shape-rendering="crispEdges" width="21" height="21" viewBox="0 0 21 21">
  <rect x="0" y="0" width="1" height="21" fill="rgb(255,255,255)" fill-opacity="0.0078125"/>
  <rect x="1" y="0" width="1" height="21" fill="rgb(255,255,255)" fill-opacity="0.0078125"/>
  <rect x="2" y="0" width="1" height="21" fill="rgb(255,255,255)" fill-opacity="0.0078125"/>
  <rect x="3" y="0" width="1" height="7" fill="rgb(255,255,255)" fill-opacity="0.0078125"/>
  <rect x="3" y="7" width="1" height="2" fill="rgb(0,0,0)" fill-opacity="0.0078125"/>
  <rect x="3" y="9" width="1" height="12" fill="rgb(255,255,255)" fill-opacity="0.0078125"/>
  <rect x="4" y="0" width="1" height="6" fill="rgb(255,255,255)" fill-opacity="0.0078125"/>
  <rect x="4" y="6" width="1" height="1" fill="rgb(0,0,0)" fill-opacity="0.015625"/>
  <rect x="4" y="7" width="1" height="2" fill="rgb(0,0,0)" fill-opacity="0.0234375"/>
  <rect x="4" y="9" width="1" height="1" fill="rgb(0,0,0)" fill-opacity="0.015625"/>
  <rect x="4" y="10" width="1" height="1" fill="rgb(0,0,0)" fill-opacity="0.0078125"/>
  <rect x="4" y="11" width="1" height="10" fill="rgb(255,255,255)" fill-opacity="0.0078125"/>
  <rect x="5" y="0" width="1" height="5" fill="rgb(255,255,255)" fill-opacity="0.0078125"/>
  <rect x="5" y="5" width="1" height="1" fill="rgb(0,0,0)" fill-opacity="0.015625"/>
  <rect x="5" y="6" width="1" height="1" fill="rgb(25,25,25)" fill-opacity="0.53125"/>
  <rect x="5" y="7" width="1" height="1" fill="rgb(49,49,49)" fill-opacity="0.9453125"/>
  <rect x="5" y="8" width="1" height="1" fill="rgb(38,38,38)" fill-opacity="0.9140625"/>
  <rect x="5" y="9" width="1" height="1" fill="rgb(39,39,39)" fill-opacity="0.90625"/>
  <rect x="5" y="10" width="1" height="1" fill="rgb(40,40,40)" fill-opacity="0.90625"/>
  <rect x="5" y="11" width="1" height="2" fill="rgb(41,41,41)" fill-opacity="0.90625"/>
  <rect x="5" y="13" width="1" height="2" fill="rgb(42,42,42)" fill-opacity="0.90625"/>
  <rect x="5" y="15" width="1" height="2" fill="rgb(43,43,43)" fill-opacity="0.90625"/>
  <rect x="5" y="17" width="1" height="1" fill="rgb(43,43,43)" fill-opacity="0.78125"/>
  <rect x="5" y="18" width="1" height="3" fill="rgb(255,255,255)" fill-opacity="0.0078125"/>
  <rect x="6" y="0" width="1" height="4" fill="rgb(255,255,255)" fill-opacity="0.0078125"/>
  <rect x="6" y="4" width="1" height="1" fill="rgb(0,0,0)" fill-opacity="0.015625"/>
  <rect x="6" y="5" width="1" height="1" fill="rgb(26,26,26)" fill-opacity="0.546875"/>
  <rect x="6" y="6" width="1" height="1" fill="rgb(88,88,88)" fill-opacity="0.9140625"/>
  <rect x="6" y="7" width="1" height="1" fill="rgb(254,254,254)"/>
  <rect x="6" y="8" width="1" height="1" fill="rgb(188,188,188)"/>
  <rect x="6" y="9" width="1" height="2" fill="rgb(232,232,232)"/>
  <rect x="6" y="11" width="1" height="2" fill="rgb(231,231,231)"/>
  <rect x="6" y="13" width="1" height="2" fill="rgb(230,230,230)"/>
  <rect x="6" y="15" width="1" height="1" fill="rgb(232,232,232)"/>
  <rect x="6" y="16" width="1" height="1" fill="rgb(233,233,233)"/>
  <rect x="6" y="17" width="1" height="1" fill="rgb(46,46,46)" fill-opacity="0.9140625"/>
  <rect x="6" y="18" width="1" height="3" fill="rgb(255,255,255)" fill-opacity="0.0078125"/>
  <rect x="7" y="0" width="1" height="3" fill="rgb(255,255,255)" fill-opacity="0.0078125"/>
  <rect x="7" y="3" width="1" height="1" fill="rgb(0,0,0)" fill-opacity="0.015625"/>
  <rect x="7" y="4" width="1" height="1" fill="rgb(28,28,28)" fill-opacity="0.546875"/>
  <rect x="7" y="5" width="1" height="1" fill="rgb(90,90,90)" fill-opacity="0.9296875"/>
  <rect x="7" y="6" width="1" height="1" fill="rgb(254,254,254)"/>
  <rect x="7" y="7" width="1" height="1" fill="rgb(255,255,255)"/>
  <rect x="7" y="8" width="1" height="1" fill="rgb(143,143,143)"/>
  <rect x="7" y="9" width="1" height="1" fill="rgb(164,164,164)"/>
  <rect x="7" y="10" width="1" height="1" fill="rgb(186,186,186)"/>
  <rect x="7" y="11" width="1" height="1" fill="rgb(196,196,196)"/>
  <rect x="7" y="12" width="1" height="1" fill="rgb(203,203,203)"/>
  <rect x="7" y="13" width="1" height="1" fill="rgb(209,209,209)"/>
  <rect x="7" y="14" width="1" height="1" fill="rgb(215,215,215)"/>
  <rect x="7" y="15" width="1" height="1" fill="rgb(221,221,221)"/>
  <rect x="7" y="16" width="1" height="1" fill="rgb(227,227,227)"/>
  <rect x="7" y="17" width="1" height="1" fill="rgb(47,47,47)" fill-opacity="0.9140625"/>
  <rect x="7" y="18" width="1" height="3" fill="rgb(255,255,255)" fill-opacity="0.0078125"/>
  <rect x="8" y="0" width="1" height="3" fill="rgb(255,255,255)" fill-opacity="0.0078125"/>
  <rect x="8" y="3" width="1" height="1" fill="rgb(0,0,0)" fill-opacity="0.0234375"/>
  <rect x="8" y="4" width="1" height="1" fill="rgb(50,50,50)" fill-opacity="0.953125"/>
  <rect x="8" y="5" width="1" height="1" fill="rgb(254,254,254)"/>
  <rect x="8" y="6" width="1" height="2" fill="rgb(255,255,255)"/>
  <rect x="8" y="8" width="1" height="1" fill="rgb(147,147,147)"/>
  <rect x="8" y="9" width="1" height="1" fill="rgb(171,171,171)"/>
  <rect x="8" y="10" width="1" height="1" fill="rgb(192,192,192)"/>
  <rect x="8" y="11" width="1" height="1" fill="rgb(202,202,202)"/>
  <rect x="8" y="12" width="1" height="1" fill="rgb(209,209,209)"/>
  <rect x="8" y="13" width="1" height="1" fill="rgb(215,215,215)"/>
  <rect x="8" y="14" width="1" height="1" fill="rgb(222,222,222)"/>
  <rect x="8" y="15" width="1" height="1" fill="rgb(228,228,228)"/>
  <rect x="8" y="16" width="1" height="1" fill="rgb(234,234,234)"/>
  <rect x="8" y="17" width="1" height="1" fill="rgb(47,47,47)" fill-opacity="0.9140625"/>
  <rect x="8" y="18" width="1" height="3" fill="rgb(255,255,255)" fill-opacity="0.0078125"/>
  <rect x="9" y="0" width="1" height="3" fill="rgb(255,255,255)" fill-opacity="0.0078125"/>
  <rect x="9" y="3" width="1" height="1" fill="rgb(0,0,0)" fill-opacity="0.0234375"/>
  <rect x="9" y="4" width="1" height="1" fill="rgb(39,39,39)" fill-opacity="0.921875"/>
  <rect x="9" y="5" width="1" height="1" fill="rgb(186,186,186)"/>
  <rect x="9" y="6" width="1" height="1" fill="rgb(145,145,145)"/>
  <rect x="9" y="7" width="1" height="1" fill="rgb(147,147,147)"/>
  <rect x="9" y="8" width="1" height="1" fill="rgb(160,160,160)"/>
  <rect x="9" y="9" width="1" height="1" fill="rgb(184,184,184)"/>
  <rect x="9" y="10" width="1" height="1" fill="rgb(201,201,201)"/>
  <rect x="9" y="11" width="1" height="1" fill="rgb(210,210,210)"/>
  <rect x="9" y="12" width="1" height="1" fill="rgb(216,216,216)"/>
  <rect x="9" y="13" width="1" height="1" fill="rgb(223,223,223)"/>
  <rect x="9" y="14" width="1" height="1" fill="rgb(229,229,229)"/>
  <rect x="9" y="15" width="1" height="1" fill="rgb(235,235,235)"/>
  <rect x="9" y="16" width="1" height="1" fill="rgb(241,241,241)"/>
  <rect x="9" y="17" width="1" height="1" fill="rgb(48,48,48)" fill-opacity="0.9140625"/>
  <rect x="9" y="18" width="1" height="3" fill="rgb(255,255,255)" fill-opacity="0.0078125"/>
  <rect x="10" y="0" width="1" height="3" fill="rgb(255,255,255)" fill-opacity="0.0078125"/>
  <rect x="10" y="3" width="1" height="1" fill="rgb(0,0,0)" fill-opacity="0.015625"/>
  <rect x="10" y="4" width="1" height="1" fill="rgb(39,39,39)" fill-opacity="0.9140625"/>
  <rect x="10" y="5" width="1" height="1" fill="rgb(226,226,226)"/>
  <rect x="10" y="6" width="1" height="1" fill="rgb(168,168,168)"/>
  <rect x="10" y="7" width="1" height="1" fill="rgb(172,172,172)"/>
  <rect x="10" y="8" width="1" height="1" fill="rgb(185,185,185)"/>
  <rect x="10" y="9" width="1" height="1" fill="rgb(199,199,199)"/>
  <rect x="10" y="10" width="1" height="1" fill="rgb(209,209,209)"/>
  <rect x="10" y="11" width="1" height="1" fill="rgb(217,217,217)"/>
  <rect x="10" y="12" width="1" height="1" fill="rgb(223,223,223)"/>
  <rect x="10" y="13" width="1" height="1" fill="rgb(230,230,230)"/>
  <rect x="10" y="14" width="1" height="1" fill="rgb(236,236,236)"/>
  <rect x="10" y="15" width="1" height="1" fill="rgb(242,242,242)"/>
  <rect x="10" y="16" width="1" height="1" fill="rgb(248,248,248)"/>
  <rect x="10" y="17" width="1" height="1" fill="rgb(49,49,49)" fill-opacity="0.9140625"/>
  <rect x="10" y="18" width="1" height="3" fill="rgb(255,255,255)" fill-opacity="0.0078125"/>
  <rect x="11" y="0" width="1" height="3" fill="rgb(255,255,255)" fill-opacity="0.0078125"/>
  <rect x="11" y="3" width="1" height="1" fill="rgb(0,0,0)" fill-opacity="0.0078125"/>
  <rect x="11" y="4" width="1" height="1" fill="rgb(42,42,42)" fill-opacity="0.9140625"/>
  <rect x="11" y="5" width="1" height="1" fill="rgb(227,227,227)"/>
  <rect x="11" y="6" width="1" height="1" fill="rgb(189,189,189)"/>
  <rect x="11" y="7" width="1" height="1" fill="rgb(195,195,195)"/>
  <rect x="11" y="8" width="1" height="1" fill="rgb(203,203,203)"/>
  <rect x="11" y="9" width="1" height="1" fill="rgb(210,210,210)"/>
  <rect x="11" y="10" width="1" height="1" fill="rgb(218,218,218)"/>
  <rect x="11" y="11" width="1" height="1" fill="rgb(224,224,224)"/>
  <rect x="11" y="12" width="1" height="1" fill="rgb(231,231,231)"/>
  <rect x="11" y="13" width="1" height="1" fill="rgb(237,237,237)"/>
  <rect x="11" y="14" width="1" height="1" fill="rgb(243,243,243)"/>
  <rect x="11" y="15" width="1" height="1" fill="rgb(249,249,249)"/>
  <rect x="11" y="16" width="1" height="1" fill="rgb(255,255,255)"/>
  <rect x="11" y="17" width="1" height="1" fill="rgb(49,49,49)" fill-opacity="0.9140625"/>
  <rect x="11" y="18" width="1" height="3" fill="rgb(255,255,255)" fill-opacity="0.0078125"/>
  <rect x="12" y="0" width="1" height="4" fill="rgb(255,255,255)" fill-opacity="0.0078125"/>
  <rect x="12" y="4" width="1" height="1" fill="rgb(42,42,42)" fill-opacity="0.9140625"/>
  <rect x="12" y="5" width="1" height="1" fill="rgb(227,227,227)"/>
  <rect x="12" y="6" width="1" height="1" fill="rgb(200,200,200)"/>
  <rect x="12" y="7" width="1" height="1" fill="rgb(206,206,206)"/>
  <rect x="12" y="8" width="1" height="1" fill="rgb(213,213,213)"/>
  <rect x="12" y="9" width="1" height="1" fill="rgb(219,219,219)"/>
  <rect x="12" y="10" width="1" height="1" fill="rgb(225,225,225)"/>
  <rect x="12" y="11" width="1" height="1" fill="rgb(232,232,232)"/>
  <rect x="12" y="12" width="1" height="1" fill="rgb(238,238,238)"/>
  <rect x="12" y="13" width="1" height="1" fill="rgb(244,244,244)"/>
  <rect x="12" y="14" width="1" height="1" fill="rgb(250,250,250)"/>
  <rect x="12" y="15" width="1" height="2" fill="rgb(255,255,255)"/>
  <rect x="12" y="17" width="1" height="1" fill="rgb(49,49,49)" fill-opacity="0.9140625"/>
  <rect x="12" y="18" width="1" height="3" fill="rgb(255,255,255)" fill-opacity="0.0078125"/>
  <rect x="13" y="0" width="1" height="4" fill="rgb(255,255,255)" fill-opacity="0.0078125"/>
  <rect x="13" y="4" width="1" height="1" fill="rgb(43,43,43)" fill-opacity="0.9140625"/>
  <rect x="13" y="5" width="1" height="1" fill="rgb(227,227,227)"/>
  <rect x="13" y="6" width="1" height="1" fill="rgb(209,209,209)"/>
  <rect x="13" y="7" width="1" height="1" fill="rgb(214,214,214)"/>
  <rect x="13" y="8" width="1" height="1" fill="rgb(220,220,220)"/>
  <rect x="13" y="9" width="1" height="1" fill="rgb(226,226,226)"/>
  <rect x="13" y="10" width="1" height="1" fill="rgb(232,232,232)"/>
  <rect x="13" y="11" width="1" height="1" fill="rgb(239,239,239)"/>
  <rect x="13" y="12" width="1" height="1" fill="rgb(245,245,245)"/>
  <rect x="13" y="13" width="1" height="1" fill="rgb(251,251,251)"/>
  <rect x="13" y="14" width="1" height="3" fill="rgb(255,255,255)"/>
  <rect x="13" y="17" width="1" height="1" fill="rgb(49,49,49)" fill-opacity="0.9140625"/>
  <rect x="13" y="18" width="1" height="3" fill="rgb(255,255,255)" fill-opacity="0.0078125"/>
  <rect x="14" y="0" width="1" height="4" fill="rgb(255,255,255)" fill-opacity="0.0078125"/>
  <rect x="14" y="4" width="1" height="1" fill="rgb(44,44,44)" fill-opacity="0.9140625"/>
  <rect x="14" y="5" width="1" height="1" fill="rgb(227,227,227)"/>
  <rect x="14" y="6" width="1" height="1" fill="rgb(215,215,215)"/>
  <rect x="14" y="7" width="1" height="1" fill="rgb(221,221,221)"/>
  <rect x="14" y="8" width="1" height="1" fill="rgb(227,227,227)"/>
  <rect x="14" y="9" width="1" height="1" fill="rgb(233,233,233)"/>
  <rect x="14" y="10" width="1" height="1" fill="rgb(240,240,240)"/>
  <rect x="14" y="11" width="1" height="1" fill="rgb(246,246,246)"/>
  <rect x="14" y="12" width="1" height="1" fill="rgb(252,252,252)"/>
  <rect x="14" y="13" width="1" height="4" fill="rgb(255,255,255)"/>
  <rect x="14" y="17" width="1" height="1" fill="rgb(49,49,49)" fill-opacity="0.9140625"/>
  <rect x="14" y="18" width="1" height="3" fill="rgb(255,255,255)" fill-opacity="0.0078125"/>
  <rect x="15" y="0" width="1" height="4" fill="rgb(255,255,255)" fill-opacity="0.0078125"/>
  <rect x="15" y="4" width="1" height="1" fill="rgb(44,44,44)" fill-opacity="0.9140625"/>
  <rect x="15" y="5" width="1" height="1" fill="rgb(229,229,229)"/>
  <rect x="15" y="6" width="1" height="1" fill="rgb(222,222,222)"/>
  <rect x="15" y="7" width="1" height="1" fill="rgb(228,228,228)"/>
  <rect x="15" y="8" width="1" height="1" fill="rgb(234,234,234)"/>
  <rect x="15" y="9" width="1" height="1" fill="rgb(240,240,240)"/>
  <rect x="15" y="10" width="1" height="1" fill="rgb(247,247,247)"/>
  <rect x="15" y="11" width="1" height="1" fill="rgb(253,253,253)"/>
  <rect x="15" y="12" width="1" height="5" fill="rgb(255,255,255)"/>
  <rect x="15" y="17" width="1" height="1" fill="rgb(49,49,49)" fill-opacity="0.9140625"/>
  <rect x="15" y="18" width="1" height="3" fill="rgb(255,255,255)" fill-opacity="0.0078125"/>
  <rect x="16" y="0" width="1" height="4" fill="rgb(255,255,255)" fill-opacity="0.0078125"/>
  <rect x="16" y="4" width="1" height="1" fill="rgb(41,41,41)" fill-opacity="0.828125"/>
  <rect x="16" y="5" width="1" height="2" fill="rgb(47,47,47)" fill-opacity="0.9140625"/>
  <rect x="16" y="7" width="1" height="1" fill="rgb(48,48,48)" fill-opacity="0.9140625"/>
  <rect x="16" y="8" width="1" height="2" fill="rgb(49,49,49)" fill-opacity="0.9140625"/>
  <rect x="16" y="10" width="1" height="7" fill="rgb(50,50,50)" fill-opacity="0.9140625"/>
  <rect x="16" y="17" width="1" height="1" fill="rgb(45,45,45)" fill-opacity="0.828125"/>
  <rect x="16" y="18" width="1" height="3" fill="rgb(255,255,255)" fill-opacity="0.0078125"/>
  <rect x="17" y="0" width="1" height="21" fill="rgb(255,255,255)" fill-opacity="0.0078125"/>
  <rect x="18" y="0" width="1" height="21" fill="rgb(255,255,255)" fill-opacity="0.0078125"/>
  <rect x="19" y="0" width="1" height="21" fill="rgb(255,255,255)" fill-opacity="0.0078125"/>
  <rect x="20" y="0" width="1" height="21" fill="rgb(255,255,255)" fill-opacity="0.0078125"/>
</svg>