<svg xmlns="http://www.w3.org/2000/svg" shape-rendering="crispEdges" width="21" height="21" viewBox="0 0 21 21">
  <rect x="0" y="0" width="1" height="21" fill="rgb(255,255,255)" fill-opacity="0.0078125"/>
  <rect x="1" y="0" width="1" height="21" fill="rgb(255,255,255)" fill-opacity="0.0078125"/>
  <rect x="2" y="0" width="1" height="21" fill="rgb(255,255,255)" fill-opacity="0.0078125"/>
  <rect x="3" y="0" width="1" height="21" fill="rgb(255,255,255)" fill-opacity="0.0078125"/>
  <rect x="4" y="0" width="1" height="21" fill="rgb(255,255,255)" fill-opacity="0.0078125"/>
  <rect x="5" y="0" width="1" height="6" fill="rgb(255,255,255)" fill-opacity="0.0078125"/>
  <rect x="5" y="6" width="1" height="1" fill="rgb(51,51,51)" fill-opacity="0.859375"/>
  <rect x="5" y="7" width="1" height="1" fill="rgb(106,106,106)" fill-opacity="0.9609375"/>
  <rect x="5" y="8" width="1" height="1" fill="rgb(54,54,54)" fill-opacity="0.9453125"/>
  <rect x="5" y="9" width="1" height="1" fill="rgb(55,55,55)" fill-opacity="0.9453125"/>
  <rect x="5" y="10" width="1" height="1" fill="rgb(57,57,57)" fill-opacity="0.9453125"/>
  <rect x="5" y="11" width="1" height="1" fill="rgb(58,58,58)" fill-opacity="0.9453125"/>
  <rect x="5" y="12" width="1" height="1" fill="rgb(60,60,60)" fill-opacity="0.9453125"/>
  <rect x="5" y="13" width="1" height="1" fill="rgb(61,61,61)" fill-opacity="0.9453125"/>
  <rect x="5" y="14" width="1" height="1" fill="rgb(62,62,62)" fill-opacity="0.9453125"/>
  <rect x="5" y="15" width="1" height="1" fill="rgb(63,63,63)" fill-opacity="0.84375"/>
  <rect x="5" y="16" width="1" height="5" fill="rgb(255,255,255)" fill-opacity="0.0078125"/>
  <rect x="6" y="0" width="1" height="6" fill="rgb(255,255,255)" fill-opacity="0.0078125"/>
  <rect x="6" y="6" width="1" height="1" fill="rgb(52,52,52)" fill-opacity="0.9609375"/>
  <rect x="6" y="7" width="1" height="1" fill="rgb(255,255,255)"/>
  <rect x="6" y="8" width="1" height="1" fill="rgb(181,181,181)"/>
  <rect x="6" y="9" width="1" height="1" fill="rgb(191,191,191)"/>
  <rect x="6" y="10" width="1" height="1" fill="rgb(201,201,201)"/>
  <rect x="6" y="11" width="1" height="1" fill="rgb(211,211,211)"/>
  <rect x="6" y="12" width="1" height="1" fill="rgb(220,220,220)"/>
  <rect x="6" y="13" width="1" height="1" fill="rgb(230,230,230)"/>
  <rect x="6" y="14" width="1" height="1" fill="rgb(236,236,236)"/>
  <rect x="6" y="15" width="1" height="1" fill="rgb(60,60,60)" fill-opacity="0.9609375"/>
  <rect x="6" y="16" width="1" height="5" fill="rgb(255,255,255)" fill-opacity="0.0078125"/>
  <rect x="7" y="0" width="1" height="6" fill="rgb(255,255,255)" fill-opacity="0.0078125"/>
  <rect x="7" y="6" width="1" height="1" fill="rgb(53,53,53)" fill-opacity="0.859375"/>
  <rect x="7" y="7" width="1" height="2" fill="rgb(53,53,53)" fill-opacity="0.9609375"/>
  <rect x="7" y="9" width="1" height="1" fill="rgb(53,53,53)" fill-opacity="0.9765625"/>
  <rect x="7" y="10" width="1" height="2" fill="rgb(119,119,119)" fill-opacity="0.984375"/>
  <rect x="7" y="12" width="1" height="1" fill="rgb(54,54,54)" fill-opacity="0.9765625"/>
  <rect x="7" y="13" width="1" height="1" fill="rgb(59,59,59)" fill-opacity="0.9609375"/>
  <rect x="7" y="14" width="1" height="1" fill="rgb(60,60,60)" fill-opacity="0.9609375"/>
  <rect x="7" y="15" width="1" height="1" fill="rgb(63,63,63)" fill-opacity="0.84375"/>
  <rect x="7" y="16" width="1" height="5" fill="rgb(255,255,255)" fill-opacity="0.0078125"/>
  <rect x="8" y="0" width="1" height="8" fill="rgb(255,255,255)" fill-opacity="0.0078125"/>
  <rect x="8" y="8" width="1" height="1" fill="rgb(52,52,52)" fill-opacity="0.15625"/>
  <rect x="8" y="9" width="1" height="1" fill="rgb(91,91,91)" fill-opacity="0.953125"/>
  <rect x="8" y="10" width="1" height="1" fill="rgb(250,250,250)"/>
  <rect x="8" y="11" width="1" height="1" fill="rgb(191,191,191)"/>
  <rect x="8" y="12" width="1" height="1" fill="rgb(62,62,62)" fill-opacity="0.9375"/>
  <rect x="8" y="13" width="1" height="1" fill="rgb(53,53,53)" fill-opacity="0.140625"/>
  <rect x="8" y="14" width="1" height="7" fill="rgb(255,255,255)" fill-opacity="0.0078125"/>
  <rect x="9" y="0" width="1" height="7" fill="rgb(255,255,255)" fill-opacity="0.0078125"/>
  <rect x="9" y="7" width="1" height="1" fill="rgb(64,64,64)" fill-opacity="0.0390625"/>
  <rect x="9" y="8" width="1" height="1" fill="rgb(63,63,63)" fill-opacity="0.8671875"/>
  <rect x="9" y="9" width="1" height="1" fill="rgb(230,230,230)"/>
  <rect x="9" y="10" width="1" height="1" fill="rgb(238,238,238)"/>
  <rect x="9" y="11" width="1" height="1" fill="rgb(178,178,178)"/>
  <rect x="9" y="12" width="1" height="1" fill="rgb(152,152,152)"/>
  <rect x="9" y="13" width="1" height="1" fill="rgb(62,62,62)" fill-opacity="0.8515625"/>
  <rect x="9" y="14" width="1" height="1" fill="rgb(43,43,43)" fill-opacity="0.03125"/>
  <rect x="9" y="15" width="1" height="6" fill="rgb(255,255,255)" fill-opacity="0.0078125"/>
  <rect x="10" y="0" width="1" height="7" fill="rgb(255,255,255)" fill-opacity="0.0078125"/>
  <rect x="10" y="7" width="1" height="1" fill="rgb(54,54,54)" fill-opacity="0.640625"/>
  <rect x="10" y="8" width="1" height="1" fill="rgb(190,190,190)" fill-opacity="0.984375"/>
  <rect x="10" y="9" width="1" height="1" fill="rgb(250,250,250)"/>
  <rect x="10" y="10" width="1" height="1" fill="rgb(174,174,174)"/>
  <rect x="10" y="11" width="1" height="1" fill="rgb(178,178,178)"/>
  <rect x="10" y="12" width="1" height="1" fill="rgb(198,198,198)"/>
  <rect x="10" y="13" width="1" height="1" fill="rgb(121,121,121)" fill-opacity="0.9609375"/>
  <rect x="10" y="14" width="1" height="1" fill="rgb(64,64,64)" fill-opacity="0.609375"/>
  <rect x="10" y="15" width="1" height="6" fill="rgb(255,255,255)" fill-opacity="0.0078125"/>
  <rect x="11" y="0" width="1" height="6" fill="rgb(255,255,255)" fill-opacity="0.0078125"/>
  <rect x="11" y="6" width="1" height="1" fill="rgb(52,52,52)" fill-opacity="0.3515625"/>
  <rect x="11" y="7" width="1" height="1" fill="rgb(80,80,80)" fill-opacity="0.9453125"/>
  <rect x="11" y="8" width="1" height="1" fill="rgb(254,254,254)"/>
  <rect x="11" y="9" width="1" height="1" fill="rgb(184,184,184)"/>
  <rect x="11" y="10" width="1" height="1" fill="rgb(162,162,162)"/>
  <rect x="11" y="11" width="1" height="1" fill="rgb(181,181,181)"/>
  <rect x="11" y="12" width="1" height="1" fill="rgb(201,201,201)"/>
  <rect x="11" y="13" width="1" height="1" fill="rgb(216,216,216)"/>
  <rect x="11" y="14" width="1" height="1" fill="rgb(81,81,81)" fill-opacity="0.953125"/>
  <rect x="11" y="15" width="1" height="1" fill="rgb(54,54,54)" fill-opacity="0.3203125"/>
  <rect x="11" y="16" width="1" height="5" fill="rgb(255,255,255)" fill-opacity="0.0078125"/>
  <rect x="12" y="0" width="1" height="6" fill="rgb(255,255,255)" fill-opacity="0.0078125"/>
  <rect x="12" y="6" width="1" height="1" fill="rgb(54,54,54)" fill-opacity="0.71875"/>
  <rect x="12" y="7" width="1" height="1" fill="rgb(54,54,54)" fill-opacity="0.953125"/>
  <rect x="12" y="8" width="1" height="1" fill="rgb(70,70,70)" fill-opacity="0.9453125"/>
  <rect x="12" y="9" width="1" height="1" fill="rgb(55,55,55)" fill-opacity="0.9609375"/>
  <rect x="12" y="10" width="1" height="2" fill="rgb(126,126,126)" fill-opacity="0.9765625"/>
  <rect x="12" y="12" width="1" height="1" fill="rgb(57,57,57)" fill-opacity="0.9609375"/>
  <rect x="12" y="13" width="1" height="1" fill="rgb(62,62,62)" fill-opacity="0.9453125"/>
  <rect x="12" y="14" width="1" height="1" fill="rgb(61,61,61)" fill-opacity="0.953125"/>
  <rect x="12" y="15" width="1" height="1" fill="rgb(67,67,67)" fill-opacity="0.7109375"/>
  <rect x="12" y="16" width="1" height="5" fill="rgb(255,255,255)" fill-opacity="0.0078125"/>
  <rect x="13" y="0" width="1" height="8" fill="rgb(255,255,255)" fill-opacity="0.0078125"/>
  <rect x="13" y="8" width="1" height="1" fill="rgb(51,51,51)" fill-opacity="0.140625"/>
  <rect x="13" y="9" width="1" height="1" fill="rgb(91,91,91)" fill-opacity="0.953125"/>
  <rect x="13" y="10" width="1" height="1" fill="rgb(250,250,250)"/>
  <rect x="13" y="11" width="1" height="1" fill="rgb(197,197,197)"/>
  <rect x="13" y="12" width="1" height="1" fill="rgb(62,62,62)" fill-opacity="0.9375"/>
  <rect x="13" y="13" width="1" height="1" fill="rgb(51,51,51)" fill-opacity="0.125"/>
  <rect x="13" y="14" width="1" height="7" fill="rgb(255,255,255)" fill-opacity="0.0078125"/>
  <rect x="14" y="0" width="1" height="7" fill="rgb(255,255,255)" fill-opacity="0.0078125"/>
  <rect x="14" y="7" width="1" height="1" fill="rgb(36,36,36)" fill-opacity="0.03125"/>
  <rect x="14" y="8" width="1" height="1" fill="rgb(66,66,66)" fill-opacity="0.859375"/>
  <rect x="14" y="9" width="1" height="1" fill="rgb(232,232,232)"/>
  <rect x="14" y="10" width="1" height="1" fill="rgb(241,241,241)"/>
  <rect x="14" y="11" width="1" height="1" fill="rgb(194,194,194)"/>
  <rect x="14" y="12" width="1" height="1" fill="rgb(157,157,157)"/>
  <rect x="14" y="13" width="1" height="1" fill="rgb(63,63,63)" fill-opacity="0.8359375"/>
  <rect x="14" y="14" width="1" height="1" fill="rgb(51,51,51)" fill-opacity="0.0234375"/>
  <rect x="14" y="15" width="1" height="6" fill="rgb(255,255,255)" fill-opacity="0.0078125"/>
  <rect x="15" y="0" width="1" height="7" fill="rgb(255,255,255)" fill-opacity="0.0078125"/>
  <rect x="15" y="7" width="1" height="1" fill="rgb(55,55,55)" fill-opacity="0.625"/>
  <rect x="15" y="8" width="1" height="1" fill="rgb(192,192,192)" fill-opacity="0.984375"/>
  <rect x="15" y="9" width="1" height="1" fill="rgb(251,251,251)"/>
  <rect x="15" y="10" width="1" height="1" fill="rgb(188,188,188)"/>
  <rect x="15" y="11" width="1" height="1" fill="rgb(194,194,194)"/>
  <rect x="15" y="12" width="1" height="1" fill="rgb(214,214,214)"/>
  <rect x="15" y="13" width="1" height="1" fill="rgb(124,124,124)" fill-opacity="0.9609375"/>
  <rect x="15" y="14" width="1" height="1" fill="rgb(65,65,65)" fill-opacity="0.6015625"/>
  <rect x="15" y="15" width="1" height="6" fill="rgb(255,255,255)" fill-opacity="0.0078125"/>
  <rect x="16" y="0" width="1" height="6" fill="rgb(255,255,255)" fill-opacity="0.0078125"/>
  <rect x="16" y="6" width="1" height="1" fill="rgb(53,53,53)" fill-opacity="0.34375"/>
  <rect x="16" y="7" width="1" height="1" fill="rgb(83,83,83)" fill-opacity="0.9453125"/>
  <rect x="16" y="8" width="1" height="1" fill="rgb(254,254,254)"/>
  <rect x="16" y="9" width="1" height="1" fill="rgb(194,194,194)"/>
  <rect x="16" y="10" width="1" height="1" fill="rgb(178,178,178)"/>
  <rect x="16" y="11" width="1" height="1" fill="rgb(197,197,197)"/>
  <rect x="16" y="12" width="1" height="1" fill="rgb(217,217,217)"/>
  <rect x="16" y="13" width="1" height="1" fill="rgb(231,231,231)"/>
  <rect x="16" y="14" width="1" height="1" fill="rgb(83,83,83)" fill-opacity="0.953125"/>
  <rect x="16" y="15" width="1" height="1" fill="rgb(55,55,55)" fill-opacity="0.3125"/>
  <rect x="16" y="16" width="1" height="5" fill="rgb(255,255,255)" fill-opacity="0.0078125"/>
  <rect x="17" y="0" width="1" height="6" fill="rgb(255,255,255)" fill-opacity="0.0078125"/>
  <rect x="17" y="6" width="1" height="1" fill="rgb(54,54,54)" fill-opacity="0.71875"/>
  <rect x="17" y="7" width="1" height="1" fill="rgb(55,55,55)" fill-opacity="0.953125"/>
  <rect x="17" y="8" width="1" height="1" fill="rgb(70,70,70)" fill-opacity="0.9453125"/>
  <rect x="17" y="9" width="1" height="1" fill="rgb(58,58,58)" fill-opacity="0.9453125"/>
  <rect x="17" y="10" width="1" height="1" fill="rgb(60,60,60)" fill-opacity="0.9453125"/>
  <rect x="17" y="11" width="1" height="1" fill="rgb(61,61,61)" fill-opacity="0.9453125"/>
  <rect x="17" y="12" width="1" height="1" fill="rgb(62,62,62)" fill-opacity="0.9453125"/>
  <rect x="17" y="13" width="1" height="1" fill="rgb(63,63,63)" fill-opacity="0.9453125"/>
  <rect x="17" y="14" width="1" height="1" fill="rgb(62,62,62)" fill-opacity="0.953125"/>
  <rect x="17" y="15" width="1" height="1" fill="rgb(67,67,67)" fill-opacity="0.7109375"/>
  <rect x="17" y="16" width="1" height="5" fill="rgb(255,255,255)" fill-opacity="0.0078125"/>
  <rect x="18" y="0" width="1" height="21" fill="rgb(255,255,255)" fill-opacity="0.0078125"/>
  <rect x="19" y="0" width="1" height="21" fill="rgb(255,255,255)" fill-opacity="0.0078125"/>
  <rect x="20" y="0" width="1" height="21" fill="rgb(255,255,255)" fill-opacity="0.0078125"/>
</svg>