<svg xmlns="http://www.w3.org/2000/svg" shape-rendering="crispEdges" width="21" height="21" viewBox="0 0 21 21">
  <rect x="0" y="0" width="1" height="21" fill="rgb(255,255,255)" fill-opacity="0.0078125"/>
  <rect x="1" y="0" width="1" height="21" fill="rgb(255,255,255)" fill-opacity="0.0078125"/>
  <rect x="2" y="0" width="1" height="21" fill="rgb(255,255,255)" fill-opacity="0.0078125"/>
  <rect x="3" y="0" width="1" height="21" fill="rgb(255,255,255)" fill-opacity="0.0078125"/>
  <rect x="4" y="0" width="1" height="9" fill="rgb(255,255,255)" fill-opacity="0.0078125"/>
  <rect x="4" y="9" width="1" height="1" fill="rgb(52,52,52)" fill-opacity="0.390625"/>
  <rect x="4" y="10" width="1" height="2" fill="rgb(51,51,51)" fill-opacity="0.8828125"/>
  <rect x="4" y="12" width="1" height="1" fill="rgb(52,52,52)" fill-opacity="0.390625"/>
  <rect x="4" y="13" width="1" height="8" fill="rgb(255,255,255)" fill-opacity="0.0078125"/>
  <rect x="5" y="0" width="1" height="5" fill="rgb(255,255,255)" fill-opacity="0.0078125"/>
  <rect x="5" y="5" width="1" height="1" fill="rgb(64,64,64)" fill-opacity="0.0390625"/>
  <rect x="5" y="6" width="1" height="1" fill="rgb(52,52,52)" fill-opacity="0.6796875"/>
  <rect x="5" y="7" width="1" height="1" fill="rgb(62,62,62)" fill-opacity="0.8671875"/>
  <rect x="5" y="8" width="1" height="1" fill="rgb(50,50,50)" fill-opacity="0.2421875"/>
  <rect x="5" y="9" width="1" height="1" fill="rgb(51,51,51)" fill-opacity="0.90625"/>
  <rect x="5" y="10" width="1" height="1" fill="rgb(242,242,242)"/>
  <rect x="5" y="11" width="1" height="1" fill="rgb(240,240,240)"/>
  <rect x="5" y="12" width="1" height="1" fill="rgb(51,51,51)" fill-opacity="0.90625"/>
  <rect x="5" y="13" width="1" height="1" fill="rgb(50,50,50)" fill-opacity="0.2421875"/>
  <rect x="5" y="14" width="1" height="1" fill="rgb(63,63,63)" fill-opacity="0.8671875"/>
  <rect x="5" y="15" width="1" height="1" fill="rgb(52,52,52)" fill-opacity="0.6796875"/>
  <rect x="5" y="16" width="1" height="1" fill="rgb(64,64,64)" fill-opacity="0.0390625"/>
  <rect x="5" y="17" width="1" height="4" fill="rgb(255,255,255)" fill-opacity="0.0078125"/>
  <rect x="6" y="0" width="1" height="5" fill="rgb(255,255,255)" fill-opacity="0.0078125"/>
  <rect x="6" y="5" width="1" height="1" fill="rgb(52,52,52)" fill-opacity="0.6796875"/>
  <rect x="6" y="6" width="1" height="1" fill="rgb(206,206,206)"/>
  <rect x="6" y="7" width="1" height="1" fill="rgb(242,242,242)"/>
  <rect x="6" y="8" width="1" height="1" fill="rgb(70,70,70)" fill-opacity="0.96875"/>
  <rect x="6" y="9" width="1" height="1" fill="rgb(110,110,110)"/>
  <rect x="6" y="10" width="1" height="1" fill="rgb(255,255,255)"/>
  <rect x="6" y="11" width="1" height="1" fill="rgb(179,179,179)"/>
  <rect x="6" y="12" width="1" height="1" fill="rgb(80,80,80)"/>
  <rect x="6" y="13" width="1" height="1" fill="rgb(102,102,102)" fill-opacity="0.96875"/>
  <rect x="6" y="14" width="1" height="1" fill="rgb(237,237,237)"/>
  <rect x="6" y="15" width="1" height="1" fill="rgb(123,123,123)"/>
  <rect x="6" y="16" width="1" height="1" fill="rgb(52,52,52)" fill-opacity="0.6796875"/>
  <rect x="6" y="17" width="1" height="4" fill="rgb(255,255,255)" fill-opacity="0.0078125"/>
  <rect x="7" y="0" width="1" height="5" fill="rgb(255,255,255)" fill-opacity="0.0078125"/>
  <rect x="7" y="5" width="1" height="1" fill="rgb(65,65,65)" fill-opacity="0.8671875"/>
  <rect x="7" y="6" width="1" height="1" fill="rgb(243,243,243)"/>
  <rect x="7" y="7" width="1" height="1" fill="rgb(191,191,191)"/>
  <rect x="7" y="8" width="1" height="1" fill="rgb(175,175,175)"/>
  <rect x="7" y="9" width="1" height="1" fill="rgb(241,241,241)"/>
  <rect x="7" y="10" width="1" height="1" fill="rgb(215,215,215)"/>
  <rect x="7" y="11" width="1" height="1" fill="rgb(182,182,182)"/>
  <rect x="7" y="12" width="1" height="1" fill="rgb(185,185,185)"/>
  <rect x="7" y="13" width="1" height="1" fill="rgb(229,229,229)"/>
  <rect x="7" y="14" width="1" height="1" fill="rgb(214,214,214)"/>
  <rect x="7" y="15" width="1" height="1" fill="rgb(177,177,177)"/>
  <rect x="7" y="16" width="1" height="1" fill="rgb(61,61,61)" fill-opacity="0.8671875"/>
  <rect x="7" y="17" width="1" height="4" fill="rgb(255,255,255)" fill-opacity="0.0078125"/>
  <rect x="8" y="0" width="1" height="5" fill="rgb(255,255,255)" fill-opacity="0.0078125"/>
  <rect x="8" y="5" width="1" height="1" fill="rgb(53,53,53)" fill-opacity="0.25"/>
  <rect x="8" y="6" width="1" height="1" fill="rgb(70,70,70)" fill-opacity="0.9765625"/>
  <rect x="8" y="7" width="1" height="1" fill="rgb(174,174,174)"/>
  <rect x="8" y="8" width="1" height="1" fill="rgb(175,175,175)"/>
  <rect x="8" y="9" width="1" height="1" fill="rgb(178,178,178)"/>
  <rect x="8" y="10" width="1" height="1" fill="rgb(181,181,181)"/>
  <rect x="8" y="11" width="1" height="1" fill="rgb(185,185,185)"/>
  <rect x="8" y="12" width="1" height="1" fill="rgb(188,188,188)"/>
  <rect x="8" y="13" width="1" height="1" fill="rgb(192,192,192)"/>
  <rect x="8" y="14" width="1" height="1" fill="rgb(195,195,195)"/>
  <rect x="8" y="15" width="1" height="1" fill="rgb(74,74,74)" fill-opacity="0.9765625"/>
  <rect x="8" y="16" width="1" height="1" fill="rgb(53,53,53)" fill-opacity="0.25"/>
  <rect x="8" y="17" width="1" height="4" fill="rgb(255,255,255)" fill-opacity="0.0078125"/>
  <rect x="9" y="0" width="1" height="4" fill="rgb(255,255,255)" fill-opacity="0.0078125"/>
  <rect x="9" y="4" width="1" height="1" fill="rgb(52,52,52)" fill-opacity="0.390625"/>
  <rect x="9" y="5" width="1" height="1" fill="rgb(51,51,51)" fill-opacity="0.8828125"/>
  <rect x="9" y="6" width="1" height="1" fill="rgb(114,114,114)"/>
  <rect x="9" y="7" width="1" height="1" fill="rgb(240,240,240)"/>
  <rect x="9" y="8" width="1" height="1" fill="rgb(178,178,178)"/>
  <rect x="9" y="9" width="1" height="1" fill="rgb(55,55,55)" fill-opacity="0.9921875"/>
  <rect x="9" y="10" width="1" height="2" fill="rgb(56,56,56)" fill-opacity="0.9140625"/>
  <rect x="9" y="12" width="1" height="1" fill="rgb(109,109,109)"/>
  <rect x="9" y="13" width="1" height="1" fill="rgb(241,241,241)"/>
  <rect x="9" y="14" width="1" height="1" fill="rgb(198,198,198)"/>
  <rect x="9" y="15" width="1" height="1" fill="rgb(88,88,88)"/>
  <rect x="9" y="16" width="1" height="1" fill="rgb(51,51,51)" fill-opacity="0.8828125"/>
  <rect x="9" y="17" width="1" height="1" fill="rgb(52,52,52)" fill-opacity="0.390625"/>
  <rect x="9" y="18" width="1" height="3" fill="rgb(255,255,255)" fill-opacity="0.0078125"/>
  <rect x="10" y="0" width="1" height="4" fill="rgb(255,255,255)" fill-opacity="0.0078125"/>
  <rect x="10" y="4" width="1" height="1" fill="rgb(51,51,51)" fill-opacity="0.90625"/>
  <rect x="10" y="5" width="1" height="1" fill="rgb(242,242,242)"/>
  <rect x="10" y="6" width="1" height="1" fill="rgb(253,253,253)"/>
  <rect x="10" y="7" width="1" height="1" fill="rgb(215,215,215)"/>
  <rect x="10" y="8" width="1" height="1" fill="rgb(181,181,181)"/>
  <rect x="10" y="9" width="1" height="1" fill="rgb(51,51,51)" fill-opacity="0.9140625"/>
  <rect x="10" y="10" width="1" height="2" fill="rgb(255,255,255)" fill-opacity="0.0078125"/>
  <rect x="10" y="12" width="1" height="1" fill="rgb(125,125,125)" fill-opacity="0.9453125"/>
  <rect x="10" y="13" width="1" height="1" fill="rgb(246,246,246)"/>
  <rect x="10" y="14" width="1" height="1" fill="rgb(201,201,201)"/>
  <rect x="10" y="15" width="1" height="2" fill="rgb(202,202,202)"/>
  <rect x="10" y="17" width="1" height="1" fill="rgb(51,51,51)" fill-opacity="0.90625"/>
  <rect x="10" y="18" width="1" height="3" fill="rgb(255,255,255)" fill-opacity="0.0078125"/>
  <rect x="11" y="0" width="1" height="4" fill="rgb(255,255,255)" fill-opacity="0.0078125"/>
  <rect x="11" y="4" width="1" height="1" fill="rgb(51,51,51)" fill-opacity="0.9140625"/>
  <rect x="11" y="5" width="1" height="1" fill="rgb(244,244,244)"/>
  <rect x="11" y="6" width="1" height="1" fill="rgb(180,180,180)"/>
  <rect x="11" y="7" width="1" height="1" fill="rgb(181,181,181)"/>
  <rect x="11" y="8" width="1" height="1" fill="rgb(184,184,184)"/>
  <rect x="11" y="9" width="1" height="1" fill="rgb(51,51,51)" fill-opacity="0.9140625"/>
  <rect x="11" y="10" width="1" height="2" fill="rgb(255,255,255)" fill-opacity="0.0078125"/>
  <rect x="11" y="12" width="1" height="1" fill="rgb(125,125,125)" fill-opacity="0.9453125"/>
  <rect x="11" y="13" width="1" height="1" fill="rgb(247,247,247)"/>
  <rect x="11" y="14" width="1" height="1" fill="rgb(204,204,204)"/>
  <rect x="11" y="15" width="1" height="1" fill="rgb(207,207,207)"/>
  <rect x="11" y="16" width="1" height="1" fill="rgb(211,211,211)"/>
  <rect x="11" y="17" width="1" height="1" fill="rgb(51,51,51)" fill-opacity="0.9140625"/>
  <rect x="11" y="18" width="1" height="3" fill="rgb(255,255,255)" fill-opacity="0.0078125"/>
  <rect x="12" y="0" width="1" height="4" fill="rgb(255,255,255)" fill-opacity="0.0078125"/>
  <rect x="12" y="4" width="1" height="1" fill="rgb(52,52,52)" fill-opacity="0.4296875"/>
  <rect x="12" y="5" width="1" height="1" fill="rgb(57,57,57)" fill-opacity="0.921875"/>
  <rect x="12" y="6" width="1" height="1" fill="rgb(87,87,87)"/>
  <rect x="12" y="7" width="1" height="1" fill="rgb(184,184,184)"/>
  <rect x="12" y="8" width="1" height="1" fill="rgb(187,187,187)"/>
  <rect x="12" y="9" width="1" height="1" fill="rgb(110,110,110)"/>
  <rect x="12" y="10" width="1" height="2" fill="rgb(127,127,127)" fill-opacity="0.921875"/>
  <rect x="12" y="12" width="1" height="1" fill="rgb(168,168,168)"/>
  <rect x="12" y="13" width="1" height="1" fill="rgb(247,247,247)"/>
  <rect x="12" y="14" width="1" height="1" fill="rgb(207,207,207)"/>
  <rect x="12" y="15" width="1" height="1" fill="rgb(95,95,95)"/>
  <rect x="12" y="16" width="1" height="1" fill="rgb(57,57,57)" fill-opacity="0.9140625"/>
  <rect x="12" y="17" width="1" height="1" fill="rgb(52,52,52)" fill-opacity="0.4296875"/>
  <rect x="12" y="18" width="1" height="3" fill="rgb(255,255,255)" fill-opacity="0.0078125"/>
  <rect x="13" y="0" width="1" height="5" fill="rgb(255,255,255)" fill-opacity="0.0078125"/>
  <rect x="13" y="5" width="1" height="1" fill="rgb(52,52,52)" fill-opacity="0.296875"/>
  <rect x="13" y="6" width="1" height="1" fill="rgb(101,101,101)"/>
  <rect x="13" y="7" width="1" height="1" fill="rgb(228,228,228)"/>
  <rect x="13" y="8" width="1" height="1" fill="rgb(192,192,192)"/>
  <rect x="13" y="9" width="1" height="1" fill="rgb(241,241,241)"/>
  <rect x="13" y="10" width="1" height="3" fill="rgb(246,246,246)"/>
  <rect x="13" y="13" width="1" height="1" fill="rgb(233,233,233)"/>
  <rect x="13" y="14" width="1" height="1" fill="rgb(210,210,210)"/>
  <rect x="13" y="15" width="1" height="1" fill="rgb(77,77,77)" fill-opacity="0.9765625"/>
  <rect x="13" y="16" width="1" height="1" fill="rgb(50,50,50)" fill-opacity="0.2421875"/>
  <rect x="13" y="17" width="1" height="4" fill="rgb(255,255,255)" fill-opacity="0.0078125"/>
  <rect x="14" y="0" width="1" height="5" fill="rgb(255,255,255)" fill-opacity="0.0078125"/>
  <rect x="14" y="5" width="1" height="1" fill="rgb(61,61,61)" fill-opacity="0.8828125"/>
  <rect x="14" y="6" width="1" height="1" fill="rgb(236,236,236)"/>
  <rect x="14" y="7" width="1" height="1" fill="rgb(214,214,214)"/>
  <rect x="14" y="8" width="1" height="1" fill="rgb(194,194,194)"/>
  <rect x="14" y="9" width="1" height="1" fill="rgb(197,197,197)"/>
  <rect x="14" y="10" width="1" height="1" fill="rgb(200,200,200)"/>
  <rect x="14" y="11" width="1" height="1" fill="rgb(204,204,204)"/>
  <rect x="14" y="12" width="1" height="1" fill="rgb(207,207,207)"/>
  <rect x="14" y="13" width="1" height="1" fill="rgb(210,210,210)"/>
  <rect x="14" y="14" width="1" height="1" fill="rgb(213,213,213)"/>
  <rect x="14" y="15" width="1" height="1" fill="rgb(197,197,197)"/>
  <rect x="14" y="16" width="1" height="1" fill="rgb(64,64,64)" fill-opacity="0.8671875"/>
  <rect x="14" y="17" width="1" height="4" fill="rgb(255,255,255)" fill-opacity="0.0078125"/>
  <rect x="15" y="0" width="1" height="5" fill="rgb(255,255,255)" fill-opacity="0.0078125"/>
  <rect x="15" y="5" width="1" height="1" fill="rgb(51,51,51)" fill-opacity="0.6875"/>
  <rect x="15" y="6" width="1" height="1" fill="rgb(122,122,122)"/>
  <rect x="15" y="7" width="1" height="1" fill="rgb(176,176,176)"/>
  <rect x="15" y="8" width="1" height="1" fill="rgb(74,74,74)"/>
  <rect x="15" y="9" width="1" height="1" fill="rgb(91,91,91)"/>
  <rect x="15" y="10" width="1" height="1" fill="rgb(203,203,203)"/>
  <rect x="15" y="11" width="1" height="1" fill="rgb(207,207,207)"/>
  <rect x="15" y="12" width="1" height="1" fill="rgb(94,94,94)"/>
  <rect x="15" y="13" width="1" height="1" fill="rgb(76,76,76)"/>
  <rect x="15" y="14" width="1" height="1" fill="rgb(197,197,197)"/>
  <rect x="15" y="15" width="1" height="1" fill="rgb(135,135,135)"/>
  <rect x="15" y="16" width="1" height="1" fill="rgb(52,52,52)" fill-opacity="0.6796875"/>
  <rect x="15" y="17" width="1" height="4" fill="rgb(255,255,255)" fill-opacity="0.0078125"/>
  <rect x="16" y="0" width="1" height="5" fill="rgb(255,255,255)" fill-opacity="0.0078125"/>
  <rect x="16" y="5" width="1" height="1" fill="rgb(64,64,64)" fill-opacity="0.0390625"/>
  <rect x="16" y="6" width="1" height="1" fill="rgb(51,51,51)" fill-opacity="0.6875"/>
  <rect x="16" y="7" width="1" height="1" fill="rgb(60,60,60)" fill-opacity="0.8828125"/>
  <rect x="16" y="8" width="1" height="1" fill="rgb(52,52,52)" fill-opacity="0.2890625"/>
  <rect x="16" y="9" width="1" height="1" fill="rgb(51,51,51)" fill-opacity="0.9140625"/>
  <rect x="16" y="10" width="1" height="1" fill="rgb(207,207,207)"/>
  <rect x="16" y="11" width="1" height="1" fill="rgb(210,210,210)"/>
  <rect x="16" y="12" width="1" height="1" fill="rgb(51,51,51)" fill-opacity="0.9140625"/>
  <rect x="16" y="13" width="1" height="1" fill="rgb(52,52,52)" fill-opacity="0.2890625"/>
  <rect x="16" y="14" width="1" height="1" fill="rgb(63,63,63)" fill-opacity="0.8828125"/>
  <rect x="16" y="15" width="1" height="1" fill="rgb(51,51,51)" fill-opacity="0.6875"/>
  <rect x="16" y="16" width="1" height="1" fill="rgb(64,64,64)" fill-opacity="0.0390625"/>
  <rect x="16" y="17" width="1" height="4" fill="rgb(255,255,255)" fill-opacity="0.0078125"/>
  <rect x="17" y="0" width="1" height="9" fill="rgb(255,255,255)" fill-opacity="0.0078125"/>
  <rect x="17" y="9" width="1" height="1" fill="rgb(52,52,52)" fill-opacity="0.4296875"/>
  <rect x="17" y="10" width="1" height="2" fill="rgb(57,57,57)" fill-opacity="0.9140625"/>
  <rect x="17" y="12" width="1" height="1" fill="rgb(52,52,52)" fill-opacity="0.4296875"/>
  <rect x="17" y="13" width="1" height="8" fill="rgb(255,255,255)" fill-opacity="0.0078125"/>
  <rect x="18" y="0" width="1" height="21" fill="rgb(255,255,255)" fill-opacity="0.0078125"/>
  <rect x="19" y="0" width="1" height="21" fill="rgb(255,255,255)" fill-opacity="0.0078125"/>
  <rect x="20" y="0" width="1" height="21" fill="rgb(255,255,255)" fill-opacity="0.0078125"/>
</svg>