<svg xmlns="http://www.w3.org/2000/svg" shape-rendering="crispEdges" width="21" height="21" viewBox="0 0 21 21">
  <rect x="0" y="0" width="1" height="21" fill="rgb(255,255,255)" fill-opacity="0.0078125"/>
  <rect x="1" y="0" width="1" height="21" fill="rgb(255,255,255)" fill-opacity="0.0078125"/>
  <rect x="2" y="0" width="1" height="21" fill="rgb(255,255,255)" fill-opacity="0.0078125"/>
  <rect x="3" y="0" width="1" height="15" fill="rgb(255,255,255)" fill-opacity="0.0078125"/>
  <rect x="3" y="15" width="1" height="1" fill="rgb(44,25,12)" fill-opacity="0.1640625"/>
  <rect x="3" y="16" width="1" height="1" fill="rgb(44,27,15)" fill-opacity="0.6640625"/>
  <rect x="3" y="17" width="1" height="1" fill="rgb(56,34,15)" fill-opacity="0.8046875"/>
  <rect x="3" y="18" width="1" height="1" fill="rgb(42,25,13)" fill-opacity="0.2421875"/>
  <rect x="3" y="19" width="1" height="2" fill="rgb(255,255,255)" fill-opacity="0.0078125"/>
  <rect x="4" y="0" width="1" height="14" fill="rgb(255,255,255)" fill-opacity="0.0078125"/>
  <rect x="4" y="14" width="1" height="1" fill="rgb(40,23,11)" fill-opacity="0.1796875"/>
  <rect x="4" y="15" width="1" height="1" fill="rgb(68,45,31)" fill-opacity="0.8984375"/>
  <rect x="4" y="16" width="1" height="1" fill="rgb(205,179,161)" fill-opacity="0.9609375"/>
  <rect x="4" y="17" width="1" height="1" fill="rgb(165,103,60)" fill-opacity="0.9609375"/>
  <rect x="4" y="18" width="1" height="1" fill="rgb(55,31,16)" fill-opacity="0.7734375"/>
  <rect x="4" y="19" width="1" height="2" fill="rgb(255,255,255)" fill-opacity="0.0078125"/>
  <rect x="5" y="0" width="1" height="13" fill="rgb(255,255,255)" fill-opacity="0.0078125"/>
  <rect x="5" y="13" width="1" height="1" fill="rgb(43,22,11)" fill-opacity="0.1875"/>
  <rect x="5" y="14" width="1" height="1" fill="rgb(67,44,31)" fill-opacity="0.90625"/>
  <rect x="5" y="15" width="1" height="1" fill="rgb(208,183,165)" fill-opacity="0.9609375"/>
  <rect x="5" y="16" width="1" height="1" fill="rgb(189,141,109)" fill-opacity="0.9609375"/>
  <rect x="5" y="17" width="1" height="1" fill="rgb(141,80,39)" fill-opacity="0.9609375"/>
  <rect x="5" y="18" width="1" height="1" fill="rgb(47,26,14)" fill-opacity="0.765625"/>
  <rect x="5" y="19" width="1" height="2" fill="rgb(255,255,255)" fill-opacity="0.0078125"/>
  <rect x="6" y="0" width="1" height="12" fill="rgb(255,255,255)" fill-opacity="0.0078125"/>
  <rect x="6" y="12" width="1" height="1" fill="rgb(0,0,0)" fill-opacity="0.015625"/>
  <rect x="6" y="13" width="1" height="1" fill="rgb(46,27,14)" fill-opacity="0.84375"/>
  <rect x="6" y="14" width="1" height="1" fill="rgb(206,179,161)" fill-opacity="0.9609375"/>
  <rect x="6" y="15" width="1" height="1" fill="rgb(189,141,109)" fill-opacity="0.9609375"/>
  <rect x="6" y="16" width="1" height="1" fill="rgb(141,80,39)" fill-opacity="0.9609375"/>
  <rect x="6" y="17" width="1" height="1" fill="rgb(53,29,13)" fill-opacity="0.8984375"/>
  <rect x="6" y="18" width="1" height="1" fill="rgb(43,24,12)" fill-opacity="0.171875"/>
  <rect x="6" y="19" width="1" height="2" fill="rgb(255,255,255)" fill-opacity="0.0078125"/>
  <rect x="7" y="0" width="1" height="6" fill="rgb(255,255,255)" fill-opacity="0.0078125"/>
  <rect x="7" y="6" width="1" height="1" fill="rgb(0,0,0)" fill-opacity="0.2890625"/>
  <rect x="7" y="7" width="1" height="1" fill="rgb(0,0,0)" fill-opacity="0.59375"/>
  <rect x="7" y="8" width="1" height="2" fill="rgb(1,1,1)" fill-opacity="0.7890625"/>
  <rect x="7" y="10" width="1" height="1" fill="rgb(0,0,0)" fill-opacity="0.59375"/>
  <rect x="7" y="11" width="1" height="1" fill="rgb(0,0,0)" fill-opacity="0.2890625"/>
  <rect x="7" y="12" width="1" height="1" fill="rgb(0,0,0)" fill-opacity="0.09375"/>
  <rect x="7" y="13" width="1" height="1" fill="rgb(116,102,90)" fill-opacity="0.953125"/>
  <rect x="7" y="14" width="1" height="1" fill="rgb(169,106,65)" fill-opacity="0.9609375"/>
  <rect x="7" y="15" width="1" height="1" fill="rgb(143,81,40)" fill-opacity="0.9609375"/>
  <rect x="7" y="16" width="1" height="1" fill="rgb(52,29,13)" fill-opacity="0.90625"/>
  <rect x="7" y="17" width="1" height="1" fill="rgb(40,23,11)" fill-opacity="0.1796875"/>
  <rect x="7" y="18" width="1" height="3" fill="rgb(255,255,255)" fill-opacity="0.0078125"/>
  <rect x="8" y="0" width="1" height="4" fill="rgb(255,255,255)" fill-opacity="0.0078125"/>
  <rect x="8" y="4" width="1" height="1" fill="rgb(0,0,0)" fill-opacity="0.0546875"/>
  <rect x="8" y="5" width="1" height="1" fill="rgb(0,0,0)" fill-opacity="0.625"/>
  <rect x="8" y="6" width="1" height="1" fill="rgb(25,25,25)" fill-opacity="0.6796875"/>
  <rect x="8" y="7" width="1" height="1" fill="rgb(164,164,164)" fill-opacity="0.5078125"/>
  <rect x="8" y="8" width="1" height="1" fill="rgb(212,212,212)" fill-opacity="0.5390625"/>
  <rect x="8" y="9" width="1" height="1" fill="rgb(221,221,221)" fill-opacity="0.5703125"/>
  <rect x="8" y="10" width="1" height="1" fill="rgb(188,188,188)" fill-opacity="0.5703125"/>
  <rect x="8" y="11" width="1" height="1" fill="rgb(42,42,42)" fill-opacity="0.6953125"/>
  <rect x="8" y="12" width="1" height="1" fill="rgb(94,94,94)" fill-opacity="0.921875"/>
  <rect x="8" y="13" width="1" height="1" fill="rgb(204,204,204)" fill-opacity="0.9609375"/>
  <rect x="8" y="14" width="1" height="1" fill="rgb(117,101,90)" fill-opacity="0.9609375"/>
  <rect x="8" y="15" width="1" height="1" fill="rgb(42,25,12)" fill-opacity="0.765625"/>
  <rect x="8" y="16" width="1" height="1" fill="rgb(43,22,11)" fill-opacity="0.1875"/>
  <rect x="8" y="17" width="1" height="4" fill="rgb(255,255,255)" fill-opacity="0.0078125"/>
  <rect x="9" y="0" width="1" height="4" fill="rgb(255,255,255)" fill-opacity="0.0078125"/>
  <rect x="9" y="4" width="1" height="1" fill="rgb(0,0,0)" fill-opacity="0.625"/>
  <rect x="9" y="5" width="1" height="1" fill="rgb(86,86,86)" fill-opacity="0.5546875"/>
  <rect x="9" y="6" width="1" height="1" fill="rgb(197,197,197)" fill-opacity="0.578125"/>
  <rect x="9" y="7" width="1" height="1" fill="rgb(155,161,167)" fill-opacity="0.65625"/>
  <rect x="9" y="8" width="1" height="1" fill="rgb(154,161,172)" fill-opacity="0.65625"/>
  <rect x="9" y="9" width="1" height="1" fill="rgb(166,168,171)" fill-opacity="0.625"/>
  <rect x="9" y="10" width="1" height="1" fill="rgb(195,195,195)" fill-opacity="0.640625"/>
  <rect x="9" y="11" width="1" height="1" fill="rgb(238,238,238)" fill-opacity="0.71875"/>
  <rect x="9" y="12" width="1" height="1" fill="rgb(213,213,213)" fill-opacity="0.9609375"/>
  <rect x="9" y="13" width="1" height="1" fill="rgb(94,94,94)" fill-opacity="0.9140625"/>
  <rect x="9" y="14" width="1" height="1" fill="rgb(9,0,0)" fill-opacity="0.1171875"/>
  <rect x="9" y="15" width="1" height="6" fill="rgb(255,255,255)" fill-opacity="0.0078125"/>
  <rect x="10" y="0" width="1" height="3" fill="rgb(255,255,255)" fill-opacity="0.0078125"/>
  <rect x="10" y="3" width="1" height="1" fill="rgb(0,0,0)" fill-opacity="0.2890625"/>
  <rect x="10" y="4" width="1" height="1" fill="rgb(27,27,27)" fill-opacity="0.6796875"/>
  <rect x="10" y="5" width="1" height="1" fill="rgb(198,198,198)" fill-opacity="0.578125"/>
  <rect x="10" y="6" width="1" height="1" fill="rgb(208,212,219)" fill-opacity="0.8203125"/>
  <rect x="10" y="7" width="1" height="1" fill="rgb(210,215,223)" fill-opacity="0.8359375"/>
  <rect x="10" y="8" width="1" height="1" fill="rgb(161,170,187)" fill-opacity="0.7265625"/>
  <rect x="10" y="9" width="1" height="1" fill="rgb(171,178,189)" fill-opacity="0.703125"/>
  <rect x="10" y="10" width="1" height="1" fill="rgb(181,183,186)" fill-opacity="0.640625"/>
  <rect x="10" y="11" width="1" height="1" fill="rgb(198,198,198)" fill-opacity="0.578125"/>
  <rect x="10" y="12" width="1" height="1" fill="rgb(247,247,247)" fill-opacity="0.7734375"/>
  <rect x="10" y="13" width="1" height="1" fill="rgb(52,52,52)" fill-opacity="0.7109375"/>
  <rect x="10" y="14" width="1" height="1" fill="rgb(0,0,0)" fill-opacity="0.2890625"/>
  <rect x="10" y="15" width="1" height="6" fill="rgb(255,255,255)" fill-opacity="0.0078125"/>
  <rect x="11" y="0" width="1" height="3" fill="rgb(255,255,255)" fill-opacity="0.0078125"/>
  <rect x="11" y="3" width="1" height="1" fill="rgb(0,0,0)" fill-opacity="0.59375"/>
  <rect x="11" y="4" width="1" height="1" fill="rgb(164,164,164)" fill-opacity="0.5234375"/>
  <rect x="11" y="5" width="1" height="1" fill="rgb(158,161,164)" fill-opacity="0.65625"/>
  <rect x="11" y="6" width="1" height="1" fill="rgb(212,217,221)" fill-opacity="0.8359375"/>
  <rect x="11" y="7" width="1" height="1" fill="rgb(217,220,226)" fill-opacity="0.859375"/>
  <rect x="11" y="8" width="1" height="1" fill="rgb(183,189,198)" fill-opacity="0.8046875"/>
  <rect x="11" y="9" width="1" height="1" fill="rgb(194,191,197)" fill-opacity="0.796875"/>
  <rect x="11" y="10" width="1" height="1" fill="rgb(206,195,195)" fill-opacity="0.734375"/>
  <rect x="11" y="11" width="1" height="1" fill="rgb(210,197,195)" fill-opacity="0.625"/>
  <rect x="11" y="12" width="1" height="1" fill="rgb(235,235,235)" fill-opacity="0.65625"/>
  <rect x="11" y="13" width="1" height="1" fill="rgb(219,219,219)" fill-opacity="0.6953125"/>
  <rect x="11" y="14" width="1" height="1" fill="rgb(0,0,0)" fill-opacity="0.59375"/>
  <rect x="11" y="15" width="1" height="6" fill="rgb(255,255,255)" fill-opacity="0.0078125"/>
  <rect x="12" y="0" width="1" height="3" fill="rgb(255,255,255)" fill-opacity="0.0078125"/>
  <rect x="12" y="3" width="1" height="1" fill="rgb(3,3,3)" fill-opacity="0.7890625"/>
  <rect x="12" y="4" width="1" height="1" fill="rgb(215,215,215)" fill-opacity="0.5625"/>
  <rect x="12" y="5" width="1" height="1" fill="rgb(159,164,168)" fill-opacity="0.6484375"/>
  <rect x="12" y="6" width="1" height="1" fill="rgb(166,173,183)" fill-opacity="0.7265625"/>
  <rect x="12" y="7" width="1" height="1" fill="rgb(183,189,196)" fill-opacity="0.8046875"/>
  <rect x="12" y="8" width="1" height="2" fill="rgb(0,0,0)" fill-opacity="0.9609375"/>
  <rect x="12" y="10" width="1" height="1" fill="rgb(221,202,201)" fill-opacity="0.796875"/>
  <rect x="12" y="11" width="1" height="1" fill="rgb(227,199,198)" fill-opacity="0.6875"/>
  <rect x="12" y="12" width="1" height="1" fill="rgb(235,227,225)" fill-opacity="0.6015625"/>
  <rect x="12" y="13" width="1" height="1" fill="rgb(251,251,251)" fill-opacity="0.8046875"/>
  <rect x="12" y="14" width="1" height="1" fill="rgb(3,3,3)" fill-opacity="0.7890625"/>
  <rect x="12" y="15" width="1" height="6" fill="rgb(255,255,255)" fill-opacity="0.0078125"/>
  <rect x="13" y="0" width="1" height="3" fill="rgb(255,255,255)" fill-opacity="0.0078125"/>
  <rect x="13" y="3" width="1" height="1" fill="rgb(3,3,3)" fill-opacity="0.7890625"/>
  <rect x="13" y="4" width="1" height="1" fill="rgb(222,222,222)" fill-opacity="0.5859375"/>
  <rect x="13" y="5" width="1" height="1" fill="rgb(172,172,174)" fill-opacity="0.6328125"/>
  <rect x="13" y="6" width="1" height="1" fill="rgb(177,179,185)" fill-opacity="0.703125"/>
  <rect x="13" y="7" width="1" height="4" fill="rgb(0,0,0)" fill-opacity="0.9609375"/>
  <rect x="13" y="11" width="1" height="1" fill="rgb(238,203,197)" fill-opacity="0.6875"/>
  <rect x="13" y="12" width="1" height="1" fill="rgb(245,230,229)" fill-opacity="0.609375"/>
  <rect x="13" y="13" width="1" height="1" fill="rgb(253,253,253)" fill-opacity="0.828125"/>
  <rect x="13" y="14" width="1" height="1" fill="rgb(3,3,3)" fill-opacity="0.7890625"/>
  <rect x="13" y="15" width="1" height="6" fill="rgb(255,255,255)" fill-opacity="0.0078125"/>
  <rect x="14" y="0" width="1" height="3" fill="rgb(255,255,255)" fill-opacity="0.0078125"/>
  <rect x="14" y="3" width="1" height="1" fill="rgb(0,0,0)" fill-opacity="0.59375"/>
  <rect x="14" y="4" width="1" height="1" fill="rgb(188,188,188)" fill-opacity="0.5859375"/>
  <rect x="14" y="5" width="1" height="1" fill="rgb(196,196,196)" fill-opacity="0.640625"/>
  <rect x="14" y="6" width="1" height="6" fill="rgb(0,0,0)" fill-opacity="0.9609375"/>
  <rect x="14" y="12" width="1" height="1" fill="rgb(255,246,245)" fill-opacity="0.6953125"/>
  <rect x="14" y="13" width="1" height="1" fill="rgb(228,228,228)" fill-opacity="0.7421875"/>
  <rect x="14" y="14" width="1" height="1" fill="rgb(0,0,0)" fill-opacity="0.59375"/>
  <rect x="14" y="15" width="1" height="6" fill="rgb(255,255,255)" fill-opacity="0.0078125"/>
  <rect x="15" y="0" width="1" height="3" fill="rgb(255,255,255)" fill-opacity="0.0078125"/>
  <rect x="15" y="3" width="1" height="1" fill="rgb(0,0,0)" fill-opacity="0.2890625"/>
  <rect x="15" y="4" width="1" height="1" fill="rgb(43,43,43)" fill-opacity="0.6953125"/>
  <rect x="15" y="5" width="1" height="1" fill="rgb(240,240,240)" fill-opacity="0.71875"/>
  <rect x="15" y="6" width="1" height="1" fill="rgb(198,198,198)" fill-opacity="0.5859375"/>
  <rect x="15" y="7" width="1" height="1" fill="rgb(208,201,199)" fill-opacity="0.6171875"/>
  <rect x="15" y="8" width="1" height="2" fill="rgb(0,0,0)" fill-opacity="0.9609375"/>
  <rect x="15" y="10" width="1" height="1" fill="rgb(247,202,197)" fill-opacity="0.640625"/>
  <rect x="15" y="11" width="1" height="1" fill="rgb(253,223,220)" fill-opacity="0.6015625"/>
  <rect x="15" y="12" width="1" height="1" fill="rgb(255,254,254)" fill-opacity="0.90625"/>
  <rect x="15" y="13" width="1" height="1" fill="rgb(58,58,58)" fill-opacity="0.7109375"/>
  <rect x="15" y="14" width="1" height="1" fill="rgb(0,0,0)" fill-opacity="0.2890625"/>
  <rect x="15" y="15" width="1" height="6" fill="rgb(255,255,255)" fill-opacity="0.0078125"/>
  <rect x="16" y="0" width="1" height="4" fill="rgb(255,255,255)" fill-opacity="0.0078125"/>
  <rect x="16" y="4" width="1" height="1" fill="rgb(0,0,0)" fill-opacity="0.625"/>
  <rect x="16" y="5" width="1" height="1" fill="rgb(133,133,133)" fill-opacity="0.625"/>
  <rect x="16" y="6" width="1" height="1" fill="rgb(248,248,248)" fill-opacity="0.7734375"/>
  <rect x="16" y="7" width="1" height="1" fill="rgb(233,233,233)" fill-opacity="0.65625"/>
  <rect x="16" y="8" width="1" height="2" fill="rgb(0,0,0)" fill-opacity="0.9609375"/>
  <rect x="16" y="10" width="1" height="1" fill="rgb(255,243,242)" fill-opacity="0.6953125"/>
  <rect x="16" y="11" width="1" height="1" fill="rgb(255,255,255)" fill-opacity="0.9140625"/>
  <rect x="16" y="12" width="1" height="1" fill="rgb(158,158,158)" fill-opacity="0.671875"/>
  <rect x="16" y="13" width="1" height="1" fill="rgb(0,0,0)" fill-opacity="0.625"/>
  <rect x="16" y="14" width="1" height="7" fill="rgb(255,255,255)" fill-opacity="0.0078125"/>
  <rect x="17" y="0" width="1" height="4" fill="rgb(255,255,255)" fill-opacity="0.0078125"/>
  <rect x="17" y="4" width="1" height="1" fill="rgb(0,0,0)" fill-opacity="0.0546875"/>
  <rect x="17" y="5" width="1" height="1" fill="rgb(0,0,0)" fill-opacity="0.625"/>
  <rect x="17" y="6" width="1" height="1" fill="rgb(57,57,57)" fill-opacity="0.7109375"/>
  <rect x="17" y="7" width="1" height="1" fill="rgb(220,220,220)" fill-opacity="0.6953125"/>
  <rect x="17" y="8" width="1" height="2" fill="rgb(0,0,0)" fill-opacity="0.9609375"/>
  <rect x="17" y="10" width="1" height="1" fill="rgb(228,228,228)" fill-opacity="0.734375"/>
  <rect x="17" y="11" width="1" height="1" fill="rgb(63,63,63)" fill-opacity="0.71875"/>
  <rect x="17" y="12" width="1" height="1" fill="rgb(0,0,0)" fill-opacity="0.625"/>
  <rect x="17" y="13" width="1" height="1" fill="rgb(0,0,0)" fill-opacity="0.0546875"/>
  <rect x="17" y="14" width="1" height="7" fill="rgb(255,255,255)" fill-opacity="0.0078125"/>
  <rect x="18" y="0" width="1" height="6" fill="rgb(255,255,255)" fill-opacity="0.0078125"/>
  <rect x="18" y="6" width="1" height="1" fill="rgb(0,0,0)" fill-opacity="0.2890625"/>
  <rect x="18" y="7" width="1" height="1" fill="rgb(0,0,0)" fill-opacity="0.59375"/>
  <rect x="18" y="8" width="1" height="2" fill="rgb(0,0,0)" fill-opacity="0.875"/>
  <rect x="18" y="10" width="1" height="1" fill="rgb(0,0,0)" fill-opacity="0.59375"/>
  <rect x="18" y="11" width="1" height="1" fill="rgb(0,0,0)" fill-opacity="0.2890625"/>
  <rect x="18" y="12" width="1" height="9" fill="rgb(255,255,255)" fill-opacity="0.0078125"/>
  <rect x="19" y="0" width="1" height="21" fill="rgb(255,255,255)" fill-opacity="0.0078125"/>
  <rect x="20" y="0" width="1" height="21" fill="rgb(255,255,255)" fill-opacity="0.0078125"/>
</svg>