<svg xmlns="http://www.w3.org/2000/svg" shape-rendering="crispEdges" width="21" height="21" viewBox="0 0 21 21">
  <rect x="0" y="0" width="1" height="21" fill="rgb(255,255,255)" fill-opacity="0.0078125"/>
  <rect x="1" y="0" width="1" height="21" fill="rgb(255,255,255)" fill-opacity="0.0078125"/>
  <rect x="2" y="0" width="1" height="21" fill="rgb(255,255,255)" fill-opacity="0.0078125"/>
  <rect x="3" y="0" width="1" height="6" fill="rgb(255,255,255)" fill-opacity="0.0078125"/>
  <rect x="3" y="6" width="1" height="1" fill="rgb(85,85,85)" fill-opacity="0.015625"/>
  <rect x="3" y="7" width="1" height="1" fill="rgb(54,54,54)" fill-opacity="0.4140625"/>
  <rect x="3" y="8" width="1" height="10" fill="rgb(52,52,52)" fill-opacity="0.578125"/>
  <rect x="3" y="18" width="1" height="1" fill="rgb(57,57,57)" fill-opacity="0.53125"/>
  <rect x="3" y="19" width="1" height="2" fill="rgb(255,255,255)" fill-opacity="0.0078125"/>
  <rect x="4" y="0" width="1" height="5" fill="rgb(255,255,255)" fill-opacity="0.0078125"/>
  <rect x="4" y="5" width="1" height="1" fill="rgb(85,85,85)" fill-opacity="0.015625"/>
  <rect x="4" y="6" width="1" height="1" fill="rgb(55,55,55)" fill-opacity="0.421875"/>
  <rect x="4" y="7" width="1" height="1" fill="rgb(97,97,97)" fill-opacity="0.5703125"/>
  <rect x="4" y="8" width="1" height="1" fill="rgb(252,252,252)" fill-opacity="0.578125"/>
  <rect x="4" y="9" width="1" height="1" fill="rgb(232,232,232)" fill-opacity="0.578125"/>
  <rect x="4" y="10" width="1" height="1" fill="rgb(243,243,243)" fill-opacity="0.578125"/>
  <rect x="4" y="11" width="1" height="1" fill="rgb(241,241,241)" fill-opacity="0.578125"/>
  <rect x="4" y="12" width="1" height="1" fill="rgb(236,236,236)" fill-opacity="0.578125"/>
  <rect x="4" y="13" width="1" height="5" fill="rgb(234,234,234)" fill-opacity="0.578125"/>
  <rect x="4" y="18" width="1" height="1" fill="rgb(52,52,52)" fill-opacity="0.578125"/>
  <rect x="4" y="19" width="1" height="2" fill="rgb(255,255,255)" fill-opacity="0.0078125"/>
  <rect x="5" y="0" width="1" height="5" fill="rgb(255,255,255)" fill-opacity="0.0078125"/>
  <rect x="5" y="5" width="1" height="1" fill="rgb(54,54,54)" fill-opacity="0.4140625"/>
  <rect x="5" y="6" width="1" height="1" fill="rgb(97,97,97)" fill-opacity="0.5703125"/>
  <rect x="5" y="7" width="1" height="1" fill="rgb(252,252,252)" fill-opacity="0.578125"/>
  <rect x="5" y="8" width="1" height="1" fill="rgb(255,255,255)" fill-opacity="0.578125"/>
  <rect x="5" y="9" width="1" height="1" fill="rgb(128,128,128)" fill-opacity="0.578125"/>
  <rect x="5" y="10" width="1" height="1" fill="rgb(151,151,151)" fill-opacity="0.578125"/>
  <rect x="5" y="11" width="1" height="1" fill="rgb(173,173,173)" fill-opacity="0.578125"/>
  <rect x="5" y="12" width="1" height="1" fill="rgb(187,187,187)" fill-opacity="0.578125"/>
  <rect x="5" y="13" width="1" height="1" fill="rgb(196,196,196)" fill-opacity="0.578125"/>
  <rect x="5" y="14" width="1" height="1" fill="rgb(169,166,164)" fill-opacity="0.6328125"/>
  <rect x="5" y="15" width="1" height="1" fill="rgb(212,212,212)" fill-opacity="0.578125"/>
  <rect x="5" y="16" width="1" height="1" fill="rgb(220,220,220)" fill-opacity="0.578125"/>
  <rect x="5" y="17" width="1" height="1" fill="rgb(229,229,229)" fill-opacity="0.578125"/>
  <rect x="5" y="18" width="1" height="1" fill="rgb(52,52,52)" fill-opacity="0.578125"/>
  <rect x="5" y="19" width="1" height="2" fill="rgb(255,255,255)" fill-opacity="0.0078125"/>
  <rect x="6" y="0" width="1" height="5" fill="rgb(255,255,255)" fill-opacity="0.0078125"/>
  <rect x="6" y="5" width="1" height="1" fill="rgb(52,52,52)" fill-opacity="0.578125"/>
  <rect x="6" y="6" width="1" height="1" fill="rgb(252,252,252)" fill-opacity="0.578125"/>
  <rect x="6" y="7" width="1" height="2" fill="rgb(255,255,255)" fill-opacity="0.578125"/>
  <rect x="6" y="9" width="1" height="1" fill="rgb(132,132,132)" fill-opacity="0.578125"/>
  <rect x="6" y="10" width="1" height="1" fill="rgb(158,158,158)" fill-opacity="0.578125"/>
  <rect x="6" y="11" width="1" height="1" fill="rgb(182,182,182)" fill-opacity="0.578125"/>
  <rect x="6" y="12" width="1" height="1" fill="rgb(165,162,159)" fill-opacity="0.625"/>
  <rect x="6" y="13" width="1" height="1" fill="rgb(79,62,47)" fill-opacity="0.90625"/>
  <rect x="6" y="14" width="1" height="1" fill="rgb(90,54,29)" fill-opacity="0.9609375"/>
  <rect x="6" y="15" width="1" height="1" fill="rgb(74,58,46)" fill-opacity="0.8671875"/>
  <rect x="6" y="16" width="1" height="1" fill="rgb(229,229,229)" fill-opacity="0.578125"/>
  <rect x="6" y="17" width="1" height="1" fill="rgb(236,236,236)" fill-opacity="0.578125"/>
  <rect x="6" y="18" width="1" height="1" fill="rgb(52,52,52)" fill-opacity="0.578125"/>
  <rect x="6" y="19" width="1" height="2" fill="rgb(255,255,255)" fill-opacity="0.0078125"/>
  <rect x="7" y="0" width="1" height="5" fill="rgb(255,255,255)" fill-opacity="0.0078125"/>
  <rect x="7" y="5" width="1" height="1" fill="rgb(52,52,52)" fill-opacity="0.578125"/>
  <rect x="7" y="6" width="1" height="1" fill="rgb(229,229,229)" fill-opacity="0.578125"/>
  <rect x="7" y="7" width="1" height="1" fill="rgb(128,128,128)" fill-opacity="0.578125"/>
  <rect x="7" y="8" width="1" height="1" fill="rgb(130,130,130)" fill-opacity="0.578125"/>
  <rect x="7" y="9" width="1" height="1" fill="rgb(147,147,147)" fill-opacity="0.578125"/>
  <rect x="7" y="10" width="1" height="1" fill="rgb(172,172,172)" fill-opacity="0.578125"/>
  <rect x="7" y="11" width="1" height="1" fill="rgb(164,160,157)" fill-opacity="0.625"/>
  <rect x="7" y="12" width="1" height="1" fill="rgb(76,55,42)" fill-opacity="0.921875"/>
  <rect x="7" y="13" width="1" height="1" fill="rgb(208,183,165)" fill-opacity="0.9609375"/>
  <rect x="7" y="14" width="1" height="1" fill="rgb(181,127,91)" fill-opacity="0.9609375"/>
  <rect x="7" y="15" width="1" height="1" fill="rgb(86,49,24)" fill-opacity="0.9609375"/>
  <rect x="7" y="16" width="1" height="1" fill="rgb(202,200,197)" fill-opacity="0.625"/>
  <rect x="7" y="17" width="1" height="1" fill="rgb(243,243,243)" fill-opacity="0.578125"/>
  <rect x="7" y="18" width="1" height="1" fill="rgb(52,52,52)" fill-opacity="0.578125"/>
  <rect x="7" y="19" width="1" height="2" fill="rgb(255,255,255)" fill-opacity="0.0078125"/>
  <rect x="8" y="0" width="1" height="5" fill="rgb(255,255,255)" fill-opacity="0.0078125"/>
  <rect x="8" y="5" width="1" height="1" fill="rgb(52,52,52)" fill-opacity="0.578125"/>
  <rect x="8" y="6" width="1" height="1" fill="rgb(239,239,239)" fill-opacity="0.578125"/>
  <rect x="8" y="7" width="1" height="1" fill="rgb(151,151,151)" fill-opacity="0.578125"/>
  <rect x="8" y="8" width="1" height="1" fill="rgb(158,158,158)" fill-opacity="0.578125"/>
  <rect x="8" y="9" width="1" height="1" fill="rgb(172,172,172)" fill-opacity="0.578125"/>
  <rect x="8" y="10" width="1" height="1" fill="rgb(160,157,154)" fill-opacity="0.625"/>
  <rect x="8" y="11" width="1" height="1" fill="rgb(76,55,42)" fill-opacity="0.921875"/>
  <rect x="8" y="12" width="1" height="1" fill="rgb(208,183,165)" fill-opacity="0.9609375"/>
  <rect x="8" y="13" width="1" height="1" fill="rgb(189,141,109)" fill-opacity="0.9609375"/>
  <rect x="8" y="14" width="1" height="1" fill="rgb(141,80,39)" fill-opacity="0.9609375"/>
  <rect x="8" y="15" width="1" height="1" fill="rgb(67,47,33)" fill-opacity="0.9140625"/>
  <rect x="8" y="16" width="1" height="1" fill="rgb(236,234,234)" fill-opacity="0.5859375"/>
  <rect x="8" y="17" width="1" height="1" fill="rgb(252,252,252)" fill-opacity="0.578125"/>
  <rect x="8" y="18" width="1" height="1" fill="rgb(52,52,52)" fill-opacity="0.578125"/>
  <rect x="8" y="19" width="1" height="2" fill="rgb(255,255,255)" fill-opacity="0.0078125"/>
  <rect x="9" y="0" width="1" height="5" fill="rgb(255,255,255)" fill-opacity="0.0078125"/>
  <rect x="9" y="5" width="1" height="1" fill="rgb(52,52,52)" fill-opacity="0.578125"/>
  <rect x="9" y="6" width="1" height="1" fill="rgb(236,236,236)" fill-opacity="0.578125"/>
  <rect x="9" y="7" width="1" height="1" fill="rgb(175,175,175)" fill-opacity="0.578125"/>
  <rect x="9" y="8" width="1" height="1" fill="rgb(182,182,182)" fill-opacity="0.578125"/>
  <rect x="9" y="9" width="1" height="1" fill="rgb(191,191,191)" fill-opacity="0.578125"/>
  <rect x="9" y="10" width="1" height="1" fill="rgb(67,50,40)" fill-opacity="0.8828125"/>
  <rect x="9" y="11" width="1" height="1" fill="rgb(205,178,161)" fill-opacity="0.9609375"/>
  <rect x="9" y="12" width="1" height="1" fill="rgb(189,141,109)" fill-opacity="0.9609375"/>
  <rect x="9" y="13" width="1" height="1" fill="rgb(141,80,39)" fill-opacity="0.9609375"/>
  <rect x="9" y="14" width="1" height="1" fill="rgb(66,44,31)" fill-opacity="0.921875"/>
  <rect x="9" y="15" width="1" height="1" fill="rgb(205,202,199)" fill-opacity="0.625"/>
  <rect x="9" y="16" width="1" height="1" fill="rgb(252,252,252)" fill-opacity="0.578125"/>
  <rect x="9" y="17" width="1" height="1" fill="rgb(255,255,255)" fill-opacity="0.578125"/>
  <rect x="9" y="18" width="1" height="1" fill="rgb(52,52,52)" fill-opacity="0.578125"/>
  <rect x="9" y="19" width="1" height="2" fill="rgb(255,255,255)" fill-opacity="0.0078125"/>
  <rect x="10" y="0" width="1" height="5" fill="rgb(255,255,255)" fill-opacity="0.0078125"/>
  <rect x="10" y="5" width="1" height="1" fill="rgb(26,26,26)" fill-opacity="0.71875"/>
  <rect x="10" y="6" width="1" height="1" fill="rgb(39,39,39)" fill-opacity="0.84375"/>
  <rect x="10" y="7" width="1" height="1" fill="rgb(16,16,16)" fill-opacity="0.8828125"/>
  <rect x="10" y="8" width="1" height="1" fill="rgb(32,32,32)" fill-opacity="0.8203125"/>
  <rect x="10" y="9" width="1" height="1" fill="rgb(97,97,97)" fill-opacity="0.7265625"/>
  <rect x="10" y="10" width="1" height="1" fill="rgb(78,68,64)" fill-opacity="0.953125"/>
  <rect x="10" y="11" width="1" height="1" fill="rgb(168,105,63)" fill-opacity="0.9609375"/>
  <rect x="10" y="12" width="1" height="1" fill="rgb(139,78,39)" fill-opacity="0.9609375"/>
  <rect x="10" y="13" width="1" height="1" fill="rgb(66,44,31)" fill-opacity="0.921875"/>
  <rect x="10" y="14" width="1" height="1" fill="rgb(205,202,199)" fill-opacity="0.625"/>
  <rect x="10" y="15" width="1" height="1" fill="rgb(252,252,252)" fill-opacity="0.578125"/>
  <rect x="10" y="16" width="1" height="2" fill="rgb(255,255,255)" fill-opacity="0.578125"/>
  <rect x="10" y="18" width="1" height="1" fill="rgb(52,52,52)" fill-opacity="0.578125"/>
  <rect x="10" y="19" width="1" height="2" fill="rgb(255,255,255)" fill-opacity="0.0078125"/>
  <rect x="11" y="0" width="1" height="4" fill="rgb(255,255,255)" fill-opacity="0.0078125"/>
  <rect x="11" y="4" width="1" height="1" fill="rgb(0,0,0)" fill-opacity="0.6171875"/>
  <rect x="11" y="5" width="1" height="1" fill="rgb(22,22,22)" fill-opacity="0.625"/>
  <rect x="11" y="6" width="1" height="1" fill="rgb(107,107,107)" fill-opacity="0.578125"/>
  <rect x="11" y="7" width="1" height="1" fill="rgb(221,221,221)" fill-opacity="0.640625"/>
  <rect x="11" y="8" width="1" height="1" fill="rgb(185,185,185)" fill-opacity="0.6328125"/>
  <rect x="11" y="9" width="1" height="1" fill="rgb(69,69,69)" fill-opacity="0.78125"/>
  <rect x="11" y="10" width="1" height="1" fill="rgb(179,179,179)" fill-opacity="0.9609375"/>
  <rect x="11" y="11" width="1" height="1" fill="rgb(80,69,64)" fill-opacity="0.953125"/>
  <rect x="11" y="12" width="1" height="1" fill="rgb(78,66,54)" fill-opacity="0.8515625"/>
  <rect x="11" y="13" width="1" height="1" fill="rgb(205,202,199)" fill-opacity="0.625"/>
  <rect x="11" y="14" width="1" height="1" fill="rgb(252,252,252)" fill-opacity="0.578125"/>
  <rect x="11" y="15" width="1" height="3" fill="rgb(255,255,255)" fill-opacity="0.578125"/>
  <rect x="11" y="18" width="1" height="1" fill="rgb(52,52,52)" fill-opacity="0.578125"/>
  <rect x="11" y="19" width="1" height="2" fill="rgb(255,255,255)" fill-opacity="0.0078125"/>
  <rect x="12" y="0" width="1" height="3" fill="rgb(255,255,255)" fill-opacity="0.0078125"/>
  <rect x="12" y="3" width="1" height="1" fill="rgb(0,0,0)" fill-opacity="0.359375"/>
  <rect x="12" y="4" width="1" height="1" fill="rgb(20,20,20)" fill-opacity="0.609375"/>
  <rect x="12" y="5" width="1" height="1" fill="rgb(244,244,245)" fill-opacity="0.8125"/>
  <rect x="12" y="6" width="1" height="1" fill="rgb(222,224,228)" fill-opacity="0.8828125"/>
  <rect x="12" y="7" width="1" height="1" fill="rgb(145,155,171)" fill-opacity="0.59375"/>
  <rect x="12" y="8" width="1" height="1" fill="rgb(178,179,181)" fill-opacity="0.625"/>
  <rect x="12" y="9" width="1" height="1" fill="rgb(235,235,235)" fill-opacity="0.765625"/>
  <rect x="12" y="10" width="1" height="1" fill="rgb(81,81,81)" fill-opacity="0.7890625"/>
  <rect x="12" y="11" width="1" height="1" fill="rgb(118,118,118)" fill-opacity="0.71875"/>
  <rect x="12" y="12" width="1" height="1" fill="rgb(243,243,243)" fill-opacity="0.578125"/>
  <rect x="12" y="13" width="1" height="1" fill="rgb(252,252,252)" fill-opacity="0.578125"/>
  <rect x="12" y="14" width="1" height="4" fill="rgb(255,255,255)" fill-opacity="0.578125"/>
  <rect x="12" y="18" width="1" height="1" fill="rgb(52,52,52)" fill-opacity="0.578125"/>
  <rect x="12" y="19" width="1" height="2" fill="rgb(255,255,255)" fill-opacity="0.0078125"/>
  <rect x="13" y="0" width="1" height="3" fill="rgb(255,255,255)" fill-opacity="0.0078125"/>
  <rect x="13" y="3" width="1" height="1" fill="rgb(0,0,0)" fill-opacity="0.6953125"/>
  <rect x="13" y="4" width="1" height="1" fill="rgb(171,171,171)" fill-opacity="0.2890625"/>
  <rect x="13" y="5" width="1" height="1" fill="rgb(234,237,239)" fill-opacity="0.8203125"/>
  <rect x="13" y="6" width="1" height="1" fill="rgb(217,220,223)" fill-opacity="0.8515625"/>
  <rect x="13" y="7" width="1" height="1" fill="rgb(157,159,168)" fill-opacity="0.546875"/>
  <rect x="13" y="8" width="1" height="1" fill="rgb(166,155,155)" fill-opacity="0.53125"/>
  <rect x="13" y="9" width="1" height="1" fill="rgb(218,212,212)" fill-opacity="0.625"/>
  <rect x="13" y="10" width="1" height="1" fill="rgb(225,225,225)" fill-opacity="0.7421875"/>
  <rect x="13" y="11" width="1" height="1" fill="rgb(15,15,15)" fill-opacity="0.8203125"/>
  <rect x="13" y="12" width="1" height="6" fill="rgb(52,52,52)" fill-opacity="0.578125"/>
  <rect x="13" y="18" width="1" height="1" fill="rgb(59,59,59)" fill-opacity="0.53125"/>
  <rect x="13" y="19" width="1" height="2" fill="rgb(255,255,255)" fill-opacity="0.0078125"/>
  <rect x="14" y="0" width="1" height="3" fill="rgb(255,255,255)" fill-opacity="0.0078125"/>
  <rect x="14" y="3" width="1" height="1" fill="rgb(0,0,0)" fill-opacity="0.796875"/>
  <rect x="14" y="4" width="1" height="1" fill="rgb(218,218,218)" fill-opacity="0.4375"/>
  <rect x="14" y="5" width="1" height="1" fill="rgb(83,89,105)" fill-opacity="0.3203125"/>
  <rect x="14" y="6" width="1" height="1" fill="rgb(57,60,68)" fill-opacity="0.53125"/>
  <rect x="14" y="7" width="1" height="1" fill="rgb(197,184,184)" fill-opacity="0.609375"/>
  <rect x="14" y="8" width="1" height="1" fill="rgb(215,188,186)" fill-opacity="0.6328125"/>
  <rect x="14" y="9" width="1" height="1" fill="rgb(228,198,196)" fill-opacity="0.6015625"/>
  <rect x="14" y="10" width="1" height="1" fill="rgb(253,253,253)" fill-opacity="0.9140625"/>
  <rect x="14" y="11" width="1" height="1" fill="rgb(7,7,7)" fill-opacity="0.84375"/>
  <rect x="14" y="12" width="1" height="9" fill="rgb(255,255,255)" fill-opacity="0.0078125"/>
  <rect x="15" y="0" width="1" height="3" fill="rgb(255,255,255)" fill-opacity="0.0078125"/>
  <rect x="15" y="3" width="1" height="1" fill="rgb(0,0,0)" fill-opacity="0.6953125"/>
  <rect x="15" y="4" width="1" height="1" fill="rgb(206,206,206)" fill-opacity="0.390625"/>
  <rect x="15" y="5" width="1" height="1" fill="rgb(171,174,174)" fill-opacity="0.3828125"/>
  <rect x="15" y="6" width="1" height="1" fill="rgb(82,72,72)" fill-opacity="0.4921875"/>
  <rect x="15" y="7" width="1" height="1" fill="rgb(164,140,137)" fill-opacity="0.6328125"/>
  <rect x="15" y="8" width="1" height="1" fill="rgb(198,166,162)" fill-opacity="0.7109375"/>
  <rect x="15" y="9" width="1" height="1" fill="rgb(216,186,182)" fill-opacity="0.7421875"/>
  <rect x="15" y="10" width="1" height="1" fill="rgb(207,207,207)" fill-opacity="0.78125"/>
  <rect x="15" y="11" width="1" height="1" fill="rgb(3,3,3)" fill-opacity="0.7109375"/>
  <rect x="15" y="12" width="1" height="9" fill="rgb(255,255,255)" fill-opacity="0.0078125"/>
  <rect x="16" y="0" width="1" height="3" fill="rgb(255,255,255)" fill-opacity="0.0078125"/>
  <rect x="16" y="3" width="1" height="1" fill="rgb(0,0,0)" fill-opacity="0.359375"/>
  <rect x="16" y="4" width="1" height="1" fill="rgb(50,50,50)" fill-opacity="0.640625"/>
  <rect x="16" y="5" width="1" height="1" fill="rgb(247,247,247)" fill-opacity="0.640625"/>
  <rect x="16" y="6" width="1" height="1" fill="rgb(220,213,213)" fill-opacity="0.40625"/>
  <rect x="16" y="7" width="1" height="1" fill="rgb(238,197,191)" fill-opacity="0.3515625"/>
  <rect x="16" y="8" width="1" height="1" fill="rgb(255,222,217)" fill-opacity="0.6015625"/>
  <rect x="16" y="9" width="1" height="1" fill="rgb(255,249,248)" fill-opacity="0.890625"/>
  <rect x="16" y="10" width="1" height="1" fill="rgb(81,81,81)" fill-opacity="0.65625"/>
  <rect x="16" y="11" width="1" height="1" fill="rgb(0,0,0)" fill-opacity="0.3515625"/>
  <rect x="16" y="12" width="1" height="9" fill="rgb(255,255,255)" fill-opacity="0.0078125"/>
  <rect x="17" y="0" width="1" height="4" fill="rgb(255,255,255)" fill-opacity="0.0078125"/>
  <rect x="17" y="4" width="1" height="1" fill="rgb(0,0,0)" fill-opacity="0.6171875"/>
  <rect x="17" y="5" width="1" height="1" fill="rgb(67,67,67)" fill-opacity="0.625"/>
  <rect x="17" y="6" width="1" height="1" fill="rgb(236,236,236)" fill-opacity="0.59375"/>
  <rect x="17" y="7" width="1" height="1" fill="rgb(255,255,255)" fill-opacity="0.8828125"/>
  <rect x="17" y="8" width="1" height="1" fill="rgb(243,243,243)" fill-opacity="0.6484375"/>
  <rect x="17" y="9" width="1" height="1" fill="rgb(80,80,80)" fill-opacity="0.6640625"/>
  <rect x="17" y="10" width="1" height="1" fill="rgb(0,0,0)" fill-opacity="0.6171875"/>
  <rect x="17" y="11" width="1" height="10" fill="rgb(255,255,255)" fill-opacity="0.0078125"/>
  <rect x="18" y="0" width="1" height="5" fill="rgb(255,255,255)" fill-opacity="0.0078125"/>
  <rect x="18" y="5" width="1" height="1" fill="rgb(0,0,0)" fill-opacity="0.359375"/>
  <rect x="18" y="6" width="1" height="1" fill="rgb(0,0,0)" fill-opacity="0.6953125"/>
  <rect x="18" y="7" width="1" height="1" fill="rgb(0,0,0)" fill-opacity="0.796875"/>
  <rect x="18" y="8" width="1" height="1" fill="rgb(0,0,0)" fill-opacity="0.6953125"/>
  <rect x="18" y="9" width="1" height="1" fill="rgb(0,0,0)" fill-opacity="0.359375"/>
  <rect x="18" y="10" width="1" height="11" fill="rgb(255,255,255)" fill-opacity="0.0078125"/>
  <rect x="19" y="0" width="1" height="21" fill="rgb(255,255,255)" fill-opacity="0.0078125"/>
  <rect x="20" y="0" width="1" height="21" fill="rgb(255,255,255)" fill-opacity="0.0078125"/>
</svg>