{
	"asset":{
		"generator":"Khronos glTF Blender I/O v4.1.63",
		"version":"2.0"
	},
	"scene":0,
	"scenes":[
		{
			"extras":{
				"vs":{
					"export_list":[
						{
							"name":"Collection 1.dmx",
							"collection":null,
							"ob_type":"COLLECTION",
							"icon":"GROUP"
						}
					]
				},
				"scatter_properties":{},
				"batch_export":{
					"file_format":6,
					"apply_mods":1,
					"gltf_preset":"NO_PRESET",
					"set_scale":1,
					"prefix":"",
					"directory":"//batchgltf\\",
					"mode":1,
					"suffix":""
				}
			},
			"name":"Scene",
			"nodes":[
				0
			]
		}
	],
	"nodes":[
		{
			"extras":{
				"vs":{}
			},
			"mesh":0,
			"name":"Cube"
		}
	],
	"materials":[
		{
			"doubleSided":true,
			"name":"RandomPBRMaterial.025",
			"pbrMetallicRoughness":{
				"baseColorFactor":[
					0.32102450728416443,
					0.32250353693962097,
					0.5951295495033264,
					1
				],
				"metallicFactor":0.8163518309593201,
				"roughnessFactor":0.03991105780005455
			}
		}
	],
	"meshes":[
		{
			"name":"Cube",
			"primitives":[
				{
					"attributes":{
						"POSITION":0,
						"NORMAL":1,
						"TEXCOORD_0":2
					},
					"indices":3,
					"material":0
				}
			]
		}
	],
	"accessors":[
		{
			"bufferView":0,
			"componentType":5126,
			"count":54,
			"max":[
				1,
				1,
				1
			],
			"min":[
				-1,
				-1,
				-1
			],
			"type":"VEC3"
		},
		{
			"bufferView":1,
			"componentType":5126,
			"count":54,
			"type":"VEC3"
		},
		{
			"bufferView":2,
			"componentType":5126,
			"count":54,
			"type":"VEC2"
		},
		{
			"bufferView":3,
			"componentType":5123,
			"count":144,
			"type":"SCALAR"
		}
	],
	"bufferViews":[
		{
			"buffer":0,
			"byteLength":648,
			"byteOffset":0,
			"target":34962
		},
		{
			"buffer":0,
			"byteLength":648,
			"byteOffset":648,
			"target":34962
		},
		{
			"buffer":0,
			"byteLength":432,
			"byteOffset":1296,
			"target":34962
		},
		{
			"buffer":0,
			"byteLength":288,
			"byteOffset":1728,
			"target":34963
		}
	],
	"buffers":[
		{
			"byteLength":2016,
			"uri":"data:application/octet-stream;base64,"
		}
	]
}
