{
	"asset":{
		"generator":"Khronos glTF Blender I/O v3.6.27",
		"version":"2.0"
	},
	"extensionsUsed":[
		"KHR_materials_transmission",
		"KHR_materials_specular",
		"KHR_materials_ior"
	],
	"scene":0,
	"scenes":[
		{
			"extras":{
				"vs":{
					"export_list":[
						{
							"name":"Collection 1.dmx",
							"collection":null,
							"ob_type":"COLLECTION",
							"icon":"GROUP"
						}
					]
				},
				"scatter_properties":{},
				"batch_export":{
					"file_format":6,
					"apply_mods":1,
					"gltf_preset":"NO_PRESET",
					"set_scale":1,
					"prefix":"",
					"directory":"//batchgltf\\",
					"mode":1,
					"suffix":""
				}
			},
			"name":"Scene",
			"nodes":[
				0
			]
		}
	],
	"nodes":[
		{
			"extras":{
				"vs":{}
			},
			"mesh":0,
			"name":"Cylinder"
		}
	],
	"materials":[
		{
			"doubleSided":true,
			"emissiveFactor":[
				0.015302082115621896,
				0.03336368272715995,
				0.07968809405602517
			],
			"extensions":{
				"KHR_materials_transmission":{
					"transmissionFactor":0.49278295040130615
				},
				"KHR_materials_specular":{
					"specularColorFactor":[
						1.039843405558121,
						1.039843405558121,
						1.039843405558121
					]
				},
				"KHR_materials_ior":{
					"ior":0.6943425536155701
				}
			},
			"name":"RandomMaterial.003",
			"pbrMetallicRoughness":{
				"baseColorTexture":{
					"index":0
				},
				"metallicFactor":0.8423045873641968,
				"roughnessFactor":0.877469539642334
			}
		}
	],
	"meshes":[
		{
			"name":"Cylinder",
			"primitives":[
				{
					"attributes":{
						"COLOR_0":0,
						"POSITION":1,
						"NORMAL":2,
						"TEXCOORD_0":3
					},
					"indices":4,
					"material":0
				}
			]
		}
	],
	"textures":[
		{
			"sampler":0,
			"source":0
		}
	],
	"images":[
		{
			"bufferView":5,
			"mimeType":"image/png",
			"name":"uv_debug"
		}
	],
	"accessors":[
		{
			"bufferView":0,
			"componentType":5126,
			"count":323,
			"type":"VEC4"
		},
		{
			"bufferView":1,
			"componentType":5126,
			"count":323,
			"max":[
				1,
				1,
				1
			],
			"min":[
				-1,
				-1,
				-1
			],
			"type":"VEC3"
		},
		{
			"bufferView":2,
			"componentType":5126,
			"count":323,
			"type":"VEC3"
		},
		{
			"bufferView":3,
			"componentType":5126,
			"count":323,
			"type":"VEC2"
		},
		{
			"bufferView":4,
			"componentType":5123,
			"count":1140,
			"type":"SCALAR"
		}
	],
	"bufferViews":[
		{
			"buffer":0,
			"byteLength":5168,
			"byteOffset":0,
			"target":34962
		},
		{
			"buffer":0,
			"byteLength":3876,
			"byteOffset":5168,
			"target":34962
		},
		{
			"buffer":0,
			"byteLength":3876,
			"byteOffset":9044,
			"target":34962
		},
		{
			"buffer":0,
			"byteLength":2584,
			"byteOffset":12920,
			"target":34962
		},
		{
			"buffer":0,
			"byteLength":2280,
			"byteOffset":15504,
			"target":34963
		},
		{
			"buffer":0,
			"byteLength":40135,
			"byteOffset":17784
		}
	],
	"samplers":[
		{
			"magFilter":9729,
			"minFilter":9987
		}
	],
	"buffers":[
		{
			"byteLength":57920,
			"uri":"data:application/octet-stream;base64,"
		}
	]
}
