{
	"asset":{
		"generator":"Khronos glTF Blender I/O v3.6.27",
		"version":"2.0"
	},
	"extensionsUsed":[
		"KHR_materials_transmission",
		"KHR_materials_specular",
		"KHR_materials_ior"
	],
	"scene":0,
	"scenes":[
		{
			"extras":{
				"vs":{
					"export_list":[
						{
							"name":"Collection 1.dmx",
							"collection":null,
							"ob_type":"COLLECTION",
							"icon":"GROUP"
						}
					]
				},
				"scatter_properties":{},
				"batch_export":{
					"file_format":6,
					"apply_mods":1,
					"gltf_preset":"NO_PRESET",
					"set_scale":1,
					"prefix":"",
					"directory":"//batchgltf\\",
					"mode":1,
					"suffix":""
				}
			},
			"name":"Scene",
			"nodes":[
				0
			]
		}
	],
	"nodes":[
		{
			"extras":{
				"vs":{}
			},
			"mesh":0,
			"name":"Gem"
		}
	],
	"materials":[
		{
			"doubleSided":true,
			"emissiveFactor":[
				0.00977300192750874,
				0.0143538740423782,
				0.16414151764832674
			],
			"extensions":{
				"KHR_materials_transmission":{
					"transmissionFactor":0.26947325468063354
				},
				"KHR_materials_specular":{
					"specularColorFactor":[
						0.27275652914638543,
						0.27275652914638543,
						0.27275652914638543
					]
				},
				"KHR_materials_ior":{
					"ior":0.13703219592571259
				}
			},
			"name":"RandomMaterial.006",
			"pbrMetallicRoughness":{
				"baseColorTexture":{
					"index":0
				},
				"metallicFactor":0.7413119077682495,
				"roughnessFactor":0.8038943409919739
			}
		}
	],
	"meshes":[
		{
			"extras":{
				"Brilliant":1,
				"change":0,
				"s":84,
				"table_w":0.5614645481109619,
				"crown_h":0.12262992560863495,
				"girdle_t":0.017000000923871994,
				"girdle_real":1,
				"g_real_smooth":0,
				"pavi_d":0.4309999942779541,
				"bezel_f":0.25,
				"pavi_f":0.4000000059604645,
				"culet":0.0,
				"keep_lga":0
			},
			"name":"dmesh.001",
			"primitives":[
				{
					"attributes":{
						"COLOR_0":0,
						"POSITION":1,
						"NORMAL":2,
						"TEXCOORD_0":3
					},
					"indices":4,
					"material":0
				}
			]
		}
	],
	"textures":[
		{
			"sampler":0,
			"source":0
		}
	],
	"images":[
		{
			"bufferView":5,
			"mimeType":"image/png",
			"name":"uv_debug"
		}
	],
	"accessors":[
		{
			"bufferView":0,
			"componentType":5126,
			"count":6261,
			"type":"VEC4"
		},
		{
			"bufferView":1,
			"componentType":5126,
			"count":6261,
			"max":[
				1,
				0.2792598605155945,
				1
			],
			"min":[
				-1,
				-0.8619999885559082,
				-1
			],
			"type":"VEC3"
		},
		{
			"bufferView":2,
			"componentType":5126,
			"count":6261,
			"type":"VEC3"
		},
		{
			"bufferView":3,
			"componentType":5126,
			"count":6261,
			"type":"VEC2"
		},
		{
			"bufferView":4,
			"componentType":5123,
			"count":15870,
			"type":"SCALAR"
		}
	],
	"bufferViews":[
		{
			"buffer":0,
			"byteLength":100176,
			"byteOffset":0,
			"target":34962
		},
		{
			"buffer":0,
			"byteLength":75132,
			"byteOffset":100176,
			"target":34962
		},
		{
			"buffer":0,
			"byteLength":75132,
			"byteOffset":175308,
			"target":34962
		},
		{
			"buffer":0,
			"byteLength":50088,
			"byteOffset":250440,
			"target":34962
		},
		{
			"buffer":0,
			"byteLength":31740,
			"byteOffset":300528,
			"target":34963
		},
		{
			"buffer":0,
			"byteLength":40135,
			"byteOffset":332268
		}
	],
	"samplers":[
		{
			"magFilter":9729,
			"minFilter":9987
		}
	],
	"buffers":[
		{
			"byteLength":372404,
			"uri":"data:application/octet-stream;base64,"
		}
	]
}
