{
	"asset":{
		"generator":"Khronos glTF Blender I/O v4.1.63",
		"version":"2.0"
	},
	"scene":0,
	"scenes":[
		{
			"extras":{
				"vs":{
					"export_list":[
						{
							"name":"Collection 1.dmx",
							"collection":null,
							"ob_type":"COLLECTION",
							"icon":"GROUP"
						}
					]
				},
				"scatter_properties":{},
				"batch_export":{
					"file_format":6,
					"apply_mods":1,
					"gltf_preset":"NO_PRESET",
					"set_scale":1,
					"prefix":"",
					"directory":"//batchgltf\\",
					"mode":1,
					"suffix":""
				}
			},
			"name":"Scene",
			"nodes":[
				0
			]
		}
	],
	"nodes":[
		{
			"extras":{
				"vs":{}
			},
			"mesh":0,
			"name":"Gem"
		}
	],
	"materials":[
		{
			"doubleSided":true,
			"name":"RandomPBRMaterial.029",
			"pbrMetallicRoughness":{
				"baseColorFactor":[
					0.11086372286081314,
					0.08815599232912064,
					0.2967715561389923,
					1
				],
				"metallicFactor":0.2531375288963318,
				"roughnessFactor":0.9471167325973511
			}
		}
	],
	"meshes":[
		{
			"extras":{
				"Brilliant":1,
				"change":0,
				"s":84,
				"table_w":0.5614645481109619,
				"crown_h":0.12262992560863495,
				"girdle_t":0.017000000923871994,
				"girdle_real":1,
				"g_real_smooth":0,
				"pavi_d":0.4309999942779541,
				"bezel_f":0.25,
				"pavi_f":0.4000000059604645,
				"culet":0.0,
				"keep_lga":0
			},
			"name":"dmesh.001",
			"primitives":[
				{
					"attributes":{
						"POSITION":0,
						"NORMAL":1,
						"TEXCOORD_0":2
					},
					"indices":3,
					"material":0
				}
			]
		}
	],
	"accessors":[
		{
			"bufferView":0,
			"componentType":5126,
			"count":6261,
			"max":[
				1,
				0.2792598605155945,
				1
			],
			"min":[
				-1,
				-0.8619999885559082,
				-1
			],
			"type":"VEC3"
		},
		{
			"bufferView":1,
			"componentType":5126,
			"count":6261,
			"type":"VEC3"
		},
		{
			"bufferView":2,
			"componentType":5126,
			"count":6261,
			"type":"VEC2"
		},
		{
			"bufferView":3,
			"componentType":5123,
			"count":15870,
			"type":"SCALAR"
		}
	],
	"bufferViews":[
		{
			"buffer":0,
			"byteLength":75132,
			"byteOffset":0,
			"target":34962
		},
		{
			"buffer":0,
			"byteLength":75132,
			"byteOffset":75132,
			"target":34962
		},
		{
			"buffer":0,
			"byteLength":50088,
			"byteOffset":150264,
			"target":34962
		},
		{
			"buffer":0,
			"byteLength":31740,
			"byteOffset":200352,
			"target":34963
		}
	],
	"buffers":[
		{
			"byteLength":232092,
			"uri":"data:application/octet-stream;base64,"
		}
	]
}
