{
    "asset" : {
        "generator" : "Khronos glTF Blender I/O v1.7.33",
        "version" : "2.0"
    },
    "extensionsUsed" : [
        "KHR_materials_transmission"
    ],
    "scene" : 0,
    "scenes" : [
        {
            "name" : "Scene",
            "nodes" : [
                0
            ]
        }
    ],
    "nodes" : [
        {
            "mesh" : 0,
            "name" : "(1).1.0"
        }
    ],
    "materials" : [
        {
            "doubleSided" : true,
            "emissiveFactor" : [
                0.799102783203125,
                0,
                0.0033465365413576365
            ],
            "extensions" : {
                "KHR_materials_transmission" : {
                    "transmissionFactor" : 0.5303643941879272
                }
            },
            "name" : "Red",
            "normalTexture" : {
                "index" : 0
            },
            "pbrMetallicRoughness" : {
                "baseColorFactor" : [
                    0.8000000715255737,
                    0,
                    0.0033113141544163227,
                    1
                ],
                "metallicFactor" : 0.4534412920475006,
                "roughnessFactor" : 0.11538460850715637
            }
        },
        {
            "doubleSided" : true,
            "emissiveFactor" : [
                0,
                1,
                0
            ],
            "extensions" : {
                "KHR_materials_transmission" : {
                    "transmissionFactor" : 0.449392706155777
                }
            },
            "name" : "Green",
            "normalTexture" : {
                "index" : 1
            },
            "pbrMetallicRoughness" : {
                "baseColorFactor" : [
                    0.0007508756243623793,
                    0.8000000715255737,
                    0,
                    1
                ],
                "metallicFactor" : 0.46963563561439514,
                "roughnessFactor" : 0.17206478118896484
            }
        },
        {
            "doubleSided" : true,
            "emissiveFactor" : [
                0.799102783203125,
                0.7758224606513977,
                0
            ],
            "extensions" : {
                "KHR_materials_transmission" : {
                    "transmissionFactor" : 0.38461539149284363
                }
            },
            "name" : "Yellow",
            "normalTexture" : {
                "index" : 2
            },
            "pbrMetallicRoughness" : {
                "baseColorFactor" : [
                    0.8000000715255737,
                    0.7775603532791138,
                    0,
                    1
                ],
                "metallicFactor" : 0.5060728788375854,
                "roughnessFactor" : 0.0829959511756897
            }
        },
        {
            "doubleSided" : true,
            "emissiveFactor" : [
                0,
                0.0015176349552348256,
                0.799102783203125
            ],
            "extensions" : {
                "KHR_materials_transmission" : {
                    "transmissionFactor" : 0.546558678150177
                }
            },
            "name" : "Blue",
            "normalTexture" : {
                "index" : 3
            },
            "pbrMetallicRoughness" : {
                "baseColorFactor" : [
                    0,
                    0.0016362016322091222,
                    0.8000000715255737,
                    1
                ],
                "metallicFactor" : 0.49392712116241455,
                "roughnessFactor" : 0.12753036618232727
            }
        },
        {
            "doubleSided" : true,
            "emissiveFactor" : [
                1,
                0.3864295780658722,
                0
            ],
            "extensions" : {
                "KHR_materials_transmission" : {
                    "transmissionFactor" : 0.48987850546836853
                }
            },
            "name" : "Orange",
            "normalTexture" : {
                "index" : 4
            },
            "pbrMetallicRoughness" : {
                "baseColorFactor" : [
                    1,
                    0.38571417331695557,
                    0,
                    1
                ],
                "metallicFactor" : 0.46963563561439514,
                "roughnessFactor" : 0.1295546591281891
            }
        },
        {
            "doubleSided" : true,
            "emissiveFactor" : [
                0.799102783203125,
                0.799102783203125,
                0.799102783203125
            ],
            "extensions" : {
                "KHR_materials_transmission" : {
                    "transmissionFactor" : 0.546558678150177
                }
            },
            "name" : "White",
            "normalTexture" : {
                "index" : 5
            },
            "pbrMetallicRoughness" : {
                "metallicFactor" : 0.5101214647293091,
                "roughnessFactor" : 0.20040485262870789
            }
        },
        {
            "doubleSided" : true,
            "extensions" : {
                "KHR_materials_transmission" : {
                    "transmissionFactor" : 0.12145748734474182
                }
            },
            "name" : "Gray",
            "normalTexture" : {
                "index" : 6
            },
            "pbrMetallicRoughness" : {
                "baseColorFactor" : [
                    0,
                    0,
                    0,
                    1
                ],
                "metallicFactor" : 0.2631579041481018,
                "roughnessFactor" : 0.1072874367237091
            }
        }
    ],
    "meshes" : [
        {
            "name" : "m.(1).1.0",
            "primitives" : [
                {
                    "attributes" : {
                        "POSITION" : 0,
                        "NORMAL" : 1,
                        "TEXCOORD_0" : 2
                    },
                    "indices" : 3,
                    "material" : 0
                },
                {
                    "attributes" : {
                        "POSITION" : 4,
                        "NORMAL" : 5,
                        "TEXCOORD_0" : 6
                    },
                    "indices" : 7,
                    "material" : 1
                },
                {
                    "attributes" : {
                        "POSITION" : 8,
                        "NORMAL" : 9,
                        "TEXCOORD_0" : 10
                    },
                    "indices" : 11,
                    "material" : 2
                },
                {
                    "attributes" : {
                        "POSITION" : 12,
                        "NORMAL" : 13,
                        "TEXCOORD_0" : 14
                    },
                    "indices" : 15,
                    "material" : 3
                },
                {
                    "attributes" : {
                        "POSITION" : 16,
                        "NORMAL" : 17,
                        "TEXCOORD_0" : 18
                    },
                    "indices" : 19,
                    "material" : 4
                },
                {
                    "attributes" : {
                        "POSITION" : 20,
                        "NORMAL" : 21,
                        "TEXCOORD_0" : 22
                    },
                    "indices" : 23,
                    "material" : 5
                },
                {
                    "attributes" : {
                        "POSITION" : 24,
                        "NORMAL" : 25,
                        "TEXCOORD_0" : 26
                    },
                    "indices" : 27,
                    "material" : 6
                }
            ]
        }
    ],
    "textures" : [
        {
            "sampler" : 0,
            "source" : 0
        },
        {
            "sampler" : 0,
            "source" : 0
        },
        {
            "sampler" : 0,
            "source" : 0
        },
        {
            "sampler" : 0,
            "source" : 0
        },
        {
            "sampler" : 0,
            "source" : 0
        },
        {
            "sampler" : 0,
            "source" : 0
        },
        {
            "sampler" : 0,
            "source" : 0
        }
    ],
    "images" : [
        {
            "bufferView" : 4,
            "mimeType" : "image/png",
            "name" : "Untitled"
        }
    ],
    "accessors" : [
        {
            "bufferView" : 0,
            "componentType" : 5126,
            "count" : 108,
            "max" : [
                1.4679609537124634,
                1.4679609537124634,
                1.5030317306518555
            ],
            "min" : [
                -1.467961072921753,
                -1.467961072921753,
                -0.5020211935043335
            ],
            "type" : "VEC3"
        },
        {
            "bufferView" : 1,
            "componentType" : 5126,
            "count" : 108,
            "type" : "VEC3"
        },
        {
            "bufferView" : 2,
            "componentType" : 5126,
            "count" : 108,
            "type" : "VEC2"
        },
        {
            "bufferView" : 3,
            "componentType" : 5123,
            "count" : 162,
            "type" : "SCALAR"
        },
        {
            "bufferView" : 5,
            "componentType" : 5126,
            "count" : 104,
            "max" : [
                1.5030317306518555,
                1.4679609537124634,
                1.467961072921753
            ],
            "min" : [
                -0.5020211935043335,
                -1.467961072921753,
                -1.4679609537124634
            ],
            "type" : "VEC3"
        },
        {
            "bufferView" : 6,
            "componentType" : 5126,
            "count" : 104,
            "type" : "VEC3"
        },
        {
            "bufferView" : 7,
            "componentType" : 5126,
            "count" : 104,
            "type" : "VEC2"
        },
        {
            "bufferView" : 8,
            "componentType" : 5123,
            "count" : 156,
            "type" : "SCALAR"
        },
        {
            "bufferView" : 9,
            "componentType" : 5126,
            "count" : 112,
            "max" : [
                1.4679609537124634,
                1.5030317306518555,
                1.467961072921753
            ],
            "min" : [
                -1.467961072921753,
                -0.5010106563568115,
                -1.4679609537124634
            ],
            "type" : "VEC3"
        },
        {
            "bufferView" : 10,
            "componentType" : 5126,
            "count" : 112,
            "type" : "VEC3"
        },
        {
            "bufferView" : 11,
            "componentType" : 5126,
            "count" : 112,
            "type" : "VEC2"
        },
        {
            "bufferView" : 12,
            "componentType" : 5123,
            "count" : 168,
            "type" : "SCALAR"
        },
        {
            "bufferView" : 13,
            "componentType" : 5126,
            "count" : 108,
            "max" : [
                0.5010105967521667,
                1.4679609537124634,
                1.467961072921753
            ],
            "min" : [
                -1.5030317306518555,
                -1.467961072921753,
                -1.4679609537124634
            ],
            "type" : "VEC3"
        },
        {
            "bufferView" : 14,
            "componentType" : 5126,
            "count" : 108,
            "type" : "VEC3"
        },
        {
            "bufferView" : 15,
            "componentType" : 5126,
            "count" : 108,
            "type" : "VEC2"
        },
        {
            "bufferView" : 16,
            "componentType" : 5123,
            "count" : 162,
            "type" : "SCALAR"
        },
        {
            "bufferView" : 17,
            "componentType" : 5126,
            "count" : 108,
            "max" : [
                1.4679609537124634,
                1.4679609537124634,
                0.5010106563568115
            ],
            "min" : [
                -1.467961072921753,
                -1.467961072921753,
                -1.5030317306518555
            ],
            "type" : "VEC3"
        },
        {
            "bufferView" : 18,
            "componentType" : 5126,
            "count" : 108,
            "type" : "VEC3"
        },
        {
            "bufferView" : 19,
            "componentType" : 5126,
            "count" : 108,
            "type" : "VEC2"
        },
        {
            "bufferView" : 20,
            "componentType" : 5123,
            "count" : 162,
            "type" : "SCALAR"
        },
        {
            "bufferView" : 21,
            "componentType" : 5126,
            "count" : 100,
            "max" : [
                1.4679609537124634,
                0.5010105967521667,
                1.467961072921753
            ],
            "min" : [
                -1.467961072921753,
                -1.5030317306518555,
                -1.4679609537124634
            ],
            "type" : "VEC3"
        },
        {
            "bufferView" : 22,
            "componentType" : 5126,
            "count" : 100,
            "type" : "VEC3"
        },
        {
            "bufferView" : 23,
            "componentType" : 5126,
            "count" : 100,
            "type" : "VEC2"
        },
        {
            "bufferView" : 24,
            "componentType" : 5123,
            "count" : 150,
            "type" : "SCALAR"
        },
        {
            "bufferView" : 25,
            "componentType" : 5126,
            "count" : 22688,
            "max" : [
                1.5030317306518555,
                1.5030317306518555,
                1.5030317306518555
            ],
            "min" : [
                -1.5030317306518555,
                -1.5030317306518555,
                -1.5030317306518555
            ],
            "type" : "VEC3"
        },
        {
            "bufferView" : 26,
            "componentType" : 5126,
            "count" : 22688,
            "type" : "VEC3"
        },
        {
            "bufferView" : 27,
            "componentType" : 5126,
            "count" : 22688,
            "type" : "VEC2"
        },
        {
            "bufferView" : 28,
            "componentType" : 5123,
            "count" : 33708,
            "type" : "SCALAR"
        }
    ],
    "bufferViews" : [
        {
            "buffer" : 0,
            "byteLength" : 1296,
            "byteOffset" : 0
        },
        {
            "buffer" : 0,
            "byteLength" : 1296,
            "byteOffset" : 1296
        },
        {
            "buffer" : 0,
            "byteLength" : 864,
            "byteOffset" : 2592
        },
        {
            "buffer" : 0,
            "byteLength" : 324,
            "byteOffset" : 3456
        },
        {
            "buffer" : 0,
            "byteLength" : 4603,
            "byteOffset" : 3780
        },
        {
            "buffer" : 0,
            "byteLength" : 1248,
            "byteOffset" : 8384
        },
        {
            "buffer" : 0,
            "byteLength" : 1248,
            "byteOffset" : 9632
        },
        {
            "buffer" : 0,
            "byteLength" : 832,
            "byteOffset" : 10880
        },
        {
            "buffer" : 0,
            "byteLength" : 312,
            "byteOffset" : 11712
        },
        {
            "buffer" : 0,
            "byteLength" : 1344,
            "byteOffset" : 12024
        },
        {
            "buffer" : 0,
            "byteLength" : 1344,
            "byteOffset" : 13368
        },
        {
            "buffer" : 0,
            "byteLength" : 896,
            "byteOffset" : 14712
        },
        {
            "buffer" : 0,
            "byteLength" : 336,
            "byteOffset" : 15608
        },
        {
            "buffer" : 0,
            "byteLength" : 1296,
            "byteOffset" : 15944
        },
        {
            "buffer" : 0,
            "byteLength" : 1296,
            "byteOffset" : 17240
        },
        {
            "buffer" : 0,
            "byteLength" : 864,
            "byteOffset" : 18536
        },
        {
            "buffer" : 0,
            "byteLength" : 324,
            "byteOffset" : 19400
        },
        {
            "buffer" : 0,
            "byteLength" : 1296,
            "byteOffset" : 19724
        },
        {
            "buffer" : 0,
            "byteLength" : 1296,
            "byteOffset" : 21020
        },
        {
            "buffer" : 0,
            "byteLength" : 864,
            "byteOffset" : 22316
        },
        {
            "buffer" : 0,
            "byteLength" : 324,
            "byteOffset" : 23180
        },
        {
            "buffer" : 0,
            "byteLength" : 1200,
            "byteOffset" : 23504
        },
        {
            "buffer" : 0,
            "byteLength" : 1200,
            "byteOffset" : 24704
        },
        {
            "buffer" : 0,
            "byteLength" : 800,
            "byteOffset" : 25904
        },
        {
            "buffer" : 0,
            "byteLength" : 300,
            "byteOffset" : 26704
        },
        {
            "buffer" : 0,
            "byteLength" : 272256,
            "byteOffset" : 27004
        },
        {
            "buffer" : 0,
            "byteLength" : 272256,
            "byteOffset" : 299260
        },
        {
            "buffer" : 0,
            "byteLength" : 181504,
            "byteOffset" : 571516
        },
        {
            "buffer" : 0,
            "byteLength" : 67416,
            "byteOffset" : 753020
        }
    ],
    "samplers" : [
        {
            "magFilter" : 9729,
            "minFilter" : 9987
        }
    ],
    "buffers" : [
        {
            "byteLength" : 820436,
            "uri" : "data:application/octet-stream;base64,"
        }
    ]
}
