{
	"asset":{
		"generator":"Khronos glTF Blender I/O v3.6.27",
		"version":"2.0"
	},
	"extensionsUsed":[
		"KHR_materials_transmission",
		"KHR_materials_specular",
		"KHR_materials_ior"
	],
	"scene":0,
	"scenes":[
		{
			"extras":{
				"vs":{
					"export_list":[
						{
							"name":"Collection 1.dmx",
							"collection":null,
							"ob_type":"COLLECTION",
							"icon":"GROUP"
						}
					]
				},
				"scatter_properties":{},
				"batch_export":{
					"file_format":6,
					"apply_mods":1,
					"gltf_preset":"NO_PRESET",
					"set_scale":1,
					"prefix":"",
					"directory":"//batchgltf\\",
					"mode":1,
					"suffix":""
				}
			},
			"name":"Scene",
			"nodes":[
				0
			]
		}
	],
	"nodes":[
		{
			"extras":{
				"vs":{},
				"ant_landscape":{}
			},
			"mesh":0,
			"name":"Roundcube"
		}
	],
	"materials":[
		{
			"doubleSided":true,
			"emissiveFactor":[
				0.04966169626069217,
				0.3997764790149816,
				0.09277828186267989
			],
			"extensions":{
				"KHR_materials_transmission":{
					"transmissionFactor":0.004982672166079283
				},
				"KHR_materials_specular":{
					"specularColorFactor":[
						0.014871401046952712,
						0.014871401046952712,
						0.014871401046952712
					]
				},
				"KHR_materials_ior":{
					"ior":0.13630451261997223
				}
			},
			"name":"RandomMaterial.009",
			"pbrMetallicRoughness":{
				"baseColorTexture":{
					"index":0
				},
				"metallicFactor":0.7838709354400635,
				"roughnessFactor":0.5947527289390564
			}
		}
	],
	"meshes":[
		{
			"extras":{
				"Roundcube":1,
				"change":0,
				"radius":0.20000000298023224,
				"size":[
					2.0,
					2.0,
					2.0
				],
				"arc_div":4,
				"lin_div":0.0,
				"div_type":"CORNERS",
				"odd_axis_align":0,
				"no_limit":0
			},
			"name":"Roundcube",
			"primitives":[
				{
					"attributes":{
						"COLOR_0":0,
						"POSITION":1,
						"NORMAL":2,
						"TEXCOORD_0":3
					},
					"indices":4,
					"material":0
				}
			]
		}
	],
	"textures":[
		{
			"sampler":0,
			"source":0
		}
	],
	"images":[
		{
			"bufferView":5,
			"mimeType":"image/png",
			"name":"uv_debug"
		}
	],
	"accessors":[
		{
			"bufferView":0,
			"componentType":5126,
			"count":726,
			"type":"VEC4"
		},
		{
			"bufferView":1,
			"componentType":5126,
			"count":726,
			"max":[
				1,
				1,
				1
			],
			"min":[
				-1,
				-1,
				-1
			],
			"type":"VEC3"
		},
		{
			"bufferView":2,
			"componentType":5126,
			"count":726,
			"type":"VEC3"
		},
		{
			"bufferView":3,
			"componentType":5126,
			"count":726,
			"type":"VEC2"
		},
		{
			"bufferView":4,
			"componentType":5123,
			"count":3600,
			"type":"SCALAR"
		}
	],
	"bufferViews":[
		{
			"buffer":0,
			"byteLength":11616,
			"byteOffset":0,
			"target":34962
		},
		{
			"buffer":0,
			"byteLength":8712,
			"byteOffset":11616,
			"target":34962
		},
		{
			"buffer":0,
			"byteLength":8712,
			"byteOffset":20328,
			"target":34962
		},
		{
			"buffer":0,
			"byteLength":5808,
			"byteOffset":29040,
			"target":34962
		},
		{
			"buffer":0,
			"byteLength":7200,
			"byteOffset":34848,
			"target":34963
		},
		{
			"buffer":0,
			"byteLength":40135,
			"byteOffset":42048
		}
	],
	"samplers":[
		{
			"magFilter":9729,
			"minFilter":9987
		}
	],
	"buffers":[
		{
			"byteLength":82184,
			"uri":"data:application/octet-stream;base64,"
		}
	]
}
