{
	"asset":{
		"generator":"Khronos glTF Blender I/O v4.2.70",
		"version":"2.0"
	},
	"scene":0,
	"scenes":[
		{
			"name":"Scene",
			"nodes":[
				0
			]
		}
	],
	"nodes":[
		{
			"mesh":0,
			"name":"Roundcube"
		}
	],
	"materials":[
		{
			"doubleSided":true,
			"name":"RandomPBRMaterial.028",
			"pbrMetallicRoughness":{
				"baseColorFactor":[
					0.8508486151695251,
					0.8593238592147827,
					0.3507319390773773,
					1
				],
				"metallicFactor":0.4659636318683624,
				"roughnessFactor":0.1173756942152977
			}
		}
	],
	"meshes":[
		{
			"name":"Roundcube",
			"primitives":[
				{
					"attributes":{
						"POSITION":0,
						"NORMAL":1,
						"TEXCOORD_0":2,
						"COLOR_0":3,
						"COLOR_1":4,
						"COLOR_2":5,
						"COLOR_3":6
					},
					"indices":7,
					"material":0
				}
			]
		}
	],
	"accessors":[
		{
			"bufferView":0,
			"componentType":5126,
			"count":2863,
			"max":[
				1,
				1,
				1
			],
			"min":[
				-1,
				-1,
				-1
			],
			"type":"VEC3"
		},
		{
			"bufferView":1,
			"componentType":5126,
			"count":2863,
			"type":"VEC3"
		},
		{
			"bufferView":2,
			"componentType":5126,
			"count":2863,
			"type":"VEC2"
		},
		{
			"bufferView":3,
			"componentType":5121,
			"count":2863,
			"normalized":true,
			"type":"VEC4"
		},
		{
			"bufferView":4,
			"componentType":5126,
			"count":2863,
			"type":"VEC3"
		},
		{
			"bufferView":5,
			"componentType":5126,
			"count":2863,
			"type":"VEC3"
		},
		{
			"bufferView":6,
			"componentType":5126,
			"count":2863,
			"type":"VEC3"
		},
		{
			"bufferView":7,
			"componentType":5123,
			"count":3600,
			"type":"SCALAR"
		}
	],
	"bufferViews":[
		{
			"buffer":0,
			"byteLength":34356,
			"byteOffset":0,
			"target":34962
		},
		{
			"buffer":0,
			"byteLength":34356,
			"byteOffset":34356,
			"target":34962
		},
		{
			"buffer":0,
			"byteLength":22904,
			"byteOffset":68712,
			"target":34962
		},
		{
			"buffer":0,
			"byteLength":11452,
			"byteOffset":91616,
			"target":34962
		},
		{
			"buffer":0,
			"byteLength":34356,
			"byteOffset":103068,
			"target":34962
		},
		{
			"buffer":0,
			"byteLength":34356,
			"byteOffset":137424,
			"target":34962
		},
		{
			"buffer":0,
			"byteLength":34356,
			"byteOffset":171780,
			"target":34962
		},
		{
			"buffer":0,
			"byteLength":7200,
			"byteOffset":206136,
			"target":34963
		}
	],
	"buffers":[
		{
			"byteLength":213336,
			"uri":"Roundcube.bin"
		}
	]
}
