{
	"asset":{
		"generator":"Khronos glTF Blender I/O v3.6.27",
		"version":"2.0"
	},
	"extensionsUsed":[
		"KHR_materials_transmission",
		"KHR_materials_specular",
		"KHR_materials_ior"
	],
	"scene":0,
	"scenes":[
		{
			"extras":{
				"vs":{
					"export_list":[
						{
							"name":"Collection 1.dmx",
							"collection":null,
							"ob_type":"COLLECTION",
							"icon":"GROUP"
						}
					]
				},
				"scatter_properties":{},
				"batch_export":{
					"file_format":6,
					"apply_mods":1,
					"gltf_preset":"NO_PRESET",
					"set_scale":1,
					"prefix":"",
					"directory":"//batchgltf\\",
					"mode":1,
					"suffix":""
				}
			},
			"name":"Scene",
			"nodes":[
				0
			]
		}
	],
	"nodes":[
		{
			"extras":{
				"vs":{}
			},
			"mesh":0,
			"name":"Sphere"
		}
	],
	"materials":[
		{
			"doubleSided":true,
			"emissiveFactor":[
				0.10644898152618065,
				0.5055946436974814,
				0.07555460762104405
			],
			"extensions":{
				"KHR_materials_transmission":{
					"transmissionFactor":0.4732716381549835
				},
				"KHR_materials_specular":{
					"specularColorFactor":[
						2.059946228591211,
						2.059946228591211,
						2.059946228591211
					]
				},
				"KHR_materials_ior":{
					"ior":0.8075538873672485
				}
			},
			"name":"RandomMaterial.010",
			"pbrMetallicRoughness":{
				"baseColorTexture":{
					"index":0
				},
				"metallicFactor":0.5854454636573792,
				"roughnessFactor":0.5966765284538269
			}
		}
	],
	"meshes":[
		{
			"name":"Sphere",
			"primitives":[
				{
					"attributes":{
						"COLOR_0":0,
						"POSITION":1,
						"NORMAL":2,
						"TEXCOORD_0":3
					},
					"indices":4,
					"material":0
				}
			]
		}
	],
	"textures":[
		{
			"sampler":0,
			"source":0
		}
	],
	"images":[
		{
			"bufferView":5,
			"mimeType":"image/png",
			"name":"uv_debug"
		}
	],
	"accessors":[
		{
			"bufferView":0,
			"componentType":5126,
			"count":2077,
			"type":"VEC4"
		},
		{
			"bufferView":1,
			"componentType":5126,
			"count":2077,
			"max":[
				0.9999997019767761,
				1,
				0.9999994039535522
			],
			"min":[
				-0.9999990463256836,
				-1,
				-0.9999987483024597
			],
			"type":"VEC3"
		},
		{
			"bufferView":2,
			"componentType":5126,
			"count":2077,
			"type":"VEC3"
		},
		{
			"bufferView":3,
			"componentType":5126,
			"count":2077,
			"type":"VEC2"
		},
		{
			"bufferView":4,
			"componentType":5123,
			"count":11520,
			"type":"SCALAR"
		}
	],
	"bufferViews":[
		{
			"buffer":0,
			"byteLength":33232,
			"byteOffset":0,
			"target":34962
		},
		{
			"buffer":0,
			"byteLength":24924,
			"byteOffset":33232,
			"target":34962
		},
		{
			"buffer":0,
			"byteLength":24924,
			"byteOffset":58156,
			"target":34962
		},
		{
			"buffer":0,
			"byteLength":16616,
			"byteOffset":83080,
			"target":34962
		},
		{
			"buffer":0,
			"byteLength":23040,
			"byteOffset":99696,
			"target":34963
		},
		{
			"buffer":0,
			"byteLength":40135,
			"byteOffset":122736
		}
	],
	"samplers":[
		{
			"magFilter":9729,
			"minFilter":9987
		}
	],
	"buffers":[
		{
			"byteLength":162872,
			"uri":"data:application/octet-stream;base64,"
		}
	]
}
