{
	"asset":{
		"generator":"Khronos glTF Blender I/O v4.1.63",
		"version":"2.0"
	},
	"scene":0,
	"scenes":[
		{
			"extras":{
				"vs":{
					"export_list":[
						{
							"name":"Collection 1.dmx",
							"collection":null,
							"ob_type":"COLLECTION",
							"icon":"GROUP"
						}
					]
				},
				"scatter_properties":{},
				"batch_export":{
					"file_format":6,
					"apply_mods":1,
					"gltf_preset":"NO_PRESET",
					"set_scale":1,
					"prefix":"",
					"directory":"//batchgltf\\",
					"mode":1,
					"suffix":""
				}
			},
			"name":"Scene",
			"nodes":[
				0
			]
		}
	],
	"nodes":[
		{
			"extras":{
				"vs":{}
			},
			"mesh":0,
			"name":"Sponge"
		}
	],
	"materials":[
		{
			"doubleSided":true,
			"name":"RandomPBRMaterial.034",
			"pbrMetallicRoughness":{
				"baseColorFactor":[
					0.43393266201019287,
					0.44395074248313904,
					0.8552050590515137,
					1
				],
				"metallicFactor":0.5368872880935669,
				"roughnessFactor":0.06892812252044678
			}
		}
	],
	"meshes":[
		{
			"name":"Sponge",
			"primitives":[
				{
					"attributes":{
						"POSITION":0,
						"NORMAL":1,
						"TEXCOORD_0":2
					},
					"indices":3,
					"material":0
				}
			]
		}
	],
	"accessors":[
		{
			"bufferView":0,
			"componentType":5126,
			"count":191,
			"max":[
				1,
				1,
				1
			],
			"min":[
				-1,
				-1,
				-1
			],
			"type":"VEC3"
		},
		{
			"bufferView":1,
			"componentType":5126,
			"count":191,
			"type":"VEC3"
		},
		{
			"bufferView":2,
			"componentType":5126,
			"count":191,
			"type":"VEC2"
		},
		{
			"bufferView":3,
			"componentType":5123,
			"count":432,
			"type":"SCALAR"
		}
	],
	"bufferViews":[
		{
			"buffer":0,
			"byteLength":2292,
			"byteOffset":0,
			"target":34962
		},
		{
			"buffer":0,
			"byteLength":2292,
			"byteOffset":2292,
			"target":34962
		},
		{
			"buffer":0,
			"byteLength":1528,
			"byteOffset":4584,
			"target":34962
		},
		{
			"buffer":0,
			"byteLength":864,
			"byteOffset":6112,
			"target":34963
		}
	],
	"buffers":[
		{
			"byteLength":6976,
			"uri":"data:application/octet-stream;base64,"
		}
	]
}
