{
	"asset":{
		"generator":"Khronos glTF Blender I/O v3.6.27",
		"version":"2.0"
	},
	"extensionsUsed":[
		"KHR_materials_transmission",
		"KHR_materials_specular",
		"KHR_materials_ior"
	],
	"scene":0,
	"scenes":[
		{
			"extras":{
				"vs":{
					"export_list":[
						{
							"name":"Collection 1.dmx",
							"collection":null,
							"ob_type":"COLLECTION",
							"icon":"GROUP"
						}
					]
				},
				"scatter_properties":{},
				"batch_export":{
					"file_format":6,
					"apply_mods":1,
					"gltf_preset":"NO_PRESET",
					"set_scale":1,
					"prefix":"",
					"directory":"//batchgltf\\",
					"mode":1,
					"suffix":""
				}
			},
			"name":"Scene",
			"nodes":[
				0
			]
		}
	],
	"nodes":[
		{
			"extras":{
				"vs":{}
			},
			"mesh":0,
			"name":"Sponge"
		}
	],
	"materials":[
		{
			"doubleSided":true,
			"emissiveFactor":[
				0.10031147969997711,
				0.06560435695467381,
				0.6177012459846587
			],
			"extensions":{
				"KHR_materials_transmission":{
					"transmissionFactor":0.7827376127243042
				},
				"KHR_materials_specular":{
					"specularColorFactor":[
						0.8448544521133785,
						0.8448544521133785,
						0.8448544521133785
					]
				},
				"KHR_materials_ior":{
					"ior":0.6222917437553406
				}
			},
			"name":"RandomMaterial.011",
			"pbrMetallicRoughness":{
				"baseColorTexture":{
					"index":0
				},
				"metallicFactor":0.6416963338851929,
				"roughnessFactor":0.5853395462036133
			}
		}
	],
	"meshes":[
		{
			"name":"Sponge",
			"primitives":[
				{
					"attributes":{
						"COLOR_0":0,
						"POSITION":1,
						"NORMAL":2,
						"TEXCOORD_0":3
					},
					"indices":4,
					"material":0
				}
			]
		}
	],
	"textures":[
		{
			"sampler":0,
			"source":0
		}
	],
	"images":[
		{
			"bufferView":5,
			"mimeType":"image/png",
			"name":"uv_debug"
		}
	],
	"accessors":[
		{
			"bufferView":0,
			"componentType":5126,
			"count":191,
			"type":"VEC4"
		},
		{
			"bufferView":1,
			"componentType":5126,
			"count":191,
			"max":[
				1,
				1,
				1
			],
			"min":[
				-1,
				-1,
				-1
			],
			"type":"VEC3"
		},
		{
			"bufferView":2,
			"componentType":5126,
			"count":191,
			"type":"VEC3"
		},
		{
			"bufferView":3,
			"componentType":5126,
			"count":191,
			"type":"VEC2"
		},
		{
			"bufferView":4,
			"componentType":5123,
			"count":432,
			"type":"SCALAR"
		}
	],
	"bufferViews":[
		{
			"buffer":0,
			"byteLength":3056,
			"byteOffset":0,
			"target":34962
		},
		{
			"buffer":0,
			"byteLength":2292,
			"byteOffset":3056,
			"target":34962
		},
		{
			"buffer":0,
			"byteLength":2292,
			"byteOffset":5348,
			"target":34962
		},
		{
			"buffer":0,
			"byteLength":1528,
			"byteOffset":7640,
			"target":34962
		},
		{
			"buffer":0,
			"byteLength":864,
			"byteOffset":9168,
			"target":34963
		},
		{
			"buffer":0,
			"byteLength":40135,
			"byteOffset":10032
		}
	],
	"samplers":[
		{
			"magFilter":9729,
			"minFilter":9987
		}
	],
	"buffers":[
		{
			"byteLength":50168,
			"uri":"data:application/octet-stream;base64,"
		}
	]
}
