{
	"asset":{
		"generator":"Khronos glTF Blender I/O v3.6.27",
		"version":"2.0"
	},
	"extensionsUsed":[
		"KHR_materials_transmission",
		"KHR_materials_specular",
		"KHR_materials_ior"
	],
	"scene":0,
	"scenes":[
		{
			"extras":{
				"vs":{
					"export_list":[
						{
							"name":"Collection 1.dmx",
							"collection":null,
							"ob_type":"COLLECTION",
							"icon":"GROUP"
						}
					]
				},
				"scatter_properties":{},
				"batch_export":{
					"file_format":6,
					"apply_mods":1,
					"gltf_preset":"NO_PRESET",
					"set_scale":1,
					"prefix":"",
					"directory":"//batchgltf\\",
					"mode":1,
					"suffix":""
				}
			},
			"name":"Scene",
			"nodes":[
				0
			]
		}
	],
	"nodes":[
		{
			"extras":{
				"vs":{}
			},
			"mesh":0,
			"name":"SuperToroid"
		}
	],
	"materials":[
		{
			"doubleSided":true,
			"emissiveFactor":[
				0.052264385794258406,
				0.1129499068136024,
				0.2900429517036116
			],
			"extensions":{
				"KHR_materials_transmission":{
					"transmissionFactor":0.9622278213500977
				},
				"KHR_materials_specular":{
					"specularColorFactor":[
						0.9625987693413337,
						0.9625987693413337,
						0.9625987693413337
					]
				},
				"KHR_materials_ior":{
					"ior":0.2579711675643921
				}
			},
			"name":"RandomMaterial.013",
			"pbrMetallicRoughness":{
				"baseColorTexture":{
					"index":0
				},
				"metallicFactor":0.790031909942627,
				"roughnessFactor":0.8142419457435608
			}
		}
	],
	"meshes":[
		{
			"extras":{
				"SuperToroid":1,
				"change":0,
				"R":1.0,
				"r":0.30000001192092896,
				"u":16,
				"v":8,
				"n1":1.0,
				"n2":1.0,
				"ie":0,
				"edit":0
			},
			"name":"SuperToroid",
			"primitives":[
				{
					"attributes":{
						"COLOR_0":0,
						"POSITION":1,
						"NORMAL":2,
						"TEXCOORD_0":3
					},
					"indices":4,
					"material":0
				}
			]
		}
	],
	"textures":[
		{
			"sampler":0,
			"source":0
		}
	],
	"images":[
		{
			"bufferView":5,
			"mimeType":"image/png",
			"name":"uv_debug"
		}
	],
	"accessors":[
		{
			"bufferView":0,
			"componentType":5126,
			"count":741,
			"type":"VEC4"
		},
		{
			"bufferView":1,
			"componentType":5126,
			"count":741,
			"max":[
				1.2999999523162842,
				0.30000001192092896,
				1.2999999523162842
			],
			"min":[
				-1.2999999523162842,
				-0.30000001192092896,
				-1.2999999523162842
			],
			"type":"VEC3"
		},
		{
			"bufferView":2,
			"componentType":5126,
			"count":741,
			"type":"VEC3"
		},
		{
			"bufferView":3,
			"componentType":5126,
			"count":741,
			"type":"VEC2"
		},
		{
			"bufferView":4,
			"componentType":5123,
			"count":3072,
			"type":"SCALAR"
		}
	],
	"bufferViews":[
		{
			"buffer":0,
			"byteLength":11856,
			"byteOffset":0,
			"target":34962
		},
		{
			"buffer":0,
			"byteLength":8892,
			"byteOffset":11856,
			"target":34962
		},
		{
			"buffer":0,
			"byteLength":8892,
			"byteOffset":20748,
			"target":34962
		},
		{
			"buffer":0,
			"byteLength":5928,
			"byteOffset":29640,
			"target":34962
		},
		{
			"buffer":0,
			"byteLength":6144,
			"byteOffset":35568,
			"target":34963
		},
		{
			"buffer":0,
			"byteLength":40135,
			"byteOffset":41712
		}
	],
	"samplers":[
		{
			"magFilter":9729,
			"minFilter":9987
		}
	],
	"buffers":[
		{
			"byteLength":81848,
			"uri":"data:application/octet-stream;base64,"
		}
	]
}
