{
	"asset":{
		"generator":"Khronos glTF Blender I/O v4.1.63",
		"version":"2.0"
	},
	"scene":0,
	"scenes":[
		{
			"extras":{
				"vs":{
					"export_list":[
						{
							"name":"Collection 1.dmx",
							"collection":null,
							"ob_type":"COLLECTION",
							"icon":"GROUP"
						}
					]
				},
				"scatter_properties":{},
				"batch_export":{
					"file_format":6,
					"apply_mods":1,
					"gltf_preset":"NO_PRESET",
					"set_scale":1,
					"prefix":"",
					"directory":"//batchgltf\\",
					"mode":1,
					"suffix":""
				}
			},
			"name":"Scene",
			"nodes":[
				0
			]
		}
	],
	"nodes":[
		{
			"extras":{
				"vs":{}
			},
			"mesh":0,
			"name":"SuperToroid"
		}
	],
	"materials":[
		{
			"doubleSided":true,
			"name":"RandomPBRMaterial.036",
			"pbrMetallicRoughness":{
				"baseColorFactor":[
					0.8602421283721924,
					0.7225074768066406,
					0.9583615660667419,
					1
				],
				"metallicFactor":0.13221393525600433,
				"roughnessFactor":0.6172729730606079
			}
		}
	],
	"meshes":[
		{
			"extras":{
				"SuperToroid":1,
				"change":0,
				"R":1.0,
				"r":0.30000001192092896,
				"u":16,
				"v":8,
				"n1":1.0,
				"n2":1.0,
				"ie":0,
				"edit":0
			},
			"name":"SuperToroid",
			"primitives":[
				{
					"attributes":{
						"POSITION":0,
						"NORMAL":1,
						"TEXCOORD_0":2
					},
					"indices":3,
					"material":0
				}
			]
		}
	],
	"accessors":[
		{
			"bufferView":0,
			"componentType":5126,
			"count":721,
			"max":[
				1.2999999523162842,
				0.30000001192092896,
				1.2999999523162842
			],
			"min":[
				-1.2999999523162842,
				-0.30000001192092896,
				-1.2999999523162842
			],
			"type":"VEC3"
		},
		{
			"bufferView":1,
			"componentType":5126,
			"count":721,
			"type":"VEC3"
		},
		{
			"bufferView":2,
			"componentType":5126,
			"count":721,
			"type":"VEC2"
		},
		{
			"bufferView":3,
			"componentType":5123,
			"count":3072,
			"type":"SCALAR"
		}
	],
	"bufferViews":[
		{
			"buffer":0,
			"byteLength":8652,
			"byteOffset":0,
			"target":34962
		},
		{
			"buffer":0,
			"byteLength":8652,
			"byteOffset":8652,
			"target":34962
		},
		{
			"buffer":0,
			"byteLength":5768,
			"byteOffset":17304,
			"target":34962
		},
		{
			"buffer":0,
			"byteLength":6144,
			"byteOffset":23072,
			"target":34963
		}
	],
	"buffers":[
		{
			"byteLength":29216,
			"uri":"data:application/octet-stream;base64,"
		}
	]
}
