{
	"asset":{
		"generator":"Khronos glTF Blender I/O v3.6.27",
		"version":"2.0"
	},
	"scene":0,
	"scenes":[
		{
			"extras":{
				"vs":{
					"export_list":[
						{
							"name":"Collection 1.dmx",
							"collection":null,
							"ob_type":"COLLECTION",
							"icon":"GROUP"
						}
					]
				},
				"scatter_properties":{},
				"batch_export":{
					"file_format":6,
					"apply_mods":1,
					"gltf_preset":"NO_PRESET",
					"set_scale":1,
					"prefix":"",
					"directory":"//batchgltf\\",
					"mode":1,
					"suffix":""
				}
			},
			"name":"Scene",
			"nodes":[
				0
			]
		}
	],
	"nodes":[
		{
			"mesh":0,
			"name":"teapot",
			"rotation":[
				0.7071068286895752,
				0,
				0,
				0.7071068286895752
			],
			"scale":[
				0.5,
				0.5,
				0.25999999046325684
			]
		}
	],
	"meshes":[
		{
			"name":"teapot",
			"primitives":[
				{
					"attributes":{
						"COLOR_0":0,
						"POSITION":1,
						"NORMAL":2,
						"TEXCOORD_0":3
					},
					"indices":4
				}
			]
		}
	],
	"accessors":[
		{
			"bufferView":0,
			"componentType":5123,
			"count":2976,
			"normalized":true,
			"type":"VEC4"
		},
		{
			"bufferView":1,
			"componentType":5126,
			"count":2976,
			"max":[
				16.0703125,
				10,
				7.875
			],
			"min":[
				-16.0703125,
				-10,
				-7.875
			],
			"type":"VEC3"
		},
		{
			"bufferView":2,
			"componentType":5126,
			"count":2976,
			"type":"VEC3"
		},
		{
			"bufferView":3,
			"componentType":5126,
			"count":2976,
			"type":"VEC2"
		},
		{
			"bufferView":4,
			"componentType":5123,
			"count":2976,
			"type":"SCALAR"
		}
	],
	"bufferViews":[
		{
			"buffer":0,
			"byteLength":23808,
			"byteOffset":0,
			"target":34962
		},
		{
			"buffer":0,
			"byteLength":35712,
			"byteOffset":23808,
			"target":34962
		},
		{
			"buffer":0,
			"byteLength":35712,
			"byteOffset":59520,
			"target":34962
		},
		{
			"buffer":0,
			"byteLength":23808,
			"byteOffset":95232,
			"target":34962
		},
		{
			"buffer":0,
			"byteLength":5952,
			"byteOffset":119040,
			"target":34963
		}
	],
	"buffers":[
		{
			"byteLength":124992,
			"uri":"data:application/octet-stream;base64,"
		}
	]
}
