{
	"asset":{
		"generator":"Khronos glTF Blender I/O v3.6.27",
		"version":"2.0"
	},
	"extensionsUsed":[
		"KHR_materials_transmission",
		"KHR_materials_specular",
		"KHR_materials_ior"
	],
	"scene":0,
	"scenes":[
		{
			"extras":{
				"vs":{
					"export_list":[
						{
							"name":"Collection 1.dmx",
							"collection":null,
							"ob_type":"COLLECTION",
							"icon":"GROUP"
						}
					]
				},
				"scatter_properties":{},
				"batch_export":{
					"file_format":6,
					"apply_mods":1,
					"gltf_preset":"NO_PRESET",
					"set_scale":1,
					"prefix":"",
					"directory":"//batchgltf\\",
					"mode":1,
					"suffix":""
				}
			},
			"name":"Scene",
			"nodes":[
				0
			]
		}
	],
	"nodes":[
		{
			"extras":{
				"vs":{}
			},
			"mesh":0,
			"name":"Torus"
		}
	],
	"materials":[
		{
			"doubleSided":true,
			"emissiveFactor":[
				0.5953477397751925,
				0.34852029942020835,
				0.027259470970923516
			],
			"extensions":{
				"KHR_materials_transmission":{
					"transmissionFactor":0.4634828567504883
				},
				"KHR_materials_specular":{
					"specularColorFactor":[
						0.46585062410285766,
						0.46585062410285766,
						0.46585062410285766
					]
				},
				"KHR_materials_ior":{
					"ior":0.00742705725133419
				}
			},
			"name":"RandomMaterial.016",
			"pbrMetallicRoughness":{
				"baseColorTexture":{
					"index":0
				},
				"metallicFactor":0.5399661660194397,
				"roughnessFactor":0.9839139580726624
			}
		}
	],
	"meshes":[
		{
			"name":"Torus",
			"primitives":[
				{
					"attributes":{
						"COLOR_0":0,
						"POSITION":1,
						"NORMAL":2,
						"TEXCOORD_0":3
					},
					"indices":4,
					"material":0
				}
			]
		}
	],
	"textures":[
		{
			"sampler":0,
			"source":0
		}
	],
	"images":[
		{
			"bufferView":5,
			"mimeType":"image/png",
			"name":"uv_debug"
		}
	],
	"accessors":[
		{
			"bufferView":0,
			"componentType":5126,
			"count":3059,
			"type":"VEC4"
		},
		{
			"bufferView":1,
			"componentType":5126,
			"count":3059,
			"max":[
				1.25,
				0.25,
				1.25
			],
			"min":[
				-1.25,
				-0.25,
				-1.25
			],
			"type":"VEC3"
		},
		{
			"bufferView":2,
			"componentType":5126,
			"count":3059,
			"type":"VEC3"
		},
		{
			"bufferView":3,
			"componentType":5126,
			"count":3059,
			"type":"VEC2"
		},
		{
			"bufferView":4,
			"componentType":5123,
			"count":13824,
			"type":"SCALAR"
		}
	],
	"bufferViews":[
		{
			"buffer":0,
			"byteLength":48944,
			"byteOffset":0,
			"target":34962
		},
		{
			"buffer":0,
			"byteLength":36708,
			"byteOffset":48944,
			"target":34962
		},
		{
			"buffer":0,
			"byteLength":36708,
			"byteOffset":85652,
			"target":34962
		},
		{
			"buffer":0,
			"byteLength":24472,
			"byteOffset":122360,
			"target":34962
		},
		{
			"buffer":0,
			"byteLength":27648,
			"byteOffset":146832,
			"target":34963
		},
		{
			"buffer":0,
			"byteLength":40135,
			"byteOffset":174480
		}
	],
	"samplers":[
		{
			"magFilter":9729,
			"minFilter":9987
		}
	],
	"buffers":[
		{
			"byteLength":214616,
			"uri":"data:application/octet-stream;base64,"
		}
	]
}
