{
	"asset":{
		"generator":"Khronos glTF Blender I/O v3.6.27",
		"version":"2.0"
	},
	"extensionsUsed":[
		"KHR_materials_transmission",
		"KHR_materials_specular",
		"KHR_materials_ior"
	],
	"scene":0,
	"scenes":[
		{
			"extras":{
				"vs":{
					"export_list":[
						{
							"name":"Collection 1.dmx",
							"collection":null,
							"ob_type":"COLLECTION",
							"icon":"GROUP"
						}
					]
				},
				"scatter_properties":{},
				"batch_export":{
					"file_format":6,
					"apply_mods":1,
					"gltf_preset":"NO_PRESET",
					"set_scale":1,
					"prefix":"",
					"directory":"//batchgltf\\",
					"mode":1,
					"suffix":""
				}
			},
			"name":"Scene",
			"nodes":[
				0
			]
		}
	],
	"nodes":[
		{
			"extras":{
				"vs":{}
			},
			"mesh":0,
			"name":"TorusKnot"
		}
	],
	"materials":[
		{
			"doubleSided":true,
			"emissiveFactor":[
				0.020092081614139445,
				0.5128548600630154,
				0.26751593995323475
			],
			"extensions":{
				"KHR_materials_transmission":{
					"transmissionFactor":0.6105197072029114
				},
				"KHR_materials_specular":{
					"specularColorFactor":[
						0.6239643327445888,
						0.6239643327445888,
						0.6239643327445888
					]
				},
				"KHR_materials_ior":{
					"ior":0.3566698729991913
				}
			},
			"name":"RandomMaterial.017",
			"pbrMetallicRoughness":{
				"baseColorTexture":{
					"index":0
				},
				"metallicFactor":0.6532028317451477,
				"roughnessFactor":0.5139978528022766
			}
		}
	],
	"meshes":[
		{
			"extras":{
				"TorusKnot":1,
				"change":0,
				"resolution":80,
				"objecttype":1
			},
			"name":"TorusKnot",
			"primitives":[
				{
					"attributes":{
						"COLOR_0":0,
						"POSITION":1,
						"NORMAL":2,
						"TEXCOORD_0":3
					},
					"indices":4,
					"material":0
				}
			]
		}
	],
	"textures":[
		{
			"sampler":0,
			"source":0
		}
	],
	"images":[
		{
			"bufferView":5,
			"mimeType":"image/png",
			"name":"uv_debug"
		}
	],
	"accessors":[
		{
			"bufferView":0,
			"componentType":5126,
			"count":3616,
			"type":"VEC4"
		},
		{
			"bufferView":1,
			"componentType":5126,
			"count":3616,
			"max":[
				2.5461153984069824,
				1.484774112701416,
				3.2030553817749023
			],
			"min":[
				-3.498255729675293,
				-1.4793550968170166,
				-3.202956199645996
			],
			"type":"VEC3"
		},
		{
			"bufferView":2,
			"componentType":5126,
			"count":3616,
			"type":"VEC3"
		},
		{
			"bufferView":3,
			"componentType":5126,
			"count":3616,
			"type":"VEC2"
		},
		{
			"bufferView":4,
			"componentType":5123,
			"count":15360,
			"type":"SCALAR"
		}
	],
	"bufferViews":[
		{
			"buffer":0,
			"byteLength":57856,
			"byteOffset":0,
			"target":34962
		},
		{
			"buffer":0,
			"byteLength":43392,
			"byteOffset":57856,
			"target":34962
		},
		{
			"buffer":0,
			"byteLength":43392,
			"byteOffset":101248,
			"target":34962
		},
		{
			"buffer":0,
			"byteLength":28928,
			"byteOffset":144640,
			"target":34962
		},
		{
			"buffer":0,
			"byteLength":30720,
			"byteOffset":173568,
			"target":34963
		},
		{
			"buffer":0,
			"byteLength":40135,
			"byteOffset":204288
		}
	],
	"samplers":[
		{
			"magFilter":9729,
			"minFilter":9987
		}
	],
	"buffers":[
		{
			"byteLength":244424,
			"uri":"data:application/octet-stream;base64,"
		}
	]
}
