{
	"asset":{
		"generator":"Khronos glTF Blender I/O v4.1.63",
		"version":"2.0"
	},
	"scene":0,
	"scenes":[
		{
			"extras":{
				"vs":{
					"export_list":[
						{
							"name":"Collection 1.dmx",
							"collection":null,
							"ob_type":"COLLECTION",
							"icon":"GROUP"
						}
					]
				},
				"scatter_properties":{},
				"batch_export":{
					"file_format":6,
					"apply_mods":1,
					"gltf_preset":"NO_PRESET",
					"set_scale":1,
					"prefix":"",
					"directory":"//batchgltf\\",
					"mode":1,
					"suffix":""
				}
			},
			"name":"Scene",
			"nodes":[
				0
			]
		}
	],
	"nodes":[
		{
			"extras":{
				"vs":{}
			},
			"mesh":0,
			"name":"TorusKnot"
		}
	],
	"materials":[
		{
			"doubleSided":true,
			"name":"RandomPBRMaterial.040",
			"pbrMetallicRoughness":{
				"baseColorFactor":[
					0.36514875292778015,
					0.18698376417160034,
					0.2260212004184723,
					1
				],
				"metallicFactor":0.06226854398846626,
				"roughnessFactor":0.006802128627896309
			}
		}
	],
	"meshes":[
		{
			"extras":{
				"TorusKnot":1,
				"change":0,
				"resolution":80,
				"objecttype":1
			},
			"name":"TorusKnot",
			"primitives":[
				{
					"attributes":{
						"POSITION":0,
						"NORMAL":1,
						"TEXCOORD_0":2
					},
					"indices":3,
					"material":0
				}
			]
		}
	],
	"accessors":[
		{
			"bufferView":0,
			"componentType":5126,
			"count":3648,
			"max":[
				2.5461153984069824,
				1.484774112701416,
				3.2030553817749023
			],
			"min":[
				-3.498255729675293,
				-1.4793550968170166,
				-3.202956199645996
			],
			"type":"VEC3"
		},
		{
			"bufferView":1,
			"componentType":5126,
			"count":3648,
			"type":"VEC3"
		},
		{
			"bufferView":2,
			"componentType":5126,
			"count":3648,
			"type":"VEC2"
		},
		{
			"bufferView":3,
			"componentType":5123,
			"count":15360,
			"type":"SCALAR"
		}
	],
	"bufferViews":[
		{
			"buffer":0,
			"byteLength":43776,
			"byteOffset":0,
			"target":34962
		},
		{
			"buffer":0,
			"byteLength":43776,
			"byteOffset":43776,
			"target":34962
		},
		{
			"buffer":0,
			"byteLength":29184,
			"byteOffset":87552,
			"target":34962
		},
		{
			"buffer":0,
			"byteLength":30720,
			"byteOffset":116736,
			"target":34963
		}
	],
	"buffers":[
		{
			"byteLength":147456,
			"uri":"data:application/octet-stream;base64,"
		}
	]
}
