{
	"asset":{
		"generator":"Khronos glTF Blender I/O v4.1.63",
		"version":"2.0"
	},
	"scene":0,
	"scenes":[
		{
			"extras":{
				"vs":{
					"export_list":[
						{
							"name":"Collection 1.dmx",
							"collection":null,
							"ob_type":"COLLECTION",
							"icon":"GROUP"
						}
					]
				},
				"scatter_properties":{},
				"batch_export":{
					"file_format":6,
					"apply_mods":1,
					"gltf_preset":"NO_PRESET",
					"set_scale":1,
					"prefix":"",
					"directory":"//batchgltf\\",
					"mode":1,
					"suffix":""
				}
			},
			"name":"Scene",
			"nodes":[
				0
			]
		}
	],
	"nodes":[
		{
			"extras":{
				"vs":{}
			},
			"mesh":0,
			"name":"TwistedTorus"
		}
	],
	"materials":[
		{
			"doubleSided":true,
			"name":"RandomPBRMaterial.041",
			"pbrMetallicRoughness":{
				"baseColorFactor":[
					0.03829166293144226,
					0.03876899927854538,
					0.34679216146469116,
					1
				],
				"metallicFactor":0.43911802768707275,
				"roughnessFactor":0.2197992354631424
			}
		}
	],
	"meshes":[
		{
			"extras":{
				"TwistedTorus":1,
				"change":0,
				"major_radius":1.0,
				"minor_radius":0.25,
				"major_segments":48,
				"minor_segments":12,
				"twists":1,
				"use_abso":0,
				"abso_major_rad":1.0,
				"abso_minor_rad":0.5
			},
			"name":"TwistedTorus",
			"primitives":[
				{
					"attributes":{
						"POSITION":0,
						"NORMAL":1,
						"TEXCOORD_0":2
					},
					"indices":3,
					"material":0
				}
			]
		}
	],
	"accessors":[
		{
			"bufferView":0,
			"componentType":5126,
			"count":9216,
			"max":[
				1.25,
				0.25,
				1.2500001192092896
			],
			"min":[
				-1.25,
				-0.25,
				-1.2500001192092896
			],
			"type":"VEC3"
		},
		{
			"bufferView":1,
			"componentType":5126,
			"count":9216,
			"type":"VEC3"
		},
		{
			"bufferView":2,
			"componentType":5126,
			"count":9216,
			"type":"VEC2"
		},
		{
			"bufferView":3,
			"componentType":5123,
			"count":13824,
			"type":"SCALAR"
		}
	],
	"bufferViews":[
		{
			"buffer":0,
			"byteLength":110592,
			"byteOffset":0,
			"target":34962
		},
		{
			"buffer":0,
			"byteLength":110592,
			"byteOffset":110592,
			"target":34962
		},
		{
			"buffer":0,
			"byteLength":73728,
			"byteOffset":221184,
			"target":34962
		},
		{
			"buffer":0,
			"byteLength":27648,
			"byteOffset":294912,
			"target":34963
		}
	],
	"buffers":[
		{
			"byteLength":322560,
			"uri":"data:application/octet-stream;base64,"
		}
	]
}
