{
	"asset":{
		"generator":"Khronos glTF Blender I/O v3.6.27",
		"version":"2.0"
	},
	"extensionsUsed":[
		"KHR_materials_transmission",
		"KHR_materials_specular",
		"KHR_materials_ior"
	],
	"scene":0,
	"scenes":[
		{
			"extras":{
				"vs":{
					"export_list":[
						{
							"name":"Collection 1.dmx",
							"collection":null,
							"ob_type":"COLLECTION",
							"icon":"GROUP"
						}
					]
				},
				"scatter_properties":{},
				"batch_export":{
					"file_format":6,
					"apply_mods":1,
					"gltf_preset":"NO_PRESET",
					"set_scale":1,
					"prefix":"",
					"directory":"//batchgltf\\",
					"mode":1,
					"suffix":""
				}
			},
			"name":"Scene",
			"nodes":[
				0
			]
		}
	],
	"nodes":[
		{
			"extras":{
				"vs":{}
			},
			"mesh":0,
			"name":"TwistedTorus"
		}
	],
	"materials":[
		{
			"doubleSided":true,
			"emissiveFactor":[
				0.3853491334287966,
				0.0017432959967660089,
				0.6900998885730232
			],
			"extensions":{
				"KHR_materials_transmission":{
					"transmissionFactor":0.8480014204978943
				},
				"KHR_materials_specular":{
					"specularColorFactor":[
						0.8728005144378779,
						0.8728005144378779,
						0.8728005144378779
					]
				},
				"KHR_materials_ior":{
					"ior":0.415815144777298
				}
			},
			"name":"RandomMaterial.018",
			"pbrMetallicRoughness":{
				"baseColorTexture":{
					"index":0
				},
				"metallicFactor":0.869922399520874,
				"roughnessFactor":0.5519148111343384
			}
		}
	],
	"meshes":[
		{
			"extras":{
				"TwistedTorus":1,
				"change":0,
				"major_radius":1.0,
				"minor_radius":0.25,
				"major_segments":48,
				"minor_segments":12,
				"twists":1,
				"use_abso":0,
				"abso_major_rad":1.0,
				"abso_minor_rad":0.5
			},
			"name":"TwistedTorus",
			"primitives":[
				{
					"attributes":{
						"COLOR_0":0,
						"POSITION":1,
						"NORMAL":2,
						"TEXCOORD_0":3
					},
					"indices":4,
					"material":0
				}
			]
		}
	],
	"textures":[
		{
			"sampler":0,
			"source":0
		}
	],
	"images":[
		{
			"bufferView":5,
			"mimeType":"image/png",
			"name":"uv_debug"
		}
	],
	"accessors":[
		{
			"bufferView":0,
			"componentType":5126,
			"count":9216,
			"type":"VEC4"
		},
		{
			"bufferView":1,
			"componentType":5126,
			"count":9216,
			"max":[
				1.25,
				0.25,
				1.2500001192092896
			],
			"min":[
				-1.25,
				-0.25,
				-1.2500001192092896
			],
			"type":"VEC3"
		},
		{
			"bufferView":2,
			"componentType":5126,
			"count":9216,
			"type":"VEC3"
		},
		{
			"bufferView":3,
			"componentType":5126,
			"count":9216,
			"type":"VEC2"
		},
		{
			"bufferView":4,
			"componentType":5123,
			"count":13824,
			"type":"SCALAR"
		}
	],
	"bufferViews":[
		{
			"buffer":0,
			"byteLength":147456,
			"byteOffset":0,
			"target":34962
		},
		{
			"buffer":0,
			"byteLength":110592,
			"byteOffset":147456,
			"target":34962
		},
		{
			"buffer":0,
			"byteLength":110592,
			"byteOffset":258048,
			"target":34962
		},
		{
			"buffer":0,
			"byteLength":73728,
			"byteOffset":368640,
			"target":34962
		},
		{
			"buffer":0,
			"byteLength":27648,
			"byteOffset":442368,
			"target":34963
		},
		{
			"buffer":0,
			"byteLength":40135,
			"byteOffset":470016
		}
	],
	"samplers":[
		{
			"magFilter":9729,
			"minFilter":9987
		}
	],
	"buffers":[
		{
			"byteLength":510152,
			"uri":"data:application/octet-stream;base64,"
		}
	]
}
