{
    "asset" : {
        "generator" : "Khronos glTF Blender I/O v3.2.43",
        "version" : "2.0"
    },
    "extensionsUsed" : [
        "KHR_texture_transform"
    ],
    "extensionsRequired" : [
        "KHR_texture_transform"
    ],
    "scene" : 0,
    "scenes" : [
        {
            "extras" : {
                "vs" : {
                    "export_list" : [
                        {
                            "name" : "Collection 1.dmx",
                            "collection" : {
                                "name" : "Collection 1",
                                "type" : "Collection"
                            },
                            "ob_type" : "COLLECTION",
                            "icon" : "GROUP"
                        }
                    ]
                },
                "scatter_properties" : {},
                "batch_export" : {
                    "file_format" : 6,
                    "apply_mods" : 1,
                    "gltf_preset" : "NO_PRESET",
                    "set_scale" : 1,
                    "prefix" : "",
                    "directory" : "//batchgltf\\",
                    "mode" : 1,
                    "suffix" : ""
                }
            },
            "name" : "Scene",
            "nodes" : [
                0
            ]
        }
    ],
    "nodes" : [
        {
            "extras" : {
                "vs" : {},
                "ant_landscape" : {}
            },
            "mesh" : 0,
            "name" : "Gear"
        }
    ],
    "materials" : [
        {
            "doubleSided" : true,
            "name" : "UV.004",
            "pbrMetallicRoughness" : {
                "baseColorTexture" : {
                    "extensions" : {
                        "KHR_texture_transform" : {
                            "offset" : [
                                0,
                                -18.99999970197678
                            ],
                            "scale" : [
                                19.99999970197678,
                                19.99999970197678
                            ]
                        }
                    },
                    "index" : 0
                },
                "metallicFactor" : 0,
                "roughnessFactor" : 0.5
            }
        }
    ],
    "meshes" : [
        {
            "extras" : {
                "Gear" : 1,
                "change" : 0,
                "number_of_teeth" : 23,
                "radius" : 1.0499999523162842,
                "addendum" : 0.10000000149011612,
                "dedendum" : 0.07999999821186066,
                "base" : 0.2199999988079071,
                "angle" : 0.3490658402442932,
                "width" : 0.20000000298023224,
                "skew" : -1.1641532182693481e-10,
                "conangle" : 1.1641532182693481e-10,
                "crown" : 0.0
            },
            "name" : "Gear.001",
            "primitives" : [
                {
                    "attributes" : {
                        "POSITION" : 0,
                        "NORMAL" : 1,
                        "TEXCOORD_0" : 2
                    },
                    "indices" : 3,
                    "material" : 0
                }
            ]
        }
    ],
    "textures" : [
        {
            "sampler" : 0,
            "source" : 0
        }
    ],
    "images" : [
        {
            "bufferView" : 4,
            "mimeType" : "image/png",
            "name" : "uv_debug"
        }
    ],
    "accessors" : [
        {
            "bufferView" : 0,
            "componentType" : 5126,
            "count" : 77572,
            "max" : [
                1.1601967811584473,
                0.21092376112937927,
                1.1671059131622314
            ],
            "min" : [
                -1.1696056127548218,
                -0.212972491979599,
                -1.1671059131622314
            ],
            "type" : "VEC3"
        },
        {
            "bufferView" : 1,
            "componentType" : 5126,
            "count" : 77572,
            "type" : "VEC3"
        },
        {
            "bufferView" : 2,
            "componentType" : 5126,
            "count" : 77572,
            "type" : "VEC2"
        },
        {
            "bufferView" : 3,
            "componentType" : 5125,
            "count" : 139656,
            "type" : "SCALAR"
        }
    ],
    "bufferViews" : [
        {
            "buffer" : 0,
            "byteLength" : 930864,
            "byteOffset" : 0
        },
        {
            "buffer" : 0,
            "byteLength" : 930864,
            "byteOffset" : 930864
        },
        {
            "buffer" : 0,
            "byteLength" : 620576,
            "byteOffset" : 1861728
        },
        {
            "buffer" : 0,
            "byteLength" : 558624,
            "byteOffset" : 2482304
        },
        {
            "buffer" : 0,
            "byteLength" : 40135,
            "byteOffset" : 3040928
        }
    ],
    "samplers" : [
        {
            "magFilter" : 9729,
            "minFilter" : 9987
        }
    ],
    "buffers" : [
        {
            "byteLength" : 3081064,
            "uri" : "data:application/octet-stream;base64,"
        }
    ]
}
