{
    "asset" : {
        "generator" : "Khronos glTF Blender I/O v3.2.43",
        "version" : "2.0"
    },
    "extensionsUsed" : [
        "KHR_materials_clearcoat",
        "KHR_materials_transmission"
    ],
    "scene" : 0,
    "scenes" : [
        {
            "extras" : {
                "vs" : {
                    "export_list" : [
                        {
                            "name" : "Collection 1.dmx",
                            "collection" : {
                                "name" : "Collection 1",
                                "type" : "Collection"
                            },
                            "ob_type" : "COLLECTION",
                            "icon" : "GROUP"
                        }
                    ]
                },
                "scatter_properties" : {},
                "batch_export" : {
                    "file_format" : 6,
                    "apply_mods" : 1,
                    "gltf_preset" : "NO_PRESET",
                    "set_scale" : 1,
                    "prefix" : "",
                    "directory" : "//batchgltf\\",
                    "mode" : 1,
                    "suffix" : ""
                }
            },
            "name" : "Scene",
            "nodes" : [
                0
            ]
        }
    ],
    "nodes" : [
        {
            "extras" : {
                "vs" : {}
            },
            "mesh" : 0,
            "name" : "Gem"
        }
    ],
    "materials" : [
        {
            "doubleSided" : true,
            "extensions" : {
                "KHR_materials_clearcoat" : {
                    "clearcoatFactor" : 1,
                    "clearcoatRoughnessFactor" : 0.029999999329447746
                },
                "KHR_materials_transmission" : {
                    "transmissionFactor" : 1
                }
            },
            "name" : "Material.012",
            "pbrMetallicRoughness" : {
                "baseColorFactor" : [
                    0,
                    0.72770094871521,
                    0.8000000715255737,
                    1
                ],
                "roughnessFactor" : 0.6454545259475708
            }
        }
    ],
    "meshes" : [
        {
            "extras" : {
                "Brilliant" : 1,
                "change" : 0,
                "s" : 84,
                "table_w" : 0.5614645481109619,
                "crown_h" : 0.12262992560863495,
                "girdle_t" : 0.017000000923871994,
                "girdle_real" : 1,
                "g_real_smooth" : 0,
                "pavi_d" : 0.4309999942779541,
                "bezel_f" : 0.25,
                "pavi_f" : 0.4000000059604645,
                "culet" : 0.0,
                "keep_lga" : 0
            },
            "name" : "dmesh.001",
            "primitives" : [
                {
                    "attributes" : {
                        "POSITION" : 0,
                        "NORMAL" : 1,
                        "TEXCOORD_0" : 2
                    },
                    "indices" : 3,
                    "material" : 0
                }
            ]
        }
    ],
    "accessors" : [
        {
            "bufferView" : 0,
            "componentType" : 5126,
            "count" : 2856,
            "max" : [
                1,
                0.2792598605155945,
                1
            ],
            "min" : [
                -1,
                -0.8619999885559082,
                -1
            ],
            "type" : "VEC3"
        },
        {
            "bufferView" : 1,
            "componentType" : 5126,
            "count" : 2856,
            "type" : "VEC3"
        },
        {
            "bufferView" : 2,
            "componentType" : 5126,
            "count" : 2856,
            "type" : "VEC2"
        },
        {
            "bufferView" : 3,
            "componentType" : 5123,
            "count" : 4782,
            "type" : "SCALAR"
        }
    ],
    "bufferViews" : [
        {
            "buffer" : 0,
            "byteLength" : 34272,
            "byteOffset" : 0
        },
        {
            "buffer" : 0,
            "byteLength" : 34272,
            "byteOffset" : 34272
        },
        {
            "buffer" : 0,
            "byteLength" : 22848,
            "byteOffset" : 68544
        },
        {
            "buffer" : 0,
            "byteLength" : 9564,
            "byteOffset" : 91392
        }
    ],
    "buffers" : [
        {
            "byteLength" : 100956,
            "uri" : "data:application/octet-stream;base64,"
        }
    ]
}
