{
    "asset" : {
        "generator" : "Khronos glTF Blender I/O v3.2.43",
        "version" : "2.0"
    },
    "extensionsUsed" : [
        "KHR_texture_transform"
    ],
    "extensionsRequired" : [
        "KHR_texture_transform"
    ],
    "scene" : 0,
    "scenes" : [
        {
            "extras" : {
                "vs" : {
                    "export_list" : [
                        {
                            "name" : "Collection 1.dmx",
                            "collection" : {
                                "name" : "Collection 1",
                                "type" : "Collection"
                            },
                            "ob_type" : "COLLECTION",
                            "icon" : "GROUP"
                        }
                    ]
                },
                "scatter_properties" : {},
                "batch_export" : {
                    "file_format" : 6,
                    "apply_mods" : 1,
                    "gltf_preset" : "NO_PRESET",
                    "set_scale" : 1,
                    "prefix" : "",
                    "directory" : "//batchgltf\\",
                    "mode" : 1,
                    "suffix" : ""
                }
            },
            "name" : "Scene",
            "nodes" : [
                0
            ]
        }
    ],
    "nodes" : [
        {
            "extras" : {
                "vs" : {}
            },
            "mesh" : 0,
            "name" : "Gem"
        }
    ],
    "materials" : [
        {
            "doubleSided" : true,
            "name" : "UV.005",
            "pbrMetallicRoughness" : {
                "baseColorTexture" : {
                    "extensions" : {
                        "KHR_texture_transform" : {
                            "offset" : [
                                0,
                                5.960460924825384e-07
                            ],
                            "scale" : [
                                0.9999994039539075,
                                0.9999994039539075
                            ]
                        }
                    },
                    "index" : 0
                },
                "metallicFactor" : 0,
                "roughnessFactor" : 0.5
            }
        }
    ],
    "meshes" : [
        {
            "extras" : {
                "Brilliant" : 1,
                "change" : 0,
                "s" : 84,
                "table_w" : 0.5614645481109619,
                "crown_h" : 0.12262992560863495,
                "girdle_t" : 0.017000000923871994,
                "girdle_real" : 1,
                "g_real_smooth" : 0,
                "pavi_d" : 0.4309999942779541,
                "bezel_f" : 0.25,
                "pavi_f" : 0.4000000059604645,
                "culet" : 0.0,
                "keep_lga" : 0
            },
            "name" : "dmesh.001",
            "primitives" : [
                {
                    "attributes" : {
                        "POSITION" : 0,
                        "NORMAL" : 1,
                        "TEXCOORD_0" : 2
                    },
                    "indices" : 3,
                    "material" : 0
                }
            ]
        }
    ],
    "textures" : [
        {
            "sampler" : 0,
            "source" : 0
        }
    ],
    "images" : [
        {
            "bufferView" : 4,
            "mimeType" : "image/png",
            "name" : "uv_debug"
        }
    ],
    "accessors" : [
        {
            "bufferView" : 0,
            "componentType" : 5126,
            "count" : 9185,
            "max" : [
                1,
                0.2792598605155945,
                1
            ],
            "min" : [
                -1,
                -0.8619999885559082,
                -1
            ],
            "type" : "VEC3"
        },
        {
            "bufferView" : 1,
            "componentType" : 5126,
            "count" : 9185,
            "type" : "VEC3"
        },
        {
            "bufferView" : 2,
            "componentType" : 5126,
            "count" : 9185,
            "type" : "VEC2"
        },
        {
            "bufferView" : 3,
            "componentType" : 5123,
            "count" : 15870,
            "type" : "SCALAR"
        }
    ],
    "bufferViews" : [
        {
            "buffer" : 0,
            "byteLength" : 110220,
            "byteOffset" : 0
        },
        {
            "buffer" : 0,
            "byteLength" : 110220,
            "byteOffset" : 110220
        },
        {
            "buffer" : 0,
            "byteLength" : 73480,
            "byteOffset" : 220440
        },
        {
            "buffer" : 0,
            "byteLength" : 31740,
            "byteOffset" : 293920
        },
        {
            "buffer" : 0,
            "byteLength" : 40135,
            "byteOffset" : 325660
        }
    ],
    "samplers" : [
        {
            "magFilter" : 9729,
            "minFilter" : 9987
        }
    ],
    "buffers" : [
        {
            "byteLength" : 365796,
            "uri" : "data:application/octet-stream;base64,"
        }
    ]
}
