{
    "asset" : {
        "generator" : "Khronos glTF Blender I/O v3.2.43",
        "version" : "2.0"
    },
    "scene" : 0,
    "scenes" : [
        {
            "extras" : {
                "vs" : {
                    "export_list" : [
                        {
                            "name" : "Collection 1.dmx",
                            "collection" : {
                                "name" : "Collection 1",
                                "type" : "Collection"
                            },
                            "ob_type" : "COLLECTION",
                            "icon" : "GROUP"
                        }
                    ]
                },
                "scatter_properties" : {},
                "batch_export" : {
                    "file_format" : 6,
                    "apply_mods" : 1,
                    "gltf_preset" : "NO_PRESET",
                    "set_scale" : 1,
                    "prefix" : "",
                    "directory" : "//batchgltf\\",
                    "mode" : 1,
                    "suffix" : ""
                }
            },
            "name" : "Scene",
            "nodes" : [
                0
            ]
        }
    ],
    "nodes" : [
        {
            "extras" : {
                "vs" : {}
            },
            "mesh" : 0,
            "name" : "SuperToroid"
        }
    ],
    "materials" : [
        {
            "doubleSided" : true,
            "name" : "Material.006",
            "pbrMetallicRoughness" : {
                "baseColorFactor" : [
                    0.8000000715255737,
                    0.011826078407466412,
                    0,
                    1
                ],
                "metallicFactor" : 0,
                "roughnessFactor" : 0.5
            }
        }
    ],
    "meshes" : [
        {
            "extras" : {
                "SuperToroid" : 1,
                "change" : 0,
                "R" : 1.0,
                "r" : 0.30000001192092896,
                "u" : 16,
                "v" : 8,
                "n1" : 1.0,
                "n2" : 1.0,
                "ie" : 0,
                "edit" : 0
            },
            "name" : "SuperToroid",
            "primitives" : [
                {
                    "attributes" : {
                        "POSITION" : 0,
                        "NORMAL" : 1,
                        "TEXCOORD_0" : 2
                    },
                    "indices" : 3,
                    "material" : 0
                }
            ]
        }
    ],
    "accessors" : [
        {
            "bufferView" : 0,
            "componentType" : 5126,
            "count" : 2048,
            "max" : [
                1.2999999523162842,
                0.30000001192092896,
                1.2999999523162842
            ],
            "min" : [
                -1.2999999523162842,
                -0.30000001192092896,
                -1.2999999523162842
            ],
            "type" : "VEC3"
        },
        {
            "bufferView" : 1,
            "componentType" : 5126,
            "count" : 2048,
            "type" : "VEC3"
        },
        {
            "bufferView" : 2,
            "componentType" : 5126,
            "count" : 2048,
            "type" : "VEC2"
        },
        {
            "bufferView" : 3,
            "componentType" : 5123,
            "count" : 3072,
            "type" : "SCALAR"
        }
    ],
    "bufferViews" : [
        {
            "buffer" : 0,
            "byteLength" : 24576,
            "byteOffset" : 0
        },
        {
            "buffer" : 0,
            "byteLength" : 24576,
            "byteOffset" : 24576
        },
        {
            "buffer" : 0,
            "byteLength" : 16384,
            "byteOffset" : 49152
        },
        {
            "buffer" : 0,
            "byteLength" : 6144,
            "byteOffset" : 65536
        }
    ],
    "buffers" : [
        {
            "byteLength" : 71680,
            "uri" : "SuperToroid.bin"
        }
    ]
}
