{
    "asset" : {
        "generator" : "Khronos glTF Blender I/O v3.2.43",
        "version" : "2.0"
    },
    "extensionsUsed" : [
        "KHR_materials_transmission"
    ],
    "scene" : 0,
    "scenes" : [
        {
            "extras" : {
                "vs" : {
                    "export_list" : [
                        {
                            "name" : "Collection 1.dmx",
                            "collection" : {
                                "name" : "Collection 1",
                                "type" : "Collection"
                            },
                            "ob_type" : "COLLECTION",
                            "icon" : "GROUP"
                        }
                    ]
                },
                "scatter_properties" : {},
                "batch_export" : {
                    "file_format" : 6,
                    "apply_mods" : 1,
                    "gltf_preset" : "NO_PRESET",
                    "set_scale" : 1,
                    "prefix" : "",
                    "directory" : "//batchgltf\\",
                    "mode" : 1,
                    "suffix" : ""
                }
            },
            "name" : "Scene",
            "nodes" : [
                0
            ]
        }
    ],
    "nodes" : [
        {
            "extras" : {
                "vs" : {}
            },
            "mesh" : 0,
            "name" : "Suzanne"
        }
    ],
    "materials" : [
        {
            "doubleSided" : true,
            "extensions" : {
                "KHR_materials_transmission" : {
                    "transmissionFactor" : 0.5376344323158264
                }
            },
            "name" : "Material",
            "pbrMetallicRoughness" : {
                "baseColorFactor" : [
                    0.8000000715255737,
                    0,
                    0.014399930834770203,
                    1
                ],
                "roughnessFactor" : 0.4462365508079529
            }
        }
    ],
    "meshes" : [
        {
            "name" : "Suzanne",
            "primitives" : [
                {
                    "attributes" : {
                        "POSITION" : 0,
                        "NORMAL" : 1,
                        "TEXCOORD_0" : 2
                    },
                    "indices" : 3,
                    "material" : 0
                }
            ]
        }
    ],
    "accessors" : [
        {
            "bufferView" : 0,
            "componentType" : 5126,
            "count" : 3511,
            "max" : [
                1.3671875,
                0.984375,
                0.8515625
            ],
            "min" : [
                -1.3671875,
                -0.984375,
                -0.8515625
            ],
            "type" : "VEC3"
        },
        {
            "bufferView" : 1,
            "componentType" : 5126,
            "count" : 3511,
            "type" : "VEC3"
        },
        {
            "bufferView" : 2,
            "componentType" : 5126,
            "count" : 3511,
            "type" : "VEC2"
        },
        {
            "bufferView" : 3,
            "componentType" : 5123,
            "count" : 11616,
            "type" : "SCALAR"
        }
    ],
    "bufferViews" : [
        {
            "buffer" : 0,
            "byteLength" : 42132,
            "byteOffset" : 0
        },
        {
            "buffer" : 0,
            "byteLength" : 42132,
            "byteOffset" : 42132
        },
        {
            "buffer" : 0,
            "byteLength" : 28088,
            "byteOffset" : 84264
        },
        {
            "buffer" : 0,
            "byteLength" : 23232,
            "byteOffset" : 112352
        }
    ],
    "buffers" : [
        {
            "byteLength" : 135584,
            "uri" : "data:application/octet-stream;base64,"
        }
    ]
}
