{
    "asset" : {
        "generator" : "Khronos glTF Blender I/O v3.2.43",
        "version" : "2.0"
    },
    "extensionsUsed" : [
        "KHR_texture_transform"
    ],
    "extensionsRequired" : [
        "KHR_texture_transform"
    ],
    "scene" : 0,
    "scenes" : [
        {
            "extras" : {
                "vs" : {
                    "export_list" : [
                        {
                            "name" : "Collection 1.dmx",
                            "collection" : {
                                "name" : "Collection 1",
                                "type" : "Collection"
                            },
                            "ob_type" : "COLLECTION",
                            "icon" : "GROUP"
                        }
                    ]
                },
                "scatter_properties" : {},
                "batch_export" : {
                    "file_format" : 6,
                    "apply_mods" : 1,
                    "gltf_preset" : "NO_PRESET",
                    "set_scale" : 1,
                    "prefix" : "",
                    "directory" : "//batchgltf\\",
                    "mode" : 1,
                    "suffix" : ""
                }
            },
            "name" : "Scene",
            "nodes" : [
                0
            ]
        }
    ],
    "nodes" : [
        {
            "extras" : {
                "vs" : {}
            },
            "mesh" : 0,
            "name" : "TorusKnot"
        }
    ],
    "materials" : [
        {
            "doubleSided" : true,
            "name" : "UV",
            "pbrMetallicRoughness" : {
                "baseColorTexture" : {
                    "extensions" : {
                        "KHR_texture_transform" : {
                            "offset" : [
                                0,
                                -1.0000013113030448
                            ],
                            "scale" : [
                                2.000001311303045,
                                2.000001311303045
                            ]
                        }
                    },
                    "index" : 0
                },
                "metallicFactor" : 0,
                "roughnessFactor" : 0.5
            }
        }
    ],
    "meshes" : [
        {
            "extras" : {
                "TorusKnot" : 1,
                "change" : 0,
                "resolution" : 80,
                "objecttype" : 1
            },
            "name" : "TorusKnot",
            "primitives" : [
                {
                    "attributes" : {
                        "POSITION" : 0,
                        "NORMAL" : 1,
                        "TEXCOORD_0" : 2
                    },
                    "indices" : 3,
                    "material" : 0
                }
            ]
        }
    ],
    "textures" : [
        {
            "sampler" : 0,
            "source" : 0
        }
    ],
    "images" : [
        {
            "bufferView" : 4,
            "mimeType" : "image/png",
            "name" : "uv_debug"
        }
    ],
    "accessors" : [
        {
            "bufferView" : 0,
            "componentType" : 5126,
            "count" : 4018,
            "max" : [
                2.5461153984069824,
                1.484774112701416,
                3.2030553817749023
            ],
            "min" : [
                -3.498255729675293,
                -1.4793550968170166,
                -3.202956199645996
            ],
            "type" : "VEC3"
        },
        {
            "bufferView" : 1,
            "componentType" : 5126,
            "count" : 4018,
            "type" : "VEC3"
        },
        {
            "bufferView" : 2,
            "componentType" : 5126,
            "count" : 4018,
            "type" : "VEC2"
        },
        {
            "bufferView" : 3,
            "componentType" : 5123,
            "count" : 15360,
            "type" : "SCALAR"
        }
    ],
    "bufferViews" : [
        {
            "buffer" : 0,
            "byteLength" : 48216,
            "byteOffset" : 0
        },
        {
            "buffer" : 0,
            "byteLength" : 48216,
            "byteOffset" : 48216
        },
        {
            "buffer" : 0,
            "byteLength" : 32144,
            "byteOffset" : 96432
        },
        {
            "buffer" : 0,
            "byteLength" : 30720,
            "byteOffset" : 128576
        },
        {
            "buffer" : 0,
            "byteLength" : 40135,
            "byteOffset" : 159296
        }
    ],
    "samplers" : [
        {
            "magFilter" : 9729,
            "minFilter" : 9987
        }
    ],
    "buffers" : [
        {
            "byteLength" : 199432,
            "uri" : "data:application/octet-stream;base64,"
        }
    ]
}
