{
    "asset" : {
        "generator" : "Khronos glTF Blender I/O v3.2.43",
        "version" : "2.0"
    },
    "extensionsUsed" : [
        "KHR_texture_transform"
    ],
    "extensionsRequired" : [
        "KHR_texture_transform"
    ],
    "scene" : 0,
    "scenes" : [
        {
            "extras" : {
                "vs" : {
                    "export_list" : [
                        {
                            "name" : "Collection 1.dmx",
                            "collection" : {
                                "name" : "Collection 1",
                                "type" : "Collection"
                            },
                            "ob_type" : "COLLECTION",
                            "icon" : "GROUP"
                        }
                    ]
                },
                "scatter_properties" : {},
                "batch_export" : {
                    "file_format" : 6,
                    "apply_mods" : 1,
                    "gltf_preset" : "NO_PRESET",
                    "set_scale" : 1,
                    "prefix" : "",
                    "directory" : "//batchgltf\\",
                    "mode" : 1,
                    "suffix" : ""
                }
            },
            "name" : "Scene",
            "nodes" : [
                0
            ]
        }
    ],
    "nodes" : [
        {
            "extras" : {
                "vs" : {}
            },
            "mesh" : 0,
            "name" : "TwistedTorus"
        }
    ],
    "materials" : [
        {
            "doubleSided" : true,
            "name" : "UV",
            "pbrMetallicRoughness" : {
                "baseColorTexture" : {
                    "extensions" : {
                        "KHR_texture_transform" : {
                            "offset" : [
                                0,
                                -1.0000013113030448
                            ],
                            "scale" : [
                                2.000001311303045,
                                2.000001311303045
                            ]
                        }
                    },
                    "index" : 0
                },
                "metallicFactor" : 0,
                "roughnessFactor" : 0.5
            }
        }
    ],
    "meshes" : [
        {
            "extras" : {
                "TwistedTorus" : 1,
                "change" : 0,
                "major_radius" : 1.0,
                "minor_radius" : 0.25,
                "major_segments" : 48,
                "minor_segments" : 12,
                "twists" : 1,
                "use_abso" : 0,
                "abso_major_rad" : 1.0,
                "abso_minor_rad" : 0.5
            },
            "name" : "TwistedTorus",
            "primitives" : [
                {
                    "attributes" : {
                        "POSITION" : 0,
                        "NORMAL" : 1,
                        "TEXCOORD_0" : 2
                    },
                    "indices" : 3,
                    "material" : 0
                }
            ]
        }
    ],
    "textures" : [
        {
            "sampler" : 0,
            "source" : 0
        }
    ],
    "images" : [
        {
            "bufferView" : 4,
            "mimeType" : "image/png",
            "name" : "uv_debug"
        }
    ],
    "accessors" : [
        {
            "bufferView" : 0,
            "componentType" : 5126,
            "count" : 9216,
            "max" : [
                1.25,
                0.25,
                1.2500001192092896
            ],
            "min" : [
                -1.25,
                -0.25,
                -1.2500001192092896
            ],
            "type" : "VEC3"
        },
        {
            "bufferView" : 1,
            "componentType" : 5126,
            "count" : 9216,
            "type" : "VEC3"
        },
        {
            "bufferView" : 2,
            "componentType" : 5126,
            "count" : 9216,
            "type" : "VEC2"
        },
        {
            "bufferView" : 3,
            "componentType" : 5123,
            "count" : 13824,
            "type" : "SCALAR"
        }
    ],
    "bufferViews" : [
        {
            "buffer" : 0,
            "byteLength" : 110592,
            "byteOffset" : 0
        },
        {
            "buffer" : 0,
            "byteLength" : 110592,
            "byteOffset" : 110592
        },
        {
            "buffer" : 0,
            "byteLength" : 73728,
            "byteOffset" : 221184
        },
        {
            "buffer" : 0,
            "byteLength" : 27648,
            "byteOffset" : 294912
        },
        {
            "buffer" : 0,
            "byteLength" : 40135,
            "byteOffset" : 322560
        }
    ],
    "samplers" : [
        {
            "magFilter" : 9729,
            "minFilter" : 9987
        }
    ],
    "buffers" : [
        {
            "byteLength" : 362696,
            "uri" : "data:application/octet-stream;base64,"
        }
    ]
}
