# Blender v3.6.2 OBJ File: 'primitives.blend'
# www.blender.org
mtllib Cone.mtl
o Cone
v 0.000000 -1.000000 -1.000000
v 0.195090 -1.000000 -0.980785
v 0.382683 -1.000000 -0.923880
v 0.555570 -1.000000 -0.831470
v 0.707107 -1.000000 -0.707107
v 0.831470 -1.000000 -0.555570
v 0.923880 -1.000000 -0.382683
v 0.980785 -1.000000 -0.195090
v 1.000000 -1.000000 0.000000
v 0.980785 -1.000000 0.195090
v 0.923880 -1.000000 0.382683
v 0.831470 -1.000000 0.555570
v 0.707107 -1.000000 0.707107
v 0.555570 -1.000000 0.831470
v 0.382683 -1.000000 0.923880
v 0.195090 -1.000000 0.980785
v -0.000000 -1.000000 1.000000
v -0.195090 -1.000000 0.980785
v -0.382683 -1.000000 0.923880
v -0.555570 -1.000000 0.831470
v -0.707107 -1.000000 0.707107
v -0.831469 -1.000000 0.555570
v -0.923880 -1.000000 0.382684
v -0.980785 -1.000000 0.195090
v -1.000000 -1.000000 -0.000000
v -0.980785 -1.000000 -0.195090
v -0.923879 -1.000000 -0.382684
v -0.831470 -1.000000 -0.555570
v -0.707107 -1.000000 -0.707107
v -0.555570 -1.000000 -0.831470
v -0.382683 -1.000000 -0.923880
v -0.195090 -1.000000 -0.980785
v 0.000000 1.000000 0.000000
v 0.097545 -1.000000 -0.990393
v 0.000000 0.000000 -0.500000
v 0.097545 0.000000 -0.490393
v 0.288887 -1.000000 -0.952332
v 0.191342 0.000000 -0.461940
v 0.469127 -1.000000 -0.877675
v 0.277785 0.000000 -0.415735
v 0.631338 -1.000000 -0.769288
v 0.353553 0.000000 -0.353553
v 0.769288 -1.000000 -0.631338
v 0.415735 0.000000 -0.277785
v 0.877675 -1.000000 -0.469127
v 0.461940 0.000000 -0.191342
v 0.952332 -1.000000 -0.288887
v 0.490393 0.000000 -0.097545
v 0.990393 -1.000000 -0.097545
v 0.500000 0.000000 0.000000
v 0.990393 -1.000000 0.097545
v 0.490393 0.000000 0.097545
v 0.952332 -1.000000 0.288887
v 0.461940 0.000000 0.191342
v 0.877675 -1.000000 0.469127
v 0.415735 0.000000 0.277785
v 0.769288 -1.000000 0.631338
v 0.353553 0.000000 0.353553
v 0.631338 -1.000000 0.769288
v 0.277785 0.000000 0.415735
v 0.469127 -1.000000 0.877675
v 0.191342 0.000000 0.461940
v 0.288887 -1.000000 0.952332
v 0.097545 0.000000 0.490393
v 0.097545 -1.000000 0.990393
v -0.000000 0.000000 0.500000
v -0.097545 -1.000000 0.990393
v -0.097545 0.000000 0.490393
v -0.288887 -1.000000 0.952332
v -0.191342 0.000000 0.461940
v -0.469127 -1.000000 0.877675
v -0.277785 0.000000 0.415735
v -0.631338 -1.000000 0.769288
v -0.353553 0.000000 0.353553
v -0.769288 -1.000000 0.631339
v -0.415735 0.000000 0.277785
v -0.877674 -1.000000 0.469127
v -0.461940 0.000000 0.191342
v -0.952332 -1.000000 0.288887
v -0.490393 0.000000 0.097545
v -0.990393 -1.000000 0.097545
v -0.500000 0.000000 -0.000000
v -0.990393 -1.000000 -0.097545
v -0.490393 0.000000 -0.097545
v -0.952332 -1.000000 -0.288887
v -0.461940 0.000000 -0.191342
v -0.877675 -1.000000 -0.469127
v -0.415735 0.000000 -0.277785
v -0.769288 -1.000000 -0.631338
v -0.353553 0.000000 -0.353553
v -0.631339 -1.000000 -0.769288
v -0.277785 0.000000 -0.415735
v -0.469127 -1.000000 -0.877675
v -0.191342 0.000000 -0.461940
v -0.288887 -1.000000 -0.952332
v -0.097545 0.000000 -0.490393
v -0.097545 -1.000000 -0.990393
vt 0.250000 0.490000
vt 0.250000 0.370000
vt 0.273411 0.487694
vt 0.296822 0.485388
vt 0.273411 0.367694
vt 0.319333 0.478560
vt 0.341844 0.471731
vt 0.295922 0.360866
vt 0.362590 0.460642
vt 0.383337 0.449553
vt 0.316668 0.349776
vt 0.401521 0.434629
vt 0.419706 0.419706
vt 0.334853 0.334853
vt 0.434629 0.401521
vt 0.449553 0.383337
vt 0.349776 0.316668
vt 0.460642 0.362590
vt 0.471731 0.341844
vt 0.360866 0.295922
vt 0.478560 0.319333
vt 0.485388 0.296822
vt 0.367694 0.273411
vt 0.487694 0.273411
vt 0.490000 0.250000
vt 0.370000 0.250000
vt 0.487694 0.226589
vt 0.485388 0.203178
vt 0.367694 0.226589
vt 0.478560 0.180667
vt 0.471731 0.158156
vt 0.360866 0.204078
vt 0.460642 0.137410
vt 0.449553 0.116663
vt 0.349776 0.183332
vt 0.434629 0.098479
vt 0.419706 0.080294
vt 0.334853 0.165147
vt 0.401521 0.065371
vt 0.383337 0.050447
vt 0.316668 0.150224
vt 0.362590 0.039358
vt 0.341844 0.028269
vt 0.295922 0.139134
vt 0.319333 0.021440
vt 0.296822 0.014612
vt 0.273411 0.132306
vt 0.273411 0.012306
vt 0.250000 0.010000
vt 0.250000 0.130000
vt 0.226589 0.012306
vt 0.203178 0.014612
vt 0.226589 0.132306
vt 0.180667 0.021440
vt 0.158156 0.028269
vt 0.204078 0.139134
vt 0.137410 0.039358
vt 0.116663 0.050447
vt 0.183332 0.150224
vt 0.098479 0.065371
vt 0.080294 0.080294
vt 0.165147 0.165147
vt 0.065371 0.098479
vt 0.050447 0.116663
vt 0.150224 0.183332
vt 0.039358 0.137410
vt 0.028269 0.158156
vt 0.139134 0.204078
vt 0.021440 0.180667
vt 0.014612 0.203178
vt 0.132306 0.226589
vt 0.012306 0.226589
vt 0.010000 0.250000
vt 0.130000 0.250000
vt 0.012306 0.273411
vt 0.014612 0.296822
vt 0.132306 0.273411
vt 0.021440 0.319333
vt 0.028269 0.341844
vt 0.139134 0.295922
vt 0.039358 0.362590
vt 0.050447 0.383337
vt 0.150224 0.316668
vt 0.065371 0.401521
vt 0.080294 0.419706
vt 0.165147 0.334853
vt 0.098479 0.434629
vt 0.116663 0.449553
vt 0.183332 0.349776
vt 0.137410 0.460642
vt 0.773411 0.012306
vt 0.512306 0.226589
vt 0.726589 0.487694
vt 0.158156 0.471731
vt 0.204078 0.360866
vt 0.180667 0.478560
vt 0.203178 0.485388
vt 0.226589 0.367694
vt 0.226589 0.487694
vt 0.250000 0.250000
vt 0.750000 0.490000
vt 0.773411 0.487694
vt 0.796822 0.485388
vt 0.819333 0.478560
vt 0.841844 0.471731
vt 0.862590 0.460642
vt 0.883337 0.449553
vt 0.901521 0.434629
vt 0.919706 0.419706
vt 0.934629 0.401521
vt 0.949553 0.383337
vt 0.960642 0.362590
vt 0.971731 0.341844
vt 0.978560 0.319333
vt 0.985388 0.296822
vt 0.987694 0.273411
vt 0.990000 0.250000
vt 0.987694 0.226589
vt 0.985388 0.203178
vt 0.978560 0.180667
vt 0.971731 0.158156
vt 0.960642 0.137410
vt 0.949553 0.116663
vt 0.934629 0.098479
vt 0.919706 0.080294
vt 0.901521 0.065371
vt 0.883337 0.050447
vt 0.862590 0.039358
vt 0.841844 0.028269
vt 0.819333 0.021440
vt 0.796822 0.014612
vt 0.750000 0.010000
vt 0.726589 0.012306
vt 0.703178 0.014612
vt 0.680667 0.021440
vt 0.658156 0.028269
vt 0.637410 0.039358
vt 0.616663 0.050447
vt 0.598479 0.065371
vt 0.580294 0.080294
vt 0.565371 0.098479
vt 0.550447 0.116663
vt 0.539358 0.137410
vt 0.528269 0.158156
vt 0.521440 0.180667
vt 0.514612 0.203178
vt 0.510000 0.250000
vt 0.512306 0.273411
vt 0.514612 0.296822
vt 0.521440 0.319333
vt 0.528269 0.341844
vt 0.539358 0.362590
vt 0.550447 0.383337
vt 0.565371 0.401521
vt 0.580294 0.419706
vt 0.598479 0.434629
vt 0.616663 0.449553
vt 0.637410 0.460642
vt 0.658156 0.471731
vt 0.680667 0.478560
vt 0.703178 0.485388
vn 0.0000 -0.5033 -0.8641
vn 0.0000 0.4472 -0.8944
vn 0.0834 -0.5265 -0.8461
vn 0.1686 -0.5033 -0.8475
vn 0.1745 0.4472 -0.8772
vn 0.2468 -0.5265 -0.8135
vn 0.3307 -0.5033 -0.7983
vn 0.3423 0.4472 -0.8263
vn 0.4008 -0.5265 -0.7498
vn 0.4801 -0.5033 -0.7185
vn 0.4969 0.4472 -0.7437
vn 0.5394 -0.5265 -0.6571
vn 0.6110 -0.5033 -0.6110
vn 0.6325 0.4472 -0.6325
vn 0.6572 -0.5265 -0.5393
vn 0.7185 -0.5033 -0.4801
vn 0.7437 0.4472 -0.4969
vn 0.7498 -0.5265 -0.4007
vn 0.7983 -0.5033 -0.3307
vn 0.8263 0.4472 -0.3423
vn 0.8136 -0.5265 -0.2467
vn 0.8475 -0.5033 -0.1686
vn 0.8772 0.4472 -0.1745
vn 0.8461 -0.5265 -0.0833
vn 0.8641 -0.5033 0.0000
vn 0.8944 0.4472 0.0000
vn 0.8461 -0.5265 0.0834
vn 0.8475 -0.5033 0.1685
vn 0.8772 0.4472 0.1745
vn 0.8136 -0.5265 0.2467
vn 0.7984 -0.5033 0.3306
vn 0.8263 0.4472 0.3423
vn 0.7498 -0.5265 0.4007
vn 0.7185 -0.5033 0.4800
vn 0.7437 0.4472 0.4969
vn 0.6571 -0.5265 0.5394
vn 0.6110 -0.5033 0.6110
vn 0.6325 0.4472 0.6325
vn 0.5394 -0.5265 0.6571
vn 0.4801 -0.5033 0.7185
vn 0.4969 0.4472 0.7437
vn 0.4008 -0.5265 0.7497
vn 0.3307 -0.5033 0.7983
vn 0.3423 0.4472 0.8263
vn 0.2468 -0.5265 0.8136
vn 0.1685 -0.5033 0.8475
vn 0.1745 0.4472 0.8772
vn 0.0833 -0.5265 0.8461
vn 0.0000 -0.5033 0.8641
vn -0.0000 0.4472 0.8944
vn -0.0834 -0.5265 0.8461
vn -0.1685 -0.5033 0.8475
vn -0.1745 0.4472 0.8772
vn -0.2468 -0.5265 0.8136
vn -0.3306 -0.5033 0.7984
vn -0.3423 0.4472 0.8263
vn -0.4008 -0.5265 0.7497
vn -0.4800 -0.5033 0.7185
vn -0.4969 0.4472 0.7437
vn -0.5392 -0.5265 0.6572
vn -0.6111 -0.5033 0.6110
vn -0.6325 0.4472 0.6325
vn -0.6571 -0.5265 0.5394
vn -0.7185 -0.5033 0.4801
vn -0.7437 0.4472 0.4969
vn -0.7497 -0.5265 0.4008
vn -0.7983 -0.5033 0.3307
vn -0.8263 0.4472 0.3423
vn -0.8136 -0.5265 0.2468
vn -0.8475 -0.5033 0.1686
vn -0.8772 0.4472 0.1745
vn -0.8461 -0.5265 0.0833
vn -0.8641 -0.5033 -0.0000
vn -0.8944 0.4472 -0.0000
vn -0.8461 -0.5265 -0.0834
vn -0.8475 -0.5033 -0.1685
vn -0.8772 0.4472 -0.1745
vn -0.8135 -0.5265 -0.2468
vn -0.7984 -0.5033 -0.3306
vn -0.8263 0.4472 -0.3423
vn -0.7498 -0.5265 -0.4008
vn -0.7185 -0.5033 -0.4800
vn -0.7437 0.4472 -0.4969
vn -0.6571 -0.5265 -0.5394
vn -0.6111 -0.5033 -0.6110
vn -0.6325 0.4472 -0.6325
vn -0.5393 -0.5265 -0.6572
vn -0.4800 -0.5033 -0.7185
vn -0.4969 0.4472 -0.7437
vn -0.4007 -0.5265 -0.7498
vn 0.0834 -0.5266 0.8460
vn -0.8460 -0.5266 0.0834
vn -0.0834 -0.5266 -0.8460
vn -0.3307 -0.5033 -0.7983
vn -0.3423 0.4472 -0.8263
vn -0.2468 -0.5265 -0.8136
vn -0.1685 -0.5033 -0.8475
vn -0.1745 0.4472 -0.8772
vn -0.0833 -0.5265 -0.8461
vn 0.0000 1.0000 0.0000
vn 0.0833 -0.5266 -0.8460
vn 0.1685 -0.5033 -0.8475
vn 0.2467 -0.5266 -0.8135
vn 0.3306 -0.5033 -0.7983
vn 0.4008 -0.5264 -0.7498
vn 0.4800 -0.5033 -0.7185
vn 0.5394 -0.5266 -0.6571
vn 0.6572 -0.5266 -0.5393
vn 0.7185 -0.5033 -0.4800
vn 0.7497 -0.5266 -0.4008
vn 0.7984 -0.5033 -0.3306
vn 0.8135 -0.5266 -0.2468
vn 0.8460 -0.5266 -0.0834
vn 0.8460 -0.5266 0.0833
vn 0.8135 -0.5266 0.2468
vn 0.7983 -0.5033 0.3306
vn 0.7498 -0.5264 0.4008
vn 0.6571 -0.5266 0.5394
vn 0.5393 -0.5266 0.6572
vn 0.4008 -0.5266 0.7497
vn 0.2468 -0.5264 0.8136
vn -0.0833 -0.5266 0.8460
vn -0.2468 -0.5264 0.8136
vn -0.3306 -0.5033 0.7983
vn -0.4007 -0.5266 0.7498
vn -0.4801 -0.5033 0.7185
vn -0.5394 -0.5266 0.6571
vn -0.6110 -0.5033 0.6110
vn -0.6572 -0.5266 0.5393
vn -0.7498 -0.5266 0.4007
vn -0.8460 -0.5266 -0.0833
vn -0.8135 -0.5266 -0.2467
vn -0.7983 -0.5033 -0.3307
vn -0.6571 -0.5266 -0.5394
vn -0.6110 -0.5033 -0.6110
vn -0.5394 -0.5266 -0.6571
vn -0.4801 -0.5033 -0.7185
vn -0.4008 -0.5266 -0.7497
usemtl RandomMaterial.001
s 1
f 1/1/1 35/2/2 34/3/3
f 2/4/4 36/5/5 37/6/6
f 3/7/7 38/8/8 39/9/9
f 4/10/10 40/11/11 41/12/12
f 5/13/13 42/14/14 43/15/15
f 6/16/16 44/17/17 45/18/18
f 7/19/19 46/20/20 47/21/21
f 8/22/22 48/23/23 49/24/24
f 9/25/25 50/26/26 51/27/27
f 10/28/28 52/29/29 53/30/30
f 11/31/31 54/32/32 55/33/33
f 12/34/34 56/35/35 57/36/36
f 13/37/37 58/38/38 59/39/39
f 14/40/40 60/41/41 61/42/42
f 15/43/43 62/44/44 63/45/45
f 16/46/46 64/47/47 65/48/48
f 17/49/49 66/50/50 67/51/51
f 18/52/52 68/53/53 69/54/54
f 19/55/55 70/56/56 71/57/57
f 20/58/58 72/59/59 73/60/60
f 21/61/61 74/62/62 75/63/63
f 22/64/64 76/65/65 77/66/66
f 23/67/67 78/68/68 79/69/69
f 24/70/70 80/71/71 81/72/72
f 25/73/73 82/74/74 83/75/75
f 26/76/76 84/77/77 85/78/78
f 27/79/79 86/80/80 87/81/81
f 28/82/82 88/83/83 89/84/84
f 29/85/85 90/86/86 91/87/87
f 30/88/88 92/89/89 93/90/90
f 65/91/91 81/92/92 97/93/93
f 31/94/94 94/95/95 95/96/96
f 32/97/97 96/98/98 97/99/99
f 97/99/99 35/2/2 1/1/1
f 97/99/99 96/98/98 35/2/2
f 96/98/98 33/100/100 35/2/2
f 95/96/96 96/98/98 32/97/97
f 95/96/96 94/95/95 96/98/98
f 94/95/95 33/100/100 96/98/98
f 93/90/90 94/95/95 31/94/94
f 93/90/90 92/89/89 94/95/95
f 92/89/89 33/100/100 94/95/95
f 91/87/87 92/89/89 30/88/88
f 91/87/87 90/86/86 92/89/89
f 90/86/86 33/100/100 92/89/89
f 89/84/84 90/86/86 29/85/85
f 89/84/84 88/83/83 90/86/86
f 88/83/83 33/100/100 90/86/86
f 87/81/81 88/83/83 28/82/82
f 87/81/81 86/80/80 88/83/83
f 86/80/80 33/100/100 88/83/83
f 85/78/78 86/80/80 27/79/79
f 85/78/78 84/77/77 86/80/80
f 84/77/77 33/100/100 86/80/80
f 83/75/75 84/77/77 26/76/76
f 83/75/75 82/74/74 84/77/77
f 82/74/74 33/100/100 84/77/77
f 81/72/72 82/74/74 25/73/73
f 81/72/72 80/71/71 82/74/74
f 80/71/71 33/100/100 82/74/74
f 79/69/69 80/71/71 24/70/70
f 79/69/69 78/68/68 80/71/71
f 78/68/68 33/100/100 80/71/71
f 77/66/66 78/68/68 23/67/67
f 77/66/66 76/65/65 78/68/68
f 76/65/65 33/100/100 78/68/68
f 75/63/63 76/65/65 22/64/64
f 75/63/63 74/62/62 76/65/65
f 74/62/62 33/100/100 76/65/65
f 73/60/60 74/62/62 21/61/61
f 73/60/60 72/59/59 74/62/62
f 72/59/59 33/100/100 74/62/62
f 71/57/57 72/59/59 20/58/58
f 71/57/57 70/56/56 72/59/59
f 70/56/56 33/100/100 72/59/59
f 69/54/54 70/56/56 19/55/55
f 69/54/54 68/53/53 70/56/56
f 68/53/53 33/100/100 70/56/56
f 67/51/51 68/53/53 18/52/52
f 67/51/51 66/50/50 68/53/53
f 66/50/50 33/100/100 68/53/53
f 65/48/48 66/50/50 17/49/49
f 65/48/48 64/47/47 66/50/50
f 64/47/47 33/100/100 66/50/50
f 63/45/45 64/47/47 16/46/46
f 63/45/45 62/44/44 64/47/47
f 62/44/44 33/100/100 64/47/47
f 61/42/42 62/44/44 15/43/43
f 61/42/42 60/41/41 62/44/44
f 60/41/41 33/100/100 62/44/44
f 59/39/39 60/41/41 14/40/40
f 59/39/39 58/38/38 60/41/41
f 58/38/38 33/100/100 60/41/41
f 57/36/36 58/38/38 13/37/37
f 57/36/36 56/35/35 58/38/38
f 56/35/35 33/100/100 58/38/38
f 55/33/33 56/35/35 12/34/34
f 55/33/33 54/32/32 56/35/35
f 54/32/32 33/100/100 56/35/35
f 53/30/30 54/32/32 11/31/31
f 53/30/30 52/29/29 54/32/32
f 52/29/29 33/100/100 54/32/32
f 51/27/27 52/29/29 10/28/28
f 51/27/27 50/26/26 52/29/29
f 50/26/26 33/100/100 52/29/29
f 49/24/24 50/26/26 9/25/25
f 49/24/24 48/23/23 50/26/26
f 48/23/23 33/100/100 50/26/26
f 47/21/21 48/23/23 8/22/22
f 47/21/21 46/20/20 48/23/23
f 46/20/20 33/100/100 48/23/23
f 45/18/18 46/20/20 7/19/19
f 45/18/18 44/17/17 46/20/20
f 44/17/17 33/100/100 46/20/20
f 43/15/15 44/17/17 6/16/16
f 43/15/15 42/14/14 44/17/17
f 42/14/14 33/100/100 44/17/17
f 41/12/12 42/14/14 5/13/13
f 41/12/12 40/11/11 42/14/14
f 40/11/11 33/100/100 42/14/14
f 39/9/9 40/11/11 4/10/10
f 39/9/9 38/8/8 40/11/11
f 38/8/8 33/100/100 40/11/11
f 37/6/6 38/8/8 3/7/7
f 37/6/6 36/5/5 38/8/8
f 36/5/5 33/100/100 38/8/8
f 34/3/3 36/5/5 2/4/4
f 34/3/3 35/2/2 36/5/5
f 35/2/2 33/100/100 36/5/5
f 97/93/93 1/101/1 34/102/101
f 34/102/101 2/103/102 37/104/103
f 37/104/103 3/105/104 39/106/105
f 39/106/105 4/107/106 41/108/107
f 41/108/107 5/109/13 43/110/108
f 43/110/108 6/111/109 45/112/110
f 45/112/110 7/113/111 47/114/112
f 47/114/112 8/115/22 49/116/113
f 49/116/113 9/117/25 51/118/114
f 51/118/114 10/119/28 53/120/115
f 53/120/115 11/121/116 55/122/117
f 55/122/117 12/123/34 57/124/118
f 57/124/118 13/125/37 59/126/119
f 59/126/119 14/127/40 61/128/120
f 61/128/120 15/129/43 63/130/121
f 63/130/121 16/131/46 65/91/91
f 65/91/91 17/132/49 67/133/122
f 67/133/122 18/134/52 69/135/123
f 69/135/123 19/136/124 71/137/125
f 71/137/125 20/138/126 73/139/127
f 73/139/127 21/140/128 75/141/129
f 75/141/129 22/142/64 77/143/130
f 77/143/130 23/144/67 79/145/69
f 79/145/69 24/146/70 81/92/92
f 81/92/92 25/147/73 83/148/131
f 83/148/131 26/149/76 85/150/132
f 85/150/132 27/151/133 87/152/81
f 87/152/81 28/153/82 89/154/134
f 89/154/134 29/155/135 91/156/136
f 91/156/136 30/157/137 93/158/138
f 93/158/138 31/159/94 95/160/96
f 95/160/96 32/161/97 97/93/93
f 97/93/93 34/102/101 41/108/107
f 34/102/101 37/104/103 41/108/107
f 37/104/103 39/106/105 41/108/107
f 41/108/107 43/110/108 45/112/110
f 45/112/110 47/114/112 49/116/113
f 49/116/113 51/118/114 53/120/115
f 53/120/115 55/122/117 57/124/118
f 57/124/118 59/126/119 61/128/120
f 61/128/120 63/130/121 57/124/118
f 63/130/121 65/91/91 57/124/118
f 65/91/91 67/133/122 69/135/123
f 69/135/123 71/137/125 73/139/127
f 73/139/127 75/141/129 81/92/92
f 75/141/129 77/143/130 81/92/92
f 77/143/130 79/145/69 81/92/92
f 81/92/92 83/148/131 89/154/134
f 83/148/131 85/150/132 89/154/134
f 85/150/132 87/152/81 89/154/134
f 89/154/134 91/156/136 93/158/138
f 93/158/138 95/160/96 89/154/134
f 95/160/96 97/93/93 89/154/134
f 41/108/107 45/112/110 97/93/93
f 45/112/110 49/116/113 97/93/93
f 49/116/113 53/120/115 57/124/118
f 65/91/91 69/135/123 81/92/92
f 69/135/123 73/139/127 81/92/92
f 49/116/113 57/124/118 65/91/91
f 81/92/92 89/154/134 97/93/93
f 97/93/93 49/116/113 65/91/91
