# Blender v3.6.2 OBJ File: 'primitives.blend'
# www.blender.org
mtllib Sponge.mtl
o Sponge
v -1.000000 -1.000000 1.000000
v -0.333333 -1.000000 1.000000
v -0.333333 -0.333333 1.000000
v -1.000000 -0.333333 1.000000
v -1.000000 -1.000000 0.333333
v -0.333333 -1.000000 0.333333
v -0.333333 -0.333333 0.333333
v -1.000000 -0.333333 0.333333
v -0.333333 0.333333 1.000000
v -1.000000 0.333333 1.000000
v -0.333333 0.333333 0.333333
v -1.000000 0.333333 0.333333
v -0.333333 1.000000 1.000000
v -1.000000 1.000000 1.000000
v -0.333333 1.000000 0.333333
v -1.000000 1.000000 0.333333
v -1.000000 -1.000000 -0.333333
v -0.333333 -1.000000 -0.333333
v -0.333333 -0.333333 -0.333333
v -1.000000 -0.333333 -0.333333
v -1.000000 0.333333 -0.333333
v -0.333333 0.333333 -0.333333
v -0.333333 1.000000 -0.333333
v -1.000000 1.000000 -0.333333
v -1.000000 -1.000000 -1.000000
v -0.333333 -1.000000 -1.000000
v -0.333333 -0.333333 -1.000000
v -1.000000 -0.333333 -1.000000
v -0.333333 0.333333 -1.000000
v -1.000000 0.333333 -1.000000
v -0.333333 1.000000 -1.000000
v -1.000000 1.000000 -1.000000
v 0.333333 -1.000000 1.000000
v 0.333333 -0.333333 1.000000
v 0.333333 -1.000000 0.333333
v 0.333333 -0.333333 0.333333
v 0.333333 0.333333 1.000000
v 0.333333 1.000000 1.000000
v 0.333333 0.333333 0.333333
v 0.333333 1.000000 0.333333
v 0.333333 -1.000000 -0.333333
v 0.333333 -0.333333 -0.333333
v 0.333333 -1.000000 -1.000000
v 0.333333 -0.333333 -1.000000
v 0.333333 0.333333 -0.333333
v 0.333333 1.000000 -0.333333
v 0.333333 0.333333 -1.000000
v 0.333333 1.000000 -1.000000
v 1.000000 -1.000000 1.000000
v 1.000000 -0.333333 1.000000
v 1.000000 -1.000000 0.333333
v 1.000000 -0.333333 0.333333
v 1.000000 0.333333 1.000000
v 1.000000 0.333333 0.333333
v 1.000000 1.000000 1.000000
v 1.000000 1.000000 0.333333
v 1.000000 -1.000000 -0.333333
v 1.000000 -0.333333 -0.333333
v 1.000000 0.333333 -0.333333
v 1.000000 1.000000 -0.333333
v 1.000000 -1.000000 -1.000000
v 1.000000 -0.333333 -1.000000
v 1.000000 0.333333 -1.000000
v 1.000000 1.000000 -1.000000
vt 0.222222 0.111111
vt 0.333333 0.000000
vt 0.333333 0.111111
vt 0.111111 0.444444
vt 0.000000 0.333333
vt 0.111111 0.333333
vt 0.444444 0.222222
vt 0.333333 0.333333
vt 0.333333 0.222222
vt 0.222222 0.222222
vt 0.333333 0.222222
vt 0.777778 0.666667
vt 0.666667 0.555556
vt 0.777778 0.555556
vt 0.111111 0.555556
vt 0.000000 0.444444
vt 0.666667 0.555556
vt 0.777778 0.444444
vt 0.777778 0.555556
vt 0.222222 0.333333
vt 0.333333 0.333333
vt 0.111111 0.666667
vt 0.000000 0.555556
vt 0.888889 0.222222
vt 1.000000 0.333333
vt 0.888889 0.333333
vt 0.111111 0.111111
vt 0.222222 0.000000
vt 0.666667 1.000000
vt 0.777778 0.888889
vt 0.777778 1.000000
vt 0.444444 0.111111
vt 0.333333 0.111111
vt 0.333333 0.666667
vt 0.444444 0.777778
vt 0.333333 0.777778
vt 0.111111 0.333333
vt 0.555556 1.000000
vt 0.666667 0.888889
vt 0.666667 1.000000
vt 0.888889 0.555556
vt 0.777778 0.666667
vt 0.777778 0.555556
vt 0.888889 0.111111
vt 1.000000 0.222222
vt 0.000000 0.111111
vt 0.111111 0.000000
vt 0.555556 0.444444
vt 0.666667 0.333333
vt 0.666667 0.444444
vt 0.444444 0.000000
vt 0.333333 0.000000
vt 0.000000 0.222222
vt 0.111111 0.222222
vt 0.666667 0.777778
vt 0.555556 0.666667
vt 0.666667 0.666667
vt 0.777778 0.777778
vt 0.666667 0.666667
vt 0.777778 0.666667
vt 0.555556 0.555556
vt 0.666667 0.555556
vt 0.000000 0.333333
vt 0.555556 0.666667
vt 0.666667 0.666667
vt 0.888889 0.000000
vt 1.000000 0.111111
vt 0.222222 0.444444
vt 0.222222 0.333333
vt 0.444444 0.888889
vt 0.555555 1.000000
vt 0.444444 1.000000
vt 0.555556 0.222222
vt 0.444444 0.333333
vt 0.333333 1.000000
vt 0.333333 0.888889
vt 0.222222 0.666667
vt 0.222222 0.555556
vt 0.888889 0.666667
vt 1.000000 0.777778
vt 0.888889 0.777778
vt 1.000000 0.444444
vt 0.888889 0.333333
vt 1.000000 0.333333
vt 0.777778 0.222222
vt 0.777778 0.333333
vt 0.777778 0.888889
vt 0.888889 0.777778
vt 0.888889 0.888889
vt 0.444444 0.444444
vt 0.555556 0.333333
vt 0.555556 0.000000
vt 0.666667 0.777778
vt 0.555556 0.888889
vt 0.555556 0.777778
vt 0.666667 0.888889
vt 0.777778 0.888889
vt 0.444444 0.666667
vt 0.888889 0.777778
vt 0.777778 0.666667
vt 0.888889 0.666667
vt 0.777778 0.000000
vt 0.777778 0.111111
vt 0.111111 0.777778
vt 0.000000 0.666667
vt 0.111111 0.666667
vt 0.333333 0.444444
vt 0.333333 0.333333
vt 0.666667 0.222222
vt 0.555556 0.333333
vt 0.444444 0.888889
vt 0.555556 0.777778
vt 0.555556 0.888889
vt 0.111111 0.888889
vt 0.000000 0.777778
vt 0.333333 0.555556
vt 0.333333 0.888889
vt 0.444444 0.777778
vt 0.111111 1.000000
vt 0.000000 0.888889
vt 0.333333 0.666667
vt 0.666667 0.222222
vt 0.666667 0.333333
vt 0.888889 0.444444
vt 1.000000 0.555556
vt 0.888889 0.555556
vt 0.222222 0.777778
vt 0.222222 0.666667
vt 0.666667 0.111111
vt 0.555556 0.111111
vt 0.777778 0.333333
vt 0.888889 0.444444
vt 0.777778 0.444444
vt 0.888889 0.555555
vt 1.000000 0.666667
vt 0.222222 1.000000
vt 0.222222 0.888889
vt 0.555556 0.666667
vt 0.444444 0.777778
vt 0.444444 0.666667
vt 0.666667 0.111111
vt 0.333333 0.777778
vt 0.333333 0.666667
vt 0.333333 0.444444
vt 0.444444 0.333333
vt 0.666667 0.000000
vt 0.666667 0.444444
vt 0.777778 0.333333
vt 0.777778 0.444444
vt 0.333333 0.888889
vt 0.888889 0.555556
vt 0.777778 0.444444
vt 0.888889 0.444444
vt 0.333333 0.555556
vt 0.444444 0.555556
vt 0.333333 1.000000
vt 0.333333 0.666667
vt 0.666667 0.000000
vt 0.666667 0.666667
vt 0.666667 0.444444
vt 0.000000 0.666667
vt 0.666667 0.888889
vt 0.444444 0.666667
vt 0.555556 0.888889
vt 0.888889 0.666667
vt 0.000000 0.000000
vt 0.555556 0.777778
vt 0.666667 0.777778
vt 1.000000 0.000000
vt 0.555555 0.888889
vt 0.888889 0.444444
vt 0.777778 0.777778
vt 0.666667 0.888889
vt 0.666667 0.777778
vt 0.777778 0.777778
vt 0.666667 0.333333
vt 0.333333 0.777778
vt 0.000000 1.000000
vt 1.000000 0.444444
vt 0.888889 0.333333
vt 1.000000 0.555555
vt 0.555556 0.777778
vt 0.333333 0.333333
vt 0.666667 0.333333
vt 0.777778 0.555556
vn -1.0000 0.0000 0.0000
vn 0.0000 0.0000 1.0000
vn 0.0000 -1.0000 0.0000
vn 1.0000 0.0000 0.0000
vn 0.0000 0.0000 -1.0000
vn 0.0000 1.0000 0.0000
usemtl RandomMaterial.011
s off
f 8/1/1 1/2/1 4/3/1
f 3/4/2 1/5/2 2/6/2
f 6/7/3 1/8/3 5/9/3
f 12/10/1 4/3/1 10/11/1
f 11/12/4 3/13/4 7/14/4
f 9/15/2 4/16/2 3/4/2
f 11/17/5 8/18/5 12/19/5
f 16/20/1 10/11/1 14/21/1
f 13/22/2 10/23/2 9/15/2
f 15/24/6 14/25/6 13/26/6
f 20/27/1 5/28/1 8/1/1
f 19/29/4 6/30/4 18/31/4
f 18/32/3 5/9/3 17/33/3
f 19/34/6 8/35/6 7/36/6
f 24/37/1 12/10/1 16/20/1
f 23/38/4 11/39/4 22/40/4
f 22/41/3 12/42/3 21/43/3
f 23/44/6 16/45/6 15/24/6
f 28/46/1 17/47/1 20/27/1
f 27/48/5 25/49/5 28/50/5
f 26/51/3 17/33/3 25/52/3
f 30/53/1 20/27/1 21/54/1
f 29/55/4 19/56/4 27/57/4
f 22/58/2 20/59/2 19/60/2
f 29/61/5 28/50/5 30/62/5
f 32/63/1 21/54/1 24/37/1
f 31/64/5 30/62/5 32/65/5
f 31/66/6 24/67/6 23/44/6
f 34/68/2 2/6/2 33/69/2
f 36/70/5 6/71/5 7/72/5
f 35/73/3 2/74/3 6/7/3
f 36/70/6 3/75/6 34/76/6
f 38/77/2 9/15/2 37/78/2
f 40/79/5 11/80/5 15/81/5
f 39/82/3 9/83/3 11/84/3
f 40/85/6 13/26/6 38/86/6
f 42/87/2 18/88/2 41/89/2
f 44/90/5 26/91/5 27/48/5
f 43/92/3 18/32/3 26/51/3
f 44/93/6 19/94/6 42/95/6
f 46/96/2 22/58/2 45/97/2
f 48/98/5 29/61/5 31/64/5
f 47/99/3 22/100/3 29/101/3
f 48/102/6 23/44/6 46/103/6
f 52/104/4 49/105/4 51/106/4
f 50/107/2 33/69/2 49/108/2
f 51/109/3 33/110/3 35/73/3
f 39/111/1 34/112/1 37/113/1
f 54/114/4 50/115/4 52/104/4
f 53/116/2 34/68/2 50/107/2
f 54/117/5 36/118/5 39/111/5
f 56/119/4 53/120/4 54/114/4
f 55/121/2 37/78/2 53/116/2
f 56/122/6 38/86/6 55/123/6
f 42/124/1 35/125/1 36/126/1
f 58/127/4 51/106/4 57/128/4
f 57/129/3 35/73/3 41/130/3
f 58/131/6 36/132/6 52/133/6
f 46/134/1 39/135/1 40/79/1
f 60/136/4 54/114/4 59/137/4
f 59/138/3 39/139/3 45/140/3
f 60/141/6 40/85/6 56/122/6
f 62/142/4 57/128/4 61/143/4
f 62/144/5 43/145/5 44/90/5
f 61/146/3 41/130/3 43/92/3
f 47/147/1 42/148/1 45/149/1
f 63/150/4 58/127/4 62/142/4
f 59/151/2 42/152/2 58/153/2
f 63/154/5 44/90/5 47/155/5
f 64/156/4 59/137/4 63/150/4
f 64/157/5 47/155/5 48/98/5
f 64/158/6 46/103/6 60/141/6
f 8/1/1 5/28/1 1/2/1
f 3/4/2 4/16/2 1/5/2
f 6/7/3 2/74/3 1/8/3
f 12/10/1 8/1/1 4/3/1
f 11/12/4 9/159/4 3/13/4
f 9/15/2 10/23/2 4/16/2
f 11/17/5 7/160/5 8/18/5
f 16/20/1 12/10/1 10/11/1
f 13/22/2 14/161/2 10/23/2
f 15/24/6 16/45/6 14/25/6
f 20/27/1 17/47/1 5/28/1
f 19/29/4 7/162/4 6/30/4
f 18/32/3 6/7/3 5/9/3
f 19/34/6 20/163/6 8/35/6
f 24/37/1 21/54/1 12/10/1
f 23/38/4 15/164/4 11/39/4
f 22/41/3 11/165/3 12/42/3
f 23/44/6 24/67/6 16/45/6
f 28/46/1 25/166/1 17/47/1
f 27/48/5 26/91/5 25/49/5
f 26/51/3 18/32/3 17/33/3
f 30/53/1 28/46/1 20/27/1
f 29/55/4 22/167/4 19/56/4
f 22/58/2 21/168/2 20/59/2
f 29/61/5 27/48/5 28/50/5
f 32/63/1 30/53/1 21/54/1
f 31/64/5 29/61/5 30/62/5
f 31/66/6 32/169/6 24/67/6
f 34/68/2 3/4/2 2/6/2
f 36/70/5 35/170/5 6/71/5
f 35/73/3 33/110/3 2/74/3
f 36/70/6 7/72/6 3/75/6
f 38/77/2 13/22/2 9/15/2
f 40/79/5 39/135/5 11/80/5
f 39/82/3 37/171/3 9/83/3
f 40/85/6 15/24/6 13/26/6
f 42/87/2 19/172/2 18/88/2
f 44/90/5 43/145/5 26/91/5
f 43/92/3 41/130/3 18/32/3
f 44/93/6 27/173/6 19/94/6
f 46/96/2 23/174/2 22/58/2
f 48/98/5 47/155/5 29/61/5
f 47/99/3 45/175/3 22/100/3
f 48/102/6 31/66/6 23/44/6
f 52/104/4 50/115/4 49/105/4
f 50/107/2 34/68/2 33/69/2
f 51/109/3 49/176/3 33/110/3
f 39/111/1 36/118/1 34/112/1
f 54/114/4 53/120/4 50/115/4
f 53/116/2 37/78/2 34/68/2
f 54/117/5 52/177/5 36/118/5
f 56/119/4 55/178/4 53/120/4
f 55/121/2 38/77/2 37/78/2
f 56/122/6 40/85/6 38/86/6
f 42/124/1 41/179/1 35/125/1
f 58/127/4 52/104/4 51/106/4
f 57/129/3 51/109/3 35/73/3
f 58/131/6 42/180/6 36/132/6
f 46/134/1 45/181/1 39/135/1
f 60/136/4 56/119/4 54/114/4
f 59/138/3 54/182/3 39/139/3
f 60/141/6 46/103/6 40/85/6
f 62/142/4 58/127/4 57/128/4
f 62/144/5 61/183/5 43/145/5
f 61/146/3 57/129/3 41/130/3
f 47/147/1 44/184/1 42/148/1
f 63/150/4 59/137/4 58/127/4
f 59/151/2 45/185/2 42/152/2
f 63/154/5 62/144/5 44/90/5
f 64/156/4 60/136/4 59/137/4
f 64/157/5 63/154/5 47/155/5
f 64/158/6 48/102/6 46/103/6
