# Blender v3.6.2 OBJ File: 'primitives.blend'
# www.blender.org
mtllib Cube.mtl
o Cube
v 1.000000 1.000000 -1.000000
v 1.000000 -1.000000 -1.000000
v 1.000000 1.000000 1.000000
v 1.000000 -1.000000 1.000000
v -1.000000 1.000000 -1.000000
v -1.000000 -1.000000 -1.000000
v -1.000000 1.000000 1.000000
v -1.000000 -1.000000 1.000000
v -1.000000 -1.000000 0.000000
v 0.000000 -1.000000 -1.000000
v 1.000000 0.000000 -1.000000
v -1.000000 0.000000 1.000000
v 1.000000 0.000000 1.000000
v -1.000000 0.000000 -1.000000
v 0.000000 1.000000 1.000000
v 1.000000 1.000000 0.000000
v 0.000000 -1.000000 1.000000
v -1.000000 1.000000 0.000000
v 0.000000 1.000000 -1.000000
v 1.000000 -1.000000 0.000000
v 0.000000 0.000000 -1.000000
v 1.000000 0.000000 0.000000
v 0.000000 -1.000000 0.000000
v -1.000000 0.000000 0.000000
v 0.000000 0.000000 1.000000
v 0.000000 1.000000 0.000000
vt 1.000000 0.166667
vt 0.833333 0.333333
vt 0.833333 0.166667
vt 0.166667 0.333333
vt 0.000000 0.166667
vt 0.166667 0.166667
vt 0.166667 0.666667
vt 0.000000 0.500000
vt 0.166667 0.500000
vt 0.666667 0.166667
vt 0.500000 0.333333
vt 0.500000 0.166667
vt 0.500000 0.666667
vt 0.333333 0.500000
vt 0.500000 0.500000
vt 0.166667 1.000000
vt 0.000000 0.833333
vt 0.166667 0.833333
vt 0.000000 0.666667
vt 0.166667 0.666667
vt 0.333333 0.833333
vt 0.333333 0.666667
vt 0.333333 1.000000
vt 0.333333 0.333333
vt 0.500000 0.333333
vt 0.666667 0.500000
vt 0.666667 0.333333
vt 0.666667 0.666667
vt 0.333333 0.333333
vt 0.333333 0.166667
vt 0.500000 0.000000
vt 0.333333 0.000000
vt 0.666667 0.000000
vt 0.000000 0.333333
vt 0.166667 0.333333
vt 0.333333 0.500000
vt 0.333333 0.666667
vt 0.000000 0.000000
vt 0.166667 0.000000
vt 0.333333 0.166667
vt 0.333333 0.000000
vt 0.333333 0.333333
vt 0.666667 0.333333
vt 0.666667 0.166667
vt 0.833333 0.000000
vt 0.666667 0.000000
vt 1.000000 0.000000
vt 1.000000 0.333333
vt 0.000000 0.333333
vt 0.000000 0.666667
vt 0.666667 0.333333
vt 0.333333 0.666667
vt 0.000000 1.000000
vn -0.7071 0.7071 -0.0000
vn -0.0000 0.7071 0.7071
vn 0.0000 1.0000 0.0000
vn -0.7071 0.0000 0.7071
vn 0.0000 0.0000 1.0000
vn -0.7071 0.0000 -0.7071
vn -1.0000 0.0000 0.0000
vn 0.7071 -0.7071 -0.0000
vn 0.0000 -0.7071 0.7071
vn 0.0000 -1.0000 0.0000
vn 0.7071 0.7071 -0.0000
vn 0.7071 0.0000 0.7071
vn 1.0000 0.0000 0.0000
vn -0.0000 0.7071 -0.7071
vn 0.7071 0.0000 -0.7071
vn 0.0000 0.0000 -1.0000
vn 0.5773 -0.5774 -0.5774
vn 0.0000 -0.7071 -0.7071
vn -0.5774 -0.5773 -0.5774
vn -0.5773 0.5774 -0.5774
vn 0.5774 -0.5774 0.5773
vn 0.5774 -0.5773 -0.5774
vn 0.5774 0.5774 -0.5773
vn -0.5774 -0.5774 0.5773
vn -0.7071 -0.7071 0.0000
vn -0.5773 -0.5774 -0.5774
vn 0.5774 -0.5774 -0.5773
vn -0.5774 -0.5774 -0.5773
vn -0.5774 -0.5773 0.5774
vn -0.5774 0.5774 0.5773
vn -0.5773 -0.5774 0.5774
vn 0.5774 -0.5773 0.5774
vn 0.5773 0.5774 0.5774
vn 0.5774 0.5774 0.5773
vn 0.5773 0.5774 -0.5774
vn -0.5774 0.5774 -0.5773
vn -0.5773 0.5774 0.5774
vn -0.5774 0.5773 0.5774
vn -0.5774 0.5773 -0.5774
vn 0.5773 -0.5774 0.5774
vn 0.5774 0.5773 0.5774
vn 0.5774 0.5773 -0.5774
usemtl RandomMaterial.002
s 1
f 18/1/1 15/2/2 26/3/3
f 15/4/2 12/5/4 25/6/5
f 18/7/1 14/8/6 24/9/7
f 20/10/8 17/11/9 23/12/10
f 16/13/11 13/14/12 22/15/13
f 19/16/14 11/17/15 21/18/16
f 21/18/16 2/19/17 10/20/18
f 14/21/6 10/20/18 6/22/19
f 5/23/20 21/18/16 14/21/6
f 22/15/13 4/24/21 20/25/8
f 11/26/15 20/25/8 2/27/22
f 1/28/23 22/15/13 11/26/15
f 23/12/10 8/29/24 9/30/25
f 10/31/18 9/30/25 6/32/26
f 2/33/27 23/12/10 10/31/18
f 24/9/7 6/34/28 9/35/25
f 12/36/4 9/35/25 8/29/29
f 7/37/30 24/9/7 12/36/4
f 25/6/5 8/38/31 17/39/9
f 13/40/12 17/39/9 4/41/32
f 3/42/33 25/6/5 13/40/12
f 26/3/3 3/43/34 16/44/11
f 19/45/14 16/44/11 1/46/35
f 5/47/36 26/3/3 19/45/14
f 18/1/1 7/48/37 15/2/2
f 15/4/2 7/49/38 12/5/4
f 18/7/1 5/50/39 14/8/6
f 20/10/8 4/51/40 17/11/9
f 16/13/11 3/52/41 13/14/12
f 19/16/14 1/53/42 11/17/15
f 21/18/16 11/17/15 2/19/17
f 14/21/6 21/18/16 10/20/18
f 5/23/20 19/16/14 21/18/16
f 22/15/13 13/14/12 4/24/21
f 11/26/15 22/15/13 20/25/8
f 1/28/23 16/13/11 22/15/13
f 23/12/10 17/11/9 8/29/24
f 10/31/18 23/12/10 9/30/25
f 2/33/27 20/10/8 23/12/10
f 24/9/7 14/8/6 6/34/28
f 12/36/4 24/9/7 9/35/25
f 7/37/30 18/7/1 24/9/7
f 25/6/5 12/5/4 8/38/31
f 13/40/12 25/6/5 17/39/9
f 3/42/33 15/4/2 25/6/5
f 26/3/3 15/2/2 3/43/34
f 19/45/14 26/3/3 16/44/11
f 5/47/36 18/1/1 26/3/3
