<svg xmlns="http://www.w3.org/2000/svg" shape-rendering="crispEdges" width="21" height="21" viewBox="0 0 21 21">
  <rect x="0" y="0" width="21" height="1" fill="rgb(255,255,255)" fill-opacity="0.0078125"/>
  <rect x="0" y="1" width="21" height="1" fill="rgb(255,255,255)" fill-opacity="0.0078125"/>
  <rect x="0" y="2" width="21" height="1" fill="rgb(255,255,255)" fill-opacity="0.0078125"/>
  <rect x="0" y="3" width="9" height="1" fill="rgb(255,255,255)" fill-opacity="0.0078125"/>
  <rect x="9" y="3" width="1" height="1" fill="rgb(26,26,26)" fill-opacity="0.359375"/>
  <rect x="10" y="3" width="2" height="1" fill="rgb(25,25,25)" fill-opacity="0.40625"/>
  <rect x="12" y="3" width="1" height="1" fill="rgb(26,26,26)" fill-opacity="0.359375"/>
  <rect x="13" y="3" width="8" height="1" fill="rgb(255,255,255)" fill-opacity="0.0078125"/>
  <rect x="0" y="4" width="9" height="1" fill="rgb(255,255,255)" fill-opacity="0.0078125"/>
  <rect x="9" y="4" width="1" height="1" fill="rgb(25,25,25)" fill-opacity="0.40625"/>
  <rect x="10" y="4" width="2" height="1" fill="rgb(255,255,255)" fill-opacity="0.40625"/>
  <rect x="12" y="4" width="1" height="1" fill="rgb(25,25,25)" fill-opacity="0.40625"/>
  <rect x="13" y="4" width="8" height="1" fill="rgb(255,255,255)" fill-opacity="0.0078125"/>
  <rect x="0" y="5" width="9" height="1" fill="rgb(255,255,255)" fill-opacity="0.0078125"/>
  <rect x="9" y="5" width="1" height="1" fill="rgb(25,25,25)" fill-opacity="0.40625"/>
  <rect x="10" y="5" width="2" height="1" fill="rgb(255,255,255)" fill-opacity="0.40625"/>
  <rect x="12" y="5" width="1" height="1" fill="rgb(25,25,25)" fill-opacity="0.40625"/>
  <rect x="13" y="5" width="2" height="1" fill="rgb(255,255,255)" fill-opacity="0.0078125"/>
  <rect x="15" y="5" width="1" height="1" fill="rgb(26,26,26)" fill-opacity="0.359375"/>
  <rect x="16" y="5" width="2" height="1" fill="rgb(25,25,25)" fill-opacity="0.40625"/>
  <rect x="18" y="5" width="1" height="1" fill="rgb(26,26,26)" fill-opacity="0.359375"/>
  <rect x="19" y="5" width="2" height="1" fill="rgb(255,255,255)" fill-opacity="0.0078125"/>
  <rect x="0" y="6" width="4" height="1" fill="rgb(255,255,255)" fill-opacity="0.0078125"/>
  <rect x="4" y="6" width="1" height="1" fill="rgb(58,58,58)" fill-opacity="0.9140625"/>
  <rect x="5" y="6" width="2" height="1" fill="rgb(51,51,51)"/>
  <rect x="7" y="6" width="1" height="1" fill="rgb(58,58,58)" fill-opacity="0.9140625"/>
  <rect x="8" y="6" width="1" height="1" fill="rgb(255,255,255)" fill-opacity="0.0078125"/>
  <rect x="9" y="6" width="1" height="1" fill="rgb(25,25,25)" fill-opacity="0.359375"/>
  <rect x="10" y="6" width="2" height="1" fill="rgb(33,33,33)" fill-opacity="0.3984375"/>
  <rect x="12" y="6" width="1" height="1" fill="rgb(25,25,25)" fill-opacity="0.359375"/>
  <rect x="13" y="6" width="2" height="1" fill="rgb(255,255,255)" fill-opacity="0.0078125"/>
  <rect x="15" y="6" width="1" height="1" fill="rgb(25,25,25)" fill-opacity="0.40625"/>
  <rect x="16" y="6" width="2" height="1" fill="rgb(255,255,255)" fill-opacity="0.40625"/>
  <rect x="18" y="6" width="1" height="1" fill="rgb(25,25,25)" fill-opacity="0.40625"/>
  <rect x="19" y="6" width="2" height="1" fill="rgb(255,255,255)" fill-opacity="0.0078125"/>
  <rect x="0" y="7" width="4" height="1" fill="rgb(255,255,255)" fill-opacity="0.0078125"/>
  <rect x="4" y="7" width="1" height="1" fill="rgb(51,51,51)"/>
  <rect x="5" y="7" width="2" height="1" fill="rgb(255,255,255)"/>
  <rect x="7" y="7" width="1" height="1" fill="rgb(51,51,51)"/>
  <rect x="8" y="7" width="1" height="1" fill="rgb(255,255,255)" fill-opacity="0.0078125"/>
  <rect x="9" y="7" width="4" height="1" fill="rgb(0,0,0)" fill-opacity="0.015625"/>
  <rect x="13" y="7" width="2" height="1" fill="rgb(255,255,255)" fill-opacity="0.0078125"/>
  <rect x="15" y="7" width="1" height="1" fill="rgb(25,25,25)" fill-opacity="0.40625"/>
  <rect x="16" y="7" width="2" height="1" fill="rgb(255,255,255)" fill-opacity="0.40625"/>
  <rect x="18" y="7" width="1" height="1" fill="rgb(25,25,25)" fill-opacity="0.40625"/>
  <rect x="19" y="7" width="2" height="1" fill="rgb(255,255,255)" fill-opacity="0.0078125"/>
  <rect x="0" y="8" width="4" height="1" fill="rgb(255,255,255)" fill-opacity="0.0078125"/>
  <rect x="4" y="8" width="1" height="1" fill="rgb(51,51,51)"/>
  <rect x="5" y="8" width="2" height="1" fill="rgb(255,255,255)"/>
  <rect x="7" y="8" width="1" height="1" fill="rgb(51,51,51)"/>
  <rect x="8" y="8" width="2" height="1" fill="rgb(255,255,255)" fill-opacity="0.0078125"/>
  <rect x="10" y="8" width="1" height="1" fill="rgb(58,58,58)" fill-opacity="0.9140625"/>
  <rect x="11" y="8" width="2" height="1" fill="rgb(51,51,51)"/>
  <rect x="13" y="8" width="1" height="1" fill="rgb(58,58,58)" fill-opacity="0.9140625"/>
  <rect x="14" y="8" width="1" height="1" fill="rgb(255,255,255)" fill-opacity="0.0078125"/>
  <rect x="15" y="8" width="1" height="1" fill="rgb(26,26,26)" fill-opacity="0.359375"/>
  <rect x="16" y="8" width="2" height="1" fill="rgb(25,25,25)" fill-opacity="0.40625"/>
  <rect x="18" y="8" width="1" height="1" fill="rgb(26,26,26)" fill-opacity="0.359375"/>
  <rect x="19" y="8" width="2" height="1" fill="rgb(255,255,255)" fill-opacity="0.0078125"/>
  <rect x="0" y="9" width="4" height="1" fill="rgb(255,255,255)" fill-opacity="0.0078125"/>
  <rect x="4" y="9" width="1" height="1" fill="rgb(58,58,58)" fill-opacity="0.9140625"/>
  <rect x="5" y="9" width="2" height="1" fill="rgb(51,51,51)"/>
  <rect x="7" y="9" width="1" height="1" fill="rgb(58,58,58)" fill-opacity="0.9140625"/>
  <rect x="8" y="9" width="2" height="1" fill="rgb(255,255,255)" fill-opacity="0.0078125"/>
  <rect x="10" y="9" width="1" height="1" fill="rgb(51,51,51)"/>
  <rect x="11" y="9" width="2" height="1" fill="rgb(255,255,255)"/>
  <rect x="13" y="9" width="1" height="1" fill="rgb(51,51,51)"/>
  <rect x="14" y="9" width="7" height="1" fill="rgb(255,255,255)" fill-opacity="0.0078125"/>
  <rect x="0" y="10" width="10" height="1" fill="rgb(255,255,255)" fill-opacity="0.0078125"/>
  <rect x="10" y="10" width="1" height="1" fill="rgb(51,51,51)"/>
  <rect x="11" y="10" width="2" height="1" fill="rgb(255,255,255)"/>
  <rect x="13" y="10" width="1" height="1" fill="rgb(51,51,51)"/>
  <rect x="14" y="10" width="7" height="1" fill="rgb(255,255,255)" fill-opacity="0.0078125"/>
  <rect x="0" y="11" width="10" height="1" fill="rgb(255,255,255)" fill-opacity="0.0078125"/>
  <rect x="10" y="11" width="1" height="1" fill="rgb(58,58,58)" fill-opacity="0.9140625"/>
  <rect x="11" y="11" width="2" height="1" fill="rgb(51,51,51)"/>
  <rect x="13" y="11" width="1" height="1" fill="rgb(58,58,58)" fill-opacity="0.9140625"/>
  <rect x="14" y="11" width="7" height="1" fill="rgb(255,255,255)" fill-opacity="0.0078125"/>
  <rect x="0" y="12" width="15" height="1" fill="rgb(255,255,255)" fill-opacity="0.0078125"/>
  <rect x="15" y="12" width="1" height="1" fill="rgb(26,26,26)" fill-opacity="0.359375"/>
  <rect x="16" y="12" width="2" height="1" fill="rgb(25,25,25)" fill-opacity="0.40625"/>
  <rect x="18" y="12" width="1" height="1" fill="rgb(26,26,26)" fill-opacity="0.359375"/>
  <rect x="19" y="12" width="2" height="1" fill="rgb(255,255,255)" fill-opacity="0.0078125"/>
  <rect x="0" y="13" width="4" height="1" fill="rgb(255,255,255)" fill-opacity="0.0078125"/>
  <rect x="4" y="13" width="1" height="1" fill="rgb(58,58,58)" fill-opacity="0.9140625"/>
  <rect x="5" y="13" width="2" height="1" fill="rgb(51,51,51)"/>
  <rect x="7" y="13" width="1" height="1" fill="rgb(58,58,58)" fill-opacity="0.9140625"/>
  <rect x="8" y="13" width="7" height="1" fill="rgb(255,255,255)" fill-opacity="0.0078125"/>
  <rect x="15" y="13" width="1" height="1" fill="rgb(25,25,25)" fill-opacity="0.40625"/>
  <rect x="16" y="13" width="2" height="1" fill="rgb(255,255,255)" fill-opacity="0.40625"/>
  <rect x="18" y="13" width="1" height="1" fill="rgb(25,25,25)" fill-opacity="0.40625"/>
  <rect x="19" y="13" width="2" height="1" fill="rgb(255,255,255)" fill-opacity="0.0078125"/>
  <rect x="0" y="14" width="4" height="1" fill="rgb(255,255,255)" fill-opacity="0.0078125"/>
  <rect x="4" y="14" width="1" height="1" fill="rgb(51,51,51)"/>
  <rect x="5" y="14" width="2" height="1" fill="rgb(255,255,255)"/>
  <rect x="7" y="14" width="1" height="1" fill="rgb(51,51,51)"/>
  <rect x="8" y="14" width="7" height="1" fill="rgb(255,255,255)" fill-opacity="0.0078125"/>
  <rect x="15" y="14" width="1" height="1" fill="rgb(25,25,25)" fill-opacity="0.40625"/>
  <rect x="16" y="14" width="2" height="1" fill="rgb(255,255,255)" fill-opacity="0.40625"/>
  <rect x="18" y="14" width="1" height="1" fill="rgb(25,25,25)" fill-opacity="0.40625"/>
  <rect x="19" y="14" width="2" height="1" fill="rgb(255,255,255)" fill-opacity="0.0078125"/>
  <rect x="0" y="15" width="4" height="1" fill="rgb(255,255,255)" fill-opacity="0.0078125"/>
  <rect x="4" y="15" width="1" height="1" fill="rgb(51,51,51)"/>
  <rect x="5" y="15" width="2" height="1" fill="rgb(255,255,255)"/>
  <rect x="7" y="15" width="1" height="1" fill="rgb(51,51,51)"/>
  <rect x="8" y="15" width="2" height="1" fill="rgb(255,255,255)" fill-opacity="0.0078125"/>
  <rect x="10" y="15" width="1" height="1" fill="rgb(58,58,58)" fill-opacity="0.9140625"/>
  <rect x="11" y="15" width="2" height="1" fill="rgb(51,51,51)"/>
  <rect x="13" y="15" width="1" height="1" fill="rgb(58,58,58)" fill-opacity="0.9140625"/>
  <rect x="14" y="15" width="1" height="1" fill="rgb(255,255,255)" fill-opacity="0.0078125"/>
  <rect x="15" y="15" width="1" height="1" fill="rgb(25,25,25)" fill-opacity="0.359375"/>
  <rect x="16" y="15" width="2" height="1" fill="rgb(33,33,33)" fill-opacity="0.3984375"/>
  <rect x="18" y="15" width="1" height="1" fill="rgb(25,25,25)" fill-opacity="0.359375"/>
  <rect x="19" y="15" width="2" height="1" fill="rgb(255,255,255)" fill-opacity="0.0078125"/>
  <rect x="0" y="16" width="4" height="1" fill="rgb(255,255,255)" fill-opacity="0.0078125"/>
  <rect x="4" y="16" width="1" height="1" fill="rgb(58,58,58)" fill-opacity="0.9140625"/>
  <rect x="5" y="16" width="2" height="1" fill="rgb(51,51,51)"/>
  <rect x="7" y="16" width="1" height="1" fill="rgb(58,58,58)" fill-opacity="0.9140625"/>
  <rect x="8" y="16" width="2" height="1" fill="rgb(255,255,255)" fill-opacity="0.0078125"/>
  <rect x="10" y="16" width="1" height="1" fill="rgb(51,51,51)"/>
  <rect x="11" y="16" width="2" height="1" fill="rgb(255,255,255)"/>
  <rect x="13" y="16" width="1" height="1" fill="rgb(51,51,51)"/>
  <rect x="14" y="16" width="1" height="1" fill="rgb(255,255,255)" fill-opacity="0.0078125"/>
  <rect x="15" y="16" width="4" height="1" fill="rgb(0,0,0)" fill-opacity="0.015625"/>
  <rect x="19" y="16" width="2" height="1" fill="rgb(255,255,255)" fill-opacity="0.0078125"/>
  <rect x="0" y="17" width="10" height="1" fill="rgb(255,255,255)" fill-opacity="0.0078125"/>
  <rect x="10" y="17" width="1" height="1" fill="rgb(51,51,51)"/>
  <rect x="11" y="17" width="2" height="1" fill="rgb(255,255,255)"/>
  <rect x="13" y="17" width="1" height="1" fill="rgb(51,51,51)"/>
  <rect x="14" y="17" width="7" height="1" fill="rgb(255,255,255)" fill-opacity="0.0078125"/>
  <rect x="0" y="18" width="10" height="1" fill="rgb(255,255,255)" fill-opacity="0.0078125"/>
  <rect x="10" y="18" width="1" height="1" fill="rgb(58,58,58)" fill-opacity="0.9140625"/>
  <rect x="11" y="18" width="2" height="1" fill="rgb(51,51,51)"/>
  <rect x="13" y="18" width="1" height="1" fill="rgb(58,58,58)" fill-opacity="0.9140625"/>
  <rect x="14" y="18" width="7" height="1" fill="rgb(255,255,255)" fill-opacity="0.0078125"/>
  <rect x="0" y="19" width="21" height="1" fill="rgb(255,255,255)" fill-opacity="0.0078125"/>
  <rect x="0" y="20" width="21" height="1" fill="rgb(255,255,255)" fill-opacity="0.0078125"/>
</svg>