<svg xmlns="http://www.w3.org/2000/svg" shape-rendering="crispEdges" width="21" height="21" viewBox="0 0 21 21">
  <rect x="0" y="0" width="1" height="21" fill="rgb(255,255,255)" fill-opacity="0.0078125"/>
  <rect x="1" y="0" width="1" height="21" fill="rgb(255,255,255)" fill-opacity="0.0078125"/>
  <rect x="2" y="0" width="1" height="21" fill="rgb(255,255,255)" fill-opacity="0.0078125"/>
  <rect x="3" y="0" width="1" height="3" fill="rgb(255,255,255)" fill-opacity="0.0078125"/>
  <rect x="3" y="3" width="1" height="8" fill="rgb(85,85,85)" fill-opacity="0.015625"/>
  <rect x="3" y="11" width="1" height="2" fill="rgb(64,64,64)" fill-opacity="0.0234375"/>
  <rect x="3" y="13" width="1" height="6" fill="rgb(85,85,85)" fill-opacity="0.015625"/>
  <rect x="3" y="19" width="1" height="2" fill="rgb(255,255,255)" fill-opacity="0.0078125"/>
  <rect x="4" y="0" width="1" height="3" fill="rgb(255,255,255)" fill-opacity="0.0078125"/>
  <rect x="4" y="3" width="1" height="5" fill="rgb(85,85,85)" fill-opacity="0.015625"/>
  <rect x="4" y="8" width="1" height="1" fill="rgb(43,43,43)" fill-opacity="0.03125"/>
  <rect x="4" y="9" width="1" height="1" fill="rgb(35,35,35)" fill-opacity="0.3828125"/>
  <rect x="4" y="10" width="1" height="1" fill="rgb(42,42,42)" fill-opacity="0.6484375"/>
  <rect x="4" y="11" width="1" height="2" fill="rgb(32,32,32)" fill-opacity="0.78125"/>
  <rect x="4" y="13" width="1" height="1" fill="rgb(42,42,42)" fill-opacity="0.6484375"/>
  <rect x="4" y="14" width="1" height="1" fill="rgb(35,35,35)" fill-opacity="0.3828125"/>
  <rect x="4" y="15" width="1" height="1" fill="rgb(43,43,43)" fill-opacity="0.03125"/>
  <rect x="4" y="16" width="1" height="3" fill="rgb(85,85,85)" fill-opacity="0.015625"/>
  <rect x="4" y="19" width="1" height="2" fill="rgb(255,255,255)" fill-opacity="0.0078125"/>
  <rect x="5" y="0" width="1" height="3" fill="rgb(255,255,255)" fill-opacity="0.0078125"/>
  <rect x="5" y="3" width="1" height="4" fill="rgb(85,85,85)" fill-opacity="0.015625"/>
  <rect x="5" y="7" width="1" height="1" fill="rgb(26,26,26)" fill-opacity="0.1171875"/>
  <rect x="5" y="8" width="1" height="1" fill="rgb(37,37,37)" fill-opacity="0.671875"/>
  <rect x="5" y="9" width="1" height="1" fill="rgb(126,126,126)" fill-opacity="0.78125"/>
  <rect x="5" y="10" width="1" height="1" fill="rgb(236,236,236)" fill-opacity="0.8046875"/>
  <rect x="5" y="11" width="1" height="2" fill="rgb(253,253,253)" fill-opacity="0.8046875"/>
  <rect x="5" y="13" width="1" height="1" fill="rgb(236,236,236)" fill-opacity="0.8046875"/>
  <rect x="5" y="14" width="1" height="1" fill="rgb(126,126,126)" fill-opacity="0.78125"/>
  <rect x="5" y="15" width="1" height="1" fill="rgb(37,37,37)" fill-opacity="0.671875"/>
  <rect x="5" y="16" width="1" height="1" fill="rgb(26,26,26)" fill-opacity="0.1171875"/>
  <rect x="5" y="17" width="1" height="2" fill="rgb(85,85,85)" fill-opacity="0.015625"/>
  <rect x="5" y="19" width="1" height="2" fill="rgb(255,255,255)" fill-opacity="0.0078125"/>
  <rect x="6" y="0" width="1" height="3" fill="rgb(255,255,255)" fill-opacity="0.0078125"/>
  <rect x="6" y="3" width="1" height="3" fill="rgb(85,85,85)" fill-opacity="0.015625"/>
  <rect x="6" y="6" width="1" height="1" fill="rgb(43,43,43)" fill-opacity="0.03125"/>
  <rect x="6" y="7" width="1" height="1" fill="rgb(37,37,37)" fill-opacity="0.671875"/>
  <rect x="6" y="8" width="1" height="1" fill="rgb(200,200,200)" fill-opacity="0.796875"/>
  <rect x="6" y="9" width="1" height="4" fill="rgb(254,254,254)" fill-opacity="0.8046875"/>
  <rect x="6" y="13" width="1" height="1" fill="rgb(248,248,248)" fill-opacity="0.8046875"/>
  <rect x="6" y="14" width="1" height="1" fill="rgb(250,250,250)" fill-opacity="0.8046875"/>
  <rect x="6" y="15" width="1" height="1" fill="rgb(188,188,188)" fill-opacity="0.796875"/>
  <rect x="6" y="16" width="1" height="1" fill="rgb(37,37,37)" fill-opacity="0.671875"/>
  <rect x="6" y="17" width="1" height="1" fill="rgb(43,43,43)" fill-opacity="0.03125"/>
  <rect x="6" y="18" width="1" height="1" fill="rgb(85,85,85)" fill-opacity="0.015625"/>
  <rect x="6" y="19" width="1" height="2" fill="rgb(255,255,255)" fill-opacity="0.0078125"/>
  <rect x="7" y="0" width="1" height="3" fill="rgb(255,255,255)" fill-opacity="0.0078125"/>
  <rect x="7" y="3" width="1" height="3" fill="rgb(85,85,85)" fill-opacity="0.015625"/>
  <rect x="7" y="6" width="1" height="1" fill="rgb(35,35,35)" fill-opacity="0.375"/>
  <rect x="7" y="7" width="1" height="1" fill="rgb(126,126,126)" fill-opacity="0.78125"/>
  <rect x="7" y="8" width="1" height="4" fill="rgb(254,254,254)" fill-opacity="0.8046875"/>
  <rect x="7" y="12" width="1" height="1" fill="rgb(249,249,249)" fill-opacity="0.8046875"/>
  <rect x="7" y="13" width="1" height="1" fill="rgb(228,228,228)" fill-opacity="0.8046875"/>
  <rect x="7" y="14" width="1" height="1" fill="rgb(209,209,209)" fill-opacity="0.8046875"/>
  <rect x="7" y="15" width="1" height="1" fill="rgb(236,236,236)" fill-opacity="0.8046875"/>
  <rect x="7" y="16" width="1" height="1" fill="rgb(105,105,105)" fill-opacity="0.78125"/>
  <rect x="7" y="17" width="1" height="1" fill="rgb(35,35,35)" fill-opacity="0.3828125"/>
  <rect x="7" y="18" width="1" height="1" fill="rgb(85,85,85)" fill-opacity="0.015625"/>
  <rect x="7" y="19" width="1" height="2" fill="rgb(255,255,255)" fill-opacity="0.0078125"/>
  <rect x="8" y="0" width="1" height="3" fill="rgb(255,255,255)" fill-opacity="0.0078125"/>
  <rect x="8" y="3" width="1" height="3" fill="rgb(85,85,85)" fill-opacity="0.015625"/>
  <rect x="8" y="6" width="1" height="1" fill="rgb(50,50,50)" fill-opacity="0.6015625"/>
  <rect x="8" y="7" width="1" height="1" fill="rgb(236,236,236)" fill-opacity="0.8046875"/>
  <rect x="8" y="8" width="1" height="3" fill="rgb(254,254,254)" fill-opacity="0.8046875"/>
  <rect x="8" y="11" width="1" height="1" fill="rgb(253,253,253)" fill-opacity="0.8046875"/>
  <rect x="8" y="12" width="1" height="1" fill="rgb(231,231,231)" fill-opacity="0.8046875"/>
  <rect x="8" y="13" width="1" height="1" fill="rgb(209,209,209)" fill-opacity="0.8046875"/>
  <rect x="8" y="14" width="1" height="1" fill="rgb(188,188,188)" fill-opacity="0.8046875"/>
  <rect x="8" y="15" width="1" height="1" fill="rgb(190,190,190)" fill-opacity="0.8046875"/>
  <rect x="8" y="16" width="1" height="1" fill="rgb(185,185,185)" fill-opacity="0.8046875"/>
  <rect x="8" y="17" width="1" height="1" fill="rgb(42,42,42)" fill-opacity="0.6484375"/>
  <rect x="8" y="18" width="1" height="1" fill="rgb(85,85,85)" fill-opacity="0.015625"/>
  <rect x="8" y="19" width="1" height="2" fill="rgb(255,255,255)" fill-opacity="0.0078125"/>
  <rect x="9" y="0" width="1" height="3" fill="rgb(255,255,255)" fill-opacity="0.0078125"/>
  <rect x="9" y="3" width="1" height="2" fill="rgb(85,85,85)" fill-opacity="0.015625"/>
  <rect x="9" y="5" width="1" height="1" fill="rgb(64,64,64)" fill-opacity="0.0234375"/>
  <rect x="9" y="6" width="1" height="1" fill="rgb(55,55,55)" fill-opacity="0.6953125"/>
  <rect x="9" y="7" width="1" height="1" fill="rgb(235,240,248)" fill-opacity="0.8203125"/>
  <rect x="9" y="8" width="1" height="1" fill="rgb(199,215,236)" fill-opacity="0.8515625"/>
  <rect x="9" y="9" width="1" height="1" fill="rgb(181,200,228)" fill-opacity="0.8671875"/>
  <rect x="9" y="10" width="1" height="1" fill="rgb(199,215,236)" fill-opacity="0.8515625"/>
  <rect x="9" y="11" width="1" height="1" fill="rgb(221,226,233)" fill-opacity="0.8203125"/>
  <rect x="9" y="12" width="1" height="1" fill="rgb(213,213,213)" fill-opacity="0.8046875"/>
  <rect x="9" y="13" width="1" height="1" fill="rgb(192,192,192)" fill-opacity="0.8046875"/>
  <rect x="9" y="14" width="1" height="1" fill="rgb(170,170,170)" fill-opacity="0.8046875"/>
  <rect x="9" y="15" width="1" height="1" fill="rgb(157,157,157)" fill-opacity="0.8046875"/>
  <rect x="9" y="16" width="1" height="1" fill="rgb(187,187,187)" fill-opacity="0.8046875"/>
  <rect x="9" y="17" width="1" height="1" fill="rgb(31,31,31)" fill-opacity="0.78125"/>
  <rect x="9" y="18" width="1" height="1" fill="rgb(64,64,64)" fill-opacity="0.0234375"/>
  <rect x="9" y="19" width="1" height="2" fill="rgb(255,255,255)" fill-opacity="0.0078125"/>
  <rect x="10" y="0" width="1" height="3" fill="rgb(255,255,255)" fill-opacity="0.0078125"/>
  <rect x="10" y="3" width="1" height="2" fill="rgb(85,85,85)" fill-opacity="0.015625"/>
  <rect x="10" y="5" width="1" height="1" fill="rgb(64,64,64)" fill-opacity="0.0234375"/>
  <rect x="10" y="6" width="1" height="1" fill="rgb(66,72,81)" fill-opacity="0.6875"/>
  <rect x="10" y="7" width="1" height="1" fill="rgb(163,184,216)" fill-opacity="0.8828125"/>
  <rect x="10" y="8" width="1" height="1" fill="rgb(47,86,148)" fill-opacity="0.9921875"/>
  <rect x="10" y="9" width="1" height="1" fill="rgb(38,79,142)"/>
  <rect x="10" y="10" width="1" height="1" fill="rgb(47,86,148)" fill-opacity="0.9921875"/>
  <rect x="10" y="11" width="1" height="1" fill="rgb(144,164,197)" fill-opacity="0.8828125"/>
  <rect x="10" y="12" width="1" height="1" fill="rgb(184,189,196)" fill-opacity="0.8203125"/>
  <rect x="10" y="13" width="1" height="1" fill="rgb(174,174,174)" fill-opacity="0.8046875"/>
  <rect x="10" y="14" width="1" height="1" fill="rgb(152,152,152)" fill-opacity="0.8046875"/>
  <rect x="10" y="15" width="1" height="1" fill="rgb(139,139,139)" fill-opacity="0.8046875"/>
  <rect x="10" y="16" width="1" height="1" fill="rgb(165,165,165)" fill-opacity="0.8046875"/>
  <rect x="10" y="17" width="1" height="1" fill="rgb(32,32,32)" fill-opacity="0.78125"/>
  <rect x="10" y="18" width="1" height="1" fill="rgb(64,64,64)" fill-opacity="0.0234375"/>
  <rect x="10" y="19" width="1" height="2" fill="rgb(255,255,255)" fill-opacity="0.0078125"/>
  <rect x="11" y="0" width="1" height="3" fill="rgb(255,255,255)" fill-opacity="0.0078125"/>
  <rect x="11" y="3" width="1" height="3" fill="rgb(85,85,85)" fill-opacity="0.015625"/>
  <rect x="11" y="6" width="1" height="1" fill="rgb(68,91,121)" fill-opacity="0.609375"/>
  <rect x="11" y="7" width="1" height="1" fill="rgb(47,86,148)" fill-opacity="0.9921875"/>
  <rect x="11" y="8" width="1" height="1" fill="rgb(204,214,230)" fill-opacity="0.9921875"/>
  <rect x="11" y="9" width="1" height="1" fill="rgb(255,255,255)"/>
  <rect x="11" y="10" width="1" height="1" fill="rgb(204,213,229)" fill-opacity="0.9921875"/>
  <rect x="11" y="11" width="1" height="1" fill="rgb(45,84,146)" fill-opacity="0.9921875"/>
  <rect x="11" y="12" width="1" height="1" fill="rgb(145,161,182)" fill-opacity="0.8515625"/>
  <rect x="11" y="13" width="1" height="1" fill="rgb(157,157,157)" fill-opacity="0.8046875"/>
  <rect x="11" y="14" width="1" height="2" fill="rgb(134,134,134)" fill-opacity="0.8046875"/>
  <rect x="11" y="16" width="1" height="1" fill="rgb(129,129,129)" fill-opacity="0.8046875"/>
  <rect x="11" y="17" width="1" height="1" fill="rgb(42,42,42)" fill-opacity="0.6484375"/>
  <rect x="11" y="18" width="1" height="1" fill="rgb(85,85,85)" fill-opacity="0.015625"/>
  <rect x="11" y="19" width="1" height="2" fill="rgb(255,255,255)" fill-opacity="0.0078125"/>
  <rect x="12" y="0" width="1" height="3" fill="rgb(255,255,255)" fill-opacity="0.0078125"/>
  <rect x="12" y="3" width="1" height="3" fill="rgb(85,85,85)" fill-opacity="0.015625"/>
  <rect x="12" y="6" width="1" height="1" fill="rgb(56,92,146)" fill-opacity="0.46875"/>
  <rect x="12" y="7" width="1" height="1" fill="rgb(38,79,142)"/>
  <rect x="12" y="8" width="1" height="1" fill="rgb(255,255,255)"/>
  <rect x="12" y="9" width="1" height="1" fill="rgb(69,87,115)"/>
  <rect x="12" y="10" width="1" height="1" fill="rgb(255,255,255)"/>
  <rect x="12" y="11" width="1" height="1" fill="rgb(38,79,142)"/>
  <rect x="12" y="12" width="1" height="1" fill="rgb(123,142,171)" fill-opacity="0.8671875"/>
  <rect x="12" y="13" width="1" height="1" fill="rgb(138,138,138)" fill-opacity="0.8046875"/>
  <rect x="12" y="14" width="1" height="1" fill="rgb(121,121,121)" fill-opacity="0.8046875"/>
  <rect x="12" y="15" width="1" height="1" fill="rgb(142,142,142)" fill-opacity="0.8046875"/>
  <rect x="12" y="16" width="1" height="1" fill="rgb(72,72,72)" fill-opacity="0.78125"/>
  <rect x="12" y="17" width="1" height="1" fill="rgb(35,35,35)" fill-opacity="0.3828125"/>
  <rect x="12" y="18" width="1" height="1" fill="rgb(85,85,85)" fill-opacity="0.015625"/>
  <rect x="12" y="19" width="1" height="2" fill="rgb(255,255,255)" fill-opacity="0.0078125"/>
  <rect x="13" y="0" width="1" height="3" fill="rgb(255,255,255)" fill-opacity="0.0078125"/>
  <rect x="13" y="3" width="1" height="2" fill="rgb(85,85,85)" fill-opacity="0.015625"/>
  <rect x="13" y="5" width="1" height="1" fill="rgb(51,102,102)" fill-opacity="0.0234375"/>
  <rect x="13" y="6" width="1" height="1" fill="rgb(45,90,153)" fill-opacity="0.71875"/>
  <rect x="13" y="7" width="1" height="1" fill="rgb(114,140,182)"/>
  <rect x="13" y="8" width="1" height="1" fill="rgb(235,239,245)"/>
  <rect x="13" y="9" width="1" height="1" fill="rgb(255,255,255)"/>
  <rect x="13" y="10" width="1" height="1" fill="rgb(202,212,228)" fill-opacity="0.9921875"/>
  <rect x="13" y="11" width="1" height="1" fill="rgb(44,83,145)" fill-opacity="0.9921875"/>
  <rect x="13" y="12" width="1" height="1" fill="rgb(125,141,162)" fill-opacity="0.8515625"/>
  <rect x="13" y="13" width="1" height="1" fill="rgb(142,142,142)" fill-opacity="0.8046875"/>
  <rect x="13" y="14" width="1" height="1" fill="rgb(146,146,146)" fill-opacity="0.8046875"/>
  <rect x="13" y="15" width="1" height="1" fill="rgb(103,103,103)" fill-opacity="0.796875"/>
  <rect x="13" y="16" width="1" height="1" fill="rgb(37,37,37)" fill-opacity="0.671875"/>
  <rect x="13" y="17" width="1" height="1" fill="rgb(43,43,43)" fill-opacity="0.03125"/>
  <rect x="13" y="18" width="1" height="1" fill="rgb(85,85,85)" fill-opacity="0.015625"/>
  <rect x="13" y="19" width="1" height="2" fill="rgb(255,255,255)" fill-opacity="0.0078125"/>
  <rect x="14" y="0" width="1" height="3" fill="rgb(255,255,255)" fill-opacity="0.0078125"/>
  <rect x="14" y="3" width="1" height="1" fill="rgb(85,85,85)" fill-opacity="0.015625"/>
  <rect x="14" y="4" width="1" height="1" fill="rgb(51,102,102)" fill-opacity="0.0234375"/>
  <rect x="14" y="5" width="1" height="1" fill="rgb(35,74,133)" fill-opacity="0.625"/>
  <rect x="14" y="6" width="1" height="1" fill="rgb(133,155,190)"/>
  <rect x="14" y="7" width="1" height="1" fill="rgb(232,236,243)"/>
  <rect x="14" y="8" width="1" height="1" fill="rgb(112,139,181)"/>
  <rect x="14" y="9" width="1" height="1" fill="rgb(38,79,142)"/>
  <rect x="14" y="10" width="1" height="1" fill="rgb(45,84,146)" fill-opacity="0.9921875"/>
  <rect x="14" y="11" width="1" height="1" fill="rgb(134,154,187)" fill-opacity="0.8828125"/>
  <rect x="14" y="12" width="1" height="1" fill="rgb(163,168,176)" fill-opacity="0.8203125"/>
  <rect x="14" y="13" width="1" height="1" fill="rgb(138,138,138)" fill-opacity="0.8046875"/>
  <rect x="14" y="14" width="1" height="1" fill="rgb(69,69,69)" fill-opacity="0.78125"/>
  <rect x="14" y="15" width="1" height="1" fill="rgb(37,37,37)" fill-opacity="0.671875"/>
  <rect x="14" y="16" width="1" height="1" fill="rgb(26,26,26)" fill-opacity="0.1171875"/>
  <rect x="14" y="17" width="1" height="2" fill="rgb(85,85,85)" fill-opacity="0.015625"/>
  <rect x="14" y="19" width="1" height="2" fill="rgb(255,255,255)" fill-opacity="0.0078125"/>
  <rect x="15" y="0" width="1" height="3" fill="rgb(255,255,255)" fill-opacity="0.0078125"/>
  <rect x="15" y="3" width="1" height="1" fill="rgb(51,102,102)" fill-opacity="0.0234375"/>
  <rect x="15" y="4" width="1" height="1" fill="rgb(35,74,133)" fill-opacity="0.625"/>
  <rect x="15" y="5" width="1" height="1" fill="rgb(132,153,187)"/>
  <rect x="15" y="6" width="1" height="1" fill="rgb(255,255,255)"/>
  <rect x="15" y="7" width="1" height="1" fill="rgb(132,154,189)"/>
  <rect x="15" y="8" width="1" height="1" fill="rgb(45,88,154)" fill-opacity="0.71875"/>
  <rect x="15" y="9" width="1" height="1" fill="rgb(56,92,146)" fill-opacity="0.46875"/>
  <rect x="15" y="10" width="1" height="1" fill="rgb(68,91,121)" fill-opacity="0.609375"/>
  <rect x="15" y="11" width="1" height="1" fill="rgb(66,72,81)" fill-opacity="0.6875"/>
  <rect x="15" y="12" width="1" height="1" fill="rgb(53,53,53)" fill-opacity="0.6953125"/>
  <rect x="15" y="13" width="1" height="1" fill="rgb(50,50,50)" fill-opacity="0.6015625"/>
  <rect x="15" y="14" width="1" height="1" fill="rgb(35,35,35)" fill-opacity="0.375"/>
  <rect x="15" y="15" width="1" height="1" fill="rgb(43,43,43)" fill-opacity="0.03125"/>
  <rect x="15" y="16" width="1" height="3" fill="rgb(85,85,85)" fill-opacity="0.015625"/>
  <rect x="15" y="19" width="1" height="2" fill="rgb(255,255,255)" fill-opacity="0.0078125"/>
  <rect x="16" y="0" width="1" height="3" fill="rgb(255,255,255)" fill-opacity="0.0078125"/>
  <rect x="16" y="3" width="1" height="1" fill="rgb(35,73,133)" fill-opacity="0.578125"/>
  <rect x="16" y="4" width="1" height="1" fill="rgb(132,153,187)"/>
  <rect x="16" y="5" width="1" height="1" fill="rgb(255,255,255)"/>
  <rect x="16" y="6" width="1" height="1" fill="rgb(132,153,187)"/>
  <rect x="16" y="7" width="1" height="1" fill="rgb(35,74,133)" fill-opacity="0.625"/>
  <rect x="16" y="8" width="1" height="1" fill="rgb(51,102,102)" fill-opacity="0.0234375"/>
  <rect x="16" y="9" width="1" height="2" fill="rgb(85,85,85)" fill-opacity="0.015625"/>
  <rect x="16" y="11" width="1" height="2" fill="rgb(64,64,64)" fill-opacity="0.0234375"/>
  <rect x="16" y="13" width="1" height="6" fill="rgb(85,85,85)" fill-opacity="0.015625"/>
  <rect x="16" y="19" width="1" height="2" fill="rgb(255,255,255)" fill-opacity="0.0078125"/>
  <rect x="17" y="0" width="1" height="3" fill="rgb(255,255,255)" fill-opacity="0.0078125"/>
  <rect x="17" y="3" width="1" height="1" fill="rgb(48,84,141)" fill-opacity="0.8828125"/>
  <rect x="17" y="4" width="1" height="1" fill="rgb(251,251,253)"/>
  <rect x="17" y="5" width="1" height="1" fill="rgb(132,153,187)"/>
  <rect x="17" y="6" width="1" height="1" fill="rgb(35,74,133)" fill-opacity="0.625"/>
  <rect x="17" y="7" width="1" height="1" fill="rgb(51,102,102)" fill-opacity="0.0234375"/>
  <rect x="17" y="8" width="1" height="11" fill="rgb(85,85,85)" fill-opacity="0.015625"/>
  <rect x="17" y="19" width="1" height="2" fill="rgb(255,255,255)" fill-opacity="0.0078125"/>
  <rect x="18" y="0" width="1" height="3" fill="rgb(255,255,255)" fill-opacity="0.0078125"/>
  <rect x="18" y="3" width="1" height="1" fill="rgb(37,75,133)" fill-opacity="0.4296875"/>
  <rect x="18" y="4" width="1" height="1" fill="rgb(46,82,139)" fill-opacity="0.890625"/>
  <rect x="18" y="5" width="1" height="1" fill="rgb(36,74,132)" fill-opacity="0.53125"/>
  <rect x="18" y="6" width="1" height="1" fill="rgb(51,102,102)" fill-opacity="0.0234375"/>
  <rect x="18" y="7" width="1" height="12" fill="rgb(85,85,85)" fill-opacity="0.015625"/>
  <rect x="18" y="19" width="1" height="2" fill="rgb(255,255,255)" fill-opacity="0.0078125"/>
  <rect x="19" y="0" width="1" height="21" fill="rgb(255,255,255)" fill-opacity="0.0078125"/>
  <rect x="20" y="0" width="1" height="21" fill="rgb(255,255,255)" fill-opacity="0.0078125"/>
</svg>