<svg xmlns="http://www.w3.org/2000/svg" shape-rendering="crispEdges" width="21" height="21" viewBox="0 0 21 21">
  <rect x="0" y="0" width="21" height="1" fill="rgb(255,255,255)" fill-opacity="0.0078125"/>
  <rect x="0" y="1" width="21" height="1" fill="rgb(255,255,255)" fill-opacity="0.0078125"/>
  <rect x="0" y="2" width="21" height="1" fill="rgb(255,255,255)" fill-opacity="0.0078125"/>
  <rect x="0" y="3" width="21" height="1" fill="rgb(255,255,255)" fill-opacity="0.0078125"/>
  <rect x="0" y="4" width="4" height="1" fill="rgb(255,255,255)" fill-opacity="0.0078125"/>
  <rect x="4" y="4" width="1" height="1" fill="rgb(23,23,23)" fill-opacity="0.7734375"/>
  <rect x="5" y="4" width="2" height="1" fill="rgb(23,23,23)" fill-opacity="0.9140625"/>
  <rect x="7" y="4" width="2" height="1" fill="rgb(24,24,24)" fill-opacity="0.9140625"/>
  <rect x="9" y="4" width="2" height="1" fill="rgb(25,25,25)" fill-opacity="0.9140625"/>
  <rect x="11" y="4" width="2" height="1" fill="rgb(26,26,26)" fill-opacity="0.9140625"/>
  <rect x="13" y="4" width="2" height="1" fill="rgb(27,27,27)" fill-opacity="0.9140625"/>
  <rect x="15" y="4" width="2" height="1" fill="rgb(29,29,29)" fill-opacity="0.9140625"/>
  <rect x="17" y="4" width="1" height="1" fill="rgb(29,29,29)" fill-opacity="0.796875"/>
  <rect x="18" y="4" width="3" height="1" fill="rgb(255,255,255)" fill-opacity="0.0078125"/>
  <rect x="0" y="5" width="4" height="1" fill="rgb(255,255,255)" fill-opacity="0.0078125"/>
  <rect x="4" y="5" width="1" height="1" fill="rgb(23,23,23)" fill-opacity="0.890625"/>
  <rect x="5" y="5" width="1" height="1" fill="rgb(146,146,146)"/>
  <rect x="6" y="5" width="1" height="1" fill="rgb(142,142,142)"/>
  <rect x="7" y="5" width="1" height="1" fill="rgb(134,134,134)"/>
  <rect x="8" y="5" width="1" height="1" fill="rgb(127,127,127)"/>
  <rect x="9" y="5" width="1" height="1" fill="rgb(120,120,120)"/>
  <rect x="10" y="5" width="1" height="1" fill="rgb(113,113,113)"/>
  <rect x="11" y="5" width="1" height="1" fill="rgb(107,107,107)"/>
  <rect x="12" y="5" width="1" height="1" fill="rgb(103,103,103)"/>
  <rect x="13" y="5" width="1" height="1" fill="rgb(97,97,97)"/>
  <rect x="14" y="5" width="1" height="1" fill="rgb(93,93,93)"/>
  <rect x="15" y="5" width="1" height="1" fill="rgb(89,89,89)"/>
  <rect x="16" y="5" width="1" height="1" fill="rgb(80,80,80)"/>
  <rect x="17" y="5" width="1" height="1" fill="rgb(30,30,30)" fill-opacity="0.9140625"/>
  <rect x="18" y="5" width="3" height="1" fill="rgb(255,255,255)" fill-opacity="0.0078125"/>
  <rect x="0" y="6" width="4" height="1" fill="rgb(255,255,255)" fill-opacity="0.0078125"/>
  <rect x="4" y="6" width="1" height="1" fill="rgb(23,23,23)" fill-opacity="0.890625"/>
  <rect x="5" y="6" width="1" height="1" fill="rgb(136,136,136)"/>
  <rect x="6" y="6" width="1" height="1" fill="rgb(15,15,15)"/>
  <rect x="7" y="6" width="1" height="1" fill="rgb(16,16,16)"/>
  <rect x="8" y="6" width="1" height="1" fill="rgb(21,21,21)"/>
  <rect x="9" y="6" width="1" height="1" fill="rgb(27,27,27)"/>
  <rect x="10" y="6" width="1" height="1" fill="rgb(32,32,32)"/>
  <rect x="11" y="6" width="1" height="1" fill="rgb(37,37,37)"/>
  <rect x="12" y="6" width="1" height="1" fill="rgb(43,43,43)"/>
  <rect x="13" y="6" width="1" height="1" fill="rgb(48,48,48)"/>
  <rect x="14" y="6" width="1" height="1" fill="rgb(53,53,53)"/>
  <rect x="15" y="6" width="1" height="1" fill="rgb(59,59,59)"/>
  <rect x="16" y="6" width="1" height="1" fill="rgb(64,64,64)"/>
  <rect x="17" y="6" width="1" height="1" fill="rgb(31,31,31)" fill-opacity="0.9140625"/>
  <rect x="18" y="6" width="3" height="1" fill="rgb(255,255,255)" fill-opacity="0.0078125"/>
  <rect x="0" y="7" width="4" height="1" fill="rgb(255,255,255)" fill-opacity="0.0078125"/>
  <rect x="4" y="7" width="1" height="1" fill="rgb(24,24,24)" fill-opacity="0.890625"/>
  <rect x="5" y="7" width="1" height="1" fill="rgb(129,129,129)"/>
  <rect x="6" y="7" width="1" height="1" fill="rgb(21,21,21)"/>
  <rect x="7" y="7" width="5" height="1" fill="rgb(153,153,153)"/>
  <rect x="12" y="7" width="1" height="1" fill="rgb(49,49,49)"/>
  <rect x="13" y="7" width="1" height="1" fill="rgb(54,54,54)"/>
  <rect x="14" y="7" width="1" height="1" fill="rgb(59,59,59)"/>
  <rect x="15" y="7" width="1" height="1" fill="rgb(65,65,65)"/>
  <rect x="16" y="7" width="1" height="1" fill="rgb(70,70,70)"/>
  <rect x="17" y="7" width="1" height="1" fill="rgb(31,31,31)" fill-opacity="0.9140625"/>
  <rect x="18" y="7" width="3" height="1" fill="rgb(255,255,255)" fill-opacity="0.0078125"/>
  <rect x="0" y="8" width="4" height="1" fill="rgb(255,255,255)" fill-opacity="0.0078125"/>
  <rect x="4" y="8" width="1" height="1" fill="rgb(25,25,25)" fill-opacity="0.890625"/>
  <rect x="5" y="8" width="1" height="1" fill="rgb(121,121,121)"/>
  <rect x="6" y="8" width="1" height="1" fill="rgb(26,26,26)"/>
  <rect x="7" y="8" width="5" height="1" fill="rgb(153,153,153)"/>
  <rect x="12" y="8" width="1" height="1" fill="rgb(55,55,55)"/>
  <rect x="13" y="8" width="1" height="1" fill="rgb(60,60,60)"/>
  <rect x="14" y="8" width="1" height="1" fill="rgb(65,65,65)"/>
  <rect x="15" y="8" width="1" height="1" fill="rgb(71,71,71)"/>
  <rect x="16" y="8" width="1" height="1" fill="rgb(76,76,76)"/>
  <rect x="17" y="8" width="1" height="1" fill="rgb(32,32,32)" fill-opacity="0.9140625"/>
  <rect x="18" y="8" width="3" height="1" fill="rgb(255,255,255)" fill-opacity="0.0078125"/>
  <rect x="0" y="9" width="4" height="1" fill="rgb(255,255,255)" fill-opacity="0.0078125"/>
  <rect x="4" y="9" width="1" height="1" fill="rgb(25,25,25)" fill-opacity="0.890625"/>
  <rect x="5" y="9" width="1" height="1" fill="rgb(113,113,113)"/>
  <rect x="6" y="9" width="1" height="1" fill="rgb(32,32,32)"/>
  <rect x="7" y="9" width="2" height="1" fill="rgb(153,153,153)"/>
  <rect x="9" y="9" width="3" height="1" fill="rgb(122,122,122)"/>
  <rect x="12" y="9" width="1" height="1" fill="rgb(61,61,61)"/>
  <rect x="13" y="9" width="1" height="1" fill="rgb(66,66,66)"/>
  <rect x="14" y="9" width="1" height="1" fill="rgb(71,71,71)"/>
  <rect x="15" y="9" width="1" height="1" fill="rgb(77,77,77)"/>
  <rect x="16" y="9" width="1" height="1" fill="rgb(82,82,82)"/>
  <rect x="17" y="9" width="1" height="1" fill="rgb(32,32,32)" fill-opacity="0.9140625"/>
  <rect x="18" y="9" width="3" height="1" fill="rgb(255,255,255)" fill-opacity="0.0078125"/>
  <rect x="0" y="10" width="4" height="1" fill="rgb(255,255,255)" fill-opacity="0.0078125"/>
  <rect x="4" y="10" width="1" height="1" fill="rgb(26,26,26)" fill-opacity="0.890625"/>
  <rect x="5" y="10" width="1" height="1" fill="rgb(107,107,107)"/>
  <rect x="6" y="10" width="1" height="1" fill="rgb(38,38,38)"/>
  <rect x="7" y="10" width="2" height="1" fill="rgb(153,153,153)"/>
  <rect x="9" y="10" width="1" height="1" fill="rgb(122,122,122)"/>
  <rect x="10" y="10" width="5" height="1" fill="rgb(255,255,255)"/>
  <rect x="15" y="10" width="1" height="1" fill="rgb(83,83,83)"/>
  <rect x="16" y="10" width="1" height="1" fill="rgb(88,88,88)"/>
  <rect x="17" y="10" width="1" height="1" fill="rgb(33,33,33)" fill-opacity="0.9140625"/>
  <rect x="18" y="10" width="3" height="1" fill="rgb(255,255,255)" fill-opacity="0.0078125"/>
  <rect x="0" y="11" width="4" height="1" fill="rgb(255,255,255)" fill-opacity="0.0078125"/>
  <rect x="4" y="11" width="1" height="1" fill="rgb(26,26,26)" fill-opacity="0.890625"/>
  <rect x="5" y="11" width="1" height="1" fill="rgb(101,101,101)"/>
  <rect x="6" y="11" width="1" height="1" fill="rgb(43,43,43)"/>
  <rect x="7" y="11" width="2" height="1" fill="rgb(153,153,153)"/>
  <rect x="9" y="11" width="1" height="1" fill="rgb(122,122,122)"/>
  <rect x="10" y="11" width="5" height="1" fill="rgb(255,255,255)"/>
  <rect x="15" y="11" width="1" height="1" fill="rgb(88,88,88)"/>
  <rect x="16" y="11" width="1" height="1" fill="rgb(94,94,94)"/>
  <rect x="17" y="11" width="1" height="1" fill="rgb(33,33,33)" fill-opacity="0.9140625"/>
  <rect x="18" y="11" width="3" height="1" fill="rgb(255,255,255)" fill-opacity="0.0078125"/>
  <rect x="0" y="12" width="4" height="1" fill="rgb(255,255,255)" fill-opacity="0.0078125"/>
  <rect x="4" y="12" width="1" height="1" fill="rgb(27,27,27)" fill-opacity="0.890625"/>
  <rect x="5" y="12" width="1" height="1" fill="rgb(95,95,95)"/>
  <rect x="6" y="12" width="1" height="1" fill="rgb(49,49,49)"/>
  <rect x="7" y="12" width="1" height="1" fill="rgb(52,52,52)"/>
  <rect x="8" y="12" width="1" height="1" fill="rgb(57,57,57)"/>
  <rect x="9" y="12" width="1" height="1" fill="rgb(63,63,63)"/>
  <rect x="10" y="12" width="5" height="1" fill="rgb(255,255,255)"/>
  <rect x="15" y="12" width="1" height="1" fill="rgb(94,94,94)"/>
  <rect x="16" y="12" width="1" height="1" fill="rgb(100,100,100)"/>
  <rect x="17" y="12" width="1" height="1" fill="rgb(34,34,34)" fill-opacity="0.9140625"/>
  <rect x="18" y="12" width="3" height="1" fill="rgb(255,255,255)" fill-opacity="0.0078125"/>
  <rect x="0" y="13" width="4" height="1" fill="rgb(255,255,255)" fill-opacity="0.0078125"/>
  <rect x="4" y="13" width="1" height="1" fill="rgb(28,28,28)" fill-opacity="0.890625"/>
  <rect x="5" y="13" width="1" height="1" fill="rgb(90,90,90)"/>
  <rect x="6" y="13" width="1" height="1" fill="rgb(54,54,54)"/>
  <rect x="7" y="13" width="1" height="1" fill="rgb(58,58,58)"/>
  <rect x="8" y="13" width="1" height="1" fill="rgb(63,63,63)"/>
  <rect x="9" y="13" width="1" height="1" fill="rgb(69,69,69)"/>
  <rect x="10" y="13" width="5" height="1" fill="rgb(255,255,255)"/>
  <rect x="15" y="13" width="1" height="1" fill="rgb(100,100,100)"/>
  <rect x="16" y="13" width="1" height="1" fill="rgb(106,106,106)"/>
  <rect x="17" y="13" width="1" height="1" fill="rgb(35,35,35)" fill-opacity="0.9140625"/>
  <rect x="18" y="13" width="3" height="1" fill="rgb(255,255,255)" fill-opacity="0.0078125"/>
  <rect x="0" y="14" width="4" height="1" fill="rgb(255,255,255)" fill-opacity="0.0078125"/>
  <rect x="4" y="14" width="1" height="1" fill="rgb(28,28,28)" fill-opacity="0.890625"/>
  <rect x="5" y="14" width="1" height="1" fill="rgb(85,85,85)"/>
  <rect x="6" y="14" width="1" height="1" fill="rgb(60,60,60)"/>
  <rect x="7" y="14" width="1" height="1" fill="rgb(64,64,64)"/>
  <rect x="8" y="14" width="1" height="1" fill="rgb(69,69,69)"/>
  <rect x="9" y="14" width="1" height="1" fill="rgb(75,75,75)"/>
  <rect x="10" y="14" width="5" height="1" fill="rgb(255,255,255)"/>
  <rect x="15" y="14" width="1" height="1" fill="rgb(106,106,106)"/>
  <rect x="16" y="14" width="1" height="1" fill="rgb(112,112,112)"/>
  <rect x="17" y="14" width="1" height="1" fill="rgb(35,35,35)" fill-opacity="0.9140625"/>
  <rect x="18" y="14" width="3" height="1" fill="rgb(255,255,255)" fill-opacity="0.0078125"/>
  <rect x="0" y="15" width="4" height="1" fill="rgb(255,255,255)" fill-opacity="0.0078125"/>
  <rect x="4" y="15" width="1" height="1" fill="rgb(29,29,29)" fill-opacity="0.890625"/>
  <rect x="5" y="15" width="1" height="1" fill="rgb(81,81,81)"/>
  <rect x="6" y="15" width="1" height="1" fill="rgb(66,66,66)"/>
  <rect x="7" y="15" width="1" height="1" fill="rgb(70,70,70)"/>
  <rect x="8" y="15" width="1" height="1" fill="rgb(75,75,75)"/>
  <rect x="9" y="15" width="1" height="1" fill="rgb(81,81,81)"/>
  <rect x="10" y="15" width="1" height="1" fill="rgb(86,86,86)"/>
  <rect x="11" y="15" width="1" height="1" fill="rgb(91,91,91)"/>
  <rect x="12" y="15" width="1" height="1" fill="rgb(96,96,96)"/>
  <rect x="13" y="15" width="1" height="1" fill="rgb(102,102,102)"/>
  <rect x="14" y="15" width="1" height="1" fill="rgb(107,107,107)"/>
  <rect x="15" y="15" width="1" height="1" fill="rgb(112,112,112)"/>
  <rect x="16" y="15" width="1" height="1" fill="rgb(118,118,118)"/>
  <rect x="17" y="15" width="1" height="1" fill="rgb(36,36,36)" fill-opacity="0.9140625"/>
  <rect x="18" y="15" width="3" height="1" fill="rgb(255,255,255)" fill-opacity="0.0078125"/>
  <rect x="0" y="16" width="4" height="1" fill="rgb(255,255,255)" fill-opacity="0.0078125"/>
  <rect x="4" y="16" width="1" height="1" fill="rgb(29,29,29)" fill-opacity="0.890625"/>
  <rect x="5" y="16" width="1" height="1" fill="rgb(76,76,76)"/>
  <rect x="6" y="16" width="1" height="1" fill="rgb(71,71,71)"/>
  <rect x="7" y="16" width="1" height="1" fill="rgb(76,76,76)"/>
  <rect x="8" y="16" width="1" height="1" fill="rgb(81,81,81)"/>
  <rect x="9" y="16" width="1" height="1" fill="rgb(87,87,87)"/>
  <rect x="10" y="16" width="1" height="1" fill="rgb(92,92,92)"/>
  <rect x="11" y="16" width="1" height="1" fill="rgb(97,97,97)"/>
  <rect x="12" y="16" width="1" height="1" fill="rgb(102,102,102)"/>
  <rect x="13" y="16" width="1" height="1" fill="rgb(108,108,108)"/>
  <rect x="14" y="16" width="1" height="1" fill="rgb(113,113,113)"/>
  <rect x="15" y="16" width="1" height="1" fill="rgb(118,118,118)"/>
  <rect x="16" y="16" width="1" height="1" fill="rgb(124,124,124)"/>
  <rect x="17" y="16" width="1" height="1" fill="rgb(36,36,36)" fill-opacity="0.9140625"/>
  <rect x="18" y="16" width="3" height="1" fill="rgb(255,255,255)" fill-opacity="0.0078125"/>
  <rect x="0" y="17" width="4" height="1" fill="rgb(255,255,255)" fill-opacity="0.0078125"/>
  <rect x="4" y="17" width="1" height="1" fill="rgb(30,30,30)" fill-opacity="0.7734375"/>
  <rect x="5" y="17" width="2" height="1" fill="rgb(31,31,31)" fill-opacity="0.9140625"/>
  <rect x="7" y="17" width="2" height="1" fill="rgb(32,32,32)" fill-opacity="0.9140625"/>
  <rect x="9" y="17" width="2" height="1" fill="rgb(33,33,33)" fill-opacity="0.9140625"/>
  <rect x="11" y="17" width="2" height="1" fill="rgb(34,34,34)" fill-opacity="0.9140625"/>
  <rect x="13" y="17" width="2" height="1" fill="rgb(35,35,35)" fill-opacity="0.9140625"/>
  <rect x="15" y="17" width="2" height="1" fill="rgb(36,36,36)" fill-opacity="0.9140625"/>
  <rect x="17" y="17" width="1" height="1" fill="rgb(35,35,35)" fill-opacity="0.796875"/>
  <rect x="18" y="17" width="3" height="1" fill="rgb(255,255,255)" fill-opacity="0.0078125"/>
  <rect x="0" y="18" width="21" height="1" fill="rgb(255,255,255)" fill-opacity="0.0078125"/>
  <rect x="0" y="19" width="21" height="1" fill="rgb(255,255,255)" fill-opacity="0.0078125"/>
  <rect x="0" y="20" width="21" height="1" fill="rgb(255,255,255)" fill-opacity="0.0078125"/>
</svg>