<svg xmlns="http://www.w3.org/2000/svg" shape-rendering="crispEdges" width="21" height="21" viewBox="0 0 21 21">
  <rect x="0" y="0" width="1" height="21" fill="rgb(255,255,255)" fill-opacity="0.0078125"/>
  <rect x="1" y="0" width="1" height="21" fill="rgb(255,255,255)" fill-opacity="0.0078125"/>
  <rect x="2" y="0" width="1" height="21" fill="rgb(255,255,255)" fill-opacity="0.0078125"/>
  <rect x="3" y="0" width="1" height="16" fill="rgb(255,255,255)" fill-opacity="0.0078125"/>
  <rect x="3" y="16" width="1" height="1" fill="rgb(4,4,4)" fill-opacity="0.2421875"/>
  <rect x="3" y="17" width="1" height="1" fill="rgb(7,7,7)" fill-opacity="0.6953125"/>
  <rect x="3" y="18" width="1" height="1" fill="rgb(0,0,0)" fill-opacity="0.125"/>
  <rect x="3" y="19" width="1" height="2" fill="rgb(255,255,255)" fill-opacity="0.0078125"/>
  <rect x="4" y="0" width="1" height="14" fill="rgb(255,255,255)" fill-opacity="0.0078125"/>
  <rect x="4" y="14" width="1" height="1" fill="rgb(0,0,0)" fill-opacity="0.046875"/>
  <rect x="4" y="15" width="1" height="1" fill="rgb(20,20,20)" fill-opacity="0.6015625"/>
  <rect x="4" y="16" width="1" height="1" fill="rgb(148,148,148)" fill-opacity="0.8984375"/>
  <rect x="4" y="17" width="1" height="1" fill="rgb(204,204,204)" fill-opacity="0.90625"/>
  <rect x="4" y="18" width="1" height="1" fill="rgb(7,7,7)" fill-opacity="0.6953125"/>
  <rect x="4" y="19" width="1" height="2" fill="rgb(255,255,255)" fill-opacity="0.0078125"/>
  <rect x="5" y="0" width="1" height="8" fill="rgb(255,255,255)" fill-opacity="0.0078125"/>
  <rect x="5" y="8" width="1" height="1" fill="rgb(26,26,26)" fill-opacity="0.1640625"/>
  <rect x="5" y="9" width="1" height="1" fill="rgb(45,45,45)" fill-opacity="0.8046875"/>
  <rect x="5" y="10" width="1" height="1" fill="rgb(26,26,26)" fill-opacity="0.1640625"/>
  <rect x="5" y="11" width="1" height="2" fill="rgb(255,255,255)" fill-opacity="0.0078125"/>
  <rect x="5" y="13" width="1" height="1" fill="rgb(0,0,0)" fill-opacity="0.125"/>
  <rect x="5" y="14" width="1" height="1" fill="rgb(70,70,70)" fill-opacity="0.84375"/>
  <rect x="5" y="15" width="1" height="1" fill="rgb(231,231,231)" fill-opacity="0.953125"/>
  <rect x="5" y="16" width="1" height="1" fill="rgb(233,233,233)" fill-opacity="0.9609375"/>
  <rect x="5" y="17" width="1" height="1" fill="rgb(92,92,92)" fill-opacity="0.8671875"/>
  <rect x="5" y="18" width="1" height="1" fill="rgb(4,4,4)" fill-opacity="0.2421875"/>
  <rect x="5" y="19" width="1" height="2" fill="rgb(255,255,255)" fill-opacity="0.0078125"/>
  <rect x="6" y="0" width="1" height="8" fill="rgb(255,255,255)" fill-opacity="0.0078125"/>
  <rect x="6" y="8" width="1" height="1" fill="rgb(63,63,63)" fill-opacity="0.890625"/>
  <rect x="6" y="9" width="1" height="1" fill="rgb(226,226,226)"/>
  <rect x="6" y="10" width="1" height="1" fill="rgb(82,82,82)" fill-opacity="0.921875"/>
  <rect x="6" y="11" width="1" height="1" fill="rgb(26,26,26)" fill-opacity="0.1640625"/>
  <rect x="6" y="12" width="1" height="1" fill="rgb(0,0,0)" fill-opacity="0.1171875"/>
  <rect x="6" y="13" width="1" height="1" fill="rgb(72,72,72)" fill-opacity="0.8671875"/>
  <rect x="6" y="14" width="1" height="1" fill="rgb(239,239,239)" fill-opacity="0.9609375"/>
  <rect x="6" y="15" width="1" height="1" fill="rgb(197,197,197)" fill-opacity="0.9609375"/>
  <rect x="6" y="16" width="1" height="1" fill="rgb(140,140,140)" fill-opacity="0.9296875"/>
  <rect x="6" y="17" width="1" height="1" fill="rgb(18,18,18)" fill-opacity="0.6015625"/>
  <rect x="6" y="18" width="1" height="3" fill="rgb(255,255,255)" fill-opacity="0.0078125"/>
  <rect x="7" y="0" width="1" height="8" fill="rgb(255,255,255)" fill-opacity="0.0078125"/>
  <rect x="7" y="8" width="1" height="1" fill="rgb(84,84,84)" fill-opacity="0.9296875"/>
  <rect x="7" y="9" width="1" height="1" fill="rgb(255,255,255)"/>
  <rect x="7" y="10" width="1" height="1" fill="rgb(251,251,251)"/>
  <rect x="7" y="11" width="1" height="1" fill="rgb(82,82,82)" fill-opacity="0.9296875"/>
  <rect x="7" y="12" width="1" height="1" fill="rgb(62,62,62)" fill-opacity="0.8828125"/>
  <rect x="7" y="13" width="1" height="1" fill="rgb(237,237,237)" fill-opacity="0.9609375"/>
  <rect x="7" y="14" width="1" height="1" fill="rgb(181,181,181)" fill-opacity="0.9609375"/>
  <rect x="7" y="15" width="1" height="1" fill="rgb(152,152,152)" fill-opacity="0.9609375"/>
  <rect x="7" y="16" width="1" height="1" fill="rgb(22,22,22)" fill-opacity="0.8125"/>
  <rect x="7" y="17" width="1" height="1" fill="rgb(0,0,0)" fill-opacity="0.046875"/>
  <rect x="7" y="18" width="1" height="3" fill="rgb(255,255,255)" fill-opacity="0.0078125"/>
  <rect x="8" y="0" width="1" height="8" fill="rgb(255,255,255)" fill-opacity="0.0078125"/>
  <rect x="8" y="8" width="1" height="1" fill="rgb(83,83,83)" fill-opacity="0.9296875"/>
  <rect x="8" y="9" width="1" height="1" fill="rgb(250,250,250)"/>
  <rect x="8" y="10" width="1" height="1" fill="rgb(253,253,253)"/>
  <rect x="8" y="11" width="1" height="1" fill="rgb(249,249,249)"/>
  <rect x="8" y="12" width="1" height="1" fill="rgb(93,93,93)"/>
  <rect x="8" y="13" width="1" height="1" fill="rgb(146,146,146)" fill-opacity="0.96875"/>
  <rect x="8" y="14" width="1" height="1" fill="rgb(138,138,138)" fill-opacity="0.9609375"/>
  <rect x="8" y="15" width="1" height="1" fill="rgb(25,25,25)" fill-opacity="0.8359375"/>
  <rect x="8" y="16" width="1" height="1" fill="rgb(0,0,0)" fill-opacity="0.125"/>
  <rect x="8" y="17" width="1" height="4" fill="rgb(255,255,255)" fill-opacity="0.0078125"/>
  <rect x="9" y="0" width="1" height="8" fill="rgb(255,255,255)" fill-opacity="0.0078125"/>
  <rect x="9" y="8" width="1" height="1" fill="rgb(82,82,82)" fill-opacity="0.9296875"/>
  <rect x="9" y="9" width="1" height="1" fill="rgb(246,246,246)"/>
  <rect x="9" y="10" width="1" height="1" fill="rgb(218,218,218)"/>
  <rect x="9" y="11" width="1" height="1" fill="rgb(250,250,250)"/>
  <rect x="9" y="12" width="1" height="1" fill="rgb(248,248,248)"/>
  <rect x="9" y="13" width="1" height="1" fill="rgb(75,75,75)"/>
  <rect x="9" y="14" width="1" height="1" fill="rgb(22,22,22)" fill-opacity="0.8671875"/>
  <rect x="9" y="15" width="1" height="1" fill="rgb(0,0,0)" fill-opacity="0.1328125"/>
  <rect x="9" y="16" width="1" height="5" fill="rgb(255,255,255)" fill-opacity="0.0078125"/>
  <rect x="10" y="0" width="1" height="7" fill="rgb(255,255,255)" fill-opacity="0.0078125"/>
  <rect x="10" y="7" width="1" height="1" fill="rgb(26,26,26)" fill-opacity="0.1640625"/>
  <rect x="10" y="8" width="1" height="1" fill="rgb(102,102,102)" fill-opacity="0.9453125"/>
  <rect x="10" y="9" width="1" height="1" fill="rgb(233,233,233)"/>
  <rect x="10" y="10" width="1" height="1" fill="rgb(198,198,198)"/>
  <rect x="10" y="11" width="1" height="1" fill="rgb(190,190,190)"/>
  <rect x="10" y="12" width="1" height="1" fill="rgb(228,228,228)"/>
  <rect x="10" y="13" width="1" height="1" fill="rgb(205,205,205)"/>
  <rect x="10" y="14" width="1" height="1" fill="rgb(51,51,51)" fill-opacity="0.921875"/>
  <rect x="10" y="15" width="1" height="1" fill="rgb(26,26,26)" fill-opacity="0.1640625"/>
  <rect x="10" y="16" width="1" height="5" fill="rgb(255,255,255)" fill-opacity="0.0078125"/>
  <rect x="11" y="0" width="1" height="4" fill="rgb(255,255,255)" fill-opacity="0.0078125"/>
  <rect x="11" y="4" width="1" height="1" fill="rgb(26,26,26)" fill-opacity="0.1640625"/>
  <rect x="11" y="5" width="1" height="1" fill="rgb(44,44,44)" fill-opacity="0.8046875"/>
  <rect x="11" y="6" width="1" height="1" fill="rgb(26,26,26)" fill-opacity="0.3203125"/>
  <rect x="11" y="7" width="1" height="1" fill="rgb(81,81,81)" fill-opacity="0.921875"/>
  <rect x="11" y="8" width="1" height="1" fill="rgb(241,241,241)"/>
  <rect x="11" y="9" width="1" height="1" fill="rgb(176,176,176)"/>
  <rect x="11" y="10" width="1" height="1" fill="rgb(193,193,193)"/>
  <rect x="11" y="11" width="1" height="1" fill="rgb(162,162,162)"/>
  <rect x="11" y="12" width="1" height="1" fill="rgb(155,155,155)"/>
  <rect x="11" y="13" width="1" height="1" fill="rgb(170,170,170)"/>
  <rect x="11" y="14" width="1" height="1" fill="rgb(150,150,150)"/>
  <rect x="11" y="15" width="1" height="1" fill="rgb(41,41,41)" fill-opacity="0.90625"/>
  <rect x="11" y="16" width="1" height="1" fill="rgb(26,26,26)" fill-opacity="0.1640625"/>
  <rect x="11" y="17" width="1" height="4" fill="rgb(255,255,255)" fill-opacity="0.0078125"/>
  <rect x="12" y="0" width="1" height="3" fill="rgb(255,255,255)" fill-opacity="0.0078125"/>
  <rect x="12" y="3" width="1" height="1" fill="rgb(26,26,26)" fill-opacity="0.1640625"/>
  <rect x="12" y="4" width="1" height="1" fill="rgb(82,82,82)" fill-opacity="0.921875"/>
  <rect x="12" y="5" width="1" height="1" fill="rgb(222,222,222)"/>
  <rect x="12" y="6" width="1" height="1" fill="rgb(97,97,97)" fill-opacity="0.9453125"/>
  <rect x="12" y="7" width="1" height="1" fill="rgb(211,211,211)"/>
  <rect x="12" y="8" width="1" height="1" fill="rgb(212,212,212)"/>
  <rect x="12" y="9" width="1" height="1" fill="rgb(168,168,168)"/>
  <rect x="12" y="10" width="1" height="1" fill="rgb(99,99,99)"/>
  <rect x="12" y="11" width="1" height="1" fill="rgb(137,137,137)"/>
  <rect x="12" y="12" width="1" height="1" fill="rgb(142,142,142)"/>
  <rect x="12" y="13" width="1" height="1" fill="rgb(132,132,132)"/>
  <rect x="12" y="14" width="1" height="1" fill="rgb(137,137,137)"/>
  <rect x="12" y="15" width="1" height="1" fill="rgb(117,117,117)"/>
  <rect x="12" y="16" width="1" height="1" fill="rgb(36,36,36)" fill-opacity="0.8046875"/>
  <rect x="12" y="17" width="1" height="4" fill="rgb(255,255,255)" fill-opacity="0.0078125"/>
  <rect x="13" y="0" width="1" height="3" fill="rgb(255,255,255)" fill-opacity="0.0078125"/>
  <rect x="13" y="3" width="1" height="1" fill="rgb(43,43,43)" fill-opacity="0.8046875"/>
  <rect x="13" y="4" width="1" height="1" fill="rgb(216,216,216)"/>
  <rect x="13" y="5" width="1" height="1" fill="rgb(230,230,230)"/>
  <rect x="13" y="6" width="1" height="1" fill="rgb(245,245,245)"/>
  <rect x="13" y="7" width="1" height="1" fill="rgb(169,169,169)"/>
  <rect x="13" y="8" width="1" height="1" fill="rgb(163,163,163)"/>
  <rect x="13" y="9" width="1" height="1" fill="rgb(159,159,159)"/>
  <rect x="13" y="10" width="1" height="1" fill="rgb(133,133,133)"/>
  <rect x="13" y="11" width="1" height="1" fill="rgb(27,27,27)" fill-opacity="0.953125"/>
  <rect x="13" y="12" width="1" height="1" fill="rgb(41,41,41)" fill-opacity="0.9140625"/>
  <rect x="13" y="13" width="1" height="2" fill="rgb(40,40,40)" fill-opacity="0.9140625"/>
  <rect x="13" y="15" width="1" height="1" fill="rgb(36,36,36)" fill-opacity="0.8828125"/>
  <rect x="13" y="16" width="1" height="1" fill="rgb(26,26,26)" fill-opacity="0.1640625"/>
  <rect x="13" y="17" width="1" height="4" fill="rgb(255,255,255)" fill-opacity="0.0078125"/>
  <rect x="14" y="0" width="1" height="3" fill="rgb(255,255,255)" fill-opacity="0.0078125"/>
  <rect x="14" y="3" width="1" height="1" fill="rgb(26,26,26)" fill-opacity="0.1640625"/>
  <rect x="14" y="4" width="1" height="1" fill="rgb(81,81,81)" fill-opacity="0.921875"/>
  <rect x="14" y="5" width="1" height="1" fill="rgb(240,240,240)"/>
  <rect x="14" y="6" width="1" height="1" fill="rgb(210,210,210)"/>
  <rect x="14" y="7" width="1" height="1" fill="rgb(208,208,208)"/>
  <rect x="14" y="8" width="1" height="1" fill="rgb(72,72,72)"/>
  <rect x="14" y="9" width="1" height="1" fill="rgb(114,114,114)"/>
  <rect x="14" y="10" width="1" height="1" fill="rgb(44,44,44)" fill-opacity="0.9296875"/>
  <rect x="14" y="11" width="1" height="1" fill="rgb(26,26,26)" fill-opacity="0.1640625"/>
  <rect x="14" y="12" width="1" height="9" fill="rgb(255,255,255)" fill-opacity="0.0078125"/>
  <rect x="15" y="0" width="1" height="4" fill="rgb(255,255,255)" fill-opacity="0.0078125"/>
  <rect x="15" y="4" width="1" height="1" fill="rgb(26,26,26)" fill-opacity="0.1640625"/>
  <rect x="15" y="5" width="1" height="1" fill="rgb(71,71,71)" fill-opacity="0.921875"/>
  <rect x="15" y="6" width="1" height="1" fill="rgb(201,201,201)"/>
  <rect x="15" y="7" width="1" height="1" fill="rgb(185,185,185)"/>
  <rect x="15" y="8" width="1" height="1" fill="rgb(149,149,149)"/>
  <rect x="15" y="9" width="1" height="1" fill="rgb(30,30,30)" fill-opacity="0.96875"/>
  <rect x="15" y="10" width="1" height="1" fill="rgb(26,26,26)" fill-opacity="0.3203125"/>
  <rect x="15" y="11" width="1" height="10" fill="rgb(255,255,255)" fill-opacity="0.0078125"/>
  <rect x="16" y="0" width="1" height="5" fill="rgb(255,255,255)" fill-opacity="0.0078125"/>
  <rect x="16" y="5" width="1" height="1" fill="rgb(26,26,26)" fill-opacity="0.1640625"/>
  <rect x="16" y="6" width="1" height="1" fill="rgb(53,53,53)" fill-opacity="0.9140625"/>
  <rect x="16" y="7" width="1" height="1" fill="rgb(150,150,150)"/>
  <rect x="16" y="8" width="1" height="1" fill="rgb(167,167,167)"/>
  <rect x="16" y="9" width="1" height="1" fill="rgb(137,137,137)"/>
  <rect x="16" y="10" width="1" height="1" fill="rgb(36,36,36)" fill-opacity="0.8046875"/>
  <rect x="16" y="11" width="1" height="10" fill="rgb(255,255,255)" fill-opacity="0.0078125"/>
  <rect x="17" y="0" width="1" height="6" fill="rgb(255,255,255)" fill-opacity="0.0078125"/>
  <rect x="17" y="6" width="1" height="1" fill="rgb(26,26,26)" fill-opacity="0.1640625"/>
  <rect x="17" y="7" width="1" height="1" fill="rgb(40,40,40)" fill-opacity="0.90625"/>
  <rect x="17" y="8" width="1" height="1" fill="rgb(138,138,138)"/>
  <rect x="17" y="9" width="1" height="1" fill="rgb(49,49,49)" fill-opacity="0.9140625"/>
  <rect x="17" y="10" width="1" height="1" fill="rgb(26,26,26)" fill-opacity="0.1640625"/>
  <rect x="17" y="11" width="1" height="10" fill="rgb(255,255,255)" fill-opacity="0.0078125"/>
  <rect x="18" y="0" width="1" height="7" fill="rgb(255,255,255)" fill-opacity="0.0078125"/>
  <rect x="18" y="7" width="1" height="1" fill="rgb(26,26,26)" fill-opacity="0.1640625"/>
  <rect x="18" y="8" width="1" height="1" fill="rgb(36,36,36)" fill-opacity="0.8046875"/>
  <rect x="18" y="9" width="1" height="1" fill="rgb(26,26,26)" fill-opacity="0.1640625"/>
  <rect x="18" y="10" width="1" height="11" fill="rgb(255,255,255)" fill-opacity="0.0078125"/>
  <rect x="19" y="0" width="1" height="21" fill="rgb(255,255,255)" fill-opacity="0.0078125"/>
  <rect x="20" y="0" width="1" height="21" fill="rgb(255,255,255)" fill-opacity="0.0078125"/>
</svg>