<svg xmlns="http://www.w3.org/2000/svg" shape-rendering="crispEdges" width="21" height="21" viewBox="0 0 21 21">
  <rect x="0" y="0" width="1" height="21" fill="rgb(255,255,255)" fill-opacity="0.0078125"/>
  <rect x="1" y="0" width="1" height="21" fill="rgb(255,255,255)" fill-opacity="0.0078125"/>
  <rect x="2" y="0" width="1" height="21" fill="rgb(255,255,255)" fill-opacity="0.0078125"/>
  <rect x="3" y="0" width="1" height="8" fill="rgb(255,255,255)" fill-opacity="0.0078125"/>
  <rect x="3" y="8" width="1" height="1" fill="rgb(109,0,0)" fill-opacity="0.03125"/>
  <rect x="3" y="9" width="1" height="1" fill="rgb(87,5,5)" fill-opacity="0.2265625"/>
  <rect x="3" y="10" width="1" height="1" fill="rgb(94,12,12)" fill-opacity="0.3359375"/>
  <rect x="3" y="11" width="1" height="2" fill="rgb(91,5,5)" fill-opacity="0.4140625"/>
  <rect x="3" y="13" width="1" height="1" fill="rgb(94,12,12)" fill-opacity="0.3359375"/>
  <rect x="3" y="14" width="1" height="1" fill="rgb(87,5,5)" fill-opacity="0.2265625"/>
  <rect x="3" y="15" width="1" height="1" fill="rgb(109,0,0)" fill-opacity="0.03125"/>
  <rect x="3" y="16" width="1" height="5" fill="rgb(255,255,255)" fill-opacity="0.0078125"/>
  <rect x="4" y="0" width="1" height="7" fill="rgb(255,255,255)" fill-opacity="0.0078125"/>
  <rect x="4" y="7" width="1" height="1" fill="rgb(82,0,0)" fill-opacity="0.125"/>
  <rect x="4" y="8" width="1" height="1" fill="rgb(94,8,8)" fill-opacity="0.3984375"/>
  <rect x="4" y="9" width="1" height="1" fill="rgb(183,142,142)" fill-opacity="0.390625"/>
  <rect x="4" y="10" width="1" height="1" fill="rgb(237,225,225)" fill-opacity="0.3984375"/>
  <rect x="4" y="11" width="1" height="2" fill="rgb(250,248,248)" fill-opacity="0.421875"/>
  <rect x="4" y="13" width="1" height="1" fill="rgb(237,225,225)" fill-opacity="0.3984375"/>
  <rect x="4" y="14" width="1" height="1" fill="rgb(185,144,144)" fill-opacity="0.390625"/>
  <rect x="4" y="15" width="1" height="1" fill="rgb(94,8,8)" fill-opacity="0.3984375"/>
  <rect x="4" y="16" width="1" height="1" fill="rgb(82,0,0)" fill-opacity="0.125"/>
  <rect x="4" y="17" width="1" height="4" fill="rgb(255,255,255)" fill-opacity="0.0078125"/>
  <rect x="5" y="0" width="1" height="6" fill="rgb(255,255,255)" fill-opacity="0.0078125"/>
  <rect x="5" y="6" width="1" height="1" fill="rgb(93,0,0)" fill-opacity="0.1328125"/>
  <rect x="5" y="7" width="1" height="1" fill="rgb(110,37,37)" fill-opacity="0.4140625"/>
  <rect x="5" y="8" width="1" height="1" fill="rgb(243,230,230)" fill-opacity="0.40625"/>
  <rect x="5" y="9" width="1" height="1" fill="rgb(248,233,233)" fill-opacity="0.40625"/>
  <rect x="5" y="10" width="1" height="1" fill="rgb(232,182,182)" fill-opacity="0.34375"/>
  <rect x="5" y="11" width="1" height="1" fill="rgb(227,159,159)" fill-opacity="0.328125"/>
  <rect x="5" y="12" width="1" height="1" fill="rgb(230,164,164)" fill-opacity="0.3203125"/>
  <rect x="5" y="13" width="1" height="1" fill="rgb(243,198,198)" fill-opacity="0.3359375"/>
  <rect x="5" y="14" width="1" height="1" fill="rgb(250,238,238)" fill-opacity="0.40625"/>
  <rect x="5" y="15" width="1" height="1" fill="rgb(240,227,227)" fill-opacity="0.3984375"/>
  <rect x="5" y="16" width="1" height="1" fill="rgb(108,32,32)" fill-opacity="0.4140625"/>
  <rect x="5" y="17" width="1" height="1" fill="rgb(93,0,0)" fill-opacity="0.1328125"/>
  <rect x="5" y="18" width="1" height="3" fill="rgb(255,255,255)" fill-opacity="0.0078125"/>
  <rect x="6" y="0" width="1" height="5" fill="rgb(255,255,255)" fill-opacity="0.0078125"/>
  <rect x="6" y="5" width="1" height="1" fill="rgb(109,0,0)" fill-opacity="0.03125"/>
  <rect x="6" y="6" width="1" height="1" fill="rgb(93,8,8)" fill-opacity="0.3984375"/>
  <rect x="6" y="7" width="1" height="1" fill="rgb(243,233,233)" fill-opacity="0.40625"/>
  <rect x="6" y="8" width="1" height="1" fill="rgb(239,204,204)" fill-opacity="0.375"/>
  <rect x="6" y="9" width="1" height="1" fill="rgb(167,106,106)" fill-opacity="0.3828125"/>
  <rect x="6" y="10" width="1" height="1" fill="rgb(45,39,39)" fill-opacity="0.84375"/>
  <rect x="6" y="11" width="1" height="1" fill="rgb(26,25,25)" fill-opacity="0.9609375"/>
  <rect x="6" y="12" width="1" height="1" fill="rgb(27,26,26)" fill-opacity="0.9609375"/>
  <rect x="6" y="13" width="1" height="1" fill="rgb(44,40,40)" fill-opacity="0.859375"/>
  <rect x="6" y="14" width="1" height="1" fill="rgb(164,120,120)" fill-opacity="0.390625"/>
  <rect x="6" y="15" width="1" height="1" fill="rgb(246,221,221)" fill-opacity="0.3515625"/>
  <rect x="6" y="16" width="1" height="1" fill="rgb(232,216,216)" fill-opacity="0.390625"/>
  <rect x="6" y="17" width="1" height="1" fill="rgb(93,8,8)" fill-opacity="0.3984375"/>
  <rect x="6" y="18" width="1" height="1" fill="rgb(109,0,0)" fill-opacity="0.03125"/>
  <rect x="6" y="19" width="1" height="2" fill="rgb(255,255,255)" fill-opacity="0.0078125"/>
  <rect x="7" y="0" width="1" height="5" fill="rgb(255,255,255)" fill-opacity="0.0078125"/>
  <rect x="7" y="5" width="1" height="1" fill="rgb(91,4,4)" fill-opacity="0.234375"/>
  <rect x="7" y="6" width="1" height="1" fill="rgb(188,149,149)" fill-opacity="0.390625"/>
  <rect x="7" y="7" width="1" height="1" fill="rgb(248,228,228)" fill-opacity="0.40625"/>
  <rect x="7" y="8" width="1" height="1" fill="rgb(161,101,101)" fill-opacity="0.390625"/>
  <rect x="7" y="9" width="1" height="1" fill="rgb(27,26,26)" fill-opacity="0.9609375"/>
  <rect x="7" y="10" width="1" height="1" fill="rgb(187,186,186)" fill-opacity="0.984375"/>
  <rect x="7" y="11" width="1" height="1" fill="rgb(249,248,248)" fill-opacity="0.984375"/>
  <rect x="7" y="12" width="1" height="1" fill="rgb(248,247,247)" fill-opacity="0.984375"/>
  <rect x="7" y="13" width="1" height="1" fill="rgb(176,175,175)" fill-opacity="0.984375"/>
  <rect x="7" y="14" width="1" height="1" fill="rgb(26,25,25)" fill-opacity="0.9609375"/>
  <rect x="7" y="15" width="1" height="1" fill="rgb(166,129,129)" fill-opacity="0.375"/>
  <rect x="7" y="16" width="1" height="1" fill="rgb(252,238,238)" fill-opacity="0.359375"/>
  <rect x="7" y="17" width="1" height="1" fill="rgb(170,120,120)" fill-opacity="0.3828125"/>
  <rect x="7" y="18" width="1" height="1" fill="rgb(91,4,4)" fill-opacity="0.234375"/>
  <rect x="7" y="19" width="1" height="2" fill="rgb(255,255,255)" fill-opacity="0.0078125"/>
  <rect x="8" y="0" width="1" height="5" fill="rgb(255,255,255)" fill-opacity="0.0078125"/>
  <rect x="8" y="5" width="1" height="1" fill="rgb(93,12,12)" fill-opacity="0.3359375"/>
  <rect x="8" y="6" width="1" height="1" fill="rgb(238,228,228)" fill-opacity="0.40625"/>
  <rect x="8" y="7" width="1" height="1" fill="rgb(229,173,173)" fill-opacity="0.34375"/>
  <rect x="8" y="8" width="1" height="1" fill="rgb(49,43,43)" fill-opacity="0.8125"/>
  <rect x="8" y="9" width="1" height="1" fill="rgb(189,189,189)" fill-opacity="0.984375"/>
  <rect x="8" y="10" width="1" height="1" fill="rgb(252,251,251)" fill-opacity="0.984375"/>
  <rect x="8" y="11" width="1" height="1" fill="rgb(247,246,246)" fill-opacity="0.984375"/>
  <rect x="8" y="12" width="1" height="1" fill="rgb(245,244,244)" fill-opacity="0.984375"/>
  <rect x="8" y="13" width="1" height="1" fill="rgb(239,239,239)" fill-opacity="0.984375"/>
  <rect x="8" y="14" width="1" height="1" fill="rgb(156,155,155)" fill-opacity="0.984375"/>
  <rect x="8" y="15" width="1" height="1" fill="rgb(46,41,41)" fill-opacity="0.8515625"/>
  <rect x="8" y="16" width="1" height="1" fill="rgb(248,213,213)" fill-opacity="0.3125"/>
  <rect x="8" y="17" width="1" height="1" fill="rgb(222,191,191)" fill-opacity="0.3671875"/>
  <rect x="8" y="18" width="1" height="1" fill="rgb(93,12,12)" fill-opacity="0.3359375"/>
  <rect x="8" y="19" width="1" height="2" fill="rgb(255,255,255)" fill-opacity="0.0078125"/>
  <rect x="9" y="0" width="1" height="5" fill="rgb(255,255,255)" fill-opacity="0.0078125"/>
  <rect x="9" y="5" width="1" height="1" fill="rgb(90,5,5)" fill-opacity="0.4140625"/>
  <rect x="9" y="6" width="1" height="1" fill="rgb(255,253,253)" fill-opacity="0.421875"/>
  <rect x="9" y="7" width="1" height="1" fill="rgb(224,149,149)" fill-opacity="0.328125"/>
  <rect x="9" y="8" width="1" height="1" fill="rgb(43,41,41)" fill-opacity="0.9375"/>
  <rect x="9" y="9" width="1" height="1" fill="rgb(249,249,249)" fill-opacity="0.984375"/>
  <rect x="9" y="10" width="1" height="1" fill="rgb(247,246,246)" fill-opacity="0.984375"/>
  <rect x="9" y="11" width="1" height="1" fill="rgb(249,248,248)" fill-opacity="0.984375"/>
  <rect x="9" y="12" width="1" height="1" fill="rgb(228,228,228)" fill-opacity="0.984375"/>
  <rect x="9" y="13" width="1" height="1" fill="rgb(196,195,195)" fill-opacity="0.984375"/>
  <rect x="9" y="14" width="1" height="1" fill="rgb(193,193,193)" fill-opacity="0.984375"/>
  <rect x="9" y="15" width="1" height="1" fill="rgb(26,25,25)" fill-opacity="0.9609375"/>
  <rect x="9" y="16" width="1" height="1" fill="rgb(248,205,205)" fill-opacity="0.2890625"/>
  <rect x="9" y="17" width="1" height="1" fill="rgb(241,221,221)" fill-opacity="0.359375"/>
  <rect x="9" y="18" width="1" height="1" fill="rgb(90,5,5)" fill-opacity="0.4140625"/>
  <rect x="9" y="19" width="1" height="2" fill="rgb(255,255,255)" fill-opacity="0.0078125"/>
  <rect x="10" y="0" width="1" height="5" fill="rgb(255,255,255)" fill-opacity="0.0078125"/>
  <rect x="10" y="5" width="1" height="1" fill="rgb(90,5,5)" fill-opacity="0.4140625"/>
  <rect x="10" y="6" width="1" height="1" fill="rgb(253,250,250)" fill-opacity="0.4296875"/>
  <rect x="10" y="7" width="1" height="1" fill="rgb(196,135,135)" fill-opacity="0.359375"/>
  <rect x="10" y="8" width="1" height="1" fill="rgb(65,64,64)" fill-opacity="0.953125"/>
  <rect x="10" y="9" width="1" height="1" fill="rgb(250,249,249)" fill-opacity="0.984375"/>
  <rect x="10" y="10" width="1" height="1" fill="rgb(245,244,244)" fill-opacity="0.984375"/>
  <rect x="10" y="11" width="1" height="1" fill="rgb(229,228,228)" fill-opacity="0.984375"/>
  <rect x="10" y="12" width="1" height="1" fill="rgb(187,187,187)" fill-opacity="0.984375"/>
  <rect x="10" y="13" width="1" height="1" fill="rgb(168,168,168)" fill-opacity="0.984375"/>
  <rect x="10" y="14" width="1" height="1" fill="rgb(166,165,165)" fill-opacity="0.984375"/>
  <rect x="10" y="15" width="1" height="1" fill="rgb(26,25,25)" fill-opacity="0.9609375"/>
  <rect x="10" y="16" width="1" height="1" fill="rgb(248,212,212)" fill-opacity="0.28125"/>
  <rect x="10" y="17" width="1" height="1" fill="rgb(240,220,220)" fill-opacity="0.34375"/>
  <rect x="10" y="18" width="1" height="1" fill="rgb(90,5,5)" fill-opacity="0.4140625"/>
  <rect x="10" y="19" width="1" height="2" fill="rgb(255,255,255)" fill-opacity="0.0078125"/>
  <rect x="11" y="0" width="1" height="5" fill="rgb(255,255,255)" fill-opacity="0.0078125"/>
  <rect x="11" y="5" width="1" height="1" fill="rgb(91,12,12)" fill-opacity="0.34375"/>
  <rect x="11" y="6" width="1" height="1" fill="rgb(224,213,213)" fill-opacity="0.4296875"/>
  <rect x="11" y="7" width="1" height="1" fill="rgb(100,84,84)" fill-opacity="0.6953125"/>
  <rect x="11" y="8" width="1" height="1" fill="rgb(130,126,126)" fill-opacity="0.9140625"/>
  <rect x="11" y="9" width="1" height="1" fill="rgb(202,202,202)" fill-opacity="0.984375"/>
  <rect x="11" y="10" width="1" height="1" fill="rgb(236,236,236)" fill-opacity="0.984375"/>
  <rect x="11" y="11" width="1" height="1" fill="rgb(195,194,194)" fill-opacity="0.984375"/>
  <rect x="11" y="12" width="1" height="1" fill="rgb(168,167,167)" fill-opacity="0.984375"/>
  <rect x="11" y="13" width="1" height="1" fill="rgb(158,157,157)" fill-opacity="0.984375"/>
  <rect x="11" y="14" width="1" height="1" fill="rgb(114,113,113)" fill-opacity="0.984375"/>
  <rect x="11" y="15" width="1" height="1" fill="rgb(45,42,42)" fill-opacity="0.84375"/>
  <rect x="11" y="16" width="1" height="1" fill="rgb(252,224,224)" fill-opacity="0.2890625"/>
  <rect x="11" y="17" width="1" height="1" fill="rgb(206,168,168)" fill-opacity="0.3515625"/>
  <rect x="11" y="18" width="1" height="1" fill="rgb(91,12,12)" fill-opacity="0.34375"/>
  <rect x="11" y="19" width="1" height="2" fill="rgb(255,255,255)" fill-opacity="0.0078125"/>
  <rect x="12" y="0" width="1" height="4" fill="rgb(255,255,255)" fill-opacity="0.0078125"/>
  <rect x="12" y="4" width="1" height="1" fill="rgb(24,24,24)" fill-opacity="0.0859375"/>
  <rect x="12" y="5" width="1" height="1" fill="rgb(55,32,32)" fill-opacity="0.5703125"/>
  <rect x="12" y="6" width="1" height="1" fill="rgb(109,101,101)" fill-opacity="0.8359375"/>
  <rect x="12" y="7" width="1" height="1" fill="rgb(207,202,202)" fill-opacity="0.875"/>
  <rect x="12" y="8" width="1" height="1" fill="rgb(228,219,219)" fill-opacity="0.8671875"/>
  <rect x="12" y="9" width="1" height="1" fill="rgb(108,107,107)" fill-opacity="0.953125"/>
  <rect x="12" y="10" width="1" height="1" fill="rgb(179,179,179)" fill-opacity="0.984375"/>
  <rect x="12" y="11" width="1" height="1" fill="rgb(192,191,191)" fill-opacity="0.984375"/>
  <rect x="12" y="12" width="1" height="1" fill="rgb(165,164,164)" fill-opacity="0.984375"/>
  <rect x="12" y="13" width="1" height="1" fill="rgb(114,114,114)" fill-opacity="0.984375"/>
  <rect x="12" y="14" width="1" height="1" fill="rgb(22,21,21)" fill-opacity="0.96875"/>
  <rect x="12" y="15" width="1" height="1" fill="rgb(175,149,149)" fill-opacity="0.3515625"/>
  <rect x="12" y="16" width="1" height="1" fill="rgb(252,232,232)" fill-opacity="0.3125"/>
  <rect x="12" y="17" width="1" height="1" fill="rgb(148,88,88)" fill-opacity="0.3671875"/>
  <rect x="12" y="18" width="1" height="1" fill="rgb(89,4,4)" fill-opacity="0.2421875"/>
  <rect x="12" y="19" width="1" height="2" fill="rgb(255,255,255)" fill-opacity="0.0078125"/>
  <rect x="13" y="0" width="1" height="3" fill="rgb(255,255,255)" fill-opacity="0.0078125"/>
  <rect x="13" y="3" width="1" height="1" fill="rgb(19,19,19)" fill-opacity="0.109375"/>
  <rect x="13" y="4" width="1" height="1" fill="rgb(104,104,104)" fill-opacity="0.75"/>
  <rect x="13" y="5" width="1" height="1" fill="rgb(230,230,230)" fill-opacity="0.8046875"/>
  <rect x="13" y="6" width="1" height="1" fill="rgb(216,200,200)" fill-opacity="0.8828125"/>
  <rect x="13" y="7" width="1" height="1" fill="rgb(241,238,238)" fill-opacity="0.8828125"/>
  <rect x="13" y="8" width="1" height="1" fill="rgb(217,213,213)" fill-opacity="0.875"/>
  <rect x="13" y="9" width="1" height="1" fill="rgb(196,187,187)" fill-opacity="0.8671875"/>
  <rect x="13" y="10" width="1" height="1" fill="rgb(104,100,100)" fill-opacity="0.9140625"/>
  <rect x="13" y="11" width="1" height="1" fill="rgb(58,56,56)" fill-opacity="0.9453125"/>
  <rect x="13" y="12" width="1" height="1" fill="rgb(47,46,46)" fill-opacity="0.9296875"/>
  <rect x="13" y="13" width="1" height="1" fill="rgb(53,48,48)" fill-opacity="0.8125"/>
  <rect x="13" y="14" width="1" height="1" fill="rgb(178,146,146)" fill-opacity="0.3515625"/>
  <rect x="13" y="15" width="1" height="1" fill="rgb(252,224,224)" fill-opacity="0.296875"/>
  <rect x="13" y="16" width="1" height="1" fill="rgb(207,171,171)" fill-opacity="0.3359375"/>
  <rect x="13" y="17" width="1" height="1" fill="rgb(90,8,8)" fill-opacity="0.40625"/>
  <rect x="13" y="18" width="1" height="1" fill="rgb(109,0,0)" fill-opacity="0.03125"/>
  <rect x="13" y="19" width="1" height="2" fill="rgb(255,255,255)" fill-opacity="0.0078125"/>
  <rect x="14" y="0" width="1" height="3" fill="rgb(255,255,255)" fill-opacity="0.0078125"/>
  <rect x="14" y="3" width="1" height="1" fill="rgb(43,43,43)" fill-opacity="0.46875"/>
  <rect x="14" y="4" width="1" height="1" fill="rgb(236,236,236)" fill-opacity="0.796875"/>
  <rect x="14" y="5" width="1" height="1" fill="rgb(239,239,239)" fill-opacity="0.8046875"/>
  <rect x="14" y="6" width="1" height="1" fill="rgb(220,214,214)" fill-opacity="0.828125"/>
  <rect x="14" y="7" width="1" height="1" fill="rgb(182,169,169)" fill-opacity="0.8828125"/>
  <rect x="14" y="8" width="1" height="1" fill="rgb(199,196,196)" fill-opacity="0.875"/>
  <rect x="14" y="9" width="1" height="1" fill="rgb(156,153,153)" fill-opacity="0.8671875"/>
  <rect x="14" y="10" width="1" height="1" fill="rgb(94,83,83)" fill-opacity="0.703125"/>
  <rect x="14" y="11" width="1" height="1" fill="rgb(199,161,161)" fill-opacity="0.34375"/>
  <rect x="14" y="12" width="1" height="1" fill="rgb(244,202,202)" fill-opacity="0.2890625"/>
  <rect x="14" y="13" width="1" height="1" fill="rgb(245,217,217)" fill-opacity="0.296875"/>
  <rect x="14" y="14" width="1" height="1" fill="rgb(252,229,229)" fill-opacity="0.3125"/>
  <rect x="14" y="15" width="1" height="1" fill="rgb(207,168,168)" fill-opacity="0.3359375"/>
  <rect x="14" y="16" width="1" height="1" fill="rgb(96,17,17)" fill-opacity="0.4140625"/>
  <rect x="14" y="17" width="1" height="1" fill="rgb(85,0,0)" fill-opacity="0.1484375"/>
  <rect x="14" y="18" width="1" height="3" fill="rgb(255,255,255)" fill-opacity="0.0078125"/>
  <rect x="15" y="0" width="1" height="3" fill="rgb(255,255,255)" fill-opacity="0.0078125"/>
  <rect x="15" y="3" width="1" height="1" fill="rgb(60,60,60)" fill-opacity="0.71875"/>
  <rect x="15" y="4" width="1" height="1" fill="rgb(250,250,250)" fill-opacity="0.8046875"/>
  <rect x="15" y="5" width="1" height="1" fill="rgb(230,230,230)" fill-opacity="0.8046875"/>
  <rect x="15" y="6" width="1" height="1" fill="rgb(198,198,198)" fill-opacity="0.8046875"/>
  <rect x="15" y="7" width="1" height="1" fill="rgb(157,151,151)" fill-opacity="0.828125"/>
  <rect x="15" y="8" width="1" height="1" fill="rgb(148,132,132)" fill-opacity="0.8828125"/>
  <rect x="15" y="9" width="1" height="1" fill="rgb(77,65,65)" fill-opacity="0.8359375"/>
  <rect x="15" y="10" width="1" height="1" fill="rgb(199,173,173)" fill-opacity="0.3984375"/>
  <rect x="15" y="11" width="1" height="1" fill="rgb(241,221,221)" fill-opacity="0.3515625"/>
  <rect x="15" y="12" width="1" height="1" fill="rgb(243,219,219)" fill-opacity="0.34375"/>
  <rect x="15" y="13" width="1" height="1" fill="rgb(203,168,168)" fill-opacity="0.3515625"/>
  <rect x="15" y="14" width="1" height="1" fill="rgb(148,88,88)" fill-opacity="0.3671875"/>
  <rect x="15" y="15" width="1" height="1" fill="rgb(89,7,7)" fill-opacity="0.40625"/>
  <rect x="15" y="16" width="1" height="1" fill="rgb(90,0,0)" fill-opacity="0.140625"/>
  <rect x="15" y="17" width="1" height="4" fill="rgb(255,255,255)" fill-opacity="0.0078125"/>
  <rect x="16" y="0" width="1" height="3" fill="rgb(255,255,255)" fill-opacity="0.0078125"/>
  <rect x="16" y="3" width="1" height="1" fill="rgb(44,44,44)" fill-opacity="0.4765625"/>
  <rect x="16" y="4" width="1" height="1" fill="rgb(217,217,217)" fill-opacity="0.796875"/>
  <rect x="16" y="5" width="1" height="1" fill="rgb(208,208,208)" fill-opacity="0.8046875"/>
  <rect x="16" y="6" width="1" height="1" fill="rgb(158,158,158)" fill-opacity="0.8046875"/>
  <rect x="16" y="7" width="1" height="1" fill="rgb(140,140,140)" fill-opacity="0.8046875"/>
  <rect x="16" y="8" width="1" height="1" fill="rgb(138,137,137)" fill-opacity="0.8046875"/>
  <rect x="16" y="9" width="1" height="1" fill="rgb(54,40,40)" fill-opacity="0.7265625"/>
  <rect x="16" y="10" width="1" height="1" fill="rgb(93,12,12)" fill-opacity="0.3359375"/>
  <rect x="16" y="11" width="1" height="2" fill="rgb(90,5,5)" fill-opacity="0.4140625"/>
  <rect x="16" y="13" width="1" height="1" fill="rgb(93,12,12)" fill-opacity="0.3359375"/>
  <rect x="16" y="14" width="1" height="1" fill="rgb(89,4,4)" fill-opacity="0.2421875"/>
  <rect x="16" y="15" width="1" height="1" fill="rgb(96,0,0)" fill-opacity="0.0390625"/>
  <rect x="16" y="16" width="1" height="5" fill="rgb(255,255,255)" fill-opacity="0.0078125"/>
  <rect x="17" y="0" width="1" height="3" fill="rgb(255,255,255)" fill-opacity="0.0078125"/>
  <rect x="17" y="3" width="1" height="1" fill="rgb(19,19,19)" fill-opacity="0.109375"/>
  <rect x="17" y="4" width="1" height="1" fill="rgb(82,82,82)" fill-opacity="0.7578125"/>
  <rect x="17" y="5" width="1" height="1" fill="rgb(182,182,182)" fill-opacity="0.796875"/>
  <rect x="17" y="6" width="1" height="1" fill="rgb(168,168,168)" fill-opacity="0.8046875"/>
  <rect x="17" y="7" width="1" height="1" fill="rgb(123,123,123)" fill-opacity="0.796875"/>
  <rect x="17" y="8" width="1" height="1" fill="rgb(50,50,50)" fill-opacity="0.75"/>
  <rect x="17" y="9" width="1" height="1" fill="rgb(28,28,28)" fill-opacity="0.1875"/>
  <rect x="17" y="10" width="1" height="11" fill="rgb(255,255,255)" fill-opacity="0.0078125"/>
  <rect x="18" y="0" width="1" height="4" fill="rgb(255,255,255)" fill-opacity="0.0078125"/>
  <rect x="18" y="4" width="1" height="1" fill="rgb(26,26,26)" fill-opacity="0.125"/>
  <rect x="18" y="5" width="1" height="1" fill="rgb(45,45,45)" fill-opacity="0.5"/>
  <rect x="18" y="6" width="1" height="1" fill="rgb(48,48,48)" fill-opacity="0.734375"/>
  <rect x="18" y="7" width="1" height="1" fill="rgb(45,45,45)" fill-opacity="0.4921875"/>
  <rect x="18" y="8" width="1" height="1" fill="rgb(26,26,26)" fill-opacity="0.1171875"/>
  <rect x="18" y="9" width="1" height="12" fill="rgb(255,255,255)" fill-opacity="0.0078125"/>
  <rect x="19" y="0" width="1" height="21" fill="rgb(255,255,255)" fill-opacity="0.0078125"/>
  <rect x="20" y="0" width="1" height="21" fill="rgb(255,255,255)" fill-opacity="0.0078125"/>
</svg>