<svg xmlns="http://www.w3.org/2000/svg" shape-rendering="crispEdges" width="21" height="21" viewBox="0 0 21 21">
  <rect x="0" y="0" width="1" height="21" fill="rgb(255,255,255)" fill-opacity="0.0078125"/>
  <rect x="1" y="0" width="1" height="21" fill="rgb(255,255,255)" fill-opacity="0.0078125"/>
  <rect x="2" y="0" width="1" height="21" fill="rgb(255,255,255)" fill-opacity="0.0078125"/>
  <rect x="3" y="0" width="1" height="21" fill="rgb(255,255,255)" fill-opacity="0.0078125"/>
  <rect x="4" y="0" width="1" height="14" fill="rgb(255,255,255)" fill-opacity="0.0078125"/>
  <rect x="4" y="14" width="1" height="1" fill="rgb(44,22,0)" fill-opacity="0.4140625"/>
  <rect x="4" y="15" width="1" height="1" fill="rgb(44,23,0)" fill-opacity="0.921875"/>
  <rect x="4" y="16" width="1" height="1" fill="rgb(44,23,0)" fill-opacity="0.9140625"/>
  <rect x="4" y="17" width="1" height="1" fill="rgb(44,22,0)" fill-opacity="0.4140625"/>
  <rect x="4" y="18" width="1" height="3" fill="rgb(255,255,255)" fill-opacity="0.0078125"/>
  <rect x="5" y="0" width="1" height="13" fill="rgb(255,255,255)" fill-opacity="0.0078125"/>
  <rect x="5" y="13" width="1" height="1" fill="rgb(36,36,0)" fill-opacity="0.03125"/>
  <rect x="5" y="14" width="1" height="1" fill="rgb(54,29,0)" fill-opacity="0.9765625"/>
  <rect x="5" y="15" width="1" height="1" fill="rgb(240,189,134)"/>
  <rect x="5" y="16" width="1" height="1" fill="rgb(240,186,129)"/>
  <rect x="5" y="17" width="1" height="1" fill="rgb(44,23,0)" fill-opacity="0.9140625"/>
  <rect x="5" y="18" width="1" height="3" fill="rgb(255,255,255)" fill-opacity="0.0078125"/>
  <rect x="6" y="0" width="1" height="13" fill="rgb(255,255,255)" fill-opacity="0.0078125"/>
  <rect x="6" y="13" width="1" height="1" fill="rgb(44,23,0)" fill-opacity="0.53125"/>
  <rect x="6" y="14" width="1" height="1" fill="rgb(157,99,37)"/>
  <rect x="6" y="15" width="1" height="1" fill="rgb(240,186,129)"/>
  <rect x="6" y="16" width="1" height="1" fill="rgb(224,116,0)"/>
  <rect x="6" y="17" width="1" height="1" fill="rgb(44,23,0)" fill-opacity="0.9140625"/>
  <rect x="6" y="18" width="1" height="3" fill="rgb(255,255,255)" fill-opacity="0.0078125"/>
  <rect x="7" y="0" width="1" height="12" fill="rgb(255,255,255)" fill-opacity="0.0078125"/>
  <rect x="7" y="12" width="1" height="1" fill="rgb(42,21,0)" fill-opacity="0.1953125"/>
  <rect x="7" y="13" width="1" height="1" fill="rgb(114,74,28)" fill-opacity="0.9921875"/>
  <rect x="7" y="14" width="1" height="1" fill="rgb(191,130,66)"/>
  <rect x="7" y="15" width="1" height="1" fill="rgb(162,90,13)"/>
  <rect x="7" y="16" width="1" height="1" fill="rgb(51,28,0)" fill-opacity="0.9765625"/>
  <rect x="7" y="17" width="1" height="1" fill="rgb(44,22,0)" fill-opacity="0.4140625"/>
  <rect x="7" y="18" width="1" height="3" fill="rgb(255,255,255)" fill-opacity="0.0078125"/>
  <rect x="8" y="0" width="1" height="11" fill="rgb(255,255,255)" fill-opacity="0.0078125"/>
  <rect x="8" y="11" width="1" height="1" fill="rgb(64,0,0)" fill-opacity="0.0234375"/>
  <rect x="8" y="12" width="1" height="1" fill="rgb(69,38,7)" fill-opacity="0.8359375"/>
  <rect x="8" y="13" width="1" height="1" fill="rgb(201,135,65)"/>
  <rect x="8" y="14" width="1" height="1" fill="rgb(193,106,13)"/>
  <rect x="8" y="15" width="1" height="1" fill="rgb(85,44,0)" fill-opacity="0.9765625"/>
  <rect x="8" y="16" width="1" height="1" fill="rgb(45,23,0)" fill-opacity="0.140625"/>
  <rect x="8" y="17" width="1" height="4" fill="rgb(255,255,255)" fill-opacity="0.0078125"/>
  <rect x="9" y="0" width="1" height="4" fill="rgb(255,255,255)" fill-opacity="0.0078125"/>
  <rect x="9" y="4" width="1" height="1" fill="rgb(44,22,0)" fill-opacity="0.4140625"/>
  <rect x="9" y="5" width="1" height="1" fill="rgb(44,23,0)" fill-opacity="0.9296875"/>
  <rect x="9" y="6" width="1" height="1" fill="rgb(44,23,0)" fill-opacity="0.96875"/>
  <rect x="9" y="7" width="1" height="1" fill="rgb(44,23,0)" fill-opacity="0.8046875"/>
  <rect x="9" y="8" width="1" height="3" fill="rgb(44,23,0)" fill-opacity="0.6640625"/>
  <rect x="9" y="11" width="1" height="1" fill="rgb(45,24,0)" fill-opacity="0.7578125"/>
  <rect x="9" y="12" width="1" height="1" fill="rgb(172,112,44)"/>
  <rect x="9" y="13" width="1" height="1" fill="rgb(196,120,38)"/>
  <rect x="9" y="14" width="1" height="1" fill="rgb(144,76,0)"/>
  <rect x="9" y="15" width="1" height="1" fill="rgb(44,22,0)" fill-opacity="0.453125"/>
  <rect x="9" y="16" width="1" height="5" fill="rgb(255,255,255)" fill-opacity="0.0078125"/>
  <rect x="10" y="0" width="1" height="4" fill="rgb(255,255,255)" fill-opacity="0.0078125"/>
  <rect x="10" y="4" width="1" height="1" fill="rgb(44,23,0)" fill-opacity="0.9140625"/>
  <rect x="10" y="5" width="1" height="1" fill="rgb(255,242,226)"/>
  <rect x="10" y="6" width="1" height="1" fill="rgb(255,241,224)"/>
  <rect x="10" y="7" width="1" height="1" fill="rgb(224,155,79)"/>
  <rect x="10" y="8" width="1" height="3" fill="rgb(255,173,86)"/>
  <rect x="10" y="11" width="1" height="1" fill="rgb(249,166,76)"/>
  <rect x="10" y="12" width="1" height="1" fill="rgb(254,236,203)"/>
  <rect x="10" y="13" width="1" height="1" fill="rgb(252,233,201)"/>
  <rect x="10" y="14" width="1" height="1" fill="rgb(63,34,0)" fill-opacity="0.828125"/>
  <rect x="10" y="15" width="1" height="1" fill="rgb(85,0,0)" fill-opacity="0.015625"/>
  <rect x="10" y="16" width="1" height="5" fill="rgb(255,255,255)" fill-opacity="0.0078125"/>
  <rect x="11" y="0" width="1" height="4" fill="rgb(255,255,255)" fill-opacity="0.0078125"/>
  <rect x="11" y="4" width="1" height="1" fill="rgb(44,23,0)" fill-opacity="0.9140625"/>
  <rect x="11" y="5" width="1" height="1" fill="rgb(255,239,220)"/>
  <rect x="11" y="6" width="1" height="1" fill="rgb(255,154,45)"/>
  <rect x="11" y="7" width="1" height="1" fill="rgb(216,128,32)"/>
  <rect x="11" y="8" width="1" height="3" fill="rgb(255,146,29)"/>
  <rect x="11" y="11" width="1" height="1" fill="rgb(248,142,28)"/>
  <rect x="11" y="12" width="1" height="2" fill="rgb(255,241,213)"/>
  <rect x="11" y="14" width="1" height="1" fill="rgb(66,42,14)" fill-opacity="0.796875"/>
  <rect x="11" y="15" width="1" height="1" fill="rgb(0,0,0)" fill-opacity="0.0078125"/>
  <rect x="11" y="16" width="1" height="5" fill="rgb(255,255,255)" fill-opacity="0.0078125"/>
  <rect x="12" y="0" width="1" height="4" fill="rgb(255,255,255)" fill-opacity="0.0078125"/>
  <rect x="12" y="4" width="1" height="1" fill="rgb(44,22,0)" fill-opacity="0.4140625"/>
  <rect x="12" y="5" width="1" height="1" fill="rgb(44,23,0)" fill-opacity="0.9296875"/>
  <rect x="12" y="6" width="1" height="1" fill="rgb(44,23,0)" fill-opacity="0.96875"/>
  <rect x="12" y="7" width="1" height="1" fill="rgb(44,23,0)" fill-opacity="0.8046875"/>
  <rect x="12" y="8" width="1" height="3" fill="rgb(44,23,0)" fill-opacity="0.6640625"/>
  <rect x="12" y="11" width="1" height="1" fill="rgb(44,24,0)" fill-opacity="0.765625"/>
  <rect x="12" y="12" width="1" height="1" fill="rgb(214,181,140)"/>
  <rect x="12" y="13" width="1" height="1" fill="rgb(237,202,155)"/>
  <rect x="12" y="14" width="1" height="1" fill="rgb(169,136,94)"/>
  <rect x="12" y="15" width="1" height="1" fill="rgb(44,22,0)" fill-opacity="0.4140625"/>
  <rect x="12" y="16" width="1" height="5" fill="rgb(255,255,255)" fill-opacity="0.0078125"/>
  <rect x="13" y="0" width="1" height="11" fill="rgb(255,255,255)" fill-opacity="0.0078125"/>
  <rect x="13" y="11" width="1" height="1" fill="rgb(43,43,0)" fill-opacity="0.03125"/>
  <rect x="13" y="12" width="1" height="1" fill="rgb(81,59,32)" fill-opacity="0.8671875"/>
  <rect x="13" y="13" width="1" height="1" fill="rgb(244,222,198)"/>
  <rect x="13" y="14" width="1" height="1" fill="rgb(252,221,188)"/>
  <rect x="13" y="15" width="1" height="1" fill="rgb(99,75,48)" fill-opacity="0.9609375"/>
  <rect x="13" y="16" width="1" height="1" fill="rgb(47,19,0)" fill-opacity="0.109375"/>
  <rect x="13" y="17" width="1" height="4" fill="rgb(255,255,255)" fill-opacity="0.0078125"/>
  <rect x="14" y="0" width="1" height="12" fill="rgb(255,255,255)" fill-opacity="0.0078125"/>
  <rect x="14" y="12" width="1" height="1" fill="rgb(46,23,0)" fill-opacity="0.2265625"/>
  <rect x="14" y="13" width="1" height="1" fill="rgb(154,134,110)"/>
  <rect x="14" y="14" width="1" height="1" fill="rgb(219,193,164)"/>
  <rect x="14" y="15" width="1" height="1" fill="rgb(197,163,125)"/>
  <rect x="14" y="16" width="1" height="1" fill="rgb(51,29,6)" fill-opacity="0.9765625"/>
  <rect x="14" y="17" width="1" height="1" fill="rgb(44,22,0)" fill-opacity="0.4140625"/>
  <rect x="14" y="18" width="1" height="3" fill="rgb(255,255,255)" fill-opacity="0.0078125"/>
  <rect x="15" y="0" width="1" height="13" fill="rgb(255,255,255)" fill-opacity="0.0078125"/>
  <rect x="15" y="13" width="1" height="1" fill="rgb(48,27,4)" fill-opacity="0.5703125"/>
  <rect x="15" y="14" width="1" height="1" fill="rgb(188,160,126)"/>
  <rect x="15" y="15" width="1" height="1" fill="rgb(255,226,195)"/>
  <rect x="15" y="16" width="1" height="1" fill="rgb(255,225,192)"/>
  <rect x="15" y="17" width="1" height="1" fill="rgb(44,23,0)" fill-opacity="0.9140625"/>
  <rect x="15" y="18" width="1" height="3" fill="rgb(255,255,255)" fill-opacity="0.0078125"/>
  <rect x="16" y="0" width="1" height="13" fill="rgb(255,255,255)" fill-opacity="0.0078125"/>
  <rect x="16" y="13" width="1" height="1" fill="rgb(46,23,0)" fill-opacity="0.046875"/>
  <rect x="16" y="14" width="1" height="1" fill="rgb(68,46,21)" fill-opacity="0.984375"/>
  <rect x="16" y="15" width="1" height="1" fill="rgb(255,225,192)"/>
  <rect x="16" y="16" width="1" height="1" fill="rgb(255,202,145)"/>
  <rect x="16" y="17" width="1" height="1" fill="rgb(44,23,0)" fill-opacity="0.9140625"/>
  <rect x="16" y="18" width="1" height="3" fill="rgb(255,255,255)" fill-opacity="0.0078125"/>
  <rect x="17" y="0" width="1" height="14" fill="rgb(255,255,255)" fill-opacity="0.0078125"/>
  <rect x="17" y="14" width="1" height="1" fill="rgb(44,23,0)" fill-opacity="0.4375"/>
  <rect x="17" y="15" width="1" height="1" fill="rgb(44,23,0)" fill-opacity="0.9296875"/>
  <rect x="17" y="16" width="1" height="1" fill="rgb(44,23,0)" fill-opacity="0.9140625"/>
  <rect x="17" y="17" width="1" height="1" fill="rgb(44,22,0)" fill-opacity="0.4140625"/>
  <rect x="17" y="18" width="1" height="3" fill="rgb(255,255,255)" fill-opacity="0.0078125"/>
  <rect x="18" y="0" width="1" height="21" fill="rgb(255,255,255)" fill-opacity="0.0078125"/>
  <rect x="19" y="0" width="1" height="21" fill="rgb(255,255,255)" fill-opacity="0.0078125"/>
  <rect x="20" y="0" width="1" height="21" fill="rgb(255,255,255)" fill-opacity="0.0078125"/>
</svg>