<svg xmlns="http://www.w3.org/2000/svg" shape-rendering="crispEdges" width="21" height="21" viewBox="0 0 21 21">
  <rect x="0" y="0" width="21" height="1" fill="rgb(255,255,255)" fill-opacity="0.0078125"/>
  <rect x="0" y="1" width="21" height="1" fill="rgb(255,255,255)" fill-opacity="0.0078125"/>
  <rect x="0" y="2" width="21" height="1" fill="rgb(255,255,255)" fill-opacity="0.0078125"/>
  <rect x="0" y="3" width="21" height="1" fill="rgb(255,255,255)" fill-opacity="0.0078125"/>
  <rect x="0" y="4" width="4" height="1" fill="rgb(255,255,255)" fill-opacity="0.0078125"/>
  <rect x="4" y="4" width="1" height="1" fill="rgb(48,48,48)" fill-opacity="0.7578125"/>
  <rect x="5" y="4" width="12" height="1" fill="rgb(51,51,51)" fill-opacity="0.890625"/>
  <rect x="17" y="4" width="1" height="1" fill="rgb(48,48,48)" fill-opacity="0.765625"/>
  <rect x="18" y="4" width="3" height="1" fill="rgb(255,255,255)" fill-opacity="0.0078125"/>
  <rect x="0" y="5" width="4" height="1" fill="rgb(255,255,255)" fill-opacity="0.0078125"/>
  <rect x="4" y="5" width="1" height="1" fill="rgb(48,48,48)" fill-opacity="0.9140625"/>
  <rect x="5" y="5" width="1" height="1" fill="rgb(226,189,185)"/>
  <rect x="6" y="5" width="1" height="1" fill="rgb(234,208,205)"/>
  <rect x="7" y="5" width="1" height="1" fill="rgb(232,203,200)"/>
  <rect x="8" y="5" width="2" height="1" fill="rgb(252,252,252)"/>
  <rect x="10" y="5" width="1" height="1" fill="rgb(251,251,251)"/>
  <rect x="11" y="5" width="1" height="1" fill="rgb(224,184,179)"/>
  <rect x="12" y="5" width="1" height="1" fill="rgb(221,178,173)"/>
  <rect x="13" y="5" width="1" height="1" fill="rgb(219,173,168)"/>
  <rect x="14" y="5" width="2" height="1" fill="rgb(251,251,251)"/>
  <rect x="16" y="5" width="1" height="1" fill="rgb(250,250,250)"/>
  <rect x="17" y="5" width="1" height="1" fill="rgb(58,58,58)" fill-opacity="0.8984375"/>
  <rect x="18" y="5" width="3" height="1" fill="rgb(255,255,255)" fill-opacity="0.0078125"/>
  <rect x="0" y="6" width="4" height="1" fill="rgb(255,255,255)" fill-opacity="0.0078125"/>
  <rect x="4" y="6" width="1" height="1" fill="rgb(48,48,48)" fill-opacity="0.9140625"/>
  <rect x="5" y="6" width="1" height="1" fill="rgb(235,209,206)"/>
  <rect x="6" y="6" width="2" height="1" fill="rgb(150,16,0)"/>
  <rect x="8" y="6" width="2" height="1" fill="rgb(242,242,242)"/>
  <rect x="10" y="6" width="1" height="1" fill="rgb(243,243,243)"/>
  <rect x="11" y="6" width="3" height="1" fill="rgb(150,16,0)"/>
  <rect x="14" y="6" width="1" height="1" fill="rgb(244,244,244)"/>
  <rect x="15" y="6" width="1" height="1" fill="rgb(245,245,245)"/>
  <rect x="16" y="6" width="1" height="1" fill="rgb(251,251,251)"/>
  <rect x="17" y="6" width="1" height="1" fill="rgb(59,59,59)" fill-opacity="0.8984375"/>
  <rect x="18" y="6" width="3" height="1" fill="rgb(255,255,255)" fill-opacity="0.0078125"/>
  <rect x="0" y="7" width="4" height="1" fill="rgb(255,255,255)" fill-opacity="0.0078125"/>
  <rect x="4" y="7" width="1" height="1" fill="rgb(48,48,48)" fill-opacity="0.9140625"/>
  <rect x="5" y="7" width="1" height="1" fill="rgb(232,203,200)"/>
  <rect x="6" y="7" width="2" height="1" fill="rgb(150,16,0)"/>
  <rect x="8" y="7" width="1" height="1" fill="rgb(242,242,242)"/>
  <rect x="9" y="7" width="2" height="1" fill="rgb(243,243,243)"/>
  <rect x="11" y="7" width="3" height="1" fill="rgb(150,16,0)"/>
  <rect x="14" y="7" width="1" height="1" fill="rgb(245,245,245)"/>
  <rect x="15" y="7" width="1" height="1" fill="rgb(246,246,246)"/>
  <rect x="16" y="7" width="1" height="1" fill="rgb(251,251,251)"/>
  <rect x="17" y="7" width="1" height="1" fill="rgb(59,59,59)" fill-opacity="0.8984375"/>
  <rect x="18" y="7" width="3" height="1" fill="rgb(255,255,255)" fill-opacity="0.0078125"/>
  <rect x="0" y="8" width="4" height="1" fill="rgb(255,255,255)" fill-opacity="0.0078125"/>
  <rect x="4" y="8" width="1" height="1" fill="rgb(48,48,48)" fill-opacity="0.9140625"/>
  <rect x="5" y="8" width="1" height="1" fill="rgb(252,252,252)"/>
  <rect x="6" y="8" width="2" height="1" fill="rgb(242,242,242)"/>
  <rect x="8" y="8" width="3" height="1" fill="rgb(150,16,0)"/>
  <rect x="11" y="8" width="1" height="1" fill="rgb(244,244,244)"/>
  <rect x="12" y="8" width="2" height="1" fill="rgb(245,245,245)"/>
  <rect x="14" y="8" width="1" height="1" fill="rgb(166,40,22)"/>
  <rect x="15" y="8" width="1" height="1" fill="rgb(174,54,35)"/>
  <rect x="16" y="8" width="1" height="1" fill="rgb(220,165,155)"/>
  <rect x="17" y="8" width="1" height="1" fill="rgb(59,59,59)" fill-opacity="0.8984375"/>
  <rect x="18" y="8" width="3" height="1" fill="rgb(255,255,255)" fill-opacity="0.0078125"/>
  <rect x="0" y="9" width="4" height="1" fill="rgb(255,255,255)" fill-opacity="0.0078125"/>
  <rect x="4" y="9" width="1" height="1" fill="rgb(48,48,48)" fill-opacity="0.9140625"/>
  <rect x="5" y="9" width="1" height="1" fill="rgb(252,252,252)"/>
  <rect x="6" y="9" width="1" height="1" fill="rgb(242,242,242)"/>
  <rect x="7" y="9" width="1" height="1" fill="rgb(243,243,243)"/>
  <rect x="8" y="9" width="3" height="1" fill="rgb(150,16,0)"/>
  <rect x="11" y="9" width="2" height="1" fill="rgb(245,245,245)"/>
  <rect x="13" y="9" width="1" height="1" fill="rgb(246,246,246)"/>
  <rect x="14" y="9" width="1" height="1" fill="rgb(175,55,36)"/>
  <rect x="15" y="9" width="1" height="1" fill="rgb(182,67,48)"/>
  <rect x="16" y="9" width="1" height="1" fill="rgb(223,168,158)"/>
  <rect x="17" y="9" width="1" height="1" fill="rgb(59,59,59)" fill-opacity="0.8984375"/>
  <rect x="18" y="9" width="3" height="1" fill="rgb(255,255,255)" fill-opacity="0.0078125"/>
  <rect x="0" y="10" width="4" height="1" fill="rgb(255,255,255)" fill-opacity="0.0078125"/>
  <rect x="4" y="10" width="1" height="1" fill="rgb(48,48,48)" fill-opacity="0.9140625"/>
  <rect x="5" y="10" width="1" height="1" fill="rgb(251,251,251)"/>
  <rect x="6" y="10" width="2" height="1" fill="rgb(243,243,243)"/>
  <rect x="8" y="10" width="3" height="1" fill="rgb(150,16,0)"/>
  <rect x="11" y="10" width="1" height="1" fill="rgb(245,245,245)"/>
  <rect x="12" y="10" width="2" height="1" fill="rgb(246,246,246)"/>
  <rect x="14" y="10" width="1" height="1" fill="rgb(184,69,50)"/>
  <rect x="15" y="10" width="1" height="1" fill="rgb(191,82,63)"/>
  <rect x="16" y="10" width="1" height="1" fill="rgb(226,172,162)"/>
  <rect x="17" y="10" width="1" height="1" fill="rgb(60,60,60)" fill-opacity="0.8984375"/>
  <rect x="18" y="10" width="3" height="1" fill="rgb(255,255,255)" fill-opacity="0.0078125"/>
  <rect x="0" y="11" width="4" height="1" fill="rgb(255,255,255)" fill-opacity="0.0078125"/>
  <rect x="4" y="11" width="1" height="1" fill="rgb(48,48,48)" fill-opacity="0.9140625"/>
  <rect x="5" y="11" width="1" height="1" fill="rgb(224,184,179)"/>
  <rect x="6" y="11" width="2" height="1" fill="rgb(150,16,0)"/>
  <rect x="8" y="11" width="1" height="1" fill="rgb(244,244,244)"/>
  <rect x="9" y="11" width="2" height="1" fill="rgb(245,245,245)"/>
  <rect x="11" y="11" width="1" height="1" fill="rgb(168,44,26)"/>
  <rect x="12" y="11" width="1" height="1" fill="rgb(177,58,39)"/>
  <rect x="13" y="11" width="1" height="1" fill="rgb(184,70,51)"/>
  <rect x="14" y="11" width="1" height="1" fill="rgb(247,247,247)"/>
  <rect x="15" y="11" width="1" height="1" fill="rgb(248,248,248)"/>
  <rect x="16" y="11" width="1" height="1" fill="rgb(251,251,251)"/>
  <rect x="17" y="11" width="1" height="1" fill="rgb(60,60,60)" fill-opacity="0.8984375"/>
  <rect x="18" y="11" width="3" height="1" fill="rgb(255,255,255)" fill-opacity="0.0078125"/>
  <rect x="0" y="12" width="4" height="1" fill="rgb(255,255,255)" fill-opacity="0.0078125"/>
  <rect x="4" y="12" width="1" height="1" fill="rgb(48,48,48)" fill-opacity="0.9140625"/>
  <rect x="5" y="12" width="1" height="1" fill="rgb(222,179,174)"/>
  <rect x="6" y="12" width="2" height="1" fill="rgb(150,16,0)"/>
  <rect x="8" y="12" width="2" height="1" fill="rgb(245,245,245)"/>
  <rect x="10" y="12" width="1" height="1" fill="rgb(246,246,246)"/>
  <rect x="11" y="12" width="1" height="1" fill="rgb(178,58,40)"/>
  <rect x="12" y="12" width="1" height="1" fill="rgb(185,71,52)"/>
  <rect x="13" y="12" width="1" height="1" fill="rgb(193,85,65)"/>
  <rect x="14" y="12" width="2" height="1" fill="rgb(248,248,248)"/>
  <rect x="16" y="12" width="1" height="1" fill="rgb(252,252,252)"/>
  <rect x="17" y="12" width="1" height="1" fill="rgb(59,59,59)" fill-opacity="0.8984375"/>
  <rect x="18" y="12" width="3" height="1" fill="rgb(255,255,255)" fill-opacity="0.0078125"/>
  <rect x="0" y="13" width="4" height="1" fill="rgb(255,255,255)" fill-opacity="0.0078125"/>
  <rect x="4" y="13" width="1" height="1" fill="rgb(48,48,48)" fill-opacity="0.9140625"/>
  <rect x="5" y="13" width="1" height="1" fill="rgb(220,174,169)"/>
  <rect x="6" y="13" width="1" height="1" fill="rgb(150,16,0)"/>
  <rect x="7" y="13" width="1" height="1" fill="rgb(152,19,3)"/>
  <rect x="8" y="13" width="1" height="1" fill="rgb(245,245,245)"/>
  <rect x="9" y="13" width="2" height="1" fill="rgb(246,246,246)"/>
  <rect x="11" y="13" width="1" height="1" fill="rgb(186,73,53)"/>
  <rect x="12" y="13" width="1" height="1" fill="rgb(194,87,67)"/>
  <rect x="13" y="13" width="1" height="1" fill="rgb(201,100,80)"/>
  <rect x="14" y="13" width="1" height="1" fill="rgb(248,248,248)"/>
  <rect x="15" y="13" width="1" height="1" fill="rgb(249,249,249)"/>
  <rect x="16" y="13" width="1" height="1" fill="rgb(252,252,252)"/>
  <rect x="17" y="13" width="1" height="1" fill="rgb(60,60,60)" fill-opacity="0.90625"/>
  <rect x="18" y="13" width="3" height="1" fill="rgb(255,255,255)" fill-opacity="0.0078125"/>
  <rect x="0" y="14" width="4" height="1" fill="rgb(255,255,255)" fill-opacity="0.0078125"/>
  <rect x="4" y="14" width="1" height="1" fill="rgb(48,48,48)" fill-opacity="0.9140625"/>
  <rect x="5" y="14" width="1" height="1" fill="rgb(250,250,250)"/>
  <rect x="6" y="14" width="2" height="1" fill="rgb(245,245,245)"/>
  <rect x="8" y="14" width="1" height="1" fill="rgb(171,48,30)"/>
  <rect x="9" y="14" width="1" height="1" fill="rgb(179,61,42)"/>
  <rect x="10" y="14" width="1" height="1" fill="rgb(187,74,55)"/>
  <rect x="11" y="14" width="1" height="1" fill="rgb(247,247,247)"/>
  <rect x="12" y="14" width="2" height="1" fill="rgb(248,248,248)"/>
  <rect x="14" y="14" width="1" height="1" fill="rgb(214,125,106)"/>
  <rect x="15" y="14" width="1" height="1" fill="rgb(219,137,119)"/>
  <rect x="16" y="14" width="1" height="1" fill="rgb(237,191,181)"/>
  <rect x="17" y="14" width="1" height="1" fill="rgb(60,60,60)" fill-opacity="0.90625"/>
  <rect x="18" y="14" width="3" height="1" fill="rgb(255,255,255)" fill-opacity="0.0078125"/>
  <rect x="0" y="15" width="4" height="1" fill="rgb(255,255,255)" fill-opacity="0.0078125"/>
  <rect x="4" y="15" width="1" height="1" fill="rgb(48,48,48)" fill-opacity="0.9140625"/>
  <rect x="5" y="15" width="1" height="1" fill="rgb(250,250,250)"/>
  <rect x="6" y="15" width="1" height="1" fill="rgb(245,245,245)"/>
  <rect x="7" y="15" width="1" height="1" fill="rgb(246,246,246)"/>
  <rect x="8" y="15" width="1" height="1" fill="rgb(180,63,44)"/>
  <rect x="9" y="15" width="1" height="1" fill="rgb(187,75,56)"/>
  <rect x="10" y="15" width="1" height="1" fill="rgb(195,88,69)"/>
  <rect x="11" y="15" width="1" height="1" fill="rgb(248,248,248)"/>
  <rect x="12" y="15" width="2" height="1" fill="rgb(249,249,249)"/>
  <rect x="14" y="15" width="1" height="1" fill="rgb(220,139,121)"/>
  <rect x="15" y="15" width="1" height="1" fill="rgb(225,151,134)"/>
  <rect x="16" y="15" width="1" height="1" fill="rgb(240,199,189)"/>
  <rect x="17" y="15" width="1" height="1" fill="rgb(61,61,61)" fill-opacity="0.90625"/>
  <rect x="18" y="15" width="3" height="1" fill="rgb(255,255,255)" fill-opacity="0.0078125"/>
  <rect x="0" y="16" width="4" height="1" fill="rgb(255,255,255)" fill-opacity="0.0078125"/>
  <rect x="4" y="16" width="1" height="1" fill="rgb(48,48,48)" fill-opacity="0.9140625"/>
  <rect x="5" y="16" width="1" height="1" fill="rgb(249,249,249)"/>
  <rect x="6" y="16" width="1" height="1" fill="rgb(250,250,250)"/>
  <rect x="7" y="16" width="1" height="1" fill="rgb(249,249,249)"/>
  <rect x="8" y="16" width="1" height="1" fill="rgb(224,172,163)"/>
  <rect x="9" y="16" width="1" height="1" fill="rgb(226,174,165)"/>
  <rect x="10" y="16" width="1" height="1" fill="rgb(228,177,168)"/>
  <rect x="11" y="16" width="3" height="1" fill="rgb(248,248,248)"/>
  <rect x="14" y="16" width="1" height="1" fill="rgb(236,192,183)"/>
  <rect x="15" y="16" width="1" height="1" fill="rgb(237,197,187)"/>
  <rect x="16" y="16" width="1" height="1" fill="rgb(238,199,189)"/>
  <rect x="17" y="16" width="1" height="1" fill="rgb(55,55,55)" fill-opacity="0.8984375"/>
  <rect x="18" y="16" width="3" height="1" fill="rgb(255,255,255)" fill-opacity="0.0078125"/>
  <rect x="0" y="17" width="4" height="1" fill="rgb(255,255,255)" fill-opacity="0.0078125"/>
  <rect x="4" y="17" width="1" height="1" fill="rgb(44,44,44)" fill-opacity="0.796875"/>
  <rect x="5" y="17" width="12" height="1" fill="rgb(48,48,48)" fill-opacity="0.9140625"/>
  <rect x="17" y="17" width="1" height="1" fill="rgb(45,45,45)" fill-opacity="0.8046875"/>
  <rect x="18" y="17" width="3" height="1" fill="rgb(255,255,255)" fill-opacity="0.0078125"/>
  <rect x="0" y="18" width="21" height="1" fill="rgb(255,255,255)" fill-opacity="0.0078125"/>
  <rect x="0" y="19" width="21" height="1" fill="rgb(255,255,255)" fill-opacity="0.0078125"/>
  <rect x="0" y="20" width="21" height="1" fill="rgb(255,255,255)" fill-opacity="0.0078125"/>
</svg>