<svg xmlns="http://www.w3.org/2000/svg" shape-rendering="crispEdges" width="21" height="21" viewBox="0 0 21 21">
  <rect x="0" y="0" width="21" height="1" fill="rgb(255,255,255)" fill-opacity="0.0078125"/>
  <rect x="0" y="1" width="21" height="1" fill="rgb(255,255,255)" fill-opacity="0.0078125"/>
  <rect x="0" y="2" width="21" height="1" fill="rgb(255,255,255)" fill-opacity="0.0078125"/>
  <rect x="0" y="3" width="21" height="1" fill="rgb(255,255,255)" fill-opacity="0.0078125"/>
  <rect x="0" y="4" width="21" height="1" fill="rgb(255,255,255)" fill-opacity="0.0078125"/>
  <rect x="0" y="5" width="21" height="1" fill="rgb(255,255,255)" fill-opacity="0.0078125"/>
  <rect x="0" y="6" width="21" height="1" fill="rgb(255,255,255)" fill-opacity="0.0078125"/>
  <rect x="0" y="7" width="21" height="1" fill="rgb(255,255,255)" fill-opacity="0.0078125"/>
  <rect x="0" y="8" width="8" height="1" fill="rgb(255,255,255)" fill-opacity="0.0078125"/>
  <rect x="8" y="8" width="1" height="1" fill="rgb(53,53,53)" fill-opacity="0.25"/>
  <rect x="9" y="8" width="1" height="1" fill="rgb(52,52,52)" fill-opacity="0.796875"/>
  <rect x="10" y="8" width="1" height="1" fill="rgb(51,51,51)" fill-opacity="0.90625"/>
  <rect x="11" y="8" width="1" height="1" fill="rgb(52,52,52)" fill-opacity="0.796875"/>
  <rect x="12" y="8" width="1" height="1" fill="rgb(53,53,53)" fill-opacity="0.25"/>
  <rect x="13" y="8" width="8" height="1" fill="rgb(255,255,255)" fill-opacity="0.0078125"/>
  <rect x="0" y="9" width="8" height="1" fill="rgb(255,255,255)" fill-opacity="0.0078125"/>
  <rect x="8" y="9" width="1" height="1" fill="rgb(52,52,52)" fill-opacity="0.796875"/>
  <rect x="9" y="9" width="1" height="1" fill="rgb(134,134,134)" fill-opacity="0.90625"/>
  <rect x="10" y="9" width="1" height="1" fill="rgb(150,150,150)" fill-opacity="0.90625"/>
  <rect x="11" y="9" width="1" height="1" fill="rgb(100,100,100)" fill-opacity="0.90625"/>
  <rect x="12" y="9" width="1" height="1" fill="rgb(52,52,52)" fill-opacity="0.796875"/>
  <rect x="13" y="9" width="8" height="1" fill="rgb(255,255,255)" fill-opacity="0.0078125"/>
  <rect x="0" y="10" width="8" height="1" fill="rgb(255,255,255)" fill-opacity="0.0078125"/>
  <rect x="8" y="10" width="1" height="1" fill="rgb(51,51,51)" fill-opacity="0.90625"/>
  <rect x="9" y="10" width="1" height="1" fill="rgb(147,147,147)" fill-opacity="0.90625"/>
  <rect x="10" y="10" width="1" height="1" fill="rgb(81,81,81)" fill-opacity="0.90625"/>
  <rect x="11" y="10" width="1" height="1" fill="rgb(98,98,98)" fill-opacity="0.90625"/>
  <rect x="12" y="10" width="1" height="1" fill="rgb(51,51,51)" fill-opacity="0.90625"/>
  <rect x="13" y="10" width="8" height="1" fill="rgb(255,255,255)" fill-opacity="0.0078125"/>
  <rect x="0" y="11" width="8" height="1" fill="rgb(255,255,255)" fill-opacity="0.0078125"/>
  <rect x="8" y="11" width="1" height="1" fill="rgb(52,52,52)" fill-opacity="0.796875"/>
  <rect x="9" y="11" width="2" height="1" fill="rgb(96,96,96)" fill-opacity="0.90625"/>
  <rect x="11" y="11" width="1" height="1" fill="rgb(68,68,68)" fill-opacity="0.90625"/>
  <rect x="12" y="11" width="1" height="1" fill="rgb(52,52,52)" fill-opacity="0.796875"/>
  <rect x="13" y="11" width="8" height="1" fill="rgb(255,255,255)" fill-opacity="0.0078125"/>
  <rect x="0" y="12" width="8" height="1" fill="rgb(255,255,255)" fill-opacity="0.0078125"/>
  <rect x="8" y="12" width="1" height="1" fill="rgb(51,51,51)" fill-opacity="0.2421875"/>
  <rect x="9" y="12" width="1" height="1" fill="rgb(53,53,53)" fill-opacity="0.78125"/>
  <rect x="10" y="12" width="1" height="1" fill="rgb(51,51,51)" fill-opacity="0.90625"/>
  <rect x="11" y="12" width="1" height="1" fill="rgb(53,53,53)" fill-opacity="0.78125"/>
  <rect x="12" y="12" width="1" height="1" fill="rgb(51,51,51)" fill-opacity="0.2421875"/>
  <rect x="13" y="12" width="8" height="1" fill="rgb(255,255,255)" fill-opacity="0.0078125"/>
  <rect x="0" y="13" width="21" height="1" fill="rgb(255,255,255)" fill-opacity="0.0078125"/>
  <rect x="0" y="14" width="21" height="1" fill="rgb(255,255,255)" fill-opacity="0.0078125"/>
  <rect x="0" y="15" width="21" height="1" fill="rgb(255,255,255)" fill-opacity="0.0078125"/>
  <rect x="0" y="16" width="21" height="1" fill="rgb(255,255,255)" fill-opacity="0.0078125"/>
  <rect x="0" y="17" width="21" height="1" fill="rgb(255,255,255)" fill-opacity="0.0078125"/>
  <rect x="0" y="18" width="21" height="1" fill="rgb(255,255,255)" fill-opacity="0.0078125"/>
  <rect x="0" y="19" width="21" height="1" fill="rgb(255,255,255)" fill-opacity="0.0078125"/>
  <rect x="0" y="20" width="21" height="1" fill="rgb(255,255,255)" fill-opacity="0.0078125"/>
</svg>