<svg xmlns="http://www.w3.org/2000/svg" shape-rendering="crispEdges" width="21" height="21" viewBox="0 0 21 21">
  <rect x="0" y="0" width="1" height="21" fill="rgb(255,255,255)" fill-opacity="0.0078125"/>
  <rect x="1" y="0" width="1" height="21" fill="rgb(255,255,255)" fill-opacity="0.0078125"/>
  <rect x="2" y="0" width="1" height="21" fill="rgb(255,255,255)" fill-opacity="0.0078125"/>
  <rect x="3" y="0" width="1" height="21" fill="rgb(255,255,255)" fill-opacity="0.0078125"/>
  <rect x="4" y="0" width="1" height="12" fill="rgb(255,255,255)" fill-opacity="0.0078125"/>
  <rect x="4" y="12" width="1" height="1" fill="rgb(64,64,64)" fill-opacity="0.0234375"/>
  <rect x="4" y="13" width="1" height="1" fill="rgb(0,0,0)" fill-opacity="0.015625"/>
  <rect x="4" y="14" width="1" height="7" fill="rgb(255,255,255)" fill-opacity="0.0078125"/>
  <rect x="5" y="0" width="1" height="10" fill="rgb(255,255,255)" fill-opacity="0.0078125"/>
  <rect x="5" y="10" width="1" height="1" fill="rgb(26,26,26)" fill-opacity="0.28125"/>
  <rect x="5" y="11" width="1" height="1" fill="rgb(26,26,26)" fill-opacity="0.6953125"/>
  <rect x="5" y="12" width="1" height="1" fill="rgb(29,29,29)" fill-opacity="0.8515625"/>
  <rect x="5" y="13" width="1" height="1" fill="rgb(27,27,27)" fill-opacity="0.8515625"/>
  <rect x="5" y="14" width="1" height="1" fill="rgb(27,27,27)" fill-opacity="0.71875"/>
  <rect x="5" y="15" width="1" height="1" fill="rgb(29,29,29)" fill-opacity="0.109375"/>
  <rect x="5" y="16" width="1" height="5" fill="rgb(255,255,255)" fill-opacity="0.0078125"/>
  <rect x="6" y="0" width="1" height="9" fill="rgb(255,255,255)" fill-opacity="0.0078125"/>
  <rect x="6" y="9" width="1" height="1" fill="rgb(25,25,25)" fill-opacity="0.2109375"/>
  <rect x="6" y="10" width="1" height="1" fill="rgb(63,63,63)" fill-opacity="0.84375"/>
  <rect x="6" y="11" width="1" height="1" fill="rgb(140,140,140)" fill-opacity="0.8515625"/>
  <rect x="6" y="12" width="1" height="1" fill="rgb(177,177,177)" fill-opacity="0.8515625"/>
  <rect x="6" y="13" width="1" height="1" fill="rgb(179,179,179)" fill-opacity="0.8515625"/>
  <rect x="6" y="14" width="1" height="1" fill="rgb(108,108,108)" fill-opacity="0.8515625"/>
  <rect x="6" y="15" width="1" height="1" fill="rgb(25,25,25)" fill-opacity="0.5625"/>
  <rect x="6" y="16" width="1" height="5" fill="rgb(255,255,255)" fill-opacity="0.0078125"/>
  <rect x="7" y="0" width="1" height="8" fill="rgb(255,255,255)" fill-opacity="0.0078125"/>
  <rect x="7" y="8" width="1" height="1" fill="rgb(26,26,26)" fill-opacity="0.046875"/>
  <rect x="7" y="9" width="1" height="1" fill="rgb(34,34,34)" fill-opacity="0.75"/>
  <rect x="7" y="10" width="1" height="1" fill="rgb(200,200,200)" fill-opacity="0.8515625"/>
  <rect x="7" y="11" width="1" height="1" fill="rgb(201,201,201)" fill-opacity="0.8515625"/>
  <rect x="7" y="12" width="1" height="1" fill="rgb(179,179,179)" fill-opacity="0.8515625"/>
  <rect x="7" y="13" width="1" height="1" fill="rgb(181,181,181)" fill-opacity="0.8515625"/>
  <rect x="7" y="14" width="1" height="1" fill="rgb(194,194,194)" fill-opacity="0.8515625"/>
  <rect x="7" y="15" width="1" height="1" fill="rgb(50,50,50)" fill-opacity="0.8515625"/>
  <rect x="7" y="16" width="1" height="1" fill="rgb(28,28,28)" fill-opacity="0.1875"/>
  <rect x="7" y="17" width="1" height="4" fill="rgb(255,255,255)" fill-opacity="0.0078125"/>
  <rect x="8" y="0" width="1" height="4" fill="rgb(255,255,255)" fill-opacity="0.0078125"/>
  <rect x="8" y="4" width="1" height="2" fill="rgb(0,0,0)" fill-opacity="0.1015625"/>
  <rect x="8" y="6" width="1" height="2" fill="rgb(255,255,255)" fill-opacity="0.0078125"/>
  <rect x="8" y="8" width="1" height="1" fill="rgb(26,26,26)" fill-opacity="0.5078125"/>
  <rect x="8" y="9" width="1" height="1" fill="rgb(154,154,153)" fill-opacity="0.8515625"/>
  <rect x="8" y="10" width="1" height="1" fill="rgb(229,229,229)" fill-opacity="0.8515625"/>
  <rect x="8" y="11" width="1" height="1" fill="rgb(219,219,219)" fill-opacity="0.8515625"/>
  <rect x="8" y="12" width="1" height="2" fill="rgb(179,179,179)" fill-opacity="0.8515625"/>
  <rect x="8" y="14" width="1" height="1" fill="rgb(200,200,200)" fill-opacity="0.8515625"/>
  <rect x="8" y="15" width="1" height="1" fill="rgb(165,165,165)" fill-opacity="0.8515625"/>
  <rect x="8" y="16" width="1" height="1" fill="rgb(26,26,26)" fill-opacity="0.6484375"/>
  <rect x="8" y="17" width="1" height="4" fill="rgb(255,255,255)" fill-opacity="0.0078125"/>
  <rect x="9" y="0" width="1" height="3" fill="rgb(255,255,255)" fill-opacity="0.0078125"/>
  <rect x="9" y="3" width="1" height="1" fill="rgb(0,0,0)" fill-opacity="0.53125"/>
  <rect x="9" y="4" width="1" height="2" fill="rgb(1,1,0)" fill-opacity="0.9921875"/>
  <rect x="9" y="6" width="1" height="1" fill="rgb(0,0,0)" fill-opacity="0.53125"/>
  <rect x="9" y="7" width="1" height="1" fill="rgb(28,28,28)" fill-opacity="0.2890625"/>
  <rect x="9" y="8" width="1" height="1" fill="rgb(65,65,65)" fill-opacity="0.8515625"/>
  <rect x="9" y="9" width="1" height="1" fill="rgb(203,203,202)" fill-opacity="0.8515625"/>
  <rect x="9" y="10" width="1" height="2" fill="rgb(227,227,227)" fill-opacity="0.8515625"/>
  <rect x="9" y="12" width="1" height="1" fill="rgb(201,201,201)" fill-opacity="0.8515625"/>
  <rect x="9" y="13" width="1" height="1" fill="rgb(179,179,179)" fill-opacity="0.8515625"/>
  <rect x="9" y="14" width="1" height="1" fill="rgb(182,182,182)" fill-opacity="0.8515625"/>
  <rect x="9" y="15" width="1" height="1" fill="rgb(231,231,231)" fill-opacity="0.8515625"/>
  <rect x="9" y="16" width="1" height="1" fill="rgb(82,82,82)" fill-opacity="0.8515625"/>
  <rect x="9" y="17" width="1" height="1" fill="rgb(27,27,27)" fill-opacity="0.265625"/>
  <rect x="9" y="18" width="1" height="3" fill="rgb(255,255,255)" fill-opacity="0.0078125"/>
  <rect x="10" y="0" width="1" height="2" fill="rgb(255,255,255)" fill-opacity="0.0078125"/>
  <rect x="10" y="2" width="1" height="1" fill="rgb(0,0,0)" fill-opacity="0.1015625"/>
  <rect x="10" y="3" width="1" height="1" fill="rgb(1,1,0)" fill-opacity="0.9921875"/>
  <rect x="10" y="4" width="1" height="2" fill="rgb(255,255,255)"/>
  <rect x="10" y="6" width="1" height="1" fill="rgb(77,77,76)"/>
  <rect x="10" y="7" width="1" height="1" fill="rgb(55,55,55)" fill-opacity="0.8671875"/>
  <rect x="10" y="8" width="1" height="1" fill="rgb(156,156,156)" fill-opacity="0.8515625"/>
  <rect x="10" y="9" width="1" height="1" fill="rgb(181,181,181)" fill-opacity="0.8515625"/>
  <rect x="10" y="10" width="1" height="1" fill="rgb(221,221,220)" fill-opacity="0.8515625"/>
  <rect x="10" y="11" width="1" height="1" fill="rgb(233,233,233)" fill-opacity="0.8515625"/>
  <rect x="10" y="12" width="1" height="1" fill="rgb(228,228,228)" fill-opacity="0.8515625"/>
  <rect x="10" y="13" width="1" height="1" fill="rgb(236,236,236)" fill-opacity="0.8515625"/>
  <rect x="10" y="14" width="1" height="2" fill="rgb(251,251,251)" fill-opacity="0.8515625"/>
  <rect x="10" y="16" width="1" height="1" fill="rgb(210,210,210)" fill-opacity="0.8515625"/>
  <rect x="10" y="17" width="1" height="1" fill="rgb(26,26,26)" fill-opacity="0.6875"/>
  <rect x="10" y="18" width="1" height="3" fill="rgb(255,255,255)" fill-opacity="0.0078125"/>
  <rect x="11" y="0" width="1" height="2" fill="rgb(255,255,255)" fill-opacity="0.0078125"/>
  <rect x="11" y="2" width="1" height="1" fill="rgb(0,0,0)" fill-opacity="0.1015625"/>
  <rect x="11" y="3" width="1" height="1" fill="rgb(1,1,0)" fill-opacity="0.9921875"/>
  <rect x="11" y="4" width="1" height="2" fill="rgb(255,255,255)"/>
  <rect x="11" y="6" width="1" height="1" fill="rgb(77,77,77)"/>
  <rect x="11" y="7" width="1" height="1" fill="rgb(122,122,122)" fill-opacity="0.8671875"/>
  <rect x="11" y="8" width="1" height="1" fill="rgb(162,162,162)" fill-opacity="0.8515625"/>
  <rect x="11" y="9" width="1" height="1" fill="rgb(179,179,179)" fill-opacity="0.8515625"/>
  <rect x="11" y="10" width="1" height="1" fill="rgb(210,210,209)" fill-opacity="0.8515625"/>
  <rect x="11" y="11" width="1" height="1" fill="rgb(235,235,235)" fill-opacity="0.8515625"/>
  <rect x="11" y="12" width="1" height="1" fill="rgb(251,251,251)" fill-opacity="0.8515625"/>
  <rect x="11" y="13" width="1" height="1" fill="rgb(146,146,146)" fill-opacity="0.8515625"/>
  <rect x="11" y="14" width="1" height="1" fill="rgb(38,38,38)" fill-opacity="0.84375"/>
  <rect x="11" y="15" width="1" height="1" fill="rgb(25,25,25)" fill-opacity="0.8359375"/>
  <rect x="11" y="16" width="1" height="1" fill="rgb(26,26,26)" fill-opacity="0.8515625"/>
  <rect x="11" y="17" width="1" height="1" fill="rgb(26,26,26)" fill-opacity="0.5859375"/>
  <rect x="11" y="18" width="1" height="3" fill="rgb(255,255,255)" fill-opacity="0.0078125"/>
  <rect x="12" y="0" width="1" height="3" fill="rgb(255,255,255)" fill-opacity="0.0078125"/>
  <rect x="12" y="3" width="1" height="1" fill="rgb(0,0,0)" fill-opacity="0.53125"/>
  <rect x="12" y="4" width="1" height="1" fill="rgb(1,1,0)"/>
  <rect x="12" y="5" width="1" height="1" fill="rgb(77,77,77)"/>
  <rect x="12" y="6" width="1" height="1" fill="rgb(146,146,146)" fill-opacity="0.953125"/>
  <rect x="12" y="7" width="1" height="1" fill="rgb(127,127,127)" fill-opacity="0.8515625"/>
  <rect x="12" y="8" width="1" height="1" fill="rgb(150,150,150)" fill-opacity="0.8515625"/>
  <rect x="12" y="9" width="1" height="1" fill="rgb(175,175,175)" fill-opacity="0.8515625"/>
  <rect x="12" y="10" width="1" height="1" fill="rgb(189,189,189)" fill-opacity="0.8515625"/>
  <rect x="12" y="11" width="1" height="1" fill="rgb(250,250,250)" fill-opacity="0.8515625"/>
  <rect x="12" y="12" width="1" height="1" fill="rgb(137,137,137)" fill-opacity="0.8515625"/>
  <rect x="12" y="13" width="1" height="1" fill="rgb(25,25,25)" fill-opacity="0.4375"/>
  <rect x="12" y="14" width="1" height="1" fill="rgb(36,36,36)" fill-opacity="0.0625"/>
  <rect x="12" y="15" width="1" height="6" fill="rgb(255,255,255)" fill-opacity="0.0078125"/>
  <rect x="13" y="0" width="1" height="4" fill="rgb(255,255,255)" fill-opacity="0.0078125"/>
  <rect x="13" y="4" width="1" height="1" fill="rgb(17,17,17)" fill-opacity="0.1796875"/>
  <rect x="13" y="5" width="1" height="1" fill="rgb(76,76,76)" fill-opacity="0.859375"/>
  <rect x="13" y="6" width="1" height="1" fill="rgb(254,254,254)" fill-opacity="0.8515625"/>
  <rect x="13" y="7" width="1" height="1" fill="rgb(126,126,126)" fill-opacity="0.8515625"/>
  <rect x="13" y="8" width="1" height="1" fill="rgb(140,140,140)" fill-opacity="0.8515625"/>
  <rect x="13" y="9" width="1" height="1" fill="rgb(165,165,165)" fill-opacity="0.8515625"/>
  <rect x="13" y="10" width="1" height="1" fill="rgb(219,219,219)" fill-opacity="0.8515625"/>
  <rect x="13" y="11" width="1" height="1" fill="rgb(222,222,222)" fill-opacity="0.8515625"/>
  <rect x="13" y="12" width="1" height="1" fill="rgb(25,25,25)" fill-opacity="0.640625"/>
  <rect x="13" y="13" width="1" height="8" fill="rgb(255,255,255)" fill-opacity="0.0078125"/>
  <rect x="14" y="0" width="1" height="5" fill="rgb(255,255,255)" fill-opacity="0.0078125"/>
  <rect x="14" y="5" width="1" height="1" fill="rgb(26,26,26)" fill-opacity="0.59375"/>
  <rect x="14" y="6" width="1" height="1" fill="rgb(213,213,213)" fill-opacity="0.8671875"/>
  <rect x="14" y="7" width="1" height="1" fill="rgb(175,175,175)" fill-opacity="0.8671875"/>
  <rect x="14" y="8" width="1" height="1" fill="rgb(129,129,129)" fill-opacity="0.8515625"/>
  <rect x="14" y="9" width="1" height="1" fill="rgb(179,179,179)" fill-opacity="0.8515625"/>
  <rect x="14" y="10" width="1" height="1" fill="rgb(249,249,249)" fill-opacity="0.8515625"/>
  <rect x="14" y="11" width="1" height="1" fill="rgb(64,64,64)" fill-opacity="0.84375"/>
  <rect x="14" y="12" width="1" height="1" fill="rgb(24,24,24)" fill-opacity="0.171875"/>
  <rect x="14" y="13" width="1" height="8" fill="rgb(255,255,255)" fill-opacity="0.0078125"/>
  <rect x="15" y="0" width="1" height="5" fill="rgb(255,255,255)" fill-opacity="0.0078125"/>
  <rect x="15" y="5" width="1" height="1" fill="rgb(5,5,5)" fill-opacity="0.6484375"/>
  <rect x="15" y="6" width="1" height="1" fill="rgb(38,38,37)"/>
  <rect x="15" y="7" width="1" height="1" fill="rgb(78,78,77)"/>
  <rect x="15" y="8" width="1" height="1" fill="rgb(154,154,154)" fill-opacity="0.953125"/>
  <rect x="15" y="9" width="1" height="1" fill="rgb(239,239,239)" fill-opacity="0.8515625"/>
  <rect x="15" y="10" width="1" height="1" fill="rgb(130,130,130)" fill-opacity="0.8515625"/>
  <rect x="15" y="11" width="1" height="1" fill="rgb(27,27,27)" fill-opacity="0.4921875"/>
  <rect x="15" y="12" width="1" height="9" fill="rgb(255,255,255)" fill-opacity="0.0078125"/>
  <rect x="16" y="0" width="1" height="4" fill="rgb(255,255,255)" fill-opacity="0.0078125"/>
  <rect x="16" y="4" width="1" height="1" fill="rgb(0,0,0)" fill-opacity="0.1015625"/>
  <rect x="16" y="5" width="1" height="1" fill="rgb(1,1,0)" fill-opacity="0.9921875"/>
  <rect x="16" y="6" width="1" height="2" fill="rgb(255,255,255)"/>
  <rect x="16" y="8" width="1" height="1" fill="rgb(77,77,76)"/>
  <rect x="16" y="9" width="1" height="1" fill="rgb(26,26,26)" fill-opacity="0.8125"/>
  <rect x="16" y="10" width="1" height="1" fill="rgb(26,26,26)" fill-opacity="0.46875"/>
  <rect x="16" y="11" width="1" height="1" fill="rgb(32,32,32)" fill-opacity="0.0390625"/>
  <rect x="16" y="12" width="1" height="9" fill="rgb(255,255,255)" fill-opacity="0.0078125"/>
  <rect x="17" y="0" width="1" height="4" fill="rgb(255,255,255)" fill-opacity="0.0078125"/>
  <rect x="17" y="4" width="1" height="1" fill="rgb(0,0,0)" fill-opacity="0.1015625"/>
  <rect x="17" y="5" width="1" height="1" fill="rgb(1,1,0)" fill-opacity="0.9921875"/>
  <rect x="17" y="6" width="1" height="2" fill="rgb(255,255,255)"/>
  <rect x="17" y="8" width="1" height="1" fill="rgb(1,1,0)" fill-opacity="0.9921875"/>
  <rect x="17" y="9" width="1" height="1" fill="rgb(0,0,0)" fill-opacity="0.1015625"/>
  <rect x="17" y="10" width="1" height="11" fill="rgb(255,255,255)" fill-opacity="0.0078125"/>
  <rect x="18" y="0" width="1" height="5" fill="rgb(255,255,255)" fill-opacity="0.0078125"/>
  <rect x="18" y="5" width="1" height="1" fill="rgb(0,0,0)" fill-opacity="0.53125"/>
  <rect x="18" y="6" width="1" height="2" fill="rgb(1,1,0)" fill-opacity="0.9921875"/>
  <rect x="18" y="8" width="1" height="1" fill="rgb(0,0,0)" fill-opacity="0.53125"/>
  <rect x="18" y="9" width="1" height="12" fill="rgb(255,255,255)" fill-opacity="0.0078125"/>
  <rect x="19" y="0" width="1" height="6" fill="rgb(255,255,255)" fill-opacity="0.0078125"/>
  <rect x="19" y="6" width="1" height="2" fill="rgb(0,0,0)" fill-opacity="0.1015625"/>
  <rect x="19" y="8" width="1" height="13" fill="rgb(255,255,255)" fill-opacity="0.0078125"/>
  <rect x="20" y="0" width="1" height="21" fill="rgb(255,255,255)" fill-opacity="0.0078125"/>
</svg>