<svg xmlns="http://www.w3.org/2000/svg" shape-rendering="crispEdges" width="21" height="21" viewBox="0 0 21 21">
  <rect x="0" y="0" width="21" height="1" fill="rgb(255,255,255)" fill-opacity="0.0078125"/>
  <rect x="0" y="1" width="21" height="1" fill="rgb(255,255,255)" fill-opacity="0.0078125"/>
  <rect x="0" y="2" width="21" height="1" fill="rgb(255,255,255)" fill-opacity="0.0078125"/>
  <rect x="0" y="3" width="9" height="1" fill="rgb(255,255,255)" fill-opacity="0.0078125"/>
  <rect x="9" y="3" width="2" height="1" fill="rgb(0,0,0)" fill-opacity="0.1015625"/>
  <rect x="11" y="3" width="10" height="1" fill="rgb(255,255,255)" fill-opacity="0.0078125"/>
  <rect x="0" y="4" width="8" height="1" fill="rgb(255,255,255)" fill-opacity="0.0078125"/>
  <rect x="8" y="4" width="1" height="1" fill="rgb(0,0,0)" fill-opacity="0.53125"/>
  <rect x="9" y="4" width="2" height="1" fill="rgb(1,1,0)" fill-opacity="0.9921875"/>
  <rect x="11" y="4" width="1" height="1" fill="rgb(0,0,0)" fill-opacity="0.5546875"/>
  <rect x="12" y="4" width="9" height="1" fill="rgb(255,255,255)" fill-opacity="0.0078125"/>
  <rect x="0" y="5" width="7" height="1" fill="rgb(255,255,255)" fill-opacity="0.0078125"/>
  <rect x="7" y="5" width="1" height="1" fill="rgb(0,0,0)" fill-opacity="0.1015625"/>
  <rect x="8" y="5" width="1" height="1" fill="rgb(1,1,0)" fill-opacity="0.9921875"/>
  <rect x="9" y="5" width="1" height="1" fill="rgb(250,250,248)"/>
  <rect x="10" y="5" width="1" height="1" fill="rgb(255,255,255)"/>
  <rect x="11" y="5" width="1" height="1" fill="rgb(2,2,1)"/>
  <rect x="12" y="5" width="1" height="1" fill="rgb(49,49,49)" fill-opacity="0.84375"/>
  <rect x="13" y="5" width="1" height="1" fill="rgb(25,25,25)" fill-opacity="0.5546875"/>
  <rect x="14" y="5" width="1" height="1" fill="rgb(33,33,33)" fill-opacity="0.09375"/>
  <rect x="15" y="5" width="6" height="1" fill="rgb(255,255,255)" fill-opacity="0.0078125"/>
  <rect x="0" y="6" width="7" height="1" fill="rgb(255,255,255)" fill-opacity="0.0078125"/>
  <rect x="7" y="6" width="1" height="1" fill="rgb(0,0,0)" fill-opacity="0.1015625"/>
  <rect x="8" y="6" width="1" height="1" fill="rgb(1,1,0)"/>
  <rect x="9" y="6" width="1" height="1" fill="rgb(250,250,248)"/>
  <rect x="10" y="6" width="1" height="1" fill="rgb(255,255,255)"/>
  <rect x="11" y="6" width="1" height="1" fill="rgb(2,2,1)"/>
  <rect x="12" y="6" width="1" height="1" fill="rgb(184,184,184)" fill-opacity="0.9140625"/>
  <rect x="13" y="6" width="1" height="1" fill="rgb(161,161,161)" fill-opacity="0.90625"/>
  <rect x="14" y="6" width="1" height="1" fill="rgb(62,62,62)" fill-opacity="0.875"/>
  <rect x="15" y="6" width="1" height="1" fill="rgb(24,24,24)" fill-opacity="0.2890625"/>
  <rect x="16" y="6" width="5" height="1" fill="rgb(255,255,255)" fill-opacity="0.0078125"/>
  <rect x="0" y="7" width="8" height="1" fill="rgb(255,255,255)" fill-opacity="0.0078125"/>
  <rect x="8" y="7" width="1" height="1" fill="rgb(0,0,0)" fill-opacity="0.5390625"/>
  <rect x="9" y="7" width="2" height="1" fill="rgb(1,1,0)"/>
  <rect x="11" y="7" width="1" height="1" fill="rgb(30,30,30)" fill-opacity="0.953125"/>
  <rect x="12" y="7" width="1" height="1" fill="rgb(104,104,104)" fill-opacity="0.90625"/>
  <rect x="13" y="7" width="1" height="1" fill="rgb(188,188,188)" fill-opacity="0.90625"/>
  <rect x="14" y="7" width="1" height="1" fill="rgb(201,201,201)" fill-opacity="0.90625"/>
  <rect x="15" y="7" width="1" height="1" fill="rgb(65,65,65)" fill-opacity="0.875"/>
  <rect x="16" y="7" width="1" height="1" fill="rgb(32,32,32)" fill-opacity="0.1328125"/>
  <rect x="17" y="7" width="4" height="1" fill="rgb(255,255,255)" fill-opacity="0.0078125"/>
  <rect x="0" y="8" width="9" height="1" fill="rgb(255,255,255)" fill-opacity="0.0078125"/>
  <rect x="9" y="8" width="2" height="1" fill="rgb(0,0,0)" fill-opacity="0.1015625"/>
  <rect x="11" y="8" width="1" height="1" fill="rgb(0,0,0)" fill-opacity="0.0234375"/>
  <rect x="12" y="8" width="1" height="1" fill="rgb(23,23,23)" fill-opacity="0.265625"/>
  <rect x="13" y="8" width="1" height="1" fill="rgb(41,41,41)" fill-opacity="0.7890625"/>
  <rect x="14" y="8" width="1" height="1" fill="rgb(184,184,184)" fill-opacity="0.90625"/>
  <rect x="15" y="8" width="1" height="1" fill="rgb(173,173,173)" fill-opacity="0.90625"/>
  <rect x="16" y="8" width="1" height="1" fill="rgb(25,25,25)" fill-opacity="0.59375"/>
  <rect x="17" y="8" width="4" height="1" fill="rgb(255,255,255)" fill-opacity="0.0078125"/>
  <rect x="0" y="9" width="13" height="1" fill="rgb(255,255,255)" fill-opacity="0.0078125"/>
  <rect x="13" y="9" width="1" height="1" fill="rgb(24,24,24)" fill-opacity="0.2109375"/>
  <rect x="14" y="9" width="1" height="1" fill="rgb(101,101,101)" fill-opacity="0.90625"/>
  <rect x="15" y="9" width="1" height="1" fill="rgb(204,204,204)" fill-opacity="0.90625"/>
  <rect x="16" y="9" width="1" height="1" fill="rgb(51,51,51)" fill-opacity="0.8125"/>
  <rect x="17" y="9" width="4" height="1" fill="rgb(255,255,255)" fill-opacity="0.0078125"/>
  <rect x="0" y="10" width="13" height="1" fill="rgb(255,255,255)" fill-opacity="0.0078125"/>
  <rect x="13" y="10" width="1" height="1" fill="rgb(31,31,31)" fill-opacity="0.1640625"/>
  <rect x="14" y="10" width="1" height="1" fill="rgb(94,94,94)" fill-opacity="0.90625"/>
  <rect x="15" y="10" width="1" height="1" fill="rgb(204,204,204)" fill-opacity="0.90625"/>
  <rect x="16" y="10" width="1" height="1" fill="rgb(60,60,60)" fill-opacity="0.859375"/>
  <rect x="17" y="10" width="4" height="1" fill="rgb(255,255,255)" fill-opacity="0.0078125"/>
  <rect x="0" y="11" width="13" height="1" fill="rgb(255,255,255)" fill-opacity="0.0078125"/>
  <rect x="13" y="11" width="1" height="1" fill="rgb(27,27,27)" fill-opacity="0.484375"/>
  <rect x="14" y="11" width="1" height="1" fill="rgb(147,147,147)" fill-opacity="0.90625"/>
  <rect x="15" y="11" width="1" height="1" fill="rgb(185,185,185)" fill-opacity="0.90625"/>
  <rect x="16" y="11" width="1" height="1" fill="rgb(27,27,27)" fill-opacity="0.625"/>
  <rect x="17" y="11" width="4" height="1" fill="rgb(255,255,255)" fill-opacity="0.0078125"/>
  <rect x="0" y="12" width="12" height="1" fill="rgb(255,255,255)" fill-opacity="0.0078125"/>
  <rect x="12" y="12" width="1" height="1" fill="rgb(27,27,27)" fill-opacity="0.375"/>
  <rect x="13" y="12" width="1" height="1" fill="rgb(91,91,91)" fill-opacity="0.8984375"/>
  <rect x="14" y="12" width="1" height="1" fill="rgb(202,202,202)" fill-opacity="0.90625"/>
  <rect x="15" y="12" width="1" height="1" fill="rgb(125,125,125)" fill-opacity="0.90625"/>
  <rect x="16" y="12" width="1" height="1" fill="rgb(24,24,24)" fill-opacity="0.3359375"/>
  <rect x="17" y="12" width="4" height="1" fill="rgb(255,255,255)" fill-opacity="0.0078125"/>
  <rect x="0" y="13" width="6" height="1" fill="rgb(255,255,255)" fill-opacity="0.0078125"/>
  <rect x="6" y="13" width="2" height="1" fill="rgb(0,0,0)" fill-opacity="0.1015625"/>
  <rect x="8" y="13" width="2" height="1" fill="rgb(255,255,255)" fill-opacity="0.0078125"/>
  <rect x="10" y="13" width="1" height="1" fill="rgb(25,25,25)" fill-opacity="0.2421875"/>
  <rect x="11" y="13" width="1" height="1" fill="rgb(32,32,32)" fill-opacity="0.6640625"/>
  <rect x="12" y="13" width="1" height="1" fill="rgb(105,105,105)" fill-opacity="0.90625"/>
  <rect x="13" y="13" width="1" height="1" fill="rgb(202,202,202)" fill-opacity="0.90625"/>
  <rect x="14" y="13" width="1" height="1" fill="rgb(157,157,157)" fill-opacity="0.90625"/>
  <rect x="15" y="13" width="1" height="1" fill="rgb(32,32,32)" fill-opacity="0.7109375"/>
  <rect x="16" y="13" width="1" height="1" fill="rgb(51,51,51)" fill-opacity="0.0234375"/>
  <rect x="17" y="13" width="4" height="1" fill="rgb(255,255,255)" fill-opacity="0.0078125"/>
  <rect x="0" y="14" width="5" height="1" fill="rgb(255,255,255)" fill-opacity="0.0078125"/>
  <rect x="5" y="14" width="1" height="1" fill="rgb(0,0,0)" fill-opacity="0.53125"/>
  <rect x="6" y="14" width="1" height="1" fill="rgb(1,1,0)" fill-opacity="0.9921875"/>
  <rect x="7" y="14" width="1" height="1" fill="rgb(1,1,0)"/>
  <rect x="8" y="14" width="1" height="1" fill="rgb(11,11,11)" fill-opacity="0.84375"/>
  <rect x="9" y="14" width="1" height="1" fill="rgb(49,49,49)" fill-opacity="0.828125"/>
  <rect x="10" y="14" width="1" height="1" fill="rgb(101,101,101)" fill-opacity="0.90625"/>
  <rect x="11" y="14" width="1" height="1" fill="rgb(183,183,183)" fill-opacity="0.90625"/>
  <rect x="12" y="14" width="1" height="1" fill="rgb(204,204,204)" fill-opacity="0.90625"/>
  <rect x="13" y="14" width="1" height="1" fill="rgb(153,153,153)" fill-opacity="0.90625"/>
  <rect x="14" y="14" width="1" height="1" fill="rgb(33,33,33)" fill-opacity="0.703125"/>
  <rect x="15" y="14" width="1" height="1" fill="rgb(20,20,20)" fill-opacity="0.0546875"/>
  <rect x="16" y="14" width="5" height="1" fill="rgb(255,255,255)" fill-opacity="0.0078125"/>
  <rect x="0" y="15" width="4" height="1" fill="rgb(255,255,255)" fill-opacity="0.0078125"/>
  <rect x="4" y="15" width="1" height="1" fill="rgb(0,0,0)" fill-opacity="0.1015625"/>
  <rect x="5" y="15" width="1" height="1" fill="rgb(1,1,0)" fill-opacity="0.9921875"/>
  <rect x="6" y="15" width="2" height="1" fill="rgb(255,255,255)"/>
  <rect x="8" y="15" width="1" height="1" fill="rgb(2,2,1)"/>
  <rect x="9" y="15" width="1" height="1" fill="rgb(184,184,184)" fill-opacity="0.9140625"/>
  <rect x="10" y="15" width="1" height="1" fill="rgb(204,204,204)" fill-opacity="0.90625"/>
  <rect x="11" y="15" width="1" height="1" fill="rgb(159,159,159)" fill-opacity="0.90625"/>
  <rect x="12" y="15" width="1" height="1" fill="rgb(78,78,78)" fill-opacity="0.890625"/>
  <rect x="13" y="15" width="1" height="1" fill="rgb(25,25,25)" fill-opacity="0.5625"/>
  <rect x="14" y="15" width="1" height="1" fill="rgb(23,23,23)" fill-opacity="0.046875"/>
  <rect x="15" y="15" width="6" height="1" fill="rgb(255,255,255)" fill-opacity="0.0078125"/>
  <rect x="0" y="16" width="4" height="1" fill="rgb(255,255,255)" fill-opacity="0.0078125"/>
  <rect x="4" y="16" width="1" height="1" fill="rgb(0,0,0)" fill-opacity="0.1015625"/>
  <rect x="5" y="16" width="1" height="1" fill="rgb(1,1,0)"/>
  <rect x="6" y="16" width="2" height="1" fill="rgb(255,255,255)"/>
  <rect x="8" y="16" width="1" height="1" fill="rgb(2,2,1)"/>
  <rect x="9" y="16" width="1" height="1" fill="rgb(85,85,85)" fill-opacity="0.9140625"/>
  <rect x="10" y="16" width="1" height="1" fill="rgb(59,59,59)" fill-opacity="0.875"/>
  <rect x="11" y="16" width="1" height="1" fill="rgb(27,27,27)" fill-opacity="0.5234375"/>
  <rect x="12" y="16" width="1" height="1" fill="rgb(26,26,26)" fill-opacity="0.1171875"/>
  <rect x="13" y="16" width="8" height="1" fill="rgb(255,255,255)" fill-opacity="0.0078125"/>
  <rect x="0" y="17" width="5" height="1" fill="rgb(255,255,255)" fill-opacity="0.0078125"/>
  <rect x="5" y="17" width="1" height="1" fill="rgb(0,0,0)" fill-opacity="0.53125"/>
  <rect x="6" y="17" width="2" height="1" fill="rgb(1,1,0)"/>
  <rect x="8" y="17" width="1" height="1" fill="rgb(5,5,5)" fill-opacity="0.65625"/>
  <rect x="9" y="17" width="1" height="1" fill="rgb(32,32,32)" fill-opacity="0.1328125"/>
  <rect x="10" y="17" width="1" height="1" fill="rgb(0,0,0)" fill-opacity="0.0234375"/>
  <rect x="11" y="17" width="10" height="1" fill="rgb(255,255,255)" fill-opacity="0.0078125"/>
  <rect x="0" y="18" width="6" height="1" fill="rgb(255,255,255)" fill-opacity="0.0078125"/>
  <rect x="6" y="18" width="2" height="1" fill="rgb(0,0,0)" fill-opacity="0.1015625"/>
  <rect x="8" y="18" width="13" height="1" fill="rgb(255,255,255)" fill-opacity="0.0078125"/>
  <rect x="0" y="19" width="21" height="1" fill="rgb(255,255,255)" fill-opacity="0.0078125"/>
  <rect x="0" y="20" width="21" height="1" fill="rgb(255,255,255)" fill-opacity="0.0078125"/>
</svg>