<svg xmlns="http://www.w3.org/2000/svg" shape-rendering="crispEdges" width="21" height="21" viewBox="0 0 21 21">
  <rect x="0" y="0" width="1" height="21" fill="rgb(255,255,255)" fill-opacity="0.0078125"/>
  <rect x="1" y="0" width="1" height="21" fill="rgb(255,255,255)" fill-opacity="0.0078125"/>
  <rect x="2" y="0" width="1" height="21" fill="rgb(255,255,255)" fill-opacity="0.0078125"/>
  <rect x="3" y="0" width="1" height="9" fill="rgb(255,255,255)" fill-opacity="0.0078125"/>
  <rect x="3" y="9" width="1" height="1" fill="rgb(7,29,44)" fill-opacity="0.140625"/>
  <rect x="3" y="10" width="1" height="2" fill="rgb(23,34,50)" fill-opacity="0.6484375"/>
  <rect x="3" y="12" width="1" height="1" fill="rgb(7,29,44)" fill-opacity="0.140625"/>
  <rect x="3" y="13" width="1" height="8" fill="rgb(255,255,255)" fill-opacity="0.0078125"/>
  <rect x="4" y="0" width="1" height="8" fill="rgb(255,255,255)" fill-opacity="0.0078125"/>
  <rect x="4" y="8" width="1" height="1" fill="rgb(7,29,44)" fill-opacity="0.140625"/>
  <rect x="4" y="9" width="1" height="1" fill="rgb(33,44,59)" fill-opacity="0.6640625"/>
  <rect x="4" y="10" width="1" height="1" fill="rgb(229,229,231)" fill-opacity="0.703125"/>
  <rect x="4" y="11" width="1" height="1" fill="rgb(228,228,229)" fill-opacity="0.703125"/>
  <rect x="4" y="12" width="1" height="1" fill="rgb(33,44,59)" fill-opacity="0.6640625"/>
  <rect x="4" y="13" width="1" height="1" fill="rgb(7,29,44)" fill-opacity="0.140625"/>
  <rect x="4" y="14" width="1" height="7" fill="rgb(255,255,255)" fill-opacity="0.0078125"/>
  <rect x="5" y="0" width="1" height="7" fill="rgb(255,255,255)" fill-opacity="0.0078125"/>
  <rect x="5" y="7" width="1" height="1" fill="rgb(7,29,44)" fill-opacity="0.140625"/>
  <rect x="5" y="8" width="1" height="1" fill="rgb(39,49,64)" fill-opacity="0.6640625"/>
  <rect x="5" y="9" width="1" height="1" fill="rgb(236,236,236)" fill-opacity="0.703125"/>
  <rect x="5" y="10" width="1" height="1" fill="rgb(239,239,239)" fill-opacity="0.703125"/>
  <rect x="5" y="11" width="1" height="1" fill="rgb(238,238,238)" fill-opacity="0.703125"/>
  <rect x="5" y="12" width="1" height="1" fill="rgb(232,232,234)" fill-opacity="0.703125"/>
  <rect x="5" y="13" width="1" height="1" fill="rgb(38,47,62)" fill-opacity="0.6640625"/>
  <rect x="5" y="14" width="1" height="1" fill="rgb(7,29,44)" fill-opacity="0.140625"/>
  <rect x="5" y="15" width="1" height="6" fill="rgb(255,255,255)" fill-opacity="0.0078125"/>
  <rect x="6" y="0" width="1" height="6" fill="rgb(255,255,255)" fill-opacity="0.0078125"/>
  <rect x="6" y="6" width="1" height="1" fill="rgb(7,29,44)" fill-opacity="0.140625"/>
  <rect x="6" y="7" width="1" height="1" fill="rgb(44,55,68)" fill-opacity="0.6640625"/>
  <rect x="6" y="8" width="1" height="1" fill="rgb(239,239,239)" fill-opacity="0.703125"/>
  <rect x="6" y="9" width="1" height="1" fill="rgb(238,238,238)" fill-opacity="0.703125"/>
  <rect x="6" y="10" width="1" height="1" fill="rgb(207,207,207)" fill-opacity="0.703125"/>
  <rect x="6" y="11" width="1" height="1" fill="rgb(199,199,199)" fill-opacity="0.703125"/>
  <rect x="6" y="12" width="1" height="1" fill="rgb(229,229,229)" fill-opacity="0.703125"/>
  <rect x="6" y="13" width="1" height="1" fill="rgb(234,234,234)" fill-opacity="0.703125"/>
  <rect x="6" y="14" width="1" height="1" fill="rgb(41,52,67)" fill-opacity="0.6640625"/>
  <rect x="6" y="15" width="1" height="1" fill="rgb(7,29,44)" fill-opacity="0.140625"/>
  <rect x="6" y="16" width="1" height="5" fill="rgb(255,255,255)" fill-opacity="0.0078125"/>
  <rect x="7" y="0" width="1" height="5" fill="rgb(255,255,255)" fill-opacity="0.0078125"/>
  <rect x="7" y="5" width="1" height="1" fill="rgb(7,29,44)" fill-opacity="0.140625"/>
  <rect x="7" y="6" width="1" height="1" fill="rgb(50,59,73)" fill-opacity="0.6640625"/>
  <rect x="7" y="7" width="1" height="1" fill="rgb(242,242,244)" fill-opacity="0.703125"/>
  <rect x="7" y="8" width="1" height="1" fill="rgb(236,236,236)" fill-opacity="0.703125"/>
  <rect x="7" y="9" width="1" height="1" fill="rgb(208,208,208)" fill-opacity="0.703125"/>
  <rect x="7" y="10" width="1" height="1" fill="rgb(201,201,201)" fill-opacity="0.703125"/>
  <rect x="7" y="11" width="1" height="1" fill="rgb(194,194,194)" fill-opacity="0.703125"/>
  <rect x="7" y="12" width="1" height="1" fill="rgb(188,188,188)" fill-opacity="0.703125"/>
  <rect x="7" y="13" width="1" height="1" fill="rgb(222,222,222)" fill-opacity="0.703125"/>
  <rect x="7" y="14" width="1" height="1" fill="rgb(235,235,236)" fill-opacity="0.703125"/>
  <rect x="7" y="15" width="1" height="1" fill="rgb(46,56,70)" fill-opacity="0.6640625"/>
  <rect x="7" y="16" width="1" height="1" fill="rgb(7,29,44)" fill-opacity="0.140625"/>
  <rect x="7" y="17" width="1" height="4" fill="rgb(255,255,255)" fill-opacity="0.0078125"/>
  <rect x="8" y="0" width="1" height="5" fill="rgb(255,255,255)" fill-opacity="0.0078125"/>
  <rect x="8" y="5" width="1" height="1" fill="rgb(23,34,50)" fill-opacity="0.6484375"/>
  <rect x="8" y="6" width="1" height="1" fill="rgb(244,244,244)" fill-opacity="0.703125"/>
  <rect x="8" y="7" width="1" height="1" fill="rgb(235,235,235)" fill-opacity="0.703125"/>
  <rect x="8" y="8" width="1" height="1" fill="rgb(209,209,209)" fill-opacity="0.703125"/>
  <rect x="8" y="9" width="1" height="1" fill="rgb(202,202,202)" fill-opacity="0.703125"/>
  <rect x="8" y="10" width="1" height="1" fill="rgb(195,195,195)" fill-opacity="0.703125"/>
  <rect x="8" y="11" width="1" height="1" fill="rgb(189,189,189)" fill-opacity="0.703125"/>
  <rect x="8" y="12" width="1" height="1" fill="rgb(182,182,182)" fill-opacity="0.703125"/>
  <rect x="8" y="13" width="1" height="1" fill="rgb(175,175,175)" fill-opacity="0.703125"/>
  <rect x="8" y="14" width="1" height="1" fill="rgb(212,212,212)" fill-opacity="0.703125"/>
  <rect x="8" y="15" width="1" height="1" fill="rgb(235,236,236)" fill-opacity="0.703125"/>
  <rect x="8" y="16" width="1" height="1" fill="rgb(20,31,47)" fill-opacity="0.6484375"/>
  <rect x="8" y="17" width="1" height="4" fill="rgb(255,255,255)" fill-opacity="0.0078125"/>
  <rect x="9" y="0" width="1" height="5" fill="rgb(255,255,255)" fill-opacity="0.0078125"/>
  <rect x="9" y="5" width="1" height="1" fill="rgb(24,36,52)" fill-opacity="0.6640625"/>
  <rect x="9" y="6" width="1" height="1" fill="rgb(255,255,255)" fill-opacity="0.703125"/>
  <rect x="9" y="7" width="1" height="1" fill="rgb(209,209,209)" fill-opacity="0.703125"/>
  <rect x="9" y="8" width="1" height="1" fill="rgb(202,202,202)" fill-opacity="0.703125"/>
  <rect x="9" y="9" width="1" height="1" fill="rgb(197,197,197)" fill-opacity="0.703125"/>
  <rect x="9" y="10" width="1" height="1" fill="rgb(189,189,189)" fill-opacity="0.703125"/>
  <rect x="9" y="11" width="1" height="1" fill="rgb(182,182,182)" fill-opacity="0.703125"/>
  <rect x="9" y="12" width="1" height="1" fill="rgb(177,177,177)" fill-opacity="0.703125"/>
  <rect x="9" y="13" width="1" height="1" fill="rgb(170,170,170)" fill-opacity="0.703125"/>
  <rect x="9" y="14" width="1" height="1" fill="rgb(162,162,162)" fill-opacity="0.703125"/>
  <rect x="9" y="15" width="1" height="1" fill="rgb(255,255,255)" fill-opacity="0.703125"/>
  <rect x="9" y="16" width="1" height="1" fill="rgb(20,30,47)" fill-opacity="0.6640625"/>
  <rect x="9" y="17" width="1" height="4" fill="rgb(255,255,255)" fill-opacity="0.0078125"/>
  <rect x="10" y="0" width="1" height="3" fill="rgb(255,255,255)" fill-opacity="0.0078125"/>
  <rect x="10" y="3" width="1" height="1" fill="rgb(0,0,0)" fill-opacity="0.2421875"/>
  <rect x="10" y="4" width="1" height="1" fill="rgb(0,0,0)" fill-opacity="0.265625"/>
  <rect x="10" y="5" width="1" height="1" fill="rgb(16,23,33)" fill-opacity="0.75"/>
  <rect x="10" y="6" width="1" height="1" fill="rgb(155,155,155)" fill-opacity="0.78125"/>
  <rect x="10" y="7" width="1" height="1" fill="rgb(135,135,135)" fill-opacity="0.78125"/>
  <rect x="10" y="8" width="1" height="1" fill="rgb(131,131,131)" fill-opacity="0.78125"/>
  <rect x="10" y="9" width="1" height="1" fill="rgb(127,127,127)" fill-opacity="0.78125"/>
  <rect x="10" y="10" width="1" height="1" fill="rgb(122,122,122)" fill-opacity="0.78125"/>
  <rect x="10" y="11" width="1" height="1" fill="rgb(117,117,117)" fill-opacity="0.78125"/>
  <rect x="10" y="12" width="1" height="1" fill="rgb(113,113,113)" fill-opacity="0.78125"/>
  <rect x="10" y="13" width="1" height="1" fill="rgb(109,109,109)" fill-opacity="0.78125"/>
  <rect x="10" y="14" width="1" height="1" fill="rgb(105,105,105)" fill-opacity="0.78125"/>
  <rect x="10" y="15" width="1" height="1" fill="rgb(135,135,135)" fill-opacity="0.78125"/>
  <rect x="10" y="16" width="1" height="1" fill="rgb(13,20,31)" fill-opacity="0.75"/>
  <rect x="10" y="17" width="1" height="1" fill="rgb(0,0,0)" fill-opacity="0.265625"/>
  <rect x="10" y="18" width="1" height="1" fill="rgb(0,0,0)" fill-opacity="0.1875"/>
  <rect x="10" y="19" width="1" height="2" fill="rgb(255,255,255)" fill-opacity="0.0078125"/>
  <rect x="11" y="0" width="1" height="3" fill="rgb(255,255,255)" fill-opacity="0.0078125"/>
  <rect x="11" y="3" width="1" height="1" fill="rgb(0,0,0)" fill-opacity="0.3671875"/>
  <rect x="11" y="4" width="1" height="14" fill="rgb(255,195,75)"/>
  <rect x="11" y="18" width="1" height="1" fill="rgb(0,0,0)" fill-opacity="0.28125"/>
  <rect x="11" y="19" width="1" height="2" fill="rgb(255,255,255)" fill-opacity="0.0078125"/>
  <rect x="12" y="0" width="1" height="3" fill="rgb(255,255,255)" fill-opacity="0.0078125"/>
  <rect x="12" y="3" width="1" height="1" fill="rgb(0,0,0)" fill-opacity="0.2421875"/>
  <rect x="12" y="4" width="1" height="1" fill="rgb(0,0,0)" fill-opacity="0.265625"/>
  <rect x="12" y="5" width="1" height="1" fill="rgb(15,26,43)" fill-opacity="0.9765625"/>
  <rect x="12" y="6" width="1" height="1" fill="rgb(105,105,106)"/>
  <rect x="12" y="7" width="1" height="1" fill="rgb(104,104,106)"/>
  <rect x="12" y="8" width="1" height="1" fill="rgb(112,113,115)"/>
  <rect x="12" y="9" width="1" height="1" fill="rgb(129,130,132)"/>
  <rect x="12" y="10" width="1" height="1" fill="rgb(115,120,127)"/>
  <rect x="12" y="11" width="1" height="1" fill="rgb(99,108,122)"/>
  <rect x="12" y="12" width="1" height="1" fill="rgb(83,97,116)"/>
  <rect x="12" y="13" width="1" height="1" fill="rgb(60,75,98)"/>
  <rect x="12" y="14" width="1" height="1" fill="rgb(46,62,86)"/>
  <rect x="12" y="15" width="1" height="1" fill="rgb(59,71,87)"/>
  <rect x="12" y="16" width="1" height="1" fill="rgb(10,22,39)" fill-opacity="0.96875"/>
  <rect x="12" y="17" width="1" height="1" fill="rgb(0,0,0)" fill-opacity="0.265625"/>
  <rect x="12" y="18" width="1" height="1" fill="rgb(0,0,0)" fill-opacity="0.1875"/>
  <rect x="12" y="19" width="1" height="2" fill="rgb(255,255,255)" fill-opacity="0.0078125"/>
  <rect x="13" y="0" width="1" height="5" fill="rgb(255,255,255)" fill-opacity="0.0078125"/>
  <rect x="13" y="5" width="1" height="1" fill="rgb(22,36,60)" fill-opacity="0.9609375"/>
  <rect x="13" y="6" width="1" height="1" fill="rgb(180,181,182)"/>
  <rect x="13" y="7" width="1" height="1" fill="rgb(204,205,208)"/>
  <rect x="13" y="8" width="1" height="1" fill="rgb(212,214,217)"/>
  <rect x="13" y="9" width="1" height="1" fill="rgb(195,202,211)"/>
  <rect x="13" y="10" width="1" height="1" fill="rgb(169,182,203)"/>
  <rect x="13" y="11" width="1" height="1" fill="rgb(143,163,194)"/>
  <rect x="13" y="12" width="1" height="1" fill="rgb(117,145,185)"/>
  <rect x="13" y="13" width="1" height="1" fill="rgb(91,126,176)"/>
  <rect x="13" y="14" width="1" height="1" fill="rgb(72,111,166)"/>
  <rect x="13" y="15" width="1" height="1" fill="rgb(93,118,155)"/>
  <rect x="13" y="16" width="1" height="1" fill="rgb(17,34,62)" fill-opacity="0.953125"/>
  <rect x="13" y="17" width="1" height="4" fill="rgb(255,255,255)" fill-opacity="0.0078125"/>
  <rect x="14" y="0" width="1" height="5" fill="rgb(255,255,255)" fill-opacity="0.0078125"/>
  <rect x="14" y="5" width="1" height="1" fill="rgb(35,53,83)" fill-opacity="0.7734375"/>
  <rect x="14" y="6" width="1" height="1" fill="rgb(219,223,228)"/>
  <rect x="14" y="7" width="1" height="1" fill="rgb(251,252,255)"/>
  <rect x="14" y="8" width="1" height="1" fill="rgb(236,242,251)"/>
  <rect x="14" y="9" width="1" height="1" fill="rgb(205,219,240)"/>
  <rect x="14" y="10" width="1" height="1" fill="rgb(175,197,230)"/>
  <rect x="14" y="11" width="1" height="1" fill="rgb(145,175,220)"/>
  <rect x="14" y="12" width="1" height="1" fill="rgb(114,153,209)"/>
  <rect x="14" y="13" width="1" height="1" fill="rgb(84,131,199)"/>
  <rect x="14" y="14" width="1" height="1" fill="rgb(83,130,199)"/>
  <rect x="14" y="15" width="1" height="1" fill="rgb(86,121,172)"/>
  <rect x="14" y="16" width="1" height="1" fill="rgb(20,43,79)" fill-opacity="0.765625"/>
  <rect x="14" y="17" width="1" height="4" fill="rgb(255,255,255)" fill-opacity="0.0078125"/>
  <rect x="15" y="0" width="1" height="5" fill="rgb(255,255,255)" fill-opacity="0.0078125"/>
  <rect x="15" y="5" width="1" height="1" fill="rgb(23,43,73)" fill-opacity="0.3984375"/>
  <rect x="15" y="6" width="1" height="1" fill="rgb(102,116,138)" fill-opacity="0.9609375"/>
  <rect x="15" y="7" width="1" height="1" fill="rgb(250,251,254)"/>
  <rect x="15" y="8" width="1" height="1" fill="rgb(215,226,243)"/>
  <rect x="15" y="9" width="1" height="1" fill="rgb(182,202,232)"/>
  <rect x="15" y="10" width="1" height="1" fill="rgb(152,180,222)"/>
  <rect x="15" y="11" width="1" height="1" fill="rgb(121,158,212)"/>
  <rect x="15" y="12" width="1" height="1" fill="rgb(91,136,201)"/>
  <rect x="15" y="13" width="1" height="1" fill="rgb(65,117,193)"/>
  <rect x="15" y="14" width="1" height="1" fill="rgb(105,146,205)"/>
  <rect x="15" y="15" width="1" height="1" fill="rgb(41,67,107)" fill-opacity="0.953125"/>
  <rect x="15" y="16" width="1" height="1" fill="rgb(18,40,73)" fill-opacity="0.3984375"/>
  <rect x="15" y="17" width="1" height="4" fill="rgb(255,255,255)" fill-opacity="0.0078125"/>
  <rect x="16" y="0" width="1" height="5" fill="rgb(255,255,255)" fill-opacity="0.0078125"/>
  <rect x="16" y="5" width="1" height="1" fill="rgb(0,0,0)" fill-opacity="0.0078125"/>
  <rect x="16" y="6" width="1" height="1" fill="rgb(31,50,80)" fill-opacity="0.7890625"/>
  <rect x="16" y="7" width="1" height="1" fill="rgb(159,170,186)" fill-opacity="0.9921875"/>
  <rect x="16" y="8" width="1" height="1" fill="rgb(223,232,245)"/>
  <rect x="16" y="9" width="1" height="1" fill="rgb(178,199,230)"/>
  <rect x="16" y="10" width="1" height="1" fill="rgb(134,168,216)"/>
  <rect x="16" y="11" width="1" height="1" fill="rgb(105,146,206)"/>
  <rect x="16" y="12" width="1" height="1" fill="rgb(94,138,202)"/>
  <rect x="16" y="13" width="1" height="1" fill="rgb(104,145,204)"/>
  <rect x="16" y="14" width="1" height="1" fill="rgb(62,94,143)" fill-opacity="0.9921875"/>
  <rect x="16" y="15" width="1" height="1" fill="rgb(20,42,77)" fill-opacity="0.7890625"/>
  <rect x="16" y="16" width="1" height="1" fill="rgb(0,0,0)" fill-opacity="0.0078125"/>
  <rect x="16" y="17" width="1" height="4" fill="rgb(255,255,255)" fill-opacity="0.0078125"/>
  <rect x="17" y="0" width="1" height="6" fill="rgb(255,255,255)" fill-opacity="0.0078125"/>
  <rect x="17" y="6" width="1" height="1" fill="rgb(20,39,69)" fill-opacity="0.109375"/>
  <rect x="17" y="7" width="1" height="1" fill="rgb(28,48,80)" fill-opacity="0.796875"/>
  <rect x="17" y="8" width="1" height="1" fill="rgb(79,98,125)" fill-opacity="0.9609375"/>
  <rect x="17" y="9" width="1" height="1" fill="rgb(153,171,199)"/>
  <rect x="17" y="10" width="1" height="1" fill="rgb(160,183,216)"/>
  <rect x="17" y="11" width="1" height="1" fill="rgb(136,165,207)"/>
  <rect x="17" y="12" width="1" height="1" fill="rgb(90,125,173)"/>
  <rect x="17" y="13" width="1" height="1" fill="rgb(40,65,105)" fill-opacity="0.9609375"/>
  <rect x="17" y="14" width="1" height="1" fill="rgb(20,42,77)" fill-opacity="0.7890625"/>
  <rect x="17" y="15" width="1" height="1" fill="rgb(20,39,69)" fill-opacity="0.109375"/>
  <rect x="17" y="16" width="1" height="5" fill="rgb(255,255,255)" fill-opacity="0.0078125"/>
  <rect x="18" y="0" width="1" height="7" fill="rgb(255,255,255)" fill-opacity="0.0078125"/>
  <rect x="18" y="7" width="1" height="1" fill="rgb(0,0,0)" fill-opacity="0.0078125"/>
  <rect x="18" y="8" width="1" height="1" fill="rgb(22,42,74)" fill-opacity="0.4140625"/>
  <rect x="18" y="9" width="1" height="1" fill="rgb(26,47,81)" fill-opacity="0.7734375"/>
  <rect x="18" y="10" width="1" height="1" fill="rgb(21,42,76)" fill-opacity="0.953125"/>
  <rect x="18" y="11" width="1" height="1" fill="rgb(20,41,75)" fill-opacity="0.953125"/>
  <rect x="18" y="12" width="1" height="1" fill="rgb(21,43,78)" fill-opacity="0.7734375"/>
  <rect x="18" y="13" width="1" height="1" fill="rgb(18,40,73)" fill-opacity="0.3984375"/>
  <rect x="18" y="14" width="1" height="1" fill="rgb(0,0,0)" fill-opacity="0.0078125"/>
  <rect x="18" y="15" width="1" height="6" fill="rgb(255,255,255)" fill-opacity="0.0078125"/>
  <rect x="19" y="0" width="1" height="21" fill="rgb(255,255,255)" fill-opacity="0.0078125"/>
  <rect x="20" y="0" width="1" height="21" fill="rgb(255,255,255)" fill-opacity="0.0078125"/>
</svg>