<svg xmlns="http://www.w3.org/2000/svg" shape-rendering="crispEdges" width="21" height="21" viewBox="0 0 21 21">
  <rect x="0" y="0" width="1" height="21" fill="rgb(255,255,255)" fill-opacity="0.0078125"/>
  <rect x="1" y="0" width="1" height="21" fill="rgb(255,255,255)" fill-opacity="0.0078125"/>
  <rect x="2" y="0" width="1" height="21" fill="rgb(255,255,255)" fill-opacity="0.0078125"/>
  <rect x="3" y="0" width="1" height="21" fill="rgb(255,255,255)" fill-opacity="0.0078125"/>
  <rect x="4" y="0" width="1" height="21" fill="rgb(255,255,255)" fill-opacity="0.0078125"/>
  <rect x="5" y="0" width="1" height="21" fill="rgb(255,255,255)" fill-opacity="0.0078125"/>
  <rect x="6" y="0" width="1" height="21" fill="rgb(255,255,255)" fill-opacity="0.0078125"/>
  <rect x="7" y="0" width="1" height="21" fill="rgb(255,255,255)" fill-opacity="0.0078125"/>
  <rect x="8" y="0" width="1" height="10" fill="rgb(255,255,255)" fill-opacity="0.0078125"/>
  <rect x="8" y="10" width="1" height="1" fill="rgb(26,26,26)" fill-opacity="0.2421875"/>
  <rect x="8" y="11" width="1" height="1" fill="rgb(31,31,31)" fill-opacity="0.859375"/>
  <rect x="8" y="12" width="1" height="1" fill="rgb(26,26,26)" fill-opacity="0.2421875"/>
  <rect x="8" y="13" width="1" height="8" fill="rgb(255,255,255)" fill-opacity="0.0078125"/>
  <rect x="9" y="0" width="1" height="9" fill="rgb(255,255,255)" fill-opacity="0.0078125"/>
  <rect x="9" y="9" width="1" height="1" fill="rgb(26,26,26)" fill-opacity="0.2421875"/>
  <rect x="9" y="10" width="1" height="1" fill="rgb(36,36,36)" fill-opacity="0.953125"/>
  <rect x="9" y="11" width="1" height="1" fill="rgb(110,110,110)"/>
  <rect x="9" y="12" width="1" height="1" fill="rgb(33,33,33)" fill-opacity="0.953125"/>
  <rect x="9" y="13" width="1" height="1" fill="rgb(26,26,26)" fill-opacity="0.2421875"/>
  <rect x="9" y="14" width="1" height="7" fill="rgb(255,255,255)" fill-opacity="0.0078125"/>
  <rect x="10" y="0" width="1" height="8" fill="rgb(255,255,255)" fill-opacity="0.0078125"/>
  <rect x="10" y="8" width="1" height="1" fill="rgb(26,26,26)" fill-opacity="0.2421875"/>
  <rect x="10" y="9" width="1" height="1" fill="rgb(36,36,36)" fill-opacity="0.953125"/>
  <rect x="10" y="10" width="1" height="1" fill="rgb(213,213,213)"/>
  <rect x="10" y="11" width="1" height="1" fill="rgb(221,221,221)"/>
  <rect x="10" y="12" width="1" height="1" fill="rgb(147,147,147)"/>
  <rect x="10" y="13" width="1" height="1" fill="rgb(34,34,34)" fill-opacity="0.953125"/>
  <rect x="10" y="14" width="1" height="1" fill="rgb(26,26,26)" fill-opacity="0.2421875"/>
  <rect x="10" y="15" width="1" height="6" fill="rgb(255,255,255)" fill-opacity="0.0078125"/>
  <rect x="11" y="0" width="1" height="7" fill="rgb(255,255,255)" fill-opacity="0.0078125"/>
  <rect x="11" y="7" width="1" height="1" fill="rgb(26,26,26)" fill-opacity="0.2421875"/>
  <rect x="11" y="8" width="1" height="1" fill="rgb(36,36,36)" fill-opacity="0.953125"/>
  <rect x="11" y="9" width="1" height="1" fill="rgb(214,214,214)"/>
  <rect x="11" y="10" width="1" height="1" fill="rgb(233,233,233)"/>
  <rect x="11" y="11" width="1" height="1" fill="rgb(196,196,196)"/>
  <rect x="11" y="12" width="1" height="1" fill="rgb(209,209,209)"/>
  <rect x="11" y="13" width="1" height="1" fill="rgb(172,172,172)"/>
  <rect x="11" y="14" width="1" height="1" fill="rgb(35,35,35)" fill-opacity="0.953125"/>
  <rect x="11" y="15" width="1" height="1" fill="rgb(26,26,26)" fill-opacity="0.2421875"/>
  <rect x="11" y="16" width="1" height="5" fill="rgb(255,255,255)" fill-opacity="0.0078125"/>
  <rect x="12" y="0" width="1" height="6" fill="rgb(255,255,255)" fill-opacity="0.0078125"/>
  <rect x="12" y="6" width="1" height="1" fill="rgb(26,26,26)" fill-opacity="0.2421875"/>
  <rect x="12" y="7" width="1" height="1" fill="rgb(31,31,31)" fill-opacity="0.953125"/>
  <rect x="12" y="8" width="1" height="1" fill="rgb(148,148,148)"/>
  <rect x="12" y="9" width="1" height="1" fill="rgb(228,228,228)"/>
  <rect x="12" y="10" width="1" height="1" fill="rgb(203,203,203)"/>
  <rect x="12" y="11" width="1" height="1" fill="rgb(215,215,215)"/>
  <rect x="12" y="12" width="1" height="1" fill="rgb(229,229,229)"/>
  <rect x="12" y="13" width="1" height="1" fill="rgb(243,243,243)"/>
  <rect x="12" y="14" width="1" height="1" fill="rgb(196,196,196)"/>
  <rect x="12" y="15" width="1" height="1" fill="rgb(36,36,36)" fill-opacity="0.953125"/>
  <rect x="12" y="16" width="1" height="1" fill="rgb(26,26,26)" fill-opacity="0.2421875"/>
  <rect x="12" y="17" width="1" height="4" fill="rgb(255,255,255)" fill-opacity="0.0078125"/>
  <rect x="13" y="0" width="1" height="6" fill="rgb(255,255,255)" fill-opacity="0.0078125"/>
  <rect x="13" y="6" width="1" height="1" fill="rgb(33,33,33)" fill-opacity="0.734375"/>
  <rect x="13" y="7" width="1" height="1" fill="rgb(27,27,27)"/>
  <rect x="13" y="8" width="1" height="2" fill="rgb(28,28,28)" fill-opacity="0.9921875"/>
  <rect x="13" y="10" width="1" height="5" fill="rgb(29,29,29)" fill-opacity="0.9921875"/>
  <rect x="13" y="15" width="1" height="1" fill="rgb(27,27,27)"/>
  <rect x="13" y="16" width="1" height="1" fill="rgb(38,38,38)" fill-opacity="0.734375"/>
  <rect x="13" y="17" width="1" height="4" fill="rgb(255,255,255)" fill-opacity="0.0078125"/>
  <rect x="14" y="0" width="1" height="6" fill="rgb(255,255,255)" fill-opacity="0.0078125"/>
  <rect x="14" y="6" width="1" height="1" fill="rgb(0,0,0)" fill-opacity="0.0234375"/>
  <rect x="14" y="7" width="1" height="9" fill="rgb(32,32,32)" fill-opacity="0.0390625"/>
  <rect x="14" y="16" width="1" height="1" fill="rgb(0,0,0)" fill-opacity="0.0234375"/>
  <rect x="14" y="17" width="1" height="4" fill="rgb(255,255,255)" fill-opacity="0.0078125"/>
  <rect x="15" y="0" width="1" height="21" fill="rgb(255,255,255)" fill-opacity="0.0078125"/>
  <rect x="16" y="0" width="1" height="21" fill="rgb(255,255,255)" fill-opacity="0.0078125"/>
  <rect x="17" y="0" width="1" height="21" fill="rgb(255,255,255)" fill-opacity="0.0078125"/>
  <rect x="18" y="0" width="1" height="21" fill="rgb(255,255,255)" fill-opacity="0.0078125"/>
  <rect x="19" y="0" width="1" height="21" fill="rgb(255,255,255)" fill-opacity="0.0078125"/>
  <rect x="20" y="0" width="1" height="21" fill="rgb(255,255,255)" fill-opacity="0.0078125"/>
</svg>