<svg xmlns="http://www.w3.org/2000/svg" shape-rendering="crispEdges" width="21" height="21" viewBox="0 0 21 21">
  <rect x="0" y="0" width="1" height="21" fill="rgb(255,255,255)" fill-opacity="0.0078125"/>
  <rect x="1" y="0" width="1" height="21" fill="rgb(255,255,255)" fill-opacity="0.0078125"/>
  <rect x="2" y="0" width="1" height="21" fill="rgb(255,255,255)" fill-opacity="0.0078125"/>
  <rect x="3" y="0" width="1" height="21" fill="rgb(255,255,255)" fill-opacity="0.0078125"/>
  <rect x="4" y="0" width="1" height="8" fill="rgb(255,255,255)" fill-opacity="0.0078125"/>
  <rect x="4" y="8" width="1" height="1" fill="rgb(24,24,24)" fill-opacity="0.171875"/>
  <rect x="4" y="9" width="1" height="1" fill="rgb(29,29,29)" fill-opacity="0.6015625"/>
  <rect x="4" y="10" width="1" height="1" fill="rgb(31,31,31)" fill-opacity="0.8359375"/>
  <rect x="4" y="11" width="1" height="1" fill="rgb(28,28,28)" fill-opacity="0.96875"/>
  <rect x="4" y="12" width="1" height="1" fill="rgb(30,30,30)" fill-opacity="0.859375"/>
  <rect x="4" y="13" width="1" height="1" fill="rgb(30,30,30)" fill-opacity="0.6328125"/>
  <rect x="4" y="14" width="1" height="1" fill="rgb(26,26,26)" fill-opacity="0.234375"/>
  <rect x="4" y="15" width="1" height="6" fill="rgb(255,255,255)" fill-opacity="0.0078125"/>
  <rect x="5" y="0" width="1" height="6" fill="rgb(255,255,255)" fill-opacity="0.0078125"/>
  <rect x="5" y="6" width="1" height="1" fill="rgb(0,0,0)" fill-opacity="0.0078125"/>
  <rect x="5" y="7" width="1" height="1" fill="rgb(27,27,27)" fill-opacity="0.484375"/>
  <rect x="5" y="8" width="1" height="1" fill="rgb(41,41,41)" fill-opacity="0.96875"/>
  <rect x="5" y="9" width="1" height="1" fill="rgb(186,186,186)"/>
  <rect x="5" y="10" width="1" height="1" fill="rgb(226,226,226)"/>
  <rect x="5" y="11" width="1" height="1" fill="rgb(237,237,237)"/>
  <rect x="5" y="12" width="1" height="1" fill="rgb(209,209,209)"/>
  <rect x="5" y="13" width="1" height="1" fill="rgb(156,154,154)"/>
  <rect x="5" y="14" width="1" height="1" fill="rgb(49,47,47)" fill-opacity="0.96875"/>
  <rect x="5" y="15" width="1" height="1" fill="rgb(29,29,29)" fill-opacity="0.5859375"/>
  <rect x="5" y="16" width="1" height="1" fill="rgb(36,36,36)" fill-opacity="0.03125"/>
  <rect x="5" y="17" width="1" height="4" fill="rgb(255,255,255)" fill-opacity="0.0078125"/>
  <rect x="6" y="0" width="1" height="6" fill="rgb(255,255,255)" fill-opacity="0.0078125"/>
  <rect x="6" y="6" width="1" height="1" fill="rgb(27,27,27)" fill-opacity="0.4453125"/>
  <rect x="6" y="7" width="1" height="1" fill="rgb(100,100,100)" fill-opacity="0.96875"/>
  <rect x="6" y="8" width="1" height="1" fill="rgb(247,247,247)"/>
  <rect x="6" y="9" width="1" height="1" fill="rgb(243,243,243)"/>
  <rect x="6" y="10" width="1" height="1" fill="rgb(225,225,225)"/>
  <rect x="6" y="11" width="1" height="1" fill="rgb(210,210,210)"/>
  <rect x="6" y="12" width="1" height="1" fill="rgb(200,199,199)"/>
  <rect x="6" y="13" width="1" height="1" fill="rgb(202,197,196)"/>
  <rect x="6" y="14" width="1" height="1" fill="rgb(203,194,193)"/>
  <rect x="6" y="15" width="1" height="1" fill="rgb(92,82,81)" fill-opacity="0.9765625"/>
  <rect x="6" y="16" width="1" height="1" fill="rgb(29,29,29)" fill-opacity="0.5859375"/>
  <rect x="6" y="17" width="1" height="4" fill="rgb(255,255,255)" fill-opacity="0.0078125"/>
  <rect x="7" y="0" width="1" height="5" fill="rgb(255,255,255)" fill-opacity="0.0078125"/>
  <rect x="7" y="5" width="1" height="1" fill="rgb(28,28,28)" fill-opacity="0.1484375"/>
  <rect x="7" y="6" width="1" height="1" fill="rgb(42,42,42)" fill-opacity="0.9609375"/>
  <rect x="7" y="7" width="1" height="1" fill="rgb(246,246,246)"/>
  <rect x="7" y="8" width="1" height="1" fill="rgb(238,238,238)"/>
  <rect x="7" y="9" width="1" height="1" fill="rgb(240,240,240)"/>
  <rect x="7" y="10" width="1" height="1" fill="rgb(252,252,252)"/>
  <rect x="7" y="11" width="1" height="1" fill="rgb(225,225,225)"/>
  <rect x="7" y="12" width="1" height="1" fill="rgb(179,172,172)"/>
  <rect x="7" y="13" width="1" height="1" fill="rgb(171,156,154)"/>
  <rect x="7" y="14" width="1" height="1" fill="rgb(174,150,148)"/>
  <rect x="7" y="15" width="1" height="1" fill="rgb(193,171,169)"/>
  <rect x="7" y="16" width="1" height="1" fill="rgb(52,45,44)" fill-opacity="0.96875"/>
  <rect x="7" y="17" width="1" height="1" fill="rgb(26,26,26)" fill-opacity="0.2421875"/>
  <rect x="7" y="18" width="1" height="3" fill="rgb(255,255,255)" fill-opacity="0.0078125"/>
  <rect x="8" y="0" width="1" height="5" fill="rgb(255,255,255)" fill-opacity="0.0078125"/>
  <rect x="8" y="5" width="1" height="1" fill="rgb(28,28,28)" fill-opacity="0.5703125"/>
  <rect x="8" y="6" width="1" height="1" fill="rgb(176,176,176)"/>
  <rect x="8" y="7" width="1" height="1" fill="rgb(244,244,244)"/>
  <rect x="8" y="8" width="1" height="1" fill="rgb(237,237,237)"/>
  <rect x="8" y="9" width="1" height="1" fill="rgb(239,239,239)"/>
  <rect x="8" y="10" width="1" height="1" fill="rgb(192,192,192)"/>
  <rect x="8" y="11" width="1" height="1" fill="rgb(178,174,173)"/>
  <rect x="8" y="12" width="1" height="1" fill="rgb(170,158,156)"/>
  <rect x="8" y="13" width="1" height="1" fill="rgb(164,141,138)"/>
  <rect x="8" y="14" width="1" height="1" fill="rgb(159,124,119)"/>
  <rect x="8" y="15" width="1" height="1" fill="rgb(174,134,128)"/>
  <rect x="8" y="16" width="1" height="1" fill="rgb(151,119,115)"/>
  <rect x="8" y="17" width="1" height="1" fill="rgb(30,30,30)" fill-opacity="0.7265625"/>
  <rect x="8" y="18" width="1" height="3" fill="rgb(255,255,255)" fill-opacity="0.0078125"/>
  <rect x="9" y="0" width="1" height="5" fill="rgb(255,255,255)" fill-opacity="0.0078125"/>
  <rect x="9" y="5" width="1" height="1" fill="rgb(32,32,32)" fill-opacity="0.8125"/>
  <rect x="9" y="6" width="1" height="1" fill="rgb(219,219,219)"/>
  <rect x="9" y="7" width="1" height="1" fill="rgb(226,226,226)"/>
  <rect x="9" y="8" width="1" height="1" fill="rgb(250,250,250)"/>
  <rect x="9" y="9" width="1" height="1" fill="rgb(199,199,199)"/>
  <rect x="9" y="10" width="1" height="1" fill="rgb(179,175,175)"/>
  <rect x="9" y="11" width="1" height="1" fill="rgb(170,159,158)"/>
  <rect x="9" y="12" width="1" height="1" fill="rgb(164,143,140)"/>
  <rect x="9" y="13" width="1" height="1" fill="rgb(158,125,122)"/>
  <rect x="9" y="14" width="1" height="1" fill="rgb(154,108,102)"/>
  <rect x="9" y="15" width="1" height="1" fill="rgb(157,98,91)"/>
  <rect x="9" y="16" width="1" height="1" fill="rgb(181,137,131)"/>
  <rect x="9" y="17" width="1" height="1" fill="rgb(29,29,29)" fill-opacity="0.921875"/>
  <rect x="9" y="18" width="1" height="3" fill="rgb(255,255,255)" fill-opacity="0.0078125"/>
  <rect x="10" y="0" width="1" height="5" fill="rgb(255,255,255)" fill-opacity="0.0078125"/>
  <rect x="10" y="5" width="1" height="1" fill="rgb(29,29,29)" fill-opacity="0.9453125"/>
  <rect x="10" y="6" width="1" height="1" fill="rgb(231,231,231)"/>
  <rect x="10" y="7" width="1" height="1" fill="rgb(213,213,213)"/>
  <rect x="10" y="8" width="1" height="1" fill="rgb(226,226,226)"/>
  <rect x="10" y="9" width="1" height="1" fill="rgb(179,176,176)"/>
  <rect x="10" y="10" width="1" height="1" fill="rgb(170,161,160)"/>
  <rect x="10" y="11" width="1" height="1" fill="rgb(163,145,142)"/>
  <rect x="10" y="12" width="1" height="1" fill="rgb(157,127,123)"/>
  <rect x="10" y="13" width="1" height="1" fill="rgb(153,109,104)"/>
  <rect x="10" y="14" width="1" height="1" fill="rgb(150,91,83)"/>
  <rect x="10" y="15" width="1" height="1" fill="rgb(155,80,70)"/>
  <rect x="10" y="16" width="1" height="1" fill="rgb(194,138,131)"/>
  <rect x="10" y="17" width="1" height="1" fill="rgb(32,28,27)"/>
  <rect x="10" y="18" width="1" height="1" fill="rgb(32,32,32)" fill-opacity="0.0390625"/>
  <rect x="10" y="19" width="1" height="2" fill="rgb(255,255,255)" fill-opacity="0.0078125"/>
  <rect x="11" y="0" width="1" height="5" fill="rgb(255,255,255)" fill-opacity="0.0078125"/>
  <rect x="11" y="5" width="1" height="1" fill="rgb(32,32,32)" fill-opacity="0.8203125"/>
  <rect x="11" y="6" width="1" height="1" fill="rgb(197,197,197)"/>
  <rect x="11" y="7" width="1" height="1" fill="rgb(205,205,205)"/>
  <rect x="11" y="8" width="1" height="1" fill="rgb(179,178,178)"/>
  <rect x="11" y="9" width="1" height="1" fill="rgb(170,162,161)"/>
  <rect x="11" y="10" width="1" height="1" fill="rgb(163,146,144)"/>
  <rect x="11" y="11" width="1" height="1" fill="rgb(157,129,125)"/>
  <rect x="11" y="12" width="1" height="1" fill="rgb(152,111,106)"/>
  <rect x="11" y="13" width="1" height="1" fill="rgb(150,93,85)"/>
  <rect x="11" y="14" width="1" height="1" fill="rgb(152,80,71)"/>
  <rect x="11" y="15" width="1" height="1" fill="rgb(168,90,78)"/>
  <rect x="11" y="16" width="1" height="1" fill="rgb(180,118,110)"/>
  <rect x="11" y="17" width="1" height="1" fill="rgb(29,29,29)" fill-opacity="0.9296875"/>
  <rect x="11" y="18" width="1" height="3" fill="rgb(255,255,255)" fill-opacity="0.0078125"/>
  <rect x="12" y="0" width="1" height="5" fill="rgb(255,255,255)" fill-opacity="0.0078125"/>
  <rect x="12" y="5" width="1" height="1" fill="rgb(29,29,29)" fill-opacity="0.578125"/>
  <rect x="12" y="6" width="1" height="1" fill="rgb(140,140,140)"/>
  <rect x="12" y="7" width="1" height="1" fill="rgb(197,197,197)"/>
  <rect x="12" y="8" width="1" height="1" fill="rgb(170,164,163)"/>
  <rect x="12" y="9" width="1" height="1" fill="rgb(162,147,145)"/>
  <rect x="12" y="10" width="1" height="1" fill="rgb(156,130,127)"/>
  <rect x="12" y="11" width="1" height="1" fill="rgb(151,113,108)"/>
  <rect x="12" y="12" width="1" height="1" fill="rgb(148,95,87)"/>
  <rect x="12" y="13" width="1" height="1" fill="rgb(150,81,72)"/>
  <rect x="12" y="14" width="1" height="1" fill="rgb(166,89,72)"/>
  <rect x="12" y="15" width="1" height="1" fill="rgb(213,158,107)"/>
  <rect x="12" y="16" width="1" height="1" fill="rgb(150,93,86)"/>
  <rect x="12" y="17" width="1" height="1" fill="rgb(31,31,31)" fill-opacity="0.734375"/>
  <rect x="12" y="18" width="1" height="3" fill="rgb(255,255,255)" fill-opacity="0.0078125"/>
  <rect x="13" y="0" width="1" height="5" fill="rgb(255,255,255)" fill-opacity="0.0078125"/>
  <rect x="13" y="5" width="1" height="1" fill="rgb(26,26,26)" fill-opacity="0.15625"/>
  <rect x="13" y="6" width="1" height="1" fill="rgb(40,40,40)" fill-opacity="0.9609375"/>
  <rect x="13" y="7" width="1" height="1" fill="rgb(192,190,189)"/>
  <rect x="13" y="8" width="1" height="1" fill="rgb(168,156,154)"/>
  <rect x="13" y="9" width="1" height="1" fill="rgb(156,132,129)"/>
  <rect x="13" y="10" width="1" height="1" fill="rgb(151,114,110)"/>
  <rect x="13" y="11" width="1" height="1" fill="rgb(148,96,90)"/>
  <rect x="13" y="12" width="1" height="1" fill="rgb(148,82,73)"/>
  <rect x="13" y="13" width="1" height="1" fill="rgb(170,100,76)"/>
  <rect x="13" y="14" width="1" height="1" fill="rgb(208,151,98)"/>
  <rect x="13" y="15" width="1" height="1" fill="rgb(201,138,108)"/>
  <rect x="13" y="16" width="1" height="1" fill="rgb(54,39,37)" fill-opacity="0.96875"/>
  <rect x="13" y="17" width="1" height="1" fill="rgb(28,28,28)" fill-opacity="0.2578125"/>
  <rect x="13" y="18" width="1" height="3" fill="rgb(255,255,255)" fill-opacity="0.0078125"/>
  <rect x="14" y="0" width="1" height="6" fill="rgb(255,255,255)" fill-opacity="0.0078125"/>
  <rect x="14" y="6" width="1" height="1" fill="rgb(28,28,28)" fill-opacity="0.46875"/>
  <rect x="14" y="7" width="1" height="1" fill="rgb(74,72,71)" fill-opacity="0.9609375"/>
  <rect x="14" y="8" width="1" height="1" fill="rgb(184,172,170)"/>
  <rect x="14" y="9" width="1" height="1" fill="rgb(171,144,140)"/>
  <rect x="14" y="10" width="1" height="1" fill="rgb(154,109,102)"/>
  <rect x="14" y="11" width="1" height="1" fill="rgb(149,86,78)"/>
  <rect x="14" y="12" width="1" height="1" fill="rgb(161,91,82)"/>
  <rect x="14" y="13" width="1" height="1" fill="rgb(181,109,95)"/>
  <rect x="14" y="14" width="1" height="1" fill="rgb(190,123,106)"/>
  <rect x="14" y="15" width="1" height="1" fill="rgb(90,59,54)" fill-opacity="0.9765625"/>
  <rect x="14" y="16" width="1" height="1" fill="rgb(30,30,30)" fill-opacity="0.609375"/>
  <rect x="14" y="17" width="1" height="4" fill="rgb(255,255,255)" fill-opacity="0.0078125"/>
  <rect x="15" y="0" width="1" height="6" fill="rgb(255,255,255)" fill-opacity="0.0078125"/>
  <rect x="15" y="6" width="1" height="1" fill="rgb(0,0,0)" fill-opacity="0.015625"/>
  <rect x="15" y="7" width="1" height="1" fill="rgb(29,29,29)" fill-opacity="0.5234375"/>
  <rect x="15" y="8" width="1" height="1" fill="rgb(41,39,39)" fill-opacity="0.9609375"/>
  <rect x="15" y="9" width="1" height="1" fill="rgb(134,113,111)"/>
  <rect x="15" y="10" width="1" height="1" fill="rgb(167,135,131)"/>
  <rect x="15" y="11" width="1" height="1" fill="rgb(184,138,132)"/>
  <rect x="15" y="12" width="1" height="1" fill="rgb(170,119,112)"/>
  <rect x="15" y="13" width="1" height="1" fill="rgb(141,92,86)"/>
  <rect x="15" y="14" width="1" height="1" fill="rgb(48,37,35)" fill-opacity="0.9609375"/>
  <rect x="15" y="15" width="1" height="1" fill="rgb(29,29,29)" fill-opacity="0.6171875"/>
  <rect x="15" y="16" width="1" height="1" fill="rgb(32,32,32)" fill-opacity="0.0390625"/>
  <rect x="15" y="17" width="1" height="4" fill="rgb(255,255,255)" fill-opacity="0.0078125"/>
  <rect x="16" y="0" width="1" height="8" fill="rgb(255,255,255)" fill-opacity="0.0078125"/>
  <rect x="16" y="8" width="1" height="1" fill="rgb(26,26,26)" fill-opacity="0.1953125"/>
  <rect x="16" y="9" width="1" height="1" fill="rgb(30,30,30)" fill-opacity="0.640625"/>
  <rect x="16" y="10" width="1" height="1" fill="rgb(31,31,31)" fill-opacity="0.8671875"/>
  <rect x="16" y="11" width="1" height="1" fill="rgb(27,27,27)" fill-opacity="0.984375"/>
  <rect x="16" y="12" width="1" height="1" fill="rgb(30,30,30)" fill-opacity="0.890625"/>
  <rect x="16" y="13" width="1" height="1" fill="rgb(31,31,31)" fill-opacity="0.6796875"/>
  <rect x="16" y="14" width="1" height="1" fill="rgb(27,27,27)" fill-opacity="0.2578125"/>
  <rect x="16" y="15" width="1" height="6" fill="rgb(255,255,255)" fill-opacity="0.0078125"/>
  <rect x="17" y="0" width="1" height="21" fill="rgb(255,255,255)" fill-opacity="0.0078125"/>
  <rect x="18" y="0" width="1" height="21" fill="rgb(255,255,255)" fill-opacity="0.0078125"/>
  <rect x="19" y="0" width="1" height="21" fill="rgb(255,255,255)" fill-opacity="0.0078125"/>
  <rect x="20" y="0" width="1" height="21" fill="rgb(255,255,255)" fill-opacity="0.0078125"/>
</svg>