<svg xmlns="http://www.w3.org/2000/svg" shape-rendering="crispEdges" width="21" height="21" viewBox="0 0 21 21">
  <rect x="0" y="0" width="21" height="1" fill="rgb(255,255,255)" fill-opacity="0.0078125"/>
  <rect x="0" y="1" width="21" height="1" fill="rgb(255,255,255)" fill-opacity="0.0078125"/>
  <rect x="0" y="2" width="21" height="1" fill="rgb(255,255,255)" fill-opacity="0.0078125"/>
  <rect x="0" y="3" width="21" height="1" fill="rgb(255,255,255)" fill-opacity="0.0078125"/>
  <rect x="0" y="4" width="4" height="1" fill="rgb(255,255,255)" fill-opacity="0.0078125"/>
  <rect x="4" y="4" width="1" height="1" fill="rgb(23,51,92)" fill-opacity="0.90625"/>
  <rect x="5" y="4" width="1" height="1" fill="rgb(24,52,93)" fill-opacity="0.984375"/>
  <rect x="6" y="4" width="1" height="1" fill="rgb(26,54,94)" fill-opacity="0.984375"/>
  <rect x="7" y="4" width="1" height="1" fill="rgb(28,55,95)" fill-opacity="0.984375"/>
  <rect x="8" y="4" width="1" height="1" fill="rgb(29,56,95)" fill-opacity="0.984375"/>
  <rect x="9" y="4" width="1" height="1" fill="rgb(31,58,97)" fill-opacity="0.984375"/>
  <rect x="10" y="4" width="1" height="1" fill="rgb(35,59,97)" fill-opacity="0.984375"/>
  <rect x="11" y="4" width="1" height="1" fill="rgb(35,58,96)" fill-opacity="0.9296875"/>
  <rect x="12" y="4" width="9" height="1" fill="rgb(255,255,255)" fill-opacity="0.0078125"/>
  <rect x="0" y="5" width="4" height="1" fill="rgb(255,255,255)" fill-opacity="0.0078125"/>
  <rect x="4" y="5" width="1" height="1" fill="rgb(24,53,95)" fill-opacity="0.984375"/>
  <rect x="5" y="5" width="1" height="1" fill="rgb(194,211,235)"/>
  <rect x="6" y="5" width="1" height="1" fill="rgb(217,227,243)"/>
  <rect x="7" y="5" width="1" height="1" fill="rgb(220,230,244)"/>
  <rect x="8" y="5" width="1" height="1" fill="rgb(223,232,244)"/>
  <rect x="9" y="5" width="1" height="1" fill="rgb(226,234,245)"/>
  <rect x="10" y="5" width="1" height="1" fill="rgb(193,210,235)"/>
  <rect x="11" y="5" width="1" height="1" fill="rgb(46,70,107)" fill-opacity="0.9921875"/>
  <rect x="12" y="5" width="9" height="1" fill="rgb(255,255,255)" fill-opacity="0.0078125"/>
  <rect x="0" y="6" width="4" height="1" fill="rgb(255,255,255)" fill-opacity="0.0078125"/>
  <rect x="4" y="6" width="1" height="1" fill="rgb(25,54,95)" fill-opacity="0.984375"/>
  <rect x="5" y="6" width="1" height="1" fill="rgb(217,227,242)"/>
  <rect x="6" y="6" width="1" height="1" fill="rgb(78,127,197)"/>
  <rect x="7" y="6" width="1" height="1" fill="rgb(93,137,202)"/>
  <rect x="8" y="6" width="1" height="1" fill="rgb(107,148,207)"/>
  <rect x="9" y="6" width="1" height="1" fill="rgb(122,159,212)"/>
  <rect x="10" y="6" width="1" height="1" fill="rgb(189,207,234)"/>
  <rect x="11" y="6" width="1" height="1" fill="rgb(48,72,108)" fill-opacity="0.9921875"/>
  <rect x="12" y="6" width="9" height="1" fill="rgb(255,255,255)" fill-opacity="0.0078125"/>
  <rect x="0" y="7" width="4" height="1" fill="rgb(255,255,255)" fill-opacity="0.0078125"/>
  <rect x="4" y="7" width="1" height="1" fill="rgb(28,55,97)" fill-opacity="0.984375"/>
  <rect x="5" y="7" width="1" height="1" fill="rgb(219,229,243)"/>
  <rect x="6" y="7" width="1" height="1" fill="rgb(91,136,201)"/>
  <rect x="7" y="7" width="1" height="1" fill="rgb(106,147,206)"/>
  <rect x="8" y="7" width="1" height="1" fill="rgb(120,157,211)"/>
  <rect x="9" y="7" width="1" height="1" fill="rgb(135,168,216)"/>
  <rect x="10" y="7" width="1" height="1" fill="rgb(180,200,231)"/>
  <rect x="11" y="7" width="1" height="1" fill="rgb(49,73,108)"/>
  <rect x="12" y="7" width="1" height="1" fill="rgb(28,51,88)" fill-opacity="0.9453125"/>
  <rect x="13" y="7" width="1" height="1" fill="rgb(28,52,88)" fill-opacity="0.9453125"/>
  <rect x="14" y="7" width="1" height="1" fill="rgb(29,53,89)" fill-opacity="0.8359375"/>
  <rect x="15" y="7" width="6" height="1" fill="rgb(255,255,255)" fill-opacity="0.0078125"/>
  <rect x="0" y="8" width="4" height="1" fill="rgb(255,255,255)" fill-opacity="0.0078125"/>
  <rect x="4" y="8" width="1" height="1" fill="rgb(29,56,98)" fill-opacity="0.984375"/>
  <rect x="5" y="8" width="1" height="1" fill="rgb(222,231,244)"/>
  <rect x="6" y="8" width="1" height="1" fill="rgb(104,145,206)"/>
  <rect x="7" y="8" width="1" height="1" fill="rgb(118,156,211)"/>
  <rect x="8" y="8" width="1" height="1" fill="rgb(133,167,216)"/>
  <rect x="9" y="8" width="1" height="1" fill="rgb(147,177,221)"/>
  <rect x="10" y="8" width="1" height="1" fill="rgb(175,197,229)"/>
  <rect x="11" y="8" width="1" height="1" fill="rgb(88,108,138)"/>
  <rect x="12" y="8" width="1" height="1" fill="rgb(194,203,218)"/>
  <rect x="13" y="8" width="1" height="1" fill="rgb(215,226,242)"/>
  <rect x="14" y="8" width="1" height="1" fill="rgb(30,53,89)" fill-opacity="0.9453125"/>
  <rect x="15" y="8" width="6" height="1" fill="rgb(255,255,255)" fill-opacity="0.0078125"/>
  <rect x="0" y="9" width="4" height="1" fill="rgb(255,255,255)" fill-opacity="0.0078125"/>
  <rect x="4" y="9" width="1" height="1" fill="rgb(31,58,98)" fill-opacity="0.984375"/>
  <rect x="5" y="9" width="1" height="1" fill="rgb(224,233,245)"/>
  <rect x="6" y="9" width="1" height="1" fill="rgb(117,155,210)"/>
  <rect x="7" y="9" width="1" height="1" fill="rgb(131,165,215)"/>
  <rect x="8" y="9" width="1" height="1" fill="rgb(146,176,220)"/>
  <rect x="9" y="9" width="1" height="1" fill="rgb(160,187,225)"/>
  <rect x="10" y="9" width="1" height="1" fill="rgb(175,197,230)"/>
  <rect x="11" y="9" width="1" height="1" fill="rgb(71,96,133)"/>
  <rect x="12" y="9" width="1" height="1" fill="rgb(110,142,188)"/>
  <rect x="13" y="9" width="1" height="1" fill="rgb(147,177,220)"/>
  <rect x="14" y="9" width="1" height="1" fill="rgb(31,54,89)" fill-opacity="0.9453125"/>
  <rect x="15" y="9" width="6" height="1" fill="rgb(255,255,255)" fill-opacity="0.0078125"/>
  <rect x="0" y="10" width="4" height="1" fill="rgb(255,255,255)" fill-opacity="0.0078125"/>
  <rect x="4" y="10" width="1" height="1" fill="rgb(34,59,99)" fill-opacity="0.984375"/>
  <rect x="5" y="10" width="1" height="1" fill="rgb(213,225,241)"/>
  <rect x="6" y="10" width="1" height="1" fill="rgb(215,226,242)"/>
  <rect x="7" y="10" width="1" height="1" fill="rgb(196,213,236)"/>
  <rect x="8" y="10" width="1" height="1" fill="rgb(184,203,232)"/>
  <rect x="9" y="10" width="1" height="1" fill="rgb(177,199,230)"/>
  <rect x="10" y="10" width="1" height="1" fill="rgb(188,206,234)"/>
  <rect x="11" y="10" width="1" height="1" fill="rgb(75,100,135)"/>
  <rect x="12" y="10" width="1" height="1" fill="rgb(122,151,192)"/>
  <rect x="13" y="10" width="1" height="1" fill="rgb(162,188,225)"/>
  <rect x="14" y="10" width="1" height="1" fill="rgb(32,55,88)" fill-opacity="0.96875"/>
  <rect x="15" y="10" width="2" height="1" fill="rgb(25,25,25)" fill-opacity="0.40625"/>
  <rect x="17" y="10" width="1" height="1" fill="rgb(30,30,30)" fill-opacity="0.3671875"/>
  <rect x="18" y="10" width="3" height="1" fill="rgb(255,255,255)" fill-opacity="0.0078125"/>
  <rect x="0" y="11" width="4" height="1" fill="rgb(255,255,255)" fill-opacity="0.0078125"/>
  <rect x="4" y="11" width="1" height="1" fill="rgb(32,58,95)" fill-opacity="0.9375"/>
  <rect x="5" y="11" width="1" height="1" fill="rgb(44,71,108)" fill-opacity="0.9921875"/>
  <rect x="6" y="11" width="1" height="1" fill="rgb(47,73,110)" fill-opacity="0.9921875"/>
  <rect x="7" y="11" width="1" height="1" fill="rgb(50,74,110)"/>
  <rect x="8" y="11" width="1" height="1" fill="rgb(92,112,143)"/>
  <rect x="9" y="11" width="1" height="1" fill="rgb(73,99,136)"/>
  <rect x="10" y="11" width="1" height="1" fill="rgb(79,103,138)"/>
  <rect x="11" y="11" width="1" height="1" fill="rgb(82,107,142)"/>
  <rect x="12" y="11" width="1" height="1" fill="rgb(134,159,196)"/>
  <rect x="13" y="11" width="1" height="1" fill="rgb(177,198,230)"/>
  <rect x="14" y="11" width="1" height="1" fill="rgb(37,59,93)" fill-opacity="0.96875"/>
  <rect x="15" y="11" width="1" height="1" fill="rgb(233,233,233)" fill-opacity="0.40625"/>
  <rect x="16" y="11" width="1" height="1" fill="rgb(225,225,225)" fill-opacity="0.40625"/>
  <rect x="17" y="11" width="1" height="1" fill="rgb(25,25,25)" fill-opacity="0.40625"/>
  <rect x="18" y="11" width="3" height="1" fill="rgb(255,255,255)" fill-opacity="0.0078125"/>
  <rect x="0" y="12" width="7" height="1" fill="rgb(255,255,255)" fill-opacity="0.0078125"/>
  <rect x="7" y="12" width="1" height="1" fill="rgb(28,51,88)" fill-opacity="0.9453125"/>
  <rect x="8" y="12" width="1" height="1" fill="rgb(195,204,219)"/>
  <rect x="9" y="12" width="1" height="1" fill="rgb(111,143,190)"/>
  <rect x="10" y="12" width="1" height="1" fill="rgb(123,152,194)"/>
  <rect x="11" y="12" width="1" height="1" fill="rgb(136,161,198)"/>
  <rect x="12" y="12" width="1" height="1" fill="rgb(152,172,205)"/>
  <rect x="13" y="12" width="1" height="1" fill="rgb(191,209,235)"/>
  <rect x="14" y="12" width="1" height="1" fill="rgb(37,59,92)" fill-opacity="0.96875"/>
  <rect x="15" y="12" width="1" height="1" fill="rgb(170,170,170)" fill-opacity="0.40625"/>
  <rect x="16" y="12" width="1" height="1" fill="rgb(190,190,190)" fill-opacity="0.40625"/>
  <rect x="17" y="12" width="1" height="1" fill="rgb(25,25,25)" fill-opacity="0.40625"/>
  <rect x="18" y="12" width="3" height="1" fill="rgb(255,255,255)" fill-opacity="0.0078125"/>
  <rect x="0" y="13" width="7" height="1" fill="rgb(255,255,255)" fill-opacity="0.0078125"/>
  <rect x="7" y="13" width="1" height="1" fill="rgb(28,52,88)" fill-opacity="0.9453125"/>
  <rect x="8" y="13" width="1" height="1" fill="rgb(210,223,240)"/>
  <rect x="9" y="13" width="1" height="1" fill="rgb(147,177,220)"/>
  <rect x="10" y="13" width="1" height="1" fill="rgb(162,188,225)"/>
  <rect x="11" y="13" width="1" height="1" fill="rgb(176,198,230)"/>
  <rect x="12" y="13" width="1" height="1" fill="rgb(191,209,235)"/>
  <rect x="13" y="13" width="1" height="1" fill="rgb(206,220,240)"/>
  <rect x="14" y="13" width="1" height="1" fill="rgb(38,60,92)" fill-opacity="0.96875"/>
  <rect x="15" y="13" width="1" height="1" fill="rgb(190,190,190)" fill-opacity="0.40625"/>
  <rect x="16" y="13" width="1" height="1" fill="rgb(213,213,213)" fill-opacity="0.40625"/>
  <rect x="17" y="13" width="1" height="1" fill="rgb(25,25,25)" fill-opacity="0.40625"/>
  <rect x="18" y="13" width="3" height="1" fill="rgb(255,255,255)" fill-opacity="0.0078125"/>
  <rect x="0" y="14" width="7" height="1" fill="rgb(255,255,255)" fill-opacity="0.0078125"/>
  <rect x="7" y="14" width="1" height="1" fill="rgb(28,51,88)" fill-opacity="0.859375"/>
  <rect x="8" y="14" width="2" height="1" fill="rgb(28,51,87)" fill-opacity="0.9609375"/>
  <rect x="10" y="14" width="1" height="1" fill="rgb(29,51,85)" fill-opacity="0.9765625"/>
  <rect x="11" y="14" width="1" height="1" fill="rgb(34,56,89)" fill-opacity="0.9765625"/>
  <rect x="12" y="14" width="1" height="1" fill="rgb(33,56,89)" fill-opacity="0.9765625"/>
  <rect x="13" y="14" width="1" height="1" fill="rgb(34,56,89)" fill-opacity="0.9765625"/>
  <rect x="14" y="14" width="1" height="1" fill="rgb(44,65,96)" fill-opacity="0.9140625"/>
  <rect x="15" y="14" width="1" height="1" fill="rgb(213,213,213)" fill-opacity="0.40625"/>
  <rect x="16" y="14" width="1" height="1" fill="rgb(233,233,233)" fill-opacity="0.40625"/>
  <rect x="17" y="14" width="1" height="1" fill="rgb(25,25,25)" fill-opacity="0.40625"/>
  <rect x="18" y="14" width="3" height="1" fill="rgb(255,255,255)" fill-opacity="0.0078125"/>
  <rect x="0" y="15" width="10" height="1" fill="rgb(255,255,255)" fill-opacity="0.0078125"/>
  <rect x="10" y="15" width="1" height="1" fill="rgb(25,25,25)" fill-opacity="0.40625"/>
  <rect x="11" y="15" width="1" height="1" fill="rgb(235,235,235)" fill-opacity="0.40625"/>
  <rect x="12" y="15" width="1" height="1" fill="rgb(170,170,170)" fill-opacity="0.40625"/>
  <rect x="13" y="15" width="1" height="1" fill="rgb(193,193,193)" fill-opacity="0.40625"/>
  <rect x="14" y="15" width="1" height="1" fill="rgb(213,213,213)" fill-opacity="0.40625"/>
  <rect x="15" y="15" width="1" height="1" fill="rgb(235,235,235)" fill-opacity="0.40625"/>
  <rect x="16" y="15" width="1" height="1" fill="rgb(255,255,255)" fill-opacity="0.40625"/>
  <rect x="17" y="15" width="1" height="1" fill="rgb(25,25,25)" fill-opacity="0.40625"/>
  <rect x="18" y="15" width="3" height="1" fill="rgb(255,255,255)" fill-opacity="0.0078125"/>
  <rect x="0" y="16" width="10" height="1" fill="rgb(255,255,255)" fill-opacity="0.0078125"/>
  <rect x="10" y="16" width="1" height="1" fill="rgb(25,25,25)" fill-opacity="0.40625"/>
  <rect x="11" y="16" width="1" height="1" fill="rgb(228,228,228)" fill-opacity="0.40625"/>
  <rect x="12" y="16" width="1" height="1" fill="rgb(193,193,193)" fill-opacity="0.40625"/>
  <rect x="13" y="16" width="1" height="1" fill="rgb(213,213,213)" fill-opacity="0.40625"/>
  <rect x="14" y="16" width="1" height="1" fill="rgb(235,235,235)" fill-opacity="0.40625"/>
  <rect x="15" y="16" width="2" height="1" fill="rgb(255,255,255)" fill-opacity="0.40625"/>
  <rect x="17" y="16" width="1" height="1" fill="rgb(25,25,25)" fill-opacity="0.40625"/>
  <rect x="18" y="16" width="3" height="1" fill="rgb(255,255,255)" fill-opacity="0.0078125"/>
  <rect x="0" y="17" width="10" height="1" fill="rgb(255,255,255)" fill-opacity="0.0078125"/>
  <rect x="10" y="17" width="1" height="1" fill="rgb(30,30,30)" fill-opacity="0.3671875"/>
  <rect x="11" y="17" width="6" height="1" fill="rgb(25,25,25)" fill-opacity="0.40625"/>
  <rect x="17" y="17" width="1" height="1" fill="rgb(33,33,33)" fill-opacity="0.3671875"/>
  <rect x="18" y="17" width="3" height="1" fill="rgb(255,255,255)" fill-opacity="0.0078125"/>
  <rect x="0" y="18" width="21" height="1" fill="rgb(255,255,255)" fill-opacity="0.0078125"/>
  <rect x="0" y="19" width="21" height="1" fill="rgb(255,255,255)" fill-opacity="0.0078125"/>
  <rect x="0" y="20" width="21" height="1" fill="rgb(255,255,255)" fill-opacity="0.0078125"/>
</svg>