<svg xmlns="http://www.w3.org/2000/svg" shape-rendering="crispEdges" width="21" height="21" viewBox="0 0 21 21">
  <rect x="0" y="0" width="1" height="21" fill="rgb(255,255,255)" fill-opacity="0.0078125"/>
  <rect x="1" y="0" width="1" height="21" fill="rgb(255,255,255)" fill-opacity="0.0078125"/>
  <rect x="2" y="0" width="1" height="21" fill="rgb(255,255,255)" fill-opacity="0.0078125"/>
  <rect x="3" y="0" width="1" height="15" fill="rgb(255,255,255)" fill-opacity="0.0078125"/>
  <rect x="3" y="15" width="1" height="1" fill="rgb(42,24,12)" fill-opacity="0.171875"/>
  <rect x="3" y="16" width="1" height="1" fill="rgb(43,28,14)" fill-opacity="0.6953125"/>
  <rect x="3" y="17" width="1" height="1" fill="rgb(56,34,16)" fill-opacity="0.8359375"/>
  <rect x="3" y="18" width="1" height="1" fill="rgb(40,24,12)" fill-opacity="0.2578125"/>
  <rect x="3" y="19" width="1" height="2" fill="rgb(255,255,255)" fill-opacity="0.0078125"/>
  <rect x="4" y="0" width="1" height="14" fill="rgb(255,255,255)" fill-opacity="0.0078125"/>
  <rect x="4" y="14" width="1" height="1" fill="rgb(39,22,11)" fill-opacity="0.1875"/>
  <rect x="4" y="15" width="1" height="1" fill="rgb(68,45,31)" fill-opacity="0.9375"/>
  <rect x="4" y="16" width="1" height="1" fill="rgb(205,179,161)"/>
  <rect x="4" y="17" width="1" height="1" fill="rgb(165,103,60)"/>
  <rect x="4" y="18" width="1" height="1" fill="rgb(55,31,15)" fill-opacity="0.8046875"/>
  <rect x="4" y="19" width="1" height="2" fill="rgb(255,255,255)" fill-opacity="0.0078125"/>
  <rect x="5" y="0" width="1" height="13" fill="rgb(255,255,255)" fill-opacity="0.0078125"/>
  <rect x="5" y="13" width="1" height="1" fill="rgb(43,21,11)" fill-opacity="0.1953125"/>
  <rect x="5" y="14" width="1" height="1" fill="rgb(67,45,31)" fill-opacity="0.9375"/>
  <rect x="5" y="15" width="1" height="1" fill="rgb(208,183,166)"/>
  <rect x="5" y="16" width="1" height="1" fill="rgb(189,140,109)"/>
  <rect x="5" y="17" width="1" height="1" fill="rgb(141,80,39)"/>
  <rect x="5" y="18" width="1" height="1" fill="rgb(47,27,14)" fill-opacity="0.796875"/>
  <rect x="5" y="19" width="1" height="2" fill="rgb(255,255,255)" fill-opacity="0.0078125"/>
  <rect x="6" y="0" width="1" height="12" fill="rgb(255,255,255)" fill-opacity="0.0078125"/>
  <rect x="6" y="12" width="1" height="1" fill="rgb(42,21,10)" fill-opacity="0.1953125"/>
  <rect x="6" y="13" width="1" height="1" fill="rgb(67,45,31)" fill-opacity="0.9453125"/>
  <rect x="6" y="14" width="1" height="1" fill="rgb(208,183,166)"/>
  <rect x="6" y="15" width="1" height="1" fill="rgb(189,140,109)"/>
  <rect x="6" y="16" width="1" height="1" fill="rgb(141,80,39)"/>
  <rect x="6" y="17" width="1" height="1" fill="rgb(53,29,14)" fill-opacity="0.9296875"/>
  <rect x="6" y="18" width="1" height="1" fill="rgb(41,23,12)" fill-opacity="0.1796875"/>
  <rect x="6" y="19" width="1" height="2" fill="rgb(255,255,255)" fill-opacity="0.0078125"/>
  <rect x="7" y="0" width="1" height="11" fill="rgb(255,255,255)" fill-opacity="0.0078125"/>
  <rect x="7" y="11" width="1" height="1" fill="rgb(0,0,0)" fill-opacity="0.015625"/>
  <rect x="7" y="12" width="1" height="1" fill="rgb(47,27,14)" fill-opacity="0.875"/>
  <rect x="7" y="13" width="1" height="1" fill="rgb(206,179,161)"/>
  <rect x="7" y="14" width="1" height="1" fill="rgb(189,140,109)"/>
  <rect x="7" y="15" width="1" height="1" fill="rgb(141,80,39)"/>
  <rect x="7" y="16" width="1" height="1" fill="rgb(53,29,14)" fill-opacity="0.9375"/>
  <rect x="7" y="17" width="1" height="1" fill="rgb(39,22,11)" fill-opacity="0.1875"/>
  <rect x="7" y="18" width="1" height="3" fill="rgb(255,255,255)" fill-opacity="0.0078125"/>
  <rect x="8" y="0" width="1" height="5" fill="rgb(255,255,255)" fill-opacity="0.0078125"/>
  <rect x="8" y="5" width="1" height="1" fill="rgb(0,0,0)" fill-opacity="0.046875"/>
  <rect x="8" y="6" width="1" height="1" fill="rgb(0,0,0)" fill-opacity="0.4765625"/>
  <rect x="8" y="7" width="1" height="1" fill="rgb(0,0,0)" fill-opacity="0.71875"/>
  <rect x="8" y="8" width="1" height="1" fill="rgb(0,0,0)" fill-opacity="0.828125"/>
  <rect x="8" y="9" width="1" height="1" fill="rgb(0,0,0)" fill-opacity="0.71875"/>
  <rect x="8" y="10" width="1" height="1" fill="rgb(0,0,0)" fill-opacity="0.484375"/>
  <rect x="8" y="11" width="1" height="1" fill="rgb(0,0,0)" fill-opacity="0.140625"/>
  <rect x="8" y="12" width="1" height="1" fill="rgb(117,102,91)" fill-opacity="0.9921875"/>
  <rect x="8" y="13" width="1" height="1" fill="rgb(169,106,65)"/>
  <rect x="8" y="14" width="1" height="1" fill="rgb(143,81,40)"/>
  <rect x="8" y="15" width="1" height="1" fill="rgb(52,29,14)" fill-opacity="0.9375"/>
  <rect x="8" y="16" width="1" height="1" fill="rgb(43,21,11)" fill-opacity="0.1953125"/>
  <rect x="8" y="17" width="1" height="4" fill="rgb(255,255,255)" fill-opacity="0.0078125"/>
  <rect x="9" y="0" width="1" height="4" fill="rgb(255,255,255)" fill-opacity="0.0078125"/>
  <rect x="9" y="4" width="1" height="1" fill="rgb(0,0,0)" fill-opacity="0.1875"/>
  <rect x="9" y="5" width="1" height="1" fill="rgb(1,1,1)" fill-opacity="0.796875"/>
  <rect x="9" y="6" width="1" height="1" fill="rgb(58,58,58)" fill-opacity="0.4921875"/>
  <rect x="9" y="7" width="1" height="1" fill="rgb(160,160,160)" fill-opacity="0.3828125"/>
  <rect x="9" y="8" width="1" height="1" fill="rgb(203,203,203)" fill-opacity="0.4453125"/>
  <rect x="9" y="9" width="1" height="1" fill="rgb(195,195,195)" fill-opacity="0.46875"/>
  <rect x="9" y="10" width="1" height="1" fill="rgb(113,113,113)" fill-opacity="0.5703125"/>
  <rect x="9" y="11" width="1" height="1" fill="rgb(55,55,55)" fill-opacity="0.9453125"/>
  <rect x="9" y="12" width="1" height="1" fill="rgb(204,204,204)"/>
  <rect x="9" y="13" width="1" height="1" fill="rgb(117,101,90)"/>
  <rect x="9" y="14" width="1" height="1" fill="rgb(42,25,11)" fill-opacity="0.796875"/>
  <rect x="9" y="15" width="1" height="1" fill="rgb(42,21,10)" fill-opacity="0.1953125"/>
  <rect x="9" y="16" width="1" height="5" fill="rgb(255,255,255)" fill-opacity="0.0078125"/>
  <rect x="10" y="0" width="1" height="3" fill="rgb(255,255,255)" fill-opacity="0.0078125"/>
  <rect x="10" y="3" width="1" height="1" fill="rgb(0,0,0)" fill-opacity="0.046875"/>
  <rect x="10" y="4" width="1" height="1" fill="rgb(1,1,1)" fill-opacity="0.8203125"/>
  <rect x="10" y="5" width="1" height="1" fill="rgb(123,123,123)" fill-opacity="0.3515625"/>
  <rect x="10" y="6" width="1" height="1" fill="rgb(122,129,135)" fill-opacity="0.4453125"/>
  <rect x="10" y="7" width="1" height="1" fill="rgb(77,91,115)" fill-opacity="0.421875"/>
  <rect x="10" y="8" width="1" height="1" fill="rgb(53,65,86)" fill-opacity="0.34375"/>
  <rect x="10" y="9" width="1" height="1" fill="rgb(90,94,97)" fill-opacity="0.3125"/>
  <rect x="10" y="10" width="1" height="1" fill="rgb(204,204,204)" fill-opacity="0.4921875"/>
  <rect x="10" y="11" width="1" height="1" fill="rgb(184,184,184)" fill-opacity="0.7265625"/>
  <rect x="10" y="12" width="1" height="1" fill="rgb(55,55,55)" fill-opacity="0.9453125"/>
  <rect x="10" y="13" width="1" height="1" fill="rgb(7,0,0)" fill-opacity="0.15625"/>
  <rect x="10" y="14" width="1" height="7" fill="rgb(255,255,255)" fill-opacity="0.0078125"/>
  <rect x="11" y="0" width="1" height="3" fill="rgb(255,255,255)" fill-opacity="0.0078125"/>
  <rect x="11" y="3" width="1" height="1" fill="rgb(0,0,0)" fill-opacity="0.4765625"/>
  <rect x="11" y="4" width="1" height="1" fill="rgb(55,55,55)" fill-opacity="0.4921875"/>
  <rect x="11" y="5" width="1" height="1" fill="rgb(128,130,134)" fill-opacity="0.4453125"/>
  <rect x="11" y="6" width="1" height="1" fill="rgb(223,226,232)" fill-opacity="0.8203125"/>
  <rect x="11" y="7" width="1" height="1" fill="rgb(232,235,238)" fill-opacity="0.84375"/>
  <rect x="11" y="8" width="1" height="1" fill="rgb(77,92,117)" fill-opacity="0.3515625"/>
  <rect x="11" y="9" width="1" height="1" fill="rgb(92,96,108)" fill-opacity="0.3203125"/>
  <rect x="11" y="10" width="1" height="1" fill="rgb(74,64,59)" fill-opacity="0.2109375"/>
  <rect x="11" y="11" width="1" height="1" fill="rgb(232,232,232)" fill-opacity="0.5703125"/>
  <rect x="11" y="12" width="1" height="1" fill="rgb(152,152,152)" fill-opacity="0.6484375"/>
  <rect x="11" y="13" width="1" height="1" fill="rgb(0,0,0)" fill-opacity="0.484375"/>
  <rect x="11" y="14" width="1" height="7" fill="rgb(255,255,255)" fill-opacity="0.0078125"/>
  <rect x="12" y="0" width="1" height="3" fill="rgb(255,255,255)" fill-opacity="0.0078125"/>
  <rect x="12" y="3" width="1" height="1" fill="rgb(0,0,0)" fill-opacity="0.71875"/>
  <rect x="12" y="4" width="1" height="1" fill="rgb(163,163,163)" fill-opacity="0.3828125"/>
  <rect x="12" y="5" width="1" height="1" fill="rgb(79,87,102)" fill-opacity="0.3984375"/>
  <rect x="12" y="6" width="1" height="1" fill="rgb(227,230,234)" fill-opacity="0.796875"/>
  <rect x="12" y="7" width="1" height="1" fill="rgb(236,238,241)" fill-opacity="0.8359375"/>
  <rect x="12" y="8" width="1" height="1" fill="rgb(130,128,137)" fill-opacity="0.4140625"/>
  <rect x="12" y="9" width="1" height="1" fill="rgb(161,136,141)" fill-opacity="0.40625"/>
  <rect x="12" y="10" width="1" height="1" fill="rgb(176,135,129)" fill-opacity="0.34375"/>
  <rect x="12" y="11" width="1" height="1" fill="rgb(205,196,196)" fill-opacity="0.34375"/>
  <rect x="12" y="12" width="1" height="1" fill="rgb(244,244,244)" fill-opacity="0.7578125"/>
  <rect x="12" y="13" width="1" height="1" fill="rgb(0,0,0)" fill-opacity="0.71875"/>
  <rect x="12" y="14" width="1" height="7" fill="rgb(255,255,255)" fill-opacity="0.0078125"/>
  <rect x="13" y="0" width="1" height="3" fill="rgb(255,255,255)" fill-opacity="0.0078125"/>
  <rect x="13" y="3" width="1" height="1" fill="rgb(0,0,0)" fill-opacity="0.828125"/>
  <rect x="13" y="4" width="1" height="1" fill="rgb(207,207,207)" fill-opacity="0.4453125"/>
  <rect x="13" y="5" width="1" height="1" fill="rgb(51,61,70)" fill-opacity="0.3203125"/>
  <rect x="13" y="6" width="1" height="1" fill="rgb(65,77,94)" fill-opacity="0.3125"/>
  <rect x="13" y="7" width="1" height="1" fill="rgb(126,124,134)" fill-opacity="0.390625"/>
  <rect x="13" y="8" width="1" height="1" fill="rgb(174,153,155)" fill-opacity="0.4609375"/>
  <rect x="13" y="9" width="1" height="1" fill="rgb(200,165,161)" fill-opacity="0.4921875"/>
  <rect x="13" y="10" width="1" height="1" fill="rgb(213,166,160)" fill-opacity="0.453125"/>
  <rect x="13" y="11" width="1" height="1" fill="rgb(221,181,175)" fill-opacity="0.3515625"/>
  <rect x="13" y="12" width="1" height="1" fill="rgb(254,254,254)" fill-opacity="0.9296875"/>
  <rect x="13" y="13" width="1" height="1" fill="rgb(0,0,0)" fill-opacity="0.828125"/>
  <rect x="13" y="14" width="1" height="7" fill="rgb(255,255,255)" fill-opacity="0.0078125"/>
  <rect x="14" y="0" width="1" height="3" fill="rgb(255,255,255)" fill-opacity="0.0078125"/>
  <rect x="14" y="3" width="1" height="1" fill="rgb(0,0,0)" fill-opacity="0.71875"/>
  <rect x="14" y="4" width="1" height="1" fill="rgb(197,197,197)" fill-opacity="0.46875"/>
  <rect x="14" y="5" width="1" height="1" fill="rgb(101,101,104)" fill-opacity="0.3203125"/>
  <rect x="14" y="6" width="1" height="1" fill="rgb(71,75,83)" fill-opacity="0.2734375"/>
  <rect x="14" y="7" width="1" height="1" fill="rgb(156,140,137)" fill-opacity="0.375"/>
  <rect x="14" y="8" width="1" height="1" fill="rgb(199,169,165)" fill-opacity="0.4921875"/>
  <rect x="14" y="9" width="1" height="1" fill="rgb(225,187,183)" fill-opacity="0.6015625"/>
  <rect x="14" y="10" width="1" height="1" fill="rgb(234,179,171)" fill-opacity="0.515625"/>
  <rect x="14" y="11" width="1" height="1" fill="rgb(249,219,214)" fill-opacity="0.46875"/>
  <rect x="14" y="12" width="1" height="1" fill="rgb(250,250,250)" fill-opacity="0.8515625"/>
  <rect x="14" y="13" width="1" height="1" fill="rgb(0,0,0)" fill-opacity="0.71875"/>
  <rect x="14" y="14" width="1" height="7" fill="rgb(255,255,255)" fill-opacity="0.0078125"/>
  <rect x="15" y="0" width="1" height="3" fill="rgb(255,255,255)" fill-opacity="0.0078125"/>
  <rect x="15" y="3" width="1" height="1" fill="rgb(0,0,0)" fill-opacity="0.46875"/>
  <rect x="15" y="4" width="1" height="1" fill="rgb(107,107,107)" fill-opacity="0.5625"/>
  <rect x="15" y="5" width="1" height="1" fill="rgb(211,211,211)" fill-opacity="0.5234375"/>
  <rect x="15" y="6" width="1" height="1" fill="rgb(57,57,57)" fill-opacity="0.1953125"/>
  <rect x="15" y="7" width="1" height="1" fill="rgb(170,140,137)" fill-opacity="0.3359375"/>
  <rect x="15" y="8" width="1" height="1" fill="rgb(212,171,166)" fill-opacity="0.4453125"/>
  <rect x="15" y="9" width="1" height="1" fill="rgb(231,180,175)" fill-opacity="0.515625"/>
  <rect x="15" y="10" width="1" height="1" fill="rgb(247,179,170)" fill-opacity="0.4765625"/>
  <rect x="15" y="11" width="1" height="1" fill="rgb(255,247,246)" fill-opacity="0.7890625"/>
  <rect x="15" y="12" width="1" height="1" fill="rgb(178,178,178)" fill-opacity="0.703125"/>
  <rect x="15" y="13" width="1" height="1" fill="rgb(0,0,0)" fill-opacity="0.4765625"/>
  <rect x="15" y="14" width="1" height="7" fill="rgb(255,255,255)" fill-opacity="0.0078125"/>
  <rect x="16" y="0" width="1" height="3" fill="rgb(255,255,255)" fill-opacity="0.0078125"/>
  <rect x="16" y="3" width="1" height="1" fill="rgb(0,0,0)" fill-opacity="0.0390625"/>
  <rect x="16" y="4" width="1" height="1" fill="rgb(3,3,3)" fill-opacity="0.796875"/>
  <rect x="16" y="5" width="1" height="1" fill="rgb(215,215,215)" fill-opacity="0.5859375"/>
  <rect x="16" y="6" width="1" height="1" fill="rgb(234,234,234)" fill-opacity="0.5703125"/>
  <rect x="16" y="7" width="1" height="1" fill="rgb(204,198,195)" fill-opacity="0.3359375"/>
  <rect x="16" y="8" width="1" height="1" fill="rgb(221,194,190)" fill-opacity="0.328125"/>
  <rect x="16" y="9" width="1" height="1" fill="rgb(246,212,208)" fill-opacity="0.46875"/>
  <rect x="16" y="10" width="1" height="1" fill="rgb(255,250,250)" fill-opacity="0.7734375"/>
  <rect x="16" y="11" width="1" height="1" fill="rgb(243,243,243)" fill-opacity="0.8125"/>
  <rect x="16" y="12" width="1" height="1" fill="rgb(4,4,4)" fill-opacity="0.8046875"/>
  <rect x="16" y="13" width="1" height="1" fill="rgb(0,0,0)" fill-opacity="0.046875"/>
  <rect x="16" y="14" width="1" height="7" fill="rgb(255,255,255)" fill-opacity="0.0078125"/>
  <rect x="17" y="0" width="1" height="4" fill="rgb(255,255,255)" fill-opacity="0.0078125"/>
  <rect x="17" y="4" width="1" height="1" fill="rgb(0,0,0)" fill-opacity="0.1796875"/>
  <rect x="17" y="5" width="1" height="1" fill="rgb(3,3,3)" fill-opacity="0.796875"/>
  <rect x="17" y="6" width="1" height="1" fill="rgb(149,149,149)" fill-opacity="0.640625"/>
  <rect x="17" y="7" width="1" height="1" fill="rgb(243,243,243)" fill-opacity="0.734375"/>
  <rect x="17" y="8" width="1" height="1" fill="rgb(255,255,255)" fill-opacity="0.90625"/>
  <rect x="17" y="9" width="1" height="1" fill="rgb(249,249,249)" fill-opacity="0.828125"/>
  <rect x="17" y="10" width="1" height="1" fill="rgb(178,178,178)" fill-opacity="0.7109375"/>
  <rect x="17" y="11" width="1" height="1" fill="rgb(4,4,4)" fill-opacity="0.8203125"/>
  <rect x="17" y="12" width="1" height="1" fill="rgb(0,0,0)" fill-opacity="0.1875"/>
  <rect x="17" y="13" width="1" height="8" fill="rgb(255,255,255)" fill-opacity="0.0078125"/>
  <rect x="18" y="0" width="1" height="5" fill="rgb(255,255,255)" fill-opacity="0.0078125"/>
  <rect x="18" y="5" width="1" height="1" fill="rgb(0,0,0)" fill-opacity="0.0390625"/>
  <rect x="18" y="6" width="1" height="1" fill="rgb(0,0,0)" fill-opacity="0.46875"/>
  <rect x="18" y="7" width="1" height="1" fill="rgb(0,0,0)" fill-opacity="0.71875"/>
  <rect x="18" y="8" width="1" height="1" fill="rgb(0,0,0)" fill-opacity="0.828125"/>
  <rect x="18" y="9" width="1" height="1" fill="rgb(0,0,0)" fill-opacity="0.71875"/>
  <rect x="18" y="10" width="1" height="1" fill="rgb(0,0,0)" fill-opacity="0.4765625"/>
  <rect x="18" y="11" width="1" height="1" fill="rgb(0,0,0)" fill-opacity="0.046875"/>
  <rect x="18" y="12" width="1" height="9" fill="rgb(255,255,255)" fill-opacity="0.0078125"/>
  <rect x="19" y="0" width="1" height="21" fill="rgb(255,255,255)" fill-opacity="0.0078125"/>
  <rect x="20" y="0" width="1" height="21" fill="rgb(255,255,255)" fill-opacity="0.0078125"/>
</svg>