<svg xmlns="http://www.w3.org/2000/svg" shape-rendering="crispEdges" width="21" height="21" viewBox="0 0 21 21">
  <rect x="0" y="0" width="1" height="21" fill="rgb(255,255,255)" fill-opacity="0.0078125"/>
  <rect x="1" y="0" width="1" height="21" fill="rgb(255,255,255)" fill-opacity="0.0078125"/>
  <rect x="2" y="0" width="1" height="21" fill="rgb(255,255,255)" fill-opacity="0.0078125"/>
  <rect x="3" y="0" width="1" height="21" fill="rgb(255,255,255)" fill-opacity="0.0078125"/>
  <rect x="4" y="0" width="1" height="5" fill="rgb(255,255,255)" fill-opacity="0.0078125"/>
  <rect x="4" y="5" width="1" height="1" fill="rgb(0,0,0)" fill-opacity="0.125"/>
  <rect x="4" y="6" width="1" height="1" fill="rgb(25,25,25)" fill-opacity="0.640625"/>
  <rect x="4" y="7" width="1" height="1" fill="rgb(23,23,23)" fill-opacity="0.8671875"/>
  <rect x="4" y="8" width="1" height="1" fill="rgb(23,23,23)" fill-opacity="0.890625"/>
  <rect x="4" y="9" width="1" height="1" fill="rgb(27,27,27)" fill-opacity="0.7109375"/>
  <rect x="4" y="10" width="1" height="1" fill="rgb(0,0,0)" fill-opacity="0.2265625"/>
  <rect x="4" y="11" width="1" height="10" fill="rgb(255,255,255)" fill-opacity="0.0078125"/>
  <rect x="5" y="0" width="1" height="4" fill="rgb(255,255,255)" fill-opacity="0.0078125"/>
  <rect x="5" y="4" width="1" height="1" fill="rgb(21,21,21)" fill-opacity="0.34375"/>
  <rect x="5" y="5" width="1" height="1" fill="rgb(36,36,36)" fill-opacity="0.9140625"/>
  <rect x="5" y="6" width="1" height="1" fill="rgb(185,185,185)"/>
  <rect x="5" y="7" width="1" height="1" fill="rgb(244,244,244)"/>
  <rect x="5" y="8" width="1" height="1" fill="rgb(252,252,252)"/>
  <rect x="5" y="9" width="1" height="1" fill="rgb(200,200,200)"/>
  <rect x="5" y="10" width="1" height="1" fill="rgb(53,53,53)" fill-opacity="0.9296875"/>
  <rect x="5" y="11" width="1" height="1" fill="rgb(27,27,27)" fill-opacity="0.5625"/>
  <rect x="5" y="12" width="1" height="9" fill="rgb(255,255,255)" fill-opacity="0.0078125"/>
  <rect x="6" y="0" width="1" height="3" fill="rgb(255,255,255)" fill-opacity="0.0078125"/>
  <rect x="6" y="3" width="1" height="1" fill="rgb(0,0,0)" fill-opacity="0.125"/>
  <rect x="6" y="4" width="1" height="1" fill="rgb(36,36,36)" fill-opacity="0.9140625"/>
  <rect x="6" y="5" width="1" height="1" fill="rgb(246,246,246)"/>
  <rect x="6" y="6" width="1" height="2" fill="rgb(255,255,255)"/>
  <rect x="6" y="8" width="1" height="1" fill="rgb(242,242,242)"/>
  <rect x="6" y="9" width="1" height="1" fill="rgb(229,229,229)"/>
  <rect x="6" y="10" width="1" height="1" fill="rgb(215,215,215)"/>
  <rect x="6" y="11" width="1" height="1" fill="rgb(72,72,72)" fill-opacity="0.9375"/>
  <rect x="6" y="12" width="1" height="1" fill="rgb(10,10,10)" fill-opacity="0.3125"/>
  <rect x="6" y="13" width="1" height="8" fill="rgb(255,255,255)" fill-opacity="0.0078125"/>
  <rect x="7" y="0" width="1" height="3" fill="rgb(255,255,255)" fill-opacity="0.0078125"/>
  <rect x="7" y="3" width="1" height="1" fill="rgb(25,25,25)" fill-opacity="0.640625"/>
  <rect x="7" y="4" width="1" height="1" fill="rgb(185,185,185)"/>
  <rect x="7" y="5" width="1" height="1" fill="rgb(255,255,255)"/>
  <rect x="7" y="6" width="1" height="1" fill="rgb(254,254,254)"/>
  <rect x="7" y="7" width="1" height="1" fill="rgb(241,241,241)"/>
  <rect x="7" y="8" width="1" height="1" fill="rgb(228,228,228)"/>
  <rect x="7" y="9" width="1" height="1" fill="rgb(215,215,215)"/>
  <rect x="7" y="10" width="1" height="1" fill="rgb(202,202,202)"/>
  <rect x="7" y="11" width="1" height="1" fill="rgb(179,179,179)"/>
  <rect x="7" y="12" width="1" height="1" fill="rgb(25,25,25)" fill-opacity="0.8671875"/>
  <rect x="7" y="13" width="1" height="8" fill="rgb(255,255,255)" fill-opacity="0.0078125"/>
  <rect x="8" y="0" width="1" height="3" fill="rgb(255,255,255)" fill-opacity="0.0078125"/>
  <rect x="8" y="3" width="1" height="1" fill="rgb(23,23,23)" fill-opacity="0.8671875"/>
  <rect x="8" y="4" width="1" height="1" fill="rgb(244,244,244)"/>
  <rect x="8" y="5" width="1" height="1" fill="rgb(253,253,253)"/>
  <rect x="8" y="6" width="1" height="1" fill="rgb(240,240,240)"/>
  <rect x="8" y="7" width="1" height="1" fill="rgb(227,227,227)"/>
  <rect x="8" y="8" width="1" height="1" fill="rgb(198,204,213)"/>
  <rect x="8" y="9" width="1" height="1" fill="rgb(169,183,203)"/>
  <rect x="8" y="10" width="1" height="1" fill="rgb(157,171,192)"/>
  <rect x="8" y="11" width="1" height="1" fill="rgb(148,162,183)"/>
  <rect x="8" y="12" width="1" height="1" fill="rgb(39,53,73)" fill-opacity="0.9453125"/>
  <rect x="8" y="13" width="1" height="1" fill="rgb(37,69,117)" fill-opacity="0.1953125"/>
  <rect x="8" y="14" width="1" height="1" fill="rgb(0,0,0)" fill-opacity="0.03125"/>
  <rect x="8" y="15" width="1" height="6" fill="rgb(255,255,255)" fill-opacity="0.0078125"/>
  <rect x="9" y="0" width="1" height="3" fill="rgb(255,255,255)" fill-opacity="0.0078125"/>
  <rect x="9" y="3" width="1" height="1" fill="rgb(23,23,23)" fill-opacity="0.890625"/>
  <rect x="9" y="4" width="1" height="1" fill="rgb(249,249,249)"/>
  <rect x="9" y="5" width="1" height="1" fill="rgb(239,239,239)"/>
  <rect x="9" y="6" width="1" height="1" fill="rgb(225,225,225)"/>
  <rect x="9" y="7" width="1" height="1" fill="rgb(212,212,213)"/>
  <rect x="9" y="8" width="1" height="1" fill="rgb(166,181,200)"/>
  <rect x="9" y="9" width="1" height="1" fill="rgb(69,123,202)"/>
  <rect x="9" y="10" width="1" height="2" fill="rgb(55,113,200)"/>
  <rect x="9" y="12" width="1" height="1" fill="rgb(60,111,187)"/>
  <rect x="9" y="13" width="1" height="1" fill="rgb(50,64,84)" fill-opacity="0.9375"/>
  <rect x="9" y="14" width="1" height="1" fill="rgb(35,35,35)" fill-opacity="0.921875"/>
  <rect x="9" y="15" width="1" height="1" fill="rgb(27,27,27)" fill-opacity="0.859375"/>
  <rect x="9" y="16" width="1" height="1" fill="rgb(7,7,7)" fill-opacity="0.2890625"/>
  <rect x="9" y="17" width="1" height="4" fill="rgb(255,255,255)" fill-opacity="0.0078125"/>
  <rect x="10" y="0" width="1" height="3" fill="rgb(255,255,255)" fill-opacity="0.0078125"/>
  <rect x="10" y="3" width="1" height="1" fill="rgb(27,27,27)" fill-opacity="0.7109375"/>
  <rect x="10" y="4" width="1" height="1" fill="rgb(197,197,197)"/>
  <rect x="10" y="5" width="1" height="1" fill="rgb(224,224,224)"/>
  <rect x="10" y="6" width="1" height="1" fill="rgb(211,211,211)"/>
  <rect x="10" y="7" width="1" height="1" fill="rgb(197,197,198)"/>
  <rect x="10" y="8" width="1" height="1" fill="rgb(152,168,190)"/>
  <rect x="10" y="9" width="1" height="1" fill="rgb(58,115,200)"/>
  <rect x="10" y="10" width="1" height="1" fill="rgb(255,255,255)"/>
  <rect x="10" y="11" width="1" height="1" fill="rgb(249,251,253)"/>
  <rect x="10" y="12" width="1" height="1" fill="rgb(60,116,202)"/>
  <rect x="10" y="13" width="1" height="1" fill="rgb(210,223,243)"/>
  <rect x="10" y="14" width="1" height="1" fill="rgb(255,255,255)"/>
  <rect x="10" y="15" width="1" height="1" fill="rgb(231,231,231)"/>
  <rect x="10" y="16" width="1" height="1" fill="rgb(65,65,65)" fill-opacity="0.9375"/>
  <rect x="10" y="17" width="1" height="1" fill="rgb(25,25,25)" fill-opacity="0.5234375"/>
  <rect x="10" y="18" width="1" height="3" fill="rgb(255,255,255)" fill-opacity="0.0078125"/>
  <rect x="11" y="0" width="1" height="3" fill="rgb(255,255,255)" fill-opacity="0.0078125"/>
  <rect x="11" y="3" width="1" height="1" fill="rgb(0,0,0)" fill-opacity="0.2265625"/>
  <rect x="11" y="4" width="1" height="1" fill="rgb(52,52,52)" fill-opacity="0.9296875"/>
  <rect x="11" y="5" width="1" height="1" fill="rgb(209,209,209)"/>
  <rect x="11" y="6" width="1" height="1" fill="rgb(197,197,197)"/>
  <rect x="11" y="7" width="1" height="1" fill="rgb(184,184,185)"/>
  <rect x="11" y="8" width="1" height="1" fill="rgb(142,158,180)"/>
  <rect x="11" y="9" width="1" height="1" fill="rgb(58,115,200)"/>
  <rect x="11" y="10" width="1" height="1" fill="rgb(255,255,255)"/>
  <rect x="11" y="11" width="1" height="1" fill="rgb(249,251,253)"/>
  <rect x="11" y="12" width="1" height="1" fill="rgb(60,116,202)"/>
  <rect x="11" y="13" width="1" height="1" fill="rgb(210,223,243)"/>
  <rect x="11" y="14" width="1" height="2" fill="rgb(255,255,255)"/>
  <rect x="11" y="16" width="1" height="1" fill="rgb(235,235,235)"/>
  <rect x="11" y="17" width="1" height="1" fill="rgb(47,47,47)" fill-opacity="0.9296875"/>
  <rect x="11" y="18" width="1" height="1" fill="rgb(0,0,0)" fill-opacity="0.203125"/>
  <rect x="11" y="19" width="1" height="2" fill="rgb(255,255,255)" fill-opacity="0.0078125"/>
  <rect x="12" y="0" width="1" height="4" fill="rgb(255,255,255)" fill-opacity="0.0078125"/>
  <rect x="12" y="4" width="1" height="1" fill="rgb(25,25,25)" fill-opacity="0.5546875"/>
  <rect x="12" y="5" width="1" height="1" fill="rgb(70,70,70)" fill-opacity="0.9375"/>
  <rect x="12" y="6" width="1" height="1" fill="rgb(175,175,175)"/>
  <rect x="12" y="7" width="1" height="1" fill="rgb(168,168,169)"/>
  <rect x="12" y="8" width="1" height="1" fill="rgb(135,149,169)"/>
  <rect x="12" y="9" width="1" height="1" fill="rgb(59,113,192)"/>
  <rect x="12" y="10" width="1" height="2" fill="rgb(55,113,200)"/>
  <rect x="12" y="12" width="1" height="1" fill="rgb(80,131,207)"/>
  <rect x="12" y="13" width="1" height="1" fill="rgb(213,225,244)"/>
  <rect x="12" y="14" width="1" height="1" fill="rgb(255,255,255)"/>
  <rect x="12" y="15" width="1" height="1" fill="rgb(237,237,237)"/>
  <rect x="12" y="16" width="1" height="1" fill="rgb(215,215,215)"/>
  <rect x="12" y="17" width="1" height="1" fill="rgb(163,163,163)"/>
  <rect x="12" y="18" width="1" height="1" fill="rgb(27,27,27)" fill-opacity="0.671875"/>
  <rect x="12" y="19" width="1" height="2" fill="rgb(255,255,255)" fill-opacity="0.0078125"/>
  <rect x="13" y="0" width="1" height="5" fill="rgb(255,255,255)" fill-opacity="0.0078125"/>
  <rect x="13" y="5" width="1" height="1" fill="rgb(10,10,10)" fill-opacity="0.3125"/>
  <rect x="13" y="6" width="1" height="1" fill="rgb(25,25,25)" fill-opacity="0.875"/>
  <rect x="13" y="7" width="1" height="1" fill="rgb(30,30,30)" fill-opacity="0.9296875"/>
  <rect x="13" y="8" width="1" height="1" fill="rgb(38,45,54)" fill-opacity="0.9375"/>
  <rect x="13" y="9" width="1" height="1" fill="rgb(53,68,87)" fill-opacity="0.9921875"/>
  <rect x="13" y="10" width="1" height="2" fill="rgb(208,222,243)"/>
  <rect x="13" y="12" width="1" height="1" fill="rgb(210,224,243)"/>
  <rect x="13" y="13" width="1" height="1" fill="rgb(235,241,250)"/>
  <rect x="13" y="14" width="1" height="1" fill="rgb(237,237,237)"/>
  <rect x="13" y="15" width="1" height="1" fill="rgb(215,215,215)"/>
  <rect x="13" y="16" width="1" height="1" fill="rgb(193,193,193)"/>
  <rect x="13" y="17" width="1" height="1" fill="rgb(167,167,167)"/>
  <rect x="13" y="18" width="1" height="1" fill="rgb(27,27,27)" fill-opacity="0.859375"/>
  <rect x="13" y="19" width="1" height="2" fill="rgb(255,255,255)" fill-opacity="0.0078125"/>
  <rect x="14" y="0" width="1" height="7" fill="rgb(255,255,255)" fill-opacity="0.0078125"/>
  <rect x="14" y="7" width="1" height="1" fill="rgb(0,0,0)" fill-opacity="0.0390625"/>
  <rect x="14" y="8" width="1" height="1" fill="rgb(0,0,0)" fill-opacity="0.1171875"/>
  <rect x="14" y="9" width="1" height="1" fill="rgb(39,39,39)" fill-opacity="0.921875"/>
  <rect x="14" y="10" width="1" height="3" fill="rgb(255,255,255)"/>
  <rect x="14" y="13" width="1" height="1" fill="rgb(238,238,238)"/>
  <rect x="14" y="14" width="1" height="1" fill="rgb(216,216,216)"/>
  <rect x="14" y="15" width="1" height="1" fill="rgb(193,193,193)"/>
  <rect x="14" y="16" width="1" height="1" fill="rgb(171,171,171)"/>
  <rect x="14" y="17" width="1" height="1" fill="rgb(147,147,147)"/>
  <rect x="14" y="18" width="1" height="1" fill="rgb(28,28,28)" fill-opacity="0.828125"/>
  <rect x="14" y="19" width="1" height="2" fill="rgb(255,255,255)" fill-opacity="0.0078125"/>
  <rect x="15" y="0" width="1" height="9" fill="rgb(255,255,255)" fill-opacity="0.0078125"/>
  <rect x="15" y="9" width="1" height="1" fill="rgb(21,21,21)" fill-opacity="0.8984375"/>
  <rect x="15" y="10" width="1" height="1" fill="rgb(241,241,241)"/>
  <rect x="15" y="11" width="1" height="1" fill="rgb(255,255,255)"/>
  <rect x="15" y="12" width="1" height="1" fill="rgb(238,238,238)"/>
  <rect x="15" y="13" width="1" height="1" fill="rgb(216,216,216)"/>
  <rect x="15" y="14" width="1" height="1" fill="rgb(194,194,194)"/>
  <rect x="15" y="15" width="1" height="1" fill="rgb(172,172,172)"/>
  <rect x="15" y="16" width="1" height="1" fill="rgb(153,153,153)"/>
  <rect x="15" y="17" width="1" height="1" fill="rgb(128,128,128)"/>
  <rect x="15" y="18" width="1" height="1" fill="rgb(23,23,23)" fill-opacity="0.6015625"/>
  <rect x="15" y="19" width="1" height="2" fill="rgb(255,255,255)" fill-opacity="0.0078125"/>
  <rect x="16" y="0" width="1" height="9" fill="rgb(255,255,255)" fill-opacity="0.0078125"/>
  <rect x="16" y="9" width="1" height="1" fill="rgb(14,14,14)" fill-opacity="0.3671875"/>
  <rect x="16" y="10" width="1" height="1" fill="rgb(86,86,86)" fill-opacity="0.9375"/>
  <rect x="16" y="11" width="1" height="1" fill="rgb(238,238,238)"/>
  <rect x="16" y="12" width="1" height="1" fill="rgb(217,217,217)"/>
  <rect x="16" y="13" width="1" height="1" fill="rgb(195,195,195)"/>
  <rect x="16" y="14" width="1" height="1" fill="rgb(173,173,173)"/>
  <rect x="16" y="15" width="1" height="1" fill="rgb(153,153,153)"/>
  <rect x="16" y="16" width="1" height="1" fill="rgb(150,150,150)"/>
  <rect x="16" y="17" width="1" height="1" fill="rgb(31,31,31)" fill-opacity="0.921875"/>
  <rect x="16" y="18" width="1" height="1" fill="rgb(0,0,0)" fill-opacity="0.109375"/>
  <rect x="16" y="19" width="1" height="2" fill="rgb(255,255,255)" fill-opacity="0.0078125"/>
  <rect x="17" y="0" width="1" height="10" fill="rgb(255,255,255)" fill-opacity="0.0078125"/>
  <rect x="17" y="10" width="1" height="1" fill="rgb(25,25,25)" fill-opacity="0.6015625"/>
  <rect x="17" y="11" width="1" height="1" fill="rgb(55,55,55)" fill-opacity="0.9375"/>
  <rect x="17" y="12" width="1" height="1" fill="rgb(169,169,169)"/>
  <rect x="17" y="13" width="1" height="1" fill="rgb(171,171,171)"/>
  <rect x="17" y="14" width="1" height="1" fill="rgb(149,149,149)"/>
  <rect x="17" y="15" width="1" height="1" fill="rgb(129,129,129)"/>
  <rect x="17" y="16" width="1" height="1" fill="rgb(27,27,27)" fill-opacity="0.9296875"/>
  <rect x="17" y="17" width="1" height="1" fill="rgb(19,19,19)" fill-opacity="0.3125"/>
  <rect x="17" y="18" width="1" height="3" fill="rgb(255,255,255)" fill-opacity="0.0078125"/>
  <rect x="18" y="0" width="1" height="11" fill="rgb(255,255,255)" fill-opacity="0.0078125"/>
  <rect x="18" y="11" width="1" height="1" fill="rgb(4,4,4)" fill-opacity="0.265625"/>
  <rect x="18" y="12" width="1" height="1" fill="rgb(28,28,28)" fill-opacity="0.7265625"/>
  <rect x="18" y="13" width="1" height="1" fill="rgb(24,24,24)" fill-opacity="0.890625"/>
  <rect x="18" y="14" width="1" height="1" fill="rgb(24,24,24)" fill-opacity="0.8671875"/>
  <rect x="18" y="15" width="1" height="1" fill="rgb(24,24,24)" fill-opacity="0.6328125"/>
  <rect x="18" y="16" width="1" height="1" fill="rgb(0,0,0)" fill-opacity="0.109375"/>
  <rect x="18" y="17" width="1" height="4" fill="rgb(255,255,255)" fill-opacity="0.0078125"/>
  <rect x="19" y="0" width="1" height="21" fill="rgb(255,255,255)" fill-opacity="0.0078125"/>
  <rect x="20" y="0" width="1" height="21" fill="rgb(255,255,255)" fill-opacity="0.0078125"/>
</svg>