<svg xmlns="http://www.w3.org/2000/svg" shape-rendering="crispEdges" width="21" height="21" viewBox="0 0 21 21">
  <rect x="0" y="0" width="21" height="1" fill="rgb(255,255,255)" fill-opacity="0.0078125"/>
  <rect x="0" y="1" width="21" height="1" fill="rgb(255,255,255)" fill-opacity="0.0078125"/>
  <rect x="0" y="2" width="21" height="1" fill="rgb(255,255,255)" fill-opacity="0.0078125"/>
  <rect x="0" y="3" width="21" height="1" fill="rgb(255,255,255)" fill-opacity="0.0078125"/>
  <rect x="0" y="4" width="9" height="1" fill="rgb(255,255,255)" fill-opacity="0.0078125"/>
  <rect x="9" y="4" width="1" height="1" fill="rgb(51,51,51)" fill-opacity="0.7109375"/>
  <rect x="10" y="4" width="2" height="1" fill="rgb(51,51,51)"/>
  <rect x="12" y="4" width="1" height="1" fill="rgb(51,51,51)" fill-opacity="0.7109375"/>
  <rect x="13" y="4" width="8" height="1" fill="rgb(255,255,255)" fill-opacity="0.0078125"/>
  <rect x="0" y="5" width="5" height="1" fill="rgb(255,255,255)" fill-opacity="0.0078125"/>
  <rect x="5" y="5" width="1" height="1" fill="rgb(53,53,53)" fill-opacity="0.1015625"/>
  <rect x="6" y="5" width="1" height="1" fill="rgb(51,51,51)" fill-opacity="0.6953125"/>
  <rect x="7" y="5" width="1" height="1" fill="rgb(50,50,50)" fill-opacity="0.71875"/>
  <rect x="8" y="5" width="1" height="1" fill="rgb(51,51,51)" fill-opacity="0.140625"/>
  <rect x="9" y="5" width="1" height="1" fill="rgb(51,51,51)"/>
  <rect x="10" y="5" width="1" height="1" fill="rgb(234,234,234)"/>
  <rect x="11" y="5" width="1" height="1" fill="rgb(231,231,231)"/>
  <rect x="12" y="5" width="1" height="1" fill="rgb(51,51,51)"/>
  <rect x="13" y="5" width="1" height="1" fill="rgb(51,51,51)" fill-opacity="0.140625"/>
  <rect x="14" y="5" width="1" height="1" fill="rgb(50,50,50)" fill-opacity="0.71875"/>
  <rect x="15" y="5" width="1" height="1" fill="rgb(63,63,63)" fill-opacity="0.7109375"/>
  <rect x="16" y="5" width="1" height="1" fill="rgb(53,53,53)" fill-opacity="0.1015625"/>
  <rect x="17" y="5" width="4" height="1" fill="rgb(255,255,255)" fill-opacity="0.0078125"/>
  <rect x="0" y="6" width="5" height="1" fill="rgb(255,255,255)" fill-opacity="0.0078125"/>
  <rect x="5" y="6" width="1" height="1" fill="rgb(51,51,51)" fill-opacity="0.6953125"/>
  <rect x="6" y="6" width="1" height="1" fill="rgb(167,167,167)"/>
  <rect x="7" y="6" width="1" height="1" fill="rgb(195,195,195)"/>
  <rect x="8" y="6" width="1" height="1" fill="rgb(63,63,63)" fill-opacity="0.984375"/>
  <rect x="9" y="6" width="1" height="1" fill="rgb(98,98,98)"/>
  <rect x="10" y="6" width="1" height="1" fill="rgb(249,249,249)"/>
  <rect x="11" y="6" width="1" height="1" fill="rgb(146,146,146)"/>
  <rect x="12" y="6" width="1" height="1" fill="rgb(69,69,69)"/>
  <rect x="13" y="6" width="1" height="1" fill="rgb(64,64,64)" fill-opacity="0.984375"/>
  <rect x="14" y="6" width="1" height="1" fill="rgb(202,202,202)"/>
  <rect x="15" y="6" width="1" height="1" fill="rgb(175,175,175)"/>
  <rect x="16" y="6" width="1" height="1" fill="rgb(65,65,65)" fill-opacity="0.7109375"/>
  <rect x="17" y="6" width="4" height="1" fill="rgb(255,255,255)" fill-opacity="0.0078125"/>
  <rect x="0" y="7" width="5" height="1" fill="rgb(255,255,255)" fill-opacity="0.0078125"/>
  <rect x="5" y="7" width="1" height="1" fill="rgb(50,50,50)" fill-opacity="0.71875"/>
  <rect x="6" y="7" width="1" height="1" fill="rgb(100,100,100)"/>
  <rect x="7" y="7" width="1" height="1" fill="rgb(190,190,190)"/>
  <rect x="8" y="7" width="1" height="1" fill="rgb(230,230,230)"/>
  <rect x="9" y="7" width="1" height="1" fill="rgb(233,233,233)"/>
  <rect x="10" y="7" width="1" height="1" fill="rgb(193,193,193)"/>
  <rect x="11" y="7" width="1" height="1" fill="rgb(156,156,156)"/>
  <rect x="12" y="7" width="1" height="1" fill="rgb(166,166,166)"/>
  <rect x="13" y="7" width="1" height="1" fill="rgb(211,211,211)"/>
  <rect x="14" y="7" width="1" height="1" fill="rgb(221,221,221)"/>
  <rect x="15" y="7" width="1" height="1" fill="rgb(141,141,141)"/>
  <rect x="16" y="7" width="1" height="1" fill="rgb(50,50,50)" fill-opacity="0.71875"/>
  <rect x="17" y="7" width="4" height="1" fill="rgb(255,255,255)" fill-opacity="0.0078125"/>
  <rect x="0" y="8" width="5" height="1" fill="rgb(255,255,255)" fill-opacity="0.0078125"/>
  <rect x="5" y="8" width="1" height="1" fill="rgb(51,51,51)" fill-opacity="0.140625"/>
  <rect x="6" y="8" width="1" height="1" fill="rgb(52,52,52)" fill-opacity="0.984375"/>
  <rect x="7" y="8" width="1" height="1" fill="rgb(124,124,124)"/>
  <rect x="8" y="8" width="1" height="1" fill="rgb(139,139,139)"/>
  <rect x="9" y="8" width="1" height="1" fill="rgb(146,146,146)"/>
  <rect x="10" y="8" width="1" height="1" fill="rgb(156,156,156)"/>
  <rect x="11" y="8" width="1" height="1" fill="rgb(166,166,166)"/>
  <rect x="12" y="8" width="1" height="1" fill="rgb(175,175,175)"/>
  <rect x="13" y="8" width="1" height="1" fill="rgb(186,186,186)"/>
  <rect x="14" y="8" width="1" height="1" fill="rgb(179,179,179)"/>
  <rect x="15" y="8" width="1" height="1" fill="rgb(54,54,54)" fill-opacity="0.984375"/>
  <rect x="16" y="8" width="1" height="1" fill="rgb(51,51,51)" fill-opacity="0.140625"/>
  <rect x="17" y="8" width="4" height="1" fill="rgb(255,255,255)" fill-opacity="0.0078125"/>
  <rect x="0" y="9" width="4" height="1" fill="rgb(255,255,255)" fill-opacity="0.0078125"/>
  <rect x="4" y="9" width="1" height="1" fill="rgb(51,51,51)" fill-opacity="0.7109375"/>
  <rect x="5" y="9" width="1" height="1" fill="rgb(51,51,51)"/>
  <rect x="6" y="9" width="1" height="1" fill="rgb(97,97,97)"/>
  <rect x="7" y="9" width="1" height="1" fill="rgb(228,228,228)"/>
  <rect x="8" y="9" width="1" height="1" fill="rgb(147,147,147)"/>
  <rect x="9" y="9" width="3" height="1" fill="rgb(51,51,51)"/>
  <rect x="12" y="9" width="1" height="1" fill="rgb(135,135,135)"/>
  <rect x="13" y="9" width="1" height="1" fill="rgb(218,218,218)"/>
  <rect x="14" y="9" width="1" height="1" fill="rgb(205,205,205)"/>
  <rect x="15" y="9" width="1" height="1" fill="rgb(78,78,78)"/>
  <rect x="16" y="9" width="1" height="1" fill="rgb(51,51,51)"/>
  <rect x="17" y="9" width="1" height="1" fill="rgb(51,51,51)" fill-opacity="0.7109375"/>
  <rect x="18" y="9" width="3" height="1" fill="rgb(255,255,255)" fill-opacity="0.0078125"/>
  <rect x="0" y="10" width="4" height="1" fill="rgb(255,255,255)" fill-opacity="0.0078125"/>
  <rect x="4" y="10" width="1" height="1" fill="rgb(51,51,51)"/>
  <rect x="5" y="10" width="1" height="1" fill="rgb(234,234,234)"/>
  <rect x="6" y="10" width="1" height="1" fill="rgb(249,249,249)"/>
  <rect x="7" y="10" width="1" height="1" fill="rgb(194,194,194)"/>
  <rect x="8" y="10" width="1" height="1" fill="rgb(156,156,156)"/>
  <rect x="9" y="10" width="1" height="1" fill="rgb(51,51,51)"/>
  <rect x="10" y="10" width="1" height="1" fill="rgb(128,128,128)" fill-opacity="0.4296875"/>
  <rect x="11" y="10" width="1" height="1" fill="rgb(141,141,141)" fill-opacity="0.6796875"/>
  <rect x="12" y="10" width="1" height="1" fill="rgb(132,132,132)"/>
  <rect x="13" y="10" width="1" height="1" fill="rgb(141,141,141)"/>
  <rect x="14" y="10" width="1" height="1" fill="rgb(124,124,124)"/>
  <rect x="15" y="10" width="1" height="1" fill="rgb(112,112,112)"/>
  <rect x="16" y="10" width="1" height="1" fill="rgb(100,100,100)"/>
  <rect x="17" y="10" width="1" height="1" fill="rgb(45,45,45)"/>
  <rect x="18" y="10" width="3" height="1" fill="rgb(255,255,255)" fill-opacity="0.0078125"/>
  <rect x="0" y="11" width="4" height="1" fill="rgb(255,255,255)" fill-opacity="0.0078125"/>
  <rect x="4" y="11" width="1" height="1" fill="rgb(51,51,51)"/>
  <rect x="5" y="11" width="1" height="1" fill="rgb(231,231,231)"/>
  <rect x="6" y="11" width="1" height="1" fill="rgb(147,147,147)"/>
  <rect x="7" y="11" width="1" height="1" fill="rgb(157,157,157)"/>
  <rect x="8" y="11" width="1" height="1" fill="rgb(166,166,166)"/>
  <rect x="9" y="11" width="1" height="1" fill="rgb(51,51,51)"/>
  <rect x="10" y="11" width="1" height="1" fill="rgb(132,132,132)" fill-opacity="0.6640625"/>
  <rect x="11" y="11" width="6" height="1" fill="rgb(255,255,255)"/>
  <rect x="17" y="11" width="1" height="1" fill="rgb(43,43,43)"/>
  <rect x="18" y="11" width="3" height="1" fill="rgb(255,255,255)" fill-opacity="0.0078125"/>
  <rect x="0" y="12" width="4" height="1" fill="rgb(255,255,255)" fill-opacity="0.0078125"/>
  <rect x="4" y="12" width="1" height="1" fill="rgb(51,51,51)" fill-opacity="0.7109375"/>
  <rect x="5" y="12" width="1" height="1" fill="rgb(51,51,51)"/>
  <rect x="6" y="12" width="1" height="1" fill="rgb(69,69,69)"/>
  <rect x="7" y="12" width="1" height="1" fill="rgb(167,167,167)"/>
  <rect x="8" y="12" width="1" height="1" fill="rgb(176,176,176)"/>
  <rect x="9" y="12" width="1" height="1" fill="rgb(133,133,133)"/>
  <rect x="10" y="12" width="1" height="1" fill="rgb(124,124,124)"/>
  <rect x="11" y="12" width="1" height="1" fill="rgb(255,255,255)"/>
  <rect x="12" y="12" width="1" height="1" fill="rgb(135,135,135)"/>
  <rect x="13" y="12" width="2" height="1" fill="rgb(0,0,0)"/>
  <rect x="15" y="12" width="1" height="1" fill="rgb(127,127,127)"/>
  <rect x="16" y="12" width="1" height="1" fill="rgb(255,255,255)"/>
  <rect x="17" y="12" width="1" height="1" fill="rgb(32,32,32)" fill-opacity="0.96875"/>
  <rect x="18" y="12" width="3" height="1" fill="rgb(255,255,255)" fill-opacity="0.0078125"/>
  <rect x="0" y="13" width="5" height="1" fill="rgb(255,255,255)" fill-opacity="0.0078125"/>
  <rect x="5" y="13" width="1" height="1" fill="rgb(51,51,51)" fill-opacity="0.140625"/>
  <rect x="6" y="13" width="1" height="1" fill="rgb(64,64,64)" fill-opacity="0.984375"/>
  <rect x="7" y="13" width="1" height="1" fill="rgb(231,231,231)"/>
  <rect x="8" y="13" width="1" height="1" fill="rgb(193,193,193)"/>
  <rect x="9" y="13" width="1" height="1" fill="rgb(218,218,218)"/>
  <rect x="10" y="13" width="1" height="1" fill="rgb(130,130,130)"/>
  <rect x="11" y="13" width="6" height="1" fill="rgb(255,255,255)"/>
  <rect x="17" y="13" width="1" height="1" fill="rgb(19,19,19)" fill-opacity="0.9375"/>
  <rect x="18" y="13" width="3" height="1" fill="rgb(255,255,255)" fill-opacity="0.0078125"/>
  <rect x="0" y="14" width="5" height="1" fill="rgb(255,255,255)" fill-opacity="0.0078125"/>
  <rect x="5" y="14" width="1" height="1" fill="rgb(50,50,50)" fill-opacity="0.71875"/>
  <rect x="6" y="14" width="1" height="1" fill="rgb(211,211,211)"/>
  <rect x="7" y="14" width="1" height="1" fill="rgb(221,221,221)"/>
  <rect x="8" y="14" width="1" height="1" fill="rgb(180,180,180)"/>
  <rect x="9" y="14" width="1" height="1" fill="rgb(206,206,206)"/>
  <rect x="10" y="14" width="1" height="1" fill="rgb(110,110,110)"/>
  <rect x="11" y="14" width="1" height="1" fill="rgb(255,255,255)"/>
  <rect x="12" y="14" width="1" height="1" fill="rgb(135,135,135)"/>
  <rect x="13" y="14" width="2" height="1" fill="rgb(0,0,0)"/>
  <rect x="15" y="14" width="1" height="1" fill="rgb(127,127,127)"/>
  <rect x="16" y="14" width="1" height="1" fill="rgb(255,255,255)"/>
  <rect x="17" y="14" width="1" height="1" fill="rgb(8,8,8)" fill-opacity="0.96875"/>
  <rect x="18" y="14" width="3" height="1" fill="rgb(255,255,255)" fill-opacity="0.0078125"/>
  <rect x="0" y="15" width="5" height="1" fill="rgb(255,255,255)" fill-opacity="0.0078125"/>
  <rect x="5" y="15" width="1" height="1" fill="rgb(51,51,51)" fill-opacity="0.6953125"/>
  <rect x="6" y="15" width="1" height="1" fill="rgb(164,164,164)"/>
  <rect x="7" y="15" width="1" height="1" fill="rgb(138,138,138)"/>
  <rect x="8" y="15" width="1" height="1" fill="rgb(54,54,54)" fill-opacity="0.984375"/>
  <rect x="9" y="15" width="1" height="1" fill="rgb(79,79,79)"/>
  <rect x="10" y="15" width="1" height="1" fill="rgb(94,94,94)"/>
  <rect x="11" y="15" width="6" height="1" fill="rgb(255,255,255)"/>
  <rect x="17" y="15" width="1" height="1" fill="rgb(0,0,0)"/>
  <rect x="18" y="15" width="3" height="1" fill="rgb(255,255,255)" fill-opacity="0.0078125"/>
  <rect x="0" y="16" width="5" height="1" fill="rgb(255,255,255)" fill-opacity="0.0078125"/>
  <rect x="5" y="16" width="1" height="1" fill="rgb(53,53,53)" fill-opacity="0.1015625"/>
  <rect x="6" y="16" width="1" height="1" fill="rgb(51,51,51)" fill-opacity="0.6953125"/>
  <rect x="7" y="16" width="1" height="1" fill="rgb(50,50,50)" fill-opacity="0.71875"/>
  <rect x="8" y="16" width="1" height="1" fill="rgb(51,51,51)" fill-opacity="0.140625"/>
  <rect x="9" y="16" width="1" height="1" fill="rgb(51,51,51)"/>
  <rect x="10" y="16" width="1" height="1" fill="rgb(79,79,79)"/>
  <rect x="11" y="16" width="1" height="1" fill="rgb(255,255,255)"/>
  <rect x="12" y="16" width="1" height="1" fill="rgb(135,135,135)"/>
  <rect x="13" y="16" width="2" height="1" fill="rgb(0,0,0)"/>
  <rect x="15" y="16" width="1" height="1" fill="rgb(127,127,127)"/>
  <rect x="16" y="16" width="1" height="1" fill="rgb(255,255,255)"/>
  <rect x="17" y="16" width="1" height="1" fill="rgb(0,0,0)"/>
  <rect x="18" y="16" width="3" height="1" fill="rgb(255,255,255)" fill-opacity="0.0078125"/>
  <rect x="0" y="17" width="9" height="1" fill="rgb(255,255,255)" fill-opacity="0.0078125"/>
  <rect x="9" y="17" width="1" height="1" fill="rgb(51,51,51)" fill-opacity="0.7109375"/>
  <rect x="10" y="17" width="1" height="1" fill="rgb(38,38,38)"/>
  <rect x="11" y="17" width="6" height="1" fill="rgb(255,255,255)"/>
  <rect x="17" y="17" width="1" height="1" fill="rgb(0,0,0)"/>
  <rect x="18" y="17" width="3" height="1" fill="rgb(255,255,255)" fill-opacity="0.0078125"/>
  <rect x="0" y="18" width="10" height="1" fill="rgb(255,255,255)" fill-opacity="0.0078125"/>
  <rect x="10" y="18" width="1" height="1" fill="rgb(26,26,26)" fill-opacity="0.8046875"/>
  <rect x="11" y="18" width="1" height="1" fill="rgb(19,19,19)" fill-opacity="0.953125"/>
  <rect x="12" y="18" width="1" height="1" fill="rgb(10,10,10)" fill-opacity="0.9765625"/>
  <rect x="13" y="18" width="1" height="1" fill="rgb(1,1,1)"/>
  <rect x="14" y="18" width="3" height="1" fill="rgb(0,0,0)"/>
  <rect x="17" y="18" width="1" height="1" fill="rgb(10,10,10)" fill-opacity="0.9140625"/>
  <rect x="18" y="18" width="3" height="1" fill="rgb(255,255,255)" fill-opacity="0.0078125"/>
  <rect x="0" y="19" width="21" height="1" fill="rgb(255,255,255)" fill-opacity="0.0078125"/>
  <rect x="0" y="20" width="21" height="1" fill="rgb(255,255,255)" fill-opacity="0.0078125"/>
</svg>