<svg xmlns="http://www.w3.org/2000/svg" shape-rendering="crispEdges" width="21" height="21" viewBox="0 0 21 21">
  <rect x="0" y="0" width="1" height="21" fill="rgb(255,255,255)" fill-opacity="0.0078125"/>
  <rect x="1" y="0" width="1" height="21" fill="rgb(255,255,255)" fill-opacity="0.0078125"/>
  <rect x="2" y="0" width="1" height="21" fill="rgb(255,255,255)" fill-opacity="0.0078125"/>
  <rect x="3" y="0" width="1" height="21" fill="rgb(255,255,255)" fill-opacity="0.0078125"/>
  <rect x="4" y="0" width="1" height="7" fill="rgb(255,255,255)" fill-opacity="0.0078125"/>
  <rect x="4" y="7" width="1" height="1" fill="rgb(32,32,32)" fill-opacity="0.0390625"/>
  <rect x="4" y="8" width="1" height="1" fill="rgb(31,31,31)" fill-opacity="0.4609375"/>
  <rect x="4" y="9" width="1" height="1" fill="rgb(44,44,44)" fill-opacity="0.75"/>
  <rect x="4" y="10" width="1" height="1" fill="rgb(33,33,33)" fill-opacity="0.9453125"/>
  <rect x="4" y="11" width="1" height="1" fill="rgb(33,33,33)" fill-opacity="0.9609375"/>
  <rect x="4" y="12" width="1" height="1" fill="rgb(44,44,44)" fill-opacity="0.7734375"/>
  <rect x="4" y="13" width="1" height="1" fill="rgb(34,34,34)" fill-opacity="0.5078125"/>
  <rect x="4" y="14" width="1" height="1" fill="rgb(32,32,32)" fill-opacity="0.0703125"/>
  <rect x="4" y="15" width="1" height="6" fill="rgb(255,255,255)" fill-opacity="0.0078125"/>
  <rect x="5" y="0" width="1" height="6" fill="rgb(255,255,255)" fill-opacity="0.0078125"/>
  <rect x="5" y="6" width="1" height="1" fill="rgb(24,24,24)" fill-opacity="0.2109375"/>
  <rect x="5" y="7" width="1" height="1" fill="rgb(37,37,37)" fill-opacity="0.8828125"/>
  <rect x="5" y="8" width="1" height="1" fill="rgb(126,126,126)" fill-opacity="0.9765625"/>
  <rect x="5" y="9" width="1" height="1" fill="rgb(206,206,206)"/>
  <rect x="5" y="10" width="1" height="1" fill="rgb(221,221,221)"/>
  <rect x="5" y="11" width="1" height="1" fill="rgb(206,206,206)"/>
  <rect x="5" y="12" width="1" height="1" fill="rgb(209,209,209)"/>
  <rect x="5" y="13" width="1" height="1" fill="rgb(141,141,141)" fill-opacity="0.984375"/>
  <rect x="5" y="14" width="1" height="1" fill="rgb(37,37,37)" fill-opacity="0.9296875"/>
  <rect x="5" y="15" width="1" height="1" fill="rgb(25,25,25)" fill-opacity="0.28125"/>
  <rect x="5" y="16" width="1" height="5" fill="rgb(255,255,255)" fill-opacity="0.0078125"/>
  <rect x="6" y="0" width="1" height="5" fill="rgb(255,255,255)" fill-opacity="0.0078125"/>
  <rect x="6" y="5" width="1" height="1" fill="rgb(28,28,28)" fill-opacity="0.1875"/>
  <rect x="6" y="6" width="1" height="1" fill="rgb(46,46,46)" fill-opacity="0.9609375"/>
  <rect x="6" y="7" width="1" height="1" fill="rgb(209,209,209)"/>
  <rect x="6" y="8" width="1" height="3" fill="rgb(255,255,255)"/>
  <rect x="6" y="11" width="1" height="1" fill="rgb(171,171,171)"/>
  <rect x="6" y="12" width="1" height="1" fill="rgb(226,226,226)"/>
  <rect x="6" y="13" width="1" height="1" fill="rgb(255,255,255)"/>
  <rect x="6" y="14" width="1" height="1" fill="rgb(216,216,216)"/>
  <rect x="6" y="15" width="1" height="1" fill="rgb(51,51,51)" fill-opacity="0.9609375"/>
  <rect x="6" y="16" width="1" height="1" fill="rgb(25,25,25)" fill-opacity="0.2890625"/>
  <rect x="6" y="17" width="1" height="4" fill="rgb(255,255,255)" fill-opacity="0.0078125"/>
  <rect x="7" y="0" width="1" height="4" fill="rgb(255,255,255)" fill-opacity="0.0078125"/>
  <rect x="7" y="4" width="1" height="1" fill="rgb(0,0,0)" fill-opacity="0.0234375"/>
  <rect x="7" y="5" width="1" height="1" fill="rgb(39,39,39)" fill-opacity="0.8515625"/>
  <rect x="7" y="6" width="1" height="1" fill="rgb(200,200,200)"/>
  <rect x="7" y="7" width="1" height="3" fill="rgb(255,255,255)"/>
  <rect x="7" y="10" width="1" height="1" fill="rgb(254,254,254)"/>
  <rect x="7" y="11" width="1" height="1" fill="rgb(235,235,235)"/>
  <rect x="7" y="12" width="1" height="1" fill="rgb(152,152,152)"/>
  <rect x="7" y="13" width="1" height="1" fill="rgb(249,249,249)"/>
  <rect x="7" y="14" width="1" height="1" fill="rgb(237,237,237)"/>
  <rect x="7" y="15" width="1" height="1" fill="rgb(197,197,197)"/>
  <rect x="7" y="16" width="1" height="1" fill="rgb(36,36,36)" fill-opacity="0.9296875"/>
  <rect x="7" y="17" width="1" height="1" fill="rgb(34,34,34)" fill-opacity="0.0625"/>
  <rect x="7" y="18" width="1" height="3" fill="rgb(255,255,255)" fill-opacity="0.0078125"/>
  <rect x="8" y="0" width="1" height="4" fill="rgb(255,255,255)" fill-opacity="0.0078125"/>
  <rect x="8" y="4" width="1" height="1" fill="rgb(26,26,26)" fill-opacity="0.359375"/>
  <rect x="8" y="5" width="1" height="1" fill="rgb(113,113,113)" fill-opacity="0.96875"/>
  <rect x="8" y="6" width="1" height="1" fill="rgb(242,242,242)"/>
  <rect x="8" y="7" width="1" height="1" fill="rgb(200,200,200)"/>
  <rect x="8" y="8" width="1" height="1" fill="rgb(170,170,170)"/>
  <rect x="8" y="9" width="1" height="1" fill="rgb(157,157,157)"/>
  <rect x="8" y="10" width="1" height="1" fill="rgb(149,149,149)"/>
  <rect x="8" y="11" width="1" height="1" fill="rgb(136,136,136)"/>
  <rect x="8" y="12" width="1" height="1" fill="rgb(70,70,70)"/>
  <rect x="8" y="13" width="1" height="1" fill="rgb(108,108,108)"/>
  <rect x="8" y="14" width="1" height="1" fill="rgb(126,126,126)"/>
  <rect x="8" y="15" width="1" height="1" fill="rgb(188,188,188)"/>
  <rect x="8" y="16" width="1" height="1" fill="rgb(118,118,118)" fill-opacity="0.984375"/>
  <rect x="8" y="17" width="1" height="1" fill="rgb(32,32,32)" fill-opacity="0.5"/>
  <rect x="8" y="18" width="1" height="3" fill="rgb(255,255,255)" fill-opacity="0.0078125"/>
  <rect x="9" y="0" width="1" height="4" fill="rgb(255,255,255)" fill-opacity="0.0078125"/>
  <rect x="9" y="4" width="1" height="1" fill="rgb(38,38,38)" fill-opacity="0.6171875"/>
  <rect x="9" y="5" width="1" height="1" fill="rgb(166,166,166)"/>
  <rect x="9" y="6" width="1" height="1" fill="rgb(204,204,204)"/>
  <rect x="9" y="7" width="1" height="1" fill="rgb(230,230,230)"/>
  <rect x="9" y="8" width="1" height="1" fill="rgb(252,252,252)"/>
  <rect x="9" y="9" width="1" height="2" fill="rgb(255,255,255)"/>
  <rect x="9" y="11" width="1" height="1" fill="rgb(248,248,248)"/>
  <rect x="9" y="12" width="1" height="1" fill="rgb(101,101,101)"/>
  <rect x="9" y="13" width="1" height="1" fill="rgb(211,211,211)"/>
  <rect x="9" y="14" width="1" height="1" fill="rgb(163,163,163)"/>
  <rect x="9" y="15" width="1" height="1" fill="rgb(114,114,114)"/>
  <rect x="9" y="16" width="1" height="1" fill="rgb(105,105,105)"/>
  <rect x="9" y="17" width="1" height="1" fill="rgb(44,44,44)" fill-opacity="0.7734375"/>
  <rect x="9" y="18" width="1" height="3" fill="rgb(255,255,255)" fill-opacity="0.0078125"/>
  <rect x="10" y="0" width="1" height="4" fill="rgb(255,255,255)" fill-opacity="0.0078125"/>
  <rect x="10" y="4" width="1" height="1" fill="rgb(34,34,34)" fill-opacity="0.875"/>
  <rect x="10" y="5" width="1" height="1" fill="rgb(206,206,206)"/>
  <rect x="10" y="6" width="1" height="4" fill="rgb(255,255,255)"/>
  <rect x="10" y="10" width="1" height="1" fill="rgb(247,247,247)"/>
  <rect x="10" y="11" width="1" height="1" fill="rgb(231,231,231)"/>
  <rect x="10" y="12" width="1" height="1" fill="rgb(90,90,90)"/>
  <rect x="10" y="13" width="1" height="1" fill="rgb(194,194,194)"/>
  <rect x="10" y="14" width="1" height="1" fill="rgb(181,181,181)"/>
  <rect x="10" y="15" width="1" height="1" fill="rgb(168,168,168)"/>
  <rect x="10" y="16" width="1" height="1" fill="rgb(134,134,134)"/>
  <rect x="10" y="17" width="1" height="1" fill="rgb(23,23,23)" fill-opacity="0.96875"/>
  <rect x="10" y="18" width="1" height="3" fill="rgb(255,255,255)" fill-opacity="0.0078125"/>
  <rect x="11" y="0" width="1" height="4" fill="rgb(255,255,255)" fill-opacity="0.0078125"/>
  <rect x="11" y="4" width="1" height="1" fill="rgb(33,33,33)" fill-opacity="0.875"/>
  <rect x="11" y="5" width="1" height="1" fill="rgb(205,205,205)"/>
  <rect x="11" y="6" width="1" height="3" fill="rgb(255,255,255)"/>
  <rect x="11" y="9" width="1" height="1" fill="rgb(247,247,247)"/>
  <rect x="11" y="10" width="1" height="1" fill="rgb(230,230,230)"/>
  <rect x="11" y="11" width="1" height="1" fill="rgb(213,213,213)"/>
  <rect x="11" y="12" width="1" height="1" fill="rgb(82,82,82)"/>
  <rect x="11" y="13" width="1" height="1" fill="rgb(179,179,179)"/>
  <rect x="11" y="14" width="1" height="1" fill="rgb(164,164,164)"/>
  <rect x="11" y="15" width="1" height="1" fill="rgb(151,151,151)"/>
  <rect x="11" y="16" width="1" height="1" fill="rgb(127,127,127)"/>
  <rect x="11" y="17" width="1" height="1" fill="rgb(23,23,23)" fill-opacity="0.96875"/>
  <rect x="11" y="18" width="1" height="3" fill="rgb(255,255,255)" fill-opacity="0.0078125"/>
  <rect x="12" y="0" width="1" height="4" fill="rgb(255,255,255)" fill-opacity="0.0078125"/>
  <rect x="12" y="4" width="1" height="1" fill="rgb(37,37,37)" fill-opacity="0.6171875"/>
  <rect x="12" y="5" width="1" height="1" fill="rgb(155,155,155)"/>
  <rect x="12" y="6" width="1" height="1" fill="rgb(185,185,185)"/>
  <rect x="12" y="7" width="1" height="1" fill="rgb(221,221,221)"/>
  <rect x="12" y="8" width="1" height="1" fill="rgb(243,243,243)"/>
  <rect x="12" y="9" width="1" height="1" fill="rgb(230,230,230)"/>
  <rect x="12" y="10" width="1" height="1" fill="rgb(213,213,213)"/>
  <rect x="12" y="11" width="1" height="1" fill="rgb(197,197,197)"/>
  <rect x="12" y="12" width="1" height="1" fill="rgb(72,72,72)"/>
  <rect x="12" y="13" width="1" height="1" fill="rgb(159,159,159)"/>
  <rect x="12" y="14" width="1" height="1" fill="rgb(118,118,118)"/>
  <rect x="12" y="15" width="1" height="1" fill="rgb(84,84,84)"/>
  <rect x="12" y="16" width="1" height="1" fill="rgb(80,80,80)"/>
  <rect x="12" y="17" width="1" height="1" fill="rgb(44,44,44)" fill-opacity="0.7734375"/>
  <rect x="12" y="18" width="1" height="3" fill="rgb(255,255,255)" fill-opacity="0.0078125"/>
  <rect x="13" y="0" width="1" height="4" fill="rgb(255,255,255)" fill-opacity="0.0078125"/>
  <rect x="13" y="4" width="1" height="1" fill="rgb(26,26,26)" fill-opacity="0.359375"/>
  <rect x="13" y="5" width="1" height="1" fill="rgb(114,114,114)" fill-opacity="0.96875"/>
  <rect x="13" y="6" width="1" height="1" fill="rgb(232,232,232)"/>
  <rect x="13" y="7" width="1" height="1" fill="rgb(160,160,160)"/>
  <rect x="13" y="8" width="1" height="1" fill="rgb(110,110,110)"/>
  <rect x="13" y="9" width="1" height="1" fill="rgb(91,91,91)"/>
  <rect x="13" y="10" width="1" height="1" fill="rgb(84,84,84)"/>
  <rect x="13" y="11" width="1" height="1" fill="rgb(75,75,75)"/>
  <rect x="13" y="12" width="1" height="1" fill="rgb(27,27,27)"/>
  <rect x="13" y="13" width="1" height="1" fill="rgb(61,61,61)"/>
  <rect x="13" y="14" width="1" height="1" fill="rgb(75,75,75)"/>
  <rect x="13" y="15" width="1" height="1" fill="rgb(119,119,119)"/>
  <rect x="13" y="16" width="1" height="1" fill="rgb(100,100,100)" fill-opacity="0.9765625"/>
  <rect x="13" y="17" width="1" height="1" fill="rgb(32,32,32)" fill-opacity="0.5"/>
  <rect x="13" y="18" width="1" height="3" fill="rgb(255,255,255)" fill-opacity="0.0078125"/>
  <rect x="14" y="0" width="1" height="4" fill="rgb(255,255,255)" fill-opacity="0.0078125"/>
  <rect x="14" y="4" width="1" height="1" fill="rgb(0,0,0)" fill-opacity="0.0234375"/>
  <rect x="14" y="5" width="1" height="1" fill="rgb(39,39,39)" fill-opacity="0.8515625"/>
  <rect x="14" y="6" width="1" height="1" fill="rgb(196,196,196)"/>
  <rect x="14" y="7" width="1" height="1" fill="rgb(235,235,235)"/>
  <rect x="14" y="8" width="1" height="1" fill="rgb(213,213,213)"/>
  <rect x="14" y="9" width="1" height="1" fill="rgb(196,196,196)"/>
  <rect x="14" y="10" width="1" height="1" fill="rgb(178,178,178)"/>
  <rect x="14" y="11" width="1" height="1" fill="rgb(144,144,144)"/>
  <rect x="14" y="12" width="1" height="1" fill="rgb(73,73,73)"/>
  <rect x="14" y="13" width="1" height="1" fill="rgb(129,129,129)"/>
  <rect x="14" y="14" width="1" height="1" fill="rgb(130,130,130)"/>
  <rect x="14" y="15" width="1" height="1" fill="rgb(123,123,123)"/>
  <rect x="14" y="16" width="1" height="1" fill="rgb(36,36,36)" fill-opacity="0.9296875"/>
  <rect x="14" y="17" width="1" height="1" fill="rgb(34,34,34)" fill-opacity="0.0625"/>
  <rect x="14" y="18" width="1" height="3" fill="rgb(255,255,255)" fill-opacity="0.0078125"/>
  <rect x="15" y="0" width="1" height="5" fill="rgb(255,255,255)" fill-opacity="0.0078125"/>
  <rect x="15" y="5" width="1" height="1" fill="rgb(28,28,28)" fill-opacity="0.1875"/>
  <rect x="15" y="6" width="1" height="1" fill="rgb(46,46,46)" fill-opacity="0.9609375"/>
  <rect x="15" y="7" width="1" height="1" fill="rgb(189,189,189)"/>
  <rect x="15" y="8" width="1" height="1" fill="rgb(213,213,213)"/>
  <rect x="15" y="9" width="1" height="1" fill="rgb(187,187,187)"/>
  <rect x="15" y="10" width="1" height="1" fill="rgb(165,165,165)"/>
  <rect x="15" y="11" width="1" height="1" fill="rgb(76,76,76)"/>
  <rect x="15" y="12" width="1" height="1" fill="rgb(119,119,119)"/>
  <rect x="15" y="13" width="1" height="1" fill="rgb(138,138,138)"/>
  <rect x="15" y="14" width="1" height="1" fill="rgb(129,129,129)"/>
  <rect x="15" y="15" width="1" height="1" fill="rgb(44,44,44)" fill-opacity="0.9609375"/>
  <rect x="15" y="16" width="1" height="1" fill="rgb(25,25,25)" fill-opacity="0.2890625"/>
  <rect x="15" y="17" width="1" height="4" fill="rgb(255,255,255)" fill-opacity="0.0078125"/>
  <rect x="16" y="0" width="1" height="6" fill="rgb(255,255,255)" fill-opacity="0.0078125"/>
  <rect x="16" y="6" width="1" height="1" fill="rgb(24,24,24)" fill-opacity="0.2109375"/>
  <rect x="16" y="7" width="1" height="1" fill="rgb(37,37,37)" fill-opacity="0.8828125"/>
  <rect x="16" y="8" width="1" height="1" fill="rgb(111,111,111)" fill-opacity="0.9765625"/>
  <rect x="16" y="9" width="1" height="1" fill="rgb(159,159,159)"/>
  <rect x="16" y="10" width="1" height="1" fill="rgb(142,142,142)"/>
  <rect x="16" y="11" width="1" height="1" fill="rgb(115,115,115)"/>
  <rect x="16" y="12" width="1" height="1" fill="rgb(135,135,135)"/>
  <rect x="16" y="13" width="1" height="1" fill="rgb(100,100,100)" fill-opacity="0.984375"/>
  <rect x="16" y="14" width="1" height="1" fill="rgb(37,37,37)" fill-opacity="0.9296875"/>
  <rect x="16" y="15" width="1" height="1" fill="rgb(25,25,25)" fill-opacity="0.28125"/>
  <rect x="16" y="16" width="1" height="5" fill="rgb(255,255,255)" fill-opacity="0.0078125"/>
  <rect x="17" y="0" width="1" height="7" fill="rgb(255,255,255)" fill-opacity="0.0078125"/>
  <rect x="17" y="7" width="1" height="1" fill="rgb(32,32,32)" fill-opacity="0.0390625"/>
  <rect x="17" y="8" width="1" height="1" fill="rgb(31,31,31)" fill-opacity="0.4609375"/>
  <rect x="17" y="9" width="1" height="1" fill="rgb(44,44,44)" fill-opacity="0.75"/>
  <rect x="17" y="10" width="1" height="1" fill="rgb(30,30,30)" fill-opacity="0.953125"/>
  <rect x="17" y="11" width="1" height="1" fill="rgb(33,33,33)" fill-opacity="0.9609375"/>
  <rect x="17" y="12" width="1" height="1" fill="rgb(44,44,44)" fill-opacity="0.7734375"/>
  <rect x="17" y="13" width="1" height="1" fill="rgb(34,34,34)" fill-opacity="0.5078125"/>
  <rect x="17" y="14" width="1" height="1" fill="rgb(32,32,32)" fill-opacity="0.0703125"/>
  <rect x="17" y="15" width="1" height="6" fill="rgb(255,255,255)" fill-opacity="0.0078125"/>
  <rect x="18" y="0" width="1" height="21" fill="rgb(255,255,255)" fill-opacity="0.0078125"/>
  <rect x="19" y="0" width="1" height="21" fill="rgb(255,255,255)" fill-opacity="0.0078125"/>
  <rect x="20" y="0" width="1" height="21" fill="rgb(255,255,255)" fill-opacity="0.0078125"/>
</svg>