<svg xmlns="http://www.w3.org/2000/svg" shape-rendering="crispEdges" width="21" height="21" viewBox="0 0 21 21">
  <rect x="0" y="0" width="21" height="1" fill="rgb(255,255,255)" fill-opacity="0.0078125"/>
  <rect x="0" y="1" width="21" height="1" fill="rgb(255,255,255)" fill-opacity="0.0078125"/>
  <rect x="0" y="2" width="21" height="1" fill="rgb(255,255,255)" fill-opacity="0.0078125"/>
  <rect x="0" y="3" width="10" height="1" fill="rgb(255,255,255)" fill-opacity="0.0078125"/>
  <rect x="10" y="3" width="1" height="1" fill="rgb(0,0,0)" fill-opacity="0.0234375"/>
  <rect x="11" y="3" width="1" height="1" fill="rgb(0,0,0)" fill-opacity="0.46875"/>
  <rect x="12" y="3" width="1" height="1" fill="rgb(17,17,17)" fill-opacity="0.8203125"/>
  <rect x="13" y="3" width="1" height="1" fill="rgb(34,34,34)" fill-opacity="0.953125"/>
  <rect x="14" y="3" width="1" height="1" fill="rgb(15,15,15)" fill-opacity="0.8125"/>
  <rect x="15" y="3" width="1" height="1" fill="rgb(0,0,0)" fill-opacity="0.4765625"/>
  <rect x="16" y="3" width="1" height="1" fill="rgb(0,0,0)" fill-opacity="0.0234375"/>
  <rect x="17" y="3" width="4" height="1" fill="rgb(255,255,255)" fill-opacity="0.0078125"/>
  <rect x="0" y="4" width="4" height="1" fill="rgb(255,255,255)" fill-opacity="0.0078125"/>
  <rect x="4" y="4" width="1" height="1" fill="rgb(0,0,0)" fill-opacity="0.0234375"/>
  <rect x="5" y="4" width="1" height="1" fill="rgb(0,0,0)" fill-opacity="0.46875"/>
  <rect x="6" y="4" width="1" height="1" fill="rgb(11,11,11)" fill-opacity="0.8125"/>
  <rect x="7" y="4" width="1" height="1" fill="rgb(23,23,23)" fill-opacity="0.953125"/>
  <rect x="8" y="4" width="1" height="1" fill="rgb(10,10,10)" fill-opacity="0.8125"/>
  <rect x="9" y="4" width="1" height="1" fill="rgb(0,0,0)" fill-opacity="0.484375"/>
  <rect x="10" y="4" width="1" height="1" fill="rgb(7,7,7)" fill-opacity="0.75"/>
  <rect x="11" y="4" width="1" height="1" fill="rgb(152,152,152)" fill-opacity="0.8671875"/>
  <rect x="12" y="4" width="1" height="1" fill="rgb(212,212,212)" fill-opacity="0.921875"/>
  <rect x="13" y="4" width="1" height="1" fill="rgb(188,188,188)" fill-opacity="0.9609375"/>
  <rect x="14" y="4" width="1" height="1" fill="rgb(191,191,191)" fill-opacity="0.90625"/>
  <rect x="15" y="4" width="1" height="1" fill="rgb(114,114,114)" fill-opacity="0.84375"/>
  <rect x="16" y="4" width="1" height="1" fill="rgb(4,4,4)" fill-opacity="0.7578125"/>
  <rect x="17" y="4" width="1" height="1" fill="rgb(0,0,0)" fill-opacity="0.0234375"/>
  <rect x="18" y="4" width="3" height="1" fill="rgb(255,255,255)" fill-opacity="0.0078125"/>
  <rect x="0" y="5" width="3" height="1" fill="rgb(255,255,255)" fill-opacity="0.0078125"/>
  <rect x="3" y="5" width="1" height="1" fill="rgb(0,0,0)" fill-opacity="0.0234375"/>
  <rect x="4" y="5" width="1" height="1" fill="rgb(1,1,1)" fill-opacity="0.7421875"/>
  <rect x="5" y="5" width="1" height="1" fill="rgb(128,128,128)" fill-opacity="0.859375"/>
  <rect x="6" y="5" width="1" height="1" fill="rgb(189,189,189)" fill-opacity="0.9140625"/>
  <rect x="7" y="5" width="1" height="1" fill="rgb(168,168,168)" fill-opacity="0.953125"/>
  <rect x="8" y="5" width="1" height="1" fill="rgb(165,165,165)" fill-opacity="0.890625"/>
  <rect x="9" y="5" width="1" height="1" fill="rgb(84,84,84)" fill-opacity="0.8984375"/>
  <rect x="10" y="5" width="1" height="1" fill="rgb(135,135,135)" fill-opacity="0.953125"/>
  <rect x="11" y="5" width="1" height="1" fill="rgb(182,182,182)" fill-opacity="0.984375"/>
  <rect x="12" y="5" width="1" height="1" fill="rgb(118,118,118)" fill-opacity="0.984375"/>
  <rect x="13" y="5" width="1" height="1" fill="rgb(105,105,105)" fill-opacity="0.984375"/>
  <rect x="14" y="5" width="1" height="1" fill="rgb(101,101,101)" fill-opacity="0.984375"/>
  <rect x="15" y="5" width="1" height="1" fill="rgb(137,137,137)" fill-opacity="0.984375"/>
  <rect x="16" y="5" width="1" height="1" fill="rgb(94,94,94)" fill-opacity="0.8125"/>
  <rect x="17" y="5" width="1" height="1" fill="rgb(0,0,0)" fill-opacity="0.46875"/>
  <rect x="18" y="5" width="3" height="1" fill="rgb(255,255,255)" fill-opacity="0.0078125"/>
  <rect x="0" y="6" width="3" height="1" fill="rgb(255,255,255)" fill-opacity="0.0078125"/>
  <rect x="3" y="6" width="1" height="1" fill="rgb(0,0,0)" fill-opacity="0.46875"/>
  <rect x="4" y="6" width="1" height="1" fill="rgb(125,125,125)" fill-opacity="0.8515625"/>
  <rect x="5" y="6" width="1" height="1" fill="rgb(163,163,163)" fill-opacity="0.984375"/>
  <rect x="6" y="6" width="1" height="1" fill="rgb(98,98,98)" fill-opacity="0.984375"/>
  <rect x="7" y="6" width="2" height="1" fill="rgb(85,85,85)" fill-opacity="0.984375"/>
  <rect x="9" y="6" width="1" height="1" fill="rgb(119,119,119)" fill-opacity="0.984375"/>
  <rect x="10" y="6" width="1" height="1" fill="rgb(176,176,176)" fill-opacity="0.96875"/>
  <rect x="11" y="6" width="1" height="1" fill="rgb(117,117,117)" fill-opacity="0.984375"/>
  <rect x="12" y="6" width="1" height="1" fill="rgb(157,157,157)" fill-opacity="0.984375"/>
  <rect x="13" y="6" width="1" height="1" fill="rgb(171,171,171)" fill-opacity="0.984375"/>
  <rect x="14" y="6" width="1" height="1" fill="rgb(108,108,108)" fill-opacity="0.984375"/>
  <rect x="15" y="6" width="1" height="1" fill="rgb(80,80,80)" fill-opacity="0.984375"/>
  <rect x="16" y="6" width="1" height="1" fill="rgb(132,132,132)" fill-opacity="0.8671875"/>
  <rect x="17" y="6" width="1" height="1" fill="rgb(6,6,6)" fill-opacity="0.8125"/>
  <rect x="18" y="6" width="3" height="1" fill="rgb(255,255,255)" fill-opacity="0.0078125"/>
  <rect x="0" y="7" width="3" height="1" fill="rgb(255,255,255)" fill-opacity="0.0078125"/>
  <rect x="3" y="7" width="1" height="1" fill="rgb(9,9,9)" fill-opacity="0.8125"/>
  <rect x="4" y="7" width="1" height="1" fill="rgb(185,185,185)" fill-opacity="0.90625"/>
  <rect x="5" y="7" width="1" height="1" fill="rgb(95,95,95)" fill-opacity="0.984375"/>
  <rect x="6" y="7" width="1" height="1" fill="rgb(147,147,147)" fill-opacity="0.984375"/>
  <rect x="7" y="7" width="1" height="1" fill="rgb(163,163,163)" fill-opacity="0.984375"/>
  <rect x="8" y="7" width="1" height="1" fill="rgb(98,98,98)" fill-opacity="0.984375"/>
  <rect x="9" y="7" width="1" height="1" fill="rgb(72,72,72)" fill-opacity="0.984375"/>
  <rect x="10" y="7" width="1" height="1" fill="rgb(113,113,113)" fill-opacity="0.9765625"/>
  <rect x="11" y="7" width="1" height="1" fill="rgb(100,100,100)" fill-opacity="0.984375"/>
  <rect x="12" y="7" width="1" height="1" fill="rgb(171,171,171)" fill-opacity="0.984375"/>
  <rect x="13" y="7" width="1" height="1" fill="rgb(51,51,51)" fill-opacity="0.984375"/>
  <rect x="14" y="7" width="1" height="1" fill="rgb(83,83,83)" fill-opacity="0.984375"/>
  <rect x="15" y="7" width="1" height="1" fill="rgb(65,65,65)" fill-opacity="0.984375"/>
  <rect x="16" y="7" width="1" height="1" fill="rgb(101,101,101)" fill-opacity="0.9453125"/>
  <rect x="17" y="7" width="1" height="1" fill="rgb(11,11,11)" fill-opacity="0.953125"/>
  <rect x="18" y="7" width="3" height="1" fill="rgb(255,255,255)" fill-opacity="0.0078125"/>
  <rect x="0" y="8" width="3" height="1" fill="rgb(255,255,255)" fill-opacity="0.0078125"/>
  <rect x="3" y="8" width="1" height="1" fill="rgb(22,22,22)" fill-opacity="0.953125"/>
  <rect x="4" y="8" width="1" height="1" fill="rgb(164,164,164)" fill-opacity="0.953125"/>
  <rect x="5" y="8" width="1" height="1" fill="rgb(81,81,81)" fill-opacity="0.984375"/>
  <rect x="6" y="8" width="1" height="1" fill="rgb(163,163,163)" fill-opacity="0.984375"/>
  <rect x="7" y="8" width="1" height="1" fill="rgb(51,51,51)" fill-opacity="0.984375"/>
  <rect x="8" y="8" width="1" height="1" fill="rgb(75,75,75)" fill-opacity="0.984375"/>
  <rect x="9" y="8" width="1" height="1" fill="rgb(61,61,61)" fill-opacity="0.984375"/>
  <rect x="10" y="8" width="1" height="1" fill="rgb(59,59,59)" fill-opacity="0.9765625"/>
  <rect x="11" y="8" width="1" height="1" fill="rgb(88,88,88)" fill-opacity="0.984375"/>
  <rect x="12" y="8" width="1" height="1" fill="rgb(105,105,105)" fill-opacity="0.984375"/>
  <rect x="13" y="8" width="1" height="1" fill="rgb(80,80,80)" fill-opacity="0.984375"/>
  <rect x="14" y="8" width="1" height="1" fill="rgb(62,62,62)" fill-opacity="0.984375"/>
  <rect x="15" y="8" width="1" height="1" fill="rgb(56,56,56)" fill-opacity="0.984375"/>
  <rect x="16" y="8" width="1" height="1" fill="rgb(89,89,89)" fill-opacity="0.8515625"/>
  <rect x="17" y="8" width="1" height="1" fill="rgb(4,4,4)" fill-opacity="0.8125"/>
  <rect x="18" y="8" width="3" height="1" fill="rgb(255,255,255)" fill-opacity="0.0078125"/>
  <rect x="0" y="9" width="3" height="1" fill="rgb(255,255,255)" fill-opacity="0.0078125"/>
  <rect x="3" y="9" width="1" height="1" fill="rgb(9,9,9)" fill-opacity="0.8125"/>
  <rect x="4" y="9" width="1" height="1" fill="rgb(160,160,160)" fill-opacity="0.890625"/>
  <rect x="5" y="9" width="1" height="1" fill="rgb(81,81,81)" fill-opacity="0.984375"/>
  <rect x="6" y="9" width="1" height="1" fill="rgb(95,95,95)" fill-opacity="0.984375"/>
  <rect x="7" y="9" width="1" height="1" fill="rgb(74,74,74)" fill-opacity="0.984375"/>
  <rect x="8" y="9" width="1" height="1" fill="rgb(59,59,59)" fill-opacity="0.984375"/>
  <rect x="9" y="9" width="1" height="1" fill="rgb(54,54,54)" fill-opacity="0.984375"/>
  <rect x="10" y="9" width="1" height="1" fill="rgb(45,45,45)" fill-opacity="0.9453125"/>
  <rect x="11" y="9" width="1" height="1" fill="rgb(77,77,77)" fill-opacity="0.984375"/>
  <rect x="12" y="9" width="1" height="1" fill="rgb(68,68,68)" fill-opacity="0.984375"/>
  <rect x="13" y="9" width="1" height="1" fill="rgb(60,60,60)" fill-opacity="0.984375"/>
  <rect x="14" y="9" width="1" height="1" fill="rgb(53,53,53)" fill-opacity="0.984375"/>
  <rect x="15" y="9" width="1" height="1" fill="rgb(68,68,68)" fill-opacity="0.984375"/>
  <rect x="16" y="9" width="1" height="1" fill="rgb(36,36,36)" fill-opacity="0.78125"/>
  <rect x="17" y="9" width="1" height="1" fill="rgb(0,0,0)" fill-opacity="0.46875"/>
  <rect x="18" y="9" width="3" height="1" fill="rgb(255,255,255)" fill-opacity="0.0078125"/>
  <rect x="0" y="10" width="3" height="1" fill="rgb(255,255,255)" fill-opacity="0.0078125"/>
  <rect x="3" y="10" width="1" height="1" fill="rgb(0,0,0)" fill-opacity="0.46875"/>
  <rect x="4" y="10" width="1" height="1" fill="rgb(84,84,84)" fill-opacity="0.828125"/>
  <rect x="5" y="10" width="1" height="1" fill="rgb(113,113,113)" fill-opacity="0.984375"/>
  <rect x="6" y="10" width="1" height="1" fill="rgb(66,66,66)" fill-opacity="0.984375"/>
  <rect x="7" y="10" width="1" height="1" fill="rgb(57,57,57)" fill-opacity="0.984375"/>
  <rect x="8" y="10" width="1" height="1" fill="rgb(55,55,55)" fill-opacity="0.984375"/>
  <rect x="9" y="10" width="4" height="1" fill="rgb(128,128,128)" fill-opacity="0.984375"/>
  <rect x="13" y="10" width="1" height="1" fill="rgb(87,87,87)" fill-opacity="0.9453125"/>
  <rect x="14" y="10" width="1" height="1" fill="rgb(78,78,78)" fill-opacity="0.8515625"/>
  <rect x="15" y="10" width="1" height="1" fill="rgb(32,32,32)" fill-opacity="0.796875"/>
  <rect x="16" y="10" width="1" height="1" fill="rgb(0,0,0)" fill-opacity="0.75"/>
  <rect x="17" y="10" width="1" height="1" fill="rgb(0,0,0)" fill-opacity="0.0234375"/>
  <rect x="18" y="10" width="3" height="1" fill="rgb(255,255,255)" fill-opacity="0.0078125"/>
  <rect x="0" y="11" width="3" height="1" fill="rgb(255,255,255)" fill-opacity="0.0078125"/>
  <rect x="3" y="11" width="1" height="1" fill="rgb(0,0,0)" fill-opacity="0.0234375"/>
  <rect x="4" y="11" width="1" height="1" fill="rgb(1,1,1)" fill-opacity="0.7421875"/>
  <rect x="5" y="11" width="1" height="1" fill="rgb(62,62,62)" fill-opacity="0.8125"/>
  <rect x="6" y="11" width="1" height="1" fill="rgb(96,96,96)" fill-opacity="0.859375"/>
  <rect x="7" y="11" width="1" height="1" fill="rgb(73,73,73)" fill-opacity="0.9765625"/>
  <rect x="8" y="11" width="1" height="1" fill="rgb(57,57,57)" fill-opacity="0.984375"/>
  <rect x="9" y="11" width="4" height="1" fill="rgb(102,102,102)" fill-opacity="0.984375"/>
  <rect x="13" y="11" width="1" height="1" fill="rgb(33,33,33)" fill-opacity="0.9765625"/>
  <rect x="14" y="11" width="1" height="1" fill="rgb(2,2,2)" fill-opacity="0.8046875"/>
  <rect x="15" y="11" width="1" height="1" fill="rgb(0,0,0)" fill-opacity="0.4765625"/>
  <rect x="16" y="11" width="1" height="1" fill="rgb(0,0,0)" fill-opacity="0.0234375"/>
  <rect x="17" y="11" width="4" height="1" fill="rgb(255,255,255)" fill-opacity="0.0078125"/>
  <rect x="0" y="12" width="4" height="1" fill="rgb(255,255,255)" fill-opacity="0.0078125"/>
  <rect x="4" y="12" width="1" height="1" fill="rgb(0,0,0)" fill-opacity="0.0234375"/>
  <rect x="5" y="12" width="1" height="1" fill="rgb(0,0,0)" fill-opacity="0.46875"/>
  <rect x="6" y="12" width="1" height="1" fill="rgb(2,2,2)" fill-opacity="0.8046875"/>
  <rect x="7" y="12" width="1" height="1" fill="rgb(29,29,29)" fill-opacity="0.984375"/>
  <rect x="8" y="12" width="1" height="1" fill="rgb(123,123,123)" fill-opacity="0.984375"/>
  <rect x="9" y="12" width="1" height="1" fill="rgb(196,196,196)" fill-opacity="0.984375"/>
  <rect x="10" y="12" width="1" height="1" fill="rgb(205,205,205)" fill-opacity="0.984375"/>
  <rect x="11" y="12" width="1" height="1" fill="rgb(194,194,194)" fill-opacity="0.984375"/>
  <rect x="12" y="12" width="1" height="1" fill="rgb(176,176,176)" fill-opacity="0.984375"/>
  <rect x="13" y="12" width="1" height="1" fill="rgb(26,26,26)" fill-opacity="0.984375"/>
  <rect x="14" y="12" width="2" height="1" fill="rgb(255,255,255)" fill-opacity="0.0078125"/>
  <rect x="16" y="12" width="1" height="1" fill="rgb(24,24,24)" fill-opacity="0.1328125"/>
  <rect x="17" y="12" width="1" height="1" fill="rgb(32,32,32)" fill-opacity="0.78125"/>
  <rect x="18" y="12" width="1" height="1" fill="rgb(33,33,33)" fill-opacity="0.6640625"/>
  <rect x="19" y="12" width="2" height="1" fill="rgb(255,255,255)" fill-opacity="0.0078125"/>
  <rect x="0" y="13" width="5" height="1" fill="rgb(255,255,255)" fill-opacity="0.0078125"/>
  <rect x="5" y="13" width="1" height="1" fill="rgb(28,28,28)" fill-opacity="0.890625"/>
  <rect x="6" y="13" width="1" height="1" fill="rgb(26,26,26)" fill-opacity="0.984375"/>
  <rect x="7" y="13" width="1" height="1" fill="rgb(25,25,25)" fill-opacity="0.9609375"/>
  <rect x="8" y="13" width="1" height="1" fill="rgb(145,145,145)" fill-opacity="0.984375"/>
  <rect x="9" y="13" width="1" height="1" fill="rgb(109,109,109)" fill-opacity="0.984375"/>
  <rect x="10" y="13" width="1" height="1" fill="rgb(118,118,118)" fill-opacity="0.984375"/>
  <rect x="11" y="13" width="1" height="1" fill="rgb(120,120,120)" fill-opacity="0.984375"/>
  <rect x="12" y="13" width="1" height="1" fill="rgb(170,170,170)" fill-opacity="0.984375"/>
  <rect x="13" y="13" width="1" height="1" fill="rgb(35,35,35)" fill-opacity="0.953125"/>
  <rect x="14" y="13" width="2" height="1" fill="rgb(26,26,26)" fill-opacity="0.984375"/>
  <rect x="16" y="13" width="1" height="1" fill="rgb(48,48,48)" fill-opacity="0.9609375"/>
  <rect x="17" y="13" width="1" height="1" fill="rgb(190,190,190)" fill-opacity="0.9765625"/>
  <rect x="18" y="13" width="1" height="1" fill="rgb(33,33,33)" fill-opacity="0.8046875"/>
  <rect x="19" y="13" width="2" height="1" fill="rgb(255,255,255)" fill-opacity="0.0078125"/>
  <rect x="0" y="14" width="5" height="1" fill="rgb(255,255,255)" fill-opacity="0.0078125"/>
  <rect x="5" y="14" width="1" height="1" fill="rgb(26,26,26)" fill-opacity="0.984375"/>
  <rect x="6" y="14" width="3" height="1" fill="rgb(204,204,204)" fill-opacity="0.984375"/>
  <rect x="9" y="14" width="1" height="1" fill="rgb(77,77,77)" fill-opacity="0.984375"/>
  <rect x="10" y="14" width="1" height="1" fill="rgb(104,104,104)" fill-opacity="0.984375"/>
  <rect x="11" y="14" width="1" height="1" fill="rgb(120,120,120)" fill-opacity="0.984375"/>
  <rect x="12" y="14" width="1" height="1" fill="rgb(155,155,155)" fill-opacity="0.984375"/>
  <rect x="13" y="14" width="1" height="1" fill="rgb(129,129,129)" fill-opacity="0.984375"/>
  <rect x="14" y="14" width="2" height="1" fill="rgb(255,255,255)" fill-opacity="0.984375"/>
  <rect x="16" y="14" width="1" height="1" fill="rgb(202,202,202)" fill-opacity="0.984375"/>
  <rect x="17" y="14" width="1" height="1" fill="rgb(212,212,212)" fill-opacity="0.984375"/>
  <rect x="18" y="14" width="1" height="1" fill="rgb(33,33,33)" fill-opacity="0.8046875"/>
  <rect x="19" y="14" width="2" height="1" fill="rgb(255,255,255)" fill-opacity="0.0078125"/>
  <rect x="0" y="15" width="5" height="1" fill="rgb(255,255,255)" fill-opacity="0.0078125"/>
  <rect x="5" y="15" width="1" height="1" fill="rgb(28,28,28)" fill-opacity="0.890625"/>
  <rect x="6" y="15" width="1" height="1" fill="rgb(23,23,23)" fill-opacity="0.984375"/>
  <rect x="7" y="15" width="1" height="1" fill="rgb(16,16,16)" fill-opacity="0.96875"/>
  <rect x="8" y="15" width="1" height="1" fill="rgb(104,104,104)" fill-opacity="0.984375"/>
  <rect x="9" y="15" width="1" height="1" fill="rgb(56,56,56)" fill-opacity="0.984375"/>
  <rect x="10" y="15" width="1" height="1" fill="rgb(116,116,116)" fill-opacity="0.984375"/>
  <rect x="11" y="15" width="1" height="1" fill="rgb(120,120,120)" fill-opacity="0.984375"/>
  <rect x="12" y="15" width="1" height="1" fill="rgb(142,142,142)" fill-opacity="0.984375"/>
  <rect x="13" y="15" width="1" height="1" fill="rgb(55,55,55)" fill-opacity="0.984375"/>
  <rect x="14" y="15" width="2" height="1" fill="rgb(170,170,170)" fill-opacity="0.984375"/>
  <rect x="16" y="15" width="1" height="1" fill="rgb(125,125,125)" fill-opacity="0.984375"/>
  <rect x="17" y="15" width="1" height="1" fill="rgb(170,170,170)" fill-opacity="0.984375"/>
  <rect x="18" y="15" width="1" height="1" fill="rgb(33,33,33)" fill-opacity="0.8046875"/>
  <rect x="19" y="15" width="2" height="1" fill="rgb(255,255,255)" fill-opacity="0.0078125"/>
  <rect x="0" y="16" width="7" height="1" fill="rgb(255,255,255)" fill-opacity="0.0078125"/>
  <rect x="7" y="16" width="1" height="1" fill="rgb(26,26,26)" fill-opacity="0.9453125"/>
  <rect x="8" y="16" width="1" height="1" fill="rgb(119,119,119)" fill-opacity="0.984375"/>
  <rect x="9" y="16" width="1" height="1" fill="rgb(153,153,153)" fill-opacity="0.984375"/>
  <rect x="10" y="16" width="1" height="1" fill="rgb(148,148,148)" fill-opacity="0.984375"/>
  <rect x="11" y="16" width="1" height="1" fill="rgb(137,137,137)" fill-opacity="0.984375"/>
  <rect x="12" y="16" width="1" height="1" fill="rgb(126,126,126)" fill-opacity="0.984375"/>
  <rect x="13" y="16" width="1" height="1" fill="rgb(35,35,35)" fill-opacity="0.953125"/>
  <rect x="14" y="16" width="2" height="1" fill="rgb(26,26,26)" fill-opacity="0.984375"/>
  <rect x="16" y="16" width="1" height="1" fill="rgb(32,32,32)" fill-opacity="0.9609375"/>
  <rect x="17" y="16" width="1" height="1" fill="rgb(105,105,105)" fill-opacity="0.9765625"/>
  <rect x="18" y="16" width="1" height="1" fill="rgb(33,33,33)" fill-opacity="0.8046875"/>
  <rect x="19" y="16" width="2" height="1" fill="rgb(255,255,255)" fill-opacity="0.0078125"/>
  <rect x="0" y="17" width="7" height="1" fill="rgb(255,255,255)" fill-opacity="0.0078125"/>
  <rect x="7" y="17" width="1" height="1" fill="rgb(26,26,26)" fill-opacity="0.234375"/>
  <rect x="8" y="17" width="1" height="1" fill="rgb(28,28,28)" fill-opacity="0.9453125"/>
  <rect x="9" y="17" width="4" height="1" fill="rgb(26,26,26)" fill-opacity="0.984375"/>
  <rect x="13" y="17" width="1" height="1" fill="rgb(28,28,28)" fill-opacity="0.890625"/>
  <rect x="14" y="17" width="2" height="1" fill="rgb(255,255,255)" fill-opacity="0.0078125"/>
  <rect x="16" y="17" width="1" height="1" fill="rgb(24,24,24)" fill-opacity="0.1328125"/>
  <rect x="17" y="17" width="1" height="1" fill="rgb(32,32,32)" fill-opacity="0.78125"/>
  <rect x="18" y="17" width="1" height="1" fill="rgb(33,33,33)" fill-opacity="0.6640625"/>
  <rect x="19" y="17" width="2" height="1" fill="rgb(255,255,255)" fill-opacity="0.0078125"/>
  <rect x="0" y="18" width="21" height="1" fill="rgb(255,255,255)" fill-opacity="0.0078125"/>
  <rect x="0" y="19" width="21" height="1" fill="rgb(255,255,255)" fill-opacity="0.0078125"/>
  <rect x="0" y="20" width="21" height="1" fill="rgb(255,255,255)" fill-opacity="0.0078125"/>
</svg>