<svg xmlns="http://www.w3.org/2000/svg" shape-rendering="crispEdges" width="21" height="21" viewBox="0 0 21 21">
  <rect x="0" y="0" width="1" height="21" fill="rgb(255,255,255)" fill-opacity="0.0078125"/>
  <rect x="1" y="0" width="1" height="21" fill="rgb(255,255,255)" fill-opacity="0.0078125"/>
  <rect x="2" y="0" width="1" height="21" fill="rgb(255,255,255)" fill-opacity="0.0078125"/>
  <rect x="3" y="0" width="1" height="21" fill="rgb(255,255,255)" fill-opacity="0.0078125"/>
  <rect x="4" y="0" width="1" height="14" fill="rgb(255,255,255)" fill-opacity="0.0078125"/>
  <rect x="4" y="14" width="1" height="1" fill="rgb(29,29,29)" fill-opacity="0.3828125"/>
  <rect x="4" y="15" width="1" height="1" fill="rgb(27,27,27)" fill-opacity="0.84375"/>
  <rect x="4" y="16" width="1" height="1" fill="rgb(27,27,27)" fill-opacity="0.8203125"/>
  <rect x="4" y="17" width="1" height="1" fill="rgb(27,27,27)" fill-opacity="0.375"/>
  <rect x="4" y="18" width="1" height="3" fill="rgb(255,255,255)" fill-opacity="0.0078125"/>
  <rect x="5" y="0" width="1" height="13" fill="rgb(255,255,255)" fill-opacity="0.0078125"/>
  <rect x="5" y="13" width="1" height="1" fill="rgb(27,27,27)" fill-opacity="0.078125"/>
  <rect x="5" y="14" width="1" height="1" fill="rgb(36,36,36)" fill-opacity="0.890625"/>
  <rect x="5" y="15" width="1" height="1" fill="rgb(220,220,220)" fill-opacity="0.90625"/>
  <rect x="5" y="16" width="1" height="1" fill="rgb(217,217,217)" fill-opacity="0.90625"/>
  <rect x="5" y="17" width="1" height="1" fill="rgb(27,27,27)" fill-opacity="0.8203125"/>
  <rect x="5" y="18" width="1" height="3" fill="rgb(255,255,255)" fill-opacity="0.0078125"/>
  <rect x="6" y="0" width="1" height="13" fill="rgb(255,255,255)" fill-opacity="0.0078125"/>
  <rect x="6" y="13" width="1" height="1" fill="rgb(25,25,25)" fill-opacity="0.6015625"/>
  <rect x="6" y="14" width="1" height="1" fill="rgb(124,124,124)" fill-opacity="0.90625"/>
  <rect x="6" y="15" width="1" height="1" fill="rgb(217,217,217)" fill-opacity="0.90625"/>
  <rect x="6" y="16" width="1" height="1" fill="rgb(153,153,153)" fill-opacity="0.90625"/>
  <rect x="6" y="17" width="1" height="1" fill="rgb(26,26,26)" fill-opacity="0.8359375"/>
  <rect x="6" y="18" width="1" height="3" fill="rgb(255,255,255)" fill-opacity="0.0078125"/>
  <rect x="7" y="0" width="1" height="12" fill="rgb(255,255,255)" fill-opacity="0.0078125"/>
  <rect x="7" y="12" width="1" height="1" fill="rgb(26,26,26)" fill-opacity="0.2734375"/>
  <rect x="7" y="13" width="1" height="1" fill="rgb(102,102,102)" fill-opacity="0.90625"/>
  <rect x="7" y="14" width="1" height="1" fill="rgb(165,165,165)" fill-opacity="0.90625"/>
  <rect x="7" y="15" width="1" height="1" fill="rgb(116,116,116)" fill-opacity="0.90625"/>
  <rect x="7" y="16" width="1" height="1" fill="rgb(33,33,33)" fill-opacity="0.890625"/>
  <rect x="7" y="17" width="1" height="1" fill="rgb(27,27,27)" fill-opacity="0.3828125"/>
  <rect x="7" y="18" width="1" height="3" fill="rgb(255,255,255)" fill-opacity="0.0078125"/>
  <rect x="8" y="0" width="1" height="11" fill="rgb(255,255,255)" fill-opacity="0.0078125"/>
  <rect x="8" y="11" width="1" height="1" fill="rgb(36,36,36)" fill-opacity="0.0625"/>
  <rect x="8" y="12" width="1" height="1" fill="rgb(44,44,44)" fill-opacity="0.8203125"/>
  <rect x="8" y="13" width="1" height="1" fill="rgb(184,184,184)" fill-opacity="0.90625"/>
  <rect x="8" y="14" width="1" height="1" fill="rgb(160,160,160)" fill-opacity="0.90625"/>
  <rect x="8" y="15" width="1" height="1" fill="rgb(62,62,62)" fill-opacity="0.8984375"/>
  <rect x="8" y="16" width="1" height="1" fill="rgb(24,24,24)" fill-opacity="0.2109375"/>
  <rect x="8" y="17" width="1" height="4" fill="rgb(255,255,255)" fill-opacity="0.0078125"/>
  <rect x="9" y="0" width="1" height="4" fill="rgb(255,255,255)" fill-opacity="0.0078125"/>
  <rect x="9" y="4" width="1" height="1" fill="rgb(27,27,27)" fill-opacity="0.375"/>
  <rect x="9" y="5" width="1" height="1" fill="rgb(27,27,27)" fill-opacity="0.8515625"/>
  <rect x="9" y="6" width="1" height="1" fill="rgb(26,26,26)" fill-opacity="0.8828125"/>
  <rect x="9" y="7" width="1" height="1" fill="rgb(27,27,27)" fill-opacity="0.7734375"/>
  <rect x="9" y="8" width="1" height="3" fill="rgb(27,27,27)" fill-opacity="0.6796875"/>
  <rect x="9" y="11" width="1" height="1" fill="rgb(32,32,31)" fill-opacity="0.9375"/>
  <rect x="9" y="12" width="1" height="1" fill="rgb(61,61,60)" fill-opacity="0.984375"/>
  <rect x="9" y="13" width="1" height="1" fill="rgb(65,65,64)" fill-opacity="0.984375"/>
  <rect x="9" y="14" width="1" height="1" fill="rgb(51,51,51)" fill-opacity="0.9765625"/>
  <rect x="9" y="15" width="1" height="1" fill="rgb(27,27,27)" fill-opacity="0.5234375"/>
  <rect x="9" y="16" width="1" height="5" fill="rgb(255,255,255)" fill-opacity="0.0078125"/>
  <rect x="10" y="0" width="1" height="4" fill="rgb(255,255,255)" fill-opacity="0.0078125"/>
  <rect x="10" y="4" width="1" height="1" fill="rgb(27,27,27)" fill-opacity="0.828125"/>
  <rect x="10" y="5" width="1" height="2" fill="rgb(243,243,243)" fill-opacity="0.90625"/>
  <rect x="10" y="7" width="1" height="1" fill="rgb(194,194,194)" fill-opacity="0.90625"/>
  <rect x="10" y="8" width="1" height="3" fill="rgb(222,222,222)" fill-opacity="0.90625"/>
  <rect x="10" y="11" width="1" height="1" fill="rgb(71,71,70)" fill-opacity="0.984375"/>
  <rect x="10" y="12" width="1" height="2" fill="rgb(255,255,255)"/>
  <rect x="10" y="14" width="1" height="1" fill="rgb(46,46,45)" fill-opacity="0.9765625"/>
  <rect x="10" y="15" width="1" height="1" fill="rgb(21,21,21)" fill-opacity="0.0546875"/>
  <rect x="10" y="16" width="1" height="5" fill="rgb(255,255,255)" fill-opacity="0.0078125"/>
  <rect x="11" y="0" width="1" height="4" fill="rgb(255,255,255)" fill-opacity="0.0078125"/>
  <rect x="11" y="4" width="1" height="1" fill="rgb(27,27,27)" fill-opacity="0.828125"/>
  <rect x="11" y="5" width="1" height="1" fill="rgb(242,242,242)" fill-opacity="0.90625"/>
  <rect x="11" y="6" width="1" height="1" fill="rgb(180,180,180)" fill-opacity="0.90625"/>
  <rect x="11" y="7" width="1" height="1" fill="rgb(169,169,169)" fill-opacity="0.90625"/>
  <rect x="11" y="8" width="1" height="3" fill="rgb(204,204,204)" fill-opacity="0.90625"/>
  <rect x="11" y="11" width="1" height="1" fill="rgb(68,68,68)" fill-opacity="0.984375"/>
  <rect x="11" y="12" width="1" height="2" fill="rgb(255,255,255)"/>
  <rect x="11" y="14" width="1" height="1" fill="rgb(46,46,46)" fill-opacity="0.96875"/>
  <rect x="11" y="15" width="1" height="1" fill="rgb(32,32,32)" fill-opacity="0.0390625"/>
  <rect x="11" y="16" width="1" height="5" fill="rgb(255,255,255)" fill-opacity="0.0078125"/>
  <rect x="12" y="0" width="1" height="4" fill="rgb(255,255,255)" fill-opacity="0.0078125"/>
  <rect x="12" y="4" width="1" height="1" fill="rgb(27,27,27)" fill-opacity="0.375"/>
  <rect x="12" y="5" width="1" height="1" fill="rgb(27,27,27)" fill-opacity="0.84375"/>
  <rect x="12" y="6" width="1" height="1" fill="rgb(26,26,26)" fill-opacity="0.8828125"/>
  <rect x="12" y="7" width="1" height="1" fill="rgb(27,27,27)" fill-opacity="0.7734375"/>
  <rect x="12" y="8" width="1" height="3" fill="rgb(27,27,27)" fill-opacity="0.6796875"/>
  <rect x="12" y="11" width="1" height="1" fill="rgb(32,32,31)" fill-opacity="0.9375"/>
  <rect x="12" y="12" width="1" height="1" fill="rgb(63,63,62)" fill-opacity="0.984375"/>
  <rect x="12" y="13" width="1" height="1" fill="rgb(66,66,66)" fill-opacity="0.984375"/>
  <rect x="12" y="14" width="1" height="1" fill="rgb(59,59,58)" fill-opacity="0.9765625"/>
  <rect x="12" y="15" width="1" height="1" fill="rgb(27,27,27)" fill-opacity="0.4921875"/>
  <rect x="12" y="16" width="1" height="5" fill="rgb(255,255,255)" fill-opacity="0.0078125"/>
  <rect x="13" y="0" width="1" height="11" fill="rgb(255,255,255)" fill-opacity="0.0078125"/>
  <rect x="13" y="11" width="1" height="1" fill="rgb(32,32,32)" fill-opacity="0.0703125"/>
  <rect x="13" y="12" width="1" height="1" fill="rgb(58,58,58)" fill-opacity="0.84375"/>
  <rect x="13" y="13" width="1" height="1" fill="rgb(222,222,222)" fill-opacity="0.90625"/>
  <rect x="13" y="14" width="1" height="1" fill="rgb(233,233,233)" fill-opacity="0.90625"/>
  <rect x="13" y="15" width="1" height="1" fill="rgb(78,78,78)" fill-opacity="0.8984375"/>
  <rect x="13" y="16" width="1" height="1" fill="rgb(28,28,28)" fill-opacity="0.1796875"/>
  <rect x="13" y="17" width="1" height="4" fill="rgb(255,255,255)" fill-opacity="0.0078125"/>
  <rect x="14" y="0" width="1" height="12" fill="rgb(255,255,255)" fill-opacity="0.0078125"/>
  <rect x="14" y="12" width="1" height="1" fill="rgb(26,26,26)" fill-opacity="0.3125"/>
  <rect x="14" y="13" width="1" height="1" fill="rgb(139,139,139)" fill-opacity="0.90625"/>
  <rect x="14" y="14" width="1" height="1" fill="rgb(242,242,242)" fill-opacity="0.90625"/>
  <rect x="14" y="15" width="1" height="1" fill="rgb(205,205,205)" fill-opacity="0.90625"/>
  <rect x="14" y="16" width="1" height="1" fill="rgb(33,33,33)" fill-opacity="0.890625"/>
  <rect x="14" y="17" width="1" height="1" fill="rgb(27,27,27)" fill-opacity="0.375"/>
  <rect x="14" y="18" width="1" height="3" fill="rgb(255,255,255)" fill-opacity="0.0078125"/>
  <rect x="15" y="0" width="1" height="13" fill="rgb(255,255,255)" fill-opacity="0.0078125"/>
  <rect x="15" y="13" width="1" height="1" fill="rgb(29,29,29)" fill-opacity="0.6328125"/>
  <rect x="15" y="14" width="1" height="1" fill="rgb(187,187,187)" fill-opacity="0.90625"/>
  <rect x="15" y="15" width="1" height="1" fill="rgb(249,249,249)" fill-opacity="0.90625"/>
  <rect x="15" y="16" width="1" height="1" fill="rgb(248,248,248)" fill-opacity="0.90625"/>
  <rect x="15" y="17" width="1" height="1" fill="rgb(27,27,27)" fill-opacity="0.828125"/>
  <rect x="15" y="18" width="1" height="3" fill="rgb(255,255,255)" fill-opacity="0.0078125"/>
  <rect x="16" y="0" width="1" height="13" fill="rgb(255,255,255)" fill-opacity="0.0078125"/>
  <rect x="16" y="13" width="1" height="1" fill="rgb(32,32,32)" fill-opacity="0.1015625"/>
  <rect x="16" y="14" width="1" height="1" fill="rgb(50,50,50)" fill-opacity="0.8984375"/>
  <rect x="16" y="15" width="1" height="1" fill="rgb(248,248,248)" fill-opacity="0.90625"/>
  <rect x="16" y="16" width="1" height="1" fill="rgb(204,204,204)" fill-opacity="0.90625"/>
  <rect x="16" y="17" width="1" height="1" fill="rgb(27,27,27)" fill-opacity="0.828125"/>
  <rect x="16" y="18" width="1" height="3" fill="rgb(255,255,255)" fill-opacity="0.0078125"/>
  <rect x="17" y="0" width="1" height="14" fill="rgb(255,255,255)" fill-opacity="0.0078125"/>
  <rect x="17" y="14" width="1" height="1" fill="rgb(26,26,26)" fill-opacity="0.421875"/>
  <rect x="17" y="15" width="1" height="1" fill="rgb(27,27,27)" fill-opacity="0.84375"/>
  <rect x="17" y="16" width="1" height="1" fill="rgb(27,27,27)" fill-opacity="0.828125"/>
  <rect x="17" y="17" width="1" height="1" fill="rgb(27,27,27)" fill-opacity="0.375"/>
  <rect x="17" y="18" width="1" height="3" fill="rgb(255,255,255)" fill-opacity="0.0078125"/>
  <rect x="18" y="0" width="1" height="21" fill="rgb(255,255,255)" fill-opacity="0.0078125"/>
  <rect x="19" y="0" width="1" height="21" fill="rgb(255,255,255)" fill-opacity="0.0078125"/>
  <rect x="20" y="0" width="1" height="21" fill="rgb(255,255,255)" fill-opacity="0.0078125"/>
</svg>