<svg xmlns="http://www.w3.org/2000/svg" shape-rendering="crispEdges" width="21" height="21" viewBox="0 0 21 21">
  <rect x="0" y="0" width="21" height="1" fill="rgb(255,255,255)" fill-opacity="0.0078125"/>
  <rect x="0" y="1" width="21" height="1" fill="rgb(255,255,255)" fill-opacity="0.0078125"/>
  <rect x="0" y="2" width="21" height="1" fill="rgb(255,255,255)" fill-opacity="0.0078125"/>
  <rect x="0" y="3" width="7" height="1" fill="rgb(255,255,255)" fill-opacity="0.0078125"/>
  <rect x="7" y="3" width="1" height="1" fill="rgb(255,255,255)" fill-opacity="0.078125"/>
  <rect x="8" y="3" width="6" height="1" fill="rgb(255,255,255)" fill-opacity="0.1015625"/>
  <rect x="14" y="3" width="1" height="1" fill="rgb(255,255,255)" fill-opacity="0.078125"/>
  <rect x="15" y="3" width="6" height="1" fill="rgb(255,255,255)" fill-opacity="0.0078125"/>
  <rect x="0" y="4" width="7" height="1" fill="rgb(255,255,255)" fill-opacity="0.0078125"/>
  <rect x="7" y="4" width="1" height="1" fill="rgb(255,255,255)" fill-opacity="0.109375"/>
  <rect x="8" y="4" width="6" height="1" fill="rgb(1,1,1)" fill-opacity="0.9765625"/>
  <rect x="14" y="4" width="1" height="1" fill="rgb(255,255,255)" fill-opacity="0.109375"/>
  <rect x="15" y="4" width="6" height="1" fill="rgb(255,255,255)" fill-opacity="0.0078125"/>
  <rect x="0" y="5" width="5" height="1" fill="rgb(255,255,255)" fill-opacity="0.0078125"/>
  <rect x="5" y="5" width="1" height="1" fill="rgb(255,255,255)" fill-opacity="0.078125"/>
  <rect x="6" y="5" width="1" height="1" fill="rgb(255,255,255)" fill-opacity="0.1015625"/>
  <rect x="7" y="5" width="1" height="1" fill="rgb(255,255,255)" fill-opacity="0.109375"/>
  <rect x="8" y="5" width="6" height="1" fill="rgb(0,0,0)"/>
  <rect x="14" y="5" width="1" height="1" fill="rgb(255,255,255)" fill-opacity="0.109375"/>
  <rect x="15" y="5" width="1" height="1" fill="rgb(255,255,255)" fill-opacity="0.1015625"/>
  <rect x="16" y="5" width="1" height="1" fill="rgb(255,255,255)" fill-opacity="0.078125"/>
  <rect x="17" y="5" width="4" height="1" fill="rgb(255,255,255)" fill-opacity="0.0078125"/>
  <rect x="0" y="6" width="5" height="1" fill="rgb(255,255,255)" fill-opacity="0.0078125"/>
  <rect x="5" y="6" width="1" height="1" fill="rgb(255,255,255)" fill-opacity="0.109375"/>
  <rect x="6" y="6" width="2" height="1" fill="rgb(1,1,1)" fill-opacity="0.9765625"/>
  <rect x="8" y="6" width="1" height="1" fill="rgb(255,255,255)" fill-opacity="0.9453125"/>
  <rect x="9" y="6" width="4" height="1" fill="rgb(255,255,255)" fill-opacity="0.9609375"/>
  <rect x="13" y="6" width="1" height="1" fill="rgb(255,255,255)" fill-opacity="0.9453125"/>
  <rect x="14" y="6" width="2" height="1" fill="rgb(1,1,1)" fill-opacity="0.9765625"/>
  <rect x="16" y="6" width="1" height="1" fill="rgb(255,255,255)" fill-opacity="0.109375"/>
  <rect x="17" y="6" width="4" height="1" fill="rgb(255,255,255)" fill-opacity="0.0078125"/>
  <rect x="0" y="7" width="3" height="1" fill="rgb(255,255,255)" fill-opacity="0.0078125"/>
  <rect x="3" y="7" width="1" height="1" fill="rgb(255,255,255)" fill-opacity="0.078125"/>
  <rect x="4" y="7" width="1" height="1" fill="rgb(255,255,255)" fill-opacity="0.1015625"/>
  <rect x="5" y="7" width="1" height="1" fill="rgb(255,255,255)" fill-opacity="0.109375"/>
  <rect x="6" y="7" width="2" height="1" fill="rgb(0,0,0)"/>
  <rect x="8" y="7" width="1" height="1" fill="rgb(255,255,255)" fill-opacity="0.96875"/>
  <rect x="9" y="7" width="4" height="1" fill="rgb(255,255,255)" fill-opacity="0.8046875"/>
  <rect x="13" y="7" width="1" height="1" fill="rgb(255,255,255)" fill-opacity="0.96875"/>
  <rect x="14" y="7" width="2" height="1" fill="rgb(0,0,0)"/>
  <rect x="16" y="7" width="1" height="1" fill="rgb(255,255,255)" fill-opacity="0.109375"/>
  <rect x="17" y="7" width="1" height="1" fill="rgb(255,255,255)" fill-opacity="0.1015625"/>
  <rect x="18" y="7" width="1" height="1" fill="rgb(255,255,255)" fill-opacity="0.0703125"/>
  <rect x="19" y="7" width="2" height="1" fill="rgb(255,255,255)" fill-opacity="0.0078125"/>
  <rect x="0" y="8" width="3" height="1" fill="rgb(255,255,255)" fill-opacity="0.0078125"/>
  <rect x="3" y="8" width="1" height="1" fill="rgb(255,255,255)" fill-opacity="0.109375"/>
  <rect x="4" y="8" width="2" height="1" fill="rgb(1,1,1)" fill-opacity="0.9765625"/>
  <rect x="6" y="8" width="1" height="1" fill="rgb(255,255,255)" fill-opacity="0.9453125"/>
  <rect x="7" y="8" width="1" height="1" fill="rgb(255,255,255)" fill-opacity="0.9609375"/>
  <rect x="8" y="8" width="1" height="1" fill="rgb(255,255,255)" fill-opacity="0.9453125"/>
  <rect x="9" y="8" width="3" height="1" fill="rgb(255,255,255)" fill-opacity="0.8046875"/>
  <rect x="12" y="8" width="1" height="1" fill="rgb(254,254,254)" fill-opacity="0.8046875"/>
  <rect x="13" y="8" width="1" height="1" fill="rgb(251,251,251)" fill-opacity="0.9375"/>
  <rect x="14" y="8" width="1" height="1" fill="rgb(246,246,246)" fill-opacity="0.9375"/>
  <rect x="15" y="8" width="1" height="1" fill="rgb(238,238,238)" fill-opacity="0.921875"/>
  <rect x="16" y="8" width="1" height="1" fill="rgb(1,1,1)" fill-opacity="0.9765625"/>
  <rect x="17" y="8" width="1" height="1" fill="rgb(2,2,2)" fill-opacity="0.953125"/>
  <rect x="18" y="8" width="1" height="1" fill="rgb(255,255,255)" fill-opacity="0.1015625"/>
  <rect x="19" y="8" width="2" height="1" fill="rgb(255,255,255)" fill-opacity="0.0078125"/>
  <rect x="0" y="9" width="3" height="1" fill="rgb(255,255,255)" fill-opacity="0.0078125"/>
  <rect x="3" y="9" width="1" height="1" fill="rgb(255,255,255)" fill-opacity="0.109375"/>
  <rect x="4" y="9" width="2" height="1" fill="rgb(0,0,0)"/>
  <rect x="6" y="9" width="1" height="1" fill="rgb(255,255,255)" fill-opacity="0.96875"/>
  <rect x="7" y="9" width="4" height="1" fill="rgb(255,255,255)" fill-opacity="0.8046875"/>
  <rect x="11" y="9" width="1" height="1" fill="rgb(250,250,250)" fill-opacity="0.8046875"/>
  <rect x="12" y="9" width="1" height="1" fill="rgb(236,236,236)" fill-opacity="0.8046875"/>
  <rect x="13" y="9" width="1" height="1" fill="rgb(223,223,223)" fill-opacity="0.8046875"/>
  <rect x="14" y="9" width="1" height="1" fill="rgb(210,210,210)" fill-opacity="0.8046875"/>
  <rect x="15" y="9" width="1" height="1" fill="rgb(231,231,231)" fill-opacity="0.9296875"/>
  <rect x="16" y="9" width="1" height="1" fill="rgb(0,0,0)"/>
  <rect x="17" y="9" width="1" height="1" fill="rgb(1,1,1)" fill-opacity="0.9765625"/>
  <rect x="18" y="9" width="1" height="1" fill="rgb(255,255,255)" fill-opacity="0.1015625"/>
  <rect x="19" y="9" width="2" height="1" fill="rgb(255,255,255)" fill-opacity="0.0078125"/>
  <rect x="0" y="10" width="3" height="1" fill="rgb(255,255,255)" fill-opacity="0.0078125"/>
  <rect x="3" y="10" width="1" height="1" fill="rgb(255,255,255)" fill-opacity="0.109375"/>
  <rect x="4" y="10" width="2" height="1" fill="rgb(0,0,0)"/>
  <rect x="6" y="10" width="1" height="1" fill="rgb(255,255,255)" fill-opacity="0.96875"/>
  <rect x="7" y="10" width="3" height="1" fill="rgb(255,255,255)" fill-opacity="0.8046875"/>
  <rect x="10" y="10" width="1" height="1" fill="rgb(246,246,246)" fill-opacity="0.8046875"/>
  <rect x="11" y="10" width="1" height="1" fill="rgb(233,233,233)" fill-opacity="0.8046875"/>
  <rect x="12" y="10" width="1" height="1" fill="rgb(219,219,219)" fill-opacity="0.8046875"/>
  <rect x="13" y="10" width="1" height="1" fill="rgb(205,205,205)" fill-opacity="0.8046875"/>
  <rect x="14" y="10" width="1" height="1" fill="rgb(193,193,193)" fill-opacity="0.8046875"/>
  <rect x="15" y="10" width="1" height="1" fill="rgb(219,219,219)" fill-opacity="0.9140625"/>
  <rect x="16" y="10" width="1" height="1" fill="rgb(0,0,0)"/>
  <rect x="17" y="10" width="1" height="1" fill="rgb(1,1,1)" fill-opacity="0.9765625"/>
  <rect x="18" y="10" width="1" height="1" fill="rgb(255,255,255)" fill-opacity="0.1015625"/>
  <rect x="19" y="10" width="2" height="1" fill="rgb(255,255,255)" fill-opacity="0.0078125"/>
  <rect x="0" y="11" width="3" height="1" fill="rgb(255,255,255)" fill-opacity="0.0078125"/>
  <rect x="3" y="11" width="1" height="1" fill="rgb(255,255,255)" fill-opacity="0.109375"/>
  <rect x="4" y="11" width="2" height="1" fill="rgb(0,0,0)"/>
  <rect x="6" y="11" width="1" height="1" fill="rgb(255,255,255)" fill-opacity="0.96875"/>
  <rect x="7" y="11" width="2" height="1" fill="rgb(255,255,255)" fill-opacity="0.8046875"/>
  <rect x="9" y="11" width="1" height="1" fill="rgb(243,243,243)" fill-opacity="0.8046875"/>
  <rect x="10" y="11" width="1" height="1" fill="rgb(229,229,229)" fill-opacity="0.8046875"/>
  <rect x="11" y="11" width="1" height="1" fill="rgb(215,215,215)" fill-opacity="0.8046875"/>
  <rect x="12" y="11" width="1" height="1" fill="rgb(203,203,203)" fill-opacity="0.8046875"/>
  <rect x="13" y="11" width="1" height="1" fill="rgb(188,188,188)" fill-opacity="0.8046875"/>
  <rect x="14" y="11" width="1" height="1" fill="rgb(174,174,174)" fill-opacity="0.8046875"/>
  <rect x="15" y="11" width="1" height="1" fill="rgb(205,205,205)" fill-opacity="0.8984375"/>
  <rect x="16" y="11" width="1" height="1" fill="rgb(0,0,0)"/>
  <rect x="17" y="11" width="1" height="1" fill="rgb(1,1,1)" fill-opacity="0.9765625"/>
  <rect x="18" y="11" width="1" height="1" fill="rgb(255,255,255)" fill-opacity="0.1015625"/>
  <rect x="19" y="11" width="2" height="1" fill="rgb(255,255,255)" fill-opacity="0.0078125"/>
  <rect x="0" y="12" width="3" height="1" fill="rgb(255,255,255)" fill-opacity="0.0078125"/>
  <rect x="3" y="12" width="1" height="1" fill="rgb(255,255,255)" fill-opacity="0.109375"/>
  <rect x="4" y="12" width="2" height="1" fill="rgb(0,0,0)"/>
  <rect x="6" y="12" width="1" height="1" fill="rgb(255,255,255)" fill-opacity="0.953125"/>
  <rect x="7" y="12" width="1" height="1" fill="rgb(253,253,253)" fill-opacity="0.8046875"/>
  <rect x="8" y="12" width="1" height="1" fill="rgb(239,239,239)" fill-opacity="0.8046875"/>
  <rect x="9" y="12" width="1" height="1" fill="rgb(225,225,225)" fill-opacity="0.8046875"/>
  <rect x="10" y="12" width="1" height="1" fill="rgb(213,213,213)" fill-opacity="0.8046875"/>
  <rect x="11" y="12" width="1" height="1" fill="rgb(198,198,198)" fill-opacity="0.8046875"/>
  <rect x="12" y="12" width="1" height="1" fill="rgb(185,185,185)" fill-opacity="0.8046875"/>
  <rect x="13" y="12" width="1" height="1" fill="rgb(171,171,171)" fill-opacity="0.8046875"/>
  <rect x="14" y="12" width="1" height="1" fill="rgb(158,158,158)" fill-opacity="0.8046875"/>
  <rect x="15" y="12" width="1" height="1" fill="rgb(188,188,188)" fill-opacity="0.890625"/>
  <rect x="16" y="12" width="1" height="1" fill="rgb(0,0,0)"/>
  <rect x="17" y="12" width="1" height="1" fill="rgb(1,1,1)" fill-opacity="0.9765625"/>
  <rect x="18" y="12" width="1" height="1" fill="rgb(255,255,255)" fill-opacity="0.1015625"/>
  <rect x="19" y="12" width="2" height="1" fill="rgb(255,255,255)" fill-opacity="0.0078125"/>
  <rect x="0" y="13" width="3" height="1" fill="rgb(255,255,255)" fill-opacity="0.0078125"/>
  <rect x="3" y="13" width="1" height="1" fill="rgb(255,255,255)" fill-opacity="0.109375"/>
  <rect x="4" y="13" width="2" height="1" fill="rgb(0,0,0)"/>
  <rect x="6" y="13" width="1" height="1" fill="rgb(253,253,253)" fill-opacity="0.9296875"/>
  <rect x="7" y="13" width="1" height="1" fill="rgb(249,249,249)" fill-opacity="0.9375"/>
  <rect x="8" y="13" width="1" height="1" fill="rgb(241,241,241)" fill-opacity="0.9140625"/>
  <rect x="9" y="13" width="1" height="1" fill="rgb(208,208,208)" fill-opacity="0.8046875"/>
  <rect x="10" y="13" width="1" height="1" fill="rgb(195,195,195)" fill-opacity="0.8046875"/>
  <rect x="11" y="13" width="1" height="1" fill="rgb(181,181,181)" fill-opacity="0.8046875"/>
  <rect x="12" y="13" width="1" height="1" fill="rgb(168,168,168)" fill-opacity="0.8046875"/>
  <rect x="13" y="13" width="1" height="1" fill="rgb(192,192,192)" fill-opacity="0.875"/>
  <rect x="14" y="13" width="1" height="1" fill="rgb(183,183,183)" fill-opacity="0.8828125"/>
  <rect x="15" y="13" width="1" height="1" fill="rgb(164,164,164)" fill-opacity="0.8671875"/>
  <rect x="16" y="13" width="1" height="1" fill="rgb(0,0,0)"/>
  <rect x="17" y="13" width="1" height="1" fill="rgb(1,1,1)" fill-opacity="0.9765625"/>
  <rect x="18" y="13" width="1" height="1" fill="rgb(255,255,255)" fill-opacity="0.1015625"/>
  <rect x="19" y="13" width="2" height="1" fill="rgb(255,255,255)" fill-opacity="0.0078125"/>
  <rect x="0" y="14" width="3" height="1" fill="rgb(255,255,255)" fill-opacity="0.0078125"/>
  <rect x="3" y="14" width="1" height="1" fill="rgb(255,255,255)" fill-opacity="0.078125"/>
  <rect x="4" y="14" width="2" height="1" fill="rgb(193,193,193)" fill-opacity="0.1328125"/>
  <rect x="6" y="14" width="2" height="1" fill="rgb(7,7,7)" fill-opacity="0.9765625"/>
  <rect x="8" y="14" width="1" height="1" fill="rgb(234,234,234)" fill-opacity="0.9140625"/>
  <rect x="9" y="14" width="1" height="1" fill="rgb(191,191,191)" fill-opacity="0.8046875"/>
  <rect x="10" y="14" width="1" height="1" fill="rgb(178,178,178)" fill-opacity="0.8046875"/>
  <rect x="11" y="14" width="1" height="1" fill="rgb(164,164,164)" fill-opacity="0.8046875"/>
  <rect x="12" y="14" width="1" height="1" fill="rgb(150,150,150)" fill-opacity="0.8046875"/>
  <rect x="13" y="14" width="1" height="1" fill="rgb(179,179,179)" fill-opacity="0.875"/>
  <rect x="14" y="14" width="1" height="1" fill="rgb(4,4,4)" fill-opacity="0.9765625"/>
  <rect x="15" y="14" width="1" height="1" fill="rgb(3,3,3)" fill-opacity="0.9765625"/>
  <rect x="16" y="14" width="1" height="1" fill="rgb(193,193,193)" fill-opacity="0.1328125"/>
  <rect x="17" y="14" width="1" height="1" fill="rgb(199,199,199)" fill-opacity="0.1328125"/>
  <rect x="18" y="14" width="1" height="1" fill="rgb(255,255,255)" fill-opacity="0.078125"/>
  <rect x="19" y="14" width="2" height="1" fill="rgb(255,255,255)" fill-opacity="0.0078125"/>
  <rect x="0" y="15" width="5" height="1" fill="rgb(255,255,255)" fill-opacity="0.0078125"/>
  <rect x="5" y="15" width="1" height="1" fill="rgb(255,255,255)" fill-opacity="0.109375"/>
  <rect x="6" y="15" width="2" height="1" fill="rgb(0,0,0)"/>
  <rect x="8" y="15" width="1" height="1" fill="rgb(218,218,218)" fill-opacity="0.890625"/>
  <rect x="9" y="15" width="1" height="1" fill="rgb(212,212,212)" fill-opacity="0.890625"/>
  <rect x="10" y="15" width="1" height="1" fill="rgb(199,199,199)" fill-opacity="0.8828125"/>
  <rect x="11" y="15" width="1" height="1" fill="rgb(188,188,188)" fill-opacity="0.875"/>
  <rect x="12" y="15" width="1" height="1" fill="rgb(173,173,173)" fill-opacity="0.8671875"/>
  <rect x="13" y="15" width="1" height="1" fill="rgb(152,152,152)" fill-opacity="0.859375"/>
  <rect x="14" y="15" width="2" height="1" fill="rgb(0,0,0)"/>
  <rect x="16" y="15" width="1" height="1" fill="rgb(255,255,255)" fill-opacity="0.109375"/>
  <rect x="17" y="15" width="4" height="1" fill="rgb(255,255,255)" fill-opacity="0.0078125"/>
  <rect x="0" y="16" width="5" height="1" fill="rgb(255,255,255)" fill-opacity="0.0078125"/>
  <rect x="5" y="16" width="1" height="1" fill="rgb(255,255,255)" fill-opacity="0.078125"/>
  <rect x="6" y="16" width="2" height="1" fill="rgb(193,193,193)" fill-opacity="0.1328125"/>
  <rect x="8" y="16" width="2" height="1" fill="rgb(4,4,4)"/>
  <rect x="10" y="16" width="3" height="1" fill="rgb(3,3,3)"/>
  <rect x="13" y="16" width="1" height="1" fill="rgb(2,2,2)"/>
  <rect x="14" y="16" width="2" height="1" fill="rgb(193,193,193)" fill-opacity="0.1328125"/>
  <rect x="16" y="16" width="1" height="1" fill="rgb(255,255,255)" fill-opacity="0.078125"/>
  <rect x="17" y="16" width="4" height="1" fill="rgb(255,255,255)" fill-opacity="0.0078125"/>
  <rect x="0" y="17" width="7" height="1" fill="rgb(255,255,255)" fill-opacity="0.0078125"/>
  <rect x="7" y="17" width="1" height="1" fill="rgb(255,255,255)" fill-opacity="0.109375"/>
  <rect x="8" y="17" width="6" height="1" fill="rgb(0,0,0)"/>
  <rect x="14" y="17" width="1" height="1" fill="rgb(255,255,255)" fill-opacity="0.109375"/>
  <rect x="15" y="17" width="6" height="1" fill="rgb(255,255,255)" fill-opacity="0.0078125"/>
  <rect x="0" y="18" width="7" height="1" fill="rgb(255,255,255)" fill-opacity="0.0078125"/>
  <rect x="7" y="18" width="1" height="1" fill="rgb(255,255,255)" fill-opacity="0.078125"/>
  <rect x="8" y="18" width="6" height="1" fill="rgb(255,255,255)" fill-opacity="0.109375"/>
  <rect x="14" y="18" width="1" height="1" fill="rgb(255,255,255)" fill-opacity="0.078125"/>
  <rect x="15" y="18" width="6" height="1" fill="rgb(255,255,255)" fill-opacity="0.0078125"/>
  <rect x="0" y="19" width="21" height="1" fill="rgb(255,255,255)" fill-opacity="0.0078125"/>
  <rect x="0" y="20" width="21" height="1" fill="rgb(255,255,255)" fill-opacity="0.0078125"/>
</svg>