<svg xmlns="http://www.w3.org/2000/svg" shape-rendering="crispEdges" width="21" height="21" viewBox="0 0 21 21">
  <rect x="0" y="0" width="1" height="21" fill="rgb(255,255,255)" fill-opacity="0.0078125"/>
  <rect x="1" y="0" width="1" height="21" fill="rgb(255,255,255)" fill-opacity="0.0078125"/>
  <rect x="2" y="0" width="1" height="4" fill="rgb(255,255,255)" fill-opacity="0.0078125"/>
  <rect x="2" y="4" width="1" height="2" fill="rgb(71,28,0)" fill-opacity="0.078125"/>
  <rect x="2" y="6" width="1" height="5" fill="rgb(255,255,255)" fill-opacity="0.0078125"/>
  <rect x="2" y="11" width="1" height="1" fill="rgb(71,28,0)" fill-opacity="0.078125"/>
  <rect x="2" y="12" width="1" height="1" fill="rgb(60,30,0)" fill-opacity="0.0703125"/>
  <rect x="2" y="13" width="1" height="8" fill="rgb(255,255,255)" fill-opacity="0.0078125"/>
  <rect x="3" y="0" width="1" height="3" fill="rgb(255,255,255)" fill-opacity="0.0078125"/>
  <rect x="3" y="3" width="1" height="1" fill="rgb(64,34,0)" fill-opacity="0.4765625"/>
  <rect x="3" y="4" width="1" height="2" fill="rgb(64,33,0)" fill-opacity="0.9765625"/>
  <rect x="3" y="6" width="1" height="1" fill="rgb(64,34,0)" fill-opacity="0.4765625"/>
  <rect x="3" y="7" width="1" height="3" fill="rgb(255,255,255)" fill-opacity="0.0078125"/>
  <rect x="3" y="10" width="1" height="1" fill="rgb(65,32,0)" fill-opacity="0.5"/>
  <rect x="3" y="11" width="1" height="1" fill="rgb(63,33,0)" fill-opacity="0.9765625"/>
  <rect x="3" y="12" width="1" height="1" fill="rgb(64,33,0)" fill-opacity="0.9765625"/>
  <rect x="3" y="13" width="1" height="1" fill="rgb(64,32,0)" fill-opacity="0.46875"/>
  <rect x="3" y="14" width="1" height="7" fill="rgb(255,255,255)" fill-opacity="0.0078125"/>
  <rect x="4" y="0" width="1" height="2" fill="rgb(255,255,255)" fill-opacity="0.0078125"/>
  <rect x="4" y="2" width="1" height="1" fill="rgb(60,30,0)" fill-opacity="0.0703125"/>
  <rect x="4" y="3" width="1" height="1" fill="rgb(64,33,0)" fill-opacity="0.9765625"/>
  <rect x="4" y="4" width="1" height="2" fill="rgb(255,183,105)"/>
  <rect x="4" y="6" width="1" height="1" fill="rgb(63,33,0)" fill-opacity="0.984375"/>
  <rect x="4" y="7" width="1" height="1" fill="rgb(31,27,23)" fill-opacity="0.4921875"/>
  <rect x="4" y="8" width="1" height="1" fill="rgb(27,27,27)" fill-opacity="0.453125"/>
  <rect x="4" y="9" width="1" height="1" fill="rgb(33,27,22)" fill-opacity="0.4921875"/>
  <rect x="4" y="10" width="1" height="1" fill="rgb(63,32,0)" fill-opacity="0.9921875"/>
  <rect x="4" y="11" width="1" height="2" fill="rgb(255,183,105)"/>
  <rect x="4" y="13" width="1" height="1" fill="rgb(63,33,0)" fill-opacity="0.984375"/>
  <rect x="4" y="14" width="1" height="1" fill="rgb(29,27,23)" fill-opacity="0.484375"/>
  <rect x="4" y="15" width="1" height="3" fill="rgb(27,27,27)" fill-opacity="0.453125"/>
  <rect x="4" y="18" width="1" height="1" fill="rgb(27,27,27)" fill-opacity="0.34375"/>
  <rect x="4" y="19" width="1" height="2" fill="rgb(255,255,255)" fill-opacity="0.0078125"/>
  <rect x="5" y="0" width="1" height="2" fill="rgb(255,255,255)" fill-opacity="0.0078125"/>
  <rect x="5" y="2" width="1" height="1" fill="rgb(71,28,0)" fill-opacity="0.078125"/>
  <rect x="5" y="3" width="1" height="1" fill="rgb(63,33,0)" fill-opacity="0.9765625"/>
  <rect x="5" y="4" width="1" height="2" fill="rgb(255,183,105)"/>
  <rect x="5" y="6" width="1" height="1" fill="rgb(66,35,3)" fill-opacity="0.9921875"/>
  <rect x="5" y="7" width="1" height="1" fill="rgb(223,218,215)" fill-opacity="0.6328125"/>
  <rect x="5" y="8" width="1" height="1" fill="rgb(242,242,242)" fill-opacity="0.6015625"/>
  <rect x="5" y="9" width="1" height="1" fill="rgb(222,218,215)" fill-opacity="0.6328125"/>
  <rect x="5" y="10" width="1" height="1" fill="rgb(67,36,4)" fill-opacity="0.9921875"/>
  <rect x="5" y="11" width="1" height="2" fill="rgb(255,183,105)"/>
  <rect x="5" y="13" width="1" height="1" fill="rgb(68,39,6)" fill-opacity="0.984375"/>
  <rect x="5" y="14" width="1" height="1" fill="rgb(228,226,223)" fill-opacity="0.625"/>
  <rect x="5" y="15" width="1" height="3" fill="rgb(242,242,242)" fill-opacity="0.6015625"/>
  <rect x="5" y="18" width="1" height="1" fill="rgb(27,27,27)" fill-opacity="0.453125"/>
  <rect x="5" y="19" width="1" height="2" fill="rgb(255,255,255)" fill-opacity="0.0078125"/>
  <rect x="6" y="0" width="1" height="3" fill="rgb(255,255,255)" fill-opacity="0.0078125"/>
  <rect x="6" y="3" width="1" height="1" fill="rgb(65,32,0)" fill-opacity="0.5"/>
  <rect x="6" y="4" width="1" height="1" fill="rgb(63,32,0)" fill-opacity="0.9921875"/>
  <rect x="6" y="5" width="1" height="1" fill="rgb(66,35,3)" fill-opacity="0.9921875"/>
  <rect x="6" y="6" width="1" height="1" fill="rgb(73,53,33)" fill-opacity="0.796875"/>
  <rect x="6" y="7" width="1" height="1" fill="rgb(97,97,97)" fill-opacity="0.5703125"/>
  <rect x="6" y="8" width="1" height="1" fill="rgb(104,104,104)" fill-opacity="0.5703125"/>
  <rect x="6" y="9" width="1" height="1" fill="rgb(112,112,112)" fill-opacity="0.5703125"/>
  <rect x="6" y="10" width="1" height="1" fill="rgb(87,68,48)" fill-opacity="0.796875"/>
  <rect x="6" y="11" width="1" height="1" fill="rgb(66,35,3)" fill-opacity="0.9921875"/>
  <rect x="6" y="12" width="1" height="1" fill="rgb(65,34,2)" fill-opacity="0.9921875"/>
  <rect x="6" y="13" width="1" height="1" fill="rgb(81,63,43)" fill-opacity="0.765625"/>
  <rect x="6" y="14" width="1" height="1" fill="rgb(114,114,114)" fill-opacity="0.5703125"/>
  <rect x="6" y="15" width="1" height="1" fill="rgb(124,124,124)" fill-opacity="0.5703125"/>
  <rect x="6" y="16" width="1" height="1" fill="rgb(138,138,138)" fill-opacity="0.59375"/>
  <rect x="6" y="17" width="1" height="1" fill="rgb(242,242,242)" fill-opacity="0.6015625"/>
  <rect x="6" y="18" width="1" height="1" fill="rgb(27,27,27)" fill-opacity="0.453125"/>
  <rect x="6" y="19" width="1" height="2" fill="rgb(255,255,255)" fill-opacity="0.0078125"/>
  <rect x="7" y="0" width="1" height="4" fill="rgb(255,255,255)" fill-opacity="0.0078125"/>
  <rect x="7" y="4" width="1" height="1" fill="rgb(33,27,22)" fill-opacity="0.4921875"/>
  <rect x="7" y="5" width="1" height="1" fill="rgb(223,218,215)" fill-opacity="0.6328125"/>
  <rect x="7" y="6" width="1" height="1" fill="rgb(98,98,98)" fill-opacity="0.5703125"/>
  <rect x="7" y="7" width="1" height="1" fill="rgb(179,179,179)" fill-opacity="0.421875"/>
  <rect x="7" y="8" width="1" height="1" fill="rgb(184,184,184)" fill-opacity="0.421875"/>
  <rect x="7" y="9" width="1" height="1" fill="rgb(186,186,186)" fill-opacity="0.421875"/>
  <rect x="7" y="10" width="1" height="1" fill="rgb(149,149,149)" fill-opacity="0.5625"/>
  <rect x="7" y="11" width="1" height="1" fill="rgb(223,218,215)" fill-opacity="0.6328125"/>
  <rect x="7" y="12" width="1" height="1" fill="rgb(104,101,97)" fill-opacity="0.6015625"/>
  <rect x="7" y="13" width="1" height="1" fill="rgb(198,198,198)" fill-opacity="0.421875"/>
  <rect x="7" y="14" width="1" height="1" fill="rgb(203,203,203)" fill-opacity="0.421875"/>
  <rect x="7" y="15" width="1" height="1" fill="rgb(205,205,205)" fill-opacity="0.421875"/>
  <rect x="7" y="16" width="1" height="1" fill="rgb(163,163,163)" fill-opacity="0.5625"/>
  <rect x="7" y="17" width="1" height="1" fill="rgb(242,242,242)" fill-opacity="0.6015625"/>
  <rect x="7" y="18" width="1" height="1" fill="rgb(27,27,27)" fill-opacity="0.453125"/>
  <rect x="7" y="19" width="1" height="2" fill="rgb(255,255,255)" fill-opacity="0.0078125"/>
  <rect x="8" y="0" width="1" height="4" fill="rgb(255,255,255)" fill-opacity="0.0078125"/>
  <rect x="8" y="4" width="1" height="1" fill="rgb(27,27,27)" fill-opacity="0.453125"/>
  <rect x="8" y="5" width="1" height="1" fill="rgb(242,242,242)" fill-opacity="0.6015625"/>
  <rect x="8" y="6" width="1" height="1" fill="rgb(110,110,110)" fill-opacity="0.5703125"/>
  <rect x="8" y="7" width="1" height="1" fill="rgb(181,181,181)" fill-opacity="0.421875"/>
  <rect x="8" y="8" width="1" height="1" fill="rgb(186,186,186)" fill-opacity="0.421875"/>
  <rect x="8" y="9" width="1" height="1" fill="rgb(188,188,188)" fill-opacity="0.421875"/>
  <rect x="8" y="10" width="1" height="1" fill="rgb(151,151,151)" fill-opacity="0.5625"/>
  <rect x="8" y="11" width="1" height="1" fill="rgb(242,242,242)" fill-opacity="0.6015625"/>
  <rect x="8" y="12" width="1" height="1" fill="rgb(120,120,120)" fill-opacity="0.5703125"/>
  <rect x="8" y="13" width="1" height="1" fill="rgb(203,203,203)" fill-opacity="0.421875"/>
  <rect x="8" y="14" width="1" height="1" fill="rgb(205,205,205)" fill-opacity="0.421875"/>
  <rect x="8" y="15" width="1" height="1" fill="rgb(210,210,210)" fill-opacity="0.421875"/>
  <rect x="8" y="16" width="1" height="1" fill="rgb(165,165,165)" fill-opacity="0.5625"/>
  <rect x="8" y="17" width="1" height="1" fill="rgb(242,242,242)" fill-opacity="0.6015625"/>
  <rect x="8" y="18" width="1" height="1" fill="rgb(27,27,27)" fill-opacity="0.453125"/>
  <rect x="8" y="19" width="1" height="2" fill="rgb(255,255,255)" fill-opacity="0.0078125"/>
  <rect x="9" y="0" width="1" height="4" fill="rgb(255,255,255)" fill-opacity="0.0078125"/>
  <rect x="9" y="4" width="1" height="1" fill="rgb(33,27,22)" fill-opacity="0.4921875"/>
  <rect x="9" y="5" width="1" height="1" fill="rgb(223,218,215)" fill-opacity="0.6328125"/>
  <rect x="9" y="6" width="1" height="1" fill="rgb(119,119,119)" fill-opacity="0.5625"/>
  <rect x="9" y="7" width="1" height="1" fill="rgb(186,186,186)" fill-opacity="0.421875"/>
  <rect x="9" y="8" width="1" height="1" fill="rgb(188,188,188)" fill-opacity="0.421875"/>
  <rect x="9" y="9" width="1" height="1" fill="rgb(191,191,191)" fill-opacity="0.421875"/>
  <rect x="9" y="10" width="1" height="1" fill="rgb(154,154,154)" fill-opacity="0.5625"/>
  <rect x="9" y="11" width="1" height="1" fill="rgb(223,218,215)" fill-opacity="0.6328125"/>
  <rect x="9" y="12" width="1" height="1" fill="rgb(124,121,117)" fill-opacity="0.59375"/>
  <rect x="9" y="13" width="1" height="1" fill="rgb(205,205,205)" fill-opacity="0.421875"/>
  <rect x="9" y="14" width="1" height="1" fill="rgb(210,210,210)" fill-opacity="0.421875"/>
  <rect x="9" y="15" width="1" height="1" fill="rgb(212,212,212)" fill-opacity="0.421875"/>
  <rect x="9" y="16" width="1" height="1" fill="rgb(169,169,169)" fill-opacity="0.5625"/>
  <rect x="9" y="17" width="1" height="1" fill="rgb(242,242,242)" fill-opacity="0.6015625"/>
  <rect x="9" y="18" width="1" height="1" fill="rgb(27,27,27)" fill-opacity="0.453125"/>
  <rect x="9" y="19" width="1" height="2" fill="rgb(255,255,255)" fill-opacity="0.0078125"/>
  <rect x="10" y="0" width="1" height="3" fill="rgb(255,255,255)" fill-opacity="0.0078125"/>
  <rect x="10" y="3" width="1" height="1" fill="rgb(65,32,0)" fill-opacity="0.5"/>
  <rect x="10" y="4" width="1" height="1" fill="rgb(63,32,0)" fill-opacity="0.9921875"/>
  <rect x="10" y="5" width="1" height="1" fill="rgb(66,35,3)" fill-opacity="0.9921875"/>
  <rect x="10" y="6" width="1" height="1" fill="rgb(88,68,48)" fill-opacity="0.796875"/>
  <rect x="10" y="7" width="1" height="1" fill="rgb(149,149,149)" fill-opacity="0.5625"/>
  <rect x="10" y="8" width="1" height="1" fill="rgb(151,151,151)" fill-opacity="0.5625"/>
  <rect x="10" y="9" width="1" height="1" fill="rgb(153,153,153)" fill-opacity="0.5625"/>
  <rect x="10" y="10" width="1" height="1" fill="rgb(98,80,60)" fill-opacity="0.7890625"/>
  <rect x="10" y="11" width="1" height="1" fill="rgb(67,36,4)" fill-opacity="0.9921875"/>
  <rect x="10" y="12" width="1" height="1" fill="rgb(66,35,3)" fill-opacity="0.9921875"/>
  <rect x="10" y="13" width="1" height="1" fill="rgb(105,88,68)" fill-opacity="0.7578125"/>
  <rect x="10" y="14" width="1" height="1" fill="rgb(165,165,165)" fill-opacity="0.5625"/>
  <rect x="10" y="15" width="1" height="1" fill="rgb(169,169,169)" fill-opacity="0.5625"/>
  <rect x="10" y="16" width="1" height="1" fill="rgb(162,162,162)" fill-opacity="0.59375"/>
  <rect x="10" y="17" width="1" height="1" fill="rgb(242,242,242)" fill-opacity="0.6015625"/>
  <rect x="10" y="18" width="1" height="1" fill="rgb(27,27,27)" fill-opacity="0.453125"/>
  <rect x="10" y="19" width="1" height="2" fill="rgb(255,255,255)" fill-opacity="0.0078125"/>
  <rect x="11" y="0" width="1" height="2" fill="rgb(255,255,255)" fill-opacity="0.0078125"/>
  <rect x="11" y="2" width="1" height="1" fill="rgb(71,28,0)" fill-opacity="0.078125"/>
  <rect x="11" y="3" width="1" height="1" fill="rgb(63,33,0)" fill-opacity="0.9765625"/>
  <rect x="11" y="4" width="1" height="2" fill="rgb(255,183,105)"/>
  <rect x="11" y="6" width="1" height="1" fill="rgb(66,35,3)" fill-opacity="0.9921875"/>
  <rect x="11" y="7" width="1" height="1" fill="rgb(223,218,215)" fill-opacity="0.6328125"/>
  <rect x="11" y="8" width="1" height="1" fill="rgb(242,242,242)" fill-opacity="0.6015625"/>
  <rect x="11" y="9" width="1" height="1" fill="rgb(222,218,215)" fill-opacity="0.6328125"/>
  <rect x="11" y="10" width="1" height="1" fill="rgb(67,36,4)" fill-opacity="0.9921875"/>
  <rect x="11" y="11" width="1" height="2" fill="rgb(255,183,105)"/>
  <rect x="11" y="13" width="1" height="1" fill="rgb(68,39,6)" fill-opacity="0.984375"/>
  <rect x="11" y="14" width="1" height="1" fill="rgb(228,226,223)" fill-opacity="0.625"/>
  <rect x="11" y="15" width="1" height="3" fill="rgb(242,242,242)" fill-opacity="0.6015625"/>
  <rect x="11" y="18" width="1" height="1" fill="rgb(27,27,27)" fill-opacity="0.453125"/>
  <rect x="11" y="19" width="1" height="2" fill="rgb(255,255,255)" fill-opacity="0.0078125"/>
  <rect x="12" y="0" width="1" height="2" fill="rgb(255,255,255)" fill-opacity="0.0078125"/>
  <rect x="12" y="2" width="1" height="1" fill="rgb(60,30,0)" fill-opacity="0.0703125"/>
  <rect x="12" y="3" width="1" height="1" fill="rgb(64,33,0)" fill-opacity="0.9765625"/>
  <rect x="12" y="4" width="1" height="2" fill="rgb(255,183,105)"/>
  <rect x="12" y="6" width="1" height="1" fill="rgb(65,34,2)" fill-opacity="0.9921875"/>
  <rect x="12" y="7" width="1" height="1" fill="rgb(102,99,96)" fill-opacity="0.6015625"/>
  <rect x="12" y="8" width="1" height="1" fill="rgb(114,114,114)" fill-opacity="0.5703125"/>
  <rect x="12" y="9" width="1" height="1" fill="rgb(116,111,107)" fill-opacity="0.6015625"/>
  <rect x="12" y="10" width="1" height="1" fill="rgb(65,34,2)" fill-opacity="0.9921875"/>
  <rect x="12" y="11" width="1" height="2" fill="rgb(255,183,105)"/>
  <rect x="12" y="13" width="1" height="1" fill="rgb(65,35,2)" fill-opacity="0.984375"/>
  <rect x="12" y="14" width="1" height="1" fill="rgb(118,117,113)" fill-opacity="0.59375"/>
  <rect x="12" y="15" width="1" height="1" fill="rgb(135,135,135)" fill-opacity="0.5703125"/>
  <rect x="12" y="16" width="1" height="1" fill="rgb(150,150,150)" fill-opacity="0.59375"/>
  <rect x="12" y="17" width="1" height="1" fill="rgb(242,242,242)" fill-opacity="0.6015625"/>
  <rect x="12" y="18" width="1" height="1" fill="rgb(27,27,27)" fill-opacity="0.453125"/>
  <rect x="12" y="19" width="1" height="2" fill="rgb(255,255,255)" fill-opacity="0.0078125"/>
  <rect x="13" y="0" width="1" height="3" fill="rgb(255,255,255)" fill-opacity="0.0078125"/>
  <rect x="13" y="3" width="1" height="1" fill="rgb(64,33,0)" fill-opacity="0.4921875"/>
  <rect x="13" y="4" width="1" height="1" fill="rgb(63,32,0)" fill-opacity="0.9921875"/>
  <rect x="13" y="5" width="1" height="1" fill="rgb(66,35,3)" fill-opacity="0.9921875"/>
  <rect x="13" y="6" width="1" height="1" fill="rgb(81,62,41)" fill-opacity="0.78125"/>
  <rect x="13" y="7" width="1" height="1" fill="rgb(198,198,198)" fill-opacity="0.421875"/>
  <rect x="13" y="8" width="1" height="1" fill="rgb(203,203,203)" fill-opacity="0.421875"/>
  <rect x="13" y="9" width="1" height="1" fill="rgb(205,205,205)" fill-opacity="0.421875"/>
  <rect x="13" y="10" width="1" height="1" fill="rgb(100,80,59)" fill-opacity="0.78125"/>
  <rect x="13" y="11" width="1" height="1" fill="rgb(66,35,3)" fill-opacity="0.9921875"/>
  <rect x="13" y="12" width="1" height="1" fill="rgb(65,34,2)" fill-opacity="0.9921875"/>
  <rect x="13" y="13" width="1" height="1" fill="rgb(114,93,71)" fill-opacity="0.6953125"/>
  <rect x="13" y="14" width="1" height="1" fill="rgb(219,219,219)" fill-opacity="0.421875"/>
  <rect x="13" y="15" width="1" height="1" fill="rgb(224,224,224)" fill-opacity="0.421875"/>
  <rect x="13" y="16" width="1" height="1" fill="rgb(178,178,178)" fill-opacity="0.5625"/>
  <rect x="13" y="17" width="1" height="1" fill="rgb(242,242,242)" fill-opacity="0.6015625"/>
  <rect x="13" y="18" width="1" height="1" fill="rgb(27,27,27)" fill-opacity="0.453125"/>
  <rect x="13" y="19" width="1" height="2" fill="rgb(255,255,255)" fill-opacity="0.0078125"/>
  <rect x="14" y="0" width="1" height="4" fill="rgb(255,255,255)" fill-opacity="0.0078125"/>
  <rect x="14" y="4" width="1" height="1" fill="rgb(33,27,22)" fill-opacity="0.4921875"/>
  <rect x="14" y="5" width="1" height="1" fill="rgb(223,218,215)" fill-opacity="0.6328125"/>
  <rect x="14" y="6" width="1" height="1" fill="rgb(120,120,120)" fill-opacity="0.5703125"/>
  <rect x="14" y="7" width="1" height="1" fill="rgb(200,200,200)" fill-opacity="0.421875"/>
  <rect x="14" y="8" width="1" height="1" fill="rgb(205,205,205)" fill-opacity="0.421875"/>
  <rect x="14" y="9" width="1" height="1" fill="rgb(207,207,207)" fill-opacity="0.421875"/>
  <rect x="14" y="10" width="1" height="1" fill="rgb(165,165,165)" fill-opacity="0.5625"/>
  <rect x="14" y="11" width="1" height="1" fill="rgb(223,218,215)" fill-opacity="0.6328125"/>
  <rect x="14" y="12" width="1" height="1" fill="rgb(125,122,118)" fill-opacity="0.59375"/>
  <rect x="14" y="13" width="1" height="1" fill="rgb(219,219,219)" fill-opacity="0.421875"/>
  <rect x="14" y="14" width="1" height="1" fill="rgb(224,224,224)" fill-opacity="0.421875"/>
  <rect x="14" y="15" width="1" height="1" fill="rgb(226,226,226)" fill-opacity="0.421875"/>
  <rect x="14" y="16" width="1" height="1" fill="rgb(180,180,180)" fill-opacity="0.5625"/>
  <rect x="14" y="17" width="1" height="1" fill="rgb(242,242,242)" fill-opacity="0.6015625"/>
  <rect x="14" y="18" width="1" height="1" fill="rgb(27,27,27)" fill-opacity="0.453125"/>
  <rect x="14" y="19" width="1" height="2" fill="rgb(255,255,255)" fill-opacity="0.0078125"/>
  <rect x="15" y="0" width="1" height="4" fill="rgb(255,255,255)" fill-opacity="0.0078125"/>
  <rect x="15" y="4" width="1" height="1" fill="rgb(27,27,27)" fill-opacity="0.453125"/>
  <rect x="15" y="5" width="1" height="1" fill="rgb(242,242,242)" fill-opacity="0.6015625"/>
  <rect x="15" y="6" width="1" height="1" fill="rgb(132,132,132)" fill-opacity="0.5625"/>
  <rect x="15" y="7" width="1" height="1" fill="rgb(203,203,203)" fill-opacity="0.421875"/>
  <rect x="15" y="8" width="1" height="1" fill="rgb(207,207,207)" fill-opacity="0.421875"/>
  <rect x="15" y="9" width="1" height="1" fill="rgb(210,210,210)" fill-opacity="0.421875"/>
  <rect x="15" y="10" width="1" height="1" fill="rgb(167,167,167)" fill-opacity="0.5625"/>
  <rect x="15" y="11" width="1" height="1" fill="rgb(242,242,242)" fill-opacity="0.6015625"/>
  <rect x="15" y="12" width="1" height="1" fill="rgb(144,144,144)" fill-opacity="0.5625"/>
  <rect x="15" y="13" width="1" height="1" fill="rgb(224,224,224)" fill-opacity="0.421875"/>
  <rect x="15" y="14" width="1" height="1" fill="rgb(226,226,226)" fill-opacity="0.421875"/>
  <rect x="15" y="15" width="1" height="1" fill="rgb(231,231,231)" fill-opacity="0.421875"/>
  <rect x="15" y="16" width="1" height="1" fill="rgb(183,183,183)" fill-opacity="0.5625"/>
  <rect x="15" y="17" width="1" height="1" fill="rgb(242,242,242)" fill-opacity="0.6015625"/>
  <rect x="15" y="18" width="1" height="1" fill="rgb(27,27,27)" fill-opacity="0.453125"/>
  <rect x="15" y="19" width="1" height="2" fill="rgb(255,255,255)" fill-opacity="0.0078125"/>
  <rect x="16" y="0" width="1" height="4" fill="rgb(255,255,255)" fill-opacity="0.0078125"/>
  <rect x="16" y="4" width="1" height="1" fill="rgb(27,27,27)" fill-opacity="0.453125"/>
  <rect x="16" y="5" width="1" height="1" fill="rgb(242,242,242)" fill-opacity="0.6015625"/>
  <rect x="16" y="6" width="1" height="1" fill="rgb(140,140,140)" fill-opacity="0.59375"/>
  <rect x="16" y="7" width="1" height="1" fill="rgb(163,163,163)" fill-opacity="0.5625"/>
  <rect x="16" y="8" width="1" height="1" fill="rgb(165,165,165)" fill-opacity="0.5625"/>
  <rect x="16" y="9" width="1" height="1" fill="rgb(167,167,167)" fill-opacity="0.5625"/>
  <rect x="16" y="10" width="1" height="1" fill="rgb(160,160,160)" fill-opacity="0.59375"/>
  <rect x="16" y="11" width="1" height="1" fill="rgb(242,242,242)" fill-opacity="0.6015625"/>
  <rect x="16" y="12" width="1" height="1" fill="rgb(152,152,152)" fill-opacity="0.59375"/>
  <rect x="16" y="13" width="1" height="1" fill="rgb(178,178,178)" fill-opacity="0.5625"/>
  <rect x="16" y="14" width="1" height="1" fill="rgb(180,180,180)" fill-opacity="0.5625"/>
  <rect x="16" y="15" width="1" height="1" fill="rgb(183,183,183)" fill-opacity="0.5625"/>
  <rect x="16" y="16" width="1" height="1" fill="rgb(176,176,176)" fill-opacity="0.59375"/>
  <rect x="16" y="17" width="1" height="1" fill="rgb(242,242,242)" fill-opacity="0.6015625"/>
  <rect x="16" y="18" width="1" height="1" fill="rgb(27,27,27)" fill-opacity="0.453125"/>
  <rect x="16" y="19" width="1" height="2" fill="rgb(255,255,255)" fill-opacity="0.0078125"/>
  <rect x="17" y="0" width="1" height="4" fill="rgb(255,255,255)" fill-opacity="0.0078125"/>
  <rect x="17" y="4" width="1" height="1" fill="rgb(27,27,27)" fill-opacity="0.453125"/>
  <rect x="17" y="5" width="1" height="13" fill="rgb(242,242,242)" fill-opacity="0.6015625"/>
  <rect x="17" y="18" width="1" height="1" fill="rgb(27,27,27)" fill-opacity="0.453125"/>
  <rect x="17" y="19" width="1" height="2" fill="rgb(255,255,255)" fill-opacity="0.0078125"/>
  <rect x="18" y="0" width="1" height="4" fill="rgb(255,255,255)" fill-opacity="0.0078125"/>
  <rect x="18" y="4" width="1" height="1" fill="rgb(27,27,27)" fill-opacity="0.34375"/>
  <rect x="18" y="5" width="1" height="13" fill="rgb(27,27,27)" fill-opacity="0.453125"/>
  <rect x="18" y="18" width="1" height="1" fill="rgb(27,27,27)" fill-opacity="0.34375"/>
  <rect x="18" y="19" width="1" height="2" fill="rgb(255,255,255)" fill-opacity="0.0078125"/>
  <rect x="19" y="0" width="1" height="21" fill="rgb(255,255,255)" fill-opacity="0.0078125"/>
  <rect x="20" y="0" width="1" height="21" fill="rgb(255,255,255)" fill-opacity="0.0078125"/>
</svg>