<svg xmlns="http://www.w3.org/2000/svg" shape-rendering="crispEdges" width="21" height="21" viewBox="0 0 21 21">
  <rect x="0" y="0" width="1" height="21" fill="rgb(255,255,255)" fill-opacity="0.0078125"/>
  <rect x="1" y="0" width="1" height="21" fill="rgb(255,255,255)" fill-opacity="0.0078125"/>
  <rect x="2" y="0" width="1" height="21" fill="rgb(255,255,255)" fill-opacity="0.0078125"/>
  <rect x="3" y="0" width="1" height="21" fill="rgb(255,255,255)" fill-opacity="0.0078125"/>
  <rect x="4" y="0" width="1" height="21" fill="rgb(255,255,255)" fill-opacity="0.0078125"/>
  <rect x="5" y="0" width="1" height="4" fill="rgb(255,255,255)" fill-opacity="0.0078125"/>
  <rect x="5" y="4" width="1" height="1" fill="rgb(38,60,94)" fill-opacity="0.7734375"/>
  <rect x="5" y="5" width="1" height="3" fill="rgb(40,62,96)" fill-opacity="0.9140625"/>
  <rect x="5" y="8" width="1" height="4" fill="rgb(38,62,96)" fill-opacity="0.9140625"/>
  <rect x="5" y="12" width="1" height="1" fill="rgb(39,62,96)" fill-opacity="0.90625"/>
  <rect x="5" y="13" width="1" height="1" fill="rgb(40,62,96)" fill-opacity="0.8203125"/>
  <rect x="5" y="14" width="1" height="1" fill="rgb(36,60,95)" fill-opacity="0.5546875"/>
  <rect x="5" y="15" width="1" height="1" fill="rgb(20,49,78)" fill-opacity="0.109375"/>
  <rect x="5" y="16" width="1" height="5" fill="rgb(255,255,255)" fill-opacity="0.0078125"/>
  <rect x="6" y="0" width="1" height="4" fill="rgb(255,255,255)" fill-opacity="0.0078125"/>
  <rect x="6" y="4" width="1" height="1" fill="rgb(38,61,95)" fill-opacity="0.890625"/>
  <rect x="6" y="5" width="1" height="1" fill="rgb(216,227,242)"/>
  <rect x="6" y="6" width="1" height="3" fill="rgb(255,255,255)"/>
  <rect x="6" y="9" width="1" height="1" fill="rgb(253,254,255)"/>
  <rect x="6" y="10" width="1" height="1" fill="rgb(249,251,253)"/>
  <rect x="6" y="11" width="1" height="1" fill="rgb(245,248,252)"/>
  <rect x="6" y="12" width="1" height="1" fill="rgb(241,245,251)"/>
  <rect x="6" y="13" width="1" height="1" fill="rgb(226,233,243)"/>
  <rect x="6" y="14" width="1" height="1" fill="rgb(180,192,211)"/>
  <rect x="6" y="15" width="1" height="1" fill="rgb(44,67,100)" fill-opacity="0.90625"/>
  <rect x="6" y="16" width="1" height="1" fill="rgb(23,45,79)" fill-opacity="0.1796875"/>
  <rect x="6" y="17" width="1" height="4" fill="rgb(255,255,255)" fill-opacity="0.0078125"/>
  <rect x="7" y="0" width="1" height="4" fill="rgb(255,255,255)" fill-opacity="0.0078125"/>
  <rect x="7" y="4" width="1" height="1" fill="rgb(32,57,91)" fill-opacity="0.5"/>
  <rect x="7" y="5" width="1" height="1" fill="rgb(150,165,189)" fill-opacity="0.96875"/>
  <rect x="7" y="6" width="1" height="1" fill="rgb(230,237,247)"/>
  <rect x="7" y="7" width="1" height="2" fill="rgb(164,189,226)"/>
  <rect x="7" y="9" width="1" height="1" fill="rgb(163,188,226)"/>
  <rect x="7" y="10" width="1" height="1" fill="rgb(162,188,225)"/>
  <rect x="7" y="11" width="1" height="2" fill="rgb(161,187,225)"/>
  <rect x="7" y="13" width="1" height="1" fill="rgb(169,192,228)"/>
  <rect x="7" y="14" width="1" height="1" fill="rgb(198,214,237)"/>
  <rect x="7" y="15" width="1" height="1" fill="rgb(194,208,227)"/>
  <rect x="7" y="16" width="1" height="1" fill="rgb(35,58,93)" fill-opacity="0.8984375"/>
  <rect x="7" y="17" width="1" height="1" fill="rgb(0,64,64)" fill-opacity="0.0234375"/>
  <rect x="7" y="18" width="1" height="3" fill="rgb(255,255,255)" fill-opacity="0.0078125"/>
  <rect x="8" y="0" width="1" height="4" fill="rgb(255,255,255)" fill-opacity="0.0078125"/>
  <rect x="8" y="4" width="1" height="1" fill="rgb(0,0,128)" fill-opacity="0.015625"/>
  <rect x="8" y="5" width="1" height="1" fill="rgb(42,65,100)" fill-opacity="0.90625"/>
  <rect x="8" y="6" width="1" height="1" fill="rgb(251,252,254)"/>
  <rect x="8" y="7" width="1" height="1" fill="rgb(151,180,222)"/>
  <rect x="8" y="8" width="1" height="1" fill="rgb(139,156,182)"/>
  <rect x="8" y="9" width="1" height="1" fill="rgb(19,31,47)"/>
  <rect x="8" y="10" width="1" height="1" fill="rgb(179,199,226)"/>
  <rect x="8" y="11" width="1" height="1" fill="rgb(148,178,221)"/>
  <rect x="8" y="12" width="1" height="1" fill="rgb(26,50,85)"/>
  <rect x="8" y="13" width="1" height="1" fill="rgb(196,210,233)"/>
  <rect x="8" y="14" width="1" height="1" fill="rgb(148,177,221)"/>
  <rect x="8" y="15" width="1" height="1" fill="rgb(195,212,236)"/>
  <rect x="8" y="16" width="1" height="1" fill="rgb(98,121,155)" fill-opacity="0.9609375"/>
  <rect x="8" y="17" width="1" height="1" fill="rgb(28,52,88)" fill-opacity="0.390625"/>
  <rect x="8" y="18" width="1" height="3" fill="rgb(255,255,255)" fill-opacity="0.0078125"/>
  <rect x="9" y="0" width="1" height="5" fill="rgb(255,255,255)" fill-opacity="0.0078125"/>
  <rect x="9" y="5" width="1" height="1" fill="rgb(35,60,96)" fill-opacity="0.890625"/>
  <rect x="9" y="6" width="1" height="1" fill="rgb(244,247,251)"/>
  <rect x="9" y="7" width="1" height="1" fill="rgb(143,173,218)"/>
  <rect x="9" y="8" width="1" height="1" fill="rgb(21,34,52)"/>
  <rect x="9" y="9" width="1" height="1" fill="rgb(11,23,40)"/>
  <rect x="9" y="10" width="1" height="1" fill="rgb(189,206,230)"/>
  <rect x="9" y="11" width="1" height="1" fill="rgb(137,169,217)"/>
  <rect x="9" y="12" width="1" height="1" fill="rgb(193,210,235)"/>
  <rect x="9" y="13" width="1" height="1" fill="rgb(26,50,84)"/>
  <rect x="9" y="14" width="1" height="1" fill="rgb(189,205,231)"/>
  <rect x="9" y="15" width="1" height="1" fill="rgb(166,191,226)"/>
  <rect x="9" y="16" width="1" height="1" fill="rgb(146,172,208)"/>
  <rect x="9" y="17" width="1" height="1" fill="rgb(34,59,96)" fill-opacity="0.7265625"/>
  <rect x="9" y="18" width="1" height="3" fill="rgb(255,255,255)" fill-opacity="0.0078125"/>
  <rect x="10" y="0" width="1" height="5" fill="rgb(255,255,255)" fill-opacity="0.0078125"/>
  <rect x="10" y="5" width="1" height="1" fill="rgb(34,59,95)" fill-opacity="0.890625"/>
  <rect x="10" y="6" width="1" height="1" fill="rgb(227,235,246)"/>
  <rect x="10" y="7" width="1" height="1" fill="rgb(138,171,217)"/>
  <rect x="10" y="8" width="1" height="1" fill="rgb(166,190,226)"/>
  <rect x="10" y="9" width="1" height="1" fill="rgb(188,207,233)"/>
  <rect x="10" y="10" width="1" height="1" fill="rgb(167,191,227)"/>
  <rect x="10" y="11" width="1" height="1" fill="rgb(122,159,212)"/>
  <rect x="10" y="12" width="1" height="1" fill="rgb(121,158,212)"/>
  <rect x="10" y="13" width="1" height="1" fill="rgb(26,50,84)"/>
  <rect x="10" y="14" width="1" height="1" fill="rgb(182,201,229)"/>
  <rect x="10" y="15" width="1" height="1" fill="rgb(137,169,217)"/>
  <rect x="10" y="16" width="1" height="1" fill="rgb(158,184,223)"/>
  <rect x="10" y="17" width="1" height="1" fill="rgb(33,57,93)" fill-opacity="0.859375"/>
  <rect x="10" y="18" width="1" height="3" fill="rgb(255,255,255)" fill-opacity="0.0078125"/>
  <rect x="11" y="0" width="1" height="5" fill="rgb(255,255,255)" fill-opacity="0.0078125"/>
  <rect x="11" y="5" width="1" height="1" fill="rgb(33,58,95)" fill-opacity="0.890625"/>
  <rect x="11" y="6" width="1" height="1" fill="rgb(219,229,243)"/>
  <rect x="11" y="7" width="1" height="1" fill="rgb(123,160,212)"/>
  <rect x="11" y="8" width="1" height="1" fill="rgb(111,151,208)"/>
  <rect x="11" y="9" width="1" height="1" fill="rgb(110,150,208)"/>
  <rect x="11" y="10" width="1" height="1" fill="rgb(109,149,207)"/>
  <rect x="11" y="11" width="1" height="1" fill="rgb(108,149,207)"/>
  <rect x="11" y="12" width="1" height="1" fill="rgb(108,148,207)"/>
  <rect x="11" y="13" width="1" height="1" fill="rgb(26,49,84)"/>
  <rect x="11" y="14" width="1" height="1" fill="rgb(175,196,227)"/>
  <rect x="11" y="15" width="1" height="1" fill="rgb(123,160,212)"/>
  <rect x="11" y="16" width="1" height="1" fill="rgb(143,173,217)"/>
  <rect x="11" y="17" width="1" height="1" fill="rgb(30,56,93)" fill-opacity="0.859375"/>
  <rect x="11" y="18" width="1" height="3" fill="rgb(255,255,255)" fill-opacity="0.0078125"/>
  <rect x="12" y="0" width="1" height="5" fill="rgb(255,255,255)" fill-opacity="0.0078125"/>
  <rect x="12" y="5" width="1" height="1" fill="rgb(30,56,94)" fill-opacity="0.890625"/>
  <rect x="12" y="6" width="1" height="1" fill="rgb(216,227,242)"/>
  <rect x="12" y="7" width="1" height="1" fill="rgb(100,143,205)"/>
  <rect x="12" y="8" width="1" height="1" fill="rgb(116,140,175)"/>
  <rect x="12" y="9" width="1" height="1" fill="rgb(18,30,47)"/>
  <rect x="12" y="10" width="1" height="1" fill="rgb(150,177,216)"/>
  <rect x="12" y="11" width="1" height="2" fill="rgb(95,139,203)"/>
  <rect x="12" y="13" width="1" height="1" fill="rgb(26,49,84)"/>
  <rect x="12" y="14" width="1" height="1" fill="rgb(170,191,224)"/>
  <rect x="12" y="15" width="1" height="1" fill="rgb(123,160,212)"/>
  <rect x="12" y="16" width="1" height="1" fill="rgb(106,142,194)"/>
  <rect x="12" y="17" width="1" height="1" fill="rgb(30,55,94)" fill-opacity="0.7265625"/>
  <rect x="12" y="18" width="1" height="3" fill="rgb(255,255,255)" fill-opacity="0.0078125"/>
  <rect x="13" y="0" width="1" height="4" fill="rgb(255,255,255)" fill-opacity="0.0078125"/>
  <rect x="13" y="4" width="1" height="1" fill="rgb(0,85,85)" fill-opacity="0.015625"/>
  <rect x="13" y="5" width="1" height="1" fill="rgb(41,65,100)" fill-opacity="0.90625"/>
  <rect x="13" y="6" width="1" height="1" fill="rgb(200,215,237)"/>
  <rect x="13" y="7" width="1" height="1" fill="rgb(85,132,199)"/>
  <rect x="13" y="8" width="1" height="1" fill="rgb(20,33,51)"/>
  <rect x="13" y="9" width="1" height="1" fill="rgb(11,23,40)"/>
  <rect x="13" y="10" width="1" height="1" fill="rgb(164,187,221)"/>
  <rect x="13" y="11" width="1" height="1" fill="rgb(85,132,199)"/>
  <rect x="13" y="12" width="1" height="1" fill="rgb(24,48,84)"/>
  <rect x="13" y="13" width="1" height="1" fill="rgb(142,171,215)"/>
  <rect x="13" y="14" width="1" height="1" fill="rgb(124,160,212)"/>
  <rect x="13" y="15" width="1" height="1" fill="rgb(119,157,210)"/>
  <rect x="13" y="16" width="1" height="1" fill="rgb(58,90,139)" fill-opacity="0.953125"/>
  <rect x="13" y="17" width="1" height="1" fill="rgb(23,49,85)" fill-opacity="0.390625"/>
  <rect x="13" y="18" width="1" height="3" fill="rgb(255,255,255)" fill-opacity="0.0078125"/>
  <rect x="14" y="0" width="1" height="4" fill="rgb(255,255,255)" fill-opacity="0.0078125"/>
  <rect x="14" y="4" width="1" height="1" fill="rgb(26,51,89)" fill-opacity="0.5"/>
  <rect x="14" y="5" width="1" height="1" fill="rgb(105,132,169)" fill-opacity="0.96875"/>
  <rect x="14" y="6" width="1" height="1" fill="rgb(156,184,223)"/>
  <rect x="14" y="7" width="1" height="1" fill="rgb(72,122,195)"/>
  <rect x="14" y="8" width="1" height="1" fill="rgb(135,168,216)"/>
  <rect x="14" y="9" width="1" height="1" fill="rgb(162,188,224)"/>
  <rect x="14" y="10" width="1" height="1" fill="rgb(138,170,217)"/>
  <rect x="14" y="11" width="1" height="1" fill="rgb(69,120,194)"/>
  <rect x="14" y="12" width="1" height="1" fill="rgb(136,169,216)"/>
  <rect x="14" y="13" width="1" height="1" fill="rgb(142,173,217)"/>
  <rect x="14" y="14" width="1" height="1" fill="rgb(98,141,204)"/>
  <rect x="14" y="15" width="1" height="1" fill="rgb(91,131,188)"/>
  <rect x="14" y="16" width="1" height="1" fill="rgb(26,50,89)" fill-opacity="0.8984375"/>
  <rect x="14" y="17" width="1" height="1" fill="rgb(0,64,64)" fill-opacity="0.0234375"/>
  <rect x="14" y="18" width="1" height="3" fill="rgb(255,255,255)" fill-opacity="0.0078125"/>
  <rect x="15" y="0" width="1" height="4" fill="rgb(255,255,255)" fill-opacity="0.0078125"/>
  <rect x="15" y="4" width="1" height="1" fill="rgb(26,52,91)" fill-opacity="0.890625"/>
  <rect x="15" y="5" width="1" height="1" fill="rgb(124,160,211)"/>
  <rect x="15" y="6" width="1" height="1" fill="rgb(177,199,230)"/>
  <rect x="15" y="7" width="1" height="1" fill="rgb(167,192,226)"/>
  <rect x="15" y="8" width="1" height="1" fill="rgb(157,184,223)"/>
  <rect x="15" y="9" width="1" height="1" fill="rgb(146,176,219)"/>
  <rect x="15" y="10" width="1" height="1" fill="rgb(136,169,216)"/>
  <rect x="15" y="11" width="1" height="1" fill="rgb(126,162,212)"/>
  <rect x="15" y="12" width="1" height="1" fill="rgb(115,154,209)"/>
  <rect x="15" y="13" width="1" height="1" fill="rgb(97,137,197)"/>
  <rect x="15" y="14" width="1" height="1" fill="rgb(68,107,165)"/>
  <rect x="15" y="15" width="1" height="1" fill="rgb(27,53,91)" fill-opacity="0.8984375"/>
  <rect x="15" y="16" width="1" height="1" fill="rgb(23,45,79)" fill-opacity="0.1796875"/>
  <rect x="15" y="17" width="1" height="4" fill="rgb(255,255,255)" fill-opacity="0.0078125"/>
  <rect x="16" y="0" width="1" height="4" fill="rgb(255,255,255)" fill-opacity="0.0078125"/>
  <rect x="16" y="4" width="1" height="1" fill="rgb(25,50,89)" fill-opacity="0.7734375"/>
  <rect x="16" y="5" width="1" height="7" fill="rgb(24,51,90)" fill-opacity="0.9140625"/>
  <rect x="16" y="12" width="1" height="1" fill="rgb(24,51,91)" fill-opacity="0.90625"/>
  <rect x="16" y="13" width="1" height="1" fill="rgb(24,51,92)" fill-opacity="0.8203125"/>
  <rect x="16" y="14" width="1" height="1" fill="rgb(24,49,89)" fill-opacity="0.5546875"/>
  <rect x="16" y="15" width="1" height="1" fill="rgb(20,49,78)" fill-opacity="0.109375"/>
  <rect x="16" y="16" width="1" height="5" fill="rgb(255,255,255)" fill-opacity="0.0078125"/>
  <rect x="17" y="0" width="1" height="21" fill="rgb(255,255,255)" fill-opacity="0.0078125"/>
  <rect x="18" y="0" width="1" height="21" fill="rgb(255,255,255)" fill-opacity="0.0078125"/>
  <rect x="19" y="0" width="1" height="21" fill="rgb(255,255,255)" fill-opacity="0.0078125"/>
  <rect x="20" y="0" width="1" height="21" fill="rgb(255,255,255)" fill-opacity="0.0078125"/>
</svg>