<svg xmlns="http://www.w3.org/2000/svg" shape-rendering="crispEdges" width="21" height="21" viewBox="0 0 21 21">
  <rect x="0" y="0" width="1" height="21" fill="rgb(255,255,255)" fill-opacity="0.0078125"/>
  <rect x="1" y="0" width="1" height="21" fill="rgb(255,255,255)" fill-opacity="0.0078125"/>
  <rect x="2" y="0" width="1" height="21" fill="rgb(255,255,255)" fill-opacity="0.0078125"/>
  <rect x="3" y="0" width="1" height="21" fill="rgb(255,255,255)" fill-opacity="0.0078125"/>
  <rect x="4" y="0" width="1" height="21" fill="rgb(255,255,255)" fill-opacity="0.0078125"/>
  <rect x="5" y="0" width="1" height="21" fill="rgb(255,255,255)" fill-opacity="0.0078125"/>
  <rect x="6" y="0" width="1" height="3" fill="rgb(255,255,255)" fill-opacity="0.0078125"/>
  <rect x="6" y="3" width="1" height="1" fill="rgb(57,57,57)" fill-opacity="0.3203125"/>
  <rect x="6" y="4" width="1" height="9" fill="rgb(52,52,52)" fill-opacity="0.3515625"/>
  <rect x="6" y="13" width="1" height="1" fill="rgb(38,49,65)" fill-opacity="0.5078125"/>
  <rect x="6" y="14" width="1" height="1" fill="rgb(29,47,71)" fill-opacity="0.6640625"/>
  <rect x="6" y="15" width="1" height="1" fill="rgb(30,51,83)" fill-opacity="0.8125"/>
  <rect x="6" y="16" width="1" height="1" fill="rgb(28,51,86)" fill-opacity="0.9296875"/>
  <rect x="6" y="17" width="1" height="1" fill="rgb(22,45,80)"/>
  <rect x="6" y="18" width="1" height="1" fill="rgb(27,50,84)" fill-opacity="0.9375"/>
  <rect x="6" y="19" width="1" height="2" fill="rgb(255,255,255)" fill-opacity="0.0078125"/>
  <rect x="7" y="0" width="1" height="3" fill="rgb(255,255,255)" fill-opacity="0.0078125"/>
  <rect x="7" y="3" width="1" height="1" fill="rgb(52,52,52)" fill-opacity="0.3515625"/>
  <rect x="7" y="4" width="1" height="1" fill="rgb(223,223,223)" fill-opacity="0.46875"/>
  <rect x="7" y="5" width="1" height="5" fill="rgb(226,226,226)" fill-opacity="0.484375"/>
  <rect x="7" y="10" width="1" height="1" fill="rgb(224,224,224)" fill-opacity="0.484375"/>
  <rect x="7" y="11" width="1" height="1" fill="rgb(204,204,210)" fill-opacity="0.515625"/>
  <rect x="7" y="12" width="1" height="1" fill="rgb(96,113,137)" fill-opacity="0.8359375"/>
  <rect x="7" y="13" width="1" height="1" fill="rgb(91,110,137)" fill-opacity="0.9765625"/>
  <rect x="7" y="14" width="1" height="1" fill="rgb(145,163,190)"/>
  <rect x="7" y="15" width="1" height="1" fill="rgb(169,186,211)"/>
  <rect x="7" y="16" width="1" height="1" fill="rgb(188,204,226)"/>
  <rect x="7" y="17" width="1" height="1" fill="rgb(188,207,232)"/>
  <rect x="7" y="18" width="1" height="1" fill="rgb(22,45,80)"/>
  <rect x="7" y="19" width="1" height="2" fill="rgb(255,255,255)" fill-opacity="0.0078125"/>
  <rect x="8" y="0" width="1" height="3" fill="rgb(255,255,255)" fill-opacity="0.0078125"/>
  <rect x="8" y="3" width="1" height="1" fill="rgb(52,52,52)" fill-opacity="0.3515625"/>
  <rect x="8" y="4" width="1" height="1" fill="rgb(225,225,225)" fill-opacity="0.4765625"/>
  <rect x="8" y="5" width="1" height="5" fill="rgb(203,203,203)" fill-opacity="0.3515625"/>
  <rect x="8" y="10" width="1" height="1" fill="rgb(111,123,140)" fill-opacity="0.5234375"/>
  <rect x="8" y="11" width="1" height="1" fill="rgb(29,53,89)" fill-opacity="0.9609375"/>
  <rect x="8" y="12" width="1" height="1" fill="rgb(124,146,177)" fill-opacity="0.9921875"/>
  <rect x="8" y="13" width="1" height="1" fill="rgb(210,222,239)"/>
  <rect x="8" y="14" width="1" height="1" fill="rgb(165,190,226)"/>
  <rect x="8" y="15" width="1" height="1" fill="rgb(145,175,219)"/>
  <rect x="8" y="16" width="1" height="1" fill="rgb(136,169,217)"/>
  <rect x="8" y="17" width="1" height="1" fill="rgb(150,179,221)"/>
  <rect x="8" y="18" width="1" height="1" fill="rgb(22,45,80)"/>
  <rect x="8" y="19" width="1" height="2" fill="rgb(255,255,255)" fill-opacity="0.0078125"/>
  <rect x="9" y="0" width="1" height="3" fill="rgb(255,255,255)" fill-opacity="0.0078125"/>
  <rect x="9" y="3" width="1" height="1" fill="rgb(52,52,52)" fill-opacity="0.3515625"/>
  <rect x="9" y="4" width="1" height="1" fill="rgb(221,221,221)" fill-opacity="0.4453125"/>
  <rect x="9" y="5" width="1" height="1" fill="rgb(221,221,221)" fill-opacity="0.453125"/>
  <rect x="9" y="6" width="1" height="2" fill="rgb(221,221,221)" fill-opacity="0.4453125"/>
  <rect x="9" y="8" width="1" height="1" fill="rgb(219,219,219)" fill-opacity="0.4453125"/>
  <rect x="9" y="9" width="1" height="1" fill="rgb(189,193,199)" fill-opacity="0.484375"/>
  <rect x="9" y="10" width="1" height="1" fill="rgb(58,77,108)" fill-opacity="0.9765625"/>
  <rect x="9" y="11" width="1" height="1" fill="rgb(195,208,228)"/>
  <rect x="9" y="12" width="1" height="1" fill="rgb(198,214,236)"/>
  <rect x="9" y="13" width="1" height="1" fill="rgb(128,164,214)"/>
  <rect x="9" y="14" width="1" height="1" fill="rgb(122,159,212)"/>
  <rect x="9" y="15" width="1" height="1" fill="rgb(132,166,215)"/>
  <rect x="9" y="16" width="1" height="1" fill="rgb(141,173,219)"/>
  <rect x="9" y="17" width="1" height="1" fill="rgb(151,179,222)"/>
  <rect x="9" y="18" width="1" height="1" fill="rgb(22,45,80)"/>
  <rect x="9" y="19" width="1" height="2" fill="rgb(255,255,255)" fill-opacity="0.0078125"/>
  <rect x="10" y="0" width="1" height="3" fill="rgb(255,255,255)" fill-opacity="0.0078125"/>
  <rect x="10" y="3" width="1" height="1" fill="rgb(57,57,57)" fill-opacity="0.3203125"/>
  <rect x="10" y="4" width="1" height="5" fill="rgb(52,52,52)" fill-opacity="0.3515625"/>
  <rect x="10" y="9" width="1" height="1" fill="rgb(28,48,82)" fill-opacity="0.7890625"/>
  <rect x="10" y="10" width="1" height="1" fill="rgb(124,145,177)" fill-opacity="0.9921875"/>
  <rect x="10" y="11" width="1" height="1" fill="rgb(187,206,233)"/>
  <rect x="10" y="12" width="1" height="1" fill="rgb(93,137,202)"/>
  <rect x="10" y="13" width="1" height="1" fill="rgb(104,145,206)"/>
  <rect x="10" y="14" width="1" height="1" fill="rgb(109,145,200)"/>
  <rect x="10" y="15" width="1" height="1" fill="rgb(65,93,135)" fill-opacity="0.984375"/>
  <rect x="10" y="16" width="1" height="1" fill="rgb(38,62,98)" fill-opacity="0.96875"/>
  <rect x="10" y="17" width="1" height="1" fill="rgb(23,46,81)"/>
  <rect x="10" y="18" width="1" height="1" fill="rgb(28,50,84)" fill-opacity="0.9375"/>
  <rect x="10" y="19" width="1" height="2" fill="rgb(255,255,255)" fill-opacity="0.0078125"/>
  <rect x="11" y="0" width="1" height="8" fill="rgb(255,255,255)" fill-opacity="0.0078125"/>
  <rect x="11" y="8" width="1" height="1" fill="rgb(22,43,82)" fill-opacity="0.234375"/>
  <rect x="11" y="9" width="1" height="1" fill="rgb(45,68,103)" fill-opacity="0.96875"/>
  <rect x="11" y="10" width="1" height="1" fill="rgb(211,223,239)"/>
  <rect x="11" y="11" width="1" height="1" fill="rgb(108,149,207)"/>
  <rect x="11" y="12" width="1" height="1" fill="rgb(101,143,205)"/>
  <rect x="11" y="13" width="1" height="1" fill="rgb(89,125,176)"/>
  <rect x="11" y="14" width="1" height="1" fill="rgb(28,51,87)" fill-opacity="0.96875"/>
  <rect x="11" y="15" width="1" height="1" fill="rgb(27,51,87)" fill-opacity="0.5859375"/>
  <rect x="11" y="16" width="1" height="1" fill="rgb(21,47,78)" fill-opacity="0.1953125"/>
  <rect x="11" y="17" width="1" height="1" fill="rgb(43,43,85)" fill-opacity="0.03125"/>
  <rect x="11" y="18" width="1" height="3" fill="rgb(255,255,255)" fill-opacity="0.0078125"/>
  <rect x="12" y="0" width="1" height="8" fill="rgb(255,255,255)" fill-opacity="0.0078125"/>
  <rect x="12" y="8" width="1" height="1" fill="rgb(23,46,82)" fill-opacity="0.53125"/>
  <rect x="12" y="9" width="1" height="1" fill="rgb(124,148,181)"/>
  <rect x="12" y="10" width="1" height="1" fill="rgb(161,187,224)"/>
  <rect x="12" y="11" width="1" height="1" fill="rgb(97,141,203)"/>
  <rect x="12" y="12" width="1" height="1" fill="rgb(101,140,196)"/>
  <rect x="12" y="13" width="1" height="1" fill="rgb(29,53,88)" fill-opacity="0.9609375"/>
  <rect x="12" y="14" width="1" height="1" fill="rgb(23,46,80)" fill-opacity="0.265625"/>
  <rect x="12" y="15" width="1" height="6" fill="rgb(255,255,255)" fill-opacity="0.0078125"/>
  <rect x="13" y="0" width="1" height="8" fill="rgb(255,255,255)" fill-opacity="0.0078125"/>
  <rect x="13" y="8" width="1" height="1" fill="rgb(26,50,88)" fill-opacity="0.7421875"/>
  <rect x="13" y="9" width="1" height="1" fill="rgb(155,176,205)"/>
  <rect x="13" y="10" width="1" height="1" fill="rgb(135,168,216)"/>
  <rect x="13" y="11" width="1" height="1" fill="rgb(106,147,206)"/>
  <rect x="13" y="12" width="1" height="1" fill="rgb(61,90,133)" fill-opacity="0.96875"/>
  <rect x="13" y="13" width="1" height="1" fill="rgb(27,49,85)" fill-opacity="0.5546875"/>
  <rect x="13" y="14" width="1" height="7" fill="rgb(255,255,255)" fill-opacity="0.0078125"/>
  <rect x="14" y="0" width="1" height="8" fill="rgb(255,255,255)" fill-opacity="0.0078125"/>
  <rect x="14" y="8" width="1" height="1" fill="rgb(26,50,86)" fill-opacity="0.90625"/>
  <rect x="14" y="9" width="1" height="1" fill="rgb(177,195,222)"/>
  <rect x="14" y="10" width="1" height="1" fill="rgb(119,158,211)"/>
  <rect x="14" y="11" width="1" height="1" fill="rgb(114,153,209)"/>
  <rect x="14" y="12" width="1" height="1" fill="rgb(37,61,99)" fill-opacity="0.9453125"/>
  <rect x="14" y="13" width="1" height="1" fill="rgb(20,44,78)" fill-opacity="0.2109375"/>
  <rect x="14" y="14" width="1" height="7" fill="rgb(255,255,255)" fill-opacity="0.0078125"/>
  <rect x="15" y="0" width="1" height="8" fill="rgb(255,255,255)" fill-opacity="0.0078125"/>
  <rect x="15" y="8" width="1" height="1" fill="rgb(22,45,81)" fill-opacity="0.9921875"/>
  <rect x="15" y="9" width="1" height="1" fill="rgb(174,196,228)"/>
  <rect x="15" y="10" width="1" height="1" fill="rgb(113,153,209)"/>
  <rect x="15" y="11" width="1" height="1" fill="rgb(123,159,212)"/>
  <rect x="15" y="12" width="1" height="1" fill="rgb(23,46,82)" fill-opacity="0.9921875"/>
  <rect x="15" y="13" width="1" height="1" fill="rgb(43,43,85)" fill-opacity="0.03125"/>
  <rect x="15" y="14" width="1" height="7" fill="rgb(255,255,255)" fill-opacity="0.0078125"/>
  <rect x="16" y="0" width="1" height="8" fill="rgb(255,255,255)" fill-opacity="0.0078125"/>
  <rect x="16" y="8" width="1" height="1" fill="rgb(24,48,84)" fill-opacity="0.9140625"/>
  <rect x="16" y="9" width="1" height="3" fill="rgb(22,45,80)"/>
  <rect x="16" y="12" width="1" height="1" fill="rgb(26,49,85)" fill-opacity="0.9140625"/>
  <rect x="16" y="13" width="1" height="8" fill="rgb(255,255,255)" fill-opacity="0.0078125"/>
  <rect x="17" y="0" width="1" height="21" fill="rgb(255,255,255)" fill-opacity="0.0078125"/>
  <rect x="18" y="0" width="1" height="21" fill="rgb(255,255,255)" fill-opacity="0.0078125"/>
  <rect x="19" y="0" width="1" height="21" fill="rgb(255,255,255)" fill-opacity="0.0078125"/>
  <rect x="20" y="0" width="1" height="21" fill="rgb(255,255,255)" fill-opacity="0.0078125"/>
</svg>