<svg xmlns="http://www.w3.org/2000/svg" shape-rendering="crispEdges" width="21" height="21" viewBox="0 0 21 21">
  <rect x="0" y="0" width="1" height="21" fill="rgb(255,255,255)" fill-opacity="0.0078125"/>
  <rect x="1" y="0" width="1" height="21" fill="rgb(255,255,255)" fill-opacity="0.0078125"/>
  <rect x="2" y="0" width="1" height="21" fill="rgb(255,255,255)" fill-opacity="0.0078125"/>
  <rect x="3" y="0" width="1" height="21" fill="rgb(255,255,255)" fill-opacity="0.0078125"/>
  <rect x="4" y="0" width="1" height="21" fill="rgb(255,255,255)" fill-opacity="0.0078125"/>
  <rect x="5" y="0" width="1" height="4" fill="rgb(255,255,255)" fill-opacity="0.0078125"/>
  <rect x="5" y="4" width="1" height="1" fill="rgb(22,45,80)" fill-opacity="0.515625"/>
  <rect x="5" y="5" width="1" height="13" fill="rgb(22,46,80)" fill-opacity="0.6796875"/>
  <rect x="5" y="18" width="1" height="1" fill="rgb(22,45,80)" fill-opacity="0.515625"/>
  <rect x="5" y="19" width="1" height="2" fill="rgb(255,255,255)" fill-opacity="0.0078125"/>
  <rect x="6" y="0" width="1" height="4" fill="rgb(255,255,255)" fill-opacity="0.0078125"/>
  <rect x="6" y="4" width="1" height="1" fill="rgb(22,46,80)" fill-opacity="0.6796875"/>
  <rect x="6" y="5" width="1" height="1" fill="rgb(238,243,250)"/>
  <rect x="6" y="6" width="1" height="1" fill="rgb(147,166,193)"/>
  <rect x="6" y="7" width="1" height="1" fill="rgb(193,210,236)"/>
  <rect x="6" y="8" width="1" height="1" fill="rgb(190,208,235)"/>
  <rect x="6" y="9" width="1" height="1" fill="rgb(188,206,234)"/>
  <rect x="6" y="10" width="1" height="1" fill="rgb(185,204,233)"/>
  <rect x="6" y="11" width="1" height="1" fill="rgb(228,236,247)"/>
  <rect x="6" y="12" width="1" height="1" fill="rgb(136,158,189)"/>
  <rect x="6" y="13" width="1" height="1" fill="rgb(177,199,231)"/>
  <rect x="6" y="14" width="1" height="1" fill="rgb(174,197,230)"/>
  <rect x="6" y="15" width="1" height="1" fill="rgb(171,195,229)"/>
  <rect x="6" y="16" width="1" height="1" fill="rgb(169,193,228)"/>
  <rect x="6" y="17" width="1" height="1" fill="rgb(216,227,243)"/>
  <rect x="6" y="18" width="1" height="1" fill="rgb(22,46,80)" fill-opacity="0.6796875"/>
  <rect x="6" y="19" width="1" height="2" fill="rgb(255,255,255)" fill-opacity="0.0078125"/>
  <rect x="7" y="0" width="1" height="4" fill="rgb(255,255,255)" fill-opacity="0.0078125"/>
  <rect x="7" y="4" width="1" height="1" fill="rgb(22,46,80)" fill-opacity="0.6796875"/>
  <rect x="7" y="5" width="1" height="1" fill="rgb(147,166,193)"/>
  <rect x="7" y="6" width="1" height="1" fill="rgb(22,45,80)" fill-opacity="0.8515625"/>
  <rect x="7" y="7" width="1" height="3" fill="rgb(22,46,80)" fill-opacity="0.6796875"/>
  <rect x="7" y="10" width="1" height="1" fill="rgb(22,45,80)" fill-opacity="0.8515625"/>
  <rect x="7" y="11" width="1" height="1" fill="rgb(136,158,189)"/>
  <rect x="7" y="12" width="1" height="1" fill="rgb(22,45,80)" fill-opacity="0.8515625"/>
  <rect x="7" y="13" width="1" height="3" fill="rgb(22,46,80)" fill-opacity="0.6796875"/>
  <rect x="7" y="16" width="1" height="1" fill="rgb(22,45,80)" fill-opacity="0.8515625"/>
  <rect x="7" y="17" width="1" height="1" fill="rgb(124,149,185)"/>
  <rect x="7" y="18" width="1" height="1" fill="rgb(22,46,80)" fill-opacity="0.6796875"/>
  <rect x="7" y="19" width="1" height="2" fill="rgb(255,255,255)" fill-opacity="0.0078125"/>
  <rect x="8" y="0" width="1" height="4" fill="rgb(255,255,255)" fill-opacity="0.0078125"/>
  <rect x="8" y="4" width="1" height="1" fill="rgb(22,46,80)" fill-opacity="0.6796875"/>
  <rect x="8" y="5" width="1" height="1" fill="rgb(193,210,236)"/>
  <rect x="8" y="6" width="1" height="1" fill="rgb(22,46,80)" fill-opacity="0.6796875"/>
  <rect x="8" y="7" width="1" height="3" fill="rgb(255,255,255)" fill-opacity="0.0078125"/>
  <rect x="8" y="10" width="1" height="1" fill="rgb(22,46,80)" fill-opacity="0.6796875"/>
  <rect x="8" y="11" width="1" height="1" fill="rgb(177,198,230)"/>
  <rect x="8" y="12" width="1" height="1" fill="rgb(22,46,80)" fill-opacity="0.6796875"/>
  <rect x="8" y="13" width="1" height="3" fill="rgb(255,255,255)" fill-opacity="0.0078125"/>
  <rect x="8" y="16" width="1" height="1" fill="rgb(22,46,80)" fill-opacity="0.6796875"/>
  <rect x="8" y="17" width="1" height="1" fill="rgb(161,187,225)"/>
  <rect x="8" y="18" width="1" height="1" fill="rgb(22,46,80)" fill-opacity="0.6796875"/>
  <rect x="8" y="19" width="1" height="2" fill="rgb(255,255,255)" fill-opacity="0.0078125"/>
  <rect x="9" y="0" width="1" height="4" fill="rgb(255,255,255)" fill-opacity="0.0078125"/>
  <rect x="9" y="4" width="1" height="1" fill="rgb(22,46,80)" fill-opacity="0.6796875"/>
  <rect x="9" y="5" width="1" height="1" fill="rgb(190,208,235)"/>
  <rect x="9" y="6" width="1" height="1" fill="rgb(22,46,80)" fill-opacity="0.6796875"/>
  <rect x="9" y="7" width="1" height="3" fill="rgb(255,255,255)" fill-opacity="0.0078125"/>
  <rect x="9" y="10" width="1" height="1" fill="rgb(22,46,80)" fill-opacity="0.6796875"/>
  <rect x="9" y="11" width="1" height="1" fill="rgb(174,197,230)"/>
  <rect x="9" y="12" width="1" height="1" fill="rgb(22,46,80)" fill-opacity="0.6796875"/>
  <rect x="9" y="13" width="1" height="3" fill="rgb(255,255,255)" fill-opacity="0.0078125"/>
  <rect x="9" y="16" width="1" height="1" fill="rgb(22,46,80)" fill-opacity="0.6796875"/>
  <rect x="9" y="17" width="1" height="1" fill="rgb(158,185,224)"/>
  <rect x="9" y="18" width="1" height="1" fill="rgb(22,46,80)" fill-opacity="0.6796875"/>
  <rect x="9" y="19" width="1" height="2" fill="rgb(255,255,255)" fill-opacity="0.0078125"/>
  <rect x="10" y="0" width="1" height="4" fill="rgb(255,255,255)" fill-opacity="0.0078125"/>
  <rect x="10" y="4" width="1" height="1" fill="rgb(22,46,80)" fill-opacity="0.6796875"/>
  <rect x="10" y="5" width="1" height="1" fill="rgb(187,206,234)"/>
  <rect x="10" y="6" width="1" height="1" fill="rgb(22,45,80)" fill-opacity="0.8515625"/>
  <rect x="10" y="7" width="1" height="3" fill="rgb(22,46,80)" fill-opacity="0.6796875"/>
  <rect x="10" y="10" width="1" height="1" fill="rgb(22,45,80)" fill-opacity="0.8515625"/>
  <rect x="10" y="11" width="1" height="1" fill="rgb(171,195,229)"/>
  <rect x="10" y="12" width="1" height="1" fill="rgb(22,45,80)" fill-opacity="0.8515625"/>
  <rect x="10" y="13" width="1" height="3" fill="rgb(22,46,80)" fill-opacity="0.6796875"/>
  <rect x="10" y="16" width="1" height="1" fill="rgb(22,45,80)" fill-opacity="0.8515625"/>
  <rect x="10" y="17" width="1" height="1" fill="rgb(155,183,223)"/>
  <rect x="10" y="18" width="1" height="1" fill="rgb(22,46,80)" fill-opacity="0.6796875"/>
  <rect x="10" y="19" width="1" height="2" fill="rgb(255,255,255)" fill-opacity="0.0078125"/>
  <rect x="11" y="0" width="1" height="4" fill="rgb(255,255,255)" fill-opacity="0.0078125"/>
  <rect x="11" y="4" width="1" height="1" fill="rgb(22,46,80)" fill-opacity="0.6796875"/>
  <rect x="11" y="5" width="1" height="1" fill="rgb(228,235,246)"/>
  <rect x="11" y="6" width="1" height="1" fill="rgb(137,159,189)"/>
  <rect x="11" y="7" width="1" height="1" fill="rgb(179,200,231)"/>
  <rect x="11" y="8" width="1" height="1" fill="rgb(176,198,230)"/>
  <rect x="11" y="9" width="1" height="1" fill="rgb(174,196,229)"/>
  <rect x="11" y="10" width="1" height="1" fill="rgb(171,194,229)"/>
  <rect x="11" y="11" width="1" height="1" fill="rgb(215,226,243)"/>
  <rect x="11" y="12" width="1" height="1" fill="rgb(126,150,186)"/>
  <rect x="11" y="13" width="1" height="1" fill="rgb(163,189,226)"/>
  <rect x="11" y="14" width="1" height="1" fill="rgb(160,187,225)"/>
  <rect x="11" y="15" width="1" height="1" fill="rgb(158,185,224)"/>
  <rect x="11" y="16" width="1" height="1" fill="rgb(155,183,223)"/>
  <rect x="11" y="17" width="1" height="1" fill="rgb(200,216,237)"/>
  <rect x="11" y="18" width="1" height="1" fill="rgb(22,46,80)" fill-opacity="0.6796875"/>
  <rect x="11" y="19" width="1" height="2" fill="rgb(255,255,255)" fill-opacity="0.0078125"/>
  <rect x="12" y="0" width="1" height="4" fill="rgb(255,255,255)" fill-opacity="0.0078125"/>
  <rect x="12" y="4" width="1" height="1" fill="rgb(22,46,80)" fill-opacity="0.6796875"/>
  <rect x="12" y="5" width="1" height="1" fill="rgb(137,159,189)"/>
  <rect x="12" y="6" width="1" height="1" fill="rgb(22,45,80)" fill-opacity="0.8515625"/>
  <rect x="12" y="7" width="1" height="3" fill="rgb(22,46,80)" fill-opacity="0.6796875"/>
  <rect x="12" y="10" width="1" height="1" fill="rgb(22,45,80)" fill-opacity="0.8515625"/>
  <rect x="12" y="11" width="1" height="1" fill="rgb(126,150,186)"/>
  <rect x="12" y="12" width="1" height="1" fill="rgb(22,45,80)" fill-opacity="0.8515625"/>
  <rect x="12" y="13" width="1" height="3" fill="rgb(22,46,80)" fill-opacity="0.6796875"/>
  <rect x="12" y="16" width="1" height="1" fill="rgb(22,45,80)" fill-opacity="0.8515625"/>
  <rect x="12" y="17" width="1" height="1" fill="rgb(114,142,181)"/>
  <rect x="12" y="18" width="1" height="1" fill="rgb(22,46,80)" fill-opacity="0.6796875"/>
  <rect x="12" y="19" width="1" height="2" fill="rgb(255,255,255)" fill-opacity="0.0078125"/>
  <rect x="13" y="0" width="1" height="4" fill="rgb(255,255,255)" fill-opacity="0.0078125"/>
  <rect x="13" y="4" width="1" height="1" fill="rgb(22,46,80)" fill-opacity="0.6796875"/>
  <rect x="13" y="5" width="1" height="1" fill="rgb(179,200,231)"/>
  <rect x="13" y="6" width="1" height="1" fill="rgb(22,46,80)" fill-opacity="0.6796875"/>
  <rect x="13" y="7" width="1" height="3" fill="rgb(255,255,255)" fill-opacity="0.0078125"/>
  <rect x="13" y="10" width="1" height="1" fill="rgb(22,46,80)" fill-opacity="0.6796875"/>
  <rect x="13" y="11" width="1" height="1" fill="rgb(163,189,226)"/>
  <rect x="13" y="12" width="1" height="1" fill="rgb(22,46,80)" fill-opacity="0.6796875"/>
  <rect x="13" y="13" width="1" height="3" fill="rgb(255,255,255)" fill-opacity="0.0078125"/>
  <rect x="13" y="16" width="1" height="1" fill="rgb(22,46,80)" fill-opacity="0.6796875"/>
  <rect x="13" y="17" width="1" height="1" fill="rgb(147,177,220)"/>
  <rect x="13" y="18" width="1" height="1" fill="rgb(22,46,80)" fill-opacity="0.6796875"/>
  <rect x="13" y="19" width="1" height="2" fill="rgb(255,255,255)" fill-opacity="0.0078125"/>
  <rect x="14" y="0" width="1" height="4" fill="rgb(255,255,255)" fill-opacity="0.0078125"/>
  <rect x="14" y="4" width="1" height="1" fill="rgb(22,46,80)" fill-opacity="0.6796875"/>
  <rect x="14" y="5" width="1" height="1" fill="rgb(176,198,230)"/>
  <rect x="14" y="6" width="1" height="1" fill="rgb(22,46,80)" fill-opacity="0.6796875"/>
  <rect x="14" y="7" width="1" height="3" fill="rgb(255,255,255)" fill-opacity="0.0078125"/>
  <rect x="14" y="10" width="1" height="1" fill="rgb(22,46,80)" fill-opacity="0.6796875"/>
  <rect x="14" y="11" width="1" height="1" fill="rgb(160,186,225)"/>
  <rect x="14" y="12" width="1" height="1" fill="rgb(22,46,80)" fill-opacity="0.6796875"/>
  <rect x="14" y="13" width="1" height="3" fill="rgb(255,255,255)" fill-opacity="0.0078125"/>
  <rect x="14" y="16" width="1" height="1" fill="rgb(22,46,80)" fill-opacity="0.6796875"/>
  <rect x="14" y="17" width="1" height="1" fill="rgb(144,175,219)"/>
  <rect x="14" y="18" width="1" height="1" fill="rgb(22,46,80)" fill-opacity="0.6796875"/>
  <rect x="14" y="19" width="1" height="2" fill="rgb(255,255,255)" fill-opacity="0.0078125"/>
  <rect x="15" y="0" width="1" height="4" fill="rgb(255,255,255)" fill-opacity="0.0078125"/>
  <rect x="15" y="4" width="1" height="1" fill="rgb(22,46,80)" fill-opacity="0.6796875"/>
  <rect x="15" y="5" width="1" height="1" fill="rgb(174,196,229)"/>
  <rect x="15" y="6" width="1" height="1" fill="rgb(22,45,80)" fill-opacity="0.8515625"/>
  <rect x="15" y="7" width="1" height="3" fill="rgb(22,46,80)" fill-opacity="0.6796875"/>
  <rect x="15" y="10" width="1" height="1" fill="rgb(22,45,80)" fill-opacity="0.8515625"/>
  <rect x="15" y="11" width="1" height="1" fill="rgb(157,184,224)"/>
  <rect x="15" y="12" width="1" height="1" fill="rgb(22,45,80)" fill-opacity="0.8515625"/>
  <rect x="15" y="13" width="1" height="3" fill="rgb(22,46,80)" fill-opacity="0.6796875"/>
  <rect x="15" y="16" width="1" height="1" fill="rgb(22,45,80)" fill-opacity="0.8515625"/>
  <rect x="15" y="17" width="1" height="1" fill="rgb(141,173,218)"/>
  <rect x="15" y="18" width="1" height="1" fill="rgb(22,46,80)" fill-opacity="0.6796875"/>
  <rect x="15" y="19" width="1" height="2" fill="rgb(255,255,255)" fill-opacity="0.0078125"/>
  <rect x="16" y="0" width="1" height="4" fill="rgb(255,255,255)" fill-opacity="0.0078125"/>
  <rect x="16" y="4" width="1" height="1" fill="rgb(22,46,80)" fill-opacity="0.6796875"/>
  <rect x="16" y="5" width="1" height="1" fill="rgb(214,226,242)"/>
  <rect x="16" y="6" width="1" height="1" fill="rgb(127,152,186)"/>
  <rect x="16" y="7" width="1" height="1" fill="rgb(165,190,227)"/>
  <rect x="16" y="8" width="1" height="1" fill="rgb(163,188,226)"/>
  <rect x="16" y="9" width="1" height="1" fill="rgb(160,186,225)"/>
  <rect x="16" y="10" width="1" height="1" fill="rgb(157,184,224)"/>
  <rect x="16" y="11" width="1" height="1" fill="rgb(200,215,237)"/>
  <rect x="16" y="12" width="1" height="1" fill="rgb(116,144,182)"/>
  <rect x="16" y="13" width="1" height="1" fill="rgb(149,179,221)"/>
  <rect x="16" y="14" width="1" height="1" fill="rgb(147,177,220)"/>
  <rect x="16" y="15" width="1" height="1" fill="rgb(144,175,219)"/>
  <rect x="16" y="16" width="1" height="1" fill="rgb(141,173,218)"/>
  <rect x="16" y="17" width="1" height="1" fill="rgb(182,202,231)"/>
  <rect x="16" y="18" width="1" height="1" fill="rgb(22,46,80)" fill-opacity="0.6796875"/>
  <rect x="16" y="19" width="1" height="2" fill="rgb(255,255,255)" fill-opacity="0.0078125"/>
  <rect x="17" y="0" width="1" height="4" fill="rgb(255,255,255)" fill-opacity="0.0078125"/>
  <rect x="17" y="4" width="1" height="1" fill="rgb(22,45,80)" fill-opacity="0.515625"/>
  <rect x="17" y="5" width="1" height="13" fill="rgb(22,46,80)" fill-opacity="0.6796875"/>
  <rect x="17" y="18" width="1" height="1" fill="rgb(22,45,80)" fill-opacity="0.515625"/>
  <rect x="17" y="19" width="1" height="2" fill="rgb(255,255,255)" fill-opacity="0.0078125"/>
  <rect x="18" y="0" width="1" height="21" fill="rgb(255,255,255)" fill-opacity="0.0078125"/>
  <rect x="19" y="0" width="1" height="21" fill="rgb(255,255,255)" fill-opacity="0.0078125"/>
  <rect x="20" y="0" width="1" height="21" fill="rgb(255,255,255)" fill-opacity="0.0078125"/>
</svg>