<svg xmlns="http://www.w3.org/2000/svg" shape-rendering="crispEdges" width="21" height="21" viewBox="0 0 21 21">
  <rect x="0" y="0" width="1" height="21" fill="rgb(255,255,255)" fill-opacity="0.0078125"/>
  <rect x="1" y="0" width="1" height="21" fill="rgb(255,255,255)" fill-opacity="0.0078125"/>
  <rect x="2" y="0" width="1" height="21" fill="rgb(255,255,255)" fill-opacity="0.0078125"/>
  <rect x="3" y="0" width="1" height="14" fill="rgb(255,255,255)" fill-opacity="0.0078125"/>
  <rect x="3" y="14" width="1" height="1" fill="rgb(0,0,0)" fill-opacity="0.3203125"/>
  <rect x="3" y="15" width="1" height="1" fill="rgb(20,20,20)" fill-opacity="0.7734375"/>
  <rect x="3" y="16" width="1" height="1" fill="rgb(0,0,0)" fill-opacity="0.2890625"/>
  <rect x="3" y="17" width="1" height="4" fill="rgb(255,255,255)" fill-opacity="0.0078125"/>
  <rect x="4" y="0" width="1" height="13" fill="rgb(255,255,255)" fill-opacity="0.0078125"/>
  <rect x="4" y="13" width="1" height="1" fill="rgb(0,0,0)" fill-opacity="0.015625"/>
  <rect x="4" y="14" width="1" height="1" fill="rgb(47,47,47)" fill-opacity="0.9453125"/>
  <rect x="4" y="15" width="1" height="1" fill="rgb(227,227,227)"/>
  <rect x="4" y="16" width="1" height="1" fill="rgb(28,28,28)" fill-opacity="0.84375"/>
  <rect x="4" y="17" width="1" height="4" fill="rgb(255,255,255)" fill-opacity="0.0078125"/>
  <rect x="5" y="0" width="1" height="13" fill="rgb(255,255,255)" fill-opacity="0.0078125"/>
  <rect x="5" y="13" width="1" height="1" fill="rgb(0,0,0)" fill-opacity="0.421875"/>
  <rect x="5" y="14" width="1" height="1" fill="rgb(121,121,121)"/>
  <rect x="5" y="15" width="1" height="1" fill="rgb(221,221,221)"/>
  <rect x="5" y="16" width="1" height="1" fill="rgb(6,6,6)" fill-opacity="0.7109375"/>
  <rect x="5" y="17" width="1" height="4" fill="rgb(255,255,255)" fill-opacity="0.0078125"/>
  <rect x="6" y="0" width="1" height="11" fill="rgb(255,255,255)" fill-opacity="0.0078125"/>
  <rect x="6" y="11" width="1" height="1" fill="rgb(0,0,0)" fill-opacity="0.265625"/>
  <rect x="6" y="12" width="1" height="1" fill="rgb(15,15,15)" fill-opacity="0.796875"/>
  <rect x="6" y="13" width="1" height="1" fill="rgb(116,116,116)"/>
  <rect x="6" y="14" width="1" height="1" fill="rgb(227,227,227)"/>
  <rect x="6" y="15" width="1" height="1" fill="rgb(117,117,117)"/>
  <rect x="6" y="16" width="1" height="1" fill="rgb(0,0,0)" fill-opacity="0.375"/>
  <rect x="6" y="17" width="1" height="4" fill="rgb(255,255,255)" fill-opacity="0.0078125"/>
  <rect x="7" y="0" width="1" height="8" fill="rgb(255,255,255)" fill-opacity="0.0078125"/>
  <rect x="7" y="8" width="1" height="1" fill="rgb(0,0,0)" fill-opacity="0.0390625"/>
  <rect x="7" y="9" width="1" height="1" fill="rgb(0,0,0)" fill-opacity="0.4140625"/>
  <rect x="7" y="10" width="1" height="1" fill="rgb(21,21,21)" fill-opacity="0.84375"/>
  <rect x="7" y="11" width="1" height="1" fill="rgb(109,109,109)"/>
  <rect x="7" y="12" width="1" height="1" fill="rgb(212,212,212)"/>
  <rect x="7" y="13" width="1" height="1" fill="rgb(221,221,221)"/>
  <rect x="7" y="14" width="1" height="1" fill="rgb(117,117,117)"/>
  <rect x="7" y="15" width="1" height="1" fill="rgb(3,3,3)" fill-opacity="0.6171875"/>
  <rect x="7" y="16" width="1" height="5" fill="rgb(255,255,255)" fill-opacity="0.0078125"/>
  <rect x="8" y="0" width="1" height="7" fill="rgb(255,255,255)" fill-opacity="0.0078125"/>
  <rect x="8" y="7" width="1" height="1" fill="rgb(0,0,0)" fill-opacity="0.09375"/>
  <rect x="8" y="8" width="1" height="1" fill="rgb(22,22,22)" fill-opacity="0.8359375"/>
  <rect x="8" y="9" width="1" height="1" fill="rgb(144,144,144)"/>
  <rect x="8" y="10" width="1" height="1" fill="rgb(224,224,224)"/>
  <rect x="8" y="11" width="1" height="1" fill="rgb(222,222,222)"/>
  <rect x="8" y="12" width="1" height="1" fill="rgb(134,134,134)"/>
  <rect x="8" y="13" width="1" height="1" fill="rgb(26,26,26)" fill-opacity="0.8671875"/>
  <rect x="8" y="14" width="1" height="1" fill="rgb(0,0,0)" fill-opacity="0.3359375"/>
  <rect x="8" y="15" width="1" height="6" fill="rgb(255,255,255)" fill-opacity="0.0078125"/>
  <rect x="9" y="0" width="1" height="7" fill="rgb(255,255,255)" fill-opacity="0.0078125"/>
  <rect x="9" y="7" width="1" height="1" fill="rgb(2,2,2)" fill-opacity="0.625"/>
  <rect x="9" y="8" width="1" height="1" fill="rgb(192,192,192)"/>
  <rect x="9" y="9" width="1" height="1" fill="rgb(211,211,211)"/>
  <rect x="9" y="10" width="1" height="1" fill="rgb(104,104,104)"/>
  <rect x="9" y="11" width="1" height="1" fill="rgb(18,18,18)" fill-opacity="0.8203125"/>
  <rect x="9" y="12" width="1" height="1" fill="rgb(0,0,0)" fill-opacity="0.3828125"/>
  <rect x="9" y="13" width="1" height="1" fill="rgb(0,0,0)" fill-opacity="0.0234375"/>
  <rect x="9" y="14" width="1" height="7" fill="rgb(255,255,255)" fill-opacity="0.0078125"/>
  <rect x="10" y="0" width="1" height="7" fill="rgb(255,255,255)" fill-opacity="0.0078125"/>
  <rect x="10" y="7" width="1" height="1" fill="rgb(36,36,36)" fill-opacity="0.8359375"/>
  <rect x="10" y="8" width="1" height="1" fill="rgb(230,230,230)"/>
  <rect x="10" y="9" width="1" height="1" fill="rgb(78,78,78)"/>
  <rect x="10" y="10" width="1" height="1" fill="rgb(0,0,0)" fill-opacity="0.4453125"/>
  <rect x="10" y="11" width="1" height="10" fill="rgb(255,255,255)" fill-opacity="0.0078125"/>
  <rect x="11" y="0" width="1" height="7" fill="rgb(255,255,255)" fill-opacity="0.0078125"/>
  <rect x="11" y="7" width="1" height="1" fill="rgb(2,2,2)" fill-opacity="0.6328125"/>
  <rect x="11" y="8" width="1" height="1" fill="rgb(196,196,196)"/>
  <rect x="11" y="9" width="1" height="1" fill="rgb(207,207,207)"/>
  <rect x="11" y="10" width="1" height="1" fill="rgb(97,97,97)"/>
  <rect x="11" y="11" width="1" height="1" fill="rgb(15,15,15)" fill-opacity="0.7890625"/>
  <rect x="11" y="12" width="1" height="1" fill="rgb(0,0,0)" fill-opacity="0.3515625"/>
  <rect x="11" y="13" width="1" height="1" fill="rgb(0,0,0)" fill-opacity="0.015625"/>
  <rect x="11" y="14" width="1" height="7" fill="rgb(255,255,255)" fill-opacity="0.0078125"/>
  <rect x="12" y="0" width="1" height="7" fill="rgb(255,255,255)" fill-opacity="0.0078125"/>
  <rect x="12" y="7" width="1" height="1" fill="rgb(0,0,0)" fill-opacity="0.1015625"/>
  <rect x="12" y="8" width="1" height="1" fill="rgb(26,26,26)" fill-opacity="0.8515625"/>
  <rect x="12" y="9" width="1" height="1" fill="rgb(152,152,152)"/>
  <rect x="12" y="10" width="1" height="1" fill="rgb(226,226,226)"/>
  <rect x="12" y="11" width="1" height="1" fill="rgb(218,218,218)"/>
  <rect x="12" y="12" width="1" height="1" fill="rgb(127,127,127)"/>
  <rect x="12" y="13" width="1" height="1" fill="rgb(21,21,21)" fill-opacity="0.84375"/>
  <rect x="12" y="14" width="1" height="1" fill="rgb(0,0,0)" fill-opacity="0.3046875"/>
  <rect x="12" y="15" width="1" height="6" fill="rgb(255,255,255)" fill-opacity="0.0078125"/>
  <rect x="13" y="0" width="1" height="8" fill="rgb(255,255,255)" fill-opacity="0.0078125"/>
  <rect x="13" y="8" width="1" height="1" fill="rgb(0,0,0)" fill-opacity="0.046875"/>
  <rect x="13" y="9" width="1" height="1" fill="rgb(0,0,0)" fill-opacity="0.4453125"/>
  <rect x="13" y="10" width="1" height="1" fill="rgb(27,27,27)" fill-opacity="0.8671875"/>
  <rect x="13" y="11" width="1" height="1" fill="rgb(116,116,116)"/>
  <rect x="13" y="12" width="1" height="2" fill="rgb(217,217,217)"/>
  <rect x="13" y="14" width="1" height="1" fill="rgb(110,110,110)"/>
  <rect x="13" y="15" width="1" height="1" fill="rgb(2,2,2)" fill-opacity="0.5859375"/>
  <rect x="13" y="16" width="1" height="5" fill="rgb(255,255,255)" fill-opacity="0.0078125"/>
  <rect x="14" y="0" width="1" height="10" fill="rgb(255,255,255)" fill-opacity="0.0078125"/>
  <rect x="14" y="10" width="1" height="1" fill="rgb(0,0,0)" fill-opacity="0.0078125"/>
  <rect x="14" y="11" width="1" height="1" fill="rgb(0,0,0)" fill-opacity="0.296875"/>
  <rect x="14" y="12" width="1" height="1" fill="rgb(22,22,22)" fill-opacity="0.828125"/>
  <rect x="14" y="13" width="1" height="1" fill="rgb(132,132,132)"/>
  <rect x="14" y="14" width="1" height="1" fill="rgb(229,229,229)"/>
  <rect x="14" y="15" width="1" height="1" fill="rgb(112,112,112)"/>
  <rect x="14" y="16" width="1" height="1" fill="rgb(0,0,0)" fill-opacity="0.3515625"/>
  <rect x="14" y="17" width="1" height="4" fill="rgb(255,255,255)" fill-opacity="0.0078125"/>
  <rect x="15" y="0" width="1" height="12" fill="rgb(255,255,255)" fill-opacity="0.0078125"/>
  <rect x="15" y="12" width="1" height="1" fill="rgb(0,0,0)" fill-opacity="0.0078125"/>
  <rect x="15" y="13" width="1" height="1" fill="rgb(0,0,0)" fill-opacity="0.453125"/>
  <rect x="15" y="14" width="1" height="1" fill="rgb(126,126,126)"/>
  <rect x="15" y="15" width="1" height="1" fill="rgb(220,220,220)"/>
  <rect x="15" y="16" width="1" height="1" fill="rgb(4,4,4)" fill-opacity="0.703125"/>
  <rect x="15" y="17" width="1" height="4" fill="rgb(255,255,255)" fill-opacity="0.0078125"/>
  <rect x="16" y="0" width="1" height="13" fill="rgb(255,255,255)" fill-opacity="0.0078125"/>
  <rect x="16" y="13" width="1" height="1" fill="rgb(0,0,0)" fill-opacity="0.015625"/>
  <rect x="16" y="14" width="1" height="1" fill="rgb(51,51,51)" fill-opacity="0.9609375"/>
  <rect x="16" y="15" width="1" height="1" fill="rgb(229,229,229)"/>
  <rect x="16" y="16" width="1" height="1" fill="rgb(25,25,25)" fill-opacity="0.796875"/>
  <rect x="16" y="17" width="1" height="4" fill="rgb(255,255,255)" fill-opacity="0.0078125"/>
  <rect x="17" y="0" width="1" height="14" fill="rgb(255,255,255)" fill-opacity="0.0078125"/>
  <rect x="17" y="14" width="1" height="1" fill="rgb(0,0,0)" fill-opacity="0.3671875"/>
  <rect x="17" y="15" width="1" height="1" fill="rgb(26,26,26)" fill-opacity="0.8125"/>
  <rect x="17" y="16" width="1" height="1" fill="rgb(0,0,0)" fill-opacity="0.328125"/>
  <rect x="17" y="17" width="1" height="4" fill="rgb(255,255,255)" fill-opacity="0.0078125"/>
  <rect x="18" y="0" width="1" height="21" fill="rgb(255,255,255)" fill-opacity="0.0078125"/>
  <rect x="19" y="0" width="1" height="21" fill="rgb(255,255,255)" fill-opacity="0.0078125"/>
  <rect x="20" y="0" width="1" height="21" fill="rgb(255,255,255)" fill-opacity="0.0078125"/>
</svg>