<svg xmlns="http://www.w3.org/2000/svg" shape-rendering="crispEdges" width="21" height="21" viewBox="0 0 21 21">
  <rect x="0" y="0" width="21" height="1" fill="rgb(255,255,255)" fill-opacity="0.0078125"/>
  <rect x="0" y="1" width="21" height="1" fill="rgb(255,255,255)" fill-opacity="0.0078125"/>
  <rect x="0" y="2" width="21" height="1" fill="rgb(255,255,255)" fill-opacity="0.0078125"/>
  <rect x="0" y="3" width="21" height="1" fill="rgb(255,255,255)" fill-opacity="0.0078125"/>
  <rect x="0" y="4" width="21" height="1" fill="rgb(255,255,255)" fill-opacity="0.0078125"/>
  <rect x="0" y="5" width="14" height="1" fill="rgb(255,255,255)" fill-opacity="0.0078125"/>
  <rect x="14" y="5" width="1" height="1" fill="rgb(0,0,0)" fill-opacity="0.5390625"/>
  <rect x="15" y="5" width="1" height="1" fill="rgb(41,41,41)" fill-opacity="0.8984375"/>
  <rect x="16" y="5" width="1" height="1" fill="rgb(0,0,0)" fill-opacity="0.4375"/>
  <rect x="17" y="5" width="4" height="1" fill="rgb(255,255,255)" fill-opacity="0.0078125"/>
  <rect x="0" y="6" width="13" height="1" fill="rgb(255,255,255)" fill-opacity="0.0078125"/>
  <rect x="13" y="6" width="1" height="1" fill="rgb(0,0,0)" fill-opacity="0.5625"/>
  <rect x="14" y="6" width="1" height="1" fill="rgb(130,130,130)"/>
  <rect x="15" y="6" width="1" height="1" fill="rgb(252,252,252)"/>
  <rect x="16" y="6" width="1" height="1" fill="rgb(35,35,35)" fill-opacity="0.9453125"/>
  <rect x="17" y="6" width="1" height="1" fill="rgb(0,0,0)" fill-opacity="0.015625"/>
  <rect x="18" y="6" width="3" height="1" fill="rgb(255,255,255)" fill-opacity="0.0078125"/>
  <rect x="0" y="7" width="12" height="1" fill="rgb(255,255,255)" fill-opacity="0.0078125"/>
  <rect x="12" y="7" width="1" height="1" fill="rgb(0,0,0)" fill-opacity="0.5625"/>
  <rect x="13" y="7" width="1" height="1" fill="rgb(128,128,128)"/>
  <rect x="14" y="7" width="1" height="1" fill="rgb(251,251,251)"/>
  <rect x="15" y="7" width="1" height="1" fill="rgb(237,237,237)"/>
  <rect x="16" y="7" width="1" height="1" fill="rgb(132,132,132)"/>
  <rect x="17" y="7" width="1" height="1" fill="rgb(0,0,0)" fill-opacity="0.5703125"/>
  <rect x="18" y="7" width="3" height="1" fill="rgb(255,255,255)" fill-opacity="0.0078125"/>
  <rect x="0" y="8" width="11" height="1" fill="rgb(255,255,255)" fill-opacity="0.0078125"/>
  <rect x="11" y="8" width="1" height="1" fill="rgb(0,0,0)" fill-opacity="0.5703125"/>
  <rect x="12" y="8" width="1" height="1" fill="rgb(128,128,128)"/>
  <rect x="13" y="8" width="1" height="1" fill="rgb(251,251,251)"/>
  <rect x="14" y="8" width="1" height="1" fill="rgb(194,194,194)"/>
  <rect x="15" y="8" width="1" height="1" fill="rgb(119,119,119)"/>
  <rect x="16" y="8" width="1" height="1" fill="rgb(205,205,205)"/>
  <rect x="17" y="8" width="1" height="1" fill="rgb(18,18,18)" fill-opacity="0.7890625"/>
  <rect x="18" y="8" width="3" height="1" fill="rgb(255,255,255)" fill-opacity="0.0078125"/>
  <rect x="0" y="9" width="9" height="1" fill="rgb(255,255,255)" fill-opacity="0.0078125"/>
  <rect x="9" y="9" width="1" height="1" fill="rgb(0,0,0)" fill-opacity="0.0078125"/>
  <rect x="10" y="9" width="1" height="1" fill="rgb(0,0,0)" fill-opacity="0.5859375"/>
  <rect x="11" y="9" width="1" height="1" fill="rgb(131,131,131)"/>
  <rect x="12" y="9" width="1" height="1" fill="rgb(250,250,250)"/>
  <rect x="13" y="9" width="1" height="1" fill="rgb(192,192,192)"/>
  <rect x="14" y="9" width="1" height="1" fill="rgb(223,223,223)"/>
  <rect x="15" y="9" width="1" height="1" fill="rgb(97,97,97)"/>
  <rect x="16" y="9" width="1" height="1" fill="rgb(11,11,11)" fill-opacity="0.875"/>
  <rect x="17" y="9" width="1" height="1" fill="rgb(0,0,0)" fill-opacity="0.3046875"/>
  <rect x="18" y="9" width="3" height="1" fill="rgb(255,255,255)" fill-opacity="0.0078125"/>
  <rect x="0" y="10" width="6" height="1" fill="rgb(255,255,255)" fill-opacity="0.0078125"/>
  <rect x="6" y="10" width="1" height="1" fill="rgb(0,0,0)" fill-opacity="0.2421875"/>
  <rect x="7" y="10" width="1" height="1" fill="rgb(3,3,3)" fill-opacity="0.7109375"/>
  <rect x="8" y="10" width="1" height="1" fill="rgb(48,48,48)" fill-opacity="0.8984375"/>
  <rect x="9" y="10" width="1" height="1" fill="rgb(4,4,4)" fill-opacity="0.8359375"/>
  <rect x="10" y="10" width="1" height="1" fill="rgb(134,134,134)"/>
  <rect x="11" y="10" width="1" height="1" fill="rgb(250,250,250)"/>
  <rect x="12" y="10" width="1" height="1" fill="rgb(139,139,139)"/>
  <rect x="13" y="10" width="1" height="1" fill="rgb(1,1,1)" fill-opacity="0.859375"/>
  <rect x="14" y="10" width="1" height="1" fill="rgb(86,86,86)"/>
  <rect x="15" y="10" width="1" height="1" fill="rgb(55,55,55)" fill-opacity="0.984375"/>
  <rect x="16" y="10" width="1" height="1" fill="rgb(0,0,0)" fill-opacity="0.1875"/>
  <rect x="17" y="10" width="4" height="1" fill="rgb(255,255,255)" fill-opacity="0.0078125"/>
  <rect x="0" y="11" width="5" height="1" fill="rgb(255,255,255)" fill-opacity="0.0078125"/>
  <rect x="5" y="11" width="1" height="1" fill="rgb(0,0,0)" fill-opacity="0.234375"/>
  <rect x="6" y="11" width="1" height="1" fill="rgb(73,73,73)" fill-opacity="0.984375"/>
  <rect x="7" y="11" width="1" height="1" fill="rgb(223,223,223)"/>
  <rect x="8" y="11" width="1" height="1" fill="rgb(255,255,255)"/>
  <rect x="9" y="11" width="1" height="1" fill="rgb(235,235,235)"/>
  <rect x="10" y="11" width="1" height="1" fill="rgb(249,249,249)"/>
  <rect x="11" y="11" width="1" height="1" fill="rgb(139,139,139)"/>
  <rect x="12" y="11" width="1" height="1" fill="rgb(2,2,2)" fill-opacity="0.6484375"/>
  <rect x="13" y="11" width="1" height="1" fill="rgb(0,0,0)" fill-opacity="0.015625"/>
  <rect x="14" y="11" width="1" height="1" fill="rgb(0,0,0)" fill-opacity="0.1953125"/>
  <rect x="15" y="11" width="1" height="1" fill="rgb(0,0,0)" fill-opacity="0.171875"/>
  <rect x="16" y="11" width="5" height="1" fill="rgb(255,255,255)" fill-opacity="0.0078125"/>
  <rect x="0" y="12" width="5" height="1" fill="rgb(255,255,255)" fill-opacity="0.0078125"/>
  <rect x="5" y="12" width="1" height="1" fill="rgb(3,3,3)" fill-opacity="0.703125"/>
  <rect x="6" y="12" width="1" height="1" fill="rgb(223,223,223)"/>
  <rect x="7" y="12" width="1" height="1" fill="rgb(213,213,213)"/>
  <rect x="8" y="12" width="1" height="1" fill="rgb(100,100,100)"/>
  <rect x="9" y="12" width="1" height="1" fill="rgb(205,205,205)"/>
  <rect x="10" y="12" width="1" height="1" fill="rgb(222,222,222)"/>
  <rect x="11" y="12" width="1" height="1" fill="rgb(5,5,5)" fill-opacity="0.8671875"/>
  <rect x="12" y="12" width="1" height="1" fill="rgb(0,0,0)" fill-opacity="0.015625"/>
  <rect x="13" y="12" width="8" height="1" fill="rgb(255,255,255)" fill-opacity="0.0078125"/>
  <rect x="0" y="13" width="5" height="1" fill="rgb(255,255,255)" fill-opacity="0.0078125"/>
  <rect x="5" y="13" width="1" height="1" fill="rgb(47,47,47)" fill-opacity="0.8984375"/>
  <rect x="6" y="13" width="1" height="1" fill="rgb(255,255,255)"/>
  <rect x="7" y="13" width="1" height="1" fill="rgb(108,108,108)"/>
  <rect x="8" y="13" width="1" height="1" fill="rgb(0,0,0)" fill-opacity="0.9296875"/>
  <rect x="9" y="13" width="1" height="1" fill="rgb(91,91,91)"/>
  <rect x="10" y="13" width="1" height="1" fill="rgb(221,221,221)"/>
  <rect x="11" y="13" width="1" height="1" fill="rgb(44,44,44)" fill-opacity="0.9296875"/>
  <rect x="12" y="13" width="9" height="1" fill="rgb(255,255,255)" fill-opacity="0.0078125"/>
  <rect x="0" y="14" width="5" height="1" fill="rgb(255,255,255)" fill-opacity="0.0078125"/>
  <rect x="5" y="14" width="1" height="1" fill="rgb(3,3,3)" fill-opacity="0.703125"/>
  <rect x="6" y="14" width="1" height="1" fill="rgb(223,223,223)"/>
  <rect x="7" y="14" width="1" height="1" fill="rgb(207,207,207)"/>
  <rect x="8" y="14" width="1" height="1" fill="rgb(93,93,93)"/>
  <rect x="9" y="14" width="1" height="1" fill="rgb(182,182,182)"/>
  <rect x="10" y="14" width="1" height="1" fill="rgb(186,186,186)"/>
  <rect x="11" y="14" width="1" height="1" fill="rgb(4,4,4)" fill-opacity="0.734375"/>
  <rect x="12" y="14" width="9" height="1" fill="rgb(255,255,255)" fill-opacity="0.0078125"/>
  <rect x="0" y="15" width="5" height="1" fill="rgb(255,255,255)" fill-opacity="0.0078125"/>
  <rect x="5" y="15" width="1" height="1" fill="rgb(0,0,0)" fill-opacity="0.234375"/>
  <rect x="6" y="15" width="1" height="1" fill="rgb(71,71,71)" fill-opacity="0.984375"/>
  <rect x="7" y="15" width="1" height="1" fill="rgb(205,205,205)"/>
  <rect x="8" y="15" width="1" height="1" fill="rgb(220,220,220)"/>
  <rect x="9" y="15" width="1" height="1" fill="rgb(183,183,183)"/>
  <rect x="10" y="15" width="1" height="1" fill="rgb(60,60,60)" fill-opacity="0.9921875"/>
  <rect x="11" y="15" width="1" height="1" fill="rgb(0,0,0)" fill-opacity="0.2578125"/>
  <rect x="12" y="15" width="9" height="1" fill="rgb(255,255,255)" fill-opacity="0.0078125"/>
  <rect x="0" y="16" width="6" height="1" fill="rgb(255,255,255)" fill-opacity="0.0078125"/>
  <rect x="6" y="16" width="1" height="1" fill="rgb(0,0,0)" fill-opacity="0.2421875"/>
  <rect x="7" y="16" width="1" height="1" fill="rgb(3,3,3)" fill-opacity="0.7109375"/>
  <rect x="8" y="16" width="1" height="1" fill="rgb(39,39,39)" fill-opacity="0.8984375"/>
  <rect x="9" y="16" width="1" height="1" fill="rgb(3,3,3)" fill-opacity="0.71875"/>
  <rect x="10" y="16" width="1" height="1" fill="rgb(0,0,0)" fill-opacity="0.2578125"/>
  <rect x="11" y="16" width="10" height="1" fill="rgb(255,255,255)" fill-opacity="0.0078125"/>
  <rect x="0" y="17" width="21" height="1" fill="rgb(255,255,255)" fill-opacity="0.0078125"/>
  <rect x="0" y="18" width="21" height="1" fill="rgb(255,255,255)" fill-opacity="0.0078125"/>
  <rect x="0" y="19" width="21" height="1" fill="rgb(255,255,255)" fill-opacity="0.0078125"/>
  <rect x="0" y="20" width="21" height="1" fill="rgb(255,255,255)" fill-opacity="0.0078125"/>
</svg>