<svg xmlns="http://www.w3.org/2000/svg" shape-rendering="crispEdges" width="21" height="21" viewBox="0 0 21 21">
  <rect x="0" y="0" width="1" height="21" fill="rgb(255,255,255)" fill-opacity="0.0078125"/>
  <rect x="1" y="0" width="1" height="21" fill="rgb(255,255,255)" fill-opacity="0.0078125"/>
  <rect x="2" y="0" width="1" height="21" fill="rgb(255,255,255)" fill-opacity="0.0078125"/>
  <rect x="3" y="0" width="1" height="4" fill="rgb(255,255,255)" fill-opacity="0.0078125"/>
  <rect x="3" y="4" width="1" height="2" fill="rgb(0,0,0)" fill-opacity="0.0078125"/>
  <rect x="3" y="6" width="1" height="1" fill="rgb(28,28,28)" fill-opacity="0.078125"/>
  <rect x="3" y="7" width="1" height="1" fill="rgb(224,224,224)" fill-opacity="0.203125"/>
  <rect x="3" y="8" width="1" height="1" fill="rgb(28,28,28)" fill-opacity="0.078125"/>
  <rect x="3" y="9" width="1" height="4" fill="rgb(0,0,0)" fill-opacity="0.0078125"/>
  <rect x="3" y="13" width="1" height="1" fill="rgb(28,28,28)" fill-opacity="0.078125"/>
  <rect x="3" y="14" width="1" height="1" fill="rgb(224,224,224)" fill-opacity="0.203125"/>
  <rect x="3" y="15" width="1" height="1" fill="rgb(28,28,28)" fill-opacity="0.078125"/>
  <rect x="3" y="16" width="1" height="2" fill="rgb(0,0,0)" fill-opacity="0.0078125"/>
  <rect x="3" y="18" width="1" height="3" fill="rgb(255,255,255)" fill-opacity="0.0078125"/>
  <rect x="4" y="0" width="1" height="3" fill="rgb(255,255,255)" fill-opacity="0.0078125"/>
  <rect x="4" y="3" width="1" height="1" fill="rgb(0,0,0)" fill-opacity="0.0078125"/>
  <rect x="4" y="4" width="1" height="1" fill="rgb(255,255,255)" fill-opacity="0.0078125"/>
  <rect x="4" y="5" width="1" height="1" fill="rgb(128,128,128)" fill-opacity="0.015625"/>
  <rect x="4" y="6" width="1" height="1" fill="rgb(27,27,27)" fill-opacity="0.4453125"/>
  <rect x="4" y="7" width="1" height="1" fill="rgb(255,255,255)" fill-opacity="0.6015625"/>
  <rect x="4" y="8" width="1" height="1" fill="rgb(27,27,27)" fill-opacity="0.453125"/>
  <rect x="4" y="9" width="1" height="4" fill="rgb(128,128,128)" fill-opacity="0.015625"/>
  <rect x="4" y="13" width="1" height="1" fill="rgb(27,27,27)" fill-opacity="0.4453125"/>
  <rect x="4" y="14" width="1" height="1" fill="rgb(255,255,255)" fill-opacity="0.6015625"/>
  <rect x="4" y="15" width="1" height="1" fill="rgb(27,27,27)" fill-opacity="0.453125"/>
  <rect x="4" y="16" width="1" height="1" fill="rgb(128,128,128)" fill-opacity="0.015625"/>
  <rect x="4" y="17" width="1" height="1" fill="rgb(255,255,255)" fill-opacity="0.0078125"/>
  <rect x="4" y="18" width="1" height="1" fill="rgb(0,0,0)" fill-opacity="0.0078125"/>
  <rect x="4" y="19" width="1" height="2" fill="rgb(255,255,255)" fill-opacity="0.0078125"/>
  <rect x="5" y="0" width="1" height="3" fill="rgb(255,255,255)" fill-opacity="0.0078125"/>
  <rect x="5" y="3" width="1" height="1" fill="rgb(0,0,0)" fill-opacity="0.0078125"/>
  <rect x="5" y="4" width="1" height="1" fill="rgb(128,128,128)" fill-opacity="0.015625"/>
  <rect x="5" y="5" width="1" height="1" fill="rgb(255,255,255)" fill-opacity="0.015625"/>
  <rect x="5" y="6" width="1" height="1" fill="rgb(26,26,26)" fill-opacity="0.7578125"/>
  <rect x="5" y="7" width="1" height="1" fill="rgb(255,255,255)"/>
  <rect x="5" y="8" width="1" height="1" fill="rgb(26,26,26)" fill-opacity="0.7578125"/>
  <rect x="5" y="9" width="1" height="4" fill="rgb(170,170,170)" fill-opacity="0.015625"/>
  <rect x="5" y="13" width="1" height="1" fill="rgb(26,26,26)" fill-opacity="0.7578125"/>
  <rect x="5" y="14" width="1" height="1" fill="rgb(255,255,255)"/>
  <rect x="5" y="15" width="1" height="1" fill="rgb(26,26,26)" fill-opacity="0.7578125"/>
  <rect x="5" y="16" width="1" height="1" fill="rgb(255,255,255)" fill-opacity="0.015625"/>
  <rect x="5" y="17" width="1" height="1" fill="rgb(128,128,128)" fill-opacity="0.015625"/>
  <rect x="5" y="18" width="1" height="1" fill="rgb(0,0,0)" fill-opacity="0.0078125"/>
  <rect x="5" y="19" width="1" height="2" fill="rgb(255,255,255)" fill-opacity="0.0078125"/>
  <rect x="6" y="0" width="1" height="3" fill="rgb(255,255,255)" fill-opacity="0.0078125"/>
  <rect x="6" y="3" width="1" height="1" fill="rgb(28,28,28)" fill-opacity="0.078125"/>
  <rect x="6" y="4" width="1" height="1" fill="rgb(27,27,27)" fill-opacity="0.453125"/>
  <rect x="6" y="5" width="1" height="1" fill="rgb(26,26,26)" fill-opacity="0.7578125"/>
  <rect x="6" y="6" width="1" height="1" fill="rgb(27,27,27)" fill-opacity="0.7109375"/>
  <rect x="6" y="7" width="1" height="1" fill="rgb(255,255,255)"/>
  <rect x="6" y="8" width="1" height="1" fill="rgb(27,27,27)" fill-opacity="0.9453125"/>
  <rect x="6" y="9" width="1" height="4" fill="rgb(26,26,26)" fill-opacity="0.7578125"/>
  <rect x="6" y="13" width="1" height="1" fill="rgb(27,27,27)" fill-opacity="0.9453125"/>
  <rect x="6" y="14" width="1" height="1" fill="rgb(255,255,255)"/>
  <rect x="6" y="15" width="1" height="1" fill="rgb(27,27,27)" fill-opacity="0.7109375"/>
  <rect x="6" y="16" width="1" height="1" fill="rgb(26,26,26)" fill-opacity="0.7578125"/>
  <rect x="6" y="17" width="1" height="1" fill="rgb(27,27,27)" fill-opacity="0.4453125"/>
  <rect x="6" y="18" width="1" height="1" fill="rgb(28,28,28)" fill-opacity="0.078125"/>
  <rect x="6" y="19" width="1" height="2" fill="rgb(255,255,255)" fill-opacity="0.0078125"/>
  <rect x="7" y="0" width="1" height="3" fill="rgb(255,255,255)" fill-opacity="0.0078125"/>
  <rect x="7" y="3" width="1" height="1" fill="rgb(224,224,224)" fill-opacity="0.203125"/>
  <rect x="7" y="4" width="1" height="1" fill="rgb(255,255,255)" fill-opacity="0.6015625"/>
  <rect x="7" y="5" width="1" height="2" fill="rgb(255,255,255)"/>
  <rect x="7" y="7" width="1" height="1" fill="rgb(255,255,255)" fill-opacity="0.7578125"/>
  <rect x="7" y="8" width="1" height="6" fill="rgb(255,255,255)"/>
  <rect x="7" y="14" width="1" height="1" fill="rgb(255,255,255)" fill-opacity="0.7578125"/>
  <rect x="7" y="15" width="1" height="2" fill="rgb(255,255,255)"/>
  <rect x="7" y="17" width="1" height="1" fill="rgb(255,255,255)" fill-opacity="0.6015625"/>
  <rect x="7" y="18" width="1" height="1" fill="rgb(224,224,224)" fill-opacity="0.203125"/>
  <rect x="7" y="19" width="1" height="2" fill="rgb(255,255,255)" fill-opacity="0.0078125"/>
  <rect x="8" y="0" width="1" height="3" fill="rgb(255,255,255)" fill-opacity="0.0078125"/>
  <rect x="8" y="3" width="1" height="1" fill="rgb(28,28,28)" fill-opacity="0.078125"/>
  <rect x="8" y="4" width="1" height="1" fill="rgb(27,27,27)" fill-opacity="0.4453125"/>
  <rect x="8" y="5" width="1" height="1" fill="rgb(26,26,26)" fill-opacity="0.7578125"/>
  <rect x="8" y="6" width="1" height="1" fill="rgb(27,27,27)" fill-opacity="0.9453125"/>
  <rect x="8" y="7" width="1" height="1" fill="rgb(255,255,255)"/>
  <rect x="8" y="8" width="1" height="1" fill="rgb(27,27,27)" fill-opacity="0.7109375"/>
  <rect x="8" y="9" width="1" height="4" fill="rgb(26,26,26)" fill-opacity="0.7578125"/>
  <rect x="8" y="13" width="1" height="1" fill="rgb(27,27,27)" fill-opacity="0.7109375"/>
  <rect x="8" y="14" width="1" height="1" fill="rgb(255,255,255)"/>
  <rect x="8" y="15" width="1" height="1" fill="rgb(27,27,27)" fill-opacity="0.9453125"/>
  <rect x="8" y="16" width="1" height="1" fill="rgb(26,26,26)" fill-opacity="0.7578125"/>
  <rect x="8" y="17" width="1" height="1" fill="rgb(27,27,27)" fill-opacity="0.453125"/>
  <rect x="8" y="18" width="1" height="1" fill="rgb(28,28,28)" fill-opacity="0.078125"/>
  <rect x="8" y="19" width="1" height="2" fill="rgb(255,255,255)" fill-opacity="0.0078125"/>
  <rect x="9" y="0" width="1" height="3" fill="rgb(255,255,255)" fill-opacity="0.0078125"/>
  <rect x="9" y="3" width="1" height="1" fill="rgb(0,0,0)" fill-opacity="0.0078125"/>
  <rect x="9" y="4" width="1" height="1" fill="rgb(128,128,128)" fill-opacity="0.015625"/>
  <rect x="9" y="5" width="1" height="1" fill="rgb(170,170,170)" fill-opacity="0.015625"/>
  <rect x="9" y="6" width="1" height="1" fill="rgb(26,26,26)" fill-opacity="0.7578125"/>
  <rect x="9" y="7" width="1" height="1" fill="rgb(255,255,255)"/>
  <rect x="9" y="8" width="1" height="1" fill="rgb(26,26,26)" fill-opacity="0.7578125"/>
  <rect x="9" y="9" width="1" height="1" fill="rgb(255,255,255)" fill-opacity="0.015625"/>
  <rect x="9" y="10" width="1" height="2" fill="rgb(170,170,170)" fill-opacity="0.015625"/>
  <rect x="9" y="12" width="1" height="1" fill="rgb(255,255,255)" fill-opacity="0.015625"/>
  <rect x="9" y="13" width="1" height="1" fill="rgb(26,26,26)" fill-opacity="0.7578125"/>
  <rect x="9" y="14" width="1" height="1" fill="rgb(255,255,255)"/>
  <rect x="9" y="15" width="1" height="1" fill="rgb(26,26,26)" fill-opacity="0.7578125"/>
  <rect x="9" y="16" width="1" height="1" fill="rgb(170,170,170)" fill-opacity="0.015625"/>
  <rect x="9" y="17" width="1" height="1" fill="rgb(128,128,128)" fill-opacity="0.015625"/>
  <rect x="9" y="18" width="1" height="1" fill="rgb(0,0,0)" fill-opacity="0.0078125"/>
  <rect x="9" y="19" width="1" height="2" fill="rgb(255,255,255)" fill-opacity="0.0078125"/>
  <rect x="10" y="0" width="1" height="3" fill="rgb(255,255,255)" fill-opacity="0.0078125"/>
  <rect x="10" y="3" width="1" height="1" fill="rgb(0,0,0)" fill-opacity="0.0078125"/>
  <rect x="10" y="4" width="1" height="1" fill="rgb(128,128,128)" fill-opacity="0.015625"/>
  <rect x="10" y="5" width="1" height="1" fill="rgb(170,170,170)" fill-opacity="0.015625"/>
  <rect x="10" y="6" width="1" height="1" fill="rgb(26,26,26)" fill-opacity="0.7578125"/>
  <rect x="10" y="7" width="1" height="1" fill="rgb(255,255,255)"/>
  <rect x="10" y="8" width="1" height="1" fill="rgb(26,26,26)" fill-opacity="0.7578125"/>
  <rect x="10" y="9" width="1" height="1" fill="rgb(170,170,170)" fill-opacity="0.015625"/>
  <rect x="10" y="10" width="1" height="2" fill="rgb(255,255,255)" fill-opacity="0.015625"/>
  <rect x="10" y="12" width="1" height="1" fill="rgb(170,170,170)" fill-opacity="0.015625"/>
  <rect x="10" y="13" width="1" height="1" fill="rgb(26,26,26)" fill-opacity="0.7578125"/>
  <rect x="10" y="14" width="1" height="1" fill="rgb(255,255,255)"/>
  <rect x="10" y="15" width="1" height="1" fill="rgb(26,26,26)" fill-opacity="0.7578125"/>
  <rect x="10" y="16" width="1" height="1" fill="rgb(170,170,170)" fill-opacity="0.015625"/>
  <rect x="10" y="17" width="1" height="1" fill="rgb(128,128,128)" fill-opacity="0.015625"/>
  <rect x="10" y="18" width="1" height="1" fill="rgb(0,0,0)" fill-opacity="0.0078125"/>
  <rect x="10" y="19" width="1" height="2" fill="rgb(255,255,255)" fill-opacity="0.0078125"/>
  <rect x="11" y="0" width="1" height="3" fill="rgb(255,255,255)" fill-opacity="0.0078125"/>
  <rect x="11" y="3" width="1" height="1" fill="rgb(0,0,0)" fill-opacity="0.0078125"/>
  <rect x="11" y="4" width="1" height="1" fill="rgb(128,128,128)" fill-opacity="0.015625"/>
  <rect x="11" y="5" width="1" height="1" fill="rgb(170,170,170)" fill-opacity="0.015625"/>
  <rect x="11" y="6" width="1" height="1" fill="rgb(26,26,26)" fill-opacity="0.7578125"/>
  <rect x="11" y="7" width="1" height="1" fill="rgb(255,255,255)"/>
  <rect x="11" y="8" width="1" height="1" fill="rgb(26,26,26)" fill-opacity="0.7578125"/>
  <rect x="11" y="9" width="1" height="1" fill="rgb(170,170,170)" fill-opacity="0.015625"/>
  <rect x="11" y="10" width="1" height="2" fill="rgb(255,255,255)" fill-opacity="0.015625"/>
  <rect x="11" y="12" width="1" height="1" fill="rgb(170,170,170)" fill-opacity="0.015625"/>
  <rect x="11" y="13" width="1" height="1" fill="rgb(26,26,26)" fill-opacity="0.7578125"/>
  <rect x="11" y="14" width="1" height="1" fill="rgb(255,255,255)"/>
  <rect x="11" y="15" width="1" height="1" fill="rgb(26,26,26)" fill-opacity="0.7578125"/>
  <rect x="11" y="16" width="1" height="1" fill="rgb(170,170,170)" fill-opacity="0.015625"/>
  <rect x="11" y="17" width="1" height="1" fill="rgb(128,128,128)" fill-opacity="0.015625"/>
  <rect x="11" y="18" width="1" height="1" fill="rgb(0,0,0)" fill-opacity="0.0078125"/>
  <rect x="11" y="19" width="1" height="2" fill="rgb(255,255,255)" fill-opacity="0.0078125"/>
  <rect x="12" y="0" width="1" height="3" fill="rgb(255,255,255)" fill-opacity="0.0078125"/>
  <rect x="12" y="3" width="1" height="1" fill="rgb(0,0,0)" fill-opacity="0.0078125"/>
  <rect x="12" y="4" width="1" height="1" fill="rgb(128,128,128)" fill-opacity="0.015625"/>
  <rect x="12" y="5" width="1" height="1" fill="rgb(170,170,170)" fill-opacity="0.015625"/>
  <rect x="12" y="6" width="1" height="1" fill="rgb(26,26,26)" fill-opacity="0.7578125"/>
  <rect x="12" y="7" width="1" height="1" fill="rgb(255,255,255)"/>
  <rect x="12" y="8" width="1" height="1" fill="rgb(26,26,26)" fill-opacity="0.7578125"/>
  <rect x="12" y="9" width="1" height="1" fill="rgb(255,255,255)" fill-opacity="0.015625"/>
  <rect x="12" y="10" width="1" height="2" fill="rgb(170,170,170)" fill-opacity="0.015625"/>
  <rect x="12" y="12" width="1" height="1" fill="rgb(255,255,255)" fill-opacity="0.015625"/>
  <rect x="12" y="13" width="1" height="1" fill="rgb(26,26,26)" fill-opacity="0.7578125"/>
  <rect x="12" y="14" width="1" height="1" fill="rgb(255,255,255)"/>
  <rect x="12" y="15" width="1" height="1" fill="rgb(26,26,26)" fill-opacity="0.7578125"/>
  <rect x="12" y="16" width="1" height="1" fill="rgb(170,170,170)" fill-opacity="0.015625"/>
  <rect x="12" y="17" width="1" height="1" fill="rgb(128,128,128)" fill-opacity="0.015625"/>
  <rect x="12" y="18" width="1" height="1" fill="rgb(0,0,0)" fill-opacity="0.0078125"/>
  <rect x="12" y="19" width="1" height="2" fill="rgb(255,255,255)" fill-opacity="0.0078125"/>
  <rect x="13" y="0" width="1" height="3" fill="rgb(255,255,255)" fill-opacity="0.0078125"/>
  <rect x="13" y="3" width="1" height="1" fill="rgb(28,28,28)" fill-opacity="0.078125"/>
  <rect x="13" y="4" width="1" height="1" fill="rgb(27,27,27)" fill-opacity="0.453125"/>
  <rect x="13" y="5" width="1" height="1" fill="rgb(26,26,26)" fill-opacity="0.7578125"/>
  <rect x="13" y="6" width="1" height="1" fill="rgb(27,27,27)" fill-opacity="0.9453125"/>
  <rect x="13" y="7" width="1" height="1" fill="rgb(255,255,255)"/>
  <rect x="13" y="8" width="1" height="1" fill="rgb(27,27,27)" fill-opacity="0.7109375"/>
  <rect x="13" y="9" width="1" height="4" fill="rgb(26,26,26)" fill-opacity="0.7578125"/>
  <rect x="13" y="13" width="1" height="1" fill="rgb(27,27,27)" fill-opacity="0.7109375"/>
  <rect x="13" y="14" width="1" height="1" fill="rgb(255,255,255)"/>
  <rect x="13" y="15" width="1" height="1" fill="rgb(27,27,27)" fill-opacity="0.9453125"/>
  <rect x="13" y="16" width="1" height="1" fill="rgb(26,26,26)" fill-opacity="0.7578125"/>
  <rect x="13" y="17" width="1" height="1" fill="rgb(27,27,27)" fill-opacity="0.4453125"/>
  <rect x="13" y="18" width="1" height="1" fill="rgb(28,28,28)" fill-opacity="0.078125"/>
  <rect x="13" y="19" width="1" height="2" fill="rgb(255,255,255)" fill-opacity="0.0078125"/>
  <rect x="14" y="0" width="1" height="3" fill="rgb(255,255,255)" fill-opacity="0.0078125"/>
  <rect x="14" y="3" width="1" height="1" fill="rgb(224,224,224)" fill-opacity="0.203125"/>
  <rect x="14" y="4" width="1" height="1" fill="rgb(255,255,255)" fill-opacity="0.6015625"/>
  <rect x="14" y="5" width="1" height="2" fill="rgb(255,255,255)"/>
  <rect x="14" y="7" width="1" height="1" fill="rgb(255,255,255)" fill-opacity="0.7578125"/>
  <rect x="14" y="8" width="1" height="6" fill="rgb(255,255,255)"/>
  <rect x="14" y="14" width="1" height="1" fill="rgb(255,255,255)" fill-opacity="0.7578125"/>
  <rect x="14" y="15" width="1" height="2" fill="rgb(255,255,255)"/>
  <rect x="14" y="17" width="1" height="1" fill="rgb(255,255,255)" fill-opacity="0.6015625"/>
  <rect x="14" y="18" width="1" height="1" fill="rgb(224,224,224)" fill-opacity="0.203125"/>
  <rect x="14" y="19" width="1" height="2" fill="rgb(255,255,255)" fill-opacity="0.0078125"/>
  <rect x="15" y="0" width="1" height="3" fill="rgb(255,255,255)" fill-opacity="0.0078125"/>
  <rect x="15" y="3" width="1" height="1" fill="rgb(28,28,28)" fill-opacity="0.078125"/>
  <rect x="15" y="4" width="1" height="1" fill="rgb(27,27,27)" fill-opacity="0.4453125"/>
  <rect x="15" y="5" width="1" height="1" fill="rgb(26,26,26)" fill-opacity="0.7578125"/>
  <rect x="15" y="6" width="1" height="1" fill="rgb(27,27,27)" fill-opacity="0.7109375"/>
  <rect x="15" y="7" width="1" height="1" fill="rgb(255,255,255)"/>
  <rect x="15" y="8" width="1" height="1" fill="rgb(27,27,27)" fill-opacity="0.9453125"/>
  <rect x="15" y="9" width="1" height="4" fill="rgb(26,26,26)" fill-opacity="0.7578125"/>
  <rect x="15" y="13" width="1" height="1" fill="rgb(27,27,27)" fill-opacity="0.9453125"/>
  <rect x="15" y="14" width="1" height="1" fill="rgb(255,255,255)"/>
  <rect x="15" y="15" width="1" height="1" fill="rgb(27,27,27)" fill-opacity="0.7109375"/>
  <rect x="15" y="16" width="1" height="1" fill="rgb(26,26,26)" fill-opacity="0.7578125"/>
  <rect x="15" y="17" width="1" height="1" fill="rgb(27,27,27)" fill-opacity="0.453125"/>
  <rect x="15" y="18" width="1" height="1" fill="rgb(28,28,28)" fill-opacity="0.078125"/>
  <rect x="15" y="19" width="1" height="2" fill="rgb(255,255,255)" fill-opacity="0.0078125"/>
  <rect x="16" y="0" width="1" height="3" fill="rgb(255,255,255)" fill-opacity="0.0078125"/>
  <rect x="16" y="3" width="1" height="1" fill="rgb(0,0,0)" fill-opacity="0.0078125"/>
  <rect x="16" y="4" width="1" height="1" fill="rgb(128,128,128)" fill-opacity="0.015625"/>
  <rect x="16" y="5" width="1" height="1" fill="rgb(255,255,255)" fill-opacity="0.015625"/>
  <rect x="16" y="6" width="1" height="1" fill="rgb(26,26,26)" fill-opacity="0.7578125"/>
  <rect x="16" y="7" width="1" height="1" fill="rgb(255,255,255)"/>
  <rect x="16" y="8" width="1" height="1" fill="rgb(26,26,26)" fill-opacity="0.7578125"/>
  <rect x="16" y="9" width="1" height="4" fill="rgb(170,170,170)" fill-opacity="0.015625"/>
  <rect x="16" y="13" width="1" height="1" fill="rgb(26,26,26)" fill-opacity="0.7578125"/>
  <rect x="16" y="14" width="1" height="1" fill="rgb(255,255,255)"/>
  <rect x="16" y="15" width="1" height="1" fill="rgb(26,26,26)" fill-opacity="0.7578125"/>
  <rect x="16" y="16" width="1" height="1" fill="rgb(255,255,255)" fill-opacity="0.015625"/>
  <rect x="16" y="17" width="1" height="1" fill="rgb(128,128,128)" fill-opacity="0.015625"/>
  <rect x="16" y="18" width="1" height="1" fill="rgb(0,0,0)" fill-opacity="0.0078125"/>
  <rect x="16" y="19" width="1" height="2" fill="rgb(255,255,255)" fill-opacity="0.0078125"/>
  <rect x="17" y="0" width="1" height="3" fill="rgb(255,255,255)" fill-opacity="0.0078125"/>
  <rect x="17" y="3" width="1" height="1" fill="rgb(0,0,0)" fill-opacity="0.0078125"/>
  <rect x="17" y="4" width="1" height="1" fill="rgb(255,255,255)" fill-opacity="0.0078125"/>
  <rect x="17" y="5" width="1" height="1" fill="rgb(128,128,128)" fill-opacity="0.015625"/>
  <rect x="17" y="6" width="1" height="1" fill="rgb(27,27,27)" fill-opacity="0.453125"/>
  <rect x="17" y="7" width="1" height="1" fill="rgb(255,255,255)" fill-opacity="0.6015625"/>
  <rect x="17" y="8" width="1" height="1" fill="rgb(27,27,27)" fill-opacity="0.4453125"/>
  <rect x="17" y="9" width="1" height="4" fill="rgb(128,128,128)" fill-opacity="0.015625"/>
  <rect x="17" y="13" width="1" height="1" fill="rgb(27,27,27)" fill-opacity="0.453125"/>
  <rect x="17" y="14" width="1" height="1" fill="rgb(255,255,255)" fill-opacity="0.6015625"/>
  <rect x="17" y="15" width="1" height="1" fill="rgb(27,27,27)" fill-opacity="0.4453125"/>
  <rect x="17" y="16" width="1" height="1" fill="rgb(128,128,128)" fill-opacity="0.015625"/>
  <rect x="17" y="17" width="1" height="1" fill="rgb(255,255,255)" fill-opacity="0.0078125"/>
  <rect x="17" y="18" width="1" height="1" fill="rgb(0,0,0)" fill-opacity="0.0078125"/>
  <rect x="17" y="19" width="1" height="2" fill="rgb(255,255,255)" fill-opacity="0.0078125"/>
  <rect x="18" y="0" width="1" height="4" fill="rgb(255,255,255)" fill-opacity="0.0078125"/>
  <rect x="18" y="4" width="1" height="2" fill="rgb(0,0,0)" fill-opacity="0.0078125"/>
  <rect x="18" y="6" width="1" height="1" fill="rgb(28,28,28)" fill-opacity="0.078125"/>
  <rect x="18" y="7" width="1" height="1" fill="rgb(224,224,224)" fill-opacity="0.203125"/>
  <rect x="18" y="8" width="1" height="1" fill="rgb(28,28,28)" fill-opacity="0.078125"/>
  <rect x="18" y="9" width="1" height="4" fill="rgb(0,0,0)" fill-opacity="0.0078125"/>
  <rect x="18" y="13" width="1" height="1" fill="rgb(28,28,28)" fill-opacity="0.078125"/>
  <rect x="18" y="14" width="1" height="1" fill="rgb(224,224,224)" fill-opacity="0.203125"/>
  <rect x="18" y="15" width="1" height="1" fill="rgb(28,28,28)" fill-opacity="0.078125"/>
  <rect x="18" y="16" width="1" height="2" fill="rgb(0,0,0)" fill-opacity="0.0078125"/>
  <rect x="18" y="18" width="1" height="3" fill="rgb(255,255,255)" fill-opacity="0.0078125"/>
  <rect x="19" y="0" width="1" height="21" fill="rgb(255,255,255)" fill-opacity="0.0078125"/>
  <rect x="20" y="0" width="1" height="21" fill="rgb(255,255,255)" fill-opacity="0.0078125"/>
</svg>