<svg xmlns="http://www.w3.org/2000/svg" shape-rendering="crispEdges" width="21" height="21" viewBox="0 0 21 21">
  <rect x="0" y="0" width="1" height="21" fill="rgb(255,255,255)" fill-opacity="0.0078125"/>
  <rect x="1" y="0" width="1" height="21" fill="rgb(255,255,255)" fill-opacity="0.0078125"/>
  <rect x="2" y="0" width="1" height="21" fill="rgb(255,255,255)" fill-opacity="0.0078125"/>
  <rect x="3" y="0" width="1" height="6" fill="rgb(255,255,255)" fill-opacity="0.0078125"/>
  <rect x="3" y="6" width="1" height="1" fill="rgb(13,25,42)" fill-opacity="0.2421875"/>
  <rect x="3" y="7" width="1" height="1" fill="rgb(12,23,40)" fill-opacity="0.6015625"/>
  <rect x="3" y="8" width="1" height="1" fill="rgb(10,26,41)" fill-opacity="0.203125"/>
  <rect x="3" y="9" width="1" height="12" fill="rgb(255,255,255)" fill-opacity="0.0078125"/>
  <rect x="4" y="0" width="1" height="6" fill="rgb(255,255,255)" fill-opacity="0.0078125"/>
  <rect x="4" y="6" width="1" height="1" fill="rgb(60,71,85)" fill-opacity="0.8828125"/>
  <rect x="4" y="7" width="1" height="1" fill="rgb(220,227,239)"/>
  <rect x="4" y="8" width="1" height="1" fill="rgb(58,70,86)" fill-opacity="0.9453125"/>
  <rect x="4" y="9" width="1" height="12" fill="rgb(255,255,255)" fill-opacity="0.0078125"/>
  <rect x="5" y="0" width="1" height="6" fill="rgb(255,255,255)" fill-opacity="0.0078125"/>
  <rect x="5" y="6" width="1" height="1" fill="rgb(88,98,112)"/>
  <rect x="5" y="7" width="1" height="1" fill="rgb(225,234,247)"/>
  <rect x="5" y="8" width="1" height="1" fill="rgb(82,94,110)"/>
  <rect x="5" y="9" width="1" height="12" fill="rgb(255,255,255)" fill-opacity="0.0078125"/>
  <rect x="6" y="0" width="1" height="6" fill="rgb(255,255,255)" fill-opacity="0.0078125"/>
  <rect x="6" y="6" width="1" height="1" fill="rgb(86,96,112)"/>
  <rect x="6" y="7" width="1" height="1" fill="rgb(220,230,245)"/>
  <rect x="6" y="8" width="1" height="1" fill="rgb(80,92,110)"/>
  <rect x="6" y="9" width="1" height="4" fill="rgb(255,255,255)" fill-opacity="0.0078125"/>
  <rect x="6" y="13" width="1" height="1" fill="rgb(0,43,43)" fill-opacity="0.03125"/>
  <rect x="6" y="14" width="1" height="1" fill="rgb(11,23,40)" fill-opacity="0.359375"/>
  <rect x="6" y="15" width="1" height="1" fill="rgb(19,33,51)" fill-opacity="0.78125"/>
  <rect x="6" y="16" width="1" height="1" fill="rgb(46,62,86)" fill-opacity="0.9375"/>
  <rect x="6" y="17" width="1" height="1" fill="rgb(12,24,41)" fill-opacity="0.4921875"/>
  <rect x="6" y="18" width="1" height="3" fill="rgb(255,255,255)" fill-opacity="0.0078125"/>
  <rect x="7" y="0" width="1" height="6" fill="rgb(255,255,255)" fill-opacity="0.0078125"/>
  <rect x="7" y="6" width="1" height="1" fill="rgb(84,95,111)"/>
  <rect x="7" y="7" width="1" height="1" fill="rgb(215,227,244)"/>
  <rect x="7" y="8" width="1" height="1" fill="rgb(78,91,109)"/>
  <rect x="7" y="9" width="1" height="2" fill="rgb(255,255,255)" fill-opacity="0.0078125"/>
  <rect x="7" y="11" width="1" height="1" fill="rgb(12,23,35)" fill-opacity="0.09375"/>
  <rect x="7" y="12" width="1" height="1" fill="rgb(10,22,40)" fill-opacity="0.5"/>
  <rect x="7" y="13" width="1" height="1" fill="rgb(38,53,73)" fill-opacity="0.9296875"/>
  <rect x="7" y="14" width="1" height="1" fill="rgb(96,116,146)"/>
  <rect x="7" y="15" width="1" height="1" fill="rgb(140,168,210)"/>
  <rect x="7" y="16" width="1" height="1" fill="rgb(139,171,217)"/>
  <rect x="7" y="17" width="1" height="1" fill="rgb(39,55,80)" fill-opacity="0.9453125"/>
  <rect x="7" y="18" width="1" height="3" fill="rgb(255,255,255)" fill-opacity="0.0078125"/>
  <rect x="8" y="0" width="1" height="6" fill="rgb(255,255,255)" fill-opacity="0.0078125"/>
  <rect x="8" y="6" width="1" height="1" fill="rgb(83,94,111)"/>
  <rect x="8" y="7" width="1" height="1" fill="rgb(210,223,242)"/>
  <rect x="8" y="8" width="1" height="1" fill="rgb(77,90,108)"/>
  <rect x="8" y="9" width="1" height="1" fill="rgb(10,21,42)" fill-opacity="0.1953125"/>
  <rect x="8" y="10" width="1" height="1" fill="rgb(13,26,43)" fill-opacity="0.625"/>
  <rect x="8" y="11" width="1" height="1" fill="rgb(62,77,98)" fill-opacity="0.984375"/>
  <rect x="8" y="12" width="1" height="1" fill="rgb(128,149,179)"/>
  <rect x="8" y="13" width="1" height="1" fill="rgb(159,186,225)"/>
  <rect x="8" y="14" width="1" height="1" fill="rgb(151,180,222)"/>
  <rect x="8" y="15" width="1" height="1" fill="rgb(120,148,189)"/>
  <rect x="8" y="16" width="1" height="1" fill="rgb(61,83,113)"/>
  <rect x="8" y="17" width="1" height="1" fill="rgb(13,27,45)" fill-opacity="0.5546875"/>
  <rect x="8" y="18" width="1" height="3" fill="rgb(255,255,255)" fill-opacity="0.0078125"/>
  <rect x="9" y="0" width="1" height="3" fill="rgb(255,255,255)" fill-opacity="0.0078125"/>
  <rect x="9" y="3" width="1" height="1" fill="rgb(9,22,35)" fill-opacity="0.234375"/>
  <rect x="9" y="4" width="1" height="1" fill="rgb(9,17,31)" fill-opacity="0.6875"/>
  <rect x="9" y="5" width="1" height="1" fill="rgb(9,16,28)" fill-opacity="0.703125"/>
  <rect x="9" y="6" width="1" height="1" fill="rgb(70,80,95)"/>
  <rect x="9" y="7" width="1" height="1" fill="rgb(205,219,239)"/>
  <rect x="9" y="8" width="1" height="1" fill="rgb(117,131,152)"/>
  <rect x="9" y="9" width="1" height="1" fill="rgb(90,106,127)"/>
  <rect x="9" y="10" width="1" height="1" fill="rgb(157,176,205)"/>
  <rect x="9" y="11" width="1" height="1" fill="rgb(171,195,229)"/>
  <rect x="9" y="12" width="1" height="1" fill="rgb(161,187,223)"/>
  <rect x="9" y="13" width="1" height="1" fill="rgb(109,130,163)"/>
  <rect x="9" y="14" width="1" height="1" fill="rgb(46,63,87)" fill-opacity="0.96875"/>
  <rect x="9" y="15" width="1" height="1" fill="rgb(12,24,41)" fill-opacity="0.59375"/>
  <rect x="9" y="16" width="1" height="1" fill="rgb(11,22,39)" fill-opacity="0.1875"/>
  <rect x="9" y="17" width="1" height="4" fill="rgb(255,255,255)" fill-opacity="0.0078125"/>
  <rect x="10" y="0" width="1" height="3" fill="rgb(255,255,255)" fill-opacity="0.0078125"/>
  <rect x="10" y="3" width="1" height="1" fill="rgb(9,18,31)" fill-opacity="0.7109375"/>
  <rect x="10" y="4" width="1" height="2" fill="rgb(196,211,235)"/>
  <rect x="10" y="6" width="1" height="1" fill="rgb(58,67,80)"/>
  <rect x="10" y="7" width="1" height="1" fill="rgb(186,200,221)"/>
  <rect x="10" y="8" width="1" height="1" fill="rgb(192,210,236)"/>
  <rect x="10" y="9" width="1" height="1" fill="rgb(184,204,233)"/>
  <rect x="10" y="10" width="1" height="1" fill="rgb(175,197,230)"/>
  <rect x="10" y="11" width="1" height="1" fill="rgb(158,181,216)"/>
  <rect x="10" y="12" width="1" height="1" fill="rgb(48,63,86)"/>
  <rect x="10" y="13" width="1" height="1" fill="rgb(11,23,40)" fill-opacity="0.828125"/>
  <rect x="10" y="14" width="1" height="1" fill="rgb(9,19,38)" fill-opacity="0.109375"/>
  <rect x="10" y="15" width="1" height="6" fill="rgb(255,255,255)" fill-opacity="0.0078125"/>
  <rect x="11" y="0" width="1" height="3" fill="rgb(255,255,255)" fill-opacity="0.0078125"/>
  <rect x="11" y="3" width="1" height="1" fill="rgb(8,18,31)" fill-opacity="0.7109375"/>
  <rect x="11" y="4" width="1" height="2" fill="rgb(200,216,240)"/>
  <rect x="11" y="6" width="1" height="1" fill="rgb(56,66,79)"/>
  <rect x="11" y="7" width="1" height="1" fill="rgb(181,196,219)"/>
  <rect x="11" y="8" width="1" height="1" fill="rgb(114,130,154)"/>
  <rect x="11" y="9" width="1" height="1" fill="rgb(86,102,125)"/>
  <rect x="11" y="10" width="1" height="1" fill="rgb(148,170,202)"/>
  <rect x="11" y="11" width="1" height="1" fill="rgb(162,188,225)"/>
  <rect x="11" y="12" width="1" height="1" fill="rgb(151,179,219)"/>
  <rect x="11" y="13" width="1" height="1" fill="rgb(102,125,161)"/>
  <rect x="11" y="14" width="1" height="1" fill="rgb(44,61,86)" fill-opacity="0.96875"/>
  <rect x="11" y="15" width="1" height="1" fill="rgb(12,24,41)" fill-opacity="0.59375"/>
  <rect x="11" y="16" width="1" height="1" fill="rgb(11,22,39)" fill-opacity="0.1875"/>
  <rect x="11" y="17" width="1" height="4" fill="rgb(255,255,255)" fill-opacity="0.0078125"/>
  <rect x="12" y="0" width="1" height="3" fill="rgb(255,255,255)" fill-opacity="0.0078125"/>
  <rect x="12" y="3" width="1" height="1" fill="rgb(8,19,35)" fill-opacity="0.265625"/>
  <rect x="12" y="4" width="1" height="1" fill="rgb(17,28,40)" fill-opacity="0.7265625"/>
  <rect x="12" y="5" width="1" height="1" fill="rgb(16,26,38)" fill-opacity="0.7421875"/>
  <rect x="12" y="6" width="1" height="1" fill="rgb(65,77,93)"/>
  <rect x="12" y="7" width="1" height="1" fill="rgb(190,207,233)"/>
  <rect x="12" y="8" width="1" height="1" fill="rgb(70,85,106)"/>
  <rect x="12" y="9" width="1" height="1" fill="rgb(10,26,41)" fill-opacity="0.203125"/>
  <rect x="12" y="10" width="1" height="1" fill="rgb(13,24,43)" fill-opacity="0.625"/>
  <rect x="12" y="11" width="1" height="1" fill="rgb(56,72,97)" fill-opacity="0.984375"/>
  <rect x="12" y="12" width="1" height="1" fill="rgb(113,139,175)"/>
  <rect x="12" y="13" width="1" height="1" fill="rgb(140,172,218)"/>
  <rect x="12" y="14" width="1" height="1" fill="rgb(131,165,215)"/>
  <rect x="12" y="15" width="1" height="1" fill="rgb(104,136,183)"/>
  <rect x="12" y="16" width="1" height="1" fill="rgb(53,75,108)"/>
  <rect x="12" y="17" width="1" height="1" fill="rgb(10,23,39)" fill-opacity="0.4921875"/>
  <rect x="12" y="18" width="1" height="3" fill="rgb(255,255,255)" fill-opacity="0.0078125"/>
  <rect x="13" y="0" width="1" height="6" fill="rgb(255,255,255)" fill-opacity="0.0078125"/>
  <rect x="13" y="6" width="1" height="1" fill="rgb(74,88,108)"/>
  <rect x="13" y="7" width="1" height="1" fill="rgb(186,205,234)"/>
  <rect x="13" y="8" width="1" height="1" fill="rgb(68,84,106)"/>
  <rect x="13" y="9" width="1" height="2" fill="rgb(255,255,255)" fill-opacity="0.0078125"/>
  <rect x="13" y="11" width="1" height="1" fill="rgb(12,23,35)" fill-opacity="0.09375"/>
  <rect x="13" y="12" width="1" height="1" fill="rgb(10,22,40)" fill-opacity="0.5"/>
  <rect x="13" y="13" width="1" height="1" fill="rgb(32,49,72)" fill-opacity="0.9296875"/>
  <rect x="13" y="14" width="1" height="1" fill="rgb(78,103,140)"/>
  <rect x="13" y="15" width="1" height="1" fill="rgb(113,148,200)"/>
  <rect x="13" y="16" width="1" height="1" fill="rgb(109,150,208)"/>
  <rect x="13" y="17" width="1" height="1" fill="rgb(32,50,79)" fill-opacity="0.9453125"/>
  <rect x="13" y="18" width="1" height="3" fill="rgb(255,255,255)" fill-opacity="0.0078125"/>
  <rect x="14" y="0" width="1" height="6" fill="rgb(255,255,255)" fill-opacity="0.0078125"/>
  <rect x="14" y="6" width="1" height="1" fill="rgb(73,87,107)"/>
  <rect x="14" y="7" width="1" height="1" fill="rgb(181,202,232)"/>
  <rect x="14" y="8" width="1" height="1" fill="rgb(67,83,105)"/>
  <rect x="14" y="9" width="1" height="4" fill="rgb(255,255,255)" fill-opacity="0.0078125"/>
  <rect x="14" y="13" width="1" height="1" fill="rgb(0,43,43)" fill-opacity="0.03125"/>
  <rect x="14" y="14" width="1" height="1" fill="rgb(11,23,40)" fill-opacity="0.3515625"/>
  <rect x="14" y="15" width="1" height="1" fill="rgb(17,31,51)" fill-opacity="0.78125"/>
  <rect x="14" y="16" width="1" height="1" fill="rgb(36,54,84)" fill-opacity="0.9765625"/>
  <rect x="14" y="17" width="1" height="1" fill="rgb(12,27,43)" fill-opacity="0.4921875"/>
  <rect x="14" y="18" width="1" height="3" fill="rgb(255,255,255)" fill-opacity="0.0078125"/>
  <rect x="15" y="0" width="1" height="6" fill="rgb(255,255,255)" fill-opacity="0.0078125"/>
  <rect x="15" y="6" width="1" height="1" fill="rgb(71,85,106)"/>
  <rect x="15" y="7" width="1" height="1" fill="rgb(176,198,230)"/>
  <rect x="15" y="8" width="1" height="1" fill="rgb(65,81,104)"/>
  <rect x="15" y="9" width="1" height="7" fill="rgb(255,255,255)" fill-opacity="0.0078125"/>
  <rect x="15" y="16" width="1" height="1" fill="rgb(0,0,0)" fill-opacity="0.0078125"/>
  <rect x="15" y="17" width="1" height="4" fill="rgb(255,255,255)" fill-opacity="0.0078125"/>
  <rect x="16" y="0" width="1" height="6" fill="rgb(255,255,255)" fill-opacity="0.0078125"/>
  <rect x="16" y="6" width="1" height="1" fill="rgb(50,65,85)" fill-opacity="0.953125"/>
  <rect x="16" y="7" width="1" height="1" fill="rgb(168,191,226)"/>
  <rect x="16" y="8" width="1" height="1" fill="rgb(48,63,84)" fill-opacity="0.90625"/>
  <rect x="16" y="9" width="1" height="12" fill="rgb(255,255,255)" fill-opacity="0.0078125"/>
  <rect x="17" y="0" width="1" height="6" fill="rgb(255,255,255)" fill-opacity="0.0078125"/>
  <rect x="17" y="6" width="1" height="1" fill="rgb(9,23,41)" fill-opacity="0.2265625"/>
  <rect x="17" y="7" width="1" height="1" fill="rgb(16,28,46)" fill-opacity="0.640625"/>
  <rect x="17" y="8" width="1" height="1" fill="rgb(12,23,39)" fill-opacity="0.265625"/>
  <rect x="17" y="9" width="1" height="12" fill="rgb(255,255,255)" fill-opacity="0.0078125"/>
  <rect x="18" y="0" width="1" height="21" fill="rgb(255,255,255)" fill-opacity="0.0078125"/>
  <rect x="19" y="0" width="1" height="21" fill="rgb(255,255,255)" fill-opacity="0.0078125"/>
  <rect x="20" y="0" width="1" height="21" fill="rgb(255,255,255)" fill-opacity="0.0078125"/>
</svg>