<svg xmlns="http://www.w3.org/2000/svg" shape-rendering="crispEdges" width="21" height="21" viewBox="0 0 21 21">
  <rect x="0" y="0" width="21" height="1" fill="rgb(255,255,255)" fill-opacity="0.0078125"/>
  <rect x="0" y="1" width="21" height="1" fill="rgb(255,255,255)" fill-opacity="0.0078125"/>
  <rect x="0" y="2" width="21" height="1" fill="rgb(255,255,255)" fill-opacity="0.0078125"/>
  <rect x="0" y="3" width="21" height="1" fill="rgb(255,255,255)" fill-opacity="0.0078125"/>
  <rect x="0" y="4" width="4" height="1" fill="rgb(255,255,255)" fill-opacity="0.0078125"/>
  <rect x="4" y="4" width="1" height="1" fill="rgb(38,38,38)" fill-opacity="0.796875"/>
  <rect x="5" y="4" width="1" height="1" fill="rgb(44,44,44)" fill-opacity="0.9140625"/>
  <rect x="6" y="4" width="2" height="1" fill="rgb(47,47,47)" fill-opacity="0.9140625"/>
  <rect x="8" y="4" width="4" height="1" fill="rgb(48,48,48)" fill-opacity="0.9140625"/>
  <rect x="12" y="4" width="4" height="1" fill="rgb(49,49,49)" fill-opacity="0.9140625"/>
  <rect x="16" y="4" width="1" height="1" fill="rgb(47,47,47)" fill-opacity="0.9140625"/>
  <rect x="17" y="4" width="1" height="1" fill="rgb(40,40,40)" fill-opacity="0.796875"/>
  <rect x="18" y="4" width="3" height="1" fill="rgb(255,255,255)" fill-opacity="0.0078125"/>
  <rect x="0" y="5" width="4" height="1" fill="rgb(255,255,255)" fill-opacity="0.0078125"/>
  <rect x="4" y="5" width="1" height="1" fill="rgb(41,41,41)" fill-opacity="0.9140625"/>
  <rect x="5" y="5" width="1" height="1" fill="rgb(229,229,229)"/>
  <rect x="6" y="5" width="1" height="1" fill="rgb(237,237,237)"/>
  <rect x="7" y="5" width="2" height="1" fill="rgb(238,238,238)"/>
  <rect x="9" y="5" width="2" height="1" fill="rgb(239,239,239)"/>
  <rect x="11" y="5" width="2" height="1" fill="rgb(240,240,240)"/>
  <rect x="13" y="5" width="2" height="1" fill="rgb(241,241,241)"/>
  <rect x="15" y="5" width="1" height="1" fill="rgb(238,238,238)"/>
  <rect x="16" y="5" width="1" height="1" fill="rgb(232,232,232)"/>
  <rect x="17" y="5" width="1" height="1" fill="rgb(49,49,49)" fill-opacity="0.8984375"/>
  <rect x="18" y="5" width="3" height="1" fill="rgb(255,255,255)" fill-opacity="0.0078125"/>
  <rect x="0" y="6" width="4" height="1" fill="rgb(255,255,255)" fill-opacity="0.0078125"/>
  <rect x="4" y="6" width="1" height="1" fill="rgb(41,41,41)" fill-opacity="0.9140625"/>
  <rect x="5" y="6" width="1" height="1" fill="rgb(237,237,237)"/>
  <rect x="6" y="6" width="1" height="1" fill="rgb(179,179,179)"/>
  <rect x="7" y="6" width="1" height="1" fill="rgb(180,180,180)"/>
  <rect x="8" y="6" width="1" height="1" fill="rgb(181,181,181)"/>
  <rect x="9" y="6" width="1" height="1" fill="rgb(183,183,183)"/>
  <rect x="10" y="6" width="1" height="1" fill="rgb(185,185,185)"/>
  <rect x="11" y="6" width="1" height="1" fill="rgb(188,188,188)"/>
  <rect x="12" y="6" width="1" height="1" fill="rgb(110,150,209)"/>
  <rect x="13" y="6" width="1" height="1" fill="rgb(98,143,211)"/>
  <rect x="14" y="6" width="1" height="1" fill="rgb(87,119,165)"/>
  <rect x="15" y="6" width="1" height="1" fill="rgb(196,196,196)"/>
  <rect x="16" y="6" width="1" height="1" fill="rgb(231,231,231)"/>
  <rect x="17" y="6" width="1" height="1" fill="rgb(50,50,50)" fill-opacity="0.8984375"/>
  <rect x="18" y="6" width="3" height="1" fill="rgb(255,255,255)" fill-opacity="0.0078125"/>
  <rect x="0" y="7" width="4" height="1" fill="rgb(255,255,255)" fill-opacity="0.0078125"/>
  <rect x="4" y="7" width="1" height="1" fill="rgb(41,41,41)" fill-opacity="0.9140625"/>
  <rect x="5" y="7" width="1" height="1" fill="rgb(238,238,238)"/>
  <rect x="6" y="7" width="1" height="1" fill="rgb(86,86,86)"/>
  <rect x="7" y="7" width="5" height="1" fill="rgb(77,77,77)"/>
  <rect x="12" y="7" width="1" height="1" fill="rgb(95,141,211)"/>
  <rect x="13" y="7" width="1" height="1" fill="rgb(211,224,243)"/>
  <rect x="14" y="7" width="1" height="1" fill="rgb(52,77,116)"/>
  <rect x="15" y="7" width="1" height="1" fill="rgb(78,78,78)"/>
  <rect x="16" y="7" width="1" height="1" fill="rgb(228,228,228)"/>
  <rect x="17" y="7" width="1" height="1" fill="rgb(49,49,49)" fill-opacity="0.8984375"/>
  <rect x="18" y="7" width="3" height="1" fill="rgb(255,255,255)" fill-opacity="0.0078125"/>
  <rect x="0" y="8" width="4" height="1" fill="rgb(255,255,255)" fill-opacity="0.0078125"/>
  <rect x="4" y="8" width="1" height="1" fill="rgb(42,42,42)" fill-opacity="0.9140625"/>
  <rect x="5" y="8" width="1" height="1" fill="rgb(239,239,239)"/>
  <rect x="6" y="8" width="6" height="1" fill="rgb(255,255,255)"/>
  <rect x="12" y="8" width="1" height="1" fill="rgb(95,141,211)"/>
  <rect x="13" y="8" width="1" height="1" fill="rgb(215,227,244)"/>
  <rect x="14" y="8" width="1" height="1" fill="rgb(52,77,116)"/>
  <rect x="15" y="8" width="1" height="1" fill="rgb(229,229,229)"/>
  <rect x="16" y="8" width="1" height="1" fill="rgb(226,226,226)"/>
  <rect x="17" y="8" width="1" height="1" fill="rgb(48,48,48)" fill-opacity="0.8984375"/>
  <rect x="18" y="8" width="3" height="1" fill="rgb(255,255,255)" fill-opacity="0.0078125"/>
  <rect x="0" y="9" width="4" height="1" fill="rgb(255,255,255)" fill-opacity="0.0078125"/>
  <rect x="4" y="9" width="1" height="1" fill="rgb(42,42,42)" fill-opacity="0.9140625"/>
  <rect x="5" y="9" width="1" height="1" fill="rgb(239,239,239)"/>
  <rect x="6" y="9" width="1" height="1" fill="rgb(184,184,184)"/>
  <rect x="7" y="9" width="1" height="1" fill="rgb(185,185,185)"/>
  <rect x="8" y="9" width="1" height="1" fill="rgb(187,187,187)"/>
  <rect x="9" y="9" width="1" height="1" fill="rgb(189,189,189)"/>
  <rect x="10" y="9" width="1" height="1" fill="rgb(191,191,191)"/>
  <rect x="11" y="9" width="1" height="1" fill="rgb(193,193,193)"/>
  <rect x="12" y="9" width="1" height="1" fill="rgb(83,115,164)"/>
  <rect x="13" y="9" width="1" height="1" fill="rgb(56,81,119)"/>
  <rect x="14" y="9" width="1" height="1" fill="rgb(59,81,116)"/>
  <rect x="15" y="9" width="1" height="1" fill="rgb(181,181,181)"/>
  <rect x="16" y="9" width="1" height="1" fill="rgb(223,223,223)"/>
  <rect x="17" y="9" width="1" height="1" fill="rgb(48,48,48)" fill-opacity="0.8984375"/>
  <rect x="18" y="9" width="3" height="1" fill="rgb(255,255,255)" fill-opacity="0.0078125"/>
  <rect x="0" y="10" width="4" height="1" fill="rgb(255,255,255)" fill-opacity="0.0078125"/>
  <rect x="4" y="10" width="1" height="1" fill="rgb(42,42,42)" fill-opacity="0.9140625"/>
  <rect x="5" y="10" width="1" height="1" fill="rgb(239,239,239)"/>
  <rect x="6" y="10" width="1" height="1" fill="rgb(186,186,186)"/>
  <rect x="7" y="10" width="1" height="1" fill="rgb(187,187,187)"/>
  <rect x="8" y="10" width="1" height="1" fill="rgb(189,189,189)"/>
  <rect x="9" y="10" width="1" height="1" fill="rgb(190,190,190)"/>
  <rect x="10" y="10" width="1" height="1" fill="rgb(193,193,193)"/>
  <rect x="11" y="10" width="1" height="1" fill="rgb(195,195,195)"/>
  <rect x="12" y="10" width="1" height="1" fill="rgb(193,194,195)"/>
  <rect x="13" y="10" width="1" height="1" fill="rgb(174,175,177)"/>
  <rect x="14" y="10" width="1" height="1" fill="rgb(177,178,179)"/>
  <rect x="15" y="10" width="1" height="1" fill="rgb(182,182,182)"/>
  <rect x="16" y="10" width="1" height="1" fill="rgb(221,221,221)"/>
  <rect x="17" y="10" width="1" height="1" fill="rgb(48,48,48)" fill-opacity="0.8984375"/>
  <rect x="18" y="10" width="3" height="1" fill="rgb(255,255,255)" fill-opacity="0.0078125"/>
  <rect x="0" y="11" width="4" height="1" fill="rgb(255,255,255)" fill-opacity="0.0078125"/>
  <rect x="4" y="11" width="1" height="1" fill="rgb(42,42,42)" fill-opacity="0.9140625"/>
  <rect x="5" y="11" width="1" height="1" fill="rgb(240,240,240)"/>
  <rect x="6" y="11" width="1" height="1" fill="rgb(188,188,188)"/>
  <rect x="7" y="11" width="1" height="1" fill="rgb(189,189,189)"/>
  <rect x="8" y="11" width="1" height="1" fill="rgb(190,190,190)"/>
  <rect x="9" y="11" width="1" height="1" fill="rgb(193,193,193)"/>
  <rect x="10" y="11" width="1" height="1" fill="rgb(195,195,195)"/>
  <rect x="11" y="11" width="1" height="1" fill="rgb(197,197,197)"/>
  <rect x="12" y="11" width="1" height="1" fill="rgb(199,199,199)"/>
  <rect x="13" y="11" width="1" height="1" fill="rgb(200,200,200)"/>
  <rect x="14" y="11" width="1" height="1" fill="rgb(202,202,202)"/>
  <rect x="15" y="11" width="1" height="1" fill="rgb(204,204,204)"/>
  <rect x="16" y="11" width="1" height="1" fill="rgb(219,219,219)"/>
  <rect x="17" y="11" width="1" height="1" fill="rgb(48,48,48)" fill-opacity="0.90625"/>
  <rect x="18" y="11" width="3" height="1" fill="rgb(255,255,255)" fill-opacity="0.0078125"/>
  <rect x="0" y="12" width="4" height="1" fill="rgb(255,255,255)" fill-opacity="0.0078125"/>
  <rect x="4" y="12" width="1" height="1" fill="rgb(42,42,42)" fill-opacity="0.9140625"/>
  <rect x="5" y="12" width="1" height="1" fill="rgb(241,241,241)"/>
  <rect x="6" y="12" width="1" height="1" fill="rgb(182,182,182)"/>
  <rect x="7" y="12" width="1" height="1" fill="rgb(183,183,183)"/>
  <rect x="8" y="12" width="1" height="1" fill="rgb(107,148,210)"/>
  <rect x="9" y="12" width="1" height="1" fill="rgb(95,141,211)"/>
  <rect x="10" y="12" width="1" height="1" fill="rgb(80,112,159)"/>
  <rect x="11" y="12" width="1" height="1" fill="rgb(191,191,191)"/>
  <rect x="12" y="12" width="1" height="1" fill="rgb(192,192,192)"/>
  <rect x="13" y="12" width="1" height="1" fill="rgb(195,195,195)"/>
  <rect x="14" y="12" width="1" height="1" fill="rgb(197,197,197)"/>
  <rect x="15" y="12" width="1" height="1" fill="rgb(202,202,202)"/>
  <rect x="16" y="12" width="1" height="1" fill="rgb(218,218,218)"/>
  <rect x="17" y="12" width="1" height="1" fill="rgb(47,47,47)" fill-opacity="0.90625"/>
  <rect x="18" y="12" width="3" height="1" fill="rgb(255,255,255)" fill-opacity="0.0078125"/>
  <rect x="0" y="13" width="4" height="1" fill="rgb(255,255,255)" fill-opacity="0.0078125"/>
  <rect x="4" y="13" width="1" height="1" fill="rgb(43,43,43)" fill-opacity="0.9140625"/>
  <rect x="5" y="13" width="1" height="1" fill="rgb(241,241,241)"/>
  <rect x="6" y="13" width="2" height="1" fill="rgb(84,84,84)"/>
  <rect x="8" y="13" width="1" height="1" fill="rgb(95,141,211)"/>
  <rect x="9" y="13" width="1" height="1" fill="rgb(215,227,244)"/>
  <rect x="10" y="13" width="1" height="1" fill="rgb(52,77,116)"/>
  <rect x="11" y="13" width="1" height="1" fill="rgb(76,76,76)"/>
  <rect x="12" y="13" width="3" height="1" fill="rgb(84,84,84)"/>
  <rect x="15" y="13" width="1" height="1" fill="rgb(87,87,87)"/>
  <rect x="16" y="13" width="1" height="1" fill="rgb(217,217,217)"/>
  <rect x="17" y="13" width="1" height="1" fill="rgb(47,47,47)" fill-opacity="0.90625"/>
  <rect x="18" y="13" width="3" height="1" fill="rgb(255,255,255)" fill-opacity="0.0078125"/>
  <rect x="0" y="14" width="4" height="1" fill="rgb(255,255,255)" fill-opacity="0.0078125"/>
  <rect x="4" y="14" width="1" height="1" fill="rgb(43,43,43)" fill-opacity="0.9140625"/>
  <rect x="5" y="14" width="1" height="1" fill="rgb(242,242,242)"/>
  <rect x="6" y="14" width="2" height="1" fill="rgb(251,251,251)"/>
  <rect x="8" y="14" width="1" height="1" fill="rgb(94,140,209)"/>
  <rect x="9" y="14" width="1" height="1" fill="rgb(208,220,239)"/>
  <rect x="10" y="14" width="1" height="1" fill="rgb(52,77,116)"/>
  <rect x="11" y="14" width="1" height="1" fill="rgb(226,226,226)"/>
  <rect x="12" y="14" width="4" height="1" fill="rgb(252,252,252)"/>
  <rect x="16" y="14" width="1" height="1" fill="rgb(215,215,215)"/>
  <rect x="17" y="14" width="1" height="1" fill="rgb(46,46,46)" fill-opacity="0.90625"/>
  <rect x="18" y="14" width="3" height="1" fill="rgb(255,255,255)" fill-opacity="0.0078125"/>
  <rect x="0" y="15" width="4" height="1" fill="rgb(255,255,255)" fill-opacity="0.0078125"/>
  <rect x="4" y="15" width="1" height="1" fill="rgb(43,43,43)" fill-opacity="0.9140625"/>
  <rect x="5" y="15" width="1" height="1" fill="rgb(242,242,242)"/>
  <rect x="6" y="15" width="1" height="1" fill="rgb(195,195,195)"/>
  <rect x="7" y="15" width="1" height="1" fill="rgb(197,197,197)"/>
  <rect x="8" y="15" width="1" height="1" fill="rgb(90,121,166)"/>
  <rect x="9" y="15" width="1" height="1" fill="rgb(58,84,121)"/>
  <rect x="10" y="15" width="1" height="1" fill="rgb(64,87,120)"/>
  <rect x="11" y="15" width="1" height="1" fill="rgb(184,184,184)"/>
  <rect x="12" y="15" width="1" height="1" fill="rgb(207,207,207)"/>
  <rect x="13" y="15" width="1" height="1" fill="rgb(208,208,208)"/>
  <rect x="14" y="15" width="1" height="1" fill="rgb(210,210,210)"/>
  <rect x="15" y="15" width="1" height="1" fill="rgb(212,212,212)"/>
  <rect x="16" y="15" width="1" height="1" fill="rgb(215,215,215)"/>
  <rect x="17" y="15" width="1" height="1" fill="rgb(46,46,46)" fill-opacity="0.90625"/>
  <rect x="18" y="15" width="3" height="1" fill="rgb(255,255,255)" fill-opacity="0.0078125"/>
  <rect x="0" y="16" width="4" height="1" fill="rgb(255,255,255)" fill-opacity="0.0078125"/>
  <rect x="4" y="16" width="1" height="1" fill="rgb(43,43,43)" fill-opacity="0.9140625"/>
  <rect x="5" y="16" width="1" height="1" fill="rgb(232,232,232)"/>
  <rect x="6" y="16" width="1" height="1" fill="rgb(234,234,234)"/>
  <rect x="7" y="16" width="1" height="1" fill="rgb(230,230,230)"/>
  <rect x="8" y="16" width="1" height="1" fill="rgb(227,227,227)"/>
  <rect x="9" y="16" width="1" height="1" fill="rgb(213,213,213)"/>
  <rect x="10" y="16" width="1" height="1" fill="rgb(209,209,209)"/>
  <rect x="11" y="16" width="1" height="1" fill="rgb(206,206,206)"/>
  <rect x="12" y="16" width="1" height="1" fill="rgb(219,219,219)"/>
  <rect x="13" y="16" width="1" height="1" fill="rgb(217,217,217)"/>
  <rect x="14" y="16" width="2" height="1" fill="rgb(216,216,216)"/>
  <rect x="16" y="16" width="1" height="1" fill="rgb(217,217,217)"/>
  <rect x="17" y="16" width="1" height="1" fill="rgb(46,46,46)" fill-opacity="0.90625"/>
  <rect x="18" y="16" width="3" height="1" fill="rgb(255,255,255)" fill-opacity="0.0078125"/>
  <rect x="0" y="17" width="4" height="1" fill="rgb(255,255,255)" fill-opacity="0.0078125"/>
  <rect x="4" y="17" width="1" height="1" fill="rgb(41,41,41)" fill-opacity="0.7734375"/>
  <rect x="5" y="17" width="1" height="1" fill="rgb(45,45,45)" fill-opacity="0.890625"/>
  <rect x="6" y="17" width="4" height="1" fill="rgb(46,46,46)" fill-opacity="0.890625"/>
  <rect x="10" y="17" width="4" height="1" fill="rgb(47,47,47)" fill-opacity="0.890625"/>
  <rect x="14" y="17" width="3" height="1" fill="rgb(49,49,49)" fill-opacity="0.890625"/>
  <rect x="17" y="17" width="1" height="1" fill="rgb(44,44,44)" fill-opacity="0.7734375"/>
  <rect x="18" y="17" width="3" height="1" fill="rgb(255,255,255)" fill-opacity="0.0078125"/>
  <rect x="0" y="18" width="21" height="1" fill="rgb(255,255,255)" fill-opacity="0.0078125"/>
  <rect x="0" y="19" width="21" height="1" fill="rgb(255,255,255)" fill-opacity="0.0078125"/>
  <rect x="0" y="20" width="21" height="1" fill="rgb(255,255,255)" fill-opacity="0.0078125"/>
</svg>