<svg xmlns="http://www.w3.org/2000/svg" shape-rendering="crispEdges" width="21" height="21" viewBox="0 0 21 21">
  <rect x="0" y="0" width="1" height="21" fill="rgb(255,255,255)" fill-opacity="0.0078125"/>
  <rect x="1" y="0" width="1" height="21" fill="rgb(255,255,255)" fill-opacity="0.0078125"/>
  <rect x="2" y="0" width="1" height="21" fill="rgb(255,255,255)" fill-opacity="0.0078125"/>
  <rect x="3" y="0" width="1" height="21" fill="rgb(255,255,255)" fill-opacity="0.0078125"/>
  <rect x="4" y="0" width="1" height="21" fill="rgb(255,255,255)" fill-opacity="0.0078125"/>
  <rect x="5" y="0" width="1" height="6" fill="rgb(255,255,255)" fill-opacity="0.0078125"/>
  <rect x="5" y="6" width="1" height="1" fill="rgb(52,52,52)" fill-opacity="0.7734375"/>
  <rect x="5" y="7" width="1" height="1" fill="rgb(51,51,51)"/>
  <rect x="5" y="8" width="1" height="1" fill="rgb(57,57,57)"/>
  <rect x="5" y="9" width="1" height="4" fill="rgb(64,64,64)"/>
  <rect x="5" y="13" width="1" height="1" fill="rgb(57,57,57)"/>
  <rect x="5" y="14" width="1" height="1" fill="rgb(51,51,51)"/>
  <rect x="5" y="15" width="1" height="1" fill="rgb(62,62,62)" fill-opacity="0.7734375"/>
  <rect x="5" y="16" width="1" height="5" fill="rgb(255,255,255)" fill-opacity="0.0078125"/>
  <rect x="6" y="0" width="1" height="6" fill="rgb(255,255,255)" fill-opacity="0.0078125"/>
  <rect x="6" y="6" width="1" height="1" fill="rgb(51,51,51)" fill-opacity="0.3984375"/>
  <rect x="6" y="7" width="1" height="1" fill="rgb(57,57,57)" fill-opacity="0.9609375"/>
  <rect x="6" y="8" width="1" height="1" fill="rgb(222,222,222)"/>
  <rect x="6" y="9" width="1" height="4" fill="rgb(255,255,255)"/>
  <rect x="6" y="13" width="1" height="1" fill="rgb(252,252,252)"/>
  <rect x="6" y="14" width="1" height="1" fill="rgb(77,77,77)" fill-opacity="0.9609375"/>
  <rect x="6" y="15" width="1" height="1" fill="rgb(54,54,54)" fill-opacity="0.3984375"/>
  <rect x="6" y="16" width="1" height="5" fill="rgb(255,255,255)" fill-opacity="0.0078125"/>
  <rect x="7" y="0" width="1" height="7" fill="rgb(255,255,255)" fill-opacity="0.0078125"/>
  <rect x="7" y="7" width="1" height="1" fill="rgb(54,54,54)" fill-opacity="0.671875"/>
  <rect x="7" y="8" width="1" height="1" fill="rgb(145,145,145)" fill-opacity="0.984375"/>
  <rect x="7" y="9" width="1" height="1" fill="rgb(232,232,232)"/>
  <rect x="7" y="10" width="1" height="1" fill="rgb(178,178,178)"/>
  <rect x="7" y="11" width="1" height="1" fill="rgb(193,193,193)"/>
  <rect x="7" y="12" width="1" height="1" fill="rgb(213,213,213)"/>
  <rect x="7" y="13" width="1" height="1" fill="rgb(119,119,119)" fill-opacity="0.96875"/>
  <rect x="7" y="14" width="1" height="1" fill="rgb(61,61,61)" fill-opacity="0.671875"/>
  <rect x="7" y="15" width="1" height="6" fill="rgb(255,255,255)" fill-opacity="0.0078125"/>
  <rect x="8" y="0" width="1" height="7" fill="rgb(255,255,255)" fill-opacity="0.0078125"/>
  <rect x="8" y="7" width="1" height="1" fill="rgb(46,46,46)" fill-opacity="0.046875"/>
  <rect x="8" y="8" width="1" height="1" fill="rgb(54,54,54)" fill-opacity="0.8828125"/>
  <rect x="8" y="9" width="1" height="1" fill="rgb(170,170,170)"/>
  <rect x="8" y="10" width="1" height="1" fill="rgb(208,208,208)"/>
  <rect x="8" y="11" width="1" height="1" fill="rgb(190,190,190)"/>
  <rect x="8" y="12" width="1" height="1" fill="rgb(150,150,150)"/>
  <rect x="8" y="13" width="1" height="1" fill="rgb(60,60,60)" fill-opacity="0.8828125"/>
  <rect x="8" y="14" width="1" height="1" fill="rgb(46,46,46)" fill-opacity="0.046875"/>
  <rect x="8" y="15" width="1" height="6" fill="rgb(255,255,255)" fill-opacity="0.0078125"/>
  <rect x="9" y="0" width="1" height="8" fill="rgb(255,255,255)" fill-opacity="0.0078125"/>
  <rect x="9" y="8" width="1" height="1" fill="rgb(53,53,53)" fill-opacity="0.171875"/>
  <rect x="9" y="9" width="1" height="1" fill="rgb(58,58,58)" fill-opacity="0.9609375"/>
  <rect x="9" y="10" width="1" height="1" fill="rgb(182,182,182)"/>
  <rect x="9" y="11" width="1" height="1" fill="rgb(179,179,179)"/>
  <rect x="9" y="12" width="1" height="1" fill="rgb(57,57,57)" fill-opacity="0.9609375"/>
  <rect x="9" y="13" width="1" height="1" fill="rgb(53,53,53)" fill-opacity="0.171875"/>
  <rect x="9" y="14" width="1" height="7" fill="rgb(255,255,255)" fill-opacity="0.0078125"/>
  <rect x="10" y="0" width="1" height="6" fill="rgb(255,255,255)" fill-opacity="0.0078125"/>
  <rect x="10" y="6" width="1" height="1" fill="rgb(53,53,53)" fill-opacity="0.7734375"/>
  <rect x="10" y="7" width="1" height="1" fill="rgb(51,51,51)"/>
  <rect x="10" y="8" width="1" height="1" fill="rgb(57,57,57)"/>
  <rect x="10" y="9" width="1" height="1" fill="rgb(64,64,64)"/>
  <rect x="10" y="10" width="1" height="1" fill="rgb(122,122,122)" fill-opacity="0.984375"/>
  <rect x="10" y="11" width="1" height="1" fill="rgb(132,132,132)" fill-opacity="0.984375"/>
  <rect x="10" y="12" width="1" height="1" fill="rgb(64,64,64)"/>
  <rect x="10" y="13" width="1" height="1" fill="rgb(57,57,57)"/>
  <rect x="10" y="14" width="1" height="1" fill="rgb(51,51,51)"/>
  <rect x="10" y="15" width="1" height="1" fill="rgb(62,62,62)" fill-opacity="0.7734375"/>
  <rect x="10" y="16" width="1" height="5" fill="rgb(255,255,255)" fill-opacity="0.0078125"/>
  <rect x="11" y="0" width="1" height="6" fill="rgb(255,255,255)" fill-opacity="0.0078125"/>
  <rect x="11" y="6" width="1" height="1" fill="rgb(53,53,53)" fill-opacity="0.3984375"/>
  <rect x="11" y="7" width="1" height="1" fill="rgb(57,57,57)" fill-opacity="0.9609375"/>
  <rect x="11" y="8" width="1" height="1" fill="rgb(223,223,223)"/>
  <rect x="11" y="9" width="1" height="4" fill="rgb(255,255,255)"/>
  <rect x="11" y="13" width="1" height="1" fill="rgb(252,252,252)"/>
  <rect x="11" y="14" width="1" height="1" fill="rgb(77,77,77)" fill-opacity="0.9609375"/>
  <rect x="11" y="15" width="1" height="1" fill="rgb(53,53,53)" fill-opacity="0.3984375"/>
  <rect x="11" y="16" width="1" height="5" fill="rgb(255,255,255)" fill-opacity="0.0078125"/>
  <rect x="12" y="0" width="1" height="7" fill="rgb(255,255,255)" fill-opacity="0.0078125"/>
  <rect x="12" y="7" width="1" height="1" fill="rgb(53,53,53)" fill-opacity="0.6796875"/>
  <rect x="12" y="8" width="1" height="1" fill="rgb(145,145,145)" fill-opacity="0.9765625"/>
  <rect x="12" y="9" width="1" height="1" fill="rgb(232,232,232)"/>
  <rect x="12" y="10" width="1" height="1" fill="rgb(182,182,182)"/>
  <rect x="12" y="11" width="1" height="1" fill="rgb(198,198,198)"/>
  <rect x="12" y="12" width="1" height="1" fill="rgb(219,219,219)"/>
  <rect x="12" y="13" width="1" height="1" fill="rgb(121,121,121)" fill-opacity="0.96875"/>
  <rect x="12" y="14" width="1" height="1" fill="rgb(61,61,61)" fill-opacity="0.6796875"/>
  <rect x="12" y="15" width="1" height="6" fill="rgb(255,255,255)" fill-opacity="0.0078125"/>
  <rect x="13" y="0" width="1" height="7" fill="rgb(255,255,255)" fill-opacity="0.0078125"/>
  <rect x="13" y="7" width="1" height="1" fill="rgb(43,43,43)" fill-opacity="0.0546875"/>
  <rect x="13" y="8" width="1" height="1" fill="rgb(54,54,54)" fill-opacity="0.8828125"/>
  <rect x="13" y="9" width="1" height="1" fill="rgb(169,169,169)"/>
  <rect x="13" y="10" width="1" height="1" fill="rgb(208,208,208)"/>
  <rect x="13" y="11" width="1" height="1" fill="rgb(196,196,196)"/>
  <rect x="13" y="12" width="1" height="1" fill="rgb(154,154,154)"/>
  <rect x="13" y="13" width="1" height="1" fill="rgb(60,60,60)" fill-opacity="0.8828125"/>
  <rect x="13" y="14" width="1" height="1" fill="rgb(43,43,43)" fill-opacity="0.0546875"/>
  <rect x="13" y="15" width="1" height="6" fill="rgb(255,255,255)" fill-opacity="0.0078125"/>
  <rect x="14" y="0" width="1" height="8" fill="rgb(255,255,255)" fill-opacity="0.0078125"/>
  <rect x="14" y="8" width="1" height="1" fill="rgb(51,51,51)" fill-opacity="0.1796875"/>
  <rect x="14" y="9" width="1" height="1" fill="rgb(58,58,58)" fill-opacity="0.9609375"/>
  <rect x="14" y="10" width="1" height="1" fill="rgb(181,181,181)"/>
  <rect x="14" y="11" width="1" height="1" fill="rgb(183,183,183)"/>
  <rect x="14" y="12" width="1" height="1" fill="rgb(57,57,57)" fill-opacity="0.9609375"/>
  <rect x="14" y="13" width="1" height="1" fill="rgb(51,51,51)" fill-opacity="0.1796875"/>
  <rect x="14" y="14" width="1" height="7" fill="rgb(255,255,255)" fill-opacity="0.0078125"/>
  <rect x="15" y="0" width="1" height="9" fill="rgb(255,255,255)" fill-opacity="0.0078125"/>
  <rect x="15" y="9" width="1" height="1" fill="rgb(53,53,53)" fill-opacity="0.3984375"/>
  <rect x="15" y="10" width="1" height="1" fill="rgb(68,68,68)" fill-opacity="0.9609375"/>
  <rect x="15" y="11" width="1" height="1" fill="rgb(70,70,70)" fill-opacity="0.9609375"/>
  <rect x="15" y="12" width="1" height="1" fill="rgb(53,53,53)" fill-opacity="0.3984375"/>
  <rect x="15" y="13" width="1" height="8" fill="rgb(255,255,255)" fill-opacity="0.0078125"/>
  <rect x="16" y="0" width="1" height="10" fill="rgb(255,255,255)" fill-opacity="0.0078125"/>
  <rect x="16" y="10" width="1" height="2" fill="rgb(60,60,60)" fill-opacity="0.6171875"/>
  <rect x="16" y="12" width="1" height="9" fill="rgb(255,255,255)" fill-opacity="0.0078125"/>
  <rect x="17" y="0" width="1" height="21" fill="rgb(255,255,255)" fill-opacity="0.0078125"/>
  <rect x="18" y="0" width="1" height="21" fill="rgb(255,255,255)" fill-opacity="0.0078125"/>
  <rect x="19" y="0" width="1" height="21" fill="rgb(255,255,255)" fill-opacity="0.0078125"/>
  <rect x="20" y="0" width="1" height="21" fill="rgb(255,255,255)" fill-opacity="0.0078125"/>
</svg>