<svg xmlns="http://www.w3.org/2000/svg" shape-rendering="crispEdges" width="21" height="21" viewBox="0 0 21 21">
  <rect x="0" y="0" width="1" height="21" fill="rgb(255,255,255)" fill-opacity="0.0078125"/>
  <rect x="1" y="0" width="1" height="21" fill="rgb(255,255,255)" fill-opacity="0.0078125"/>
  <rect x="2" y="0" width="1" height="21" fill="rgb(255,255,255)" fill-opacity="0.0078125"/>
  <rect x="3" y="0" width="1" height="21" fill="rgb(255,255,255)" fill-opacity="0.0078125"/>
  <rect x="4" y="0" width="1" height="21" fill="rgb(255,255,255)" fill-opacity="0.0078125"/>
  <rect x="5" y="0" width="1" height="12" fill="rgb(255,255,255)" fill-opacity="0.0078125"/>
  <rect x="5" y="12" width="1" height="1" fill="rgb(2,2,2)" fill-opacity="0.984375"/>
  <rect x="5" y="13" width="1" height="2" fill="rgb(3,3,3)" fill-opacity="0.984375"/>
  <rect x="5" y="15" width="1" height="1" fill="rgb(2,2,2)" fill-opacity="0.984375"/>
  <rect x="5" y="16" width="1" height="5" fill="rgb(255,255,255)" fill-opacity="0.0078125"/>
  <rect x="6" y="0" width="1" height="12" fill="rgb(255,255,255)" fill-opacity="0.0078125"/>
  <rect x="6" y="12" width="1" height="4" fill="rgb(0,0,0)"/>
  <rect x="6" y="16" width="1" height="1" fill="rgb(0,0,0)" fill-opacity="0.203125"/>
  <rect x="6" y="17" width="1" height="4" fill="rgb(255,255,255)" fill-opacity="0.0078125"/>
  <rect x="7" y="0" width="1" height="12" fill="rgb(255,255,255)" fill-opacity="0.0078125"/>
  <rect x="7" y="12" width="1" height="1" fill="rgb(0,0,0)" fill-opacity="0.0390625"/>
  <rect x="7" y="13" width="1" height="3" fill="rgb(0,0,0)" fill-opacity="0.2265625"/>
  <rect x="7" y="16" width="1" height="1" fill="rgb(0,0,0)" fill-opacity="0.203125"/>
  <rect x="7" y="17" width="1" height="4" fill="rgb(255,255,255)" fill-opacity="0.0078125"/>
  <rect x="8" y="0" width="1" height="13" fill="rgb(255,255,255)" fill-opacity="0.0078125"/>
  <rect x="8" y="13" width="1" height="4" fill="rgb(0,0,0)" fill-opacity="0.015625"/>
  <rect x="8" y="17" width="1" height="4" fill="rgb(255,255,255)" fill-opacity="0.0078125"/>
  <rect x="9" y="0" width="1" height="12" fill="rgb(255,255,255)" fill-opacity="0.0078125"/>
  <rect x="9" y="12" width="1" height="1" fill="rgb(2,2,2)" fill-opacity="0.984375"/>
  <rect x="9" y="13" width="1" height="2" fill="rgb(3,3,3)" fill-opacity="0.984375"/>
  <rect x="9" y="15" width="1" height="1" fill="rgb(2,2,2)" fill-opacity="0.984375"/>
  <rect x="9" y="16" width="1" height="5" fill="rgb(255,255,255)" fill-opacity="0.0078125"/>
  <rect x="10" y="0" width="1" height="12" fill="rgb(255,255,255)" fill-opacity="0.0078125"/>
  <rect x="10" y="12" width="1" height="4" fill="rgb(0,0,0)"/>
  <rect x="10" y="16" width="1" height="1" fill="rgb(0,0,0)" fill-opacity="0.203125"/>
  <rect x="10" y="17" width="1" height="4" fill="rgb(255,255,255)" fill-opacity="0.0078125"/>
  <rect x="11" y="0" width="1" height="12" fill="rgb(255,255,255)" fill-opacity="0.0078125"/>
  <rect x="11" y="12" width="1" height="1" fill="rgb(0,0,0)" fill-opacity="0.0390625"/>
  <rect x="11" y="13" width="1" height="3" fill="rgb(0,0,0)" fill-opacity="0.2265625"/>
  <rect x="11" y="16" width="1" height="1" fill="rgb(0,0,0)" fill-opacity="0.203125"/>
  <rect x="11" y="17" width="1" height="4" fill="rgb(255,255,255)" fill-opacity="0.0078125"/>
  <rect x="12" y="0" width="1" height="13" fill="rgb(255,255,255)" fill-opacity="0.0078125"/>
  <rect x="12" y="13" width="1" height="4" fill="rgb(0,0,0)" fill-opacity="0.015625"/>
  <rect x="12" y="17" width="1" height="4" fill="rgb(255,255,255)" fill-opacity="0.0078125"/>
  <rect x="13" y="0" width="1" height="12" fill="rgb(255,255,255)" fill-opacity="0.0078125"/>
  <rect x="13" y="12" width="1" height="1" fill="rgb(2,2,2)" fill-opacity="0.984375"/>
  <rect x="13" y="13" width="1" height="2" fill="rgb(3,3,3)" fill-opacity="0.984375"/>
  <rect x="13" y="15" width="1" height="1" fill="rgb(2,2,2)" fill-opacity="0.984375"/>
  <rect x="13" y="16" width="1" height="5" fill="rgb(255,255,255)" fill-opacity="0.0078125"/>
  <rect x="14" y="0" width="1" height="12" fill="rgb(255,255,255)" fill-opacity="0.0078125"/>
  <rect x="14" y="12" width="1" height="4" fill="rgb(0,0,0)"/>
  <rect x="14" y="16" width="1" height="1" fill="rgb(0,0,0)" fill-opacity="0.203125"/>
  <rect x="14" y="17" width="1" height="4" fill="rgb(255,255,255)" fill-opacity="0.0078125"/>
  <rect x="15" y="0" width="1" height="12" fill="rgb(255,255,255)" fill-opacity="0.0078125"/>
  <rect x="15" y="12" width="1" height="1" fill="rgb(0,0,0)" fill-opacity="0.0390625"/>
  <rect x="15" y="13" width="1" height="3" fill="rgb(0,0,0)" fill-opacity="0.2265625"/>
  <rect x="15" y="16" width="1" height="1" fill="rgb(0,0,0)" fill-opacity="0.203125"/>
  <rect x="15" y="17" width="1" height="4" fill="rgb(255,255,255)" fill-opacity="0.0078125"/>
  <rect x="16" y="0" width="1" height="13" fill="rgb(255,255,255)" fill-opacity="0.0078125"/>
  <rect x="16" y="13" width="1" height="4" fill="rgb(0,0,0)" fill-opacity="0.015625"/>
  <rect x="16" y="17" width="1" height="4" fill="rgb(255,255,255)" fill-opacity="0.0078125"/>
  <rect x="17" y="0" width="1" height="21" fill="rgb(255,255,255)" fill-opacity="0.0078125"/>
  <rect x="18" y="0" width="1" height="21" fill="rgb(255,255,255)" fill-opacity="0.0078125"/>
  <rect x="19" y="0" width="1" height="21" fill="rgb(255,255,255)" fill-opacity="0.0078125"/>
  <rect x="20" y="0" width="1" height="21" fill="rgb(255,255,255)" fill-opacity="0.0078125"/>
</svg>