<svg xmlns="http://www.w3.org/2000/svg" shape-rendering="crispEdges" width="21" height="21" viewBox="0 0 21 21">
  <rect x="0" y="0" width="21" height="1" fill="rgb(255,255,255)" fill-opacity="0.0078125"/>
  <rect x="0" y="1" width="21" height="1" fill="rgb(255,255,255)" fill-opacity="0.0078125"/>
  <rect x="0" y="2" width="21" height="1" fill="rgb(255,255,255)" fill-opacity="0.0078125"/>
  <rect x="0" y="3" width="5" height="1" fill="rgb(255,255,255)" fill-opacity="0.0078125"/>
  <rect x="5" y="3" width="2" height="1" fill="rgb(0,0,0)" fill-opacity="0.1015625"/>
  <rect x="7" y="3" width="8" height="1" fill="rgb(255,255,255)" fill-opacity="0.0078125"/>
  <rect x="15" y="3" width="2" height="1" fill="rgb(0,0,0)" fill-opacity="0.1015625"/>
  <rect x="17" y="3" width="4" height="1" fill="rgb(255,255,255)" fill-opacity="0.0078125"/>
  <rect x="0" y="4" width="4" height="1" fill="rgb(255,255,255)" fill-opacity="0.0078125"/>
  <rect x="4" y="4" width="1" height="1" fill="rgb(0,0,0)" fill-opacity="0.53125"/>
  <rect x="5" y="4" width="2" height="1" fill="rgb(1,1,0)" fill-opacity="0.9921875"/>
  <rect x="7" y="4" width="1" height="1" fill="rgb(0,0,0)" fill-opacity="0.53125"/>
  <rect x="8" y="4" width="6" height="1" fill="rgb(255,255,255)" fill-opacity="0.0078125"/>
  <rect x="14" y="4" width="1" height="1" fill="rgb(0,0,0)" fill-opacity="0.53125"/>
  <rect x="15" y="4" width="2" height="1" fill="rgb(1,1,0)" fill-opacity="0.9921875"/>
  <rect x="17" y="4" width="1" height="1" fill="rgb(0,0,0)" fill-opacity="0.53125"/>
  <rect x="18" y="4" width="3" height="1" fill="rgb(255,255,255)" fill-opacity="0.0078125"/>
  <rect x="0" y="5" width="3" height="1" fill="rgb(255,255,255)" fill-opacity="0.0078125"/>
  <rect x="3" y="5" width="1" height="1" fill="rgb(0,0,0)" fill-opacity="0.1015625"/>
  <rect x="4" y="5" width="1" height="1" fill="rgb(1,1,0)" fill-opacity="0.9921875"/>
  <rect x="5" y="5" width="2" height="1" fill="rgb(255,255,255)"/>
  <rect x="7" y="5" width="1" height="1" fill="rgb(2,2,1)"/>
  <rect x="8" y="5" width="1" height="1" fill="rgb(69,69,69)" fill-opacity="0.9140625"/>
  <rect x="9" y="5" width="4" height="1" fill="rgb(77,77,77)" fill-opacity="0.90625"/>
  <rect x="13" y="5" width="1" height="1" fill="rgb(69,69,69)" fill-opacity="0.9140625"/>
  <rect x="14" y="5" width="1" height="1" fill="rgb(2,2,1)"/>
  <rect x="15" y="5" width="2" height="1" fill="rgb(255,255,255)"/>
  <rect x="17" y="5" width="1" height="1" fill="rgb(1,1,0)" fill-opacity="0.9921875"/>
  <rect x="18" y="5" width="1" height="1" fill="rgb(0,0,0)" fill-opacity="0.1015625"/>
  <rect x="19" y="5" width="2" height="1" fill="rgb(255,255,255)" fill-opacity="0.0078125"/>
  <rect x="0" y="6" width="3" height="1" fill="rgb(255,255,255)" fill-opacity="0.0078125"/>
  <rect x="3" y="6" width="1" height="1" fill="rgb(0,0,0)" fill-opacity="0.1015625"/>
  <rect x="4" y="6" width="1" height="1" fill="rgb(1,1,0)"/>
  <rect x="5" y="6" width="2" height="1" fill="rgb(255,255,255)"/>
  <rect x="7" y="6" width="1" height="1" fill="rgb(2,2,1)"/>
  <rect x="8" y="6" width="1" height="1" fill="rgb(184,184,184)" fill-opacity="0.9140625"/>
  <rect x="9" y="6" width="4" height="1" fill="rgb(204,204,204)" fill-opacity="0.90625"/>
  <rect x="13" y="6" width="1" height="1" fill="rgb(184,184,184)" fill-opacity="0.9140625"/>
  <rect x="14" y="6" width="1" height="1" fill="rgb(2,2,1)"/>
  <rect x="15" y="6" width="2" height="1" fill="rgb(255,255,255)"/>
  <rect x="17" y="6" width="1" height="1" fill="rgb(1,1,0)"/>
  <rect x="18" y="6" width="1" height="1" fill="rgb(0,0,0)" fill-opacity="0.1015625"/>
  <rect x="19" y="6" width="2" height="1" fill="rgb(255,255,255)" fill-opacity="0.0078125"/>
  <rect x="0" y="7" width="4" height="1" fill="rgb(255,255,255)" fill-opacity="0.0078125"/>
  <rect x="4" y="7" width="1" height="1" fill="rgb(3,3,3)" fill-opacity="0.6015625"/>
  <rect x="5" y="7" width="2" height="1" fill="rgb(2,2,1)"/>
  <rect x="7" y="7" width="1" height="1" fill="rgb(56,56,56)" fill-opacity="0.953125"/>
  <rect x="8" y="7" width="6" height="1" fill="rgb(65,65,65)" fill-opacity="0.90625"/>
  <rect x="14" y="7" width="1" height="1" fill="rgb(56,56,56)" fill-opacity="0.953125"/>
  <rect x="15" y="7" width="2" height="1" fill="rgb(2,2,1)"/>
  <rect x="17" y="7" width="1" height="1" fill="rgb(3,3,3)" fill-opacity="0.59375"/>
  <rect x="18" y="7" width="3" height="1" fill="rgb(255,255,255)" fill-opacity="0.0078125"/>
  <rect x="0" y="8" width="5" height="1" fill="rgb(255,255,255)" fill-opacity="0.0078125"/>
  <rect x="5" y="8" width="1" height="1" fill="rgb(22,22,22)" fill-opacity="0.609375"/>
  <rect x="6" y="8" width="1" height="1" fill="rgb(146,146,146)" fill-opacity="0.9140625"/>
  <rect x="7" y="8" width="1" height="1" fill="rgb(181,181,181)" fill-opacity="0.90625"/>
  <rect x="8" y="8" width="1" height="1" fill="rgb(33,33,33)" fill-opacity="0.671875"/>
  <rect x="9" y="8" width="4" height="1" fill="rgb(255,255,255)" fill-opacity="0.0078125"/>
  <rect x="13" y="8" width="1" height="1" fill="rgb(33,33,33)" fill-opacity="0.671875"/>
  <rect x="14" y="8" width="1" height="1" fill="rgb(181,181,181)" fill-opacity="0.90625"/>
  <rect x="15" y="8" width="1" height="1" fill="rgb(146,146,146)" fill-opacity="0.9140625"/>
  <rect x="16" y="8" width="1" height="1" fill="rgb(22,22,22)" fill-opacity="0.609375"/>
  <rect x="17" y="8" width="4" height="1" fill="rgb(255,255,255)" fill-opacity="0.0078125"/>
  <rect x="0" y="9" width="5" height="1" fill="rgb(255,255,255)" fill-opacity="0.0078125"/>
  <rect x="5" y="9" width="1" height="1" fill="rgb(27,27,27)" fill-opacity="0.1171875"/>
  <rect x="6" y="9" width="1" height="1" fill="rgb(70,70,70)" fill-opacity="0.8828125"/>
  <rect x="7" y="9" width="1" height="1" fill="rgb(204,204,204)" fill-opacity="0.90625"/>
  <rect x="8" y="9" width="1" height="1" fill="rgb(101,101,101)" fill-opacity="0.90625"/>
  <rect x="9" y="9" width="1" height="1" fill="rgb(26,26,26)" fill-opacity="0.234375"/>
  <rect x="10" y="9" width="2" height="1" fill="rgb(255,255,255)" fill-opacity="0.0078125"/>
  <rect x="12" y="9" width="1" height="1" fill="rgb(26,26,26)" fill-opacity="0.234375"/>
  <rect x="13" y="9" width="1" height="1" fill="rgb(101,101,101)" fill-opacity="0.90625"/>
  <rect x="14" y="9" width="1" height="1" fill="rgb(204,204,204)" fill-opacity="0.90625"/>
  <rect x="15" y="9" width="1" height="1" fill="rgb(70,70,70)" fill-opacity="0.8828125"/>
  <rect x="16" y="9" width="1" height="1" fill="rgb(27,27,27)" fill-opacity="0.1171875"/>
  <rect x="17" y="9" width="4" height="1" fill="rgb(255,255,255)" fill-opacity="0.0078125"/>
  <rect x="0" y="10" width="6" height="1" fill="rgb(255,255,255)" fill-opacity="0.0078125"/>
  <rect x="6" y="10" width="1" height="1" fill="rgb(27,27,27)" fill-opacity="0.515625"/>
  <rect x="7" y="10" width="1" height="1" fill="rgb(153,153,153)" fill-opacity="0.90625"/>
  <rect x="8" y="10" width="1" height="1" fill="rgb(188,188,188)" fill-opacity="0.90625"/>
  <rect x="9" y="10" width="1" height="1" fill="rgb(35,35,35)" fill-opacity="0.71875"/>
  <rect x="10" y="10" width="2" height="1" fill="rgb(255,255,255)" fill-opacity="0.0078125"/>
  <rect x="12" y="10" width="1" height="1" fill="rgb(35,35,35)" fill-opacity="0.71875"/>
  <rect x="13" y="10" width="1" height="1" fill="rgb(188,188,188)" fill-opacity="0.90625"/>
  <rect x="14" y="10" width="1" height="1" fill="rgb(153,153,153)" fill-opacity="0.90625"/>
  <rect x="15" y="10" width="1" height="1" fill="rgb(27,27,27)" fill-opacity="0.515625"/>
  <rect x="16" y="10" width="5" height="1" fill="rgb(255,255,255)" fill-opacity="0.0078125"/>
  <rect x="0" y="11" width="6" height="1" fill="rgb(255,255,255)" fill-opacity="0.0078125"/>
  <rect x="6" y="11" width="1" height="1" fill="rgb(26,26,26)" fill-opacity="0.0859375"/>
  <rect x="7" y="11" width="1" height="1" fill="rgb(61,61,61)" fill-opacity="0.875"/>
  <rect x="8" y="11" width="1" height="1" fill="rgb(203,203,203)" fill-opacity="0.90625"/>
  <rect x="9" y="11" width="1" height="1" fill="rgb(111,111,111)" fill-opacity="0.90625"/>
  <rect x="10" y="11" width="2" height="1" fill="rgb(25,25,25)" fill-opacity="0.28125"/>
  <rect x="12" y="11" width="1" height="1" fill="rgb(111,111,111)" fill-opacity="0.90625"/>
  <rect x="13" y="11" width="1" height="1" fill="rgb(203,203,203)" fill-opacity="0.90625"/>
  <rect x="14" y="11" width="1" height="1" fill="rgb(61,61,61)" fill-opacity="0.875"/>
  <rect x="15" y="11" width="1" height="1" fill="rgb(26,26,26)" fill-opacity="0.0859375"/>
  <rect x="16" y="11" width="5" height="1" fill="rgb(255,255,255)" fill-opacity="0.0078125"/>
  <rect x="0" y="12" width="7" height="1" fill="rgb(255,255,255)" fill-opacity="0.0078125"/>
  <rect x="7" y="12" width="1" height="1" fill="rgb(26,26,26)" fill-opacity="0.46875"/>
  <rect x="8" y="12" width="1" height="1" fill="rgb(144,144,144)" fill-opacity="0.90625"/>
  <rect x="9" y="12" width="1" height="1" fill="rgb(194,194,194)" fill-opacity="0.90625"/>
  <rect x="10" y="12" width="2" height="1" fill="rgb(41,41,41)" fill-opacity="0.7578125"/>
  <rect x="12" y="12" width="1" height="1" fill="rgb(194,194,194)" fill-opacity="0.90625"/>
  <rect x="13" y="12" width="1" height="1" fill="rgb(144,144,144)" fill-opacity="0.90625"/>
  <rect x="14" y="12" width="1" height="1" fill="rgb(26,26,26)" fill-opacity="0.46875"/>
  <rect x="15" y="12" width="6" height="1" fill="rgb(255,255,255)" fill-opacity="0.0078125"/>
  <rect x="0" y="13" width="7" height="1" fill="rgb(255,255,255)" fill-opacity="0.0078125"/>
  <rect x="7" y="13" width="1" height="1" fill="rgb(36,36,36)" fill-opacity="0.0625"/>
  <rect x="8" y="13" width="1" height="1" fill="rgb(53,53,53)" fill-opacity="0.8515625"/>
  <rect x="9" y="13" width="1" height="1" fill="rgb(202,202,202)" fill-opacity="0.90625"/>
  <rect x="10" y="13" width="2" height="1" fill="rgb(110,110,110)" fill-opacity="0.9140625"/>
  <rect x="12" y="13" width="1" height="1" fill="rgb(202,202,202)" fill-opacity="0.90625"/>
  <rect x="13" y="13" width="1" height="1" fill="rgb(53,53,53)" fill-opacity="0.8515625"/>
  <rect x="14" y="13" width="1" height="1" fill="rgb(36,36,36)" fill-opacity="0.0625"/>
  <rect x="15" y="13" width="6" height="1" fill="rgb(255,255,255)" fill-opacity="0.0078125"/>
  <rect x="0" y="14" width="8" height="1" fill="rgb(255,255,255)" fill-opacity="0.0078125"/>
  <rect x="8" y="14" width="1" height="1" fill="rgb(26,26,26)" fill-opacity="0.421875"/>
  <rect x="9" y="14" width="1" height="1" fill="rgb(60,60,60)" fill-opacity="0.953125"/>
  <rect x="10" y="14" width="2" height="1" fill="rgb(2,2,1)"/>
  <rect x="12" y="14" width="1" height="1" fill="rgb(60,60,60)" fill-opacity="0.953125"/>
  <rect x="13" y="14" width="1" height="1" fill="rgb(26,26,26)" fill-opacity="0.421875"/>
  <rect x="14" y="14" width="7" height="1" fill="rgb(255,255,255)" fill-opacity="0.0078125"/>
  <rect x="0" y="15" width="8" height="1" fill="rgb(255,255,255)" fill-opacity="0.0078125"/>
  <rect x="8" y="15" width="1" height="1" fill="rgb(8,8,8)" fill-opacity="0.125"/>
  <rect x="9" y="15" width="1" height="1" fill="rgb(1,1,0)"/>
  <rect x="10" y="15" width="2" height="1" fill="rgb(255,255,255)"/>
  <rect x="12" y="15" width="1" height="1" fill="rgb(1,1,0)"/>
  <rect x="13" y="15" width="1" height="1" fill="rgb(8,8,8)" fill-opacity="0.125"/>
  <rect x="14" y="15" width="7" height="1" fill="rgb(255,255,255)" fill-opacity="0.0078125"/>
  <rect x="0" y="16" width="8" height="1" fill="rgb(255,255,255)" fill-opacity="0.0078125"/>
  <rect x="8" y="16" width="1" height="1" fill="rgb(0,0,0)" fill-opacity="0.1015625"/>
  <rect x="9" y="16" width="1" height="1" fill="rgb(1,1,0)"/>
  <rect x="10" y="16" width="2" height="1" fill="rgb(255,255,255)"/>
  <rect x="12" y="16" width="1" height="1" fill="rgb(1,1,0)"/>
  <rect x="13" y="16" width="1" height="1" fill="rgb(0,0,0)" fill-opacity="0.1015625"/>
  <rect x="14" y="16" width="7" height="1" fill="rgb(255,255,255)" fill-opacity="0.0078125"/>
  <rect x="0" y="17" width="9" height="1" fill="rgb(255,255,255)" fill-opacity="0.0078125"/>
  <rect x="9" y="17" width="1" height="1" fill="rgb(0,0,0)" fill-opacity="0.53125"/>
  <rect x="10" y="17" width="2" height="1" fill="rgb(1,1,0)" fill-opacity="0.9921875"/>
  <rect x="12" y="17" width="1" height="1" fill="rgb(0,0,0)" fill-opacity="0.53125"/>
  <rect x="13" y="17" width="8" height="1" fill="rgb(255,255,255)" fill-opacity="0.0078125"/>
  <rect x="0" y="18" width="10" height="1" fill="rgb(255,255,255)" fill-opacity="0.0078125"/>
  <rect x="10" y="18" width="2" height="1" fill="rgb(0,0,0)" fill-opacity="0.1015625"/>
  <rect x="12" y="18" width="9" height="1" fill="rgb(255,255,255)" fill-opacity="0.0078125"/>
  <rect x="0" y="19" width="21" height="1" fill="rgb(255,255,255)" fill-opacity="0.0078125"/>
  <rect x="0" y="20" width="21" height="1" fill="rgb(255,255,255)" fill-opacity="0.0078125"/>
</svg>