<svg xmlns="http://www.w3.org/2000/svg" shape-rendering="crispEdges" width="21" height="21" viewBox="0 0 21 21">
  <rect x="0" y="0" width="1" height="21" fill="rgb(255,255,255)" fill-opacity="0.0078125"/>
  <rect x="1" y="0" width="1" height="21" fill="rgb(255,255,255)" fill-opacity="0.0078125"/>
  <rect x="2" y="0" width="1" height="21" fill="rgb(255,255,255)" fill-opacity="0.0078125"/>
  <rect x="3" y="0" width="1" height="21" fill="rgb(255,255,255)" fill-opacity="0.0078125"/>
  <rect x="4" y="0" width="1" height="16" fill="rgb(255,255,255)" fill-opacity="0.0078125"/>
  <rect x="4" y="16" width="1" height="1" fill="rgb(0,0,0)"/>
  <rect x="4" y="17" width="1" height="4" fill="rgb(255,255,255)" fill-opacity="0.0078125"/>
  <rect x="5" y="0" width="1" height="14" fill="rgb(255,255,255)" fill-opacity="0.0078125"/>
  <rect x="5" y="14" width="1" height="2" fill="rgb(0,0,0)"/>
  <rect x="5" y="16" width="1" height="1" fill="rgb(255,255,255)"/>
  <rect x="5" y="17" width="1" height="1" fill="rgb(0,0,0)"/>
  <rect x="5" y="18" width="1" height="3" fill="rgb(255,255,255)" fill-opacity="0.0078125"/>
  <rect x="6" y="0" width="1" height="13" fill="rgb(255,255,255)" fill-opacity="0.0078125"/>
  <rect x="6" y="13" width="1" height="1" fill="rgb(49,49,49)"/>
  <rect x="6" y="14" width="1" height="1" fill="rgb(253,253,253)"/>
  <rect x="6" y="15" width="1" height="1" fill="rgb(250,250,250)"/>
  <rect x="6" y="16" width="1" height="1" fill="rgb(0,0,0)"/>
  <rect x="6" y="17" width="1" height="4" fill="rgb(255,255,255)" fill-opacity="0.0078125"/>
  <rect x="7" y="0" width="1" height="12" fill="rgb(255,255,255)" fill-opacity="0.0078125"/>
  <rect x="7" y="12" width="1" height="1" fill="rgb(48,48,48)"/>
  <rect x="7" y="13" width="1" height="1" fill="rgb(250,250,250)"/>
  <rect x="7" y="14" width="1" height="1" fill="rgb(234,234,234)"/>
  <rect x="7" y="15" width="1" height="1" fill="rgb(238,238,238)"/>
  <rect x="7" y="16" width="1" height="1" fill="rgb(0,0,0)"/>
  <rect x="7" y="17" width="1" height="4" fill="rgb(255,255,255)" fill-opacity="0.0078125"/>
  <rect x="8" y="0" width="1" height="11" fill="rgb(255,255,255)" fill-opacity="0.0078125"/>
  <rect x="8" y="11" width="1" height="1" fill="rgb(47,47,47)"/>
  <rect x="8" y="12" width="1" height="1" fill="rgb(247,247,247)"/>
  <rect x="8" y="13" width="1" height="2" fill="rgb(217,217,217)"/>
  <rect x="8" y="15" width="1" height="1" fill="rgb(0,0,0)"/>
  <rect x="8" y="16" width="1" height="5" fill="rgb(255,255,255)" fill-opacity="0.0078125"/>
  <rect x="9" y="0" width="1" height="10" fill="rgb(255,255,255)" fill-opacity="0.0078125"/>
  <rect x="9" y="10" width="1" height="1" fill="rgb(46,46,46)"/>
  <rect x="9" y="11" width="1" height="1" fill="rgb(244,244,244)"/>
  <rect x="9" y="12" width="1" height="1" fill="rgb(200,200,200)"/>
  <rect x="9" y="13" width="1" height="1" fill="rgb(196,196,196)"/>
  <rect x="9" y="14" width="1" height="1" fill="rgb(0,0,0)"/>
  <rect x="9" y="15" width="1" height="6" fill="rgb(255,255,255)" fill-opacity="0.0078125"/>
  <rect x="10" y="0" width="1" height="7" fill="rgb(255,255,255)" fill-opacity="0.0078125"/>
  <rect x="10" y="7" width="1" height="1" fill="rgb(26,26,26)" fill-opacity="0.7265625"/>
  <rect x="10" y="8" width="1" height="1" fill="rgb(26,26,26)" fill-opacity="0.2421875"/>
  <rect x="10" y="9" width="1" height="1" fill="rgb(45,45,45)"/>
  <rect x="10" y="10" width="1" height="1" fill="rgb(241,241,241)"/>
  <rect x="10" y="11" width="1" height="1" fill="rgb(184,184,184)"/>
  <rect x="10" y="12" width="1" height="1" fill="rgb(176,176,176)"/>
  <rect x="10" y="13" width="1" height="1" fill="rgb(0,0,0)"/>
  <rect x="10" y="14" width="1" height="7" fill="rgb(255,255,255)" fill-opacity="0.0078125"/>
  <rect x="11" y="0" width="1" height="7" fill="rgb(255,255,255)" fill-opacity="0.0078125"/>
  <rect x="11" y="7" width="1" height="1" fill="rgb(26,26,26)"/>
  <rect x="11" y="8" width="1" height="1" fill="rgb(44,44,44)" fill-opacity="0.9765625"/>
  <rect x="11" y="9" width="1" height="1" fill="rgb(131,131,131)"/>
  <rect x="11" y="10" width="1" height="1" fill="rgb(168,168,168)"/>
  <rect x="11" y="11" width="1" height="1" fill="rgb(156,156,156)"/>
  <rect x="11" y="12" width="1" height="1" fill="rgb(0,0,0)"/>
  <rect x="11" y="13" width="1" height="8" fill="rgb(255,255,255)" fill-opacity="0.0078125"/>
  <rect x="12" y="0" width="1" height="5" fill="rgb(255,255,255)" fill-opacity="0.0078125"/>
  <rect x="12" y="5" width="1" height="1" fill="rgb(0,0,0)" fill-opacity="0.0234375"/>
  <rect x="12" y="6" width="1" height="1" fill="rgb(28,28,28)" fill-opacity="0.1875"/>
  <rect x="12" y="7" width="1" height="1" fill="rgb(29,29,29)"/>
  <rect x="12" y="8" width="1" height="1" fill="rgb(110,110,110)"/>
  <rect x="12" y="9" width="1" height="1" fill="rgb(30,30,30)"/>
  <rect x="12" y="10" width="1" height="1" fill="rgb(109,109,109)"/>
  <rect x="12" y="11" width="1" height="1" fill="rgb(0,0,0)"/>
  <rect x="12" y="12" width="1" height="9" fill="rgb(255,255,255)" fill-opacity="0.0078125"/>
  <rect x="13" y="0" width="1" height="4" fill="rgb(255,255,255)" fill-opacity="0.0078125"/>
  <rect x="13" y="4" width="1" height="1" fill="rgb(25,25,25)" fill-opacity="0.203125"/>
  <rect x="13" y="5" width="1" height="1" fill="rgb(30,30,30)" fill-opacity="0.890625"/>
  <rect x="13" y="6" width="1" height="1" fill="rgb(123,123,123)" fill-opacity="0.9765625"/>
  <rect x="13" y="7" width="1" height="1" fill="rgb(116,114,114)" fill-opacity="0.9765625"/>
  <rect x="13" y="8" width="1" height="1" fill="rgb(27,27,27)"/>
  <rect x="13" y="9" width="1" height="1" fill="rgb(26,26,26)"/>
  <rect x="13" y="10" width="1" height="1" fill="rgb(29,29,29)" fill-opacity="0.9765625"/>
  <rect x="13" y="11" width="1" height="1" fill="rgb(26,26,26)" fill-opacity="0.2421875"/>
  <rect x="13" y="12" width="1" height="9" fill="rgb(255,255,255)" fill-opacity="0.0078125"/>
  <rect x="14" y="0" width="1" height="4" fill="rgb(255,255,255)" fill-opacity="0.0078125"/>
  <rect x="14" y="4" width="1" height="1" fill="rgb(26,26,26)" fill-opacity="0.78125"/>
  <rect x="14" y="5" width="1" height="1" fill="rgb(165,165,165)"/>
  <rect x="14" y="6" width="1" height="1" fill="rgb(146,144,144)"/>
  <rect x="14" y="7" width="1" height="1" fill="rgb(29,29,29)"/>
  <rect x="14" y="8" width="1" height="1" fill="rgb(26,26,26)" fill-opacity="0.953125"/>
  <rect x="14" y="9" width="1" height="2" fill="rgb(26,26,26)"/>
  <rect x="14" y="11" width="1" height="1" fill="rgb(26,26,26)" fill-opacity="0.7265625"/>
  <rect x="14" y="12" width="1" height="9" fill="rgb(255,255,255)" fill-opacity="0.0078125"/>
  <rect x="15" y="0" width="1" height="3" fill="rgb(255,255,255)" fill-opacity="0.0078125"/>
  <rect x="15" y="3" width="1" height="1" fill="rgb(0,0,0)" fill-opacity="0.015625"/>
  <rect x="15" y="4" width="1" height="1" fill="rgb(39,39,39)" fill-opacity="0.9921875"/>
  <rect x="15" y="5" width="1" height="1" fill="rgb(140,139,139)"/>
  <rect x="15" y="6" width="1" height="2" fill="rgb(26,26,26)"/>
  <rect x="15" y="8" width="1" height="1" fill="rgb(26,26,26)" fill-opacity="0.953125"/>
  <rect x="15" y="9" width="1" height="1" fill="rgb(27,27,27)" fill-opacity="0.1875"/>
  <rect x="15" y="10" width="1" height="11" fill="rgb(255,255,255)" fill-opacity="0.0078125"/>
  <rect x="16" y="0" width="1" height="4" fill="rgb(255,255,255)" fill-opacity="0.0078125"/>
  <rect x="16" y="4" width="1" height="1" fill="rgb(26,26,26)" fill-opacity="0.78125"/>
  <rect x="16" y="5" width="1" height="3" fill="rgb(26,26,26)"/>
  <rect x="16" y="8" width="1" height="1" fill="rgb(26,26,26)" fill-opacity="0.8984375"/>
  <rect x="16" y="9" width="1" height="1" fill="rgb(43,43,43)" fill-opacity="0.03125"/>
  <rect x="16" y="10" width="1" height="11" fill="rgb(255,255,255)" fill-opacity="0.0078125"/>
  <rect x="17" y="0" width="1" height="4" fill="rgb(255,255,255)" fill-opacity="0.0078125"/>
  <rect x="17" y="4" width="1" height="1" fill="rgb(26,26,26)" fill-opacity="0.1953125"/>
  <rect x="17" y="5" width="1" height="1" fill="rgb(26,26,26)" fill-opacity="0.78125"/>
  <rect x="17" y="6" width="1" height="1" fill="rgb(26,26,26)" fill-opacity="0.9921875"/>
  <rect x="17" y="7" width="1" height="1" fill="rgb(26,26,26)" fill-opacity="0.78125"/>
  <rect x="17" y="8" width="1" height="1" fill="rgb(25,25,25)" fill-opacity="0.203125"/>
  <rect x="17" y="9" width="1" height="12" fill="rgb(255,255,255)" fill-opacity="0.0078125"/>
  <rect x="18" y="0" width="1" height="6" fill="rgb(255,255,255)" fill-opacity="0.0078125"/>
  <rect x="18" y="6" width="1" height="1" fill="rgb(0,0,0)" fill-opacity="0.015625"/>
  <rect x="18" y="7" width="1" height="14" fill="rgb(255,255,255)" fill-opacity="0.0078125"/>
  <rect x="19" y="0" width="1" height="21" fill="rgb(255,255,255)" fill-opacity="0.0078125"/>
  <rect x="20" y="0" width="1" height="21" fill="rgb(255,255,255)" fill-opacity="0.0078125"/>
</svg>