<svg xmlns="http://www.w3.org/2000/svg" shape-rendering="crispEdges" width="21" height="21" viewBox="0 0 21 21">
  <rect x="0" y="0" width="1" height="21" fill="rgb(255,255,255)" fill-opacity="0.0078125"/>
  <rect x="1" y="0" width="1" height="21" fill="rgb(255,255,255)" fill-opacity="0.0078125"/>
  <rect x="2" y="0" width="1" height="21" fill="rgb(255,255,255)" fill-opacity="0.0078125"/>
  <rect x="3" y="0" width="1" height="6" fill="rgb(255,255,255)" fill-opacity="0.0078125"/>
  <rect x="3" y="6" width="1" height="1" fill="rgb(0,0,0)" fill-opacity="0.1328125"/>
  <rect x="3" y="7" width="1" height="1" fill="rgb(0,0,0)" fill-opacity="0.0234375"/>
  <rect x="3" y="8" width="1" height="13" fill="rgb(255,255,255)" fill-opacity="0.0078125"/>
  <rect x="4" y="0" width="1" height="5" fill="rgb(255,255,255)" fill-opacity="0.0078125"/>
  <rect x="4" y="5" width="1" height="1" fill="rgb(0,0,0)" fill-opacity="0.4765625"/>
  <rect x="4" y="6" width="1" height="1" fill="rgb(24,24,24)"/>
  <rect x="4" y="7" width="1" height="1" fill="rgb(0,0,0)" fill-opacity="0.3125"/>
  <rect x="4" y="8" width="1" height="13" fill="rgb(255,255,255)" fill-opacity="0.0078125"/>
  <rect x="5" y="0" width="1" height="4" fill="rgb(255,255,255)" fill-opacity="0.0078125"/>
  <rect x="5" y="4" width="1" height="1" fill="rgb(0,0,0)" fill-opacity="0.3984375"/>
  <rect x="5" y="5" width="1" height="1" fill="rgb(129,129,129)"/>
  <rect x="5" y="6" width="1" height="1" fill="rgb(215,215,215)"/>
  <rect x="5" y="7" width="1" height="1" fill="rgb(29,29,29)" fill-opacity="0.71875"/>
  <rect x="5" y="8" width="1" height="13" fill="rgb(255,255,255)" fill-opacity="0.0078125"/>
  <rect x="6" y="0" width="1" height="4" fill="rgb(255,255,255)" fill-opacity="0.0078125"/>
  <rect x="6" y="4" width="1" height="1" fill="rgb(7,7,7)" fill-opacity="0.6796875"/>
  <rect x="6" y="5" width="1" height="1" fill="rgb(220,220,220)"/>
  <rect x="6" y="6" width="1" height="1" fill="rgb(144,144,144)"/>
  <rect x="6" y="7" width="1" height="1" fill="rgb(4,4,4)" fill-opacity="0.5546875"/>
  <rect x="6" y="8" width="1" height="13" fill="rgb(255,255,255)" fill-opacity="0.0078125"/>
  <rect x="7" y="0" width="1" height="4" fill="rgb(255,255,255)" fill-opacity="0.0078125"/>
  <rect x="7" y="4" width="1" height="1" fill="rgb(46,46,46)" fill-opacity="0.8984375"/>
  <rect x="7" y="5" width="1" height="1" fill="rgb(217,217,217)"/>
  <rect x="7" y="6" width="1" height="1" fill="rgb(69,69,69)" fill-opacity="0.984375"/>
  <rect x="7" y="7" width="1" height="1" fill="rgb(0,0,0)" fill-opacity="0.0234375"/>
  <rect x="7" y="8" width="1" height="2" fill="rgb(255,255,255)" fill-opacity="0.0078125"/>
  <rect x="7" y="10" width="1" height="1" fill="rgb(45,45,45)" fill-opacity="0.796875"/>
  <rect x="7" y="11" width="1" height="6" fill="rgb(49,49,49)" fill-opacity="0.9140625"/>
  <rect x="7" y="17" width="1" height="1" fill="rgb(45,45,45)" fill-opacity="0.796875"/>
  <rect x="7" y="18" width="1" height="3" fill="rgb(255,255,255)" fill-opacity="0.0078125"/>
  <rect x="8" y="0" width="1" height="4" fill="rgb(255,255,255)" fill-opacity="0.0078125"/>
  <rect x="8" y="4" width="1" height="1" fill="rgb(38,38,38)" fill-opacity="0.828125"/>
  <rect x="8" y="5" width="1" height="1" fill="rgb(207,207,207)"/>
  <rect x="8" y="6" width="1" height="1" fill="rgb(79,79,79)"/>
  <rect x="8" y="7" width="1" height="1" fill="rgb(0,0,0)" fill-opacity="0.203125"/>
  <rect x="8" y="8" width="1" height="1" fill="rgb(0,0,0)" fill-opacity="0.0078125"/>
  <rect x="8" y="9" width="1" height="1" fill="rgb(255,255,255)" fill-opacity="0.0078125"/>
  <rect x="8" y="10" width="1" height="1" fill="rgb(49,49,49)" fill-opacity="0.9140625"/>
  <rect x="8" y="11" width="1" height="1" fill="rgb(255,255,255)"/>
  <rect x="8" y="12" width="1" height="1" fill="rgb(237,239,241)"/>
  <rect x="8" y="13" width="1" height="1" fill="rgb(255,255,255)"/>
  <rect x="8" y="14" width="1" height="1" fill="rgb(237,239,241)"/>
  <rect x="8" y="15" width="1" height="1" fill="rgb(255,255,255)"/>
  <rect x="8" y="16" width="1" height="1" fill="rgb(236,238,240)"/>
  <rect x="8" y="17" width="1" height="1" fill="rgb(49,49,49)" fill-opacity="0.9140625"/>
  <rect x="8" y="18" width="1" height="3" fill="rgb(255,255,255)" fill-opacity="0.0078125"/>
  <rect x="9" y="0" width="1" height="4" fill="rgb(255,255,255)" fill-opacity="0.0078125"/>
  <rect x="9" y="4" width="1" height="1" fill="rgb(3,3,3)" fill-opacity="0.609375"/>
  <rect x="9" y="5" width="1" height="1" fill="rgb(169,169,169)"/>
  <rect x="9" y="6" width="1" height="1" fill="rgb(175,175,175)"/>
  <rect x="9" y="7" width="1" height="1" fill="rgb(100,100,100)"/>
  <rect x="9" y="8" width="1" height="1" fill="rgb(58,58,58)" fill-opacity="0.9609375"/>
  <rect x="9" y="9" width="1" height="1" fill="rgb(53,53,53)" fill-opacity="0.9375"/>
  <rect x="9" y="10" width="1" height="1" fill="rgb(48,48,48)" fill-opacity="0.9609375"/>
  <rect x="9" y="11" width="1" height="1" fill="rgb(255,255,255)"/>
  <rect x="9" y="12" width="1" height="1" fill="rgb(196,201,209)"/>
  <rect x="9" y="13" width="1" height="1" fill="rgb(245,245,245)"/>
  <rect x="9" y="14" width="1" height="1" fill="rgb(196,201,209)"/>
  <rect x="9" y="15" width="1" height="1" fill="rgb(245,245,245)"/>
  <rect x="9" y="16" width="1" height="1" fill="rgb(200,205,212)"/>
  <rect x="9" y="17" width="1" height="1" fill="rgb(48,48,48)" fill-opacity="0.9140625"/>
  <rect x="9" y="18" width="1" height="3" fill="rgb(255,255,255)" fill-opacity="0.0078125"/>
  <rect x="10" y="0" width="1" height="4" fill="rgb(255,255,255)" fill-opacity="0.0078125"/>
  <rect x="10" y="4" width="1" height="1" fill="rgb(0,0,0)" fill-opacity="0.1015625"/>
  <rect x="10" y="5" width="1" height="1" fill="rgb(37,37,37)" fill-opacity="0.9296875"/>
  <rect x="10" y="6" width="1" height="1" fill="rgb(144,144,144)"/>
  <rect x="10" y="7" width="1" height="1" fill="rgb(183,183,183)"/>
  <rect x="10" y="8" width="1" height="2" fill="rgb(187,187,187)"/>
  <rect x="10" y="10" width="1" height="1" fill="rgb(106,106,106)" fill-opacity="0.984375"/>
  <rect x="10" y="11" width="1" height="1" fill="rgb(255,255,255)"/>
  <rect x="10" y="12" width="1" height="1" fill="rgb(192,197,205)"/>
  <rect x="10" y="13" width="1" height="1" fill="rgb(237,237,237)"/>
  <rect x="10" y="14" width="1" height="1" fill="rgb(192,197,205)"/>
  <rect x="10" y="15" width="1" height="1" fill="rgb(237,237,237)"/>
  <rect x="10" y="16" width="1" height="1" fill="rgb(198,203,210)"/>
  <rect x="10" y="17" width="1" height="1" fill="rgb(47,47,47)" fill-opacity="0.9140625"/>
  <rect x="10" y="18" width="1" height="3" fill="rgb(255,255,255)" fill-opacity="0.0078125"/>
  <rect x="11" y="0" width="1" height="5" fill="rgb(255,255,255)" fill-opacity="0.0078125"/>
  <rect x="11" y="5" width="1" height="1" fill="rgb(0,0,0)" fill-opacity="0.1484375"/>
  <rect x="11" y="6" width="1" height="1" fill="rgb(0,0,0)" fill-opacity="0.4375"/>
  <rect x="11" y="7" width="1" height="1" fill="rgb(10,10,10)" fill-opacity="0.6953125"/>
  <rect x="11" y="8" width="1" height="1" fill="rgb(44,44,44)" fill-opacity="0.9140625"/>
  <rect x="11" y="9" width="1" height="1" fill="rgb(47,47,47)" fill-opacity="0.9375"/>
  <rect x="11" y="10" width="1" height="1" fill="rgb(44,44,44)" fill-opacity="0.9609375"/>
  <rect x="11" y="11" width="1" height="1" fill="rgb(255,255,255)"/>
  <rect x="11" y="12" width="1" height="1" fill="rgb(188,193,201)"/>
  <rect x="11" y="13" width="1" height="1" fill="rgb(229,229,229)"/>
  <rect x="11" y="14" width="1" height="1" fill="rgb(188,193,201)"/>
  <rect x="11" y="15" width="1" height="1" fill="rgb(229,229,229)"/>
  <rect x="11" y="16" width="1" height="1" fill="rgb(195,200,208)"/>
  <rect x="11" y="17" width="1" height="1" fill="rgb(46,46,46)" fill-opacity="0.9140625"/>
  <rect x="11" y="18" width="1" height="3" fill="rgb(255,255,255)" fill-opacity="0.0078125"/>
  <rect x="12" y="0" width="1" height="10" fill="rgb(255,255,255)" fill-opacity="0.0078125"/>
  <rect x="12" y="10" width="1" height="1" fill="rgb(46,46,46)" fill-opacity="0.9140625"/>
  <rect x="12" y="11" width="1" height="1" fill="rgb(253,253,253)"/>
  <rect x="12" y="12" width="1" height="1" fill="rgb(184,189,197)"/>
  <rect x="12" y="13" width="1" height="1" fill="rgb(0,0,0)"/>
  <rect x="12" y="14" width="1" height="1" fill="rgb(77,77,77)"/>
  <rect x="12" y="15" width="1" height="1" fill="rgb(245,245,245)"/>
  <rect x="12" y="16" width="1" height="1" fill="rgb(192,197,205)"/>
  <rect x="12" y="17" width="1" height="1" fill="rgb(46,46,46)" fill-opacity="0.9140625"/>
  <rect x="12" y="18" width="1" height="3" fill="rgb(255,255,255)" fill-opacity="0.0078125"/>
  <rect x="13" y="0" width="1" height="10" fill="rgb(255,255,255)" fill-opacity="0.0078125"/>
  <rect x="13" y="10" width="1" height="1" fill="rgb(45,45,45)" fill-opacity="0.9140625"/>
  <rect x="13" y="11" width="1" height="1" fill="rgb(249,249,249)"/>
  <rect x="13" y="12" width="1" height="1" fill="rgb(180,185,193)"/>
  <rect x="13" y="13" width="1" height="1" fill="rgb(242,242,242)"/>
  <rect x="13" y="14" width="1" height="1" fill="rgb(232,234,236)"/>
  <rect x="13" y="15" width="1" height="1" fill="rgb(243,243,243)"/>
  <rect x="13" y="16" width="1" height="1" fill="rgb(189,194,201)"/>
  <rect x="13" y="17" width="1" height="1" fill="rgb(45,45,45)" fill-opacity="0.9140625"/>
  <rect x="13" y="18" width="1" height="3" fill="rgb(255,255,255)" fill-opacity="0.0078125"/>
  <rect x="14" y="0" width="1" height="10" fill="rgb(255,255,255)" fill-opacity="0.0078125"/>
  <rect x="14" y="10" width="1" height="1" fill="rgb(44,44,44)" fill-opacity="0.9140625"/>
  <rect x="14" y="11" width="1" height="1" fill="rgb(245,245,245)"/>
  <rect x="14" y="12" width="1" height="1" fill="rgb(176,181,189)"/>
  <rect x="14" y="13" width="1" height="1" fill="rgb(205,205,205)"/>
  <rect x="14" y="14" width="1" height="1" fill="rgb(176,181,189)"/>
  <rect x="14" y="15" width="1" height="1" fill="rgb(206,206,206)"/>
  <rect x="14" y="16" width="1" height="1" fill="rgb(185,190,197)"/>
  <rect x="14" y="17" width="1" height="1" fill="rgb(44,44,44)" fill-opacity="0.9140625"/>
  <rect x="14" y="18" width="1" height="3" fill="rgb(255,255,255)" fill-opacity="0.0078125"/>
  <rect x="15" y="0" width="1" height="10" fill="rgb(255,255,255)" fill-opacity="0.0078125"/>
  <rect x="15" y="10" width="1" height="1" fill="rgb(43,43,43)" fill-opacity="0.9140625"/>
  <rect x="15" y="11" width="1" height="1" fill="rgb(240,240,240)"/>
  <rect x="15" y="12" width="1" height="1" fill="rgb(172,177,185)"/>
  <rect x="15" y="13" width="1" height="1" fill="rgb(197,197,197)"/>
  <rect x="15" y="14" width="1" height="1" fill="rgb(173,178,185)"/>
  <rect x="15" y="15" width="1" height="1" fill="rgb(198,198,198)"/>
  <rect x="15" y="16" width="1" height="1" fill="rgb(180,185,193)"/>
  <rect x="15" y="17" width="1" height="1" fill="rgb(43,43,43)" fill-opacity="0.9140625"/>
  <rect x="15" y="18" width="1" height="3" fill="rgb(255,255,255)" fill-opacity="0.0078125"/>
  <rect x="16" y="0" width="1" height="10" fill="rgb(255,255,255)" fill-opacity="0.0078125"/>
  <rect x="16" y="10" width="1" height="1" fill="rgb(43,43,43)" fill-opacity="0.9140625"/>
  <rect x="16" y="11" width="1" height="1" fill="rgb(229,229,229)"/>
  <rect x="16" y="12" width="1" height="1" fill="rgb(194,198,204)"/>
  <rect x="16" y="13" width="1" height="1" fill="rgb(221,221,221)"/>
  <rect x="16" y="14" width="1" height="1" fill="rgb(187,191,198)"/>
  <rect x="16" y="15" width="1" height="1" fill="rgb(209,209,209)"/>
  <rect x="16" y="16" width="1" height="1" fill="rgb(179,183,189)"/>
  <rect x="16" y="17" width="1" height="1" fill="rgb(43,43,43)" fill-opacity="0.9140625"/>
  <rect x="16" y="18" width="1" height="3" fill="rgb(255,255,255)" fill-opacity="0.0078125"/>
  <rect x="17" y="0" width="1" height="10" fill="rgb(255,255,255)" fill-opacity="0.0078125"/>
  <rect x="17" y="10" width="1" height="1" fill="rgb(39,39,39)" fill-opacity="0.796875"/>
  <rect x="17" y="11" width="1" height="6" fill="rgb(42,42,42)" fill-opacity="0.9140625"/>
  <rect x="17" y="17" width="1" height="1" fill="rgb(39,39,39)" fill-opacity="0.796875"/>
  <rect x="17" y="18" width="1" height="3" fill="rgb(255,255,255)" fill-opacity="0.0078125"/>
  <rect x="18" y="0" width="1" height="21" fill="rgb(255,255,255)" fill-opacity="0.0078125"/>
  <rect x="19" y="0" width="1" height="21" fill="rgb(255,255,255)" fill-opacity="0.0078125"/>
  <rect x="20" y="0" width="1" height="21" fill="rgb(255,255,255)" fill-opacity="0.0078125"/>
</svg>