<svg xmlns="http://www.w3.org/2000/svg" shape-rendering="crispEdges" width="21" height="21" viewBox="0 0 21 21">
  <rect x="0" y="0" width="1" height="21" fill="rgb(255,255,255)" fill-opacity="0.0078125"/>
  <rect x="1" y="0" width="1" height="21" fill="rgb(255,255,255)" fill-opacity="0.0078125"/>
  <rect x="2" y="0" width="1" height="21" fill="rgb(255,255,255)" fill-opacity="0.0078125"/>
  <rect x="3" y="0" width="1" height="21" fill="rgb(255,255,255)" fill-opacity="0.0078125"/>
  <rect x="4" y="0" width="1" height="3" fill="rgb(255,255,255)" fill-opacity="0.0078125"/>
  <rect x="4" y="3" width="1" height="1" fill="rgb(51,51,51)" fill-opacity="0.9375"/>
  <rect x="4" y="4" width="1" height="3" fill="rgb(46,46,46)" fill-opacity="0.9765625"/>
  <rect x="4" y="7" width="1" height="3" fill="rgb(47,47,47)" fill-opacity="0.9765625"/>
  <rect x="4" y="10" width="1" height="1" fill="rgb(53,53,53)" fill-opacity="0.9375"/>
  <rect x="4" y="11" width="1" height="10" fill="rgb(255,255,255)" fill-opacity="0.0078125"/>
  <rect x="5" y="0" width="1" height="3" fill="rgb(255,255,255)" fill-opacity="0.0078125"/>
  <rect x="5" y="3" width="1" height="1" fill="rgb(44,44,44)" fill-opacity="0.984375"/>
  <rect x="5" y="4" width="1" height="2" fill="rgb(255,255,255)"/>
  <rect x="5" y="6" width="1" height="4" fill="rgb(254,254,254)"/>
  <rect x="5" y="10" width="1" height="1" fill="rgb(45,45,45)" fill-opacity="0.984375"/>
  <rect x="5" y="11" width="1" height="10" fill="rgb(255,255,255)" fill-opacity="0.0078125"/>
  <rect x="6" y="0" width="1" height="3" fill="rgb(255,255,255)" fill-opacity="0.0078125"/>
  <rect x="6" y="3" width="1" height="1" fill="rgb(44,44,44)" fill-opacity="0.984375"/>
  <rect x="6" y="4" width="1" height="1" fill="rgb(255,255,255)"/>
  <rect x="6" y="5" width="1" height="1" fill="rgb(180,180,180)"/>
  <rect x="6" y="6" width="1" height="1" fill="rgb(193,193,193)"/>
  <rect x="6" y="7" width="1" height="1" fill="rgb(207,207,207)"/>
  <rect x="6" y="8" width="1" height="1" fill="rgb(220,220,220)"/>
  <rect x="6" y="9" width="1" height="1" fill="rgb(233,233,233)"/>
  <rect x="6" y="10" width="1" height="1" fill="rgb(45,45,45)" fill-opacity="0.984375"/>
  <rect x="6" y="11" width="1" height="10" fill="rgb(255,255,255)" fill-opacity="0.0078125"/>
  <rect x="7" y="0" width="1" height="3" fill="rgb(255,255,255)" fill-opacity="0.0078125"/>
  <rect x="7" y="3" width="1" height="1" fill="rgb(44,44,44)" fill-opacity="0.984375"/>
  <rect x="7" y="4" width="1" height="1" fill="rgb(255,255,255)"/>
  <rect x="7" y="5" width="1" height="1" fill="rgb(192,192,192)"/>
  <rect x="7" y="6" width="1" height="1" fill="rgb(205,205,205)"/>
  <rect x="7" y="7" width="1" height="1" fill="rgb(218,218,218)"/>
  <rect x="7" y="8" width="1" height="1" fill="rgb(231,231,231)"/>
  <rect x="7" y="9" width="1" height="1" fill="rgb(244,244,244)"/>
  <rect x="7" y="10" width="1" height="1" fill="rgb(46,46,46)" fill-opacity="0.984375"/>
  <rect x="7" y="11" width="1" height="10" fill="rgb(255,255,255)" fill-opacity="0.0078125"/>
  <rect x="8" y="0" width="1" height="3" fill="rgb(255,255,255)" fill-opacity="0.0078125"/>
  <rect x="8" y="3" width="1" height="1" fill="rgb(44,44,44)" fill-opacity="0.984375"/>
  <rect x="8" y="4" width="1" height="1" fill="rgb(255,255,255)"/>
  <rect x="8" y="5" width="1" height="1" fill="rgb(203,203,203)"/>
  <rect x="8" y="6" width="1" height="1" fill="rgb(216,216,216)"/>
  <rect x="8" y="7" width="1" height="1" fill="rgb(229,229,229)"/>
  <rect x="8" y="8" width="1" height="1" fill="rgb(243,243,243)"/>
  <rect x="8" y="9" width="1" height="1" fill="rgb(255,255,255)"/>
  <rect x="8" y="10" width="1" height="1" fill="rgb(56,56,56)" fill-opacity="0.9921875"/>
  <rect x="8" y="11" width="1" height="1" fill="rgb(43,43,43)" fill-opacity="0.890625"/>
  <rect x="8" y="12" width="1" height="1" fill="rgb(44,44,44)" fill-opacity="0.890625"/>
  <rect x="8" y="13" width="1" height="2" fill="rgb(45,45,45)" fill-opacity="0.8984375"/>
  <rect x="8" y="15" width="1" height="3" fill="rgb(46,46,46)" fill-opacity="0.8984375"/>
  <rect x="8" y="18" width="1" height="1" fill="rgb(43,43,43)" fill-opacity="0.796875"/>
  <rect x="8" y="19" width="1" height="2" fill="rgb(255,255,255)" fill-opacity="0.0078125"/>
  <rect x="9" y="0" width="1" height="3" fill="rgb(255,255,255)" fill-opacity="0.0078125"/>
  <rect x="9" y="3" width="1" height="1" fill="rgb(44,44,44)" fill-opacity="0.984375"/>
  <rect x="9" y="4" width="1" height="1" fill="rgb(255,255,255)"/>
  <rect x="9" y="5" width="1" height="1" fill="rgb(215,215,215)"/>
  <rect x="9" y="6" width="1" height="1" fill="rgb(228,228,228)"/>
  <rect x="9" y="7" width="1" height="1" fill="rgb(241,241,241)"/>
  <rect x="9" y="8" width="1" height="1" fill="rgb(254,254,254)"/>
  <rect x="9" y="9" width="1" height="1" fill="rgb(255,255,255)"/>
  <rect x="9" y="10" width="1" height="1" fill="rgb(146,146,146)"/>
  <rect x="9" y="11" width="1" height="1" fill="rgb(208,208,208)"/>
  <rect x="9" y="12" width="1" height="1" fill="rgb(222,222,222)"/>
  <rect x="9" y="13" width="1" height="1" fill="rgb(236,236,236)"/>
  <rect x="9" y="14" width="1" height="1" fill="rgb(249,249,249)"/>
  <rect x="9" y="15" width="1" height="1" fill="rgb(251,251,251)"/>
  <rect x="9" y="16" width="1" height="2" fill="rgb(248,248,248)"/>
  <rect x="9" y="18" width="1" height="1" fill="rgb(47,47,47)" fill-opacity="0.9140625"/>
  <rect x="9" y="19" width="1" height="2" fill="rgb(255,255,255)" fill-opacity="0.0078125"/>
  <rect x="10" y="0" width="1" height="3" fill="rgb(255,255,255)" fill-opacity="0.0078125"/>
  <rect x="10" y="3" width="1" height="1" fill="rgb(51,51,51)" fill-opacity="0.953125"/>
  <rect x="10" y="4" width="1" height="1" fill="rgb(54,54,54)" fill-opacity="0.9765625"/>
  <rect x="10" y="5" width="1" height="1" fill="rgb(48,48,48)" fill-opacity="0.984375"/>
  <rect x="10" y="6" width="1" height="1" fill="rgb(47,47,47)" fill-opacity="0.984375"/>
  <rect x="10" y="7" width="1" height="1" fill="rgb(57,57,57)" fill-opacity="0.984375"/>
  <rect x="10" y="8" width="1" height="1" fill="rgb(150,150,150)"/>
  <rect x="10" y="9" width="1" height="1" fill="rgb(143,143,143)"/>
  <rect x="10" y="10" width="1" height="1" fill="rgb(139,139,139)"/>
  <rect x="10" y="11" width="1" height="1" fill="rgb(153,153,153)"/>
  <rect x="10" y="12" width="1" height="1" fill="rgb(171,171,171)"/>
  <rect x="10" y="13" width="1" height="1" fill="rgb(189,189,189)"/>
  <rect x="10" y="14" width="1" height="1" fill="rgb(209,209,209)"/>
  <rect x="10" y="15" width="1" height="1" fill="rgb(222,222,222)"/>
  <rect x="10" y="16" width="1" height="1" fill="rgb(230,230,230)"/>
  <rect x="10" y="17" width="1" height="1" fill="rgb(237,237,237)"/>
  <rect x="10" y="18" width="1" height="1" fill="rgb(48,48,48)" fill-opacity="0.9140625"/>
  <rect x="10" y="19" width="1" height="2" fill="rgb(255,255,255)" fill-opacity="0.0078125"/>
  <rect x="11" y="0" width="1" height="7" fill="rgb(255,255,255)" fill-opacity="0.0078125"/>
  <rect x="11" y="7" width="1" height="1" fill="rgb(40,40,40)" fill-opacity="0.9140625"/>
  <rect x="11" y="8" width="1" height="1" fill="rgb(210,210,210)"/>
  <rect x="11" y="9" width="1" height="1" fill="rgb(145,145,145)"/>
  <rect x="11" y="10" width="1" height="1" fill="rgb(152,152,152)"/>
  <rect x="11" y="11" width="1" height="1" fill="rgb(166,166,166)"/>
  <rect x="11" y="12" width="1" height="1" fill="rgb(182,182,182)"/>
  <rect x="11" y="13" width="1" height="1" fill="rgb(200,200,200)"/>
  <rect x="11" y="14" width="1" height="1" fill="rgb(219,219,219)"/>
  <rect x="11" y="15" width="1" height="1" fill="rgb(230,230,230)"/>
  <rect x="11" y="16" width="1" height="1" fill="rgb(238,238,238)"/>
  <rect x="11" y="17" width="1" height="1" fill="rgb(246,246,246)"/>
  <rect x="11" y="18" width="1" height="1" fill="rgb(48,48,48)" fill-opacity="0.9140625"/>
  <rect x="11" y="19" width="1" height="2" fill="rgb(255,255,255)" fill-opacity="0.0078125"/>
  <rect x="12" y="0" width="1" height="7" fill="rgb(255,255,255)" fill-opacity="0.0078125"/>
  <rect x="12" y="7" width="1" height="1" fill="rgb(41,41,41)" fill-opacity="0.9140625"/>
  <rect x="12" y="8" width="1" height="1" fill="rgb(223,223,223)"/>
  <rect x="12" y="9" width="1" height="1" fill="rgb(163,163,163)"/>
  <rect x="12" y="10" width="1" height="1" fill="rgb(170,170,170)"/>
  <rect x="12" y="11" width="1" height="1" fill="rgb(182,182,182)"/>
  <rect x="12" y="12" width="1" height="1" fill="rgb(196,196,196)"/>
  <rect x="12" y="13" width="1" height="1" fill="rgb(212,212,212)"/>
  <rect x="12" y="14" width="1" height="1" fill="rgb(230,230,230)"/>
  <rect x="12" y="15" width="1" height="1" fill="rgb(239,239,239)"/>
  <rect x="12" y="16" width="1" height="1" fill="rgb(247,247,247)"/>
  <rect x="12" y="17" width="1" height="1" fill="rgb(255,255,255)"/>
  <rect x="12" y="18" width="1" height="1" fill="rgb(49,49,49)" fill-opacity="0.9140625"/>
  <rect x="12" y="19" width="1" height="2" fill="rgb(255,255,255)" fill-opacity="0.0078125"/>
  <rect x="13" y="0" width="1" height="7" fill="rgb(255,255,255)" fill-opacity="0.0078125"/>
  <rect x="13" y="7" width="1" height="1" fill="rgb(42,42,42)" fill-opacity="0.9140625"/>
  <rect x="13" y="8" width="1" height="1" fill="rgb(237,237,237)"/>
  <rect x="13" y="9" width="1" height="1" fill="rgb(183,183,183)"/>
  <rect x="13" y="10" width="1" height="1" fill="rgb(190,190,190)"/>
  <rect x="13" y="11" width="1" height="1" fill="rgb(200,200,200)"/>
  <rect x="13" y="12" width="1" height="1" fill="rgb(213,213,213)"/>
  <rect x="13" y="13" width="1" height="1" fill="rgb(229,229,229)"/>
  <rect x="13" y="14" width="1" height="1" fill="rgb(239,239,239)"/>
  <rect x="13" y="15" width="1" height="1" fill="rgb(247,247,247)"/>
  <rect x="13" y="16" width="1" height="2" fill="rgb(255,255,255)"/>
  <rect x="13" y="18" width="1" height="1" fill="rgb(49,49,49)" fill-opacity="0.9140625"/>
  <rect x="13" y="19" width="1" height="2" fill="rgb(255,255,255)" fill-opacity="0.0078125"/>
  <rect x="14" y="0" width="1" height="7" fill="rgb(255,255,255)" fill-opacity="0.0078125"/>
  <rect x="14" y="7" width="1" height="1" fill="rgb(43,43,43)" fill-opacity="0.9140625"/>
  <rect x="14" y="8" width="1" height="1" fill="rgb(250,250,250)"/>
  <rect x="14" y="9" width="1" height="1" fill="rgb(202,202,202)"/>
  <rect x="14" y="10" width="1" height="1" fill="rgb(209,209,209)"/>
  <rect x="14" y="11" width="1" height="1" fill="rgb(220,220,220)"/>
  <rect x="14" y="12" width="1" height="1" fill="rgb(232,232,232)"/>
  <rect x="14" y="13" width="1" height="1" fill="rgb(240,240,240)"/>
  <rect x="14" y="14" width="1" height="1" fill="rgb(248,248,248)"/>
  <rect x="14" y="15" width="1" height="3" fill="rgb(255,255,255)"/>
  <rect x="14" y="18" width="1" height="1" fill="rgb(49,49,49)" fill-opacity="0.9140625"/>
  <rect x="14" y="19" width="1" height="2" fill="rgb(255,255,255)" fill-opacity="0.0078125"/>
  <rect x="15" y="0" width="1" height="7" fill="rgb(255,255,255)" fill-opacity="0.0078125"/>
  <rect x="15" y="7" width="1" height="1" fill="rgb(43,43,43)" fill-opacity="0.9140625"/>
  <rect x="15" y="8" width="1" height="1" fill="rgb(248,248,248)"/>
  <rect x="15" y="9" width="1" height="1" fill="rgb(216,216,216)"/>
  <rect x="15" y="10" width="1" height="1" fill="rgb(224,224,224)"/>
  <rect x="15" y="11" width="1" height="1" fill="rgb(232,232,232)"/>
  <rect x="15" y="12" width="1" height="1" fill="rgb(240,240,240)"/>
  <rect x="15" y="13" width="1" height="1" fill="rgb(248,248,248)"/>
  <rect x="15" y="14" width="1" height="4" fill="rgb(255,255,255)"/>
  <rect x="15" y="18" width="1" height="1" fill="rgb(49,49,49)" fill-opacity="0.9140625"/>
  <rect x="15" y="19" width="1" height="2" fill="rgb(255,255,255)" fill-opacity="0.0078125"/>
  <rect x="16" y="0" width="1" height="7" fill="rgb(255,255,255)" fill-opacity="0.0078125"/>
  <rect x="16" y="7" width="1" height="1" fill="rgb(44,44,44)" fill-opacity="0.9140625"/>
  <rect x="16" y="8" width="1" height="1" fill="rgb(245,245,245)"/>
  <rect x="16" y="9" width="1" height="1" fill="rgb(225,225,225)"/>
  <rect x="16" y="10" width="1" height="1" fill="rgb(233,233,233)"/>
  <rect x="16" y="11" width="1" height="1" fill="rgb(241,241,241)"/>
  <rect x="16" y="12" width="1" height="1" fill="rgb(249,249,249)"/>
  <rect x="16" y="13" width="1" height="5" fill="rgb(255,255,255)"/>
  <rect x="16" y="18" width="1" height="1" fill="rgb(49,49,49)" fill-opacity="0.9140625"/>
  <rect x="16" y="19" width="1" height="2" fill="rgb(255,255,255)" fill-opacity="0.0078125"/>
  <rect x="17" y="0" width="1" height="7" fill="rgb(255,255,255)" fill-opacity="0.0078125"/>
  <rect x="17" y="7" width="1" height="1" fill="rgb(44,44,44)" fill-opacity="0.8046875"/>
  <rect x="17" y="8" width="1" height="1" fill="rgb(48,48,48)" fill-opacity="0.9140625"/>
  <rect x="17" y="9" width="1" height="1" fill="rgb(49,49,49)" fill-opacity="0.9140625"/>
  <rect x="17" y="10" width="1" height="1" fill="rgb(51,51,51)" fill-opacity="0.9140625"/>
  <rect x="17" y="11" width="1" height="1" fill="rgb(52,52,52)" fill-opacity="0.9140625"/>
  <rect x="17" y="12" width="1" height="1" fill="rgb(53,53,53)" fill-opacity="0.90625"/>
  <rect x="17" y="13" width="1" height="4" fill="rgb(54,54,54)" fill-opacity="0.90625"/>
  <rect x="17" y="17" width="1" height="1" fill="rgb(55,55,55)" fill-opacity="0.8984375"/>
  <rect x="17" y="18" width="1" height="1" fill="rgb(46,46,46)" fill-opacity="0.8046875"/>
  <rect x="17" y="19" width="1" height="2" fill="rgb(255,255,255)" fill-opacity="0.0078125"/>
  <rect x="18" y="0" width="1" height="21" fill="rgb(255,255,255)" fill-opacity="0.0078125"/>
  <rect x="19" y="0" width="1" height="21" fill="rgb(255,255,255)" fill-opacity="0.0078125"/>
  <rect x="20" y="0" width="1" height="21" fill="rgb(255,255,255)" fill-opacity="0.0078125"/>
</svg>