<svg xmlns="http://www.w3.org/2000/svg" shape-rendering="crispEdges" width="21" height="21" viewBox="0 0 21 21">
  <rect x="0" y="0" width="1" height="21" fill="rgb(255,255,255)" fill-opacity="0.0078125"/>
  <rect x="1" y="0" width="1" height="21" fill="rgb(255,255,255)" fill-opacity="0.0078125"/>
  <rect x="2" y="0" width="1" height="5" fill="rgb(255,255,255)" fill-opacity="0.0078125"/>
  <rect x="2" y="5" width="1" height="1" fill="rgb(0,0,0)" fill-opacity="0.0078125"/>
  <rect x="2" y="6" width="1" height="2" fill="rgb(0,0,0)" fill-opacity="0.015625"/>
  <rect x="2" y="8" width="1" height="2" fill="rgb(0,0,0)" fill-opacity="0.0078125"/>
  <rect x="2" y="10" width="1" height="11" fill="rgb(255,255,255)" fill-opacity="0.0078125"/>
  <rect x="3" y="0" width="1" height="3" fill="rgb(255,255,255)" fill-opacity="0.0078125"/>
  <rect x="3" y="3" width="1" height="1" fill="rgb(0,0,0)" fill-opacity="0.0078125"/>
  <rect x="3" y="4" width="1" height="1" fill="rgb(0,0,0)" fill-opacity="0.015625"/>
  <rect x="3" y="5" width="1" height="1" fill="rgb(0,0,0)" fill-opacity="0.0234375"/>
  <rect x="3" y="6" width="1" height="2" fill="rgb(0,0,0)" fill-opacity="0.03125"/>
  <rect x="3" y="8" width="1" height="1" fill="rgb(0,0,0)" fill-opacity="0.0234375"/>
  <rect x="3" y="9" width="1" height="1" fill="rgb(0,0,0)" fill-opacity="0.015625"/>
  <rect x="3" y="10" width="1" height="1" fill="rgb(0,0,0)" fill-opacity="0.0078125"/>
  <rect x="3" y="11" width="1" height="10" fill="rgb(255,255,255)" fill-opacity="0.0078125"/>
  <rect x="4" y="0" width="1" height="2" fill="rgb(255,255,255)" fill-opacity="0.0078125"/>
  <rect x="4" y="2" width="1" height="1" fill="rgb(0,0,0)" fill-opacity="0.0078125"/>
  <rect x="4" y="3" width="1" height="1" fill="rgb(0,0,0)" fill-opacity="0.015625"/>
  <rect x="4" y="4" width="1" height="1" fill="rgb(0,0,0)" fill-opacity="0.03125"/>
  <rect x="4" y="5" width="1" height="1" fill="rgb(25,25,25)" fill-opacity="0.5703125"/>
  <rect x="4" y="6" width="1" height="1" fill="rgb(53,53,53)" fill-opacity="0.953125"/>
  <rect x="4" y="7" width="1" height="1" fill="rgb(40,40,40)" fill-opacity="0.9140625"/>
  <rect x="4" y="8" width="1" height="1" fill="rgb(42,42,42)" fill-opacity="0.9140625"/>
  <rect x="4" y="9" width="1" height="1" fill="rgb(43,43,43)" fill-opacity="0.9140625"/>
  <rect x="4" y="10" width="1" height="1" fill="rgb(44,44,44)" fill-opacity="0.9140625"/>
  <rect x="4" y="11" width="1" height="2" fill="rgb(45,45,45)" fill-opacity="0.9140625"/>
  <rect x="4" y="13" width="1" height="2" fill="rgb(46,46,46)" fill-opacity="0.9140625"/>
  <rect x="4" y="15" width="1" height="2" fill="rgb(47,47,47)" fill-opacity="0.9140625"/>
  <rect x="4" y="17" width="1" height="1" fill="rgb(48,48,48)" fill-opacity="0.9140625"/>
  <rect x="4" y="18" width="1" height="1" fill="rgb(45,45,45)" fill-opacity="0.796875"/>
  <rect x="4" y="19" width="1" height="2" fill="rgb(255,255,255)" fill-opacity="0.0078125"/>
  <rect x="5" y="0" width="1" height="2" fill="rgb(255,255,255)" fill-opacity="0.0078125"/>
  <rect x="5" y="2" width="1" height="1" fill="rgb(0,0,0)" fill-opacity="0.015625"/>
  <rect x="5" y="3" width="1" height="1" fill="rgb(0,0,0)" fill-opacity="0.03125"/>
  <rect x="5" y="4" width="1" height="1" fill="rgb(27,27,27)" fill-opacity="0.59375"/>
  <rect x="5" y="5" width="1" height="1" fill="rgb(102,102,102)" fill-opacity="0.9296875"/>
  <rect x="5" y="6" width="1" height="1" fill="rgb(255,255,255)"/>
  <rect x="5" y="7" width="1" height="1" fill="rgb(208,208,208)"/>
  <rect x="5" y="8" width="1" height="1" fill="rgb(246,246,246)"/>
  <rect x="5" y="9" width="1" height="1" fill="rgb(247,247,247)"/>
  <rect x="5" y="10" width="1" height="2" fill="rgb(245,245,245)"/>
  <rect x="5" y="12" width="1" height="1" fill="rgb(244,244,244)"/>
  <rect x="5" y="13" width="1" height="2" fill="rgb(245,245,245)"/>
  <rect x="5" y="15" width="1" height="1" fill="rgb(248,248,248)"/>
  <rect x="5" y="16" width="1" height="1" fill="rgb(250,250,250)"/>
  <rect x="5" y="17" width="1" height="1" fill="rgb(253,253,253)"/>
  <rect x="5" y="18" width="1" height="1" fill="rgb(49,49,49)" fill-opacity="0.9140625"/>
  <rect x="5" y="19" width="1" height="2" fill="rgb(255,255,255)" fill-opacity="0.0078125"/>
  <rect x="6" y="0" width="1" height="2" fill="rgb(255,255,255)" fill-opacity="0.0078125"/>
  <rect x="6" y="2" width="1" height="1" fill="rgb(0,0,0)" fill-opacity="0.0234375"/>
  <rect x="6" y="3" width="1" height="1" fill="rgb(31,31,31)" fill-opacity="0.5859375"/>
  <rect x="6" y="4" width="1" height="1" fill="rgb(104,104,104)" fill-opacity="0.9453125"/>
  <rect x="6" y="5" width="1" height="2" fill="rgb(255,255,255)"/>
  <rect x="6" y="7" width="1" height="1" fill="rgb(117,117,117)"/>
  <rect x="6" y="8" width="1" height="1" fill="rgb(184,184,184)"/>
  <rect x="6" y="9" width="1" height="1" fill="rgb(204,204,204)"/>
  <rect x="6" y="10" width="1" height="1" fill="rgb(217,217,217)"/>
  <rect x="6" y="11" width="1" height="1" fill="rgb(225,225,225)"/>
  <rect x="6" y="12" width="1" height="1" fill="rgb(231,231,231)"/>
  <rect x="6" y="13" width="1" height="1" fill="rgb(237,237,237)"/>
  <rect x="6" y="14" width="1" height="1" fill="rgb(242,242,242)"/>
  <rect x="6" y="15" width="1" height="1" fill="rgb(245,245,245)"/>
  <rect x="6" y="16" width="1" height="1" fill="rgb(26,26,26)"/>
  <rect x="6" y="17" width="1" height="1" fill="rgb(5,5,5)"/>
  <rect x="6" y="18" width="1" height="1" fill="rgb(49,49,49)" fill-opacity="0.9140625"/>
  <rect x="6" y="19" width="1" height="2" fill="rgb(255,255,255)" fill-opacity="0.0078125"/>
  <rect x="7" y="0" width="1" height="2" fill="rgb(255,255,255)" fill-opacity="0.0078125"/>
  <rect x="7" y="2" width="1" height="1" fill="rgb(0,0,0)" fill-opacity="0.03125"/>
  <rect x="7" y="3" width="1" height="1" fill="rgb(53,53,53)" fill-opacity="0.9609375"/>
  <rect x="7" y="4" width="1" height="3" fill="rgb(255,255,255)"/>
  <rect x="7" y="7" width="1" height="1" fill="rgb(136,136,136)"/>
  <rect x="7" y="8" width="1" height="1" fill="rgb(191,191,191)"/>
  <rect x="7" y="9" width="1" height="1" fill="rgb(211,211,211)"/>
  <rect x="7" y="10" width="1" height="1" fill="rgb(223,223,223)"/>
  <rect x="7" y="11" width="1" height="1" fill="rgb(230,230,230)"/>
  <rect x="7" y="12" width="1" height="1" fill="rgb(237,237,237)"/>
  <rect x="7" y="13" width="1" height="1" fill="rgb(242,242,242)"/>
  <rect x="7" y="14" width="1" height="1" fill="rgb(248,248,248)"/>
  <rect x="7" y="15" width="1" height="1" fill="rgb(234,234,234)"/>
  <rect x="7" y="16" width="1" height="1" fill="rgb(62,62,62)"/>
  <rect x="7" y="17" width="1" height="1" fill="rgb(242,242,242)"/>
  <rect x="7" y="18" width="1" height="1" fill="rgb(49,49,49)" fill-opacity="0.9140625"/>
  <rect x="7" y="19" width="1" height="2" fill="rgb(255,255,255)" fill-opacity="0.0078125"/>
  <rect x="8" y="0" width="1" height="2" fill="rgb(255,255,255)" fill-opacity="0.0078125"/>
  <rect x="8" y="2" width="1" height="1" fill="rgb(0,0,0)" fill-opacity="0.0390625"/>
  <rect x="8" y="3" width="1" height="1" fill="rgb(42,42,42)" fill-opacity="0.9140625"/>
  <rect x="8" y="4" width="1" height="1" fill="rgb(208,208,208)"/>
  <rect x="8" y="5" width="1" height="1" fill="rgb(113,113,113)"/>
  <rect x="8" y="6" width="1" height="1" fill="rgb(133,133,133)"/>
  <rect x="8" y="7" width="1" height="1" fill="rgb(163,163,163)"/>
  <rect x="8" y="8" width="1" height="1" fill="rgb(202,202,202)"/>
  <rect x="8" y="9" width="1" height="1" fill="rgb(215,215,215)"/>
  <rect x="8" y="10" width="1" height="1" fill="rgb(80,80,80)"/>
  <rect x="8" y="11" width="1" height="1" fill="rgb(55,55,55)"/>
  <rect x="8" y="12" width="1" height="1" fill="rgb(198,198,198)"/>
  <rect x="8" y="13" width="1" height="1" fill="rgb(248,248,248)"/>
  <rect x="8" y="14" width="1" height="1" fill="rgb(253,253,253)"/>
  <rect x="8" y="15" width="1" height="1" fill="rgb(217,217,217)"/>
  <rect x="8" y="16" width="1" height="1" fill="rgb(122,122,122)"/>
  <rect x="8" y="17" width="1" height="1" fill="rgb(218,218,218)"/>
  <rect x="8" y="18" width="1" height="1" fill="rgb(49,49,49)" fill-opacity="0.9140625"/>
  <rect x="8" y="19" width="1" height="2" fill="rgb(255,255,255)" fill-opacity="0.0078125"/>
  <rect x="9" y="0" width="1" height="2" fill="rgb(255,255,255)" fill-opacity="0.0078125"/>
  <rect x="9" y="2" width="1" height="1" fill="rgb(0,0,0)" fill-opacity="0.0234375"/>
  <rect x="9" y="3" width="1" height="1" fill="rgb(43,43,43)" fill-opacity="0.9140625"/>
  <rect x="9" y="4" width="1" height="1" fill="rgb(246,246,246)"/>
  <rect x="9" y="5" width="1" height="1" fill="rgb(185,185,185)"/>
  <rect x="9" y="6" width="1" height="1" fill="rgb(191,191,191)"/>
  <rect x="9" y="7" width="1" height="1" fill="rgb(202,202,202)"/>
  <rect x="9" y="8" width="1" height="1" fill="rgb(216,216,216)"/>
  <rect x="9" y="9" width="1" height="1" fill="rgb(80,80,80)"/>
  <rect x="9" y="10" width="1" height="1" fill="rgb(133,133,133)"/>
  <rect x="9" y="11" width="1" height="1" fill="rgb(210,210,210)"/>
  <rect x="9" y="12" width="1" height="1" fill="rgb(71,71,71)"/>
  <rect x="9" y="13" width="1" height="1" fill="rgb(110,110,110)"/>
  <rect x="9" y="14" width="1" height="1" fill="rgb(210,210,210)"/>
  <rect x="9" y="15" width="1" height="1" fill="rgb(115,115,115)"/>
  <rect x="9" y="16" width="1" height="1" fill="rgb(166,166,166)"/>
  <rect x="9" y="17" width="1" height="1" fill="rgb(207,207,207)"/>
  <rect x="9" y="18" width="1" height="1" fill="rgb(49,49,49)" fill-opacity="0.9140625"/>
  <rect x="9" y="19" width="1" height="2" fill="rgb(255,255,255)" fill-opacity="0.0078125"/>
  <rect x="10" y="0" width="1" height="2" fill="rgb(255,255,255)" fill-opacity="0.0078125"/>
  <rect x="10" y="2" width="1" height="1" fill="rgb(0,0,0)" fill-opacity="0.015625"/>
  <rect x="10" y="3" width="1" height="1" fill="rgb(44,44,44)" fill-opacity="0.9140625"/>
  <rect x="10" y="4" width="1" height="1" fill="rgb(248,248,248)"/>
  <rect x="10" y="5" width="1" height="1" fill="rgb(205,205,205)"/>
  <rect x="10" y="6" width="1" height="1" fill="rgb(212,212,212)"/>
  <rect x="10" y="7" width="1" height="1" fill="rgb(219,219,219)"/>
  <rect x="10" y="8" width="1" height="1" fill="rgb(227,227,227)"/>
  <rect x="10" y="9" width="1" height="1" fill="rgb(53,53,53)"/>
  <rect x="10" y="10" width="1" height="1" fill="rgb(210,210,210)"/>
  <rect x="10" y="11" width="1" height="1" fill="rgb(216,216,216)"/>
  <rect x="10" y="12" width="1" height="1" fill="rgb(231,231,231)"/>
  <rect x="10" y="13" width="1" height="1" fill="rgb(166,166,166)"/>
  <rect x="10" y="14" width="1" height="1" fill="rgb(73,73,73)"/>
  <rect x="10" y="15" width="1" height="1" fill="rgb(170,170,170)"/>
  <rect x="10" y="16" width="1" height="1" fill="rgb(236,236,236)"/>
  <rect x="10" y="17" width="1" height="1" fill="rgb(193,193,193)"/>
  <rect x="10" y="18" width="1" height="1" fill="rgb(49,49,49)" fill-opacity="0.9140625"/>
  <rect x="10" y="19" width="1" height="2" fill="rgb(255,255,255)" fill-opacity="0.0078125"/>
  <rect x="11" y="0" width="1" height="2" fill="rgb(255,255,255)" fill-opacity="0.0078125"/>
  <rect x="11" y="2" width="1" height="1" fill="rgb(0,0,0)" fill-opacity="0.0078125"/>
  <rect x="11" y="3" width="1" height="1" fill="rgb(45,45,45)" fill-opacity="0.9140625"/>
  <rect x="11" y="4" width="1" height="1" fill="rgb(250,250,250)"/>
  <rect x="11" y="5" width="1" height="1" fill="rgb(219,219,219)"/>
  <rect x="11" y="6" width="1" height="1" fill="rgb(224,224,224)"/>
  <rect x="11" y="7" width="1" height="1" fill="rgb(231,231,231)"/>
  <rect x="11" y="8" width="1" height="1" fill="rgb(237,237,237)"/>
  <rect x="11" y="9" width="1" height="1" fill="rgb(197,197,197)"/>
  <rect x="11" y="10" width="1" height="1" fill="rgb(72,72,72)"/>
  <rect x="11" y="11" width="1" height="1" fill="rgb(232,232,232)"/>
  <rect x="11" y="12" width="1" height="1" fill="rgb(185,185,185)"/>
  <rect x="11" y="13" width="1" height="1" fill="rgb(217,217,217)"/>
  <rect x="11" y="14" width="1" height="1" fill="rgb(237,237,237)"/>
  <rect x="11" y="15" width="1" height="1" fill="rgb(214,214,214)"/>
  <rect x="11" y="16" width="1" height="1" fill="rgb(188,188,188)"/>
  <rect x="11" y="17" width="1" height="1" fill="rgb(182,182,182)"/>
  <rect x="11" y="18" width="1" height="1" fill="rgb(49,49,49)" fill-opacity="0.9140625"/>
  <rect x="11" y="19" width="1" height="2" fill="rgb(255,255,255)" fill-opacity="0.0078125"/>
  <rect x="12" y="0" width="1" height="3" fill="rgb(255,255,255)" fill-opacity="0.0078125"/>
  <rect x="12" y="3" width="1" height="1" fill="rgb(45,45,45)" fill-opacity="0.9140625"/>
  <rect x="12" y="4" width="1" height="1" fill="rgb(249,249,249)"/>
  <rect x="12" y="5" width="1" height="1" fill="rgb(227,227,227)"/>
  <rect x="12" y="6" width="1" height="1" fill="rgb(232,232,232)"/>
  <rect x="12" y="7" width="1" height="1" fill="rgb(239,239,239)"/>
  <rect x="12" y="8" width="1" height="1" fill="rgb(244,244,244)"/>
  <rect x="12" y="9" width="1" height="1" fill="rgb(249,249,249)"/>
  <rect x="12" y="10" width="1" height="1" fill="rgb(107,107,107)"/>
  <rect x="12" y="11" width="1" height="1" fill="rgb(168,168,168)"/>
  <rect x="12" y="12" width="1" height="1" fill="rgb(217,217,217)"/>
  <rect x="12" y="13" width="1" height="2" fill="rgb(179,179,179)"/>
  <rect x="12" y="15" width="1" height="1" fill="rgb(146,146,146)"/>
  <rect x="12" y="16" width="1" height="1" fill="rgb(98,98,98)"/>
  <rect x="12" y="17" width="1" height="1" fill="rgb(80,80,80)"/>
  <rect x="12" y="18" width="1" height="1" fill="rgb(49,49,49)" fill-opacity="0.9140625"/>
  <rect x="12" y="19" width="1" height="2" fill="rgb(255,255,255)" fill-opacity="0.0078125"/>
  <rect x="13" y="0" width="1" height="3" fill="rgb(255,255,255)" fill-opacity="0.0078125"/>
  <rect x="13" y="3" width="1" height="1" fill="rgb(46,46,46)" fill-opacity="0.9140625"/>
  <rect x="13" y="4" width="1" height="1" fill="rgb(249,249,249)"/>
  <rect x="13" y="5" width="1" height="1" fill="rgb(233,233,233)"/>
  <rect x="13" y="6" width="1" height="1" fill="rgb(239,239,239)"/>
  <rect x="13" y="7" width="1" height="1" fill="rgb(244,244,244)"/>
  <rect x="13" y="8" width="1" height="1" fill="rgb(250,250,250)"/>
  <rect x="13" y="9" width="1" height="1" fill="rgb(255,255,255)"/>
  <rect x="13" y="10" width="1" height="1" fill="rgb(212,212,212)"/>
  <rect x="13" y="11" width="1" height="1" fill="rgb(73,73,73)"/>
  <rect x="13" y="12" width="1" height="1" fill="rgb(237,237,237)"/>
  <rect x="13" y="13" width="1" height="1" fill="rgb(179,179,179)"/>
  <rect x="13" y="14" width="1" height="1" fill="rgb(116,116,116)"/>
  <rect x="13" y="15" width="1" height="1" fill="rgb(77,77,77)"/>
  <rect x="13" y="16" width="1" height="1" fill="rgb(187,187,187)"/>
  <rect x="13" y="17" width="1" height="1" fill="rgb(233,233,233)"/>
  <rect x="13" y="18" width="1" height="1" fill="rgb(49,49,49)" fill-opacity="0.9140625"/>
  <rect x="13" y="19" width="1" height="2" fill="rgb(255,255,255)" fill-opacity="0.0078125"/>
  <rect x="14" y="0" width="1" height="3" fill="rgb(255,255,255)" fill-opacity="0.0078125"/>
  <rect x="14" y="3" width="1" height="1" fill="rgb(46,46,46)" fill-opacity="0.9140625"/>
  <rect x="14" y="4" width="1" height="1" fill="rgb(249,249,249)"/>
  <rect x="14" y="5" width="1" height="1" fill="rgb(239,239,239)"/>
  <rect x="14" y="6" width="1" height="1" fill="rgb(245,245,245)"/>
  <rect x="14" y="7" width="1" height="1" fill="rgb(248,248,248)"/>
  <rect x="14" y="8" width="1" height="1" fill="rgb(236,236,236)"/>
  <rect x="14" y="9" width="1" height="1" fill="rgb(219,219,219)"/>
  <rect x="14" y="10" width="1" height="1" fill="rgb(122,122,122)"/>
  <rect x="14" y="11" width="1" height="1" fill="rgb(171,171,171)"/>
  <rect x="14" y="12" width="1" height="1" fill="rgb(214,214,214)"/>
  <rect x="14" y="13" width="1" height="1" fill="rgb(146,146,146)"/>
  <rect x="14" y="14" width="1" height="1" fill="rgb(78,78,78)"/>
  <rect x="14" y="15" width="1" height="1" fill="rgb(244,244,244)"/>
  <rect x="14" y="16" width="1" height="2" fill="rgb(255,255,255)"/>
  <rect x="14" y="18" width="1" height="1" fill="rgb(49,49,49)" fill-opacity="0.9140625"/>
  <rect x="14" y="19" width="1" height="2" fill="rgb(255,255,255)" fill-opacity="0.0078125"/>
  <rect x="15" y="0" width="1" height="3" fill="rgb(255,255,255)" fill-opacity="0.0078125"/>
  <rect x="15" y="3" width="1" height="1" fill="rgb(47,47,47)" fill-opacity="0.9140625"/>
  <rect x="15" y="4" width="1" height="1" fill="rgb(249,249,249)"/>
  <rect x="15" y="5" width="1" height="1" fill="rgb(245,245,245)"/>
  <rect x="15" y="6" width="1" height="1" fill="rgb(250,250,250)"/>
  <rect x="15" y="7" width="1" height="1" fill="rgb(29,29,29)"/>
  <rect x="15" y="8" width="1" height="1" fill="rgb(66,66,66)"/>
  <rect x="15" y="9" width="1" height="1" fill="rgb(125,125,125)"/>
  <rect x="15" y="10" width="1" height="1" fill="rgb(167,167,167)"/>
  <rect x="15" y="11" width="1" height="1" fill="rgb(236,236,236)"/>
  <rect x="15" y="12" width="1" height="1" fill="rgb(188,188,188)"/>
  <rect x="15" y="13" width="1" height="1" fill="rgb(99,99,99)"/>
  <rect x="15" y="14" width="1" height="1" fill="rgb(188,188,188)"/>
  <rect x="15" y="15" width="1" height="3" fill="rgb(255,255,255)"/>
  <rect x="15" y="18" width="1" height="1" fill="rgb(49,49,49)" fill-opacity="0.9140625"/>
  <rect x="15" y="19" width="1" height="2" fill="rgb(255,255,255)" fill-opacity="0.0078125"/>
  <rect x="16" y="0" width="1" height="3" fill="rgb(255,255,255)" fill-opacity="0.0078125"/>
  <rect x="16" y="3" width="1" height="1" fill="rgb(47,47,47)" fill-opacity="0.9140625"/>
  <rect x="16" y="4" width="1" height="2" fill="rgb(251,251,251)"/>
  <rect x="16" y="6" width="1" height="1" fill="rgb(255,255,255)"/>
  <rect x="16" y="7" width="1" height="1" fill="rgb(13,13,13)"/>
  <rect x="16" y="8" width="1" height="1" fill="rgb(242,242,242)"/>
  <rect x="16" y="9" width="1" height="1" fill="rgb(218,218,218)"/>
  <rect x="16" y="10" width="1" height="1" fill="rgb(207,207,207)"/>
  <rect x="16" y="11" width="1" height="1" fill="rgb(193,193,193)"/>
  <rect x="16" y="12" width="1" height="1" fill="rgb(180,180,180)"/>
  <rect x="16" y="13" width="1" height="1" fill="rgb(81,81,81)"/>
  <rect x="16" y="14" width="1" height="1" fill="rgb(233,233,233)"/>
  <rect x="16" y="15" width="1" height="3" fill="rgb(255,255,255)"/>
  <rect x="16" y="18" width="1" height="1" fill="rgb(49,49,49)" fill-opacity="0.9140625"/>
  <rect x="16" y="19" width="1" height="2" fill="rgb(255,255,255)" fill-opacity="0.0078125"/>
  <rect x="17" y="0" width="1" height="3" fill="rgb(255,255,255)" fill-opacity="0.0078125"/>
  <rect x="17" y="3" width="1" height="1" fill="rgb(45,45,45)" fill-opacity="0.796875"/>
  <rect x="17" y="4" width="1" height="1" fill="rgb(48,48,48)" fill-opacity="0.9140625"/>
  <rect x="17" y="5" width="1" height="13" fill="rgb(49,49,49)" fill-opacity="0.9140625"/>
  <rect x="17" y="18" width="1" height="1" fill="rgb(45,45,45)" fill-opacity="0.796875"/>
  <rect x="17" y="19" width="1" height="2" fill="rgb(255,255,255)" fill-opacity="0.0078125"/>
  <rect x="18" y="0" width="1" height="21" fill="rgb(255,255,255)" fill-opacity="0.0078125"/>
  <rect x="19" y="0" width="1" height="21" fill="rgb(255,255,255)" fill-opacity="0.0078125"/>
  <rect x="20" y="0" width="1" height="21" fill="rgb(255,255,255)" fill-opacity="0.0078125"/>
</svg>