<svg xmlns="http://www.w3.org/2000/svg" shape-rendering="crispEdges" width="21" height="21" viewBox="0 0 21 21">
  <rect x="0" y="0" width="1" height="21" fill="rgb(255,255,255)" fill-opacity="0.0078125"/>
  <rect x="1" y="0" width="1" height="21" fill="rgb(255,255,255)" fill-opacity="0.0078125"/>
  <rect x="2" y="0" width="1" height="21" fill="rgb(255,255,255)" fill-opacity="0.0078125"/>
  <rect x="3" y="0" width="1" height="9" fill="rgb(255,255,255)" fill-opacity="0.0078125"/>
  <rect x="3" y="9" width="1" height="1" fill="rgb(79,79,26)" fill-opacity="0.1171875"/>
  <rect x="3" y="10" width="1" height="1" fill="rgb(80,80,21)" fill-opacity="0.390625"/>
  <rect x="3" y="11" width="1" height="1" fill="rgb(79,79,26)" fill-opacity="0.1171875"/>
  <rect x="3" y="12" width="1" height="9" fill="rgb(255,255,255)" fill-opacity="0.0078125"/>
  <rect x="4" y="0" width="1" height="7" fill="rgb(255,255,255)" fill-opacity="0.0078125"/>
  <rect x="4" y="7" width="1" height="1" fill="rgb(140,135,10)" fill-opacity="0.203125"/>
  <rect x="4" y="8" width="1" height="1" fill="rgb(143,143,15)" fill-opacity="0.546875"/>
  <rect x="4" y="9" width="1" height="1" fill="rgb(105,101,27)" fill-opacity="0.5546875"/>
  <rect x="4" y="10" width="1" height="1" fill="rgb(254,254,249)" fill-opacity="0.6875"/>
  <rect x="4" y="11" width="1" height="1" fill="rgb(105,103,27)" fill-opacity="0.5546875"/>
  <rect x="4" y="12" width="1" height="1" fill="rgb(141,141,15)" fill-opacity="0.546875"/>
  <rect x="4" y="13" width="1" height="1" fill="rgb(140,135,10)" fill-opacity="0.203125"/>
  <rect x="4" y="14" width="1" height="7" fill="rgb(255,255,255)" fill-opacity="0.0078125"/>
  <rect x="5" y="0" width="1" height="7" fill="rgb(255,255,255)" fill-opacity="0.0078125"/>
  <rect x="5" y="7" width="1" height="1" fill="rgb(143,143,15)" fill-opacity="0.546875"/>
  <rect x="5" y="8" width="1" height="1" fill="rgb(255,255,255)"/>
  <rect x="5" y="9" width="1" height="1" fill="rgb(138,137,30)" fill-opacity="0.78125"/>
  <rect x="5" y="10" width="1" height="1" fill="rgb(104,103,29)" fill-opacity="0.8359375"/>
  <rect x="5" y="11" width="1" height="1" fill="rgb(137,137,30)" fill-opacity="0.7734375"/>
  <rect x="5" y="12" width="1" height="1" fill="rgb(255,255,255)"/>
  <rect x="5" y="13" width="1" height="1" fill="rgb(141,141,15)" fill-opacity="0.546875"/>
  <rect x="5" y="14" width="1" height="7" fill="rgb(255,255,255)" fill-opacity="0.0078125"/>
  <rect x="6" y="0" width="1" height="5" fill="rgb(255,255,255)" fill-opacity="0.0078125"/>
  <rect x="6" y="5" width="1" height="1" fill="rgb(9,24,43)" fill-opacity="0.21875"/>
  <rect x="6" y="6" width="1" height="1" fill="rgb(12,24,41)" fill-opacity="0.421875"/>
  <rect x="6" y="7" width="1" height="1" fill="rgb(83,87,53)" fill-opacity="0.6796875"/>
  <rect x="6" y="8" width="1" height="1" fill="rgb(130,131,38)" fill-opacity="0.8984375"/>
  <rect x="6" y="9" width="1" height="1" fill="rgb(90,90,12)" fill-opacity="0.984375"/>
  <rect x="6" y="10" width="1" height="1" fill="rgb(255,255,255)"/>
  <rect x="6" y="11" width="1" height="1" fill="rgb(91,90,10)" fill-opacity="0.9609375"/>
  <rect x="6" y="12" width="1" height="1" fill="rgb(137,137,30)" fill-opacity="0.7734375"/>
  <rect x="6" y="13" width="1" height="1" fill="rgb(105,103,27)" fill-opacity="0.5546875"/>
  <rect x="6" y="14" width="1" height="1" fill="rgb(79,79,26)" fill-opacity="0.1171875"/>
  <rect x="6" y="15" width="1" height="6" fill="rgb(255,255,255)" fill-opacity="0.0078125"/>
  <rect x="7" y="0" width="1" height="4" fill="rgb(255,255,255)" fill-opacity="0.0078125"/>
  <rect x="7" y="4" width="1" height="1" fill="rgb(12,22,40)" fill-opacity="0.328125"/>
  <rect x="7" y="5" width="1" height="1" fill="rgb(97,109,127)" fill-opacity="0.6796875"/>
  <rect x="7" y="6" width="1" height="1" fill="rgb(195,208,225)" fill-opacity="0.9296875"/>
  <rect x="7" y="7" width="1" height="1" fill="rgb(214,226,243)"/>
  <rect x="7" y="8" width="1" height="1" fill="rgb(149,152,96)"/>
  <rect x="7" y="9" width="1" height="3" fill="rgb(255,255,255)"/>
  <rect x="7" y="12" width="1" height="1" fill="rgb(104,103,29)" fill-opacity="0.8359375"/>
  <rect x="7" y="13" width="1" height="1" fill="rgb(254,254,249)" fill-opacity="0.6875"/>
  <rect x="7" y="14" width="1" height="1" fill="rgb(80,80,21)" fill-opacity="0.390625"/>
  <rect x="7" y="15" width="1" height="6" fill="rgb(255,255,255)" fill-opacity="0.0078125"/>
  <rect x="8" y="0" width="1" height="3" fill="rgb(255,255,255)" fill-opacity="0.0078125"/>
  <rect x="8" y="3" width="1" height="1" fill="rgb(10,20,39)" fill-opacity="0.109375"/>
  <rect x="8" y="4" width="1" height="1" fill="rgb(79,91,108)" fill-opacity="0.6484375"/>
  <rect x="8" y="5" width="1" height="1" fill="rgb(213,225,242)" fill-opacity="0.9921875"/>
  <rect x="8" y="6" width="1" height="1" fill="rgb(141,154,171)" fill-opacity="0.7734375"/>
  <rect x="8" y="7" width="1" height="1" fill="rgb(102,109,77)" fill-opacity="0.7265625"/>
  <rect x="8" y="8" width="1" height="1" fill="rgb(130,131,38)" fill-opacity="0.8984375"/>
  <rect x="8" y="9" width="1" height="1" fill="rgb(90,90,12)" fill-opacity="0.984375"/>
  <rect x="8" y="10" width="1" height="1" fill="rgb(255,255,255)"/>
  <rect x="8" y="11" width="1" height="1" fill="rgb(91,90,10)" fill-opacity="0.9609375"/>
  <rect x="8" y="12" width="1" height="1" fill="rgb(137,137,30)" fill-opacity="0.7734375"/>
  <rect x="8" y="13" width="1" height="1" fill="rgb(105,103,27)" fill-opacity="0.5546875"/>
  <rect x="8" y="14" width="1" height="1" fill="rgb(79,79,26)" fill-opacity="0.1171875"/>
  <rect x="8" y="15" width="1" height="6" fill="rgb(255,255,255)" fill-opacity="0.0078125"/>
  <rect x="9" y="0" width="1" height="3" fill="rgb(255,255,255)" fill-opacity="0.0078125"/>
  <rect x="9" y="3" width="1" height="1" fill="rgb(10,24,41)" fill-opacity="0.296875"/>
  <rect x="9" y="4" width="1" height="1" fill="rgb(156,168,184)" fill-opacity="0.8125"/>
  <rect x="9" y="5" width="1" height="1" fill="rgb(175,187,204)" fill-opacity="0.859375"/>
  <rect x="9" y="6" width="1" height="1" fill="rgb(10,22,40)" fill-opacity="0.40625"/>
  <rect x="9" y="7" width="1" height="1" fill="rgb(136,136,16)" fill-opacity="0.578125"/>
  <rect x="9" y="8" width="1" height="1" fill="rgb(255,255,255)"/>
  <rect x="9" y="9" width="1" height="1" fill="rgb(138,137,30)" fill-opacity="0.78125"/>
  <rect x="9" y="10" width="1" height="1" fill="rgb(104,103,29)" fill-opacity="0.8359375"/>
  <rect x="9" y="11" width="1" height="1" fill="rgb(137,137,30)" fill-opacity="0.7734375"/>
  <rect x="9" y="12" width="1" height="1" fill="rgb(255,255,255)"/>
  <rect x="9" y="13" width="1" height="1" fill="rgb(141,141,15)" fill-opacity="0.546875"/>
  <rect x="9" y="14" width="1" height="7" fill="rgb(255,255,255)" fill-opacity="0.0078125"/>
  <rect x="10" y="0" width="1" height="3" fill="rgb(255,255,255)" fill-opacity="0.0078125"/>
  <rect x="10" y="3" width="1" height="1" fill="rgb(11,22,40)" fill-opacity="0.4609375"/>
  <rect x="10" y="4" width="1" height="1" fill="rgb(203,214,231)" fill-opacity="0.953125"/>
  <rect x="10" y="5" width="1" height="1" fill="rgb(113,124,141)" fill-opacity="0.7109375"/>
  <rect x="10" y="6" width="1" height="1" fill="rgb(11,23,40)" fill-opacity="0.1796875"/>
  <rect x="10" y="7" width="1" height="1" fill="rgb(140,135,10)" fill-opacity="0.203125"/>
  <rect x="10" y="8" width="1" height="1" fill="rgb(143,143,15)" fill-opacity="0.546875"/>
  <rect x="10" y="9" width="1" height="1" fill="rgb(105,101,27)" fill-opacity="0.5546875"/>
  <rect x="10" y="10" width="1" height="1" fill="rgb(254,254,249)" fill-opacity="0.6875"/>
  <rect x="10" y="11" width="1" height="1" fill="rgb(105,103,27)" fill-opacity="0.5546875"/>
  <rect x="10" y="12" width="1" height="1" fill="rgb(141,141,15)" fill-opacity="0.546875"/>
  <rect x="10" y="13" width="1" height="1" fill="rgb(140,135,10)" fill-opacity="0.203125"/>
  <rect x="10" y="14" width="1" height="7" fill="rgb(255,255,255)" fill-opacity="0.0078125"/>
  <rect x="11" y="0" width="1" height="3" fill="rgb(255,255,255)" fill-opacity="0.0078125"/>
  <rect x="11" y="3" width="1" height="1" fill="rgb(11,22,40)" fill-opacity="0.4609375"/>
  <rect x="11" y="4" width="1" height="1" fill="rgb(203,214,231)" fill-opacity="0.953125"/>
  <rect x="11" y="5" width="1" height="1" fill="rgb(113,124,141)" fill-opacity="0.7109375"/>
  <rect x="11" y="6" width="1" height="1" fill="rgb(11,23,40)" fill-opacity="0.1796875"/>
  <rect x="11" y="7" width="1" height="1" fill="rgb(16,32,64)" fill-opacity="0.0703125"/>
  <rect x="11" y="8" width="1" height="1" fill="rgb(39,57,81)" fill-opacity="0.71875"/>
  <rect x="11" y="9" width="1" height="1" fill="rgb(50,65,78)" fill-opacity="0.9453125"/>
  <rect x="11" y="10" width="1" height="1" fill="rgb(57,66,57)" fill-opacity="0.9453125"/>
  <rect x="11" y="11" width="1" height="1" fill="rgb(46,60,75)" fill-opacity="0.921875"/>
  <rect x="11" y="12" width="1" height="3" fill="rgb(41,57,82)" fill-opacity="0.9140625"/>
  <rect x="11" y="15" width="1" height="1" fill="rgb(41,57,81)" fill-opacity="0.9140625"/>
  <rect x="11" y="16" width="1" height="1" fill="rgb(40,57,81)" fill-opacity="0.9140625"/>
  <rect x="11" y="17" width="1" height="1" fill="rgb(37,55,79)" fill-opacity="0.6953125"/>
  <rect x="11" y="18" width="1" height="1" fill="rgb(18,36,55)" fill-opacity="0.0625"/>
  <rect x="11" y="19" width="1" height="2" fill="rgb(255,255,255)" fill-opacity="0.0078125"/>
  <rect x="12" y="0" width="1" height="3" fill="rgb(255,255,255)" fill-opacity="0.0078125"/>
  <rect x="12" y="3" width="1" height="1" fill="rgb(10,24,41)" fill-opacity="0.296875"/>
  <rect x="12" y="4" width="1" height="1" fill="rgb(156,168,184)" fill-opacity="0.8125"/>
  <rect x="12" y="5" width="1" height="1" fill="rgb(175,187,204)" fill-opacity="0.859375"/>
  <rect x="12" y="6" width="1" height="1" fill="rgb(10,22,40)" fill-opacity="0.40625"/>
  <rect x="12" y="7" width="1" height="1" fill="rgb(28,46,71)" fill-opacity="0.640625"/>
  <rect x="12" y="8" width="1" height="1" fill="rgb(144,157,175)"/>
  <rect x="12" y="9" width="1" height="1" fill="rgb(239,246,255)"/>
  <rect x="12" y="10" width="1" height="1" fill="rgb(238,243,252)"/>
  <rect x="12" y="11" width="1" height="1" fill="rgb(234,240,249)"/>
  <rect x="12" y="12" width="1" height="1" fill="rgb(233,239,248)"/>
  <rect x="12" y="13" width="1" height="1" fill="rgb(232,238,248)"/>
  <rect x="12" y="14" width="1" height="1" fill="rgb(231,238,248)"/>
  <rect x="12" y="15" width="1" height="1" fill="rgb(229,237,247)"/>
  <rect x="12" y="16" width="1" height="1" fill="rgb(228,235,247)"/>
  <rect x="12" y="17" width="1" height="1" fill="rgb(123,139,158)" fill-opacity="0.9921875"/>
  <rect x="12" y="18" width="1" height="1" fill="rgb(30,49,75)" fill-opacity="0.578125"/>
  <rect x="12" y="19" width="1" height="2" fill="rgb(255,255,255)" fill-opacity="0.0078125"/>
  <rect x="13" y="0" width="1" height="3" fill="rgb(255,255,255)" fill-opacity="0.0078125"/>
  <rect x="13" y="3" width="1" height="1" fill="rgb(10,20,39)" fill-opacity="0.109375"/>
  <rect x="13" y="4" width="1" height="1" fill="rgb(79,91,108)" fill-opacity="0.6484375"/>
  <rect x="13" y="5" width="1" height="1" fill="rgb(213,225,242)" fill-opacity="0.9921875"/>
  <rect x="13" y="6" width="1" height="1" fill="rgb(136,149,166)" fill-opacity="0.8046875"/>
  <rect x="13" y="7" width="1" height="1" fill="rgb(50,64,81)" fill-opacity="0.9765625"/>
  <rect x="13" y="8" width="1" height="1" fill="rgb(64,75,91)"/>
  <rect x="13" y="9" width="1" height="1" fill="rgb(144,152,164)"/>
  <rect x="13" y="10" width="1" height="1" fill="rgb(221,232,248)"/>
  <rect x="13" y="11" width="1" height="1" fill="rgb(161,187,225)"/>
  <rect x="13" y="12" width="1" height="1" fill="rgb(159,186,225)"/>
  <rect x="13" y="13" width="1" height="1" fill="rgb(158,185,224)"/>
  <rect x="13" y="14" width="1" height="1" fill="rgb(156,183,223)"/>
  <rect x="13" y="15" width="1" height="1" fill="rgb(154,182,223)"/>
  <rect x="13" y="16" width="1" height="1" fill="rgb(155,182,223)"/>
  <rect x="13" y="17" width="1" height="1" fill="rgb(172,189,215)"/>
  <rect x="13" y="18" width="1" height="1" fill="rgb(31,51,79)" fill-opacity="0.8125"/>
  <rect x="13" y="19" width="1" height="2" fill="rgb(255,255,255)" fill-opacity="0.0078125"/>
  <rect x="14" y="0" width="1" height="4" fill="rgb(255,255,255)" fill-opacity="0.0078125"/>
  <rect x="14" y="4" width="1" height="1" fill="rgb(12,22,40)" fill-opacity="0.328125"/>
  <rect x="14" y="5" width="1" height="1" fill="rgb(97,109,127)" fill-opacity="0.6796875"/>
  <rect x="14" y="6" width="1" height="1" fill="rgb(190,204,220)" fill-opacity="0.953125"/>
  <rect x="14" y="7" width="1" height="1" fill="rgb(214,226,243)"/>
  <rect x="14" y="8" width="1" height="1" fill="rgb(207,218,236)"/>
  <rect x="14" y="9" width="1" height="1" fill="rgb(70,81,96)"/>
  <rect x="14" y="10" width="1" height="1" fill="rgb(232,241,252)"/>
  <rect x="14" y="11" width="1" height="1" fill="rgb(115,153,209)"/>
  <rect x="14" y="12" width="1" height="1" fill="rgb(113,152,209)"/>
  <rect x="14" y="13" width="1" height="1" fill="rgb(111,151,208)"/>
  <rect x="14" y="14" width="1" height="1" fill="rgb(110,150,208)"/>
  <rect x="14" y="15" width="1" height="1" fill="rgb(108,149,207)"/>
  <rect x="14" y="16" width="1" height="1" fill="rgb(107,148,207)"/>
  <rect x="14" y="17" width="1" height="1" fill="rgb(151,179,220)"/>
  <rect x="14" y="18" width="1" height="1" fill="rgb(23,45,73)" fill-opacity="0.921875"/>
  <rect x="14" y="19" width="1" height="2" fill="rgb(255,255,255)" fill-opacity="0.0078125"/>
  <rect x="15" y="0" width="1" height="5" fill="rgb(255,255,255)" fill-opacity="0.0078125"/>
  <rect x="15" y="5" width="1" height="1" fill="rgb(9,24,43)" fill-opacity="0.21875"/>
  <rect x="15" y="6" width="1" height="1" fill="rgb(12,24,42)" fill-opacity="0.5078125"/>
  <rect x="15" y="7" width="1" height="1" fill="rgb(27,39,58)" fill-opacity="0.96875"/>
  <rect x="15" y="8" width="1" height="1" fill="rgb(61,72,88)"/>
  <rect x="15" y="9" width="1" height="1" fill="rgb(141,149,161)"/>
  <rect x="15" y="10" width="1" height="1" fill="rgb(199,216,241)"/>
  <rect x="15" y="11" width="1" height="1" fill="rgb(69,120,194)"/>
  <rect x="15" y="12" width="1" height="1" fill="rgb(67,119,193)"/>
  <rect x="15" y="13" width="1" height="1" fill="rgb(65,118,193)"/>
  <rect x="15" y="14" width="1" height="1" fill="rgb(64,116,192)"/>
  <rect x="15" y="15" width="1" height="1" fill="rgb(62,115,192)"/>
  <rect x="15" y="16" width="1" height="1" fill="rgb(62,116,192)"/>
  <rect x="15" y="17" width="1" height="1" fill="rgb(92,130,185)"/>
  <rect x="15" y="18" width="1" height="1" fill="rgb(21,45,76)" fill-opacity="0.8046875"/>
  <rect x="15" y="19" width="1" height="2" fill="rgb(255,255,255)" fill-opacity="0.0078125"/>
  <rect x="16" y="0" width="1" height="7" fill="rgb(255,255,255)" fill-opacity="0.0078125"/>
  <rect x="16" y="7" width="1" height="1" fill="rgb(18,41,70)" fill-opacity="0.6171875"/>
  <rect x="16" y="8" width="1" height="1" fill="rgb(123,142,168)"/>
  <rect x="16" y="9" width="1" height="1" fill="rgb(239,246,255)"/>
  <rect x="16" y="10" width="1" height="1" fill="rgb(155,183,224)"/>
  <rect x="16" y="11" width="1" height="1" fill="rgb(82,130,198)"/>
  <rect x="16" y="12" width="1" height="1" fill="rgb(81,129,197)"/>
  <rect x="16" y="13" width="1" height="1" fill="rgb(78,127,197)"/>
  <rect x="16" y="14" width="1" height="1" fill="rgb(76,126,196)"/>
  <rect x="16" y="15" width="1" height="1" fill="rgb(74,124,195)"/>
  <rect x="16" y="16" width="1" height="1" fill="rgb(71,122,194)"/>
  <rect x="16" y="17" width="1" height="1" fill="rgb(38,74,127)" fill-opacity="0.984375"/>
  <rect x="16" y="18" width="1" height="1" fill="rgb(18,40,71)" fill-opacity="0.5546875"/>
  <rect x="16" y="19" width="1" height="2" fill="rgb(255,255,255)" fill-opacity="0.0078125"/>
  <rect x="17" y="0" width="1" height="7" fill="rgb(255,255,255)" fill-opacity="0.0078125"/>
  <rect x="17" y="7" width="1" height="1" fill="rgb(16,32,64)" fill-opacity="0.0703125"/>
  <rect x="17" y="8" width="1" height="1" fill="rgb(22,45,76)" fill-opacity="0.71875"/>
  <rect x="17" y="9" width="1" height="1" fill="rgb(31,52,81)" fill-opacity="0.9375"/>
  <rect x="17" y="10" width="1" height="6" fill="rgb(20,42,75)" fill-opacity="0.9140625"/>
  <rect x="17" y="16" width="1" height="1" fill="rgb(19,43,75)" fill-opacity="0.9140625"/>
  <rect x="17" y="17" width="1" height="1" fill="rgb(18,41,73)" fill-opacity="0.6875"/>
  <rect x="17" y="18" width="1" height="1" fill="rgb(26,26,51)" fill-opacity="0.046875"/>
  <rect x="17" y="19" width="1" height="2" fill="rgb(255,255,255)" fill-opacity="0.0078125"/>
  <rect x="18" y="0" width="1" height="21" fill="rgb(255,255,255)" fill-opacity="0.0078125"/>
  <rect x="19" y="0" width="1" height="21" fill="rgb(255,255,255)" fill-opacity="0.0078125"/>
  <rect x="20" y="0" width="1" height="21" fill="rgb(255,255,255)" fill-opacity="0.0078125"/>
</svg>