<svg xmlns="http://www.w3.org/2000/svg" shape-rendering="crispEdges" width="21" height="21" viewBox="0 0 21 21">
  <rect x="0" y="0" width="1" height="21" fill="rgb(255,255,255)" fill-opacity="0.0078125"/>
  <rect x="1" y="0" width="1" height="21" fill="rgb(255,255,255)" fill-opacity="0.0078125"/>
  <rect x="2" y="0" width="1" height="21" fill="rgb(255,255,255)" fill-opacity="0.0078125"/>
  <rect x="3" y="0" width="1" height="21" fill="rgb(255,255,255)" fill-opacity="0.0078125"/>
  <rect x="4" y="0" width="1" height="21" fill="rgb(255,255,255)" fill-opacity="0.0078125"/>
  <rect x="5" y="0" width="1" height="10" fill="rgb(255,255,255)" fill-opacity="0.0078125"/>
  <rect x="5" y="10" width="1" height="1" fill="rgb(0,0,0)" fill-opacity="0.1796875"/>
  <rect x="5" y="11" width="1" height="1" fill="rgb(10,10,10)" fill-opacity="0.828125"/>
  <rect x="5" y="12" width="1" height="1" fill="rgb(0,0,0)" fill-opacity="0.203125"/>
  <rect x="5" y="13" width="1" height="8" fill="rgb(255,255,255)" fill-opacity="0.0078125"/>
  <rect x="6" y="0" width="1" height="9" fill="rgb(255,255,255)" fill-opacity="0.0078125"/>
  <rect x="6" y="9" width="1" height="1" fill="rgb(0,0,0)" fill-opacity="0.1796875"/>
  <rect x="6" y="10" width="1" height="1" fill="rgb(24,24,24)" fill-opacity="0.9140625"/>
  <rect x="6" y="11" width="1" height="1" fill="rgb(173,173,173)"/>
  <rect x="6" y="12" width="1" height="1" fill="rgb(17,17,17)" fill-opacity="0.921875"/>
  <rect x="6" y="13" width="1" height="1" fill="rgb(0,0,0)" fill-opacity="0.203125"/>
  <rect x="6" y="14" width="1" height="7" fill="rgb(255,255,255)" fill-opacity="0.0078125"/>
  <rect x="7" y="0" width="1" height="8" fill="rgb(255,255,255)" fill-opacity="0.0078125"/>
  <rect x="7" y="8" width="1" height="1" fill="rgb(0,0,0)" fill-opacity="0.1796875"/>
  <rect x="7" y="9" width="1" height="1" fill="rgb(24,24,24)" fill-opacity="0.921875"/>
  <rect x="7" y="10" width="1" height="1" fill="rgb(223,223,223)"/>
  <rect x="7" y="11" width="1" height="1" fill="rgb(232,232,232)"/>
  <rect x="7" y="12" width="1" height="1" fill="rgb(149,149,149)"/>
  <rect x="7" y="13" width="1" height="1" fill="rgb(17,17,17)" fill-opacity="0.921875"/>
  <rect x="7" y="14" width="1" height="1" fill="rgb(0,0,0)" fill-opacity="0.203125"/>
  <rect x="7" y="15" width="1" height="6" fill="rgb(255,255,255)" fill-opacity="0.0078125"/>
  <rect x="8" y="0" width="1" height="7" fill="rgb(255,255,255)" fill-opacity="0.0078125"/>
  <rect x="8" y="7" width="1" height="1" fill="rgb(0,0,0)" fill-opacity="0.1796875"/>
  <rect x="8" y="8" width="1" height="1" fill="rgb(23,23,23)" fill-opacity="0.921875"/>
  <rect x="8" y="9" width="1" height="1" fill="rgb(223,223,223)"/>
  <rect x="8" y="10" width="1" height="1" fill="rgb(232,232,232)"/>
  <rect x="8" y="11" width="1" height="1" fill="rgb(180,180,180)"/>
  <rect x="8" y="12" width="1" height="1" fill="rgb(186,186,186)"/>
  <rect x="8" y="13" width="1" height="1" fill="rgb(164,164,164)"/>
  <rect x="8" y="14" width="1" height="1" fill="rgb(20,20,20)" fill-opacity="0.921875"/>
  <rect x="8" y="15" width="1" height="1" fill="rgb(0,0,0)" fill-opacity="0.203125"/>
  <rect x="8" y="16" width="1" height="5" fill="rgb(255,255,255)" fill-opacity="0.0078125"/>
  <rect x="9" y="0" width="1" height="6" fill="rgb(255,255,255)" fill-opacity="0.0078125"/>
  <rect x="9" y="6" width="1" height="1" fill="rgb(0,0,0)" fill-opacity="0.1796875"/>
  <rect x="9" y="7" width="1" height="1" fill="rgb(23,23,23)" fill-opacity="0.921875"/>
  <rect x="9" y="8" width="1" height="1" fill="rgb(223,223,223)"/>
  <rect x="9" y="9" width="1" height="1" fill="rgb(232,232,232)"/>
  <rect x="9" y="10" width="1" height="1" fill="rgb(180,180,180)"/>
  <rect x="9" y="11" width="1" height="1" fill="rgb(186,186,186)"/>
  <rect x="9" y="12" width="1" height="1" fill="rgb(195,195,195)"/>
  <rect x="9" y="13" width="1" height="1" fill="rgb(204,204,204)"/>
  <rect x="9" y="14" width="1" height="1" fill="rgb(180,180,180)"/>
  <rect x="9" y="15" width="1" height="1" fill="rgb(21,21,21)" fill-opacity="0.921875"/>
  <rect x="9" y="16" width="1" height="1" fill="rgb(0,0,0)" fill-opacity="0.203125"/>
  <rect x="9" y="17" width="1" height="4" fill="rgb(255,255,255)" fill-opacity="0.0078125"/>
  <rect x="10" y="0" width="1" height="6" fill="rgb(255,255,255)" fill-opacity="0.0078125"/>
  <rect x="10" y="6" width="1" height="1" fill="rgb(11,11,11)" fill-opacity="0.796875"/>
  <rect x="10" y="7" width="1" height="1" fill="rgb(160,160,160)"/>
  <rect x="10" y="8" width="1" height="1" fill="rgb(231,231,231)"/>
  <rect x="10" y="9" width="1" height="1" fill="rgb(180,180,180)"/>
  <rect x="10" y="10" width="1" height="1" fill="rgb(186,186,186)"/>
  <rect x="10" y="11" width="1" height="1" fill="rgb(195,195,195)"/>
  <rect x="10" y="12" width="1" height="1" fill="rgb(204,204,204)"/>
  <rect x="10" y="13" width="1" height="1" fill="rgb(213,213,213)"/>
  <rect x="10" y="14" width="1" height="1" fill="rgb(222,222,222)"/>
  <rect x="10" y="15" width="1" height="1" fill="rgb(159,159,159)"/>
  <rect x="10" y="16" width="1" height="1" fill="rgb(18,18,18)" fill-opacity="0.8359375"/>
  <rect x="10" y="17" width="1" height="4" fill="rgb(255,255,255)" fill-opacity="0.0078125"/>
  <rect x="11" y="0" width="1" height="6" fill="rgb(255,255,255)" fill-opacity="0.0078125"/>
  <rect x="11" y="6" width="1" height="1" fill="rgb(0,0,0)" fill-opacity="0.1640625"/>
  <rect x="11" y="7" width="1" height="1" fill="rgb(14,14,14)" fill-opacity="0.9140625"/>
  <rect x="11" y="8" width="1" height="1" fill="rgb(142,142,142)"/>
  <rect x="11" y="9" width="1" height="1" fill="rgb(186,186,186)"/>
  <rect x="11" y="10" width="1" height="1" fill="rgb(195,195,195)"/>
  <rect x="11" y="11" width="1" height="1" fill="rgb(204,204,204)"/>
  <rect x="11" y="12" width="1" height="1" fill="rgb(213,213,213)"/>
  <rect x="11" y="13" width="1" height="1" fill="rgb(222,222,222)"/>
  <rect x="11" y="14" width="1" height="1" fill="rgb(192,192,192)"/>
  <rect x="11" y="15" width="1" height="1" fill="rgb(24,24,24)" fill-opacity="0.921875"/>
  <rect x="11" y="16" width="1" height="1" fill="rgb(0,0,0)" fill-opacity="0.1796875"/>
  <rect x="11" y="17" width="1" height="4" fill="rgb(255,255,255)" fill-opacity="0.0078125"/>
  <rect x="12" y="0" width="1" height="7" fill="rgb(255,255,255)" fill-opacity="0.0078125"/>
  <rect x="12" y="7" width="1" height="1" fill="rgb(0,0,0)" fill-opacity="0.1640625"/>
  <rect x="12" y="8" width="1" height="1" fill="rgb(15,15,15)" fill-opacity="0.9140625"/>
  <rect x="12" y="9" width="1" height="1" fill="rgb(157,157,157)"/>
  <rect x="12" y="10" width="1" height="1" fill="rgb(204,204,204)"/>
  <rect x="12" y="11" width="1" height="1" fill="rgb(213,213,213)"/>
  <rect x="12" y="12" width="1" height="1" fill="rgb(222,222,222)"/>
  <rect x="12" y="13" width="1" height="1" fill="rgb(190,190,190)"/>
  <rect x="12" y="14" width="1" height="1" fill="rgb(23,23,23)" fill-opacity="0.921875"/>
  <rect x="12" y="15" width="1" height="1" fill="rgb(0,0,0)" fill-opacity="0.1796875"/>
  <rect x="12" y="16" width="1" height="5" fill="rgb(255,255,255)" fill-opacity="0.0078125"/>
  <rect x="13" y="0" width="1" height="8" fill="rgb(255,255,255)" fill-opacity="0.0078125"/>
  <rect x="13" y="8" width="1" height="1" fill="rgb(0,0,0)" fill-opacity="0.1640625"/>
  <rect x="13" y="9" width="1" height="1" fill="rgb(18,18,18)" fill-opacity="0.9140625"/>
  <rect x="13" y="10" width="1" height="1" fill="rgb(171,171,171)"/>
  <rect x="13" y="11" width="1" height="1" fill="rgb(222,222,222)"/>
  <rect x="13" y="12" width="1" height="1" fill="rgb(188,188,188)"/>
  <rect x="13" y="13" width="1" height="1" fill="rgb(22,22,22)" fill-opacity="0.9296875"/>
  <rect x="13" y="14" width="1" height="1" fill="rgb(0,0,0)" fill-opacity="0.1796875"/>
  <rect x="13" y="15" width="1" height="6" fill="rgb(255,255,255)" fill-opacity="0.0078125"/>
  <rect x="14" y="0" width="1" height="9" fill="rgb(255,255,255)" fill-opacity="0.0078125"/>
  <rect x="14" y="9" width="1" height="1" fill="rgb(0,0,0)" fill-opacity="0.1640625"/>
  <rect x="14" y="10" width="1" height="1" fill="rgb(19,19,19)" fill-opacity="0.9140625"/>
  <rect x="14" y="11" width="1" height="1" fill="rgb(145,145,145)"/>
  <rect x="14" y="12" width="1" height="1" fill="rgb(22,22,22)" fill-opacity="0.9296875"/>
  <rect x="14" y="13" width="1" height="1" fill="rgb(0,0,0)" fill-opacity="0.1796875"/>
  <rect x="14" y="14" width="1" height="7" fill="rgb(255,255,255)" fill-opacity="0.0078125"/>
  <rect x="15" y="0" width="1" height="10" fill="rgb(255,255,255)" fill-opacity="0.0078125"/>
  <rect x="15" y="10" width="1" height="1" fill="rgb(0,0,0)" fill-opacity="0.1640625"/>
  <rect x="15" y="11" width="1" height="1" fill="rgb(19,19,19)" fill-opacity="0.8046875"/>
  <rect x="15" y="12" width="1" height="1" fill="rgb(0,0,0)" fill-opacity="0.1796875"/>
  <rect x="15" y="13" width="1" height="8" fill="rgb(255,255,255)" fill-opacity="0.0078125"/>
  <rect x="16" y="0" width="1" height="21" fill="rgb(255,255,255)" fill-opacity="0.0078125"/>
  <rect x="17" y="0" width="1" height="21" fill="rgb(255,255,255)" fill-opacity="0.0078125"/>
  <rect x="18" y="0" width="1" height="21" fill="rgb(255,255,255)" fill-opacity="0.0078125"/>
  <rect x="19" y="0" width="1" height="21" fill="rgb(255,255,255)" fill-opacity="0.0078125"/>
  <rect x="20" y="0" width="1" height="21" fill="rgb(255,255,255)" fill-opacity="0.0078125"/>
</svg>