<svg xmlns="http://www.w3.org/2000/svg" shape-rendering="crispEdges" width="21" height="21" viewBox="0 0 21 21">
  <rect x="0" y="0" width="1" height="21" fill="rgb(255,255,255)" fill-opacity="0.0078125"/>
  <rect x="1" y="0" width="1" height="21" fill="rgb(255,255,255)" fill-opacity="0.0078125"/>
  <rect x="2" y="0" width="1" height="21" fill="rgb(255,255,255)" fill-opacity="0.0078125"/>
  <rect x="3" y="0" width="1" height="21" fill="rgb(255,255,255)" fill-opacity="0.0078125"/>
  <rect x="4" y="0" width="1" height="21" fill="rgb(255,255,255)" fill-opacity="0.0078125"/>
  <rect x="5" y="0" width="1" height="8" fill="rgb(255,255,255)" fill-opacity="0.0078125"/>
  <rect x="5" y="8" width="1" height="1" fill="rgb(20,36,65)" fill-opacity="0.3125"/>
  <rect x="5" y="9" width="1" height="1" fill="rgb(22,44,76)" fill-opacity="0.6875"/>
  <rect x="5" y="10" width="1" height="1" fill="rgb(22,44,75)" fill-opacity="0.8671875"/>
  <rect x="5" y="11" width="1" height="1" fill="rgb(23,45,75)" fill-opacity="0.8671875"/>
  <rect x="5" y="12" width="1" height="1" fill="rgb(24,46,77)" fill-opacity="0.6796875"/>
  <rect x="5" y="13" width="1" height="1" fill="rgb(20,39,65)" fill-opacity="0.3125"/>
  <rect x="5" y="14" width="1" height="7" fill="rgb(255,255,255)" fill-opacity="0.0078125"/>
  <rect x="6" y="0" width="1" height="6" fill="rgb(255,255,255)" fill-opacity="0.0078125"/>
  <rect x="6" y="6" width="1" height="1" fill="rgb(20,39,59)" fill-opacity="0.0546875"/>
  <rect x="6" y="7" width="1" height="1" fill="rgb(20,43,74)" fill-opacity="0.7109375"/>
  <rect x="6" y="8" width="1" height="1" fill="rgb(79,104,138)" fill-opacity="0.9453125"/>
  <rect x="6" y="9" width="1" height="1" fill="rgb(159,181,213)"/>
  <rect x="6" y="10" width="1" height="1" fill="rgb(180,200,229)"/>
  <rect x="6" y="11" width="1" height="1" fill="rgb(165,189,224)"/>
  <rect x="6" y="12" width="1" height="1" fill="rgb(128,156,197)"/>
  <rect x="6" y="13" width="1" height="1" fill="rgb(58,80,114)" fill-opacity="0.9375"/>
  <rect x="6" y="14" width="1" height="1" fill="rgb(24,46,74)" fill-opacity="0.703125"/>
  <rect x="6" y="15" width="1" height="1" fill="rgb(20,39,59)" fill-opacity="0.0546875"/>
  <rect x="6" y="16" width="1" height="5" fill="rgb(255,255,255)" fill-opacity="0.0078125"/>
  <rect x="7" y="0" width="1" height="6" fill="rgb(255,255,255)" fill-opacity="0.0078125"/>
  <rect x="7" y="6" width="1" height="1" fill="rgb(20,43,74)" fill-opacity="0.7109375"/>
  <rect x="7" y="7" width="1" height="1" fill="rgb(131,155,187)" fill-opacity="0.9921875"/>
  <rect x="7" y="8" width="1" height="1" fill="rgb(194,211,235)"/>
  <rect x="7" y="9" width="1" height="1" fill="rgb(115,154,209)"/>
  <rect x="7" y="10" width="1" height="1" fill="rgb(92,136,201)"/>
  <rect x="7" y="11" width="1" height="1" fill="rgb(97,141,203)"/>
  <rect x="7" y="12" width="1" height="1" fill="rgb(116,155,209)"/>
  <rect x="7" y="13" width="1" height="1" fill="rgb(136,169,217)"/>
  <rect x="7" y="14" width="1" height="1" fill="rgb(85,113,154)" fill-opacity="0.984375"/>
  <rect x="7" y="15" width="1" height="1" fill="rgb(26,46,74)" fill-opacity="0.703125"/>
  <rect x="7" y="16" width="1" height="5" fill="rgb(255,255,255)" fill-opacity="0.0078125"/>
  <rect x="8" y="0" width="1" height="5" fill="rgb(255,255,255)" fill-opacity="0.0078125"/>
  <rect x="8" y="5" width="1" height="1" fill="rgb(20,36,65)" fill-opacity="0.3125"/>
  <rect x="8" y="6" width="1" height="1" fill="rgb(78,102,134)" fill-opacity="0.9453125"/>
  <rect x="8" y="7" width="1" height="1" fill="rgb(195,212,235)"/>
  <rect x="8" y="8" width="1" height="1" fill="rgb(80,127,197)"/>
  <rect x="8" y="9" width="1" height="1" fill="rgb(77,125,193)"/>
  <rect x="8" y="10" width="1" height="1" fill="rgb(81,125,189)"/>
  <rect x="8" y="11" width="1" height="1" fill="rgb(85,127,187)"/>
  <rect x="8" y="12" width="1" height="1" fill="rgb(97,138,196)"/>
  <rect x="8" y="13" width="1" height="1" fill="rgb(126,161,212)"/>
  <rect x="8" y="14" width="1" height="1" fill="rgb(130,164,214)"/>
  <rect x="8" y="15" width="1" height="1" fill="rgb(52,74,108)" fill-opacity="0.9296875"/>
  <rect x="8" y="16" width="1" height="1" fill="rgb(20,39,69)" fill-opacity="0.3125"/>
  <rect x="8" y="17" width="1" height="4" fill="rgb(255,255,255)" fill-opacity="0.0078125"/>
  <rect x="9" y="0" width="1" height="5" fill="rgb(255,255,255)" fill-opacity="0.0078125"/>
  <rect x="9" y="5" width="1" height="1" fill="rgb(20,44,76)" fill-opacity="0.6875"/>
  <rect x="9" y="6" width="1" height="1" fill="rgb(165,186,216)"/>
  <rect x="9" y="7" width="1" height="1" fill="rgb(117,155,210)"/>
  <rect x="9" y="8" width="1" height="1" fill="rgb(77,125,194)"/>
  <rect x="9" y="9" width="1" height="1" fill="rgb(130,162,208)"/>
  <rect x="9" y="10" width="1" height="1" fill="rgb(182,201,229)"/>
  <rect x="9" y="11" width="1" height="1" fill="rgb(140,169,213)"/>
  <rect x="9" y="12" width="1" height="1" fill="rgb(90,128,184)"/>
  <rect x="9" y="13" width="1" height="1" fill="rgb(123,156,203)"/>
  <rect x="9" y="14" width="1" height="1" fill="rgb(154,182,222)"/>
  <rect x="9" y="15" width="1" height="1" fill="rgb(117,147,188)"/>
  <rect x="9" y="16" width="1" height="1" fill="rgb(31,51,79)" fill-opacity="0.6875"/>
  <rect x="9" y="17" width="1" height="4" fill="rgb(255,255,255)" fill-opacity="0.0078125"/>
  <rect x="10" y="0" width="1" height="5" fill="rgb(255,255,255)" fill-opacity="0.0078125"/>
  <rect x="10" y="5" width="1" height="1" fill="rgb(20,43,74)" fill-opacity="0.8828125"/>
  <rect x="10" y="6" width="1" height="1" fill="rgb(189,206,232)"/>
  <rect x="10" y="7" width="1" height="1" fill="rgb(92,137,201)"/>
  <rect x="10" y="8" width="1" height="1" fill="rgb(80,126,190)"/>
  <rect x="10" y="9" width="1" height="1" fill="rgb(186,204,231)"/>
  <rect x="10" y="10" width="1" height="1" fill="rgb(120,158,211)"/>
  <rect x="10" y="11" width="1" height="1" fill="rgb(114,153,209)"/>
  <rect x="10" y="12" width="1" height="1" fill="rgb(112,149,202)"/>
  <rect x="10" y="13" width="1" height="1" fill="rgb(99,132,181)"/>
  <rect x="10" y="14" width="1" height="1" fill="rgb(181,201,231)"/>
  <rect x="10" y="15" width="1" height="1" fill="rgb(147,176,217)"/>
  <rect x="10" y="16" width="1" height="1" fill="rgb(30,49,76)" fill-opacity="0.8828125"/>
  <rect x="10" y="17" width="1" height="4" fill="rgb(255,255,255)" fill-opacity="0.0078125"/>
  <rect x="11" y="0" width="1" height="5" fill="rgb(255,255,255)" fill-opacity="0.0078125"/>
  <rect x="11" y="5" width="1" height="1" fill="rgb(22,43,74)" fill-opacity="0.8828125"/>
  <rect x="11" y="6" width="1" height="1" fill="rgb(179,199,229)"/>
  <rect x="11" y="7" width="1" height="1" fill="rgb(98,141,203)"/>
  <rect x="11" y="8" width="1" height="1" fill="rgb(84,127,188)"/>
  <rect x="11" y="9" width="1" height="1" fill="rgb(145,175,216)"/>
  <rect x="11" y="10" width="1" height="1" fill="rgb(114,153,209)"/>
  <rect x="11" y="11" width="1" height="1" fill="rgb(123,159,212)"/>
  <rect x="11" y="12" width="1" height="1" fill="rgb(120,154,204)"/>
  <rect x="11" y="13" width="1" height="1" fill="rgb(98,129,177)"/>
  <rect x="11" y="14" width="1" height="1" fill="rgb(198,214,237)"/>
  <rect x="11" y="15" width="1" height="1" fill="rgb(155,181,220)"/>
  <rect x="11" y="16" width="1" height="1" fill="rgb(31,50,77)" fill-opacity="0.8828125"/>
  <rect x="11" y="17" width="1" height="4" fill="rgb(255,255,255)" fill-opacity="0.0078125"/>
  <rect x="12" y="0" width="1" height="5" fill="rgb(255,255,255)" fill-opacity="0.0078125"/>
  <rect x="12" y="5" width="1" height="1" fill="rgb(23,45,76)" fill-opacity="0.6875"/>
  <rect x="12" y="6" width="1" height="1" fill="rgb(141,167,203)"/>
  <rect x="12" y="7" width="1" height="1" fill="rgb(118,156,210)"/>
  <rect x="12" y="8" width="1" height="1" fill="rgb(96,136,196)"/>
  <rect x="12" y="9" width="1" height="1" fill="rgb(93,132,187)"/>
  <rect x="12" y="10" width="1" height="1" fill="rgb(116,152,204)"/>
  <rect x="12" y="11" width="1" height="1" fill="rgb(121,156,205)"/>
  <rect x="12" y="12" width="1" height="1" fill="rgb(95,129,178)"/>
  <rect x="12" y="13" width="1" height="1" fill="rgb(147,172,209)"/>
  <rect x="12" y="14" width="1" height="1" fill="rgb(199,214,237)"/>
  <rect x="12" y="15" width="1" height="1" fill="rgb(138,161,195)"/>
  <rect x="12" y="16" width="1" height="1" fill="rgb(34,52,80)" fill-opacity="0.6875"/>
  <rect x="12" y="17" width="1" height="4" fill="rgb(255,255,255)" fill-opacity="0.0078125"/>
  <rect x="13" y="0" width="1" height="5" fill="rgb(255,255,255)" fill-opacity="0.0078125"/>
  <rect x="13" y="5" width="1" height="1" fill="rgb(20,39,65)" fill-opacity="0.3125"/>
  <rect x="13" y="6" width="1" height="1" fill="rgb(68,92,124)" fill-opacity="0.9375"/>
  <rect x="13" y="7" width="1" height="1" fill="rgb(146,176,219)"/>
  <rect x="13" y="8" width="1" height="1" fill="rgb(126,162,213)"/>
  <rect x="13" y="9" width="1" height="1" fill="rgb(123,155,202)"/>
  <rect x="13" y="10" width="1" height="1" fill="rgb(98,132,180)"/>
  <rect x="13" y="11" width="1" height="1" fill="rgb(98,131,178)"/>
  <rect x="13" y="12" width="1" height="1" fill="rgb(145,170,207)"/>
  <rect x="13" y="13" width="1" height="1" fill="rgb(209,222,240)"/>
  <rect x="13" y="14" width="1" height="1" fill="rgb(177,199,230)"/>
  <rect x="13" y="15" width="1" height="1" fill="rgb(65,84,112)" fill-opacity="0.9296875"/>
  <rect x="13" y="16" width="1" height="1" fill="rgb(20,39,69)" fill-opacity="0.3125"/>
  <rect x="13" y="17" width="1" height="4" fill="rgb(255,255,255)" fill-opacity="0.0078125"/>
  <rect x="14" y="0" width="1" height="6" fill="rgb(255,255,255)" fill-opacity="0.0078125"/>
  <rect x="14" y="6" width="1" height="1" fill="rgb(26,45,75)" fill-opacity="0.7109375"/>
  <rect x="14" y="7" width="1" height="1" fill="rgb(98,125,163)" fill-opacity="0.9921875"/>
  <rect x="14" y="8" width="1" height="1" fill="rgb(137,170,216)"/>
  <rect x="14" y="9" width="1" height="1" fill="rgb(152,181,222)"/>
  <rect x="14" y="10" width="1" height="1" fill="rgb(180,201,231)"/>
  <rect x="14" y="11" width="1" height="1" fill="rgb(197,213,236)"/>
  <rect x="14" y="12" width="1" height="1" fill="rgb(198,214,237)"/>
  <rect x="14" y="13" width="1" height="1" fill="rgb(177,198,230)"/>
  <rect x="14" y="14" width="1" height="1" fill="rgb(110,131,160)" fill-opacity="0.984375"/>
  <rect x="14" y="15" width="1" height="1" fill="rgb(31,50,76)" fill-opacity="0.703125"/>
  <rect x="14" y="16" width="1" height="5" fill="rgb(255,255,255)" fill-opacity="0.0078125"/>
  <rect x="15" y="0" width="1" height="6" fill="rgb(255,255,255)" fill-opacity="0.0078125"/>
  <rect x="15" y="6" width="1" height="1" fill="rgb(20,39,59)" fill-opacity="0.0546875"/>
  <rect x="15" y="7" width="1" height="1" fill="rgb(27,47,75)" fill-opacity="0.7109375"/>
  <rect x="15" y="8" width="1" height="1" fill="rgb(57,80,115)" fill-opacity="0.9296875"/>
  <rect x="15" y="9" width="1" height="1" fill="rgb(115,144,186)"/>
  <rect x="15" y="10" width="1" height="1" fill="rgb(145,174,217)"/>
  <rect x="15" y="11" width="1" height="1" fill="rgb(154,181,220)"/>
  <rect x="15" y="12" width="1" height="1" fill="rgb(137,161,195)"/>
  <rect x="15" y="13" width="1" height="1" fill="rgb(65,84,112)" fill-opacity="0.9296875"/>
  <rect x="15" y="14" width="1" height="1" fill="rgb(31,50,76)" fill-opacity="0.703125"/>
  <rect x="15" y="15" width="1" height="1" fill="rgb(20,39,59)" fill-opacity="0.0546875"/>
  <rect x="15" y="16" width="1" height="5" fill="rgb(255,255,255)" fill-opacity="0.0078125"/>
  <rect x="16" y="0" width="1" height="8" fill="rgb(255,255,255)" fill-opacity="0.0078125"/>
  <rect x="16" y="8" width="1" height="1" fill="rgb(20,39,69)" fill-opacity="0.3125"/>
  <rect x="16" y="9" width="1" height="1" fill="rgb(32,52,80)" fill-opacity="0.6875"/>
  <rect x="16" y="10" width="1" height="1" fill="rgb(31,51,78)" fill-opacity="0.8671875"/>
  <rect x="16" y="11" width="1" height="1" fill="rgb(33,52,79)" fill-opacity="0.859375"/>
  <rect x="16" y="12" width="1" height="1" fill="rgb(34,53,80)" fill-opacity="0.6796875"/>
  <rect x="16" y="13" width="1" height="1" fill="rgb(20,39,69)" fill-opacity="0.3125"/>
  <rect x="16" y="14" width="1" height="7" fill="rgb(255,255,255)" fill-opacity="0.0078125"/>
  <rect x="17" y="0" width="1" height="21" fill="rgb(255,255,255)" fill-opacity="0.0078125"/>
  <rect x="18" y="0" width="1" height="21" fill="rgb(255,255,255)" fill-opacity="0.0078125"/>
  <rect x="19" y="0" width="1" height="21" fill="rgb(255,255,255)" fill-opacity="0.0078125"/>
  <rect x="20" y="0" width="1" height="21" fill="rgb(255,255,255)" fill-opacity="0.0078125"/>
</svg>