<svg xmlns="http://www.w3.org/2000/svg" shape-rendering="crispEdges" width="21" height="21" viewBox="0 0 21 21">
  <rect x="0" y="0" width="1" height="21" fill="rgb(255,255,255)" fill-opacity="0.0078125"/>
  <rect x="1" y="0" width="1" height="21" fill="rgb(255,255,255)" fill-opacity="0.0078125"/>
  <rect x="2" y="0" width="1" height="21" fill="rgb(255,255,255)" fill-opacity="0.0078125"/>
  <rect x="3" y="0" width="1" height="21" fill="rgb(255,255,255)" fill-opacity="0.0078125"/>
  <rect x="4" y="0" width="1" height="6" fill="rgb(255,255,255)" fill-opacity="0.0078125"/>
  <rect x="4" y="6" width="1" height="1" fill="rgb(13,13,13)" fill-opacity="0.7578125"/>
  <rect x="4" y="7" width="1" height="1" fill="rgb(12,12,12)" fill-opacity="0.859375"/>
  <rect x="4" y="8" width="1" height="5" fill="rgb(13,13,13)" fill-opacity="0.84375"/>
  <rect x="4" y="13" width="1" height="1" fill="rgb(9,9,9)" fill-opacity="0.890625"/>
  <rect x="4" y="14" width="1" height="1" fill="rgb(3,3,3)" fill-opacity="0.6171875"/>
  <rect x="4" y="15" width="1" height="6" fill="rgb(255,255,255)" fill-opacity="0.0078125"/>
  <rect x="5" y="0" width="1" height="5" fill="rgb(255,255,255)" fill-opacity="0.0078125"/>
  <rect x="5" y="5" width="1" height="1" fill="rgb(13,13,13)" fill-opacity="0.15625"/>
  <rect x="5" y="6" width="1" height="1" fill="rgb(26,26,26)" fill-opacity="0.8984375"/>
  <rect x="5" y="7" width="1" height="1" fill="rgb(64,64,64)" fill-opacity="0.828125"/>
  <rect x="5" y="8" width="1" height="4" fill="rgb(202,202,202)" fill-opacity="0.6015625"/>
  <rect x="5" y="12" width="1" height="1" fill="rgb(188,188,188)" fill-opacity="0.6171875"/>
  <rect x="5" y="13" width="1" height="1" fill="rgb(56,56,56)" fill-opacity="0.84375"/>
  <rect x="5" y="14" width="1" height="1" fill="rgb(18,18,18)" fill-opacity="0.828125"/>
  <rect x="5" y="15" width="1" height="1" fill="rgb(0,0,0)" fill-opacity="0.1796875"/>
  <rect x="5" y="16" width="1" height="5" fill="rgb(255,255,255)" fill-opacity="0.0078125"/>
  <rect x="6" y="0" width="1" height="5" fill="rgb(255,255,255)" fill-opacity="0.0078125"/>
  <rect x="6" y="5" width="1" height="1" fill="rgb(35,35,35)" fill-opacity="0.6015625"/>
  <rect x="6" y="6" width="1" height="1" fill="rgb(136,136,136)" fill-opacity="0.7421875"/>
  <rect x="6" y="7" width="1" height="1" fill="rgb(23,23,23)" fill-opacity="0.8984375"/>
  <rect x="6" y="8" width="1" height="1" fill="rgb(180,180,180)" fill-opacity="0.6328125"/>
  <rect x="6" y="9" width="1" height="3" fill="rgb(202,202,202)" fill-opacity="0.6015625"/>
  <rect x="6" y="12" width="1" height="1" fill="rgb(137,137,137)" fill-opacity="0.6875"/>
  <rect x="6" y="13" width="1" height="1" fill="rgb(105,105,105)" fill-opacity="0.7421875"/>
  <rect x="6" y="14" width="1" height="1" fill="rgb(140,140,140)" fill-opacity="0.6640625"/>
  <rect x="6" y="15" width="1" height="1" fill="rgb(4,4,4)" fill-opacity="0.71875"/>
  <rect x="6" y="16" width="1" height="5" fill="rgb(255,255,255)" fill-opacity="0.0078125"/>
  <rect x="7" y="0" width="1" height="4" fill="rgb(255,255,255)" fill-opacity="0.0078125"/>
  <rect x="7" y="4" width="1" height="1" fill="rgb(0,0,0)" fill-opacity="0.015625"/>
  <rect x="7" y="5" width="1" height="1" fill="rgb(20,20,20)" fill-opacity="0.890625"/>
  <rect x="7" y="6" width="1" height="1" fill="rgb(242,242,242)" fill-opacity="0.6171875"/>
  <rect x="7" y="7" width="1" height="1" fill="rgb(106,106,106)" fill-opacity="0.6953125"/>
  <rect x="7" y="8" width="1" height="1" fill="rgb(80,80,80)" fill-opacity="0.796875"/>
  <rect x="7" y="9" width="1" height="3" fill="rgb(202,202,202)" fill-opacity="0.6015625"/>
  <rect x="7" y="12" width="1" height="1" fill="rgb(107,107,107)" fill-opacity="0.7421875"/>
  <rect x="7" y="13" width="1" height="1" fill="rgb(168,168,168)" fill-opacity="0.6484375"/>
  <rect x="7" y="14" width="1" height="1" fill="rgb(202,202,202)" fill-opacity="0.6015625"/>
  <rect x="7" y="15" width="1" height="1" fill="rgb(31,31,31)" fill-opacity="0.78125"/>
  <rect x="7" y="16" width="1" height="1" fill="rgb(0,0,0)" fill-opacity="0.2421875"/>
  <rect x="7" y="17" width="1" height="4" fill="rgb(255,255,255)" fill-opacity="0.0078125"/>
  <rect x="8" y="0" width="1" height="4" fill="rgb(255,255,255)" fill-opacity="0.0078125"/>
  <rect x="8" y="4" width="1" height="1" fill="rgb(18,18,18)" fill-opacity="0.2890625"/>
  <rect x="8" y="5" width="1" height="1" fill="rgb(73,73,73)" fill-opacity="0.828125"/>
  <rect x="8" y="6" width="1" height="1" fill="rgb(255,255,255)" fill-opacity="0.6015625"/>
  <rect x="8" y="7" width="1" height="1" fill="rgb(242,242,242)" fill-opacity="0.6171875"/>
  <rect x="8" y="8" width="1" height="1" fill="rgb(21,21,21)" fill-opacity="0.9140625"/>
  <rect x="8" y="9" width="1" height="1" fill="rgb(193,193,193)" fill-opacity="0.6171875"/>
  <rect x="8" y="10" width="1" height="1" fill="rgb(202,202,202)" fill-opacity="0.6015625"/>
  <rect x="8" y="11" width="1" height="1" fill="rgb(180,180,180)" fill-opacity="0.6328125"/>
  <rect x="8" y="12" width="1" height="1" fill="rgb(128,128,128)" fill-opacity="0.703125"/>
  <rect x="8" y="13" width="1" height="2" fill="rgb(202,202,202)" fill-opacity="0.6015625"/>
  <rect x="8" y="15" width="1" height="1" fill="rgb(159,159,159)" fill-opacity="0.6484375"/>
  <rect x="8" y="16" width="1" height="1" fill="rgb(5,5,5)" fill-opacity="0.78125"/>
  <rect x="8" y="17" width="1" height="4" fill="rgb(255,255,255)" fill-opacity="0.0078125"/>
  <rect x="9" y="0" width="1" height="4" fill="rgb(255,255,255)" fill-opacity="0.0078125"/>
  <rect x="9" y="4" width="1" height="1" fill="rgb(28,28,28)" fill-opacity="0.71875"/>
  <rect x="9" y="5" width="1" height="1" fill="rgb(175,175,175)" fill-opacity="0.6875"/>
  <rect x="9" y="6" width="1" height="2" fill="rgb(255,255,255)" fill-opacity="0.6015625"/>
  <rect x="9" y="8" width="1" height="1" fill="rgb(81,81,81)" fill-opacity="0.7265625"/>
  <rect x="9" y="9" width="1" height="1" fill="rgb(98,98,98)" fill-opacity="0.7578125"/>
  <rect x="9" y="10" width="1" height="1" fill="rgb(202,202,202)" fill-opacity="0.6015625"/>
  <rect x="9" y="11" width="1" height="1" fill="rgb(168,168,168)" fill-opacity="0.6484375"/>
  <rect x="9" y="12" width="1" height="1" fill="rgb(171,171,171)" fill-opacity="0.640625"/>
  <rect x="9" y="13" width="1" height="3" fill="rgb(202,202,202)" fill-opacity="0.6015625"/>
  <rect x="9" y="16" width="1" height="1" fill="rgb(47,47,47)" fill-opacity="0.75"/>
  <rect x="9" y="17" width="1" height="1" fill="rgb(0,0,0)" fill-opacity="0.3203125"/>
  <rect x="9" y="18" width="1" height="3" fill="rgb(255,255,255)" fill-opacity="0.0078125"/>
  <rect x="10" y="0" width="1" height="4" fill="rgb(255,255,255)" fill-opacity="0.0078125"/>
  <rect x="10" y="4" width="1" height="1" fill="rgb(15,15,15)" fill-opacity="0.9140625"/>
  <rect x="10" y="5" width="1" height="1" fill="rgb(138,138,138)" fill-opacity="0.734375"/>
  <rect x="10" y="6" width="1" height="1" fill="rgb(164,164,164)" fill-opacity="0.703125"/>
  <rect x="10" y="7" width="1" height="1" fill="rgb(192,192,192)" fill-opacity="0.671875"/>
  <rect x="10" y="8" width="1" height="1" fill="rgb(176,176,176)" fill-opacity="0.671875"/>
  <rect x="10" y="9" width="1" height="1" fill="rgb(12,12,12)" fill-opacity="0.921875"/>
  <rect x="10" y="10" width="1" height="1" fill="rgb(19,19,19)" fill-opacity="0.890625"/>
  <rect x="10" y="11" width="1" height="1" fill="rgb(17,17,17)" fill-opacity="0.8984375"/>
  <rect x="10" y="12" width="1" height="2" fill="rgb(18,18,18)" fill-opacity="0.890625"/>
  <rect x="10" y="14" width="1" height="2" fill="rgb(17,17,17)" fill-opacity="0.8984375"/>
  <rect x="10" y="16" width="1" height="1" fill="rgb(13,13,13)" fill-opacity="0.9140625"/>
  <rect x="10" y="17" width="1" height="1" fill="rgb(3,3,3)" fill-opacity="0.7734375"/>
  <rect x="10" y="18" width="1" height="3" fill="rgb(255,255,255)" fill-opacity="0.0078125"/>
  <rect x="11" y="0" width="1" height="4" fill="rgb(255,255,255)" fill-opacity="0.0078125"/>
  <rect x="11" y="4" width="1" height="1" fill="rgb(30,30,30)" fill-opacity="0.7421875"/>
  <rect x="11" y="5" width="1" height="1" fill="rgb(172,172,172)" fill-opacity="0.6953125"/>
  <rect x="11" y="6" width="1" height="1" fill="rgb(252,252,252)" fill-opacity="0.609375"/>
  <rect x="11" y="7" width="1" height="1" fill="rgb(253,253,253)" fill-opacity="0.6015625"/>
  <rect x="11" y="8" width="1" height="1" fill="rgb(79,79,79)" fill-opacity="0.734375"/>
  <rect x="11" y="9" width="1" height="1" fill="rgb(44,44,44)" fill-opacity="0.765625"/>
  <rect x="11" y="10" width="1" height="1" fill="rgb(97,97,97)" fill-opacity="0.6015625"/>
  <rect x="11" y="11" width="1" height="1" fill="rgb(81,81,81)" fill-opacity="0.6484375"/>
  <rect x="11" y="12" width="1" height="1" fill="rgb(83,83,83)" fill-opacity="0.640625"/>
  <rect x="11" y="13" width="1" height="3" fill="rgb(97,97,97)" fill-opacity="0.6015625"/>
  <rect x="11" y="16" width="1" height="1" fill="rgb(25,25,25)" fill-opacity="0.765625"/>
  <rect x="11" y="17" width="1" height="1" fill="rgb(0,0,0)" fill-opacity="0.3203125"/>
  <rect x="11" y="18" width="1" height="3" fill="rgb(255,255,255)" fill-opacity="0.0078125"/>
  <rect x="12" y="0" width="1" height="4" fill="rgb(255,255,255)" fill-opacity="0.0078125"/>
  <rect x="12" y="4" width="1" height="1" fill="rgb(26,26,26)" fill-opacity="0.3125"/>
  <rect x="12" y="5" width="1" height="1" fill="rgb(75,75,75)" fill-opacity="0.8359375"/>
  <rect x="12" y="6" width="1" height="1" fill="rgb(255,255,255)" fill-opacity="0.6015625"/>
  <rect x="12" y="7" width="1" height="1" fill="rgb(244,244,244)" fill-opacity="0.6171875"/>
  <rect x="12" y="8" width="1" height="1" fill="rgb(14,14,14)" fill-opacity="0.9140625"/>
  <rect x="12" y="9" width="1" height="1" fill="rgb(97,97,97)" fill-opacity="0.6171875"/>
  <rect x="12" y="10" width="1" height="1" fill="rgb(103,103,103)" fill-opacity="0.6015625"/>
  <rect x="12" y="11" width="1" height="1" fill="rgb(92,92,92)" fill-opacity="0.6328125"/>
  <rect x="12" y="12" width="1" height="1" fill="rgb(66,66,66)" fill-opacity="0.703125"/>
  <rect x="12" y="13" width="1" height="2" fill="rgb(103,103,103)" fill-opacity="0.6015625"/>
  <rect x="12" y="15" width="1" height="1" fill="rgb(83,83,83)" fill-opacity="0.65625"/>
  <rect x="12" y="16" width="1" height="1" fill="rgb(4,4,4)" fill-opacity="0.7890625"/>
  <rect x="12" y="17" width="1" height="4" fill="rgb(255,255,255)" fill-opacity="0.0078125"/>
  <rect x="13" y="0" width="1" height="4" fill="rgb(255,255,255)" fill-opacity="0.0078125"/>
  <rect x="13" y="4" width="1" height="1" fill="rgb(0,0,0)" fill-opacity="0.015625"/>
  <rect x="13" y="5" width="1" height="1" fill="rgb(21,21,21)" fill-opacity="0.8984375"/>
  <rect x="13" y="6" width="1" height="1" fill="rgb(244,244,244)" fill-opacity="0.6171875"/>
  <rect x="13" y="7" width="1" height="1" fill="rgb(107,107,107)" fill-opacity="0.703125"/>
  <rect x="13" y="8" width="1" height="1" fill="rgb(43,43,43)" fill-opacity="0.796875"/>
  <rect x="13" y="9" width="1" height="3" fill="rgb(110,110,110)" fill-opacity="0.6015625"/>
  <rect x="13" y="12" width="1" height="1" fill="rgb(58,58,58)" fill-opacity="0.7421875"/>
  <rect x="13" y="13" width="1" height="1" fill="rgb(94,94,94)" fill-opacity="0.640625"/>
  <rect x="13" y="14" width="1" height="1" fill="rgb(110,110,110)" fill-opacity="0.6015625"/>
  <rect x="13" y="15" width="1" height="1" fill="rgb(19,19,19)" fill-opacity="0.7890625"/>
  <rect x="13" y="16" width="1" height="1" fill="rgb(0,0,0)" fill-opacity="0.25"/>
  <rect x="13" y="17" width="1" height="4" fill="rgb(255,255,255)" fill-opacity="0.0078125"/>
  <rect x="14" y="0" width="1" height="5" fill="rgb(255,255,255)" fill-opacity="0.0078125"/>
  <rect x="14" y="5" width="1" height="1" fill="rgb(39,39,39)" fill-opacity="0.625"/>
  <rect x="14" y="6" width="1" height="1" fill="rgb(138,138,138)" fill-opacity="0.734375"/>
  <rect x="14" y="7" width="1" height="1" fill="rgb(18,18,18)" fill-opacity="0.8984375"/>
  <rect x="14" y="8" width="1" height="1" fill="rgb(103,103,103)" fill-opacity="0.6328125"/>
  <rect x="14" y="9" width="1" height="3" fill="rgb(117,117,117)" fill-opacity="0.6015625"/>
  <rect x="14" y="12" width="1" height="1" fill="rgb(78,78,78)" fill-opacity="0.6953125"/>
  <rect x="14" y="13" width="1" height="1" fill="rgb(62,62,62)" fill-opacity="0.7421875"/>
  <rect x="14" y="14" width="1" height="1" fill="rgb(83,83,83)" fill-opacity="0.671875"/>
  <rect x="14" y="15" width="1" height="1" fill="rgb(4,4,4)" fill-opacity="0.734375"/>
  <rect x="14" y="16" width="1" height="5" fill="rgb(255,255,255)" fill-opacity="0.0078125"/>
  <rect x="15" y="0" width="1" height="5" fill="rgb(255,255,255)" fill-opacity="0.0078125"/>
  <rect x="15" y="5" width="1" height="1" fill="rgb(24,24,24)" fill-opacity="0.171875"/>
  <rect x="15" y="6" width="1" height="1" fill="rgb(29,29,29)" fill-opacity="0.8984375"/>
  <rect x="15" y="7" width="1" height="1" fill="rgb(37,37,37)" fill-opacity="0.828125"/>
  <rect x="15" y="8" width="1" height="4" fill="rgb(122,122,122)" fill-opacity="0.6015625"/>
  <rect x="15" y="12" width="1" height="1" fill="rgb(114,114,114)" fill-opacity="0.6171875"/>
  <rect x="15" y="13" width="1" height="1" fill="rgb(33,33,33)" fill-opacity="0.84375"/>
  <rect x="15" y="14" width="1" height="1" fill="rgb(13,13,13)" fill-opacity="0.828125"/>
  <rect x="15" y="15" width="1" height="1" fill="rgb(0,0,0)" fill-opacity="0.1953125"/>
  <rect x="15" y="16" width="1" height="5" fill="rgb(255,255,255)" fill-opacity="0.0078125"/>
  <rect x="16" y="0" width="1" height="6" fill="rgb(255,255,255)" fill-opacity="0.0078125"/>
  <rect x="16" y="6" width="1" height="1" fill="rgb(13,13,13)" fill-opacity="0.7890625"/>
  <rect x="16" y="7" width="1" height="1" fill="rgb(9,9,9)" fill-opacity="0.875"/>
  <rect x="16" y="8" width="1" height="5" fill="rgb(10,10,10)" fill-opacity="0.859375"/>
  <rect x="16" y="13" width="1" height="1" fill="rgb(7,7,7)" fill-opacity="0.90625"/>
  <rect x="16" y="14" width="1" height="1" fill="rgb(5,5,5)" fill-opacity="0.65625"/>
  <rect x="16" y="15" width="1" height="6" fill="rgb(255,255,255)" fill-opacity="0.0078125"/>
  <rect x="17" y="0" width="1" height="21" fill="rgb(255,255,255)" fill-opacity="0.0078125"/>
  <rect x="18" y="0" width="1" height="21" fill="rgb(255,255,255)" fill-opacity="0.0078125"/>
  <rect x="19" y="0" width="1" height="21" fill="rgb(255,255,255)" fill-opacity="0.0078125"/>
  <rect x="20" y="0" width="1" height="21" fill="rgb(255,255,255)" fill-opacity="0.0078125"/>
</svg>