<svg xmlns="http://www.w3.org/2000/svg" shape-rendering="crispEdges" width="21" height="21" viewBox="0 0 21 21">
  <rect x="0" y="0" width="1" height="21" fill="rgb(255,255,255)" fill-opacity="0.0078125"/>
  <rect x="1" y="0" width="1" height="21" fill="rgb(255,255,255)" fill-opacity="0.0078125"/>
  <rect x="2" y="0" width="1" height="21" fill="rgb(255,255,255)" fill-opacity="0.0078125"/>
  <rect x="3" y="0" width="1" height="10" fill="rgb(255,255,255)" fill-opacity="0.0078125"/>
  <rect x="3" y="10" width="1" height="1" fill="rgb(27,27,27)" fill-opacity="0.15625"/>
  <rect x="3" y="11" width="1" height="10" fill="rgb(255,255,255)" fill-opacity="0.0078125"/>
  <rect x="4" y="0" width="1" height="9" fill="rgb(255,255,255)" fill-opacity="0.0078125"/>
  <rect x="4" y="9" width="1" height="1" fill="rgb(26,26,26)" fill-opacity="0.3125"/>
  <rect x="4" y="10" width="1" height="1" fill="rgb(44,44,44)" fill-opacity="0.859375"/>
  <rect x="4" y="11" width="1" height="1" fill="rgb(44,44,44)" fill-opacity="0.484375"/>
  <rect x="4" y="12" width="1" height="9" fill="rgb(255,255,255)" fill-opacity="0.0078125"/>
  <rect x="5" y="0" width="1" height="8" fill="rgb(255,255,255)" fill-opacity="0.0078125"/>
  <rect x="5" y="8" width="1" height="1" fill="rgb(28,28,28)" fill-opacity="0.296875"/>
  <rect x="5" y="9" width="1" height="1" fill="rgb(63,63,63)" fill-opacity="0.8203125"/>
  <rect x="5" y="10" width="1" height="1" fill="rgb(240,240,240)" fill-opacity="0.9453125"/>
  <rect x="5" y="11" width="1" height="1" fill="rgb(138,138,138)" fill-opacity="0.890625"/>
  <rect x="5" y="12" width="1" height="1" fill="rgb(37,37,37)" fill-opacity="0.4921875"/>
  <rect x="5" y="13" width="1" height="8" fill="rgb(255,255,255)" fill-opacity="0.0078125"/>
  <rect x="6" y="0" width="1" height="7" fill="rgb(255,255,255)" fill-opacity="0.0078125"/>
  <rect x="6" y="7" width="1" height="1" fill="rgb(26,26,26)" fill-opacity="0.28125"/>
  <rect x="6" y="8" width="1" height="1" fill="rgb(63,63,63)" fill-opacity="0.8203125"/>
  <rect x="6" y="9" width="1" height="1" fill="rgb(240,240,240)" fill-opacity="0.9453125"/>
  <rect x="6" y="10" width="1" height="1" fill="rgb(247,247,247)"/>
  <rect x="6" y="11" width="1" height="1" fill="rgb(186,186,186)" fill-opacity="0.9921875"/>
  <rect x="6" y="12" width="1" height="1" fill="rgb(33,33,33)" fill-opacity="0.875"/>
  <rect x="6" y="13" width="1" height="1" fill="rgb(24,24,24)" fill-opacity="0.171875"/>
  <rect x="6" y="14" width="1" height="7" fill="rgb(255,255,255)" fill-opacity="0.0078125"/>
  <rect x="7" y="0" width="1" height="6" fill="rgb(255,255,255)" fill-opacity="0.0078125"/>
  <rect x="7" y="6" width="1" height="1" fill="rgb(27,27,27)" fill-opacity="0.265625"/>
  <rect x="7" y="7" width="1" height="1" fill="rgb(59,59,59)" fill-opacity="0.8203125"/>
  <rect x="7" y="8" width="1" height="1" fill="rgb(167,167,167)" fill-opacity="0.9453125"/>
  <rect x="7" y="9" width="1" height="1" fill="rgb(230,230,230)"/>
  <rect x="7" y="10" width="1" height="1" fill="rgb(193,193,193)" fill-opacity="0.9921875"/>
  <rect x="7" y="11" width="1" height="1" fill="rgb(41,41,41)" fill-opacity="0.8359375"/>
  <rect x="7" y="12" width="1" height="1" fill="rgb(27,27,27)" fill-opacity="0.3359375"/>
  <rect x="7" y="13" width="1" height="8" fill="rgb(255,255,255)" fill-opacity="0.0078125"/>
  <rect x="8" y="0" width="1" height="5" fill="rgb(255,255,255)" fill-opacity="0.0078125"/>
  <rect x="8" y="5" width="1" height="1" fill="rgb(25,25,25)" fill-opacity="0.203125"/>
  <rect x="8" y="6" width="1" height="1" fill="rgb(60,60,60)" fill-opacity="0.828125"/>
  <rect x="8" y="7" width="1" height="1" fill="rgb(163,163,163)" fill-opacity="0.9453125"/>
  <rect x="8" y="8" width="1" height="1" fill="rgb(115,115,115)"/>
  <rect x="8" y="9" width="1" height="1" fill="rgb(107,107,107)" fill-opacity="0.9375"/>
  <rect x="8" y="10" width="1" height="1" fill="rgb(42,42,42)" fill-opacity="0.828125"/>
  <rect x="8" y="11" width="1" height="1" fill="rgb(26,26,26)" fill-opacity="0.34375"/>
  <rect x="8" y="12" width="1" height="3" fill="rgb(255,255,255)" fill-opacity="0.0078125"/>
  <rect x="8" y="15" width="1" height="1" fill="rgb(27,27,27)" fill-opacity="0.15625"/>
  <rect x="8" y="16" width="1" height="5" fill="rgb(255,255,255)" fill-opacity="0.0078125"/>
  <rect x="9" y="0" width="1" height="4" fill="rgb(255,255,255)" fill-opacity="0.0078125"/>
  <rect x="9" y="4" width="1" height="1" fill="rgb(26,26,26)" fill-opacity="0.046875"/>
  <rect x="9" y="5" width="1" height="1" fill="rgb(45,45,45)" fill-opacity="0.7890625"/>
  <rect x="9" y="6" width="1" height="1" fill="rgb(171,171,171)" fill-opacity="0.9296875"/>
  <rect x="9" y="7" width="1" height="1" fill="rgb(124,124,124)"/>
  <rect x="9" y="8" width="1" height="1" fill="rgb(101,101,101)" fill-opacity="0.9140625"/>
  <rect x="9" y="9" width="1" height="1" fill="rgb(31,31,31)" fill-opacity="0.765625"/>
  <rect x="9" y="10" width="1" height="1" fill="rgb(26,26,26)" fill-opacity="0.3515625"/>
  <rect x="9" y="11" width="1" height="3" fill="rgb(255,255,255)" fill-opacity="0.0078125"/>
  <rect x="9" y="14" width="1" height="1" fill="rgb(26,26,26)" fill-opacity="0.3125"/>
  <rect x="9" y="15" width="1" height="1" fill="rgb(40,40,40)" fill-opacity="0.8515625"/>
  <rect x="9" y="16" width="1" height="1" fill="rgb(44,44,44)" fill-opacity="0.484375"/>
  <rect x="9" y="17" width="1" height="4" fill="rgb(255,255,255)" fill-opacity="0.0078125"/>
  <rect x="10" y="0" width="1" height="4" fill="rgb(255,255,255)" fill-opacity="0.0078125"/>
  <rect x="10" y="4" width="1" height="1" fill="rgb(26,26,26)" fill-opacity="0.421875"/>
  <rect x="10" y="5" width="1" height="1" fill="rgb(142,142,142)" fill-opacity="0.859375"/>
  <rect x="10" y="6" width="1" height="1" fill="rgb(145,145,145)"/>
  <rect x="10" y="7" width="1" height="1" fill="rgb(113,113,113)" fill-opacity="0.953125"/>
  <rect x="10" y="8" width="1" height="1" fill="rgb(32,32,32)" fill-opacity="0.7578125"/>
  <rect x="10" y="9" width="1" height="1" fill="rgb(25,25,25)" fill-opacity="0.3671875"/>
  <rect x="10" y="10" width="1" height="3" fill="rgb(255,255,255)" fill-opacity="0.0078125"/>
  <rect x="10" y="13" width="1" height="1" fill="rgb(28,28,28)" fill-opacity="0.296875"/>
  <rect x="10" y="14" width="1" height="1" fill="rgb(55,55,55)" fill-opacity="0.8125"/>
  <rect x="10" y="15" width="1" height="1" fill="rgb(238,238,238)" fill-opacity="0.9375"/>
  <rect x="10" y="16" width="1" height="1" fill="rgb(138,138,138)" fill-opacity="0.890625"/>
  <rect x="10" y="17" width="1" height="1" fill="rgb(37,37,37)" fill-opacity="0.4921875"/>
  <rect x="10" y="18" width="1" height="3" fill="rgb(255,255,255)" fill-opacity="0.0078125"/>
  <rect x="11" y="0" width="1" height="4" fill="rgb(255,255,255)" fill-opacity="0.0078125"/>
  <rect x="11" y="4" width="1" height="1" fill="rgb(28,28,28)" fill-opacity="0.6875"/>
  <rect x="11" y="5" width="1" height="1" fill="rgb(181,181,181)" fill-opacity="0.9609375"/>
  <rect x="11" y="6" width="1" height="1" fill="rgb(126,126,126)"/>
  <rect x="11" y="7" width="1" height="1" fill="rgb(57,57,57)" fill-opacity="0.703125"/>
  <rect x="11" y="8" width="1" height="1" fill="rgb(26,26,26)" fill-opacity="0.5078125"/>
  <rect x="11" y="9" width="1" height="3" fill="rgb(255,255,255)" fill-opacity="0.0078125"/>
  <rect x="11" y="12" width="1" height="1" fill="rgb(26,26,26)" fill-opacity="0.28125"/>
  <rect x="11" y="13" width="1" height="1" fill="rgb(59,59,59)" fill-opacity="0.8203125"/>
  <rect x="11" y="14" width="1" height="1" fill="rgb(239,239,239)" fill-opacity="0.9453125"/>
  <rect x="11" y="15" width="1" height="1" fill="rgb(246,246,246)"/>
  <rect x="11" y="16" width="1" height="1" fill="rgb(190,190,190)" fill-opacity="0.9921875"/>
  <rect x="11" y="17" width="1" height="1" fill="rgb(34,34,34)" fill-opacity="0.875"/>
  <rect x="11" y="18" width="1" height="1" fill="rgb(24,24,24)" fill-opacity="0.171875"/>
  <rect x="11" y="19" width="1" height="2" fill="rgb(255,255,255)" fill-opacity="0.0078125"/>
  <rect x="12" y="0" width="1" height="4" fill="rgb(255,255,255)" fill-opacity="0.0078125"/>
  <rect x="12" y="4" width="1" height="1" fill="rgb(36,36,36)" fill-opacity="0.8359375"/>
  <rect x="12" y="5" width="1" height="1" fill="rgb(188,188,188)"/>
  <rect x="12" y="6" width="1" height="1" fill="rgb(134,134,134)"/>
  <rect x="12" y="7" width="1" height="1" fill="rgb(31,31,31)" fill-opacity="0.796875"/>
  <rect x="12" y="8" width="1" height="1" fill="rgb(28,28,28)" fill-opacity="0.078125"/>
  <rect x="12" y="9" width="1" height="2" fill="rgb(255,255,255)" fill-opacity="0.0078125"/>
  <rect x="12" y="11" width="1" height="1" fill="rgb(27,27,27)" fill-opacity="0.265625"/>
  <rect x="12" y="12" width="1" height="1" fill="rgb(58,58,58)" fill-opacity="0.8203125"/>
  <rect x="12" y="13" width="1" height="1" fill="rgb(189,189,189)" fill-opacity="0.9453125"/>
  <rect x="12" y="14" width="1" height="1" fill="rgb(235,235,235)"/>
  <rect x="12" y="15" width="1" height="1" fill="rgb(195,195,195)" fill-opacity="0.9921875"/>
  <rect x="12" y="16" width="1" height="1" fill="rgb(42,42,42)" fill-opacity="0.8359375"/>
  <rect x="12" y="17" width="1" height="1" fill="rgb(27,27,27)" fill-opacity="0.3359375"/>
  <rect x="12" y="18" width="1" height="3" fill="rgb(255,255,255)" fill-opacity="0.0078125"/>
  <rect x="13" y="0" width="1" height="4" fill="rgb(255,255,255)" fill-opacity="0.0078125"/>
  <rect x="13" y="4" width="1" height="1" fill="rgb(27,27,27)" fill-opacity="0.7109375"/>
  <rect x="13" y="5" width="1" height="1" fill="rgb(179,179,179)" fill-opacity="0.984375"/>
  <rect x="13" y="6" width="1" height="1" fill="rgb(152,152,152)"/>
  <rect x="13" y="7" width="1" height="1" fill="rgb(52,52,52)" fill-opacity="0.6796875"/>
  <rect x="13" y="8" width="1" height="1" fill="rgb(25,25,25)" fill-opacity="0.328125"/>
  <rect x="13" y="9" width="1" height="1" fill="rgb(0,0,0)" fill-opacity="0.015625"/>
  <rect x="13" y="10" width="1" height="1" fill="rgb(27,27,27)" fill-opacity="0.375"/>
  <rect x="13" y="11" width="1" height="1" fill="rgb(62,62,62)" fill-opacity="0.828125"/>
  <rect x="13" y="12" width="1" height="1" fill="rgb(193,193,193)" fill-opacity="0.9453125"/>
  <rect x="13" y="13" width="1" height="1" fill="rgb(164,164,164)"/>
  <rect x="13" y="14" width="1" height="1" fill="rgb(126,126,126)" fill-opacity="0.9453125"/>
  <rect x="13" y="15" width="1" height="1" fill="rgb(44,44,44)" fill-opacity="0.828125"/>
  <rect x="13" y="16" width="1" height="1" fill="rgb(26,26,26)" fill-opacity="0.34375"/>
  <rect x="13" y="17" width="1" height="4" fill="rgb(255,255,255)" fill-opacity="0.0078125"/>
  <rect x="14" y="0" width="1" height="4" fill="rgb(255,255,255)" fill-opacity="0.0078125"/>
  <rect x="14" y="4" width="1" height="1" fill="rgb(27,27,27)" fill-opacity="0.5234375"/>
  <rect x="14" y="5" width="1" height="1" fill="rgb(148,148,148)" fill-opacity="0.84375"/>
  <rect x="14" y="6" width="1" height="1" fill="rgb(168,168,168)"/>
  <rect x="14" y="7" width="1" height="1" fill="rgb(140,140,140)" fill-opacity="0.9140625"/>
  <rect x="14" y="8" width="1" height="1" fill="rgb(47,47,47)" fill-opacity="0.7265625"/>
  <rect x="14" y="9" width="1" height="1" fill="rgb(29,29,29)" fill-opacity="0.8359375"/>
  <rect x="14" y="10" width="1" height="1" fill="rgb(75,75,75)" fill-opacity="0.8203125"/>
  <rect x="14" y="11" width="1" height="1" fill="rgb(205,205,205)" fill-opacity="0.9765625"/>
  <rect x="14" y="12" width="1" height="1" fill="rgb(173,173,173)"/>
  <rect x="14" y="13" width="1" height="1" fill="rgb(114,114,114)" fill-opacity="0.9453125"/>
  <rect x="14" y="14" width="1" height="1" fill="rgb(29,29,29)" fill-opacity="0.8046875"/>
  <rect x="14" y="15" width="1" height="1" fill="rgb(26,26,26)" fill-opacity="0.3515625"/>
  <rect x="14" y="16" width="1" height="5" fill="rgb(255,255,255)" fill-opacity="0.0078125"/>
  <rect x="15" y="0" width="1" height="4" fill="rgb(255,255,255)" fill-opacity="0.0078125"/>
  <rect x="15" y="4" width="1" height="1" fill="rgb(28,28,28)" fill-opacity="0.109375"/>
  <rect x="15" y="5" width="1" height="1" fill="rgb(34,34,34)" fill-opacity="0.796875"/>
  <rect x="15" y="6" width="1" height="1" fill="rgb(154,154,154)" fill-opacity="0.9375"/>
  <rect x="15" y="7" width="1" height="1" fill="rgb(164,164,164)"/>
  <rect x="15" y="8" width="1" height="2" fill="rgb(165,165,165)"/>
  <rect x="15" y="10" width="1" height="1" fill="rgb(176,176,176)"/>
  <rect x="15" y="11" width="1" height="1" fill="rgb(174,174,174)"/>
  <rect x="15" y="12" width="1" height="1" fill="rgb(115,115,115)" fill-opacity="0.9296875"/>
  <rect x="15" y="13" width="1" height="1" fill="rgb(29,29,29)" fill-opacity="0.796875"/>
  <rect x="15" y="14" width="1" height="1" fill="rgb(25,25,25)" fill-opacity="0.3671875"/>
  <rect x="15" y="15" width="1" height="6" fill="rgb(255,255,255)" fill-opacity="0.0078125"/>
  <rect x="16" y="0" width="1" height="5" fill="rgb(255,255,255)" fill-opacity="0.0078125"/>
  <rect x="16" y="5" width="1" height="1" fill="rgb(25,25,25)" fill-opacity="0.328125"/>
  <rect x="16" y="6" width="1" height="1" fill="rgb(32,32,32)" fill-opacity="0.7890625"/>
  <rect x="16" y="7" width="1" height="1" fill="rgb(95,95,95)" fill-opacity="0.828125"/>
  <rect x="16" y="8" width="1" height="1" fill="rgb(135,135,135)" fill-opacity="0.984375"/>
  <rect x="16" y="9" width="1" height="1" fill="rgb(149,149,149)"/>
  <rect x="16" y="10" width="1" height="1" fill="rgb(138,138,138)" fill-opacity="0.96875"/>
  <rect x="16" y="11" width="1" height="1" fill="rgb(75,75,75)" fill-opacity="0.8203125"/>
  <rect x="16" y="12" width="1" height="1" fill="rgb(25,25,25)" fill-opacity="0.8125"/>
  <rect x="16" y="13" width="1" height="1" fill="rgb(27,27,27)" fill-opacity="0.3046875"/>
  <rect x="16" y="14" width="1" height="7" fill="rgb(255,255,255)" fill-opacity="0.0078125"/>
  <rect x="17" y="0" width="1" height="6" fill="rgb(255,255,255)" fill-opacity="0.0078125"/>
  <rect x="17" y="6" width="1" height="1" fill="rgb(23,23,23)" fill-opacity="0.1328125"/>
  <rect x="17" y="7" width="1" height="1" fill="rgb(23,23,23)" fill-opacity="0.6171875"/>
  <rect x="17" y="8" width="1" height="1" fill="rgb(24,24,24)" fill-opacity="0.7890625"/>
  <rect x="17" y="9" width="1" height="1" fill="rgb(27,27,27)" fill-opacity="0.828125"/>
  <rect x="17" y="10" width="1" height="1" fill="rgb(22,22,22)" fill-opacity="0.7734375"/>
  <rect x="17" y="11" width="1" height="1" fill="rgb(25,25,25)" fill-opacity="0.5625"/>
  <rect x="17" y="12" width="1" height="1" fill="rgb(22,22,22)" fill-opacity="0.09375"/>
  <rect x="17" y="13" width="1" height="8" fill="rgb(255,255,255)" fill-opacity="0.0078125"/>
  <rect x="18" y="0" width="1" height="9" fill="rgb(255,255,255)" fill-opacity="0.0078125"/>
  <rect x="18" y="9" width="1" height="1" fill="rgb(0,0,0)" fill-opacity="0.0078125"/>
  <rect x="18" y="10" width="1" height="11" fill="rgb(255,255,255)" fill-opacity="0.0078125"/>
  <rect x="19" y="0" width="1" height="21" fill="rgb(255,255,255)" fill-opacity="0.0078125"/>
  <rect x="20" y="0" width="1" height="21" fill="rgb(255,255,255)" fill-opacity="0.0078125"/>
</svg>