<svg xmlns="http://www.w3.org/2000/svg" shape-rendering="crispEdges" width="21" height="21" viewBox="0 0 21 21">
  <rect x="0" y="0" width="1" height="21" fill="rgb(255,255,255)" fill-opacity="0.0078125"/>
  <rect x="1" y="0" width="1" height="21" fill="rgb(255,255,255)" fill-opacity="0.0078125"/>
  <rect x="2" y="0" width="1" height="21" fill="rgb(255,255,255)" fill-opacity="0.0078125"/>
  <rect x="3" y="0" width="1" height="5" fill="rgb(255,255,255)" fill-opacity="0.0078125"/>
  <rect x="3" y="5" width="1" height="1" fill="rgb(0,0,0)" fill-opacity="0.0078125"/>
  <rect x="3" y="6" width="1" height="2" fill="rgb(0,0,0)" fill-opacity="0.015625"/>
  <rect x="3" y="8" width="1" height="1" fill="rgb(0,0,0)" fill-opacity="0.0078125"/>
  <rect x="3" y="9" width="1" height="12" fill="rgb(255,255,255)" fill-opacity="0.0078125"/>
  <rect x="4" y="0" width="1" height="4" fill="rgb(255,255,255)" fill-opacity="0.0078125"/>
  <rect x="4" y="4" width="1" height="1" fill="rgb(0,0,0)" fill-opacity="0.0078125"/>
  <rect x="4" y="5" width="1" height="1" fill="rgb(21,21,21)" fill-opacity="0.3359375"/>
  <rect x="4" y="6" width="1" height="1" fill="rgb(45,45,45)" fill-opacity="0.3984375"/>
  <rect x="4" y="7" width="1" height="1" fill="rgb(23,23,23)" fill-opacity="0.3984375"/>
  <rect x="4" y="8" width="1" height="1" fill="rgb(26,26,26)" fill-opacity="0.3984375"/>
  <rect x="4" y="9" width="1" height="2" fill="rgb(28,28,28)" fill-opacity="0.3984375"/>
  <rect x="4" y="11" width="1" height="1" fill="rgb(31,31,31)" fill-opacity="0.3984375"/>
  <rect x="4" y="12" width="1" height="1" fill="rgb(33,33,33)" fill-opacity="0.3984375"/>
  <rect x="4" y="13" width="1" height="1" fill="rgb(36,36,36)" fill-opacity="0.3984375"/>
  <rect x="4" y="14" width="1" height="1" fill="rgb(40,40,40)" fill-opacity="0.3828125"/>
  <rect x="4" y="15" width="1" height="6" fill="rgb(255,255,255)" fill-opacity="0.0078125"/>
  <rect x="5" y="0" width="1" height="3" fill="rgb(255,255,255)" fill-opacity="0.0078125"/>
  <rect x="5" y="3" width="1" height="1" fill="rgb(0,0,0)" fill-opacity="0.0078125"/>
  <rect x="5" y="4" width="1" height="1" fill="rgb(24,24,24)" fill-opacity="0.3359375"/>
  <rect x="5" y="5" width="1" height="1" fill="rgb(83,83,83)" fill-opacity="0.3984375"/>
  <rect x="5" y="6" width="1" height="1" fill="rgb(255,255,255)" fill-opacity="0.40625"/>
  <rect x="5" y="7" width="1" height="1" fill="rgb(228,228,228)" fill-opacity="0.40625"/>
  <rect x="5" y="8" width="1" height="1" fill="rgb(240,240,240)" fill-opacity="0.40625"/>
  <rect x="5" y="9" width="1" height="1" fill="rgb(238,238,238)" fill-opacity="0.40625"/>
  <rect x="5" y="10" width="1" height="2" fill="rgb(235,235,235)" fill-opacity="0.40625"/>
  <rect x="5" y="12" width="1" height="1" fill="rgb(233,233,233)" fill-opacity="0.40625"/>
  <rect x="5" y="13" width="1" height="1" fill="rgb(230,230,230)" fill-opacity="0.40625"/>
  <rect x="5" y="14" width="1" height="1" fill="rgb(38,38,38)" fill-opacity="0.3984375"/>
  <rect x="5" y="15" width="1" height="6" fill="rgb(255,255,255)" fill-opacity="0.0078125"/>
  <rect x="6" y="0" width="1" height="2" fill="rgb(255,255,255)" fill-opacity="0.0078125"/>
  <rect x="6" y="2" width="1" height="1" fill="rgb(0,0,0)" fill-opacity="0.0078125"/>
  <rect x="6" y="3" width="1" height="1" fill="rgb(21,21,21)" fill-opacity="0.3359375"/>
  <rect x="6" y="4" width="1" height="1" fill="rgb(83,83,83)" fill-opacity="0.3984375"/>
  <rect x="6" y="5" width="1" height="2" fill="rgb(255,255,255)" fill-opacity="0.40625"/>
  <rect x="6" y="7" width="1" height="1" fill="rgb(135,135,135)" fill-opacity="0.40625"/>
  <rect x="6" y="8" width="1" height="1" fill="rgb(160,160,160)" fill-opacity="0.40625"/>
  <rect x="6" y="9" width="1" height="1" fill="rgb(183,183,183)" fill-opacity="0.40625"/>
  <rect x="6" y="10" width="1" height="1" fill="rgb(193,193,193)" fill-opacity="0.40625"/>
  <rect x="6" y="11" width="1" height="1" fill="rgb(203,203,203)" fill-opacity="0.40625"/>
  <rect x="6" y="12" width="1" height="1" fill="rgb(213,213,213)" fill-opacity="0.40625"/>
  <rect x="6" y="13" width="1" height="1" fill="rgb(220,220,220)" fill-opacity="0.40625"/>
  <rect x="6" y="14" width="1" height="1" fill="rgb(41,41,41)" fill-opacity="0.3984375"/>
  <rect x="6" y="15" width="1" height="6" fill="rgb(255,255,255)" fill-opacity="0.0078125"/>
  <rect x="7" y="0" width="1" height="2" fill="rgb(255,255,255)" fill-opacity="0.0078125"/>
  <rect x="7" y="2" width="1" height="1" fill="rgb(0,0,0)" fill-opacity="0.015625"/>
  <rect x="7" y="3" width="1" height="1" fill="rgb(45,45,45)" fill-opacity="0.3984375"/>
  <rect x="7" y="4" width="1" height="3" fill="rgb(255,255,255)" fill-opacity="0.40625"/>
  <rect x="7" y="7" width="1" height="1" fill="rgb(140,140,140)" fill-opacity="0.40625"/>
  <rect x="7" y="8" width="1" height="1" fill="rgb(170,170,170)" fill-opacity="0.40625"/>
  <rect x="7" y="9" width="1" height="1" fill="rgb(188,188,188)" fill-opacity="0.40625"/>
  <rect x="7" y="10" width="1" height="1" fill="rgb(199,199,199)" fill-opacity="0.4140625"/>
  <rect x="7" y="11" width="1" height="1" fill="rgb(208,208,208)" fill-opacity="0.4140625"/>
  <rect x="7" y="12" width="1" height="1" fill="rgb(218,218,218)" fill-opacity="0.40625"/>
  <rect x="7" y="13" width="1" height="1" fill="rgb(225,225,225)" fill-opacity="0.40625"/>
  <rect x="7" y="14" width="1" height="1" fill="rgb(41,41,41)" fill-opacity="0.3984375"/>
  <rect x="7" y="15" width="1" height="6" fill="rgb(255,255,255)" fill-opacity="0.0078125"/>
  <rect x="8" y="0" width="1" height="2" fill="rgb(255,255,255)" fill-opacity="0.0078125"/>
  <rect x="8" y="2" width="1" height="1" fill="rgb(0,0,0)" fill-opacity="0.015625"/>
  <rect x="8" y="3" width="1" height="1" fill="rgb(26,26,26)" fill-opacity="0.3984375"/>
  <rect x="8" y="4" width="1" height="1" fill="rgb(225,225,225)" fill-opacity="0.40625"/>
  <rect x="8" y="5" width="1" height="1" fill="rgb(135,135,135)" fill-opacity="0.40625"/>
  <rect x="8" y="6" width="1" height="1" fill="rgb(140,140,140)" fill-opacity="0.40625"/>
  <rect x="8" y="7" width="1" height="1" fill="rgb(160,160,160)" fill-opacity="0.40625"/>
  <rect x="8" y="8" width="1" height="1" fill="rgb(181,181,181)" fill-opacity="0.40625"/>
  <rect x="8" y="9" width="1" height="1" fill="rgb(104,104,104)" fill-opacity="0.8828125"/>
  <rect x="8" y="10" width="1" height="1" fill="rgb(113,113,113)" fill-opacity="0.9921875"/>
  <rect x="8" y="11" width="1" height="1" fill="rgb(105,105,105)" fill-opacity="0.984375"/>
  <rect x="8" y="12" width="1" height="1" fill="rgb(109,109,109)" fill-opacity="0.984375"/>
  <rect x="8" y="13" width="1" height="1" fill="rgb(113,113,113)" fill-opacity="0.984375"/>
  <rect x="8" y="14" width="1" height="1" fill="rgb(36,36,36)" fill-opacity="0.984375"/>
  <rect x="8" y="15" width="1" height="1" fill="rgb(33,33,33)" fill-opacity="0.9765625"/>
  <rect x="8" y="16" width="1" height="1" fill="rgb(34,34,34)" fill-opacity="0.9765625"/>
  <rect x="8" y="17" width="1" height="1" fill="rgb(36,36,36)" fill-opacity="0.9765625"/>
  <rect x="8" y="18" width="1" height="1" fill="rgb(40,40,40)" fill-opacity="0.9296875"/>
  <rect x="8" y="19" width="1" height="2" fill="rgb(255,255,255)" fill-opacity="0.0078125"/>
  <rect x="9" y="0" width="1" height="2" fill="rgb(255,255,255)" fill-opacity="0.0078125"/>
  <rect x="9" y="2" width="1" height="1" fill="rgb(0,0,0)" fill-opacity="0.0078125"/>
  <rect x="9" y="3" width="1" height="1" fill="rgb(26,26,26)" fill-opacity="0.3984375"/>
  <rect x="9" y="4" width="1" height="1" fill="rgb(235,235,235)" fill-opacity="0.40625"/>
  <rect x="9" y="5" width="1" height="1" fill="rgb(160,160,160)" fill-opacity="0.40625"/>
  <rect x="9" y="6" width="1" height="1" fill="rgb(170,170,170)" fill-opacity="0.40625"/>
  <rect x="9" y="7" width="1" height="1" fill="rgb(181,181,181)" fill-opacity="0.40625"/>
  <rect x="9" y="8" width="1" height="1" fill="rgb(102,102,102)" fill-opacity="0.890625"/>
  <rect x="9" y="9" width="1" height="1" fill="rgb(136,136,136)" fill-opacity="0.9921875"/>
  <rect x="9" y="10" width="1" height="1" fill="rgb(241,241,241)"/>
  <rect x="9" y="11" width="1" height="1" fill="rgb(227,227,227)"/>
  <rect x="9" y="12" width="1" height="1" fill="rgb(238,238,238)"/>
  <rect x="9" y="13" width="1" height="1" fill="rgb(240,240,240)"/>
  <rect x="9" y="14" width="1" height="1" fill="rgb(160,160,160)"/>
  <rect x="9" y="15" width="1" height="1" fill="rgb(234,234,234)"/>
  <rect x="9" y="16" width="1" height="1" fill="rgb(233,233,233)"/>
  <rect x="9" y="17" width="1" height="1" fill="rgb(231,231,231)"/>
  <rect x="9" y="18" width="1" height="1" fill="rgb(39,39,39)" fill-opacity="0.9765625"/>
  <rect x="9" y="19" width="1" height="2" fill="rgb(255,255,255)" fill-opacity="0.0078125"/>
  <rect x="10" y="0" width="1" height="3" fill="rgb(255,255,255)" fill-opacity="0.0078125"/>
  <rect x="10" y="3" width="1" height="1" fill="rgb(28,28,28)" fill-opacity="0.3984375"/>
  <rect x="10" y="4" width="1" height="1" fill="rgb(233,233,233)" fill-opacity="0.40625"/>
  <rect x="10" y="5" width="1" height="1" fill="rgb(183,183,183)" fill-opacity="0.40625"/>
  <rect x="10" y="6" width="1" height="1" fill="rgb(188,188,188)" fill-opacity="0.40625"/>
  <rect x="10" y="7" width="1" height="1" fill="rgb(104,104,104)" fill-opacity="0.8828125"/>
  <rect x="10" y="8" width="1" height="1" fill="rgb(135,135,135)" fill-opacity="0.9921875"/>
  <rect x="10" y="9" width="1" height="1" fill="rgb(241,241,241)"/>
  <rect x="10" y="10" width="1" height="1" fill="rgb(244,244,244)"/>
  <rect x="10" y="11" width="1" height="1" fill="rgb(175,175,175)"/>
  <rect x="10" y="12" width="1" height="1" fill="rgb(194,194,194)"/>
  <rect x="10" y="13" width="1" height="1" fill="rgb(211,211,211)"/>
  <rect x="10" y="14" width="1" height="1" fill="rgb(137,137,137)"/>
  <rect x="10" y="15" width="1" height="1" fill="rgb(204,204,204)"/>
  <rect x="10" y="16" width="1" height="1" fill="rgb(212,212,212)"/>
  <rect x="10" y="17" width="1" height="1" fill="rgb(220,220,220)"/>
  <rect x="10" y="18" width="1" height="1" fill="rgb(41,41,41)" fill-opacity="0.9765625"/>
  <rect x="10" y="19" width="1" height="2" fill="rgb(255,255,255)" fill-opacity="0.0078125"/>
  <rect x="11" y="0" width="1" height="3" fill="rgb(255,255,255)" fill-opacity="0.0078125"/>
  <rect x="11" y="3" width="1" height="1" fill="rgb(31,31,31)" fill-opacity="0.3984375"/>
  <rect x="11" y="4" width="1" height="1" fill="rgb(230,230,230)" fill-opacity="0.40625"/>
  <rect x="11" y="5" width="1" height="1" fill="rgb(195,195,195)" fill-opacity="0.40625"/>
  <rect x="11" y="6" width="1" height="1" fill="rgb(199,199,199)" fill-opacity="0.4140625"/>
  <rect x="11" y="7" width="1" height="1" fill="rgb(113,113,113)" fill-opacity="0.9921875"/>
  <rect x="11" y="8" width="1" height="1" fill="rgb(241,241,241)"/>
  <rect x="11" y="9" width="1" height="1" fill="rgb(244,244,244)"/>
  <rect x="11" y="10" width="1" height="1" fill="rgb(247,247,247)"/>
  <rect x="11" y="11" width="1" height="1" fill="rgb(182,182,182)"/>
  <rect x="11" y="12" width="1" height="1" fill="rgb(202,202,202)"/>
  <rect x="11" y="13" width="1" height="1" fill="rgb(217,217,217)"/>
  <rect x="11" y="14" width="1" height="1" fill="rgb(142,142,142)"/>
  <rect x="11" y="15" width="1" height="1" fill="rgb(212,212,212)"/>
  <rect x="11" y="16" width="1" height="1" fill="rgb(220,220,220)"/>
  <rect x="11" y="17" width="1" height="1" fill="rgb(228,228,228)"/>
  <rect x="11" y="18" width="1" height="1" fill="rgb(42,42,42)" fill-opacity="0.9765625"/>
  <rect x="11" y="19" width="1" height="2" fill="rgb(255,255,255)" fill-opacity="0.0078125"/>
  <rect x="12" y="0" width="1" height="3" fill="rgb(255,255,255)" fill-opacity="0.0078125"/>
  <rect x="12" y="3" width="1" height="1" fill="rgb(31,31,31)" fill-opacity="0.3984375"/>
  <rect x="12" y="4" width="1" height="1" fill="rgb(225,225,225)" fill-opacity="0.40625"/>
  <rect x="12" y="5" width="1" height="1" fill="rgb(205,205,205)" fill-opacity="0.40625"/>
  <rect x="12" y="6" width="1" height="1" fill="rgb(208,208,208)" fill-opacity="0.4140625"/>
  <rect x="12" y="7" width="1" height="1" fill="rgb(105,105,105)" fill-opacity="0.984375"/>
  <rect x="12" y="8" width="1" height="1" fill="rgb(226,226,226)"/>
  <rect x="12" y="9" width="1" height="1" fill="rgb(175,175,175)"/>
  <rect x="12" y="10" width="1" height="1" fill="rgb(182,182,182)"/>
  <rect x="12" y="11" width="1" height="1" fill="rgb(196,196,196)"/>
  <rect x="12" y="12" width="1" height="1" fill="rgb(212,212,212)"/>
  <rect x="12" y="13" width="1" height="1" fill="rgb(223,223,223)"/>
  <rect x="12" y="14" width="1" height="1" fill="rgb(149,149,149)"/>
  <rect x="12" y="15" width="1" height="1" fill="rgb(220,220,220)"/>
  <rect x="12" y="16" width="1" height="1" fill="rgb(228,228,228)"/>
  <rect x="12" y="17" width="1" height="1" fill="rgb(236,236,236)"/>
  <rect x="12" y="18" width="1" height="1" fill="rgb(44,44,44)" fill-opacity="0.9765625"/>
  <rect x="12" y="19" width="1" height="2" fill="rgb(255,255,255)" fill-opacity="0.0078125"/>
  <rect x="13" y="0" width="1" height="3" fill="rgb(255,255,255)" fill-opacity="0.0078125"/>
  <rect x="13" y="3" width="1" height="1" fill="rgb(35,35,35)" fill-opacity="0.3828125"/>
  <rect x="13" y="4" width="1" height="2" fill="rgb(36,36,36)" fill-opacity="0.3984375"/>
  <rect x="13" y="6" width="1" height="1" fill="rgb(38,38,38)" fill-opacity="0.40625"/>
  <rect x="13" y="7" width="1" height="1" fill="rgb(33,33,33)" fill-opacity="0.984375"/>
  <rect x="13" y="8" width="1" height="1" fill="rgb(158,158,158)"/>
  <rect x="13" y="9" width="1" height="1" fill="rgb(114,114,114)"/>
  <rect x="13" y="10" width="1" height="1" fill="rgb(120,120,120)"/>
  <rect x="13" y="11" width="1" height="1" fill="rgb(130,130,130)"/>
  <rect x="13" y="12" width="1" height="1" fill="rgb(139,139,139)"/>
  <rect x="13" y="13" width="1" height="1" fill="rgb(148,148,148)"/>
  <rect x="13" y="14" width="1" height="1" fill="rgb(160,160,160)"/>
  <rect x="13" y="15" width="1" height="1" fill="rgb(228,228,228)"/>
  <rect x="13" y="16" width="1" height="1" fill="rgb(236,236,236)"/>
  <rect x="13" y="17" width="1" height="1" fill="rgb(244,244,244)"/>
  <rect x="13" y="18" width="1" height="1" fill="rgb(46,46,46)" fill-opacity="0.9765625"/>
  <rect x="13" y="19" width="1" height="2" fill="rgb(255,255,255)" fill-opacity="0.0078125"/>
  <rect x="14" y="0" width="1" height="6" fill="rgb(255,255,255)" fill-opacity="0.0078125"/>
  <rect x="14" y="6" width="1" height="1" fill="rgb(0,0,0)" fill-opacity="0.0078125"/>
  <rect x="14" y="7" width="1" height="1" fill="rgb(29,29,29)" fill-opacity="0.9765625"/>
  <rect x="14" y="8" width="1" height="1" fill="rgb(233,233,233)"/>
  <rect x="14" y="9" width="1" height="1" fill="rgb(183,183,183)"/>
  <rect x="14" y="10" width="1" height="1" fill="rgb(191,191,191)"/>
  <rect x="14" y="11" width="1" height="1" fill="rgb(201,201,201)"/>
  <rect x="14" y="12" width="1" height="1" fill="rgb(210,210,210)"/>
  <rect x="14" y="13" width="1" height="1" fill="rgb(220,220,220)"/>
  <rect x="14" y="14" width="1" height="1" fill="rgb(228,228,228)"/>
  <rect x="14" y="15" width="1" height="1" fill="rgb(236,236,236)"/>
  <rect x="14" y="16" width="1" height="1" fill="rgb(244,244,244)"/>
  <rect x="14" y="17" width="1" height="1" fill="rgb(252,252,252)"/>
  <rect x="14" y="18" width="1" height="1" fill="rgb(47,47,47)" fill-opacity="0.9765625"/>
  <rect x="14" y="19" width="1" height="2" fill="rgb(255,255,255)" fill-opacity="0.0078125"/>
  <rect x="15" y="0" width="1" height="7" fill="rgb(255,255,255)" fill-opacity="0.0078125"/>
  <rect x="15" y="7" width="1" height="1" fill="rgb(31,31,31)" fill-opacity="0.9765625"/>
  <rect x="15" y="8" width="1" height="1" fill="rgb(231,231,231)"/>
  <rect x="15" y="9" width="1" height="1" fill="rgb(195,195,195)"/>
  <rect x="15" y="10" width="1" height="1" fill="rgb(203,203,203)"/>
  <rect x="15" y="11" width="1" height="1" fill="rgb(212,212,212)"/>
  <rect x="15" y="12" width="1" height="1" fill="rgb(220,220,220)"/>
  <rect x="15" y="13" width="1" height="1" fill="rgb(228,228,228)"/>
  <rect x="15" y="14" width="1" height="1" fill="rgb(236,236,236)"/>
  <rect x="15" y="15" width="1" height="1" fill="rgb(244,244,244)"/>
  <rect x="15" y="16" width="1" height="1" fill="rgb(252,252,252)"/>
  <rect x="15" y="17" width="1" height="1" fill="rgb(255,255,255)"/>
  <rect x="15" y="18" width="1" height="1" fill="rgb(49,49,49)" fill-opacity="0.9765625"/>
  <rect x="15" y="19" width="1" height="2" fill="rgb(255,255,255)" fill-opacity="0.0078125"/>
  <rect x="16" y="0" width="1" height="7" fill="rgb(255,255,255)" fill-opacity="0.0078125"/>
  <rect x="16" y="7" width="1" height="1" fill="rgb(33,33,33)" fill-opacity="0.9765625"/>
  <rect x="16" y="8" width="1" height="1" fill="rgb(225,225,225)"/>
  <rect x="16" y="9" width="1" height="1" fill="rgb(205,205,205)"/>
  <rect x="16" y="10" width="1" height="1" fill="rgb(212,212,212)"/>
  <rect x="16" y="11" width="1" height="1" fill="rgb(220,220,220)"/>
  <rect x="16" y="12" width="1" height="1" fill="rgb(228,228,228)"/>
  <rect x="16" y="13" width="1" height="1" fill="rgb(236,236,236)"/>
  <rect x="16" y="14" width="1" height="1" fill="rgb(244,244,244)"/>
  <rect x="16" y="15" width="1" height="1" fill="rgb(252,252,252)"/>
  <rect x="16" y="16" width="1" height="2" fill="rgb(255,255,255)"/>
  <rect x="16" y="18" width="1" height="1" fill="rgb(50,50,50)" fill-opacity="0.9765625"/>
  <rect x="16" y="19" width="1" height="2" fill="rgb(255,255,255)" fill-opacity="0.0078125"/>
  <rect x="17" y="0" width="1" height="7" fill="rgb(255,255,255)" fill-opacity="0.0078125"/>
  <rect x="17" y="7" width="1" height="1" fill="rgb(36,36,36)" fill-opacity="0.9296875"/>
  <rect x="17" y="8" width="1" height="1" fill="rgb(36,36,36)" fill-opacity="0.9765625"/>
  <rect x="17" y="9" width="1" height="1" fill="rgb(38,38,38)" fill-opacity="0.9765625"/>
  <rect x="17" y="10" width="1" height="1" fill="rgb(39,39,39)" fill-opacity="0.9765625"/>
  <rect x="17" y="11" width="1" height="1" fill="rgb(41,41,41)" fill-opacity="0.9765625"/>
  <rect x="17" y="12" width="1" height="1" fill="rgb(42,42,42)" fill-opacity="0.9765625"/>
  <rect x="17" y="13" width="1" height="1" fill="rgb(44,44,44)" fill-opacity="0.9765625"/>
  <rect x="17" y="14" width="1" height="1" fill="rgb(46,46,46)" fill-opacity="0.9765625"/>
  <rect x="17" y="15" width="1" height="1" fill="rgb(47,47,47)" fill-opacity="0.9765625"/>
  <rect x="17" y="16" width="1" height="1" fill="rgb(49,49,49)" fill-opacity="0.9765625"/>
  <rect x="17" y="17" width="1" height="1" fill="rgb(50,50,50)" fill-opacity="0.9765625"/>
  <rect x="17" y="18" width="1" height="1" fill="rgb(59,59,59)" fill-opacity="0.9296875"/>
  <rect x="17" y="19" width="1" height="2" fill="rgb(255,255,255)" fill-opacity="0.0078125"/>
  <rect x="18" y="0" width="1" height="21" fill="rgb(255,255,255)" fill-opacity="0.0078125"/>
  <rect x="19" y="0" width="1" height="21" fill="rgb(255,255,255)" fill-opacity="0.0078125"/>
  <rect x="20" y="0" width="1" height="21" fill="rgb(255,255,255)" fill-opacity="0.0078125"/>
</svg>