<svg xmlns="http://www.w3.org/2000/svg" shape-rendering="crispEdges" width="21" height="21" viewBox="0 0 21 21">
  <rect x="0" y="0" width="21" height="1" fill="rgb(255,255,255)" fill-opacity="0.0078125"/>
  <rect x="0" y="1" width="21" height="1" fill="rgb(255,255,255)" fill-opacity="0.0078125"/>
  <rect x="0" y="2" width="21" height="1" fill="rgb(255,255,255)" fill-opacity="0.0078125"/>
  <rect x="0" y="3" width="21" height="1" fill="rgb(255,255,255)" fill-opacity="0.0078125"/>
  <rect x="0" y="4" width="12" height="1" fill="rgb(255,255,255)" fill-opacity="0.0078125"/>
  <rect x="12" y="4" width="1" height="1" fill="rgb(31,55,93)" fill-opacity="0.796875"/>
  <rect x="13" y="4" width="4" height="1" fill="rgb(33,57,95)" fill-opacity="0.9140625"/>
  <rect x="17" y="4" width="1" height="1" fill="rgb(31,55,93)" fill-opacity="0.796875"/>
  <rect x="18" y="4" width="3" height="1" fill="rgb(255,255,255)" fill-opacity="0.0078125"/>
  <rect x="0" y="5" width="12" height="1" fill="rgb(255,255,255)" fill-opacity="0.0078125"/>
  <rect x="12" y="5" width="1" height="1" fill="rgb(33,57,95)" fill-opacity="0.9140625"/>
  <rect x="13" y="5" width="1" height="1" fill="rgb(208,222,242)"/>
  <rect x="14" y="5" width="2" height="1" fill="rgb(219,229,245)"/>
  <rect x="16" y="5" width="1" height="1" fill="rgb(206,220,241)"/>
  <rect x="17" y="5" width="1" height="1" fill="rgb(33,57,95)" fill-opacity="0.9140625"/>
  <rect x="18" y="5" width="3" height="1" fill="rgb(255,255,255)" fill-opacity="0.0078125"/>
  <rect x="0" y="6" width="12" height="1" fill="rgb(255,255,255)" fill-opacity="0.0078125"/>
  <rect x="12" y="6" width="1" height="1" fill="rgb(33,57,95)" fill-opacity="0.9140625"/>
  <rect x="13" y="6" width="1" height="1" fill="rgb(206,220,241)"/>
  <rect x="14" y="6" width="3" height="1" fill="rgb(135,170,222)"/>
  <rect x="17" y="6" width="1" height="1" fill="rgb(33,57,95)" fill-opacity="0.9140625"/>
  <rect x="18" y="6" width="3" height="1" fill="rgb(255,255,255)" fill-opacity="0.0078125"/>
  <rect x="0" y="7" width="12" height="1" fill="rgb(255,255,255)" fill-opacity="0.0078125"/>
  <rect x="12" y="7" width="1" height="1" fill="rgb(31,55,93)" fill-opacity="0.796875"/>
  <rect x="13" y="7" width="4" height="1" fill="rgb(33,57,95)" fill-opacity="0.9140625"/>
  <rect x="17" y="7" width="1" height="1" fill="rgb(31,55,93)" fill-opacity="0.796875"/>
  <rect x="18" y="7" width="3" height="1" fill="rgb(255,255,255)" fill-opacity="0.0078125"/>
  <rect x="0" y="8" width="4" height="1" fill="rgb(255,255,255)" fill-opacity="0.0078125"/>
  <rect x="4" y="8" width="1" height="1" fill="rgb(26,53,89)" fill-opacity="0.796875"/>
  <rect x="5" y="8" width="3" height="1" fill="rgb(29,54,91)" fill-opacity="0.9140625"/>
  <rect x="8" y="8" width="1" height="1" fill="rgb(29,55,92)" fill-opacity="0.9140625"/>
  <rect x="9" y="8" width="1" height="1" fill="rgb(28,53,90)" fill-opacity="0.796875"/>
  <rect x="10" y="8" width="11" height="1" fill="rgb(255,255,255)" fill-opacity="0.0078125"/>
  <rect x="0" y="9" width="4" height="1" fill="rgb(255,255,255)" fill-opacity="0.0078125"/>
  <rect x="4" y="9" width="1" height="1" fill="rgb(29,54,91)" fill-opacity="0.9140625"/>
  <rect x="5" y="9" width="1" height="1" fill="rgb(174,196,228)"/>
  <rect x="6" y="9" width="1" height="1" fill="rgb(188,206,233)"/>
  <rect x="7" y="9" width="1" height="1" fill="rgb(189,207,233)"/>
  <rect x="8" y="9" width="1" height="1" fill="rgb(175,197,229)"/>
  <rect x="9" y="9" width="1" height="1" fill="rgb(30,55,92)" fill-opacity="0.9140625"/>
  <rect x="10" y="9" width="11" height="1" fill="rgb(255,255,255)" fill-opacity="0.0078125"/>
  <rect x="0" y="10" width="4" height="1" fill="rgb(255,255,255)" fill-opacity="0.0078125"/>
  <rect x="4" y="10" width="1" height="1" fill="rgb(29,54,91)" fill-opacity="0.9140625"/>
  <rect x="5" y="10" width="1" height="1" fill="rgb(172,195,228)"/>
  <rect x="6" y="10" width="1" height="1" fill="rgb(90,135,201)"/>
  <rect x="7" y="10" width="1" height="1" fill="rgb(93,138,202)"/>
  <rect x="8" y="10" width="1" height="1" fill="rgb(96,140,203)"/>
  <rect x="9" y="10" width="1" height="1" fill="rgb(30,55,92)" fill-opacity="0.9140625"/>
  <rect x="10" y="10" width="11" height="1" fill="rgb(255,255,255)" fill-opacity="0.0078125"/>
  <rect x="0" y="11" width="4" height="1" fill="rgb(255,255,255)" fill-opacity="0.0078125"/>
  <rect x="4" y="11" width="1" height="1" fill="rgb(27,53,90)" fill-opacity="0.9375"/>
  <rect x="5" y="11" width="1" height="1" fill="rgb(51,90,148)"/>
  <rect x="6" y="11" width="1" height="1" fill="rgb(51,90,147)"/>
  <rect x="7" y="11" width="1" height="1" fill="rgb(49,88,145)"/>
  <rect x="8" y="11" width="1" height="1" fill="rgb(48,86,143)"/>
  <rect x="9" y="11" width="1" height="1" fill="rgb(33,61,100)" fill-opacity="0.9609375"/>
  <rect x="10" y="11" width="2" height="1" fill="rgb(31,56,92)" fill-opacity="0.9140625"/>
  <rect x="12" y="11" width="1" height="1" fill="rgb(28,53,90)" fill-opacity="0.9453125"/>
  <rect x="13" y="11" width="2" height="1" fill="rgb(32,56,92)" fill-opacity="0.9140625"/>
  <rect x="15" y="11" width="2" height="1" fill="rgb(32,57,93)" fill-opacity="0.9140625"/>
  <rect x="17" y="11" width="1" height="1" fill="rgb(31,55,90)" fill-opacity="0.796875"/>
  <rect x="18" y="11" width="3" height="1" fill="rgb(255,255,255)" fill-opacity="0.0078125"/>
  <rect x="0" y="12" width="4" height="1" fill="rgb(255,255,255)" fill-opacity="0.0078125"/>
  <rect x="4" y="12" width="1" height="1" fill="rgb(29,55,92)" fill-opacity="0.9140625"/>
  <rect x="5" y="12" width="1" height="1" fill="rgb(178,199,230)"/>
  <rect x="6" y="12" width="1" height="1" fill="rgb(176,198,229)"/>
  <rect x="7" y="12" width="1" height="1" fill="rgb(48,86,143)"/>
  <rect x="8" y="12" width="1" height="1" fill="rgb(182,202,231)"/>
  <rect x="9" y="12" width="1" height="1" fill="rgb(195,212,235)"/>
  <rect x="10" y="12" width="1" height="1" fill="rgb(196,213,236)"/>
  <rect x="11" y="12" width="1" height="1" fill="rgb(184,204,232)"/>
  <rect x="12" y="12" width="1" height="1" fill="rgb(41,77,132)"/>
  <rect x="13" y="12" width="1" height="1" fill="rgb(182,202,231)"/>
  <rect x="14" y="12" width="1" height="1" fill="rgb(193,210,235)"/>
  <rect x="15" y="12" width="1" height="1" fill="rgb(194,211,235)"/>
  <rect x="16" y="12" width="1" height="1" fill="rgb(185,204,232)"/>
  <rect x="17" y="12" width="1" height="1" fill="rgb(33,57,93)" fill-opacity="0.9140625"/>
  <rect x="18" y="12" width="3" height="1" fill="rgb(255,255,255)" fill-opacity="0.0078125"/>
  <rect x="0" y="13" width="4" height="1" fill="rgb(255,255,255)" fill-opacity="0.0078125"/>
  <rect x="4" y="13" width="1" height="1" fill="rgb(30,55,92)" fill-opacity="0.9140625"/>
  <rect x="5" y="13" width="1" height="1" fill="rgb(176,198,229)"/>
  <rect x="6" y="13" width="1" height="1" fill="rgb(99,142,204)"/>
  <rect x="7" y="13" width="1" height="1" fill="rgb(47,85,141)"/>
  <rect x="8" y="13" width="1" height="1" fill="rgb(181,202,231)"/>
  <rect x="9" y="13" width="1" height="1" fill="rgb(108,149,207)"/>
  <rect x="10" y="13" width="1" height="1" fill="rgb(111,151,208)"/>
  <rect x="11" y="13" width="1" height="1" fill="rgb(114,153,209)"/>
  <rect x="12" y="13" width="1" height="1" fill="rgb(38,75,129)"/>
  <rect x="13" y="13" width="1" height="1" fill="rgb(182,202,231)"/>
  <rect x="14" y="13" width="1" height="1" fill="rgb(123,160,212)"/>
  <rect x="15" y="13" width="1" height="1" fill="rgb(127,162,213)"/>
  <rect x="16" y="13" width="1" height="1" fill="rgb(129,164,214)"/>
  <rect x="17" y="13" width="1" height="1" fill="rgb(33,57,93)" fill-opacity="0.9140625"/>
  <rect x="18" y="13" width="3" height="1" fill="rgb(255,255,255)" fill-opacity="0.0078125"/>
  <rect x="0" y="14" width="4" height="1" fill="rgb(255,255,255)" fill-opacity="0.0078125"/>
  <rect x="4" y="14" width="1" height="1" fill="rgb(28,53,91)" fill-opacity="0.9375"/>
  <rect x="5" y="14" width="1" height="1" fill="rgb(49,87,143)"/>
  <rect x="6" y="14" width="1" height="1" fill="rgb(47,85,141)"/>
  <rect x="7" y="14" width="1" height="1" fill="rgb(46,83,139)"/>
  <rect x="8" y="14" width="1" height="1" fill="rgb(44,82,137)"/>
  <rect x="9" y="14" width="1" height="1" fill="rgb(42,80,135)"/>
  <rect x="10" y="14" width="1" height="1" fill="rgb(41,77,132)"/>
  <rect x="11" y="14" width="1" height="1" fill="rgb(38,76,130)"/>
  <rect x="12" y="14" width="1" height="1" fill="rgb(37,73,129)"/>
  <rect x="13" y="14" width="1" height="1" fill="rgb(34,71,126)"/>
  <rect x="14" y="14" width="1" height="1" fill="rgb(30,69,123)"/>
  <rect x="15" y="14" width="1" height="1" fill="rgb(28,66,120)"/>
  <rect x="16" y="14" width="1" height="1" fill="rgb(26,63,119)"/>
  <rect x="17" y="14" width="1" height="1" fill="rgb(27,52,90)" fill-opacity="0.953125"/>
  <rect x="18" y="14" width="3" height="1" fill="rgb(255,255,255)" fill-opacity="0.0078125"/>
  <rect x="0" y="15" width="4" height="1" fill="rgb(255,255,255)" fill-opacity="0.0078125"/>
  <rect x="4" y="15" width="1" height="1" fill="rgb(30,55,92)" fill-opacity="0.9140625"/>
  <rect x="5" y="15" width="1" height="1" fill="rgb(182,202,231)"/>
  <rect x="6" y="15" width="1" height="1" fill="rgb(195,212,235)"/>
  <rect x="7" y="15" width="1" height="1" fill="rgb(196,213,236)"/>
  <rect x="8" y="15" width="1" height="1" fill="rgb(184,204,232)"/>
  <rect x="9" y="15" width="1" height="1" fill="rgb(41,77,132)"/>
  <rect x="10" y="15" width="1" height="1" fill="rgb(190,208,234)"/>
  <rect x="11" y="15" width="1" height="1" fill="rgb(201,216,237)"/>
  <rect x="12" y="15" width="1" height="1" fill="rgb(202,217,238)"/>
  <rect x="13" y="15" width="1" height="1" fill="rgb(192,209,234)"/>
  <rect x="14" y="15" width="1" height="1" fill="rgb(28,66,120)"/>
  <rect x="15" y="15" width="1" height="1" fill="rgb(191,208,234)"/>
  <rect x="16" y="15" width="1" height="1" fill="rgb(190,208,234)"/>
  <rect x="17" y="15" width="1" height="1" fill="rgb(34,58,93)" fill-opacity="0.9140625"/>
  <rect x="18" y="15" width="3" height="1" fill="rgb(255,255,255)" fill-opacity="0.0078125"/>
  <rect x="0" y="16" width="4" height="1" fill="rgb(255,255,255)" fill-opacity="0.0078125"/>
  <rect x="4" y="16" width="1" height="1" fill="rgb(30,55,92)" fill-opacity="0.9140625"/>
  <rect x="5" y="16" width="1" height="1" fill="rgb(181,202,231)"/>
  <rect x="6" y="16" width="1" height="1" fill="rgb(108,149,207)"/>
  <rect x="7" y="16" width="1" height="1" fill="rgb(111,151,208)"/>
  <rect x="8" y="16" width="1" height="1" fill="rgb(114,153,209)"/>
  <rect x="9" y="16" width="1" height="1" fill="rgb(38,76,130)"/>
  <rect x="10" y="16" width="1" height="1" fill="rgb(188,207,233)"/>
  <rect x="11" y="16" width="1" height="1" fill="rgb(123,160,212)"/>
  <rect x="12" y="16" width="1" height="1" fill="rgb(127,162,213)"/>
  <rect x="13" y="16" width="1" height="1" fill="rgb(129,164,214)"/>
  <rect x="14" y="16" width="1" height="1" fill="rgb(26,64,118)"/>
  <rect x="15" y="16" width="1" height="1" fill="rgb(190,208,234)"/>
  <rect x="16" y="16" width="1" height="1" fill="rgb(139,171,217)"/>
  <rect x="17" y="16" width="1" height="1" fill="rgb(34,58,93)" fill-opacity="0.9140625"/>
  <rect x="18" y="16" width="3" height="1" fill="rgb(255,255,255)" fill-opacity="0.0078125"/>
  <rect x="0" y="17" width="4" height="1" fill="rgb(255,255,255)" fill-opacity="0.0078125"/>
  <rect x="4" y="17" width="1" height="1" fill="rgb(29,54,90)" fill-opacity="0.796875"/>
  <rect x="5" y="17" width="2" height="1" fill="rgb(31,56,92)" fill-opacity="0.9140625"/>
  <rect x="7" y="17" width="2" height="1" fill="rgb(32,56,92)" fill-opacity="0.9140625"/>
  <rect x="9" y="17" width="1" height="1" fill="rgb(27,53,90)" fill-opacity="0.953125"/>
  <rect x="10" y="17" width="1" height="1" fill="rgb(32,57,93)" fill-opacity="0.9140625"/>
  <rect x="11" y="17" width="3" height="1" fill="rgb(33,57,93)" fill-opacity="0.9140625"/>
  <rect x="14" y="17" width="1" height="1" fill="rgb(27,52,90)" fill-opacity="0.953125"/>
  <rect x="15" y="17" width="2" height="1" fill="rgb(34,58,93)" fill-opacity="0.9140625"/>
  <rect x="17" y="17" width="1" height="1" fill="rgb(33,57,92)" fill-opacity="0.796875"/>
  <rect x="18" y="17" width="3" height="1" fill="rgb(255,255,255)" fill-opacity="0.0078125"/>
  <rect x="0" y="18" width="21" height="1" fill="rgb(255,255,255)" fill-opacity="0.0078125"/>
  <rect x="0" y="19" width="21" height="1" fill="rgb(255,255,255)" fill-opacity="0.0078125"/>
  <rect x="0" y="20" width="21" height="1" fill="rgb(255,255,255)" fill-opacity="0.0078125"/>
</svg>