<svg xmlns="http://www.w3.org/2000/svg" shape-rendering="crispEdges" width="21" height="21" viewBox="0 0 21 21">
  <rect x="0" y="0" width="1" height="21" fill="rgb(255,255,255)" fill-opacity="0.0078125"/>
  <rect x="1" y="0" width="1" height="21" fill="rgb(255,255,255)" fill-opacity="0.0078125"/>
  <rect x="2" y="0" width="1" height="21" fill="rgb(255,255,255)" fill-opacity="0.0078125"/>
  <rect x="3" y="0" width="1" height="21" fill="rgb(255,255,255)" fill-opacity="0.0078125"/>
  <rect x="4" y="0" width="1" height="21" fill="rgb(255,255,255)" fill-opacity="0.0078125"/>
  <rect x="5" y="0" width="1" height="21" fill="rgb(255,255,255)" fill-opacity="0.0078125"/>
  <rect x="6" y="0" width="1" height="21" fill="rgb(255,255,255)" fill-opacity="0.0078125"/>
  <rect x="7" y="0" width="1" height="21" fill="rgb(255,255,255)" fill-opacity="0.0078125"/>
  <rect x="8" y="0" width="1" height="4" fill="rgb(255,255,255)" fill-opacity="0.0078125"/>
  <rect x="8" y="4" width="1" height="11" fill="rgb(26,26,26)" fill-opacity="0.234375"/>
  <rect x="8" y="15" width="1" height="6" fill="rgb(255,255,255)" fill-opacity="0.0078125"/>
  <rect x="9" y="0" width="1" height="5" fill="rgb(255,255,255)" fill-opacity="0.0078125"/>
  <rect x="9" y="5" width="1" height="1" fill="rgb(27,27,27)" fill-opacity="0.3046875"/>
  <rect x="9" y="6" width="1" height="1" fill="rgb(224,224,224)" fill-opacity="0.1953125"/>
  <rect x="9" y="7" width="1" height="2" fill="rgb(229,229,229)" fill-opacity="0.1953125"/>
  <rect x="9" y="9" width="1" height="1" fill="rgb(234,234,234)" fill-opacity="0.1953125"/>
  <rect x="9" y="10" width="1" height="2" fill="rgb(239,239,239)" fill-opacity="0.1953125"/>
  <rect x="9" y="12" width="1" height="1" fill="rgb(245,245,245)" fill-opacity="0.1953125"/>
  <rect x="9" y="13" width="1" height="1" fill="rgb(27,27,27)" fill-opacity="0.3046875"/>
  <rect x="9" y="14" width="1" height="7" fill="rgb(255,255,255)" fill-opacity="0.0078125"/>
  <rect x="10" y="0" width="1" height="6" fill="rgb(255,255,255)" fill-opacity="0.0078125"/>
  <rect x="10" y="6" width="1" height="1" fill="rgb(27,27,27)" fill-opacity="0.3046875"/>
  <rect x="10" y="7" width="1" height="2" fill="rgb(215,215,215)" fill-opacity="0.15625"/>
  <rect x="10" y="9" width="1" height="1" fill="rgb(228,228,228)" fill-opacity="0.15625"/>
  <rect x="10" y="10" width="1" height="1" fill="rgb(235,235,235)" fill-opacity="0.15625"/>
  <rect x="10" y="11" width="1" height="1" fill="rgb(242,242,242)" fill-opacity="0.15625"/>
  <rect x="10" y="12" width="1" height="1" fill="rgb(58,58,58)" fill-opacity="0.265625"/>
  <rect x="10" y="13" width="1" height="1" fill="rgb(27,27,27)" fill-opacity="0.15625"/>
  <rect x="10" y="14" width="1" height="7" fill="rgb(255,255,255)" fill-opacity="0.0078125"/>
  <rect x="11" y="0" width="1" height="7" fill="rgb(255,255,255)" fill-opacity="0.0078125"/>
  <rect x="11" y="7" width="1" height="1" fill="rgb(27,27,27)" fill-opacity="0.3046875"/>
  <rect x="11" y="8" width="1" height="1" fill="rgb(228,228,228)" fill-opacity="0.15625"/>
  <rect x="11" y="9" width="1" height="1" fill="rgb(235,235,235)" fill-opacity="0.15625"/>
  <rect x="11" y="10" width="1" height="1" fill="rgb(242,242,242)" fill-opacity="0.15625"/>
  <rect x="11" y="11" width="1" height="1" fill="rgb(248,248,248)" fill-opacity="0.15625"/>
  <rect x="11" y="12" width="1" height="1" fill="rgb(255,255,255)" fill-opacity="0.15625"/>
  <rect x="11" y="13" width="1" height="2" fill="rgb(27,27,27)" fill-opacity="0.3046875"/>
  <rect x="11" y="15" width="1" height="6" fill="rgb(255,255,255)" fill-opacity="0.0078125"/>
  <rect x="12" y="0" width="1" height="8" fill="rgb(255,255,255)" fill-opacity="0.0078125"/>
  <rect x="12" y="8" width="1" height="1" fill="rgb(27,27,27)" fill-opacity="0.3046875"/>
  <rect x="12" y="9" width="1" height="1" fill="rgb(242,242,242)" fill-opacity="0.15625"/>
  <rect x="12" y="10" width="1" height="1" fill="rgb(248,248,248)" fill-opacity="0.15625"/>
  <rect x="12" y="11" width="1" height="2" fill="rgb(38,38,38)" fill-opacity="0.2421875"/>
  <rect x="12" y="13" width="1" height="2" fill="rgb(255,255,255)" fill-opacity="0.15625"/>
  <rect x="12" y="15" width="1" height="2" fill="rgb(27,27,27)" fill-opacity="0.3046875"/>
  <rect x="12" y="17" width="1" height="4" fill="rgb(255,255,255)" fill-opacity="0.0078125"/>
  <rect x="13" y="0" width="1" height="9" fill="rgb(255,255,255)" fill-opacity="0.0078125"/>
  <rect x="13" y="9" width="1" height="1" fill="rgb(27,27,27)" fill-opacity="0.3046875"/>
  <rect x="13" y="10" width="1" height="1" fill="rgb(255,255,255)" fill-opacity="0.15625"/>
  <rect x="13" y="11" width="1" height="1" fill="rgb(26,26,26)" fill-opacity="0.234375"/>
  <rect x="13" y="12" width="1" height="1" fill="rgb(255,255,255)" fill-opacity="0.0078125"/>
  <rect x="13" y="13" width="1" height="2" fill="rgb(27,27,27)" fill-opacity="0.3046875"/>
  <rect x="13" y="15" width="1" height="2" fill="rgb(255,255,255)" fill-opacity="0.15625"/>
  <rect x="13" y="17" width="1" height="1" fill="rgb(27,27,27)" fill-opacity="0.3046875"/>
  <rect x="13" y="18" width="1" height="3" fill="rgb(255,255,255)" fill-opacity="0.0078125"/>
  <rect x="14" y="0" width="1" height="10" fill="rgb(255,255,255)" fill-opacity="0.0078125"/>
  <rect x="14" y="10" width="1" height="1" fill="rgb(27,27,27)" fill-opacity="0.3046875"/>
  <rect x="14" y="11" width="1" height="1" fill="rgb(26,26,26)" fill-opacity="0.234375"/>
  <rect x="14" y="12" width="1" height="3" fill="rgb(255,255,255)" fill-opacity="0.0078125"/>
  <rect x="14" y="15" width="1" height="2" fill="rgb(27,27,27)" fill-opacity="0.3046875"/>
  <rect x="14" y="17" width="1" height="1" fill="rgb(27,27,27)" fill-opacity="0.15625"/>
  <rect x="14" y="18" width="1" height="3" fill="rgb(255,255,255)" fill-opacity="0.0078125"/>
  <rect x="15" y="0" width="1" height="11" fill="rgb(255,255,255)" fill-opacity="0.0078125"/>
  <rect x="15" y="11" width="1" height="1" fill="rgb(26,26,26)" fill-opacity="0.234375"/>
  <rect x="15" y="12" width="1" height="9" fill="rgb(255,255,255)" fill-opacity="0.0078125"/>
  <rect x="16" y="0" width="1" height="21" fill="rgb(255,255,255)" fill-opacity="0.0078125"/>
  <rect x="17" y="0" width="1" height="21" fill="rgb(255,255,255)" fill-opacity="0.0078125"/>
  <rect x="18" y="0" width="1" height="21" fill="rgb(255,255,255)" fill-opacity="0.0078125"/>
  <rect x="19" y="0" width="1" height="21" fill="rgb(255,255,255)" fill-opacity="0.0078125"/>
  <rect x="20" y="0" width="1" height="21" fill="rgb(255,255,255)" fill-opacity="0.0078125"/>
</svg>