<svg xmlns="http://www.w3.org/2000/svg" shape-rendering="crispEdges" width="21" height="21" viewBox="0 0 21 21">
  <rect x="0" y="0" width="21" height="1" fill="rgb(255,255,255)" fill-opacity="0.0078125"/>
  <rect x="0" y="1" width="21" height="1" fill="rgb(255,255,255)" fill-opacity="0.0078125"/>
  <rect x="0" y="2" width="21" height="1" fill="rgb(255,255,255)" fill-opacity="0.0078125"/>
  <rect x="0" y="3" width="10" height="1" fill="rgb(255,255,255)" fill-opacity="0.0078125"/>
  <rect x="10" y="3" width="1" height="1" fill="rgb(0,0,0)" fill-opacity="0.0078125"/>
  <rect x="11" y="3" width="1" height="1" fill="rgb(45,22,0)" fill-opacity="0.40625"/>
  <rect x="12" y="3" width="1" height="1" fill="rgb(52,32,11)" fill-opacity="0.75"/>
  <rect x="13" y="3" width="1" height="1" fill="rgb(68,49,29)" fill-opacity="0.8984375"/>
  <rect x="14" y="3" width="1" height="1" fill="rgb(50,31,8)" fill-opacity="0.75"/>
  <rect x="15" y="3" width="1" height="1" fill="rgb(44,22,0)" fill-opacity="0.4140625"/>
  <rect x="16" y="3" width="1" height="1" fill="rgb(0,0,0)" fill-opacity="0.0078125"/>
  <rect x="17" y="3" width="4" height="1" fill="rgb(255,255,255)" fill-opacity="0.0078125"/>
  <rect x="0" y="4" width="4" height="1" fill="rgb(255,255,255)" fill-opacity="0.0078125"/>
  <rect x="4" y="4" width="1" height="1" fill="rgb(0,0,0)" fill-opacity="0.0078125"/>
  <rect x="5" y="4" width="1" height="1" fill="rgb(44,22,0)" fill-opacity="0.4140625"/>
  <rect x="6" y="4" width="1" height="1" fill="rgb(48,30,7)" fill-opacity="0.75"/>
  <rect x="7" y="4" width="1" height="1" fill="rgb(58,39,19)" fill-opacity="0.8984375"/>
  <rect x="8" y="4" width="1" height="1" fill="rgb(47,28,5)" fill-opacity="0.75"/>
  <rect x="9" y="4" width="1" height="1" fill="rgb(44,22,0)" fill-opacity="0.4140625"/>
  <rect x="10" y="4" width="1" height="1" fill="rgb(46,27,4)" fill-opacity="0.6953125"/>
  <rect x="11" y="4" width="1" height="1" fill="rgb(185,167,148)" fill-opacity="0.890625"/>
  <rect x="12" y="4" width="1" height="1" fill="rgb(250,237,223)" fill-opacity="0.9453125"/>
  <rect x="13" y="4" width="1" height="1" fill="rgb(247,223,198)" fill-opacity="0.953125"/>
  <rect x="14" y="4" width="1" height="1" fill="rgb(242,221,198)" fill-opacity="0.921875"/>
  <rect x="15" y="4" width="1" height="1" fill="rgb(155,133,109)" fill-opacity="0.875"/>
  <rect x="16" y="4" width="1" height="1" fill="rgb(46,26,3)" fill-opacity="0.703125"/>
  <rect x="17" y="4" width="1" height="1" fill="rgb(0,0,0)" fill-opacity="0.015625"/>
  <rect x="18" y="4" width="3" height="1" fill="rgb(255,255,255)" fill-opacity="0.0078125"/>
  <rect x="0" y="5" width="3" height="1" fill="rgb(255,255,255)" fill-opacity="0.0078125"/>
  <rect x="3" y="5" width="1" height="1" fill="rgb(0,0,0)" fill-opacity="0.015625"/>
  <rect x="4" y="5" width="1" height="1" fill="rgb(43,23,0)" fill-opacity="0.703125"/>
  <rect x="5" y="5" width="1" height="1" fill="rgb(179,159,140)" fill-opacity="0.890625"/>
  <rect x="6" y="5" width="1" height="1" fill="rgb(246,233,217)" fill-opacity="0.9375"/>
  <rect x="7" y="5" width="1" height="1" fill="rgb(244,220,195)" fill-opacity="0.953125"/>
  <rect x="8" y="5" width="1" height="1" fill="rgb(235,208,182)" fill-opacity="0.90625"/>
  <rect x="9" y="5" width="1" height="1" fill="rgb(134,110,82)" fill-opacity="0.9140625"/>
  <rect x="10" y="5" width="1" height="1" fill="rgb(176,158,137)" fill-opacity="0.953125"/>
  <rect x="11" y="5" width="1" height="1" fill="rgb(247,213,177)" fill-opacity="0.9765625"/>
  <rect x="12" y="5" width="1" height="1" fill="rgb(227,151,71)" fill-opacity="0.984375"/>
  <rect x="13" y="5" width="1" height="1" fill="rgb(217,137,52)" fill-opacity="0.984375"/>
  <rect x="14" y="5" width="1" height="1" fill="rgb(211,139,61)" fill-opacity="0.984375"/>
  <rect x="15" y="5" width="1" height="1" fill="rgb(222,178,130)" fill-opacity="0.9765625"/>
  <rect x="16" y="5" width="1" height="1" fill="rgb(145,119,92)" fill-opacity="0.8515625"/>
  <rect x="17" y="5" width="1" height="1" fill="rgb(44,23,0)" fill-opacity="0.4375"/>
  <rect x="18" y="5" width="3" height="1" fill="rgb(255,255,255)" fill-opacity="0.0078125"/>
  <rect x="0" y="6" width="3" height="1" fill="rgb(255,255,255)" fill-opacity="0.0078125"/>
  <rect x="3" y="6" width="1" height="1" fill="rgb(44,23,0)" fill-opacity="0.4375"/>
  <rect x="4" y="6" width="1" height="1" fill="rgb(185,164,144)" fill-opacity="0.8828125"/>
  <rect x="5" y="6" width="1" height="1" fill="rgb(245,217,186)" fill-opacity="0.9765625"/>
  <rect x="6" y="6" width="1" height="1" fill="rgb(221,149,72)" fill-opacity="0.984375"/>
  <rect x="7" y="6" width="1" height="1" fill="rgb(208,131,48)" fill-opacity="0.984375"/>
  <rect x="8" y="6" width="1" height="1" fill="rgb(204,134,59)" fill-opacity="0.984375"/>
  <rect x="9" y="6" width="1" height="1" fill="rgb(214,168,119)" fill-opacity="0.984375"/>
  <rect x="10" y="6" width="1" height="1" fill="rgb(231,207,181)" fill-opacity="0.9765625"/>
  <rect x="11" y="6" width="1" height="1" fill="rgb(223,148,66)" fill-opacity="0.984375"/>
  <rect x="12" y="6" width="1" height="1" fill="rgb(230,184,135)" fill-opacity="0.984375"/>
  <rect x="13" y="6" width="1" height="1" fill="rgb(234,204,171)" fill-opacity="0.984375"/>
  <rect x="14" y="6" width="1" height="1" fill="rgb(206,145,80)" fill-opacity="0.984375"/>
  <rect x="15" y="6" width="1" height="1" fill="rgb(189,121,47)" fill-opacity="0.984375"/>
  <rect x="16" y="6" width="1" height="1" fill="rgb(206,170,130)" fill-opacity="0.8828125"/>
  <rect x="17" y="6" width="1" height="1" fill="rgb(48,29,6)" fill-opacity="0.796875"/>
  <rect x="18" y="6" width="3" height="1" fill="rgb(255,255,255)" fill-opacity="0.0078125"/>
  <rect x="0" y="7" width="3" height="1" fill="rgb(255,255,255)" fill-opacity="0.0078125"/>
  <rect x="3" y="7" width="1" height="1" fill="rgb(54,34,14)" fill-opacity="0.8046875"/>
  <rect x="4" y="7" width="1" height="1" fill="rgb(248,235,220)" fill-opacity="0.9453125"/>
  <rect x="5" y="7" width="1" height="1" fill="rgb(217,144,66)" fill-opacity="0.984375"/>
  <rect x="6" y="7" width="1" height="1" fill="rgb(227,184,138)" fill-opacity="0.984375"/>
  <rect x="7" y="7" width="1" height="1" fill="rgb(231,200,168)" fill-opacity="0.984375"/>
  <rect x="8" y="7" width="1" height="1" fill="rgb(197,137,72)" fill-opacity="0.984375"/>
  <rect x="9" y="7" width="1" height="1" fill="rgb(181,115,42)" fill-opacity="0.984375"/>
  <rect x="10" y="7" width="1" height="1" fill="rgb(194,141,86)" fill-opacity="0.9765625"/>
  <rect x="11" y="7" width="1" height="1" fill="rgb(209,132,49)" fill-opacity="0.984375"/>
  <rect x="12" y="7" width="1" height="1" fill="rgb(233,204,172)" fill-opacity="0.984375"/>
  <rect x="13" y="7" width="1" height="1" fill="rgb(52,40,4)" fill-opacity="0.984375"/>
  <rect x="14" y="7" width="1" height="1" fill="rgb(191,128,58)" fill-opacity="0.984375"/>
  <rect x="15" y="7" width="1" height="1" fill="rgb(175,106,33)" fill-opacity="0.984375"/>
  <rect x="16" y="7" width="1" height="1" fill="rgb(192,144,93)" fill-opacity="0.9453125"/>
  <rect x="17" y="7" width="1" height="1" fill="rgb(55,34,14)" fill-opacity="0.953125"/>
  <rect x="18" y="7" width="3" height="1" fill="rgb(255,255,255)" fill-opacity="0.0078125"/>
  <rect x="0" y="8" width="3" height="1" fill="rgb(255,255,255)" fill-opacity="0.0078125"/>
  <rect x="3" y="8" width="1" height="1" fill="rgb(70,50,31)" fill-opacity="0.953125"/>
  <rect x="4" y="8" width="1" height="1" fill="rgb(239,215,187)" fill-opacity="0.96875"/>
  <rect x="5" y="8" width="1" height="1" fill="rgb(201,126,45)" fill-opacity="0.984375"/>
  <rect x="6" y="8" width="1" height="1" fill="rgb(234,209,183)" fill-opacity="0.984375"/>
  <rect x="7" y="8" width="1" height="1" fill="rgb(51,40,4)" fill-opacity="0.984375"/>
  <rect x="8" y="8" width="1" height="1" fill="rgb(180,116,48)" fill-opacity="0.984375"/>
  <rect x="9" y="8" width="1" height="1" fill="rgb(166,100,30)" fill-opacity="0.984375"/>
  <rect x="10" y="8" width="1" height="1" fill="rgb(159,96,28)" fill-opacity="0.9765625"/>
  <rect x="11" y="8" width="1" height="1" fill="rgb(197,122,43)" fill-opacity="0.984375"/>
  <rect x="12" y="8" width="1" height="1" fill="rgb(201,142,80)" fill-opacity="0.984375"/>
  <rect x="13" y="8" width="1" height="1" fill="rgb(175,114,47)" fill-opacity="0.984375"/>
  <rect x="14" y="8" width="1" height="1" fill="rgb(171,104,32)" fill-opacity="0.984375"/>
  <rect x="15" y="8" width="1" height="1" fill="rgb(163,99,32)" fill-opacity="0.984375"/>
  <rect x="16" y="8" width="1" height="1" fill="rgb(176,132,85)" fill-opacity="0.875"/>
  <rect x="17" y="8" width="1" height="1" fill="rgb(46,27,5)" fill-opacity="0.8203125"/>
  <rect x="18" y="8" width="3" height="1" fill="rgb(255,255,255)" fill-opacity="0.0078125"/>
  <rect x="0" y="9" width="3" height="1" fill="rgb(255,255,255)" fill-opacity="0.0078125"/>
  <rect x="3" y="9" width="1" height="1" fill="rgb(55,34,15)" fill-opacity="0.828125"/>
  <rect x="4" y="9" width="1" height="1" fill="rgb(234,212,187)" fill-opacity="0.9296875"/>
  <rect x="5" y="9" width="1" height="1" fill="rgb(191,123,49)" fill-opacity="0.984375"/>
  <rect x="6" y="9" width="1" height="1" fill="rgb(197,143,86)" fill-opacity="0.984375"/>
  <rect x="7" y="9" width="1" height="1" fill="rgb(171,114,51)" fill-opacity="0.984375"/>
  <rect x="8" y="9" width="1" height="1" fill="rgb(162,97,28)" fill-opacity="0.984375"/>
  <rect x="9" y="9" width="1" height="1" fill="rgb(153,91,24)" fill-opacity="0.984375"/>
  <rect x="10" y="9" width="1" height="1" fill="rgb(137,81,20)" fill-opacity="0.953125"/>
  <rect x="11" y="9" width="1" height="1" fill="rgb(184,113,37)" fill-opacity="0.984375"/>
  <rect x="12" y="9" width="1" height="1" fill="rgb(176,107,34)" fill-opacity="0.984375"/>
  <rect x="13" y="9" width="1" height="1" fill="rgb(167,101,30)" fill-opacity="0.984375"/>
  <rect x="14" y="9" width="1" height="1" fill="rgb(160,96,28)" fill-opacity="0.984375"/>
  <rect x="15" y="9" width="1" height="1" fill="rgb(165,113,56)" fill-opacity="0.984375"/>
  <rect x="16" y="9" width="1" height="1" fill="rgb(105,74,38)" fill-opacity="0.7890625"/>
  <rect x="17" y="9" width="1" height="1" fill="rgb(44,22,0)" fill-opacity="0.5"/>
  <rect x="18" y="9" width="3" height="1" fill="rgb(255,255,255)" fill-opacity="0.0078125"/>
  <rect x="0" y="10" width="3" height="1" fill="rgb(255,255,255)" fill-opacity="0.0078125"/>
  <rect x="3" y="10" width="1" height="1" fill="rgb(44,22,0)" fill-opacity="0.5"/>
  <rect x="4" y="10" width="1" height="1" fill="rgb(165,141,114)" fill-opacity="0.84375"/>
  <rect x="5" y="10" width="1" height="1" fill="rgb(203,158,110)" fill-opacity="0.984375"/>
  <rect x="6" y="10" width="1" height="1" fill="rgb(169,104,34)" fill-opacity="0.984375"/>
  <rect x="7" y="10" width="1" height="1" fill="rgb(159,95,26)" fill-opacity="0.984375"/>
  <rect x="8" y="10" width="1" height="1" fill="rgb(151,90,26)" fill-opacity="0.984375"/>
  <rect x="9" y="10" width="1" height="1" fill="rgb(196,145,89)" fill-opacity="0.984375"/>
  <rect x="10" y="10" width="1" height="1" fill="rgb(193,142,88)" fill-opacity="0.9765625"/>
  <rect x="11" y="10" width="1" height="1" fill="rgb(194,144,89)" fill-opacity="0.9765625"/>
  <rect x="12" y="10" width="1" height="1" fill="rgb(199,147,92)" fill-opacity="0.9765625"/>
  <rect x="13" y="10" width="1" height="1" fill="rgb(176,127,74)" fill-opacity="0.9765625"/>
  <rect x="14" y="10" width="1" height="1" fill="rgb(168,122,71)" fill-opacity="0.8828125"/>
  <rect x="15" y="10" width="1" height="1" fill="rgb(106,73,37)" fill-opacity="0.78125"/>
  <rect x="16" y="10" width="1" height="1" fill="rgb(44,24,1)" fill-opacity="0.796875"/>
  <rect x="17" y="10" width="1" height="1" fill="rgb(36,36,0)" fill-opacity="0.03125"/>
  <rect x="18" y="10" width="3" height="1" fill="rgb(255,255,255)" fill-opacity="0.0078125"/>
  <rect x="0" y="11" width="3" height="1" fill="rgb(255,255,255)" fill-opacity="0.0078125"/>
  <rect x="3" y="11" width="1" height="1" fill="rgb(36,36,0)" fill-opacity="0.03125"/>
  <rect x="4" y="11" width="1" height="1" fill="rgb(46,26,4)" fill-opacity="0.796875"/>
  <rect x="5" y="11" width="1" height="1" fill="rgb(147,118,87)" fill-opacity="0.8203125"/>
  <rect x="6" y="11" width="1" height="1" fill="rgb(187,143,98)" fill-opacity="0.8984375"/>
  <rect x="7" y="11" width="1" height="1" fill="rgb(166,116,63)" fill-opacity="0.9765625"/>
  <rect x="8" y="11" width="1" height="1" fill="rgb(150,101,48)" fill-opacity="0.8828125"/>
  <rect x="9" y="11" width="4" height="1" fill="rgb(105,72,37)" fill-opacity="0.984375"/>
  <rect x="13" y="11" width="1" height="1" fill="rgb(68,43,17)" fill-opacity="0.984375"/>
  <rect x="14" y="11" width="1" height="1" fill="rgb(46,27,5)" fill-opacity="0.8671875"/>
  <rect x="15" y="11" width="1" height="1" fill="rgb(43,23,0)" fill-opacity="0.53125"/>
  <rect x="16" y="11" width="1" height="1" fill="rgb(57,28,0)" fill-opacity="0.0390625"/>
  <rect x="17" y="11" width="4" height="1" fill="rgb(255,255,255)" fill-opacity="0.0078125"/>
  <rect x="0" y="12" width="4" height="1" fill="rgb(255,255,255)" fill-opacity="0.0078125"/>
  <rect x="4" y="12" width="1" height="1" fill="rgb(57,28,0)" fill-opacity="0.0390625"/>
  <rect x="5" y="12" width="1" height="1" fill="rgb(43,23,0)" fill-opacity="0.53125"/>
  <rect x="6" y="12" width="1" height="1" fill="rgb(48,29,7)" fill-opacity="0.875"/>
  <rect x="7" y="12" width="1" height="1" fill="rgb(51,30,7)" fill-opacity="0.9765625"/>
  <rect x="8" y="12" width="1" height="1" fill="rgb(74,47,19)" fill-opacity="0.96875"/>
  <rect x="9" y="12" width="1" height="1" fill="rgb(226,189,150)" fill-opacity="0.984375"/>
  <rect x="10" y="12" width="1" height="1" fill="rgb(240,203,163)" fill-opacity="0.984375"/>
  <rect x="11" y="12" width="1" height="1" fill="rgb(238,196,150)" fill-opacity="0.984375"/>
  <rect x="12" y="12" width="1" height="1" fill="rgb(238,184,128)" fill-opacity="0.984375"/>
  <rect x="13" y="12" width="1" height="1" fill="rgb(64,35,6)" fill-opacity="0.8984375"/>
  <rect x="14" y="12" width="2" height="1" fill="rgb(255,255,255)" fill-opacity="0.0078125"/>
  <rect x="16" y="12" width="1" height="1" fill="rgb(39,20,0)" fill-opacity="0.0546875"/>
  <rect x="17" y="12" width="1" height="1" fill="rgb(62,35,5)" fill-opacity="0.6328125"/>
  <rect x="18" y="12" width="1" height="1" fill="rgb(66,37,6)" fill-opacity="0.5234375"/>
  <rect x="19" y="12" width="2" height="1" fill="rgb(255,255,255)" fill-opacity="0.0078125"/>
  <rect x="0" y="13" width="5" height="1" fill="rgb(255,255,255)" fill-opacity="0.0078125"/>
  <rect x="5" y="13" width="1" height="1" fill="rgb(63,34,5)" fill-opacity="0.734375"/>
  <rect x="6" y="13" width="1" height="1" fill="rgb(63,34,5)" fill-opacity="0.8828125"/>
  <rect x="7" y="13" width="1" height="1" fill="rgb(70,43,4)" fill-opacity="0.9375"/>
  <rect x="8" y="13" width="1" height="1" fill="rgb(196,161,115)" fill-opacity="0.984375"/>
  <rect x="9" y="13" width="1" height="1" fill="rgb(198,145,78)" fill-opacity="0.984375"/>
  <rect x="10" y="13" width="1" height="1" fill="rgb(236,147,51)" fill-opacity="0.984375"/>
  <rect x="11" y="13" width="1" height="1" fill="rgb(237,146,50)" fill-opacity="0.984375"/>
  <rect x="12" y="13" width="1" height="1" fill="rgb(247,189,126)" fill-opacity="0.984375"/>
  <rect x="13" y="13" width="1" height="1" fill="rgb(78,45,9)" fill-opacity="0.921875"/>
  <rect x="14" y="13" width="2" height="1" fill="rgb(61,33,5)" fill-opacity="0.8828125"/>
  <rect x="16" y="13" width="1" height="1" fill="rgb(73,45,16)" fill-opacity="0.9140625"/>
  <rect x="17" y="13" width="1" height="1" fill="rgb(210,174,132)" fill-opacity="0.9765625"/>
  <rect x="18" y="13" width="1" height="1" fill="rgb(66,37,5)" fill-opacity="0.734375"/>
  <rect x="19" y="13" width="2" height="1" fill="rgb(255,255,255)" fill-opacity="0.0078125"/>
  <rect x="0" y="14" width="5" height="1" fill="rgb(255,255,255)" fill-opacity="0.0078125"/>
  <rect x="5" y="14" width="1" height="1" fill="rgb(64,35,6)" fill-opacity="0.890625"/>
  <rect x="6" y="14" width="1" height="1" fill="rgb(252,214,172)" fill-opacity="0.984375"/>
  <rect x="7" y="14" width="1" height="1" fill="rgb(252,213,172)" fill-opacity="0.984375"/>
  <rect x="8" y="14" width="1" height="1" fill="rgb(255,218,180)" fill-opacity="0.984375"/>
  <rect x="9" y="14" width="1" height="1" fill="rgb(179,112,28)" fill-opacity="0.984375"/>
  <rect x="10" y="14" width="1" height="1" fill="rgb(215,132,38)" fill-opacity="0.984375"/>
  <rect x="11" y="14" width="1" height="1" fill="rgb(236,143,44)" fill-opacity="0.984375"/>
  <rect x="12" y="14" width="1" height="1" fill="rgb(245,179,104)" fill-opacity="0.984375"/>
  <rect x="13" y="14" width="1" height="1" fill="rgb(181,157,101)" fill-opacity="0.984375"/>
  <rect x="14" y="14" width="2" height="1" fill="rgb(255,227,193)" fill-opacity="0.984375"/>
  <rect x="16" y="14" width="1" height="1" fill="rgb(223,186,143)" fill-opacity="0.984375"/>
  <rect x="17" y="14" width="1" height="1" fill="rgb(255,197,133)" fill-opacity="0.984375"/>
  <rect x="18" y="14" width="1" height="1" fill="rgb(66,37,5)" fill-opacity="0.734375"/>
  <rect x="19" y="14" width="2" height="1" fill="rgb(255,255,255)" fill-opacity="0.0078125"/>
  <rect x="0" y="15" width="5" height="1" fill="rgb(255,255,255)" fill-opacity="0.0078125"/>
  <rect x="5" y="15" width="1" height="1" fill="rgb(58,31,4)" fill-opacity="0.828125"/>
  <rect x="6" y="15" width="1" height="1" fill="rgb(79,50,18)" fill-opacity="0.9140625"/>
  <rect x="7" y="15" width="1" height="1" fill="rgb(89,64,18)" fill-opacity="0.953125"/>
  <rect x="8" y="15" width="1" height="1" fill="rgb(182,147,95)" fill-opacity="0.984375"/>
  <rect x="9" y="15" width="1" height="1" fill="rgb(142,92,20)" fill-opacity="0.984375"/>
  <rect x="10" y="15" width="1" height="1" fill="rgb(230,139,42)" fill-opacity="0.984375"/>
  <rect x="11" y="15" width="1" height="1" fill="rgb(236,143,44)" fill-opacity="0.984375"/>
  <rect x="12" y="15" width="1" height="1" fill="rgb(244,166,82)" fill-opacity="0.984375"/>
  <rect x="13" y="15" width="1" height="1" fill="rgb(138,88,21)" fill-opacity="0.984375"/>
  <rect x="14" y="15" width="2" height="1" fill="rgb(246,145,37)" fill-opacity="0.984375"/>
  <rect x="16" y="15" width="1" height="1" fill="rgb(187,115,39)" fill-opacity="0.984375"/>
  <rect x="17" y="15" width="1" height="1" fill="rgb(255,164,66)" fill-opacity="0.984375"/>
  <rect x="18" y="15" width="1" height="1" fill="rgb(66,37,5)" fill-opacity="0.734375"/>
  <rect x="19" y="15" width="2" height="1" fill="rgb(255,255,255)" fill-opacity="0.0078125"/>
  <rect x="0" y="16" width="7" height="1" fill="rgb(255,255,255)" fill-opacity="0.0078125"/>
  <rect x="7" y="16" width="1" height="1" fill="rgb(60,33,5)" fill-opacity="0.8828125"/>
  <rect x="8" y="16" width="1" height="1" fill="rgb(196,147,87)" fill-opacity="0.984375"/>
  <rect x="9" y="16" width="1" height="1" fill="rgb(236,169,98)" fill-opacity="0.984375"/>
  <rect x="10" y="16" width="1" height="1" fill="rgb(244,170,89)" fill-opacity="0.984375"/>
  <rect x="11" y="16" width="1" height="1" fill="rgb(242,162,74)" fill-opacity="0.984375"/>
  <rect x="12" y="16" width="1" height="1" fill="rgb(245,155,61)" fill-opacity="0.984375"/>
  <rect x="13" y="16" width="1" height="1" fill="rgb(101,60,14)" fill-opacity="0.921875"/>
  <rect x="14" y="16" width="2" height="1" fill="rgb(74,41,7)" fill-opacity="0.90625"/>
  <rect x="16" y="16" width="1" height="1" fill="rgb(85,49,8)" fill-opacity="0.921875"/>
  <rect x="17" y="16" width="1" height="1" fill="rgb(199,114,23)" fill-opacity="0.984375"/>
  <rect x="18" y="16" width="1" height="1" fill="rgb(66,37,5)" fill-opacity="0.734375"/>
  <rect x="19" y="16" width="2" height="1" fill="rgb(255,255,255)" fill-opacity="0.0078125"/>
  <rect x="0" y="17" width="7" height="1" fill="rgb(255,255,255)" fill-opacity="0.0078125"/>
  <rect x="7" y="17" width="1" height="1" fill="rgb(42,21,0)" fill-opacity="0.1953125"/>
  <rect x="8" y="17" width="1" height="1" fill="rgb(62,35,7)" fill-opacity="0.890625"/>
  <rect x="9" y="17" width="1" height="1" fill="rgb(69,40,10)" fill-opacity="0.90625"/>
  <rect x="10" y="17" width="1" height="1" fill="rgb(69,39,9)" fill-opacity="0.90625"/>
  <rect x="11" y="17" width="1" height="1" fill="rgb(68,38,8)" fill-opacity="0.90625"/>
  <rect x="12" y="17" width="1" height="1" fill="rgb(67,37,7)" fill-opacity="0.90625"/>
  <rect x="13" y="17" width="1" height="1" fill="rgb(58,31,4)" fill-opacity="0.828125"/>
  <rect x="14" y="17" width="2" height="1" fill="rgb(255,255,255)" fill-opacity="0.0078125"/>
  <rect x="16" y="17" width="1" height="1" fill="rgb(47,19,0)" fill-opacity="0.109375"/>
  <rect x="17" y="17" width="1" height="1" fill="rgb(60,33,4)" fill-opacity="0.765625"/>
  <rect x="18" y="17" width="1" height="1" fill="rgb(63,36,5)" fill-opacity="0.609375"/>
  <rect x="19" y="17" width="2" height="1" fill="rgb(255,255,255)" fill-opacity="0.0078125"/>
  <rect x="0" y="18" width="21" height="1" fill="rgb(255,255,255)" fill-opacity="0.0078125"/>
  <rect x="0" y="19" width="21" height="1" fill="rgb(255,255,255)" fill-opacity="0.0078125"/>
  <rect x="0" y="20" width="21" height="1" fill="rgb(255,255,255)" fill-opacity="0.0078125"/>
</svg>