<svg xmlns="http://www.w3.org/2000/svg" shape-rendering="crispEdges" width="21" height="21" viewBox="0 0 21 21">
  <rect x="0" y="0" width="1" height="21" fill="rgb(255,255,255)" fill-opacity="0.0078125"/>
  <rect x="1" y="0" width="1" height="21" fill="rgb(255,255,255)" fill-opacity="0.0078125"/>
  <rect x="2" y="0" width="1" height="21" fill="rgb(255,255,255)" fill-opacity="0.0078125"/>
  <rect x="3" y="0" width="1" height="21" fill="rgb(255,255,255)" fill-opacity="0.0078125"/>
  <rect x="4" y="0" width="1" height="21" fill="rgb(255,255,255)" fill-opacity="0.0078125"/>
  <rect x="5" y="0" width="1" height="21" fill="rgb(255,255,255)" fill-opacity="0.0078125"/>
  <rect x="6" y="0" width="1" height="21" fill="rgb(255,255,255)" fill-opacity="0.0078125"/>
  <rect x="7" y="0" width="1" height="21" fill="rgb(255,255,255)" fill-opacity="0.0078125"/>
  <rect x="8" y="0" width="1" height="21" fill="rgb(255,255,255)" fill-opacity="0.0078125"/>
  <rect x="9" y="0" width="1" height="7" fill="rgb(255,255,255)" fill-opacity="0.0078125"/>
  <rect x="9" y="7" width="1" height="1" fill="rgb(0,0,0)" fill-opacity="0.4140625"/>
  <rect x="9" y="8" width="1" height="1" fill="rgb(20,20,20)" fill-opacity="0.6015625"/>
  <rect x="9" y="9" width="1" height="5" fill="rgb(32,32,32)" fill-opacity="0.6015625"/>
  <rect x="9" y="14" width="1" height="1" fill="rgb(62,62,62)" fill-opacity="0.6015625"/>
  <rect x="9" y="15" width="1" height="1" fill="rgb(39,39,39)" fill-opacity="0.4375"/>
  <rect x="9" y="16" width="1" height="5" fill="rgb(255,255,255)" fill-opacity="0.0078125"/>
  <rect x="10" y="0" width="1" height="7" fill="rgb(255,255,255)" fill-opacity="0.0078125"/>
  <rect x="10" y="7" width="1" height="1" fill="rgb(0,0,0)" fill-opacity="0.1484375"/>
  <rect x="10" y="8" width="1" height="1" fill="rgb(18,18,18)" fill-opacity="0.5546875"/>
  <rect x="10" y="9" width="1" height="1" fill="rgb(123,123,123)" fill-opacity="0.546875"/>
  <rect x="10" y="10" width="1" height="3" fill="rgb(128,128,128)" fill-opacity="0.6015625"/>
  <rect x="10" y="13" width="1" height="1" fill="rgb(148,148,148)" fill-opacity="0.5546875"/>
  <rect x="10" y="14" width="1" height="1" fill="rgb(204,204,204)" fill-opacity="0.59375"/>
  <rect x="10" y="15" width="1" height="1" fill="rgb(118,118,118)" fill-opacity="0.2265625"/>
  <rect x="10" y="16" width="1" height="5" fill="rgb(255,255,255)" fill-opacity="0.0078125"/>
  <rect x="11" y="0" width="1" height="8" fill="rgb(255,255,255)" fill-opacity="0.0078125"/>
  <rect x="11" y="8" width="1" height="1" fill="rgb(0,0,0)" fill-opacity="0.1484375"/>
  <rect x="11" y="9" width="1" height="1" fill="rgb(18,18,18)" fill-opacity="0.5546875"/>
  <rect x="11" y="10" width="1" height="1" fill="rgb(123,123,123)" fill-opacity="0.546875"/>
  <rect x="11" y="11" width="1" height="1" fill="rgb(128,128,128)" fill-opacity="0.6015625"/>
  <rect x="11" y="12" width="1" height="1" fill="rgb(148,148,148)" fill-opacity="0.5546875"/>
  <rect x="11" y="13" width="1" height="1" fill="rgb(204,204,204)" fill-opacity="0.59375"/>
  <rect x="11" y="14" width="1" height="1" fill="rgb(117,117,117)" fill-opacity="0.234375"/>
  <rect x="11" y="15" width="1" height="6" fill="rgb(255,255,255)" fill-opacity="0.0078125"/>
  <rect x="12" y="0" width="1" height="9" fill="rgb(255,255,255)" fill-opacity="0.0078125"/>
  <rect x="12" y="9" width="1" height="1" fill="rgb(0,0,0)" fill-opacity="0.15625"/>
  <rect x="12" y="10" width="1" height="1" fill="rgb(18,18,18)" fill-opacity="0.5546875"/>
  <rect x="12" y="11" width="1" height="1" fill="rgb(139,139,139)" fill-opacity="0.5390625"/>
  <rect x="12" y="12" width="1" height="1" fill="rgb(204,204,204)" fill-opacity="0.59375"/>
  <rect x="12" y="13" width="1" height="1" fill="rgb(115,115,115)" fill-opacity="0.2421875"/>
  <rect x="12" y="14" width="1" height="7" fill="rgb(255,255,255)" fill-opacity="0.0078125"/>
  <rect x="13" y="0" width="1" height="10" fill="rgb(255,255,255)" fill-opacity="0.0078125"/>
  <rect x="13" y="10" width="1" height="1" fill="rgb(0,0,0)" fill-opacity="0.15625"/>
  <rect x="13" y="11" width="1" height="1" fill="rgb(33,33,33)" fill-opacity="0.5234375"/>
  <rect x="13" y="12" width="1" height="1" fill="rgb(109,109,109)" fill-opacity="0.2421875"/>
  <rect x="13" y="13" width="1" height="8" fill="rgb(255,255,255)" fill-opacity="0.0078125"/>
  <rect x="14" y="0" width="1" height="21" fill="rgb(255,255,255)" fill-opacity="0.0078125"/>
  <rect x="15" y="0" width="1" height="21" fill="rgb(255,255,255)" fill-opacity="0.0078125"/>
  <rect x="16" y="0" width="1" height="21" fill="rgb(255,255,255)" fill-opacity="0.0078125"/>
  <rect x="17" y="0" width="1" height="21" fill="rgb(255,255,255)" fill-opacity="0.0078125"/>
  <rect x="18" y="0" width="1" height="21" fill="rgb(255,255,255)" fill-opacity="0.0078125"/>
  <rect x="19" y="0" width="1" height="21" fill="rgb(255,255,255)" fill-opacity="0.0078125"/>
  <rect x="20" y="0" width="1" height="21" fill="rgb(255,255,255)" fill-opacity="0.0078125"/>
</svg>