<svg xmlns="http://www.w3.org/2000/svg" shape-rendering="crispEdges" width="21" height="21" viewBox="0 0 21 21">
  <rect x="0" y="0" width="1" height="21" fill="rgb(255,255,255)" fill-opacity="0.0078125"/>
  <rect x="1" y="0" width="1" height="21" fill="rgb(255,255,255)" fill-opacity="0.0078125"/>
  <rect x="2" y="0" width="1" height="21" fill="rgb(255,255,255)" fill-opacity="0.0078125"/>
  <rect x="3" y="0" width="1" height="15" fill="rgb(255,255,255)" fill-opacity="0.0078125"/>
  <rect x="3" y="15" width="1" height="1" fill="rgb(37,25,12)" fill-opacity="0.1640625"/>
  <rect x="3" y="16" width="1" height="1" fill="rgb(44,27,14)" fill-opacity="0.6640625"/>
  <rect x="3" y="17" width="1" height="1" fill="rgb(56,32,16)" fill-opacity="0.8046875"/>
  <rect x="3" y="18" width="1" height="1" fill="rgb(42,25,13)" fill-opacity="0.2421875"/>
  <rect x="3" y="19" width="1" height="2" fill="rgb(255,255,255)" fill-opacity="0.0078125"/>
  <rect x="4" y="0" width="1" height="14" fill="rgb(255,255,255)" fill-opacity="0.0078125"/>
  <rect x="4" y="14" width="1" height="1" fill="rgb(40,23,11)" fill-opacity="0.1796875"/>
  <rect x="4" y="15" width="1" height="1" fill="rgb(65,44,31)" fill-opacity="0.90625"/>
  <rect x="4" y="16" width="1" height="1" fill="rgb(202,175,157)"/>
  <rect x="4" y="17" width="1" height="1" fill="rgb(161,98,59)"/>
  <rect x="4" y="18" width="1" height="1" fill="rgb(56,31,14)" fill-opacity="0.7734375"/>
  <rect x="4" y="19" width="1" height="2" fill="rgb(255,255,255)" fill-opacity="0.0078125"/>
  <rect x="5" y="0" width="1" height="13" fill="rgb(255,255,255)" fill-opacity="0.0078125"/>
  <rect x="5" y="13" width="1" height="1" fill="rgb(38,22,11)" fill-opacity="0.1875"/>
  <rect x="5" y="14" width="1" height="1" fill="rgb(66,45,31)" fill-opacity="0.9140625"/>
  <rect x="5" y="15" width="1" height="1" fill="rgb(205,179,162)"/>
  <rect x="5" y="16" width="1" height="1" fill="rgb(184,136,105)"/>
  <rect x="5" y="17" width="1" height="1" fill="rgb(138,78,38)" fill-opacity="0.9921875"/>
  <rect x="5" y="18" width="1" height="1" fill="rgb(47,26,13)" fill-opacity="0.765625"/>
  <rect x="5" y="19" width="1" height="2" fill="rgb(255,255,255)" fill-opacity="0.0078125"/>
  <rect x="6" y="0" width="1" height="12" fill="rgb(255,255,255)" fill-opacity="0.0078125"/>
  <rect x="6" y="12" width="1" height="1" fill="rgb(0,0,0)" fill-opacity="0.015625"/>
  <rect x="6" y="13" width="1" height="1" fill="rgb(47,27,14)" fill-opacity="0.84375"/>
  <rect x="6" y="14" width="1" height="1" fill="rgb(202,174,157)"/>
  <rect x="6" y="15" width="1" height="1" fill="rgb(184,136,105)"/>
  <rect x="6" y="16" width="1" height="1" fill="rgb(138,78,38)" fill-opacity="0.9921875"/>
  <rect x="6" y="17" width="1" height="1" fill="rgb(51,29,14)" fill-opacity="0.8984375"/>
  <rect x="6" y="18" width="1" height="1" fill="rgb(43,24,12)" fill-opacity="0.171875"/>
  <rect x="6" y="19" width="1" height="2" fill="rgb(255,255,255)" fill-opacity="0.0078125"/>
  <rect x="7" y="0" width="1" height="6" fill="rgb(255,255,255)" fill-opacity="0.0078125"/>
  <rect x="7" y="6" width="1" height="1" fill="rgb(0,0,0)" fill-opacity="0.2890625"/>
  <rect x="7" y="7" width="1" height="1" fill="rgb(0,0,0)" fill-opacity="0.59375"/>
  <rect x="7" y="8" width="1" height="2" fill="rgb(0,0,0)" fill-opacity="0.78125"/>
  <rect x="7" y="10" width="1" height="1" fill="rgb(0,0,0)" fill-opacity="0.59375"/>
  <rect x="7" y="11" width="1" height="1" fill="rgb(0,0,0)" fill-opacity="0.2890625"/>
  <rect x="7" y="12" width="1" height="1" fill="rgb(0,0,0)" fill-opacity="0.09375"/>
  <rect x="7" y="13" width="1" height="1" fill="rgb(113,98,88)" fill-opacity="0.9921875"/>
  <rect x="7" y="14" width="1" height="1" fill="rgb(169,108,69)"/>
  <rect x="7" y="15" width="1" height="1" fill="rgb(140,79,40)"/>
  <rect x="7" y="16" width="1" height="1" fill="rgb(52,30,14)" fill-opacity="0.90625"/>
  <rect x="7" y="17" width="1" height="1" fill="rgb(40,23,11)" fill-opacity="0.1796875"/>
  <rect x="7" y="18" width="1" height="3" fill="rgb(255,255,255)" fill-opacity="0.0078125"/>
  <rect x="8" y="0" width="1" height="4" fill="rgb(255,255,255)" fill-opacity="0.0078125"/>
  <rect x="8" y="4" width="1" height="1" fill="rgb(0,0,0)" fill-opacity="0.0546875"/>
  <rect x="8" y="5" width="1" height="1" fill="rgb(0,0,0)" fill-opacity="0.625"/>
  <rect x="8" y="6" width="1" height="1" fill="rgb(14,14,14)" fill-opacity="0.640625"/>
  <rect x="8" y="7" width="1" height="1" fill="rgb(138,138,138)" fill-opacity="0.390625"/>
  <rect x="8" y="8" width="1" height="1" fill="rgb(203,203,203)" fill-opacity="0.421875"/>
  <rect x="8" y="9" width="1" height="1" fill="rgb(216,216,216)" fill-opacity="0.4609375"/>
  <rect x="8" y="10" width="1" height="1" fill="rgb(174,174,174)" fill-opacity="0.4765625"/>
  <rect x="8" y="11" width="1" height="1" fill="rgb(38,38,38)" fill-opacity="0.6640625"/>
  <rect x="8" y="12" width="1" height="1" fill="rgb(77,77,77)" fill-opacity="0.9375"/>
  <rect x="8" y="13" width="1" height="1" fill="rgb(197,196,196)"/>
  <rect x="8" y="14" width="1" height="1" fill="rgb(114,98,88)" fill-opacity="0.9921875"/>
  <rect x="8" y="15" width="1" height="1" fill="rgb(42,25,12)" fill-opacity="0.765625"/>
  <rect x="8" y="16" width="1" height="1" fill="rgb(38,22,11)" fill-opacity="0.1875"/>
  <rect x="8" y="17" width="1" height="4" fill="rgb(255,255,255)" fill-opacity="0.0078125"/>
  <rect x="9" y="0" width="1" height="4" fill="rgb(255,255,255)" fill-opacity="0.0078125"/>
  <rect x="9" y="4" width="1" height="1" fill="rgb(0,0,0)" fill-opacity="0.625"/>
  <rect x="9" y="5" width="1" height="1" fill="rgb(56,56,56)" fill-opacity="0.46875"/>
  <rect x="9" y="6" width="1" height="1" fill="rgb(190,190,190)" fill-opacity="0.4765625"/>
  <rect x="9" y="7" width="1" height="1" fill="rgb(140,147,154)" fill-opacity="0.5703125"/>
  <rect x="9" y="8" width="1" height="1" fill="rgb(136,145,157)" fill-opacity="0.5546875"/>
  <rect x="9" y="9" width="1" height="1" fill="rgb(143,145,149)" fill-opacity="0.5"/>
  <rect x="9" y="10" width="1" height="1" fill="rgb(182,182,182)" fill-opacity="0.5234375"/>
  <rect x="9" y="11" width="1" height="1" fill="rgb(238,238,238)" fill-opacity="0.65625"/>
  <rect x="9" y="12" width="1" height="1" fill="rgb(122,122,122)" fill-opacity="0.890625"/>
  <rect x="9" y="13" width="1" height="1" fill="rgb(75,75,75)" fill-opacity="0.9375"/>
  <rect x="9" y="14" width="1" height="1" fill="rgb(9,0,0)" fill-opacity="0.1171875"/>
  <rect x="9" y="15" width="1" height="6" fill="rgb(255,255,255)" fill-opacity="0.0078125"/>
  <rect x="10" y="0" width="1" height="3" fill="rgb(255,255,255)" fill-opacity="0.0078125"/>
  <rect x="10" y="3" width="1" height="1" fill="rgb(0,0,0)" fill-opacity="0.2890625"/>
  <rect x="10" y="4" width="1" height="1" fill="rgb(16,16,16)" fill-opacity="0.6484375"/>
  <rect x="10" y="5" width="1" height="1" fill="rgb(192,192,192)" fill-opacity="0.4921875"/>
  <rect x="10" y="6" width="1" height="1" fill="rgb(206,209,217)" fill-opacity="0.7890625"/>
  <rect x="10" y="7" width="1" height="1" fill="rgb(208,213,222)" fill-opacity="0.8125"/>
  <rect x="10" y="8" width="1" height="1" fill="rgb(57,53,33)" fill-opacity="0.9609375"/>
  <rect x="10" y="9" width="1" height="1" fill="rgb(59,50,24)" fill-opacity="0.96875"/>
  <rect x="10" y="10" width="1" height="1" fill="rgb(57,45,14)" fill-opacity="0.9609375"/>
  <rect x="10" y="11" width="1" height="1" fill="rgb(74,58,26)" fill-opacity="0.9375"/>
  <rect x="10" y="12" width="1" height="1" fill="rgb(199,194,182)" fill-opacity="0.96875"/>
  <rect x="10" y="13" width="1" height="1" fill="rgb(57,51,38)" fill-opacity="0.96875"/>
  <rect x="10" y="14" width="1" height="1" fill="rgb(19,15,0)" fill-opacity="0.484375"/>
  <rect x="10" y="15" width="1" height="6" fill="rgb(255,255,255)" fill-opacity="0.0078125"/>
  <rect x="11" y="0" width="1" height="3" fill="rgb(255,255,255)" fill-opacity="0.0078125"/>
  <rect x="11" y="3" width="1" height="1" fill="rgb(0,0,0)" fill-opacity="0.59375"/>
  <rect x="11" y="4" width="1" height="1" fill="rgb(148,148,148)" fill-opacity="0.421875"/>
  <rect x="11" y="5" width="1" height="1" fill="rgb(153,156,158)" fill-opacity="0.6015625"/>
  <rect x="11" y="6" width="1" height="1" fill="rgb(208,212,219)" fill-opacity="0.8125"/>
  <rect x="11" y="7" width="1" height="1" fill="rgb(216,218,224)" fill-opacity="0.8515625"/>
  <rect x="11" y="8" width="1" height="1" fill="rgb(68,59,35)" fill-opacity="0.984375"/>
  <rect x="11" y="9" width="1" height="1" fill="rgb(207,187,173)"/>
  <rect x="11" y="10" width="1" height="1" fill="rgb(219,193,173)"/>
  <rect x="11" y="11" width="1" height="1" fill="rgb(227,200,176)"/>
  <rect x="11" y="12" width="1" height="1" fill="rgb(241,203,162)" fill-opacity="0.9921875"/>
  <rect x="11" y="13" width="1" height="1" fill="rgb(214,181,145)" fill-opacity="0.9921875"/>
  <rect x="11" y="14" width="1" height="1" fill="rgb(18,13,0)" fill-opacity="0.8359375"/>
  <rect x="11" y="15" width="1" height="6" fill="rgb(255,255,255)" fill-opacity="0.0078125"/>
  <rect x="12" y="0" width="1" height="3" fill="rgb(255,255,255)" fill-opacity="0.0078125"/>
  <rect x="12" y="3" width="1" height="1" fill="rgb(0,0,0)" fill-opacity="0.78125"/>
  <rect x="12" y="4" width="1" height="1" fill="rgb(213,213,213)" fill-opacity="0.4765625"/>
  <rect x="12" y="5" width="1" height="1" fill="rgb(156,159,163)" fill-opacity="0.6015625"/>
  <rect x="12" y="6" width="1" height="1" fill="rgb(161,168,178)" fill-opacity="0.6796875"/>
  <rect x="12" y="7" width="1" height="1" fill="rgb(183,189,195)" fill-opacity="0.8046875"/>
  <rect x="12" y="8" width="1" height="1" fill="rgb(82,69,44)" fill-opacity="0.9921875"/>
  <rect x="12" y="9" width="1" height="1" fill="rgb(218,193,179)"/>
  <rect x="12" y="10" width="1" height="1" fill="rgb(228,144,68)" fill-opacity="0.9921875"/>
  <rect x="12" y="11" width="1" height="1" fill="rgb(236,140,56)" fill-opacity="0.9921875"/>
  <rect x="12" y="12" width="1" height="1" fill="rgb(243,154,64)" fill-opacity="0.984375"/>
  <rect x="12" y="13" width="1" height="1" fill="rgb(252,230,206)" fill-opacity="0.9921875"/>
  <rect x="12" y="14" width="1" height="1" fill="rgb(12,8,0)" fill-opacity="0.9609375"/>
  <rect x="12" y="15" width="1" height="6" fill="rgb(255,255,255)" fill-opacity="0.0078125"/>
  <rect x="13" y="0" width="1" height="3" fill="rgb(255,255,255)" fill-opacity="0.0078125"/>
  <rect x="13" y="3" width="1" height="1" fill="rgb(0,0,0)" fill-opacity="0.78125"/>
  <rect x="13" y="4" width="1" height="1" fill="rgb(220,220,220)" fill-opacity="0.515625"/>
  <rect x="13" y="5" width="1" height="1" fill="rgb(168,168,169)" fill-opacity="0.5859375"/>
  <rect x="13" y="6" width="1" height="1" fill="rgb(174,176,182)" fill-opacity="0.671875"/>
  <rect x="13" y="7" width="1" height="1" fill="rgb(199,198,200)" fill-opacity="0.8203125"/>
  <rect x="13" y="8" width="1" height="1" fill="rgb(92,76,49)"/>
  <rect x="13" y="9" width="1" height="1" fill="rgb(227,199,183)"/>
  <rect x="13" y="10" width="1" height="1" fill="rgb(235,158,93)" fill-opacity="0.9921875"/>
  <rect x="13" y="11" width="1" height="1" fill="rgb(243,150,73)" fill-opacity="0.9921875"/>
  <rect x="13" y="12" width="1" height="1" fill="rgb(250,164,80)" fill-opacity="0.984375"/>
  <rect x="13" y="13" width="1" height="1" fill="rgb(252,229,205)" fill-opacity="0.9921875"/>
  <rect x="13" y="14" width="1" height="1" fill="rgb(12,9,0)" fill-opacity="0.9921875"/>
  <rect x="13" y="15" width="1" height="2" fill="rgb(65,43,0)" fill-opacity="0.875"/>
  <rect x="13" y="17" width="1" height="1" fill="rgb(54,40,0)" fill-opacity="0.828125"/>
  <rect x="13" y="18" width="1" height="3" fill="rgb(255,255,255)" fill-opacity="0.0078125"/>
  <rect x="14" y="0" width="1" height="3" fill="rgb(255,255,255)" fill-opacity="0.0078125"/>
  <rect x="14" y="3" width="1" height="1" fill="rgb(0,0,0)" fill-opacity="0.59375"/>
  <rect x="14" y="4" width="1" height="1" fill="rgb(180,180,180)" fill-opacity="0.515625"/>
  <rect x="14" y="5" width="1" height="1" fill="rgb(197,197,197)" fill-opacity="0.6171875"/>
  <rect x="14" y="6" width="1" height="1" fill="rgb(181,181,182)" fill-opacity="0.59375"/>
  <rect x="14" y="7" width="1" height="1" fill="rgb(209,201,200)" fill-opacity="0.7421875"/>
  <rect x="14" y="8" width="1" height="1" fill="rgb(93,75,48)" fill-opacity="0.984375"/>
  <rect x="14" y="9" width="1" height="1" fill="rgb(235,197,172)"/>
  <rect x="14" y="10" width="1" height="1" fill="rgb(244,161,96)" fill-opacity="0.9921875"/>
  <rect x="14" y="11" width="1" height="1" fill="rgb(248,151,75)" fill-opacity="0.9921875"/>
  <rect x="14" y="12" width="1" height="1" fill="rgb(255,193,132)" fill-opacity="0.9921875"/>
  <rect x="14" y="13" width="1" height="1" fill="rgb(210,184,153)" fill-opacity="0.9921875"/>
  <rect x="14" y="14" width="1" height="1" fill="rgb(75,69,59)" fill-opacity="0.9921875"/>
  <rect x="14" y="15" width="1" height="1" fill="rgb(255,216,173)" fill-opacity="0.9921875"/>
  <rect x="14" y="16" width="1" height="1" fill="rgb(255,202,146)" fill-opacity="0.984375"/>
  <rect x="14" y="17" width="1" height="1" fill="rgb(65,43,0)" fill-opacity="0.875"/>
  <rect x="14" y="18" width="1" height="3" fill="rgb(255,255,255)" fill-opacity="0.0078125"/>
  <rect x="15" y="0" width="1" height="3" fill="rgb(255,255,255)" fill-opacity="0.0078125"/>
  <rect x="15" y="3" width="1" height="1" fill="rgb(0,0,0)" fill-opacity="0.2890625"/>
  <rect x="15" y="4" width="1" height="1" fill="rgb(34,34,34)" fill-opacity="0.671875"/>
  <rect x="15" y="5" width="1" height="1" fill="rgb(242,242,242)" fill-opacity="0.703125"/>
  <rect x="15" y="6" width="1" height="1" fill="rgb(193,193,193)" fill-opacity="0.5390625"/>
  <rect x="15" y="7" width="1" height="1" fill="rgb(207,200,198)" fill-opacity="0.6015625"/>
  <rect x="15" y="8" width="1" height="1" fill="rgb(87,70,41)" fill-opacity="0.96875"/>
  <rect x="15" y="9" width="1" height="1" fill="rgb(101,77,48)" fill-opacity="0.984375"/>
  <rect x="15" y="10" width="1" height="1" fill="rgb(105,78,48)" fill-opacity="0.9765625"/>
  <rect x="15" y="11" width="1" height="1" fill="rgb(137,107,81)" fill-opacity="0.953125"/>
  <rect x="15" y="12" width="1" height="1" fill="rgb(237,234,229)" fill-opacity="0.9921875"/>
  <rect x="15" y="13" width="1" height="1" fill="rgb(61,55,40)" fill-opacity="0.9921875"/>
  <rect x="15" y="14" width="1" height="1" fill="rgb(139,74,0)" fill-opacity="0.9765625"/>
  <rect x="15" y="15" width="1" height="2" fill="rgb(255,132,0)" fill-opacity="0.9609375"/>
  <rect x="15" y="17" width="1" height="1" fill="rgb(65,43,0)" fill-opacity="0.875"/>
  <rect x="15" y="18" width="1" height="3" fill="rgb(255,255,255)" fill-opacity="0.0078125"/>
  <rect x="16" y="0" width="1" height="4" fill="rgb(255,255,255)" fill-opacity="0.0078125"/>
  <rect x="16" y="4" width="1" height="1" fill="rgb(0,0,0)" fill-opacity="0.625"/>
  <rect x="16" y="5" width="1" height="1" fill="rgb(123,123,123)" fill-opacity="0.578125"/>
  <rect x="16" y="6" width="1" height="1" fill="rgb(250,250,250)" fill-opacity="0.78125"/>
  <rect x="16" y="7" width="1" height="1" fill="rgb(235,235,235)" fill-opacity="0.640625"/>
  <rect x="16" y="8" width="1" height="1" fill="rgb(236,231,231)" fill-opacity="0.5859375"/>
  <rect x="16" y="9" width="1" height="1" fill="rgb(245,232,230)" fill-opacity="0.609375"/>
  <rect x="16" y="10" width="1" height="1" fill="rgb(255,243,242)" fill-opacity="0.6953125"/>
  <rect x="16" y="11" width="1" height="1" fill="rgb(255,255,255)" fill-opacity="0.9140625"/>
  <rect x="16" y="12" width="1" height="1" fill="rgb(141,141,138)" fill-opacity="0.6875"/>
  <rect x="16" y="13" width="1" height="1" fill="rgb(18,14,0)" fill-opacity="0.9609375"/>
  <rect x="16" y="14" width="1" height="1" fill="rgb(67,44,0)" fill-opacity="0.8671875"/>
  <rect x="16" y="15" width="1" height="1" fill="rgb(67,45,0)" fill-opacity="0.8671875"/>
  <rect x="16" y="16" width="1" height="1" fill="rgb(69,45,0)" fill-opacity="0.859375"/>
  <rect x="16" y="17" width="1" height="1" fill="rgb(57,41,0)" fill-opacity="0.8125"/>
  <rect x="16" y="18" width="1" height="3" fill="rgb(255,255,255)" fill-opacity="0.0078125"/>
  <rect x="17" y="0" width="1" height="4" fill="rgb(255,255,255)" fill-opacity="0.0078125"/>
  <rect x="17" y="4" width="1" height="1" fill="rgb(0,0,0)" fill-opacity="0.0546875"/>
  <rect x="17" y="5" width="1" height="1" fill="rgb(0,0,0)" fill-opacity="0.625"/>
  <rect x="17" y="6" width="1" height="1" fill="rgb(44,44,44)" fill-opacity="0.6796875"/>
  <rect x="17" y="7" width="1" height="1" fill="rgb(219,219,219)" fill-opacity="0.6640625"/>
  <rect x="17" y="8" width="1" height="1" fill="rgb(253,253,253)" fill-opacity="0.8046875"/>
  <rect x="17" y="9" width="1" height="1" fill="rgb(251,251,251)" fill-opacity="0.8203125"/>
  <rect x="17" y="10" width="1" height="1" fill="rgb(225,225,225)" fill-opacity="0.6953125"/>
  <rect x="17" y="11" width="1" height="1" fill="rgb(53,53,53)" fill-opacity="0.6875"/>
  <rect x="17" y="12" width="1" height="1" fill="rgb(0,0,0)" fill-opacity="0.625"/>
  <rect x="17" y="13" width="1" height="1" fill="rgb(0,0,0)" fill-opacity="0.0546875"/>
  <rect x="17" y="14" width="1" height="7" fill="rgb(255,255,255)" fill-opacity="0.0078125"/>
  <rect x="18" y="0" width="1" height="6" fill="rgb(255,255,255)" fill-opacity="0.0078125"/>
  <rect x="18" y="6" width="1" height="1" fill="rgb(0,0,0)" fill-opacity="0.2890625"/>
  <rect x="18" y="7" width="1" height="1" fill="rgb(0,0,0)" fill-opacity="0.59375"/>
  <rect x="18" y="8" width="1" height="2" fill="rgb(0,0,0)" fill-opacity="0.78125"/>
  <rect x="18" y="10" width="1" height="1" fill="rgb(0,0,0)" fill-opacity="0.59375"/>
  <rect x="18" y="11" width="1" height="1" fill="rgb(0,0,0)" fill-opacity="0.2890625"/>
  <rect x="18" y="12" width="1" height="9" fill="rgb(255,255,255)" fill-opacity="0.0078125"/>
  <rect x="19" y="0" width="1" height="21" fill="rgb(255,255,255)" fill-opacity="0.0078125"/>
  <rect x="20" y="0" width="1" height="21" fill="rgb(255,255,255)" fill-opacity="0.0078125"/>
</svg>