<svg xmlns="http://www.w3.org/2000/svg" shape-rendering="crispEdges" width="21" height="21" viewBox="0 0 21 21">
  <rect x="0" y="0" width="1" height="21" fill="rgb(255,255,255)" fill-opacity="0.0078125"/>
  <rect x="1" y="0" width="1" height="21" fill="rgb(255,255,255)" fill-opacity="0.0078125"/>
  <rect x="2" y="0" width="1" height="21" fill="rgb(255,255,255)" fill-opacity="0.0078125"/>
  <rect x="3" y="0" width="1" height="9" fill="rgb(255,255,255)" fill-opacity="0.0078125"/>
  <rect x="3" y="9" width="1" height="2" fill="rgb(255,152,42)"/>
  <rect x="3" y="11" width="1" height="2" fill="rgb(43,34,0)"/>
  <rect x="3" y="13" width="1" height="2" fill="rgb(255,152,42)"/>
  <rect x="3" y="15" width="1" height="6" fill="rgb(255,255,255)" fill-opacity="0.0078125"/>
  <rect x="4" y="0" width="1" height="7" fill="rgb(255,255,255)" fill-opacity="0.0078125"/>
  <rect x="4" y="7" width="1" height="2" fill="rgb(43,34,0)"/>
  <rect x="4" y="9" width="1" height="6" fill="rgb(150,150,150)" fill-opacity="0.3671875"/>
  <rect x="4" y="15" width="1" height="2" fill="rgb(43,34,0)"/>
  <rect x="4" y="17" width="1" height="4" fill="rgb(255,255,255)" fill-opacity="0.0078125"/>
  <rect x="5" y="0" width="1" height="6" fill="rgb(255,255,255)" fill-opacity="0.0078125"/>
  <rect x="5" y="6" width="1" height="1" fill="rgb(255,152,42)"/>
  <rect x="5" y="7" width="1" height="2" fill="rgb(150,150,150)" fill-opacity="0.3671875"/>
  <rect x="5" y="9" width="1" height="5" fill="rgb(255,255,255)" fill-opacity="0.2578125"/>
  <rect x="5" y="14" width="1" height="1" fill="rgb(236,236,236)" fill-opacity="0.2734375"/>
  <rect x="5" y="15" width="1" height="2" fill="rgb(150,150,150)" fill-opacity="0.3671875"/>
  <rect x="5" y="17" width="1" height="1" fill="rgb(255,152,42)"/>
  <rect x="5" y="18" width="1" height="3" fill="rgb(255,255,255)" fill-opacity="0.0078125"/>
  <rect x="6" y="0" width="1" height="5" fill="rgb(255,255,255)" fill-opacity="0.0078125"/>
  <rect x="6" y="5" width="1" height="1" fill="rgb(255,152,42)"/>
  <rect x="6" y="6" width="1" height="1" fill="rgb(150,150,150)" fill-opacity="0.3671875"/>
  <rect x="6" y="7" width="1" height="10" fill="rgb(255,255,255)" fill-opacity="0.2578125"/>
  <rect x="6" y="17" width="1" height="1" fill="rgb(255,152,42)"/>
  <rect x="6" y="18" width="1" height="3" fill="rgb(255,255,255)" fill-opacity="0.0078125"/>
  <rect x="7" y="0" width="1" height="4" fill="rgb(255,255,255)" fill-opacity="0.0078125"/>
  <rect x="7" y="4" width="1" height="1" fill="rgb(43,34,0)"/>
  <rect x="7" y="5" width="1" height="1" fill="rgb(150,150,150)" fill-opacity="0.3671875"/>
  <rect x="7" y="6" width="1" height="11" fill="rgb(255,255,255)" fill-opacity="0.2578125"/>
  <rect x="7" y="17" width="1" height="1" fill="rgb(43,34,0)"/>
  <rect x="7" y="18" width="1" height="3" fill="rgb(255,255,255)" fill-opacity="0.0078125"/>
  <rect x="8" y="0" width="1" height="4" fill="rgb(255,255,255)" fill-opacity="0.0078125"/>
  <rect x="8" y="4" width="1" height="1" fill="rgb(43,34,0)"/>
  <rect x="8" y="5" width="1" height="1" fill="rgb(150,150,150)" fill-opacity="0.3671875"/>
  <rect x="8" y="6" width="1" height="10" fill="rgb(255,255,255)" fill-opacity="0.2578125"/>
  <rect x="8" y="16" width="1" height="1" fill="rgb(43,34,0)"/>
  <rect x="8" y="17" width="1" height="4" fill="rgb(255,255,255)" fill-opacity="0.0078125"/>
  <rect x="9" y="0" width="1" height="3" fill="rgb(255,255,255)" fill-opacity="0.0078125"/>
  <rect x="9" y="3" width="1" height="1" fill="rgb(255,152,42)"/>
  <rect x="9" y="4" width="1" height="1" fill="rgb(150,150,150)" fill-opacity="0.3671875"/>
  <rect x="9" y="5" width="1" height="8" fill="rgb(255,255,255)" fill-opacity="0.2578125"/>
  <rect x="9" y="13" width="1" height="1" fill="rgb(43,34,0)"/>
  <rect x="9" y="14" width="1" height="2" fill="rgb(255,152,42)"/>
  <rect x="9" y="16" width="1" height="5" fill="rgb(255,255,255)" fill-opacity="0.0078125"/>
  <rect x="10" y="0" width="1" height="3" fill="rgb(255,255,255)" fill-opacity="0.0078125"/>
  <rect x="10" y="3" width="1" height="1" fill="rgb(255,152,42)"/>
  <rect x="10" y="4" width="1" height="1" fill="rgb(150,150,150)" fill-opacity="0.3671875"/>
  <rect x="10" y="5" width="1" height="6" fill="rgb(255,255,255)" fill-opacity="0.2578125"/>
  <rect x="10" y="11" width="1" height="1" fill="rgb(255,152,42)"/>
  <rect x="10" y="12" width="1" height="1" fill="rgb(43,34,0)"/>
  <rect x="10" y="13" width="1" height="8" fill="rgb(255,255,255)" fill-opacity="0.0078125"/>
  <rect x="11" y="0" width="1" height="3" fill="rgb(255,255,255)" fill-opacity="0.0078125"/>
  <rect x="11" y="3" width="1" height="1" fill="rgb(43,34,0)"/>
  <rect x="11" y="4" width="1" height="1" fill="rgb(150,150,150)" fill-opacity="0.3671875"/>
  <rect x="11" y="5" width="1" height="5" fill="rgb(255,255,255)" fill-opacity="0.2578125"/>
  <rect x="11" y="10" width="1" height="1" fill="rgb(255,152,42)"/>
  <rect x="11" y="11" width="1" height="10" fill="rgb(255,255,255)" fill-opacity="0.0078125"/>
  <rect x="12" y="0" width="1" height="3" fill="rgb(255,255,255)" fill-opacity="0.0078125"/>
  <rect x="12" y="3" width="1" height="1" fill="rgb(43,34,0)"/>
  <rect x="12" y="4" width="1" height="1" fill="rgb(150,150,150)" fill-opacity="0.3671875"/>
  <rect x="12" y="5" width="1" height="2" fill="rgb(255,255,255)" fill-opacity="0.2578125"/>
  <rect x="12" y="7" width="1" height="10" fill="rgb(26,26,26)"/>
  <rect x="12" y="17" width="1" height="4" fill="rgb(255,255,255)" fill-opacity="0.0078125"/>
  <rect x="13" y="0" width="1" height="3" fill="rgb(255,255,255)" fill-opacity="0.0078125"/>
  <rect x="13" y="3" width="1" height="1" fill="rgb(255,152,42)"/>
  <rect x="13" y="4" width="1" height="1" fill="rgb(150,150,150)" fill-opacity="0.3671875"/>
  <rect x="13" y="5" width="1" height="3" fill="rgb(255,255,255)" fill-opacity="0.2578125"/>
  <rect x="13" y="8" width="1" height="1" fill="rgb(26,26,26)"/>
  <rect x="13" y="9" width="1" height="7" fill="rgb(255,255,255)"/>
  <rect x="13" y="16" width="1" height="1" fill="rgb(26,26,26)"/>
  <rect x="13" y="17" width="1" height="4" fill="rgb(255,255,255)" fill-opacity="0.0078125"/>
  <rect x="14" y="0" width="1" height="3" fill="rgb(255,255,255)" fill-opacity="0.0078125"/>
  <rect x="14" y="3" width="1" height="1" fill="rgb(255,152,42)"/>
  <rect x="14" y="4" width="1" height="1" fill="rgb(150,150,150)" fill-opacity="0.3671875"/>
  <rect x="14" y="5" width="1" height="4" fill="rgb(255,255,255)" fill-opacity="0.2578125"/>
  <rect x="14" y="9" width="1" height="1" fill="rgb(26,26,26)"/>
  <rect x="14" y="10" width="1" height="5" fill="rgb(255,255,255)"/>
  <rect x="14" y="15" width="1" height="1" fill="rgb(26,26,26)"/>
  <rect x="14" y="16" width="1" height="5" fill="rgb(255,255,255)" fill-opacity="0.0078125"/>
  <rect x="15" y="0" width="1" height="4" fill="rgb(255,255,255)" fill-opacity="0.0078125"/>
  <rect x="15" y="4" width="1" height="1" fill="rgb(43,34,0)"/>
  <rect x="15" y="5" width="1" height="1" fill="rgb(150,150,150)" fill-opacity="0.3671875"/>
  <rect x="15" y="6" width="1" height="3" fill="rgb(255,255,255)" fill-opacity="0.2578125"/>
  <rect x="15" y="9" width="1" height="1" fill="rgb(255,152,42)"/>
  <rect x="15" y="10" width="1" height="1" fill="rgb(26,26,26)"/>
  <rect x="15" y="11" width="1" height="5" fill="rgb(255,255,255)"/>
  <rect x="15" y="16" width="1" height="2" fill="rgb(26,26,26)"/>
  <rect x="15" y="18" width="1" height="3" fill="rgb(255,255,255)" fill-opacity="0.0078125"/>
  <rect x="16" y="0" width="1" height="5" fill="rgb(255,255,255)" fill-opacity="0.0078125"/>
  <rect x="16" y="5" width="1" height="1" fill="rgb(43,34,0)"/>
  <rect x="16" y="6" width="1" height="1" fill="rgb(150,150,150)" fill-opacity="0.3671875"/>
  <rect x="16" y="7" width="1" height="2" fill="rgb(255,255,255)" fill-opacity="0.2578125"/>
  <rect x="16" y="9" width="1" height="1" fill="rgb(43,34,0)"/>
  <rect x="16" y="10" width="1" height="1" fill="rgb(255,255,255)" fill-opacity="0.0078125"/>
  <rect x="16" y="11" width="1" height="1" fill="rgb(26,26,26)"/>
  <rect x="16" y="12" width="1" height="2" fill="rgb(255,255,255)"/>
  <rect x="16" y="14" width="1" height="2" fill="rgb(83,83,83)"/>
  <rect x="16" y="16" width="1" height="2" fill="rgb(255,255,255)"/>
  <rect x="16" y="18" width="1" height="1" fill="rgb(26,26,26)"/>
  <rect x="16" y="19" width="1" height="2" fill="rgb(255,255,255)" fill-opacity="0.0078125"/>
  <rect x="17" y="0" width="1" height="6" fill="rgb(255,255,255)" fill-opacity="0.0078125"/>
  <rect x="17" y="6" width="1" height="2" fill="rgb(255,152,42)"/>
  <rect x="17" y="8" width="1" height="1" fill="rgb(43,34,0)"/>
  <rect x="17" y="9" width="1" height="3" fill="rgb(255,255,255)" fill-opacity="0.0078125"/>
  <rect x="17" y="12" width="1" height="1" fill="rgb(26,26,26)"/>
  <rect x="17" y="13" width="1" height="1" fill="rgb(255,255,255)"/>
  <rect x="17" y="14" width="1" height="1" fill="rgb(26,26,26)" fill-opacity="0.5078125"/>
  <rect x="17" y="15" width="1" height="1" fill="rgb(255,255,255)" fill-opacity="0.0078125"/>
  <rect x="17" y="16" width="1" height="2" fill="rgb(26,26,26)"/>
  <rect x="17" y="18" width="1" height="1" fill="rgb(26,26,26)" fill-opacity="0.5078125"/>
  <rect x="17" y="19" width="1" height="2" fill="rgb(255,255,255)" fill-opacity="0.0078125"/>
  <rect x="18" y="0" width="1" height="13" fill="rgb(255,255,255)" fill-opacity="0.0078125"/>
  <rect x="18" y="13" width="1" height="2" fill="rgb(26,26,26)"/>
  <rect x="18" y="15" width="1" height="6" fill="rgb(255,255,255)" fill-opacity="0.0078125"/>
  <rect x="19" y="0" width="1" height="21" fill="rgb(255,255,255)" fill-opacity="0.0078125"/>
  <rect x="20" y="0" width="1" height="21" fill="rgb(255,255,255)" fill-opacity="0.0078125"/>
</svg>