<svg xmlns="http://www.w3.org/2000/svg" shape-rendering="crispEdges" width="21" height="21" viewBox="0 0 21 21">
  <rect x="0" y="0" width="1" height="21" fill="rgb(255,255,255)" fill-opacity="0.0078125"/>
  <rect x="1" y="0" width="1" height="21" fill="rgb(255,255,255)" fill-opacity="0.0078125"/>
  <rect x="2" y="0" width="1" height="21" fill="rgb(255,255,255)" fill-opacity="0.0078125"/>
  <rect x="3" y="0" width="1" height="21" fill="rgb(255,255,255)" fill-opacity="0.0078125"/>
  <rect x="4" y="0" width="1" height="21" fill="rgb(255,255,255)" fill-opacity="0.0078125"/>
  <rect x="5" y="0" width="1" height="21" fill="rgb(255,255,255)" fill-opacity="0.0078125"/>
  <rect x="6" y="0" width="1" height="21" fill="rgb(255,255,255)" fill-opacity="0.0078125"/>
  <rect x="7" y="0" width="1" height="21" fill="rgb(255,255,255)" fill-opacity="0.0078125"/>
  <rect x="8" y="0" width="1" height="8" fill="rgb(255,255,255)" fill-opacity="0.0078125"/>
  <rect x="8" y="8" width="1" height="1" fill="rgb(85,44,0)" fill-opacity="0.2734375"/>
  <rect x="8" y="9" width="1" height="1" fill="rgb(92,48,2)" fill-opacity="0.890625"/>
  <rect x="8" y="10" width="1" height="1" fill="rgb(84,43,0)"/>
  <rect x="8" y="11" width="1" height="1" fill="rgb(93,49,2)" fill-opacity="0.8828125"/>
  <rect x="8" y="12" width="1" height="1" fill="rgb(85,44,0)" fill-opacity="0.2734375"/>
  <rect x="8" y="13" width="1" height="8" fill="rgb(255,255,255)" fill-opacity="0.0078125"/>
  <rect x="9" y="0" width="1" height="8" fill="rgb(255,255,255)" fill-opacity="0.0078125"/>
  <rect x="9" y="8" width="1" height="1" fill="rgb(92,48,2)" fill-opacity="0.890625"/>
  <rect x="9" y="9" width="1" height="1" fill="rgb(223,188,150)"/>
  <rect x="9" y="10" width="1" height="1" fill="rgb(248,211,170)"/>
  <rect x="9" y="11" width="1" height="1" fill="rgb(205,150,91)"/>
  <rect x="9" y="12" width="1" height="1" fill="rgb(93,49,3)" fill-opacity="0.8828125"/>
  <rect x="9" y="13" width="1" height="8" fill="rgb(255,255,255)" fill-opacity="0.0078125"/>
  <rect x="10" y="0" width="1" height="8" fill="rgb(255,255,255)" fill-opacity="0.0078125"/>
  <rect x="10" y="8" width="1" height="1" fill="rgb(84,43,0)"/>
  <rect x="10" y="9" width="1" height="1" fill="rgb(249,209,167)"/>
  <rect x="10" y="10" width="1" height="1" fill="rgb(240,151,56)"/>
  <rect x="10" y="11" width="1" height="1" fill="rgb(243,169,90)"/>
  <rect x="10" y="12" width="1" height="1" fill="rgb(84,43,0)"/>
  <rect x="10" y="13" width="1" height="8" fill="rgb(255,255,255)" fill-opacity="0.0078125"/>
  <rect x="11" y="0" width="1" height="8" fill="rgb(255,255,255)" fill-opacity="0.0078125"/>
  <rect x="11" y="8" width="1" height="1" fill="rgb(92,48,2)" fill-opacity="0.890625"/>
  <rect x="11" y="9" width="1" height="1" fill="rgb(204,149,89)"/>
  <rect x="11" y="10" width="1" height="1" fill="rgb(242,168,88)"/>
  <rect x="11" y="11" width="1" height="1" fill="rgb(187,112,33)"/>
  <rect x="11" y="12" width="1" height="1" fill="rgb(93,49,3)" fill-opacity="0.8828125"/>
  <rect x="11" y="13" width="1" height="8" fill="rgb(255,255,255)" fill-opacity="0.0078125"/>
  <rect x="12" y="0" width="1" height="8" fill="rgb(255,255,255)" fill-opacity="0.0078125"/>
  <rect x="12" y="8" width="1" height="1" fill="rgb(85,44,0)" fill-opacity="0.2734375"/>
  <rect x="12" y="9" width="1" height="1" fill="rgb(92,48,2)" fill-opacity="0.890625"/>
  <rect x="12" y="10" width="1" height="1" fill="rgb(84,43,0)"/>
  <rect x="12" y="11" width="1" height="1" fill="rgb(93,49,2)" fill-opacity="0.8828125"/>
  <rect x="12" y="12" width="1" height="1" fill="rgb(85,44,0)" fill-opacity="0.2734375"/>
  <rect x="12" y="13" width="1" height="8" fill="rgb(255,255,255)" fill-opacity="0.0078125"/>
  <rect x="13" y="0" width="1" height="21" fill="rgb(255,255,255)" fill-opacity="0.0078125"/>
  <rect x="14" y="0" width="1" height="21" fill="rgb(255,255,255)" fill-opacity="0.0078125"/>
  <rect x="15" y="0" width="1" height="21" fill="rgb(255,255,255)" fill-opacity="0.0078125"/>
  <rect x="16" y="0" width="1" height="21" fill="rgb(255,255,255)" fill-opacity="0.0078125"/>
  <rect x="17" y="0" width="1" height="21" fill="rgb(255,255,255)" fill-opacity="0.0078125"/>
  <rect x="18" y="0" width="1" height="21" fill="rgb(255,255,255)" fill-opacity="0.0078125"/>
  <rect x="19" y="0" width="1" height="21" fill="rgb(255,255,255)" fill-opacity="0.0078125"/>
  <rect x="20" y="0" width="1" height="21" fill="rgb(255,255,255)" fill-opacity="0.0078125"/>
</svg>