<svg xmlns="http://www.w3.org/2000/svg" shape-rendering="crispEdges" width="21" height="21" viewBox="0 0 21 21">
  <rect x="0" y="0" width="1" height="21" fill="rgb(255,255,255)" fill-opacity="0.0078125"/>
  <rect x="1" y="0" width="1" height="21" fill="rgb(255,255,255)" fill-opacity="0.0078125"/>
  <rect x="2" y="0" width="1" height="21" fill="rgb(255,255,255)" fill-opacity="0.0078125"/>
  <rect x="3" y="0" width="1" height="21" fill="rgb(255,255,255)" fill-opacity="0.0078125"/>
  <rect x="4" y="0" width="1" height="12" fill="rgb(255,255,255)" fill-opacity="0.0078125"/>
  <rect x="4" y="12" width="1" height="1" fill="rgb(0,0,0)" fill-opacity="0.03125"/>
  <rect x="4" y="13" width="1" height="1" fill="rgb(22,22,22)" fill-opacity="0.515625"/>
  <rect x="4" y="14" width="1" height="1" fill="rgb(25,25,25)" fill-opacity="0.8828125"/>
  <rect x="4" y="15" width="1" height="1" fill="rgb(27,27,27)" fill-opacity="0.75"/>
  <rect x="4" y="16" width="1" height="1" fill="rgb(4,4,4)" fill-opacity="0.2734375"/>
  <rect x="4" y="17" width="1" height="4" fill="rgb(255,255,255)" fill-opacity="0.0078125"/>
  <rect x="5" y="0" width="1" height="11" fill="rgb(255,255,255)" fill-opacity="0.0078125"/>
  <rect x="5" y="11" width="1" height="1" fill="rgb(4,4,4)" fill-opacity="0.265625"/>
  <rect x="5" y="12" width="1" height="1" fill="rgb(32,32,32)" fill-opacity="0.890625"/>
  <rect x="5" y="13" width="1" height="1" fill="rgb(190,190,190)" fill-opacity="0.984375"/>
  <rect x="5" y="14" width="1" height="1" fill="rgb(252,252,252)"/>
  <rect x="5" y="15" width="1" height="1" fill="rgb(246,246,246)"/>
  <rect x="5" y="16" width="1" height="1" fill="rgb(86,86,86)" fill-opacity="0.953125"/>
  <rect x="5" y="17" width="1" height="1" fill="rgb(4,4,4)" fill-opacity="0.2578125"/>
  <rect x="5" y="18" width="1" height="3" fill="rgb(255,255,255)" fill-opacity="0.0078125"/>
  <rect x="6" y="0" width="1" height="9" fill="rgb(255,255,255)" fill-opacity="0.0078125"/>
  <rect x="6" y="9" width="1" height="1" fill="rgb(0,0,0)" fill-opacity="0.09375"/>
  <rect x="6" y="10" width="1" height="1" fill="rgb(25,25,25)" fill-opacity="0.7109375"/>
  <rect x="6" y="11" width="1" height="1" fill="rgb(119,119,119)" fill-opacity="0.953125"/>
  <rect x="6" y="12" width="1" height="1" fill="rgb(242,242,242)"/>
  <rect x="6" y="13" width="1" height="1" fill="rgb(253,253,253)"/>
  <rect x="6" y="14" width="1" height="2" fill="rgb(255,255,255)"/>
  <rect x="6" y="16" width="1" height="1" fill="rgb(251,251,251)"/>
  <rect x="6" y="17" width="1" height="1" fill="rgb(34,34,34)" fill-opacity="0.90625"/>
  <rect x="6" y="18" width="1" height="1" fill="rgb(0,0,0)" fill-opacity="0.015625"/>
  <rect x="6" y="19" width="1" height="2" fill="rgb(255,255,255)" fill-opacity="0.0078125"/>
  <rect x="7" y="0" width="1" height="7" fill="rgb(255,255,255)" fill-opacity="0.0078125"/>
  <rect x="7" y="7" width="1" height="1" fill="rgb(0,0,0)" fill-opacity="0.015625"/>
  <rect x="7" y="8" width="1" height="1" fill="rgb(18,18,18)" fill-opacity="0.4453125"/>
  <rect x="7" y="9" width="1" height="1" fill="rgb(43,43,43)" fill-opacity="0.921875"/>
  <rect x="7" y="10" width="1" height="1" fill="rgb(221,221,221)"/>
  <rect x="7" y="11" width="1" height="1" fill="rgb(252,252,252)"/>
  <rect x="7" y="12" width="1" height="1" fill="rgb(248,248,248)"/>
  <rect x="7" y="13" width="1" height="4" fill="rgb(255,255,255)"/>
  <rect x="7" y="17" width="1" height="1" fill="rgb(161,161,161)" fill-opacity="0.9609375"/>
  <rect x="7" y="18" width="1" height="1" fill="rgb(0,0,0)" fill-opacity="0.2890625"/>
  <rect x="7" y="19" width="1" height="2" fill="rgb(255,255,255)" fill-opacity="0.0078125"/>
  <rect x="8" y="0" width="1" height="6" fill="rgb(255,255,255)" fill-opacity="0.0078125"/>
  <rect x="8" y="6" width="1" height="1" fill="rgb(0,0,0)" fill-opacity="0.203125"/>
  <rect x="8" y="7" width="1" height="1" fill="rgb(24,24,24)" fill-opacity="0.8515625"/>
  <rect x="8" y="8" width="1" height="1" fill="rgb(151,151,151)" fill-opacity="0.96875"/>
  <rect x="8" y="9" width="1" height="1" fill="rgb(252,252,252)"/>
  <rect x="8" y="10" width="1" height="1" fill="rgb(255,255,255)"/>
  <rect x="8" y="11" width="1" height="1" fill="rgb(249,249,249)"/>
  <rect x="8" y="12" width="1" height="1" fill="rgb(252,252,252)"/>
  <rect x="8" y="13" width="1" height="4" fill="rgb(255,255,255)"/>
  <rect x="8" y="17" width="1" height="1" fill="rgb(231,231,231)"/>
  <rect x="8" y="18" width="1" height="1" fill="rgb(27,27,27)" fill-opacity="0.6796875"/>
  <rect x="8" y="19" width="1" height="2" fill="rgb(255,255,255)" fill-opacity="0.0078125"/>
  <rect x="9" y="0" width="1" height="4" fill="rgb(255,255,255)" fill-opacity="0.0078125"/>
  <rect x="9" y="4" width="1" height="1" fill="rgb(0,0,0)" fill-opacity="0.0625"/>
  <rect x="9" y="5" width="1" height="1" fill="rgb(24,24,24)" fill-opacity="0.6328125"/>
  <rect x="9" y="6" width="1" height="1" fill="rgb(68,68,68)" fill-opacity="0.9375"/>
  <rect x="9" y="7" width="1" height="1" fill="rgb(232,232,232)"/>
  <rect x="9" y="8" width="1" height="3" fill="rgb(255,255,255)"/>
  <rect x="9" y="11" width="1" height="1" fill="rgb(247,247,247)"/>
  <rect x="9" y="12" width="1" height="1" fill="rgb(254,254,254)"/>
  <rect x="9" y="13" width="1" height="4" fill="rgb(255,255,255)"/>
  <rect x="9" y="17" width="1" height="1" fill="rgb(251,251,251)"/>
  <rect x="9" y="18" width="1" height="1" fill="rgb(25,25,25)" fill-opacity="0.828125"/>
  <rect x="9" y="19" width="1" height="2" fill="rgb(255,255,255)" fill-opacity="0.0078125"/>
  <rect x="10" y="0" width="1" height="3" fill="rgb(255,255,255)" fill-opacity="0.0078125"/>
  <rect x="10" y="3" width="1" height="1" fill="rgb(19,19,19)" fill-opacity="0.2734375"/>
  <rect x="10" y="4" width="1" height="1" fill="rgb(23,23,23)" fill-opacity="0.90625"/>
  <rect x="10" y="5" width="1" height="1" fill="rgb(157,157,157)" fill-opacity="0.9921875"/>
  <rect x="10" y="6" width="1" height="1" fill="rgb(238,238,238)"/>
  <rect x="10" y="7" width="1" height="1" fill="rgb(231,231,231)"/>
  <rect x="10" y="8" width="1" height="3" fill="rgb(222,222,222)"/>
  <rect x="10" y="11" width="1" height="1" fill="rgb(214,214,214)"/>
  <rect x="10" y="12" width="1" height="1" fill="rgb(224,224,224)"/>
  <rect x="10" y="13" width="1" height="1" fill="rgb(226,226,226)"/>
  <rect x="10" y="14" width="1" height="1" fill="rgb(229,229,229)"/>
  <rect x="10" y="15" width="1" height="1" fill="rgb(232,232,232)"/>
  <rect x="10" y="16" width="1" height="1" fill="rgb(236,236,236)"/>
  <rect x="10" y="17" width="1" height="1" fill="rgb(254,254,254)"/>
  <rect x="10" y="18" width="1" height="1" fill="rgb(26,26,26)" fill-opacity="0.8984375"/>
  <rect x="10" y="19" width="1" height="2" fill="rgb(255,255,255)" fill-opacity="0.0078125"/>
  <rect x="11" y="0" width="1" height="3" fill="rgb(255,255,255)" fill-opacity="0.0078125"/>
  <rect x="11" y="3" width="1" height="1" fill="rgb(15,15,15)" fill-opacity="0.2734375"/>
  <rect x="11" y="4" width="1" height="1" fill="rgb(20,20,20)" fill-opacity="0.90625"/>
  <rect x="11" y="5" width="1" height="1" fill="rgb(134,134,134)" fill-opacity="0.984375"/>
  <rect x="11" y="6" width="1" height="1" fill="rgb(212,212,212)"/>
  <rect x="11" y="7" width="1" height="1" fill="rgb(200,200,200)"/>
  <rect x="11" y="8" width="1" height="1" fill="rgb(184,184,184)"/>
  <rect x="11" y="9" width="1" height="1" fill="rgb(183,183,183)"/>
  <rect x="11" y="10" width="1" height="1" fill="rgb(184,184,184)"/>
  <rect x="11" y="11" width="1" height="1" fill="rgb(178,178,178)"/>
  <rect x="11" y="12" width="1" height="1" fill="rgb(187,187,187)"/>
  <rect x="11" y="13" width="1" height="1" fill="rgb(190,190,190)"/>
  <rect x="11" y="14" width="1" height="1" fill="rgb(193,193,193)"/>
  <rect x="11" y="15" width="1" height="1" fill="rgb(197,197,197)"/>
  <rect x="11" y="16" width="1" height="1" fill="rgb(205,205,205)"/>
  <rect x="11" y="17" width="1" height="1" fill="rgb(249,249,249)"/>
  <rect x="11" y="18" width="1" height="1" fill="rgb(23,23,23)" fill-opacity="0.8984375"/>
  <rect x="11" y="19" width="1" height="2" fill="rgb(255,255,255)" fill-opacity="0.0078125"/>
  <rect x="12" y="0" width="1" height="4" fill="rgb(255,255,255)" fill-opacity="0.0078125"/>
  <rect x="12" y="4" width="1" height="1" fill="rgb(0,0,0)" fill-opacity="0.0625"/>
  <rect x="12" y="5" width="1" height="1" fill="rgb(14,14,14)" fill-opacity="0.6328125"/>
  <rect x="12" y="6" width="1" height="1" fill="rgb(41,41,41)" fill-opacity="0.9375"/>
  <rect x="12" y="7" width="1" height="1" fill="rgb(159,159,159)"/>
  <rect x="12" y="8" width="1" height="1" fill="rgb(183,183,183)"/>
  <rect x="12" y="9" width="1" height="1" fill="rgb(158,158,158)"/>
  <rect x="12" y="10" width="1" height="1" fill="rgb(147,147,147)"/>
  <rect x="12" y="11" width="1" height="1" fill="rgb(145,145,145)"/>
  <rect x="12" y="12" width="1" height="1" fill="rgb(151,151,151)"/>
  <rect x="12" y="13" width="1" height="1" fill="rgb(155,155,155)"/>
  <rect x="12" y="14" width="1" height="1" fill="rgb(160,160,160)"/>
  <rect x="12" y="15" width="1" height="1" fill="rgb(165,165,165)"/>
  <rect x="12" y="16" width="1" height="1" fill="rgb(188,188,188)"/>
  <rect x="12" y="17" width="1" height="1" fill="rgb(223,223,223)"/>
  <rect x="12" y="18" width="1" height="1" fill="rgb(18,18,18)" fill-opacity="0.828125"/>
  <rect x="12" y="19" width="1" height="2" fill="rgb(255,255,255)" fill-opacity="0.0078125"/>
  <rect x="13" y="0" width="1" height="6" fill="rgb(255,255,255)" fill-opacity="0.0078125"/>
  <rect x="13" y="6" width="1" height="1" fill="rgb(0,0,0)" fill-opacity="0.203125"/>
  <rect x="13" y="7" width="1" height="1" fill="rgb(9,9,9)" fill-opacity="0.8515625"/>
  <rect x="13" y="8" width="1" height="1" fill="rgb(74,74,74)" fill-opacity="0.9609375"/>
  <rect x="13" y="9" width="1" height="1" fill="rgb(157,157,157)"/>
  <rect x="13" y="10" width="1" height="1" fill="rgb(147,147,147)"/>
  <rect x="13" y="11" width="1" height="1" fill="rgb(114,114,114)"/>
  <rect x="13" y="12" width="1" height="1" fill="rgb(117,117,117)"/>
  <rect x="13" y="13" width="1" height="1" fill="rgb(123,123,123)"/>
  <rect x="13" y="14" width="1" height="1" fill="rgb(129,129,129)"/>
  <rect x="13" y="15" width="1" height="1" fill="rgb(135,135,135)"/>
  <rect x="13" y="16" width="1" height="1" fill="rgb(181,181,181)"/>
  <rect x="13" y="17" width="1" height="1" fill="rgb(177,177,177)"/>
  <rect x="13" y="18" width="1" height="1" fill="rgb(16,16,16)" fill-opacity="0.6796875"/>
  <rect x="13" y="19" width="1" height="2" fill="rgb(255,255,255)" fill-opacity="0.0078125"/>
  <rect x="14" y="0" width="1" height="7" fill="rgb(255,255,255)" fill-opacity="0.0078125"/>
  <rect x="14" y="7" width="1" height="1" fill="rgb(0,0,0)" fill-opacity="0.015625"/>
  <rect x="14" y="8" width="1" height="1" fill="rgb(5,5,5)" fill-opacity="0.4453125"/>
  <rect x="14" y="9" width="1" height="1" fill="rgb(15,15,15)" fill-opacity="0.921875"/>
  <rect x="14" y="10" width="1" height="1" fill="rgb(98,98,98)" fill-opacity="0.9921875"/>
  <rect x="14" y="11" width="1" height="1" fill="rgb(141,141,141)"/>
  <rect x="14" y="12" width="1" height="1" fill="rgb(108,108,108)"/>
  <rect x="14" y="13" width="1" height="1" fill="rgb(95,95,95)"/>
  <rect x="14" y="14" width="1" height="1" fill="rgb(103,103,103)"/>
  <rect x="14" y="15" width="1" height="1" fill="rgb(112,112,112)"/>
  <rect x="14" y="16" width="1" height="1" fill="rgb(180,180,180)"/>
  <rect x="14" y="17" width="1" height="1" fill="rgb(105,105,105)" fill-opacity="0.953125"/>
  <rect x="14" y="18" width="1" height="1" fill="rgb(0,0,0)" fill-opacity="0.2890625"/>
  <rect x="14" y="19" width="1" height="2" fill="rgb(255,255,255)" fill-opacity="0.0078125"/>
  <rect x="15" y="0" width="1" height="9" fill="rgb(255,255,255)" fill-opacity="0.0078125"/>
  <rect x="15" y="9" width="1" height="1" fill="rgb(0,0,0)" fill-opacity="0.09375"/>
  <rect x="15" y="10" width="1" height="1" fill="rgb(4,4,4)" fill-opacity="0.7109375"/>
  <rect x="15" y="11" width="1" height="1" fill="rgb(36,36,36)" fill-opacity="0.9375"/>
  <rect x="15" y="12" width="1" height="1" fill="rgb(116,116,116)"/>
  <rect x="15" y="13" width="1" height="1" fill="rgb(125,125,125)"/>
  <rect x="15" y="14" width="1" height="1" fill="rgb(98,98,98)"/>
  <rect x="15" y="15" width="1" height="1" fill="rgb(126,126,126)"/>
  <rect x="15" y="16" width="1" height="1" fill="rgb(173,173,173)"/>
  <rect x="15" y="17" width="1" height="1" fill="rgb(20,20,20)" fill-opacity="0.90625"/>
  <rect x="15" y="18" width="1" height="1" fill="rgb(0,0,0)" fill-opacity="0.015625"/>
  <rect x="15" y="19" width="1" height="2" fill="rgb(255,255,255)" fill-opacity="0.0078125"/>
  <rect x="16" y="0" width="1" height="11" fill="rgb(255,255,255)" fill-opacity="0.0078125"/>
  <rect x="16" y="11" width="1" height="1" fill="rgb(0,0,0)" fill-opacity="0.265625"/>
  <rect x="16" y="12" width="1" height="1" fill="rgb(8,8,8)" fill-opacity="0.8828125"/>
  <rect x="16" y="13" width="1" height="1" fill="rgb(76,76,76)" fill-opacity="0.9765625"/>
  <rect x="16" y="14" width="1" height="1" fill="rgb(142,142,142)"/>
  <rect x="16" y="15" width="1" height="1" fill="rgb(140,140,140)"/>
  <rect x="16" y="16" width="1" height="1" fill="rgb(41,41,41)" fill-opacity="0.9453125"/>
  <rect x="16" y="17" width="1" height="1" fill="rgb(0,0,0)" fill-opacity="0.2578125"/>
  <rect x="16" y="18" width="1" height="3" fill="rgb(255,255,255)" fill-opacity="0.0078125"/>
  <rect x="17" y="0" width="1" height="12" fill="rgb(255,255,255)" fill-opacity="0.0078125"/>
  <rect x="17" y="12" width="1" height="1" fill="rgb(0,0,0)" fill-opacity="0.03125"/>
  <rect x="17" y="13" width="1" height="1" fill="rgb(8,8,8)" fill-opacity="0.515625"/>
  <rect x="17" y="14" width="1" height="1" fill="rgb(11,11,11)" fill-opacity="0.8828125"/>
  <rect x="17" y="15" width="1" height="1" fill="rgb(12,12,12)" fill-opacity="0.75"/>
  <rect x="17" y="16" width="1" height="1" fill="rgb(0,0,0)" fill-opacity="0.2734375"/>
  <rect x="17" y="17" width="1" height="4" fill="rgb(255,255,255)" fill-opacity="0.0078125"/>
  <rect x="18" y="0" width="1" height="21" fill="rgb(255,255,255)" fill-opacity="0.0078125"/>
  <rect x="19" y="0" width="1" height="21" fill="rgb(255,255,255)" fill-opacity="0.0078125"/>
  <rect x="20" y="0" width="1" height="21" fill="rgb(255,255,255)" fill-opacity="0.0078125"/>
</svg>