<svg xmlns="http://www.w3.org/2000/svg" shape-rendering="crispEdges" width="21" height="21" viewBox="0 0 21 21">
  <rect x="0" y="0" width="1" height="21" fill="rgb(255,255,255)" fill-opacity="0.0078125"/>
  <rect x="1" y="0" width="1" height="21" fill="rgb(255,255,255)" fill-opacity="0.0078125"/>
  <rect x="2" y="0" width="1" height="21" fill="rgb(255,255,255)" fill-opacity="0.0078125"/>
  <rect x="3" y="0" width="1" height="21" fill="rgb(255,255,255)" fill-opacity="0.0078125"/>
  <rect x="4" y="0" width="1" height="13" fill="rgb(255,255,255)" fill-opacity="0.0078125"/>
  <rect x="4" y="13" width="1" height="1" fill="rgb(23,23,23)" fill-opacity="0.046875"/>
  <rect x="4" y="14" width="1" height="7" fill="rgb(255,255,255)" fill-opacity="0.0078125"/>
  <rect x="5" y="0" width="1" height="11" fill="rgb(255,255,255)" fill-opacity="0.0078125"/>
  <rect x="5" y="11" width="1" height="1" fill="rgb(24,24,24)" fill-opacity="0.0859375"/>
  <rect x="5" y="12" width="1" height="1" fill="rgb(34,34,34)" fill-opacity="0.734375"/>
  <rect x="5" y="13" width="1" height="1" fill="rgb(97,97,97)"/>
  <rect x="5" y="14" width="1" height="1" fill="rgb(37,37,37)" fill-opacity="0.7890625"/>
  <rect x="5" y="15" width="1" height="1" fill="rgb(26,26,26)" fill-opacity="0.1171875"/>
  <rect x="5" y="16" width="1" height="5" fill="rgb(255,255,255)" fill-opacity="0.0078125"/>
  <rect x="6" y="0" width="1" height="10" fill="rgb(255,255,255)" fill-opacity="0.0078125"/>
  <rect x="6" y="10" width="1" height="1" fill="rgb(25,25,25)" fill-opacity="0.2109375"/>
  <rect x="6" y="11" width="1" height="1" fill="rgb(51,51,51)" fill-opacity="0.8984375"/>
  <rect x="6" y="12" width="1" height="1" fill="rgb(204,204,204)"/>
  <rect x="6" y="13" width="1" height="1" fill="rgb(255,255,255)"/>
  <rect x="6" y="14" width="1" height="1" fill="rgb(213,213,213)"/>
  <rect x="6" y="15" width="1" height="1" fill="rgb(59,59,59)" fill-opacity="0.9296875"/>
  <rect x="6" y="16" width="1" height="1" fill="rgb(27,27,27)" fill-opacity="0.2578125"/>
  <rect x="6" y="17" width="1" height="4" fill="rgb(255,255,255)" fill-opacity="0.0078125"/>
  <rect x="7" y="0" width="1" height="9" fill="rgb(255,255,255)" fill-opacity="0.0078125"/>
  <rect x="7" y="9" width="1" height="1" fill="rgb(26,26,26)" fill-opacity="0.3203125"/>
  <rect x="7" y="10" width="1" height="1" fill="rgb(76,76,76)" fill-opacity="0.9765625"/>
  <rect x="7" y="11" width="1" height="1" fill="rgb(224,224,224)"/>
  <rect x="7" y="12" width="1" height="1" fill="rgb(249,249,249)"/>
  <rect x="7" y="13" width="1" height="2" fill="rgb(254,254,254)"/>
  <rect x="7" y="15" width="1" height="1" fill="rgb(240,240,240)"/>
  <rect x="7" y="16" width="1" height="1" fill="rgb(93,93,93)" fill-opacity="0.9921875"/>
  <rect x="7" y="17" width="1" height="1" fill="rgb(26,26,26)" fill-opacity="0.359375"/>
  <rect x="7" y="18" width="1" height="3" fill="rgb(255,255,255)" fill-opacity="0.0078125"/>
  <rect x="8" y="0" width="1" height="9" fill="rgb(255,255,255)" fill-opacity="0.0078125"/>
  <rect x="8" y="9" width="1" height="1" fill="rgb(41,41,41)" fill-opacity="0.78125"/>
  <rect x="8" y="10" width="1" height="1" fill="rgb(230,230,230)"/>
  <rect x="8" y="11" width="1" height="1" fill="rgb(210,210,210)"/>
  <rect x="8" y="12" width="1" height="1" fill="rgb(110,110,110)"/>
  <rect x="8" y="13" width="1" height="1" fill="rgb(249,249,249)"/>
  <rect x="8" y="14" width="1" height="1" fill="rgb(122,122,122)"/>
  <rect x="8" y="15" width="1" height="1" fill="rgb(212,212,212)"/>
  <rect x="8" y="16" width="1" height="1" fill="rgb(253,253,253)"/>
  <rect x="8" y="17" width="1" height="1" fill="rgb(56,56,56)" fill-opacity="0.890625"/>
  <rect x="8" y="18" width="1" height="3" fill="rgb(255,255,255)" fill-opacity="0.0078125"/>
  <rect x="9" y="0" width="1" height="9" fill="rgb(255,255,255)" fill-opacity="0.0078125"/>
  <rect x="9" y="9" width="1" height="1" fill="rgb(27,27,27)" fill-opacity="0.4921875"/>
  <rect x="9" y="10" width="1" height="1" fill="rgb(88,88,88)"/>
  <rect x="9" y="11" width="1" height="1" fill="rgb(43,43,43)" fill-opacity="0.8125"/>
  <rect x="9" y="12" width="1" height="1" fill="rgb(69,69,69)" fill-opacity="0.9765625"/>
  <rect x="9" y="13" width="1" height="1" fill="rgb(243,243,243)"/>
  <rect x="9" y="14" width="1" height="1" fill="rgb(92,92,92)"/>
  <rect x="9" y="15" width="1" height="1" fill="rgb(35,35,35)" fill-opacity="0.8046875"/>
  <rect x="9" y="16" width="1" height="1" fill="rgb(100,100,100)"/>
  <rect x="9" y="17" width="1" height="1" fill="rgb(29,29,29)" fill-opacity="0.5625"/>
  <rect x="9" y="18" width="1" height="3" fill="rgb(255,255,255)" fill-opacity="0.0078125"/>
  <rect x="10" y="0" width="1" height="5" fill="rgb(255,255,255)" fill-opacity="0.0078125"/>
  <rect x="10" y="5" width="1" height="1" fill="rgb(28,28,28)" fill-opacity="0.109375"/>
  <rect x="10" y="6" width="1" height="1" fill="rgb(27,27,27)" fill-opacity="0.3359375"/>
  <rect x="10" y="7" width="1" height="1" fill="rgb(25,25,25)" fill-opacity="0.203125"/>
  <rect x="10" y="8" width="1" height="2" fill="rgb(255,255,255)" fill-opacity="0.0078125"/>
  <rect x="10" y="10" width="1" height="1" fill="rgb(32,32,32)" fill-opacity="0.0703125"/>
  <rect x="10" y="11" width="1" height="1" fill="rgb(255,255,255)" fill-opacity="0.0078125"/>
  <rect x="10" y="12" width="1" height="1" fill="rgb(68,68,68)" fill-opacity="0.9609375"/>
  <rect x="10" y="13" width="1" height="1" fill="rgb(238,238,238)"/>
  <rect x="10" y="14" width="1" height="1" fill="rgb(91,91,91)"/>
  <rect x="10" y="15" width="1" height="1" fill="rgb(18,18,18)" fill-opacity="0.0625"/>
  <rect x="10" y="16" width="1" height="1" fill="rgb(21,21,21)" fill-opacity="0.0546875"/>
  <rect x="10" y="17" width="1" height="4" fill="rgb(255,255,255)" fill-opacity="0.0078125"/>
  <rect x="11" y="0" width="1" height="4" fill="rgb(255,255,255)" fill-opacity="0.0078125"/>
  <rect x="11" y="4" width="1" height="1" fill="rgb(27,27,27)" fill-opacity="0.34375"/>
  <rect x="11" y="5" width="1" height="1" fill="rgb(67,67,67)" fill-opacity="0.9765625"/>
  <rect x="11" y="6" width="1" height="1" fill="rgb(127,127,127)"/>
  <rect x="11" y="7" width="1" height="1" fill="rgb(100,100,100)"/>
  <rect x="11" y="8" width="1" height="1" fill="rgb(31,31,31)" fill-opacity="0.7109375"/>
  <rect x="11" y="9" width="1" height="1" fill="rgb(24,24,24)" fill-opacity="0.1328125"/>
  <rect x="11" y="10" width="1" height="1" fill="rgb(255,255,255)" fill-opacity="0.0078125"/>
  <rect x="11" y="11" width="1" height="1" fill="rgb(18,18,18)" fill-opacity="0.0625"/>
  <rect x="11" y="12" width="1" height="1" fill="rgb(82,82,82)"/>
  <rect x="11" y="13" width="1" height="1" fill="rgb(232,232,232)"/>
  <rect x="11" y="14" width="1" height="1" fill="rgb(68,68,68)" fill-opacity="0.96875"/>
  <rect x="11" y="15" width="1" height="6" fill="rgb(255,255,255)" fill-opacity="0.0078125"/>
  <rect x="12" y="0" width="1" height="3" fill="rgb(255,255,255)" fill-opacity="0.0078125"/>
  <rect x="12" y="3" width="1" height="1" fill="rgb(26,26,26)" fill-opacity="0.046875"/>
  <rect x="12" y="4" width="1" height="1" fill="rgb(54,54,54)" fill-opacity="0.9609375"/>
  <rect x="12" y="5" width="1" height="2" fill="rgb(187,187,187)"/>
  <rect x="12" y="7" width="1" height="1" fill="rgb(198,198,198)"/>
  <rect x="12" y="8" width="1" height="1" fill="rgb(174,174,174)"/>
  <rect x="12" y="9" width="1" height="1" fill="rgb(52,52,52)" fill-opacity="0.921875"/>
  <rect x="12" y="10" width="1" height="1" fill="rgb(28,28,28)" fill-opacity="0.1875"/>
  <rect x="12" y="11" width="1" height="1" fill="rgb(23,23,23)" fill-opacity="0.1796875"/>
  <rect x="12" y="12" width="1" height="1" fill="rgb(103,103,103)"/>
  <rect x="12" y="13" width="1" height="1" fill="rgb(226,226,226)"/>
  <rect x="12" y="14" width="1" height="1" fill="rgb(46,46,46)" fill-opacity="0.859375"/>
  <rect x="12" y="15" width="1" height="6" fill="rgb(255,255,255)" fill-opacity="0.0078125"/>
  <rect x="13" y="0" width="1" height="3" fill="rgb(255,255,255)" fill-opacity="0.0078125"/>
  <rect x="13" y="3" width="1" height="1" fill="rgb(25,25,25)" fill-opacity="0.359375"/>
  <rect x="13" y="4" width="1" height="1" fill="rgb(111,111,111)"/>
  <rect x="13" y="5" width="1" height="1" fill="rgb(180,180,180)"/>
  <rect x="13" y="6" width="1" height="1" fill="rgb(38,38,38)" fill-opacity="0.9453125"/>
  <rect x="13" y="7" width="1" height="1" fill="rgb(81,81,81)" fill-opacity="0.9921875"/>
  <rect x="13" y="8" width="1" height="1" fill="rgb(184,184,184)"/>
  <rect x="13" y="9" width="1" height="1" fill="rgb(182,182,182)"/>
  <rect x="13" y="10" width="1" height="1" fill="rgb(65,65,65)" fill-opacity="0.96875"/>
  <rect x="13" y="11" width="1" height="1" fill="rgb(26,26,26)" fill-opacity="0.703125"/>
  <rect x="13" y="12" width="1" height="1" fill="rgb(143,143,143)"/>
  <rect x="13" y="13" width="1" height="1" fill="rgb(213,213,213)"/>
  <rect x="13" y="14" width="1" height="1" fill="rgb(26,26,26)" fill-opacity="0.7265625"/>
  <rect x="13" y="15" width="1" height="6" fill="rgb(255,255,255)" fill-opacity="0.0078125"/>
  <rect x="14" y="0" width="1" height="3" fill="rgb(255,255,255)" fill-opacity="0.0078125"/>
  <rect x="14" y="3" width="1" height="1" fill="rgb(30,30,30)" fill-opacity="0.734375"/>
  <rect x="14" y="4" width="1" height="1" fill="rgb(161,161,161)"/>
  <rect x="14" y="5" width="1" height="1" fill="rgb(129,129,129)"/>
  <rect x="14" y="6" width="1" height="1" fill="rgb(26,26,26)" fill-opacity="0.46875"/>
  <rect x="14" y="7" width="1" height="1" fill="rgb(27,27,27)" fill-opacity="0.2265625"/>
  <rect x="14" y="8" width="1" height="1" fill="rgb(56,56,56)" fill-opacity="0.9453125"/>
  <rect x="14" y="9" width="1" height="1" fill="rgb(176,176,176)"/>
  <rect x="14" y="10" width="1" height="1" fill="rgb(198,198,198)"/>
  <rect x="14" y="11" width="1" height="1" fill="rgb(156,156,156)"/>
  <rect x="14" y="12" width="1" height="1" fill="rgb(209,209,209)"/>
  <rect x="14" y="13" width="1" height="1" fill="rgb(128,128,128)"/>
  <rect x="14" y="14" width="1" height="1" fill="rgb(27,27,27)" fill-opacity="0.40625"/>
  <rect x="14" y="15" width="1" height="6" fill="rgb(255,255,255)" fill-opacity="0.0078125"/>
  <rect x="15" y="0" width="1" height="3" fill="rgb(255,255,255)" fill-opacity="0.0078125"/>
  <rect x="15" y="3" width="1" height="1" fill="rgb(49,49,49)" fill-opacity="0.9453125"/>
  <rect x="15" y="4" width="1" height="1" fill="rgb(167,167,167)"/>
  <rect x="15" y="5" width="1" height="1" fill="rgb(71,71,71)" fill-opacity="0.9921875"/>
  <rect x="15" y="6" width="1" height="1" fill="rgb(27,27,27)" fill-opacity="0.1171875"/>
  <rect x="15" y="7" width="1" height="1" fill="rgb(255,255,255)" fill-opacity="0.0078125"/>
  <rect x="15" y="8" width="1" height="1" fill="rgb(23,23,23)" fill-opacity="0.1796875"/>
  <rect x="15" y="9" width="1" height="1" fill="rgb(38,38,38)" fill-opacity="0.84375"/>
  <rect x="15" y="10" width="1" height="1" fill="rgb(130,130,130)"/>
  <rect x="15" y="11" width="1" height="1" fill="rgb(165,165,165)"/>
  <rect x="15" y="12" width="1" height="1" fill="rgb(143,143,143)"/>
  <rect x="15" y="13" width="1" height="1" fill="rgb(34,34,34)" fill-opacity="0.765625"/>
  <rect x="15" y="14" width="1" height="1" fill="rgb(0,0,0)" fill-opacity="0.015625"/>
  <rect x="15" y="15" width="1" height="6" fill="rgb(255,255,255)" fill-opacity="0.0078125"/>
  <rect x="16" y="0" width="1" height="3" fill="rgb(255,255,255)" fill-opacity="0.0078125"/>
  <rect x="16" y="3" width="1" height="1" fill="rgb(27,27,27)" fill-opacity="0.4453125"/>
  <rect x="16" y="4" width="1" height="1" fill="rgb(49,49,49)" fill-opacity="0.8984375"/>
  <rect x="16" y="5" width="1" height="1" fill="rgb(26,26,26)" fill-opacity="0.4296875"/>
  <rect x="16" y="6" width="1" height="3" fill="rgb(255,255,255)" fill-opacity="0.0078125"/>
  <rect x="16" y="9" width="1" height="1" fill="rgb(32,32,32)" fill-opacity="0.0390625"/>
  <rect x="16" y="10" width="1" height="1" fill="rgb(27,27,27)" fill-opacity="0.40625"/>
  <rect x="16" y="11" width="1" height="1" fill="rgb(26,26,26)" fill-opacity="0.5546875"/>
  <rect x="16" y="12" width="1" height="1" fill="rgb(27,27,27)" fill-opacity="0.40625"/>
  <rect x="16" y="13" width="1" height="1" fill="rgb(43,43,43)" fill-opacity="0.03125"/>
  <rect x="16" y="14" width="1" height="7" fill="rgb(255,255,255)" fill-opacity="0.0078125"/>
  <rect x="17" y="0" width="1" height="21" fill="rgb(255,255,255)" fill-opacity="0.0078125"/>
  <rect x="18" y="0" width="1" height="21" fill="rgb(255,255,255)" fill-opacity="0.0078125"/>
  <rect x="19" y="0" width="1" height="21" fill="rgb(255,255,255)" fill-opacity="0.0078125"/>
  <rect x="20" y="0" width="1" height="21" fill="rgb(255,255,255)" fill-opacity="0.0078125"/>
</svg>