<svg xmlns="http://www.w3.org/2000/svg" shape-rendering="crispEdges" width="21" height="21" viewBox="0 0 21 21">
  <rect x="0" y="0" width="1" height="21" fill="rgb(255,255,255)" fill-opacity="0.0078125"/>
  <rect x="1" y="0" width="1" height="21" fill="rgb(255,255,255)" fill-opacity="0.0078125"/>
  <rect x="2" y="0" width="1" height="21" fill="rgb(255,255,255)" fill-opacity="0.0078125"/>
  <rect x="3" y="0" width="1" height="21" fill="rgb(255,255,255)" fill-opacity="0.0078125"/>
  <rect x="4" y="0" width="1" height="7" fill="rgb(255,255,255)" fill-opacity="0.0078125"/>
  <rect x="4" y="7" width="1" height="1" fill="rgb(0,0,0)" fill-opacity="0.0078125"/>
  <rect x="4" y="8" width="1" height="1" fill="rgb(29,29,29)" fill-opacity="0.3515625"/>
  <rect x="4" y="9" width="1" height="1" fill="rgb(34,34,34)" fill-opacity="0.65625"/>
  <rect x="4" y="10" width="1" height="2" fill="rgb(34,34,34)" fill-opacity="0.8203125"/>
  <rect x="4" y="12" width="1" height="1" fill="rgb(34,34,34)" fill-opacity="0.65625"/>
  <rect x="4" y="13" width="1" height="1" fill="rgb(29,29,29)" fill-opacity="0.3515625"/>
  <rect x="4" y="14" width="1" height="1" fill="rgb(0,0,0)" fill-opacity="0.0078125"/>
  <rect x="4" y="15" width="1" height="6" fill="rgb(255,255,255)" fill-opacity="0.0078125"/>
  <rect x="5" y="0" width="1" height="6" fill="rgb(255,255,255)" fill-opacity="0.0078125"/>
  <rect x="5" y="6" width="1" height="1" fill="rgb(25,25,25)" fill-opacity="0.125"/>
  <rect x="5" y="7" width="1" height="1" fill="rgb(33,33,33)" fill-opacity="0.8046875"/>
  <rect x="5" y="8" width="1" height="1" fill="rgb(160,160,160)" fill-opacity="0.984375"/>
  <rect x="5" y="9" width="1" height="1" fill="rgb(221,221,221)"/>
  <rect x="5" y="10" width="1" height="1" fill="rgb(242,242,242)"/>
  <rect x="5" y="11" width="1" height="1" fill="rgb(224,224,224)"/>
  <rect x="5" y="12" width="1" height="1" fill="rgb(180,180,180)"/>
  <rect x="5" y="13" width="1" height="1" fill="rgb(118,118,118)" fill-opacity="0.96875"/>
  <rect x="5" y="14" width="1" height="1" fill="rgb(34,34,34)" fill-opacity="0.8046875"/>
  <rect x="5" y="15" width="1" height="1" fill="rgb(25,25,25)" fill-opacity="0.125"/>
  <rect x="5" y="16" width="1" height="5" fill="rgb(255,255,255)" fill-opacity="0.0078125"/>
  <rect x="6" y="0" width="1" height="5" fill="rgb(255,255,255)" fill-opacity="0.0078125"/>
  <rect x="6" y="5" width="1" height="1" fill="rgb(25,25,25)" fill-opacity="0.125"/>
  <rect x="6" y="6" width="1" height="1" fill="rgb(67,67,67)" fill-opacity="0.9140625"/>
  <rect x="6" y="7" width="1" height="1" fill="rgb(226,226,226)"/>
  <rect x="6" y="8" width="1" height="1" fill="rgb(241,241,241)"/>
  <rect x="6" y="9" width="1" height="1" fill="rgb(223,223,223)"/>
  <rect x="6" y="10" width="1" height="1" fill="rgb(217,217,217)"/>
  <rect x="6" y="11" width="1" height="1" fill="rgb(182,182,182)"/>
  <rect x="6" y="12" width="1" height="1" fill="rgb(151,151,151)"/>
  <rect x="6" y="13" width="1" height="1" fill="rgb(179,179,179)"/>
  <rect x="6" y="14" width="1" height="1" fill="rgb(166,162,162)"/>
  <rect x="6" y="15" width="1" height="1" fill="rgb(53,50,50)" fill-opacity="0.90625"/>
  <rect x="6" y="16" width="1" height="1" fill="rgb(25,25,25)" fill-opacity="0.125"/>
  <rect x="6" y="17" width="1" height="4" fill="rgb(255,255,255)" fill-opacity="0.0078125"/>
  <rect x="7" y="0" width="1" height="4" fill="rgb(255,255,255)" fill-opacity="0.0078125"/>
  <rect x="7" y="4" width="1" height="1" fill="rgb(0,0,0)" fill-opacity="0.0078125"/>
  <rect x="7" y="5" width="1" height="1" fill="rgb(33,33,33)" fill-opacity="0.8046875"/>
  <rect x="7" y="6" width="1" height="1" fill="rgb(222,222,222)"/>
  <rect x="7" y="7" width="1" height="1" fill="rgb(231,231,231)"/>
  <rect x="7" y="8" width="1" height="1" fill="rgb(239,239,239)"/>
  <rect x="7" y="9" width="1" height="1" fill="rgb(250,250,250)"/>
  <rect x="7" y="10" width="1" height="1" fill="rgb(212,212,212)"/>
  <rect x="7" y="11" width="1" height="1" fill="rgb(192,192,192)"/>
  <rect x="7" y="12" width="1" height="1" fill="rgb(120,119,119)"/>
  <rect x="7" y="13" width="1" height="1" fill="rgb(112,104,102)"/>
  <rect x="7" y="14" width="1" height="1" fill="rgb(146,133,131)"/>
  <rect x="7" y="15" width="1" height="1" fill="rgb(157,145,143)"/>
  <rect x="7" y="16" width="1" height="1" fill="rgb(33,33,33)" fill-opacity="0.8046875"/>
  <rect x="7" y="17" width="1" height="1" fill="rgb(0,0,0)" fill-opacity="0.0078125"/>
  <rect x="7" y="18" width="1" height="3" fill="rgb(255,255,255)" fill-opacity="0.0078125"/>
  <rect x="8" y="0" width="1" height="4" fill="rgb(255,255,255)" fill-opacity="0.0078125"/>
  <rect x="8" y="4" width="1" height="1" fill="rgb(29,29,29)" fill-opacity="0.3515625"/>
  <rect x="8" y="5" width="1" height="1" fill="rgb(155,155,155)" fill-opacity="0.984375"/>
  <rect x="8" y="6" width="1" height="1" fill="rgb(241,241,241)"/>
  <rect x="8" y="7" width="1" height="1" fill="rgb(239,239,239)"/>
  <rect x="8" y="8" width="1" height="1" fill="rgb(255,255,255)"/>
  <rect x="8" y="9" width="1" height="1" fill="rgb(233,233,233)"/>
  <rect x="8" y="10" width="1" height="1" fill="rgb(204,204,204)"/>
  <rect x="8" y="11" width="1" height="1" fill="rgb(198,197,197)"/>
  <rect x="8" y="12" width="1" height="1" fill="rgb(116,109,107)"/>
  <rect x="8" y="13" width="1" height="1" fill="rgb(105,88,86)"/>
  <rect x="8" y="14" width="1" height="1" fill="rgb(97,71,68)"/>
  <rect x="8" y="15" width="1" height="1" fill="rgb(160,139,136)"/>
  <rect x="8" y="16" width="1" height="1" fill="rgb(105,89,88)" fill-opacity="0.96875"/>
  <rect x="8" y="17" width="1" height="1" fill="rgb(29,29,29)" fill-opacity="0.3515625"/>
  <rect x="8" y="18" width="1" height="3" fill="rgb(255,255,255)" fill-opacity="0.0078125"/>
  <rect x="9" y="0" width="1" height="4" fill="rgb(255,255,255)" fill-opacity="0.0078125"/>
  <rect x="9" y="4" width="1" height="1" fill="rgb(34,34,34)" fill-opacity="0.65625"/>
  <rect x="9" y="5" width="1" height="1" fill="rgb(216,216,216)"/>
  <rect x="9" y="6" width="1" height="1" fill="rgb(225,225,225)"/>
  <rect x="9" y="7" width="1" height="1" fill="rgb(247,247,247)"/>
  <rect x="9" y="8" width="1" height="1" fill="rgb(233,233,233)"/>
  <rect x="9" y="9" width="1" height="1" fill="rgb(205,205,205)"/>
  <rect x="9" y="10" width="1" height="1" fill="rgb(199,199,199)"/>
  <rect x="9" y="11" width="1" height="1" fill="rgb(195,187,187)"/>
  <rect x="9" y="12" width="1" height="1" fill="rgb(118,101,100)"/>
  <rect x="9" y="13" width="1" height="1" fill="rgb(98,72,69)"/>
  <rect x="9" y="14" width="1" height="1" fill="rgb(103,70,65)"/>
  <rect x="9" y="15" width="1" height="1" fill="rgb(128,92,88)"/>
  <rect x="9" y="16" width="1" height="1" fill="rgb(144,117,114)"/>
  <rect x="9" y="17" width="1" height="1" fill="rgb(34,34,34)" fill-opacity="0.65625"/>
  <rect x="9" y="18" width="1" height="3" fill="rgb(255,255,255)" fill-opacity="0.0078125"/>
  <rect x="10" y="0" width="1" height="4" fill="rgb(255,255,255)" fill-opacity="0.0078125"/>
  <rect x="10" y="4" width="1" height="1" fill="rgb(34,34,34)" fill-opacity="0.8203125"/>
  <rect x="10" y="5" width="1" height="1" fill="rgb(239,239,239)"/>
  <rect x="10" y="6" width="1" height="1" fill="rgb(219,219,219)"/>
  <rect x="10" y="7" width="1" height="1" fill="rgb(213,213,213)"/>
  <rect x="10" y="8" width="1" height="1" fill="rgb(206,206,206)"/>
  <rect x="10" y="9" width="1" height="1" fill="rgb(200,200,200)"/>
  <rect x="10" y="10" width="1" height="1" fill="rgb(196,188,188)"/>
  <rect x="10" y="11" width="1" height="1" fill="rgb(192,177,175)"/>
  <rect x="10" y="12" width="1" height="1" fill="rgb(117,92,89)"/>
  <rect x="10" y="13" width="1" height="1" fill="rgb(103,70,65)"/>
  <rect x="10" y="14" width="1" height="1" fill="rgb(109,67,62)"/>
  <rect x="10" y="15" width="1" height="1" fill="rgb(120,73,67)"/>
  <rect x="10" y="16" width="1" height="1" fill="rgb(161,125,120)"/>
  <rect x="10" y="17" width="1" height="1" fill="rgb(35,34,34)" fill-opacity="0.8203125"/>
  <rect x="10" y="18" width="1" height="3" fill="rgb(255,255,255)" fill-opacity="0.0078125"/>
  <rect x="11" y="0" width="1" height="4" fill="rgb(255,255,255)" fill-opacity="0.0078125"/>
  <rect x="11" y="4" width="1" height="1" fill="rgb(34,34,34)" fill-opacity="0.8203125"/>
  <rect x="11" y="5" width="1" height="1" fill="rgb(215,215,215)"/>
  <rect x="11" y="6" width="1" height="1" fill="rgb(160,160,160)"/>
  <rect x="11" y="7" width="1" height="1" fill="rgb(143,143,143)"/>
  <rect x="11" y="8" width="1" height="1" fill="rgb(127,127,127)"/>
  <rect x="11" y="9" width="1" height="1" fill="rgb(118,111,110)"/>
  <rect x="11" y="10" width="1" height="1" fill="rgb(110,94,93)"/>
  <rect x="11" y="11" width="1" height="1" fill="rgb(100,76,73)"/>
  <rect x="11" y="12" width="1" height="1" fill="rgb(169,137,132)"/>
  <rect x="11" y="13" width="1" height="1" fill="rgb(188,147,142)"/>
  <rect x="11" y="14" width="1" height="1" fill="rgb(190,141,134)"/>
  <rect x="11" y="15" width="1" height="1" fill="rgb(193,137,132)"/>
  <rect x="11" y="16" width="1" height="1" fill="rgb(205,160,155)"/>
  <rect x="11" y="17" width="1" height="1" fill="rgb(35,34,34)" fill-opacity="0.8203125"/>
  <rect x="11" y="18" width="1" height="3" fill="rgb(255,255,255)" fill-opacity="0.0078125"/>
  <rect x="12" y="0" width="1" height="4" fill="rgb(255,255,255)" fill-opacity="0.0078125"/>
  <rect x="12" y="4" width="1" height="1" fill="rgb(34,34,34)" fill-opacity="0.65625"/>
  <rect x="12" y="5" width="1" height="1" fill="rgb(174,174,174)"/>
  <rect x="12" y="6" width="1" height="1" fill="rgb(159,159,159)"/>
  <rect x="12" y="7" width="1" height="1" fill="rgb(129,129,129)"/>
  <rect x="12" y="8" width="1" height="1" fill="rgb(119,113,112)"/>
  <rect x="12" y="9" width="1" height="1" fill="rgb(111,97,95)"/>
  <rect x="12" y="10" width="1" height="1" fill="rgb(102,79,77)"/>
  <rect x="12" y="11" width="1" height="1" fill="rgb(102,70,65)"/>
  <rect x="12" y="12" width="1" height="1" fill="rgb(178,137,132)"/>
  <rect x="12" y="13" width="1" height="1" fill="rgb(190,141,134)"/>
  <rect x="12" y="14" width="1" height="1" fill="rgb(194,138,127)"/>
  <rect x="12" y="15" width="1" height="1" fill="rgb(197,139,132)"/>
  <rect x="12" y="16" width="1" height="1" fill="rgb(184,139,133)"/>
  <rect x="12" y="17" width="1" height="1" fill="rgb(34,34,34)" fill-opacity="0.65625"/>
  <rect x="12" y="18" width="1" height="3" fill="rgb(255,255,255)" fill-opacity="0.0078125"/>
  <rect x="13" y="0" width="1" height="4" fill="rgb(255,255,255)" fill-opacity="0.0078125"/>
  <rect x="13" y="4" width="1" height="1" fill="rgb(29,29,29)" fill-opacity="0.3515625"/>
  <rect x="13" y="5" width="1" height="1" fill="rgb(114,114,114)" fill-opacity="0.96875"/>
  <rect x="13" y="6" width="1" height="1" fill="rgb(188,188,188)"/>
  <rect x="13" y="7" width="1" height="1" fill="rgb(122,116,116)"/>
  <rect x="13" y="8" width="1" height="1" fill="rgb(113,99,97)"/>
  <rect x="13" y="9" width="1" height="1" fill="rgb(104,82,79)"/>
  <rect x="13" y="10" width="1" height="1" fill="rgb(101,70,65)"/>
  <rect x="13" y="11" width="1" height="1" fill="rgb(107,67,62)"/>
  <rect x="13" y="12" width="1" height="1" fill="rgb(187,139,133)"/>
  <rect x="13" y="13" width="1" height="1" fill="rgb(191,134,127)"/>
  <rect x="13" y="14" width="1" height="1" fill="rgb(223,180,124)"/>
  <rect x="13" y="15" width="1" height="1" fill="rgb(210,158,141)"/>
  <rect x="13" y="16" width="1" height="1" fill="rgb(140,105,101)" fill-opacity="0.984375"/>
  <rect x="13" y="17" width="1" height="1" fill="rgb(29,29,29)" fill-opacity="0.3515625"/>
  <rect x="13" y="18" width="1" height="3" fill="rgb(255,255,255)" fill-opacity="0.0078125"/>
  <rect x="14" y="0" width="1" height="4" fill="rgb(255,255,255)" fill-opacity="0.0078125"/>
  <rect x="14" y="4" width="1" height="1" fill="rgb(0,0,0)" fill-opacity="0.0078125"/>
  <rect x="14" y="5" width="1" height="1" fill="rgb(33,33,33)" fill-opacity="0.8046875"/>
  <rect x="14" y="6" width="1" height="1" fill="rgb(163,161,160)"/>
  <rect x="14" y="7" width="1" height="1" fill="rgb(156,147,146)"/>
  <rect x="14" y="8" width="1" height="1" fill="rgb(107,86,83)"/>
  <rect x="14" y="9" width="1" height="1" fill="rgb(101,70,65)"/>
  <rect x="14" y="10" width="1" height="1" fill="rgb(107,67,62)"/>
  <rect x="14" y="11" width="1" height="1" fill="rgb(126,78,72)"/>
  <rect x="14" y="12" width="1" height="1" fill="rgb(193,137,127)"/>
  <rect x="14" y="13" width="1" height="1" fill="rgb(221,176,125)"/>
  <rect x="14" y="14" width="1" height="1" fill="rgb(225,181,137)"/>
  <rect x="14" y="15" width="1" height="1" fill="rgb(186,134,127)"/>
  <rect x="14" y="16" width="1" height="1" fill="rgb(35,34,34)" fill-opacity="0.8046875"/>
  <rect x="14" y="17" width="1" height="1" fill="rgb(0,0,0)" fill-opacity="0.0078125"/>
  <rect x="14" y="18" width="1" height="3" fill="rgb(255,255,255)" fill-opacity="0.0078125"/>
  <rect x="15" y="0" width="1" height="5" fill="rgb(255,255,255)" fill-opacity="0.0078125"/>
  <rect x="15" y="5" width="1" height="1" fill="rgb(25,25,25)" fill-opacity="0.125"/>
  <rect x="15" y="6" width="1" height="1" fill="rgb(49,48,48)" fill-opacity="0.8984375"/>
  <rect x="15" y="7" width="1" height="1" fill="rgb(159,150,149)"/>
  <rect x="15" y="8" width="1" height="1" fill="rgb(167,150,148)"/>
  <rect x="15" y="9" width="1" height="1" fill="rgb(130,97,93)"/>
  <rect x="15" y="10" width="1" height="1" fill="rgb(120,75,70)"/>
  <rect x="15" y="11" width="1" height="1" fill="rgb(158,105,97)"/>
  <rect x="15" y="12" width="1" height="1" fill="rgb(197,140,134)"/>
  <rect x="15" y="13" width="1" height="1" fill="rgb(212,162,144)"/>
  <rect x="15" y="14" width="1" height="1" fill="rgb(186,136,129)"/>
  <rect x="15" y="15" width="1" height="1" fill="rgb(65,54,52)" fill-opacity="0.9140625"/>
  <rect x="15" y="16" width="1" height="1" fill="rgb(25,25,25)" fill-opacity="0.125"/>
  <rect x="15" y="17" width="1" height="4" fill="rgb(255,255,255)" fill-opacity="0.0078125"/>
  <rect x="16" y="0" width="1" height="6" fill="rgb(255,255,255)" fill-opacity="0.0078125"/>
  <rect x="16" y="6" width="1" height="1" fill="rgb(25,25,25)" fill-opacity="0.125"/>
  <rect x="16" y="7" width="1" height="1" fill="rgb(34,34,34)" fill-opacity="0.8046875"/>
  <rect x="16" y="8" width="1" height="1" fill="rgb(103,92,91)" fill-opacity="0.96875"/>
  <rect x="16" y="9" width="1" height="1" fill="rgb(145,123,120)"/>
  <rect x="16" y="10" width="1" height="1" fill="rgb(163,132,127)"/>
  <rect x="16" y="11" width="1" height="1" fill="rgb(196,156,152)"/>
  <rect x="16" y="12" width="1" height="1" fill="rgb(183,143,137)"/>
  <rect x="16" y="13" width="1" height="1" fill="rgb(138,107,103)" fill-opacity="0.984375"/>
  <rect x="16" y="14" width="1" height="1" fill="rgb(35,34,34)" fill-opacity="0.8046875"/>
  <rect x="16" y="15" width="1" height="1" fill="rgb(25,25,25)" fill-opacity="0.125"/>
  <rect x="16" y="16" width="1" height="5" fill="rgb(255,255,255)" fill-opacity="0.0078125"/>
  <rect x="17" y="0" width="1" height="7" fill="rgb(255,255,255)" fill-opacity="0.0078125"/>
  <rect x="17" y="7" width="1" height="1" fill="rgb(0,0,0)" fill-opacity="0.0078125"/>
  <rect x="17" y="8" width="1" height="1" fill="rgb(29,29,29)" fill-opacity="0.3515625"/>
  <rect x="17" y="9" width="1" height="1" fill="rgb(34,34,34)" fill-opacity="0.65625"/>
  <rect x="17" y="10" width="1" height="2" fill="rgb(34,34,34)" fill-opacity="0.8203125"/>
  <rect x="17" y="12" width="1" height="1" fill="rgb(34,34,34)" fill-opacity="0.65625"/>
  <rect x="17" y="13" width="1" height="1" fill="rgb(29,29,29)" fill-opacity="0.3515625"/>
  <rect x="17" y="14" width="1" height="1" fill="rgb(0,0,0)" fill-opacity="0.0078125"/>
  <rect x="17" y="15" width="1" height="6" fill="rgb(255,255,255)" fill-opacity="0.0078125"/>
  <rect x="18" y="0" width="1" height="21" fill="rgb(255,255,255)" fill-opacity="0.0078125"/>
  <rect x="19" y="0" width="1" height="21" fill="rgb(255,255,255)" fill-opacity="0.0078125"/>
  <rect x="20" y="0" width="1" height="21" fill="rgb(255,255,255)" fill-opacity="0.0078125"/>
</svg>