<svg xmlns="http://www.w3.org/2000/svg" shape-rendering="crispEdges" width="21" height="21" viewBox="0 0 21 21">
  <rect x="0" y="0" width="21" height="1" fill="rgb(255,255,255)" fill-opacity="0.0078125"/>
  <rect x="0" y="1" width="21" height="1" fill="rgb(255,255,255)" fill-opacity="0.0078125"/>
  <rect x="0" y="2" width="21" height="1" fill="rgb(255,255,255)" fill-opacity="0.0078125"/>
  <rect x="0" y="3" width="21" height="1" fill="rgb(255,255,255)" fill-opacity="0.0078125"/>
  <rect x="0" y="4" width="21" height="1" fill="rgb(255,255,255)" fill-opacity="0.0078125"/>
  <rect x="0" y="5" width="21" height="1" fill="rgb(255,255,255)" fill-opacity="0.0078125"/>
  <rect x="0" y="6" width="5" height="1" fill="rgb(255,255,255)" fill-opacity="0.0078125"/>
  <rect x="5" y="6" width="1" height="1" fill="rgb(0,0,0)" fill-opacity="0.109375"/>
  <rect x="6" y="6" width="1" height="1" fill="rgb(0,0,0)" fill-opacity="0.65625"/>
  <rect x="7" y="6" width="1" height="1" fill="rgb(0,0,0)" fill-opacity="0.6328125"/>
  <rect x="8" y="6" width="1" height="1" fill="rgb(0,0,0)" fill-opacity="0.171875"/>
  <rect x="9" y="6" width="3" height="1" fill="rgb(255,255,255)" fill-opacity="0.0078125"/>
  <rect x="12" y="6" width="1" height="1" fill="rgb(0,0,0)" fill-opacity="0.1640625"/>
  <rect x="13" y="6" width="1" height="1" fill="rgb(6,6,6)" fill-opacity="0.703125"/>
  <rect x="14" y="6" width="1" height="1" fill="rgb(0,0,0)" fill-opacity="0.625"/>
  <rect x="15" y="6" width="1" height="1" fill="rgb(0,0,0)" fill-opacity="0.125"/>
  <rect x="16" y="6" width="5" height="1" fill="rgb(255,255,255)" fill-opacity="0.0078125"/>
  <rect x="0" y="7" width="5" height="1" fill="rgb(255,255,255)" fill-opacity="0.0078125"/>
  <rect x="5" y="7" width="1" height="1" fill="rgb(0,0,0)" fill-opacity="0.59375"/>
  <rect x="6" y="7" width="1" height="1" fill="rgb(232,232,232)"/>
  <rect x="7" y="7" width="1" height="1" fill="rgb(223,223,223)"/>
  <rect x="8" y="7" width="1" height="1" fill="rgb(20,20,20)" fill-opacity="0.9453125"/>
  <rect x="9" y="7" width="1" height="1" fill="rgb(0,0,0)" fill-opacity="0.203125"/>
  <rect x="10" y="7" width="1" height="1" fill="rgb(255,255,255)" fill-opacity="0.0078125"/>
  <rect x="11" y="7" width="1" height="1" fill="rgb(0,0,0)" fill-opacity="0.1875"/>
  <rect x="12" y="7" width="1" height="1" fill="rgb(80,80,80)" fill-opacity="0.9453125"/>
  <rect x="13" y="7" width="1" height="1" fill="rgb(250,250,250)"/>
  <rect x="14" y="7" width="1" height="1" fill="rgb(199,199,199)"/>
  <rect x="15" y="7" width="1" height="1" fill="rgb(0,0,0)" fill-opacity="0.6640625"/>
  <rect x="16" y="7" width="5" height="1" fill="rgb(255,255,255)" fill-opacity="0.0078125"/>
  <rect x="0" y="8" width="5" height="1" fill="rgb(255,255,255)" fill-opacity="0.0078125"/>
  <rect x="5" y="8" width="1" height="1" fill="rgb(0,0,0)" fill-opacity="0.6640625"/>
  <rect x="6" y="8" width="1" height="1" fill="rgb(222,222,222)"/>
  <rect x="7" y="8" width="1" height="1" fill="rgb(204,204,204)"/>
  <rect x="8" y="8" width="1" height="1" fill="rgb(172,172,172)"/>
  <rect x="9" y="8" width="1" height="1" fill="rgb(20,20,20)" fill-opacity="0.9453125"/>
  <rect x="10" y="8" width="1" height="1" fill="rgb(0,0,0)" fill-opacity="0.375"/>
  <rect x="11" y="8" width="1" height="1" fill="rgb(81,81,81)" fill-opacity="0.953125"/>
  <rect x="12" y="8" width="1" height="1" fill="rgb(251,251,251)"/>
  <rect x="13" y="8" width="1" height="1" fill="rgb(234,234,234)"/>
  <rect x="14" y="8" width="1" height="1" fill="rgb(193,193,193)"/>
  <rect x="15" y="8" width="1" height="1" fill="rgb(0,0,0)" fill-opacity="0.625"/>
  <rect x="16" y="8" width="5" height="1" fill="rgb(255,255,255)" fill-opacity="0.0078125"/>
  <rect x="0" y="9" width="5" height="1" fill="rgb(255,255,255)" fill-opacity="0.0078125"/>
  <rect x="5" y="9" width="1" height="1" fill="rgb(0,0,0)" fill-opacity="0.1484375"/>
  <rect x="6" y="9" width="1" height="1" fill="rgb(15,15,15)" fill-opacity="0.9140625"/>
  <rect x="7" y="9" width="1" height="1" fill="rgb(165,165,165)"/>
  <rect x="8" y="9" width="1" height="1" fill="rgb(204,204,204)"/>
  <rect x="9" y="9" width="1" height="1" fill="rgb(172,172,172)"/>
  <rect x="10" y="9" width="1" height="1" fill="rgb(87,87,87)"/>
  <rect x="11" y="9" width="1" height="1" fill="rgb(251,251,251)"/>
  <rect x="12" y="9" width="1" height="1" fill="rgb(234,234,234)"/>
  <rect x="13" y="9" width="1" height="1" fill="rgb(201,201,201)"/>
  <rect x="14" y="9" width="1" height="1" fill="rgb(36,36,36)" fill-opacity="0.9453125"/>
  <rect x="15" y="9" width="1" height="1" fill="rgb(0,0,0)" fill-opacity="0.171875"/>
  <rect x="16" y="9" width="5" height="1" fill="rgb(255,255,255)" fill-opacity="0.0078125"/>
  <rect x="0" y="10" width="6" height="1" fill="rgb(255,255,255)" fill-opacity="0.0078125"/>
  <rect x="6" y="10" width="1" height="1" fill="rgb(0,0,0)" fill-opacity="0.1640625"/>
  <rect x="7" y="10" width="1" height="1" fill="rgb(15,15,15)" fill-opacity="0.9140625"/>
  <rect x="8" y="10" width="1" height="1" fill="rgb(165,165,165)"/>
  <rect x="9" y="10" width="1" height="1" fill="rgb(202,202,202)"/>
  <rect x="10" y="10" width="1" height="1" fill="rgb(218,218,218)"/>
  <rect x="11" y="10" width="1" height="1" fill="rgb(231,231,231)"/>
  <rect x="12" y="10" width="1" height="1" fill="rgb(200,200,200)"/>
  <rect x="13" y="10" width="1" height="1" fill="rgb(36,36,36)" fill-opacity="0.9453125"/>
  <rect x="14" y="10" width="1" height="1" fill="rgb(0,0,0)" fill-opacity="0.203125"/>
  <rect x="15" y="10" width="6" height="1" fill="rgb(255,255,255)" fill-opacity="0.0078125"/>
  <rect x="0" y="11" width="7" height="1" fill="rgb(255,255,255)" fill-opacity="0.0078125"/>
  <rect x="7" y="11" width="1" height="1" fill="rgb(0,0,0)" fill-opacity="0.3515625"/>
  <rect x="8" y="11" width="1" height="1" fill="rgb(82,82,82)"/>
  <rect x="9" y="11" width="1" height="1" fill="rgb(217,217,217)"/>
  <rect x="10" y="11" width="1" height="1" fill="rgb(199,199,199)"/>
  <rect x="11" y="11" width="1" height="1" fill="rgb(206,206,206)"/>
  <rect x="12" y="11" width="1" height="1" fill="rgb(71,71,71)"/>
  <rect x="13" y="11" width="1" height="1" fill="rgb(0,0,0)" fill-opacity="0.3828125"/>
  <rect x="14" y="11" width="7" height="1" fill="rgb(255,255,255)" fill-opacity="0.0078125"/>
  <rect x="0" y="12" width="6" height="1" fill="rgb(255,255,255)" fill-opacity="0.0078125"/>
  <rect x="6" y="12" width="1" height="1" fill="rgb(0,0,0)" fill-opacity="0.203125"/>
  <rect x="7" y="12" width="1" height="1" fill="rgb(77,77,77)" fill-opacity="0.953125"/>
  <rect x="8" y="12" width="1" height="1" fill="rgb(251,251,251)"/>
  <rect x="9" y="12" width="1" height="1" fill="rgb(230,230,230)"/>
  <rect x="10" y="12" width="1" height="1" fill="rgb(205,205,205)"/>
  <rect x="11" y="12" width="1" height="1" fill="rgb(211,211,211)"/>
  <rect x="12" y="12" width="1" height="1" fill="rgb(210,210,210)"/>
  <rect x="13" y="12" width="1" height="1" fill="rgb(40,40,40)" fill-opacity="0.9453125"/>
  <rect x="14" y="12" width="1" height="1" fill="rgb(0,0,0)" fill-opacity="0.203125"/>
  <rect x="15" y="12" width="6" height="1" fill="rgb(255,255,255)" fill-opacity="0.0078125"/>
  <rect x="0" y="13" width="5" height="1" fill="rgb(255,255,255)" fill-opacity="0.0078125"/>
  <rect x="5" y="13" width="1" height="1" fill="rgb(0,0,0)" fill-opacity="0.1640625"/>
  <rect x="6" y="13" width="1" height="1" fill="rgb(78,78,78)" fill-opacity="0.953125"/>
  <rect x="7" y="13" width="1" height="1" fill="rgb(250,250,250)"/>
  <rect x="8" y="13" width="1" height="1" fill="rgb(234,234,234)"/>
  <rect x="9" y="13" width="1" height="1" fill="rgb(198,198,198)"/>
  <rect x="10" y="13" width="1" height="1" fill="rgb(59,59,59)"/>
  <rect x="11" y="13" width="1" height="1" fill="rgb(208,208,208)"/>
  <rect x="12" y="13" width="1" height="1" fill="rgb(223,223,223)"/>
  <rect x="13" y="13" width="1" height="1" fill="rgb(220,220,220)"/>
  <rect x="14" y="13" width="1" height="1" fill="rgb(41,41,41)" fill-opacity="0.9453125"/>
  <rect x="15" y="13" width="1" height="1" fill="rgb(0,0,0)" fill-opacity="0.1796875"/>
  <rect x="16" y="13" width="5" height="1" fill="rgb(255,255,255)" fill-opacity="0.0078125"/>
  <rect x="0" y="14" width="5" height="1" fill="rgb(255,255,255)" fill-opacity="0.0078125"/>
  <rect x="5" y="14" width="1" height="1" fill="rgb(8,8,8)" fill-opacity="0.6015625"/>
  <rect x="6" y="14" width="1" height="1" fill="rgb(249,249,249)"/>
  <rect x="7" y="14" width="1" height="1" fill="rgb(233,233,233)"/>
  <rect x="8" y="14" width="1" height="1" fill="rgb(197,197,197)"/>
  <rect x="9" y="14" width="1" height="1" fill="rgb(33,33,33)" fill-opacity="0.9375"/>
  <rect x="10" y="14" width="1" height="1" fill="rgb(0,0,0)" fill-opacity="0.3515625"/>
  <rect x="11" y="14" width="1" height="1" fill="rgb(33,33,33)" fill-opacity="0.9296875"/>
  <rect x="12" y="14" width="1" height="1" fill="rgb(218,218,218)"/>
  <rect x="13" y="14" width="1" height="1" fill="rgb(235,235,235)"/>
  <rect x="14" y="14" width="1" height="1" fill="rgb(226,226,226)"/>
  <rect x="15" y="14" width="1" height="1" fill="rgb(0,0,0)" fill-opacity="0.703125"/>
  <rect x="16" y="14" width="5" height="1" fill="rgb(255,255,255)" fill-opacity="0.0078125"/>
  <rect x="0" y="15" width="5" height="1" fill="rgb(255,255,255)" fill-opacity="0.0078125"/>
  <rect x="5" y="15" width="1" height="1" fill="rgb(0,0,0)" fill-opacity="0.6015625"/>
  <rect x="6" y="15" width="2" height="1" fill="rgb(192,192,192)"/>
  <rect x="8" y="15" width="1" height="1" fill="rgb(34,34,34)" fill-opacity="0.9375"/>
  <rect x="9" y="15" width="1" height="1" fill="rgb(0,0,0)" fill-opacity="0.1796875"/>
  <rect x="10" y="15" width="1" height="1" fill="rgb(255,255,255)" fill-opacity="0.0078125"/>
  <rect x="11" y="15" width="1" height="1" fill="rgb(0,0,0)" fill-opacity="0.1796875"/>
  <rect x="12" y="15" width="1" height="1" fill="rgb(34,34,34)" fill-opacity="0.9296875"/>
  <rect x="13" y="15" width="1" height="1" fill="rgb(218,218,218)"/>
  <rect x="14" y="15" width="1" height="1" fill="rgb(216,216,216)"/>
  <rect x="15" y="15" width="1" height="1" fill="rgb(0,0,0)" fill-opacity="0.625"/>
  <rect x="16" y="15" width="5" height="1" fill="rgb(255,255,255)" fill-opacity="0.0078125"/>
  <rect x="0" y="16" width="5" height="1" fill="rgb(255,255,255)" fill-opacity="0.0078125"/>
  <rect x="5" y="16" width="1" height="1" fill="rgb(0,0,0)" fill-opacity="0.09375"/>
  <rect x="6" y="16" width="1" height="1" fill="rgb(0,0,0)" fill-opacity="0.59375"/>
  <rect x="7" y="16" width="1" height="1" fill="rgb(0,0,0)" fill-opacity="0.671875"/>
  <rect x="8" y="16" width="1" height="1" fill="rgb(0,0,0)" fill-opacity="0.15625"/>
  <rect x="9" y="16" width="3" height="1" fill="rgb(255,255,255)" fill-opacity="0.0078125"/>
  <rect x="12" y="16" width="1" height="1" fill="rgb(0,0,0)" fill-opacity="0.15625"/>
  <rect x="13" y="16" width="1" height="1" fill="rgb(0,0,0)" fill-opacity="0.6015625"/>
  <rect x="14" y="16" width="1" height="1" fill="rgb(0,0,0)" fill-opacity="0.640625"/>
  <rect x="15" y="16" width="1" height="1" fill="rgb(0,0,0)" fill-opacity="0.125"/>
  <rect x="16" y="16" width="5" height="1" fill="rgb(255,255,255)" fill-opacity="0.0078125"/>
  <rect x="0" y="17" width="21" height="1" fill="rgb(255,255,255)" fill-opacity="0.0078125"/>
  <rect x="0" y="18" width="21" height="1" fill="rgb(255,255,255)" fill-opacity="0.0078125"/>
  <rect x="0" y="19" width="21" height="1" fill="rgb(255,255,255)" fill-opacity="0.0078125"/>
  <rect x="0" y="20" width="21" height="1" fill="rgb(255,255,255)" fill-opacity="0.0078125"/>
</svg>