<svg xmlns="http://www.w3.org/2000/svg" shape-rendering="crispEdges" width="21" height="21" viewBox="0 0 21 21">
  <rect x="0" y="0" width="21" height="1" fill="rgb(255,255,255)" fill-opacity="0.0078125"/>
  <rect x="0" y="1" width="21" height="1" fill="rgb(255,255,255)" fill-opacity="0.0078125"/>
  <rect x="0" y="2" width="21" height="1" fill="rgb(255,255,255)" fill-opacity="0.0078125"/>
  <rect x="0" y="3" width="3" height="1" fill="rgb(255,255,255)" fill-opacity="0.0078125"/>
  <rect x="3" y="3" width="1" height="1" fill="rgb(4,55,132)" fill-opacity="0.734375"/>
  <rect x="4" y="3" width="2" height="1" fill="rgb(0,51,128)" fill-opacity="0.8046875"/>
  <rect x="6" y="3" width="1" height="1" fill="rgb(4,55,132)" fill-opacity="0.734375"/>
  <rect x="7" y="3" width="8" height="1" fill="rgb(255,0,0)" fill-opacity="0.015625"/>
  <rect x="15" y="3" width="1" height="1" fill="rgb(4,55,132)" fill-opacity="0.734375"/>
  <rect x="16" y="3" width="2" height="1" fill="rgb(0,51,128)" fill-opacity="0.8046875"/>
  <rect x="18" y="3" width="1" height="1" fill="rgb(4,55,132)" fill-opacity="0.734375"/>
  <rect x="19" y="3" width="2" height="1" fill="rgb(255,255,255)" fill-opacity="0.0078125"/>
  <rect x="0" y="4" width="3" height="1" fill="rgb(255,255,255)" fill-opacity="0.0078125"/>
  <rect x="3" y="4" width="1" height="1" fill="rgb(0,51,128)" fill-opacity="0.8046875"/>
  <rect x="4" y="4" width="1" height="1" fill="rgb(204,225,255)" fill-opacity="0.8046875"/>
  <rect x="5" y="4" width="1" height="1" fill="rgb(193,218,255)" fill-opacity="0.8046875"/>
  <rect x="6" y="4" width="1" height="1" fill="rgb(0,51,128)" fill-opacity="0.8046875"/>
  <rect x="7" y="4" width="8" height="1" fill="rgb(255,0,0)" fill-opacity="0.015625"/>
  <rect x="15" y="4" width="1" height="1" fill="rgb(0,51,128)" fill-opacity="0.8046875"/>
  <rect x="16" y="4" width="1" height="1" fill="rgb(204,225,255)" fill-opacity="0.8046875"/>
  <rect x="17" y="4" width="1" height="1" fill="rgb(193,218,255)" fill-opacity="0.8046875"/>
  <rect x="18" y="4" width="1" height="1" fill="rgb(0,51,128)" fill-opacity="0.8046875"/>
  <rect x="19" y="4" width="2" height="1" fill="rgb(255,255,255)" fill-opacity="0.0078125"/>
  <rect x="0" y="5" width="3" height="1" fill="rgb(255,255,255)" fill-opacity="0.0078125"/>
  <rect x="3" y="5" width="1" height="1" fill="rgb(0,51,128)" fill-opacity="0.8046875"/>
  <rect x="4" y="5" width="1" height="1" fill="rgb(193,218,255)" fill-opacity="0.8046875"/>
  <rect x="5" y="5" width="1" height="1" fill="rgb(128,179,255)" fill-opacity="0.8046875"/>
  <rect x="6" y="5" width="1" height="1" fill="rgb(0,51,128)" fill-opacity="0.8046875"/>
  <rect x="7" y="5" width="1" height="1" fill="rgb(8,0,0)" fill-opacity="0.2421875"/>
  <rect x="8" y="5" width="1" height="1" fill="rgb(25,23,23)" fill-opacity="0.6015625"/>
  <rect x="9" y="5" width="1" height="1" fill="rgb(28,28,28)" fill-opacity="0.78125"/>
  <rect x="10" y="5" width="2" height="1" fill="rgb(24,24,24)" fill-opacity="0.890625"/>
  <rect x="12" y="5" width="1" height="1" fill="rgb(28,28,28)" fill-opacity="0.78125"/>
  <rect x="13" y="5" width="1" height="1" fill="rgb(25,23,23)" fill-opacity="0.6015625"/>
  <rect x="14" y="5" width="1" height="1" fill="rgb(8,0,0)" fill-opacity="0.2421875"/>
  <rect x="15" y="5" width="1" height="1" fill="rgb(0,51,128)" fill-opacity="0.8046875"/>
  <rect x="16" y="5" width="1" height="1" fill="rgb(193,218,255)" fill-opacity="0.8046875"/>
  <rect x="17" y="5" width="1" height="1" fill="rgb(128,179,255)" fill-opacity="0.8046875"/>
  <rect x="18" y="5" width="1" height="1" fill="rgb(0,51,128)" fill-opacity="0.8046875"/>
  <rect x="19" y="5" width="2" height="1" fill="rgb(255,255,255)" fill-opacity="0.0078125"/>
  <rect x="0" y="6" width="3" height="1" fill="rgb(255,255,255)" fill-opacity="0.0078125"/>
  <rect x="3" y="6" width="1" height="1" fill="rgb(4,55,132)" fill-opacity="0.734375"/>
  <rect x="4" y="6" width="1" height="1" fill="rgb(0,51,128)" fill-opacity="0.8046875"/>
  <rect x="5" y="6" width="1" height="1" fill="rgb(0,39,98)" fill-opacity="0.84375"/>
  <rect x="6" y="6" width="1" height="1" fill="rgb(20,28,40)" fill-opacity="0.9453125"/>
  <rect x="7" y="6" width="1" height="1" fill="rgb(89,89,89)" fill-opacity="0.9375"/>
  <rect x="8" y="6" width="1" height="1" fill="rgb(218,218,218)"/>
  <rect x="9" y="6" width="1" height="1" fill="rgb(243,243,243)"/>
  <rect x="10" y="6" width="2" height="1" fill="rgb(255,255,255)"/>
  <rect x="12" y="6" width="1" height="1" fill="rgb(239,239,239)"/>
  <rect x="13" y="6" width="1" height="1" fill="rgb(206,206,206)"/>
  <rect x="14" y="6" width="1" height="1" fill="rgb(76,76,76)" fill-opacity="0.9296875"/>
  <rect x="15" y="6" width="1" height="1" fill="rgb(20,28,40)" fill-opacity="0.9453125"/>
  <rect x="16" y="6" width="1" height="1" fill="rgb(0,39,98)" fill-opacity="0.84375"/>
  <rect x="17" y="6" width="1" height="1" fill="rgb(0,51,128)" fill-opacity="0.8046875"/>
  <rect x="18" y="6" width="1" height="1" fill="rgb(4,55,132)" fill-opacity="0.734375"/>
  <rect x="19" y="6" width="2" height="1" fill="rgb(255,255,255)" fill-opacity="0.0078125"/>
  <rect x="0" y="7" width="3" height="1" fill="rgb(255,255,255)" fill-opacity="0.0078125"/>
  <rect x="3" y="7" width="1" height="1" fill="rgb(255,0,0)" fill-opacity="0.015625"/>
  <rect x="4" y="7" width="1" height="1" fill="rgb(10,0,0)" fill-opacity="0.2109375"/>
  <rect x="5" y="7" width="1" height="1" fill="rgb(47,47,47)" fill-opacity="0.921875"/>
  <rect x="6" y="7" width="1" height="1" fill="rgb(235,235,235)"/>
  <rect x="7" y="7" width="1" height="1" fill="rgb(250,250,250)"/>
  <rect x="8" y="7" width="1" height="1" fill="rgb(225,225,225)"/>
  <rect x="9" y="7" width="1" height="1" fill="rgb(210,210,210)"/>
  <rect x="10" y="7" width="1" height="1" fill="rgb(214,214,214)"/>
  <rect x="11" y="7" width="1" height="1" fill="rgb(225,225,225)"/>
  <rect x="12" y="7" width="1" height="1" fill="rgb(246,246,246)"/>
  <rect x="13" y="7" width="2" height="1" fill="rgb(255,255,255)"/>
  <rect x="15" y="7" width="1" height="1" fill="rgb(216,216,216)"/>
  <rect x="16" y="7" width="1" height="1" fill="rgb(36,36,36)" fill-opacity="0.921875"/>
  <rect x="17" y="7" width="1" height="1" fill="rgb(10,0,0)" fill-opacity="0.2109375"/>
  <rect x="18" y="7" width="1" height="1" fill="rgb(255,0,0)" fill-opacity="0.015625"/>
  <rect x="19" y="7" width="2" height="1" fill="rgb(255,255,255)" fill-opacity="0.0078125"/>
  <rect x="0" y="8" width="3" height="1" fill="rgb(255,255,255)" fill-opacity="0.0078125"/>
  <rect x="3" y="8" width="1" height="1" fill="rgb(19,0,0)" fill-opacity="0.109375"/>
  <rect x="4" y="8" width="1" height="1" fill="rgb(39,39,39)" fill-opacity="0.8984375"/>
  <rect x="5" y="8" width="1" height="1" fill="rgb(248,248,248)"/>
  <rect x="6" y="8" width="1" height="1" fill="rgb(247,247,247)"/>
  <rect x="7" y="8" width="1" height="1" fill="rgb(157,157,157)"/>
  <rect x="8" y="8" width="1" height="1" fill="rgb(144,144,144)"/>
  <rect x="9" y="8" width="1" height="1" fill="rgb(137,137,137)"/>
  <rect x="10" y="8" width="1" height="1" fill="rgb(139,139,139)"/>
  <rect x="11" y="8" width="1" height="1" fill="rgb(148,148,148)"/>
  <rect x="12" y="8" width="1" height="1" fill="rgb(166,166,166)"/>
  <rect x="13" y="8" width="1" height="1" fill="rgb(233,233,233)"/>
  <rect x="14" y="8" width="2" height="1" fill="rgb(255,255,255)"/>
  <rect x="16" y="8" width="1" height="1" fill="rgb(205,205,205)"/>
  <rect x="17" y="8" width="1" height="1" fill="rgb(23,23,23)" fill-opacity="0.90625"/>
  <rect x="18" y="8" width="1" height="1" fill="rgb(19,0,0)" fill-opacity="0.109375"/>
  <rect x="19" y="8" width="2" height="1" fill="rgb(255,255,255)" fill-opacity="0.0078125"/>
  <rect x="0" y="9" width="3" height="1" fill="rgb(255,255,255)" fill-opacity="0.0078125"/>
  <rect x="3" y="9" width="1" height="1" fill="rgb(11,9,9)" fill-opacity="0.4375"/>
  <rect x="4" y="9" width="1" height="1" fill="rgb(201,201,201)" fill-opacity="0.9921875"/>
  <rect x="5" y="9" width="1" height="1" fill="rgb(255,255,255)"/>
  <rect x="6" y="9" width="1" height="1" fill="rgb(245,245,245)"/>
  <rect x="7" y="9" width="1" height="1" fill="rgb(143,143,143)"/>
  <rect x="8" y="9" width="1" height="1" fill="rgb(113,113,113)"/>
  <rect x="9" y="9" width="1" height="1" fill="rgb(81,81,81)" fill-opacity="0.96875"/>
  <rect x="10" y="9" width="1" height="1" fill="rgb(58,58,58)" fill-opacity="0.953125"/>
  <rect x="11" y="9" width="1" height="1" fill="rgb(72,72,72)" fill-opacity="0.9609375"/>
  <rect x="12" y="9" width="1" height="1" fill="rgb(104,104,104)" fill-opacity="0.96875"/>
  <rect x="13" y="9" width="1" height="1" fill="rgb(174,174,174)"/>
  <rect x="14" y="9" width="1" height="1" fill="rgb(255,255,255)"/>
  <rect x="15" y="9" width="1" height="1" fill="rgb(240,240,240)"/>
  <rect x="16" y="9" width="1" height="1" fill="rgb(206,206,206)"/>
  <rect x="17" y="9" width="1" height="1" fill="rgb(100,100,100)" fill-opacity="0.984375"/>
  <rect x="18" y="9" width="1" height="1" fill="rgb(9,7,7)" fill-opacity="0.453125"/>
  <rect x="19" y="9" width="2" height="1" fill="rgb(255,255,255)" fill-opacity="0.0078125"/>
  <rect x="0" y="10" width="3" height="1" fill="rgb(255,255,255)" fill-opacity="0.0078125"/>
  <rect x="3" y="10" width="1" height="1" fill="rgb(29,29,29)" fill-opacity="0.765625"/>
  <rect x="4" y="10" width="1" height="1" fill="rgb(247,247,247)"/>
  <rect x="5" y="10" width="2" height="1" fill="rgb(255,255,255)"/>
  <rect x="7" y="10" width="1" height="1" fill="rgb(193,193,193)"/>
  <rect x="8" y="10" width="1" height="1" fill="rgb(10,10,10)" fill-opacity="0.984375"/>
  <rect x="9" y="10" width="1" height="1" fill="rgb(3,0,0)" fill-opacity="0.3125"/>
  <rect x="10" y="10" width="2" height="1" fill="rgb(102,0,0)" fill-opacity="0.0234375"/>
  <rect x="12" y="10" width="1" height="1" fill="rgb(3,0,0)" fill-opacity="0.3125"/>
  <rect x="13" y="10" width="1" height="1" fill="rgb(3,3,3)" fill-opacity="0.984375"/>
  <rect x="14" y="10" width="1" height="1" fill="rgb(198,198,198)"/>
  <rect x="15" y="10" width="1" height="1" fill="rgb(225,225,225)"/>
  <rect x="16" y="10" width="1" height="1" fill="rgb(163,163,163)"/>
  <rect x="17" y="10" width="1" height="1" fill="rgb(122,122,122)"/>
  <rect x="18" y="10" width="1" height="1" fill="rgb(16,16,16)" fill-opacity="0.7890625"/>
  <rect x="19" y="10" width="2" height="1" fill="rgb(255,255,255)" fill-opacity="0.0078125"/>
  <rect x="0" y="11" width="3" height="1" fill="rgb(255,255,255)" fill-opacity="0.0078125"/>
  <rect x="3" y="11" width="1" height="1" fill="rgb(29,29,29)" fill-opacity="0.765625"/>
  <rect x="4" y="11" width="1" height="1" fill="rgb(247,247,247)"/>
  <rect x="5" y="11" width="3" height="1" fill="rgb(255,255,255)"/>
  <rect x="8" y="11" width="1" height="1" fill="rgb(189,189,189)"/>
  <rect x="9" y="11" width="1" height="1" fill="rgb(68,68,68)" fill-opacity="0.921875"/>
  <rect x="10" y="11" width="2" height="1" fill="rgb(32,32,32)" fill-opacity="0.921875"/>
  <rect x="12" y="11" width="1" height="1" fill="rgb(68,68,68)" fill-opacity="0.921875"/>
  <rect x="13" y="11" width="1" height="1" fill="rgb(180,180,180)"/>
  <rect x="14" y="11" width="1" height="1" fill="rgb(226,226,226)"/>
  <rect x="15" y="11" width="1" height="1" fill="rgb(192,192,192)"/>
  <rect x="16" y="11" width="1" height="1" fill="rgb(110,110,110)"/>
  <rect x="17" y="11" width="1" height="1" fill="rgb(104,104,104)"/>
  <rect x="18" y="11" width="1" height="1" fill="rgb(15,15,15)" fill-opacity="0.796875"/>
  <rect x="19" y="11" width="2" height="1" fill="rgb(255,255,255)" fill-opacity="0.0078125"/>
  <rect x="0" y="12" width="3" height="1" fill="rgb(255,255,255)" fill-opacity="0.0078125"/>
  <rect x="3" y="12" width="1" height="1" fill="rgb(11,9,9)" fill-opacity="0.4375"/>
  <rect x="4" y="12" width="1" height="1" fill="rgb(200,200,200)" fill-opacity="0.9921875"/>
  <rect x="5" y="12" width="7" height="1" fill="rgb(255,255,255)"/>
  <rect x="12" y="12" width="1" height="1" fill="rgb(244,244,244)"/>
  <rect x="13" y="12" width="1" height="1" fill="rgb(223,223,223)"/>
  <rect x="14" y="12" width="1" height="1" fill="rgb(171,171,171)"/>
  <rect x="15" y="12" width="1" height="1" fill="rgb(102,102,102)"/>
  <rect x="16" y="12" width="1" height="1" fill="rgb(103,103,103)"/>
  <rect x="17" y="12" width="1" height="1" fill="rgb(64,64,64)" fill-opacity="0.9921875"/>
  <rect x="18" y="12" width="1" height="1" fill="rgb(7,5,5)" fill-opacity="0.4453125"/>
  <rect x="19" y="12" width="2" height="1" fill="rgb(255,255,255)" fill-opacity="0.0078125"/>
  <rect x="0" y="13" width="3" height="1" fill="rgb(255,255,255)" fill-opacity="0.0078125"/>
  <rect x="3" y="13" width="1" height="1" fill="rgb(19,0,0)" fill-opacity="0.109375"/>
  <rect x="4" y="13" width="1" height="1" fill="rgb(39,39,39)" fill-opacity="0.8984375"/>
  <rect x="5" y="13" width="1" height="1" fill="rgb(244,244,244)"/>
  <rect x="6" y="13" width="1" height="1" fill="rgb(248,248,248)"/>
  <rect x="7" y="13" width="1" height="1" fill="rgb(243,243,243)"/>
  <rect x="8" y="13" width="1" height="1" fill="rgb(241,241,241)"/>
  <rect x="9" y="13" width="1" height="1" fill="rgb(239,239,239)"/>
  <rect x="10" y="13" width="1" height="1" fill="rgb(233,233,233)"/>
  <rect x="11" y="13" width="1" height="1" fill="rgb(195,195,195)"/>
  <rect x="12" y="13" width="1" height="1" fill="rgb(150,150,150)"/>
  <rect x="13" y="13" width="1" height="1" fill="rgb(108,108,108)"/>
  <rect x="14" y="13" width="1" height="1" fill="rgb(89,89,89)"/>
  <rect x="15" y="13" width="1" height="1" fill="rgb(94,94,94)"/>
  <rect x="16" y="13" width="1" height="1" fill="rgb(97,97,97)"/>
  <rect x="17" y="13" width="1" height="1" fill="rgb(14,14,14)" fill-opacity="0.921875"/>
  <rect x="18" y="13" width="1" height="1" fill="rgb(19,0,0)" fill-opacity="0.109375"/>
  <rect x="19" y="13" width="2" height="1" fill="rgb(255,255,255)" fill-opacity="0.0078125"/>
  <rect x="0" y="14" width="3" height="1" fill="rgb(255,255,255)" fill-opacity="0.0078125"/>
  <rect x="3" y="14" width="1" height="1" fill="rgb(255,0,0)" fill-opacity="0.015625"/>
  <rect x="4" y="14" width="1" height="1" fill="rgb(10,0,0)" fill-opacity="0.2109375"/>
  <rect x="5" y="14" width="1" height="1" fill="rgb(43,43,43)" fill-opacity="0.921875"/>
  <rect x="6" y="14" width="1" height="1" fill="rgb(213,213,213)"/>
  <rect x="7" y="14" width="1" height="1" fill="rgb(227,227,227)"/>
  <rect x="8" y="14" width="1" height="1" fill="rgb(194,194,194)"/>
  <rect x="9" y="14" width="1" height="1" fill="rgb(170,170,170)"/>
  <rect x="10" y="14" width="1" height="1" fill="rgb(146,146,146)"/>
  <rect x="11" y="14" width="1" height="1" fill="rgb(124,124,124)"/>
  <rect x="12" y="14" width="1" height="1" fill="rgb(112,112,112)"/>
  <rect x="13" y="14" width="1" height="1" fill="rgb(104,104,104)"/>
  <rect x="14" y="14" width="1" height="1" fill="rgb(117,117,117)"/>
  <rect x="15" y="14" width="1" height="1" fill="rgb(93,93,93)"/>
  <rect x="16" y="14" width="1" height="1" fill="rgb(16,16,16)" fill-opacity="0.9375"/>
  <rect x="17" y="14" width="1" height="1" fill="rgb(10,0,0)" fill-opacity="0.2109375"/>
  <rect x="18" y="14" width="1" height="1" fill="rgb(255,0,0)" fill-opacity="0.015625"/>
  <rect x="19" y="14" width="2" height="1" fill="rgb(255,255,255)" fill-opacity="0.0078125"/>
  <rect x="0" y="15" width="3" height="1" fill="rgb(255,255,255)" fill-opacity="0.0078125"/>
  <rect x="3" y="15" width="1" height="1" fill="rgb(4,55,132)" fill-opacity="0.734375"/>
  <rect x="4" y="15" width="1" height="1" fill="rgb(0,51,128)" fill-opacity="0.8046875"/>
  <rect x="5" y="15" width="1" height="1" fill="rgb(0,39,98)" fill-opacity="0.84375"/>
  <rect x="6" y="15" width="1" height="1" fill="rgb(19,26,38)" fill-opacity="0.953125"/>
  <rect x="7" y="15" width="1" height="1" fill="rgb(70,70,70)" fill-opacity="0.9453125"/>
  <rect x="8" y="15" width="1" height="1" fill="rgb(169,169,169)"/>
  <rect x="9" y="15" width="1" height="1" fill="rgb(184,184,184)"/>
  <rect x="10" y="15" width="1" height="1" fill="rgb(182,182,182)"/>
  <rect x="11" y="15" width="1" height="1" fill="rgb(164,164,164)"/>
  <rect x="12" y="15" width="1" height="1" fill="rgb(133,133,133)"/>
  <rect x="13" y="15" width="1" height="1" fill="rgb(98,98,98)"/>
  <rect x="14" y="15" width="1" height="1" fill="rgb(35,35,35)" fill-opacity="0.953125"/>
  <rect x="15" y="15" width="1" height="1" fill="rgb(12,18,28)" fill-opacity="0.953125"/>
  <rect x="16" y="15" width="1" height="1" fill="rgb(0,39,98)" fill-opacity="0.84375"/>
  <rect x="17" y="15" width="1" height="1" fill="rgb(0,51,128)" fill-opacity="0.8046875"/>
  <rect x="18" y="15" width="1" height="1" fill="rgb(4,55,132)" fill-opacity="0.734375"/>
  <rect x="19" y="15" width="2" height="1" fill="rgb(255,255,255)" fill-opacity="0.0078125"/>
  <rect x="0" y="16" width="3" height="1" fill="rgb(255,255,255)" fill-opacity="0.0078125"/>
  <rect x="3" y="16" width="1" height="1" fill="rgb(0,51,128)" fill-opacity="0.8046875"/>
  <rect x="4" y="16" width="1" height="1" fill="rgb(204,225,255)" fill-opacity="0.8046875"/>
  <rect x="5" y="16" width="1" height="1" fill="rgb(193,218,255)" fill-opacity="0.8046875"/>
  <rect x="6" y="16" width="1" height="1" fill="rgb(0,51,128)" fill-opacity="0.8046875"/>
  <rect x="7" y="16" width="1" height="1" fill="rgb(8,0,0)" fill-opacity="0.2421875"/>
  <rect x="8" y="16" width="1" height="1" fill="rgb(25,23,23)" fill-opacity="0.609375"/>
  <rect x="9" y="16" width="1" height="1" fill="rgb(23,23,23)" fill-opacity="0.796875"/>
  <rect x="10" y="16" width="1" height="1" fill="rgb(17,17,17)" fill-opacity="0.90625"/>
  <rect x="11" y="16" width="1" height="1" fill="rgb(14,14,14)" fill-opacity="0.9140625"/>
  <rect x="12" y="16" width="1" height="1" fill="rgb(16,16,16)" fill-opacity="0.8125"/>
  <rect x="13" y="16" width="1" height="1" fill="rgb(14,14,14)" fill-opacity="0.625"/>
  <rect x="14" y="16" width="1" height="1" fill="rgb(8,0,0)" fill-opacity="0.2421875"/>
  <rect x="15" y="16" width="1" height="1" fill="rgb(0,51,128)" fill-opacity="0.8046875"/>
  <rect x="16" y="16" width="1" height="1" fill="rgb(204,225,255)" fill-opacity="0.8046875"/>
  <rect x="17" y="16" width="1" height="1" fill="rgb(193,218,255)" fill-opacity="0.8046875"/>
  <rect x="18" y="16" width="1" height="1" fill="rgb(0,51,128)" fill-opacity="0.8046875"/>
  <rect x="19" y="16" width="2" height="1" fill="rgb(255,255,255)" fill-opacity="0.0078125"/>
  <rect x="0" y="17" width="3" height="1" fill="rgb(255,255,255)" fill-opacity="0.0078125"/>
  <rect x="3" y="17" width="1" height="1" fill="rgb(0,51,128)" fill-opacity="0.8046875"/>
  <rect x="4" y="17" width="1" height="1" fill="rgb(193,218,255)" fill-opacity="0.8046875"/>
  <rect x="5" y="17" width="1" height="1" fill="rgb(128,179,255)" fill-opacity="0.8046875"/>
  <rect x="6" y="17" width="1" height="1" fill="rgb(0,51,128)" fill-opacity="0.8046875"/>
  <rect x="7" y="17" width="8" height="1" fill="rgb(255,0,0)" fill-opacity="0.015625"/>
  <rect x="15" y="17" width="1" height="1" fill="rgb(0,51,128)" fill-opacity="0.8046875"/>
  <rect x="16" y="17" width="1" height="1" fill="rgb(193,218,255)" fill-opacity="0.8046875"/>
  <rect x="17" y="17" width="1" height="1" fill="rgb(128,179,255)" fill-opacity="0.8046875"/>
  <rect x="18" y="17" width="1" height="1" fill="rgb(0,51,128)" fill-opacity="0.8046875"/>
  <rect x="19" y="17" width="2" height="1" fill="rgb(255,255,255)" fill-opacity="0.0078125"/>
  <rect x="0" y="18" width="3" height="1" fill="rgb(255,255,255)" fill-opacity="0.0078125"/>
  <rect x="3" y="18" width="1" height="1" fill="rgb(4,55,132)" fill-opacity="0.734375"/>
  <rect x="4" y="18" width="2" height="1" fill="rgb(0,51,128)" fill-opacity="0.8046875"/>
  <rect x="6" y="18" width="1" height="1" fill="rgb(4,55,132)" fill-opacity="0.734375"/>
  <rect x="7" y="18" width="8" height="1" fill="rgb(255,0,0)" fill-opacity="0.015625"/>
  <rect x="15" y="18" width="1" height="1" fill="rgb(4,55,132)" fill-opacity="0.734375"/>
  <rect x="16" y="18" width="2" height="1" fill="rgb(0,51,128)" fill-opacity="0.8046875"/>
  <rect x="18" y="18" width="1" height="1" fill="rgb(4,55,132)" fill-opacity="0.734375"/>
  <rect x="19" y="18" width="2" height="1" fill="rgb(255,255,255)" fill-opacity="0.0078125"/>
  <rect x="0" y="19" width="21" height="1" fill="rgb(255,255,255)" fill-opacity="0.0078125"/>
  <rect x="0" y="20" width="21" height="1" fill="rgb(255,255,255)" fill-opacity="0.0078125"/>
</svg>