<svg xmlns="http://www.w3.org/2000/svg" shape-rendering="crispEdges" width="21" height="21" viewBox="0 0 21 21">
  <rect x="0" y="0" width="21" height="1" fill="rgb(255,255,255)" fill-opacity="0.0078125"/>
  <rect x="0" y="1" width="21" height="1" fill="rgb(255,255,255)" fill-opacity="0.0078125"/>
  <rect x="0" y="2" width="21" height="1" fill="rgb(255,255,255)" fill-opacity="0.0078125"/>
  <rect x="0" y="3" width="21" height="1" fill="rgb(255,255,255)" fill-opacity="0.0078125"/>
  <rect x="0" y="4" width="21" height="1" fill="rgb(255,255,255)" fill-opacity="0.0078125"/>
  <rect x="0" y="5" width="8" height="1" fill="rgb(255,255,255)" fill-opacity="0.0078125"/>
  <rect x="8" y="5" width="1" height="1" fill="rgb(0,0,0)" fill-opacity="0.0078125"/>
  <rect x="9" y="5" width="1" height="1" fill="rgb(28,28,28)" fill-opacity="0.2578125"/>
  <rect x="10" y="5" width="1" height="1" fill="rgb(26,26,26)" fill-opacity="0.234375"/>
  <rect x="11" y="5" width="10" height="1" fill="rgb(255,255,255)" fill-opacity="0.0078125"/>
  <rect x="0" y="6" width="6" height="1" fill="rgb(255,255,255)" fill-opacity="0.0078125"/>
  <rect x="6" y="6" width="1" height="1" fill="rgb(30,30,30)" fill-opacity="0.0703125"/>
  <rect x="7" y="6" width="1" height="1" fill="rgb(27,27,27)" fill-opacity="0.4453125"/>
  <rect x="8" y="6" width="1" height="1" fill="rgb(27,27,27)" fill-opacity="0.859375"/>
  <rect x="9" y="6" width="2" height="1" fill="rgb(64,64,64)"/>
  <rect x="11" y="6" width="1" height="1" fill="rgb(27,27,27)" fill-opacity="0.8203125"/>
  <rect x="12" y="6" width="1" height="1" fill="rgb(26,26,26)" fill-opacity="0.390625"/>
  <rect x="13" y="6" width="1" height="1" fill="rgb(36,36,36)" fill-opacity="0.03125"/>
  <rect x="14" y="6" width="7" height="1" fill="rgb(255,255,255)" fill-opacity="0.0078125"/>
  <rect x="0" y="7" width="4" height="1" fill="rgb(255,255,255)" fill-opacity="0.0078125"/>
  <rect x="4" y="7" width="1" height="1" fill="rgb(26,26,26)" fill-opacity="0.203125"/>
  <rect x="5" y="7" width="1" height="1" fill="rgb(26,26,26)" fill-opacity="0.6171875"/>
  <rect x="6" y="7" width="1" height="1" fill="rgb(36,36,36)" fill-opacity="0.9765625"/>
  <rect x="7" y="7" width="1" height="1" fill="rgb(92,92,92)"/>
  <rect x="8" y="7" width="1" height="1" fill="rgb(159,159,159)"/>
  <rect x="9" y="7" width="1" height="1" fill="rgb(177,177,177)"/>
  <rect x="10" y="7" width="1" height="1" fill="rgb(173,173,173)"/>
  <rect x="11" y="7" width="1" height="1" fill="rgb(147,147,147)"/>
  <rect x="12" y="7" width="1" height="1" fill="rgb(81,81,81)"/>
  <rect x="13" y="7" width="1" height="1" fill="rgb(31,31,31)" fill-opacity="0.9296875"/>
  <rect x="14" y="7" width="1" height="1" fill="rgb(26,26,26)" fill-opacity="0.515625"/>
  <rect x="15" y="7" width="1" height="1" fill="rgb(21,21,21)" fill-opacity="0.1015625"/>
  <rect x="16" y="7" width="5" height="1" fill="rgb(255,255,255)" fill-opacity="0.0078125"/>
  <rect x="0" y="8" width="3" height="1" fill="rgb(255,255,255)" fill-opacity="0.0078125"/>
  <rect x="3" y="8" width="1" height="1" fill="rgb(25,25,25)" fill-opacity="0.5546875"/>
  <rect x="4" y="8" width="1" height="1" fill="rgb(98,98,98)"/>
  <rect x="5" y="8" width="1" height="1" fill="rgb(116,116,116)"/>
  <rect x="6" y="8" width="1" height="1" fill="rgb(154,154,154)"/>
  <rect x="7" y="8" width="1" height="1" fill="rgb(179,179,179)"/>
  <rect x="8" y="8" width="1" height="1" fill="rgb(171,171,171)"/>
  <rect x="9" y="8" width="1" height="1" fill="rgb(161,161,161)"/>
  <rect x="10" y="8" width="1" height="1" fill="rgb(160,160,160)"/>
  <rect x="11" y="8" width="1" height="1" fill="rgb(164,164,164)"/>
  <rect x="12" y="8" width="1" height="1" fill="rgb(163,163,163)"/>
  <rect x="13" y="8" width="1" height="1" fill="rgb(149,149,149)"/>
  <rect x="14" y="8" width="1" height="1" fill="rgb(96,96,96)"/>
  <rect x="15" y="8" width="1" height="1" fill="rgb(40,40,40)" fill-opacity="0.984375"/>
  <rect x="16" y="8" width="1" height="1" fill="rgb(25,25,25)" fill-opacity="0.6328125"/>
  <rect x="17" y="8" width="1" height="1" fill="rgb(26,26,26)" fill-opacity="0.203125"/>
  <rect x="18" y="8" width="3" height="1" fill="rgb(255,255,255)" fill-opacity="0.0078125"/>
  <rect x="0" y="9" width="3" height="1" fill="rgb(255,255,255)" fill-opacity="0.0078125"/>
  <rect x="3" y="9" width="1" height="1" fill="rgb(26,26,26)" fill-opacity="0.9140625"/>
  <rect x="4" y="9" width="1" height="1" fill="rgb(215,215,215)"/>
  <rect x="5" y="9" width="1" height="1" fill="rgb(211,211,211)"/>
  <rect x="6" y="9" width="1" height="1" fill="rgb(190,190,190)"/>
  <rect x="7" y="9" width="1" height="1" fill="rgb(182,182,182)"/>
  <rect x="8" y="9" width="1" height="1" fill="rgb(171,171,171)"/>
  <rect x="9" y="9" width="1" height="1" fill="rgb(161,161,161)"/>
  <rect x="10" y="9" width="1" height="1" fill="rgb(160,160,160)"/>
  <rect x="11" y="9" width="1" height="1" fill="rgb(163,163,163)"/>
  <rect x="12" y="9" width="1" height="1" fill="rgb(162,162,162)"/>
  <rect x="13" y="9" width="2" height="1" fill="rgb(158,158,158)"/>
  <rect x="15" y="9" width="1" height="1" fill="rgb(156,156,156)"/>
  <rect x="16" y="9" width="1" height="1" fill="rgb(113,113,113)"/>
  <rect x="17" y="9" width="1" height="1" fill="rgb(55,55,55)"/>
  <rect x="18" y="9" width="1" height="1" fill="rgb(25,25,25)" fill-opacity="0.5546875"/>
  <rect x="19" y="9" width="2" height="1" fill="rgb(255,255,255)" fill-opacity="0.0078125"/>
  <rect x="0" y="10" width="3" height="1" fill="rgb(255,255,255)" fill-opacity="0.0078125"/>
  <rect x="3" y="10" width="1" height="1" fill="rgb(26,26,26)" fill-opacity="0.9140625"/>
  <rect x="4" y="10" width="1" height="1" fill="rgb(207,207,207)"/>
  <rect x="5" y="10" width="1" height="1" fill="rgb(118,118,118)"/>
  <rect x="6" y="10" width="1" height="1" fill="rgb(169,169,169)"/>
  <rect x="7" y="10" width="1" height="1" fill="rgb(212,212,212)"/>
  <rect x="8" y="10" width="1" height="1" fill="rgb(199,199,199)"/>
  <rect x="9" y="10" width="1" height="1" fill="rgb(178,178,178)"/>
  <rect x="10" y="10" width="1" height="1" fill="rgb(170,170,170)"/>
  <rect x="11" y="10" width="1" height="1" fill="rgb(163,163,163)"/>
  <rect x="12" y="10" width="5" height="1" fill="rgb(158,158,158)"/>
  <rect x="17" y="10" width="1" height="1" fill="rgb(147,147,147)"/>
  <rect x="18" y="10" width="1" height="1" fill="rgb(26,26,26)" fill-opacity="0.9140625"/>
  <rect x="19" y="10" width="2" height="1" fill="rgb(255,255,255)" fill-opacity="0.0078125"/>
  <rect x="0" y="11" width="3" height="1" fill="rgb(255,255,255)" fill-opacity="0.0078125"/>
  <rect x="3" y="11" width="1" height="1" fill="rgb(26,26,26)" fill-opacity="0.890625"/>
  <rect x="4" y="11" width="1" height="1" fill="rgb(200,200,200)"/>
  <rect x="5" y="11" width="1" height="1" fill="rgb(171,171,171)"/>
  <rect x="6" y="11" width="1" height="1" fill="rgb(137,137,137)"/>
  <rect x="7" y="11" width="1" height="1" fill="rgb(117,117,117)"/>
  <rect x="8" y="11" width="1" height="1" fill="rgb(168,168,168)"/>
  <rect x="9" y="11" width="1" height="1" fill="rgb(211,211,211)"/>
  <rect x="10" y="11" width="1" height="1" fill="rgb(190,190,190)"/>
  <rect x="11" y="11" width="1" height="1" fill="rgb(163,163,163)"/>
  <rect x="12" y="11" width="3" height="1" fill="rgb(158,158,158)"/>
  <rect x="15" y="11" width="1" height="1" fill="rgb(103,103,103)"/>
  <rect x="16" y="11" width="1" height="1" fill="rgb(52,52,52)"/>
  <rect x="17" y="11" width="1" height="1" fill="rgb(115,115,115)"/>
  <rect x="18" y="11" width="1" height="1" fill="rgb(26,26,26)" fill-opacity="0.9140625"/>
  <rect x="19" y="11" width="2" height="1" fill="rgb(255,255,255)" fill-opacity="0.0078125"/>
  <rect x="0" y="12" width="3" height="1" fill="rgb(255,255,255)" fill-opacity="0.0078125"/>
  <rect x="3" y="12" width="1" height="1" fill="rgb(27,27,27)" fill-opacity="0.375"/>
  <rect x="4" y="12" width="1" height="1" fill="rgb(49,49,49)" fill-opacity="0.9609375"/>
  <rect x="5" y="12" width="1" height="1" fill="rgb(142,142,142)"/>
  <rect x="6" y="12" width="1" height="1" fill="rgb(191,191,191)"/>
  <rect x="7" y="12" width="1" height="1" fill="rgb(162,162,162)"/>
  <rect x="8" y="12" width="1" height="1" fill="rgb(134,134,134)"/>
  <rect x="9" y="12" width="1" height="1" fill="rgb(116,116,116)"/>
  <rect x="10" y="12" width="1" height="1" fill="rgb(166,166,166)"/>
  <rect x="11" y="12" width="1" height="1" fill="rgb(211,211,211)"/>
  <rect x="12" y="12" width="1" height="1" fill="rgb(175,175,175)"/>
  <rect x="13" y="12" width="1" height="1" fill="rgb(103,103,103)"/>
  <rect x="14" y="12" width="1" height="1" fill="rgb(52,52,52)"/>
  <rect x="15" y="12" width="1" height="1" fill="rgb(60,60,60)"/>
  <rect x="16" y="12" width="1" height="1" fill="rgb(89,89,89)"/>
  <rect x="17" y="12" width="1" height="1" fill="rgb(102,255,0)"/>
  <rect x="18" y="12" width="1" height="1" fill="rgb(26,26,26)" fill-opacity="0.890625"/>
  <rect x="19" y="12" width="2" height="1" fill="rgb(255,255,255)" fill-opacity="0.0078125"/>
  <rect x="0" y="13" width="4" height="1" fill="rgb(255,255,255)" fill-opacity="0.0078125"/>
  <rect x="4" y="13" width="1" height="1" fill="rgb(26,26,26)" fill-opacity="0.0859375"/>
  <rect x="5" y="13" width="1" height="1" fill="rgb(27,27,27)" fill-opacity="0.5625"/>
  <rect x="6" y="13" width="1" height="1" fill="rgb(55,55,55)" fill-opacity="0.984375"/>
  <rect x="7" y="13" width="1" height="1" fill="rgb(146,146,146)"/>
  <rect x="8" y="13" width="1" height="1" fill="rgb(184,184,184)"/>
  <rect x="9" y="13" width="1" height="1" fill="rgb(155,155,155)"/>
  <rect x="10" y="13" width="1" height="1" fill="rgb(133,133,133)"/>
  <rect x="11" y="13" width="1" height="1" fill="rgb(115,115,115)"/>
  <rect x="12" y="13" width="2" height="1" fill="rgb(58,58,58)"/>
  <rect x="14" y="13" width="1" height="1" fill="rgb(86,86,86)"/>
  <rect x="15" y="13" width="1" height="1" fill="rgb(115,115,115)"/>
  <rect x="16" y="13" width="1" height="1" fill="rgb(82,82,82)"/>
  <rect x="17" y="13" width="1" height="1" fill="rgb(35,35,35)" fill-opacity="0.9609375"/>
  <rect x="18" y="13" width="1" height="1" fill="rgb(27,27,27)" fill-opacity="0.375"/>
  <rect x="19" y="13" width="2" height="1" fill="rgb(255,255,255)" fill-opacity="0.0078125"/>
  <rect x="0" y="14" width="6" height="1" fill="rgb(255,255,255)" fill-opacity="0.0078125"/>
  <rect x="6" y="14" width="1" height="1" fill="rgb(26,26,26)" fill-opacity="0.125"/>
  <rect x="7" y="14" width="1" height="1" fill="rgb(26,26,26)" fill-opacity="0.625"/>
  <rect x="8" y="14" width="1" height="1" fill="rgb(63,63,63)" fill-opacity="0.9921875"/>
  <rect x="9" y="14" width="1" height="1" fill="rgb(149,149,149)"/>
  <rect x="10" y="14" width="1" height="1" fill="rgb(176,176,176)"/>
  <rect x="11" y="14" width="1" height="1" fill="rgb(148,148,148)"/>
  <rect x="12" y="14" width="1" height="1" fill="rgb(81,81,81)"/>
  <rect x="13" y="14" width="1" height="1" fill="rgb(118,118,118)"/>
  <rect x="14" y="14" width="1" height="1" fill="rgb(94,94,94)"/>
  <rect x="15" y="14" width="1" height="1" fill="rgb(41,41,41)" fill-opacity="0.9921875"/>
  <rect x="16" y="14" width="1" height="1" fill="rgb(26,26,26)" fill-opacity="0.5859375"/>
  <rect x="17" y="14" width="1" height="1" fill="rgb(23,23,23)" fill-opacity="0.09375"/>
  <rect x="18" y="14" width="3" height="1" fill="rgb(255,255,255)" fill-opacity="0.0078125"/>
  <rect x="0" y="15" width="8" height="1" fill="rgb(255,255,255)" fill-opacity="0.0078125"/>
  <rect x="8" y="15" width="1" height="1" fill="rgb(24,24,24)" fill-opacity="0.171875"/>
  <rect x="9" y="15" width="1" height="1" fill="rgb(26,26,26)" fill-opacity="0.6875"/>
  <rect x="10" y="15" width="1" height="1" fill="rgb(71,71,71)"/>
  <rect x="11" y="15" width="1" height="1" fill="rgb(151,151,151)"/>
  <rect x="12" y="15" width="1" height="1" fill="rgb(109,109,109)"/>
  <rect x="13" y="15" width="1" height="1" fill="rgb(51,51,51)"/>
  <rect x="14" y="15" width="1" height="1" fill="rgb(26,26,26)" fill-opacity="0.671875"/>
  <rect x="15" y="15" width="1" height="1" fill="rgb(28,28,28)" fill-opacity="0.1484375"/>
  <rect x="16" y="15" width="5" height="1" fill="rgb(255,255,255)" fill-opacity="0.0078125"/>
  <rect x="0" y="16" width="10" height="1" fill="rgb(255,255,255)" fill-opacity="0.0078125"/>
  <rect x="10" y="16" width="1" height="1" fill="rgb(27,27,27)" fill-opacity="0.2265625"/>
  <rect x="11" y="16" width="2" height="1" fill="rgb(26,26,26)" fill-opacity="0.703125"/>
  <rect x="13" y="16" width="1" height="1" fill="rgb(24,24,24)" fill-opacity="0.2109375"/>
  <rect x="14" y="16" width="7" height="1" fill="rgb(255,255,255)" fill-opacity="0.0078125"/>
  <rect x="0" y="17" width="21" height="1" fill="rgb(255,255,255)" fill-opacity="0.0078125"/>
  <rect x="0" y="18" width="21" height="1" fill="rgb(255,255,255)" fill-opacity="0.0078125"/>
  <rect x="0" y="19" width="21" height="1" fill="rgb(255,255,255)" fill-opacity="0.0078125"/>
  <rect x="0" y="20" width="21" height="1" fill="rgb(255,255,255)" fill-opacity="0.0078125"/>
</svg>