<svg xmlns="http://www.w3.org/2000/svg" shape-rendering="crispEdges" width="21" height="21" viewBox="0 0 21 21">
  <rect x="0" y="0" width="1" height="21" fill="rgb(255,255,255)" fill-opacity="0.0078125"/>
  <rect x="1" y="0" width="1" height="21" fill="rgb(255,255,255)" fill-opacity="0.0078125"/>
  <rect x="2" y="0" width="1" height="21" fill="rgb(255,255,255)" fill-opacity="0.0078125"/>
  <rect x="3" y="0" width="1" height="21" fill="rgb(255,255,255)" fill-opacity="0.0078125"/>
  <rect x="4" y="0" width="1" height="7" fill="rgb(255,255,255)" fill-opacity="0.0078125"/>
  <rect x="4" y="7" width="1" height="1" fill="rgb(0,0,0)" fill-opacity="0.0078125"/>
  <rect x="4" y="8" width="1" height="1" fill="rgb(26,26,26)" fill-opacity="0.34375"/>
  <rect x="4" y="9" width="1" height="1" fill="rgb(36,39,24)" fill-opacity="0.640625"/>
  <rect x="4" y="10" width="1" height="1" fill="rgb(41,46,24)" fill-opacity="0.875"/>
  <rect x="4" y="11" width="1" height="1" fill="rgb(38,43,24)" fill-opacity="0.890625"/>
  <rect x="4" y="12" width="1" height="1" fill="rgb(36,39,24)" fill-opacity="0.6640625"/>
  <rect x="4" y="13" width="1" height="1" fill="rgb(26,26,26)" fill-opacity="0.390625"/>
  <rect x="4" y="14" width="1" height="1" fill="rgb(51,51,51)" fill-opacity="0.0234375"/>
  <rect x="4" y="15" width="1" height="6" fill="rgb(255,255,255)" fill-opacity="0.0078125"/>
  <rect x="5" y="0" width="1" height="6" fill="rgb(255,255,255)" fill-opacity="0.0078125"/>
  <rect x="5" y="6" width="1" height="1" fill="rgb(23,23,23)" fill-opacity="0.1328125"/>
  <rect x="5" y="7" width="1" height="1" fill="rgb(50,45,24)" fill-opacity="0.828125"/>
  <rect x="5" y="8" width="1" height="1" fill="rgb(148,162,92)" fill-opacity="0.9453125"/>
  <rect x="5" y="9" width="1" height="1" fill="rgb(212,231,138)"/>
  <rect x="5" y="10" width="1" height="1" fill="rgb(235,251,169)"/>
  <rect x="5" y="11" width="1" height="1" fill="rgb(235,252,163)"/>
  <rect x="5" y="12" width="1" height="1" fill="rgb(209,230,124)"/>
  <rect x="5" y="13" width="1" height="1" fill="rgb(147,166,80)" fill-opacity="0.9296875"/>
  <rect x="5" y="14" width="1" height="1" fill="rgb(27,42,35)" fill-opacity="0.859375"/>
  <rect x="5" y="15" width="1" height="1" fill="rgb(27,27,27)" fill-opacity="0.1953125"/>
  <rect x="5" y="16" width="1" height="5" fill="rgb(255,255,255)" fill-opacity="0.0078125"/>
  <rect x="6" y="0" width="1" height="5" fill="rgb(255,255,255)" fill-opacity="0.0078125"/>
  <rect x="6" y="5" width="1" height="1" fill="rgb(21,21,21)" fill-opacity="0.1015625"/>
  <rect x="6" y="6" width="1" height="1" fill="rgb(61,57,45)" fill-opacity="0.8984375"/>
  <rect x="6" y="7" width="1" height="1" fill="rgb(231,211,156)"/>
  <rect x="6" y="8" width="1" height="1" fill="rgb(246,243,171)" fill-opacity="0.90625"/>
  <rect x="6" y="9" width="1" height="1" fill="rgb(216,255,62)"/>
  <rect x="6" y="10" width="1" height="1" fill="rgb(209,255,23)"/>
  <rect x="6" y="11" width="1" height="1" fill="rgb(208,255,22)"/>
  <rect x="6" y="12" width="1" height="1" fill="rgb(215,255,55)"/>
  <rect x="6" y="13" width="1" height="1" fill="rgb(214,252,161)" fill-opacity="0.8828125"/>
  <rect x="6" y="14" width="1" height="1" fill="rgb(118,214,195)"/>
  <rect x="6" y="15" width="1" height="1" fill="rgb(38,54,50)" fill-opacity="0.8984375"/>
  <rect x="6" y="16" width="1" height="1" fill="rgb(23,23,23)" fill-opacity="0.1796875"/>
  <rect x="6" y="17" width="1" height="4" fill="rgb(255,255,255)" fill-opacity="0.0078125"/>
  <rect x="7" y="0" width="1" height="5" fill="rgb(255,255,255)" fill-opacity="0.0078125"/>
  <rect x="7" y="5" width="1" height="1" fill="rgb(60,52,26)" fill-opacity="0.796875"/>
  <rect x="7" y="6" width="1" height="1" fill="rgb(232,213,160)"/>
  <rect x="7" y="7" width="1" height="1" fill="rgb(255,217,113)"/>
  <rect x="7" y="8" width="1" height="1" fill="rgb(254,192,18)" fill-opacity="0.9296875"/>
  <rect x="7" y="9" width="1" height="1" fill="rgb(210,251,13)" fill-opacity="0.953125"/>
  <rect x="7" y="10" width="1" height="2" fill="rgb(207,255,15)"/>
  <rect x="7" y="12" width="1" height="1" fill="rgb(205,255,14)" fill-opacity="0.953125"/>
  <rect x="7" y="13" width="1" height="1" fill="rgb(24,217,157)" fill-opacity="0.9296875"/>
  <rect x="7" y="14" width="1" height="1" fill="rgb(80,225,197)"/>
  <rect x="7" y="15" width="1" height="1" fill="rgb(109,214,193)"/>
  <rect x="7" y="16" width="1" height="1" fill="rgb(25,46,41)" fill-opacity="0.8515625"/>
  <rect x="7" y="17" width="1" height="1" fill="rgb(0,0,0)" fill-opacity="0.0234375"/>
  <rect x="7" y="18" width="1" height="3" fill="rgb(255,255,255)" fill-opacity="0.0078125"/>
  <rect x="8" y="0" width="1" height="4" fill="rgb(255,255,255)" fill-opacity="0.0078125"/>
  <rect x="8" y="4" width="1" height="1" fill="rgb(25,25,25)" fill-opacity="0.25"/>
  <rect x="8" y="5" width="1" height="1" fill="rgb(152,137,99)" fill-opacity="0.953125"/>
  <rect x="8" y="6" width="1" height="1" fill="rgb(255,230,162)"/>
  <rect x="8" y="7" width="1" height="1" fill="rgb(255,192,20)"/>
  <rect x="8" y="8" width="1" height="1" fill="rgb(255,195,29)"/>
  <rect x="8" y="9" width="1" height="1" fill="rgb(243,214,43)" fill-opacity="0.78125"/>
  <rect x="8" y="10" width="1" height="2" fill="rgb(210,255,32)"/>
  <rect x="8" y="12" width="1" height="1" fill="rgb(137,240,95)" fill-opacity="0.78125"/>
  <rect x="8" y="13" width="1" height="1" fill="rgb(17,215,176)"/>
  <rect x="8" y="14" width="1" height="1" fill="rgb(6,213,172)"/>
  <rect x="8" y="15" width="1" height="1" fill="rgb(109,230,206)"/>
  <rect x="8" y="16" width="1" height="1" fill="rgb(66,142,127)" fill-opacity="0.9296875"/>
  <rect x="8" y="17" width="1" height="1" fill="rgb(27,27,27)" fill-opacity="0.375"/>
  <rect x="8" y="18" width="1" height="3" fill="rgb(255,255,255)" fill-opacity="0.0078125"/>
  <rect x="9" y="0" width="1" height="4" fill="rgb(255,255,255)" fill-opacity="0.0078125"/>
  <rect x="9" y="4" width="1" height="1" fill="rgb(48,42,25)" fill-opacity="0.5234375"/>
  <rect x="9" y="5" width="1" height="1" fill="rgb(219,201,151)"/>
  <rect x="9" y="6" width="1" height="1" fill="rgb(255,208,77)"/>
  <rect x="9" y="7" width="1" height="1" fill="rgb(255,194,26)"/>
  <rect x="9" y="8" width="1" height="1" fill="rgb(255,198,40)"/>
  <rect x="9" y="9" width="1" height="1" fill="rgb(255,201,53)" fill-opacity="0.984375"/>
  <rect x="9" y="10" width="1" height="1" fill="rgb(223,246,57)" fill-opacity="0.8984375"/>
  <rect x="9" y="11" width="1" height="1" fill="rgb(211,255,58)" fill-opacity="0.8984375"/>
  <rect x="9" y="12" width="1" height="1" fill="rgb(45,219,182)" fill-opacity="0.984375"/>
  <rect x="9" y="13" width="1" height="1" fill="rgb(28,217,179)"/>
  <rect x="9" y="14" width="1" height="1" fill="rgb(14,214,175)"/>
  <rect x="9" y="15" width="1" height="1" fill="rgb(46,220,185)"/>
  <rect x="9" y="16" width="1" height="1" fill="rgb(94,200,179)"/>
  <rect x="9" y="17" width="1" height="1" fill="rgb(25,37,36)" fill-opacity="0.6484375"/>
  <rect x="9" y="18" width="1" height="3" fill="rgb(255,255,255)" fill-opacity="0.0078125"/>
  <rect x="10" y="0" width="1" height="4" fill="rgb(255,255,255)" fill-opacity="0.0078125"/>
  <rect x="10" y="4" width="1" height="1" fill="rgb(61,51,24)" fill-opacity="0.7890625"/>
  <rect x="10" y="5" width="1" height="1" fill="rgb(244,229,185)"/>
  <rect x="10" y="6" width="1" height="1" fill="rgb(255,197,39)"/>
  <rect x="10" y="7" width="1" height="1" fill="rgb(255,196,31)"/>
  <rect x="10" y="8" width="1" height="1" fill="rgb(255,200,46)"/>
  <rect x="10" y="9" width="1" height="1" fill="rgb(255,203,60)"/>
  <rect x="10" y="10" width="1" height="1" fill="rgb(251,215,84)" fill-opacity="0.8515625"/>
  <rect x="10" y="11" width="1" height="1" fill="rgb(128,236,152)" fill-opacity="0.8515625"/>
  <rect x="10" y="12" width="1" height="1" fill="rgb(51,221,187)"/>
  <rect x="10" y="13" width="1" height="1" fill="rgb(35,218,182)"/>
  <rect x="10" y="14" width="1" height="1" fill="rgb(19,215,176)"/>
  <rect x="10" y="15" width="1" height="1" fill="rgb(20,216,177)"/>
  <rect x="10" y="16" width="1" height="1" fill="rgb(112,226,204)"/>
  <rect x="10" y="17" width="1" height="1" fill="rgb(24,40,37)" fill-opacity="0.8828125"/>
  <rect x="10" y="18" width="1" height="3" fill="rgb(255,255,255)" fill-opacity="0.0078125"/>
  <rect x="11" y="0" width="1" height="4" fill="rgb(255,255,255)" fill-opacity="0.0078125"/>
  <rect x="11" y="4" width="1" height="1" fill="rgb(61,36,25)" fill-opacity="0.7890625"/>
  <rect x="11" y="5" width="1" height="1" fill="rgb(244,200,183)"/>
  <rect x="11" y="6" width="1" height="1" fill="rgb(255,106,48)"/>
  <rect x="11" y="7" width="1" height="1" fill="rgb(255,102,41)"/>
  <rect x="11" y="8" width="1" height="1" fill="rgb(255,112,56)"/>
  <rect x="11" y="9" width="1" height="1" fill="rgb(255,122,69)"/>
  <rect x="11" y="10" width="1" height="1" fill="rgb(235,128,124)" fill-opacity="0.8515625"/>
  <rect x="11" y="11" width="1" height="1" fill="rgb(89,140,237)" fill-opacity="0.8515625"/>
  <rect x="11" y="12" width="1" height="1" fill="rgb(51,128,243)"/>
  <rect x="11" y="13" width="1" height="1" fill="rgb(35,118,242)"/>
  <rect x="11" y="14" width="1" height="2" fill="rgb(19,108,241)"/>
  <rect x="11" y="16" width="1" height="1" fill="rgb(107,160,241)"/>
  <rect x="11" y="17" width="1" height="1" fill="rgb(24,32,43)" fill-opacity="0.8828125"/>
  <rect x="11" y="18" width="1" height="3" fill="rgb(255,255,255)" fill-opacity="0.0078125"/>
  <rect x="12" y="0" width="1" height="4" fill="rgb(255,255,255)" fill-opacity="0.0078125"/>
  <rect x="12" y="4" width="1" height="1" fill="rgb(48,33,25)" fill-opacity="0.5234375"/>
  <rect x="12" y="5" width="1" height="1" fill="rgb(216,165,145)"/>
  <rect x="12" y="6" width="1" height="1" fill="rgb(255,129,79)"/>
  <rect x="12" y="7" width="1" height="1" fill="rgb(255,98,37)"/>
  <rect x="12" y="8" width="1" height="1" fill="rgb(255,107,49)"/>
  <rect x="12" y="9" width="1" height="1" fill="rgb(253,115,65)" fill-opacity="0.984375"/>
  <rect x="12" y="10" width="1" height="1" fill="rgb(193,93,169)" fill-opacity="0.8984375"/>
  <rect x="12" y="11" width="1" height="1" fill="rgb(168,100,185)" fill-opacity="0.8984375"/>
  <rect x="12" y="12" width="1" height="1" fill="rgb(42,122,242)" fill-opacity="0.984375"/>
  <rect x="12" y="13" width="1" height="1" fill="rgb(28,113,242)"/>
  <rect x="12" y="14" width="1" height="1" fill="rgb(14,105,241)"/>
  <rect x="12" y="15" width="1" height="1" fill="rgb(39,120,242)"/>
  <rect x="12" y="16" width="1" height="1" fill="rgb(83,134,211)"/>
  <rect x="12" y="17" width="1" height="1" fill="rgb(25,31,39)" fill-opacity="0.6484375"/>
  <rect x="12" y="18" width="1" height="3" fill="rgb(255,255,255)" fill-opacity="0.0078125"/>
  <rect x="13" y="0" width="1" height="4" fill="rgb(255,255,255)" fill-opacity="0.0078125"/>
  <rect x="13" y="4" width="1" height="1" fill="rgb(25,25,25)" fill-opacity="0.25"/>
  <rect x="13" y="5" width="1" height="1" fill="rgb(147,109,93)" fill-opacity="0.953125"/>
  <rect x="13" y="6" width="1" height="1" fill="rgb(255,175,144)"/>
  <rect x="13" y="7" width="1" height="1" fill="rgb(255,94,30)"/>
  <rect x="13" y="8" width="1" height="1" fill="rgb(255,100,39)"/>
  <rect x="13" y="9" width="1" height="1" fill="rgb(214,90,118)" fill-opacity="0.78125"/>
  <rect x="13" y="10" width="1" height="2" fill="rgb(183,73,161)"/>
  <rect x="13" y="12" width="1" height="1" fill="rgb(73,105,222)" fill-opacity="0.78125"/>
  <rect x="13" y="13" width="1" height="1" fill="rgb(17,107,241)"/>
  <rect x="13" y="14" width="1" height="1" fill="rgb(6,100,240)"/>
  <rect x="13" y="15" width="1" height="1" fill="rgb(85,149,245)"/>
  <rect x="13" y="16" width="1" height="1" fill="rgb(57,93,146)" fill-opacity="0.9296875"/>
  <rect x="13" y="17" width="1" height="1" fill="rgb(27,27,27)" fill-opacity="0.375"/>
  <rect x="13" y="18" width="1" height="3" fill="rgb(255,255,255)" fill-opacity="0.0078125"/>
  <rect x="14" y="0" width="1" height="5" fill="rgb(255,255,255)" fill-opacity="0.0078125"/>
  <rect x="14" y="5" width="1" height="1" fill="rgb(60,36,28)" fill-opacity="0.796875"/>
  <rect x="14" y="6" width="1" height="1" fill="rgb(227,164,140)"/>
  <rect x="14" y="7" width="1" height="1" fill="rgb(255,144,101)"/>
  <rect x="14" y="8" width="1" height="1" fill="rgb(247,90,40)" fill-opacity="0.9296875"/>
  <rect x="14" y="9" width="1" height="1" fill="rgb(177,56,152)" fill-opacity="0.953125"/>
  <rect x="14" y="10" width="1" height="2" fill="rgb(178,59,154)"/>
  <rect x="14" y="12" width="1" height="1" fill="rgb(166,60,158)" fill-opacity="0.953125"/>
  <rect x="14" y="13" width="1" height="1" fill="rgb(6,99,240)" fill-opacity="0.9296875"/>
  <rect x="14" y="14" width="1" height="1" fill="rgb(59,133,243)"/>
  <rect x="14" y="15" width="1" height="1" fill="rgb(83,139,222)"/>
  <rect x="14" y="16" width="1" height="1" fill="rgb(24,33,47)" fill-opacity="0.8515625"/>
  <rect x="14" y="17" width="1" height="1" fill="rgb(0,0,0)" fill-opacity="0.0234375"/>
  <rect x="14" y="18" width="1" height="3" fill="rgb(255,255,255)" fill-opacity="0.0078125"/>
  <rect x="15" y="0" width="1" height="5" fill="rgb(255,255,255)" fill-opacity="0.0078125"/>
  <rect x="15" y="5" width="1" height="1" fill="rgb(21,21,21)" fill-opacity="0.1015625"/>
  <rect x="15" y="6" width="1" height="1" fill="rgb(58,47,42)" fill-opacity="0.8984375"/>
  <rect x="15" y="7" width="1" height="1" fill="rgb(224,156,129)"/>
  <rect x="15" y="8" width="1" height="1" fill="rgb(223,156,189)" fill-opacity="0.8671875"/>
  <rect x="15" y="9" width="1" height="1" fill="rgb(187,81,166)"/>
  <rect x="15" y="10" width="1" height="1" fill="rgb(178,60,155)"/>
  <rect x="15" y="11" width="1" height="1" fill="rgb(178,59,154)"/>
  <rect x="15" y="12" width="1" height="1" fill="rgb(185,76,163)"/>
  <rect x="15" y="13" width="1" height="1" fill="rgb(150,145,219)" fill-opacity="0.84375"/>
  <rect x="15" y="14" width="1" height="1" fill="rgb(82,138,219)"/>
  <rect x="15" y="15" width="1" height="1" fill="rgb(34,42,53)" fill-opacity="0.890625"/>
  <rect x="15" y="16" width="1" height="1" fill="rgb(23,23,23)" fill-opacity="0.1796875"/>
  <rect x="15" y="17" width="1" height="4" fill="rgb(255,255,255)" fill-opacity="0.0078125"/>
  <rect x="16" y="0" width="1" height="6" fill="rgb(255,255,255)" fill-opacity="0.0078125"/>
  <rect x="16" y="6" width="1" height="1" fill="rgb(23,23,23)" fill-opacity="0.1328125"/>
  <rect x="16" y="7" width="1" height="1" fill="rgb(51,33,29)" fill-opacity="0.828125"/>
  <rect x="16" y="8" width="1" height="1" fill="rgb(123,84,115)" fill-opacity="0.9375"/>
  <rect x="16" y="9" width="1" height="1" fill="rgb(183,122,171)"/>
  <rect x="16" y="10" width="1" height="1" fill="rgb(207,142,194)"/>
  <rect x="16" y="11" width="1" height="1" fill="rgb(206,138,192)"/>
  <rect x="16" y="12" width="1" height="1" fill="rgb(179,110,165)"/>
  <rect x="16" y="13" width="1" height="1" fill="rgb(123,76,114)" fill-opacity="0.921875"/>
  <rect x="16" y="14" width="1" height="1" fill="rgb(26,31,43)" fill-opacity="0.859375"/>
  <rect x="16" y="15" width="1" height="1" fill="rgb(27,27,27)" fill-opacity="0.1953125"/>
  <rect x="16" y="16" width="1" height="5" fill="rgb(255,255,255)" fill-opacity="0.0078125"/>
  <rect x="17" y="0" width="1" height="7" fill="rgb(255,255,255)" fill-opacity="0.0078125"/>
  <rect x="17" y="7" width="1" height="1" fill="rgb(0,0,0)" fill-opacity="0.0078125"/>
  <rect x="17" y="8" width="1" height="1" fill="rgb(26,26,26)" fill-opacity="0.34375"/>
  <rect x="17" y="9" width="1" height="1" fill="rgb(35,27,33)" fill-opacity="0.640625"/>
  <rect x="17" y="10" width="1" height="1" fill="rgb(39,27,37)" fill-opacity="0.875"/>
  <rect x="17" y="11" width="1" height="1" fill="rgb(36,27,35)" fill-opacity="0.890625"/>
  <rect x="17" y="12" width="1" height="1" fill="rgb(33,27,33)" fill-opacity="0.6640625"/>
  <rect x="17" y="13" width="1" height="1" fill="rgb(26,26,26)" fill-opacity="0.390625"/>
  <rect x="17" y="14" width="1" height="1" fill="rgb(51,51,51)" fill-opacity="0.0234375"/>
  <rect x="17" y="15" width="1" height="6" fill="rgb(255,255,255)" fill-opacity="0.0078125"/>
  <rect x="18" y="0" width="1" height="21" fill="rgb(255,255,255)" fill-opacity="0.0078125"/>
  <rect x="19" y="0" width="1" height="21" fill="rgb(255,255,255)" fill-opacity="0.0078125"/>
  <rect x="20" y="0" width="1" height="21" fill="rgb(255,255,255)" fill-opacity="0.0078125"/>
</svg>