<svg xmlns="http://www.w3.org/2000/svg" shape-rendering="crispEdges" width="21" height="21" viewBox="0 0 21 21">
  <rect x="0" y="0" width="1" height="21" fill="rgb(255,255,255)" fill-opacity="0.0078125"/>
  <rect x="1" y="0" width="1" height="21" fill="rgb(255,255,255)" fill-opacity="0.0078125"/>
  <rect x="2" y="0" width="1" height="21" fill="rgb(255,255,255)" fill-opacity="0.0078125"/>
  <rect x="3" y="0" width="1" height="21" fill="rgb(255,255,255)" fill-opacity="0.0078125"/>
  <rect x="4" y="0" width="1" height="21" fill="rgb(255,255,255)" fill-opacity="0.0078125"/>
  <rect x="5" y="0" width="1" height="14" fill="rgb(255,255,255)" fill-opacity="0.0078125"/>
  <rect x="5" y="14" width="1" height="1" fill="rgb(0,0,0)" fill-opacity="0.046875"/>
  <rect x="5" y="15" width="1" height="1" fill="rgb(21,13,4)" fill-opacity="0.5390625"/>
  <rect x="5" y="16" width="1" height="1" fill="rgb(16,9,2)" fill-opacity="0.859375"/>
  <rect x="5" y="17" width="1" height="4" fill="rgb(255,255,255)" fill-opacity="0.0078125"/>
  <rect x="6" y="0" width="1" height="12" fill="rgb(255,255,255)" fill-opacity="0.0078125"/>
  <rect x="6" y="12" width="1" height="1" fill="rgb(0,0,0)" fill-opacity="0.015625"/>
  <rect x="6" y="13" width="1" height="1" fill="rgb(12,7,2)" fill-opacity="0.4140625"/>
  <rect x="6" y="14" width="1" height="1" fill="rgb(28,18,7)" fill-opacity="0.8984375"/>
  <rect x="6" y="15" width="1" height="1" fill="rgb(172,127,78)" fill-opacity="0.9765625"/>
  <rect x="6" y="16" width="1" height="1" fill="rgb(34,21,5)" fill-opacity="0.921875"/>
  <rect x="6" y="17" width="1" height="4" fill="rgb(255,255,255)" fill-opacity="0.0078125"/>
  <rect x="7" y="0" width="1" height="11" fill="rgb(255,255,255)" fill-opacity="0.0078125"/>
  <rect x="7" y="11" width="1" height="1" fill="rgb(3,3,0)" fill-opacity="0.3046875"/>
  <rect x="7" y="12" width="1" height="1" fill="rgb(24,14,5)" fill-opacity="0.875"/>
  <rect x="7" y="13" width="1" height="1" fill="rgb(161,129,92)" fill-opacity="0.96875"/>
  <rect x="7" y="14" width="1" height="1" fill="rgb(253,236,217)"/>
  <rect x="7" y="15" width="1" height="1" fill="rgb(255,231,204)"/>
  <rect x="7" y="16" width="1" height="1" fill="rgb(39,26,12)" fill-opacity="0.9140625"/>
  <rect x="7" y="17" width="1" height="4" fill="rgb(255,255,255)" fill-opacity="0.0078125"/>
  <rect x="8" y="0" width="1" height="9" fill="rgb(255,255,255)" fill-opacity="0.0078125"/>
  <rect x="8" y="9" width="1" height="1" fill="rgb(0,0,0)" fill-opacity="0.203125"/>
  <rect x="8" y="10" width="1" height="1" fill="rgb(25,15,4)" fill-opacity="0.8125"/>
  <rect x="8" y="11" width="1" height="1" fill="rgb(131,104,74)" fill-opacity="0.9453125"/>
  <rect x="8" y="12" width="1" height="1" fill="rgb(249,228,205)"/>
  <rect x="8" y="13" width="1" height="1" fill="rgb(255,237,218)"/>
  <rect x="8" y="14" width="1" height="1" fill="rgb(255,188,116)"/>
  <rect x="8" y="15" width="1" height="1" fill="rgb(255,163,65)"/>
  <rect x="8" y="16" width="1" height="1" fill="rgb(36,24,10)" fill-opacity="0.9140625"/>
  <rect x="8" y="17" width="1" height="4" fill="rgb(255,255,255)" fill-opacity="0.0078125"/>
  <rect x="9" y="0" width="1" height="7" fill="rgb(255,255,255)" fill-opacity="0.0078125"/>
  <rect x="9" y="7" width="1" height="1" fill="rgb(0,0,0)" fill-opacity="0.1328125"/>
  <rect x="9" y="8" width="1" height="1" fill="rgb(25,15,4)" fill-opacity="0.71875"/>
  <rect x="9" y="9" width="1" height="1" fill="rgb(100,78,56)" fill-opacity="0.9375"/>
  <rect x="9" y="10" width="1" height="1" fill="rgb(243,217,190)"/>
  <rect x="9" y="11" width="1" height="1" fill="rgb(255,242,229)"/>
  <rect x="9" y="12" width="1" height="1" fill="rgb(255,196,131)"/>
  <rect x="9" y="13" width="1" height="1" fill="rgb(255,166,68)"/>
  <rect x="9" y="14" width="1" height="1" fill="rgb(255,168,74)"/>
  <rect x="9" y="15" width="1" height="1" fill="rgb(255,171,81)"/>
  <rect x="9" y="16" width="1" height="1" fill="rgb(36,24,12)" fill-opacity="0.9140625"/>
  <rect x="9" y="17" width="1" height="4" fill="rgb(255,255,255)" fill-opacity="0.0078125"/>
  <rect x="10" y="0" width="1" height="5" fill="rgb(255,255,255)" fill-opacity="0.0078125"/>
  <rect x="10" y="5" width="1" height="1" fill="rgb(0,0,0)" fill-opacity="0.0703125"/>
  <rect x="10" y="6" width="1" height="1" fill="rgb(25,15,5)" fill-opacity="0.6171875"/>
  <rect x="10" y="7" width="1" height="1" fill="rgb(63,46,29)" fill-opacity="0.9296875"/>
  <rect x="10" y="8" width="1" height="1" fill="rgb(232,204,175)"/>
  <rect x="10" y="9" width="1" height="1" fill="rgb(236,228,218)"/>
  <rect x="10" y="10" width="1" height="1" fill="rgb(223,177,128)"/>
  <rect x="10" y="11" width="1" height="1" fill="rgb(223,147,65)"/>
  <rect x="10" y="12" width="1" height="1" fill="rgb(240,159,72)"/>
  <rect x="10" y="13" width="1" height="1" fill="rgb(255,173,85)"/>
  <rect x="10" y="14" width="1" height="1" fill="rgb(234,186,136)"/>
  <rect x="10" y="15" width="1" height="1" fill="rgb(255,204,149)"/>
  <rect x="10" y="16" width="1" height="1" fill="rgb(36,25,14)" fill-opacity="0.9140625"/>
  <rect x="10" y="17" width="1" height="4" fill="rgb(255,255,255)" fill-opacity="0.0078125"/>
  <rect x="11" y="0" width="1" height="5" fill="rgb(255,255,255)" fill-opacity="0.0078125"/>
  <rect x="11" y="5" width="1" height="1" fill="rgb(19,11,4)" fill-opacity="0.53125"/>
  <rect x="11" y="6" width="1" height="1" fill="rgb(37,23,7)" fill-opacity="0.96875"/>
  <rect x="11" y="7" width="1" height="1" fill="rgb(236,167,92)"/>
  <rect x="11" y="8" width="1" height="1" fill="rgb(255,207,155)"/>
  <rect x="11" y="9" width="1" height="1" fill="rgb(59,40,19)"/>
  <rect x="11" y="10" width="1" height="2" fill="rgb(7,5,2)"/>
  <rect x="11" y="12" width="1" height="1" fill="rgb(73,57,39)"/>
  <rect x="11" y="13" width="1" height="1" fill="rgb(230,206,179)"/>
  <rect x="11" y="14" width="1" height="1" fill="rgb(22,22,22)"/>
  <rect x="11" y="15" width="1" height="1" fill="rgb(230,223,215)"/>
  <rect x="11" y="16" width="1" height="1" fill="rgb(36,26,16)" fill-opacity="0.9140625"/>
  <rect x="11" y="17" width="1" height="4" fill="rgb(255,255,255)" fill-opacity="0.0078125"/>
  <rect x="12" y="0" width="1" height="6" fill="rgb(255,255,255)" fill-opacity="0.0078125"/>
  <rect x="12" y="6" width="1" height="1" fill="rgb(6,3,3)" fill-opacity="0.3125"/>
  <rect x="12" y="7" width="1" height="1" fill="rgb(25,16,7)" fill-opacity="0.875"/>
  <rect x="12" y="8" width="1" height="1" fill="rgb(123,83,39)" fill-opacity="0.953125"/>
  <rect x="12" y="9" width="1" height="1" fill="rgb(244,167,84)"/>
  <rect x="12" y="10" width="1" height="1" fill="rgb(255,187,114)"/>
  <rect x="12" y="11" width="1" height="1" fill="rgb(255,211,164)"/>
  <rect x="12" y="12" width="1" height="1" fill="rgb(255,231,206)"/>
  <rect x="12" y="13" width="1" height="1" fill="rgb(255,218,179)"/>
  <rect x="12" y="14" width="1" height="1" fill="rgb(255,238,220)"/>
  <rect x="12" y="15" width="1" height="1" fill="rgb(255,213,168)"/>
  <rect x="12" y="16" width="1" height="1" fill="rgb(36,27,19)" fill-opacity="0.9140625"/>
  <rect x="12" y="17" width="1" height="4" fill="rgb(255,255,255)" fill-opacity="0.0078125"/>
  <rect x="13" y="0" width="1" height="7" fill="rgb(255,255,255)" fill-opacity="0.0078125"/>
  <rect x="13" y="7" width="1" height="1" fill="rgb(0,0,0)" fill-opacity="0.015625"/>
  <rect x="13" y="8" width="1" height="1" fill="rgb(16,12,5)" fill-opacity="0.4296875"/>
  <rect x="13" y="9" width="1" height="1" fill="rgb(27,19,11)" fill-opacity="0.90625"/>
  <rect x="13" y="10" width="1" height="1" fill="rgb(150,109,66)" fill-opacity="0.9765625"/>
  <rect x="13" y="11" width="1" height="1" fill="rgb(252,187,116)"/>
  <rect x="13" y="12" width="1" height="1" fill="rgb(255,192,124)"/>
  <rect x="13" y="13" width="1" height="1" fill="rgb(255,195,130)"/>
  <rect x="13" y="14" width="1" height="1" fill="rgb(255,198,137)"/>
  <rect x="13" y="15" width="1" height="1" fill="rgb(255,201,143)"/>
  <rect x="13" y="16" width="1" height="1" fill="rgb(36,28,21)" fill-opacity="0.9140625"/>
  <rect x="13" y="17" width="1" height="4" fill="rgb(255,255,255)" fill-opacity="0.0078125"/>
  <rect x="14" y="0" width="1" height="9" fill="rgb(255,255,255)" fill-opacity="0.0078125"/>
  <rect x="14" y="9" width="1" height="1" fill="rgb(0,0,0)" fill-opacity="0.046875"/>
  <rect x="14" y="10" width="1" height="1" fill="rgb(22,17,11)" fill-opacity="0.546875"/>
  <rect x="14" y="11" width="1" height="1" fill="rgb(35,26,19)" fill-opacity="0.9140625"/>
  <rect x="14" y="12" width="1" height="1" fill="rgb(177,139,97)" fill-opacity="0.9921875"/>
  <rect x="14" y="13" width="1" height="1" fill="rgb(255,203,146)"/>
  <rect x="14" y="14" width="1" height="1" fill="rgb(255,206,152)"/>
  <rect x="14" y="15" width="1" height="1" fill="rgb(255,209,159)"/>
  <rect x="14" y="16" width="1" height="1" fill="rgb(36,30,23)" fill-opacity="0.9140625"/>
  <rect x="14" y="17" width="1" height="4" fill="rgb(255,255,255)" fill-opacity="0.0078125"/>
  <rect x="15" y="0" width="1" height="11" fill="rgb(255,255,255)" fill-opacity="0.0078125"/>
  <rect x="15" y="11" width="1" height="1" fill="rgb(0,0,0)" fill-opacity="0.09375"/>
  <rect x="15" y="12" width="1" height="1" fill="rgb(24,20,15)" fill-opacity="0.65625"/>
  <rect x="15" y="13" width="1" height="1" fill="rgb(50,41,32)" fill-opacity="0.921875"/>
  <rect x="15" y="14" width="1" height="1" fill="rgb(202,169,133)"/>
  <rect x="15" y="15" width="1" height="1" fill="rgb(255,216,175)"/>
  <rect x="15" y="16" width="1" height="1" fill="rgb(36,31,25)" fill-opacity="0.9140625"/>
  <rect x="15" y="17" width="1" height="4" fill="rgb(255,255,255)" fill-opacity="0.0078125"/>
  <rect x="16" y="0" width="1" height="13" fill="rgb(255,255,255)" fill-opacity="0.0078125"/>
  <rect x="16" y="13" width="1" height="1" fill="rgb(0,0,0)" fill-opacity="0.1640625"/>
  <rect x="16" y="14" width="1" height="1" fill="rgb(25,21,17)" fill-opacity="0.765625"/>
  <rect x="16" y="15" width="1" height="1" fill="rgb(73,64,54)" fill-opacity="0.9296875"/>
  <rect x="16" y="16" width="1" height="1" fill="rgb(26,22,19)" fill-opacity="0.9375"/>
  <rect x="16" y="17" width="1" height="4" fill="rgb(255,255,255)" fill-opacity="0.0078125"/>
  <rect x="17" y="0" width="1" height="15" fill="rgb(255,255,255)" fill-opacity="0.0078125"/>
  <rect x="17" y="15" width="1" height="1" fill="rgb(0,0,0)" fill-opacity="0.2421875"/>
  <rect x="17" y="16" width="1" height="1" fill="rgb(23,21,20)" fill-opacity="0.6171875"/>
  <rect x="17" y="17" width="1" height="4" fill="rgb(255,255,255)" fill-opacity="0.0078125"/>
  <rect x="18" y="0" width="1" height="21" fill="rgb(255,255,255)" fill-opacity="0.0078125"/>
  <rect x="19" y="0" width="1" height="21" fill="rgb(255,255,255)" fill-opacity="0.0078125"/>
  <rect x="20" y="0" width="1" height="21" fill="rgb(255,255,255)" fill-opacity="0.0078125"/>
</svg>