<svg xmlns="http://www.w3.org/2000/svg" shape-rendering="crispEdges" width="21" height="21" viewBox="0 0 21 21">
  <rect x="0" y="0" width="21" height="1" fill="rgb(255,255,255)" fill-opacity="0.0078125"/>
  <rect x="0" y="1" width="21" height="1" fill="rgb(255,255,255)" fill-opacity="0.0078125"/>
  <rect x="0" y="2" width="21" height="1" fill="rgb(255,255,255)" fill-opacity="0.0078125"/>
  <rect x="0" y="3" width="21" height="1" fill="rgb(255,255,255)" fill-opacity="0.0078125"/>
  <rect x="0" y="4" width="10" height="1" fill="rgb(255,255,255)" fill-opacity="0.0078125"/>
  <rect x="10" y="4" width="1" height="1" fill="rgb(42,23,0)" fill-opacity="0.6171875"/>
  <rect x="11" y="4" width="1" height="1" fill="rgb(43,22,0)" fill-opacity="0.7734375"/>
  <rect x="12" y="4" width="1" height="1" fill="rgb(43,23,0)" fill-opacity="0.4453125"/>
  <rect x="13" y="4" width="1" height="1" fill="rgb(44,22,0)" fill-opacity="0.09375"/>
  <rect x="14" y="4" width="7" height="1" fill="rgb(255,255,255)" fill-opacity="0.0078125"/>
  <rect x="0" y="5" width="10" height="1" fill="rgb(255,255,255)" fill-opacity="0.0078125"/>
  <rect x="10" y="5" width="1" height="1" fill="rgb(44,22,0)" fill-opacity="0.8984375"/>
  <rect x="11" y="5" width="1" height="1" fill="rgb(231,217,202)"/>
  <rect x="12" y="5" width="1" height="1" fill="rgb(207,192,176)" fill-opacity="0.984375"/>
  <rect x="13" y="5" width="1" height="1" fill="rgb(94,76,54)" fill-opacity="0.9140625"/>
  <rect x="14" y="5" width="1" height="1" fill="rgb(43,22,0)" fill-opacity="0.625"/>
  <rect x="15" y="5" width="1" height="1" fill="rgb(43,19,0)" fill-opacity="0.265625"/>
  <rect x="16" y="5" width="1" height="1" fill="rgb(0,0,0)" fill-opacity="0.015625"/>
  <rect x="17" y="5" width="4" height="1" fill="rgb(255,255,255)" fill-opacity="0.0078125"/>
  <rect x="0" y="6" width="9" height="1" fill="rgb(255,255,255)" fill-opacity="0.0078125"/>
  <rect x="9" y="6" width="1" height="1" fill="rgb(0,0,0)" fill-opacity="0.0078125"/>
  <rect x="10" y="6" width="1" height="1" fill="rgb(43,23,0)" fill-opacity="0.8828125"/>
  <rect x="11" y="6" width="1" height="1" fill="rgb(198,144,82)"/>
  <rect x="12" y="6" width="1" height="1" fill="rgb(229,207,184)"/>
  <rect x="13" y="6" width="1" height="1" fill="rgb(247,242,237)"/>
  <rect x="14" y="6" width="1" height="1" fill="rgb(231,220,209)"/>
  <rect x="15" y="6" width="1" height="1" fill="rgb(147,126,103)" fill-opacity="0.9609375"/>
  <rect x="16" y="6" width="1" height="1" fill="rgb(42,23,0)" fill-opacity="0.6015625"/>
  <rect x="17" y="6" width="4" height="1" fill="rgb(255,255,255)" fill-opacity="0.0078125"/>
  <rect x="0" y="7" width="9" height="1" fill="rgb(255,255,255)" fill-opacity="0.0078125"/>
  <rect x="9" y="7" width="1" height="1" fill="rgb(46,20,0)" fill-opacity="0.3125"/>
  <rect x="10" y="7" width="1" height="1" fill="rgb(99,57,13)" fill-opacity="0.9296875"/>
  <rect x="11" y="7" width="1" height="1" fill="rgb(210,129,40)"/>
  <rect x="12" y="7" width="1" height="1" fill="rgb(200,122,37)"/>
  <rect x="13" y="7" width="1" height="1" fill="rgb(192,122,46)"/>
  <rect x="14" y="7" width="1" height="1" fill="rgb(216,182,146)"/>
  <rect x="15" y="7" width="1" height="1" fill="rgb(237,224,211)"/>
  <rect x="16" y="7" width="1" height="1" fill="rgb(45,24,1)" fill-opacity="0.90625"/>
  <rect x="17" y="7" width="1" height="1" fill="rgb(0,0,0)" fill-opacity="0.0078125"/>
  <rect x="18" y="7" width="3" height="1" fill="rgb(255,255,255)" fill-opacity="0.0078125"/>
  <rect x="0" y="8" width="7" height="1" fill="rgb(255,255,255)" fill-opacity="0.0078125"/>
  <rect x="7" y="8" width="1" height="1" fill="rgb(46,23,0)" fill-opacity="0.046875"/>
  <rect x="8" y="8" width="1" height="1" fill="rgb(43,23,0)" fill-opacity="0.5390625"/>
  <rect x="9" y="8" width="1" height="1" fill="rgb(100,58,14)" fill-opacity="0.921875"/>
  <rect x="10" y="8" width="1" height="1" fill="rgb(220,135,46)" fill-opacity="0.984375"/>
  <rect x="11" y="8" width="1" height="1" fill="rgb(232,143,47)"/>
  <rect x="12" y="8" width="1" height="1" fill="rgb(223,138,44)"/>
  <rect x="13" y="8" width="1" height="1" fill="rgb(214,131,41)"/>
  <rect x="14" y="8" width="1" height="1" fill="rgb(202,122,38)"/>
  <rect x="15" y="8" width="1" height="1" fill="rgb(236,215,193)"/>
  <rect x="16" y="8" width="1" height="1" fill="rgb(56,33,10)" fill-opacity="0.90625"/>
  <rect x="17" y="8" width="1" height="1" fill="rgb(51,0,0)" fill-opacity="0.0234375"/>
  <rect x="18" y="8" width="3" height="1" fill="rgb(255,255,255)" fill-opacity="0.0078125"/>
  <rect x="0" y="9" width="6" height="1" fill="rgb(255,255,255)" fill-opacity="0.0078125"/>
  <rect x="6" y="9" width="1" height="1" fill="rgb(42,23,0)" fill-opacity="0.21875"/>
  <rect x="7" y="9" width="1" height="1" fill="rgb(52,32,6)" fill-opacity="0.796875"/>
  <rect x="8" y="9" width="1" height="1" fill="rgb(190,145,97)" fill-opacity="0.96875"/>
  <rect x="9" y="9" width="1" height="1" fill="rgb(248,185,116)"/>
  <rect x="10" y="9" width="1" height="1" fill="rgb(246,156,58)"/>
  <rect x="11" y="9" width="1" height="1" fill="rgb(247,154,52)"/>
  <rect x="12" y="9" width="1" height="1" fill="rgb(244,151,51)"/>
  <rect x="13" y="9" width="1" height="1" fill="rgb(234,145,48)"/>
  <rect x="14" y="9" width="1" height="1" fill="rgb(230,161,84)"/>
  <rect x="15" y="9" width="1" height="1" fill="rgb(234,208,179)"/>
  <rect x="16" y="9" width="1" height="1" fill="rgb(45,24,1)" fill-opacity="0.84375"/>
  <rect x="17" y="9" width="1" height="1" fill="rgb(0,0,0)" fill-opacity="0.0078125"/>
  <rect x="18" y="9" width="3" height="1" fill="rgb(255,255,255)" fill-opacity="0.0078125"/>
  <rect x="0" y="10" width="5" height="1" fill="rgb(255,255,255)" fill-opacity="0.0078125"/>
  <rect x="5" y="10" width="1" height="1" fill="rgb(45,21,0)" fill-opacity="0.296875"/>
  <rect x="6" y="10" width="1" height="1" fill="rgb(88,58,27)" fill-opacity="0.9140625"/>
  <rect x="7" y="10" width="1" height="1" fill="rgb(231,190,146)" fill-opacity="0.9921875"/>
  <rect x="8" y="10" width="1" height="1" fill="rgb(251,219,185)"/>
  <rect x="9" y="10" width="1" height="1" fill="rgb(252,217,180)"/>
  <rect x="10" y="10" width="1" height="1" fill="rgb(251,210,164)"/>
  <rect x="11" y="10" width="1" height="1" fill="rgb(251,195,135)"/>
  <rect x="12" y="10" width="1" height="1" fill="rgb(248,166,77)"/>
  <rect x="13" y="10" width="1" height="1" fill="rgb(250,194,133)"/>
  <rect x="14" y="10" width="1" height="1" fill="rgb(247,221,193)"/>
  <rect x="15" y="10" width="1" height="1" fill="rgb(145,111,77)" fill-opacity="0.9453125"/>
  <rect x="16" y="10" width="1" height="1" fill="rgb(43,22,0)" fill-opacity="0.4921875"/>
  <rect x="17" y="10" width="4" height="1" fill="rgb(255,255,255)" fill-opacity="0.0078125"/>
  <rect x="0" y="11" width="5" height="1" fill="rgb(255,255,255)" fill-opacity="0.0078125"/>
  <rect x="5" y="11" width="1" height="1" fill="rgb(44,22,0)" fill-opacity="0.734375"/>
  <rect x="6" y="11" width="1" height="1" fill="rgb(196,121,40)" fill-opacity="0.9765625"/>
  <rect x="7" y="11" width="1" height="1" fill="rgb(249,183,112)"/>
  <rect x="8" y="11" width="1" height="1" fill="rgb(251,207,158)"/>
  <rect x="9" y="11" width="1" height="1" fill="rgb(252,217,179)"/>
  <rect x="10" y="11" width="1" height="1" fill="rgb(252,225,196)"/>
  <rect x="11" y="11" width="1" height="1" fill="rgb(252,226,198)"/>
  <rect x="12" y="11" width="1" height="1" fill="rgb(253,238,222)"/>
  <rect x="13" y="11" width="1" height="1" fill="rgb(226,202,177)" fill-opacity="0.984375"/>
  <rect x="14" y="11" width="1" height="1" fill="rgb(79,56,29)" fill-opacity="0.90625"/>
  <rect x="15" y="11" width="1" height="1" fill="rgb(44,23,0)" fill-opacity="0.5234375"/>
  <rect x="16" y="11" width="1" height="1" fill="rgb(64,32,0)" fill-opacity="0.0390625"/>
  <rect x="17" y="11" width="4" height="1" fill="rgb(255,255,255)" fill-opacity="0.0078125"/>
  <rect x="0" y="12" width="4" height="1" fill="rgb(255,255,255)" fill-opacity="0.0078125"/>
  <rect x="4" y="12" width="1" height="1" fill="rgb(51,0,0)" fill-opacity="0.0234375"/>
  <rect x="5" y="12" width="1" height="1" fill="rgb(48,26,1)" fill-opacity="0.90625"/>
  <rect x="6" y="12" width="1" height="1" fill="rgb(244,152,52)"/>
  <rect x="7" y="12" width="2" height="1" fill="rgb(247,154,52)"/>
  <rect x="9" y="12" width="1" height="1" fill="rgb(250,184,112)"/>
  <rect x="10" y="12" width="1" height="1" fill="rgb(251,215,175)"/>
  <rect x="11" y="12" width="1" height="1" fill="rgb(252,240,228)"/>
  <rect x="12" y="12" width="1" height="1" fill="rgb(144,122,100)" fill-opacity="0.953125"/>
  <rect x="13" y="12" width="1" height="1" fill="rgb(43,21,0)" fill-opacity="0.671875"/>
  <rect x="14" y="12" width="1" height="1" fill="rgb(41,23,0)" fill-opacity="0.1796875"/>
  <rect x="15" y="12" width="6" height="1" fill="rgb(255,255,255)" fill-opacity="0.0078125"/>
  <rect x="0" y="13" width="4" height="1" fill="rgb(255,255,255)" fill-opacity="0.0078125"/>
  <rect x="4" y="13" width="1" height="1" fill="rgb(85,0,0)" fill-opacity="0.015625"/>
  <rect x="5" y="13" width="1" height="1" fill="rgb(45,23,0)" fill-opacity="0.90625"/>
  <rect x="6" y="13" width="1" height="1" fill="rgb(245,155,55)"/>
  <rect x="7" y="13" width="1" height="1" fill="rgb(247,156,57)"/>
  <rect x="8" y="13" width="2" height="1" fill="rgb(247,154,52)"/>
  <rect x="10" y="13" width="1" height="1" fill="rgb(251,201,148)"/>
  <rect x="11" y="13" width="1" height="1" fill="rgb(162,128,94)" fill-opacity="0.953125"/>
  <rect x="12" y="13" width="1" height="1" fill="rgb(44,22,0)" fill-opacity="0.4609375"/>
  <rect x="13" y="13" width="8" height="1" fill="rgb(255,255,255)" fill-opacity="0.0078125"/>
  <rect x="0" y="14" width="5" height="1" fill="rgb(255,255,255)" fill-opacity="0.0078125"/>
  <rect x="5" y="14" width="1" height="1" fill="rgb(42,21,0)" fill-opacity="0.7578125"/>
  <rect x="6" y="14" width="1" height="1" fill="rgb(157,96,32)" fill-opacity="0.953125"/>
  <rect x="7" y="14" width="1" height="1" fill="rgb(242,166,84)" fill-opacity="0.9921875"/>
  <rect x="8" y="14" width="1" height="1" fill="rgb(248,170,85)"/>
  <rect x="9" y="14" width="1" height="1" fill="rgb(247,157,57)"/>
  <rect x="10" y="14" width="1" height="1" fill="rgb(250,211,169)"/>
  <rect x="11" y="14" width="1" height="1" fill="rgb(57,33,8)" fill-opacity="0.90625"/>
  <rect x="12" y="14" width="1" height="1" fill="rgb(51,17,0)" fill-opacity="0.0625"/>
  <rect x="13" y="14" width="8" height="1" fill="rgb(255,255,255)" fill-opacity="0.0078125"/>
  <rect x="0" y="15" width="5" height="1" fill="rgb(255,255,255)" fill-opacity="0.0078125"/>
  <rect x="5" y="15" width="1" height="1" fill="rgb(46,27,0)" fill-opacity="0.1171875"/>
  <rect x="6" y="15" width="1" height="1" fill="rgb(42,22,0)" fill-opacity="0.6015625"/>
  <rect x="7" y="15" width="1" height="1" fill="rgb(71,42,11)" fill-opacity="0.9140625"/>
  <rect x="8" y="15" width="1" height="1" fill="rgb(189,133,73)" fill-opacity="0.96875"/>
  <rect x="9" y="15" width="1" height="1" fill="rgb(248,192,132)"/>
  <rect x="10" y="15" width="1" height="1" fill="rgb(250,207,162)"/>
  <rect x="11" y="15" width="1" height="1" fill="rgb(43,23,0)" fill-opacity="0.8828125"/>
  <rect x="12" y="15" width="9" height="1" fill="rgb(255,255,255)" fill-opacity="0.0078125"/>
  <rect x="0" y="16" width="7" height="1" fill="rgb(255,255,255)" fill-opacity="0.0078125"/>
  <rect x="7" y="16" width="1" height="1" fill="rgb(42,26,0)" fill-opacity="0.1953125"/>
  <rect x="8" y="16" width="1" height="1" fill="rgb(44,22,0)" fill-opacity="0.6875"/>
  <rect x="9" y="16" width="1" height="1" fill="rgb(97,63,29)" fill-opacity="0.921875"/>
  <rect x="10" y="16" width="1" height="1" fill="rgb(212,163,109)" fill-opacity="0.984375"/>
  <rect x="11" y="16" width="1" height="1" fill="rgb(43,22,0)" fill-opacity="0.8984375"/>
  <rect x="12" y="16" width="9" height="1" fill="rgb(255,255,255)" fill-opacity="0.0078125"/>
  <rect x="0" y="17" width="9" height="1" fill="rgb(255,255,255)" fill-opacity="0.0078125"/>
  <rect x="9" y="17" width="1" height="1" fill="rgb(44,22,0)" fill-opacity="0.28125"/>
  <rect x="10" y="17" width="1" height="1" fill="rgb(44,22,0)" fill-opacity="0.7265625"/>
  <rect x="11" y="17" width="1" height="1" fill="rgb(44,23,0)" fill-opacity="0.625"/>
  <rect x="12" y="17" width="9" height="1" fill="rgb(255,255,255)" fill-opacity="0.0078125"/>
  <rect x="0" y="18" width="21" height="1" fill="rgb(255,255,255)" fill-opacity="0.0078125"/>
  <rect x="0" y="19" width="21" height="1" fill="rgb(255,255,255)" fill-opacity="0.0078125"/>
  <rect x="0" y="20" width="21" height="1" fill="rgb(255,255,255)" fill-opacity="0.0078125"/>
</svg>