<svg xmlns="http://www.w3.org/2000/svg" shape-rendering="crispEdges" width="21" height="21" viewBox="0 0 21 21">
  <rect x="0" y="0" width="21" height="1" fill="rgb(255,255,255)" fill-opacity="0.0078125"/>
  <rect x="0" y="1" width="21" height="1" fill="rgb(255,255,255)" fill-opacity="0.0078125"/>
  <rect x="0" y="2" width="4" height="1" fill="rgb(255,255,255)" fill-opacity="0.0078125"/>
  <rect x="4" y="2" width="2" height="1" fill="rgb(20,39,78)" fill-opacity="0.0546875"/>
  <rect x="6" y="2" width="10" height="1" fill="rgb(255,255,255)" fill-opacity="0.0078125"/>
  <rect x="16" y="2" width="2" height="1" fill="rgb(21,43,85)" fill-opacity="0.1015625"/>
  <rect x="18" y="2" width="3" height="1" fill="rgb(255,255,255)" fill-opacity="0.0078125"/>
  <rect x="0" y="3" width="3" height="1" fill="rgb(255,255,255)" fill-opacity="0.0078125"/>
  <rect x="3" y="3" width="1" height="1" fill="rgb(21,44,80)" fill-opacity="0.4765625"/>
  <rect x="4" y="3" width="2" height="1" fill="rgb(24,46,80)" fill-opacity="0.9765625"/>
  <rect x="6" y="3" width="1" height="1" fill="rgb(21,44,80)" fill-opacity="0.4765625"/>
  <rect x="7" y="3" width="8" height="1" fill="rgb(255,255,255)" fill-opacity="0.0078125"/>
  <rect x="15" y="3" width="1" height="1" fill="rgb(21,44,79)" fill-opacity="0.5234375"/>
  <rect x="16" y="3" width="2" height="1" fill="rgb(22,45,80)" fill-opacity="0.9921875"/>
  <rect x="18" y="3" width="1" height="1" fill="rgb(21,44,79)" fill-opacity="0.5234375"/>
  <rect x="19" y="3" width="2" height="1" fill="rgb(255,255,255)" fill-opacity="0.0078125"/>
  <rect x="0" y="4" width="2" height="1" fill="rgb(255,255,255)" fill-opacity="0.0078125"/>
  <rect x="2" y="4" width="1" height="1" fill="rgb(24,49,85)" fill-opacity="0.0859375"/>
  <rect x="3" y="4" width="1" height="1" fill="rgb(23,46,80)" fill-opacity="0.984375"/>
  <rect x="4" y="4" width="2" height="1" fill="rgb(207,219,234)"/>
  <rect x="6" y="4" width="1" height="1" fill="rgb(23,46,81)" fill-opacity="0.9921875"/>
  <rect x="7" y="4" width="1" height="1" fill="rgb(33,64,116)" fill-opacity="0.546875"/>
  <rect x="8" y="4" width="6" height="1" fill="rgb(34,67,121)" fill-opacity="0.5078125"/>
  <rect x="14" y="4" width="1" height="1" fill="rgb(31,63,114)" fill-opacity="0.5546875"/>
  <rect x="15" y="4" width="1" height="1" fill="rgb(23,45,80)"/>
  <rect x="16" y="4" width="2" height="1" fill="rgb(211,223,239)"/>
  <rect x="18" y="4" width="1" height="1" fill="rgb(23,46,80)" fill-opacity="0.9921875"/>
  <rect x="19" y="4" width="1" height="1" fill="rgb(21,43,85)" fill-opacity="0.1015625"/>
  <rect x="20" y="4" width="1" height="1" fill="rgb(255,255,255)" fill-opacity="0.0078125"/>
  <rect x="0" y="5" width="2" height="1" fill="rgb(255,255,255)" fill-opacity="0.0078125"/>
  <rect x="2" y="5" width="1" height="1" fill="rgb(19,47,76)" fill-opacity="0.109375"/>
  <rect x="3" y="5" width="1" height="1" fill="rgb(22,45,80)"/>
  <rect x="4" y="5" width="2" height="1" fill="rgb(215,227,244)"/>
  <rect x="6" y="5" width="1" height="1" fill="rgb(22,46,81)"/>
  <rect x="7" y="5" width="1" height="1" fill="rgb(149,173,207)" fill-opacity="0.734375"/>
  <rect x="8" y="5" width="6" height="1" fill="rgb(171,195,229)" fill-opacity="0.703125"/>
  <rect x="14" y="5" width="1" height="1" fill="rgb(151,175,210)" fill-opacity="0.734375"/>
  <rect x="15" y="5" width="1" height="1" fill="rgb(22,46,80)"/>
  <rect x="16" y="5" width="2" height="1" fill="rgb(215,227,244)"/>
  <rect x="18" y="5" width="1" height="1" fill="rgb(22,45,79)"/>
  <rect x="19" y="5" width="1" height="1" fill="rgb(20,41,82)" fill-opacity="0.1015625"/>
  <rect x="20" y="5" width="1" height="1" fill="rgb(255,255,255)" fill-opacity="0.0078125"/>
  <rect x="0" y="6" width="3" height="1" fill="rgb(255,255,255)" fill-opacity="0.0078125"/>
  <rect x="3" y="6" width="1" height="1" fill="rgb(24,46,80)" fill-opacity="0.59375"/>
  <rect x="4" y="6" width="2" height="1" fill="rgb(34,56,90)"/>
  <rect x="6" y="6" width="1" height="1" fill="rgb(28,54,94)" fill-opacity="0.8671875"/>
  <rect x="7" y="6" width="8" height="1" fill="rgb(38,72,124)" fill-opacity="0.5625"/>
  <rect x="15" y="6" width="1" height="1" fill="rgb(28,55,95)" fill-opacity="0.859375"/>
  <rect x="16" y="6" width="1" height="1" fill="rgb(28,52,86)"/>
  <rect x="17" y="6" width="1" height="1" fill="rgb(28,51,85)"/>
  <rect x="18" y="6" width="1" height="1" fill="rgb(23,46,80)" fill-opacity="0.5625"/>
  <rect x="19" y="6" width="2" height="1" fill="rgb(255,255,255)" fill-opacity="0.0078125"/>
  <rect x="0" y="7" width="4" height="1" fill="rgb(255,255,255)" fill-opacity="0.0078125"/>
  <rect x="4" y="7" width="1" height="1" fill="rgb(30,64,111)" fill-opacity="0.6015625"/>
  <rect x="5" y="7" width="1" height="1" fill="rgb(145,169,204)" fill-opacity="0.75"/>
  <rect x="6" y="7" width="1" height="1" fill="rgb(34,68,119)" fill-opacity="0.53125"/>
  <rect x="7" y="7" width="8" height="1" fill="rgb(255,255,255)" fill-opacity="0.0078125"/>
  <rect x="15" y="7" width="1" height="1" fill="rgb(34,68,119)" fill-opacity="0.53125"/>
  <rect x="16" y="7" width="1" height="1" fill="rgb(152,174,209)" fill-opacity="0.7421875"/>
  <rect x="17" y="7" width="1" height="1" fill="rgb(33,63,111)" fill-opacity="0.5859375"/>
  <rect x="18" y="7" width="3" height="1" fill="rgb(255,255,255)" fill-opacity="0.0078125"/>
  <rect x="0" y="8" width="4" height="1" fill="rgb(255,255,255)" fill-opacity="0.0078125"/>
  <rect x="4" y="8" width="1" height="1" fill="rgb(34,68,119)" fill-opacity="0.53125"/>
  <rect x="5" y="8" width="1" height="1" fill="rgb(175,198,234)" fill-opacity="0.703125"/>
  <rect x="6" y="8" width="1" height="1" fill="rgb(34,68,119)" fill-opacity="0.53125"/>
  <rect x="7" y="8" width="1" height="1" fill="rgb(255,255,255)" fill-opacity="0.0078125"/>
  <rect x="8" y="8" width="1" height="1" fill="rgb(22,45,80)" fill-opacity="0.8203125"/>
  <rect x="9" y="8" width="4" height="1" fill="rgb(22,45,80)" fill-opacity="0.9453125"/>
  <rect x="13" y="8" width="1" height="1" fill="rgb(22,45,80)" fill-opacity="0.8203125"/>
  <rect x="14" y="8" width="1" height="1" fill="rgb(255,255,255)" fill-opacity="0.0078125"/>
  <rect x="15" y="8" width="1" height="1" fill="rgb(34,68,119)" fill-opacity="0.53125"/>
  <rect x="16" y="8" width="1" height="1" fill="rgb(175,198,234)" fill-opacity="0.703125"/>
  <rect x="17" y="8" width="1" height="1" fill="rgb(34,68,119)" fill-opacity="0.53125"/>
  <rect x="18" y="8" width="3" height="1" fill="rgb(255,255,255)" fill-opacity="0.0078125"/>
  <rect x="0" y="9" width="4" height="1" fill="rgb(255,255,255)" fill-opacity="0.0078125"/>
  <rect x="4" y="9" width="1" height="1" fill="rgb(34,68,119)" fill-opacity="0.53125"/>
  <rect x="5" y="9" width="1" height="1" fill="rgb(175,198,234)" fill-opacity="0.703125"/>
  <rect x="6" y="9" width="1" height="1" fill="rgb(34,68,119)" fill-opacity="0.53125"/>
  <rect x="7" y="9" width="1" height="1" fill="rgb(255,255,255)" fill-opacity="0.0078125"/>
  <rect x="8" y="9" width="1" height="1" fill="rgb(22,45,80)"/>
  <rect x="9" y="9" width="1" height="1" fill="rgb(190,207,232)" fill-opacity="0.984375"/>
  <rect x="10" y="9" width="1" height="1" fill="rgb(208,220,238)" fill-opacity="0.984375"/>
  <rect x="11" y="9" width="1" height="1" fill="rgb(194,210,233)" fill-opacity="0.984375"/>
  <rect x="12" y="9" width="1" height="1" fill="rgb(172,194,225)" fill-opacity="0.96875"/>
  <rect x="13" y="9" width="1" height="1" fill="rgb(22,45,80)"/>
  <rect x="14" y="9" width="1" height="1" fill="rgb(255,255,255)" fill-opacity="0.0078125"/>
  <rect x="15" y="9" width="1" height="1" fill="rgb(34,68,119)" fill-opacity="0.53125"/>
  <rect x="16" y="9" width="1" height="1" fill="rgb(175,198,234)" fill-opacity="0.703125"/>
  <rect x="17" y="9" width="1" height="1" fill="rgb(34,68,119)" fill-opacity="0.53125"/>
  <rect x="18" y="9" width="3" height="1" fill="rgb(255,255,255)" fill-opacity="0.0078125"/>
  <rect x="0" y="10" width="4" height="1" fill="rgb(255,255,255)" fill-opacity="0.0078125"/>
  <rect x="4" y="10" width="1" height="1" fill="rgb(34,68,119)" fill-opacity="0.53125"/>
  <rect x="5" y="10" width="1" height="1" fill="rgb(175,198,234)" fill-opacity="0.703125"/>
  <rect x="6" y="10" width="1" height="1" fill="rgb(34,68,119)" fill-opacity="0.53125"/>
  <rect x="7" y="10" width="1" height="1" fill="rgb(255,255,255)" fill-opacity="0.0078125"/>
  <rect x="8" y="10" width="1" height="1" fill="rgb(22,45,80)"/>
  <rect x="9" y="10" width="1" height="1" fill="rgb(212,224,241)"/>
  <rect x="10" y="10" width="1" height="1" fill="rgb(105,146,206)"/>
  <rect x="11" y="10" width="1" height="1" fill="rgb(120,158,211)"/>
  <rect x="12" y="10" width="1" height="1" fill="rgb(179,200,231)"/>
  <rect x="13" y="10" width="1" height="1" fill="rgb(22,45,80)"/>
  <rect x="14" y="10" width="1" height="1" fill="rgb(255,255,255)" fill-opacity="0.0078125"/>
  <rect x="15" y="10" width="1" height="1" fill="rgb(34,68,119)" fill-opacity="0.53125"/>
  <rect x="16" y="10" width="1" height="1" fill="rgb(175,198,234)" fill-opacity="0.703125"/>
  <rect x="17" y="10" width="1" height="1" fill="rgb(34,68,119)" fill-opacity="0.53125"/>
  <rect x="18" y="10" width="3" height="1" fill="rgb(255,255,255)" fill-opacity="0.0078125"/>
  <rect x="0" y="11" width="4" height="1" fill="rgb(255,255,255)" fill-opacity="0.0078125"/>
  <rect x="4" y="11" width="1" height="1" fill="rgb(34,68,119)" fill-opacity="0.53125"/>
  <rect x="5" y="11" width="1" height="1" fill="rgb(175,198,234)" fill-opacity="0.703125"/>
  <rect x="6" y="11" width="1" height="1" fill="rgb(34,68,119)" fill-opacity="0.53125"/>
  <rect x="7" y="11" width="1" height="1" fill="rgb(255,255,255)" fill-opacity="0.0078125"/>
  <rect x="8" y="11" width="1" height="1" fill="rgb(22,45,80)"/>
  <rect x="9" y="11" width="1" height="1" fill="rgb(194,211,235)"/>
  <rect x="10" y="11" width="1" height="1" fill="rgb(119,157,211)"/>
  <rect x="11" y="11" width="1" height="1" fill="rgb(136,169,217)"/>
  <rect x="12" y="11" width="1" height="1" fill="rgb(176,198,230)"/>
  <rect x="13" y="11" width="1" height="1" fill="rgb(22,45,80)"/>
  <rect x="14" y="11" width="1" height="1" fill="rgb(255,255,255)" fill-opacity="0.0078125"/>
  <rect x="15" y="11" width="1" height="1" fill="rgb(34,68,119)" fill-opacity="0.53125"/>
  <rect x="16" y="11" width="1" height="1" fill="rgb(175,198,234)" fill-opacity="0.703125"/>
  <rect x="17" y="11" width="1" height="1" fill="rgb(34,68,119)" fill-opacity="0.53125"/>
  <rect x="18" y="11" width="3" height="1" fill="rgb(255,255,255)" fill-opacity="0.0078125"/>
  <rect x="0" y="12" width="4" height="1" fill="rgb(255,255,255)" fill-opacity="0.0078125"/>
  <rect x="4" y="12" width="1" height="1" fill="rgb(34,68,119)" fill-opacity="0.53125"/>
  <rect x="5" y="12" width="1" height="1" fill="rgb(175,198,234)" fill-opacity="0.703125"/>
  <rect x="6" y="12" width="1" height="1" fill="rgb(34,68,119)" fill-opacity="0.53125"/>
  <rect x="7" y="12" width="1" height="1" fill="rgb(255,255,255)" fill-opacity="0.0078125"/>
  <rect x="8" y="12" width="1" height="1" fill="rgb(22,45,80)"/>
  <rect x="9" y="12" width="1" height="1" fill="rgb(176,198,230)"/>
  <rect x="10" y="12" width="1" height="1" fill="rgb(174,197,229)"/>
  <rect x="11" y="12" width="1" height="1" fill="rgb(174,197,230)"/>
  <rect x="12" y="12" width="1" height="1" fill="rgb(180,200,231)"/>
  <rect x="13" y="12" width="1" height="1" fill="rgb(22,45,80)"/>
  <rect x="14" y="12" width="1" height="1" fill="rgb(255,255,255)" fill-opacity="0.0078125"/>
  <rect x="15" y="12" width="1" height="1" fill="rgb(34,68,119)" fill-opacity="0.53125"/>
  <rect x="16" y="12" width="1" height="1" fill="rgb(175,198,234)" fill-opacity="0.703125"/>
  <rect x="17" y="12" width="1" height="1" fill="rgb(34,68,119)" fill-opacity="0.53125"/>
  <rect x="18" y="12" width="3" height="1" fill="rgb(255,255,255)" fill-opacity="0.0078125"/>
  <rect x="0" y="13" width="4" height="1" fill="rgb(255,255,255)" fill-opacity="0.0078125"/>
  <rect x="4" y="13" width="1" height="1" fill="rgb(34,68,119)" fill-opacity="0.53125"/>
  <rect x="5" y="13" width="1" height="1" fill="rgb(175,198,234)" fill-opacity="0.703125"/>
  <rect x="6" y="13" width="1" height="1" fill="rgb(34,68,119)" fill-opacity="0.53125"/>
  <rect x="7" y="13" width="1" height="1" fill="rgb(255,255,255)" fill-opacity="0.0078125"/>
  <rect x="8" y="13" width="1" height="1" fill="rgb(22,45,79)" fill-opacity="0.90625"/>
  <rect x="9" y="13" width="2" height="1" fill="rgb(25,48,83)" fill-opacity="0.9453125"/>
  <rect x="11" y="13" width="1" height="1" fill="rgb(24,47,81)" fill-opacity="0.9453125"/>
  <rect x="12" y="13" width="1" height="1" fill="rgb(23,45,80)" fill-opacity="0.9453125"/>
  <rect x="13" y="13" width="1" height="1" fill="rgb(22,45,79)" fill-opacity="0.90625"/>
  <rect x="14" y="13" width="1" height="1" fill="rgb(255,255,255)" fill-opacity="0.0078125"/>
  <rect x="15" y="13" width="1" height="1" fill="rgb(34,68,119)" fill-opacity="0.53125"/>
  <rect x="16" y="13" width="1" height="1" fill="rgb(175,198,234)" fill-opacity="0.703125"/>
  <rect x="17" y="13" width="1" height="1" fill="rgb(34,68,119)" fill-opacity="0.53125"/>
  <rect x="18" y="13" width="3" height="1" fill="rgb(255,255,255)" fill-opacity="0.0078125"/>
  <rect x="0" y="14" width="4" height="1" fill="rgb(255,255,255)" fill-opacity="0.0078125"/>
  <rect x="4" y="14" width="1" height="1" fill="rgb(31,65,114)" fill-opacity="0.578125"/>
  <rect x="5" y="14" width="1" height="1" fill="rgb(155,178,215)" fill-opacity="0.734375"/>
  <rect x="6" y="14" width="1" height="1" fill="rgb(34,68,119)" fill-opacity="0.53125"/>
  <rect x="7" y="14" width="1" height="1" fill="rgb(255,255,255)" fill-opacity="0.0078125"/>
  <rect x="8" y="14" width="1" height="1" fill="rgb(32,32,96)" fill-opacity="0.0390625"/>
  <rect x="9" y="14" width="4" height="1" fill="rgb(16,48,80)" fill-opacity="0.0703125"/>
  <rect x="13" y="14" width="1" height="1" fill="rgb(32,32,96)" fill-opacity="0.0390625"/>
  <rect x="14" y="14" width="1" height="1" fill="rgb(255,255,255)" fill-opacity="0.0078125"/>
  <rect x="15" y="14" width="1" height="1" fill="rgb(34,68,119)" fill-opacity="0.53125"/>
  <rect x="16" y="14" width="1" height="1" fill="rgb(155,178,215)" fill-opacity="0.734375"/>
  <rect x="17" y="14" width="1" height="1" fill="rgb(31,65,114)" fill-opacity="0.578125"/>
  <rect x="18" y="14" width="3" height="1" fill="rgb(255,255,255)" fill-opacity="0.0078125"/>
  <rect x="0" y="15" width="3" height="1" fill="rgb(255,255,255)" fill-opacity="0.0078125"/>
  <rect x="3" y="15" width="1" height="1" fill="rgb(21,44,79)" fill-opacity="0.5234375"/>
  <rect x="4" y="15" width="1" height="1" fill="rgb(22,45,79)"/>
  <rect x="5" y="15" width="1" height="1" fill="rgb(23,46,80)"/>
  <rect x="6" y="15" width="1" height="1" fill="rgb(26,53,95)" fill-opacity="0.8359375"/>
  <rect x="7" y="15" width="8" height="1" fill="rgb(34,67,121)" fill-opacity="0.5078125"/>
  <rect x="15" y="15" width="1" height="1" fill="rgb(26,53,95)" fill-opacity="0.8359375"/>
  <rect x="16" y="15" width="1" height="1" fill="rgb(23,46,80)"/>
  <rect x="17" y="15" width="1" height="1" fill="rgb(22,45,79)"/>
  <rect x="18" y="15" width="1" height="1" fill="rgb(21,44,79)" fill-opacity="0.5234375"/>
  <rect x="19" y="15" width="2" height="1" fill="rgb(255,255,255)" fill-opacity="0.0078125"/>
  <rect x="0" y="16" width="2" height="1" fill="rgb(255,255,255)" fill-opacity="0.0078125"/>
  <rect x="2" y="16" width="1" height="1" fill="rgb(21,43,85)" fill-opacity="0.1015625"/>
  <rect x="3" y="16" width="1" height="1" fill="rgb(23,46,80)" fill-opacity="0.9921875"/>
  <rect x="4" y="16" width="2" height="1" fill="rgb(211,223,239)"/>
  <rect x="6" y="16" width="1" height="1" fill="rgb(24,47,81)"/>
  <rect x="7" y="16" width="1" height="1" fill="rgb(152,175,211)" fill-opacity="0.734375"/>
  <rect x="8" y="16" width="6" height="1" fill="rgb(171,195,229)" fill-opacity="0.703125"/>
  <rect x="14" y="16" width="1" height="1" fill="rgb(152,175,211)" fill-opacity="0.734375"/>
  <rect x="15" y="16" width="1" height="1" fill="rgb(24,47,81)"/>
  <rect x="16" y="16" width="2" height="1" fill="rgb(211,223,239)"/>
  <rect x="18" y="16" width="1" height="1" fill="rgb(23,46,80)" fill-opacity="0.9921875"/>
  <rect x="19" y="16" width="1" height="1" fill="rgb(21,43,85)" fill-opacity="0.1015625"/>
  <rect x="20" y="16" width="1" height="1" fill="rgb(255,255,255)" fill-opacity="0.0078125"/>
  <rect x="0" y="17" width="2" height="1" fill="rgb(255,255,255)" fill-opacity="0.0078125"/>
  <rect x="2" y="17" width="1" height="1" fill="rgb(20,41,82)" fill-opacity="0.1015625"/>
  <rect x="3" y="17" width="1" height="1" fill="rgb(22,45,79)"/>
  <rect x="4" y="17" width="2" height="1" fill="rgb(215,227,244)"/>
  <rect x="6" y="17" width="1" height="1" fill="rgb(22,45,79)"/>
  <rect x="7" y="17" width="1" height="1" fill="rgb(35,67,117)" fill-opacity="0.6015625"/>
  <rect x="8" y="17" width="6" height="1" fill="rgb(38,72,124)" fill-opacity="0.5625"/>
  <rect x="14" y="17" width="1" height="1" fill="rgb(35,67,117)" fill-opacity="0.6015625"/>
  <rect x="15" y="17" width="1" height="1" fill="rgb(22,45,79)"/>
  <rect x="16" y="17" width="2" height="1" fill="rgb(215,227,244)"/>
  <rect x="18" y="17" width="1" height="1" fill="rgb(22,45,79)"/>
  <rect x="19" y="17" width="1" height="1" fill="rgb(20,41,82)" fill-opacity="0.1015625"/>
  <rect x="20" y="17" width="1" height="1" fill="rgb(255,255,255)" fill-opacity="0.0078125"/>
  <rect x="0" y="18" width="3" height="1" fill="rgb(255,255,255)" fill-opacity="0.0078125"/>
  <rect x="3" y="18" width="1" height="1" fill="rgb(23,46,80)" fill-opacity="0.5625"/>
  <rect x="4" y="18" width="2" height="1" fill="rgb(28,51,85)"/>
  <rect x="6" y="18" width="1" height="1" fill="rgb(23,46,80)" fill-opacity="0.5625"/>
  <rect x="7" y="18" width="8" height="1" fill="rgb(255,255,255)" fill-opacity="0.0078125"/>
  <rect x="15" y="18" width="1" height="1" fill="rgb(23,46,80)" fill-opacity="0.5625"/>
  <rect x="16" y="18" width="2" height="1" fill="rgb(28,51,85)"/>
  <rect x="18" y="18" width="1" height="1" fill="rgb(23,46,80)" fill-opacity="0.5625"/>
  <rect x="19" y="18" width="2" height="1" fill="rgb(255,255,255)" fill-opacity="0.0078125"/>
  <rect x="0" y="19" width="4" height="1" fill="rgb(255,255,255)" fill-opacity="0.0078125"/>
  <rect x="4" y="19" width="2" height="1" fill="rgb(26,43,77)" fill-opacity="0.125"/>
  <rect x="6" y="19" width="10" height="1" fill="rgb(255,255,255)" fill-opacity="0.0078125"/>
  <rect x="16" y="19" width="2" height="1" fill="rgb(26,43,77)" fill-opacity="0.125"/>
  <rect x="18" y="19" width="3" height="1" fill="rgb(255,255,255)" fill-opacity="0.0078125"/>
  <rect x="0" y="20" width="21" height="1" fill="rgb(255,255,255)" fill-opacity="0.0078125"/>
</svg>