<svg xmlns="http://www.w3.org/2000/svg" shape-rendering="crispEdges" width="21" height="21" viewBox="0 0 21 21">
  <rect x="0" y="0" width="1" height="21" fill="rgb(255,255,255)" fill-opacity="0.0078125"/>
  <rect x="1" y="0" width="1" height="21" fill="rgb(255,255,255)" fill-opacity="0.0078125"/>
  <rect x="2" y="0" width="1" height="21" fill="rgb(255,255,255)" fill-opacity="0.0078125"/>
  <rect x="3" y="0" width="1" height="12" fill="rgb(255,255,255)" fill-opacity="0.0078125"/>
  <rect x="3" y="12" width="1" height="1" fill="rgb(0,0,0)" fill-opacity="0.328125"/>
  <rect x="3" y="13" width="1" height="1" fill="rgb(4,4,4)" fill-opacity="0.71875"/>
  <rect x="3" y="14" width="1" height="1" fill="rgb(21,21,21)" fill-opacity="0.9453125"/>
  <rect x="3" y="15" width="1" height="1" fill="rgb(0,0,0)" fill-opacity="0.6875"/>
  <rect x="3" y="16" width="1" height="1" fill="rgb(0,0,0)" fill-opacity="0.15625"/>
  <rect x="3" y="17" width="1" height="4" fill="rgb(255,255,255)" fill-opacity="0.0078125"/>
  <rect x="4" y="0" width="1" height="10" fill="rgb(255,255,255)" fill-opacity="0.0078125"/>
  <rect x="4" y="10" width="1" height="1" fill="rgb(0,0,0)" fill-opacity="0.015625"/>
  <rect x="4" y="11" width="1" height="1" fill="rgb(0,0,0)" fill-opacity="0.546875"/>
  <rect x="4" y="12" width="1" height="1" fill="rgb(102,102,102)"/>
  <rect x="4" y="13" width="1" height="1" fill="rgb(233,233,233)"/>
  <rect x="4" y="14" width="1" height="1" fill="rgb(255,255,255)"/>
  <rect x="4" y="15" width="1" height="1" fill="rgb(222,222,222)"/>
  <rect x="4" y="16" width="1" height="1" fill="rgb(15,15,15)" fill-opacity="0.8515625"/>
  <rect x="4" y="17" width="1" height="1" fill="rgb(0,0,0)" fill-opacity="0.03125"/>
  <rect x="4" y="18" width="1" height="3" fill="rgb(255,255,255)" fill-opacity="0.0078125"/>
  <rect x="5" y="0" width="1" height="9" fill="rgb(255,255,255)" fill-opacity="0.0078125"/>
  <rect x="5" y="9" width="1" height="1" fill="rgb(0,0,0)" fill-opacity="0.046875"/>
  <rect x="5" y="10" width="1" height="1" fill="rgb(6,6,6)" fill-opacity="0.703125"/>
  <rect x="5" y="11" width="1" height="1" fill="rgb(171,171,171)"/>
  <rect x="5" y="12" width="1" height="1" fill="rgb(255,255,255)"/>
  <rect x="5" y="13" width="1" height="1" fill="rgb(228,228,228)"/>
  <rect x="5" y="14" width="1" height="1" fill="rgb(197,197,197)"/>
  <rect x="5" y="15" width="1" height="1" fill="rgb(210,210,210)"/>
  <rect x="5" y="16" width="1" height="1" fill="rgb(148,148,148)"/>
  <rect x="5" y="17" width="1" height="1" fill="rgb(4,4,4)" fill-opacity="0.5390625"/>
  <rect x="5" y="18" width="1" height="3" fill="rgb(255,255,255)" fill-opacity="0.0078125"/>
  <rect x="6" y="0" width="1" height="8" fill="rgb(255,255,255)" fill-opacity="0.0078125"/>
  <rect x="6" y="8" width="1" height="1" fill="rgb(0,0,0)" fill-opacity="0.109375"/>
  <rect x="6" y="9" width="1" height="1" fill="rgb(18,18,18)" fill-opacity="0.828125"/>
  <rect x="6" y="10" width="1" height="1" fill="rgb(205,205,205)"/>
  <rect x="6" y="11" width="1" height="1" fill="rgb(254,254,254)"/>
  <rect x="6" y="12" width="1" height="1" fill="rgb(200,200,200)"/>
  <rect x="6" y="13" width="1" height="1" fill="rgb(165,165,165)"/>
  <rect x="6" y="14" width="1" height="1" fill="rgb(13,13,13)" fill-opacity="0.9765625"/>
  <rect x="6" y="15" width="1" height="1" fill="rgb(122,122,122)"/>
  <rect x="6" y="16" width="1" height="1" fill="rgb(218,218,218)"/>
  <rect x="6" y="17" width="1" height="1" fill="rgb(120,120,120)"/>
  <rect x="6" y="18" width="1" height="1" fill="rgb(0,0,0)" fill-opacity="0.21875"/>
  <rect x="6" y="19" width="1" height="2" fill="rgb(255,255,255)" fill-opacity="0.0078125"/>
  <rect x="7" y="0" width="1" height="7" fill="rgb(255,255,255)" fill-opacity="0.0078125"/>
  <rect x="7" y="7" width="1" height="1" fill="rgb(0,0,0)" fill-opacity="0.1875"/>
  <rect x="7" y="8" width="1" height="1" fill="rgb(34,34,34)" fill-opacity="0.9140625"/>
  <rect x="7" y="9" width="1" height="1" fill="rgb(223,223,223)"/>
  <rect x="7" y="10" width="1" height="1" fill="rgb(250,250,250)"/>
  <rect x="7" y="11" width="1" height="1" fill="rgb(190,190,190)"/>
  <rect x="7" y="12" width="1" height="1" fill="rgb(164,164,164)"/>
  <rect x="7" y="13" width="1" height="1" fill="rgb(190,190,190)"/>
  <rect x="7" y="14" width="1" height="1" fill="rgb(122,122,122)"/>
  <rect x="7" y="15" width="1" height="1" fill="rgb(0,0,0)" fill-opacity="0.6328125"/>
  <rect x="7" y="16" width="1" height="1" fill="rgb(104,104,104)" fill-opacity="0.9765625"/>
  <rect x="7" y="17" width="1" height="1" fill="rgb(241,241,241)"/>
  <rect x="7" y="18" width="1" height="1" fill="rgb(73,73,73)" fill-opacity="0.875"/>
  <rect x="7" y="19" width="1" height="1" fill="rgb(0,0,0)" fill-opacity="0.0078125"/>
  <rect x="7" y="20" width="1" height="1" fill="rgb(255,255,255)" fill-opacity="0.0078125"/>
  <rect x="8" y="0" width="1" height="6" fill="rgb(255,255,255)" fill-opacity="0.0078125"/>
  <rect x="8" y="6" width="1" height="1" fill="rgb(0,0,0)" fill-opacity="0.09375"/>
  <rect x="8" y="7" width="1" height="1" fill="rgb(32,32,32)" fill-opacity="0.90625"/>
  <rect x="8" y="8" width="1" height="1" fill="rgb(234,234,234)"/>
  <rect x="8" y="9" width="1" height="1" fill="rgb(245,245,245)"/>
  <rect x="8" y="10" width="1" height="1" fill="rgb(181,181,181)"/>
  <rect x="8" y="11" width="1" height="1" fill="rgb(164,164,164)"/>
  <rect x="8" y="12" width="1" height="1" fill="rgb(13,13,13)" fill-opacity="0.9765625"/>
  <rect x="8" y="13" width="1" height="1" fill="rgb(122,122,122)"/>
  <rect x="8" y="14" width="1" height="1" fill="rgb(217,217,217)"/>
  <rect x="8" y="15" width="1" height="1" fill="rgb(106,106,106)" fill-opacity="0.96875"/>
  <rect x="8" y="16" width="1" height="1" fill="rgb(0,0,0)" fill-opacity="0.3046875"/>
  <rect x="8" y="17" width="1" height="1" fill="rgb(69,69,69)" fill-opacity="0.8828125"/>
  <rect x="8" y="18" width="1" height="1" fill="rgb(10,10,10)" fill-opacity="0.7734375"/>
  <rect x="8" y="19" width="1" height="1" fill="rgb(0,0,0)" fill-opacity="0.0234375"/>
  <rect x="8" y="20" width="1" height="1" fill="rgb(255,255,255)" fill-opacity="0.0078125"/>
  <rect x="9" y="0" width="1" height="5" fill="rgb(255,255,255)" fill-opacity="0.0078125"/>
  <rect x="9" y="5" width="1" height="1" fill="rgb(0,0,0)" fill-opacity="0.03125"/>
  <rect x="9" y="6" width="1" height="1" fill="rgb(14,14,14)" fill-opacity="0.78125"/>
  <rect x="9" y="7" width="1" height="1" fill="rgb(222,222,222)"/>
  <rect x="9" y="8" width="1" height="1" fill="rgb(245,245,245)"/>
  <rect x="9" y="9" width="1" height="1" fill="rgb(174,174,174)"/>
  <rect x="9" y="10" width="1" height="1" fill="rgb(164,164,164)"/>
  <rect x="9" y="11" width="1" height="1" fill="rgb(190,190,190)"/>
  <rect x="9" y="12" width="1" height="1" fill="rgb(121,121,121)"/>
  <rect x="9" y="13" width="1" height="1" fill="rgb(0,0,0)" fill-opacity="0.6328125"/>
  <rect x="9" y="14" width="1" height="1" fill="rgb(104,104,104)" fill-opacity="0.9765625"/>
  <rect x="9" y="15" width="1" height="1" fill="rgb(240,240,240)"/>
  <rect x="9" y="16" width="1" height="1" fill="rgb(72,72,72)" fill-opacity="0.8515625"/>
  <rect x="9" y="17" width="1" height="1" fill="rgb(0,0,0)" fill-opacity="0.015625"/>
  <rect x="9" y="18" width="1" height="1" fill="rgb(0,0,0)" fill-opacity="0.0234375"/>
  <rect x="9" y="19" width="1" height="2" fill="rgb(255,255,255)" fill-opacity="0.0078125"/>
  <rect x="10" y="0" width="1" height="5" fill="rgb(255,255,255)" fill-opacity="0.0078125"/>
  <rect x="10" y="5" width="1" height="1" fill="rgb(3,3,3)" fill-opacity="0.609375"/>
  <rect x="10" y="6" width="1" height="1" fill="rgb(199,199,199)"/>
  <rect x="10" y="7" width="1" height="1" fill="rgb(250,250,250)"/>
  <rect x="10" y="8" width="1" height="1" fill="rgb(180,180,180)"/>
  <rect x="10" y="9" width="1" height="1" fill="rgb(164,164,164)"/>
  <rect x="10" y="10" width="1" height="1" fill="rgb(13,13,13)" fill-opacity="0.9765625"/>
  <rect x="10" y="11" width="1" height="1" fill="rgb(121,121,121)"/>
  <rect x="10" y="12" width="1" height="1" fill="rgb(217,217,217)"/>
  <rect x="10" y="13" width="1" height="1" fill="rgb(106,106,106)" fill-opacity="0.96875"/>
  <rect x="10" y="14" width="1" height="1" fill="rgb(0,0,0)" fill-opacity="0.3046875"/>
  <rect x="10" y="15" width="1" height="1" fill="rgb(69,69,69)" fill-opacity="0.8828125"/>
  <rect x="10" y="16" width="1" height="1" fill="rgb(10,10,10)" fill-opacity="0.7734375"/>
  <rect x="10" y="17" width="1" height="1" fill="rgb(0,0,0)" fill-opacity="0.0234375"/>
  <rect x="10" y="18" width="1" height="3" fill="rgb(255,255,255)" fill-opacity="0.0078125"/>
  <rect x="11" y="0" width="1" height="4" fill="rgb(255,255,255)" fill-opacity="0.0078125"/>
  <rect x="11" y="4" width="1" height="1" fill="rgb(0,0,0)" fill-opacity="0.421875"/>
  <rect x="11" y="5" width="1" height="1" fill="rgb(161,161,161)"/>
  <rect x="11" y="6" width="1" height="1" fill="rgb(253,253,253)"/>
  <rect x="11" y="7" width="1" height="1" fill="rgb(188,188,188)"/>
  <rect x="11" y="8" width="1" height="1" fill="rgb(163,163,163)"/>
  <rect x="11" y="9" width="1" height="1" fill="rgb(189,189,189)"/>
  <rect x="11" y="10" width="1" height="1" fill="rgb(121,121,121)"/>
  <rect x="11" y="11" width="1" height="1" fill="rgb(0,0,0)" fill-opacity="0.6328125"/>
  <rect x="11" y="12" width="1" height="1" fill="rgb(104,104,104)" fill-opacity="0.9765625"/>
  <rect x="11" y="13" width="1" height="1" fill="rgb(239,239,239)"/>
  <rect x="11" y="14" width="1" height="1" fill="rgb(72,72,72)" fill-opacity="0.8515625"/>
  <rect x="11" y="15" width="1" height="1" fill="rgb(0,0,0)" fill-opacity="0.015625"/>
  <rect x="11" y="16" width="1" height="1" fill="rgb(0,0,0)" fill-opacity="0.0234375"/>
  <rect x="11" y="17" width="1" height="4" fill="rgb(255,255,255)" fill-opacity="0.0078125"/>
  <rect x="12" y="0" width="1" height="3" fill="rgb(255,255,255)" fill-opacity="0.0078125"/>
  <rect x="12" y="3" width="1" height="1" fill="rgb(0,0,0)" fill-opacity="0.2109375"/>
  <rect x="12" y="4" width="1" height="1" fill="rgb(96,96,96)" fill-opacity="0.9921875"/>
  <rect x="12" y="5" width="1" height="1" fill="rgb(255,255,255)"/>
  <rect x="12" y="6" width="1" height="1" fill="rgb(198,198,198)"/>
  <rect x="12" y="7" width="1" height="1" fill="rgb(163,163,163)"/>
  <rect x="12" y="8" width="1" height="1" fill="rgb(13,13,13)" fill-opacity="0.9765625"/>
  <rect x="12" y="9" width="1" height="1" fill="rgb(120,120,120)"/>
  <rect x="12" y="10" width="1" height="1" fill="rgb(216,216,216)"/>
  <rect x="12" y="11" width="1" height="1" fill="rgb(106,106,106)" fill-opacity="0.96875"/>
  <rect x="12" y="12" width="1" height="1" fill="rgb(0,0,0)" fill-opacity="0.3046875"/>
  <rect x="12" y="13" width="1" height="1" fill="rgb(69,69,69)" fill-opacity="0.8828125"/>
  <rect x="12" y="14" width="1" height="1" fill="rgb(10,10,10)" fill-opacity="0.7734375"/>
  <rect x="12" y="15" width="1" height="1" fill="rgb(0,0,0)" fill-opacity="0.0234375"/>
  <rect x="12" y="16" width="1" height="5" fill="rgb(255,255,255)" fill-opacity="0.0078125"/>
  <rect x="13" y="0" width="1" height="3" fill="rgb(255,255,255)" fill-opacity="0.0078125"/>
  <rect x="13" y="3" width="1" height="1" fill="rgb(5,5,5)" fill-opacity="0.6328125"/>
  <rect x="13" y="4" width="1" height="1" fill="rgb(229,229,229)"/>
  <rect x="13" y="5" width="1" height="1" fill="rgb(223,223,223)"/>
  <rect x="13" y="6" width="1" height="1" fill="rgb(163,163,163)"/>
  <rect x="13" y="7" width="1" height="1" fill="rgb(188,188,188)"/>
  <rect x="13" y="8" width="1" height="1" fill="rgb(120,120,120)"/>
  <rect x="13" y="9" width="1" height="1" fill="rgb(0,0,0)" fill-opacity="0.6328125"/>
  <rect x="13" y="10" width="1" height="1" fill="rgb(104,104,104)" fill-opacity="0.9765625"/>
  <rect x="13" y="11" width="1" height="1" fill="rgb(238,238,238)"/>
  <rect x="13" y="12" width="1" height="1" fill="rgb(72,72,72)" fill-opacity="0.8515625"/>
  <rect x="13" y="13" width="1" height="1" fill="rgb(0,0,0)" fill-opacity="0.015625"/>
  <rect x="13" y="14" width="1" height="1" fill="rgb(0,0,0)" fill-opacity="0.0234375"/>
  <rect x="13" y="15" width="1" height="6" fill="rgb(255,255,255)" fill-opacity="0.0078125"/>
  <rect x="14" y="0" width="1" height="3" fill="rgb(255,255,255)" fill-opacity="0.0078125"/>
  <rect x="14" y="3" width="1" height="1" fill="rgb(29,29,29)" fill-opacity="0.921875"/>
  <rect x="14" y="4" width="1" height="1" fill="rgb(255,255,255)"/>
  <rect x="14" y="5" width="1" height="1" fill="rgb(194,194,194)"/>
  <rect x="14" y="6" width="1" height="1" fill="rgb(13,13,13)" fill-opacity="0.9765625"/>
  <rect x="14" y="7" width="1" height="1" fill="rgb(120,120,120)"/>
  <rect x="14" y="8" width="1" height="1" fill="rgb(216,216,216)"/>
  <rect x="14" y="9" width="1" height="1" fill="rgb(105,105,105)" fill-opacity="0.96875"/>
  <rect x="14" y="10" width="1" height="1" fill="rgb(0,0,0)" fill-opacity="0.3046875"/>
  <rect x="14" y="11" width="1" height="1" fill="rgb(69,69,69)" fill-opacity="0.8828125"/>
  <rect x="14" y="12" width="1" height="1" fill="rgb(10,10,10)" fill-opacity="0.7734375"/>
  <rect x="14" y="13" width="1" height="1" fill="rgb(0,0,0)" fill-opacity="0.0234375"/>
  <rect x="14" y="14" width="1" height="7" fill="rgb(255,255,255)" fill-opacity="0.0078125"/>
  <rect x="15" y="0" width="1" height="3" fill="rgb(255,255,255)" fill-opacity="0.0078125"/>
  <rect x="15" y="3" width="1" height="1" fill="rgb(0,0,0)" fill-opacity="0.71875"/>
  <rect x="15" y="4" width="1" height="1" fill="rgb(227,227,227)"/>
  <rect x="15" y="5" width="1" height="1" fill="rgb(207,207,207)"/>
  <rect x="15" y="6" width="1" height="1" fill="rgb(120,120,120)"/>
  <rect x="15" y="7" width="1" height="1" fill="rgb(0,0,0)" fill-opacity="0.6328125"/>
  <rect x="15" y="8" width="1" height="1" fill="rgb(103,103,103)" fill-opacity="0.9765625"/>
  <rect x="15" y="9" width="1" height="1" fill="rgb(238,238,238)"/>
  <rect x="15" y="10" width="1" height="1" fill="rgb(72,72,72)" fill-opacity="0.8515625"/>
  <rect x="15" y="11" width="1" height="1" fill="rgb(0,0,0)" fill-opacity="0.015625"/>
  <rect x="15" y="12" width="1" height="1" fill="rgb(0,0,0)" fill-opacity="0.0234375"/>
  <rect x="15" y="13" width="1" height="8" fill="rgb(255,255,255)" fill-opacity="0.0078125"/>
  <rect x="16" y="0" width="1" height="3" fill="rgb(255,255,255)" fill-opacity="0.0078125"/>
  <rect x="16" y="3" width="1" height="1" fill="rgb(0,0,0)" fill-opacity="0.1796875"/>
  <rect x="16" y="4" width="1" height="1" fill="rgb(15,15,15)" fill-opacity="0.875"/>
  <rect x="16" y="5" width="1" height="1" fill="rgb(145,145,145)"/>
  <rect x="16" y="6" width="1" height="1" fill="rgb(215,215,215)"/>
  <rect x="16" y="7" width="1" height="1" fill="rgb(105,105,105)" fill-opacity="0.96875"/>
  <rect x="16" y="8" width="1" height="1" fill="rgb(0,0,0)" fill-opacity="0.3046875"/>
  <rect x="16" y="9" width="1" height="1" fill="rgb(69,69,69)" fill-opacity="0.8828125"/>
  <rect x="16" y="10" width="1" height="1" fill="rgb(10,10,10)" fill-opacity="0.7734375"/>
  <rect x="16" y="11" width="1" height="1" fill="rgb(0,0,0)" fill-opacity="0.0234375"/>
  <rect x="16" y="12" width="1" height="9" fill="rgb(255,255,255)" fill-opacity="0.0078125"/>
  <rect x="17" y="0" width="1" height="4" fill="rgb(255,255,255)" fill-opacity="0.0078125"/>
  <rect x="17" y="4" width="1" height="1" fill="rgb(0,0,0)" fill-opacity="0.046875"/>
  <rect x="17" y="5" width="1" height="1" fill="rgb(4,4,4)" fill-opacity="0.5703125"/>
  <rect x="17" y="6" width="1" height="1" fill="rgb(118,118,118)"/>
  <rect x="17" y="7" width="1" height="1" fill="rgb(238,238,238)"/>
  <rect x="17" y="8" width="1" height="1" fill="rgb(72,72,72)" fill-opacity="0.8515625"/>
  <rect x="17" y="9" width="1" height="1" fill="rgb(0,0,0)" fill-opacity="0.015625"/>
  <rect x="17" y="10" width="1" height="1" fill="rgb(0,0,0)" fill-opacity="0.0234375"/>
  <rect x="17" y="11" width="1" height="10" fill="rgb(255,255,255)" fill-opacity="0.0078125"/>
  <rect x="18" y="0" width="1" height="6" fill="rgb(255,255,255)" fill-opacity="0.0078125"/>
  <rect x="18" y="6" width="1" height="1" fill="rgb(0,0,0)" fill-opacity="0.2421875"/>
  <rect x="18" y="7" width="1" height="1" fill="rgb(72,72,72)" fill-opacity="0.890625"/>
  <rect x="18" y="8" width="1" height="1" fill="rgb(10,10,10)" fill-opacity="0.7734375"/>
  <rect x="18" y="9" width="1" height="1" fill="rgb(0,0,0)" fill-opacity="0.0234375"/>
  <rect x="18" y="10" width="1" height="11" fill="rgb(255,255,255)" fill-opacity="0.0078125"/>
  <rect x="19" y="0" width="1" height="7" fill="rgb(255,255,255)" fill-opacity="0.0078125"/>
  <rect x="19" y="7" width="1" height="1" fill="rgb(0,0,0)" fill-opacity="0.0078125"/>
  <rect x="19" y="8" width="1" height="1" fill="rgb(0,0,0)" fill-opacity="0.0234375"/>
  <rect x="19" y="9" width="1" height="12" fill="rgb(255,255,255)" fill-opacity="0.0078125"/>
  <rect x="20" y="0" width="1" height="21" fill="rgb(255,255,255)" fill-opacity="0.0078125"/>
</svg>