<svg xmlns="http://www.w3.org/2000/svg" shape-rendering="crispEdges" width="21" height="21" viewBox="0 0 21 21">
  <rect x="0" y="0" width="21" height="1" fill="rgb(255,255,255)" fill-opacity="0.0078125"/>
  <rect x="0" y="1" width="21" height="1" fill="rgb(255,255,255)" fill-opacity="0.0078125"/>
  <rect x="0" y="2" width="21" height="1" fill="rgb(255,255,255)" fill-opacity="0.0078125"/>
  <rect x="0" y="3" width="21" height="1" fill="rgb(255,255,255)" fill-opacity="0.0078125"/>
  <rect x="0" y="4" width="21" height="1" fill="rgb(255,255,255)" fill-opacity="0.0078125"/>
  <rect x="0" y="5" width="21" height="1" fill="rgb(255,255,255)" fill-opacity="0.0078125"/>
  <rect x="0" y="6" width="6" height="1" fill="rgb(255,255,255)" fill-opacity="0.0078125"/>
  <rect x="6" y="6" width="1" height="1" fill="rgb(0,0,0)" fill-opacity="0.125"/>
  <rect x="7" y="6" width="1" height="1" fill="rgb(0,0,0)" fill-opacity="0.296875"/>
  <rect x="8" y="6" width="6" height="1" fill="rgb(0,0,0)" fill-opacity="0.3046875"/>
  <rect x="14" y="6" width="1" height="1" fill="rgb(0,0,0)" fill-opacity="0.296875"/>
  <rect x="15" y="6" width="1" height="1" fill="rgb(135,135,135)" fill-opacity="0.1484375"/>
  <rect x="16" y="6" width="5" height="1" fill="rgb(255,255,255)" fill-opacity="0.0078125"/>
  <rect x="0" y="7" width="6" height="1" fill="rgb(255,255,255)" fill-opacity="0.0078125"/>
  <rect x="6" y="7" width="1" height="1" fill="rgb(0,0,0)" fill-opacity="0.296875"/>
  <rect x="7" y="7" width="1" height="1" fill="rgb(194,194,194)" fill-opacity="0.25"/>
  <rect x="8" y="7" width="6" height="1" fill="rgb(230,230,230)" fill-opacity="0.2421875"/>
  <rect x="14" y="7" width="1" height="1" fill="rgb(215,215,215)" fill-opacity="0.2578125"/>
  <rect x="15" y="7" width="1" height="1" fill="rgb(255,255,255)" fill-opacity="0.3984375"/>
  <rect x="16" y="7" width="5" height="1" fill="rgb(255,255,255)" fill-opacity="0.0078125"/>
  <rect x="0" y="8" width="6" height="1" fill="rgb(255,255,255)" fill-opacity="0.0078125"/>
  <rect x="6" y="8" width="1" height="1" fill="rgb(0,0,0)" fill-opacity="0.3046875"/>
  <rect x="7" y="8" width="5" height="1" fill="rgb(230,230,230)" fill-opacity="0.2421875"/>
  <rect x="12" y="8" width="1" height="1" fill="rgb(226,226,226)" fill-opacity="0.2421875"/>
  <rect x="13" y="8" width="1" height="1" fill="rgb(30,30,30)" fill-opacity="0.703125"/>
  <rect x="14" y="8" width="1" height="1" fill="rgb(9,9,9)" fill-opacity="0.8828125"/>
  <rect x="15" y="8" width="1" height="1" fill="rgb(255,255,255)" fill-opacity="0.40625"/>
  <rect x="16" y="8" width="5" height="1" fill="rgb(255,255,255)" fill-opacity="0.0078125"/>
  <rect x="0" y="9" width="6" height="1" fill="rgb(255,255,255)" fill-opacity="0.0078125"/>
  <rect x="6" y="9" width="1" height="1" fill="rgb(0,0,0)" fill-opacity="0.3046875"/>
  <rect x="7" y="9" width="5" height="1" fill="rgb(230,230,230)" fill-opacity="0.2421875"/>
  <rect x="12" y="9" width="1" height="1" fill="rgb(32,32,32)" fill-opacity="0.6875"/>
  <rect x="13" y="9" width="1" height="1" fill="rgb(0,0,0)"/>
  <rect x="14" y="9" width="1" height="1" fill="rgb(32,32,32)" fill-opacity="0.6953125"/>
  <rect x="15" y="9" width="1" height="1" fill="rgb(255,255,255)" fill-opacity="0.40625"/>
  <rect x="16" y="9" width="5" height="1" fill="rgb(255,255,255)" fill-opacity="0.0078125"/>
  <rect x="0" y="10" width="6" height="1" fill="rgb(255,255,255)" fill-opacity="0.0078125"/>
  <rect x="6" y="10" width="1" height="1" fill="rgb(0,0,0)" fill-opacity="0.3046875"/>
  <rect x="7" y="10" width="1" height="1" fill="rgb(230,230,230)" fill-opacity="0.2421875"/>
  <rect x="8" y="10" width="1" height="1" fill="rgb(125,125,125)" fill-opacity="0.3671875"/>
  <rect x="9" y="10" width="1" height="1" fill="rgb(226,226,226)" fill-opacity="0.2421875"/>
  <rect x="10" y="10" width="1" height="1" fill="rgb(230,230,230)" fill-opacity="0.2421875"/>
  <rect x="11" y="10" width="1" height="1" fill="rgb(47,47,47)" fill-opacity="0.6015625"/>
  <rect x="12" y="10" width="1" height="1" fill="rgb(0,0,0)"/>
  <rect x="13" y="10" width="1" height="1" fill="rgb(26,26,26)" fill-opacity="0.734375"/>
  <rect x="14" y="10" width="1" height="1" fill="rgb(222,222,222)" fill-opacity="0.25"/>
  <rect x="15" y="10" width="1" height="1" fill="rgb(255,255,255)" fill-opacity="0.40625"/>
  <rect x="16" y="10" width="5" height="1" fill="rgb(255,255,255)" fill-opacity="0.0078125"/>
  <rect x="0" y="11" width="6" height="1" fill="rgb(255,255,255)" fill-opacity="0.0078125"/>
  <rect x="6" y="11" width="1" height="1" fill="rgb(0,0,0)" fill-opacity="0.3046875"/>
  <rect x="7" y="11" width="1" height="1" fill="rgb(112,112,112)" fill-opacity="0.390625"/>
  <rect x="8" y="11" width="1" height="1" fill="rgb(0,0,0)"/>
  <rect x="9" y="11" width="1" height="1" fill="rgb(30,30,30)" fill-opacity="0.7109375"/>
  <rect x="10" y="11" width="1" height="1" fill="rgb(122,122,122)" fill-opacity="0.375"/>
  <rect x="11" y="11" width="1" height="1" fill="rgb(1,1,1)" fill-opacity="0.984375"/>
  <rect x="12" y="11" width="1" height="1" fill="rgb(16,16,16)" fill-opacity="0.8203125"/>
  <rect x="13" y="11" width="1" height="1" fill="rgb(215,215,215)" fill-opacity="0.25"/>
  <rect x="14" y="11" width="1" height="1" fill="rgb(230,230,230)" fill-opacity="0.2421875"/>
  <rect x="15" y="11" width="1" height="1" fill="rgb(255,255,255)" fill-opacity="0.40625"/>
  <rect x="16" y="11" width="5" height="1" fill="rgb(255,255,255)" fill-opacity="0.0078125"/>
  <rect x="0" y="12" width="6" height="1" fill="rgb(255,255,255)" fill-opacity="0.0078125"/>
  <rect x="6" y="12" width="1" height="1" fill="rgb(0,0,0)" fill-opacity="0.3046875"/>
  <rect x="7" y="12" width="1" height="1" fill="rgb(226,226,226)" fill-opacity="0.2421875"/>
  <rect x="8" y="12" width="1" height="1" fill="rgb(30,30,30)" fill-opacity="0.7109375"/>
  <rect x="9" y="12" width="1" height="1" fill="rgb(0,0,0)"/>
  <rect x="10" y="12" width="1" height="1" fill="rgb(3,3,3)" fill-opacity="0.9609375"/>
  <rect x="11" y="12" width="1" height="1" fill="rgb(2,2,2)" fill-opacity="0.9765625"/>
  <rect x="12" y="12" width="1" height="1" fill="rgb(133,133,133)" fill-opacity="0.3515625"/>
  <rect x="13" y="12" width="2" height="1" fill="rgb(230,230,230)" fill-opacity="0.2421875"/>
  <rect x="15" y="12" width="1" height="1" fill="rgb(255,255,255)" fill-opacity="0.40625"/>
  <rect x="16" y="12" width="5" height="1" fill="rgb(255,255,255)" fill-opacity="0.0078125"/>
  <rect x="0" y="13" width="6" height="1" fill="rgb(255,255,255)" fill-opacity="0.0078125"/>
  <rect x="6" y="13" width="1" height="1" fill="rgb(0,0,0)" fill-opacity="0.3046875"/>
  <rect x="7" y="13" width="1" height="1" fill="rgb(230,230,230)" fill-opacity="0.2421875"/>
  <rect x="8" y="13" width="1" height="1" fill="rgb(222,222,222)" fill-opacity="0.25"/>
  <rect x="9" y="13" width="1" height="1" fill="rgb(30,30,30)" fill-opacity="0.7109375"/>
  <rect x="10" y="13" width="1" height="1" fill="rgb(0,0,0)"/>
  <rect x="11" y="13" width="1" height="1" fill="rgb(52,52,52)" fill-opacity="0.578125"/>
  <rect x="12" y="13" width="3" height="1" fill="rgb(230,230,230)" fill-opacity="0.2421875"/>
  <rect x="15" y="13" width="1" height="1" fill="rgb(255,255,255)" fill-opacity="0.40625"/>
  <rect x="16" y="13" width="5" height="1" fill="rgb(255,255,255)" fill-opacity="0.0078125"/>
  <rect x="0" y="14" width="6" height="1" fill="rgb(255,255,255)" fill-opacity="0.0078125"/>
  <rect x="6" y="14" width="1" height="1" fill="rgb(0,0,0)" fill-opacity="0.296875"/>
  <rect x="7" y="14" width="1" height="1" fill="rgb(216,216,216)" fill-opacity="0.2578125"/>
  <rect x="8" y="14" width="1" height="1" fill="rgb(230,230,230)" fill-opacity="0.2421875"/>
  <rect x="9" y="14" width="1" height="1" fill="rgb(226,226,226)" fill-opacity="0.2421875"/>
  <rect x="10" y="14" width="1" height="1" fill="rgb(111,111,111)" fill-opacity="0.390625"/>
  <rect x="11" y="14" width="1" height="1" fill="rgb(226,226,226)" fill-opacity="0.2421875"/>
  <rect x="12" y="14" width="2" height="1" fill="rgb(230,230,230)" fill-opacity="0.2421875"/>
  <rect x="14" y="14" width="1" height="1" fill="rgb(236,236,236)" fill-opacity="0.265625"/>
  <rect x="15" y="14" width="1" height="1" fill="rgb(255,255,255)" fill-opacity="0.3984375"/>
  <rect x="16" y="14" width="5" height="1" fill="rgb(255,255,255)" fill-opacity="0.0078125"/>
  <rect x="0" y="15" width="6" height="1" fill="rgb(255,255,255)" fill-opacity="0.0078125"/>
  <rect x="6" y="15" width="1" height="1" fill="rgb(170,170,170)" fill-opacity="0.1484375"/>
  <rect x="7" y="15" width="1" height="1" fill="rgb(255,255,255)" fill-opacity="0.3984375"/>
  <rect x="8" y="15" width="6" height="1" fill="rgb(255,255,255)" fill-opacity="0.40625"/>
  <rect x="14" y="15" width="1" height="1" fill="rgb(255,255,255)" fill-opacity="0.3984375"/>
  <rect x="15" y="15" width="1" height="1" fill="rgb(255,255,255)" fill-opacity="0.171875"/>
  <rect x="16" y="15" width="5" height="1" fill="rgb(255,255,255)" fill-opacity="0.0078125"/>
  <rect x="0" y="16" width="21" height="1" fill="rgb(255,255,255)" fill-opacity="0.0078125"/>
  <rect x="0" y="17" width="21" height="1" fill="rgb(255,255,255)" fill-opacity="0.0078125"/>
  <rect x="0" y="18" width="21" height="1" fill="rgb(255,255,255)" fill-opacity="0.0078125"/>
  <rect x="0" y="19" width="21" height="1" fill="rgb(255,255,255)" fill-opacity="0.0078125"/>
  <rect x="0" y="20" width="21" height="1" fill="rgb(255,255,255)" fill-opacity="0.0078125"/>
</svg>