<svg xmlns="http://www.w3.org/2000/svg" shape-rendering="crispEdges" width="21" height="21" viewBox="0 0 21 21">
  <rect x="0" y="0" width="1" height="21" fill="rgb(255,255,255)" fill-opacity="0.0078125"/>
  <rect x="1" y="0" width="1" height="21" fill="rgb(255,255,255)" fill-opacity="0.0078125"/>
  <rect x="2" y="0" width="1" height="21" fill="rgb(255,255,255)" fill-opacity="0.0078125"/>
  <rect x="3" y="0" width="1" height="21" fill="rgb(255,255,255)" fill-opacity="0.0078125"/>
  <rect x="4" y="0" width="1" height="3" fill="rgb(255,255,255)" fill-opacity="0.0078125"/>
  <rect x="4" y="3" width="1" height="1" fill="rgb(117,117,117)" fill-opacity="0.3359375"/>
  <rect x="4" y="4" width="1" height="1" fill="rgb(52,52,53)"/>
  <rect x="4" y="5" width="1" height="1" fill="rgb(50,50,51)"/>
  <rect x="4" y="6" width="1" height="1" fill="rgb(48,49,50)"/>
  <rect x="4" y="7" width="1" height="1" fill="rgb(46,47,48)"/>
  <rect x="4" y="8" width="1" height="1" fill="rgb(45,46,47)"/>
  <rect x="4" y="9" width="1" height="1" fill="rgb(43,44,46)"/>
  <rect x="4" y="10" width="1" height="1" fill="rgb(41,43,45)"/>
  <rect x="4" y="11" width="1" height="1" fill="rgb(39,41,43)"/>
  <rect x="4" y="12" width="1" height="1" fill="rgb(37,39,42)"/>
  <rect x="4" y="13" width="1" height="1" fill="rgb(35,38,41)"/>
  <rect x="4" y="14" width="1" height="1" fill="rgb(34,36,39)"/>
  <rect x="4" y="15" width="1" height="1" fill="rgb(32,34,38)"/>
  <rect x="4" y="16" width="1" height="1" fill="rgb(30,33,36)"/>
  <rect x="4" y="17" width="1" height="1" fill="rgb(28,31,35)"/>
  <rect x="4" y="18" width="1" height="1" fill="rgb(27,39,51)" fill-opacity="0.3359375"/>
  <rect x="4" y="19" width="1" height="2" fill="rgb(255,255,255)" fill-opacity="0.0078125"/>
  <rect x="5" y="0" width="1" height="3" fill="rgb(255,255,255)" fill-opacity="0.0078125"/>
  <rect x="5" y="3" width="1" height="1" fill="rgb(168,168,171)" fill-opacity="0.3359375"/>
  <rect x="5" y="4" width="1" height="1" fill="rgb(255,255,255)" fill-opacity="0.8046875"/>
  <rect x="5" y="5" width="1" height="1" fill="rgb(148,152,157)"/>
  <rect x="5" y="6" width="1" height="1" fill="rgb(255,255,255)" fill-opacity="0.8046875"/>
  <rect x="5" y="7" width="1" height="1" fill="rgb(129,135,143)"/>
  <rect x="5" y="8" width="1" height="1" fill="rgb(255,255,255)" fill-opacity="0.8046875"/>
  <rect x="5" y="9" width="1" height="1" fill="rgb(109,118,128)"/>
  <rect x="5" y="10" width="1" height="1" fill="rgb(255,255,255)" fill-opacity="0.8046875"/>
  <rect x="5" y="11" width="1" height="1" fill="rgb(89,100,114)"/>
  <rect x="5" y="12" width="1" height="1" fill="rgb(255,255,255)" fill-opacity="0.8046875"/>
  <rect x="5" y="13" width="1" height="1" fill="rgb(69,83,99)"/>
  <rect x="5" y="14" width="1" height="1" fill="rgb(255,255,255)" fill-opacity="0.8046875"/>
  <rect x="5" y="15" width="1" height="1" fill="rgb(50,65,85)"/>
  <rect x="5" y="16" width="1" height="1" fill="rgb(255,255,255)" fill-opacity="0.8046875"/>
  <rect x="5" y="17" width="1" height="1" fill="rgb(30,48,70)"/>
  <rect x="5" y="18" width="1" height="1" fill="rgb(255,255,255)" fill-opacity="0.2734375"/>
  <rect x="5" y="19" width="1" height="2" fill="rgb(255,255,255)" fill-opacity="0.0078125"/>
  <rect x="6" y="0" width="1" height="3" fill="rgb(255,255,255)" fill-opacity="0.0078125"/>
  <rect x="6" y="3" width="1" height="1" fill="rgb(186,177,147)" fill-opacity="0.3359375"/>
  <rect x="6" y="4" width="1" height="1" fill="rgb(153,156,155)"/>
  <rect x="6" y="5" width="1" height="1" fill="rgb(139,144,150)"/>
  <rect x="6" y="6" width="1" height="1" fill="rgb(129,136,143)"/>
  <rect x="6" y="7" width="1" height="1" fill="rgb(119,127,136)"/>
  <rect x="6" y="8" width="1" height="1" fill="rgb(110,118,129)"/>
  <rect x="6" y="9" width="1" height="1" fill="rgb(100,110,121)"/>
  <rect x="6" y="10" width="1" height="1" fill="rgb(90,101,114)"/>
  <rect x="6" y="11" width="1" height="1" fill="rgb(87,97,107)"/>
  <rect x="6" y="12" width="1" height="1" fill="rgb(119,120,98)"/>
  <rect x="6" y="13" width="1" height="1" fill="rgb(135,131,91)"/>
  <rect x="6" y="14" width="1" height="1" fill="rgb(105,107,87)"/>
  <rect x="6" y="15" width="1" height="1" fill="rgb(48,64,79)"/>
  <rect x="6" y="16" width="1" height="1" fill="rgb(31,49,71)"/>
  <rect x="6" y="17" width="1" height="1" fill="rgb(24,43,66)"/>
  <rect x="6" y="18" width="1" height="1" fill="rgb(24,42,66)" fill-opacity="0.3359375"/>
  <rect x="6" y="19" width="1" height="2" fill="rgb(255,255,255)" fill-opacity="0.0078125"/>
  <rect x="7" y="0" width="1" height="3" fill="rgb(255,255,255)" fill-opacity="0.0078125"/>
  <rect x="7" y="3" width="1" height="1" fill="rgb(240,213,108)" fill-opacity="0.3359375"/>
  <rect x="7" y="4" width="1" height="1" fill="rgb(235,227,193)"/>
  <rect x="7" y="5" width="1" height="1" fill="rgb(226,226,226)"/>
  <rect x="7" y="6" width="1" height="1" fill="rgb(223,223,223)"/>
  <rect x="7" y="7" width="1" height="1" fill="rgb(220,220,220)"/>
  <rect x="7" y="8" width="1" height="1" fill="rgb(218,218,218)"/>
  <rect x="7" y="9" width="1" height="1" fill="rgb(225,225,225)"/>
  <rect x="7" y="10" width="1" height="1" fill="rgb(81,93,107)"/>
  <rect x="7" y="11" width="1" height="1" fill="rgb(243,235,201)"/>
  <rect x="7" y="12" width="1" height="1" fill="rgb(243,216,109)"/>
  <rect x="7" y="13" width="1" height="1" fill="rgb(240,196,17)"/>
  <rect x="7" y="14" width="1" height="1" fill="rgb(241,214,107)"/>
  <rect x="7" y="15" width="1" height="1" fill="rgb(235,227,193)"/>
  <rect x="7" y="16" width="1" height="1" fill="rgb(226,226,226)"/>
  <rect x="7" y="17" width="1" height="1" fill="rgb(223,223,223)"/>
  <rect x="7" y="18" width="1" height="1" fill="rgb(219,219,219)" fill-opacity="0.3359375"/>
  <rect x="7" y="19" width="1" height="2" fill="rgb(255,255,255)" fill-opacity="0.0078125"/>
  <rect x="8" y="0" width="1" height="3" fill="rgb(255,255,255)" fill-opacity="0.0078125"/>
  <rect x="8" y="3" width="1" height="1" fill="rgb(240,195,18)" fill-opacity="0.3359375"/>
  <rect x="8" y="4" width="1" height="1" fill="rgb(237,224,174)"/>
  <rect x="8" y="5" width="1" height="1" fill="rgb(181,181,181)"/>
  <rect x="8" y="6" width="1" height="2" fill="rgb(107,107,107)"/>
  <rect x="8" y="8" width="1" height="1" fill="rgb(175,175,175)"/>
  <rect x="8" y="9" width="1" height="1" fill="rgb(234,234,234)"/>
  <rect x="8" y="10" width="1" height="1" fill="rgb(72,85,101)"/>
  <rect x="8" y="11" width="1" height="1" fill="rgb(244,231,181)"/>
  <rect x="8" y="12" width="1" height="1" fill="rgb(240,196,17)"/>
  <rect x="8" y="13" width="1" height="1" fill="rgb(255,255,255)"/>
  <rect x="8" y="14" width="1" height="1" fill="rgb(240,196,17)"/>
  <rect x="8" y="15" width="1" height="1" fill="rgb(237,224,174)"/>
  <rect x="8" y="16" width="1" height="1" fill="rgb(181,181,181)"/>
  <rect x="8" y="17" width="1" height="1" fill="rgb(107,107,107)"/>
  <rect x="8" y="18" width="1" height="1" fill="rgb(108,108,108)" fill-opacity="0.3359375"/>
  <rect x="8" y="19" width="1" height="2" fill="rgb(255,255,255)" fill-opacity="0.0078125"/>
  <rect x="9" y="0" width="1" height="3" fill="rgb(255,255,255)" fill-opacity="0.0078125"/>
  <rect x="9" y="3" width="1" height="1" fill="rgb(240,213,105)" fill-opacity="0.3359375"/>
  <rect x="9" y="4" width="1" height="1" fill="rgb(231,223,189)"/>
  <rect x="9" y="5" width="1" height="1" fill="rgb(107,107,107)"/>
  <rect x="9" y="6" width="1" height="1" fill="rgb(249,249,249)"/>
  <rect x="9" y="7" width="1" height="1" fill="rgb(241,241,241)"/>
  <rect x="9" y="8" width="1" height="1" fill="rgb(100,100,100)"/>
  <rect x="9" y="9" width="1" height="1" fill="rgb(232,232,232)"/>
  <rect x="9" y="10" width="1" height="1" fill="rgb(62,77,94)"/>
  <rect x="9" y="11" width="1" height="1" fill="rgb(240,231,197)"/>
  <rect x="9" y="12" width="1" height="1" fill="rgb(241,214,107)"/>
  <rect x="9" y="13" width="1" height="1" fill="rgb(240,196,17)"/>
  <rect x="9" y="14" width="1" height="1" fill="rgb(239,212,106)"/>
  <rect x="9" y="15" width="1" height="1" fill="rgb(231,223,189)"/>
  <rect x="9" y="16" width="1" height="1" fill="rgb(107,107,107)"/>
  <rect x="9" y="17" width="1" height="1" fill="rgb(249,249,249)"/>
  <rect x="9" y="18" width="1" height="1" fill="rgb(240,240,240)" fill-opacity="0.3359375"/>
  <rect x="9" y="19" width="1" height="2" fill="rgb(255,255,255)" fill-opacity="0.0078125"/>
  <rect x="10" y="0" width="1" height="3" fill="rgb(255,255,255)" fill-opacity="0.0078125"/>
  <rect x="10" y="3" width="1" height="1" fill="rgb(108,141,171)" fill-opacity="0.3359375"/>
  <rect x="10" y="4" width="1" height="1" fill="rgb(57,108,181)"/>
  <rect x="10" y="5" width="1" height="1" fill="rgb(91,95,102)"/>
  <rect x="10" y="6" width="1" height="1" fill="rgb(241,241,241)"/>
  <rect x="10" y="7" width="1" height="1" fill="rgb(183,183,183)"/>
  <rect x="10" y="8" width="1" height="1" fill="rgb(64,64,64)"/>
  <rect x="10" y="9" width="1" height="1" fill="rgb(231,231,231)"/>
  <rect x="10" y="10" width="1" height="1" fill="rgb(53,69,87)"/>
  <rect x="10" y="11" width="1" height="1" fill="rgb(232,231,225)"/>
  <rect x="10" y="12" width="1" height="1" fill="rgb(148,169,180)"/>
  <rect x="10" y="13" width="1" height="1" fill="rgb(132,155,158)"/>
  <rect x="10" y="14" width="1" height="1" fill="rgb(108,142,172)"/>
  <rect x="10" y="15" width="1" height="1" fill="rgb(57,108,181)"/>
  <rect x="10" y="16" width="1" height="1" fill="rgb(91,95,102)"/>
  <rect x="10" y="17" width="1" height="1" fill="rgb(241,241,241)"/>
  <rect x="10" y="18" width="1" height="1" fill="rgb(183,183,183)" fill-opacity="0.3359375"/>
  <rect x="10" y="19" width="1" height="2" fill="rgb(255,255,255)" fill-opacity="0.0078125"/>
  <rect x="11" y="0" width="1" height="3" fill="rgb(255,255,255)" fill-opacity="0.0078125"/>
  <rect x="11" y="3" width="1" height="1" fill="rgb(162,192,231)" fill-opacity="0.3359375"/>
  <rect x="11" y="4" width="1" height="1" fill="rgb(162,190,232)"/>
  <rect x="11" y="5" width="1" height="1" fill="rgb(125,144,172)"/>
  <rect x="11" y="6" width="1" height="1" fill="rgb(50,53,56)"/>
  <rect x="11" y="7" width="1" height="1" fill="rgb(42,42,42)"/>
  <rect x="11" y="8" width="1" height="1" fill="rgb(128,128,128)"/>
  <rect x="11" y="9" width="1" height="1" fill="rgb(230,230,230)"/>
  <rect x="11" y="10" width="1" height="1" fill="rgb(44,61,81)"/>
  <rect x="11" y="11" width="1" height="1" fill="rgb(228,228,228)"/>
  <rect x="11" y="12" width="1" height="1" fill="rgb(55,113,200)"/>
  <rect x="11" y="13" width="1" height="1" fill="rgb(255,255,255)"/>
  <rect x="11" y="14" width="1" height="1" fill="rgb(163,191,232)"/>
  <rect x="11" y="15" width="1" height="1" fill="rgb(162,190,232)"/>
  <rect x="11" y="16" width="1" height="1" fill="rgb(125,144,172)"/>
  <rect x="11" y="17" width="1" height="1" fill="rgb(50,53,56)"/>
  <rect x="11" y="18" width="1" height="1" fill="rgb(42,42,42)" fill-opacity="0.3359375"/>
  <rect x="11" y="19" width="1" height="2" fill="rgb(255,255,255)" fill-opacity="0.0078125"/>
  <rect x="12" y="0" width="1" height="3" fill="rgb(255,255,255)" fill-opacity="0.0078125"/>
  <rect x="12" y="3" width="1" height="1" fill="rgb(99,141,201)" fill-opacity="0.3359375"/>
  <rect x="12" y="4" width="1" height="1" fill="rgb(98,139,199)"/>
  <rect x="12" y="5" width="1" height="1" fill="rgb(96,137,199)"/>
  <rect x="12" y="6" width="1" height="1" fill="rgb(16,52,105)"/>
  <rect x="12" y="7" width="1" height="1" fill="rgb(206,206,206)"/>
  <rect x="12" y="8" width="1" height="1" fill="rgb(204,204,204)"/>
  <rect x="12" y="9" width="1" height="1" fill="rgb(228,228,228)"/>
  <rect x="12" y="10" width="1" height="1" fill="rgb(35,53,74)"/>
  <rect x="12" y="11" width="1" height="1" fill="rgb(225,225,225)"/>
  <rect x="12" y="12" width="1" height="1" fill="rgb(55,113,200)"/>
  <rect x="12" y="13" width="1" height="1" fill="rgb(255,255,255)"/>
  <rect x="12" y="14" width="1" height="1" fill="rgb(99,140,200)"/>
  <rect x="12" y="15" width="1" height="1" fill="rgb(98,139,199)"/>
  <rect x="12" y="16" width="1" height="1" fill="rgb(96,137,199)"/>
  <rect x="12" y="17" width="1" height="1" fill="rgb(16,52,105)"/>
  <rect x="12" y="18" width="1" height="1" fill="rgb(207,207,207)" fill-opacity="0.3359375"/>
  <rect x="12" y="19" width="1" height="2" fill="rgb(255,255,255)" fill-opacity="0.0078125"/>
  <rect x="13" y="0" width="1" height="3" fill="rgb(255,255,255)" fill-opacity="0.0078125"/>
  <rect x="13" y="3" width="1" height="1" fill="rgb(36,84,156)" fill-opacity="0.3359375"/>
  <rect x="13" y="4" width="1" height="1" fill="rgb(27,69,133)"/>
  <rect x="13" y="5" width="1" height="1" fill="rgb(18,55,110)"/>
  <rect x="13" y="6" width="1" height="1" fill="rgb(62,87,126)"/>
  <rect x="13" y="7" width="1" height="1" fill="rgb(204,204,204)"/>
  <rect x="13" y="8" width="1" height="1" fill="rgb(201,201,201)"/>
  <rect x="13" y="9" width="1" height="1" fill="rgb(227,227,227)"/>
  <rect x="13" y="10" width="1" height="1" fill="rgb(26,45,67)"/>
  <rect x="13" y="11" width="1" height="1" fill="rgb(223,223,223)"/>
  <rect x="13" y="12" width="1" height="1" fill="rgb(95,138,202)"/>
  <rect x="13" y="13" width="1" height="1" fill="rgb(46,98,178)"/>
  <rect x="13" y="14" width="1" height="1" fill="rgb(37,84,155)"/>
  <rect x="13" y="15" width="1" height="1" fill="rgb(27,69,133)"/>
  <rect x="13" y="16" width="1" height="1" fill="rgb(18,55,110)"/>
  <rect x="13" y="17" width="1" height="1" fill="rgb(62,87,126)"/>
  <rect x="13" y="18" width="1" height="1" fill="rgb(204,204,204)" fill-opacity="0.3359375"/>
  <rect x="13" y="19" width="1" height="2" fill="rgb(255,255,255)" fill-opacity="0.0078125"/>
  <rect x="14" y="0" width="1" height="3" fill="rgb(255,255,255)" fill-opacity="0.0078125"/>
  <rect x="14" y="3" width="1" height="1" fill="rgb(234,234,234)" fill-opacity="0.3359375"/>
  <rect x="14" y="4" width="1" height="1" fill="rgb(232,232,232)"/>
  <rect x="14" y="5" width="1" height="1" fill="rgb(231,231,231)"/>
  <rect x="14" y="6" width="1" height="1" fill="rgb(229,229,229)"/>
  <rect x="14" y="7" width="1" height="1" fill="rgb(228,228,228)"/>
  <rect x="14" y="8" width="1" height="1" fill="rgb(227,227,227)"/>
  <rect x="14" y="9" width="1" height="1" fill="rgb(221,221,221)"/>
  <rect x="14" y="10" width="1" height="1" fill="rgb(24,43,66)"/>
  <rect x="14" y="11" width="1" height="1" fill="rgb(235,235,235)"/>
  <rect x="14" y="12" width="1" height="1" fill="rgb(236,236,236)"/>
  <rect x="14" y="13" width="1" height="1" fill="rgb(235,235,235)"/>
  <rect x="14" y="14" width="1" height="1" fill="rgb(234,234,234)"/>
  <rect x="14" y="15" width="1" height="1" fill="rgb(232,232,232)"/>
  <rect x="14" y="16" width="1" height="1" fill="rgb(231,231,231)"/>
  <rect x="14" y="17" width="1" height="1" fill="rgb(229,229,229)"/>
  <rect x="14" y="18" width="1" height="1" fill="rgb(228,228,228)" fill-opacity="0.3359375"/>
  <rect x="14" y="19" width="1" height="2" fill="rgb(255,255,255)" fill-opacity="0.0078125"/>
  <rect x="15" y="0" width="1" height="3" fill="rgb(255,255,255)" fill-opacity="0.0078125"/>
  <rect x="15" y="3" width="1" height="1" fill="rgb(78,90,105)" fill-opacity="0.3359375"/>
  <rect x="15" y="4" width="1" height="1" fill="rgb(67,81,97)"/>
  <rect x="15" y="5" width="1" height="1" fill="rgb(57,72,90)"/>
  <rect x="15" y="6" width="1" height="1" fill="rgb(47,63,83)"/>
  <rect x="15" y="7" width="1" height="1" fill="rgb(37,54,76)"/>
  <rect x="15" y="8" width="1" height="1" fill="rgb(27,46,68)"/>
  <rect x="15" y="9" width="1" height="9" fill="rgb(24,43,66)"/>
  <rect x="15" y="18" width="1" height="1" fill="rgb(24,42,66)" fill-opacity="0.3359375"/>
  <rect x="15" y="19" width="1" height="2" fill="rgb(255,255,255)" fill-opacity="0.0078125"/>
  <rect x="16" y="0" width="1" height="3" fill="rgb(255,255,255)" fill-opacity="0.0078125"/>
  <rect x="16" y="3" width="1" height="1" fill="rgb(69,81,99)" fill-opacity="0.3359375"/>
  <rect x="16" y="4" width="1" height="1" fill="rgb(255,255,255)" fill-opacity="0.8046875"/>
  <rect x="16" y="5" width="1" height="1" fill="rgb(48,64,83)"/>
  <rect x="16" y="6" width="1" height="1" fill="rgb(255,255,255)" fill-opacity="0.8046875"/>
  <rect x="16" y="7" width="1" height="1" fill="rgb(28,47,69)"/>
  <rect x="16" y="8" width="1" height="1" fill="rgb(255,255,255)" fill-opacity="0.8046875"/>
  <rect x="16" y="9" width="1" height="1" fill="rgb(24,43,66)"/>
  <rect x="16" y="10" width="1" height="1" fill="rgb(255,255,255)" fill-opacity="0.8046875"/>
  <rect x="16" y="11" width="1" height="1" fill="rgb(24,43,66)"/>
  <rect x="16" y="12" width="1" height="1" fill="rgb(255,255,255)" fill-opacity="0.8046875"/>
  <rect x="16" y="13" width="1" height="1" fill="rgb(24,43,66)"/>
  <rect x="16" y="14" width="1" height="1" fill="rgb(255,255,255)" fill-opacity="0.8046875"/>
  <rect x="16" y="15" width="1" height="1" fill="rgb(24,43,66)"/>
  <rect x="16" y="16" width="1" height="1" fill="rgb(255,255,255)" fill-opacity="0.8046875"/>
  <rect x="16" y="17" width="1" height="1" fill="rgb(24,43,66)"/>
  <rect x="16" y="18" width="1" height="1" fill="rgb(255,255,255)" fill-opacity="0.2734375"/>
  <rect x="16" y="19" width="1" height="2" fill="rgb(255,255,255)" fill-opacity="0.0078125"/>
  <rect x="17" y="0" width="1" height="3" fill="rgb(255,255,255)" fill-opacity="0.0078125"/>
  <rect x="17" y="3" width="1" height="1" fill="rgb(48,60,72)" fill-opacity="0.3359375"/>
  <rect x="17" y="4" width="1" height="1" fill="rgb(30,33,36)"/>
  <rect x="17" y="5" width="1" height="1" fill="rgb(28,31,35)"/>
  <rect x="17" y="6" width="1" height="1" fill="rgb(26,30,34)"/>
  <rect x="17" y="7" width="1" height="11" fill="rgb(25,29,33)"/>
  <rect x="17" y="18" width="1" height="1" fill="rgb(24,33,45)" fill-opacity="0.3359375"/>
  <rect x="17" y="19" width="1" height="2" fill="rgb(255,255,255)" fill-opacity="0.0078125"/>
  <rect x="18" y="0" width="1" height="21" fill="rgb(255,255,255)" fill-opacity="0.0078125"/>
  <rect x="19" y="0" width="1" height="21" fill="rgb(255,255,255)" fill-opacity="0.0078125"/>
  <rect x="20" y="0" width="1" height="21" fill="rgb(255,255,255)" fill-opacity="0.0078125"/>
</svg>