<svg xmlns="http://www.w3.org/2000/svg" shape-rendering="crispEdges" width="21" height="21" viewBox="0 0 21 21">
  <rect x="0" y="0" width="21" height="1" fill="rgb(255,255,255)" fill-opacity="0.0078125"/>
  <rect x="0" y="1" width="21" height="1" fill="rgb(255,255,255)" fill-opacity="0.0078125"/>
  <rect x="0" y="2" width="21" height="1" fill="rgb(255,255,255)" fill-opacity="0.0078125"/>
  <rect x="0" y="3" width="4" height="1" fill="rgb(255,255,255)" fill-opacity="0.0078125"/>
  <rect x="4" y="3" width="1" height="1" fill="rgb(21,21,21)" fill-opacity="0.0546875"/>
  <rect x="5" y="3" width="1" height="1" fill="rgb(41,41,41)" fill-opacity="0.7890625"/>
  <rect x="6" y="3" width="2" height="1" fill="rgb(43,43,43)" fill-opacity="0.9140625"/>
  <rect x="8" y="3" width="3" height="1" fill="rgb(44,44,44)" fill-opacity="0.9140625"/>
  <rect x="11" y="3" width="4" height="1" fill="rgb(45,45,45)" fill-opacity="0.9140625"/>
  <rect x="15" y="3" width="1" height="1" fill="rgb(46,46,46)" fill-opacity="0.9140625"/>
  <rect x="16" y="3" width="1" height="1" fill="rgb(43,43,43)" fill-opacity="0.8125"/>
  <rect x="17" y="3" width="1" height="1" fill="rgb(24,24,24)" fill-opacity="0.0859375"/>
  <rect x="18" y="3" width="3" height="1" fill="rgb(255,255,255)" fill-opacity="0.0078125"/>
  <rect x="0" y="4" width="4" height="1" fill="rgb(255,255,255)" fill-opacity="0.0078125"/>
  <rect x="4" y="4" width="1" height="1" fill="rgb(41,41,41)" fill-opacity="0.78125"/>
  <rect x="5" y="4" width="1" height="1" fill="rgb(234,234,234)"/>
  <rect x="6" y="4" width="9" height="1" fill="rgb(255,255,255)"/>
  <rect x="15" y="4" width="1" height="1" fill="rgb(251,251,251)"/>
  <rect x="16" y="4" width="1" height="1" fill="rgb(223,223,223)"/>
  <rect x="17" y="4" width="1" height="1" fill="rgb(43,43,43)" fill-opacity="0.84375"/>
  <rect x="18" y="4" width="3" height="1" fill="rgb(255,255,255)" fill-opacity="0.0078125"/>
  <rect x="0" y="5" width="4" height="1" fill="rgb(255,255,255)" fill-opacity="0.0078125"/>
  <rect x="4" y="5" width="1" height="1" fill="rgb(43,43,43)" fill-opacity="0.90625"/>
  <rect x="5" y="5" width="1" height="1" fill="rgb(255,255,255)"/>
  <rect x="6" y="5" width="8" height="1" fill="rgb(102,102,102)"/>
  <rect x="14" y="5" width="1" height="1" fill="rgb(230,230,230)"/>
  <rect x="15" y="5" width="1" height="1" fill="rgb(102,102,102)"/>
  <rect x="16" y="5" width="1" height="1" fill="rgb(248,248,248)"/>
  <rect x="17" y="5" width="1" height="1" fill="rgb(47,47,47)" fill-opacity="0.90625"/>
  <rect x="18" y="5" width="3" height="1" fill="rgb(255,255,255)" fill-opacity="0.0078125"/>
  <rect x="0" y="6" width="4" height="1" fill="rgb(255,255,255)" fill-opacity="0.0078125"/>
  <rect x="4" y="6" width="1" height="1" fill="rgb(44,44,44)" fill-opacity="0.90625"/>
  <rect x="5" y="6" width="1" height="1" fill="rgb(255,255,255)"/>
  <rect x="6" y="6" width="1" height="1" fill="rgb(204,204,204)"/>
  <rect x="7" y="6" width="1" height="1" fill="rgb(207,207,207)"/>
  <rect x="8" y="6" width="1" height="1" fill="rgb(210,210,210)"/>
  <rect x="9" y="6" width="1" height="1" fill="rgb(212,212,212)"/>
  <rect x="10" y="6" width="1" height="1" fill="rgb(215,215,215)"/>
  <rect x="11" y="6" width="1" height="1" fill="rgb(218,218,218)"/>
  <rect x="12" y="6" width="1" height="1" fill="rgb(221,221,221)"/>
  <rect x="13" y="6" width="1" height="1" fill="rgb(224,224,224)"/>
  <rect x="14" y="6" width="1" height="1" fill="rgb(227,227,227)"/>
  <rect x="15" y="6" width="1" height="1" fill="rgb(230,230,230)"/>
  <rect x="16" y="6" width="1" height="1" fill="rgb(247,247,247)"/>
  <rect x="17" y="6" width="1" height="1" fill="rgb(49,49,49)" fill-opacity="0.90625"/>
  <rect x="18" y="6" width="3" height="1" fill="rgb(255,255,255)" fill-opacity="0.0078125"/>
  <rect x="0" y="7" width="4" height="1" fill="rgb(255,255,255)" fill-opacity="0.0078125"/>
  <rect x="4" y="7" width="1" height="1" fill="rgb(44,44,44)" fill-opacity="0.90625"/>
  <rect x="5" y="7" width="1" height="1" fill="rgb(255,255,255)"/>
  <rect x="6" y="7" width="1" height="1" fill="rgb(207,207,207)"/>
  <rect x="7" y="7" width="1" height="1" fill="rgb(210,210,210)"/>
  <rect x="8" y="7" width="1" height="1" fill="rgb(213,213,213)"/>
  <rect x="9" y="7" width="1" height="1" fill="rgb(216,216,216)"/>
  <rect x="10" y="7" width="1" height="1" fill="rgb(218,218,218)"/>
  <rect x="11" y="7" width="1" height="1" fill="rgb(221,221,221)"/>
  <rect x="12" y="7" width="1" height="1" fill="rgb(224,224,224)"/>
  <rect x="13" y="7" width="1" height="1" fill="rgb(227,227,227)"/>
  <rect x="14" y="7" width="1" height="1" fill="rgb(230,230,230)"/>
  <rect x="15" y="7" width="1" height="1" fill="rgb(233,233,233)"/>
  <rect x="16" y="7" width="1" height="1" fill="rgb(247,247,247)"/>
  <rect x="17" y="7" width="1" height="1" fill="rgb(49,49,49)" fill-opacity="0.90625"/>
  <rect x="18" y="7" width="3" height="1" fill="rgb(255,255,255)" fill-opacity="0.0078125"/>
  <rect x="0" y="8" width="4" height="1" fill="rgb(255,255,255)" fill-opacity="0.0078125"/>
  <rect x="4" y="8" width="1" height="1" fill="rgb(45,45,45)" fill-opacity="0.90625"/>
  <rect x="5" y="8" width="1" height="1" fill="rgb(255,255,255)"/>
  <rect x="6" y="8" width="1" height="1" fill="rgb(210,210,210)"/>
  <rect x="7" y="8" width="1" height="1" fill="rgb(66,66,66)"/>
  <rect x="8" y="8" width="3" height="1" fill="rgb(58,58,58)"/>
  <rect x="11" y="8" width="2" height="1" fill="rgb(106,106,106)"/>
  <rect x="13" y="8" width="1" height="1" fill="rgb(139,139,139)"/>
  <rect x="14" y="8" width="1" height="1" fill="rgb(188,188,188)"/>
  <rect x="15" y="8" width="1" height="1" fill="rgb(236,236,236)"/>
  <rect x="16" y="8" width="1" height="1" fill="rgb(247,247,247)"/>
  <rect x="17" y="8" width="1" height="1" fill="rgb(50,50,50)" fill-opacity="0.90625"/>
  <rect x="18" y="8" width="3" height="1" fill="rgb(255,255,255)" fill-opacity="0.0078125"/>
  <rect x="0" y="9" width="4" height="1" fill="rgb(255,255,255)" fill-opacity="0.0078125"/>
  <rect x="4" y="9" width="1" height="1" fill="rgb(45,45,45)" fill-opacity="0.90625"/>
  <rect x="5" y="9" width="1" height="1" fill="rgb(255,255,255)"/>
  <rect x="6" y="9" width="1" height="1" fill="rgb(213,213,213)"/>
  <rect x="7" y="9" width="1" height="1" fill="rgb(58,58,58)"/>
  <rect x="8" y="9" width="3" height="1" fill="rgb(128,128,128)"/>
  <rect x="11" y="9" width="3" height="1" fill="rgb(236,236,236)"/>
  <rect x="14" y="9" width="1" height="1" fill="rgb(217,217,217)"/>
  <rect x="15" y="9" width="1" height="1" fill="rgb(239,239,239)"/>
  <rect x="16" y="9" width="1" height="1" fill="rgb(248,248,248)"/>
  <rect x="17" y="9" width="1" height="1" fill="rgb(51,51,51)" fill-opacity="0.90625"/>
  <rect x="18" y="9" width="3" height="1" fill="rgb(255,255,255)" fill-opacity="0.0078125"/>
  <rect x="0" y="10" width="4" height="1" fill="rgb(255,255,255)" fill-opacity="0.0078125"/>
  <rect x="4" y="10" width="1" height="1" fill="rgb(46,46,46)" fill-opacity="0.8984375"/>
  <rect x="5" y="10" width="1" height="1" fill="rgb(255,255,255)"/>
  <rect x="6" y="10" width="1" height="1" fill="rgb(216,216,216)"/>
  <rect x="7" y="10" width="1" height="1" fill="rgb(58,58,58)"/>
  <rect x="8" y="10" width="3" height="1" fill="rgb(128,128,128)"/>
  <rect x="11" y="10" width="3" height="1" fill="rgb(236,236,236)"/>
  <rect x="14" y="10" width="1" height="1" fill="rgb(244,244,244)"/>
  <rect x="15" y="10" width="1" height="1" fill="rgb(242,242,242)"/>
  <rect x="16" y="10" width="1" height="1" fill="rgb(249,249,249)"/>
  <rect x="17" y="10" width="1" height="1" fill="rgb(51,51,51)" fill-opacity="0.90625"/>
  <rect x="18" y="10" width="3" height="1" fill="rgb(255,255,255)" fill-opacity="0.0078125"/>
  <rect x="0" y="11" width="4" height="1" fill="rgb(255,255,255)" fill-opacity="0.0078125"/>
  <rect x="4" y="11" width="1" height="1" fill="rgb(47,47,47)" fill-opacity="0.8984375"/>
  <rect x="5" y="11" width="1" height="1" fill="rgb(255,255,255)"/>
  <rect x="6" y="11" width="1" height="1" fill="rgb(219,219,219)"/>
  <rect x="7" y="11" width="1" height="1" fill="rgb(58,58,58)"/>
  <rect x="8" y="11" width="3" height="1" fill="rgb(128,128,128)"/>
  <rect x="11" y="11" width="3" height="1" fill="rgb(236,236,236)"/>
  <rect x="14" y="11" width="1" height="1" fill="rgb(244,244,244)"/>
  <rect x="15" y="11" width="1" height="1" fill="rgb(246,246,246)"/>
  <rect x="16" y="11" width="1" height="1" fill="rgb(250,250,250)"/>
  <rect x="17" y="11" width="1" height="1" fill="rgb(52,52,52)" fill-opacity="0.90625"/>
  <rect x="18" y="11" width="3" height="1" fill="rgb(255,255,255)" fill-opacity="0.0078125"/>
  <rect x="0" y="12" width="4" height="1" fill="rgb(255,255,255)" fill-opacity="0.0078125"/>
  <rect x="4" y="12" width="1" height="1" fill="rgb(47,47,47)" fill-opacity="0.8984375"/>
  <rect x="5" y="12" width="1" height="1" fill="rgb(255,255,255)"/>
  <rect x="6" y="12" width="1" height="1" fill="rgb(222,222,222)"/>
  <rect x="7" y="12" width="1" height="1" fill="rgb(106,106,106)"/>
  <rect x="8" y="12" width="3" height="1" fill="rgb(236,236,236)"/>
  <rect x="11" y="12" width="3" height="1" fill="rgb(128,128,128)"/>
  <rect x="14" y="12" width="1" height="1" fill="rgb(179,179,179)"/>
  <rect x="15" y="12" width="1" height="1" fill="rgb(249,249,249)"/>
  <rect x="16" y="12" width="1" height="1" fill="rgb(253,253,253)"/>
  <rect x="17" y="12" width="1" height="1" fill="rgb(52,52,52)" fill-opacity="0.90625"/>
  <rect x="18" y="12" width="3" height="1" fill="rgb(255,255,255)" fill-opacity="0.0078125"/>
  <rect x="0" y="13" width="4" height="1" fill="rgb(255,255,255)" fill-opacity="0.0078125"/>
  <rect x="4" y="13" width="1" height="1" fill="rgb(47,47,47)" fill-opacity="0.890625"/>
  <rect x="5" y="13" width="1" height="1" fill="rgb(255,255,255)"/>
  <rect x="6" y="13" width="1" height="1" fill="rgb(225,225,225)"/>
  <rect x="7" y="13" width="1" height="1" fill="rgb(106,106,106)"/>
  <rect x="8" y="13" width="3" height="1" fill="rgb(236,236,236)"/>
  <rect x="11" y="13" width="3" height="1" fill="rgb(128,128,128)"/>
  <rect x="14" y="13" width="1" height="1" fill="rgb(179,179,179)"/>
  <rect x="15" y="13" width="1" height="1" fill="rgb(252,252,252)"/>
  <rect x="16" y="13" width="1" height="1" fill="rgb(255,255,255)"/>
  <rect x="17" y="13" width="1" height="1" fill="rgb(53,53,53)" fill-opacity="0.90625"/>
  <rect x="18" y="13" width="3" height="1" fill="rgb(255,255,255)" fill-opacity="0.0078125"/>
  <rect x="0" y="14" width="4" height="1" fill="rgb(255,255,255)" fill-opacity="0.0078125"/>
  <rect x="4" y="14" width="1" height="1" fill="rgb(48,48,48)" fill-opacity="0.890625"/>
  <rect x="5" y="14" width="1" height="1" fill="rgb(255,255,255)"/>
  <rect x="6" y="14" width="1" height="1" fill="rgb(228,228,228)"/>
  <rect x="7" y="14" width="1" height="1" fill="rgb(139,139,139)"/>
  <rect x="8" y="14" width="3" height="1" fill="rgb(236,236,236)"/>
  <rect x="11" y="14" width="3" height="1" fill="rgb(128,128,128)"/>
  <rect x="14" y="14" width="1" height="1" fill="rgb(179,179,179)"/>
  <rect x="15" y="14" width="2" height="1" fill="rgb(255,255,255)"/>
  <rect x="17" y="14" width="1" height="1" fill="rgb(55,55,55)" fill-opacity="0.8984375"/>
  <rect x="18" y="14" width="3" height="1" fill="rgb(255,255,255)" fill-opacity="0.0078125"/>
  <rect x="0" y="15" width="4" height="1" fill="rgb(255,255,255)" fill-opacity="0.0078125"/>
  <rect x="4" y="15" width="1" height="1" fill="rgb(48,48,48)" fill-opacity="0.890625"/>
  <rect x="5" y="15" width="1" height="1" fill="rgb(255,255,255)"/>
  <rect x="6" y="15" width="1" height="1" fill="rgb(231,231,231)"/>
  <rect x="7" y="15" width="1" height="1" fill="rgb(188,188,188)"/>
  <rect x="8" y="15" width="1" height="1" fill="rgb(217,217,217)"/>
  <rect x="9" y="15" width="2" height="1" fill="rgb(244,244,244)"/>
  <rect x="11" y="15" width="3" height="1" fill="rgb(179,179,179)"/>
  <rect x="14" y="15" width="1" height="1" fill="rgb(173,173,173)"/>
  <rect x="15" y="15" width="2" height="1" fill="rgb(255,255,255)"/>
  <rect x="17" y="15" width="1" height="1" fill="rgb(55,55,55)" fill-opacity="0.8984375"/>
  <rect x="18" y="15" width="3" height="1" fill="rgb(255,255,255)" fill-opacity="0.0078125"/>
  <rect x="0" y="16" width="4" height="1" fill="rgb(255,255,255)" fill-opacity="0.0078125"/>
  <rect x="4" y="16" width="1" height="1" fill="rgb(50,50,50)" fill-opacity="0.890625"/>
  <rect x="5" y="16" width="1" height="1" fill="rgb(255,255,255)"/>
  <rect x="6" y="16" width="1" height="1" fill="rgb(234,234,234)"/>
  <rect x="7" y="16" width="1" height="1" fill="rgb(237,237,237)"/>
  <rect x="8" y="16" width="1" height="1" fill="rgb(240,240,240)"/>
  <rect x="9" y="16" width="1" height="1" fill="rgb(243,243,243)"/>
  <rect x="10" y="16" width="1" height="1" fill="rgb(246,246,246)"/>
  <rect x="11" y="16" width="1" height="1" fill="rgb(249,249,249)"/>
  <rect x="12" y="16" width="1" height="1" fill="rgb(252,252,252)"/>
  <rect x="13" y="16" width="4" height="1" fill="rgb(255,255,255)"/>
  <rect x="17" y="16" width="1" height="1" fill="rgb(56,56,56)" fill-opacity="0.8984375"/>
  <rect x="18" y="16" width="3" height="1" fill="rgb(255,255,255)" fill-opacity="0.0078125"/>
  <rect x="0" y="17" width="4" height="1" fill="rgb(255,255,255)" fill-opacity="0.0078125"/>
  <rect x="4" y="17" width="1" height="1" fill="rgb(44,44,44)" fill-opacity="0.859375"/>
  <rect x="5" y="17" width="1" height="1" fill="rgb(245,245,245)"/>
  <rect x="6" y="17" width="1" height="1" fill="rgb(255,255,255)"/>
  <rect x="7" y="17" width="1" height="1" fill="rgb(254,254,254)"/>
  <rect x="8" y="17" width="3" height="1" fill="rgb(253,253,253)"/>
  <rect x="11" y="17" width="1" height="1" fill="rgb(254,254,254)"/>
  <rect x="12" y="17" width="4" height="1" fill="rgb(255,255,255)"/>
  <rect x="16" y="17" width="1" height="1" fill="rgb(221,221,221)"/>
  <rect x="17" y="17" width="1" height="1" fill="rgb(48,48,48)" fill-opacity="0.875"/>
  <rect x="18" y="17" width="3" height="1" fill="rgb(255,255,255)" fill-opacity="0.0078125"/>
  <rect x="0" y="18" width="4" height="1" fill="rgb(255,255,255)" fill-opacity="0.0078125"/>
  <rect x="4" y="18" width="1" height="1" fill="rgb(26,26,26)" fill-opacity="0.1640625"/>
  <rect x="5" y="18" width="1" height="1" fill="rgb(43,43,43)" fill-opacity="0.8828125"/>
  <rect x="6" y="18" width="5" height="1" fill="rgb(48,48,48)" fill-opacity="0.9140625"/>
  <rect x="11" y="18" width="5" height="1" fill="rgb(49,49,49)" fill-opacity="0.9140625"/>
  <rect x="16" y="18" width="1" height="1" fill="rgb(46,46,46)" fill-opacity="0.875"/>
  <rect x="17" y="18" width="1" height="1" fill="rgb(26,26,26)" fill-opacity="0.1640625"/>
  <rect x="18" y="18" width="3" height="1" fill="rgb(255,255,255)" fill-opacity="0.0078125"/>
  <rect x="0" y="19" width="21" height="1" fill="rgb(255,255,255)" fill-opacity="0.0078125"/>
  <rect x="0" y="20" width="21" height="1" fill="rgb(255,255,255)" fill-opacity="0.0078125"/>
</svg>