<svg xmlns="http://www.w3.org/2000/svg" shape-rendering="crispEdges" width="21" height="21" viewBox="0 0 21 21">
  <rect x="0" y="0" width="1" height="21" fill="rgb(255,255,255)" fill-opacity="0.0078125"/>
  <rect x="1" y="0" width="1" height="21" fill="rgb(255,255,255)" fill-opacity="0.0078125"/>
  <rect x="2" y="0" width="1" height="21" fill="rgb(255,255,255)" fill-opacity="0.0078125"/>
  <rect x="3" y="0" width="1" height="21" fill="rgb(255,255,255)" fill-opacity="0.0078125"/>
  <rect x="4" y="0" width="1" height="21" fill="rgb(255,255,255)" fill-opacity="0.0078125"/>
  <rect x="5" y="0" width="1" height="21" fill="rgb(255,255,255)" fill-opacity="0.0078125"/>
  <rect x="6" y="0" width="1" height="5" fill="rgb(255,255,255)" fill-opacity="0.0078125"/>
  <rect x="6" y="5" width="1" height="1" fill="rgb(12,23,41)" fill-opacity="0.1796875"/>
  <rect x="6" y="6" width="1" height="1" fill="rgb(20,31,48)" fill-opacity="0.6484375"/>
  <rect x="6" y="7" width="1" height="1" fill="rgb(18,30,46)" fill-opacity="0.8359375"/>
  <rect x="6" y="8" width="1" height="1" fill="rgb(19,31,48)" fill-opacity="0.7734375"/>
  <rect x="6" y="9" width="1" height="1" fill="rgb(17,29,46)" fill-opacity="0.53125"/>
  <rect x="6" y="10" width="1" height="1" fill="rgb(20,20,39)" fill-opacity="0.0546875"/>
  <rect x="6" y="11" width="1" height="10" fill="rgb(255,255,255)" fill-opacity="0.0078125"/>
  <rect x="7" y="0" width="1" height="4" fill="rgb(255,255,255)" fill-opacity="0.0078125"/>
  <rect x="7" y="4" width="1" height="1" fill="rgb(18,31,46)" fill-opacity="0.3984375"/>
  <rect x="7" y="5" width="1" height="1" fill="rgb(57,68,84)" fill-opacity="0.84375"/>
  <rect x="7" y="6" width="1" height="1" fill="rgb(184,191,203)" fill-opacity="0.8515625"/>
  <rect x="7" y="7" width="1" height="1" fill="rgb(208,214,223)" fill-opacity="0.890625"/>
  <rect x="7" y="8" width="1" height="1" fill="rgb(205,211,221)" fill-opacity="0.8671875"/>
  <rect x="7" y="9" width="1" height="1" fill="rgb(167,176,188)" fill-opacity="0.8203125"/>
  <rect x="7" y="10" width="1" height="1" fill="rgb(27,39,56)" fill-opacity="0.8203125"/>
  <rect x="7" y="11" width="1" height="1" fill="rgb(14,21,43)" fill-opacity="0.1484375"/>
  <rect x="7" y="12" width="1" height="1" fill="rgb(255,255,255)" fill-opacity="0.0078125"/>
  <rect x="7" y="13" width="1" height="1" fill="rgb(0,0,0)" fill-opacity="0.0078125"/>
  <rect x="7" y="14" width="1" height="1" fill="rgb(21,21,21)" fill-opacity="0.1015625"/>
  <rect x="7" y="15" width="1" height="1" fill="rgb(0,0,0)" fill-opacity="0.0078125"/>
  <rect x="7" y="16" width="1" height="1" fill="rgb(28,28,28)" fill-opacity="0.2578125"/>
  <rect x="7" y="17" width="1" height="4" fill="rgb(255,255,255)" fill-opacity="0.0078125"/>
  <rect x="8" y="0" width="1" height="3" fill="rgb(255,255,255)" fill-opacity="0.0078125"/>
  <rect x="8" y="3" width="1" height="1" fill="rgb(12,24,42)" fill-opacity="0.171875"/>
  <rect x="8" y="4" width="1" height="1" fill="rgb(55,66,83)" fill-opacity="0.8515625"/>
  <rect x="8" y="5" width="1" height="1" fill="rgb(240,242,245)" fill-opacity="0.96875"/>
  <rect x="8" y="6" width="1" height="1" fill="rgb(223,222,228)" fill-opacity="0.9296875"/>
  <rect x="8" y="7" width="1" height="1" fill="rgb(111,106,132)" fill-opacity="0.71875"/>
  <rect x="8" y="8" width="1" height="1" fill="rgb(117,128,155)" fill-opacity="0.6875"/>
  <rect x="8" y="9" width="1" height="1" fill="rgb(188,197,211)" fill-opacity="0.796875"/>
  <rect x="8" y="10" width="1" height="1" fill="rgb(206,213,221)" fill-opacity="0.859375"/>
  <rect x="8" y="11" width="1" height="1" fill="rgb(63,75,91)" fill-opacity="0.859375"/>
  <rect x="8" y="12" width="1" height="1" fill="rgb(19,31,47)" fill-opacity="0.75"/>
  <rect x="8" y="13" width="1" height="1" fill="rgb(49,47,32)" fill-opacity="0.859375"/>
  <rect x="8" y="14" width="1" height="1" fill="rgb(100,98,85)"/>
  <rect x="8" y="15" width="1" height="1" fill="rgb(37,35,29)"/>
  <rect x="8" y="16" width="1" height="1" fill="rgb(117,114,98)"/>
  <rect x="8" y="17" width="1" height="1" fill="rgb(36,35,28)" fill-opacity="0.7265625"/>
  <rect x="8" y="18" width="1" height="3" fill="rgb(255,255,255)" fill-opacity="0.0078125"/>
  <rect x="9" y="0" width="1" height="3" fill="rgb(255,255,255)" fill-opacity="0.0078125"/>
  <rect x="9" y="3" width="1" height="1" fill="rgb(21,32,48)" fill-opacity="0.6328125"/>
  <rect x="9" y="4" width="1" height="1" fill="rgb(187,194,205)" fill-opacity="0.859375"/>
  <rect x="9" y="5" width="1" height="1" fill="rgb(223,223,228)" fill-opacity="0.9375"/>
  <rect x="9" y="6" width="1" height="1" fill="rgb(214,207,214)" fill-opacity="0.90625"/>
  <rect x="9" y="7" width="1" height="1" fill="rgb(114,100,125)" fill-opacity="0.6953125"/>
  <rect x="9" y="8" width="1" height="1" fill="rgb(216,215,223)" fill-opacity="0.8671875"/>
  <rect x="9" y="9" width="1" height="1" fill="rgb(139,151,176)" fill-opacity="0.65625"/>
  <rect x="9" y="10" width="1" height="1" fill="rgb(194,202,215)" fill-opacity="0.7578125"/>
  <rect x="9" y="11" width="1" height="1" fill="rgb(229,232,238)" fill-opacity="0.84375"/>
  <rect x="9" y="12" width="1" height="1" fill="rgb(217,222,226)" fill-opacity="0.796875"/>
  <rect x="9" y="13" width="1" height="1" fill="rgb(100,93,62)" fill-opacity="0.96875"/>
  <rect x="9" y="14" width="1" height="1" fill="rgb(255,255,254)"/>
  <rect x="9" y="15" width="1" height="1" fill="rgb(190,178,130)"/>
  <rect x="9" y="16" width="1" height="1" fill="rgb(255,255,254)"/>
  <rect x="9" y="17" width="1" height="1" fill="rgb(77,74,61)"/>
  <rect x="9" y="18" width="1" height="3" fill="rgb(255,255,255)" fill-opacity="0.0078125"/>
  <rect x="10" y="0" width="1" height="3" fill="rgb(255,255,255)" fill-opacity="0.0078125"/>
  <rect x="10" y="3" width="1" height="1" fill="rgb(18,29,47)" fill-opacity="0.8203125"/>
  <rect x="10" y="4" width="1" height="1" fill="rgb(212,217,226)" fill-opacity="0.8984375"/>
  <rect x="10" y="5" width="1" height="1" fill="rgb(114,107,133)" fill-opacity="0.734375"/>
  <rect x="10" y="6" width="1" height="1" fill="rgb(109,98,124)" fill-opacity="0.6953125"/>
  <rect x="10" y="7" width="1" height="1" fill="rgb(121,115,140)" fill-opacity="0.6640625"/>
  <rect x="10" y="8" width="1" height="1" fill="rgb(145,146,170)" fill-opacity="0.671875"/>
  <rect x="10" y="9" width="1" height="1" fill="rgb(242,243,246)" fill-opacity="0.9375"/>
  <rect x="10" y="10" width="1" height="1" fill="rgb(162,170,182)" fill-opacity="0.734375"/>
  <rect x="10" y="11" width="1" height="1" fill="rgb(186,194,204)" fill-opacity="0.7265625"/>
  <rect x="10" y="12" width="1" height="1" fill="rgb(210,217,226)" fill-opacity="0.6953125"/>
  <rect x="10" y="13" width="1" height="1" fill="rgb(98,89,58)" fill-opacity="0.953125"/>
  <rect x="10" y="14" width="1" height="1" fill="rgb(254,254,253)"/>
  <rect x="10" y="15" width="1" height="1" fill="rgb(190,177,129)"/>
  <rect x="10" y="16" width="1" height="1" fill="rgb(254,254,253)"/>
  <rect x="10" y="17" width="1" height="1" fill="rgb(108,103,83)"/>
  <rect x="10" y="18" width="1" height="1" fill="rgb(38,38,38)"/>
  <rect x="10" y="19" width="1" height="2" fill="rgb(255,255,255)" fill-opacity="0.0078125"/>
  <rect x="11" y="0" width="1" height="3" fill="rgb(255,255,255)" fill-opacity="0.0078125"/>
  <rect x="11" y="3" width="1" height="1" fill="rgb(18,29,47)" fill-opacity="0.8203125"/>
  <rect x="11" y="4" width="1" height="1" fill="rgb(208,214,224)" fill-opacity="0.875"/>
  <rect x="11" y="5" width="1" height="1" fill="rgb(102,111,140)" fill-opacity="0.6875"/>
  <rect x="11" y="6" width="1" height="1" fill="rgb(104,104,132)" fill-opacity="0.65625"/>
  <rect x="11" y="7" width="1" height="1" fill="rgb(126,131,155)" fill-opacity="0.6484375"/>
  <rect x="11" y="8" width="1" height="1" fill="rgb(156,167,185)" fill-opacity="0.6640625"/>
  <rect x="11" y="9" width="1" height="1" fill="rgb(244,245,248)" fill-opacity="0.9453125"/>
  <rect x="11" y="10" width="1" height="1" fill="rgb(181,186,195)" fill-opacity="0.7734375"/>
  <rect x="11" y="11" width="1" height="1" fill="rgb(206,212,217)" fill-opacity="0.765625"/>
  <rect x="11" y="12" width="1" height="1" fill="rgb(221,226,234)" fill-opacity="0.71875"/>
  <rect x="11" y="13" width="1" height="1" fill="rgb(75,68,34)" fill-opacity="0.9375"/>
  <rect x="11" y="14" width="1" height="1" fill="rgb(213,203,137)"/>
  <rect x="11" y="15" width="1" height="1" fill="rgb(168,152,88)"/>
  <rect x="11" y="16" width="1" height="1" fill="rgb(212,202,135)"/>
  <rect x="11" y="17" width="1" height="1" fill="rgb(108,103,83)"/>
  <rect x="11" y="18" width="1" height="1" fill="rgb(0,0,0)"/>
  <rect x="11" y="19" width="1" height="2" fill="rgb(255,255,255)" fill-opacity="0.0078125"/>
  <rect x="12" y="0" width="1" height="3" fill="rgb(255,255,255)" fill-opacity="0.0078125"/>
  <rect x="12" y="3" width="1" height="1" fill="rgb(21,32,48)" fill-opacity="0.6328125"/>
  <rect x="12" y="4" width="1" height="1" fill="rgb(174,181,194)" fill-opacity="0.8046875"/>
  <rect x="12" y="5" width="1" height="1" fill="rgb(141,155,179)" fill-opacity="0.7109375"/>
  <rect x="12" y="6" width="1" height="1" fill="rgb(94,111,144)" fill-opacity="0.6015625"/>
  <rect x="12" y="7" width="1" height="1" fill="rgb(127,145,171)" fill-opacity="0.609375"/>
  <rect x="12" y="8" width="1" height="1" fill="rgb(228,232,236)" fill-opacity="0.859375"/>
  <rect x="12" y="9" width="1" height="1" fill="rgb(194,201,216)" fill-opacity="0.6953125"/>
  <rect x="12" y="10" width="1" height="1" fill="rgb(227,231,237)" fill-opacity="0.78125"/>
  <rect x="12" y="11" width="1" height="1" fill="rgb(240,242,244)" fill-opacity="0.84375"/>
  <rect x="12" y="12" width="1" height="1" fill="rgb(224,227,230)" fill-opacity="0.7734375"/>
  <rect x="12" y="13" width="1" height="1" fill="rgb(79,72,42)" fill-opacity="0.9609375"/>
  <rect x="12" y="14" width="1" height="1" fill="rgb(195,180,95)"/>
  <rect x="12" y="15" width="1" height="1" fill="rgb(168,152,88)"/>
  <rect x="12" y="16" width="1" height="1" fill="rgb(194,180,94)"/>
  <rect x="12" y="17" width="1" height="1" fill="rgb(72,69,56)"/>
  <rect x="12" y="18" width="1" height="3" fill="rgb(255,255,255)" fill-opacity="0.0078125"/>
  <rect x="13" y="0" width="1" height="3" fill="rgb(255,255,255)" fill-opacity="0.0078125"/>
  <rect x="13" y="3" width="1" height="1" fill="rgb(12,24,42)" fill-opacity="0.171875"/>
  <rect x="13" y="4" width="1" height="1" fill="rgb(45,57,74)" fill-opacity="0.84375"/>
  <rect x="13" y="5" width="1" height="1" fill="rgb(192,200,213)" fill-opacity="0.78125"/>
  <rect x="13" y="6" width="1" height="1" fill="rgb(143,159,182)" fill-opacity="0.6484375"/>
  <rect x="13" y="7" width="1" height="1" fill="rgb(137,152,177)" fill-opacity="0.59375"/>
  <rect x="13" y="8" width="1" height="1" fill="rgb(173,185,201)" fill-opacity="0.6328125"/>
  <rect x="13" y="9" width="1" height="1" fill="rgb(210,217,226)" fill-opacity="0.71875"/>
  <rect x="13" y="10" width="1" height="1" fill="rgb(209,212,219)" fill-opacity="0.7890625"/>
  <rect x="13" y="11" width="1" height="1" fill="rgb(70,78,96)" fill-opacity="0.84375"/>
  <rect x="13" y="12" width="1" height="1" fill="rgb(19,31,47)" fill-opacity="0.75"/>
  <rect x="13" y="13" width="1" height="1" fill="rgb(49,47,32)" fill-opacity="0.859375"/>
  <rect x="13" y="14" width="1" height="1" fill="rgb(64,58,37)"/>
  <rect x="13" y="15" width="1" height="1" fill="rgb(36,34,28)"/>
  <rect x="13" y="16" width="1" height="1" fill="rgb(64,59,36)"/>
  <rect x="13" y="17" width="1" height="1" fill="rgb(36,35,28)" fill-opacity="0.7265625"/>
  <rect x="13" y="18" width="1" height="3" fill="rgb(255,255,255)" fill-opacity="0.0078125"/>
  <rect x="14" y="0" width="1" height="4" fill="rgb(255,255,255)" fill-opacity="0.0078125"/>
  <rect x="14" y="4" width="1" height="1" fill="rgb(18,31,46)" fill-opacity="0.3984375"/>
  <rect x="14" y="5" width="1" height="1" fill="rgb(43,55,71)" fill-opacity="0.8359375"/>
  <rect x="14" y="6" width="1" height="1" fill="rgb(156,166,181)" fill-opacity="0.703125"/>
  <rect x="14" y="7" width="1" height="1" fill="rgb(188,195,209)" fill-opacity="0.671875"/>
  <rect x="14" y="8" width="1" height="1" fill="rgb(189,197,210)" fill-opacity="0.65625"/>
  <rect x="14" y="9" width="1" height="1" fill="rgb(144,152,163)" fill-opacity="0.7109375"/>
  <rect x="14" y="10" width="1" height="1" fill="rgb(26,38,55)" fill-opacity="0.828125"/>
  <rect x="14" y="11" width="1" height="1" fill="rgb(12,25,37)" fill-opacity="0.1640625"/>
  <rect x="14" y="12" width="1" height="2" fill="rgb(255,255,255)" fill-opacity="0.0078125"/>
  <rect x="14" y="14" width="1" height="1" fill="rgb(28,28,28)" fill-opacity="0.2578125"/>
  <rect x="14" y="15" width="1" height="1" fill="rgb(43,43,43)" fill-opacity="0.03125"/>
  <rect x="14" y="16" width="1" height="1" fill="rgb(28,28,28)" fill-opacity="0.2578125"/>
  <rect x="14" y="17" width="1" height="4" fill="rgb(255,255,255)" fill-opacity="0.0078125"/>
  <rect x="15" y="0" width="1" height="5" fill="rgb(255,255,255)" fill-opacity="0.0078125"/>
  <rect x="15" y="5" width="1" height="1" fill="rgb(12,23,41)" fill-opacity="0.1796875"/>
  <rect x="15" y="6" width="1" height="1" fill="rgb(20,31,48)" fill-opacity="0.6484375"/>
  <rect x="15" y="7" width="1" height="1" fill="rgb(18,30,46)" fill-opacity="0.8359375"/>
  <rect x="15" y="8" width="1" height="1" fill="rgb(19,31,48)" fill-opacity="0.7734375"/>
  <rect x="15" y="9" width="1" height="1" fill="rgb(17,29,46)" fill-opacity="0.53125"/>
  <rect x="15" y="10" width="1" height="1" fill="rgb(18,18,36)" fill-opacity="0.0625"/>
  <rect x="15" y="11" width="1" height="10" fill="rgb(255,255,255)" fill-opacity="0.0078125"/>
  <rect x="16" y="0" width="1" height="21" fill="rgb(255,255,255)" fill-opacity="0.0078125"/>
  <rect x="17" y="0" width="1" height="21" fill="rgb(255,255,255)" fill-opacity="0.0078125"/>
  <rect x="18" y="0" width="1" height="21" fill="rgb(255,255,255)" fill-opacity="0.0078125"/>
  <rect x="19" y="0" width="1" height="21" fill="rgb(255,255,255)" fill-opacity="0.0078125"/>
  <rect x="20" y="0" width="1" height="21" fill="rgb(255,255,255)" fill-opacity="0.0078125"/>
</svg>