<svg xmlns="http://www.w3.org/2000/svg" shape-rendering="crispEdges" width="21" height="21" viewBox="0 0 21 21">
  <rect x="0" y="0" width="1" height="21" fill="rgb(255,255,255)" fill-opacity="0.0078125"/>
  <rect x="1" y="0" width="1" height="21" fill="rgb(255,255,255)" fill-opacity="0.0078125"/>
  <rect x="2" y="0" width="1" height="4" fill="rgb(255,255,255)" fill-opacity="0.0078125"/>
  <rect x="2" y="4" width="1" height="2" fill="rgb(0,0,0)" fill-opacity="0.1015625"/>
  <rect x="2" y="6" width="1" height="15" fill="rgb(255,255,255)" fill-opacity="0.0078125"/>
  <rect x="3" y="0" width="1" height="3" fill="rgb(255,255,255)" fill-opacity="0.0078125"/>
  <rect x="3" y="3" width="1" height="1" fill="rgb(0,0,0)" fill-opacity="0.53125"/>
  <rect x="3" y="4" width="1" height="2" fill="rgb(1,1,0)" fill-opacity="0.9921875"/>
  <rect x="3" y="6" width="1" height="1" fill="rgb(0,0,0)" fill-opacity="0.53125"/>
  <rect x="3" y="7" width="1" height="14" fill="rgb(255,255,255)" fill-opacity="0.0078125"/>
  <rect x="4" y="0" width="1" height="2" fill="rgb(255,255,255)" fill-opacity="0.0078125"/>
  <rect x="4" y="2" width="1" height="1" fill="rgb(0,0,0)" fill-opacity="0.1171875"/>
  <rect x="4" y="3" width="1" height="1" fill="rgb(1,1,0)" fill-opacity="0.9921875"/>
  <rect x="4" y="4" width="1" height="2" fill="rgb(255,255,255)"/>
  <rect x="4" y="6" width="1" height="1" fill="rgb(1,1,0)"/>
  <rect x="4" y="7" width="1" height="1" fill="rgb(7,7,7)" fill-opacity="0.1484375"/>
  <rect x="4" y="8" width="1" height="13" fill="rgb(255,255,255)" fill-opacity="0.0078125"/>
  <rect x="5" y="0" width="1" height="2" fill="rgb(255,255,255)" fill-opacity="0.0078125"/>
  <rect x="5" y="2" width="1" height="1" fill="rgb(0,0,0)" fill-opacity="0.1171875"/>
  <rect x="5" y="3" width="1" height="1" fill="rgb(1,1,0)" fill-opacity="0.9921875"/>
  <rect x="5" y="4" width="1" height="2" fill="rgb(255,255,255)"/>
  <rect x="5" y="6" width="1" height="1" fill="rgb(2,2,1)"/>
  <rect x="5" y="7" width="1" height="1" fill="rgb(39,39,39)" fill-opacity="0.7734375"/>
  <rect x="5" y="8" width="1" height="1" fill="rgb(31,31,31)" fill-opacity="0.1015625"/>
  <rect x="5" y="9" width="1" height="12" fill="rgb(255,255,255)" fill-opacity="0.0078125"/>
  <rect x="6" y="0" width="1" height="3" fill="rgb(255,255,255)" fill-opacity="0.0078125"/>
  <rect x="6" y="3" width="1" height="1" fill="rgb(0,0,0)" fill-opacity="0.53125"/>
  <rect x="6" y="4" width="1" height="1" fill="rgb(1,1,0)"/>
  <rect x="6" y="5" width="1" height="1" fill="rgb(2,2,1)"/>
  <rect x="6" y="6" width="1" height="1" fill="rgb(106,106,106)" fill-opacity="0.953125"/>
  <rect x="6" y="7" width="1" height="1" fill="rgb(210,210,210)" fill-opacity="0.90625"/>
  <rect x="6" y="8" width="1" height="1" fill="rgb(67,67,67)" fill-opacity="0.828125"/>
  <rect x="6" y="9" width="1" height="1" fill="rgb(30,30,30)" fill-opacity="0.171875"/>
  <rect x="6" y="10" width="1" height="3" fill="rgb(255,255,255)" fill-opacity="0.0078125"/>
  <rect x="6" y="13" width="1" height="1" fill="rgb(36,36,36)" fill-opacity="0.03125"/>
  <rect x="6" y="14" width="1" height="3" fill="rgb(36,36,36)" fill-opacity="0.0625"/>
  <rect x="6" y="17" width="1" height="1" fill="rgb(28,28,28)" fill-opacity="0.0390625"/>
  <rect x="6" y="18" width="1" height="3" fill="rgb(255,255,255)" fill-opacity="0.0078125"/>
  <rect x="7" y="0" width="1" height="4" fill="rgb(255,255,255)" fill-opacity="0.0078125"/>
  <rect x="7" y="4" width="1" height="1" fill="rgb(0,0,0)" fill-opacity="0.1015625"/>
  <rect x="7" y="5" width="1" height="1" fill="rgb(23,23,23)" fill-opacity="0.53125"/>
  <rect x="7" y="6" width="1" height="1" fill="rgb(111,111,111)" fill-opacity="0.90625"/>
  <rect x="7" y="7" width="1" height="1" fill="rgb(228,228,228)" fill-opacity="0.90625"/>
  <rect x="7" y="8" width="1" height="1" fill="rgb(220,220,220)" fill-opacity="0.90625"/>
  <rect x="7" y="9" width="1" height="1" fill="rgb(67,67,67)" fill-opacity="0.75"/>
  <rect x="7" y="10" width="1" height="2" fill="rgb(255,255,255)" fill-opacity="0.0078125"/>
  <rect x="7" y="12" width="1" height="1" fill="rgb(29,29,29)" fill-opacity="0.453125"/>
  <rect x="7" y="13" width="1" height="1" fill="rgb(78,78,78)" fill-opacity="0.875"/>
  <rect x="7" y="14" width="1" height="1" fill="rgb(89,89,89)" fill-opacity="0.90625"/>
  <rect x="7" y="15" width="1" height="1" fill="rgb(88,88,88)" fill-opacity="0.90625"/>
  <rect x="7" y="16" width="1" height="1" fill="rgb(86,86,86)" fill-opacity="0.90625"/>
  <rect x="7" y="17" width="1" height="1" fill="rgb(78,78,78)" fill-opacity="0.8828125"/>
  <rect x="7" y="18" width="1" height="1" fill="rgb(32,32,32)" fill-opacity="0.4765625"/>
  <rect x="7" y="19" width="1" height="2" fill="rgb(255,255,255)" fill-opacity="0.0078125"/>
  <rect x="8" y="0" width="1" height="6" fill="rgb(255,255,255)" fill-opacity="0.0078125"/>
  <rect x="8" y="6" width="1" height="1" fill="rgb(26,26,26)" fill-opacity="0.359375"/>
  <rect x="8" y="7" width="1" height="1" fill="rgb(103,103,103)" fill-opacity="0.90625"/>
  <rect x="8" y="8" width="1" height="1" fill="rgb(226,226,226)" fill-opacity="0.90625"/>
  <rect x="8" y="9" width="1" height="1" fill="rgb(106,106,106)" fill-opacity="0.90625"/>
  <rect x="8" y="10" width="1" height="1" fill="rgb(36,36,36)" fill-opacity="0.03125"/>
  <rect x="8" y="11" width="1" height="1" fill="rgb(26,26,26)" fill-opacity="0.3828125"/>
  <rect x="8" y="12" width="1" height="1" fill="rgb(122,122,122)" fill-opacity="0.90625"/>
  <rect x="8" y="13" width="1" height="1" fill="rgb(210,210,210)" fill-opacity="0.90625"/>
  <rect x="8" y="14" width="1" height="1" fill="rgb(207,207,207)" fill-opacity="0.90625"/>
  <rect x="8" y="15" width="1" height="1" fill="rgb(203,203,203)" fill-opacity="0.90625"/>
  <rect x="8" y="16" width="1" height="1" fill="rgb(198,198,198)" fill-opacity="0.90625"/>
  <rect x="8" y="17" width="1" height="1" fill="rgb(196,196,196)" fill-opacity="0.90625"/>
  <rect x="8" y="18" width="1" height="1" fill="rgb(77,77,77)" fill-opacity="0.8828125"/>
  <rect x="8" y="19" width="1" height="1" fill="rgb(51,51,51)" fill-opacity="0.0234375"/>
  <rect x="8" y="20" width="1" height="1" fill="rgb(255,255,255)" fill-opacity="0.0078125"/>
  <rect x="9" y="0" width="1" height="4" fill="rgb(255,255,255)" fill-opacity="0.0078125"/>
  <rect x="9" y="4" width="1" height="1" fill="rgb(26,26,26)" fill-opacity="0.2421875"/>
  <rect x="9" y="5" width="1" height="1" fill="rgb(25,25,25)" fill-opacity="0.6796875"/>
  <rect x="9" y="6" width="1" height="1" fill="rgb(26,26,26)" fill-opacity="0.6953125"/>
  <rect x="9" y="7" width="1" height="1" fill="rgb(83,83,83)" fill-opacity="0.90625"/>
  <rect x="9" y="8" width="1" height="1" fill="rgb(224,224,224)" fill-opacity="0.90625"/>
  <rect x="9" y="9" width="1" height="1" fill="rgb(105,105,105)" fill-opacity="0.90625"/>
  <rect x="9" y="10" width="1" height="1" fill="rgb(27,27,27)" fill-opacity="0.265625"/>
  <rect x="9" y="11" width="1" height="1" fill="rgb(86,86,86)" fill-opacity="0.890625"/>
  <rect x="9" y="12" width="1" height="1" fill="rgb(210,210,210)" fill-opacity="0.90625"/>
  <rect x="9" y="13" width="1" height="1" fill="rgb(173,173,173)" fill-opacity="0.90625"/>
  <rect x="9" y="14" width="1" height="2" fill="rgb(86,86,86)" fill-opacity="0.90625"/>
  <rect x="9" y="16" width="1" height="1" fill="rgb(85,85,85)" fill-opacity="0.90625"/>
  <rect x="9" y="17" width="1" height="1" fill="rgb(79,79,79)" fill-opacity="0.8984375"/>
  <rect x="9" y="18" width="1" height="1" fill="rgb(28,28,28)" fill-opacity="0.5"/>
  <rect x="9" y="19" width="1" height="2" fill="rgb(255,255,255)" fill-opacity="0.0078125"/>
  <rect x="10" y="0" width="1" height="4" fill="rgb(255,255,255)" fill-opacity="0.0078125"/>
  <rect x="10" y="4" width="1" height="1" fill="rgb(26,26,26)" fill-opacity="0.65625"/>
  <rect x="10" y="5" width="1" height="1" fill="rgb(215,215,215)" fill-opacity="0.90625"/>
  <rect x="10" y="6" width="1" height="1" fill="rgb(220,220,220)" fill-opacity="0.90625"/>
  <rect x="10" y="7" width="1" height="1" fill="rgb(82,82,82)" fill-opacity="0.90625"/>
  <rect x="10" y="8" width="1" height="1" fill="rgb(222,222,222)" fill-opacity="0.90625"/>
  <rect x="10" y="9" width="1" height="1" fill="rgb(144,144,144)" fill-opacity="0.90625"/>
  <rect x="10" y="10" width="1" height="1" fill="rgb(96,96,96)" fill-opacity="0.90625"/>
  <rect x="10" y="11" width="1" height="1" fill="rgb(201,201,201)" fill-opacity="0.90625"/>
  <rect x="10" y="12" width="1" height="1" fill="rgb(196,196,196)" fill-opacity="0.90625"/>
  <rect x="10" y="13" width="1" height="1" fill="rgb(51,51,51)" fill-opacity="0.8125"/>
  <rect x="10" y="14" width="1" height="1" fill="rgb(27,27,27)" fill-opacity="0.1171875"/>
  <rect x="10" y="15" width="1" height="2" fill="rgb(36,36,36)" fill-opacity="0.0625"/>
  <rect x="10" y="17" width="1" height="1" fill="rgb(28,28,28)" fill-opacity="0.0390625"/>
  <rect x="10" y="18" width="1" height="3" fill="rgb(255,255,255)" fill-opacity="0.0078125"/>
  <rect x="11" y="0" width="1" height="4" fill="rgb(255,255,255)" fill-opacity="0.0078125"/>
  <rect x="11" y="4" width="1" height="1" fill="rgb(26,26,26)" fill-opacity="0.65625"/>
  <rect x="11" y="5" width="1" height="1" fill="rgb(215,215,215)" fill-opacity="0.90625"/>
  <rect x="11" y="6" width="1" height="1" fill="rgb(220,220,220)" fill-opacity="0.90625"/>
  <rect x="11" y="7" width="1" height="1" fill="rgb(82,82,82)" fill-opacity="0.90625"/>
  <rect x="11" y="8" width="1" height="1" fill="rgb(220,220,220)" fill-opacity="0.90625"/>
  <rect x="11" y="9" width="1" height="1" fill="rgb(215,215,215)" fill-opacity="0.90625"/>
  <rect x="11" y="10" width="1" height="1" fill="rgb(212,212,212)" fill-opacity="0.90625"/>
  <rect x="11" y="11" width="1" height="1" fill="rgb(210,210,210)" fill-opacity="0.90625"/>
  <rect x="11" y="12" width="1" height="1" fill="rgb(142,142,142)" fill-opacity="0.90625"/>
  <rect x="11" y="13" width="1" height="1" fill="rgb(27,27,27)" fill-opacity="0.5234375"/>
  <rect x="11" y="14" width="1" height="7" fill="rgb(255,255,255)" fill-opacity="0.0078125"/>
  <rect x="12" y="0" width="1" height="4" fill="rgb(255,255,255)" fill-opacity="0.0078125"/>
  <rect x="12" y="4" width="1" height="1" fill="rgb(26,26,26)" fill-opacity="0.2421875"/>
  <rect x="12" y="5" width="1" height="1" fill="rgb(25,25,25)" fill-opacity="0.6796875"/>
  <rect x="12" y="6" width="1" height="1" fill="rgb(26,26,26)" fill-opacity="0.6953125"/>
  <rect x="12" y="7" width="1" height="1" fill="rgb(81,81,81)" fill-opacity="0.90625"/>
  <rect x="12" y="8" width="1" height="1" fill="rgb(216,216,216)" fill-opacity="0.90625"/>
  <rect x="12" y="9" width="1" height="1" fill="rgb(141,141,141)" fill-opacity="0.90625"/>
  <rect x="12" y="10" width="1" height="1" fill="rgb(90,90,90)" fill-opacity="0.90625"/>
  <rect x="12" y="11" width="1" height="1" fill="rgb(170,170,170)" fill-opacity="0.90625"/>
  <rect x="12" y="12" width="1" height="1" fill="rgb(202,202,202)" fill-opacity="0.90625"/>
  <rect x="12" y="13" width="1" height="1" fill="rgb(71,71,71)" fill-opacity="0.890625"/>
  <rect x="12" y="14" width="1" height="1" fill="rgb(27,27,27)" fill-opacity="0.15625"/>
  <rect x="12" y="15" width="1" height="6" fill="rgb(255,255,255)" fill-opacity="0.0078125"/>
  <rect x="13" y="0" width="1" height="6" fill="rgb(255,255,255)" fill-opacity="0.0078125"/>
  <rect x="13" y="6" width="1" height="1" fill="rgb(32,32,32)" fill-opacity="0.1015625"/>
  <rect x="13" y="7" width="1" height="1" fill="rgb(80,80,80)" fill-opacity="0.90625"/>
  <rect x="13" y="8" width="1" height="1" fill="rgb(215,215,215)" fill-opacity="0.90625"/>
  <rect x="13" y="9" width="1" height="1" fill="rgb(101,101,101)" fill-opacity="0.90625"/>
  <rect x="13" y="10" width="1" height="1" fill="rgb(31,31,31)" fill-opacity="0.1640625"/>
  <rect x="13" y="11" width="1" height="1" fill="rgb(60,60,60)" fill-opacity="0.7890625"/>
  <rect x="13" y="12" width="1" height="1" fill="rgb(197,197,197)" fill-opacity="0.90625"/>
  <rect x="13" y="13" width="1" height="1" fill="rgb(176,176,176)" fill-opacity="0.90625"/>
  <rect x="13" y="14" width="1" height="1" fill="rgb(36,36,36)" fill-opacity="0.671875"/>
  <rect x="13" y="15" width="1" height="6" fill="rgb(255,255,255)" fill-opacity="0.0078125"/>
  <rect x="14" y="0" width="1" height="4" fill="rgb(255,255,255)" fill-opacity="0.0078125"/>
  <rect x="14" y="4" width="1" height="1" fill="rgb(0,0,0)" fill-opacity="0.1015625"/>
  <rect x="14" y="5" width="1" height="1" fill="rgb(16,16,16)" fill-opacity="0.3671875"/>
  <rect x="14" y="6" width="1" height="1" fill="rgb(63,63,63)" fill-opacity="0.84375"/>
  <rect x="14" y="7" width="1" height="1" fill="rgb(179,179,179)" fill-opacity="0.90625"/>
  <rect x="14" y="8" width="1" height="1" fill="rgb(212,212,212)" fill-opacity="0.90625"/>
  <rect x="14" y="9" width="1" height="1" fill="rgb(88,88,88)" fill-opacity="0.890625"/>
  <rect x="14" y="10" width="1" height="1" fill="rgb(32,32,32)" fill-opacity="0.0703125"/>
  <rect x="14" y="11" width="1" height="1" fill="rgb(25,25,25)" fill-opacity="0.3984375"/>
  <rect x="14" y="12" width="1" height="1" fill="rgb(135,135,135)" fill-opacity="0.90625"/>
  <rect x="14" y="13" width="1" height="1" fill="rgb(195,195,195)" fill-opacity="0.90625"/>
  <rect x="14" y="14" width="1" height="1" fill="rgb(78,78,78)" fill-opacity="0.8125"/>
  <rect x="14" y="15" width="1" height="6" fill="rgb(255,255,255)" fill-opacity="0.0078125"/>
  <rect x="15" y="0" width="1" height="3" fill="rgb(255,255,255)" fill-opacity="0.0078125"/>
  <rect x="15" y="3" width="1" height="1" fill="rgb(0,0,0)" fill-opacity="0.5625"/>
  <rect x="15" y="4" width="1" height="2" fill="rgb(9,8,8)"/>
  <rect x="15" y="6" width="1" height="1" fill="rgb(89,89,89)" fill-opacity="0.9609375"/>
  <rect x="15" y="7" width="1" height="1" fill="rgb(212,212,212)" fill-opacity="0.90625"/>
  <rect x="15" y="8" width="1" height="1" fill="rgb(131,131,131)" fill-opacity="0.90625"/>
  <rect x="15" y="9" width="1" height="1" fill="rgb(33,33,33)" fill-opacity="0.4921875"/>
  <rect x="15" y="10" width="1" height="1" fill="rgb(23,23,23)" fill-opacity="0.046875"/>
  <rect x="15" y="11" width="1" height="1" fill="rgb(52,52,52)" fill-opacity="0.8125"/>
  <rect x="15" y="12" width="1" height="1" fill="rgb(188,188,188)" fill-opacity="0.90625"/>
  <rect x="15" y="13" width="1" height="1" fill="rgb(175,175,175)" fill-opacity="0.90625"/>
  <rect x="15" y="14" width="1" height="1" fill="rgb(36,36,36)" fill-opacity="0.671875"/>
  <rect x="15" y="15" width="1" height="6" fill="rgb(255,255,255)" fill-opacity="0.0078125"/>
  <rect x="16" y="0" width="1" height="2" fill="rgb(255,255,255)" fill-opacity="0.0078125"/>
  <rect x="16" y="2" width="1" height="1" fill="rgb(0,0,0)" fill-opacity="0.1171875"/>
  <rect x="16" y="3" width="1" height="1" fill="rgb(1,0,0)"/>
  <rect x="16" y="4" width="1" height="2" fill="rgb(255,255,255)"/>
  <rect x="16" y="6" width="1" height="1" fill="rgb(2,1,1)"/>
  <rect x="16" y="7" width="1" height="1" fill="rgb(64,64,64)" fill-opacity="0.875"/>
  <rect x="16" y="8" width="1" height="1" fill="rgb(26,26,26)" fill-opacity="0.3515625"/>
  <rect x="16" y="9" width="1" height="1" fill="rgb(255,255,255)" fill-opacity="0.0078125"/>
  <rect x="16" y="10" width="1" height="1" fill="rgb(27,27,27)" fill-opacity="0.453125"/>
  <rect x="16" y="11" width="1" height="1" fill="rgb(151,151,151)" fill-opacity="0.90625"/>
  <rect x="16" y="12" width="1" height="1" fill="rgb(194,194,194)" fill-opacity="0.90625"/>
  <rect x="16" y="13" width="1" height="1" fill="rgb(78,78,78)" fill-opacity="0.8828125"/>
  <rect x="16" y="14" width="1" height="1" fill="rgb(27,27,27)" fill-opacity="0.15625"/>
  <rect x="16" y="15" width="1" height="6" fill="rgb(255,255,255)" fill-opacity="0.0078125"/>
  <rect x="17" y="0" width="1" height="2" fill="rgb(255,255,255)" fill-opacity="0.0078125"/>
  <rect x="17" y="2" width="1" height="1" fill="rgb(0,0,0)" fill-opacity="0.109375"/>
  <rect x="17" y="3" width="1" height="1" fill="rgb(1,1,0)" fill-opacity="0.9921875"/>
  <rect x="17" y="4" width="1" height="2" fill="rgb(255,255,255)"/>
  <rect x="17" y="6" width="1" height="1" fill="rgb(1,1,0)"/>
  <rect x="17" y="7" width="1" height="1" fill="rgb(16,16,16)" fill-opacity="0.1953125"/>
  <rect x="17" y="8" width="1" height="2" fill="rgb(255,255,255)" fill-opacity="0.0078125"/>
  <rect x="17" y="10" width="1" height="1" fill="rgb(27,27,27)" fill-opacity="0.5234375"/>
  <rect x="17" y="11" width="1" height="1" fill="rgb(171,171,171)" fill-opacity="0.90625"/>
  <rect x="17" y="12" width="1" height="1" fill="rgb(129,129,129)" fill-opacity="0.90625"/>
  <rect x="17" y="13" width="1" height="1" fill="rgb(27,27,27)" fill-opacity="0.453125"/>
  <rect x="17" y="14" width="1" height="7" fill="rgb(255,255,255)" fill-opacity="0.0078125"/>
  <rect x="18" y="0" width="1" height="3" fill="rgb(255,255,255)" fill-opacity="0.0078125"/>
  <rect x="18" y="3" width="1" height="1" fill="rgb(0,0,0)" fill-opacity="0.53125"/>
  <rect x="18" y="4" width="1" height="2" fill="rgb(1,1,0)" fill-opacity="0.9921875"/>
  <rect x="18" y="6" width="1" height="1" fill="rgb(0,0,0)" fill-opacity="0.53125"/>
  <rect x="18" y="7" width="1" height="3" fill="rgb(255,255,255)" fill-opacity="0.0078125"/>
  <rect x="18" y="10" width="1" height="1" fill="rgb(26,26,26)" fill-opacity="0.125"/>
  <rect x="18" y="11" width="1" height="1" fill="rgb(30,30,30)" fill-opacity="0.5625"/>
  <rect x="18" y="12" width="1" height="1" fill="rgb(26,26,26)" fill-opacity="0.4296875"/>
  <rect x="18" y="13" width="1" height="1" fill="rgb(0,0,0)" fill-opacity="0.0234375"/>
  <rect x="18" y="14" width="1" height="7" fill="rgb(255,255,255)" fill-opacity="0.0078125"/>
  <rect x="19" y="0" width="1" height="4" fill="rgb(255,255,255)" fill-opacity="0.0078125"/>
  <rect x="19" y="4" width="1" height="2" fill="rgb(0,0,0)" fill-opacity="0.1015625"/>
  <rect x="19" y="6" width="1" height="15" fill="rgb(255,255,255)" fill-opacity="0.0078125"/>
  <rect x="20" y="0" width="1" height="21" fill="rgb(255,255,255)" fill-opacity="0.0078125"/>
</svg>