<svg xmlns="http://www.w3.org/2000/svg" shape-rendering="crispEdges" width="21" height="21" viewBox="0 0 21 21">
  <rect x="0" y="0" width="21" height="1" fill="rgb(255,255,255)" fill-opacity="0.0078125"/>
  <rect x="0" y="1" width="21" height="1" fill="rgb(255,255,255)" fill-opacity="0.0078125"/>
  <rect x="0" y="2" width="21" height="1" fill="rgb(255,255,255)" fill-opacity="0.0078125"/>
  <rect x="0" y="3" width="21" height="1" fill="rgb(255,255,255)" fill-opacity="0.0078125"/>
  <rect x="0" y="4" width="3" height="1" fill="rgb(255,255,255)" fill-opacity="0.0078125"/>
  <rect x="3" y="4" width="1" height="1" fill="rgb(38,38,38)" fill-opacity="0.796875"/>
  <rect x="4" y="4" width="1" height="1" fill="rgb(41,41,41)" fill-opacity="0.9140625"/>
  <rect x="5" y="4" width="3" height="1" fill="rgb(42,42,42)" fill-opacity="0.9140625"/>
  <rect x="8" y="4" width="2" height="1" fill="rgb(43,43,43)" fill-opacity="0.9140625"/>
  <rect x="10" y="4" width="3" height="1" fill="rgb(44,44,44)" fill-opacity="0.9140625"/>
  <rect x="13" y="4" width="2" height="1" fill="rgb(45,45,45)" fill-opacity="0.9140625"/>
  <rect x="15" y="4" width="2" height="1" fill="rgb(46,46,46)" fill-opacity="0.9140625"/>
  <rect x="17" y="4" width="1" height="1" fill="rgb(44,44,44)" fill-opacity="0.7734375"/>
  <rect x="18" y="4" width="3" height="1" fill="rgb(255,255,255)" fill-opacity="0.0078125"/>
  <rect x="0" y="5" width="3" height="1" fill="rgb(255,255,255)" fill-opacity="0.0078125"/>
  <rect x="3" y="5" width="1" height="1" fill="rgb(41,41,41)" fill-opacity="0.9140625"/>
  <rect x="4" y="5" width="1" height="1" fill="rgb(246,246,246)"/>
  <rect x="5" y="5" width="1" height="1" fill="rgb(255,255,255)"/>
  <rect x="6" y="5" width="1" height="1" fill="rgb(254,254,254)"/>
  <rect x="7" y="5" width="1" height="1" fill="rgb(251,251,251)"/>
  <rect x="8" y="5" width="1" height="1" fill="rgb(249,249,249)"/>
  <rect x="9" y="5" width="1" height="1" fill="rgb(248,248,248)"/>
  <rect x="10" y="5" width="1" height="1" fill="rgb(246,246,246)"/>
  <rect x="11" y="5" width="2" height="1" fill="rgb(245,245,245)"/>
  <rect x="13" y="5" width="3" height="1" fill="rgb(244,244,244)"/>
  <rect x="16" y="5" width="1" height="1" fill="rgb(243,243,243)"/>
  <rect x="17" y="5" width="1" height="1" fill="rgb(50,50,50)" fill-opacity="0.890625"/>
  <rect x="18" y="5" width="3" height="1" fill="rgb(255,255,255)" fill-opacity="0.0078125"/>
  <rect x="0" y="6" width="3" height="1" fill="rgb(255,255,255)" fill-opacity="0.0078125"/>
  <rect x="3" y="6" width="1" height="1" fill="rgb(42,42,42)" fill-opacity="0.9140625"/>
  <rect x="4" y="6" width="1" height="1" fill="rgb(255,255,255)"/>
  <rect x="5" y="6" width="1" height="1" fill="rgb(185,185,185)"/>
  <rect x="6" y="6" width="1" height="1" fill="rgb(190,190,190)"/>
  <rect x="7" y="6" width="1" height="1" fill="rgb(194,194,194)"/>
  <rect x="8" y="6" width="1" height="1" fill="rgb(198,198,198)"/>
  <rect x="9" y="6" width="1" height="1" fill="rgb(203,203,203)"/>
  <rect x="10" y="6" width="1" height="1" fill="rgb(207,207,207)"/>
  <rect x="11" y="6" width="1" height="1" fill="rgb(211,211,211)"/>
  <rect x="12" y="6" width="1" height="1" fill="rgb(216,216,216)"/>
  <rect x="13" y="6" width="1" height="1" fill="rgb(220,220,220)"/>
  <rect x="14" y="6" width="1" height="1" fill="rgb(225,225,225)"/>
  <rect x="15" y="6" width="1" height="1" fill="rgb(229,229,229)"/>
  <rect x="16" y="6" width="1" height="1" fill="rgb(245,245,245)"/>
  <rect x="17" y="6" width="1" height="1" fill="rgb(49,49,49)" fill-opacity="0.890625"/>
  <rect x="18" y="6" width="3" height="1" fill="rgb(255,255,255)" fill-opacity="0.0078125"/>
  <rect x="0" y="7" width="3" height="1" fill="rgb(255,255,255)" fill-opacity="0.0078125"/>
  <rect x="3" y="7" width="1" height="1" fill="rgb(42,42,42)" fill-opacity="0.9140625"/>
  <rect x="4" y="7" width="1" height="1" fill="rgb(253,253,253)"/>
  <rect x="5" y="7" width="1" height="1" fill="rgb(189,189,189)"/>
  <rect x="6" y="7" width="1" height="1" fill="rgb(5,5,5)"/>
  <rect x="7" y="7" width="1" height="1" fill="rgb(1,1,1)"/>
  <rect x="8" y="7" width="1" height="1" fill="rgb(5,5,5)"/>
  <rect x="9" y="7" width="1" height="1" fill="rgb(9,9,9)"/>
  <rect x="10" y="7" width="1" height="1" fill="rgb(13,13,13)"/>
  <rect x="11" y="7" width="1" height="1" fill="rgb(18,18,18)"/>
  <rect x="12" y="7" width="1" height="1" fill="rgb(214,214,214)"/>
  <rect x="13" y="7" width="1" height="1" fill="rgb(224,224,224)"/>
  <rect x="14" y="7" width="1" height="1" fill="rgb(229,229,229)"/>
  <rect x="15" y="7" width="1" height="1" fill="rgb(233,233,233)"/>
  <rect x="16" y="7" width="1" height="1" fill="rgb(246,246,246)"/>
  <rect x="17" y="7" width="1" height="1" fill="rgb(51,51,51)" fill-opacity="0.890625"/>
  <rect x="18" y="7" width="3" height="1" fill="rgb(255,255,255)" fill-opacity="0.0078125"/>
  <rect x="0" y="8" width="3" height="1" fill="rgb(255,255,255)" fill-opacity="0.0078125"/>
  <rect x="3" y="8" width="1" height="1" fill="rgb(42,42,42)" fill-opacity="0.9140625"/>
  <rect x="4" y="8" width="1" height="1" fill="rgb(251,251,251)"/>
  <rect x="5" y="8" width="1" height="1" fill="rgb(193,193,193)"/>
  <rect x="6" y="8" width="1" height="1" fill="rgb(198,198,198)"/>
  <rect x="7" y="8" width="1" height="1" fill="rgb(202,202,202)"/>
  <rect x="8" y="8" width="1" height="1" fill="rgb(206,206,206)"/>
  <rect x="9" y="8" width="1" height="1" fill="rgb(211,211,211)"/>
  <rect x="10" y="8" width="1" height="1" fill="rgb(215,215,215)"/>
  <rect x="11" y="8" width="1" height="1" fill="rgb(220,220,220)"/>
  <rect x="12" y="8" width="1" height="1" fill="rgb(224,224,224)"/>
  <rect x="13" y="8" width="1" height="1" fill="rgb(228,228,228)"/>
  <rect x="14" y="8" width="1" height="1" fill="rgb(233,233,233)"/>
  <rect x="15" y="8" width="1" height="1" fill="rgb(237,237,237)"/>
  <rect x="16" y="8" width="1" height="1" fill="rgb(248,248,248)"/>
  <rect x="17" y="8" width="1" height="1" fill="rgb(51,51,51)" fill-opacity="0.890625"/>
  <rect x="18" y="8" width="3" height="1" fill="rgb(255,255,255)" fill-opacity="0.0078125"/>
  <rect x="0" y="9" width="3" height="1" fill="rgb(255,255,255)" fill-opacity="0.0078125"/>
  <rect x="3" y="9" width="1" height="1" fill="rgb(43,43,43)" fill-opacity="0.9140625"/>
  <rect x="4" y="9" width="1" height="1" fill="rgb(248,248,248)"/>
  <rect x="5" y="9" width="1" height="1" fill="rgb(197,197,197)"/>
  <rect x="6" y="9" width="1" height="1" fill="rgb(15,15,15)"/>
  <rect x="7" y="9" width="1" height="1" fill="rgb(14,14,14)"/>
  <rect x="8" y="9" width="1" height="1" fill="rgb(18,18,18)"/>
  <rect x="9" y="9" width="1" height="1" fill="rgb(23,23,23)"/>
  <rect x="10" y="9" width="1" height="1" fill="rgb(27,27,27)"/>
  <rect x="11" y="9" width="1" height="1" fill="rgb(218,218,218)"/>
  <rect x="12" y="9" width="1" height="1" fill="rgb(228,228,228)"/>
  <rect x="13" y="9" width="1" height="1" fill="rgb(232,232,232)"/>
  <rect x="14" y="9" width="1" height="1" fill="rgb(237,237,237)"/>
  <rect x="15" y="9" width="1" height="1" fill="rgb(241,241,241)"/>
  <rect x="16" y="9" width="1" height="1" fill="rgb(249,249,249)"/>
  <rect x="17" y="9" width="1" height="1" fill="rgb(52,52,52)" fill-opacity="0.890625"/>
  <rect x="18" y="9" width="3" height="1" fill="rgb(255,255,255)" fill-opacity="0.0078125"/>
  <rect x="0" y="10" width="3" height="1" fill="rgb(255,255,255)" fill-opacity="0.0078125"/>
  <rect x="3" y="10" width="1" height="1" fill="rgb(43,43,43)" fill-opacity="0.9140625"/>
  <rect x="4" y="10" width="1" height="1" fill="rgb(246,246,246)"/>
  <rect x="5" y="10" width="1" height="1" fill="rgb(201,201,201)"/>
  <rect x="6" y="10" width="1" height="1" fill="rgb(206,206,206)"/>
  <rect x="7" y="10" width="1" height="1" fill="rgb(210,210,210)"/>
  <rect x="8" y="10" width="1" height="1" fill="rgb(215,215,215)"/>
  <rect x="9" y="10" width="1" height="1" fill="rgb(219,219,219)"/>
  <rect x="10" y="10" width="1" height="1" fill="rgb(223,223,223)"/>
  <rect x="11" y="10" width="1" height="1" fill="rgb(228,228,228)"/>
  <rect x="12" y="10" width="1" height="1" fill="rgb(232,232,232)"/>
  <rect x="13" y="10" width="1" height="1" fill="rgb(236,236,236)"/>
  <rect x="14" y="10" width="1" height="1" fill="rgb(241,241,241)"/>
  <rect x="15" y="10" width="1" height="1" fill="rgb(245,245,245)"/>
  <rect x="16" y="10" width="1" height="1" fill="rgb(251,251,251)"/>
  <rect x="17" y="10" width="1" height="1" fill="rgb(51,51,51)" fill-opacity="0.8984375"/>
  <rect x="18" y="10" width="3" height="1" fill="rgb(255,255,255)" fill-opacity="0.0078125"/>
  <rect x="0" y="11" width="3" height="1" fill="rgb(255,255,255)" fill-opacity="0.0078125"/>
  <rect x="3" y="11" width="1" height="1" fill="rgb(43,43,43)" fill-opacity="0.9140625"/>
  <rect x="4" y="11" width="1" height="1" fill="rgb(245,245,245)"/>
  <rect x="5" y="11" width="1" height="1" fill="rgb(206,206,206)"/>
  <rect x="6" y="11" width="2" height="1" fill="rgb(28,28,28)"/>
  <rect x="8" y="11" width="1" height="1" fill="rgb(33,33,33)"/>
  <rect x="9" y="11" width="1" height="1" fill="rgb(217,217,217)"/>
  <rect x="10" y="11" width="1" height="1" fill="rgb(227,227,227)"/>
  <rect x="11" y="11" width="1" height="1" fill="rgb(232,232,232)"/>
  <rect x="12" y="11" width="1" height="1" fill="rgb(236,236,236)"/>
  <rect x="13" y="11" width="1" height="1" fill="rgb(240,240,240)"/>
  <rect x="14" y="11" width="1" height="1" fill="rgb(245,245,245)"/>
  <rect x="15" y="11" width="1" height="1" fill="rgb(249,249,249)"/>
  <rect x="16" y="11" width="1" height="1" fill="rgb(254,254,254)"/>
  <rect x="17" y="11" width="1" height="1" fill="rgb(51,51,51)" fill-opacity="0.8984375"/>
  <rect x="18" y="11" width="3" height="1" fill="rgb(255,255,255)" fill-opacity="0.0078125"/>
  <rect x="0" y="12" width="3" height="1" fill="rgb(255,255,255)" fill-opacity="0.0078125"/>
  <rect x="3" y="12" width="1" height="1" fill="rgb(44,44,44)" fill-opacity="0.9140625"/>
  <rect x="4" y="12" width="1" height="1" fill="rgb(243,243,243)"/>
  <rect x="5" y="12" width="1" height="1" fill="rgb(210,210,210)"/>
  <rect x="6" y="12" width="1" height="1" fill="rgb(214,214,214)"/>
  <rect x="7" y="12" width="1" height="1" fill="rgb(218,218,218)"/>
  <rect x="8" y="12" width="1" height="1" fill="rgb(223,223,223)"/>
  <rect x="9" y="12" width="1" height="1" fill="rgb(227,227,227)"/>
  <rect x="10" y="12" width="1" height="1" fill="rgb(231,231,231)"/>
  <rect x="11" y="12" width="1" height="1" fill="rgb(236,236,236)"/>
  <rect x="12" y="12" width="1" height="1" fill="rgb(240,240,240)"/>
  <rect x="13" y="12" width="1" height="1" fill="rgb(244,244,244)"/>
  <rect x="14" y="12" width="1" height="1" fill="rgb(249,249,249)"/>
  <rect x="15" y="12" width="1" height="1" fill="rgb(253,253,253)"/>
  <rect x="16" y="12" width="1" height="1" fill="rgb(255,255,255)"/>
  <rect x="17" y="12" width="1" height="1" fill="rgb(51,51,51)" fill-opacity="0.8984375"/>
  <rect x="18" y="12" width="3" height="1" fill="rgb(255,255,255)" fill-opacity="0.0078125"/>
  <rect x="0" y="13" width="3" height="1" fill="rgb(255,255,255)" fill-opacity="0.0078125"/>
  <rect x="3" y="13" width="1" height="1" fill="rgb(44,44,44)" fill-opacity="0.9140625"/>
  <rect x="4" y="13" width="1" height="1" fill="rgb(242,242,242)"/>
  <rect x="5" y="13" width="1" height="1" fill="rgb(214,214,214)"/>
  <rect x="6" y="13" width="1" height="1" fill="rgb(37,37,37)"/>
  <rect x="7" y="13" width="1" height="1" fill="rgb(43,43,43)"/>
  <rect x="8" y="13" width="1" height="1" fill="rgb(48,48,48)"/>
  <rect x="9" y="13" width="1" height="1" fill="rgb(53,53,53)"/>
  <rect x="10" y="13" width="1" height="1" fill="rgb(59,59,59)"/>
  <rect x="11" y="13" width="1" height="1" fill="rgb(65,65,65)"/>
  <rect x="12" y="13" width="1" height="1" fill="rgb(71,71,71)"/>
  <rect x="13" y="13" width="1" height="1" fill="rgb(242,242,242)"/>
  <rect x="14" y="13" width="1" height="1" fill="rgb(253,253,253)"/>
  <rect x="15" y="13" width="2" height="1" fill="rgb(255,255,255)"/>
  <rect x="17" y="13" width="1" height="1" fill="rgb(50,50,50)" fill-opacity="0.90625"/>
  <rect x="18" y="13" width="3" height="1" fill="rgb(255,255,255)" fill-opacity="0.0078125"/>
  <rect x="0" y="14" width="3" height="1" fill="rgb(255,255,255)" fill-opacity="0.0078125"/>
  <rect x="3" y="14" width="1" height="1" fill="rgb(45,45,45)" fill-opacity="0.9140625"/>
  <rect x="4" y="14" width="1" height="1" fill="rgb(242,242,242)"/>
  <rect x="5" y="14" width="1" height="1" fill="rgb(218,218,218)"/>
  <rect x="6" y="14" width="1" height="1" fill="rgb(222,222,222)"/>
  <rect x="7" y="14" width="1" height="1" fill="rgb(226,226,226)"/>
  <rect x="8" y="14" width="1" height="1" fill="rgb(231,231,231)"/>
  <rect x="9" y="14" width="1" height="1" fill="rgb(235,235,235)"/>
  <rect x="10" y="14" width="1" height="1" fill="rgb(239,239,239)"/>
  <rect x="11" y="14" width="1" height="1" fill="rgb(244,244,244)"/>
  <rect x="12" y="14" width="1" height="1" fill="rgb(248,248,248)"/>
  <rect x="13" y="14" width="1" height="1" fill="rgb(253,253,253)"/>
  <rect x="14" y="14" width="3" height="1" fill="rgb(255,255,255)"/>
  <rect x="17" y="14" width="1" height="1" fill="rgb(50,50,50)" fill-opacity="0.90625"/>
  <rect x="18" y="14" width="3" height="1" fill="rgb(255,255,255)" fill-opacity="0.0078125"/>
  <rect x="0" y="15" width="3" height="1" fill="rgb(255,255,255)" fill-opacity="0.0078125"/>
  <rect x="3" y="15" width="1" height="1" fill="rgb(45,45,45)" fill-opacity="0.9140625"/>
  <rect x="4" y="15" width="1" height="1" fill="rgb(241,241,241)"/>
  <rect x="5" y="15" width="1" height="1" fill="rgb(222,222,222)"/>
  <rect x="6" y="15" width="1" height="1" fill="rgb(52,52,52)"/>
  <rect x="7" y="15" width="1" height="1" fill="rgb(58,58,58)"/>
  <rect x="8" y="15" width="1" height="1" fill="rgb(64,64,64)"/>
  <rect x="9" y="15" width="1" height="1" fill="rgb(70,70,70)"/>
  <rect x="10" y="15" width="1" height="1" fill="rgb(76,76,76)"/>
  <rect x="11" y="15" width="1" height="1" fill="rgb(248,248,248)"/>
  <rect x="12" y="15" width="1" height="1" fill="rgb(252,252,252)"/>
  <rect x="13" y="15" width="4" height="1" fill="rgb(255,255,255)"/>
  <rect x="17" y="15" width="1" height="1" fill="rgb(50,50,50)" fill-opacity="0.90625"/>
  <rect x="18" y="15" width="3" height="1" fill="rgb(255,255,255)" fill-opacity="0.0078125"/>
  <rect x="0" y="16" width="3" height="1" fill="rgb(255,255,255)" fill-opacity="0.0078125"/>
  <rect x="3" y="16" width="1" height="1" fill="rgb(45,45,45)" fill-opacity="0.9140625"/>
  <rect x="4" y="16" width="1" height="1" fill="rgb(241,241,241)"/>
  <rect x="5" y="16" width="1" height="1" fill="rgb(226,226,226)"/>
  <rect x="6" y="16" width="1" height="1" fill="rgb(230,230,230)"/>
  <rect x="7" y="16" width="1" height="1" fill="rgb(234,234,234)"/>
  <rect x="8" y="16" width="1" height="1" fill="rgb(239,239,239)"/>
  <rect x="9" y="16" width="1" height="1" fill="rgb(243,243,243)"/>
  <rect x="10" y="16" width="1" height="1" fill="rgb(248,248,248)"/>
  <rect x="11" y="16" width="1" height="1" fill="rgb(252,252,252)"/>
  <rect x="12" y="16" width="5" height="1" fill="rgb(255,255,255)"/>
  <rect x="17" y="16" width="1" height="1" fill="rgb(50,50,50)" fill-opacity="0.90625"/>
  <rect x="18" y="16" width="3" height="1" fill="rgb(255,255,255)" fill-opacity="0.0078125"/>
  <rect x="0" y="17" width="3" height="1" fill="rgb(255,255,255)" fill-opacity="0.0078125"/>
  <rect x="3" y="17" width="1" height="1" fill="rgb(46,46,46)" fill-opacity="0.9140625"/>
  <rect x="4" y="17" width="1" height="1" fill="rgb(240,240,240)"/>
  <rect x="5" y="17" width="1" height="1" fill="rgb(243,243,243)"/>
  <rect x="6" y="17" width="1" height="1" fill="rgb(244,244,244)"/>
  <rect x="7" y="17" width="1" height="1" fill="rgb(246,246,246)"/>
  <rect x="8" y="17" width="1" height="1" fill="rgb(248,248,248)"/>
  <rect x="9" y="17" width="1" height="1" fill="rgb(250,250,250)"/>
  <rect x="10" y="17" width="1" height="1" fill="rgb(253,253,253)"/>
  <rect x="11" y="17" width="6" height="1" fill="rgb(255,255,255)"/>
  <rect x="17" y="17" width="1" height="1" fill="rgb(50,50,50)" fill-opacity="0.90625"/>
  <rect x="18" y="17" width="3" height="1" fill="rgb(255,255,255)" fill-opacity="0.0078125"/>
  <rect x="0" y="18" width="3" height="1" fill="rgb(255,255,255)" fill-opacity="0.0078125"/>
  <rect x="3" y="18" width="1" height="1" fill="rgb(43,43,43)" fill-opacity="0.796875"/>
  <rect x="4" y="18" width="1" height="1" fill="rgb(46,46,46)" fill-opacity="0.9140625"/>
  <rect x="5" y="18" width="2" height="1" fill="rgb(47,47,47)" fill-opacity="0.9140625"/>
  <rect x="7" y="18" width="3" height="1" fill="rgb(48,48,48)" fill-opacity="0.9140625"/>
  <rect x="10" y="18" width="7" height="1" fill="rgb(49,49,49)" fill-opacity="0.9140625"/>
  <rect x="17" y="18" width="1" height="1" fill="rgb(45,45,45)" fill-opacity="0.796875"/>
  <rect x="18" y="18" width="3" height="1" fill="rgb(255,255,255)" fill-opacity="0.0078125"/>
  <rect x="0" y="19" width="21" height="1" fill="rgb(255,255,255)" fill-opacity="0.0078125"/>
  <rect x="0" y="20" width="21" height="1" fill="rgb(255,255,255)" fill-opacity="0.0078125"/>
</svg>