<svg xmlns="http://www.w3.org/2000/svg" shape-rendering="crispEdges" width="21" height="21" viewBox="0 0 21 21">
  <rect x="0" y="0" width="21" height="1" fill="rgb(255,255,255)" fill-opacity="0.0078125"/>
  <rect x="0" y="1" width="21" height="1" fill="rgb(255,255,255)" fill-opacity="0.0078125"/>
  <rect x="0" y="2" width="21" height="1" fill="rgb(255,255,255)" fill-opacity="0.0078125"/>
  <rect x="0" y="3" width="21" height="1" fill="rgb(255,255,255)" fill-opacity="0.0078125"/>
  <rect x="0" y="4" width="7" height="1" fill="rgb(255,255,255)" fill-opacity="0.0078125"/>
  <rect x="7" y="4" width="1" height="1" fill="rgb(30,30,30)" fill-opacity="0.0703125"/>
  <rect x="8" y="4" width="1" height="1" fill="rgb(18,18,18)" fill-opacity="0.6796875"/>
  <rect x="9" y="4" width="1" height="1" fill="rgb(22,22,22)" fill-opacity="0.8828125"/>
  <rect x="10" y="4" width="1" height="1" fill="rgb(30,30,30)" fill-opacity="0.9765625"/>
  <rect x="11" y="4" width="1" height="1" fill="rgb(43,43,43)" fill-opacity="0.9765625"/>
  <rect x="12" y="4" width="1" height="1" fill="rgb(56,56,56)" fill-opacity="0.8828125"/>
  <rect x="13" y="4" width="1" height="1" fill="rgb(64,64,64)" fill-opacity="0.6875"/>
  <rect x="14" y="4" width="1" height="1" fill="rgb(75,75,75)" fill-opacity="0.0703125"/>
  <rect x="15" y="4" width="6" height="1" fill="rgb(255,255,255)" fill-opacity="0.0078125"/>
  <rect x="0" y="5" width="6" height="1" fill="rgb(255,255,255)" fill-opacity="0.0078125"/>
  <rect x="6" y="5" width="1" height="1" fill="rgb(20,20,20)" fill-opacity="0.3984375"/>
  <rect x="7" y="5" width="1" height="1" fill="rgb(6,6,6)" fill-opacity="0.9765625"/>
  <rect x="8" y="5" width="1" height="1" fill="rgb(17,17,17)"/>
  <rect x="9" y="5" width="1" height="1" fill="rgb(37,37,37)"/>
  <rect x="10" y="5" width="1" height="1" fill="rgb(48,48,48)"/>
  <rect x="11" y="5" width="1" height="1" fill="rgb(53,53,53)"/>
  <rect x="12" y="5" width="1" height="1" fill="rgb(63,63,63)"/>
  <rect x="13" y="5" width="1" height="1" fill="rgb(82,82,82)"/>
  <rect x="14" y="5" width="1" height="1" fill="rgb(95,95,95)" fill-opacity="0.9765625"/>
  <rect x="15" y="5" width="1" height="1" fill="rgb(89,89,89)" fill-opacity="0.3984375"/>
  <rect x="16" y="5" width="5" height="1" fill="rgb(255,255,255)" fill-opacity="0.0078125"/>
  <rect x="0" y="6" width="5" height="1" fill="rgb(255,255,255)" fill-opacity="0.0078125"/>
  <rect x="5" y="6" width="1" height="1" fill="rgb(19,19,19)" fill-opacity="0.4140625"/>
  <rect x="6" y="6" width="1" height="1" fill="rgb(1,1,1)"/>
  <rect x="7" y="6" width="1" height="1" fill="rgb(28,28,28)"/>
  <rect x="8" y="6" width="1" height="1" fill="rgb(50,50,50)"/>
  <rect x="9" y="6" width="4" height="1" fill="rgb(51,51,51)"/>
  <rect x="13" y="6" width="1" height="1" fill="rgb(53,53,53)"/>
  <rect x="14" y="6" width="1" height="1" fill="rgb(88,88,88)"/>
  <rect x="15" y="6" width="1" height="1" fill="rgb(131,131,131)"/>
  <rect x="16" y="6" width="1" height="1" fill="rgb(107,107,107)" fill-opacity="0.4140625"/>
  <rect x="17" y="6" width="4" height="1" fill="rgb(255,255,255)" fill-opacity="0.0078125"/>
  <rect x="0" y="7" width="4" height="1" fill="rgb(255,255,255)" fill-opacity="0.0078125"/>
  <rect x="4" y="7" width="1" height="1" fill="rgb(26,26,26)" fill-opacity="0.0859375"/>
  <rect x="5" y="7" width="1" height="1" fill="rgb(6,6,6)" fill-opacity="0.984375"/>
  <rect x="6" y="7" width="1" height="1" fill="rgb(28,28,28)"/>
  <rect x="7" y="7" width="2" height="1" fill="rgb(51,51,51)"/>
  <rect x="9" y="7" width="1" height="1" fill="rgb(54,54,54)"/>
  <rect x="10" y="7" width="1" height="1" fill="rgb(107,107,107)"/>
  <rect x="11" y="7" width="1" height="1" fill="rgb(98,98,98)"/>
  <rect x="12" y="7" width="1" height="1" fill="rgb(53,53,53)"/>
  <rect x="13" y="7" width="2" height="1" fill="rgb(51,51,51)"/>
  <rect x="15" y="7" width="1" height="1" fill="rgb(103,103,103)"/>
  <rect x="16" y="7" width="1" height="1" fill="rgb(150,150,150)" fill-opacity="0.984375"/>
  <rect x="17" y="7" width="1" height="1" fill="rgb(128,128,128)" fill-opacity="0.0859375"/>
  <rect x="18" y="7" width="3" height="1" fill="rgb(255,255,255)" fill-opacity="0.0078125"/>
  <rect x="0" y="8" width="4" height="1" fill="rgb(255,255,255)" fill-opacity="0.0078125"/>
  <rect x="4" y="8" width="1" height="1" fill="rgb(17,17,17)" fill-opacity="0.71875"/>
  <rect x="5" y="8" width="1" height="1" fill="rgb(16,16,16)"/>
  <rect x="6" y="8" width="1" height="1" fill="rgb(50,50,50)"/>
  <rect x="7" y="8" width="1" height="1" fill="rgb(51,51,51)"/>
  <rect x="8" y="8" width="1" height="1" fill="rgb(122,122,122)"/>
  <rect x="9" y="8" width="1" height="1" fill="rgb(218,218,218)"/>
  <rect x="10" y="8" width="1" height="1" fill="rgb(196,196,196)" fill-opacity="0.9921875"/>
  <rect x="11" y="8" width="1" height="1" fill="rgb(169,169,169)" fill-opacity="0.9921875"/>
  <rect x="12" y="8" width="1" height="1" fill="rgb(140,140,140)"/>
  <rect x="13" y="8" width="1" height="1" fill="rgb(75,75,75)"/>
  <rect x="14" y="8" width="1" height="1" fill="rgb(51,51,51)"/>
  <rect x="15" y="8" width="1" height="1" fill="rgb(54,54,54)"/>
  <rect x="16" y="8" width="1" height="1" fill="rgb(158,158,158)"/>
  <rect x="17" y="8" width="1" height="1" fill="rgb(147,147,147)" fill-opacity="0.71875"/>
  <rect x="18" y="8" width="3" height="1" fill="rgb(255,255,255)" fill-opacity="0.0078125"/>
  <rect x="0" y="9" width="4" height="1" fill="rgb(255,255,255)" fill-opacity="0.0078125"/>
  <rect x="4" y="9" width="1" height="1" fill="rgb(19,19,19)" fill-opacity="0.9140625"/>
  <rect x="5" y="9" width="1" height="1" fill="rgb(37,37,37)"/>
  <rect x="6" y="9" width="1" height="1" fill="rgb(51,51,51)"/>
  <rect x="7" y="9" width="1" height="1" fill="rgb(57,57,57)"/>
  <rect x="8" y="9" width="1" height="1" fill="rgb(223,223,223)"/>
  <rect x="9" y="9" width="1" height="1" fill="rgb(168,168,168)" fill-opacity="0.6796875"/>
  <rect x="10" y="9" width="1" height="1" fill="rgb(139,139,139)" fill-opacity="0.046875"/>
  <rect x="11" y="9" width="1" height="1" fill="rgb(116,116,116)" fill-opacity="0.046875"/>
  <rect x="12" y="9" width="1" height="1" fill="rgb(105,105,105)" fill-opacity="0.6796875"/>
  <rect x="13" y="9" width="1" height="1" fill="rgb(91,91,91)"/>
  <rect x="14" y="9" width="1" height="1" fill="rgb(52,52,52)"/>
  <rect x="15" y="9" width="1" height="1" fill="rgb(51,51,51)"/>
  <rect x="16" y="9" width="1" height="1" fill="rgb(124,124,124)"/>
  <rect x="17" y="9" width="1" height="1" fill="rgb(174,174,174)" fill-opacity="0.9140625"/>
  <rect x="18" y="9" width="3" height="1" fill="rgb(255,255,255)" fill-opacity="0.0078125"/>
  <rect x="0" y="10" width="4" height="1" fill="rgb(255,255,255)" fill-opacity="0.0078125"/>
  <rect x="4" y="10" width="1" height="1" fill="rgb(26,26,26)" fill-opacity="0.9921875"/>
  <rect x="5" y="10" width="1" height="1" fill="rgb(47,47,47)"/>
  <rect x="6" y="10" width="1" height="1" fill="rgb(51,51,51)"/>
  <rect x="7" y="10" width="1" height="1" fill="rgb(121,121,121)"/>
  <rect x="8" y="10" width="1" height="1" fill="rgb(200,200,200)" fill-opacity="0.9921875"/>
  <rect x="9" y="10" width="1" height="1" fill="rgb(204,204,204)" fill-opacity="0.0234375"/>
  <rect x="10" y="10" width="2" height="1" fill="rgb(255,255,255)" fill-opacity="0.0078125"/>
  <rect x="12" y="10" width="1" height="1" fill="rgb(102,102,102)" fill-opacity="0.0234375"/>
  <rect x="13" y="10" width="1" height="1" fill="rgb(68,68,68)" fill-opacity="0.9921875"/>
  <rect x="14" y="10" width="1" height="1" fill="rgb(48,48,48)"/>
  <rect x="15" y="10" width="1" height="1" fill="rgb(51,51,51)"/>
  <rect x="16" y="10" width="1" height="1" fill="rgb(102,102,102)"/>
  <rect x="17" y="10" width="1" height="1" fill="rgb(208,208,208)" fill-opacity="0.9921875"/>
  <rect x="18" y="10" width="3" height="1" fill="rgb(255,255,255)" fill-opacity="0.0078125"/>
  <rect x="0" y="11" width="4" height="1" fill="rgb(255,255,255)" fill-opacity="0.0078125"/>
  <rect x="4" y="11" width="1" height="1" fill="rgb(39,39,39)" fill-opacity="0.9921875"/>
  <rect x="5" y="11" width="1" height="1" fill="rgb(52,52,52)"/>
  <rect x="6" y="11" width="1" height="1" fill="rgb(51,51,51)"/>
  <rect x="7" y="11" width="1" height="1" fill="rgb(116,116,116)"/>
  <rect x="8" y="11" width="1" height="1" fill="rgb(174,174,174)" fill-opacity="0.9765625"/>
  <rect x="9" y="11" width="1" height="1" fill="rgb(128,128,128)" fill-opacity="0.015625"/>
  <rect x="10" y="11" width="2" height="1" fill="rgb(255,255,255)" fill-opacity="0.0078125"/>
  <rect x="12" y="11" width="1" height="1" fill="rgb(128,128,128)" fill-opacity="0.015625"/>
  <rect x="13" y="11" width="1" height="1" fill="rgb(46,46,46)" fill-opacity="0.9765625"/>
  <rect x="14" y="11" width="1" height="1" fill="rgb(37,37,37)"/>
  <rect x="15" y="11" width="1" height="1" fill="rgb(51,51,51)"/>
  <rect x="16" y="11" width="1" height="1" fill="rgb(103,103,103)"/>
  <rect x="17" y="11" width="1" height="1" fill="rgb(225,225,225)" fill-opacity="0.9921875"/>
  <rect x="18" y="11" width="3" height="1" fill="rgb(255,255,255)" fill-opacity="0.0078125"/>
  <rect x="0" y="12" width="4" height="1" fill="rgb(255,255,255)" fill-opacity="0.0078125"/>
  <rect x="4" y="12" width="1" height="1" fill="rgb(54,54,54)" fill-opacity="0.921875"/>
  <rect x="5" y="12" width="1" height="1" fill="rgb(60,60,60)"/>
  <rect x="6" y="12" width="1" height="1" fill="rgb(51,51,51)"/>
  <rect x="7" y="12" width="1" height="1" fill="rgb(58,58,58)"/>
  <rect x="8" y="12" width="1" height="1" fill="rgb(159,159,159)"/>
  <rect x="9" y="12" width="1" height="1" fill="rgb(112,112,112)" fill-opacity="0.5390625"/>
  <rect x="10" y="12" width="2" height="1" fill="rgb(0,0,0)" fill-opacity="0.0078125"/>
  <rect x="12" y="12" width="1" height="1" fill="rgb(48,48,48)" fill-opacity="0.5390625"/>
  <rect x="13" y="12" width="1" height="1" fill="rgb(22,22,22)"/>
  <rect x="14" y="12" width="1" height="1" fill="rgb(49,49,49)"/>
  <rect x="15" y="12" width="1" height="1" fill="rgb(51,51,51)"/>
  <rect x="16" y="12" width="1" height="1" fill="rgb(144,144,144)"/>
  <rect x="17" y="12" width="1" height="1" fill="rgb(211,211,211)" fill-opacity="0.921875"/>
  <rect x="18" y="12" width="3" height="1" fill="rgb(255,255,255)" fill-opacity="0.0078125"/>
  <rect x="0" y="13" width="4" height="1" fill="rgb(255,255,255)" fill-opacity="0.0078125"/>
  <rect x="4" y="13" width="1" height="1" fill="rgb(64,64,64)" fill-opacity="0.7578125"/>
  <rect x="5" y="13" width="1" height="1" fill="rgb(77,77,77)"/>
  <rect x="6" y="13" width="1" height="1" fill="rgb(52,52,52)"/>
  <rect x="7" y="13" width="1" height="1" fill="rgb(51,51,51)"/>
  <rect x="8" y="13" width="1" height="1" fill="rgb(89,89,89)"/>
  <rect x="9" y="13" width="1" height="1" fill="rgb(109,109,109)"/>
  <rect x="10" y="13" width="1" height="1" fill="rgb(78,78,78)" fill-opacity="0.9765625"/>
  <rect x="11" y="13" width="1" height="1" fill="rgb(52,52,52)" fill-opacity="0.9765625"/>
  <rect x="12" y="13" width="1" height="1" fill="rgb(25,25,25)"/>
  <rect x="13" y="13" width="1" height="1" fill="rgb(29,29,29)"/>
  <rect x="14" y="13" width="1" height="1" fill="rgb(51,51,51)"/>
  <rect x="15" y="13" width="1" height="1" fill="rgb(53,53,53)"/>
  <rect x="16" y="13" width="1" height="1" fill="rgb(209,209,209)"/>
  <rect x="17" y="13" width="1" height="1" fill="rgb(191,191,191)" fill-opacity="0.7578125"/>
  <rect x="18" y="13" width="3" height="1" fill="rgb(255,255,255)" fill-opacity="0.0078125"/>
  <rect x="0" y="14" width="4" height="1" fill="rgb(255,255,255)" fill-opacity="0.0078125"/>
  <rect x="4" y="14" width="1" height="1" fill="rgb(70,70,70)" fill-opacity="0.1328125"/>
  <rect x="5" y="14" width="1" height="1" fill="rgb(94,94,94)" fill-opacity="0.9921875"/>
  <rect x="6" y="14" width="1" height="1" fill="rgb(79,79,79)"/>
  <rect x="7" y="14" width="2" height="1" fill="rgb(51,51,51)"/>
  <rect x="9" y="14" width="2" height="1" fill="rgb(54,54,54)"/>
  <rect x="11" y="14" width="1" height="1" fill="rgb(41,41,41)"/>
  <rect x="12" y="14" width="1" height="1" fill="rgb(48,48,48)"/>
  <rect x="13" y="14" width="2" height="1" fill="rgb(51,51,51)"/>
  <rect x="15" y="14" width="1" height="1" fill="rgb(143,143,143)"/>
  <rect x="16" y="14" width="1" height="1" fill="rgb(239,239,239)" fill-opacity="0.9921875"/>
  <rect x="17" y="14" width="1" height="1" fill="rgb(170,170,170)" fill-opacity="0.1328125"/>
  <rect x="18" y="14" width="3" height="1" fill="rgb(255,255,255)" fill-opacity="0.0078125"/>
  <rect x="0" y="15" width="5" height="1" fill="rgb(255,255,255)" fill-opacity="0.0078125"/>
  <rect x="5" y="15" width="1" height="1" fill="rgb(90,90,90)" fill-opacity="0.5"/>
  <rect x="6" y="15" width="1" height="1" fill="rgb(125,125,125)"/>
  <rect x="7" y="15" width="1" height="1" fill="rgb(92,92,92)"/>
  <rect x="8" y="15" width="1" height="1" fill="rgb(52,52,52)"/>
  <rect x="9" y="15" width="4" height="1" fill="rgb(51,51,51)"/>
  <rect x="13" y="15" width="1" height="1" fill="rgb(52,52,52)"/>
  <rect x="14" y="15" width="1" height="1" fill="rgb(138,138,138)"/>
  <rect x="15" y="15" width="1" height="1" fill="rgb(249,249,249)"/>
  <rect x="16" y="15" width="1" height="1" fill="rgb(177,177,177)" fill-opacity="0.5"/>
  <rect x="17" y="15" width="4" height="1" fill="rgb(255,255,255)" fill-opacity="0.0078125"/>
  <rect x="0" y="16" width="6" height="1" fill="rgb(255,255,255)" fill-opacity="0.0078125"/>
  <rect x="6" y="16" width="1" height="1" fill="rgb(105,105,105)" fill-opacity="0.515625"/>
  <rect x="7" y="16" width="1" height="1" fill="rgb(148,148,148)" fill-opacity="0.9921875"/>
  <rect x="8" y="16" width="1" height="1" fill="rgb(146,146,146)"/>
  <rect x="9" y="16" width="1" height="1" fill="rgb(112,112,112)"/>
  <rect x="10" y="16" width="1" height="1" fill="rgb(89,89,89)"/>
  <rect x="11" y="16" width="1" height="1" fill="rgb(93,93,93)"/>
  <rect x="12" y="16" width="1" height="1" fill="rgb(133,133,133)"/>
  <rect x="13" y="16" width="1" height="1" fill="rgb(204,204,204)"/>
  <rect x="14" y="16" width="1" height="1" fill="rgb(237,237,237)" fill-opacity="0.9921875"/>
  <rect x="15" y="16" width="1" height="1" fill="rgb(173,173,173)" fill-opacity="0.515625"/>
  <rect x="16" y="16" width="5" height="1" fill="rgb(255,255,255)" fill-opacity="0.0078125"/>
  <rect x="0" y="17" width="7" height="1" fill="rgb(255,255,255)" fill-opacity="0.0078125"/>
  <rect x="7" y="17" width="1" height="1" fill="rgb(117,117,117)" fill-opacity="0.140625"/>
  <rect x="8" y="17" width="1" height="1" fill="rgb(146,146,146)" fill-opacity="0.78125"/>
  <rect x="9" y="17" width="1" height="1" fill="rgb(173,173,173)" fill-opacity="0.9375"/>
  <rect x="10" y="17" width="1" height="1" fill="rgb(210,210,210)"/>
  <rect x="11" y="17" width="1" height="1" fill="rgb(224,224,224)"/>
  <rect x="12" y="17" width="1" height="1" fill="rgb(209,209,209)" fill-opacity="0.9453125"/>
  <rect x="13" y="17" width="1" height="1" fill="rgb(191,191,191)" fill-opacity="0.78125"/>
  <rect x="14" y="17" width="1" height="1" fill="rgb(160,160,160)" fill-opacity="0.140625"/>
  <rect x="15" y="17" width="6" height="1" fill="rgb(255,255,255)" fill-opacity="0.0078125"/>
  <rect x="0" y="18" width="10" height="1" fill="rgb(255,255,255)" fill-opacity="0.0078125"/>
  <rect x="10" y="18" width="2" height="1" fill="rgb(85,85,85)" fill-opacity="0.015625"/>
  <rect x="12" y="18" width="9" height="1" fill="rgb(255,255,255)" fill-opacity="0.0078125"/>
  <rect x="0" y="19" width="21" height="1" fill="rgb(255,255,255)" fill-opacity="0.0078125"/>
  <rect x="0" y="20" width="21" height="1" fill="rgb(255,255,255)" fill-opacity="0.0078125"/>
</svg>