<svg xmlns="http://www.w3.org/2000/svg" shape-rendering="crispEdges" width="21" height="21" viewBox="0 0 21 21">
  <rect x="0" y="0" width="1" height="21" fill="rgb(255,255,255)" fill-opacity="0.0078125"/>
  <rect x="1" y="0" width="1" height="21" fill="rgb(255,255,255)" fill-opacity="0.0078125"/>
  <rect x="2" y="0" width="1" height="21" fill="rgb(255,255,255)" fill-opacity="0.0078125"/>
  <rect x="3" y="0" width="1" height="21" fill="rgb(255,255,255)" fill-opacity="0.0078125"/>
  <rect x="4" y="0" width="1" height="5" fill="rgb(255,255,255)" fill-opacity="0.0078125"/>
  <rect x="4" y="5" width="1" height="1" fill="rgb(0,0,0)" fill-opacity="0.0625"/>
  <rect x="4" y="6" width="1" height="1" fill="rgb(25,25,25)" fill-opacity="0.3203125"/>
  <rect x="4" y="7" width="1" height="1" fill="rgb(23,23,23)" fill-opacity="0.4375"/>
  <rect x="4" y="8" width="1" height="1" fill="rgb(23,23,23)" fill-opacity="0.4453125"/>
  <rect x="4" y="9" width="1" height="1" fill="rgb(26,26,26)" fill-opacity="0.359375"/>
  <rect x="4" y="10" width="1" height="1" fill="rgb(0,0,0)" fill-opacity="0.1171875"/>
  <rect x="4" y="11" width="1" height="10" fill="rgb(255,255,255)" fill-opacity="0.0078125"/>
  <rect x="5" y="0" width="1" height="4" fill="rgb(255,255,255)" fill-opacity="0.0078125"/>
  <rect x="5" y="4" width="1" height="1" fill="rgb(18,18,18)" fill-opacity="0.171875"/>
  <rect x="5" y="5" width="1" height="1" fill="rgb(35,35,35)" fill-opacity="0.4609375"/>
  <rect x="5" y="6" width="1" height="1" fill="rgb(185,185,185)" fill-opacity="0.5"/>
  <rect x="5" y="7" width="1" height="1" fill="rgb(245,245,245)" fill-opacity="0.5"/>
  <rect x="5" y="8" width="1" height="1" fill="rgb(253,253,253)" fill-opacity="0.5"/>
  <rect x="5" y="9" width="1" height="1" fill="rgb(207,207,207)" fill-opacity="0.5"/>
  <rect x="5" y="10" width="1" height="1" fill="rgb(52,52,52)" fill-opacity="0.46875"/>
  <rect x="5" y="11" width="1" height="1" fill="rgb(25,25,25)" fill-opacity="0.28125"/>
  <rect x="5" y="12" width="1" height="9" fill="rgb(255,255,255)" fill-opacity="0.0078125"/>
  <rect x="6" y="0" width="1" height="3" fill="rgb(255,255,255)" fill-opacity="0.0078125"/>
  <rect x="6" y="3" width="1" height="1" fill="rgb(0,0,0)" fill-opacity="0.0625"/>
  <rect x="6" y="4" width="1" height="1" fill="rgb(35,35,35)" fill-opacity="0.4609375"/>
  <rect x="6" y="5" width="1" height="1" fill="rgb(247,247,247)" fill-opacity="0.5"/>
  <rect x="6" y="6" width="1" height="2" fill="rgb(255,255,255)" fill-opacity="0.5"/>
  <rect x="6" y="8" width="1" height="1" fill="rgb(251,251,251)" fill-opacity="0.5"/>
  <rect x="6" y="9" width="1" height="1" fill="rgb(237,237,237)" fill-opacity="0.5"/>
  <rect x="6" y="10" width="1" height="1" fill="rgb(221,221,221)" fill-opacity="0.5"/>
  <rect x="6" y="11" width="1" height="1" fill="rgb(71,71,71)" fill-opacity="0.46875"/>
  <rect x="6" y="12" width="1" height="1" fill="rgb(7,7,7)" fill-opacity="0.15625"/>
  <rect x="6" y="13" width="1" height="8" fill="rgb(255,255,255)" fill-opacity="0.0078125"/>
  <rect x="7" y="0" width="1" height="3" fill="rgb(255,255,255)" fill-opacity="0.0078125"/>
  <rect x="7" y="3" width="1" height="1" fill="rgb(25,25,25)" fill-opacity="0.3203125"/>
  <rect x="7" y="4" width="1" height="1" fill="rgb(185,185,185)" fill-opacity="0.5"/>
  <rect x="7" y="5" width="1" height="1" fill="rgb(255,255,255)" fill-opacity="0.5078125"/>
  <rect x="7" y="6" width="1" height="1" fill="rgb(185,185,185)" fill-opacity="0.6640625"/>
  <rect x="7" y="7" width="1" height="1" fill="rgb(175,175,175)" fill-opacity="0.6796875"/>
  <rect x="7" y="8" width="1" height="1" fill="rgb(169,169,169)" fill-opacity="0.6796875"/>
  <rect x="7" y="9" width="1" height="1" fill="rgb(169,169,169)" fill-opacity="0.65625"/>
  <rect x="7" y="10" width="1" height="1" fill="rgb(207,207,207)" fill-opacity="0.5"/>
  <rect x="7" y="11" width="1" height="1" fill="rgb(181,181,181)" fill-opacity="0.5"/>
  <rect x="7" y="12" width="1" height="1" fill="rgb(26,26,26)" fill-opacity="0.4375"/>
  <rect x="7" y="13" width="1" height="8" fill="rgb(255,255,255)" fill-opacity="0.0078125"/>
  <rect x="8" y="0" width="1" height="3" fill="rgb(255,255,255)" fill-opacity="0.0078125"/>
  <rect x="8" y="3" width="1" height="1" fill="rgb(23,23,23)" fill-opacity="0.4375"/>
  <rect x="8" y="4" width="1" height="1" fill="rgb(245,245,245)" fill-opacity="0.5"/>
  <rect x="8" y="5" width="1" height="1" fill="rgb(251,251,251)" fill-opacity="0.5078125"/>
  <rect x="8" y="6" width="1" height="1" fill="rgb(177,177,177)" fill-opacity="0.671875"/>
  <rect x="8" y="7" width="1" height="1" fill="rgb(245,245,245)" fill-opacity="0.6796875"/>
  <rect x="8" y="8" width="1" height="1" fill="rgb(236,236,236)" fill-opacity="0.6796875"/>
  <rect x="8" y="9" width="1" height="1" fill="rgb(155,155,155)" fill-opacity="0.671875"/>
  <rect x="8" y="10" width="1" height="1" fill="rgb(191,191,191)" fill-opacity="0.5"/>
  <rect x="8" y="11" width="1" height="1" fill="rgb(175,175,175)" fill-opacity="0.5"/>
  <rect x="8" y="12" width="1" height="1" fill="rgb(30,30,30)" fill-opacity="0.46875"/>
  <rect x="8" y="13" width="1" height="1" fill="rgb(0,0,0)" fill-opacity="0.109375"/>
  <rect x="8" y="14" width="1" height="1" fill="rgb(0,0,0)" fill-opacity="0.0546875"/>
  <rect x="8" y="15" width="1" height="6" fill="rgb(255,255,255)" fill-opacity="0.0078125"/>
  <rect x="9" y="0" width="1" height="3" fill="rgb(255,255,255)" fill-opacity="0.0078125"/>
  <rect x="9" y="3" width="1" height="1" fill="rgb(23,23,23)" fill-opacity="0.4453125"/>
  <rect x="9" y="4" width="1" height="1" fill="rgb(253,253,253)" fill-opacity="0.5"/>
  <rect x="9" y="5" width="1" height="1" fill="rgb(245,245,245)" fill-opacity="0.5078125"/>
  <rect x="9" y="6" width="1" height="1" fill="rgb(170,170,170)" fill-opacity="0.671875"/>
  <rect x="9" y="7" width="1" height="1" fill="rgb(237,237,237)" fill-opacity="0.6796875"/>
  <rect x="9" y="8" width="1" height="1" fill="rgb(227,227,227)" fill-opacity="0.6796875"/>
  <rect x="9" y="9" width="1" height="1" fill="rgb(148,148,148)" fill-opacity="0.671875"/>
  <rect x="9" y="10" width="1" height="1" fill="rgb(172,172,172)" fill-opacity="0.5078125"/>
  <rect x="9" y="11" width="1" height="1" fill="rgb(101,101,101)" fill-opacity="0.78125"/>
  <rect x="9" y="12" width="1" height="1" fill="rgb(43,43,43)" fill-opacity="0.9765625"/>
  <rect x="9" y="13" width="1" height="1" fill="rgb(67,67,67)" fill-opacity="0.9765625"/>
  <rect x="9" y="14" width="1" height="1" fill="rgb(59,59,59)" fill-opacity="0.9765625"/>
  <rect x="9" y="15" width="1" height="1" fill="rgb(36,36,36)" fill-opacity="0.9296875"/>
  <rect x="9" y="16" width="1" height="1" fill="rgb(10,10,10)" fill-opacity="0.3203125"/>
  <rect x="9" y="17" width="1" height="4" fill="rgb(255,255,255)" fill-opacity="0.0078125"/>
  <rect x="10" y="0" width="1" height="3" fill="rgb(255,255,255)" fill-opacity="0.0078125"/>
  <rect x="10" y="3" width="1" height="1" fill="rgb(26,26,26)" fill-opacity="0.359375"/>
  <rect x="10" y="4" width="1" height="1" fill="rgb(205,205,205)" fill-opacity="0.5"/>
  <rect x="10" y="5" width="1" height="1" fill="rgb(235,235,235)" fill-opacity="0.5078125"/>
  <rect x="10" y="6" width="1" height="1" fill="rgb(167,167,167)" fill-opacity="0.6640625"/>
  <rect x="10" y="7" width="1" height="1" fill="rgb(153,153,153)" fill-opacity="0.6796875"/>
  <rect x="10" y="8" width="1" height="1" fill="rgb(145,145,145)" fill-opacity="0.6796875"/>
  <rect x="10" y="9" width="1" height="1" fill="rgb(144,144,144)" fill-opacity="0.6640625"/>
  <rect x="10" y="10" width="1" height="1" fill="rgb(80,80,80)" fill-opacity="0.9375"/>
  <rect x="10" y="11" width="1" height="1" fill="rgb(109,109,109)"/>
  <rect x="10" y="12" width="1" height="1" fill="rgb(241,241,241)"/>
  <rect x="10" y="13" width="1" height="2" fill="rgb(255,255,255)"/>
  <rect x="10" y="15" width="1" height="1" fill="rgb(213,213,213)"/>
  <rect x="10" y="16" width="1" height="1" fill="rgb(73,73,73)" fill-opacity="0.9921875"/>
  <rect x="10" y="17" width="1" height="1" fill="rgb(23,23,23)" fill-opacity="0.609375"/>
  <rect x="10" y="18" width="1" height="3" fill="rgb(255,255,255)" fill-opacity="0.0078125"/>
  <rect x="11" y="0" width="1" height="3" fill="rgb(255,255,255)" fill-opacity="0.0078125"/>
  <rect x="11" y="3" width="1" height="1" fill="rgb(0,0,0)" fill-opacity="0.1171875"/>
  <rect x="11" y="4" width="1" height="1" fill="rgb(52,52,52)" fill-opacity="0.46875"/>
  <rect x="11" y="5" width="1" height="1" fill="rgb(217,217,217)" fill-opacity="0.5"/>
  <rect x="11" y="6" width="1" height="1" fill="rgb(203,203,203)" fill-opacity="0.5"/>
  <rect x="11" y="7" width="1" height="1" fill="rgb(189,189,189)" fill-opacity="0.5"/>
  <rect x="11" y="8" width="1" height="1" fill="rgb(173,173,173)" fill-opacity="0.5"/>
  <rect x="11" y="9" width="1" height="1" fill="rgb(97,97,97)" fill-opacity="0.7890625"/>
  <rect x="11" y="10" width="1" height="1" fill="rgb(106,106,106)"/>
  <rect x="11" y="11" width="1" height="1" fill="rgb(234,240,249)"/>
  <rect x="11" y="12" width="1" height="1" fill="rgb(210,224,244)"/>
  <rect x="11" y="13" width="1" height="2" fill="rgb(208,222,243)"/>
  <rect x="11" y="15" width="1" height="1" fill="rgb(211,224,243)"/>
  <rect x="11" y="16" width="1" height="1" fill="rgb(228,234,243)"/>
  <rect x="11" y="17" width="1" height="1" fill="rgb(61,61,61)" fill-opacity="0.984375"/>
  <rect x="11" y="18" width="1" height="1" fill="rgb(5,5,5)" fill-opacity="0.2265625"/>
  <rect x="11" y="19" width="1" height="2" fill="rgb(255,255,255)" fill-opacity="0.0078125"/>
  <rect x="12" y="0" width="1" height="4" fill="rgb(255,255,255)" fill-opacity="0.0078125"/>
  <rect x="12" y="4" width="1" height="1" fill="rgb(26,26,26)" fill-opacity="0.28125"/>
  <rect x="12" y="5" width="1" height="1" fill="rgb(71,71,71)" fill-opacity="0.46875"/>
  <rect x="12" y="6" width="1" height="1" fill="rgb(179,179,179)" fill-opacity="0.5"/>
  <rect x="12" y="7" width="1" height="1" fill="rgb(173,173,173)" fill-opacity="0.5"/>
  <rect x="12" y="8" width="1" height="1" fill="rgb(159,159,159)" fill-opacity="0.5"/>
  <rect x="12" y="9" width="1" height="1" fill="rgb(67,67,67)" fill-opacity="0.984375"/>
  <rect x="12" y="10" width="1" height="1" fill="rgb(242,242,243)"/>
  <rect x="12" y="11" width="1" height="1" fill="rgb(208,222,242)"/>
  <rect x="12" y="12" width="1" height="1" fill="rgb(73,126,206)"/>
  <rect x="12" y="13" width="1" height="2" fill="rgb(55,113,200)"/>
  <rect x="12" y="15" width="1" height="1" fill="rgb(80,131,208)"/>
  <rect x="12" y="16" width="1" height="1" fill="rgb(199,212,231)"/>
  <rect x="12" y="17" width="1" height="1" fill="rgb(154,154,154)"/>
  <rect x="12" y="18" width="1" height="1" fill="rgb(24,24,24)" fill-opacity="0.75"/>
  <rect x="12" y="19" width="1" height="2" fill="rgb(255,255,255)" fill-opacity="0.0078125"/>
  <rect x="13" y="0" width="1" height="5" fill="rgb(255,255,255)" fill-opacity="0.0078125"/>
  <rect x="13" y="5" width="1" height="1" fill="rgb(7,7,7)" fill-opacity="0.15625"/>
  <rect x="13" y="6" width="1" height="1" fill="rgb(25,25,25)" fill-opacity="0.4375"/>
  <rect x="13" y="7" width="1" height="1" fill="rgb(30,30,30)" fill-opacity="0.46875"/>
  <rect x="13" y="8" width="1" height="1" fill="rgb(34,34,34)" fill-opacity="0.5078125"/>
  <rect x="13" y="9" width="1" height="1" fill="rgb(68,68,68)" fill-opacity="0.9921875"/>
  <rect x="13" y="10" width="1" height="1" fill="rgb(254,254,255)"/>
  <rect x="13" y="11" width="1" height="1" fill="rgb(203,219,241)"/>
  <rect x="13" y="12" width="1" height="1" fill="rgb(59,117,201)"/>
  <rect x="13" y="13" width="1" height="1" fill="rgb(255,255,255)"/>
  <rect x="13" y="14" width="1" height="1" fill="rgb(249,251,253)"/>
  <rect x="13" y="15" width="1" height="1" fill="rgb(60,116,202)"/>
  <rect x="13" y="16" width="1" height="1" fill="rgb(187,200,220)"/>
  <rect x="13" y="17" width="1" height="1" fill="rgb(186,186,186)"/>
  <rect x="13" y="18" width="1" height="1" fill="rgb(34,34,34)" fill-opacity="0.9375"/>
  <rect x="13" y="19" width="1" height="2" fill="rgb(255,255,255)" fill-opacity="0.0078125"/>
  <rect x="14" y="0" width="1" height="7" fill="rgb(255,255,255)" fill-opacity="0.0078125"/>
  <rect x="14" y="7" width="1" height="1" fill="rgb(0,0,0)" fill-opacity="0.0234375"/>
  <rect x="14" y="8" width="1" height="1" fill="rgb(0,0,0)" fill-opacity="0.078125"/>
  <rect x="14" y="9" width="1" height="1" fill="rgb(63,63,63)" fill-opacity="0.9765625"/>
  <rect x="14" y="10" width="1" height="1" fill="rgb(254,254,255)"/>
  <rect x="14" y="11" width="1" height="1" fill="rgb(203,219,241)"/>
  <rect x="14" y="12" width="1" height="1" fill="rgb(59,117,201)"/>
  <rect x="14" y="13" width="1" height="1" fill="rgb(255,255,255)"/>
  <rect x="14" y="14" width="1" height="1" fill="rgb(249,251,253)"/>
  <rect x="14" y="15" width="1" height="1" fill="rgb(60,116,201)"/>
  <rect x="14" y="16" width="1" height="1" fill="rgb(175,188,208)"/>
  <rect x="14" y="17" width="1" height="1" fill="rgb(165,165,165)"/>
  <rect x="14" y="18" width="1" height="1" fill="rgb(32,32,32)" fill-opacity="0.9140625"/>
  <rect x="14" y="19" width="1" height="2" fill="rgb(255,255,255)" fill-opacity="0.0078125"/>
  <rect x="15" y="0" width="1" height="9" fill="rgb(255,255,255)" fill-opacity="0.0078125"/>
  <rect x="15" y="9" width="1" height="1" fill="rgb(37,37,37)" fill-opacity="0.9375"/>
  <rect x="15" y="10" width="1" height="1" fill="rgb(221,221,222)"/>
  <rect x="15" y="11" width="1" height="1" fill="rgb(208,222,242)"/>
  <rect x="15" y="12" width="1" height="1" fill="rgb(73,126,206)"/>
  <rect x="15" y="13" width="1" height="2" fill="rgb(55,113,200)"/>
  <rect x="15" y="15" width="1" height="1" fill="rgb(77,127,204)"/>
  <rect x="15" y="16" width="1" height="1" fill="rgb(167,179,198)"/>
  <rect x="15" y="17" width="1" height="1" fill="rgb(115,115,115)"/>
  <rect x="15" y="18" width="1" height="1" fill="rgb(21,21,21)" fill-opacity="0.65625"/>
  <rect x="15" y="19" width="1" height="2" fill="rgb(255,255,255)" fill-opacity="0.0078125"/>
  <rect x="16" y="0" width="1" height="9" fill="rgb(255,255,255)" fill-opacity="0.0078125"/>
  <rect x="16" y="9" width="1" height="1" fill="rgb(9,9,9)" fill-opacity="0.3359375"/>
  <rect x="16" y="10" width="1" height="1" fill="rgb(73,73,73)" fill-opacity="0.9921875"/>
  <rect x="16" y="11" width="1" height="1" fill="rgb(231,237,246)"/>
  <rect x="16" y="12" width="1" height="1" fill="rgb(202,216,235)"/>
  <rect x="16" y="13" width="1" height="1" fill="rgb(189,203,224)"/>
  <rect x="16" y="14" width="1" height="1" fill="rgb(177,191,212)"/>
  <rect x="16" y="15" width="1" height="1" fill="rgb(165,179,198)"/>
  <rect x="16" y="16" width="1" height="1" fill="rgb(157,163,172)"/>
  <rect x="16" y="17" width="1" height="1" fill="rgb(43,43,43)" fill-opacity="0.96875"/>
  <rect x="16" y="18" width="1" height="1" fill="rgb(0,0,0)" fill-opacity="0.1015625"/>
  <rect x="16" y="19" width="1" height="2" fill="rgb(255,255,255)" fill-opacity="0.0078125"/>
  <rect x="17" y="0" width="1" height="10" fill="rgb(255,255,255)" fill-opacity="0.0078125"/>
  <rect x="17" y="10" width="1" height="1" fill="rgb(24,24,24)" fill-opacity="0.6328125"/>
  <rect x="17" y="11" width="1" height="1" fill="rgb(63,63,63)" fill-opacity="0.984375"/>
  <rect x="17" y="12" width="1" height="1" fill="rgb(172,172,172)"/>
  <rect x="17" y="13" width="1" height="1" fill="rgb(205,205,205)"/>
  <rect x="17" y="14" width="1" height="1" fill="rgb(180,180,180)"/>
  <rect x="17" y="15" width="1" height="1" fill="rgb(122,122,122)"/>
  <rect x="17" y="16" width="1" height="1" fill="rgb(42,42,42)" fill-opacity="0.96875"/>
  <rect x="17" y="17" width="1" height="1" fill="rgb(12,12,12)" fill-opacity="0.3359375"/>
  <rect x="17" y="18" width="1" height="3" fill="rgb(255,255,255)" fill-opacity="0.0078125"/>
  <rect x="18" y="0" width="1" height="11" fill="rgb(255,255,255)" fill-opacity="0.0078125"/>
  <rect x="18" y="11" width="1" height="1" fill="rgb(4,4,4)" fill-opacity="0.234375"/>
  <rect x="18" y="12" width="1" height="1" fill="rgb(26,26,26)" fill-opacity="0.765625"/>
  <rect x="18" y="13" width="1" height="1" fill="rgb(40,40,40)" fill-opacity="0.9453125"/>
  <rect x="18" y="14" width="1" height="1" fill="rgb(37,37,37)" fill-opacity="0.921875"/>
  <rect x="18" y="15" width="1" height="1" fill="rgb(21,21,21)" fill-opacity="0.6640625"/>
  <rect x="18" y="16" width="1" height="1" fill="rgb(0,0,0)" fill-opacity="0.1015625"/>
  <rect x="18" y="17" width="1" height="4" fill="rgb(255,255,255)" fill-opacity="0.0078125"/>
  <rect x="19" y="0" width="1" height="21" fill="rgb(255,255,255)" fill-opacity="0.0078125"/>
  <rect x="20" y="0" width="1" height="21" fill="rgb(255,255,255)" fill-opacity="0.0078125"/>
</svg>