<svg xmlns="http://www.w3.org/2000/svg" shape-rendering="crispEdges" width="21" height="21" viewBox="0 0 21 21">
  <rect x="0" y="0" width="1" height="21" fill="rgb(255,255,255)" fill-opacity="0.0078125"/>
  <rect x="1" y="0" width="1" height="21" fill="rgb(255,255,255)" fill-opacity="0.0078125"/>
  <rect x="2" y="0" width="1" height="21" fill="rgb(255,255,255)" fill-opacity="0.0078125"/>
  <rect x="3" y="0" width="1" height="21" fill="rgb(255,255,255)" fill-opacity="0.0078125"/>
  <rect x="4" y="0" width="1" height="10" fill="rgb(255,255,255)" fill-opacity="0.0078125"/>
  <rect x="4" y="10" width="1" height="1" fill="rgb(58,58,58)" fill-opacity="0.6171875"/>
  <rect x="4" y="11" width="1" height="1" fill="rgb(60,60,60)" fill-opacity="0.6171875"/>
  <rect x="4" y="12" width="1" height="9" fill="rgb(255,255,255)" fill-opacity="0.0078125"/>
  <rect x="5" y="0" width="1" height="9" fill="rgb(255,255,255)" fill-opacity="0.0078125"/>
  <rect x="5" y="9" width="1" height="1" fill="rgb(53,53,53)" fill-opacity="0.3984375"/>
  <rect x="5" y="10" width="1" height="1" fill="rgb(78,78,78)" fill-opacity="0.9609375"/>
  <rect x="5" y="11" width="1" height="1" fill="rgb(69,69,69)" fill-opacity="0.9609375"/>
  <rect x="5" y="12" width="1" height="1" fill="rgb(53,53,53)" fill-opacity="0.3984375"/>
  <rect x="5" y="13" width="1" height="8" fill="rgb(255,255,255)" fill-opacity="0.0078125"/>
  <rect x="6" y="0" width="1" height="8" fill="rgb(255,255,255)" fill-opacity="0.0078125"/>
  <rect x="6" y="8" width="1" height="1" fill="rgb(51,51,51)" fill-opacity="0.1796875"/>
  <rect x="6" y="9" width="1" height="1" fill="rgb(88,88,88)" fill-opacity="0.96875"/>
  <rect x="6" y="10" width="1" height="1" fill="rgb(250,250,250)"/>
  <rect x="6" y="11" width="1" height="1" fill="rgb(197,197,197)"/>
  <rect x="6" y="12" width="1" height="1" fill="rgb(57,57,57)" fill-opacity="0.9609375"/>
  <rect x="6" y="13" width="1" height="1" fill="rgb(51,51,51)" fill-opacity="0.1796875"/>
  <rect x="6" y="14" width="1" height="7" fill="rgb(255,255,255)" fill-opacity="0.0078125"/>
  <rect x="7" y="0" width="1" height="7" fill="rgb(255,255,255)" fill-opacity="0.0078125"/>
  <rect x="7" y="7" width="1" height="1" fill="rgb(43,43,43)" fill-opacity="0.0546875"/>
  <rect x="7" y="8" width="1" height="1" fill="rgb(63,63,63)" fill-opacity="0.890625"/>
  <rect x="7" y="9" width="1" height="1" fill="rgb(230,230,230)"/>
  <rect x="7" y="10" width="1" height="1" fill="rgb(240,240,240)"/>
  <rect x="7" y="11" width="1" height="1" fill="rgb(194,194,194)"/>
  <rect x="7" y="12" width="1" height="1" fill="rgb(151,151,151)"/>
  <rect x="7" y="13" width="1" height="1" fill="rgb(60,60,60)" fill-opacity="0.8828125"/>
  <rect x="7" y="14" width="1" height="1" fill="rgb(43,43,43)" fill-opacity="0.0546875"/>
  <rect x="7" y="15" width="1" height="6" fill="rgb(255,255,255)" fill-opacity="0.0078125"/>
  <rect x="8" y="0" width="1" height="7" fill="rgb(255,255,255)" fill-opacity="0.0078125"/>
  <rect x="8" y="7" width="1" height="1" fill="rgb(53,53,53)" fill-opacity="0.6796875"/>
  <rect x="8" y="8" width="1" height="1" fill="rgb(188,188,188)" fill-opacity="0.9921875"/>
  <rect x="8" y="9" width="1" height="1" fill="rgb(250,250,250)"/>
  <rect x="8" y="10" width="1" height="1" fill="rgb(185,185,185)"/>
  <rect x="8" y="11" width="1" height="1" fill="rgb(193,193,193)"/>
  <rect x="8" y="12" width="1" height="1" fill="rgb(215,215,215)"/>
  <rect x="8" y="13" width="1" height="1" fill="rgb(116,116,116)" fill-opacity="0.96875"/>
  <rect x="8" y="14" width="1" height="1" fill="rgb(61,61,61)" fill-opacity="0.6796875"/>
  <rect x="8" y="15" width="1" height="6" fill="rgb(255,255,255)" fill-opacity="0.0078125"/>
  <rect x="9" y="0" width="1" height="6" fill="rgb(255,255,255)" fill-opacity="0.0078125"/>
  <rect x="9" y="6" width="1" height="1" fill="rgb(53,53,53)" fill-opacity="0.3984375"/>
  <rect x="9" y="7" width="1" height="1" fill="rgb(79,79,79)" fill-opacity="0.9609375"/>
  <rect x="9" y="8" width="1" height="1" fill="rgb(254,254,254)"/>
  <rect x="9" y="9" width="1" height="1" fill="rgb(189,189,189)"/>
  <rect x="9" y="10" width="1" height="1" fill="rgb(172,172,172)"/>
  <rect x="9" y="11" width="1" height="1" fill="rgb(194,194,194)"/>
  <rect x="9" y="12" width="1" height="1" fill="rgb(216,216,216)"/>
  <rect x="9" y="13" width="1" height="1" fill="rgb(231,231,231)"/>
  <rect x="9" y="14" width="1" height="1" fill="rgb(77,77,77)" fill-opacity="0.9609375"/>
  <rect x="9" y="15" width="1" height="1" fill="rgb(53,53,53)" fill-opacity="0.3984375"/>
  <rect x="9" y="16" width="1" height="5" fill="rgb(255,255,255)" fill-opacity="0.0078125"/>
  <rect x="10" y="0" width="1" height="6" fill="rgb(255,255,255)" fill-opacity="0.0078125"/>
  <rect x="10" y="6" width="1" height="1" fill="rgb(53,53,53)" fill-opacity="0.7734375"/>
  <rect x="10" y="7" width="1" height="1" fill="rgb(51,51,51)"/>
  <rect x="10" y="8" width="1" height="1" fill="rgb(65,65,65)"/>
  <rect x="10" y="9" width="1" height="1" fill="rgb(51,51,51)"/>
  <rect x="10" y="10" width="1" height="1" fill="rgb(140,140,140)" fill-opacity="0.984375"/>
  <rect x="10" y="11" width="1" height="1" fill="rgb(147,147,147)" fill-opacity="0.984375"/>
  <rect x="10" y="12" width="1" height="3" fill="rgb(51,51,51)"/>
  <rect x="10" y="15" width="1" height="1" fill="rgb(62,62,62)" fill-opacity="0.7734375"/>
  <rect x="10" y="16" width="1" height="5" fill="rgb(255,255,255)" fill-opacity="0.0078125"/>
  <rect x="11" y="0" width="1" height="8" fill="rgb(255,255,255)" fill-opacity="0.0078125"/>
  <rect x="11" y="8" width="1" height="1" fill="rgb(53,53,53)" fill-opacity="0.171875"/>
  <rect x="11" y="9" width="1" height="1" fill="rgb(85,85,85)" fill-opacity="0.96875"/>
  <rect x="11" y="10" width="1" height="1" fill="rgb(249,249,249)"/>
  <rect x="11" y="11" width="1" height="1" fill="rgb(219,219,219)"/>
  <rect x="11" y="12" width="1" height="1" fill="rgb(58,58,58)" fill-opacity="0.9609375"/>
  <rect x="11" y="13" width="1" height="1" fill="rgb(53,53,53)" fill-opacity="0.171875"/>
  <rect x="11" y="14" width="1" height="7" fill="rgb(255,255,255)" fill-opacity="0.0078125"/>
  <rect x="12" y="0" width="1" height="7" fill="rgb(255,255,255)" fill-opacity="0.0078125"/>
  <rect x="12" y="7" width="1" height="1" fill="rgb(46,46,46)" fill-opacity="0.046875"/>
  <rect x="12" y="8" width="1" height="1" fill="rgb(63,63,63)" fill-opacity="0.890625"/>
  <rect x="12" y="9" width="1" height="1" fill="rgb(230,230,230)"/>
  <rect x="12" y="10" width="1" height="1" fill="rgb(245,245,245)"/>
  <rect x="12" y="11" width="1" height="1" fill="rgb(203,203,203)"/>
  <rect x="12" y="12" width="1" height="1" fill="rgb(155,155,155)"/>
  <rect x="12" y="13" width="1" height="1" fill="rgb(60,60,60)" fill-opacity="0.8828125"/>
  <rect x="12" y="14" width="1" height="1" fill="rgb(46,46,46)" fill-opacity="0.046875"/>
  <rect x="12" y="15" width="1" height="6" fill="rgb(255,255,255)" fill-opacity="0.0078125"/>
  <rect x="13" y="0" width="1" height="7" fill="rgb(255,255,255)" fill-opacity="0.0078125"/>
  <rect x="13" y="7" width="1" height="1" fill="rgb(54,54,54)" fill-opacity="0.671875"/>
  <rect x="13" y="8" width="1" height="1" fill="rgb(192,192,192)" fill-opacity="0.9921875"/>
  <rect x="13" y="9" width="1" height="1" fill="rgb(252,252,252)"/>
  <rect x="13" y="10" width="1" height="1" fill="rgb(194,194,194)"/>
  <rect x="13" y="11" width="1" height="1" fill="rgb(201,201,201)"/>
  <rect x="13" y="12" width="1" height="1" fill="rgb(223,223,223)"/>
  <rect x="13" y="13" width="1" height="1" fill="rgb(118,118,118)" fill-opacity="0.96875"/>
  <rect x="13" y="14" width="1" height="1" fill="rgb(61,61,61)" fill-opacity="0.671875"/>
  <rect x="13" y="15" width="1" height="6" fill="rgb(255,255,255)" fill-opacity="0.0078125"/>
  <rect x="14" y="0" width="1" height="6" fill="rgb(255,255,255)" fill-opacity="0.0078125"/>
  <rect x="14" y="6" width="1" height="1" fill="rgb(51,51,51)" fill-opacity="0.3984375"/>
  <rect x="14" y="7" width="1" height="1" fill="rgb(80,80,80)" fill-opacity="0.9609375"/>
  <rect x="14" y="8" width="1" height="1" fill="rgb(255,255,255)"/>
  <rect x="14" y="9" width="1" height="1" fill="rgb(197,197,197)"/>
  <rect x="14" y="10" width="1" height="1" fill="rgb(180,180,180)"/>
  <rect x="14" y="11" width="1" height="1" fill="rgb(202,202,202)"/>
  <rect x="14" y="12" width="1" height="1" fill="rgb(224,224,224)"/>
  <rect x="14" y="13" width="1" height="1" fill="rgb(238,238,238)"/>
  <rect x="14" y="14" width="1" height="1" fill="rgb(77,77,77)" fill-opacity="0.9609375"/>
  <rect x="14" y="15" width="1" height="1" fill="rgb(54,54,54)" fill-opacity="0.3984375"/>
  <rect x="14" y="16" width="1" height="5" fill="rgb(255,255,255)" fill-opacity="0.0078125"/>
  <rect x="15" y="0" width="1" height="6" fill="rgb(255,255,255)" fill-opacity="0.0078125"/>
  <rect x="15" y="6" width="1" height="1" fill="rgb(53,53,53)" fill-opacity="0.7734375"/>
  <rect x="15" y="7" width="1" height="1" fill="rgb(51,51,51)"/>
  <rect x="15" y="8" width="1" height="1" fill="rgb(65,65,65)"/>
  <rect x="15" y="9" width="1" height="6" fill="rgb(51,51,51)"/>
  <rect x="15" y="15" width="1" height="1" fill="rgb(62,62,62)" fill-opacity="0.7734375"/>
  <rect x="15" y="16" width="1" height="5" fill="rgb(255,255,255)" fill-opacity="0.0078125"/>
  <rect x="16" y="0" width="1" height="21" fill="rgb(255,255,255)" fill-opacity="0.0078125"/>
  <rect x="17" y="0" width="1" height="21" fill="rgb(255,255,255)" fill-opacity="0.0078125"/>
  <rect x="18" y="0" width="1" height="21" fill="rgb(255,255,255)" fill-opacity="0.0078125"/>
  <rect x="19" y="0" width="1" height="21" fill="rgb(255,255,255)" fill-opacity="0.0078125"/>
  <rect x="20" y="0" width="1" height="21" fill="rgb(255,255,255)" fill-opacity="0.0078125"/>
</svg>