<svg xmlns="http://www.w3.org/2000/svg" shape-rendering="crispEdges" width="21" height="21" viewBox="0 0 21 21">
  <rect x="0" y="0" width="21" height="1" fill="rgb(255,255,255)" fill-opacity="0.0078125"/>
  <rect x="0" y="1" width="21" height="1" fill="rgb(255,255,255)" fill-opacity="0.0078125"/>
  <rect x="0" y="2" width="21" height="1" fill="rgb(255,255,255)" fill-opacity="0.0078125"/>
  <rect x="0" y="3" width="21" height="1" fill="rgb(255,255,255)" fill-opacity="0.0078125"/>
  <rect x="0" y="4" width="21" height="1" fill="rgb(255,255,255)" fill-opacity="0.0078125"/>
  <rect x="0" y="5" width="21" height="1" fill="rgb(255,255,255)" fill-opacity="0.0078125"/>
  <rect x="0" y="6" width="21" height="1" fill="rgb(255,255,255)" fill-opacity="0.0078125"/>
  <rect x="0" y="7" width="21" height="1" fill="rgb(255,255,255)" fill-opacity="0.0078125"/>
  <rect x="0" y="8" width="8" height="1" fill="rgb(255,255,255)" fill-opacity="0.0078125"/>
  <rect x="8" y="8" width="1" height="1" fill="rgb(255,170,43)" fill-opacity="0.03125"/>
  <rect x="9" y="8" width="1" height="1" fill="rgb(255,151,40)" fill-opacity="0.1328125"/>
  <rect x="10" y="8" width="1" height="1" fill="rgb(255,155,40)" fill-opacity="0.2578125"/>
  <rect x="11" y="8" width="1" height="1" fill="rgb(255,157,39)" fill-opacity="0.109375"/>
  <rect x="12" y="8" width="1" height="1" fill="rgb(255,191,64)" fill-opacity="0.0234375"/>
  <rect x="13" y="8" width="8" height="1" fill="rgb(255,255,255)" fill-opacity="0.0078125"/>
  <rect x="0" y="9" width="7" height="1" fill="rgb(255,255,255)" fill-opacity="0.0078125"/>
  <rect x="7" y="9" width="1" height="1" fill="rgb(255,159,32)" fill-opacity="0.0390625"/>
  <rect x="8" y="9" width="1" height="1" fill="rgb(255,155,43)" fill-opacity="0.265625"/>
  <rect x="9" y="9" width="1" height="1" fill="rgb(255,151,42)" fill-opacity="0.6796875"/>
  <rect x="10" y="9" width="1" height="1" fill="rgb(255,152,41)" fill-opacity="0.7578125"/>
  <rect x="11" y="9" width="1" height="1" fill="rgb(255,152,43)" fill-opacity="0.6328125"/>
  <rect x="12" y="9" width="1" height="1" fill="rgb(255,153,42)" fill-opacity="0.21875"/>
  <rect x="13" y="9" width="1" height="1" fill="rgb(255,153,51)" fill-opacity="0.0234375"/>
  <rect x="14" y="9" width="7" height="1" fill="rgb(255,255,255)" fill-opacity="0.0078125"/>
  <rect x="0" y="10" width="6" height="1" fill="rgb(255,255,255)" fill-opacity="0.0078125"/>
  <rect x="6" y="10" width="1" height="1" fill="rgb(255,159,32)" fill-opacity="0.0390625"/>
  <rect x="7" y="10" width="1" height="1" fill="rgb(255,147,43)" fill-opacity="0.265625"/>
  <rect x="8" y="10" width="1" height="1" fill="rgb(255,151,42)" fill-opacity="0.6953125"/>
  <rect x="9" y="10" width="1" height="1" fill="rgb(210,123,31)" fill-opacity="0.8046875"/>
  <rect x="10" y="10" width="1" height="1" fill="rgb(132,76,16)" fill-opacity="0.9296875"/>
  <rect x="11" y="10" width="1" height="1" fill="rgb(218,129,33)" fill-opacity="0.796875"/>
  <rect x="12" y="10" width="1" height="1" fill="rgb(255,152,41)" fill-opacity="0.6640625"/>
  <rect x="13" y="10" width="1" height="1" fill="rgb(255,153,46)" fill-opacity="0.21875"/>
  <rect x="14" y="10" width="1" height="1" fill="rgb(255,153,51)" fill-opacity="0.0234375"/>
  <rect x="15" y="10" width="6" height="1" fill="rgb(255,255,255)" fill-opacity="0.0078125"/>
  <rect x="0" y="11" width="5" height="1" fill="rgb(255,255,255)" fill-opacity="0.0078125"/>
  <rect x="5" y="11" width="1" height="1" fill="rgb(255,146,36)" fill-opacity="0.03125"/>
  <rect x="6" y="11" width="1" height="1" fill="rgb(255,153,43)" fill-opacity="0.2578125"/>
  <rect x="7" y="11" width="1" height="1" fill="rgb(255,151,42)" fill-opacity="0.6953125"/>
  <rect x="8" y="11" width="1" height="1" fill="rgb(211,125,31)" fill-opacity="0.8046875"/>
  <rect x="9" y="11" width="1" height="1" fill="rgb(130,77,22)" fill-opacity="0.9609375"/>
  <rect x="10" y="11" width="1" height="1" fill="rgb(210,157,100)"/>
  <rect x="11" y="11" width="1" height="1" fill="rgb(107,60,10)" fill-opacity="0.9609375"/>
  <rect x="12" y="11" width="1" height="1" fill="rgb(212,127,33)" fill-opacity="0.796875"/>
  <rect x="13" y="11" width="1" height="1" fill="rgb(255,152,41)" fill-opacity="0.671875"/>
  <rect x="14" y="11" width="1" height="1" fill="rgb(255,152,45)" fill-opacity="0.2265625"/>
  <rect x="15" y="11" width="1" height="1" fill="rgb(255,153,51)" fill-opacity="0.0234375"/>
  <rect x="16" y="11" width="5" height="1" fill="rgb(255,255,255)" fill-opacity="0.0078125"/>
  <rect x="0" y="12" width="4" height="1" fill="rgb(255,255,255)" fill-opacity="0.0078125"/>
  <rect x="4" y="12" width="1" height="1" fill="rgb(255,170,43)" fill-opacity="0.03125"/>
  <rect x="5" y="12" width="1" height="1" fill="rgb(255,151,44)" fill-opacity="0.2578125"/>
  <rect x="6" y="12" width="1" height="1" fill="rgb(255,153,42)" fill-opacity="0.6953125"/>
  <rect x="7" y="12" width="1" height="1" fill="rgb(214,126,33)" fill-opacity="0.8046875"/>
  <rect x="8" y="12" width="1" height="1" fill="rgb(132,78,21)" fill-opacity="0.9609375"/>
  <rect x="9" y="12" width="1" height="1" fill="rgb(245,213,179)"/>
  <rect x="10" y="12" width="1" height="1" fill="rgb(255,207,155)"/>
  <rect x="11" y="12" width="1" height="1" fill="rgb(210,125,33)"/>
  <rect x="12" y="12" width="1" height="1" fill="rgb(92,51,10)" fill-opacity="0.9765625"/>
  <rect x="13" y="12" width="1" height="1" fill="rgb(206,122,31)" fill-opacity="0.8046875"/>
  <rect x="14" y="12" width="1" height="1" fill="rgb(255,152,42)" fill-opacity="0.671875"/>
  <rect x="15" y="12" width="1" height="1" fill="rgb(255,149,44)" fill-opacity="0.234375"/>
  <rect x="16" y="12" width="1" height="1" fill="rgb(255,153,51)" fill-opacity="0.0234375"/>
  <rect x="17" y="12" width="4" height="1" fill="rgb(255,255,255)" fill-opacity="0.0078125"/>
  <rect x="0" y="13" width="4" height="1" fill="rgb(255,255,255)" fill-opacity="0.0078125"/>
  <rect x="4" y="13" width="1" height="1" fill="rgb(255,143,40)" fill-opacity="0.1328125"/>
  <rect x="5" y="13" width="1" height="1" fill="rgb(255,151,42)" fill-opacity="0.671875"/>
  <rect x="6" y="13" width="1" height="1" fill="rgb(215,128,33)" fill-opacity="0.796875"/>
  <rect x="7" y="13" width="1" height="1" fill="rgb(132,77,21)" fill-opacity="0.9609375"/>
  <rect x="8" y="13" width="1" height="1" fill="rgb(245,213,179)"/>
  <rect x="9" y="13" width="1" height="1" fill="rgb(255,210,162)"/>
  <rect x="10" y="13" width="1" height="1" fill="rgb(255,154,45)"/>
  <rect x="11" y="13" width="1" height="1" fill="rgb(255,161,60)"/>
  <rect x="12" y="13" width="1" height="1" fill="rgb(205,136,60)"/>
  <rect x="13" y="13" width="1" height="1" fill="rgb(73,43,9)" fill-opacity="0.984375"/>
  <rect x="14" y="13" width="1" height="1" fill="rgb(201,119,31)" fill-opacity="0.8125"/>
  <rect x="15" y="13" width="1" height="1" fill="rgb(255,152,43)" fill-opacity="0.6328125"/>
  <rect x="16" y="13" width="1" height="1" fill="rgb(255,151,38)" fill-opacity="0.109375"/>
  <rect x="17" y="13" width="4" height="1" fill="rgb(255,255,255)" fill-opacity="0.0078125"/>
  <rect x="0" y="14" width="3" height="1" fill="rgb(255,255,255)" fill-opacity="0.0078125"/>
  <rect x="3" y="14" width="1" height="1" fill="rgb(255,0,0)" fill-opacity="0.0078125"/>
  <rect x="4" y="14" width="1" height="1" fill="rgb(255,151,44)" fill-opacity="0.3203125"/>
  <rect x="5" y="14" width="1" height="1" fill="rgb(252,150,41)" fill-opacity="0.765625"/>
  <rect x="6" y="14" width="1" height="1" fill="rgb(123,70,13)" fill-opacity="0.953125"/>
  <rect x="7" y="14" width="1" height="1" fill="rgb(236,179,118)"/>
  <rect x="8" y="14" width="1" height="1" fill="rgb(255,209,160)"/>
  <rect x="9" y="14" width="1" height="1" fill="rgb(255,154,45)"/>
  <rect x="10" y="14" width="1" height="1" fill="rgb(255,159,56)"/>
  <rect x="11" y="14" width="1" height="1" fill="rgb(255,169,76)"/>
  <rect x="12" y="14" width="1" height="1" fill="rgb(255,178,96)"/>
  <rect x="13" y="14" width="1" height="1" fill="rgb(199,144,85)"/>
  <rect x="14" y="14" width="1" height="1" fill="rgb(60,34,6)" fill-opacity="0.984375"/>
  <rect x="15" y="14" width="1" height="1" fill="rgb(255,152,41)" fill-opacity="0.7578125"/>
  <rect x="16" y="14" width="1" height="1" fill="rgb(255,153,44)" fill-opacity="0.28125"/>
  <rect x="17" y="14" width="4" height="1" fill="rgb(255,255,255)" fill-opacity="0.0078125"/>
  <rect x="0" y="15" width="3" height="1" fill="rgb(255,255,255)" fill-opacity="0.0078125"/>
  <rect x="3" y="15" width="1" height="1" fill="rgb(255,0,0)" fill-opacity="0.0078125"/>
  <rect x="4" y="15" width="1" height="1" fill="rgb(255,151,44)" fill-opacity="0.3203125"/>
  <rect x="5" y="15" width="1" height="1" fill="rgb(252,150,41)" fill-opacity="0.765625"/>
  <rect x="6" y="15" width="1" height="1" fill="rgb(121,69,13)" fill-opacity="0.9375"/>
  <rect x="7" y="15" width="1" height="1" fill="rgb(100,56,9)" fill-opacity="0.9765625"/>
  <rect x="8" y="15" width="1" height="1" fill="rgb(90,50,7)" fill-opacity="0.9765625"/>
  <rect x="9" y="15" width="1" height="1" fill="rgb(80,45,6)" fill-opacity="0.984375"/>
  <rect x="10" y="15" width="1" height="1" fill="rgb(71,38,6)" fill-opacity="0.9921875"/>
  <rect x="11" y="15" width="1" height="1" fill="rgb(59,32,4)" fill-opacity="0.9921875"/>
  <rect x="12" y="15" width="1" height="1" fill="rgb(49,26,2)"/>
  <rect x="13" y="15" width="1" height="1" fill="rgb(43,22,0)"/>
  <rect x="14" y="15" width="1" height="1" fill="rgb(71,41,10)" fill-opacity="0.9765625"/>
  <rect x="15" y="15" width="1" height="1" fill="rgb(255,152,41)" fill-opacity="0.7578125"/>
  <rect x="16" y="15" width="1" height="1" fill="rgb(255,152,43)" fill-opacity="0.2890625"/>
  <rect x="17" y="15" width="4" height="1" fill="rgb(255,255,255)" fill-opacity="0.0078125"/>
  <rect x="0" y="16" width="4" height="1" fill="rgb(255,255,255)" fill-opacity="0.0078125"/>
  <rect x="4" y="16" width="1" height="1" fill="rgb(255,156,41)" fill-opacity="0.125"/>
  <rect x="5" y="16" width="1" height="1" fill="rgb(255,153,42)" fill-opacity="0.640625"/>
  <rect x="6" y="16" width="9" height="1" fill="rgb(255,152,41)" fill-opacity="0.7578125"/>
  <rect x="15" y="16" width="1" height="1" fill="rgb(255,151,41)" fill-opacity="0.609375"/>
  <rect x="16" y="16" width="1" height="1" fill="rgb(255,148,41)" fill-opacity="0.125"/>
  <rect x="17" y="16" width="4" height="1" fill="rgb(255,255,255)" fill-opacity="0.0078125"/>
  <rect x="0" y="17" width="4" height="1" fill="rgb(255,255,255)" fill-opacity="0.0078125"/>
  <rect x="4" y="17" width="1" height="1" fill="rgb(255,170,43)" fill-opacity="0.03125"/>
  <rect x="5" y="17" width="1" height="1" fill="rgb(255,158,38)" fill-opacity="0.140625"/>
  <rect x="6" y="17" width="1" height="1" fill="rgb(255,153,41)" fill-opacity="0.3203125"/>
  <rect x="7" y="17" width="7" height="1" fill="rgb(255,152,41)" fill-opacity="0.34375"/>
  <rect x="14" y="17" width="1" height="1" fill="rgb(255,151,40)" fill-opacity="0.3046875"/>
  <rect x="15" y="17" width="1" height="1" fill="rgb(255,153,43)" fill-opacity="0.125"/>
  <rect x="16" y="17" width="1" height="1" fill="rgb(255,128,43)" fill-opacity="0.03125"/>
  <rect x="17" y="17" width="4" height="1" fill="rgb(255,255,255)" fill-opacity="0.0078125"/>
  <rect x="0" y="18" width="6" height="1" fill="rgb(255,255,255)" fill-opacity="0.0078125"/>
  <rect x="6" y="18" width="1" height="1" fill="rgb(255,0,0)" fill-opacity="0.0078125"/>
  <rect x="7" y="18" width="7" height="1" fill="rgb(255,128,0)" fill-opacity="0.015625"/>
  <rect x="14" y="18" width="1" height="1" fill="rgb(255,0,0)" fill-opacity="0.0078125"/>
  <rect x="15" y="18" width="6" height="1" fill="rgb(255,255,255)" fill-opacity="0.0078125"/>
  <rect x="0" y="19" width="21" height="1" fill="rgb(255,255,255)" fill-opacity="0.0078125"/>
  <rect x="0" y="20" width="21" height="1" fill="rgb(255,255,255)" fill-opacity="0.0078125"/>
</svg>