<svg xmlns="http://www.w3.org/2000/svg" shape-rendering="crispEdges" width="21" height="21" viewBox="0 0 21 21">
  <rect x="0" y="0" width="1" height="21" fill="rgb(255,255,255)" fill-opacity="0.0078125"/>
  <rect x="1" y="0" width="1" height="21" fill="rgb(255,255,255)" fill-opacity="0.0078125"/>
  <rect x="2" y="0" width="1" height="21" fill="rgb(255,255,255)" fill-opacity="0.0078125"/>
  <rect x="3" y="0" width="1" height="21" fill="rgb(255,255,255)" fill-opacity="0.0078125"/>
  <rect x="4" y="0" width="1" height="10" fill="rgb(255,255,255)" fill-opacity="0.0078125"/>
  <rect x="4" y="10" width="1" height="1" fill="rgb(57,57,57)" fill-opacity="0.53125"/>
  <rect x="4" y="11" width="1" height="1" fill="rgb(59,59,59)" fill-opacity="0.53125"/>
  <rect x="4" y="12" width="1" height="9" fill="rgb(255,255,255)" fill-opacity="0.0078125"/>
  <rect x="5" y="0" width="1" height="9" fill="rgb(255,255,255)" fill-opacity="0.0078125"/>
  <rect x="5" y="9" width="1" height="1" fill="rgb(53,53,53)" fill-opacity="0.1953125"/>
  <rect x="5" y="10" width="1" height="1" fill="rgb(56,56,56)" fill-opacity="0.96875"/>
  <rect x="5" y="11" width="1" height="1" fill="rgb(57,57,57)" fill-opacity="0.96875"/>
  <rect x="5" y="12" width="1" height="1" fill="rgb(53,53,53)" fill-opacity="0.1953125"/>
  <rect x="5" y="13" width="1" height="8" fill="rgb(255,255,255)" fill-opacity="0.0078125"/>
  <rect x="6" y="0" width="1" height="9" fill="rgb(255,255,255)" fill-opacity="0.0078125"/>
  <rect x="6" y="9" width="1" height="1" fill="rgb(55,55,55)" fill-opacity="0.8125"/>
  <rect x="6" y="10" width="1" height="1" fill="rgb(187,187,187)"/>
  <rect x="6" y="11" width="1" height="1" fill="rgb(136,136,136)"/>
  <rect x="6" y="12" width="1" height="1" fill="rgb(58,58,58)" fill-opacity="0.8125"/>
  <rect x="6" y="13" width="1" height="8" fill="rgb(255,255,255)" fill-opacity="0.0078125"/>
  <rect x="7" y="0" width="1" height="8" fill="rgb(255,255,255)" fill-opacity="0.0078125"/>
  <rect x="7" y="8" width="1" height="1" fill="rgb(53,53,53)" fill-opacity="0.3671875"/>
  <rect x="7" y="9" width="1" height="1" fill="rgb(118,118,118)" fill-opacity="0.96875"/>
  <rect x="7" y="10" width="1" height="1" fill="rgb(242,242,242)"/>
  <rect x="7" y="11" width="1" height="1" fill="rgb(175,175,175)"/>
  <rect x="7" y="12" width="1" height="1" fill="rgb(72,72,72)" fill-opacity="0.9609375"/>
  <rect x="7" y="13" width="1" height="1" fill="rgb(53,53,53)" fill-opacity="0.3671875"/>
  <rect x="7" y="14" width="1" height="7" fill="rgb(255,255,255)" fill-opacity="0.0078125"/>
  <rect x="8" y="0" width="1" height="7" fill="rgb(255,255,255)" fill-opacity="0.0078125"/>
  <rect x="8" y="7" width="1" height="1" fill="rgb(43,43,43)" fill-opacity="0.0546875"/>
  <rect x="8" y="8" width="1" height="1" fill="rgb(58,58,58)" fill-opacity="0.9375"/>
  <rect x="8" y="9" width="1" height="1" fill="rgb(235,235,235)"/>
  <rect x="8" y="10" width="1" height="1" fill="rgb(194,194,194)"/>
  <rect x="8" y="11" width="1" height="1" fill="rgb(180,180,180)"/>
  <rect x="8" y="12" width="1" height="1" fill="rgb(161,161,161)"/>
  <rect x="8" y="13" width="1" height="1" fill="rgb(58,58,58)" fill-opacity="0.9375"/>
  <rect x="8" y="14" width="1" height="1" fill="rgb(43,43,43)" fill-opacity="0.0546875"/>
  <rect x="8" y="15" width="1" height="6" fill="rgb(255,255,255)" fill-opacity="0.0078125"/>
  <rect x="9" y="0" width="1" height="7" fill="rgb(255,255,255)" fill-opacity="0.0078125"/>
  <rect x="9" y="7" width="1" height="1" fill="rgb(55,55,55)" fill-opacity="0.5703125"/>
  <rect x="9" y="8" width="1" height="1" fill="rgb(154,154,154)" fill-opacity="0.984375"/>
  <rect x="9" y="9" width="1" height="1" fill="rgb(224,224,224)"/>
  <rect x="9" y="10" width="1" height="1" fill="rgb(173,173,173)"/>
  <rect x="9" y="11" width="1" height="1" fill="rgb(186,186,186)"/>
  <rect x="9" y="12" width="1" height="1" fill="rgb(199,199,199)"/>
  <rect x="9" y="13" width="1" height="1" fill="rgb(107,107,107)" fill-opacity="0.96875"/>
  <rect x="9" y="14" width="1" height="1" fill="rgb(58,58,58)" fill-opacity="0.5703125"/>
  <rect x="9" y="15" width="1" height="6" fill="rgb(255,255,255)" fill-opacity="0.0078125"/>
  <rect x="10" y="0" width="1" height="6" fill="rgb(255,255,255)" fill-opacity="0.0078125"/>
  <rect x="10" y="6" width="1" height="1" fill="rgb(52,52,52)" fill-opacity="0.15625"/>
  <rect x="10" y="7" width="1" height="1" fill="rgb(68,68,68)" fill-opacity="0.96875"/>
  <rect x="10" y="8" width="1" height="1" fill="rgb(233,233,233)"/>
  <rect x="10" y="9" width="1" height="2" fill="rgb(179,179,179)"/>
  <rect x="10" y="11" width="1" height="1" fill="rgb(192,192,192)"/>
  <rect x="10" y="12" width="1" height="1" fill="rgb(205,205,205)"/>
  <rect x="10" y="13" width="1" height="1" fill="rgb(202,202,202)"/>
  <rect x="10" y="14" width="1" height="1" fill="rgb(59,59,59)" fill-opacity="0.96875"/>
  <rect x="10" y="15" width="1" height="1" fill="rgb(52,52,52)" fill-opacity="0.15625"/>
  <rect x="10" y="16" width="1" height="5" fill="rgb(255,255,255)" fill-opacity="0.0078125"/>
  <rect x="11" y="0" width="1" height="6" fill="rgb(255,255,255)" fill-opacity="0.0078125"/>
  <rect x="11" y="6" width="1" height="1" fill="rgb(56,56,56)" fill-opacity="0.765625"/>
  <rect x="11" y="7" width="1" height="1" fill="rgb(177,177,177)" fill-opacity="0.9921875"/>
  <rect x="11" y="8" width="1" height="1" fill="rgb(202,202,202)"/>
  <rect x="11" y="9" width="1" height="1" fill="rgb(171,171,171)"/>
  <rect x="11" y="10" width="1" height="1" fill="rgb(184,184,184)"/>
  <rect x="11" y="11" width="1" height="1" fill="rgb(198,198,198)"/>
  <rect x="11" y="12" width="1" height="1" fill="rgb(211,211,211)"/>
  <rect x="11" y="13" width="1" height="1" fill="rgb(224,224,224)"/>
  <rect x="11" y="14" width="1" height="1" fill="rgb(153,153,153)" fill-opacity="0.9921875"/>
  <rect x="11" y="15" width="1" height="1" fill="rgb(63,63,63)" fill-opacity="0.765625"/>
  <rect x="11" y="16" width="1" height="5" fill="rgb(255,255,255)" fill-opacity="0.0078125"/>
  <rect x="12" y="0" width="1" height="5" fill="rgb(255,255,255)" fill-opacity="0.0078125"/>
  <rect x="12" y="5" width="1" height="1" fill="rgb(52,52,52)" fill-opacity="0.3125"/>
  <rect x="12" y="6" width="1" height="1" fill="rgb(89,89,89)" fill-opacity="0.96875"/>
  <rect x="12" y="7" width="1" height="1" fill="rgb(221,221,221)"/>
  <rect x="12" y="8" width="1" height="1" fill="rgb(169,169,169)"/>
  <rect x="12" y="9" width="1" height="1" fill="rgb(177,177,177)"/>
  <rect x="12" y="10" width="1" height="1" fill="rgb(190,190,190)"/>
  <rect x="12" y="11" width="1" height="1" fill="rgb(203,203,203)"/>
  <rect x="12" y="12" width="1" height="1" fill="rgb(217,217,217)"/>
  <rect x="12" y="13" width="1" height="1" fill="rgb(230,230,230)"/>
  <rect x="12" y="14" width="1" height="1" fill="rgb(240,240,240)"/>
  <rect x="12" y="15" width="1" height="1" fill="rgb(76,76,76)" fill-opacity="0.9609375"/>
  <rect x="12" y="16" width="1" height="1" fill="rgb(52,52,52)" fill-opacity="0.3125"/>
  <rect x="12" y="17" width="1" height="4" fill="rgb(255,255,255)" fill-opacity="0.0078125"/>
  <rect x="13" y="0" width="1" height="4" fill="rgb(255,255,255)" fill-opacity="0.0078125"/>
  <rect x="13" y="4" width="1" height="1" fill="rgb(64,64,64)" fill-opacity="0.0390625"/>
  <rect x="13" y="5" width="1" height="1" fill="rgb(55,55,55)" fill-opacity="0.9140625"/>
  <rect x="13" y="6" width="1" height="1" fill="rgb(190,190,190)"/>
  <rect x="13" y="7" width="1" height="1" fill="rgb(184,184,184)"/>
  <rect x="13" y="8" width="1" height="1" fill="rgb(170,170,170)"/>
  <rect x="13" y="9" width="1" height="1" fill="rgb(183,183,183)"/>
  <rect x="13" y="10" width="1" height="1" fill="rgb(196,196,196)"/>
  <rect x="13" y="11" width="1" height="1" fill="rgb(209,209,209)"/>
  <rect x="13" y="12" width="1" height="1" fill="rgb(222,222,222)"/>
  <rect x="13" y="13" width="1" height="1" fill="rgb(236,236,236)"/>
  <rect x="13" y="14" width="1" height="1" fill="rgb(249,249,249)"/>
  <rect x="13" y="15" width="1" height="1" fill="rgb(201,201,201)"/>
  <rect x="13" y="16" width="1" height="1" fill="rgb(60,60,60)" fill-opacity="0.9140625"/>
  <rect x="13" y="17" width="1" height="1" fill="rgb(64,64,64)" fill-opacity="0.0390625"/>
  <rect x="13" y="18" width="1" height="3" fill="rgb(255,255,255)" fill-opacity="0.0078125"/>
  <rect x="14" y="0" width="1" height="4" fill="rgb(255,255,255)" fill-opacity="0.0078125"/>
  <rect x="14" y="4" width="1" height="1" fill="rgb(53,53,53)" fill-opacity="0.515625"/>
  <rect x="14" y="5" width="1" height="1" fill="rgb(84,84,84)" fill-opacity="0.9609375"/>
  <rect x="14" y="6" width="1" height="1" fill="rgb(211,211,211)"/>
  <rect x="14" y="7" width="1" height="1" fill="rgb(217,217,217)"/>
  <rect x="14" y="8" width="1" height="1" fill="rgb(220,220,220)"/>
  <rect x="14" y="9" width="1" height="1" fill="rgb(224,224,224)"/>
  <rect x="14" y="10" width="1" height="1" fill="rgb(228,228,228)"/>
  <rect x="14" y="11" width="1" height="1" fill="rgb(234,234,234)"/>
  <rect x="14" y="12" width="1" height="1" fill="rgb(240,240,240)"/>
  <rect x="14" y="13" width="1" height="1" fill="rgb(247,247,247)"/>
  <rect x="14" y="14" width="1" height="2" fill="rgb(255,255,255)"/>
  <rect x="14" y="16" width="1" height="1" fill="rgb(118,118,118)" fill-opacity="0.9609375"/>
  <rect x="14" y="17" width="1" height="1" fill="rgb(58,58,58)" fill-opacity="0.515625"/>
  <rect x="14" y="18" width="1" height="3" fill="rgb(255,255,255)" fill-opacity="0.0078125"/>
  <rect x="15" y="0" width="1" height="4" fill="rgb(255,255,255)" fill-opacity="0.0078125"/>
  <rect x="15" y="4" width="1" height="1" fill="rgb(55,55,55)" fill-opacity="0.8046875"/>
  <rect x="15" y="5" width="1" height="12" fill="rgb(51,51,51)"/>
  <rect x="15" y="17" width="1" height="1" fill="rgb(63,63,63)" fill-opacity="0.8046875"/>
  <rect x="15" y="18" width="1" height="3" fill="rgb(255,255,255)" fill-opacity="0.0078125"/>
  <rect x="16" y="0" width="1" height="21" fill="rgb(255,255,255)" fill-opacity="0.0078125"/>
  <rect x="17" y="0" width="1" height="21" fill="rgb(255,255,255)" fill-opacity="0.0078125"/>
  <rect x="18" y="0" width="1" height="21" fill="rgb(255,255,255)" fill-opacity="0.0078125"/>
  <rect x="19" y="0" width="1" height="21" fill="rgb(255,255,255)" fill-opacity="0.0078125"/>
  <rect x="20" y="0" width="1" height="21" fill="rgb(255,255,255)" fill-opacity="0.0078125"/>
</svg>