<svg xmlns="http://www.w3.org/2000/svg" shape-rendering="crispEdges" width="21" height="21" viewBox="0 0 21 21">
  <rect x="0" y="0" width="1" height="21" fill="rgb(255,255,255)" fill-opacity="0.0078125"/>
  <rect x="1" y="0" width="1" height="21" fill="rgb(255,255,255)" fill-opacity="0.0078125"/>
  <rect x="2" y="0" width="1" height="21" fill="rgb(255,255,255)" fill-opacity="0.0078125"/>
  <rect x="3" y="0" width="1" height="21" fill="rgb(255,255,255)" fill-opacity="0.0078125"/>
  <rect x="4" y="0" width="1" height="21" fill="rgb(255,255,255)" fill-opacity="0.0078125"/>
  <rect x="5" y="0" width="1" height="21" fill="rgb(255,255,255)" fill-opacity="0.0078125"/>
  <rect x="6" y="0" width="1" height="21" fill="rgb(255,255,255)" fill-opacity="0.0078125"/>
  <rect x="7" y="0" width="1" height="21" fill="rgb(255,255,255)" fill-opacity="0.0078125"/>
  <rect x="8" y="0" width="1" height="3" fill="rgb(255,255,255)" fill-opacity="0.0078125"/>
  <rect x="8" y="3" width="1" height="1" fill="rgb(60,60,60)" fill-opacity="0.359375"/>
  <rect x="8" y="4" width="1" height="1" fill="rgb(53,53,53)" fill-opacity="0.78125"/>
  <rect x="8" y="5" width="1" height="1" fill="rgb(33,33,33)" fill-opacity="0.2421875"/>
  <rect x="8" y="6" width="1" height="1" fill="rgb(255,255,255)" fill-opacity="0.0078125"/>
  <rect x="8" y="7" width="1" height="1" fill="rgb(28,28,28)" fill-opacity="0.1484375"/>
  <rect x="8" y="8" width="1" height="1" fill="rgb(49,49,49)" fill-opacity="0.6328125"/>
  <rect x="8" y="9" width="1" height="1" fill="rgb(59,59,59)" fill-opacity="0.8515625"/>
  <rect x="8" y="10" width="1" height="1" fill="rgb(61,61,61)" fill-opacity="0.8515625"/>
  <rect x="8" y="11" width="1" height="1" fill="rgb(62,62,62)" fill-opacity="0.84375"/>
  <rect x="8" y="12" width="1" height="1" fill="rgb(53,53,53)" fill-opacity="0.78125"/>
  <rect x="8" y="13" width="1" height="1" fill="rgb(35,35,35)" fill-opacity="0.265625"/>
  <rect x="8" y="14" width="1" height="1" fill="rgb(255,255,255)" fill-opacity="0.0078125"/>
  <rect x="8" y="15" width="1" height="1" fill="rgb(26,26,26)" fill-opacity="0.1640625"/>
  <rect x="8" y="16" width="1" height="1" fill="rgb(50,50,50)" fill-opacity="0.65625"/>
  <rect x="8" y="17" width="1" height="1" fill="rgb(60,60,60)" fill-opacity="0.8515625"/>
  <rect x="8" y="18" width="1" height="1" fill="rgb(62,62,62)" fill-opacity="0.359375"/>
  <rect x="8" y="19" width="1" height="2" fill="rgb(255,255,255)" fill-opacity="0.0078125"/>
  <rect x="9" y="0" width="1" height="3" fill="rgb(255,255,255)" fill-opacity="0.0078125"/>
  <rect x="9" y="3" width="1" height="1" fill="rgb(231,231,231)" fill-opacity="0.421875"/>
  <rect x="9" y="4" width="1" height="1" fill="rgb(220,220,220)"/>
  <rect x="9" y="5" width="1" height="1" fill="rgb(67,67,67)" fill-opacity="0.9140625"/>
  <rect x="9" y="6" width="1" height="1" fill="rgb(26,26,26)" fill-opacity="0.3046875"/>
  <rect x="9" y="7" width="1" height="1" fill="rgb(62,62,62)" fill-opacity="0.9140625"/>
  <rect x="9" y="8" width="1" height="1" fill="rgb(233,233,233)"/>
  <rect x="9" y="9" width="1" height="2" fill="rgb(244,244,244)"/>
  <rect x="9" y="11" width="1" height="1" fill="rgb(232,232,232)"/>
  <rect x="9" y="12" width="1" height="1" fill="rgb(220,220,220)"/>
  <rect x="9" y="13" width="1" height="1" fill="rgb(69,69,69)" fill-opacity="0.921875"/>
  <rect x="9" y="14" width="1" height="1" fill="rgb(25,25,25)" fill-opacity="0.328125"/>
  <rect x="9" y="15" width="1" height="1" fill="rgb(69,69,69)" fill-opacity="0.9140625"/>
  <rect x="9" y="16" width="1" height="1" fill="rgb(234,234,234)"/>
  <rect x="9" y="17" width="1" height="1" fill="rgb(244,244,244)"/>
  <rect x="9" y="18" width="1" height="1" fill="rgb(243,243,243)" fill-opacity="0.421875"/>
  <rect x="9" y="19" width="1" height="2" fill="rgb(255,255,255)" fill-opacity="0.0078125"/>
  <rect x="10" y="0" width="1" height="3" fill="rgb(255,255,255)" fill-opacity="0.0078125"/>
  <rect x="10" y="3" width="1" height="1" fill="rgb(52,52,52)" fill-opacity="0.390625"/>
  <rect x="10" y="4" width="1" height="1" fill="rgb(95,95,95)"/>
  <rect x="10" y="5" width="1" height="1" fill="rgb(115,115,115)"/>
  <rect x="10" y="6" width="1" height="1" fill="rgb(57,57,57)" fill-opacity="0.9921875"/>
  <rect x="10" y="7" width="1" height="1" fill="rgb(142,142,142)"/>
  <rect x="10" y="8" width="1" height="1" fill="rgb(94,94,94)"/>
  <rect x="10" y="9" width="1" height="1" fill="rgb(52,52,52)" fill-opacity="0.921875"/>
  <rect x="10" y="10" width="1" height="1" fill="rgb(61,61,61)" fill-opacity="0.8515625"/>
  <rect x="10" y="11" width="1" height="1" fill="rgb(53,53,53)" fill-opacity="0.921875"/>
  <rect x="10" y="12" width="1" height="1" fill="rgb(91,91,91)"/>
  <rect x="10" y="13" width="1" height="1" fill="rgb(115,115,115)"/>
  <rect x="10" y="14" width="1" height="1" fill="rgb(58,58,58)" fill-opacity="0.9921875"/>
  <rect x="10" y="15" width="1" height="1" fill="rgb(142,142,142)"/>
  <rect x="10" y="16" width="1" height="1" fill="rgb(90,90,90)"/>
  <rect x="10" y="17" width="1" height="1" fill="rgb(52,52,52)" fill-opacity="0.9296875"/>
  <rect x="10" y="18" width="1" height="1" fill="rgb(62,62,62)" fill-opacity="0.359375"/>
  <rect x="10" y="19" width="1" height="2" fill="rgb(255,255,255)" fill-opacity="0.0078125"/>
  <rect x="11" y="0" width="1" height="3" fill="rgb(255,255,255)" fill-opacity="0.0078125"/>
  <rect x="11" y="3" width="1" height="1" fill="rgb(46,46,46)" fill-opacity="0.375"/>
  <rect x="11" y="4" width="1" height="1" fill="rgb(247,247,247)"/>
  <rect x="11" y="5" width="1" height="3" fill="rgb(255,255,255)"/>
  <rect x="11" y="8" width="1" height="1" fill="rgb(241,241,241)"/>
  <rect x="11" y="9" width="1" height="1" fill="rgb(37,37,37)" fill-opacity="0.859375"/>
  <rect x="11" y="10" width="1" height="1" fill="rgb(0,0,0)" fill-opacity="0.15625"/>
  <rect x="11" y="11" width="1" height="1" fill="rgb(37,37,37)" fill-opacity="0.859375"/>
  <rect x="11" y="12" width="1" height="1" fill="rgb(241,241,241)"/>
  <rect x="11" y="13" width="1" height="3" fill="rgb(255,255,255)"/>
  <rect x="11" y="16" width="1" height="1" fill="rgb(247,247,247)"/>
  <rect x="11" y="17" width="1" height="1" fill="rgb(46,46,46)" fill-opacity="0.8984375"/>
  <rect x="11" y="18" width="1" height="3" fill="rgb(255,255,255)" fill-opacity="0.0078125"/>
  <rect x="12" y="0" width="1" height="3" fill="rgb(255,255,255)" fill-opacity="0.0078125"/>
  <rect x="12" y="3" width="1" height="1" fill="rgb(54,54,54)" fill-opacity="0.390625"/>
  <rect x="12" y="4" width="1" height="1" fill="rgb(92,92,92)"/>
  <rect x="12" y="5" width="1" height="1" fill="rgb(117,117,117)"/>
  <rect x="12" y="6" width="1" height="1" fill="rgb(57,57,57)"/>
  <rect x="12" y="7" width="1" height="1" fill="rgb(118,118,118)"/>
  <rect x="12" y="8" width="1" height="1" fill="rgb(94,94,94)"/>
  <rect x="12" y="9" width="1" height="1" fill="rgb(52,52,52)" fill-opacity="0.921875"/>
  <rect x="12" y="10" width="1" height="1" fill="rgb(61,61,61)" fill-opacity="0.8515625"/>
  <rect x="12" y="11" width="1" height="1" fill="rgb(52,52,52)" fill-opacity="0.921875"/>
  <rect x="12" y="12" width="1" height="1" fill="rgb(91,91,91)" fill-opacity="0.9921875"/>
  <rect x="12" y="13" width="1" height="1" fill="rgb(115,115,115)"/>
  <rect x="12" y="14" width="1" height="1" fill="rgb(58,58,58)" fill-opacity="0.9921875"/>
  <rect x="12" y="15" width="1" height="1" fill="rgb(120,120,120)"/>
  <rect x="12" y="16" width="1" height="1" fill="rgb(92,92,92)"/>
  <rect x="12" y="17" width="1" height="1" fill="rgb(53,53,53)" fill-opacity="0.921875"/>
  <rect x="12" y="18" width="1" height="1" fill="rgb(62,62,62)" fill-opacity="0.359375"/>
  <rect x="12" y="19" width="1" height="2" fill="rgb(255,255,255)" fill-opacity="0.0078125"/>
  <rect x="13" y="0" width="1" height="3" fill="rgb(255,255,255)" fill-opacity="0.0078125"/>
  <rect x="13" y="3" width="1" height="1" fill="rgb(219,219,219)" fill-opacity="0.421875"/>
  <rect x="13" y="4" width="1" height="1" fill="rgb(220,220,220)"/>
  <rect x="13" y="5" width="1" height="1" fill="rgb(64,64,64)" fill-opacity="0.9140625"/>
  <rect x="13" y="6" width="1" height="1" fill="rgb(26,26,26)" fill-opacity="0.3125"/>
  <rect x="13" y="7" width="1" height="1" fill="rgb(62,62,62)" fill-opacity="0.9140625"/>
  <rect x="13" y="8" width="1" height="1" fill="rgb(181,181,181)"/>
  <rect x="13" y="9" width="1" height="4" fill="rgb(220,220,220)"/>
  <rect x="13" y="13" width="1" height="1" fill="rgb(64,64,64)" fill-opacity="0.921875"/>
  <rect x="13" y="14" width="1" height="1" fill="rgb(24,24,24)" fill-opacity="0.3359375"/>
  <rect x="13" y="15" width="1" height="1" fill="rgb(69,69,69)" fill-opacity="0.9140625"/>
  <rect x="13" y="16" width="1" height="1" fill="rgb(187,187,187)"/>
  <rect x="13" y="17" width="1" height="1" fill="rgb(220,220,220)"/>
  <rect x="13" y="18" width="1" height="1" fill="rgb(219,219,219)" fill-opacity="0.421875"/>
  <rect x="13" y="19" width="1" height="2" fill="rgb(255,255,255)" fill-opacity="0.0078125"/>
  <rect x="14" y="0" width="1" height="3" fill="rgb(255,255,255)" fill-opacity="0.0078125"/>
  <rect x="14" y="3" width="1" height="1" fill="rgb(60,60,60)" fill-opacity="0.359375"/>
  <rect x="14" y="4" width="1" height="1" fill="rgb(50,50,50)" fill-opacity="0.625"/>
  <rect x="14" y="5" width="1" height="1" fill="rgb(24,24,24)" fill-opacity="0.1328125"/>
  <rect x="14" y="6" width="1" height="1" fill="rgb(255,255,255)" fill-opacity="0.0078125"/>
  <rect x="14" y="7" width="1" height="1" fill="rgb(28,28,28)" fill-opacity="0.1484375"/>
  <rect x="14" y="8" width="1" height="1" fill="rgb(49,49,49)" fill-opacity="0.6328125"/>
  <rect x="14" y="9" width="1" height="1" fill="rgb(59,59,59)" fill-opacity="0.8515625"/>
  <rect x="14" y="10" width="1" height="1" fill="rgb(61,61,61)" fill-opacity="0.8515625"/>
  <rect x="14" y="11" width="1" height="1" fill="rgb(60,60,60)" fill-opacity="0.84375"/>
  <rect x="14" y="12" width="1" height="1" fill="rgb(53,53,53)" fill-opacity="0.6328125"/>
  <rect x="14" y="13" width="1" height="1" fill="rgb(23,23,23)" fill-opacity="0.140625"/>
  <rect x="14" y="14" width="1" height="1" fill="rgb(255,255,255)" fill-opacity="0.0078125"/>
  <rect x="14" y="15" width="1" height="1" fill="rgb(26,26,26)" fill-opacity="0.1640625"/>
  <rect x="14" y="16" width="1" height="1" fill="rgb(50,50,50)" fill-opacity="0.65625"/>
  <rect x="14" y="17" width="1" height="1" fill="rgb(60,60,60)" fill-opacity="0.8515625"/>
  <rect x="14" y="18" width="1" height="1" fill="rgb(62,62,62)" fill-opacity="0.359375"/>
  <rect x="14" y="19" width="1" height="2" fill="rgb(255,255,255)" fill-opacity="0.0078125"/>
  <rect x="15" y="0" width="1" height="21" fill="rgb(255,255,255)" fill-opacity="0.0078125"/>
  <rect x="16" y="0" width="1" height="21" fill="rgb(255,255,255)" fill-opacity="0.0078125"/>
  <rect x="17" y="0" width="1" height="21" fill="rgb(255,255,255)" fill-opacity="0.0078125"/>
  <rect x="18" y="0" width="1" height="21" fill="rgb(255,255,255)" fill-opacity="0.0078125"/>
  <rect x="19" y="0" width="1" height="21" fill="rgb(255,255,255)" fill-opacity="0.0078125"/>
  <rect x="20" y="0" width="1" height="21" fill="rgb(255,255,255)" fill-opacity="0.0078125"/>
</svg>