<svg xmlns="http://www.w3.org/2000/svg" shape-rendering="crispEdges" width="21" height="21" viewBox="0 0 21 21">
  <rect x="0" y="0" width="21" height="1" fill="rgb(255,255,255)" fill-opacity="0.0078125"/>
  <rect x="0" y="1" width="21" height="1" fill="rgb(255,255,255)" fill-opacity="0.0078125"/>
  <rect x="0" y="2" width="21" height="1" fill="rgb(255,255,255)" fill-opacity="0.0078125"/>
  <rect x="0" y="3" width="21" height="1" fill="rgb(255,255,255)" fill-opacity="0.0078125"/>
  <rect x="0" y="4" width="8" height="1" fill="rgb(255,255,255)" fill-opacity="0.0078125"/>
  <rect x="8" y="4" width="1" height="1" fill="rgb(27,27,27)" fill-opacity="0.1171875"/>
  <rect x="9" y="4" width="1" height="1" fill="rgb(43,43,43)" fill-opacity="0.234375"/>
  <rect x="10" y="4" width="2" height="1" fill="rgb(53,53,53)" fill-opacity="0.34375"/>
  <rect x="12" y="4" width="1" height="1" fill="rgb(43,43,43)" fill-opacity="0.234375"/>
  <rect x="13" y="4" width="1" height="1" fill="rgb(27,27,27)" fill-opacity="0.1171875"/>
  <rect x="14" y="4" width="7" height="1" fill="rgb(255,255,255)" fill-opacity="0.0078125"/>
  <rect x="0" y="5" width="6" height="1" fill="rgb(255,255,255)" fill-opacity="0.0078125"/>
  <rect x="6" y="5" width="1" height="1" fill="rgb(23,23,23)" fill-opacity="0.046875"/>
  <rect x="7" y="5" width="1" height="1" fill="rgb(50,50,50)" fill-opacity="0.34375"/>
  <rect x="8" y="5" width="1" height="1" fill="rgb(165,165,165)" fill-opacity="0.4375"/>
  <rect x="9" y="5" width="1" height="1" fill="rgb(231,231,231)" fill-opacity="0.453125"/>
  <rect x="10" y="5" width="2" height="1" fill="rgb(253,253,253)" fill-opacity="0.453125"/>
  <rect x="12" y="5" width="1" height="1" fill="rgb(231,231,231)" fill-opacity="0.453125"/>
  <rect x="13" y="5" width="1" height="1" fill="rgb(167,167,167)" fill-opacity="0.4375"/>
  <rect x="14" y="5" width="1" height="1" fill="rgb(50,50,50)" fill-opacity="0.34375"/>
  <rect x="15" y="5" width="1" height="1" fill="rgb(23,23,23)" fill-opacity="0.046875"/>
  <rect x="16" y="5" width="5" height="1" fill="rgb(255,255,255)" fill-opacity="0.0078125"/>
  <rect x="0" y="6" width="5" height="1" fill="rgb(255,255,255)" fill-opacity="0.0078125"/>
  <rect x="5" y="6" width="1" height="1" fill="rgb(17,17,17)" fill-opacity="0.0625"/>
  <rect x="6" y="6" width="1" height="1" fill="rgb(70,70,70)" fill-opacity="0.421875"/>
  <rect x="7" y="6" width="1" height="1" fill="rgb(239,239,239)" fill-opacity="0.453125"/>
  <rect x="8" y="6" width="3" height="1" fill="rgb(255,255,255)" fill-opacity="0.453125"/>
  <rect x="11" y="6" width="1" height="1" fill="rgb(248,248,248)" fill-opacity="0.453125"/>
  <rect x="12" y="6" width="1" height="1" fill="rgb(242,242,242)" fill-opacity="0.453125"/>
  <rect x="13" y="6" width="1" height="1" fill="rgb(246,246,246)" fill-opacity="0.453125"/>
  <rect x="14" y="6" width="1" height="1" fill="rgb(228,228,228)" fill-opacity="0.453125"/>
  <rect x="15" y="6" width="1" height="1" fill="rgb(67,67,67)" fill-opacity="0.421875"/>
  <rect x="16" y="6" width="1" height="1" fill="rgb(17,17,17)" fill-opacity="0.0625"/>
  <rect x="17" y="6" width="4" height="1" fill="rgb(255,255,255)" fill-opacity="0.0078125"/>
  <rect x="0" y="7" width="5" height="1" fill="rgb(255,255,255)" fill-opacity="0.0078125"/>
  <rect x="5" y="7" width="1" height="1" fill="rgb(47,47,47)" fill-opacity="0.3671875"/>
  <rect x="6" y="7" width="1" height="1" fill="rgb(239,239,239)" fill-opacity="0.453125"/>
  <rect x="7" y="7" width="3" height="1" fill="rgb(255,255,255)" fill-opacity="0.453125"/>
  <rect x="10" y="7" width="1" height="1" fill="rgb(246,246,246)" fill-opacity="0.453125"/>
  <rect x="11" y="7" width="1" height="1" fill="rgb(233,233,233)" fill-opacity="0.453125"/>
  <rect x="12" y="7" width="1" height="1" fill="rgb(173,179,185)" fill-opacity="0.515625"/>
  <rect x="13" y="7" width="1" height="1" fill="rgb(78,93,116)" fill-opacity="0.8046875"/>
  <rect x="14" y="7" width="1" height="1" fill="rgb(45,63,91)" fill-opacity="0.9453125"/>
  <rect x="15" y="7" width="1" height="1" fill="rgb(43,60,90)" fill-opacity="0.9140625"/>
  <rect x="16" y="7" width="1" height="1" fill="rgb(27,42,66)" fill-opacity="0.703125"/>
  <rect x="17" y="7" width="4" height="1" fill="rgb(255,255,255)" fill-opacity="0.0078125"/>
  <rect x="0" y="8" width="4" height="1" fill="rgb(255,255,255)" fill-opacity="0.0078125"/>
  <rect x="4" y="8" width="1" height="1" fill="rgb(26,35,48)" fill-opacity="0.234375"/>
  <rect x="5" y="8" width="1" height="1" fill="rgb(60,78,108)" fill-opacity="0.7578125"/>
  <rect x="6" y="8" width="1" height="1" fill="rgb(85,106,135)" fill-opacity="0.7890625"/>
  <rect x="7" y="8" width="1" height="1" fill="rgb(93,109,137)" fill-opacity="0.765625"/>
  <rect x="8" y="8" width="1" height="1" fill="rgb(138,149,167)" fill-opacity="0.625"/>
  <rect x="9" y="8" width="1" height="1" fill="rgb(202,206,212)" fill-opacity="0.5078125"/>
  <rect x="10" y="8" width="1" height="1" fill="rgb(233,233,233)" fill-opacity="0.453125"/>
  <rect x="11" y="8" width="1" height="1" fill="rgb(111,122,141)" fill-opacity="0.671875"/>
  <rect x="12" y="8" width="1" height="1" fill="rgb(52,71,100)" fill-opacity="0.9609375"/>
  <rect x="13" y="8" width="1" height="1" fill="rgb(135,154,183)"/>
  <rect x="14" y="8" width="1" height="1" fill="rgb(166,190,226)"/>
  <rect x="15" y="8" width="1" height="1" fill="rgb(193,210,235)"/>
  <rect x="16" y="8" width="1" height="1" fill="rgb(41,60,88)" fill-opacity="0.890625"/>
  <rect x="17" y="8" width="1" height="1" fill="rgb(24,38,60)" fill-opacity="0.375"/>
  <rect x="18" y="8" width="3" height="1" fill="rgb(255,255,255)" fill-opacity="0.0078125"/>
  <rect x="0" y="9" width="4" height="1" fill="rgb(255,255,255)" fill-opacity="0.0078125"/>
  <rect x="4" y="9" width="1" height="1" fill="rgb(37,54,84)" fill-opacity="0.7578125"/>
  <rect x="5" y="9" width="1" height="1" fill="rgb(174,193,219)" fill-opacity="0.921875"/>
  <rect x="6" y="9" width="1" height="1" fill="rgb(177,199,229)" fill-opacity="0.921875"/>
  <rect x="7" y="9" width="1" height="1" fill="rgb(163,187,221)" fill-opacity="0.8984375"/>
  <rect x="8" y="9" width="1" height="1" fill="rgb(137,160,193)" fill-opacity="0.859375"/>
  <rect x="9" y="9" width="1" height="1" fill="rgb(100,116,146)" fill-opacity="0.8125"/>
  <rect x="10" y="9" width="1" height="1" fill="rgb(57,75,102)" fill-opacity="0.921875"/>
  <rect x="11" y="9" width="1" height="1" fill="rgb(91,108,133)" fill-opacity="0.9765625"/>
  <rect x="12" y="9" width="1" height="1" fill="rgb(184,202,228)"/>
  <rect x="13" y="9" width="1" height="1" fill="rgb(168,192,228)"/>
  <rect x="14" y="9" width="1" height="1" fill="rgb(145,176,220)"/>
  <rect x="15" y="9" width="1" height="1" fill="rgb(147,176,220)"/>
  <rect x="16" y="9" width="1" height="1" fill="rgb(128,151,187)" fill-opacity="0.9921875"/>
  <rect x="17" y="9" width="1" height="1" fill="rgb(34,52,80)" fill-opacity="0.734375"/>
  <rect x="18" y="9" width="3" height="1" fill="rgb(255,255,255)" fill-opacity="0.0078125"/>
  <rect x="0" y="10" width="4" height="1" fill="rgb(255,255,255)" fill-opacity="0.0078125"/>
  <rect x="4" y="10" width="1" height="1" fill="rgb(39,58,87)" fill-opacity="0.96875"/>
  <rect x="5" y="10" width="1" height="1" fill="rgb(237,241,248)" fill-opacity="0.984375"/>
  <rect x="6" y="10" width="1" height="1" fill="rgb(83,123,181)" fill-opacity="0.8671875"/>
  <rect x="7" y="10" width="1" height="1" fill="rgb(113,152,207)" fill-opacity="0.8359375"/>
  <rect x="8" y="10" width="1" height="1" fill="rgb(118,144,183)" fill-opacity="0.875"/>
  <rect x="9" y="10" width="1" height="1" fill="rgb(60,79,110)" fill-opacity="0.9765625"/>
  <rect x="10" y="10" width="1" height="1" fill="rgb(157,171,194)" fill-opacity="0.9921875"/>
  <rect x="11" y="10" width="1" height="1" fill="rgb(192,209,236)"/>
  <rect x="12" y="10" width="1" height="1" fill="rgb(169,193,228)"/>
  <rect x="13" y="10" width="1" height="1" fill="rgb(146,176,220)"/>
  <rect x="14" y="10" width="1" height="1" fill="rgb(124,160,212)"/>
  <rect x="15" y="10" width="1" height="1" fill="rgb(111,151,208)"/>
  <rect x="16" y="10" width="1" height="1" fill="rgb(149,177,218)"/>
  <rect x="17" y="10" width="1" height="1" fill="rgb(26,48,84)" fill-opacity="0.9609375"/>
  <rect x="18" y="10" width="3" height="1" fill="rgb(255,255,255)" fill-opacity="0.0078125"/>
  <rect x="0" y="11" width="4" height="1" fill="rgb(255,255,255)" fill-opacity="0.0078125"/>
  <rect x="4" y="11" width="1" height="1" fill="rgb(39,57,87)" fill-opacity="0.96875"/>
  <rect x="5" y="11" width="1" height="1" fill="rgb(250,250,252)"/>
  <rect x="6" y="11" width="1" height="1" fill="rgb(102,118,143)" fill-opacity="0.9921875"/>
  <rect x="7" y="11" width="1" height="1" fill="rgb(66,83,114)" fill-opacity="0.984375"/>
  <rect x="8" y="11" width="1" height="1" fill="rgb(98,113,138)" fill-opacity="0.9921875"/>
  <rect x="9" y="11" width="1" height="1" fill="rgb(198,210,227)"/>
  <rect x="10" y="11" width="1" height="1" fill="rgb(192,210,236)"/>
  <rect x="11" y="11" width="1" height="1" fill="rgb(170,193,228)"/>
  <rect x="12" y="11" width="1" height="1" fill="rgb(147,177,220)"/>
  <rect x="13" y="11" width="1" height="1" fill="rgb(124,161,213)"/>
  <rect x="14" y="11" width="1" height="1" fill="rgb(102,144,205)"/>
  <rect x="15" y="11" width="1" height="1" fill="rgb(89,135,200)"/>
  <rect x="16" y="11" width="1" height="1" fill="rgb(130,163,212)"/>
  <rect x="17" y="11" width="1" height="1" fill="rgb(24,47,82)" fill-opacity="0.9609375"/>
  <rect x="18" y="11" width="3" height="1" fill="rgb(255,255,255)" fill-opacity="0.0078125"/>
  <rect x="0" y="12" width="4" height="1" fill="rgb(255,255,255)" fill-opacity="0.0078125"/>
  <rect x="4" y="12" width="1" height="1" fill="rgb(41,61,88)" fill-opacity="0.875"/>
  <rect x="5" y="12" width="1" height="1" fill="rgb(233,236,240)"/>
  <rect x="6" y="12" width="1" height="1" fill="rgb(250,252,255)"/>
  <rect x="7" y="12" width="1" height="1" fill="rgb(238,243,251)"/>
  <rect x="8" y="12" width="1" height="1" fill="rgb(216,227,244)"/>
  <rect x="9" y="12" width="1" height="1" fill="rgb(193,211,236)"/>
  <rect x="10" y="12" width="1" height="1" fill="rgb(171,194,228)"/>
  <rect x="11" y="12" width="1" height="1" fill="rgb(148,178,221)"/>
  <rect x="12" y="12" width="1" height="1" fill="rgb(125,161,213)"/>
  <rect x="13" y="12" width="1" height="1" fill="rgb(103,145,205)"/>
  <rect x="14" y="12" width="1" height="1" fill="rgb(80,128,198)"/>
  <rect x="15" y="12" width="1" height="1" fill="rgb(85,132,199)"/>
  <rect x="16" y="12" width="1" height="1" fill="rgb(90,129,185)"/>
  <rect x="17" y="12" width="1" height="1" fill="rgb(27,50,83)" fill-opacity="0.8828125"/>
  <rect x="18" y="12" width="3" height="1" fill="rgb(255,255,255)" fill-opacity="0.0078125"/>
  <rect x="0" y="13" width="4" height="1" fill="rgb(255,255,255)" fill-opacity="0.0078125"/>
  <rect x="4" y="13" width="1" height="1" fill="rgb(32,47,71)" fill-opacity="0.5390625"/>
  <rect x="5" y="13" width="1" height="1" fill="rgb(170,179,192)" fill-opacity="0.9921875"/>
  <rect x="6" y="13" width="1" height="1" fill="rgb(248,250,254)"/>
  <rect x="7" y="13" width="1" height="1" fill="rgb(217,228,244)"/>
  <rect x="8" y="13" width="1" height="1" fill="rgb(194,211,236)"/>
  <rect x="9" y="13" width="1" height="1" fill="rgb(171,195,229)"/>
  <rect x="10" y="13" width="1" height="1" fill="rgb(149,178,221)"/>
  <rect x="11" y="13" width="1" height="1" fill="rgb(126,162,213)"/>
  <rect x="12" y="13" width="1" height="1" fill="rgb(104,145,206)"/>
  <rect x="13" y="13" width="1" height="1" fill="rgb(81,129,198)"/>
  <rect x="14" y="13" width="1" height="1" fill="rgb(58,113,190)"/>
  <rect x="15" y="13" width="1" height="1" fill="rgb(97,140,203)"/>
  <rect x="16" y="13" width="1" height="1" fill="rgb(60,94,142)" fill-opacity="0.9921875"/>
  <rect x="17" y="13" width="1" height="1" fill="rgb(22,38,67)" fill-opacity="0.5546875"/>
  <rect x="18" y="13" width="3" height="1" fill="rgb(255,255,255)" fill-opacity="0.0078125"/>
  <rect x="0" y="14" width="4" height="1" fill="rgb(255,255,255)" fill-opacity="0.0078125"/>
  <rect x="4" y="14" width="1" height="1" fill="rgb(0,43,43)" fill-opacity="0.03125"/>
  <rect x="5" y="14" width="1" height="1" fill="rgb(39,58,87)" fill-opacity="0.953125"/>
  <rect x="6" y="14" width="1" height="1" fill="rgb(223,228,237)"/>
  <rect x="7" y="14" width="1" height="1" fill="rgb(216,227,243)"/>
  <rect x="8" y="14" width="1" height="1" fill="rgb(172,195,229)"/>
  <rect x="9" y="14" width="1" height="1" fill="rgb(150,179,221)"/>
  <rect x="10" y="14" width="1" height="1" fill="rgb(127,162,214)"/>
  <rect x="11" y="14" width="1" height="1" fill="rgb(104,146,206)"/>
  <rect x="12" y="14" width="1" height="1" fill="rgb(82,130,198)"/>
  <rect x="13" y="14" width="1" height="1" fill="rgb(60,114,191)"/>
  <rect x="14" y="14" width="1" height="1" fill="rgb(79,127,197)"/>
  <rect x="15" y="14" width="1" height="1" fill="rgb(89,128,185)"/>
  <rect x="16" y="14" width="1" height="1" fill="rgb(23,46,80)" fill-opacity="0.9609375"/>
  <rect x="17" y="14" width="1" height="1" fill="rgb(0,43,43)" fill-opacity="0.03125"/>
  <rect x="18" y="14" width="3" height="1" fill="rgb(255,255,255)" fill-opacity="0.0078125"/>
  <rect x="0" y="15" width="5" height="1" fill="rgb(255,255,255)" fill-opacity="0.0078125"/>
  <rect x="5" y="15" width="1" height="1" fill="rgb(22,36,58)" fill-opacity="0.28125"/>
  <rect x="6" y="15" width="1" height="1" fill="rgb(57,75,105)" fill-opacity="0.984375"/>
  <rect x="7" y="15" width="1" height="1" fill="rgb(199,210,228)"/>
  <rect x="8" y="15" width="1" height="1" fill="rgb(196,212,236)"/>
  <rect x="9" y="15" width="1" height="1" fill="rgb(147,177,220)"/>
  <rect x="10" y="15" width="1" height="1" fill="rgb(112,152,208)"/>
  <rect x="11" y="15" width="1" height="1" fill="rgb(90,135,200)"/>
  <rect x="12" y="15" width="1" height="1" fill="rgb(84,131,199)"/>
  <rect x="13" y="15" width="1" height="1" fill="rgb(98,141,203)"/>
  <rect x="14" y="15" width="1" height="1" fill="rgb(88,129,188)"/>
  <rect x="15" y="15" width="1" height="1" fill="rgb(31,54,91)" fill-opacity="0.984375"/>
  <rect x="16" y="15" width="1" height="1" fill="rgb(20,37,60)" fill-opacity="0.3046875"/>
  <rect x="17" y="15" width="4" height="1" fill="rgb(255,255,255)" fill-opacity="0.0078125"/>
  <rect x="0" y="16" width="6" height="1" fill="rgb(255,255,255)" fill-opacity="0.0078125"/>
  <rect x="6" y="16" width="1" height="1" fill="rgb(23,39,62)" fill-opacity="0.265625"/>
  <rect x="7" y="16" width="1" height="1" fill="rgb(33,52,85)" fill-opacity="0.9609375"/>
  <rect x="8" y="16" width="1" height="1" fill="rgb(115,136,167)" fill-opacity="0.9921875"/>
  <rect x="9" y="16" width="1" height="1" fill="rgb(146,170,205)"/>
  <rect x="10" y="16" width="1" height="1" fill="rgb(153,181,220)"/>
  <rect x="11" y="16" width="1" height="1" fill="rgb(133,165,212)"/>
  <rect x="12" y="16" width="1" height="1" fill="rgb(92,130,184)"/>
  <rect x="13" y="16" width="1" height="1" fill="rgb(61,95,145)" fill-opacity="0.9921875"/>
  <rect x="14" y="16" width="1" height="1" fill="rgb(23,47,82)" fill-opacity="0.9609375"/>
  <rect x="15" y="16" width="1" height="1" fill="rgb(22,37,59)" fill-opacity="0.2734375"/>
  <rect x="16" y="16" width="5" height="1" fill="rgb(255,255,255)" fill-opacity="0.0078125"/>
  <rect x="0" y="17" width="7" height="1" fill="rgb(255,255,255)" fill-opacity="0.0078125"/>
  <rect x="7" y="17" width="1" height="1" fill="rgb(0,36,36)" fill-opacity="0.03125"/>
  <rect x="8" y="17" width="1" height="1" fill="rgb(25,40,69)" fill-opacity="0.5703125"/>
  <rect x="9" y="17" width="1" height="1" fill="rgb(29,50,83)" fill-opacity="0.8671875"/>
  <rect x="10" y="17" width="1" height="1" fill="rgb(25,47,83)" fill-opacity="0.96875"/>
  <rect x="11" y="17" width="1" height="1" fill="rgb(24,46,83)" fill-opacity="0.96875"/>
  <rect x="12" y="17" width="1" height="1" fill="rgb(28,48,83)" fill-opacity="0.8671875"/>
  <rect x="13" y="17" width="1" height="1" fill="rgb(22,40,67)" fill-opacity="0.5859375"/>
  <rect x="14" y="17" width="1" height="1" fill="rgb(0,57,57)" fill-opacity="0.0390625"/>
  <rect x="15" y="17" width="6" height="1" fill="rgb(255,255,255)" fill-opacity="0.0078125"/>
  <rect x="0" y="18" width="21" height="1" fill="rgb(255,255,255)" fill-opacity="0.0078125"/>
  <rect x="0" y="19" width="21" height="1" fill="rgb(255,255,255)" fill-opacity="0.0078125"/>
  <rect x="0" y="20" width="21" height="1" fill="rgb(255,255,255)" fill-opacity="0.0078125"/>
</svg>