<svg xmlns="http://www.w3.org/2000/svg" shape-rendering="crispEdges" width="21" height="21" viewBox="0 0 21 21">
  <rect x="0" y="0" width="21" height="1" fill="rgb(255,255,255)" fill-opacity="0.0078125"/>
  <rect x="0" y="1" width="21" height="1" fill="rgb(255,255,255)" fill-opacity="0.0078125"/>
  <rect x="0" y="2" width="21" height="1" fill="rgb(255,255,255)" fill-opacity="0.0078125"/>
  <rect x="0" y="3" width="3" height="1" fill="rgb(255,255,255)" fill-opacity="0.0078125"/>
  <rect x="3" y="3" width="1" height="1" fill="rgb(170,170,170)" fill-opacity="0.015625"/>
  <rect x="4" y="3" width="1" height="1" fill="rgb(242,198,13)" fill-opacity="0.1640625"/>
  <rect x="5" y="3" width="1" height="1" fill="rgb(246,197,3)" fill-opacity="0.3515625"/>
  <rect x="6" y="3" width="1" height="1" fill="rgb(248,199,2)" fill-opacity="0.4140625"/>
  <rect x="7" y="3" width="1" height="1" fill="rgb(246,197,3)" fill-opacity="0.3515625"/>
  <rect x="8" y="3" width="1" height="1" fill="rgb(242,198,13)" fill-opacity="0.1640625"/>
  <rect x="9" y="3" width="10" height="1" fill="rgb(170,170,170)" fill-opacity="0.015625"/>
  <rect x="19" y="3" width="2" height="1" fill="rgb(255,255,255)" fill-opacity="0.0078125"/>
  <rect x="0" y="4" width="3" height="1" fill="rgb(255,255,255)" fill-opacity="0.0078125"/>
  <rect x="3" y="4" width="1" height="1" fill="rgb(242,198,13)" fill-opacity="0.1640625"/>
  <rect x="4" y="4" width="1" height="1" fill="rgb(243,194,2)" fill-opacity="0.4921875"/>
  <rect x="5" y="4" width="1" height="1" fill="rgb(232,186,0)" fill-opacity="0.7890625"/>
  <rect x="6" y="4" width="1" height="1" fill="rgb(243,222,136)" fill-opacity="0.9453125"/>
  <rect x="7" y="4" width="1" height="1" fill="rgb(232,186,0)" fill-opacity="0.7890625"/>
  <rect x="8" y="4" width="1" height="1" fill="rgb(243,194,2)" fill-opacity="0.4921875"/>
  <rect x="9" y="4" width="1" height="1" fill="rgb(242,198,13)" fill-opacity="0.1640625"/>
  <rect x="10" y="4" width="9" height="1" fill="rgb(170,170,170)" fill-opacity="0.015625"/>
  <rect x="19" y="4" width="2" height="1" fill="rgb(255,255,255)" fill-opacity="0.0078125"/>
  <rect x="0" y="5" width="3" height="1" fill="rgb(255,255,255)" fill-opacity="0.0078125"/>
  <rect x="3" y="5" width="1" height="1" fill="rgb(246,197,3)" fill-opacity="0.3515625"/>
  <rect x="4" y="5" width="1" height="1" fill="rgb(232,186,0)" fill-opacity="0.7890625"/>
  <rect x="5" y="5" width="1" height="1" fill="rgb(170,136,0)"/>
  <rect x="6" y="5" width="1" height="1" fill="rgb(255,255,255)"/>
  <rect x="7" y="5" width="1" height="1" fill="rgb(170,136,0)"/>
  <rect x="8" y="5" width="1" height="1" fill="rgb(232,186,0)" fill-opacity="0.7890625"/>
  <rect x="9" y="5" width="1" height="1" fill="rgb(246,197,3)" fill-opacity="0.3515625"/>
  <rect x="10" y="5" width="9" height="1" fill="rgb(170,170,170)" fill-opacity="0.015625"/>
  <rect x="19" y="5" width="2" height="1" fill="rgb(255,255,255)" fill-opacity="0.0078125"/>
  <rect x="0" y="6" width="3" height="1" fill="rgb(255,255,255)" fill-opacity="0.0078125"/>
  <rect x="3" y="6" width="1" height="1" fill="rgb(248,199,2)" fill-opacity="0.4140625"/>
  <rect x="4" y="6" width="1" height="1" fill="rgb(243,222,136)" fill-opacity="0.9453125"/>
  <rect x="5" y="6" width="3" height="1" fill="rgb(255,255,255)"/>
  <rect x="8" y="6" width="1" height="1" fill="rgb(237,216,132)" fill-opacity="0.9765625"/>
  <rect x="9" y="6" width="1" height="1" fill="rgb(248,199,2)" fill-opacity="0.4140625"/>
  <rect x="10" y="6" width="9" height="1" fill="rgb(170,170,170)" fill-opacity="0.015625"/>
  <rect x="19" y="6" width="2" height="1" fill="rgb(255,255,255)" fill-opacity="0.0078125"/>
  <rect x="0" y="7" width="3" height="1" fill="rgb(255,255,255)" fill-opacity="0.0078125"/>
  <rect x="3" y="7" width="1" height="1" fill="rgb(246,197,3)" fill-opacity="0.3515625"/>
  <rect x="4" y="7" width="1" height="1" fill="rgb(232,186,0)" fill-opacity="0.7890625"/>
  <rect x="5" y="7" width="1" height="1" fill="rgb(170,136,0)"/>
  <rect x="6" y="7" width="1" height="1" fill="rgb(255,255,255)"/>
  <rect x="7" y="7" width="1" height="1" fill="rgb(170,136,0)"/>
  <rect x="8" y="7" width="1" height="1" fill="rgb(209,169,8)" fill-opacity="0.9375"/>
  <rect x="9" y="7" width="1" height="1" fill="rgb(145,120,19)" fill-opacity="0.796875"/>
  <rect x="10" y="7" width="1" height="1" fill="rgb(70,64,35)" fill-opacity="0.6875"/>
  <rect x="11" y="7" width="2" height="1" fill="rgb(71,63,37)" fill-opacity="0.6796875"/>
  <rect x="13" y="7" width="1" height="1" fill="rgb(69,63,37)" fill-opacity="0.6796875"/>
  <rect x="14" y="7" width="1" height="1" fill="rgb(71,64,37)" fill-opacity="0.6796875"/>
  <rect x="15" y="7" width="1" height="1" fill="rgb(68,61,34)" fill-opacity="0.59375"/>
  <rect x="16" y="7" width="3" height="1" fill="rgb(170,170,170)" fill-opacity="0.015625"/>
  <rect x="19" y="7" width="2" height="1" fill="rgb(255,255,255)" fill-opacity="0.0078125"/>
  <rect x="0" y="8" width="3" height="1" fill="rgb(255,255,255)" fill-opacity="0.0078125"/>
  <rect x="3" y="8" width="1" height="1" fill="rgb(242,198,13)" fill-opacity="0.1640625"/>
  <rect x="4" y="8" width="1" height="1" fill="rgb(243,194,2)" fill-opacity="0.4921875"/>
  <rect x="5" y="8" width="1" height="1" fill="rgb(208,167,5)" fill-opacity="0.9296875"/>
  <rect x="6" y="8" width="1" height="1" fill="rgb(243,221,138)" fill-opacity="0.984375"/>
  <rect x="7" y="8" width="1" height="1" fill="rgb(231,192,33)" fill-opacity="0.9453125"/>
  <rect x="8" y="8" width="1" height="1" fill="rgb(232,202,85)" fill-opacity="0.875"/>
  <rect x="9" y="8" width="1" height="1" fill="rgb(221,207,154)" fill-opacity="0.7890625"/>
  <rect x="10" y="8" width="1" height="1" fill="rgb(214,210,187)" fill-opacity="0.7578125"/>
  <rect x="11" y="8" width="1" height="1" fill="rgb(214,209,186)" fill-opacity="0.7578125"/>
  <rect x="12" y="8" width="1" height="1" fill="rgb(213,207,186)" fill-opacity="0.7578125"/>
  <rect x="13" y="8" width="1" height="1" fill="rgb(211,206,186)" fill-opacity="0.7578125"/>
  <rect x="14" y="8" width="1" height="1" fill="rgb(203,198,174)" fill-opacity="0.7578125"/>
  <rect x="15" y="8" width="1" height="1" fill="rgb(68,60,34)" fill-opacity="0.6875"/>
  <rect x="16" y="8" width="3" height="1" fill="rgb(170,170,170)" fill-opacity="0.015625"/>
  <rect x="19" y="8" width="2" height="1" fill="rgb(255,255,255)" fill-opacity="0.0078125"/>
  <rect x="0" y="9" width="3" height="1" fill="rgb(255,255,255)" fill-opacity="0.0078125"/>
  <rect x="3" y="9" width="1" height="1" fill="rgb(170,170,170)" fill-opacity="0.015625"/>
  <rect x="4" y="9" width="1" height="1" fill="rgb(242,198,13)" fill-opacity="0.1640625"/>
  <rect x="5" y="9" width="1" height="1" fill="rgb(145,119,20)" fill-opacity="0.796875"/>
  <rect x="6" y="9" width="1" height="1" fill="rgb(229,202,98)" fill-opacity="0.8515625"/>
  <rect x="7" y="9" width="1" height="1" fill="rgb(201,174,69)" fill-opacity="0.8359375"/>
  <rect x="8" y="9" width="1" height="1" fill="rgb(181,164,93)" fill-opacity="0.7890625"/>
  <rect x="9" y="9" width="1" height="1" fill="rgb(166,154,113)" fill-opacity="0.7578125"/>
  <rect x="10" y="9" width="1" height="1" fill="rgb(163,153,110)" fill-opacity="0.7578125"/>
  <rect x="11" y="9" width="1" height="1" fill="rgb(162,150,110)" fill-opacity="0.7578125"/>
  <rect x="12" y="9" width="1" height="1" fill="rgb(159,150,108)" fill-opacity="0.7578125"/>
  <rect x="13" y="9" width="1" height="1" fill="rgb(158,146,106)" fill-opacity="0.7578125"/>
  <rect x="14" y="9" width="1" height="1" fill="rgb(155,146,105)" fill-opacity="0.7578125"/>
  <rect x="15" y="9" width="1" height="1" fill="rgb(67,60,34)" fill-opacity="0.6875"/>
  <rect x="16" y="9" width="3" height="1" fill="rgb(170,170,170)" fill-opacity="0.015625"/>
  <rect x="19" y="9" width="2" height="1" fill="rgb(255,255,255)" fill-opacity="0.0078125"/>
  <rect x="0" y="10" width="3" height="1" fill="rgb(255,255,255)" fill-opacity="0.0078125"/>
  <rect x="3" y="10" width="2" height="1" fill="rgb(170,170,170)" fill-opacity="0.015625"/>
  <rect x="5" y="10" width="1" height="1" fill="rgb(68,61,35)" fill-opacity="0.6875"/>
  <rect x="6" y="10" width="1" height="1" fill="rgb(207,202,181)" fill-opacity="0.7578125"/>
  <rect x="7" y="10" width="1" height="1" fill="rgb(159,150,108)" fill-opacity="0.7578125"/>
  <rect x="8" y="10" width="1" height="1" fill="rgb(134,125,88)" fill-opacity="0.7578125"/>
  <rect x="9" y="10" width="1" height="1" fill="rgb(130,121,85)" fill-opacity="0.7578125"/>
  <rect x="10" y="10" width="1" height="1" fill="rgb(128,118,81)" fill-opacity="0.7578125"/>
  <rect x="11" y="10" width="1" height="1" fill="rgb(122,114,78)" fill-opacity="0.7578125"/>
  <rect x="12" y="10" width="1" height="1" fill="rgb(120,112,76)" fill-opacity="0.7578125"/>
  <rect x="13" y="10" width="1" height="1" fill="rgb(117,108,72)" fill-opacity="0.7578125"/>
  <rect x="14" y="10" width="1" height="1" fill="rgb(113,104,69)" fill-opacity="0.7578125"/>
  <rect x="15" y="10" width="1" height="1" fill="rgb(71,63,36)" fill-opacity="0.75"/>
  <rect x="16" y="10" width="1" height="1" fill="rgb(65,57,31)" fill-opacity="0.7421875"/>
  <rect x="17" y="10" width="1" height="1" fill="rgb(63,57,31)" fill-opacity="0.7421875"/>
  <rect x="18" y="10" width="1" height="1" fill="rgb(64,57,32)" fill-opacity="0.71875"/>
  <rect x="19" y="10" width="2" height="1" fill="rgb(255,255,255)" fill-opacity="0.0078125"/>
  <rect x="0" y="11" width="3" height="1" fill="rgb(255,255,255)" fill-opacity="0.0078125"/>
  <rect x="3" y="11" width="2" height="1" fill="rgb(170,170,170)" fill-opacity="0.015625"/>
  <rect x="5" y="11" width="1" height="1" fill="rgb(68,60,34)" fill-opacity="0.6875"/>
  <rect x="6" y="11" width="1" height="1" fill="rgb(202,197,177)" fill-opacity="0.7578125"/>
  <rect x="7" y="11" width="1" height="1" fill="rgb(150,139,100)" fill-opacity="0.7578125"/>
  <rect x="8" y="11" width="1" height="1" fill="rgb(118,110,74)" fill-opacity="0.7578125"/>
  <rect x="9" y="11" width="8" height="1" fill="rgb(246,243,234)" fill-opacity="0.7578125"/>
  <rect x="17" y="11" width="1" height="1" fill="rgb(227,220,193)" fill-opacity="0.7578125"/>
  <rect x="18" y="11" width="1" height="1" fill="rgb(61,54,28)" fill-opacity="0.7421875"/>
  <rect x="19" y="11" width="2" height="1" fill="rgb(255,255,255)" fill-opacity="0.0078125"/>
  <rect x="0" y="12" width="3" height="1" fill="rgb(255,255,255)" fill-opacity="0.0078125"/>
  <rect x="3" y="12" width="2" height="1" fill="rgb(170,170,170)" fill-opacity="0.015625"/>
  <rect x="5" y="12" width="1" height="1" fill="rgb(67,60,34)" fill-opacity="0.6875"/>
  <rect x="6" y="12" width="1" height="1" fill="rgb(197,191,171)" fill-opacity="0.7578125"/>
  <rect x="7" y="12" width="1" height="1" fill="rgb(139,130,92)" fill-opacity="0.7578125"/>
  <rect x="8" y="12" width="1" height="1" fill="rgb(106,97,64)" fill-opacity="0.7578125"/>
  <rect x="9" y="12" width="1" height="1" fill="rgb(246,243,234)" fill-opacity="0.7578125"/>
  <rect x="10" y="12" width="8" height="1" fill="rgb(210,198,150)" fill-opacity="0.7578125"/>
  <rect x="18" y="12" width="1" height="1" fill="rgb(61,53,27)" fill-opacity="0.7421875"/>
  <rect x="19" y="12" width="2" height="1" fill="rgb(255,255,255)" fill-opacity="0.0078125"/>
  <rect x="0" y="13" width="3" height="1" fill="rgb(255,255,255)" fill-opacity="0.0078125"/>
  <rect x="3" y="13" width="2" height="1" fill="rgb(170,170,170)" fill-opacity="0.015625"/>
  <rect x="5" y="13" width="1" height="1" fill="rgb(66,58,32)" fill-opacity="0.6875"/>
  <rect x="6" y="13" width="1" height="1" fill="rgb(191,187,167)" fill-opacity="0.7578125"/>
  <rect x="7" y="13" width="1" height="1" fill="rgb(130,120,82)" fill-opacity="0.7578125"/>
  <rect x="8" y="13" width="1" height="1" fill="rgb(93,85,52)" fill-opacity="0.7578125"/>
  <rect x="9" y="13" width="1" height="1" fill="rgb(246,243,234)" fill-opacity="0.7578125"/>
  <rect x="10" y="13" width="8" height="1" fill="rgb(210,198,150)" fill-opacity="0.7578125"/>
  <rect x="18" y="13" width="1" height="1" fill="rgb(61,53,27)" fill-opacity="0.7421875"/>
  <rect x="19" y="13" width="2" height="1" fill="rgb(255,255,255)" fill-opacity="0.0078125"/>
  <rect x="0" y="14" width="3" height="1" fill="rgb(255,255,255)" fill-opacity="0.0078125"/>
  <rect x="3" y="14" width="2" height="1" fill="rgb(170,170,170)" fill-opacity="0.015625"/>
  <rect x="5" y="14" width="1" height="1" fill="rgb(64,57,32)" fill-opacity="0.6875"/>
  <rect x="6" y="14" width="1" height="1" fill="rgb(186,182,163)" fill-opacity="0.7578125"/>
  <rect x="7" y="14" width="1" height="1" fill="rgb(120,110,74)" fill-opacity="0.7578125"/>
  <rect x="8" y="14" width="1" height="1" fill="rgb(81,73,43)" fill-opacity="0.7578125"/>
  <rect x="9" y="14" width="1" height="1" fill="rgb(246,243,234)" fill-opacity="0.7578125"/>
  <rect x="10" y="14" width="8" height="1" fill="rgb(210,198,150)" fill-opacity="0.7578125"/>
  <rect x="18" y="14" width="1" height="1" fill="rgb(61,53,27)" fill-opacity="0.7421875"/>
  <rect x="19" y="14" width="2" height="1" fill="rgb(255,255,255)" fill-opacity="0.0078125"/>
  <rect x="0" y="15" width="3" height="1" fill="rgb(255,255,255)" fill-opacity="0.0078125"/>
  <rect x="3" y="15" width="2" height="1" fill="rgb(170,170,170)" fill-opacity="0.015625"/>
  <rect x="5" y="15" width="1" height="1" fill="rgb(62,55,30)" fill-opacity="0.6953125"/>
  <rect x="6" y="15" width="1" height="1" fill="rgb(197,194,181)" fill-opacity="0.7578125"/>
  <rect x="7" y="15" width="1" height="1" fill="rgb(129,122,101)" fill-opacity="0.7578125"/>
  <rect x="8" y="15" width="1" height="1" fill="rgb(125,118,92)" fill-opacity="0.7578125"/>
  <rect x="9" y="15" width="1" height="1" fill="rgb(244,242,230)" fill-opacity="0.7578125"/>
  <rect x="10" y="15" width="8" height="1" fill="rgb(210,198,150)" fill-opacity="0.7578125"/>
  <rect x="18" y="15" width="1" height="1" fill="rgb(59,53,27)" fill-opacity="0.7421875"/>
  <rect x="19" y="15" width="2" height="1" fill="rgb(255,255,255)" fill-opacity="0.0078125"/>
  <rect x="0" y="16" width="3" height="1" fill="rgb(255,255,255)" fill-opacity="0.0078125"/>
  <rect x="3" y="16" width="2" height="1" fill="rgb(170,170,170)" fill-opacity="0.015625"/>
  <rect x="5" y="16" width="1" height="1" fill="rgb(61,57,31)" fill-opacity="0.4609375"/>
  <rect x="6" y="16" width="1" height="1" fill="rgb(85,76,52)" fill-opacity="0.734375"/>
  <rect x="7" y="16" width="1" height="1" fill="rgb(238,235,230)" fill-opacity="0.7578125"/>
  <rect x="8" y="16" width="1" height="1" fill="rgb(239,236,223)" fill-opacity="0.7578125"/>
  <rect x="9" y="16" width="1" height="1" fill="rgb(186,178,146)" fill-opacity="0.7578125"/>
  <rect x="10" y="16" width="6" height="1" fill="rgb(170,161,122)" fill-opacity="0.7578125"/>
  <rect x="16" y="16" width="1" height="1" fill="rgb(177,166,126)" fill-opacity="0.7578125"/>
  <rect x="17" y="16" width="1" height="1" fill="rgb(84,76,47)" fill-opacity="0.7421875"/>
  <rect x="18" y="16" width="1" height="1" fill="rgb(63,56,29)" fill-opacity="0.625"/>
  <rect x="19" y="16" width="2" height="1" fill="rgb(255,255,255)" fill-opacity="0.0078125"/>
  <rect x="0" y="17" width="3" height="1" fill="rgb(255,255,255)" fill-opacity="0.0078125"/>
  <rect x="3" y="17" width="3" height="1" fill="rgb(170,170,170)" fill-opacity="0.015625"/>
  <rect x="6" y="17" width="1" height="1" fill="rgb(60,54,26)" fill-opacity="0.5390625"/>
  <rect x="7" y="17" width="1" height="1" fill="rgb(67,59,35)" fill-opacity="0.75"/>
  <rect x="8" y="17" width="1" height="1" fill="rgb(67,60,36)" fill-opacity="0.75"/>
  <rect x="9" y="17" width="6" height="1" fill="rgb(60,53,28)" fill-opacity="0.75"/>
  <rect x="15" y="17" width="1" height="1" fill="rgb(60,54,28)" fill-opacity="0.75"/>
  <rect x="16" y="17" width="1" height="1" fill="rgb(59,53,27)" fill-opacity="0.7421875"/>
  <rect x="17" y="17" width="1" height="1" fill="rgb(63,56,29)" fill-opacity="0.625"/>
  <rect x="18" y="17" width="1" height="1" fill="rgb(170,170,170)" fill-opacity="0.015625"/>
  <rect x="19" y="17" width="2" height="1" fill="rgb(255,255,255)" fill-opacity="0.0078125"/>
  <rect x="0" y="18" width="3" height="1" fill="rgb(255,255,255)" fill-opacity="0.0078125"/>
  <rect x="3" y="18" width="16" height="1" fill="rgb(170,170,170)" fill-opacity="0.015625"/>
  <rect x="19" y="18" width="2" height="1" fill="rgb(255,255,255)" fill-opacity="0.0078125"/>
  <rect x="0" y="19" width="21" height="1" fill="rgb(255,255,255)" fill-opacity="0.0078125"/>
  <rect x="0" y="20" width="21" height="1" fill="rgb(255,255,255)" fill-opacity="0.0078125"/>
</svg>