<svg xmlns="http://www.w3.org/2000/svg" shape-rendering="crispEdges" width="21" height="21" viewBox="0 0 21 21">
  <rect x="0" y="0" width="1" height="21" fill="rgb(255,255,255)" fill-opacity="0.0078125"/>
  <rect x="1" y="0" width="1" height="21" fill="rgb(255,255,255)" fill-opacity="0.0078125"/>
  <rect x="2" y="0" width="1" height="5" fill="rgb(255,255,255)" fill-opacity="0.0078125"/>
  <rect x="2" y="5" width="1" height="1" fill="rgb(0,0,0)" fill-opacity="0.015625"/>
  <rect x="2" y="6" width="1" height="2" fill="rgb(0,0,0)" fill-opacity="0.0234375"/>
  <rect x="2" y="8" width="1" height="1" fill="rgb(0,0,0)" fill-opacity="0.015625"/>
  <rect x="2" y="9" width="1" height="1" fill="rgb(0,0,0)" fill-opacity="0.0078125"/>
  <rect x="2" y="10" width="1" height="11" fill="rgb(255,255,255)" fill-opacity="0.0078125"/>
  <rect x="3" y="0" width="1" height="3" fill="rgb(255,255,255)" fill-opacity="0.0078125"/>
  <rect x="3" y="3" width="1" height="1" fill="rgb(0,0,0)" fill-opacity="0.0078125"/>
  <rect x="3" y="4" width="1" height="1" fill="rgb(0,0,0)" fill-opacity="0.015625"/>
  <rect x="3" y="5" width="1" height="1" fill="rgb(22,22,22)" fill-opacity="0.65625"/>
  <rect x="3" y="6" width="1" height="1" fill="rgb(45,45,45)" fill-opacity="0.9921875"/>
  <rect x="3" y="7" width="1" height="2" fill="rgb(24,24,24)" fill-opacity="0.984375"/>
  <rect x="3" y="9" width="1" height="1" fill="rgb(25,25,25)" fill-opacity="0.984375"/>
  <rect x="3" y="10" width="1" height="1" fill="rgb(27,27,27)" fill-opacity="0.984375"/>
  <rect x="3" y="11" width="1" height="1" fill="rgb(29,29,29)" fill-opacity="0.984375"/>
  <rect x="3" y="12" width="1" height="1" fill="rgb(31,31,31)" fill-opacity="0.984375"/>
  <rect x="3" y="13" width="1" height="1" fill="rgb(34,34,34)" fill-opacity="0.984375"/>
  <rect x="3" y="14" width="1" height="1" fill="rgb(39,39,39)" fill-opacity="0.9453125"/>
  <rect x="3" y="15" width="1" height="6" fill="rgb(255,255,255)" fill-opacity="0.0078125"/>
  <rect x="4" y="0" width="1" height="3" fill="rgb(255,255,255)" fill-opacity="0.0078125"/>
  <rect x="4" y="3" width="1" height="1" fill="rgb(0,0,0)" fill-opacity="0.015625"/>
  <rect x="4" y="4" width="1" height="1" fill="rgb(23,23,23)" fill-opacity="0.703125"/>
  <rect x="4" y="5" width="1" height="1" fill="rgb(76,76,76)" fill-opacity="0.984375"/>
  <rect x="4" y="6" width="1" height="1" fill="rgb(255,255,255)"/>
  <rect x="4" y="7" width="1" height="1" fill="rgb(213,213,213)"/>
  <rect x="4" y="8" width="1" height="2" fill="rgb(255,255,255)"/>
  <rect x="4" y="10" width="1" height="1" fill="rgb(253,253,253)"/>
  <rect x="4" y="11" width="1" height="2" fill="rgb(252,252,252)"/>
  <rect x="4" y="13" width="1" height="1" fill="rgb(253,253,253)"/>
  <rect x="4" y="14" width="1" height="1" fill="rgb(38,38,38)" fill-opacity="0.984375"/>
  <rect x="4" y="15" width="1" height="6" fill="rgb(255,255,255)" fill-opacity="0.0078125"/>
  <rect x="5" y="0" width="1" height="2" fill="rgb(255,255,255)" fill-opacity="0.0078125"/>
  <rect x="5" y="2" width="1" height="1" fill="rgb(0,0,0)" fill-opacity="0.015625"/>
  <rect x="5" y="3" width="1" height="1" fill="rgb(22,22,22)" fill-opacity="0.734375"/>
  <rect x="5" y="4" width="1" height="1" fill="rgb(78,78,78)" fill-opacity="0.9921875"/>
  <rect x="5" y="5" width="1" height="2" fill="rgb(255,255,255)"/>
  <rect x="5" y="7" width="1" height="1" fill="rgb(161,161,161)"/>
  <rect x="5" y="8" width="1" height="1" fill="rgb(194,194,194)"/>
  <rect x="5" y="9" width="1" height="1" fill="rgb(222,222,222)"/>
  <rect x="5" y="10" width="1" height="1" fill="rgb(235,235,235)"/>
  <rect x="5" y="11" width="1" height="1" fill="rgb(243,243,243)"/>
  <rect x="5" y="12" width="1" height="1" fill="rgb(250,250,250)"/>
  <rect x="5" y="13" width="1" height="1" fill="rgb(255,255,255)"/>
  <rect x="5" y="14" width="1" height="1" fill="rgb(40,40,40)" fill-opacity="0.984375"/>
  <rect x="5" y="15" width="1" height="6" fill="rgb(255,255,255)" fill-opacity="0.0078125"/>
  <rect x="6" y="0" width="1" height="2" fill="rgb(255,255,255)" fill-opacity="0.0078125"/>
  <rect x="6" y="2" width="1" height="1" fill="rgb(0,0,0)" fill-opacity="0.0234375"/>
  <rect x="6" y="3" width="1" height="1" fill="rgb(45,45,45)" fill-opacity="0.9921875"/>
  <rect x="6" y="4" width="1" height="3" fill="rgb(255,255,255)"/>
  <rect x="6" y="7" width="1" height="1" fill="rgb(166,166,166)"/>
  <rect x="6" y="8" width="1" height="1" fill="rgb(202,202,202)"/>
  <rect x="6" y="9" width="1" height="1" fill="rgb(230,230,230)"/>
  <rect x="6" y="10" width="1" height="1" fill="rgb(242,242,242)"/>
  <rect x="6" y="11" width="1" height="1" fill="rgb(250,250,250)"/>
  <rect x="6" y="12" width="1" height="2" fill="rgb(255,255,255)"/>
  <rect x="6" y="14" width="1" height="1" fill="rgb(42,42,42)" fill-opacity="0.984375"/>
  <rect x="6" y="15" width="1" height="6" fill="rgb(255,255,255)" fill-opacity="0.0078125"/>
  <rect x="7" y="0" width="1" height="2" fill="rgb(255,255,255)" fill-opacity="0.0078125"/>
  <rect x="7" y="2" width="1" height="1" fill="rgb(0,0,0)" fill-opacity="0.0234375"/>
  <rect x="7" y="3" width="1" height="1" fill="rgb(24,24,24)" fill-opacity="0.984375"/>
  <rect x="7" y="4" width="1" height="1" fill="rgb(213,213,213)"/>
  <rect x="7" y="5" width="1" height="1" fill="rgb(162,162,162)"/>
  <rect x="7" y="6" width="1" height="1" fill="rgb(166,166,166)"/>
  <rect x="7" y="7" width="1" height="1" fill="rgb(189,189,189)"/>
  <rect x="7" y="8" width="1" height="5" fill="rgb(0,0,0)"/>
  <rect x="7" y="13" width="1" height="1" fill="rgb(255,255,255)"/>
  <rect x="7" y="14" width="1" height="1" fill="rgb(44,44,44)" fill-opacity="0.984375"/>
  <rect x="7" y="15" width="1" height="6" fill="rgb(255,255,255)" fill-opacity="0.0078125"/>
  <rect x="8" y="0" width="1" height="2" fill="rgb(255,255,255)" fill-opacity="0.0078125"/>
  <rect x="8" y="2" width="1" height="1" fill="rgb(0,0,0)" fill-opacity="0.015625"/>
  <rect x="8" y="3" width="1" height="1" fill="rgb(24,24,24)" fill-opacity="0.984375"/>
  <rect x="8" y="4" width="1" height="1" fill="rgb(255,255,255)"/>
  <rect x="8" y="5" width="1" height="1" fill="rgb(194,194,194)"/>
  <rect x="8" y="6" width="1" height="1" fill="rgb(202,202,202)"/>
  <rect x="8" y="7" width="1" height="1" fill="rgb(0,0,0)"/>
  <rect x="8" y="8" width="1" height="1" fill="rgb(235,235,235)"/>
  <rect x="8" y="9" width="1" height="1" fill="rgb(248,248,248)"/>
  <rect x="8" y="10" width="1" height="1" fill="rgb(0,0,0)"/>
  <rect x="8" y="11" width="1" height="3" fill="rgb(255,255,255)"/>
  <rect x="8" y="14" width="1" height="1" fill="rgb(46,46,46)" fill-opacity="0.984375"/>
  <rect x="8" y="15" width="1" height="6" fill="rgb(255,255,255)" fill-opacity="0.0078125"/>
  <rect x="9" y="0" width="1" height="2" fill="rgb(255,255,255)" fill-opacity="0.0078125"/>
  <rect x="9" y="2" width="1" height="1" fill="rgb(0,0,0)" fill-opacity="0.0078125"/>
  <rect x="9" y="3" width="1" height="1" fill="rgb(25,25,25)" fill-opacity="0.984375"/>
  <rect x="9" y="4" width="1" height="1" fill="rgb(252,252,252)"/>
  <rect x="9" y="5" width="1" height="1" fill="rgb(222,222,222)"/>
  <rect x="9" y="6" width="1" height="1" fill="rgb(230,230,230)"/>
  <rect x="9" y="7" width="1" height="1" fill="rgb(0,0,0)"/>
  <rect x="9" y="8" width="1" height="1" fill="rgb(248,248,248)"/>
  <rect x="9" y="9" width="1" height="1" fill="rgb(255,255,255)"/>
  <rect x="9" y="10" width="1" height="1" fill="rgb(0,0,0)"/>
  <rect x="9" y="11" width="1" height="3" fill="rgb(255,255,255)"/>
  <rect x="9" y="14" width="1" height="1" fill="rgb(60,60,60)" fill-opacity="0.9921875"/>
  <rect x="9" y="15" width="1" height="1" fill="rgb(44,44,44)" fill-opacity="0.9140625"/>
  <rect x="9" y="16" width="1" height="1" fill="rgb(46,46,46)" fill-opacity="0.9140625"/>
  <rect x="9" y="17" width="1" height="1" fill="rgb(48,48,48)" fill-opacity="0.9140625"/>
  <rect x="9" y="18" width="1" height="1" fill="rgb(45,45,45)" fill-opacity="0.796875"/>
  <rect x="9" y="19" width="1" height="2" fill="rgb(255,255,255)" fill-opacity="0.0078125"/>
  <rect x="10" y="0" width="1" height="3" fill="rgb(255,255,255)" fill-opacity="0.0078125"/>
  <rect x="10" y="3" width="1" height="1" fill="rgb(27,27,27)" fill-opacity="0.984375"/>
  <rect x="10" y="4" width="1" height="1" fill="rgb(250,250,250)"/>
  <rect x="10" y="5" width="1" height="1" fill="rgb(235,235,235)"/>
  <rect x="10" y="6" width="1" height="1" fill="rgb(242,242,242)"/>
  <rect x="10" y="7" width="1" height="1" fill="rgb(250,250,250)"/>
  <rect x="10" y="8" width="1" height="5" fill="rgb(0,0,0)"/>
  <rect x="10" y="13" width="1" height="1" fill="rgb(255,255,255)"/>
  <rect x="10" y="14" width="1" height="1" fill="rgb(177,177,177)"/>
  <rect x="10" y="15" width="1" height="1" fill="rgb(247,247,247)"/>
  <rect x="10" y="16" width="1" height="1" fill="rgb(249,249,249)"/>
  <rect x="10" y="17" width="1" height="1" fill="rgb(255,255,255)"/>
  <rect x="10" y="18" width="1" height="1" fill="rgb(49,49,49)" fill-opacity="0.9140625"/>
  <rect x="10" y="19" width="1" height="2" fill="rgb(255,255,255)" fill-opacity="0.0078125"/>
  <rect x="11" y="0" width="1" height="3" fill="rgb(255,255,255)" fill-opacity="0.0078125"/>
  <rect x="11" y="3" width="1" height="1" fill="rgb(29,29,29)" fill-opacity="0.984375"/>
  <rect x="11" y="4" width="1" height="1" fill="rgb(250,250,250)"/>
  <rect x="11" y="5" width="1" height="1" fill="rgb(243,243,243)"/>
  <rect x="11" y="6" width="1" height="1" fill="rgb(250,250,250)"/>
  <rect x="11" y="7" width="1" height="7" fill="rgb(255,255,255)"/>
  <rect x="11" y="14" width="1" height="1" fill="rgb(179,179,179)"/>
  <rect x="11" y="15" width="1" height="1" fill="rgb(221,221,221)"/>
  <rect x="11" y="16" width="1" height="1" fill="rgb(242,242,242)"/>
  <rect x="11" y="17" width="1" height="1" fill="rgb(255,255,255)"/>
  <rect x="11" y="18" width="1" height="1" fill="rgb(49,49,49)" fill-opacity="0.9140625"/>
  <rect x="11" y="19" width="1" height="2" fill="rgb(255,255,255)" fill-opacity="0.0078125"/>
  <rect x="12" y="0" width="1" height="3" fill="rgb(255,255,255)" fill-opacity="0.0078125"/>
  <rect x="12" y="3" width="1" height="1" fill="rgb(33,33,33)" fill-opacity="0.9453125"/>
  <rect x="12" y="4" width="1" height="1" fill="rgb(45,45,45)" fill-opacity="0.9921875"/>
  <rect x="12" y="5" width="1" height="1" fill="rgb(36,36,36)" fill-opacity="0.984375"/>
  <rect x="12" y="6" width="1" height="1" fill="rgb(38,38,38)" fill-opacity="0.984375"/>
  <rect x="12" y="7" width="1" height="1" fill="rgb(48,48,48)" fill-opacity="0.9921875"/>
  <rect x="12" y="8" width="1" height="1" fill="rgb(136,136,136)"/>
  <rect x="12" y="9" width="1" height="1" fill="rgb(132,132,132)"/>
  <rect x="12" y="10" width="1" height="1" fill="rgb(144,144,144)"/>
  <rect x="12" y="11" width="1" height="1" fill="rgb(155,155,155)"/>
  <rect x="12" y="12" width="1" height="1" fill="rgb(167,167,167)"/>
  <rect x="12" y="13" width="1" height="1" fill="rgb(179,179,179)"/>
  <rect x="12" y="14" width="1" height="1" fill="rgb(193,193,193)"/>
  <rect x="12" y="15" width="1" height="1" fill="rgb(234,234,234)"/>
  <rect x="12" y="16" width="1" height="1" fill="rgb(253,253,253)"/>
  <rect x="12" y="17" width="1" height="1" fill="rgb(255,255,255)"/>
  <rect x="12" y="18" width="1" height="1" fill="rgb(49,49,49)" fill-opacity="0.9140625"/>
  <rect x="12" y="19" width="1" height="2" fill="rgb(255,255,255)" fill-opacity="0.0078125"/>
  <rect x="13" y="0" width="1" height="7" fill="rgb(255,255,255)" fill-opacity="0.0078125"/>
  <rect x="13" y="7" width="1" height="1" fill="rgb(40,40,40)" fill-opacity="0.9140625"/>
  <rect x="13" y="8" width="1" height="1" fill="rgb(253,253,253)"/>
  <rect x="13" y="9" width="1" height="1" fill="rgb(170,170,170)"/>
  <rect x="13" y="10" width="1" height="1" fill="rgb(177,177,177)"/>
  <rect x="13" y="11" width="1" height="1" fill="rgb(94,94,94)"/>
  <rect x="13" y="12" width="1" height="1" fill="rgb(201,201,201)"/>
  <rect x="13" y="13" width="1" height="1" fill="rgb(215,215,215)"/>
  <rect x="13" y="14" width="1" height="1" fill="rgb(231,231,231)"/>
  <rect x="13" y="15" width="1" height="2" fill="rgb(0,0,0)"/>
  <rect x="13" y="17" width="1" height="1" fill="rgb(255,255,255)"/>
  <rect x="13" y="18" width="1" height="1" fill="rgb(49,49,49)" fill-opacity="0.9140625"/>
  <rect x="13" y="19" width="1" height="2" fill="rgb(255,255,255)" fill-opacity="0.0078125"/>
  <rect x="14" y="0" width="1" height="7" fill="rgb(255,255,255)" fill-opacity="0.0078125"/>
  <rect x="14" y="7" width="1" height="1" fill="rgb(42,42,42)" fill-opacity="0.9140625"/>
  <rect x="14" y="8" width="1" height="1" fill="rgb(255,255,255)"/>
  <rect x="14" y="9" width="1" height="1" fill="rgb(193,193,193)"/>
  <rect x="14" y="10" width="1" height="1" fill="rgb(200,200,200)"/>
  <rect x="14" y="11" width="1" height="1" fill="rgb(0,0,0)"/>
  <rect x="14" y="12" width="1" height="1" fill="rgb(220,220,220)"/>
  <rect x="14" y="13" width="1" height="1" fill="rgb(234,234,234)"/>
  <rect x="14" y="14" width="1" height="1" fill="rgb(0,0,0)"/>
  <rect x="14" y="15" width="1" height="1" fill="rgb(255,255,255)"/>
  <rect x="14" y="16" width="1" height="1" fill="rgb(0,0,0)"/>
  <rect x="14" y="17" width="1" height="1" fill="rgb(255,255,255)"/>
  <rect x="14" y="18" width="1" height="1" fill="rgb(49,49,49)" fill-opacity="0.9140625"/>
  <rect x="14" y="19" width="1" height="2" fill="rgb(255,255,255)" fill-opacity="0.0078125"/>
  <rect x="15" y="0" width="1" height="7" fill="rgb(255,255,255)" fill-opacity="0.0078125"/>
  <rect x="15" y="7" width="1" height="1" fill="rgb(45,45,45)" fill-opacity="0.9140625"/>
  <rect x="15" y="8" width="1" height="1" fill="rgb(251,251,251)"/>
  <rect x="15" y="9" width="1" height="1" fill="rgb(216,216,216)"/>
  <rect x="15" y="10" width="1" height="1" fill="rgb(222,222,222)"/>
  <rect x="15" y="11" width="1" height="1" fill="rgb(0,0,0)"/>
  <rect x="15" y="12" width="1" height="1" fill="rgb(241,241,241)"/>
  <rect x="15" y="13" width="1" height="1" fill="rgb(0,0,0)"/>
  <rect x="15" y="14" width="1" height="2" fill="rgb(255,255,255)"/>
  <rect x="15" y="16" width="1" height="1" fill="rgb(0,0,0)"/>
  <rect x="15" y="17" width="1" height="1" fill="rgb(255,255,255)"/>
  <rect x="15" y="18" width="1" height="1" fill="rgb(49,49,49)" fill-opacity="0.9140625"/>
  <rect x="15" y="19" width="1" height="2" fill="rgb(255,255,255)" fill-opacity="0.0078125"/>
  <rect x="16" y="0" width="1" height="7" fill="rgb(255,255,255)" fill-opacity="0.0078125"/>
  <rect x="16" y="7" width="1" height="1" fill="rgb(47,47,47)" fill-opacity="0.9140625"/>
  <rect x="16" y="8" width="1" height="1" fill="rgb(251,251,251)"/>
  <rect x="16" y="9" width="1" height="1" fill="rgb(239,239,239)"/>
  <rect x="16" y="10" width="1" height="1" fill="rgb(245,245,245)"/>
  <rect x="16" y="11" width="1" height="2" fill="rgb(0,0,0)"/>
  <rect x="16" y="13" width="1" height="3" fill="rgb(255,255,255)"/>
  <rect x="16" y="16" width="1" height="1" fill="rgb(0,0,0)"/>
  <rect x="16" y="17" width="1" height="1" fill="rgb(255,255,255)"/>
  <rect x="16" y="18" width="1" height="1" fill="rgb(49,49,49)" fill-opacity="0.9140625"/>
  <rect x="16" y="19" width="1" height="2" fill="rgb(255,255,255)" fill-opacity="0.0078125"/>
  <rect x="17" y="0" width="1" height="7" fill="rgb(255,255,255)" fill-opacity="0.0078125"/>
  <rect x="17" y="7" width="1" height="1" fill="rgb(49,49,49)" fill-opacity="0.9140625"/>
  <rect x="17" y="8" width="1" height="10" fill="rgb(255,255,255)"/>
  <rect x="17" y="18" width="1" height="1" fill="rgb(49,49,49)" fill-opacity="0.9140625"/>
  <rect x="17" y="19" width="1" height="2" fill="rgb(255,255,255)" fill-opacity="0.0078125"/>
  <rect x="18" y="0" width="1" height="7" fill="rgb(255,255,255)" fill-opacity="0.0078125"/>
  <rect x="18" y="7" width="1" height="1" fill="rgb(45,45,45)" fill-opacity="0.796875"/>
  <rect x="18" y="8" width="1" height="10" fill="rgb(49,49,49)" fill-opacity="0.9140625"/>
  <rect x="18" y="18" width="1" height="1" fill="rgb(45,45,45)" fill-opacity="0.796875"/>
  <rect x="18" y="19" width="1" height="2" fill="rgb(255,255,255)" fill-opacity="0.0078125"/>
  <rect x="19" y="0" width="1" height="21" fill="rgb(255,255,255)" fill-opacity="0.0078125"/>
  <rect x="20" y="0" width="1" height="21" fill="rgb(255,255,255)" fill-opacity="0.0078125"/>
</svg>