<svg xmlns="http://www.w3.org/2000/svg" shape-rendering="crispEdges" width="21" height="21" viewBox="0 0 21 21">
  <rect x="0" y="0" width="21" height="1" fill="rgb(255,255,255)" fill-opacity="0.0078125"/>
  <rect x="0" y="1" width="21" height="1" fill="rgb(255,255,255)" fill-opacity="0.0078125"/>
  <rect x="0" y="2" width="21" height="1" fill="rgb(255,255,255)" fill-opacity="0.0078125"/>
  <rect x="0" y="3" width="21" height="1" fill="rgb(255,255,255)" fill-opacity="0.0078125"/>
  <rect x="0" y="4" width="21" height="1" fill="rgb(255,255,255)" fill-opacity="0.0078125"/>
  <rect x="0" y="5" width="21" height="1" fill="rgb(255,255,255)" fill-opacity="0.0078125"/>
  <rect x="0" y="6" width="21" height="1" fill="rgb(255,255,255)" fill-opacity="0.0078125"/>
  <rect x="0" y="7" width="21" height="1" fill="rgb(255,255,255)" fill-opacity="0.0078125"/>
  <rect x="0" y="8" width="7" height="1" fill="rgb(255,255,255)" fill-opacity="0.0078125"/>
  <rect x="7" y="8" width="1" height="1" fill="rgb(255,255,255)" fill-opacity="0.0234375"/>
  <rect x="8" y="8" width="2" height="1" fill="rgb(255,255,255)" fill-opacity="0.03125"/>
  <rect x="10" y="8" width="1" height="1" fill="rgb(255,255,255)" fill-opacity="0.0234375"/>
  <rect x="11" y="8" width="1" height="1" fill="rgb(255,255,255)" fill-opacity="0.0078125"/>
  <rect x="12" y="8" width="1" height="1" fill="rgb(0,0,0)" fill-opacity="0.0078125"/>
  <rect x="13" y="8" width="2" height="1" fill="rgb(0,0,0)" fill-opacity="0.0234375"/>
  <rect x="15" y="8" width="1" height="1" fill="rgb(0,0,0)" fill-opacity="0.015625"/>
  <rect x="16" y="8" width="5" height="1" fill="rgb(255,255,255)" fill-opacity="0.0078125"/>
  <rect x="0" y="9" width="6" height="1" fill="rgb(255,255,255)" fill-opacity="0.0078125"/>
  <rect x="6" y="9" width="1" height="1" fill="rgb(255,255,255)" fill-opacity="0.0390625"/>
  <rect x="7" y="9" width="1" height="1" fill="rgb(255,255,255)" fill-opacity="0.0625"/>
  <rect x="8" y="9" width="2" height="1" fill="rgb(255,255,255)" fill-opacity="0.078125"/>
  <rect x="10" y="9" width="1" height="1" fill="rgb(255,255,255)" fill-opacity="0.0703125"/>
  <rect x="11" y="9" width="1" height="1" fill="rgb(165,165,165)" fill-opacity="0.0703125"/>
  <rect x="12" y="9" width="1" height="1" fill="rgb(80,80,80)" fill-opacity="0.0703125"/>
  <rect x="13" y="9" width="2" height="1" fill="rgb(0,0,0)" fill-opacity="0.0625"/>
  <rect x="15" y="9" width="1" height="1" fill="rgb(0,0,0)" fill-opacity="0.0546875"/>
  <rect x="16" y="9" width="1" height="1" fill="rgb(0,0,0)" fill-opacity="0.0390625"/>
  <rect x="17" y="9" width="4" height="1" fill="rgb(255,255,255)" fill-opacity="0.0078125"/>
  <rect x="0" y="10" width="4" height="1" fill="rgb(255,255,255)" fill-opacity="0.0078125"/>
  <rect x="4" y="10" width="1" height="1" fill="rgb(23,23,23)" fill-opacity="0.2734375"/>
  <rect x="5" y="10" width="1" height="1" fill="rgb(198,198,198)" fill-opacity="0.1796875"/>
  <rect x="6" y="10" width="1" height="1" fill="rgb(255,255,255)" fill-opacity="0.0625"/>
  <rect x="7" y="10" width="1" height="1" fill="rgb(255,255,255)" fill-opacity="0.09375"/>
  <rect x="8" y="10" width="1" height="1" fill="rgb(255,255,255)" fill-opacity="0.1171875"/>
  <rect x="9" y="10" width="1" height="1" fill="rgb(255,255,255)" fill-opacity="0.125"/>
  <rect x="10" y="10" width="1" height="1" fill="rgb(209,209,209)" fill-opacity="0.1328125"/>
  <rect x="11" y="10" width="1" height="1" fill="rgb(150,150,150)" fill-opacity="0.140625"/>
  <rect x="12" y="10" width="1" height="1" fill="rgb(93,93,93)" fill-opacity="0.1328125"/>
  <rect x="13" y="10" width="1" height="1" fill="rgb(26,26,26)" fill-opacity="0.1171875"/>
  <rect x="14" y="10" width="1" height="1" fill="rgb(0,0,0)" fill-opacity="0.109375"/>
  <rect x="15" y="10" width="1" height="1" fill="rgb(0,0,0)" fill-opacity="0.09375"/>
  <rect x="16" y="10" width="1" height="1" fill="rgb(82,82,82)" fill-opacity="0.1015625"/>
  <rect x="17" y="10" width="1" height="1" fill="rgb(4,4,4)" fill-opacity="0.2421875"/>
  <rect x="18" y="10" width="3" height="1" fill="rgb(255,255,255)" fill-opacity="0.0078125"/>
  <rect x="0" y="11" width="4" height="1" fill="rgb(255,255,255)" fill-opacity="0.0078125"/>
  <rect x="4" y="11" width="1" height="1" fill="rgb(20,20,20)" fill-opacity="0.15625"/>
  <rect x="5" y="11" width="1" height="1" fill="rgb(112,112,112)" fill-opacity="0.3984375"/>
  <rect x="6" y="11" width="1" height="1" fill="rgb(249,249,249)" fill-opacity="0.1796875"/>
  <rect x="7" y="11" width="1" height="1" fill="rgb(255,255,255)" fill-opacity="0.1171875"/>
  <rect x="8" y="11" width="1" height="1" fill="rgb(255,255,255)" fill-opacity="0.1484375"/>
  <rect x="9" y="11" width="1" height="1" fill="rgb(238,238,238)" fill-opacity="0.1875"/>
  <rect x="10" y="11" width="1" height="1" fill="rgb(190,190,190)" fill-opacity="0.1875"/>
  <rect x="11" y="11" width="1" height="1" fill="rgb(144,144,144)" fill-opacity="0.1875"/>
  <rect x="12" y="11" width="1" height="1" fill="rgb(91,91,91)" fill-opacity="0.1796875"/>
  <rect x="13" y="11" width="1" height="1" fill="rgb(43,43,43)" fill-opacity="0.171875"/>
  <rect x="14" y="11" width="1" height="1" fill="rgb(0,0,0)" fill-opacity="0.1484375"/>
  <rect x="15" y="11" width="1" height="1" fill="rgb(94,94,94)" fill-opacity="0.109375"/>
  <rect x="16" y="11" width="1" height="1" fill="rgb(38,38,38)" fill-opacity="0.2734375"/>
  <rect x="17" y="11" width="1" height="1" fill="rgb(0,0,0)" fill-opacity="0.1328125"/>
  <rect x="18" y="11" width="3" height="1" fill="rgb(255,255,255)" fill-opacity="0.0078125"/>
  <rect x="0" y="12" width="4" height="1" fill="rgb(255,255,255)" fill-opacity="0.0078125"/>
  <rect x="4" y="12" width="1" height="1" fill="rgb(0,0,0)" fill-opacity="0.0078125"/>
  <rect x="5" y="12" width="1" height="1" fill="rgb(21,21,21)" fill-opacity="0.2421875"/>
  <rect x="6" y="12" width="1" height="1" fill="rgb(102,102,102)" fill-opacity="0.375"/>
  <rect x="7" y="12" width="1" height="1" fill="rgb(226,226,226)" fill-opacity="0.28125"/>
  <rect x="8" y="12" width="1" height="1" fill="rgb(255,255,255)" fill-opacity="0.2265625"/>
  <rect x="9" y="12" width="1" height="1" fill="rgb(224,224,224)" fill-opacity="0.234375"/>
  <rect x="10" y="12" width="1" height="1" fill="rgb(176,176,176)" fill-opacity="0.21875"/>
  <rect x="11" y="12" width="1" height="1" fill="rgb(137,137,137)" fill-opacity="0.2265625"/>
  <rect x="12" y="12" width="1" height="1" fill="rgb(109,109,109)" fill-opacity="0.25"/>
  <rect x="13" y="12" width="1" height="1" fill="rgb(93,93,93)" fill-opacity="0.25"/>
  <rect x="14" y="12" width="1" height="1" fill="rgb(102,102,102)" fill-opacity="0.203125"/>
  <rect x="15" y="12" width="1" height="1" fill="rgb(44,44,44)" fill-opacity="0.28125"/>
  <rect x="16" y="12" width="1" height="1" fill="rgb(9,9,9)" fill-opacity="0.21875"/>
  <rect x="17" y="12" width="1" height="1" fill="rgb(0,0,0)" fill-opacity="0.0078125"/>
  <rect x="18" y="12" width="3" height="1" fill="rgb(255,255,255)" fill-opacity="0.0078125"/>
  <rect x="0" y="13" width="5" height="1" fill="rgb(255,255,255)" fill-opacity="0.0078125"/>
  <rect x="5" y="13" width="1" height="1" fill="rgb(0,0,0)" fill-opacity="0.0078125"/>
  <rect x="6" y="13" width="1" height="1" fill="rgb(0,0,0)" fill-opacity="0.15625"/>
  <rect x="7" y="13" width="1" height="1" fill="rgb(37,37,37)" fill-opacity="0.328125"/>
  <rect x="8" y="13" width="1" height="1" fill="rgb(94,94,94)" fill-opacity="0.3125"/>
  <rect x="9" y="13" width="1" height="1" fill="rgb(144,144,144)" fill-opacity="0.3125"/>
  <rect x="10" y="13" width="1" height="1" fill="rgb(165,165,165)" fill-opacity="0.328125"/>
  <rect x="11" y="13" width="1" height="1" fill="rgb(145,145,145)" fill-opacity="0.3125"/>
  <rect x="12" y="13" width="1" height="1" fill="rgb(102,102,102)" fill-opacity="0.28125"/>
  <rect x="13" y="13" width="1" height="1" fill="rgb(50,50,50)" fill-opacity="0.265625"/>
  <rect x="14" y="13" width="1" height="1" fill="rgb(17,17,17)" fill-opacity="0.296875"/>
  <rect x="15" y="13" width="1" height="1" fill="rgb(0,0,0)" fill-opacity="0.1484375"/>
  <rect x="16" y="13" width="5" height="1" fill="rgb(255,255,255)" fill-opacity="0.0078125"/>
  <rect x="0" y="14" width="7" height="1" fill="rgb(255,255,255)" fill-opacity="0.0078125"/>
  <rect x="7" y="14" width="1" height="1" fill="rgb(0,0,0)" fill-opacity="0.015625"/>
  <rect x="8" y="14" width="1" height="1" fill="rgb(0,0,0)" fill-opacity="0.109375"/>
  <rect x="9" y="14" width="1" height="1" fill="rgb(0,0,0)" fill-opacity="0.1796875"/>
  <rect x="10" y="14" width="2" height="1" fill="rgb(0,0,0)" fill-opacity="0.2109375"/>
  <rect x="12" y="14" width="1" height="1" fill="rgb(0,0,0)" fill-opacity="0.171875"/>
  <rect x="13" y="14" width="1" height="1" fill="rgb(0,0,0)" fill-opacity="0.109375"/>
  <rect x="14" y="14" width="1" height="1" fill="rgb(0,0,0)" fill-opacity="0.015625"/>
  <rect x="15" y="14" width="6" height="1" fill="rgb(255,255,255)" fill-opacity="0.0078125"/>
  <rect x="0" y="15" width="21" height="1" fill="rgb(255,255,255)" fill-opacity="0.0078125"/>
  <rect x="0" y="16" width="21" height="1" fill="rgb(255,255,255)" fill-opacity="0.0078125"/>
  <rect x="0" y="17" width="21" height="1" fill="rgb(255,255,255)" fill-opacity="0.0078125"/>
  <rect x="0" y="18" width="21" height="1" fill="rgb(255,255,255)" fill-opacity="0.0078125"/>
  <rect x="0" y="19" width="21" height="1" fill="rgb(255,255,255)" fill-opacity="0.0078125"/>
  <rect x="0" y="20" width="21" height="1" fill="rgb(255,255,255)" fill-opacity="0.0078125"/>
</svg>