<svg xmlns="http://www.w3.org/2000/svg" shape-rendering="crispEdges" width="21" height="21" viewBox="0 0 21 21">
  <rect x="0" y="0" width="21" height="1" fill="rgb(255,255,255)" fill-opacity="0.0078125"/>
  <rect x="0" y="1" width="21" height="1" fill="rgb(255,255,255)" fill-opacity="0.0078125"/>
  <rect x="0" y="2" width="21" height="1" fill="rgb(255,255,255)" fill-opacity="0.0078125"/>
  <rect x="0" y="3" width="21" height="1" fill="rgb(255,255,255)" fill-opacity="0.0078125"/>
  <rect x="0" y="4" width="4" height="1" fill="rgb(255,255,255)" fill-opacity="0.0078125"/>
  <rect x="4" y="4" width="1" height="1" fill="rgb(23,23,23)" fill-opacity="0.7734375"/>
  <rect x="5" y="4" width="3" height="1" fill="rgb(24,24,24)" fill-opacity="0.9140625"/>
  <rect x="8" y="4" width="2" height="1" fill="rgb(25,25,25)" fill-opacity="0.9140625"/>
  <rect x="10" y="4" width="3" height="1" fill="rgb(26,26,26)" fill-opacity="0.9140625"/>
  <rect x="13" y="4" width="2" height="1" fill="rgb(27,27,27)" fill-opacity="0.9140625"/>
  <rect x="15" y="4" width="2" height="1" fill="rgb(29,29,29)" fill-opacity="0.9140625"/>
  <rect x="17" y="4" width="1" height="1" fill="rgb(29,29,29)" fill-opacity="0.8046875"/>
  <rect x="18" y="4" width="3" height="1" fill="rgb(255,255,255)" fill-opacity="0.0078125"/>
  <rect x="0" y="5" width="4" height="1" fill="rgb(255,255,255)" fill-opacity="0.0078125"/>
  <rect x="4" y="5" width="1" height="1" fill="rgb(24,24,24)" fill-opacity="0.890625"/>
  <rect x="5" y="5" width="1" height="1" fill="rgb(134,134,134)"/>
  <rect x="6" y="5" width="1" height="1" fill="rgb(149,149,149)"/>
  <rect x="7" y="5" width="1" height="1" fill="rgb(140,140,140)"/>
  <rect x="8" y="5" width="1" height="1" fill="rgb(132,132,132)"/>
  <rect x="9" y="5" width="1" height="1" fill="rgb(124,124,124)"/>
  <rect x="10" y="5" width="1" height="1" fill="rgb(116,116,116)"/>
  <rect x="11" y="5" width="1" height="1" fill="rgb(109,109,109)"/>
  <rect x="12" y="5" width="1" height="1" fill="rgb(102,102,102)"/>
  <rect x="13" y="5" width="1" height="1" fill="rgb(95,95,95)"/>
  <rect x="14" y="5" width="1" height="1" fill="rgb(89,89,89)"/>
  <rect x="15" y="5" width="1" height="1" fill="rgb(84,84,84)"/>
  <rect x="16" y="5" width="1" height="1" fill="rgb(75,75,75)"/>
  <rect x="17" y="5" width="1" height="1" fill="rgb(30,30,30)" fill-opacity="0.8984375"/>
  <rect x="18" y="5" width="3" height="1" fill="rgb(255,255,255)" fill-opacity="0.0078125"/>
  <rect x="0" y="6" width="4" height="1" fill="rgb(255,255,255)" fill-opacity="0.0078125"/>
  <rect x="4" y="6" width="1" height="1" fill="rgb(24,24,24)" fill-opacity="0.890625"/>
  <rect x="5" y="6" width="1" height="1" fill="rgb(147,147,147)"/>
  <rect x="6" y="6" width="2" height="1" fill="rgb(22,22,22)"/>
  <rect x="8" y="6" width="1" height="1" fill="rgb(26,26,26)"/>
  <rect x="9" y="6" width="1" height="1" fill="rgb(38,35,34)"/>
  <rect x="10" y="6" width="1" height="1" fill="rgb(147,94,87)"/>
  <rect x="11" y="6" width="1" height="1" fill="rgb(156,94,86)"/>
  <rect x="12" y="6" width="1" height="1" fill="rgb(54,49,48)"/>
  <rect x="13" y="6" width="1" height="1" fill="rgb(47,47,47)"/>
  <rect x="14" y="6" width="1" height="1" fill="rgb(51,51,51)"/>
  <rect x="15" y="6" width="1" height="1" fill="rgb(55,55,55)"/>
  <rect x="16" y="6" width="1" height="1" fill="rgb(59,59,59)"/>
  <rect x="17" y="6" width="1" height="1" fill="rgb(31,31,31)" fill-opacity="0.8984375"/>
  <rect x="18" y="6" width="3" height="1" fill="rgb(255,255,255)" fill-opacity="0.0078125"/>
  <rect x="0" y="7" width="4" height="1" fill="rgb(255,255,255)" fill-opacity="0.0078125"/>
  <rect x="4" y="7" width="1" height="1" fill="rgb(25,25,25)" fill-opacity="0.890625"/>
  <rect x="5" y="7" width="1" height="1" fill="rgb(140,140,140)"/>
  <rect x="6" y="7" width="1" height="1" fill="rgb(26,26,26)"/>
  <rect x="7" y="7" width="1" height="1" fill="rgb(66,56,48)"/>
  <rect x="8" y="7" width="1" height="1" fill="rgb(191,128,98)"/>
  <rect x="9" y="7" width="1" height="1" fill="rgb(246,127,93)"/>
  <rect x="10" y="7" width="1" height="1" fill="rgb(234,114,94)"/>
  <rect x="11" y="7" width="1" height="1" fill="rgb(230,98,82)"/>
  <rect x="12" y="7" width="1" height="1" fill="rgb(236,62,43)"/>
  <rect x="13" y="7" width="1" height="1" fill="rgb(194,105,94)"/>
  <rect x="14" y="7" width="1" height="1" fill="rgb(91,74,72)"/>
  <rect x="15" y="7" width="1" height="1" fill="rgb(59,59,59)"/>
  <rect x="16" y="7" width="1" height="1" fill="rgb(63,63,63)"/>
  <rect x="17" y="7" width="1" height="1" fill="rgb(31,31,31)" fill-opacity="0.8984375"/>
  <rect x="18" y="7" width="3" height="1" fill="rgb(255,255,255)" fill-opacity="0.0078125"/>
  <rect x="0" y="8" width="4" height="1" fill="rgb(255,255,255)" fill-opacity="0.0078125"/>
  <rect x="4" y="8" width="1" height="1" fill="rgb(25,25,25)" fill-opacity="0.890625"/>
  <rect x="5" y="8" width="1" height="1" fill="rgb(133,133,133)"/>
  <rect x="6" y="8" width="1" height="1" fill="rgb(37,36,35)"/>
  <rect x="7" y="8" width="1" height="1" fill="rgb(253,169,94)"/>
  <rect x="8" y="8" width="1" height="1" fill="rgb(223,149,105)"/>
  <rect x="9" y="8" width="1" height="1" fill="rgb(118,91,79)"/>
  <rect x="10" y="8" width="1" height="1" fill="rgb(42,42,42)"/>
  <rect x="11" y="8" width="1" height="1" fill="rgb(47,47,47)"/>
  <rect x="12" y="8" width="1" height="1" fill="rgb(120,90,89)"/>
  <rect x="13" y="8" width="1" height="1" fill="rgb(194,111,108)"/>
  <rect x="14" y="8" width="1" height="1" fill="rgb(215,106,101)"/>
  <rect x="15" y="8" width="1" height="1" fill="rgb(72,68,68)"/>
  <rect x="16" y="8" width="1" height="1" fill="rgb(67,67,67)"/>
  <rect x="17" y="8" width="1" height="1" fill="rgb(32,32,32)" fill-opacity="0.8984375"/>
  <rect x="18" y="8" width="3" height="1" fill="rgb(255,255,255)" fill-opacity="0.0078125"/>
  <rect x="0" y="9" width="4" height="1" fill="rgb(255,255,255)" fill-opacity="0.0078125"/>
  <rect x="4" y="9" width="1" height="1" fill="rgb(26,26,26)" fill-opacity="0.890625"/>
  <rect x="5" y="9" width="1" height="1" fill="rgb(127,127,127)"/>
  <rect x="6" y="9" width="1" height="1" fill="rgb(44,42,40)"/>
  <rect x="7" y="9" width="1" height="1" fill="rgb(255,190,118)"/>
  <rect x="8" y="9" width="1" height="1" fill="rgb(62,56,52)"/>
  <rect x="9" y="9" width="1" height="1" fill="rgb(42,42,42)"/>
  <rect x="10" y="9" width="1" height="1" fill="rgb(47,47,47)"/>
  <rect x="11" y="9" width="1" height="1" fill="rgb(51,51,51)"/>
  <rect x="12" y="9" width="1" height="1" fill="rgb(55,55,55)"/>
  <rect x="13" y="9" width="1" height="1" fill="rgb(69,66,66)"/>
  <rect x="14" y="9" width="1" height="1" fill="rgb(182,124,134)"/>
  <rect x="15" y="9" width="1" height="1" fill="rgb(84,78,78)"/>
  <rect x="16" y="9" width="1" height="1" fill="rgb(71,71,71)"/>
  <rect x="17" y="9" width="1" height="1" fill="rgb(32,32,32)" fill-opacity="0.8984375"/>
  <rect x="18" y="9" width="3" height="1" fill="rgb(255,255,255)" fill-opacity="0.0078125"/>
  <rect x="0" y="10" width="4" height="1" fill="rgb(255,255,255)" fill-opacity="0.0078125"/>
  <rect x="4" y="10" width="1" height="1" fill="rgb(26,26,26)" fill-opacity="0.890625"/>
  <rect x="5" y="10" width="1" height="1" fill="rgb(121,121,121)"/>
  <rect x="6" y="10" width="1" height="1" fill="rgb(46,46,43)"/>
  <rect x="7" y="10" width="1" height="1" fill="rgb(229,215,152)"/>
  <rect x="8" y="10" width="1" height="1" fill="rgb(59,58,56)"/>
  <rect x="9" y="10" width="1" height="1" fill="rgb(47,47,47)"/>
  <rect x="10" y="10" width="1" height="1" fill="rgb(51,51,51)"/>
  <rect x="11" y="10" width="1" height="1" fill="rgb(55,55,55)"/>
  <rect x="12" y="10" width="1" height="1" fill="rgb(59,59,59)"/>
  <rect x="13" y="10" width="1" height="1" fill="rgb(71,70,71)"/>
  <rect x="14" y="10" width="1" height="1" fill="rgb(150,149,175)"/>
  <rect x="15" y="10" width="1" height="1" fill="rgb(87,83,84)"/>
  <rect x="16" y="10" width="1" height="1" fill="rgb(76,76,76)"/>
  <rect x="17" y="10" width="1" height="1" fill="rgb(33,33,33)" fill-opacity="0.8984375"/>
  <rect x="18" y="10" width="3" height="1" fill="rgb(255,255,255)" fill-opacity="0.0078125"/>
  <rect x="0" y="11" width="4" height="1" fill="rgb(255,255,255)" fill-opacity="0.0078125"/>
  <rect x="4" y="11" width="1" height="1" fill="rgb(26,26,26)" fill-opacity="0.890625"/>
  <rect x="5" y="11" width="1" height="1" fill="rgb(115,115,115)"/>
  <rect x="6" y="11" width="1" height="1" fill="rgb(48,53,47)"/>
  <rect x="7" y="11" width="1" height="1" fill="rgb(144,244,134)"/>
  <rect x="8" y="11" width="1" height="1" fill="rgb(58,65,61)"/>
  <rect x="9" y="11" width="1" height="1" fill="rgb(51,51,51)"/>
  <rect x="10" y="11" width="1" height="1" fill="rgb(55,55,55)"/>
  <rect x="11" y="11" width="1" height="1" fill="rgb(59,59,59)"/>
  <rect x="12" y="11" width="1" height="1" fill="rgb(63,63,63)"/>
  <rect x="13" y="11" width="1" height="1" fill="rgb(74,74,76)"/>
  <rect x="14" y="11" width="1" height="1" fill="rgb(120,169,209)"/>
  <rect x="15" y="11" width="1" height="1" fill="rgb(89,88,90)"/>
  <rect x="16" y="11" width="1" height="1" fill="rgb(80,80,80)"/>
  <rect x="17" y="11" width="1" height="1" fill="rgb(33,33,33)" fill-opacity="0.8984375"/>
  <rect x="18" y="11" width="3" height="1" fill="rgb(255,255,255)" fill-opacity="0.0078125"/>
  <rect x="0" y="12" width="4" height="1" fill="rgb(255,255,255)" fill-opacity="0.0078125"/>
  <rect x="4" y="12" width="1" height="1" fill="rgb(27,27,27)" fill-opacity="0.890625"/>
  <rect x="5" y="12" width="1" height="1" fill="rgb(109,109,109)"/>
  <rect x="6" y="12" width="1" height="1" fill="rgb(50,59,49)"/>
  <rect x="7" y="12" width="1" height="1" fill="rgb(73,252,67)"/>
  <rect x="8" y="12" width="1" height="1" fill="rgb(61,72,65)"/>
  <rect x="9" y="12" width="1" height="1" fill="rgb(55,55,55)"/>
  <rect x="10" y="12" width="1" height="1" fill="rgb(59,59,59)"/>
  <rect x="11" y="12" width="1" height="1" fill="rgb(63,63,63)"/>
  <rect x="12" y="12" width="1" height="1" fill="rgb(67,67,67)"/>
  <rect x="13" y="12" width="1" height="1" fill="rgb(77,79,81)"/>
  <rect x="14" y="12" width="1" height="1" fill="rgb(95,182,235)"/>
  <rect x="15" y="12" width="1" height="1" fill="rgb(91,93,95)"/>
  <rect x="16" y="12" width="1" height="1" fill="rgb(84,84,84)"/>
  <rect x="17" y="12" width="1" height="1" fill="rgb(35,35,35)" fill-opacity="0.8984375"/>
  <rect x="18" y="12" width="3" height="1" fill="rgb(255,255,255)" fill-opacity="0.0078125"/>
  <rect x="0" y="13" width="4" height="1" fill="rgb(255,255,255)" fill-opacity="0.0078125"/>
  <rect x="4" y="13" width="1" height="1" fill="rgb(27,27,27)" fill-opacity="0.890625"/>
  <rect x="5" y="13" width="1" height="1" fill="rgb(105,105,105)"/>
  <rect x="6" y="13" width="1" height="1" fill="rgb(50,56,50)"/>
  <rect x="7" y="13" width="1" height="1" fill="rgb(44,251,31)"/>
  <rect x="8" y="13" width="1" height="1" fill="rgb(94,215,116)"/>
  <rect x="9" y="13" width="1" height="1" fill="rgb(87,123,111)"/>
  <rect x="10" y="13" width="1" height="1" fill="rgb(63,63,63)"/>
  <rect x="11" y="13" width="1" height="1" fill="rgb(67,67,67)"/>
  <rect x="12" y="13" width="1" height="1" fill="rgb(90,124,141)"/>
  <rect x="13" y="13" width="1" height="1" fill="rgb(88,179,226)"/>
  <rect x="14" y="13" width="1" height="1" fill="rgb(84,192,248)"/>
  <rect x="15" y="13" width="1" height="1" fill="rgb(88,90,91)"/>
  <rect x="16" y="13" width="1" height="1" fill="rgb(88,88,88)"/>
  <rect x="17" y="13" width="1" height="1" fill="rgb(35,35,35)" fill-opacity="0.8984375"/>
  <rect x="18" y="13" width="3" height="1" fill="rgb(255,255,255)" fill-opacity="0.0078125"/>
  <rect x="0" y="14" width="4" height="1" fill="rgb(255,255,255)" fill-opacity="0.0078125"/>
  <rect x="4" y="14" width="1" height="1" fill="rgb(28,28,28)" fill-opacity="0.890625"/>
  <rect x="5" y="14" width="1" height="1" fill="rgb(99,99,99)"/>
  <rect x="6" y="14" width="1" height="1" fill="rgb(53,53,53)"/>
  <rect x="7" y="14" width="1" height="1" fill="rgb(70,89,73)"/>
  <rect x="8" y="14" width="1" height="1" fill="rgb(105,185,132)"/>
  <rect x="9" y="14" width="1" height="1" fill="rgb(109,217,195)"/>
  <rect x="10" y="14" width="1" height="1" fill="rgb(105,193,238)"/>
  <rect x="11" y="14" width="1" height="1" fill="rgb(77,186,242)"/>
  <rect x="12" y="14" width="1" height="1" fill="rgb(31,177,253)"/>
  <rect x="13" y="14" width="1" height="1" fill="rgb(94,170,209)"/>
  <rect x="14" y="14" width="1" height="1" fill="rgb(95,108,115)"/>
  <rect x="15" y="14" width="1" height="1" fill="rgb(88,88,88)"/>
  <rect x="16" y="14" width="1" height="1" fill="rgb(92,92,92)"/>
  <rect x="17" y="14" width="1" height="1" fill="rgb(35,35,35)" fill-opacity="0.8984375"/>
  <rect x="18" y="14" width="3" height="1" fill="rgb(255,255,255)" fill-opacity="0.0078125"/>
  <rect x="0" y="15" width="4" height="1" fill="rgb(255,255,255)" fill-opacity="0.0078125"/>
  <rect x="4" y="15" width="1" height="1" fill="rgb(28,28,28)" fill-opacity="0.890625"/>
  <rect x="5" y="15" width="1" height="1" fill="rgb(95,95,95)"/>
  <rect x="6" y="15" width="1" height="1" fill="rgb(56,56,56)"/>
  <rect x="7" y="15" width="1" height="1" fill="rgb(59,59,59)"/>
  <rect x="8" y="15" width="1" height="1" fill="rgb(63,63,63)"/>
  <rect x="9" y="15" width="1" height="1" fill="rgb(70,72,73)"/>
  <rect x="10" y="15" width="1" height="1" fill="rgb(107,143,162)"/>
  <rect x="11" y="15" width="1" height="1" fill="rgb(103,148,172)"/>
  <rect x="12" y="15" width="1" height="1" fill="rgb(83,87,89)"/>
  <rect x="13" y="15" width="1" height="1" fill="rgb(84,84,84)"/>
  <rect x="14" y="15" width="1" height="1" fill="rgb(88,88,88)"/>
  <rect x="15" y="15" width="1" height="1" fill="rgb(92,92,92)"/>
  <rect x="16" y="15" width="1" height="1" fill="rgb(96,96,96)"/>
  <rect x="17" y="15" width="1" height="1" fill="rgb(36,36,36)" fill-opacity="0.8984375"/>
  <rect x="18" y="15" width="3" height="1" fill="rgb(255,255,255)" fill-opacity="0.0078125"/>
  <rect x="0" y="16" width="4" height="1" fill="rgb(255,255,255)" fill-opacity="0.0078125"/>
  <rect x="4" y="16" width="1" height="1" fill="rgb(29,29,29)" fill-opacity="0.890625"/>
  <rect x="5" y="16" width="1" height="1" fill="rgb(86,86,86)"/>
  <rect x="6" y="16" width="1" height="1" fill="rgb(60,60,60)"/>
  <rect x="7" y="16" width="1" height="1" fill="rgb(63,63,63)"/>
  <rect x="8" y="16" width="1" height="1" fill="rgb(67,67,67)"/>
  <rect x="9" y="16" width="1" height="1" fill="rgb(71,71,71)"/>
  <rect x="10" y="16" width="1" height="1" fill="rgb(75,75,75)"/>
  <rect x="11" y="16" width="1" height="1" fill="rgb(80,80,80)"/>
  <rect x="12" y="16" width="1" height="1" fill="rgb(84,84,84)"/>
  <rect x="13" y="16" width="1" height="1" fill="rgb(88,88,88)"/>
  <rect x="14" y="16" width="1" height="1" fill="rgb(92,92,92)"/>
  <rect x="15" y="16" width="1" height="1" fill="rgb(96,96,96)"/>
  <rect x="16" y="16" width="1" height="1" fill="rgb(100,100,100)"/>
  <rect x="17" y="16" width="1" height="1" fill="rgb(36,36,36)" fill-opacity="0.8984375"/>
  <rect x="18" y="16" width="3" height="1" fill="rgb(255,255,255)" fill-opacity="0.0078125"/>
  <rect x="0" y="17" width="4" height="1" fill="rgb(255,255,255)" fill-opacity="0.0078125"/>
  <rect x="4" y="17" width="1" height="1" fill="rgb(28,28,28)" fill-opacity="0.7734375"/>
  <rect x="5" y="17" width="3" height="1" fill="rgb(30,30,30)" fill-opacity="0.9140625"/>
  <rect x="8" y="17" width="2" height="1" fill="rgb(31,31,31)" fill-opacity="0.9140625"/>
  <rect x="10" y="17" width="3" height="1" fill="rgb(32,32,32)" fill-opacity="0.9140625"/>
  <rect x="13" y="17" width="3" height="1" fill="rgb(33,33,33)" fill-opacity="0.9140625"/>
  <rect x="16" y="17" width="1" height="1" fill="rgb(34,34,34)" fill-opacity="0.9140625"/>
  <rect x="17" y="17" width="1" height="1" fill="rgb(34,34,34)" fill-opacity="0.8046875"/>
  <rect x="18" y="17" width="3" height="1" fill="rgb(255,255,255)" fill-opacity="0.0078125"/>
  <rect x="0" y="18" width="21" height="1" fill="rgb(255,255,255)" fill-opacity="0.0078125"/>
  <rect x="0" y="19" width="21" height="1" fill="rgb(255,255,255)" fill-opacity="0.0078125"/>
  <rect x="0" y="20" width="21" height="1" fill="rgb(255,255,255)" fill-opacity="0.0078125"/>
</svg>