<svg xmlns="http://www.w3.org/2000/svg" shape-rendering="crispEdges" width="21" height="21" viewBox="0 0 21 21">
  <rect x="0" y="0" width="1" height="21" fill="rgb(255,255,255)" fill-opacity="0.0078125"/>
  <rect x="1" y="0" width="1" height="21" fill="rgb(255,255,255)" fill-opacity="0.0078125"/>
  <rect x="2" y="0" width="1" height="21" fill="rgb(255,255,255)" fill-opacity="0.0078125"/>
  <rect x="3" y="0" width="1" height="21" fill="rgb(255,255,255)" fill-opacity="0.0078125"/>
  <rect x="4" y="0" width="1" height="6" fill="rgb(255,255,255)" fill-opacity="0.0078125"/>
  <rect x="4" y="6" width="1" height="1" fill="rgb(0,0,0)" fill-opacity="0.078125"/>
  <rect x="4" y="7" width="1" height="1" fill="rgb(27,47,74)" fill-opacity="0.8125"/>
  <rect x="4" y="8" width="1" height="1" fill="rgb(37,59,92)"/>
  <rect x="4" y="9" width="1" height="1" fill="rgb(51,72,102)"/>
  <rect x="4" y="10" width="1" height="1" fill="rgb(50,71,101)"/>
  <rect x="4" y="11" width="1" height="1" fill="rgb(49,69,101)"/>
  <rect x="4" y="12" width="1" height="1" fill="rgb(47,67,99)"/>
  <rect x="4" y="13" width="1" height="1" fill="rgb(46,66,98)"/>
  <rect x="4" y="14" width="1" height="1" fill="rgb(40,62,94)"/>
  <rect x="4" y="15" width="1" height="1" fill="rgb(22,44,80)" fill-opacity="0.765625"/>
  <rect x="4" y="16" width="1" height="1" fill="rgb(0,64,64)" fill-opacity="0.0234375"/>
  <rect x="4" y="17" width="1" height="4" fill="rgb(255,255,255)" fill-opacity="0.0078125"/>
  <rect x="5" y="0" width="1" height="6" fill="rgb(255,255,255)" fill-opacity="0.0078125"/>
  <rect x="5" y="6" width="1" height="1" fill="rgb(104,80,36)" fill-opacity="0.3671875"/>
  <rect x="5" y="7" width="1" height="1" fill="rgb(40,57,80)" fill-opacity="0.9765625"/>
  <rect x="5" y="8" width="1" height="1" fill="rgb(201,210,224)"/>
  <rect x="5" y="9" width="1" height="1" fill="rgb(185,196,214)"/>
  <rect x="5" y="10" width="1" height="1" fill="rgb(219,226,238)"/>
  <rect x="5" y="11" width="1" height="1" fill="rgb(233,239,248)"/>
  <rect x="5" y="12" width="1" height="1" fill="rgb(148,166,193)"/>
  <rect x="5" y="13" width="1" height="1" fill="rgb(141,160,189)"/>
  <rect x="5" y="14" width="1" height="1" fill="rgb(224,233,245)"/>
  <rect x="5" y="15" width="1" height="1" fill="rgb(99,117,144)"/>
  <rect x="5" y="16" width="1" height="1" fill="rgb(23,46,79)" fill-opacity="0.3984375"/>
  <rect x="5" y="17" width="1" height="4" fill="rgb(255,255,255)" fill-opacity="0.0078125"/>
  <rect x="6" y="0" width="1" height="5" fill="rgb(255,255,255)" fill-opacity="0.0078125"/>
  <rect x="6" y="5" width="1" height="1" fill="rgb(0,0,0)" fill-opacity="0.09375"/>
  <rect x="6" y="6" width="1" height="1" fill="rgb(208,162,69)" fill-opacity="0.625"/>
  <rect x="6" y="7" width="1" height="1" fill="rgb(93,87,71)" fill-opacity="0.75"/>
  <rect x="6" y="8" width="1" height="1" fill="rgb(136,152,174)"/>
  <rect x="6" y="9" width="1" height="1" fill="rgb(138,157,187)"/>
  <rect x="6" y="10" width="1" height="1" fill="rgb(175,191,216)"/>
  <rect x="6" y="11" width="1" height="1" fill="rgb(214,226,243)"/>
  <rect x="6" y="12" width="1" height="2" fill="rgb(34,70,126)"/>
  <rect x="6" y="14" width="1" height="1" fill="rgb(198,214,237)"/>
  <rect x="6" y="15" width="1" height="1" fill="rgb(200,210,224)"/>
  <rect x="6" y="16" width="1" height="1" fill="rgb(22,44,80)" fill-opacity="0.921875"/>
  <rect x="6" y="17" width="1" height="1" fill="rgb(0,64,64)" fill-opacity="0.0234375"/>
  <rect x="6" y="18" width="1" height="3" fill="rgb(255,255,255)" fill-opacity="0.0078125"/>
  <rect x="7" y="0" width="1" height="5" fill="rgb(255,255,255)" fill-opacity="0.0078125"/>
  <rect x="7" y="5" width="1" height="1" fill="rgb(74,60,23)" fill-opacity="0.3046875"/>
  <rect x="7" y="6" width="1" height="1" fill="rgb(249,193,82)" fill-opacity="0.78125"/>
  <rect x="7" y="7" width="1" height="1" fill="rgb(55,48,31)" fill-opacity="0.296875"/>
  <rect x="7" y="8" width="1" height="1" fill="rgb(27,49,84)" fill-opacity="0.9609375"/>
  <rect x="7" y="9" width="1" height="1" fill="rgb(241,243,246)"/>
  <rect x="7" y="10" width="1" height="1" fill="rgb(40,75,130)"/>
  <rect x="7" y="11" width="1" height="1" fill="rgb(34,70,126)"/>
  <rect x="7" y="12" width="1" height="1" fill="rgb(217,228,244)"/>
  <rect x="7" y="13" width="1" height="1" fill="rgb(210,223,242)"/>
  <rect x="7" y="14" width="1" height="1" fill="rgb(34,70,126)"/>
  <rect x="7" y="15" width="1" height="1" fill="rgb(111,135,171)"/>
  <rect x="7" y="16" width="1" height="1" fill="rgb(96,114,141)"/>
  <rect x="7" y="17" width="1" height="1" fill="rgb(23,46,79)" fill-opacity="0.3984375"/>
  <rect x="7" y="18" width="1" height="3" fill="rgb(255,255,255)" fill-opacity="0.0078125"/>
  <rect x="8" y="0" width="1" height="4" fill="rgb(255,255,255)" fill-opacity="0.0078125"/>
  <rect x="8" y="4" width="1" height="1" fill="rgb(0,0,0)" fill-opacity="0.0703125"/>
  <rect x="8" y="5" width="1" height="1" fill="rgb(191,148,64)" fill-opacity="0.5859375"/>
  <rect x="8" y="6" width="1" height="1" fill="rgb(200,156,66)" fill-opacity="0.609375"/>
  <rect x="8" y="7" width="1" height="1" fill="rgb(0,0,0)" fill-opacity="0.078125"/>
  <rect x="8" y="8" width="1" height="1" fill="rgb(23,46,80)" fill-opacity="0.53125"/>
  <rect x="8" y="9" width="1" height="1" fill="rgb(167,177,191)"/>
  <rect x="8" y="10" width="1" height="1" fill="rgb(109,133,170)"/>
  <rect x="8" y="11" width="1" height="1" fill="rgb(34,70,126)"/>
  <rect x="8" y="12" width="1" height="1" fill="rgb(226,234,247)"/>
  <rect x="8" y="13" width="1" height="1" fill="rgb(220,230,245)"/>
  <rect x="8" y="14" width="1" height="1" fill="rgb(34,70,126)"/>
  <rect x="8" y="15" width="1" height="1" fill="rgb(47,81,134)"/>
  <rect x="8" y="16" width="1" height="1" fill="rgb(196,206,221)"/>
  <rect x="8" y="17" width="1" height="1" fill="rgb(22,44,80)" fill-opacity="0.921875"/>
  <rect x="8" y="18" width="1" height="1" fill="rgb(0,64,64)" fill-opacity="0.0234375"/>
  <rect x="8" y="19" width="1" height="2" fill="rgb(255,255,255)" fill-opacity="0.0078125"/>
  <rect x="9" y="0" width="1" height="4" fill="rgb(255,255,255)" fill-opacity="0.0078125"/>
  <rect x="9" y="4" width="1" height="1" fill="rgb(46,38,17)" fill-opacity="0.2421875"/>
  <rect x="9" y="5" width="1" height="1" fill="rgb(248,194,83)" fill-opacity="0.7734375"/>
  <rect x="9" y="6" width="1" height="1" fill="rgb(91,70,30)" fill-opacity="0.3359375"/>
  <rect x="9" y="7" width="1" height="1" fill="rgb(255,255,255)" fill-opacity="0.0078125"/>
  <rect x="9" y="8" width="1" height="1" fill="rgb(28,43,85)" fill-opacity="0.078125"/>
  <rect x="9" y="9" width="1" height="1" fill="rgb(39,60,92)" fill-opacity="0.984375"/>
  <rect x="9" y="10" width="1" height="1" fill="rgb(246,247,249)"/>
  <rect x="9" y="11" width="1" height="1" fill="rgb(242,246,253)"/>
  <rect x="9" y="12" width="1" height="2" fill="rgb(34,70,126)"/>
  <rect x="9" y="14" width="1" height="1" fill="rgb(222,231,246)"/>
  <rect x="9" y="15" width="1" height="1" fill="rgb(215,227,244)"/>
  <rect x="9" y="16" width="1" height="1" fill="rgb(98,124,163)"/>
  <rect x="9" y="17" width="1" height="1" fill="rgb(79,102,141)"/>
  <rect x="9" y="18" width="1" height="1" fill="rgb(23,46,79)" fill-opacity="0.3984375"/>
  <rect x="9" y="19" width="1" height="2" fill="rgb(255,255,255)" fill-opacity="0.0078125"/>
  <rect x="10" y="0" width="1" height="3" fill="rgb(255,255,255)" fill-opacity="0.0078125"/>
  <rect x="10" y="3" width="1" height="1" fill="rgb(30,60,90)" fill-opacity="0.0703125"/>
  <rect x="10" y="4" width="1" height="1" fill="rgb(106,98,78)" fill-opacity="0.859375"/>
  <rect x="10" y="5" width="1" height="1" fill="rgb(160,136,84)" fill-opacity="0.921875"/>
  <rect x="10" y="6" width="1" height="1" fill="rgb(26,53,96)" fill-opacity="0.7734375"/>
  <rect x="10" y="7" width="1" height="1" fill="rgb(30,63,113)" fill-opacity="0.703125"/>
  <rect x="10" y="8" width="1" height="1" fill="rgb(30,62,113)" fill-opacity="0.671875"/>
  <rect x="10" y="9" width="1" height="1" fill="rgb(24,49,88)" fill-opacity="0.8671875"/>
  <rect x="10" y="10" width="1" height="1" fill="rgb(182,190,202)"/>
  <rect x="10" y="11" width="1" height="1" fill="rgb(252,253,255)"/>
  <rect x="10" y="12" width="1" height="1" fill="rgb(130,151,182)"/>
  <rect x="10" y="13" width="1" height="1" fill="rgb(123,145,178)"/>
  <rect x="10" y="14" width="1" height="1" fill="rgb(240,244,251)"/>
  <rect x="10" y="15" width="1" height="1" fill="rgb(235,241,250)"/>
  <rect x="10" y="16" width="1" height="1" fill="rgb(110,134,171)"/>
  <rect x="10" y="17" width="1" height="1" fill="rgb(107,131,169)"/>
  <rect x="10" y="18" width="1" height="1" fill="rgb(20,43,77)" fill-opacity="0.9140625"/>
  <rect x="10" y="19" width="1" height="2" fill="rgb(255,255,255)" fill-opacity="0.0078125"/>
  <rect x="11" y="0" width="1" height="3" fill="rgb(255,255,255)" fill-opacity="0.0078125"/>
  <rect x="11" y="3" width="1" height="1" fill="rgb(26,64,115)" fill-opacity="0.0859375"/>
  <rect x="11" y="4" width="1" height="1" fill="rgb(42,63,96)" fill-opacity="0.90625"/>
  <rect x="11" y="5" width="1" height="1" fill="rgb(163,172,184)"/>
  <rect x="11" y="6" width="1" height="1" fill="rgb(174,196,228)"/>
  <rect x="11" y="7" width="1" height="1" fill="rgb(168,192,227)"/>
  <rect x="11" y="8" width="1" height="1" fill="rgb(160,186,224)"/>
  <rect x="11" y="9" width="1" height="1" fill="rgb(123,142,166)"/>
  <rect x="11" y="10" width="1" height="1" fill="rgb(43,62,89)"/>
  <rect x="11" y="11" width="1" height="1" fill="rgb(43,65,96)"/>
  <rect x="11" y="12" width="1" height="1" fill="rgb(41,63,95)"/>
  <rect x="11" y="13" width="1" height="1" fill="rgb(40,62,94)"/>
  <rect x="11" y="14" width="1" height="1" fill="rgb(38,60,93)"/>
  <rect x="11" y="15" width="1" height="1" fill="rgb(36,58,91)"/>
  <rect x="11" y="16" width="1" height="1" fill="rgb(35,56,88)"/>
  <rect x="11" y="17" width="1" height="1" fill="rgb(67,74,82)"/>
  <rect x="11" y="18" width="1" height="1" fill="rgb(87,82,63)" fill-opacity="0.8671875"/>
  <rect x="11" y="19" width="1" height="1" fill="rgb(0,0,0)" fill-opacity="0.015625"/>
  <rect x="11" y="20" width="1" height="1" fill="rgb(255,255,255)" fill-opacity="0.0078125"/>
  <rect x="12" y="0" width="1" height="4" fill="rgb(255,255,255)" fill-opacity="0.0078125"/>
  <rect x="12" y="4" width="1" height="1" fill="rgb(30,63,112)" fill-opacity="0.609375"/>
  <rect x="12" y="5" width="1" height="1" fill="rgb(142,163,195)" fill-opacity="0.984375"/>
  <rect x="12" y="6" width="1" height="1" fill="rgb(150,179,221)"/>
  <rect x="12" y="7" width="1" height="1" fill="rgb(137,170,217)"/>
  <rect x="12" y="8" width="1" height="1" fill="rgb(121,153,199)"/>
  <rect x="12" y="9" width="1" height="1" fill="rgb(162,160,146)"/>
  <rect x="12" y="10" width="1" height="1" fill="rgb(149,152,147)"/>
  <rect x="12" y="11" width="1" height="1" fill="rgb(107,144,198)"/>
  <rect x="12" y="12" width="1" height="1" fill="rgb(70,103,153)" fill-opacity="0.90625"/>
  <rect x="12" y="13" width="1" height="1" fill="rgb(30,63,112)" fill-opacity="0.3671875"/>
  <rect x="12" y="14" width="1" height="2" fill="rgb(255,255,255)" fill-opacity="0.0078125"/>
  <rect x="12" y="16" width="1" height="1" fill="rgb(87,66,30)" fill-opacity="0.3359375"/>
  <rect x="12" y="17" width="1" height="1" fill="rgb(247,191,82)" fill-opacity="0.765625"/>
  <rect x="12" y="18" width="1" height="1" fill="rgb(62,47,22)" fill-opacity="0.28125"/>
  <rect x="12" y="19" width="1" height="2" fill="rgb(255,255,255)" fill-opacity="0.0078125"/>
  <rect x="13" y="0" width="1" height="4" fill="rgb(255,255,255)" fill-opacity="0.0078125"/>
  <rect x="13" y="4" width="1" height="1" fill="rgb(31,62,114)" fill-opacity="0.1953125"/>
  <rect x="13" y="5" width="1" height="1" fill="rgb(53,83,129)" fill-opacity="0.9609375"/>
  <rect x="13" y="6" width="1" height="1" fill="rgb(179,199,230)"/>
  <rect x="13" y="7" width="1" height="1" fill="rgb(145,175,219)"/>
  <rect x="13" y="8" width="1" height="1" fill="rgb(128,146,169)"/>
  <rect x="13" y="9" width="1" height="1" fill="rgb(197,181,140)"/>
  <rect x="13" y="10" width="1" height="1" fill="rgb(112,139,177)"/>
  <rect x="13" y="11" width="1" height="1" fill="rgb(121,158,212)"/>
  <rect x="13" y="12" width="1" height="1" fill="rgb(109,147,202)"/>
  <rect x="13" y="13" width="1" height="1" fill="rgb(37,68,118)" fill-opacity="0.6796875"/>
  <rect x="13" y="14" width="1" height="1" fill="rgb(35,58,104)" fill-opacity="0.09375"/>
  <rect x="13" y="15" width="1" height="1" fill="rgb(0,0,0)" fill-opacity="0.1171875"/>
  <rect x="13" y="16" width="1" height="1" fill="rgb(213,166,72)" fill-opacity="0.640625"/>
  <rect x="13" y="17" width="1" height="1" fill="rgb(179,140,60)" fill-opacity="0.5546875"/>
  <rect x="13" y="18" width="1" height="1" fill="rgb(0,0,0)" fill-opacity="0.0625"/>
  <rect x="13" y="19" width="1" height="2" fill="rgb(255,255,255)" fill-opacity="0.0078125"/>
  <rect x="14" y="0" width="1" height="5" fill="rgb(255,255,255)" fill-opacity="0.0078125"/>
  <rect x="14" y="5" width="1" height="1" fill="rgb(30,62,113)" fill-opacity="0.7421875"/>
  <rect x="14" y="6" width="1" height="1" fill="rgb(150,172,203)"/>
  <rect x="14" y="7" width="1" height="1" fill="rgb(141,166,202)"/>
  <rect x="14" y="8" width="1" height="1" fill="rgb(183,174,147)"/>
  <rect x="14" y="9" width="1" height="1" fill="rgb(152,156,155)"/>
  <rect x="14" y="10" width="1" height="1" fill="rgb(131,162,209)"/>
  <rect x="14" y="11" width="1" height="1" fill="rgb(129,164,214)"/>
  <rect x="14" y="12" width="1" height="1" fill="rgb(123,160,212)"/>
  <rect x="14" y="13" width="1" height="1" fill="rgb(75,107,156)" fill-opacity="0.9296875"/>
  <rect x="14" y="14" width="1" height="1" fill="rgb(29,60,111)" fill-opacity="0.421875"/>
  <rect x="14" y="15" width="1" height="1" fill="rgb(111,88,36)" fill-opacity="0.390625"/>
  <rect x="14" y="16" width="1" height="1" fill="rgb(243,190,81)" fill-opacity="0.75"/>
  <rect x="14" y="17" width="1" height="1" fill="rgb(36,27,9)" fill-opacity="0.2265625"/>
  <rect x="14" y="18" width="1" height="3" fill="rgb(255,255,255)" fill-opacity="0.0078125"/>
  <rect x="15" y="0" width="1" height="5" fill="rgb(255,255,255)" fill-opacity="0.0078125"/>
  <rect x="15" y="5" width="1" height="1" fill="rgb(29,61,111)" fill-opacity="0.28125"/>
  <rect x="15" y="6" width="1" height="1" fill="rgb(64,94,139)"/>
  <rect x="15" y="7" width="1" height="1" fill="rgb(162,168,171)"/>
  <rect x="15" y="8" width="1" height="1" fill="rgb(202,185,144)"/>
  <rect x="15" y="9" width="1" height="1" fill="rgb(130,154,189)"/>
  <rect x="15" y="10" width="1" height="1" fill="rgb(143,174,219)"/>
  <rect x="15" y="11" width="1" height="1" fill="rgb(137,170,217)"/>
  <rect x="15" y="12" width="1" height="1" fill="rgb(131,165,215)"/>
  <rect x="15" y="13" width="1" height="1" fill="rgb(119,155,205)"/>
  <rect x="15" y="14" width="1" height="1" fill="rgb(30,56,97)" fill-opacity="0.7734375"/>
  <rect x="15" y="15" width="1" height="1" fill="rgb(217,171,76)" fill-opacity="0.71875"/>
  <rect x="15" y="16" width="1" height="1" fill="rgb(159,124,52)" fill-opacity="0.5078125"/>
  <rect x="15" y="17" width="1" height="1" fill="rgb(0,0,0)" fill-opacity="0.0390625"/>
  <rect x="15" y="18" width="1" height="3" fill="rgb(255,255,255)" fill-opacity="0.0078125"/>
  <rect x="16" y="0" width="1" height="6" fill="rgb(255,255,255)" fill-opacity="0.0078125"/>
  <rect x="16" y="6" width="1" height="1" fill="rgb(26,54,98)" fill-opacity="0.84375"/>
  <rect x="16" y="7" width="1" height="1" fill="rgb(196,179,140)"/>
  <rect x="16" y="8" width="1" height="1" fill="rgb(169,170,166)"/>
  <rect x="16" y="9" width="1" height="1" fill="rgb(171,192,225)"/>
  <rect x="16" y="10" width="1" height="1" fill="rgb(166,191,227)"/>
  <rect x="16" y="11" width="1" height="1" fill="rgb(159,185,224)"/>
  <rect x="16" y="12" width="1" height="1" fill="rgb(151,180,222)"/>
  <rect x="16" y="13" width="1" height="1" fill="rgb(142,173,217)"/>
  <rect x="16" y="14" width="1" height="1" fill="rgb(104,108,107)" fill-opacity="0.96875"/>
  <rect x="16" y="15" width="1" height="1" fill="rgb(207,166,83)" fill-opacity="0.84375"/>
  <rect x="16" y="16" width="1" height="1" fill="rgb(11,11,6)" fill-opacity="0.1796875"/>
  <rect x="16" y="17" width="1" height="4" fill="rgb(255,255,255)" fill-opacity="0.0078125"/>
  <rect x="17" y="0" width="1" height="6" fill="rgb(255,255,255)" fill-opacity="0.0078125"/>
  <rect x="17" y="6" width="1" height="1" fill="rgb(22,48,86)" fill-opacity="0.3203125"/>
  <rect x="17" y="7" width="1" height="1" fill="rgb(74,81,89)" fill-opacity="0.953125"/>
  <rect x="17" y="8" width="1" height="1" fill="rgb(28,56,101)"/>
  <rect x="17" y="9" width="1" height="1" fill="rgb(30,62,112)"/>
  <rect x="17" y="10" width="1" height="1" fill="rgb(30,62,111)" fill-opacity="0.96875"/>
  <rect x="17" y="11" width="1" height="1" fill="rgb(30,62,113)" fill-opacity="0.9375"/>
  <rect x="17" y="12" width="1" height="1" fill="rgb(30,62,112)" fill-opacity="0.8984375"/>
  <rect x="17" y="13" width="1" height="1" fill="rgb(30,62,112)" fill-opacity="0.859375"/>
  <rect x="17" y="14" width="1" height="1" fill="rgb(55,66,80)" fill-opacity="0.8828125"/>
  <rect x="17" y="15" width="1" height="1" fill="rgb(76,74,64)" fill-opacity="0.59375"/>
  <rect x="17" y="16" width="1" height="1" fill="rgb(0,0,0)" fill-opacity="0.0234375"/>
  <rect x="17" y="17" width="1" height="4" fill="rgb(255,255,255)" fill-opacity="0.0078125"/>
  <rect x="18" y="0" width="1" height="7" fill="rgb(255,255,255)" fill-opacity="0.0078125"/>
  <rect x="18" y="7" width="1" height="1" fill="rgb(0,0,0)" fill-opacity="0.0078125"/>
  <rect x="18" y="8" width="1" height="7" fill="rgb(255,255,255)" fill-opacity="0.0078125"/>
  <rect x="18" y="15" width="1" height="1" fill="rgb(0,0,0)" fill-opacity="0.015625"/>
  <rect x="18" y="16" width="1" height="5" fill="rgb(255,255,255)" fill-opacity="0.0078125"/>
  <rect x="19" y="0" width="1" height="21" fill="rgb(255,255,255)" fill-opacity="0.0078125"/>
  <rect x="20" y="0" width="1" height="21" fill="rgb(255,255,255)" fill-opacity="0.0078125"/>
</svg>