<svg xmlns="http://www.w3.org/2000/svg" shape-rendering="crispEdges" width="21" height="21" viewBox="0 0 21 21">
  <rect x="0" y="0" width="21" height="1" fill="rgb(255,255,255)" fill-opacity="0.0078125"/>
  <rect x="0" y="1" width="21" height="1" fill="rgb(255,255,255)" fill-opacity="0.0078125"/>
  <rect x="0" y="2" width="21" height="1" fill="rgb(255,255,255)" fill-opacity="0.0078125"/>
  <rect x="0" y="3" width="9" height="1" fill="rgb(255,255,255)" fill-opacity="0.0078125"/>
  <rect x="9" y="3" width="1" height="1" fill="rgb(202,202,202)"/>
  <rect x="10" y="3" width="1" height="1" fill="rgb(234,234,234)"/>
  <rect x="11" y="3" width="1" height="1" fill="rgb(25,25,25)" fill-opacity="0.84375"/>
  <rect x="12" y="3" width="1" height="1" fill="rgb(0,0,0)" fill-opacity="0.4140625"/>
  <rect x="13" y="3" width="8" height="1" fill="rgb(255,255,255)" fill-opacity="0.0078125"/>
  <rect x="0" y="4" width="9" height="1" fill="rgb(255,255,255)" fill-opacity="0.0078125"/>
  <rect x="9" y="4" width="1" height="1" fill="rgb(132,132,132)"/>
  <rect x="10" y="4" width="2" height="1" fill="rgb(234,234,234)"/>
  <rect x="12" y="4" width="1" height="1" fill="rgb(159,159,159)"/>
  <rect x="13" y="4" width="1" height="1" fill="rgb(26,26,26)" fill-opacity="0.8359375"/>
  <rect x="14" y="4" width="1" height="1" fill="rgb(0,0,0)" fill-opacity="0.09375"/>
  <rect x="15" y="4" width="6" height="1" fill="rgb(255,255,255)" fill-opacity="0.0078125"/>
  <rect x="0" y="5" width="6" height="1" fill="rgb(255,255,255)" fill-opacity="0.0078125"/>
  <rect x="6" y="5" width="1" height="1" fill="rgb(31,82,155)" fill-opacity="0.59375"/>
  <rect x="7" y="5" width="3" height="1" fill="rgb(29,78,149)"/>
  <rect x="10" y="5" width="1" height="1" fill="rgb(132,132,132)"/>
  <rect x="11" y="5" width="1" height="1" fill="rgb(118,118,118)"/>
  <rect x="12" y="5" width="1" height="1" fill="rgb(218,218,218)"/>
  <rect x="13" y="5" width="1" height="1" fill="rgb(202,202,202)"/>
  <rect x="14" y="5" width="1" height="1" fill="rgb(3,3,3)" fill-opacity="0.625"/>
  <rect x="15" y="5" width="6" height="1" fill="rgb(255,255,255)" fill-opacity="0.0078125"/>
  <rect x="0" y="6" width="6" height="1" fill="rgb(255,255,255)" fill-opacity="0.0078125"/>
  <rect x="6" y="6" width="1" height="1" fill="rgb(29,78,149)"/>
  <rect x="7" y="6" width="3" height="1" fill="rgb(78,131,208)"/>
  <rect x="10" y="6" width="1" height="1" fill="rgb(37,62,98)"/>
  <rect x="11" y="6" width="1" height="1" fill="rgb(29,78,149)"/>
  <rect x="12" y="6" width="1" height="1" fill="rgb(90,90,90)"/>
  <rect x="13" y="6" width="1" height="1" fill="rgb(234,234,234)"/>
  <rect x="14" y="6" width="1" height="1" fill="rgb(42,42,42)" fill-opacity="0.8359375"/>
  <rect x="15" y="6" width="6" height="1" fill="rgb(255,255,255)" fill-opacity="0.0078125"/>
  <rect x="0" y="7" width="6" height="1" fill="rgb(255,255,255)" fill-opacity="0.0078125"/>
  <rect x="6" y="7" width="1" height="1" fill="rgb(31,82,155)" fill-opacity="0.59375"/>
  <rect x="7" y="7" width="2" height="1" fill="rgb(29,78,149)"/>
  <rect x="9" y="7" width="1" height="1" fill="rgb(14,35,66)"/>
  <rect x="10" y="7" width="1" height="1" fill="rgb(125,125,125)"/>
  <rect x="11" y="7" width="1" height="1" fill="rgb(111,111,111)"/>
  <rect x="12" y="7" width="1" height="1" fill="rgb(215,215,215)"/>
  <rect x="13" y="7" width="1" height="1" fill="rgb(206,206,206)"/>
  <rect x="14" y="7" width="1" height="1" fill="rgb(3,3,3)" fill-opacity="0.6328125"/>
  <rect x="15" y="7" width="6" height="1" fill="rgb(255,255,255)" fill-opacity="0.0078125"/>
  <rect x="0" y="8" width="7" height="1" fill="rgb(255,255,255)" fill-opacity="0.0078125"/>
  <rect x="7" y="8" width="1" height="1" fill="rgb(0,0,0)" fill-opacity="0.1015625"/>
  <rect x="8" y="8" width="1" height="1" fill="rgb(31,31,31)" fill-opacity="0.8515625"/>
  <rect x="9" y="8" width="1" height="1" fill="rgb(166,166,166)"/>
  <rect x="10" y="8" width="2" height="1" fill="rgb(234,234,234)"/>
  <rect x="12" y="8" width="1" height="1" fill="rgb(166,166,166)"/>
  <rect x="13" y="8" width="1" height="1" fill="rgb(68,0,0)"/>
  <rect x="14" y="8" width="1" height="1" fill="rgb(131,0,0)"/>
  <rect x="15" y="8" width="1" height="1" fill="rgb(145,0,0)" fill-opacity="0.53125"/>
  <rect x="16" y="8" width="5" height="1" fill="rgb(255,255,255)" fill-opacity="0.0078125"/>
  <rect x="0" y="9" width="7" height="1" fill="rgb(255,255,255)" fill-opacity="0.0078125"/>
  <rect x="7" y="9" width="1" height="1" fill="rgb(3,3,3)" fill-opacity="0.6328125"/>
  <rect x="8" y="9" width="1" height="1" fill="rgb(206,206,206)"/>
  <rect x="9" y="9" width="1" height="1" fill="rgb(215,215,215)"/>
  <rect x="10" y="9" width="1" height="1" fill="rgb(111,111,111)"/>
  <rect x="11" y="9" width="1" height="1" fill="rgb(125,125,125)"/>
  <rect x="12" y="9" width="1" height="1" fill="rgb(68,0,0)"/>
  <rect x="13" y="9" width="1" height="1" fill="rgb(226,6,6)"/>
  <rect x="14" y="9" width="1" height="1" fill="rgb(236,6,6)"/>
  <rect x="15" y="9" width="1" height="1" fill="rgb(131,0,0)"/>
  <rect x="16" y="9" width="5" height="1" fill="rgb(255,255,255)" fill-opacity="0.0078125"/>
  <rect x="0" y="10" width="7" height="1" fill="rgb(255,255,255)" fill-opacity="0.0078125"/>
  <rect x="7" y="10" width="1" height="1" fill="rgb(42,42,42)" fill-opacity="0.8359375"/>
  <rect x="8" y="10" width="1" height="1" fill="rgb(234,234,234)"/>
  <rect x="9" y="10" width="1" height="1" fill="rgb(90,90,90)"/>
  <rect x="10" y="10" width="1" height="1" fill="rgb(81,0,0)"/>
  <rect x="11" y="10" width="1" height="1" fill="rgb(68,0,0)"/>
  <rect x="12" y="10" width="3" height="1" fill="rgb(145,0,0)"/>
  <rect x="15" y="10" width="1" height="1" fill="rgb(145,0,0)" fill-opacity="0.453125"/>
  <rect x="16" y="10" width="5" height="1" fill="rgb(255,255,255)" fill-opacity="0.0078125"/>
  <rect x="0" y="11" width="7" height="1" fill="rgb(255,255,255)" fill-opacity="0.0078125"/>
  <rect x="7" y="11" width="1" height="1" fill="rgb(3,3,3)" fill-opacity="0.625"/>
  <rect x="8" y="11" width="1" height="1" fill="rgb(202,202,202)"/>
  <rect x="9" y="11" width="1" height="1" fill="rgb(215,215,215)"/>
  <rect x="10" y="11" width="1" height="1" fill="rgb(118,118,118)"/>
  <rect x="11" y="11" width="1" height="1" fill="rgb(132,132,132)"/>
  <rect x="12" y="11" width="1" height="1" fill="rgb(3,3,3)" fill-opacity="0.7734375"/>
  <rect x="13" y="11" width="8" height="1" fill="rgb(255,255,255)" fill-opacity="0.0078125"/>
  <rect x="0" y="12" width="7" height="1" fill="rgb(255,255,255)" fill-opacity="0.0078125"/>
  <rect x="7" y="12" width="1" height="1" fill="rgb(0,0,0)" fill-opacity="0.09375"/>
  <rect x="8" y="12" width="1" height="1" fill="rgb(26,26,26)" fill-opacity="0.8359375"/>
  <rect x="9" y="12" width="1" height="1" fill="rgb(159,159,159)"/>
  <rect x="10" y="12" width="2" height="1" fill="rgb(232,232,232)"/>
  <rect x="12" y="12" width="1" height="1" fill="rgb(159,159,159)"/>
  <rect x="13" y="12" width="1" height="1" fill="rgb(26,26,26)" fill-opacity="0.8359375"/>
  <rect x="14" y="12" width="1" height="1" fill="rgb(0,0,0)" fill-opacity="0.09375"/>
  <rect x="15" y="12" width="6" height="1" fill="rgb(255,255,255)" fill-opacity="0.0078125"/>
  <rect x="0" y="13" width="6" height="1" fill="rgb(255,255,255)" fill-opacity="0.0078125"/>
  <rect x="6" y="13" width="1" height="1" fill="rgb(31,82,155)" fill-opacity="0.59375"/>
  <rect x="7" y="13" width="2" height="1" fill="rgb(29,78,149)"/>
  <rect x="9" y="13" width="1" height="1" fill="rgb(18,48,91)"/>
  <rect x="10" y="13" width="1" height="1" fill="rgb(26,34,46)"/>
  <rect x="11" y="13" width="1" height="1" fill="rgb(118,118,118)"/>
  <rect x="12" y="13" width="1" height="1" fill="rgb(215,215,215)"/>
  <rect x="13" y="13" width="1" height="1" fill="rgb(202,202,202)"/>
  <rect x="14" y="13" width="1" height="1" fill="rgb(3,3,3)" fill-opacity="0.625"/>
  <rect x="15" y="13" width="6" height="1" fill="rgb(255,255,255)" fill-opacity="0.0078125"/>
  <rect x="0" y="14" width="6" height="1" fill="rgb(255,255,255)" fill-opacity="0.0078125"/>
  <rect x="6" y="14" width="1" height="1" fill="rgb(29,78,149)"/>
  <rect x="7" y="14" width="3" height="1" fill="rgb(78,131,208)"/>
  <rect x="10" y="14" width="1" height="1" fill="rgb(18,48,91)"/>
  <rect x="11" y="14" width="1" height="1" fill="rgb(29,78,149)"/>
  <rect x="12" y="14" width="1" height="1" fill="rgb(90,90,90)"/>
  <rect x="13" y="14" width="1" height="1" fill="rgb(234,234,234)"/>
  <rect x="14" y="14" width="1" height="1" fill="rgb(42,42,42)" fill-opacity="0.8359375"/>
  <rect x="15" y="14" width="6" height="1" fill="rgb(255,255,255)" fill-opacity="0.0078125"/>
  <rect x="0" y="15" width="6" height="1" fill="rgb(255,255,255)" fill-opacity="0.0078125"/>
  <rect x="6" y="15" width="1" height="1" fill="rgb(31,82,155)" fill-opacity="0.59375"/>
  <rect x="7" y="15" width="2" height="1" fill="rgb(29,78,149)"/>
  <rect x="9" y="15" width="1" height="1" fill="rgb(14,35,66)"/>
  <rect x="10" y="15" width="1" height="1" fill="rgb(125,125,125)"/>
  <rect x="11" y="15" width="1" height="1" fill="rgb(111,111,111)"/>
  <rect x="12" y="15" width="1" height="1" fill="rgb(215,215,215)"/>
  <rect x="13" y="15" width="1" height="1" fill="rgb(206,206,206)"/>
  <rect x="14" y="15" width="1" height="1" fill="rgb(3,3,3)" fill-opacity="0.6328125"/>
  <rect x="15" y="15" width="6" height="1" fill="rgb(255,255,255)" fill-opacity="0.0078125"/>
  <rect x="0" y="16" width="8" height="1" fill="rgb(255,255,255)" fill-opacity="0.0078125"/>
  <rect x="8" y="16" width="1" height="1" fill="rgb(0,0,0)" fill-opacity="0.3515625"/>
  <rect x="9" y="16" width="1" height="1" fill="rgb(127,127,127)"/>
  <rect x="10" y="16" width="1" height="1" fill="rgb(233,233,233)"/>
  <rect x="11" y="16" width="1" height="1" fill="rgb(231,231,231)"/>
  <rect x="12" y="16" width="1" height="1" fill="rgb(166,166,166)"/>
  <rect x="13" y="16" width="1" height="1" fill="rgb(59,29,29)"/>
  <rect x="14" y="16" width="1" height="1" fill="rgb(131,0,0)"/>
  <rect x="15" y="16" width="1" height="1" fill="rgb(145,0,0)" fill-opacity="0.59375"/>
  <rect x="16" y="16" width="5" height="1" fill="rgb(255,255,255)" fill-opacity="0.0078125"/>
  <rect x="0" y="17" width="8" height="1" fill="rgb(255,255,255)" fill-opacity="0.0078125"/>
  <rect x="8" y="17" width="1" height="1" fill="rgb(8,6,6)" fill-opacity="0.71875"/>
  <rect x="9" y="17" width="1" height="1" fill="rgb(234,234,234)"/>
  <rect x="10" y="17" width="1" height="1" fill="rgb(141,141,141)"/>
  <rect x="11" y="17" width="1" height="1" fill="rgb(59,29,29)"/>
  <rect x="12" y="17" width="1" height="1" fill="rgb(131,0,0)"/>
  <rect x="13" y="17" width="1" height="1" fill="rgb(226,6,6)"/>
  <rect x="14" y="17" width="1" height="1" fill="rgb(236,6,6)"/>
  <rect x="15" y="17" width="1" height="1" fill="rgb(131,0,0)"/>
  <rect x="16" y="17" width="5" height="1" fill="rgb(255,255,255)" fill-opacity="0.0078125"/>
  <rect x="0" y="18" width="8" height="1" fill="rgb(255,255,255)" fill-opacity="0.0078125"/>
  <rect x="8" y="18" width="1" height="1" fill="rgb(215,215,215)"/>
  <rect x="9" y="18" width="1" height="1" fill="rgb(234,234,234)"/>
  <rect x="10" y="18" width="1" height="1" fill="rgb(215,215,215)"/>
  <rect x="11" y="18" width="4" height="1" fill="rgb(131,0,0)"/>
  <rect x="15" y="18" width="1" height="1" fill="rgb(145,0,0)" fill-opacity="0.59375"/>
  <rect x="16" y="18" width="5" height="1" fill="rgb(255,255,255)" fill-opacity="0.0078125"/>
  <rect x="0" y="19" width="21" height="1" fill="rgb(255,255,255)" fill-opacity="0.0078125"/>
  <rect x="0" y="20" width="21" height="1" fill="rgb(255,255,255)" fill-opacity="0.0078125"/>
</svg>