<svg xmlns="http://www.w3.org/2000/svg" shape-rendering="crispEdges" width="21" height="21" viewBox="0 0 21 21">
  <rect x="0" y="0" width="1" height="21" fill="rgb(255,255,255)" fill-opacity="0.0078125"/>
  <rect x="1" y="0" width="1" height="21" fill="rgb(255,255,255)" fill-opacity="0.0078125"/>
  <rect x="2" y="0" width="1" height="21" fill="rgb(255,255,255)" fill-opacity="0.0078125"/>
  <rect x="3" y="0" width="1" height="8" fill="rgb(255,255,255)" fill-opacity="0.0078125"/>
  <rect x="3" y="8" width="1" height="1" fill="rgb(69,69,69)" fill-opacity="0.40625"/>
  <rect x="3" y="9" width="1" height="1" fill="rgb(69,69,69)" fill-opacity="0.9140625"/>
  <rect x="3" y="10" width="1" height="1" fill="rgb(68,68,68)" fill-opacity="0.9140625"/>
  <rect x="3" y="11" width="1" height="1" fill="rgb(67,67,67)" fill-opacity="0.40625"/>
  <rect x="3" y="12" width="1" height="9" fill="rgb(255,255,255)" fill-opacity="0.0078125"/>
  <rect x="4" y="0" width="1" height="8" fill="rgb(255,255,255)" fill-opacity="0.0078125"/>
  <rect x="4" y="8" width="1" height="1" fill="rgb(69,69,69)" fill-opacity="0.90625"/>
  <rect x="4" y="9" width="1" height="1" fill="rgb(251,251,251)"/>
  <rect x="4" y="10" width="1" height="1" fill="rgb(250,250,250)"/>
  <rect x="4" y="11" width="1" height="1" fill="rgb(65,65,65)" fill-opacity="0.90625"/>
  <rect x="4" y="12" width="1" height="9" fill="rgb(255,255,255)" fill-opacity="0.0078125"/>
  <rect x="5" y="0" width="1" height="8" fill="rgb(255,255,255)" fill-opacity="0.0078125"/>
  <rect x="5" y="8" width="1" height="1" fill="rgb(68,68,68)" fill-opacity="0.8359375"/>
  <rect x="5" y="9" width="1" height="1" fill="rgb(255,255,255)"/>
  <rect x="5" y="10" width="1" height="1" fill="rgb(220,220,220)"/>
  <rect x="5" y="11" width="1" height="1" fill="rgb(85,85,85)" fill-opacity="0.9375"/>
  <rect x="5" y="12" width="1" height="1" fill="rgb(64,64,64)" fill-opacity="0.9140625"/>
  <rect x="5" y="13" width="1" height="1" fill="rgb(64,64,64)" fill-opacity="0.40625"/>
  <rect x="5" y="14" width="1" height="7" fill="rgb(255,255,255)" fill-opacity="0.0078125"/>
  <rect x="6" y="0" width="1" height="7" fill="rgb(255,255,255)" fill-opacity="0.0078125"/>
  <rect x="6" y="7" width="1" height="1" fill="rgb(51,51,51)" fill-opacity="0.1640625"/>
  <rect x="6" y="8" width="1" height="1" fill="rgb(116,116,116)" fill-opacity="0.9296875"/>
  <rect x="6" y="9" width="1" height="1" fill="rgb(252,252,252)"/>
  <rect x="6" y="10" width="1" height="1" fill="rgb(209,209,209)"/>
  <rect x="6" y="11" width="1" height="1" fill="rgb(231,231,231)"/>
  <rect x="6" y="12" width="1" height="1" fill="rgb(243,243,243)"/>
  <rect x="6" y="13" width="1" height="1" fill="rgb(62,62,62)" fill-opacity="0.90625"/>
  <rect x="6" y="14" width="1" height="7" fill="rgb(255,255,255)" fill-opacity="0.0078125"/>
  <rect x="7" y="0" width="1" height="6" fill="rgb(255,255,255)" fill-opacity="0.0078125"/>
  <rect x="7" y="6" width="1" height="1" fill="rgb(51,51,51)" fill-opacity="0.1640625"/>
  <rect x="7" y="7" width="1" height="1" fill="rgb(116,116,116)" fill-opacity="0.9296875"/>
  <rect x="7" y="8" width="1" height="1" fill="rgb(249,249,249)"/>
  <rect x="7" y="9" width="1" height="1" fill="rgb(221,221,221)"/>
  <rect x="7" y="10" width="1" height="1" fill="rgb(150,150,150)"/>
  <rect x="7" y="11" width="1" height="1" fill="rgb(182,182,182)"/>
  <rect x="7" y="12" width="1" height="1" fill="rgb(169,169,169)"/>
  <rect x="7" y="13" width="1" height="1" fill="rgb(61,61,61)" fill-opacity="0.8984375"/>
  <rect x="7" y="14" width="1" height="7" fill="rgb(255,255,255)" fill-opacity="0.0078125"/>
  <rect x="8" y="0" width="1" height="3" fill="rgb(255,255,255)" fill-opacity="0.0078125"/>
  <rect x="8" y="3" width="1" height="1" fill="rgb(66,66,66)" fill-opacity="0.3828125"/>
  <rect x="8" y="4" width="1" height="2" fill="rgb(69,69,69)" fill-opacity="0.8984375"/>
  <rect x="8" y="6" width="1" height="1" fill="rgb(117,117,117)" fill-opacity="0.9375"/>
  <rect x="8" y="7" width="1" height="1" fill="rgb(249,249,249)"/>
  <rect x="8" y="8" width="1" height="1" fill="rgb(221,221,221)"/>
  <rect x="8" y="9" width="1" height="1" fill="rgb(176,176,176)"/>
  <rect x="8" y="10" width="1" height="1" fill="rgb(66,66,66)" fill-opacity="0.9140625"/>
  <rect x="8" y="11" width="1" height="1" fill="rgb(62,62,62)" fill-opacity="0.890625"/>
  <rect x="8" y="12" width="1" height="1" fill="rgb(61,61,61)" fill-opacity="0.890625"/>
  <rect x="8" y="13" width="1" height="1" fill="rgb(59,59,59)" fill-opacity="0.375"/>
  <rect x="8" y="14" width="1" height="7" fill="rgb(255,255,255)" fill-opacity="0.0078125"/>
  <rect x="9" y="0" width="1" height="3" fill="rgb(255,255,255)" fill-opacity="0.0078125"/>
  <rect x="9" y="3" width="1" height="1" fill="rgb(69,69,69)" fill-opacity="0.8984375"/>
  <rect x="9" y="4" width="1" height="1" fill="rgb(252,252,252)"/>
  <rect x="9" y="5" width="1" height="1" fill="rgb(255,255,255)"/>
  <rect x="9" y="6" width="1" height="1" fill="rgb(252,252,252)"/>
  <rect x="9" y="7" width="1" height="1" fill="rgb(222,222,222)"/>
  <rect x="9" y="8" width="1" height="1" fill="rgb(177,177,177)"/>
  <rect x="9" y="9" width="1" height="1" fill="rgb(65,65,65)" fill-opacity="0.90625"/>
  <rect x="9" y="10" width="1" height="1" fill="rgb(51,51,51)" fill-opacity="0.1640625"/>
  <rect x="9" y="11" width="1" height="3" fill="rgb(255,255,255)" fill-opacity="0.0078125"/>
  <rect x="9" y="14" width="1" height="1" fill="rgb(66,66,66)" fill-opacity="0.3828125"/>
  <rect x="9" y="15" width="1" height="1" fill="rgb(69,69,69)" fill-opacity="0.890625"/>
  <rect x="9" y="16" width="1" height="1" fill="rgb(69,69,69)" fill-opacity="0.5546875"/>
  <rect x="9" y="17" width="1" height="4" fill="rgb(255,255,255)" fill-opacity="0.0078125"/>
  <rect x="10" y="0" width="1" height="3" fill="rgb(255,255,255)" fill-opacity="0.0078125"/>
  <rect x="10" y="3" width="1" height="1" fill="rgb(69,69,69)" fill-opacity="0.8984375"/>
  <rect x="10" y="4" width="1" height="1" fill="rgb(251,251,251)"/>
  <rect x="10" y="5" width="1" height="1" fill="rgb(225,225,225)"/>
  <rect x="10" y="6" width="1" height="1" fill="rgb(213,213,213)"/>
  <rect x="10" y="7" width="1" height="1" fill="rgb(153,153,153)"/>
  <rect x="10" y="8" width="1" height="1" fill="rgb(66,66,66)" fill-opacity="0.9140625"/>
  <rect x="10" y="9" width="1" height="1" fill="rgb(51,51,51)" fill-opacity="0.1640625"/>
  <rect x="10" y="10" width="1" height="4" fill="rgb(255,255,255)" fill-opacity="0.0078125"/>
  <rect x="10" y="14" width="1" height="1" fill="rgb(70,70,70)" fill-opacity="0.8671875"/>
  <rect x="10" y="15" width="1" height="1" fill="rgb(242,242,242)"/>
  <rect x="10" y="16" width="1" height="1" fill="rgb(72,72,72)" fill-opacity="0.9296875"/>
  <rect x="10" y="17" width="1" height="1" fill="rgb(57,57,57)" fill-opacity="0.0390625"/>
  <rect x="10" y="18" width="1" height="3" fill="rgb(255,255,255)" fill-opacity="0.0078125"/>
  <rect x="11" y="0" width="1" height="3" fill="rgb(255,255,255)" fill-opacity="0.0078125"/>
  <rect x="11" y="3" width="1" height="1" fill="rgb(66,66,66)" fill-opacity="0.3828125"/>
  <rect x="11" y="4" width="1" height="1" fill="rgb(67,67,67)" fill-opacity="0.8984375"/>
  <rect x="11" y="5" width="1" height="1" fill="rgb(83,83,83)" fill-opacity="0.9375"/>
  <rect x="11" y="6" width="1" height="1" fill="rgb(234,234,234)"/>
  <rect x="11" y="7" width="1" height="1" fill="rgb(186,186,186)"/>
  <rect x="11" y="8" width="1" height="1" fill="rgb(62,62,62)" fill-opacity="0.8984375"/>
  <rect x="11" y="9" width="1" height="4" fill="rgb(255,255,255)" fill-opacity="0.0078125"/>
  <rect x="11" y="13" width="1" height="1" fill="rgb(64,64,64)" fill-opacity="0.0390625"/>
  <rect x="11" y="14" width="1" height="1" fill="rgb(64,64,64)" fill-opacity="0.9296875"/>
  <rect x="11" y="15" width="1" height="1" fill="rgb(234,234,234)"/>
  <rect x="11" y="16" width="1" height="1" fill="rgb(155,155,155)" fill-opacity="0.96875"/>
  <rect x="11" y="17" width="1" height="1" fill="rgb(69,69,69)" fill-opacity="0.9375"/>
  <rect x="11" y="18" width="1" height="1" fill="rgb(67,67,67)" fill-opacity="0.5546875"/>
  <rect x="11" y="19" width="1" height="2" fill="rgb(255,255,255)" fill-opacity="0.0078125"/>
  <rect x="12" y="0" width="1" height="5" fill="rgb(255,255,255)" fill-opacity="0.0078125"/>
  <rect x="12" y="5" width="1" height="1" fill="rgb(64,64,64)" fill-opacity="0.90625"/>
  <rect x="12" y="6" width="1" height="1" fill="rgb(244,244,244)"/>
  <rect x="12" y="7" width="1" height="1" fill="rgb(175,175,175)"/>
  <rect x="12" y="8" width="1" height="1" fill="rgb(62,62,62)" fill-opacity="0.90625"/>
  <rect x="12" y="9" width="1" height="3" fill="rgb(255,255,255)" fill-opacity="0.0078125"/>
  <rect x="12" y="12" width="1" height="1" fill="rgb(57,57,57)" fill-opacity="0.0390625"/>
  <rect x="12" y="13" width="1" height="1" fill="rgb(75,75,75)" fill-opacity="0.796875"/>
  <rect x="12" y="14" width="1" height="1" fill="rgb(229,229,229)" fill-opacity="0.9921875"/>
  <rect x="12" y="15" width="1" height="1" fill="rgb(240,240,240)"/>
  <rect x="12" y="16" width="1" height="1" fill="rgb(210,210,210)"/>
  <rect x="12" y="17" width="1" height="1" fill="rgb(191,191,191)"/>
  <rect x="12" y="18" width="1" height="1" fill="rgb(68,68,68)" fill-opacity="0.78125"/>
  <rect x="12" y="19" width="1" height="2" fill="rgb(255,255,255)" fill-opacity="0.0078125"/>
  <rect x="13" y="0" width="1" height="5" fill="rgb(255,255,255)" fill-opacity="0.0078125"/>
  <rect x="13" y="5" width="1" height="1" fill="rgb(65,65,65)" fill-opacity="0.40625"/>
  <rect x="13" y="6" width="1" height="1" fill="rgb(62,62,62)" fill-opacity="0.8984375"/>
  <rect x="13" y="7" width="1" height="1" fill="rgb(61,61,61)" fill-opacity="0.8984375"/>
  <rect x="13" y="8" width="1" height="1" fill="rgb(60,60,60)" fill-opacity="0.40625"/>
  <rect x="13" y="9" width="1" height="1" fill="rgb(255,255,255)" fill-opacity="0.0078125"/>
  <rect x="13" y="10" width="1" height="1" fill="rgb(68,68,68)" fill-opacity="0.3984375"/>
  <rect x="13" y="11" width="1" height="1" fill="rgb(121,121,121)" fill-opacity="0.8828125"/>
  <rect x="13" y="12" width="1" height="1" fill="rgb(84,84,84)" fill-opacity="0.921875"/>
  <rect x="13" y="13" width="1" height="1" fill="rgb(231,231,231)"/>
  <rect x="13" y="14" width="1" height="1" fill="rgb(248,248,248)"/>
  <rect x="13" y="15" width="1" height="1" fill="rgb(162,162,162)" fill-opacity="0.9765625"/>
  <rect x="13" y="16" width="1" height="1" fill="rgb(62,62,62)" fill-opacity="0.9140625"/>
  <rect x="13" y="17" width="1" height="1" fill="rgb(67,67,67)" fill-opacity="0.890625"/>
  <rect x="13" y="18" width="1" height="1" fill="rgb(65,65,65)" fill-opacity="0.40625"/>
  <rect x="13" y="19" width="1" height="2" fill="rgb(255,255,255)" fill-opacity="0.0078125"/>
  <rect x="14" y="0" width="1" height="10" fill="rgb(255,255,255)" fill-opacity="0.0078125"/>
  <rect x="14" y="10" width="1" height="1" fill="rgb(81,81,81)" fill-opacity="0.8984375"/>
  <rect x="14" y="11" width="1" height="1" fill="rgb(245,245,245)"/>
  <rect x="14" y="12" width="1" height="1" fill="rgb(250,250,250)"/>
  <rect x="14" y="13" width="1" height="1" fill="rgb(246,246,246)"/>
  <rect x="14" y="14" width="1" height="1" fill="rgb(170,170,170)" fill-opacity="0.984375"/>
  <rect x="14" y="15" width="1" height="1" fill="rgb(67,67,67)" fill-opacity="0.8046875"/>
  <rect x="14" y="16" width="1" height="1" fill="rgb(51,51,51)" fill-opacity="0.046875"/>
  <rect x="14" y="17" width="1" height="4" fill="rgb(255,255,255)" fill-opacity="0.0078125"/>
  <rect x="15" y="0" width="1" height="10" fill="rgb(255,255,255)" fill-opacity="0.0078125"/>
  <rect x="15" y="10" width="1" height="1" fill="rgb(71,71,71)" fill-opacity="0.4375"/>
  <rect x="15" y="11" width="1" height="1" fill="rgb(70,70,70)" fill-opacity="0.859375"/>
  <rect x="15" y="12" width="1" height="1" fill="rgb(125,125,125)" fill-opacity="0.9375"/>
  <rect x="15" y="13" width="1" height="1" fill="rgb(240,240,240)"/>
  <rect x="15" y="14" width="1" height="1" fill="rgb(68,68,68)" fill-opacity="0.9140625"/>
  <rect x="15" y="15" width="1" height="1" fill="rgb(51,51,51)" fill-opacity="0.046875"/>
  <rect x="15" y="16" width="1" height="5" fill="rgb(255,255,255)" fill-opacity="0.0078125"/>
  <rect x="16" y="0" width="1" height="12" fill="rgb(255,255,255)" fill-opacity="0.0078125"/>
  <rect x="16" y="12" width="1" height="1" fill="rgb(71,71,71)" fill-opacity="0.8515625"/>
  <rect x="16" y="13" width="1" height="1" fill="rgb(220,220,220)"/>
  <rect x="16" y="14" width="1" height="1" fill="rgb(71,71,71)" fill-opacity="0.84375"/>
  <rect x="16" y="15" width="1" height="6" fill="rgb(255,255,255)" fill-opacity="0.0078125"/>
  <rect x="17" y="0" width="1" height="12" fill="rgb(255,255,255)" fill-opacity="0.0078125"/>
  <rect x="17" y="12" width="1" height="1" fill="rgb(73,73,73)" fill-opacity="0.4140625"/>
  <rect x="17" y="13" width="1" height="1" fill="rgb(68,68,68)" fill-opacity="0.8828125"/>
  <rect x="17" y="14" width="1" height="1" fill="rgb(68,68,68)" fill-opacity="0.40625"/>
  <rect x="17" y="15" width="1" height="6" fill="rgb(255,255,255)" fill-opacity="0.0078125"/>
  <rect x="18" y="0" width="1" height="21" fill="rgb(255,255,255)" fill-opacity="0.0078125"/>
  <rect x="19" y="0" width="1" height="21" fill="rgb(255,255,255)" fill-opacity="0.0078125"/>
  <rect x="20" y="0" width="1" height="21" fill="rgb(255,255,255)" fill-opacity="0.0078125"/>
</svg>