<svg xmlns="http://www.w3.org/2000/svg" shape-rendering="crispEdges" width="21" height="21" viewBox="0 0 21 21">
  <rect x="0" y="0" width="21" height="1" fill="rgb(255,255,255)" fill-opacity="0.0078125"/>
  <rect x="0" y="1" width="21" height="1" fill="rgb(255,255,255)" fill-opacity="0.0078125"/>
  <rect x="0" y="2" width="21" height="1" fill="rgb(255,255,255)" fill-opacity="0.0078125"/>
  <rect x="0" y="3" width="4" height="1" fill="rgb(255,255,255)" fill-opacity="0.0078125"/>
  <rect x="4" y="3" width="1" height="1" fill="rgb(33,33,33)" fill-opacity="0.7890625"/>
  <rect x="5" y="3" width="1" height="1" fill="rgb(43,43,43)" fill-opacity="0.859375"/>
  <rect x="6" y="3" width="1" height="1" fill="rgb(47,47,47)" fill-opacity="0.859375"/>
  <rect x="7" y="3" width="1" height="1" fill="rgb(50,50,50)" fill-opacity="0.859375"/>
  <rect x="8" y="3" width="1" height="1" fill="rgb(54,54,54)" fill-opacity="0.859375"/>
  <rect x="9" y="3" width="1" height="1" fill="rgb(42,42,42)" fill-opacity="0.7890625"/>
  <rect x="10" y="3" width="2" height="1" fill="rgb(255,255,255)" fill-opacity="0.0078125"/>
  <rect x="12" y="3" width="1" height="1" fill="rgb(33,33,33)" fill-opacity="0.7734375"/>
  <rect x="13" y="3" width="1" height="1" fill="rgb(43,43,43)" fill-opacity="0.8515625"/>
  <rect x="14" y="3" width="1" height="1" fill="rgb(46,46,46)" fill-opacity="0.8515625"/>
  <rect x="15" y="3" width="1" height="1" fill="rgb(48,48,48)" fill-opacity="0.8515625"/>
  <rect x="16" y="3" width="1" height="1" fill="rgb(52,52,52)" fill-opacity="0.8515625"/>
  <rect x="17" y="3" width="1" height="1" fill="rgb(43,43,43)" fill-opacity="0.7734375"/>
  <rect x="18" y="3" width="3" height="1" fill="rgb(255,255,255)" fill-opacity="0.0078125"/>
  <rect x="0" y="4" width="4" height="1" fill="rgb(255,255,255)" fill-opacity="0.0078125"/>
  <rect x="4" y="4" width="1" height="1" fill="rgb(44,44,44)" fill-opacity="0.8515625"/>
  <rect x="5" y="4" width="1" height="1" fill="rgb(232,232,232)"/>
  <rect x="6" y="4" width="1" height="1" fill="rgb(255,255,255)"/>
  <rect x="7" y="4" width="1" height="1" fill="rgb(232,232,232)"/>
  <rect x="8" y="4" width="1" height="1" fill="rgb(212,212,212)"/>
  <rect x="9" y="4" width="1" height="1" fill="rgb(59,59,59)" fill-opacity="0.8515625"/>
  <rect x="10" y="4" width="2" height="1" fill="rgb(255,255,255)" fill-opacity="0.0078125"/>
  <rect x="12" y="4" width="1" height="1" fill="rgb(43,43,43)" fill-opacity="0.8515625"/>
  <rect x="13" y="4" width="1" height="1" fill="rgb(233,233,233)"/>
  <rect x="14" y="4" width="1" height="1" fill="rgb(252,252,252)"/>
  <rect x="15" y="4" width="1" height="1" fill="rgb(241,241,241)"/>
  <rect x="16" y="4" width="1" height="1" fill="rgb(225,225,225)"/>
  <rect x="17" y="4" width="1" height="1" fill="rgb(60,60,60)" fill-opacity="0.8515625"/>
  <rect x="18" y="4" width="3" height="1" fill="rgb(255,255,255)" fill-opacity="0.0078125"/>
  <rect x="0" y="5" width="4" height="1" fill="rgb(255,255,255)" fill-opacity="0.0078125"/>
  <rect x="4" y="5" width="1" height="1" fill="rgb(47,47,47)" fill-opacity="0.8515625"/>
  <rect x="5" y="5" width="1" height="1" fill="rgb(252,252,252)"/>
  <rect x="6" y="5" width="1" height="1" fill="rgb(106,106,106)"/>
  <rect x="7" y="5" width="1" height="1" fill="rgb(194,194,194)"/>
  <rect x="8" y="5" width="1" height="1" fill="rgb(102,102,102)"/>
  <rect x="9" y="5" width="1" height="1" fill="rgb(64,64,64)" fill-opacity="0.8515625"/>
  <rect x="10" y="5" width="2" height="1" fill="rgb(255,255,255)" fill-opacity="0.0078125"/>
  <rect x="12" y="5" width="1" height="1" fill="rgb(47,47,47)" fill-opacity="0.8515625"/>
  <rect x="13" y="5" width="1" height="1" fill="rgb(252,252,252)"/>
  <rect x="14" y="5" width="1" height="1" fill="rgb(179,179,179)"/>
  <rect x="15" y="5" width="1" height="1" fill="rgb(194,194,194)"/>
  <rect x="16" y="5" width="1" height="1" fill="rgb(226,226,226)"/>
  <rect x="17" y="5" width="1" height="1" fill="rgb(65,65,65)" fill-opacity="0.8515625"/>
  <rect x="18" y="5" width="3" height="1" fill="rgb(255,255,255)" fill-opacity="0.0078125"/>
  <rect x="0" y="6" width="4" height="1" fill="rgb(255,255,255)" fill-opacity="0.0078125"/>
  <rect x="4" y="6" width="1" height="1" fill="rgb(51,51,51)" fill-opacity="0.8515625"/>
  <rect x="5" y="6" width="1" height="1" fill="rgb(219,219,219)"/>
  <rect x="6" y="6" width="1" height="1" fill="rgb(198,198,198)"/>
  <rect x="7" y="6" width="1" height="1" fill="rgb(102,102,102)"/>
  <rect x="8" y="6" width="1" height="1" fill="rgb(233,233,233)"/>
  <rect x="9" y="6" width="1" height="1" fill="rgb(67,67,67)" fill-opacity="0.8515625"/>
  <rect x="10" y="6" width="2" height="1" fill="rgb(255,255,255)" fill-opacity="0.0078125"/>
  <rect x="12" y="6" width="1" height="1" fill="rgb(51,51,51)" fill-opacity="0.8515625"/>
  <rect x="13" y="6" width="1" height="1" fill="rgb(237,237,237)"/>
  <rect x="14" y="6" width="1" height="1" fill="rgb(197,197,197)"/>
  <rect x="15" y="6" width="1" height="1" fill="rgb(215,215,215)"/>
  <rect x="16" y="6" width="1" height="1" fill="rgb(235,235,235)"/>
  <rect x="17" y="6" width="1" height="1" fill="rgb(67,67,67)" fill-opacity="0.8515625"/>
  <rect x="18" y="6" width="3" height="1" fill="rgb(255,255,255)" fill-opacity="0.0078125"/>
  <rect x="0" y="7" width="4" height="1" fill="rgb(255,255,255)" fill-opacity="0.0078125"/>
  <rect x="4" y="7" width="1" height="1" fill="rgb(54,54,54)" fill-opacity="0.8515625"/>
  <rect x="5" y="7" width="1" height="1" fill="rgb(228,228,228)"/>
  <rect x="6" y="7" width="1" height="1" fill="rgb(103,103,103)"/>
  <rect x="7" y="7" width="1" height="1" fill="rgb(236,236,236)"/>
  <rect x="8" y="7" width="1" height="1" fill="rgb(102,102,102)"/>
  <rect x="9" y="7" width="1" height="1" fill="rgb(68,68,68)" fill-opacity="0.8515625"/>
  <rect x="10" y="7" width="2" height="1" fill="rgb(255,255,255)" fill-opacity="0.0078125"/>
  <rect x="12" y="7" width="1" height="1" fill="rgb(54,54,54)" fill-opacity="0.8515625"/>
  <rect x="13" y="7" width="1" height="1" fill="rgb(228,228,228)"/>
  <rect x="14" y="7" width="1" height="1" fill="rgb(218,218,218)"/>
  <rect x="15" y="7" width="1" height="1" fill="rgb(236,236,236)"/>
  <rect x="16" y="7" width="1" height="1" fill="rgb(254,254,254)"/>
  <rect x="17" y="7" width="1" height="1" fill="rgb(68,68,68)" fill-opacity="0.8515625"/>
  <rect x="18" y="7" width="3" height="1" fill="rgb(255,255,255)" fill-opacity="0.0078125"/>
  <rect x="0" y="8" width="4" height="1" fill="rgb(255,255,255)" fill-opacity="0.0078125"/>
  <rect x="4" y="8" width="1" height="1" fill="rgb(59,59,59)" fill-opacity="0.8515625"/>
  <rect x="5" y="8" width="1" height="1" fill="rgb(173,173,173)"/>
  <rect x="6" y="8" width="1" height="1" fill="rgb(239,239,239)"/>
  <rect x="7" y="8" width="1" height="1" fill="rgb(102,102,102)"/>
  <rect x="8" y="8" width="1" height="1" fill="rgb(255,255,255)"/>
  <rect x="9" y="8" width="1" height="1" fill="rgb(68,68,68)" fill-opacity="0.8515625"/>
  <rect x="10" y="8" width="2" height="1" fill="rgb(255,255,255)" fill-opacity="0.0078125"/>
  <rect x="12" y="8" width="1" height="1" fill="rgb(58,58,58)" fill-opacity="0.8515625"/>
  <rect x="13" y="8" width="1" height="1" fill="rgb(229,229,229)"/>
  <rect x="14" y="8" width="1" height="1" fill="rgb(240,240,240)"/>
  <rect x="15" y="8" width="2" height="1" fill="rgb(255,255,255)"/>
  <rect x="17" y="8" width="1" height="1" fill="rgb(68,68,68)" fill-opacity="0.8515625"/>
  <rect x="18" y="8" width="3" height="1" fill="rgb(255,255,255)" fill-opacity="0.0078125"/>
  <rect x="0" y="9" width="4" height="1" fill="rgb(255,255,255)" fill-opacity="0.0078125"/>
  <rect x="4" y="9" width="1" height="1" fill="rgb(47,47,47)" fill-opacity="0.75"/>
  <rect x="5" y="9" width="1" height="1" fill="rgb(63,63,63)" fill-opacity="0.8359375"/>
  <rect x="6" y="9" width="3" height="1" fill="rgb(66,66,66)" fill-opacity="0.8359375"/>
  <rect x="9" y="9" width="1" height="1" fill="rgb(50,50,50)" fill-opacity="0.75"/>
  <rect x="10" y="9" width="2" height="1" fill="rgb(255,255,255)" fill-opacity="0.0078125"/>
  <rect x="12" y="9" width="1" height="1" fill="rgb(46,46,46)" fill-opacity="0.7734375"/>
  <rect x="13" y="9" width="1" height="1" fill="rgb(65,65,65)" fill-opacity="0.8515625"/>
  <rect x="14" y="9" width="3" height="1" fill="rgb(68,68,68)" fill-opacity="0.8515625"/>
  <rect x="17" y="9" width="1" height="1" fill="rgb(49,49,49)" fill-opacity="0.7734375"/>
  <rect x="18" y="9" width="3" height="1" fill="rgb(255,255,255)" fill-opacity="0.0078125"/>
  <rect x="0" y="10" width="21" height="1" fill="rgb(255,255,255)" fill-opacity="0.0078125"/>
  <rect x="0" y="11" width="21" height="1" fill="rgb(255,255,255)" fill-opacity="0.0078125"/>
  <rect x="0" y="12" width="4" height="1" fill="rgb(255,255,255)" fill-opacity="0.0078125"/>
  <rect x="4" y="12" width="1" height="1" fill="rgb(33,33,33)" fill-opacity="0.7734375"/>
  <rect x="5" y="12" width="1" height="1" fill="rgb(43,43,43)" fill-opacity="0.8515625"/>
  <rect x="6" y="12" width="1" height="1" fill="rgb(46,46,46)" fill-opacity="0.8515625"/>
  <rect x="7" y="12" width="1" height="1" fill="rgb(48,48,48)" fill-opacity="0.8515625"/>
  <rect x="8" y="12" width="1" height="1" fill="rgb(52,52,52)" fill-opacity="0.8515625"/>
  <rect x="9" y="12" width="1" height="1" fill="rgb(43,43,43)" fill-opacity="0.7734375"/>
  <rect x="10" y="12" width="2" height="1" fill="rgb(255,255,255)" fill-opacity="0.0078125"/>
  <rect x="12" y="12" width="1" height="1" fill="rgb(32,32,32)" fill-opacity="0.7890625"/>
  <rect x="13" y="12" width="1" height="1" fill="rgb(42,42,42)" fill-opacity="0.859375"/>
  <rect x="14" y="12" width="1" height="1" fill="rgb(46,46,46)" fill-opacity="0.859375"/>
  <rect x="15" y="12" width="1" height="1" fill="rgb(49,49,49)" fill-opacity="0.859375"/>
  <rect x="16" y="12" width="1" height="1" fill="rgb(54,54,54)" fill-opacity="0.859375"/>
  <rect x="17" y="12" width="1" height="1" fill="rgb(42,42,42)" fill-opacity="0.7890625"/>
  <rect x="18" y="12" width="3" height="1" fill="rgb(255,255,255)" fill-opacity="0.0078125"/>
  <rect x="0" y="13" width="4" height="1" fill="rgb(255,255,255)" fill-opacity="0.0078125"/>
  <rect x="4" y="13" width="1" height="1" fill="rgb(43,43,43)" fill-opacity="0.8515625"/>
  <rect x="5" y="13" width="1" height="1" fill="rgb(233,233,233)"/>
  <rect x="6" y="13" width="1" height="1" fill="rgb(252,252,252)"/>
  <rect x="7" y="13" width="1" height="1" fill="rgb(241,241,241)"/>
  <rect x="8" y="13" width="1" height="1" fill="rgb(225,225,225)"/>
  <rect x="9" y="13" width="1" height="1" fill="rgb(60,60,60)" fill-opacity="0.8515625"/>
  <rect x="10" y="13" width="2" height="1" fill="rgb(255,255,255)" fill-opacity="0.0078125"/>
  <rect x="12" y="13" width="1" height="1" fill="rgb(41,41,41)" fill-opacity="0.8515625"/>
  <rect x="13" y="13" width="1" height="1" fill="rgb(236,236,236)"/>
  <rect x="14" y="13" width="2" height="1" fill="rgb(250,250,250)"/>
  <rect x="16" y="13" width="1" height="1" fill="rgb(229,229,229)"/>
  <rect x="17" y="13" width="1" height="1" fill="rgb(61,61,61)" fill-opacity="0.8515625"/>
  <rect x="18" y="13" width="3" height="1" fill="rgb(255,255,255)" fill-opacity="0.0078125"/>
  <rect x="0" y="14" width="4" height="1" fill="rgb(255,255,255)" fill-opacity="0.0078125"/>
  <rect x="4" y="14" width="1" height="1" fill="rgb(47,47,47)" fill-opacity="0.8515625"/>
  <rect x="5" y="14" width="1" height="1" fill="rgb(252,252,252)"/>
  <rect x="6" y="14" width="1" height="1" fill="rgb(179,179,179)"/>
  <rect x="7" y="14" width="1" height="1" fill="rgb(194,194,194)"/>
  <rect x="8" y="14" width="1" height="1" fill="rgb(226,226,226)"/>
  <rect x="9" y="14" width="1" height="1" fill="rgb(65,65,65)" fill-opacity="0.8515625"/>
  <rect x="10" y="14" width="2" height="1" fill="rgb(255,255,255)" fill-opacity="0.0078125"/>
  <rect x="12" y="14" width="1" height="1" fill="rgb(45,45,45)" fill-opacity="0.8515625"/>
  <rect x="13" y="14" width="1" height="1" fill="rgb(229,229,229)"/>
  <rect x="14" y="14" width="1" height="1" fill="rgb(57,57,57)"/>
  <rect x="15" y="14" width="1" height="1" fill="rgb(58,58,58)"/>
  <rect x="16" y="14" width="1" height="1" fill="rgb(206,206,206)"/>
  <rect x="17" y="14" width="1" height="1" fill="rgb(64,64,64)" fill-opacity="0.8515625"/>
  <rect x="18" y="14" width="3" height="1" fill="rgb(255,255,255)" fill-opacity="0.0078125"/>
  <rect x="0" y="15" width="4" height="1" fill="rgb(255,255,255)" fill-opacity="0.0078125"/>
  <rect x="4" y="15" width="1" height="1" fill="rgb(51,51,51)" fill-opacity="0.8515625"/>
  <rect x="5" y="15" width="1" height="1" fill="rgb(237,237,237)"/>
  <rect x="6" y="15" width="1" height="1" fill="rgb(197,197,197)"/>
  <rect x="7" y="15" width="1" height="1" fill="rgb(215,215,215)"/>
  <rect x="8" y="15" width="1" height="1" fill="rgb(235,235,235)"/>
  <rect x="9" y="15" width="1" height="1" fill="rgb(67,67,67)" fill-opacity="0.8515625"/>
  <rect x="10" y="15" width="2" height="1" fill="rgb(255,255,255)" fill-opacity="0.0078125"/>
  <rect x="12" y="15" width="1" height="1" fill="rgb(48,48,48)" fill-opacity="0.8515625"/>
  <rect x="13" y="15" width="1" height="1" fill="rgb(253,253,253)"/>
  <rect x="14" y="15" width="1" height="1" fill="rgb(189,189,189)"/>
  <rect x="15" y="15" width="1" height="1" fill="rgb(209,209,209)"/>
  <rect x="16" y="15" width="1" height="1" fill="rgb(234,234,234)"/>
  <rect x="17" y="15" width="1" height="1" fill="rgb(68,68,68)" fill-opacity="0.8515625"/>
  <rect x="18" y="15" width="3" height="1" fill="rgb(255,255,255)" fill-opacity="0.0078125"/>
  <rect x="0" y="16" width="4" height="1" fill="rgb(255,255,255)" fill-opacity="0.0078125"/>
  <rect x="4" y="16" width="1" height="1" fill="rgb(54,54,54)" fill-opacity="0.8515625"/>
  <rect x="5" y="16" width="1" height="1" fill="rgb(228,228,228)"/>
  <rect x="6" y="16" width="1" height="1" fill="rgb(218,218,218)"/>
  <rect x="7" y="16" width="1" height="1" fill="rgb(236,236,236)"/>
  <rect x="8" y="16" width="1" height="1" fill="rgb(254,254,254)"/>
  <rect x="9" y="16" width="1" height="1" fill="rgb(68,68,68)" fill-opacity="0.8515625"/>
  <rect x="10" y="16" width="2" height="1" fill="rgb(255,255,255)" fill-opacity="0.0078125"/>
  <rect x="12" y="16" width="1" height="1" fill="rgb(52,52,52)" fill-opacity="0.8515625"/>
  <rect x="13" y="16" width="1" height="1" fill="rgb(213,213,213)"/>
  <rect x="14" y="16" width="1" height="1" fill="rgb(59,59,59)"/>
  <rect x="15" y="16" width="1" height="1" fill="rgb(60,60,60)"/>
  <rect x="16" y="16" width="1" height="1" fill="rgb(232,232,232)"/>
  <rect x="17" y="16" width="1" height="1" fill="rgb(68,68,68)" fill-opacity="0.8515625"/>
  <rect x="18" y="16" width="3" height="1" fill="rgb(255,255,255)" fill-opacity="0.0078125"/>
  <rect x="0" y="17" width="4" height="1" fill="rgb(255,255,255)" fill-opacity="0.0078125"/>
  <rect x="4" y="17" width="1" height="1" fill="rgb(58,58,58)" fill-opacity="0.8515625"/>
  <rect x="5" y="17" width="1" height="1" fill="rgb(229,229,229)"/>
  <rect x="6" y="17" width="1" height="1" fill="rgb(240,240,240)"/>
  <rect x="7" y="17" width="2" height="1" fill="rgb(255,255,255)"/>
  <rect x="9" y="17" width="1" height="1" fill="rgb(68,68,68)" fill-opacity="0.8515625"/>
  <rect x="10" y="17" width="2" height="1" fill="rgb(255,255,255)" fill-opacity="0.0078125"/>
  <rect x="12" y="17" width="1" height="1" fill="rgb(57,57,57)" fill-opacity="0.8515625"/>
  <rect x="13" y="17" width="1" height="1" fill="rgb(225,225,225)"/>
  <rect x="14" y="17" width="1" height="1" fill="rgb(234,234,234)"/>
  <rect x="15" y="17" width="2" height="1" fill="rgb(255,255,255)"/>
  <rect x="17" y="17" width="1" height="1" fill="rgb(68,68,68)" fill-opacity="0.8515625"/>
  <rect x="18" y="17" width="3" height="1" fill="rgb(255,255,255)" fill-opacity="0.0078125"/>
  <rect x="0" y="18" width="4" height="1" fill="rgb(255,255,255)" fill-opacity="0.0078125"/>
  <rect x="4" y="18" width="1" height="1" fill="rgb(46,46,46)" fill-opacity="0.7734375"/>
  <rect x="5" y="18" width="1" height="1" fill="rgb(65,65,65)" fill-opacity="0.8515625"/>
  <rect x="6" y="18" width="3" height="1" fill="rgb(68,68,68)" fill-opacity="0.8515625"/>
  <rect x="9" y="18" width="1" height="1" fill="rgb(49,49,49)" fill-opacity="0.7734375"/>
  <rect x="10" y="18" width="2" height="1" fill="rgb(255,255,255)" fill-opacity="0.0078125"/>
  <rect x="12" y="18" width="1" height="1" fill="rgb(46,46,46)" fill-opacity="0.75"/>
  <rect x="13" y="18" width="1" height="1" fill="rgb(62,62,62)" fill-opacity="0.8359375"/>
  <rect x="14" y="18" width="3" height="1" fill="rgb(66,66,66)" fill-opacity="0.8359375"/>
  <rect x="17" y="18" width="1" height="1" fill="rgb(50,50,50)" fill-opacity="0.75"/>
  <rect x="18" y="18" width="3" height="1" fill="rgb(255,255,255)" fill-opacity="0.0078125"/>
  <rect x="0" y="19" width="21" height="1" fill="rgb(255,255,255)" fill-opacity="0.0078125"/>
  <rect x="0" y="20" width="21" height="1" fill="rgb(255,255,255)" fill-opacity="0.0078125"/>
</svg>