<svg xmlns="http://www.w3.org/2000/svg" shape-rendering="crispEdges" width="21" height="21" viewBox="0 0 21 21">
  <rect x="0" y="0" width="1" height="21" fill="rgb(255,255,255)" fill-opacity="0.0078125"/>
  <rect x="1" y="0" width="1" height="21" fill="rgb(255,255,255)" fill-opacity="0.0078125"/>
  <rect x="2" y="0" width="1" height="21" fill="rgb(255,255,255)" fill-opacity="0.0078125"/>
  <rect x="3" y="0" width="1" height="5" fill="rgb(255,255,255)" fill-opacity="0.0078125"/>
  <rect x="3" y="5" width="1" height="1" fill="rgb(30,79,134)" fill-opacity="0.171875"/>
  <rect x="3" y="6" width="1" height="1" fill="rgb(129,166,210)" fill-opacity="0.65625"/>
  <rect x="3" y="7" width="1" height="1" fill="rgb(30,79,134)" fill-opacity="0.171875"/>
  <rect x="3" y="8" width="1" height="4" fill="rgb(255,255,255)" fill-opacity="0.0078125"/>
  <rect x="3" y="12" width="1" height="1" fill="rgb(61,97,170)" fill-opacity="0.0859375"/>
  <rect x="3" y="13" width="1" height="1" fill="rgb(129,167,215)" fill-opacity="0.53125"/>
  <rect x="3" y="14" width="1" height="1" fill="rgb(58,104,174)" fill-opacity="0.09375"/>
  <rect x="3" y="15" width="1" height="6" fill="rgb(255,255,255)" fill-opacity="0.0078125"/>
  <rect x="4" y="0" width="1" height="5" fill="rgb(255,255,255)" fill-opacity="0.0078125"/>
  <rect x="4" y="5" width="1" height="1" fill="rgb(28,68,118)" fill-opacity="0.65625"/>
  <rect x="4" y="6" width="1" height="1" fill="rgb(153,179,209)" fill-opacity="0.9375"/>
  <rect x="4" y="7" width="1" height="1" fill="rgb(28,68,118)" fill-opacity="0.65625"/>
  <rect x="4" y="8" width="1" height="4" fill="rgb(255,255,255)" fill-opacity="0.0078125"/>
  <rect x="4" y="12" width="1" height="1" fill="rgb(62,105,156)" fill-opacity="0.375"/>
  <rect x="4" y="13" width="1" height="1" fill="rgb(142,174,212)" fill-opacity="0.75"/>
  <rect x="4" y="14" width="1" height="1" fill="rgb(62,105,156)" fill-opacity="0.375"/>
  <rect x="4" y="15" width="1" height="6" fill="rgb(255,255,255)" fill-opacity="0.0078125"/>
  <rect x="5" y="0" width="1" height="3" fill="rgb(255,255,255)" fill-opacity="0.0078125"/>
  <rect x="5" y="3" width="1" height="1" fill="rgb(30,79,134)" fill-opacity="0.171875"/>
  <rect x="5" y="4" width="1" height="1" fill="rgb(28,68,118)" fill-opacity="0.65625"/>
  <rect x="5" y="5" width="1" height="1" fill="rgb(74,89,111)"/>
  <rect x="5" y="6" width="1" height="1" fill="rgb(232,237,244)"/>
  <rect x="5" y="7" width="1" height="1" fill="rgb(74,89,111)"/>
  <rect x="5" y="8" width="1" height="1" fill="rgb(28,68,118)" fill-opacity="0.65625"/>
  <rect x="5" y="9" width="1" height="1" fill="rgb(30,79,134)" fill-opacity="0.171875"/>
  <rect x="5" y="10" width="1" height="1" fill="rgb(255,255,255)" fill-opacity="0.0078125"/>
  <rect x="5" y="11" width="1" height="1" fill="rgb(32,64,96)" fill-opacity="0.0390625"/>
  <rect x="5" y="12" width="1" height="1" fill="rgb(69,103,150)" fill-opacity="0.7265625"/>
  <rect x="5" y="13" width="1" height="1" fill="rgb(161,185,214)" fill-opacity="0.9296875"/>
  <rect x="5" y="14" width="1" height="1" fill="rgb(69,103,150)" fill-opacity="0.7265625"/>
  <rect x="5" y="15" width="1" height="1" fill="rgb(32,64,96)" fill-opacity="0.0390625"/>
  <rect x="5" y="16" width="1" height="5" fill="rgb(255,255,255)" fill-opacity="0.0078125"/>
  <rect x="6" y="0" width="1" height="3" fill="rgb(255,255,255)" fill-opacity="0.0078125"/>
  <rect x="6" y="3" width="1" height="1" fill="rgb(129,166,210)" fill-opacity="0.65625"/>
  <rect x="6" y="4" width="1" height="1" fill="rgb(153,179,209)" fill-opacity="0.9375"/>
  <rect x="6" y="5" width="1" height="1" fill="rgb(232,237,244)"/>
  <rect x="6" y="6" width="1" height="1" fill="rgb(255,255,255)"/>
  <rect x="6" y="7" width="1" height="1" fill="rgb(232,237,244)"/>
  <rect x="6" y="8" width="1" height="1" fill="rgb(153,179,209)" fill-opacity="0.9375"/>
  <rect x="6" y="9" width="1" height="1" fill="rgb(129,166,210)" fill-opacity="0.65625"/>
  <rect x="6" y="10" width="1" height="1" fill="rgb(0,43,128)" fill-opacity="0.03125"/>
  <rect x="6" y="11" width="1" height="1" fill="rgb(42,58,77)" fill-opacity="0.4375"/>
  <rect x="6" y="12" width="1" height="1" fill="rgb(101,117,136)"/>
  <rect x="6" y="13" width="1" height="1" fill="rgb(197,210,225)"/>
  <rect x="6" y="14" width="1" height="1" fill="rgb(101,117,136)"/>
  <rect x="6" y="15" width="1" height="1" fill="rgb(41,58,79)" fill-opacity="0.46875"/>
  <rect x="6" y="16" width="1" height="1" fill="rgb(32,64,96)" fill-opacity="0.0390625"/>
  <rect x="6" y="17" width="1" height="4" fill="rgb(255,255,255)" fill-opacity="0.0078125"/>
  <rect x="7" y="0" width="1" height="3" fill="rgb(255,255,255)" fill-opacity="0.0078125"/>
  <rect x="7" y="3" width="1" height="1" fill="rgb(30,79,134)" fill-opacity="0.171875"/>
  <rect x="7" y="4" width="1" height="1" fill="rgb(28,68,118)" fill-opacity="0.65625"/>
  <rect x="7" y="5" width="1" height="1" fill="rgb(74,89,111)"/>
  <rect x="7" y="6" width="1" height="1" fill="rgb(232,237,244)"/>
  <rect x="7" y="7" width="1" height="1" fill="rgb(74,89,111)"/>
  <rect x="7" y="8" width="1" height="1" fill="rgb(29,69,120)" fill-opacity="0.6875"/>
  <rect x="7" y="9" width="1" height="1" fill="rgb(51,97,148)" fill-opacity="0.4765625"/>
  <rect x="7" y="10" width="1" height="1" fill="rgb(70,105,150)" fill-opacity="0.71875"/>
  <rect x="7" y="11" width="1" height="1" fill="rgb(101,117,136)"/>
  <rect x="7" y="12" width="1" height="1" fill="rgb(167,179,194)"/>
  <rect x="7" y="13" width="1" height="1" fill="rgb(255,255,255)"/>
  <rect x="7" y="14" width="1" height="1" fill="rgb(166,178,194)"/>
  <rect x="7" y="15" width="1" height="1" fill="rgb(101,117,136)"/>
  <rect x="7" y="16" width="1" height="1" fill="rgb(69,103,150)" fill-opacity="0.7265625"/>
  <rect x="7" y="17" width="1" height="1" fill="rgb(62,105,156)" fill-opacity="0.375"/>
  <rect x="7" y="18" width="1" height="1" fill="rgb(61,97,170)" fill-opacity="0.0859375"/>
  <rect x="7" y="19" width="1" height="2" fill="rgb(255,255,255)" fill-opacity="0.0078125"/>
  <rect x="8" y="0" width="1" height="5" fill="rgb(255,255,255)" fill-opacity="0.0078125"/>
  <rect x="8" y="5" width="1" height="1" fill="rgb(28,68,118)" fill-opacity="0.65625"/>
  <rect x="8" y="6" width="1" height="1" fill="rgb(153,179,209)" fill-opacity="0.9375"/>
  <rect x="8" y="7" width="1" height="1" fill="rgb(28,68,118)" fill-opacity="0.65625"/>
  <rect x="8" y="8" width="1" height="1" fill="rgb(129,167,215)" fill-opacity="0.53125"/>
  <rect x="8" y="9" width="1" height="1" fill="rgb(142,174,212)" fill-opacity="0.75"/>
  <rect x="8" y="10" width="1" height="1" fill="rgb(161,185,214)" fill-opacity="0.9296875"/>
  <rect x="8" y="11" width="1" height="1" fill="rgb(197,210,225)"/>
  <rect x="8" y="12" width="1" height="3" fill="rgb(255,255,255)"/>
  <rect x="8" y="15" width="1" height="1" fill="rgb(197,210,225)"/>
  <rect x="8" y="16" width="1" height="1" fill="rgb(161,185,214)" fill-opacity="0.9296875"/>
  <rect x="8" y="17" width="1" height="1" fill="rgb(142,174,212)" fill-opacity="0.75"/>
  <rect x="8" y="18" width="1" height="1" fill="rgb(129,167,215)" fill-opacity="0.53125"/>
  <rect x="8" y="19" width="1" height="2" fill="rgb(255,255,255)" fill-opacity="0.0078125"/>
  <rect x="9" y="0" width="1" height="5" fill="rgb(255,255,255)" fill-opacity="0.0078125"/>
  <rect x="9" y="5" width="1" height="1" fill="rgb(30,79,134)" fill-opacity="0.171875"/>
  <rect x="9" y="6" width="1" height="1" fill="rgb(129,166,210)" fill-opacity="0.65625"/>
  <rect x="9" y="7" width="1" height="1" fill="rgb(30,79,134)" fill-opacity="0.171875"/>
  <rect x="9" y="8" width="1" height="1" fill="rgb(58,104,174)" fill-opacity="0.09375"/>
  <rect x="9" y="9" width="1" height="1" fill="rgb(62,106,157)" fill-opacity="0.375"/>
  <rect x="9" y="10" width="1" height="1" fill="rgb(70,105,150)" fill-opacity="0.71875"/>
  <rect x="9" y="11" width="1" height="1" fill="rgb(101,117,136)"/>
  <rect x="9" y="12" width="1" height="1" fill="rgb(167,179,194)"/>
  <rect x="9" y="13" width="1" height="1" fill="rgb(255,255,255)"/>
  <rect x="9" y="14" width="1" height="1" fill="rgb(166,179,194)"/>
  <rect x="9" y="15" width="1" height="1" fill="rgb(101,117,136)"/>
  <rect x="9" y="16" width="1" height="1" fill="rgb(69,103,150)" fill-opacity="0.7265625"/>
  <rect x="9" y="17" width="1" height="1" fill="rgb(62,105,156)" fill-opacity="0.375"/>
  <rect x="9" y="18" width="1" height="1" fill="rgb(58,104,174)" fill-opacity="0.09375"/>
  <rect x="9" y="19" width="1" height="2" fill="rgb(255,255,255)" fill-opacity="0.0078125"/>
  <rect x="10" y="0" width="1" height="6" fill="rgb(255,255,255)" fill-opacity="0.0078125"/>
  <rect x="10" y="6" width="1" height="1" fill="rgb(20,78,137)" fill-opacity="0.0546875"/>
  <rect x="10" y="7" width="1" height="1" fill="rgb(127,167,217)" fill-opacity="0.5234375"/>
  <rect x="10" y="8" width="1" height="1" fill="rgb(18,73,146)" fill-opacity="0.0625"/>
  <rect x="10" y="9" width="1" height="1" fill="rgb(255,255,255)" fill-opacity="0.0078125"/>
  <rect x="10" y="10" width="1" height="1" fill="rgb(0,43,128)" fill-opacity="0.03125"/>
  <rect x="10" y="11" width="1" height="1" fill="rgb(42,56,79)" fill-opacity="0.5703125"/>
  <rect x="10" y="12" width="1" height="1" fill="rgb(101,117,136)"/>
  <rect x="10" y="13" width="1" height="1" fill="rgb(197,210,225)"/>
  <rect x="10" y="14" width="1" height="1" fill="rgb(101,117,136)"/>
  <rect x="10" y="15" width="1" height="1" fill="rgb(43,56,80)" fill-opacity="0.59375"/>
  <rect x="10" y="16" width="1" height="1" fill="rgb(32,64,96)" fill-opacity="0.0390625"/>
  <rect x="10" y="17" width="1" height="4" fill="rgb(255,255,255)" fill-opacity="0.0078125"/>
  <rect x="11" y="0" width="1" height="6" fill="rgb(255,255,255)" fill-opacity="0.0078125"/>
  <rect x="11" y="6" width="1" height="1" fill="rgb(46,86,141)" fill-opacity="0.328125"/>
  <rect x="11" y="7" width="1" height="1" fill="rgb(149,177,214)" fill-opacity="0.8125"/>
  <rect x="11" y="8" width="1" height="1" fill="rgb(46,86,141)" fill-opacity="0.328125"/>
  <rect x="11" y="9" width="1" height="2" fill="rgb(255,255,255)" fill-opacity="0.0078125"/>
  <rect x="11" y="11" width="1" height="1" fill="rgb(22,67,111)" fill-opacity="0.09375"/>
  <rect x="11" y="12" width="1" height="1" fill="rgb(69,104,149)" fill-opacity="0.734375"/>
  <rect x="11" y="13" width="1" height="1" fill="rgb(161,185,214)" fill-opacity="0.9296875"/>
  <rect x="11" y="14" width="1" height="1" fill="rgb(69,104,149)" fill-opacity="0.734375"/>
  <rect x="11" y="15" width="1" height="1" fill="rgb(22,67,111)" fill-opacity="0.09375"/>
  <rect x="11" y="16" width="1" height="5" fill="rgb(255,255,255)" fill-opacity="0.0078125"/>
  <rect x="12" y="0" width="1" height="5" fill="rgb(255,255,255)" fill-opacity="0.0078125"/>
  <rect x="12" y="5" width="1" height="1" fill="rgb(36,73,109)" fill-opacity="0.0625"/>
  <rect x="12" y="6" width="1" height="1" fill="rgb(58,84,115)" fill-opacity="0.90625"/>
  <rect x="12" y="7" width="1" height="1" fill="rgb(176,194,216)" fill-opacity="0.9921875"/>
  <rect x="12" y="8" width="1" height="1" fill="rgb(55,84,119)" fill-opacity="0.90625"/>
  <rect x="12" y="9" width="1" height="1" fill="rgb(36,73,109)" fill-opacity="0.0625"/>
  <rect x="12" y="10" width="1" height="2" fill="rgb(255,255,255)" fill-opacity="0.0078125"/>
  <rect x="12" y="12" width="1" height="1" fill="rgb(60,104,156)" fill-opacity="0.390625"/>
  <rect x="12" y="13" width="1" height="1" fill="rgb(142,174,212)" fill-opacity="0.75"/>
  <rect x="12" y="14" width="1" height="1" fill="rgb(56,100,153)" fill-opacity="0.4140625"/>
  <rect x="12" y="15" width="1" height="1" fill="rgb(120,159,208)" fill-opacity="0.4921875"/>
  <rect x="12" y="16" width="1" height="1" fill="rgb(23,70,139)" fill-opacity="0.046875"/>
  <rect x="12" y="17" width="1" height="4" fill="rgb(255,255,255)" fill-opacity="0.0078125"/>
  <rect x="13" y="0" width="1" height="3" fill="rgb(255,255,255)" fill-opacity="0.0078125"/>
  <rect x="13" y="3" width="1" height="1" fill="rgb(18,73,146)" fill-opacity="0.0625"/>
  <rect x="13" y="4" width="1" height="1" fill="rgb(46,86,141)" fill-opacity="0.328125"/>
  <rect x="13" y="5" width="1" height="1" fill="rgb(54,83,119)" fill-opacity="0.90625"/>
  <rect x="13" y="6" width="1" height="1" fill="rgb(123,137,156)"/>
  <rect x="13" y="7" width="1" height="1" fill="rgb(243,246,249)"/>
  <rect x="13" y="8" width="1" height="1" fill="rgb(123,137,156)"/>
  <rect x="13" y="9" width="1" height="1" fill="rgb(57,84,115)" fill-opacity="0.90625"/>
  <rect x="13" y="10" width="1" height="1" fill="rgb(46,86,141)" fill-opacity="0.328125"/>
  <rect x="13" y="11" width="1" height="1" fill="rgb(20,78,137)" fill-opacity="0.0546875"/>
  <rect x="13" y="12" width="1" height="1" fill="rgb(55,100,166)" fill-opacity="0.09375"/>
  <rect x="13" y="13" width="1" height="1" fill="rgb(129,167,215)" fill-opacity="0.53125"/>
  <rect x="13" y="14" width="1" height="1" fill="rgb(26,68,126)" fill-opacity="0.3828125"/>
  <rect x="13" y="15" width="1" height="1" fill="rgb(153,179,211)" fill-opacity="0.8828125"/>
  <rect x="13" y="16" width="1" height="1" fill="rgb(22,64,118)" fill-opacity="0.3203125"/>
  <rect x="13" y="17" width="1" height="4" fill="rgb(255,255,255)" fill-opacity="0.0078125"/>
  <rect x="14" y="0" width="1" height="3" fill="rgb(255,255,255)" fill-opacity="0.0078125"/>
  <rect x="14" y="3" width="1" height="1" fill="rgb(127,167,217)" fill-opacity="0.5234375"/>
  <rect x="14" y="4" width="1" height="1" fill="rgb(149,177,214)" fill-opacity="0.8125"/>
  <rect x="14" y="5" width="1" height="1" fill="rgb(176,194,217)" fill-opacity="0.9921875"/>
  <rect x="14" y="6" width="1" height="1" fill="rgb(243,246,249)"/>
  <rect x="14" y="7" width="1" height="1" fill="rgb(255,255,255)"/>
  <rect x="14" y="8" width="1" height="1" fill="rgb(243,246,249)"/>
  <rect x="14" y="9" width="1" height="1" fill="rgb(176,194,216)" fill-opacity="0.9921875"/>
  <rect x="14" y="10" width="1" height="1" fill="rgb(149,177,214)" fill-opacity="0.8125"/>
  <rect x="14" y="11" width="1" height="1" fill="rgb(127,167,217)" fill-opacity="0.5234375"/>
  <rect x="14" y="12" width="1" height="1" fill="rgb(23,70,139)" fill-opacity="0.046875"/>
  <rect x="14" y="13" width="1" height="1" fill="rgb(22,64,118)" fill-opacity="0.3203125"/>
  <rect x="14" y="14" width="1" height="1" fill="rgb(67,83,103)" fill-opacity="0.9921875"/>
  <rect x="14" y="15" width="1" height="1" fill="rgb(232,237,244)"/>
  <rect x="14" y="16" width="1" height="1" fill="rgb(67,83,103)" fill-opacity="0.9921875"/>
  <rect x="14" y="17" width="1" height="1" fill="rgb(23,65,119)" fill-opacity="0.3125"/>
  <rect x="14" y="18" width="1" height="1" fill="rgb(28,85,142)" fill-opacity="0.0390625"/>
  <rect x="14" y="19" width="1" height="2" fill="rgb(255,255,255)" fill-opacity="0.0078125"/>
  <rect x="15" y="0" width="1" height="3" fill="rgb(255,255,255)" fill-opacity="0.0078125"/>
  <rect x="15" y="3" width="1" height="1" fill="rgb(20,78,137)" fill-opacity="0.0546875"/>
  <rect x="15" y="4" width="1" height="1" fill="rgb(46,86,141)" fill-opacity="0.328125"/>
  <rect x="15" y="5" width="1" height="1" fill="rgb(54,83,119)" fill-opacity="0.90625"/>
  <rect x="15" y="6" width="1" height="1" fill="rgb(122,136,156)"/>
  <rect x="15" y="7" width="1" height="1" fill="rgb(243,246,249)"/>
  <rect x="15" y="8" width="1" height="1" fill="rgb(122,136,156)"/>
  <rect x="15" y="9" width="1" height="1" fill="rgb(55,84,118)" fill-opacity="0.90625"/>
  <rect x="15" y="10" width="1" height="1" fill="rgb(46,86,141)" fill-opacity="0.328125"/>
  <rect x="15" y="11" width="1" height="1" fill="rgb(18,73,146)" fill-opacity="0.0625"/>
  <rect x="15" y="12" width="1" height="1" fill="rgb(119,158,208)" fill-opacity="0.4921875"/>
  <rect x="15" y="13" width="1" height="1" fill="rgb(153,179,211)" fill-opacity="0.8828125"/>
  <rect x="15" y="14" width="1" height="1" fill="rgb(232,237,244)"/>
  <rect x="15" y="15" width="1" height="1" fill="rgb(255,255,255)"/>
  <rect x="15" y="16" width="1" height="1" fill="rgb(232,237,244)"/>
  <rect x="15" y="17" width="1" height="1" fill="rgb(153,179,211)" fill-opacity="0.8828125"/>
  <rect x="15" y="18" width="1" height="1" fill="rgb(121,160,208)" fill-opacity="0.4921875"/>
  <rect x="15" y="19" width="1" height="2" fill="rgb(255,255,255)" fill-opacity="0.0078125"/>
  <rect x="16" y="0" width="1" height="5" fill="rgb(255,255,255)" fill-opacity="0.0078125"/>
  <rect x="16" y="5" width="1" height="1" fill="rgb(36,73,109)" fill-opacity="0.0625"/>
  <rect x="16" y="6" width="1" height="1" fill="rgb(59,84,115)" fill-opacity="0.90625"/>
  <rect x="16" y="7" width="1" height="1" fill="rgb(177,194,216)" fill-opacity="0.9921875"/>
  <rect x="16" y="8" width="1" height="1" fill="rgb(58,84,115)" fill-opacity="0.90625"/>
  <rect x="16" y="9" width="1" height="1" fill="rgb(36,73,109)" fill-opacity="0.0625"/>
  <rect x="16" y="10" width="1" height="2" fill="rgb(255,255,255)" fill-opacity="0.0078125"/>
  <rect x="16" y="12" width="1" height="1" fill="rgb(26,77,128)" fill-opacity="0.046875"/>
  <rect x="16" y="13" width="1" height="1" fill="rgb(22,67,121)" fill-opacity="0.3203125"/>
  <rect x="16" y="14" width="1" height="1" fill="rgb(67,83,103)" fill-opacity="0.9921875"/>
  <rect x="16" y="15" width="1" height="1" fill="rgb(232,237,244)"/>
  <rect x="16" y="16" width="1" height="1" fill="rgb(68,83,103)" fill-opacity="0.9921875"/>
  <rect x="16" y="17" width="1" height="1" fill="rgb(23,65,119)" fill-opacity="0.3125"/>
  <rect x="16" y="18" width="1" height="1" fill="rgb(26,77,128)" fill-opacity="0.046875"/>
  <rect x="16" y="19" width="1" height="2" fill="rgb(255,255,255)" fill-opacity="0.0078125"/>
  <rect x="17" y="0" width="1" height="6" fill="rgb(255,255,255)" fill-opacity="0.0078125"/>
  <rect x="17" y="6" width="1" height="1" fill="rgb(46,86,141)" fill-opacity="0.328125"/>
  <rect x="17" y="7" width="1" height="1" fill="rgb(149,177,214)" fill-opacity="0.8125"/>
  <rect x="17" y="8" width="1" height="1" fill="rgb(46,86,141)" fill-opacity="0.328125"/>
  <rect x="17" y="9" width="1" height="5" fill="rgb(255,255,255)" fill-opacity="0.0078125"/>
  <rect x="17" y="14" width="1" height="1" fill="rgb(22,65,120)" fill-opacity="0.328125"/>
  <rect x="17" y="15" width="1" height="1" fill="rgb(153,179,211)" fill-opacity="0.8828125"/>
  <rect x="17" y="16" width="1" height="1" fill="rgb(22,67,121)" fill-opacity="0.3203125"/>
  <rect x="17" y="17" width="1" height="4" fill="rgb(255,255,255)" fill-opacity="0.0078125"/>
  <rect x="18" y="0" width="1" height="6" fill="rgb(255,255,255)" fill-opacity="0.0078125"/>
  <rect x="18" y="6" width="1" height="1" fill="rgb(18,73,146)" fill-opacity="0.0625"/>
  <rect x="18" y="7" width="1" height="1" fill="rgb(127,167,217)" fill-opacity="0.5234375"/>
  <rect x="18" y="8" width="1" height="1" fill="rgb(20,78,137)" fill-opacity="0.0546875"/>
  <rect x="18" y="9" width="1" height="5" fill="rgb(255,255,255)" fill-opacity="0.0078125"/>
  <rect x="18" y="14" width="1" height="1" fill="rgb(21,64,128)" fill-opacity="0.0546875"/>
  <rect x="18" y="15" width="1" height="1" fill="rgb(120,159,208)" fill-opacity="0.4921875"/>
  <rect x="18" y="16" width="1" height="1" fill="rgb(26,77,128)" fill-opacity="0.046875"/>
  <rect x="18" y="17" width="1" height="4" fill="rgb(255,255,255)" fill-opacity="0.0078125"/>
  <rect x="19" y="0" width="1" height="21" fill="rgb(255,255,255)" fill-opacity="0.0078125"/>
  <rect x="20" y="0" width="1" height="21" fill="rgb(255,255,255)" fill-opacity="0.0078125"/>
</svg>