<svg xmlns="http://www.w3.org/2000/svg" shape-rendering="crispEdges" width="21" height="21" viewBox="0 0 21 21">
  <rect x="0" y="0" width="1" height="21" fill="rgb(255,255,255)" fill-opacity="0.0078125"/>
  <rect x="1" y="0" width="1" height="21" fill="rgb(255,255,255)" fill-opacity="0.0078125"/>
  <rect x="2" y="0" width="1" height="21" fill="rgb(255,255,255)" fill-opacity="0.0078125"/>
  <rect x="3" y="0" width="1" height="21" fill="rgb(255,255,255)" fill-opacity="0.0078125"/>
  <rect x="4" y="0" width="1" height="21" fill="rgb(255,255,255)" fill-opacity="0.0078125"/>
  <rect x="5" y="0" width="1" height="21" fill="rgb(255,255,255)" fill-opacity="0.0078125"/>
  <rect x="6" y="0" width="1" height="21" fill="rgb(255,255,255)" fill-opacity="0.0078125"/>
  <rect x="7" y="0" width="1" height="6" fill="rgb(255,255,255)" fill-opacity="0.0078125"/>
  <rect x="7" y="6" width="1" height="1" fill="rgb(0,0,0)" fill-opacity="0.671875"/>
  <rect x="7" y="7" width="1" height="1" fill="rgb(0,0,0)" fill-opacity="0.7890625"/>
  <rect x="7" y="8" width="1" height="1" fill="rgb(0,0,0)" fill-opacity="0.1015625"/>
  <rect x="7" y="9" width="1" height="3" fill="rgb(255,255,255)" fill-opacity="0.0078125"/>
  <rect x="7" y="12" width="1" height="1" fill="rgb(0,0,0)" fill-opacity="0.1015625"/>
  <rect x="7" y="13" width="1" height="1" fill="rgb(0,0,0)" fill-opacity="0.765625"/>
  <rect x="7" y="14" width="1" height="1" fill="rgb(0,0,0)" fill-opacity="0.6875"/>
  <rect x="7" y="15" width="1" height="6" fill="rgb(255,255,255)" fill-opacity="0.0078125"/>
  <rect x="8" y="0" width="1" height="6" fill="rgb(255,255,255)" fill-opacity="0.0078125"/>
  <rect x="8" y="6" width="1" height="1" fill="rgb(0,0,0)" fill-opacity="0.734375"/>
  <rect x="8" y="7" width="1" height="1" fill="rgb(0,0,0)"/>
  <rect x="8" y="8" width="1" height="1" fill="rgb(0,0,0)" fill-opacity="0.84375"/>
  <rect x="8" y="9" width="1" height="1" fill="rgb(0,0,0)" fill-opacity="0.1015625"/>
  <rect x="8" y="10" width="1" height="1" fill="rgb(255,255,255)" fill-opacity="0.0078125"/>
  <rect x="8" y="11" width="1" height="1" fill="rgb(0,0,0)" fill-opacity="0.09375"/>
  <rect x="8" y="12" width="1" height="1" fill="rgb(0,0,0)" fill-opacity="0.84375"/>
  <rect x="8" y="13" width="1" height="1" fill="rgb(0,0,0)"/>
  <rect x="8" y="14" width="1" height="1" fill="rgb(0,0,0)" fill-opacity="0.7890625"/>
  <rect x="8" y="15" width="1" height="6" fill="rgb(255,255,255)" fill-opacity="0.0078125"/>
  <rect x="9" y="0" width="1" height="6" fill="rgb(255,255,255)" fill-opacity="0.0078125"/>
  <rect x="9" y="6" width="1" height="1" fill="rgb(0,0,0)" fill-opacity="0.0859375"/>
  <rect x="9" y="7" width="1" height="1" fill="rgb(0,0,0)" fill-opacity="0.828125"/>
  <rect x="9" y="8" width="1" height="1" fill="rgb(0,0,0)"/>
  <rect x="9" y="9" width="1" height="1" fill="rgb(0,0,0)" fill-opacity="0.84375"/>
  <rect x="9" y="10" width="1" height="1" fill="rgb(0,0,0)" fill-opacity="0.1796875"/>
  <rect x="9" y="11" width="1" height="1" fill="rgb(0,0,0)" fill-opacity="0.84375"/>
  <rect x="9" y="12" width="1" height="1" fill="rgb(0,0,0)"/>
  <rect x="9" y="13" width="1" height="1" fill="rgb(0,0,0)" fill-opacity="0.84375"/>
  <rect x="9" y="14" width="1" height="1" fill="rgb(0,0,0)" fill-opacity="0.1015625"/>
  <rect x="9" y="15" width="1" height="6" fill="rgb(255,255,255)" fill-opacity="0.0078125"/>
  <rect x="10" y="0" width="1" height="7" fill="rgb(255,255,255)" fill-opacity="0.0078125"/>
  <rect x="10" y="7" width="1" height="1" fill="rgb(0,0,0)" fill-opacity="0.0859375"/>
  <rect x="10" y="8" width="1" height="1" fill="rgb(0,0,0)" fill-opacity="0.828125"/>
  <rect x="10" y="9" width="1" height="1" fill="rgb(0,0,0)"/>
  <rect x="10" y="10" width="1" height="1" fill="rgb(0,0,0)" fill-opacity="0.9765625"/>
  <rect x="10" y="11" width="1" height="1" fill="rgb(0,0,0)"/>
  <rect x="10" y="12" width="1" height="1" fill="rgb(0,0,0)" fill-opacity="0.84375"/>
  <rect x="10" y="13" width="1" height="1" fill="rgb(0,0,0)" fill-opacity="0.1015625"/>
  <rect x="10" y="14" width="1" height="7" fill="rgb(255,255,255)" fill-opacity="0.0078125"/>
  <rect x="11" y="0" width="1" height="8" fill="rgb(255,255,255)" fill-opacity="0.0078125"/>
  <rect x="11" y="8" width="1" height="1" fill="rgb(0,0,0)" fill-opacity="0.1640625"/>
  <rect x="11" y="9" width="1" height="1" fill="rgb(0,0,0)" fill-opacity="0.96875"/>
  <rect x="11" y="10" width="1" height="1" fill="rgb(0,0,0)"/>
  <rect x="11" y="11" width="1" height="1" fill="rgb(0,0,0)" fill-opacity="0.9765625"/>
  <rect x="11" y="12" width="1" height="1" fill="rgb(0,0,0)" fill-opacity="0.1875"/>
  <rect x="11" y="13" width="1" height="8" fill="rgb(255,255,255)" fill-opacity="0.0078125"/>
  <rect x="12" y="0" width="1" height="7" fill="rgb(255,255,255)" fill-opacity="0.0078125"/>
  <rect x="12" y="7" width="1" height="1" fill="rgb(0,0,0)" fill-opacity="0.0859375"/>
  <rect x="12" y="8" width="1" height="1" fill="rgb(0,0,0)" fill-opacity="0.8359375"/>
  <rect x="12" y="9" width="1" height="1" fill="rgb(0,0,0)"/>
  <rect x="12" y="10" width="1" height="1" fill="rgb(0,0,0)" fill-opacity="0.9765625"/>
  <rect x="12" y="11" width="1" height="1" fill="rgb(0,0,0)"/>
  <rect x="12" y="12" width="1" height="1" fill="rgb(0,0,0)" fill-opacity="0.84375"/>
  <rect x="12" y="13" width="1" height="1" fill="rgb(0,0,0)" fill-opacity="0.1015625"/>
  <rect x="12" y="14" width="1" height="7" fill="rgb(255,255,255)" fill-opacity="0.0078125"/>
  <rect x="13" y="0" width="1" height="6" fill="rgb(255,255,255)" fill-opacity="0.0078125"/>
  <rect x="13" y="6" width="1" height="1" fill="rgb(0,0,0)" fill-opacity="0.0859375"/>
  <rect x="13" y="7" width="1" height="1" fill="rgb(0,0,0)" fill-opacity="0.828125"/>
  <rect x="13" y="8" width="1" height="1" fill="rgb(0,0,0)"/>
  <rect x="13" y="9" width="1" height="1" fill="rgb(0,0,0)" fill-opacity="0.84375"/>
  <rect x="13" y="10" width="1" height="1" fill="rgb(0,0,0)" fill-opacity="0.171875"/>
  <rect x="13" y="11" width="1" height="1" fill="rgb(0,0,0)" fill-opacity="0.828125"/>
  <rect x="13" y="12" width="1" height="1" fill="rgb(0,0,0)"/>
  <rect x="13" y="13" width="1" height="1" fill="rgb(0,0,0)" fill-opacity="0.84375"/>
  <rect x="13" y="14" width="1" height="1" fill="rgb(0,0,0)" fill-opacity="0.1015625"/>
  <rect x="13" y="15" width="1" height="6" fill="rgb(255,255,255)" fill-opacity="0.0078125"/>
  <rect x="14" y="0" width="1" height="6" fill="rgb(255,255,255)" fill-opacity="0.0078125"/>
  <rect x="14" y="6" width="1" height="1" fill="rgb(0,0,0)" fill-opacity="0.7734375"/>
  <rect x="14" y="7" width="1" height="1" fill="rgb(0,0,0)"/>
  <rect x="14" y="8" width="1" height="1" fill="rgb(0,0,0)" fill-opacity="0.84375"/>
  <rect x="14" y="9" width="1" height="1" fill="rgb(0,0,0)" fill-opacity="0.1015625"/>
  <rect x="14" y="10" width="1" height="1" fill="rgb(255,255,255)" fill-opacity="0.0078125"/>
  <rect x="14" y="11" width="1" height="1" fill="rgb(0,0,0)" fill-opacity="0.0859375"/>
  <rect x="14" y="12" width="1" height="1" fill="rgb(0,0,0)" fill-opacity="0.828125"/>
  <rect x="14" y="13" width="1" height="1" fill="rgb(0,0,0)"/>
  <rect x="14" y="14" width="1" height="1" fill="rgb(0,0,0)" fill-opacity="0.765625"/>
  <rect x="14" y="15" width="1" height="6" fill="rgb(255,255,255)" fill-opacity="0.0078125"/>
  <rect x="15" y="0" width="1" height="6" fill="rgb(255,255,255)" fill-opacity="0.0078125"/>
  <rect x="15" y="6" width="1" height="1" fill="rgb(0,0,0)" fill-opacity="0.6796875"/>
  <rect x="15" y="7" width="1" height="1" fill="rgb(0,0,0)" fill-opacity="0.765625"/>
  <rect x="15" y="8" width="1" height="1" fill="rgb(0,0,0)" fill-opacity="0.1015625"/>
  <rect x="15" y="9" width="1" height="3" fill="rgb(255,255,255)" fill-opacity="0.0078125"/>
  <rect x="15" y="12" width="1" height="1" fill="rgb(0,0,0)" fill-opacity="0.0859375"/>
  <rect x="15" y="13" width="1" height="1" fill="rgb(0,0,0)" fill-opacity="0.7734375"/>
  <rect x="15" y="14" width="1" height="1" fill="rgb(0,0,0)" fill-opacity="0.703125"/>
  <rect x="15" y="15" width="1" height="6" fill="rgb(255,255,255)" fill-opacity="0.0078125"/>
  <rect x="16" y="0" width="1" height="21" fill="rgb(255,255,255)" fill-opacity="0.0078125"/>
  <rect x="17" y="0" width="1" height="21" fill="rgb(255,255,255)" fill-opacity="0.0078125"/>
  <rect x="18" y="0" width="1" height="21" fill="rgb(255,255,255)" fill-opacity="0.0078125"/>
  <rect x="19" y="0" width="1" height="21" fill="rgb(255,255,255)" fill-opacity="0.0078125"/>
  <rect x="20" y="0" width="1" height="21" fill="rgb(255,255,255)" fill-opacity="0.0078125"/>
</svg>