<svg xmlns="http://www.w3.org/2000/svg" shape-rendering="crispEdges" width="21" height="21" viewBox="0 0 21 21">
  <rect x="0" y="0" width="21" height="1" fill="rgb(255,255,255)" fill-opacity="0.0078125"/>
  <rect x="0" y="1" width="21" height="1" fill="rgb(255,255,255)" fill-opacity="0.0078125"/>
  <rect x="0" y="2" width="21" height="1" fill="rgb(255,255,255)" fill-opacity="0.0078125"/>
  <rect x="0" y="3" width="21" height="1" fill="rgb(255,255,255)" fill-opacity="0.0078125"/>
  <rect x="0" y="4" width="7" height="1" fill="rgb(255,255,255)" fill-opacity="0.0078125"/>
  <rect x="7" y="4" width="1" height="1" fill="rgb(0,0,0)" fill-opacity="0.0859375"/>
  <rect x="8" y="4" width="1" height="1" fill="rgb(7,7,7)" fill-opacity="0.4296875"/>
  <rect x="9" y="4" width="1" height="1" fill="rgb(19,19,19)" fill-opacity="0.6953125"/>
  <rect x="10" y="4" width="1" height="1" fill="rgb(18,18,18)" fill-opacity="0.8359375"/>
  <rect x="11" y="4" width="1" height="1" fill="rgb(21,21,21)" fill-opacity="0.671875"/>
  <rect x="12" y="4" width="1" height="1" fill="rgb(5,5,5)" fill-opacity="0.40625"/>
  <rect x="13" y="4" width="1" height="1" fill="rgb(0,0,0)" fill-opacity="0.0546875"/>
  <rect x="14" y="4" width="7" height="1" fill="rgb(255,255,255)" fill-opacity="0.0078125"/>
  <rect x="0" y="5" width="6" height="1" fill="rgb(255,255,255)" fill-opacity="0.0078125"/>
  <rect x="6" y="5" width="1" height="1" fill="rgb(9,9,9)" fill-opacity="0.3515625"/>
  <rect x="7" y="5" width="1" height="1" fill="rgb(48,48,48)" fill-opacity="0.921875"/>
  <rect x="8" y="5" width="1" height="1" fill="rgb(193,193,193)"/>
  <rect x="9" y="5" width="1" height="1" fill="rgb(226,226,226)"/>
  <rect x="10" y="5" width="1" height="1" fill="rgb(237,237,237)"/>
  <rect x="11" y="5" width="1" height="1" fill="rgb(211,211,211)"/>
  <rect x="12" y="5" width="1" height="1" fill="rgb(161,161,161)" fill-opacity="0.9921875"/>
  <rect x="13" y="5" width="1" height="1" fill="rgb(33,33,33)" fill-opacity="0.8984375"/>
  <rect x="14" y="5" width="1" height="1" fill="rgb(4,4,4)" fill-opacity="0.28125"/>
  <rect x="15" y="5" width="6" height="1" fill="rgb(255,255,255)" fill-opacity="0.0078125"/>
  <rect x="0" y="6" width="5" height="1" fill="rgb(255,255,255)" fill-opacity="0.0078125"/>
  <rect x="5" y="6" width="1" height="1" fill="rgb(9,9,9)" fill-opacity="0.4375"/>
  <rect x="6" y="6" width="1" height="1" fill="rgb(113,113,113)" fill-opacity="0.96875"/>
  <rect x="7" y="6" width="1" height="1" fill="rgb(243,243,243)"/>
  <rect x="8" y="6" width="1" height="1" fill="rgb(202,202,202)"/>
  <rect x="9" y="6" width="1" height="1" fill="rgb(182,182,182)"/>
  <rect x="10" y="6" width="1" height="1" fill="rgb(178,178,178)"/>
  <rect x="11" y="6" width="1" height="1" fill="rgb(192,192,192)"/>
  <rect x="12" y="6" width="1" height="1" fill="rgb(209,209,209)"/>
  <rect x="13" y="6" width="1" height="1" fill="rgb(214,214,214)"/>
  <rect x="14" y="6" width="1" height="1" fill="rgb(69,69,69)" fill-opacity="0.9453125"/>
  <rect x="15" y="6" width="1" height="1" fill="rgb(6,6,6)" fill-opacity="0.328125"/>
  <rect x="16" y="6" width="5" height="1" fill="rgb(255,255,255)" fill-opacity="0.0078125"/>
  <rect x="0" y="7" width="4" height="1" fill="rgb(255,255,255)" fill-opacity="0.0078125"/>
  <rect x="4" y="7" width="1" height="1" fill="rgb(0,0,0)" fill-opacity="0.1328125"/>
  <rect x="5" y="7" width="1" height="1" fill="rgb(56,56,56)" fill-opacity="0.9375"/>
  <rect x="6" y="7" width="1" height="1" fill="rgb(245,245,245)"/>
  <rect x="7" y="7" width="1" height="1" fill="rgb(177,177,177)"/>
  <rect x="8" y="7" width="1" height="1" fill="rgb(137,137,137)"/>
  <rect x="9" y="7" width="2" height="1" fill="rgb(14,14,14)"/>
  <rect x="11" y="7" width="1" height="1" fill="rgb(26,26,26)"/>
  <rect x="12" y="7" width="1" height="1" fill="rgb(209,209,209)"/>
  <rect x="13" y="7" width="1" height="1" fill="rgb(212,212,212)"/>
  <rect x="14" y="7" width="1" height="1" fill="rgb(210,210,210)"/>
  <rect x="15" y="7" width="1" height="1" fill="rgb(27,27,27)" fill-opacity="0.9140625"/>
  <rect x="16" y="7" width="1" height="1" fill="rgb(0,0,0)" fill-opacity="0.078125"/>
  <rect x="17" y="7" width="4" height="1" fill="rgb(255,255,255)" fill-opacity="0.0078125"/>
  <rect x="0" y="8" width="4" height="1" fill="rgb(255,255,255)" fill-opacity="0.0078125"/>
  <rect x="4" y="8" width="1" height="1" fill="rgb(17,17,17)" fill-opacity="0.6328125"/>
  <rect x="5" y="8" width="1" height="1" fill="rgb(208,208,208)"/>
  <rect x="6" y="8" width="1" height="1" fill="rgb(199,199,199)"/>
  <rect x="7" y="8" width="1" height="1" fill="rgb(137,137,137)"/>
  <rect x="8" y="8" width="1" height="1" fill="rgb(23,23,23)"/>
  <rect x="9" y="8" width="1" height="1" fill="rgb(145,145,145)"/>
  <rect x="10" y="8" width="1" height="1" fill="rgb(151,151,151)"/>
  <rect x="11" y="8" width="1" height="1" fill="rgb(132,132,132)"/>
  <rect x="12" y="8" width="1" height="1" fill="rgb(31,31,31)"/>
  <rect x="13" y="8" width="1" height="1" fill="rgb(228,228,228)"/>
  <rect x="14" y="8" width="1" height="1" fill="rgb(222,222,222)"/>
  <rect x="15" y="8" width="1" height="1" fill="rgb(151,151,151)" fill-opacity="0.9921875"/>
  <rect x="16" y="8" width="1" height="1" fill="rgb(14,14,14)" fill-opacity="0.5"/>
  <rect x="17" y="8" width="4" height="1" fill="rgb(255,255,255)" fill-opacity="0.0078125"/>
  <rect x="0" y="9" width="4" height="1" fill="rgb(255,255,255)" fill-opacity="0.0078125"/>
  <rect x="4" y="9" width="1" height="1" fill="rgb(17,17,17)" fill-opacity="0.8515625"/>
  <rect x="5" y="9" width="1" height="1" fill="rgb(238,238,238)"/>
  <rect x="6" y="9" width="1" height="1" fill="rgb(176,176,176)"/>
  <rect x="7" y="9" width="1" height="1" fill="rgb(172,172,172)"/>
  <rect x="8" y="9" width="1" height="1" fill="rgb(148,148,148)"/>
  <rect x="9" y="9" width="1" height="1" fill="rgb(190,190,190)"/>
  <rect x="10" y="9" width="1" height="1" fill="rgb(202,202,202)"/>
  <rect x="11" y="9" width="1" height="1" fill="rgb(178,178,178)"/>
  <rect x="12" y="9" width="1" height="1" fill="rgb(19,19,19)"/>
  <rect x="13" y="9" width="1" height="1" fill="rgb(240,240,240)"/>
  <rect x="14" y="9" width="1" height="1" fill="rgb(225,225,225)"/>
  <rect x="15" y="9" width="1" height="1" fill="rgb(202,202,202)"/>
  <rect x="16" y="9" width="1" height="1" fill="rgb(28,28,28)" fill-opacity="0.7578125"/>
  <rect x="17" y="9" width="4" height="1" fill="rgb(255,255,255)" fill-opacity="0.0078125"/>
  <rect x="0" y="10" width="4" height="1" fill="rgb(255,255,255)" fill-opacity="0.0078125"/>
  <rect x="4" y="10" width="1" height="1" fill="rgb(38,38,38)" fill-opacity="0.9296875"/>
  <rect x="5" y="10" width="1" height="1" fill="rgb(234,234,234)"/>
  <rect x="6" y="10" width="1" height="1" fill="rgb(177,177,177)"/>
  <rect x="7" y="10" width="1" height="1" fill="rgb(184,184,184)"/>
  <rect x="8" y="10" width="1" height="1" fill="rgb(191,191,191)"/>
  <rect x="9" y="10" width="1" height="1" fill="rgb(200,200,200)"/>
  <rect x="10" y="10" width="1" height="1" fill="rgb(180,180,180)"/>
  <rect x="11" y="10" width="1" height="1" fill="rgb(31,31,31)"/>
  <rect x="12" y="10" width="1" height="1" fill="rgb(202,202,202)"/>
  <rect x="13" y="10" width="1" height="1" fill="rgb(234,234,234)"/>
  <rect x="14" y="10" width="1" height="1" fill="rgb(231,231,231)"/>
  <rect x="15" y="10" width="1" height="1" fill="rgb(237,237,237)"/>
  <rect x="16" y="10" width="1" height="1" fill="rgb(22,22,22)" fill-opacity="0.8984375"/>
  <rect x="17" y="10" width="4" height="1" fill="rgb(255,255,255)" fill-opacity="0.0078125"/>
  <rect x="0" y="11" width="4" height="1" fill="rgb(255,255,255)" fill-opacity="0.0078125"/>
  <rect x="4" y="11" width="1" height="1" fill="rgb(19,19,19)" fill-opacity="0.8828125"/>
  <rect x="5" y="11" width="1" height="1" fill="rgb(229,229,229)"/>
  <rect x="6" y="11" width="1" height="1" fill="rgb(187,187,187)"/>
  <rect x="7" y="11" width="1" height="1" fill="rgb(191,191,191)"/>
  <rect x="8" y="11" width="1" height="1" fill="rgb(198,198,198)"/>
  <rect x="9" y="11" width="1" height="1" fill="rgb(180,180,180)"/>
  <rect x="10" y="11" width="1" height="1" fill="rgb(49,49,49)"/>
  <rect x="11" y="11" width="1" height="1" fill="rgb(200,200,200)"/>
  <rect x="12" y="11" width="1" height="1" fill="rgb(235,235,235)"/>
  <rect x="13" y="11" width="1" height="1" fill="rgb(232,232,232)"/>
  <rect x="14" y="11" width="1" height="1" fill="rgb(239,239,239)"/>
  <rect x="15" y="11" width="1" height="1" fill="rgb(216,216,216)"/>
  <rect x="16" y="11" width="1" height="1" fill="rgb(28,28,28)" fill-opacity="0.8046875"/>
  <rect x="17" y="11" width="4" height="1" fill="rgb(255,255,255)" fill-opacity="0.0078125"/>
  <rect x="0" y="12" width="4" height="1" fill="rgb(255,255,255)" fill-opacity="0.0078125"/>
  <rect x="4" y="12" width="1" height="1" fill="rgb(22,22,22)" fill-opacity="0.6875"/>
  <rect x="5" y="12" width="1" height="1" fill="rgb(197,197,197)"/>
  <rect x="6" y="12" width="1" height="1" fill="rgb(204,204,204)"/>
  <rect x="7" y="12" width="1" height="1" fill="rgb(198,198,198)"/>
  <rect x="8" y="12" width="1" height="1" fill="rgb(205,205,205)"/>
  <rect x="9" y="12" width="1" height="1" fill="rgb(225,225,225)"/>
  <rect x="10" y="12" width="1" height="1" fill="rgb(247,247,247)"/>
  <rect x="11" y="12" width="1" height="1" fill="rgb(240,240,240)"/>
  <rect x="12" y="12" width="1" height="1" fill="rgb(232,232,232)"/>
  <rect x="13" y="12" width="1" height="1" fill="rgb(239,239,239)"/>
  <rect x="14" y="12" width="1" height="1" fill="rgb(246,246,246)"/>
  <rect x="15" y="12" width="1" height="1" fill="rgb(172,172,172)"/>
  <rect x="16" y="12" width="1" height="1" fill="rgb(22,22,22)" fill-opacity="0.5546875"/>
  <rect x="17" y="12" width="4" height="1" fill="rgb(255,255,255)" fill-opacity="0.0078125"/>
  <rect x="0" y="13" width="4" height="1" fill="rgb(255,255,255)" fill-opacity="0.0078125"/>
  <rect x="4" y="13" width="1" height="1" fill="rgb(5,5,5)" fill-opacity="0.2265625"/>
  <rect x="5" y="13" width="1" height="1" fill="rgb(72,72,72)" fill-opacity="0.9375"/>
  <rect x="6" y="13" width="1" height="1" fill="rgb(223,223,223)"/>
  <rect x="7" y="13" width="1" height="1" fill="rgb(208,208,208)"/>
  <rect x="8" y="13" width="1" height="1" fill="rgb(212,212,212)"/>
  <rect x="9" y="13" width="1" height="1" fill="rgb(196,196,196)"/>
  <rect x="10" y="13" width="1" height="1" fill="rgb(35,35,35)"/>
  <rect x="11" y="13" width="1" height="1" fill="rgb(248,248,248)"/>
  <rect x="12" y="13" width="1" height="1" fill="rgb(240,240,240)"/>
  <rect x="13" y="13" width="1" height="1" fill="rgb(246,246,246)"/>
  <rect x="14" y="13" width="1" height="1" fill="rgb(248,248,248)"/>
  <rect x="15" y="13" width="1" height="1" fill="rgb(40,40,40)" fill-opacity="0.9140625"/>
  <rect x="16" y="13" width="1" height="1" fill="rgb(0,0,0)" fill-opacity="0.1484375"/>
  <rect x="17" y="13" width="4" height="1" fill="rgb(255,255,255)" fill-opacity="0.0078125"/>
  <rect x="0" y="14" width="5" height="1" fill="rgb(255,255,255)" fill-opacity="0.0078125"/>
  <rect x="5" y="14" width="1" height="1" fill="rgb(17,17,17)" fill-opacity="0.5859375"/>
  <rect x="6" y="14" width="1" height="1" fill="rgb(125,125,125)" fill-opacity="0.9765625"/>
  <rect x="7" y="14" width="3" height="1" fill="rgb(223,223,223)"/>
  <rect x="10" y="14" width="1" height="1" fill="rgb(149,149,149)"/>
  <rect x="11" y="14" width="2" height="1" fill="rgb(247,247,247)"/>
  <rect x="13" y="14" width="1" height="1" fill="rgb(250,250,250)"/>
  <rect x="14" y="14" width="1" height="1" fill="rgb(99,99,99)" fill-opacity="0.953125"/>
  <rect x="15" y="14" width="1" height="1" fill="rgb(17,17,17)" fill-opacity="0.4765625"/>
  <rect x="16" y="14" width="5" height="1" fill="rgb(255,255,255)" fill-opacity="0.0078125"/>
  <rect x="0" y="15" width="5" height="1" fill="rgb(255,255,255)" fill-opacity="0.0078125"/>
  <rect x="5" y="15" width="1" height="1" fill="rgb(0,0,0)" fill-opacity="0.0234375"/>
  <rect x="6" y="15" width="1" height="1" fill="rgb(17,17,17)" fill-opacity="0.6015625"/>
  <rect x="7" y="15" width="1" height="1" fill="rgb(54,54,54)" fill-opacity="0.9375"/>
  <rect x="8" y="15" width="1" height="1" fill="rgb(189,189,189)"/>
  <rect x="9" y="15" width="1" height="1" fill="rgb(231,231,231)"/>
  <rect x="10" y="15" width="1" height="1" fill="rgb(242,242,242)"/>
  <rect x="11" y="15" width="1" height="1" fill="rgb(240,240,240)"/>
  <rect x="12" y="15" width="1" height="1" fill="rgb(193,193,193)"/>
  <rect x="13" y="15" width="1" height="1" fill="rgb(41,41,41)" fill-opacity="0.9296875"/>
  <rect x="14" y="15" width="1" height="1" fill="rgb(19,19,19)" fill-opacity="0.5234375"/>
  <rect x="15" y="15" width="1" height="1" fill="rgb(0,0,0)" fill-opacity="0.0078125"/>
  <rect x="16" y="15" width="5" height="1" fill="rgb(255,255,255)" fill-opacity="0.0078125"/>
  <rect x="0" y="16" width="7" height="1" fill="rgb(255,255,255)" fill-opacity="0.0078125"/>
  <rect x="7" y="16" width="1" height="1" fill="rgb(0,0,0)" fill-opacity="0.2265625"/>
  <rect x="8" y="16" width="1" height="1" fill="rgb(26,26,26)" fill-opacity="0.703125"/>
  <rect x="9" y="16" width="1" height="1" fill="rgb(23,23,23)" fill-opacity="0.8828125"/>
  <rect x="10" y="16" width="1" height="1" fill="rgb(25,25,25)" fill-opacity="0.921875"/>
  <rect x="11" y="16" width="1" height="1" fill="rgb(24,24,24)" fill-opacity="0.875"/>
  <rect x="12" y="16" width="1" height="1" fill="rgb(27,27,27)" fill-opacity="0.6796875"/>
  <rect x="13" y="16" width="1" height="1" fill="rgb(0,0,0)" fill-opacity="0.1796875"/>
  <rect x="14" y="16" width="7" height="1" fill="rgb(255,255,255)" fill-opacity="0.0078125"/>
  <rect x="0" y="17" width="21" height="1" fill="rgb(255,255,255)" fill-opacity="0.0078125"/>
  <rect x="0" y="18" width="21" height="1" fill="rgb(255,255,255)" fill-opacity="0.0078125"/>
  <rect x="0" y="19" width="21" height="1" fill="rgb(255,255,255)" fill-opacity="0.0078125"/>
  <rect x="0" y="20" width="21" height="1" fill="rgb(255,255,255)" fill-opacity="0.0078125"/>
</svg>