<svg xmlns="http://www.w3.org/2000/svg" shape-rendering="crispEdges" width="21" height="21" viewBox="0 0 21 21">
  <rect x="0" y="0" width="21" height="1" fill="rgb(255,255,255)" fill-opacity="0.0078125"/>
  <rect x="0" y="1" width="21" height="1" fill="rgb(255,255,255)" fill-opacity="0.0078125"/>
  <rect x="0" y="2" width="21" height="1" fill="rgb(255,255,255)" fill-opacity="0.0078125"/>
  <rect x="0" y="3" width="21" height="1" fill="rgb(255,255,255)" fill-opacity="0.0078125"/>
  <rect x="0" y="4" width="3" height="1" fill="rgb(255,255,255)" fill-opacity="0.0078125"/>
  <rect x="3" y="4" width="1" height="1" fill="rgb(43,43,43)" fill-opacity="0.5625"/>
  <rect x="4" y="4" width="10" height="1" fill="rgb(45,45,45)" fill-opacity="0.640625"/>
  <rect x="14" y="4" width="1" height="1" fill="rgb(43,43,43)" fill-opacity="0.5625"/>
  <rect x="15" y="4" width="6" height="1" fill="rgb(255,255,255)" fill-opacity="0.0078125"/>
  <rect x="0" y="5" width="3" height="1" fill="rgb(255,255,255)" fill-opacity="0.0078125"/>
  <rect x="3" y="5" width="1" height="1" fill="rgb(45,45,45)" fill-opacity="0.640625"/>
  <rect x="4" y="5" width="1" height="1" fill="rgb(249,249,249)" fill-opacity="0.703125"/>
  <rect x="5" y="5" width="5" height="1" fill="rgb(255,255,255)" fill-opacity="0.703125"/>
  <rect x="10" y="5" width="1" height="1" fill="rgb(252,252,252)" fill-opacity="0.703125"/>
  <rect x="11" y="5" width="1" height="1" fill="rgb(246,246,246)" fill-opacity="0.703125"/>
  <rect x="12" y="5" width="1" height="1" fill="rgb(242,242,242)" fill-opacity="0.703125"/>
  <rect x="13" y="5" width="1" height="1" fill="rgb(235,235,235)" fill-opacity="0.703125"/>
  <rect x="14" y="5" width="1" height="1" fill="rgb(45,45,45)" fill-opacity="0.640625"/>
  <rect x="15" y="5" width="6" height="1" fill="rgb(255,255,255)" fill-opacity="0.0078125"/>
  <rect x="0" y="6" width="3" height="1" fill="rgb(255,255,255)" fill-opacity="0.0078125"/>
  <rect x="3" y="6" width="1" height="1" fill="rgb(45,45,45)" fill-opacity="0.640625"/>
  <rect x="4" y="6" width="1" height="1" fill="rgb(255,255,255)" fill-opacity="0.703125"/>
  <rect x="5" y="6" width="4" height="1" fill="rgb(215,215,215)" fill-opacity="0.703125"/>
  <rect x="9" y="6" width="1" height="1" fill="rgb(211,211,211)" fill-opacity="0.703125"/>
  <rect x="10" y="6" width="1" height="1" fill="rgb(199,199,199)" fill-opacity="0.703125"/>
  <rect x="11" y="6" width="1" height="1" fill="rgb(191,191,191)" fill-opacity="0.703125"/>
  <rect x="12" y="6" width="1" height="1" fill="rgb(185,185,185)" fill-opacity="0.703125"/>
  <rect x="13" y="6" width="1" height="1" fill="rgb(175,175,175)" fill-opacity="0.7421875"/>
  <rect x="14" y="6" width="1" height="1" fill="rgb(54,54,54)" fill-opacity="0.8515625"/>
  <rect x="15" y="6" width="1" height="1" fill="rgb(61,61,61)" fill-opacity="0.890625"/>
  <rect x="16" y="6" width="1" height="1" fill="rgb(61,61,61)" fill-opacity="0.578125"/>
  <rect x="17" y="6" width="1" height="1" fill="rgb(48,48,48)" fill-opacity="0.1328125"/>
  <rect x="18" y="6" width="3" height="1" fill="rgb(255,255,255)" fill-opacity="0.0078125"/>
  <rect x="0" y="7" width="3" height="1" fill="rgb(255,255,255)" fill-opacity="0.0078125"/>
  <rect x="3" y="7" width="1" height="1" fill="rgb(45,45,45)" fill-opacity="0.640625"/>
  <rect x="4" y="7" width="1" height="1" fill="rgb(255,255,255)" fill-opacity="0.703125"/>
  <rect x="5" y="7" width="4" height="1" fill="rgb(215,215,215)" fill-opacity="0.703125"/>
  <rect x="9" y="7" width="1" height="1" fill="rgb(202,202,202)" fill-opacity="0.703125"/>
  <rect x="10" y="7" width="1" height="1" fill="rgb(189,189,189)" fill-opacity="0.703125"/>
  <rect x="11" y="7" width="1" height="1" fill="rgb(179,179,179)" fill-opacity="0.703125"/>
  <rect x="12" y="7" width="1" height="1" fill="rgb(154,154,154)" fill-opacity="0.7421875"/>
  <rect x="13" y="7" width="1" height="1" fill="rgb(69,69,69)" fill-opacity="0.984375"/>
  <rect x="14" y="7" width="1" height="1" fill="rgb(170,170,170)"/>
  <rect x="15" y="7" width="1" height="1" fill="rgb(231,231,231)"/>
  <rect x="16" y="7" width="1" height="1" fill="rgb(171,171,171)" fill-opacity="0.9921875"/>
  <rect x="17" y="7" width="1" height="1" fill="rgb(63,63,63)" fill-opacity="0.9296875"/>
  <rect x="18" y="7" width="1" height="1" fill="rgb(48,48,48)" fill-opacity="0.1328125"/>
  <rect x="19" y="7" width="2" height="1" fill="rgb(255,255,255)" fill-opacity="0.0078125"/>
  <rect x="0" y="8" width="3" height="1" fill="rgb(255,255,255)" fill-opacity="0.0078125"/>
  <rect x="3" y="8" width="1" height="1" fill="rgb(45,45,45)" fill-opacity="0.640625"/>
  <rect x="4" y="8" width="1" height="1" fill="rgb(255,255,255)" fill-opacity="0.703125"/>
  <rect x="5" y="8" width="3" height="1" fill="rgb(215,215,215)" fill-opacity="0.703125"/>
  <rect x="8" y="8" width="1" height="1" fill="rgb(209,209,209)" fill-opacity="0.703125"/>
  <rect x="9" y="8" width="1" height="1" fill="rgb(194,194,194)" fill-opacity="0.703125"/>
  <rect x="10" y="8" width="1" height="1" fill="rgb(179,179,179)" fill-opacity="0.703125"/>
  <rect x="11" y="8" width="1" height="1" fill="rgb(170,170,170)" fill-opacity="0.703125"/>
  <rect x="12" y="8" width="1" height="1" fill="rgb(95,95,95)" fill-opacity="0.875"/>
  <rect x="13" y="8" width="1" height="1" fill="rgb(167,167,167)"/>
  <rect x="14" y="8" width="1" height="1" fill="rgb(163,163,163)" fill-opacity="0.984375"/>
  <rect x="15" y="8" width="1" height="1" fill="rgb(68,68,68)" fill-opacity="0.9296875"/>
  <rect x="16" y="8" width="1" height="1" fill="rgb(166,166,166)" fill-opacity="0.9609375"/>
  <rect x="17" y="8" width="1" height="1" fill="rgb(171,171,171)" fill-opacity="0.9921875"/>
  <rect x="18" y="8" width="1" height="1" fill="rgb(61,61,61)" fill-opacity="0.578125"/>
  <rect x="19" y="8" width="2" height="1" fill="rgb(255,255,255)" fill-opacity="0.0078125"/>
  <rect x="0" y="9" width="3" height="1" fill="rgb(255,255,255)" fill-opacity="0.0078125"/>
  <rect x="3" y="9" width="1" height="1" fill="rgb(45,45,45)" fill-opacity="0.640625"/>
  <rect x="4" y="9" width="1" height="1" fill="rgb(255,255,255)" fill-opacity="0.703125"/>
  <rect x="5" y="9" width="3" height="1" fill="rgb(215,215,215)" fill-opacity="0.703125"/>
  <rect x="8" y="9" width="1" height="1" fill="rgb(204,204,204)" fill-opacity="0.703125"/>
  <rect x="9" y="9" width="1" height="1" fill="rgb(187,187,187)" fill-opacity="0.703125"/>
  <rect x="10" y="9" width="1" height="1" fill="rgb(172,172,172)" fill-opacity="0.703125"/>
  <rect x="11" y="9" width="1" height="1" fill="rgb(160,160,160)" fill-opacity="0.703125"/>
  <rect x="12" y="9" width="1" height="1" fill="rgb(64,64,64)" fill-opacity="0.9765625"/>
  <rect x="13" y="9" width="1" height="1" fill="rgb(195,195,195)"/>
  <rect x="14" y="9" width="1" height="1" fill="rgb(62,62,62)" fill-opacity="0.9765625"/>
  <rect x="15" y="9" width="1" height="1" fill="rgb(51,51,51)" fill-opacity="0.0625"/>
  <rect x="16" y="9" width="1" height="1" fill="rgb(66,66,66)" fill-opacity="0.921875"/>
  <rect x="17" y="9" width="1" height="1" fill="rgb(235,235,235)"/>
  <rect x="18" y="9" width="1" height="1" fill="rgb(62,62,62)" fill-opacity="0.90625"/>
  <rect x="19" y="9" width="2" height="1" fill="rgb(255,255,255)" fill-opacity="0.0078125"/>
  <rect x="0" y="10" width="3" height="1" fill="rgb(255,255,255)" fill-opacity="0.0078125"/>
  <rect x="3" y="10" width="1" height="1" fill="rgb(45,45,45)" fill-opacity="0.640625"/>
  <rect x="4" y="10" width="1" height="1" fill="rgb(255,255,255)" fill-opacity="0.703125"/>
  <rect x="5" y="10" width="3" height="1" fill="rgb(215,215,215)" fill-opacity="0.703125"/>
  <rect x="8" y="10" width="1" height="1" fill="rgb(199,199,199)" fill-opacity="0.703125"/>
  <rect x="9" y="10" width="1" height="1" fill="rgb(182,182,182)" fill-opacity="0.703125"/>
  <rect x="10" y="10" width="1" height="1" fill="rgb(164,164,164)" fill-opacity="0.703125"/>
  <rect x="11" y="10" width="1" height="1" fill="rgb(150,150,150)" fill-opacity="0.703125"/>
  <rect x="12" y="10" width="1" height="1" fill="rgb(62,62,62)" fill-opacity="0.9765625"/>
  <rect x="13" y="10" width="1" height="1" fill="rgb(148,148,148)"/>
  <rect x="14" y="10" width="1" height="1" fill="rgb(71,71,71)" fill-opacity="0.9921875"/>
  <rect x="15" y="10" width="1" height="1" fill="rgb(60,60,60)" fill-opacity="0.890625"/>
  <rect x="16" y="10" width="1" height="1" fill="rgb(63,63,63)" fill-opacity="0.9609375"/>
  <rect x="17" y="10" width="1" height="1" fill="rgb(240,240,240)"/>
  <rect x="18" y="10" width="1" height="1" fill="rgb(65,65,65)" fill-opacity="0.9140625"/>
  <rect x="19" y="10" width="2" height="1" fill="rgb(255,255,255)" fill-opacity="0.0078125"/>
  <rect x="0" y="11" width="3" height="1" fill="rgb(255,255,255)" fill-opacity="0.0078125"/>
  <rect x="3" y="11" width="1" height="1" fill="rgb(45,45,45)" fill-opacity="0.640625"/>
  <rect x="4" y="11" width="1" height="1" fill="rgb(254,254,254)" fill-opacity="0.703125"/>
  <rect x="5" y="11" width="3" height="1" fill="rgb(215,215,215)" fill-opacity="0.703125"/>
  <rect x="8" y="11" width="1" height="1" fill="rgb(197,197,197)" fill-opacity="0.703125"/>
  <rect x="9" y="11" width="1" height="1" fill="rgb(178,178,178)" fill-opacity="0.703125"/>
  <rect x="10" y="11" width="1" height="1" fill="rgb(160,160,160)" fill-opacity="0.703125"/>
  <rect x="11" y="11" width="1" height="1" fill="rgb(142,142,142)" fill-opacity="0.703125"/>
  <rect x="12" y="11" width="1" height="1" fill="rgb(57,57,57)" fill-opacity="0.9765625"/>
  <rect x="13" y="11" width="1" height="1" fill="rgb(78,78,77)"/>
  <rect x="14" y="11" width="1" height="1" fill="rgb(249,249,249)"/>
  <rect x="15" y="11" width="1" height="1" fill="rgb(206,206,205)"/>
  <rect x="16" y="11" width="1" height="1" fill="rgb(70,70,70)"/>
  <rect x="17" y="11" width="1" height="1" fill="rgb(224,224,224)"/>
  <rect x="18" y="11" width="1" height="1" fill="rgb(62,62,62)" fill-opacity="0.9140625"/>
  <rect x="19" y="11" width="2" height="1" fill="rgb(255,255,255)" fill-opacity="0.0078125"/>
  <rect x="0" y="12" width="3" height="1" fill="rgb(255,255,255)" fill-opacity="0.0078125"/>
  <rect x="3" y="12" width="1" height="1" fill="rgb(45,45,45)" fill-opacity="0.640625"/>
  <rect x="4" y="12" width="1" height="1" fill="rgb(248,248,248)" fill-opacity="0.703125"/>
  <rect x="5" y="12" width="2" height="1" fill="rgb(215,215,215)" fill-opacity="0.703125"/>
  <rect x="7" y="12" width="1" height="1" fill="rgb(214,214,214)" fill-opacity="0.703125"/>
  <rect x="8" y="12" width="1" height="1" fill="rgb(195,195,195)" fill-opacity="0.703125"/>
  <rect x="9" y="12" width="1" height="1" fill="rgb(177,177,177)" fill-opacity="0.703125"/>
  <rect x="10" y="12" width="1" height="1" fill="rgb(157,157,157)" fill-opacity="0.703125"/>
  <rect x="11" y="12" width="1" height="1" fill="rgb(137,137,137)" fill-opacity="0.703125"/>
  <rect x="12" y="12" width="1" height="1" fill="rgb(62,62,62)" fill-opacity="0.96875"/>
  <rect x="13" y="12" width="1" height="1" fill="rgb(255,255,255)"/>
  <rect x="14" y="12" width="1" height="1" fill="rgb(146,149,144)"/>
  <rect x="15" y="12" width="1" height="1" fill="rgb(61,61,61)"/>
  <rect x="16" y="12" width="1" height="1" fill="rgb(130,130,130)"/>
  <rect x="17" y="12" width="1" height="1" fill="rgb(151,151,151)"/>
  <rect x="18" y="12" width="1" height="1" fill="rgb(60,60,60)" fill-opacity="0.796875"/>
  <rect x="19" y="12" width="2" height="1" fill="rgb(255,255,255)" fill-opacity="0.0078125"/>
  <rect x="0" y="13" width="3" height="1" fill="rgb(255,255,255)" fill-opacity="0.0078125"/>
  <rect x="3" y="13" width="1" height="1" fill="rgb(45,45,45)" fill-opacity="0.640625"/>
  <rect x="4" y="13" width="1" height="1" fill="rgb(244,244,244)" fill-opacity="0.703125"/>
  <rect x="5" y="13" width="3" height="1" fill="rgb(215,215,215)" fill-opacity="0.703125"/>
  <rect x="8" y="13" width="1" height="1" fill="rgb(195,195,195)" fill-opacity="0.703125"/>
  <rect x="9" y="13" width="1" height="1" fill="rgb(177,177,177)" fill-opacity="0.703125"/>
  <rect x="10" y="13" width="1" height="1" fill="rgb(157,157,157)" fill-opacity="0.703125"/>
  <rect x="11" y="13" width="1" height="1" fill="rgb(137,137,137)" fill-opacity="0.703125"/>
  <rect x="12" y="13" width="1" height="1" fill="rgb(62,62,62)" fill-opacity="0.984375"/>
  <rect x="13" y="13" width="1" height="1" fill="rgb(255,255,255)"/>
  <rect x="14" y="13" width="1" height="1" fill="rgb(67,67,67)"/>
  <rect x="15" y="13" width="1" height="1" fill="rgb(150,150,150)"/>
  <rect x="16" y="13" width="1" height="1" fill="rgb(129,129,129)"/>
  <rect x="17" y="13" width="1" height="1" fill="rgb(70,70,70)"/>
  <rect x="18" y="13" width="1" height="1" fill="rgb(59,59,59)" fill-opacity="0.90625"/>
  <rect x="19" y="13" width="2" height="1" fill="rgb(255,255,255)" fill-opacity="0.0078125"/>
  <rect x="0" y="14" width="3" height="1" fill="rgb(255,255,255)" fill-opacity="0.0078125"/>
  <rect x="3" y="14" width="1" height="1" fill="rgb(45,45,45)" fill-opacity="0.640625"/>
  <rect x="4" y="14" width="1" height="1" fill="rgb(239,239,239)" fill-opacity="0.703125"/>
  <rect x="5" y="14" width="1" height="1" fill="rgb(77,77,77)" fill-opacity="0.703125"/>
  <rect x="6" y="14" width="1" height="1" fill="rgb(229,229,229)" fill-opacity="0.703125"/>
  <rect x="7" y="14" width="5" height="1" fill="rgb(77,77,77)" fill-opacity="0.703125"/>
  <rect x="12" y="14" width="1" height="1" fill="rgb(65,65,65)" fill-opacity="0.9765625"/>
  <rect x="13" y="14" width="1" height="1" fill="rgb(227,227,226)"/>
  <rect x="14" y="14" width="1" height="1" fill="rgb(60,61,60)"/>
  <rect x="15" y="14" width="1" height="1" fill="rgb(56,56,56)" fill-opacity="0.890625"/>
  <rect x="16" y="14" width="1" height="1" fill="rgb(60,60,60)" fill-opacity="0.9609375"/>
  <rect x="17" y="14" width="1" height="1" fill="rgb(203,203,203)"/>
  <rect x="18" y="14" width="1" height="1" fill="rgb(63,63,63)" fill-opacity="0.90625"/>
  <rect x="19" y="14" width="2" height="1" fill="rgb(255,255,255)" fill-opacity="0.0078125"/>
  <rect x="0" y="15" width="3" height="1" fill="rgb(255,255,255)" fill-opacity="0.0078125"/>
  <rect x="3" y="15" width="1" height="1" fill="rgb(44,44,44)" fill-opacity="0.5546875"/>
  <rect x="4" y="15" width="1" height="1" fill="rgb(196,196,196)" fill-opacity="0.6953125"/>
  <rect x="5" y="15" width="1" height="1" fill="rgb(229,229,229)" fill-opacity="0.703125"/>
  <rect x="6" y="15" width="1" height="1" fill="rgb(225,225,225)" fill-opacity="0.703125"/>
  <rect x="7" y="15" width="1" height="1" fill="rgb(219,219,219)" fill-opacity="0.703125"/>
  <rect x="8" y="15" width="4" height="1" fill="rgb(215,215,215)" fill-opacity="0.703125"/>
  <rect x="12" y="15" width="1" height="1" fill="rgb(72,72,72)" fill-opacity="0.9765625"/>
  <rect x="13" y="15" width="1" height="1" fill="rgb(221,221,221)"/>
  <rect x="14" y="15" width="1" height="1" fill="rgb(64,64,64)" fill-opacity="0.96875"/>
  <rect x="15" y="15" width="1" height="1" fill="rgb(51,51,51)" fill-opacity="0.0625"/>
  <rect x="16" y="15" width="1" height="1" fill="rgb(65,65,65)" fill-opacity="0.921875"/>
  <rect x="17" y="15" width="1" height="1" fill="rgb(221,221,221)"/>
  <rect x="18" y="15" width="1" height="1" fill="rgb(61,61,61)" fill-opacity="0.90625"/>
  <rect x="19" y="15" width="2" height="1" fill="rgb(255,255,255)" fill-opacity="0.0078125"/>
  <rect x="0" y="16" width="3" height="1" fill="rgb(255,255,255)" fill-opacity="0.0078125"/>
  <rect x="3" y="16" width="1" height="1" fill="rgb(32,32,32)" fill-opacity="0.0390625"/>
  <rect x="4" y="16" width="1" height="1" fill="rgb(44,44,44)" fill-opacity="0.5546875"/>
  <rect x="5" y="16" width="7" height="1" fill="rgb(45,45,45)" fill-opacity="0.640625"/>
  <rect x="12" y="16" width="1" height="1" fill="rgb(55,55,55)" fill-opacity="0.8515625"/>
  <rect x="13" y="16" width="1" height="1" fill="rgb(160,160,160)"/>
  <rect x="14" y="16" width="1" height="1" fill="rgb(155,155,155)" fill-opacity="0.9765625"/>
  <rect x="15" y="16" width="1" height="1" fill="rgb(67,67,67)" fill-opacity="0.9296875"/>
  <rect x="16" y="16" width="1" height="1" fill="rgb(157,157,157)" fill-opacity="0.9609375"/>
  <rect x="17" y="16" width="1" height="1" fill="rgb(160,160,160)" fill-opacity="0.9921875"/>
  <rect x="18" y="16" width="1" height="1" fill="rgb(61,61,61)" fill-opacity="0.578125"/>
  <rect x="19" y="16" width="2" height="1" fill="rgb(255,255,255)" fill-opacity="0.0078125"/>
  <rect x="0" y="17" width="12" height="1" fill="rgb(255,255,255)" fill-opacity="0.0078125"/>
  <rect x="12" y="17" width="1" height="1" fill="rgb(48,48,48)" fill-opacity="0.1328125"/>
  <rect x="13" y="17" width="1" height="1" fill="rgb(62,62,62)" fill-opacity="0.9296875"/>
  <rect x="14" y="17" width="1" height="1" fill="rgb(162,162,162)" fill-opacity="0.9921875"/>
  <rect x="15" y="17" width="1" height="1" fill="rgb(217,217,217)"/>
  <rect x="16" y="17" width="1" height="1" fill="rgb(162,162,162)" fill-opacity="0.9921875"/>
  <rect x="17" y="17" width="1" height="1" fill="rgb(62,62,62)" fill-opacity="0.9296875"/>
  <rect x="18" y="17" width="1" height="1" fill="rgb(48,48,48)" fill-opacity="0.1328125"/>
  <rect x="19" y="17" width="2" height="1" fill="rgb(255,255,255)" fill-opacity="0.0078125"/>
  <rect x="0" y="18" width="13" height="1" fill="rgb(255,255,255)" fill-opacity="0.0078125"/>
  <rect x="13" y="18" width="1" height="1" fill="rgb(48,48,48)" fill-opacity="0.1328125"/>
  <rect x="14" y="18" width="1" height="1" fill="rgb(61,61,61)" fill-opacity="0.578125"/>
  <rect x="15" y="18" width="1" height="1" fill="rgb(60,60,60)" fill-opacity="0.890625"/>
  <rect x="16" y="18" width="1" height="1" fill="rgb(61,61,61)" fill-opacity="0.578125"/>
  <rect x="17" y="18" width="1" height="1" fill="rgb(48,48,48)" fill-opacity="0.1328125"/>
  <rect x="18" y="18" width="3" height="1" fill="rgb(255,255,255)" fill-opacity="0.0078125"/>
  <rect x="0" y="19" width="21" height="1" fill="rgb(255,255,255)" fill-opacity="0.0078125"/>
  <rect x="0" y="20" width="21" height="1" fill="rgb(255,255,255)" fill-opacity="0.0078125"/>
</svg>