<svg xmlns="http://www.w3.org/2000/svg" shape-rendering="crispEdges" width="21" height="21" viewBox="0 0 21 21">
  <rect x="0" y="0" width="1" height="21" fill="rgb(255,255,255)" fill-opacity="0.0078125"/>
  <rect x="1" y="0" width="1" height="21" fill="rgb(255,255,255)" fill-opacity="0.0078125"/>
  <rect x="2" y="0" width="1" height="21" fill="rgb(255,255,255)" fill-opacity="0.0078125"/>
  <rect x="3" y="0" width="1" height="21" fill="rgb(255,255,255)" fill-opacity="0.0078125"/>
  <rect x="4" y="0" width="1" height="5" fill="rgb(255,255,255)" fill-opacity="0.0078125"/>
  <rect x="4" y="5" width="1" height="1" fill="rgb(55,55,55)" fill-opacity="0.1171875"/>
  <rect x="4" y="6" width="1" height="1" fill="rgb(58,58,58)" fill-opacity="0.65625"/>
  <rect x="4" y="7" width="1" height="1" fill="rgb(53,53,53)" fill-opacity="0.9453125"/>
  <rect x="4" y="8" width="1" height="8" fill="rgb(51,51,51)" fill-opacity="0.9609375"/>
  <rect x="4" y="16" width="1" height="1" fill="rgb(53,53,53)" fill-opacity="0.9453125"/>
  <rect x="4" y="17" width="1" height="1" fill="rgb(61,61,61)" fill-opacity="0.65625"/>
  <rect x="4" y="18" width="1" height="1" fill="rgb(55,55,55)" fill-opacity="0.1171875"/>
  <rect x="4" y="19" width="1" height="2" fill="rgb(255,255,255)" fill-opacity="0.0078125"/>
  <rect x="5" y="0" width="1" height="3" fill="rgb(255,255,255)" fill-opacity="0.0078125"/>
  <rect x="5" y="3" width="1" height="1" fill="rgb(25,49,82)" fill-opacity="0.125"/>
  <rect x="5" y="4" width="1" height="1" fill="rgb(22,48,83)" fill-opacity="0.6328125"/>
  <rect x="5" y="5" width="1" height="1" fill="rgb(33,51,77)" fill-opacity="0.84375"/>
  <rect x="5" y="6" width="1" height="1" fill="rgb(74,88,110)" fill-opacity="0.9609375"/>
  <rect x="5" y="7" width="1" height="1" fill="rgb(195,202,211)" fill-opacity="0.9609375"/>
  <rect x="5" y="8" width="1" height="7" fill="rgb(255,255,255)" fill-opacity="0.9609375"/>
  <rect x="5" y="15" width="1" height="1" fill="rgb(252,252,252)" fill-opacity="0.9609375"/>
  <rect x="5" y="16" width="1" height="1" fill="rgb(247,247,247)" fill-opacity="0.9609375"/>
  <rect x="5" y="17" width="1" height="1" fill="rgb(149,149,149)" fill-opacity="0.9609375"/>
  <rect x="5" y="18" width="1" height="1" fill="rgb(61,61,61)" fill-opacity="0.65625"/>
  <rect x="5" y="19" width="1" height="2" fill="rgb(255,255,255)" fill-opacity="0.0078125"/>
  <rect x="6" y="0" width="1" height="3" fill="rgb(255,255,255)" fill-opacity="0.0078125"/>
  <rect x="6" y="3" width="1" height="1" fill="rgb(21,46,81)" fill-opacity="0.65625"/>
  <rect x="6" y="4" width="1" height="1" fill="rgb(146,157,174)" fill-opacity="0.9140625"/>
  <rect x="6" y="5" width="1" height="1" fill="rgb(255,255,255)" fill-opacity="0.9609375"/>
  <rect x="6" y="6" width="1" height="1" fill="rgb(158,168,182)" fill-opacity="0.9609375"/>
  <rect x="6" y="7" width="1" height="1" fill="rgb(84,101,127)" fill-opacity="0.9609375"/>
  <rect x="6" y="8" width="1" height="1" fill="rgb(182,182,182)" fill-opacity="0.9609375"/>
  <rect x="6" y="9" width="1" height="1" fill="rgb(186,186,186)" fill-opacity="0.9609375"/>
  <rect x="6" y="10" width="1" height="1" fill="rgb(192,192,192)" fill-opacity="0.9609375"/>
  <rect x="6" y="11" width="1" height="1" fill="rgb(196,196,196)" fill-opacity="0.9609375"/>
  <rect x="6" y="12" width="1" height="1" fill="rgb(200,200,200)" fill-opacity="0.9609375"/>
  <rect x="6" y="13" width="1" height="1" fill="rgb(205,205,205)" fill-opacity="0.9609375"/>
  <rect x="6" y="14" width="1" height="1" fill="rgb(210,210,210)" fill-opacity="0.9609375"/>
  <rect x="6" y="15" width="1" height="1" fill="rgb(214,214,214)" fill-opacity="0.9609375"/>
  <rect x="6" y="16" width="1" height="1" fill="rgb(226,226,226)" fill-opacity="0.9609375"/>
  <rect x="6" y="17" width="1" height="1" fill="rgb(244,244,244)" fill-opacity="0.9609375"/>
  <rect x="6" y="18" width="1" height="1" fill="rgb(53,53,53)" fill-opacity="0.9453125"/>
  <rect x="6" y="19" width="1" height="2" fill="rgb(255,255,255)" fill-opacity="0.0078125"/>
  <rect x="7" y="0" width="1" height="3" fill="rgb(255,255,255)" fill-opacity="0.0078125"/>
  <rect x="7" y="3" width="1" height="1" fill="rgb(21,46,79)" fill-opacity="0.2421875"/>
  <rect x="7" y="4" width="1" height="1" fill="rgb(23,46,83)" fill-opacity="0.8671875"/>
  <rect x="7" y="5" width="1" height="1" fill="rgb(28,48,79)" fill-opacity="0.9609375"/>
  <rect x="7" y="6" width="1" height="1" fill="rgb(86,105,133)" fill-opacity="0.9609375"/>
  <rect x="7" y="7" width="1" height="1" fill="rgb(130,139,152)" fill-opacity="0.9609375"/>
  <rect x="7" y="8" width="1" height="1" fill="rgb(185,185,185)" fill-opacity="0.9609375"/>
  <rect x="7" y="9" width="1" height="1" fill="rgb(190,190,190)" fill-opacity="0.9609375"/>
  <rect x="7" y="10" width="1" height="1" fill="rgb(51,51,51)"/>
  <rect x="7" y="11" width="1" height="1" fill="rgb(199,199,199)" fill-opacity="0.9609375"/>
  <rect x="7" y="12" width="1" height="1" fill="rgb(51,51,51)"/>
  <rect x="7" y="13" width="1" height="1" fill="rgb(209,209,209)" fill-opacity="0.9609375"/>
  <rect x="7" y="14" width="1" height="1" fill="rgb(51,51,51)"/>
  <rect x="7" y="15" width="1" height="1" fill="rgb(218,218,218)" fill-opacity="0.9609375"/>
  <rect x="7" y="16" width="1" height="1" fill="rgb(222,222,222)" fill-opacity="0.9609375"/>
  <rect x="7" y="17" width="1" height="1" fill="rgb(247,247,247)" fill-opacity="0.9609375"/>
  <rect x="7" y="18" width="1" height="1" fill="rgb(51,51,51)" fill-opacity="0.9609375"/>
  <rect x="7" y="19" width="1" height="2" fill="rgb(255,255,255)" fill-opacity="0.0078125"/>
  <rect x="8" y="0" width="1" height="3" fill="rgb(255,255,255)" fill-opacity="0.0078125"/>
  <rect x="8" y="3" width="1" height="1" fill="rgb(22,46,81)" fill-opacity="0.65625"/>
  <rect x="8" y="4" width="1" height="1" fill="rgb(146,157,174)" fill-opacity="0.9140625"/>
  <rect x="8" y="5" width="1" height="1" fill="rgb(255,255,255)" fill-opacity="0.9609375"/>
  <rect x="8" y="6" width="1" height="1" fill="rgb(159,168,183)" fill-opacity="0.9609375"/>
  <rect x="8" y="7" width="1" height="1" fill="rgb(81,98,124)" fill-opacity="0.9609375"/>
  <rect x="8" y="8" width="1" height="1" fill="rgb(189,189,189)" fill-opacity="0.9609375"/>
  <rect x="8" y="9" width="1" height="1" fill="rgb(193,193,193)" fill-opacity="0.9609375"/>
  <rect x="8" y="10" width="1" height="1" fill="rgb(51,51,51)"/>
  <rect x="8" y="11" width="1" height="1" fill="rgb(203,203,203)" fill-opacity="0.9609375"/>
  <rect x="8" y="12" width="1" height="1" fill="rgb(51,51,51)"/>
  <rect x="8" y="13" width="1" height="1" fill="rgb(212,212,212)" fill-opacity="0.9609375"/>
  <rect x="8" y="14" width="1" height="1" fill="rgb(51,51,51)"/>
  <rect x="8" y="15" width="1" height="1" fill="rgb(221,221,221)" fill-opacity="0.9609375"/>
  <rect x="8" y="16" width="1" height="1" fill="rgb(226,226,226)" fill-opacity="0.9609375"/>
  <rect x="8" y="17" width="1" height="1" fill="rgb(247,247,247)" fill-opacity="0.9609375"/>
  <rect x="8" y="18" width="1" height="1" fill="rgb(51,51,51)" fill-opacity="0.9609375"/>
  <rect x="8" y="19" width="1" height="2" fill="rgb(255,255,255)" fill-opacity="0.0078125"/>
  <rect x="9" y="0" width="1" height="3" fill="rgb(255,255,255)" fill-opacity="0.0078125"/>
  <rect x="9" y="3" width="1" height="1" fill="rgb(21,46,79)" fill-opacity="0.2421875"/>
  <rect x="9" y="4" width="1" height="1" fill="rgb(23,46,83)" fill-opacity="0.8671875"/>
  <rect x="9" y="5" width="1" height="1" fill="rgb(29,49,80)" fill-opacity="0.9609375"/>
  <rect x="9" y="6" width="1" height="1" fill="rgb(87,105,134)" fill-opacity="0.9609375"/>
  <rect x="9" y="7" width="1" height="1" fill="rgb(134,143,156)" fill-opacity="0.9609375"/>
  <rect x="9" y="8" width="1" height="1" fill="rgb(192,192,192)" fill-opacity="0.9609375"/>
  <rect x="9" y="9" width="1" height="1" fill="rgb(197,197,197)" fill-opacity="0.9609375"/>
  <rect x="9" y="10" width="1" height="1" fill="rgb(51,51,51)"/>
  <rect x="9" y="11" width="1" height="1" fill="rgb(206,206,206)" fill-opacity="0.9609375"/>
  <rect x="9" y="12" width="1" height="1" fill="rgb(51,51,51)"/>
  <rect x="9" y="13" width="1" height="1" fill="rgb(215,215,215)" fill-opacity="0.9609375"/>
  <rect x="9" y="14" width="1" height="1" fill="rgb(51,51,51)"/>
  <rect x="9" y="15" width="1" height="1" fill="rgb(225,225,225)" fill-opacity="0.9609375"/>
  <rect x="9" y="16" width="1" height="1" fill="rgb(229,229,229)" fill-opacity="0.9609375"/>
  <rect x="9" y="17" width="1" height="1" fill="rgb(246,246,246)" fill-opacity="0.9609375"/>
  <rect x="9" y="18" width="1" height="1" fill="rgb(51,51,51)" fill-opacity="0.9609375"/>
  <rect x="9" y="19" width="1" height="2" fill="rgb(255,255,255)" fill-opacity="0.0078125"/>
  <rect x="10" y="0" width="1" height="3" fill="rgb(255,255,255)" fill-opacity="0.0078125"/>
  <rect x="10" y="3" width="1" height="1" fill="rgb(22,45,81)" fill-opacity="0.65625"/>
  <rect x="10" y="4" width="1" height="1" fill="rgb(146,157,174)" fill-opacity="0.9140625"/>
  <rect x="10" y="5" width="1" height="1" fill="rgb(255,255,255)" fill-opacity="0.9609375"/>
  <rect x="10" y="6" width="1" height="1" fill="rgb(158,168,182)" fill-opacity="0.9609375"/>
  <rect x="10" y="7" width="1" height="1" fill="rgb(84,101,127)" fill-opacity="0.9609375"/>
  <rect x="10" y="8" width="1" height="1" fill="rgb(196,196,196)" fill-opacity="0.9609375"/>
  <rect x="10" y="9" width="1" height="1" fill="rgb(200,200,200)" fill-opacity="0.9609375"/>
  <rect x="10" y="10" width="1" height="1" fill="rgb(51,51,51)"/>
  <rect x="10" y="11" width="1" height="1" fill="rgb(209,209,209)" fill-opacity="0.9609375"/>
  <rect x="10" y="12" width="1" height="1" fill="rgb(51,51,51)"/>
  <rect x="10" y="13" width="1" height="1" fill="rgb(219,219,219)" fill-opacity="0.9609375"/>
  <rect x="10" y="14" width="1" height="1" fill="rgb(51,51,51)"/>
  <rect x="10" y="15" width="1" height="1" fill="rgb(228,228,228)" fill-opacity="0.9609375"/>
  <rect x="10" y="16" width="1" height="1" fill="rgb(233,233,233)" fill-opacity="0.9609375"/>
  <rect x="10" y="17" width="1" height="1" fill="rgb(247,247,247)" fill-opacity="0.9609375"/>
  <rect x="10" y="18" width="1" height="1" fill="rgb(51,51,51)" fill-opacity="0.9609375"/>
  <rect x="10" y="19" width="1" height="2" fill="rgb(255,255,255)" fill-opacity="0.0078125"/>
  <rect x="11" y="0" width="1" height="3" fill="rgb(255,255,255)" fill-opacity="0.0078125"/>
  <rect x="11" y="3" width="1" height="1" fill="rgb(21,47,81)" fill-opacity="0.2421875"/>
  <rect x="11" y="4" width="1" height="1" fill="rgb(23,47,83)" fill-opacity="0.859375"/>
  <rect x="11" y="5" width="1" height="1" fill="rgb(29,49,79)" fill-opacity="0.9609375"/>
  <rect x="11" y="6" width="1" height="1" fill="rgb(87,106,135)" fill-opacity="0.9609375"/>
  <rect x="11" y="7" width="1" height="1" fill="rgb(141,148,161)" fill-opacity="0.9609375"/>
  <rect x="11" y="8" width="1" height="1" fill="rgb(199,199,199)" fill-opacity="0.9609375"/>
  <rect x="11" y="9" width="1" height="1" fill="rgb(204,204,204)" fill-opacity="0.9609375"/>
  <rect x="11" y="10" width="1" height="1" fill="rgb(51,51,51)"/>
  <rect x="11" y="11" width="1" height="1" fill="rgb(213,213,213)" fill-opacity="0.9609375"/>
  <rect x="11" y="12" width="1" height="1" fill="rgb(51,51,51)"/>
  <rect x="11" y="13" width="1" height="1" fill="rgb(222,222,222)" fill-opacity="0.9609375"/>
  <rect x="11" y="14" width="1" height="1" fill="rgb(51,51,51)"/>
  <rect x="11" y="15" width="1" height="1" fill="rgb(231,231,231)" fill-opacity="0.9609375"/>
  <rect x="11" y="16" width="1" height="1" fill="rgb(236,236,236)" fill-opacity="0.9609375"/>
  <rect x="11" y="17" width="1" height="1" fill="rgb(248,248,248)" fill-opacity="0.9609375"/>
  <rect x="11" y="18" width="1" height="1" fill="rgb(51,51,51)" fill-opacity="0.9609375"/>
  <rect x="11" y="19" width="1" height="2" fill="rgb(255,255,255)" fill-opacity="0.0078125"/>
  <rect x="12" y="0" width="1" height="3" fill="rgb(255,255,255)" fill-opacity="0.0078125"/>
  <rect x="12" y="3" width="1" height="1" fill="rgb(22,45,81)" fill-opacity="0.6484375"/>
  <rect x="12" y="4" width="1" height="1" fill="rgb(146,157,175)" fill-opacity="0.9140625"/>
  <rect x="12" y="5" width="1" height="1" fill="rgb(255,255,255)" fill-opacity="0.9609375"/>
  <rect x="12" y="6" width="1" height="1" fill="rgb(159,168,182)" fill-opacity="0.9609375"/>
  <rect x="12" y="7" width="1" height="1" fill="rgb(87,104,130)" fill-opacity="0.9609375"/>
  <rect x="12" y="8" width="1" height="1" fill="rgb(202,202,202)" fill-opacity="0.9609375"/>
  <rect x="12" y="9" width="1" height="1" fill="rgb(207,207,207)" fill-opacity="0.9609375"/>
  <rect x="12" y="10" width="1" height="1" fill="rgb(51,51,51)"/>
  <rect x="12" y="11" width="1" height="1" fill="rgb(216,216,216)" fill-opacity="0.9609375"/>
  <rect x="12" y="12" width="1" height="1" fill="rgb(51,51,51)"/>
  <rect x="12" y="13" width="1" height="1" fill="rgb(226,226,226)" fill-opacity="0.9609375"/>
  <rect x="12" y="14" width="1" height="1" fill="rgb(51,51,51)"/>
  <rect x="12" y="15" width="1" height="1" fill="rgb(235,235,235)" fill-opacity="0.9609375"/>
  <rect x="12" y="16" width="1" height="1" fill="rgb(240,240,240)" fill-opacity="0.9609375"/>
  <rect x="12" y="17" width="1" height="1" fill="rgb(249,249,249)" fill-opacity="0.9609375"/>
  <rect x="12" y="18" width="1" height="1" fill="rgb(51,51,51)" fill-opacity="0.9609375"/>
  <rect x="12" y="19" width="1" height="2" fill="rgb(255,255,255)" fill-opacity="0.0078125"/>
  <rect x="13" y="0" width="1" height="3" fill="rgb(255,255,255)" fill-opacity="0.0078125"/>
  <rect x="13" y="3" width="1" height="1" fill="rgb(22,49,76)" fill-opacity="0.1875"/>
  <rect x="13" y="4" width="1" height="1" fill="rgb(22,47,83)" fill-opacity="0.8515625"/>
  <rect x="13" y="5" width="1" height="1" fill="rgb(29,49,79)" fill-opacity="0.9609375"/>
  <rect x="13" y="6" width="1" height="1" fill="rgb(88,107,135)" fill-opacity="0.9609375"/>
  <rect x="13" y="7" width="1" height="1" fill="rgb(144,152,165)" fill-opacity="0.9609375"/>
  <rect x="13" y="8" width="1" height="1" fill="rgb(206,206,206)" fill-opacity="0.9609375"/>
  <rect x="13" y="9" width="1" height="1" fill="rgb(210,210,210)" fill-opacity="0.9609375"/>
  <rect x="13" y="10" width="1" height="1" fill="rgb(51,51,51)"/>
  <rect x="13" y="11" width="1" height="1" fill="rgb(220,220,220)" fill-opacity="0.9609375"/>
  <rect x="13" y="12" width="1" height="1" fill="rgb(51,51,51)"/>
  <rect x="13" y="13" width="1" height="1" fill="rgb(229,229,229)" fill-opacity="0.9609375"/>
  <rect x="13" y="14" width="1" height="1" fill="rgb(51,51,51)"/>
  <rect x="13" y="15" width="1" height="1" fill="rgb(238,238,238)" fill-opacity="0.9609375"/>
  <rect x="13" y="16" width="1" height="1" fill="rgb(51,51,51)"/>
  <rect x="13" y="17" width="1" height="1" fill="rgb(251,251,251)" fill-opacity="0.9609375"/>
  <rect x="13" y="18" width="1" height="1" fill="rgb(51,51,51)" fill-opacity="0.9609375"/>
  <rect x="13" y="19" width="1" height="2" fill="rgb(255,255,255)" fill-opacity="0.0078125"/>
  <rect x="14" y="0" width="1" height="3" fill="rgb(255,255,255)" fill-opacity="0.0078125"/>
  <rect x="14" y="3" width="1" height="1" fill="rgb(22,45,81)" fill-opacity="0.640625"/>
  <rect x="14" y="4" width="1" height="1" fill="rgb(146,157,175)" fill-opacity="0.9140625"/>
  <rect x="14" y="5" width="1" height="1" fill="rgb(255,255,255)" fill-opacity="0.9609375"/>
  <rect x="14" y="6" width="1" height="1" fill="rgb(159,168,182)" fill-opacity="0.9609375"/>
  <rect x="14" y="7" width="1" height="1" fill="rgb(95,111,137)" fill-opacity="0.9609375"/>
  <rect x="14" y="8" width="1" height="1" fill="rgb(209,209,209)" fill-opacity="0.9609375"/>
  <rect x="14" y="9" width="1" height="1" fill="rgb(214,214,214)" fill-opacity="0.9609375"/>
  <rect x="14" y="10" width="1" height="1" fill="rgb(218,218,218)" fill-opacity="0.9609375"/>
  <rect x="14" y="11" width="1" height="1" fill="rgb(223,223,223)" fill-opacity="0.9609375"/>
  <rect x="14" y="12" width="1" height="1" fill="rgb(228,228,228)" fill-opacity="0.9609375"/>
  <rect x="14" y="13" width="1" height="1" fill="rgb(232,232,232)" fill-opacity="0.9609375"/>
  <rect x="14" y="14" width="1" height="1" fill="rgb(237,237,237)" fill-opacity="0.9609375"/>
  <rect x="14" y="15" width="1" height="1" fill="rgb(243,243,243)" fill-opacity="0.9609375"/>
  <rect x="14" y="16" width="1" height="1" fill="rgb(247,247,247)" fill-opacity="0.9609375"/>
  <rect x="14" y="17" width="1" height="1" fill="rgb(244,244,244)" fill-opacity="0.9609375"/>
  <rect x="14" y="18" width="1" height="1" fill="rgb(54,54,54)" fill-opacity="0.9453125"/>
  <rect x="14" y="19" width="1" height="2" fill="rgb(255,255,255)" fill-opacity="0.0078125"/>
  <rect x="15" y="0" width="1" height="3" fill="rgb(255,255,255)" fill-opacity="0.0078125"/>
  <rect x="15" y="3" width="1" height="1" fill="rgb(26,51,85)" fill-opacity="0.125"/>
  <rect x="15" y="4" width="1" height="1" fill="rgb(23,47,84)" fill-opacity="0.6171875"/>
  <rect x="15" y="5" width="1" height="1" fill="rgb(35,51,77)" fill-opacity="0.84375"/>
  <rect x="15" y="6" width="1" height="1" fill="rgb(80,94,114)" fill-opacity="0.9609375"/>
  <rect x="15" y="7" width="1" height="1" fill="rgb(192,198,208)" fill-opacity="0.9609375"/>
  <rect x="15" y="8" width="1" height="1" fill="rgb(247,247,247)" fill-opacity="0.9609375"/>
  <rect x="15" y="9" width="1" height="2" fill="rgb(245,245,245)" fill-opacity="0.9609375"/>
  <rect x="15" y="11" width="1" height="2" fill="rgb(244,244,244)" fill-opacity="0.9609375"/>
  <rect x="15" y="13" width="1" height="1" fill="rgb(246,246,246)" fill-opacity="0.9609375"/>
  <rect x="15" y="14" width="1" height="1" fill="rgb(247,247,247)" fill-opacity="0.9609375"/>
  <rect x="15" y="15" width="1" height="1" fill="rgb(249,249,249)" fill-opacity="0.9609375"/>
  <rect x="15" y="16" width="1" height="1" fill="rgb(243,243,243)" fill-opacity="0.9609375"/>
  <rect x="15" y="17" width="1" height="1" fill="rgb(146,146,146)" fill-opacity="0.9609375"/>
  <rect x="15" y="18" width="1" height="1" fill="rgb(64,64,64)" fill-opacity="0.65625"/>
  <rect x="15" y="19" width="1" height="2" fill="rgb(255,255,255)" fill-opacity="0.0078125"/>
  <rect x="16" y="0" width="1" height="5" fill="rgb(255,255,255)" fill-opacity="0.0078125"/>
  <rect x="16" y="5" width="1" height="1" fill="rgb(55,55,55)" fill-opacity="0.1171875"/>
  <rect x="16" y="6" width="1" height="1" fill="rgb(61,61,61)" fill-opacity="0.65625"/>
  <rect x="16" y="7" width="1" height="1" fill="rgb(53,53,53)" fill-opacity="0.9453125"/>
  <rect x="16" y="8" width="1" height="8" fill="rgb(51,51,51)" fill-opacity="0.9609375"/>
  <rect x="16" y="16" width="1" height="1" fill="rgb(54,54,54)" fill-opacity="0.9453125"/>
  <rect x="16" y="17" width="1" height="1" fill="rgb(64,64,64)" fill-opacity="0.65625"/>
  <rect x="16" y="18" width="1" height="1" fill="rgb(55,55,55)" fill-opacity="0.1171875"/>
  <rect x="16" y="19" width="1" height="2" fill="rgb(255,255,255)" fill-opacity="0.0078125"/>
  <rect x="17" y="0" width="1" height="21" fill="rgb(255,255,255)" fill-opacity="0.0078125"/>
  <rect x="18" y="0" width="1" height="21" fill="rgb(255,255,255)" fill-opacity="0.0078125"/>
  <rect x="19" y="0" width="1" height="21" fill="rgb(255,255,255)" fill-opacity="0.0078125"/>
  <rect x="20" y="0" width="1" height="21" fill="rgb(255,255,255)" fill-opacity="0.0078125"/>
</svg>