<svg xmlns="http://www.w3.org/2000/svg" shape-rendering="crispEdges" width="21" height="21" viewBox="0 0 21 21">
  <rect x="0" y="0" width="1" height="21" fill="rgb(255,255,255)" fill-opacity="0.0078125"/>
  <rect x="1" y="0" width="1" height="21" fill="rgb(255,255,255)" fill-opacity="0.0078125"/>
  <rect x="2" y="0" width="1" height="21" fill="rgb(255,255,255)" fill-opacity="0.0078125"/>
  <rect x="3" y="0" width="1" height="21" fill="rgb(255,255,255)" fill-opacity="0.0078125"/>
  <rect x="4" y="0" width="1" height="6" fill="rgb(255,255,255)" fill-opacity="0.0078125"/>
  <rect x="4" y="6" width="1" height="1" fill="rgb(113,113,113)" fill-opacity="0.109375"/>
  <rect x="4" y="7" width="1" height="1" fill="rgb(74,74,74)" fill-opacity="0.25"/>
  <rect x="4" y="8" width="1" height="7" fill="rgb(53,53,53)" fill-opacity="0.25"/>
  <rect x="4" y="15" width="1" height="1" fill="rgb(58,58,58)" fill-opacity="0.2265625"/>
  <rect x="4" y="16" width="1" height="1" fill="rgb(51,51,51)" fill-opacity="0.0859375"/>
  <rect x="4" y="17" width="1" height="4" fill="rgb(255,255,255)" fill-opacity="0.0078125"/>
  <rect x="5" y="0" width="1" height="5" fill="rgb(255,255,255)" fill-opacity="0.0078125"/>
  <rect x="5" y="5" width="1" height="1" fill="rgb(53,53,53)" fill-opacity="0.1171875"/>
  <rect x="5" y="6" width="1" height="1" fill="rgb(53,53,53)" fill-opacity="0.25"/>
  <rect x="5" y="7" width="1" height="1" fill="rgb(186,186,186)" fill-opacity="0.25"/>
  <rect x="5" y="8" width="1" height="1" fill="rgb(227,227,227)" fill-opacity="0.25"/>
  <rect x="5" y="9" width="1" height="1" fill="rgb(202,202,202)" fill-opacity="0.25"/>
  <rect x="5" y="10" width="1" height="5" fill="rgb(117,117,117)" fill-opacity="0.25"/>
  <rect x="5" y="15" width="1" height="1" fill="rgb(166,166,166)" fill-opacity="0.25"/>
  <rect x="5" y="16" width="1" height="1" fill="rgb(58,58,58)" fill-opacity="0.2265625"/>
  <rect x="5" y="17" width="1" height="4" fill="rgb(255,255,255)" fill-opacity="0.0078125"/>
  <rect x="6" y="0" width="1" height="5" fill="rgb(255,255,255)" fill-opacity="0.0078125"/>
  <rect x="6" y="5" width="1" height="1" fill="rgb(52,52,52)" fill-opacity="0.21875"/>
  <rect x="6" y="6" width="1" height="1" fill="rgb(255,255,255)" fill-opacity="0.25"/>
  <rect x="6" y="7" width="1" height="1" fill="rgb(170,170,170)" fill-opacity="0.25"/>
  <rect x="6" y="8" width="1" height="1" fill="rgb(219,219,219)" fill-opacity="0.25"/>
  <rect x="6" y="9" width="1" height="1" fill="rgb(178,178,178)" fill-opacity="0.25"/>
  <rect x="6" y="10" width="1" height="5" fill="rgb(65,65,65)" fill-opacity="0.25"/>
  <rect x="6" y="15" width="1" height="1" fill="rgb(198,198,198)" fill-opacity="0.25"/>
  <rect x="6" y="16" width="1" height="1" fill="rgb(53,53,53)" fill-opacity="0.25"/>
  <rect x="6" y="17" width="1" height="4" fill="rgb(255,255,255)" fill-opacity="0.0078125"/>
  <rect x="7" y="0" width="1" height="5" fill="rgb(255,255,255)" fill-opacity="0.0078125"/>
  <rect x="7" y="5" width="1" height="1" fill="rgb(52,52,52)" fill-opacity="0.21875"/>
  <rect x="7" y="6" width="1" height="1" fill="rgb(255,255,255)" fill-opacity="0.25"/>
  <rect x="7" y="7" width="1" height="1" fill="rgb(170,170,170)" fill-opacity="0.25"/>
  <rect x="7" y="8" width="1" height="1" fill="rgb(215,215,215)" fill-opacity="0.25"/>
  <rect x="7" y="9" width="1" height="1" fill="rgb(251,0,0)" fill-opacity="0.25"/>
  <rect x="7" y="10" width="1" height="4" fill="rgb(53,53,53)" fill-opacity="0.25"/>
  <rect x="7" y="14" width="1" height="1" fill="rgb(57,57,57)" fill-opacity="0.25"/>
  <rect x="7" y="15" width="1" height="1" fill="rgb(194,194,194)" fill-opacity="0.25"/>
  <rect x="7" y="16" width="1" height="1" fill="rgb(53,53,53)" fill-opacity="0.25"/>
  <rect x="7" y="17" width="1" height="4" fill="rgb(255,255,255)" fill-opacity="0.0078125"/>
  <rect x="8" y="0" width="1" height="5" fill="rgb(255,255,255)" fill-opacity="0.0078125"/>
  <rect x="8" y="5" width="1" height="1" fill="rgb(53,53,53)" fill-opacity="0.1171875"/>
  <rect x="8" y="6" width="1" height="1" fill="rgb(53,53,53)" fill-opacity="0.25"/>
  <rect x="8" y="7" width="1" height="1" fill="rgb(215,215,215)" fill-opacity="0.25"/>
  <rect x="8" y="8" width="1" height="1" fill="rgb(206,206,206)" fill-opacity="0.25"/>
  <rect x="8" y="9" width="1" height="1" fill="rgb(150,150,150)" fill-opacity="0.25"/>
  <rect x="8" y="10" width="1" height="1" fill="rgb(166,166,166)" fill-opacity="0.25"/>
  <rect x="8" y="11" width="1" height="1" fill="rgb(215,215,215)" fill-opacity="0.25"/>
  <rect x="8" y="12" width="1" height="1" fill="rgb(166,166,166)" fill-opacity="0.25"/>
  <rect x="8" y="13" width="1" height="1" fill="rgb(150,150,150)" fill-opacity="0.25"/>
  <rect x="8" y="14" width="1" height="1" fill="rgb(89,89,89)" fill-opacity="0.25"/>
  <rect x="8" y="15" width="1" height="1" fill="rgb(158,158,158)" fill-opacity="0.25"/>
  <rect x="8" y="16" width="1" height="1" fill="rgb(53,53,53)" fill-opacity="0.25"/>
  <rect x="8" y="17" width="1" height="4" fill="rgb(255,255,255)" fill-opacity="0.0078125"/>
  <rect x="9" y="0" width="1" height="6" fill="rgb(255,255,255)" fill-opacity="0.0078125"/>
  <rect x="9" y="6" width="1" height="1" fill="rgb(53,53,53)" fill-opacity="0.25"/>
  <rect x="9" y="7" width="1" height="1" fill="rgb(255,255,255)" fill-opacity="0.25"/>
  <rect x="9" y="8" width="1" height="1" fill="rgb(186,186,186)" fill-opacity="0.25"/>
  <rect x="9" y="9" width="1" height="1" fill="rgb(206,206,206)" fill-opacity="0.25"/>
  <rect x="9" y="10" width="1" height="1" fill="rgb(219,219,219)" fill-opacity="0.25"/>
  <rect x="9" y="11" width="1" height="1" fill="rgb(146,150,158)" fill-opacity="0.25"/>
  <rect x="9" y="12" width="1" height="1" fill="rgb(65,81,101)" fill-opacity="0.25"/>
  <rect x="9" y="13" width="1" height="1" fill="rgb(65,69,73)" fill-opacity="0.25"/>
  <rect x="9" y="14" width="1" height="1" fill="rgb(158,158,158)" fill-opacity="0.25"/>
  <rect x="9" y="15" width="1" height="1" fill="rgb(130,130,130)" fill-opacity="0.25"/>
  <rect x="9" y="16" width="1" height="1" fill="rgb(45,45,45)" fill-opacity="0.25"/>
  <rect x="9" y="17" width="1" height="4" fill="rgb(255,255,255)" fill-opacity="0.0078125"/>
  <rect x="10" y="0" width="1" height="6" fill="rgb(255,255,255)" fill-opacity="0.0078125"/>
  <rect x="10" y="6" width="1" height="1" fill="rgb(53,53,53)" fill-opacity="0.25"/>
  <rect x="10" y="7" width="1" height="1" fill="rgb(255,255,255)" fill-opacity="0.25"/>
  <rect x="10" y="8" width="1" height="1" fill="rgb(178,178,178)" fill-opacity="0.25"/>
  <rect x="10" y="9" width="1" height="1" fill="rgb(247,247,247)" fill-opacity="0.25"/>
  <rect x="10" y="10" width="1" height="1" fill="rgb(178,178,178)" fill-opacity="0.25"/>
  <rect x="10" y="11" width="1" height="1" fill="rgb(85,97,109)" fill-opacity="0.25"/>
  <rect x="10" y="12" width="1" height="1" fill="rgb(77,89,105)" fill-opacity="0.25"/>
  <rect x="10" y="13" width="1" height="1" fill="rgb(16,20,24)" fill-opacity="0.25"/>
  <rect x="10" y="14" width="1" height="1" fill="rgb(73,73,73)" fill-opacity="0.25"/>
  <rect x="10" y="15" width="1" height="1" fill="rgb(186,186,186)" fill-opacity="0.25"/>
  <rect x="10" y="16" width="1" height="1" fill="rgb(32,32,32)" fill-opacity="0.25"/>
  <rect x="10" y="17" width="1" height="4" fill="rgb(255,255,255)" fill-opacity="0.0078125"/>
  <rect x="11" y="0" width="1" height="6" fill="rgb(255,255,255)" fill-opacity="0.0078125"/>
  <rect x="11" y="6" width="1" height="1" fill="rgb(53,53,53)" fill-opacity="0.25"/>
  <rect x="11" y="7" width="1" height="1" fill="rgb(255,255,255)" fill-opacity="0.25"/>
  <rect x="11" y="8" width="1" height="1" fill="rgb(174,174,174)" fill-opacity="0.25"/>
  <rect x="11" y="9" width="1" height="1" fill="rgb(243,243,243)" fill-opacity="0.25"/>
  <rect x="11" y="10" width="1" height="1" fill="rgb(178,178,178)" fill-opacity="0.25"/>
  <rect x="11" y="11" width="1" height="1" fill="rgb(53,57,61)" fill-opacity="0.25"/>
  <rect x="11" y="12" width="1" height="1" fill="rgb(12,16,16)" fill-opacity="0.25"/>
  <rect x="11" y="13" width="1" height="1" fill="rgb(12,12,12)" fill-opacity="0.25"/>
  <rect x="11" y="14" width="1" height="1" fill="rgb(89,89,89)" fill-opacity="0.25"/>
  <rect x="11" y="15" width="1" height="1" fill="rgb(202,202,202)" fill-opacity="0.25"/>
  <rect x="11" y="16" width="1" height="1" fill="rgb(24,24,24)" fill-opacity="0.25"/>
  <rect x="11" y="17" width="1" height="4" fill="rgb(255,255,255)" fill-opacity="0.0078125"/>
  <rect x="12" y="0" width="1" height="6" fill="rgb(255,255,255)" fill-opacity="0.0078125"/>
  <rect x="12" y="6" width="1" height="1" fill="rgb(53,53,53)" fill-opacity="0.25"/>
  <rect x="12" y="7" width="1" height="1" fill="rgb(255,255,255)" fill-opacity="0.25"/>
  <rect x="12" y="8" width="1" height="2" fill="rgb(178,178,178)" fill-opacity="0.25"/>
  <rect x="12" y="10" width="1" height="1" fill="rgb(186,186,186)" fill-opacity="0.25"/>
  <rect x="12" y="11" width="1" height="1" fill="rgb(162,162,162)" fill-opacity="0.25"/>
  <rect x="12" y="12" width="1" height="1" fill="rgb(77,77,77)" fill-opacity="0.25"/>
  <rect x="12" y="13" width="1" height="1" fill="rgb(93,93,93)" fill-opacity="0.25"/>
  <rect x="12" y="14" width="1" height="1" fill="rgb(210,210,210)" fill-opacity="0.25"/>
  <rect x="12" y="15" width="1" height="1" fill="rgb(158,158,158)" fill-opacity="0.25"/>
  <rect x="12" y="16" width="1" height="1" fill="rgb(32,32,32)" fill-opacity="0.25"/>
  <rect x="12" y="17" width="1" height="4" fill="rgb(255,255,255)" fill-opacity="0.0078125"/>
  <rect x="13" y="0" width="1" height="6" fill="rgb(255,255,255)" fill-opacity="0.0078125"/>
  <rect x="13" y="6" width="1" height="1" fill="rgb(53,53,53)" fill-opacity="0.25"/>
  <rect x="13" y="7" width="1" height="1" fill="rgb(255,255,255)" fill-opacity="0.25"/>
  <rect x="13" y="8" width="1" height="1" fill="rgb(40,53,65)" fill-opacity="0.25"/>
  <rect x="13" y="9" width="1" height="1" fill="rgb(125,125,125)" fill-opacity="0.25"/>
  <rect x="13" y="10" width="1" height="1" fill="rgb(93,93,93)" fill-opacity="0.25"/>
  <rect x="13" y="11" width="1" height="1" fill="rgb(138,138,138)" fill-opacity="0.25"/>
  <rect x="13" y="12" width="1" height="1" fill="rgb(182,182,182)" fill-opacity="0.25"/>
  <rect x="13" y="13" width="1" height="1" fill="rgb(198,198,198)" fill-opacity="0.25"/>
  <rect x="13" y="14" width="1" height="1" fill="rgb(130,130,130)" fill-opacity="0.25"/>
  <rect x="13" y="15" width="1" height="1" fill="rgb(89,89,89)" fill-opacity="0.25"/>
  <rect x="13" y="16" width="1" height="1" fill="rgb(45,45,45)" fill-opacity="0.25"/>
  <rect x="13" y="17" width="1" height="4" fill="rgb(255,255,255)" fill-opacity="0.0078125"/>
  <rect x="14" y="0" width="1" height="6" fill="rgb(255,255,255)" fill-opacity="0.0078125"/>
  <rect x="14" y="6" width="1" height="1" fill="rgb(53,53,53)" fill-opacity="0.25"/>
  <rect x="14" y="7" width="1" height="1" fill="rgb(255,255,255)" fill-opacity="0.25"/>
  <rect x="14" y="8" width="1" height="1" fill="rgb(0,0,0)" fill-opacity="0.25"/>
  <rect x="14" y="9" width="1" height="1" fill="rgb(134,134,134)" fill-opacity="0.25"/>
  <rect x="14" y="10" width="1" height="1" fill="rgb(24,24,24)" fill-opacity="0.25"/>
  <rect x="14" y="11" width="1" height="1" fill="rgb(20,20,20)" fill-opacity="0.25"/>
  <rect x="14" y="12" width="1" height="1" fill="rgb(16,16,16)" fill-opacity="0.25"/>
  <rect x="14" y="13" width="1" height="1" fill="rgb(12,12,12)" fill-opacity="0.25"/>
  <rect x="14" y="14" width="1" height="1" fill="rgb(16,16,16)" fill-opacity="0.25"/>
  <rect x="14" y="15" width="1" height="1" fill="rgb(142,142,142)" fill-opacity="0.25"/>
  <rect x="14" y="16" width="1" height="1" fill="rgb(53,53,53)" fill-opacity="0.25"/>
  <rect x="14" y="17" width="1" height="4" fill="rgb(255,255,255)" fill-opacity="0.0078125"/>
  <rect x="15" y="0" width="1" height="6" fill="rgb(255,255,255)" fill-opacity="0.0078125"/>
  <rect x="15" y="6" width="1" height="1" fill="rgb(64,64,64)" fill-opacity="0.2421875"/>
  <rect x="15" y="7" width="1" height="2" fill="rgb(206,206,206)" fill-opacity="0.25"/>
  <rect x="15" y="9" width="1" height="1" fill="rgb(166,166,166)" fill-opacity="0.25"/>
  <rect x="15" y="10" width="1" height="5" fill="rgb(89,89,89)" fill-opacity="0.25"/>
  <rect x="15" y="15" width="1" height="1" fill="rgb(134,134,134)" fill-opacity="0.25"/>
  <rect x="15" y="16" width="1" height="1" fill="rgb(54,54,54)" fill-opacity="0.2265625"/>
  <rect x="15" y="17" width="1" height="4" fill="rgb(255,255,255)" fill-opacity="0.0078125"/>
  <rect x="16" y="0" width="1" height="6" fill="rgb(255,255,255)" fill-opacity="0.0078125"/>
  <rect x="16" y="6" width="1" height="1" fill="rgb(113,113,113)" fill-opacity="0.109375"/>
  <rect x="16" y="7" width="1" height="1" fill="rgb(74,74,74)" fill-opacity="0.25"/>
  <rect x="16" y="8" width="1" height="7" fill="rgb(53,53,53)" fill-opacity="0.25"/>
  <rect x="16" y="15" width="1" height="1" fill="rgb(54,54,54)" fill-opacity="0.2265625"/>
  <rect x="16" y="16" width="1" height="1" fill="rgb(51,51,51)" fill-opacity="0.0859375"/>
  <rect x="16" y="17" width="1" height="4" fill="rgb(255,255,255)" fill-opacity="0.0078125"/>
  <rect x="17" y="0" width="1" height="21" fill="rgb(255,255,255)" fill-opacity="0.0078125"/>
  <rect x="18" y="0" width="1" height="21" fill="rgb(255,255,255)" fill-opacity="0.0078125"/>
  <rect x="19" y="0" width="1" height="21" fill="rgb(255,255,255)" fill-opacity="0.0078125"/>
  <rect x="20" y="0" width="1" height="21" fill="rgb(255,255,255)" fill-opacity="0.0078125"/>
</svg>