<svg xmlns="http://www.w3.org/2000/svg" shape-rendering="crispEdges" width="21" height="21" viewBox="0 0 21 21">
  <rect x="0" y="0" width="21" height="1" fill="rgb(255,255,255)" fill-opacity="0.0078125"/>
  <rect x="0" y="1" width="21" height="1" fill="rgb(255,255,255)" fill-opacity="0.0078125"/>
  <rect x="0" y="2" width="21" height="1" fill="rgb(255,255,255)" fill-opacity="0.0078125"/>
  <rect x="0" y="3" width="6" height="1" fill="rgb(255,255,255)" fill-opacity="0.0078125"/>
  <rect x="6" y="3" width="1" height="1" fill="rgb(0,0,0)" fill-opacity="0.2265625"/>
  <rect x="7" y="3" width="1" height="1" fill="rgb(5,5,5)" fill-opacity="0.5703125"/>
  <rect x="8" y="3" width="1" height="1" fill="rgb(23,23,23)" fill-opacity="0.625"/>
  <rect x="9" y="3" width="1" height="1" fill="rgb(0,0,0)" fill-opacity="0.359375"/>
  <rect x="10" y="3" width="1" height="1" fill="rgb(0,0,0)" fill-opacity="0.046875"/>
  <rect x="11" y="3" width="1" height="1" fill="rgb(0,0,0)" fill-opacity="0.359375"/>
  <rect x="12" y="3" width="1" height="1" fill="rgb(23,23,23)" fill-opacity="0.625"/>
  <rect x="13" y="3" width="1" height="1" fill="rgb(5,5,5)" fill-opacity="0.5703125"/>
  <rect x="14" y="3" width="1" height="1" fill="rgb(0,0,0)" fill-opacity="0.2265625"/>
  <rect x="15" y="3" width="6" height="1" fill="rgb(255,255,255)" fill-opacity="0.0078125"/>
  <rect x="0" y="4" width="5" height="1" fill="rgb(255,255,255)" fill-opacity="0.0078125"/>
  <rect x="5" y="4" width="1" height="1" fill="rgb(0,0,0)" fill-opacity="0.2890625"/>
  <rect x="6" y="4" width="1" height="1" fill="rgb(95,95,95)" fill-opacity="0.8125"/>
  <rect x="7" y="4" width="1" height="1" fill="rgb(232,232,232)" fill-opacity="0.8984375"/>
  <rect x="8" y="4" width="1" height="1" fill="rgb(239,239,239)" fill-opacity="0.90625"/>
  <rect x="9" y="4" width="1" height="1" fill="rgb(152,152,152)" fill-opacity="0.8515625"/>
  <rect x="10" y="4" width="1" height="1" fill="rgb(9,9,9)" fill-opacity="0.7421875"/>
  <rect x="11" y="4" width="1" height="1" fill="rgb(152,152,152)" fill-opacity="0.8515625"/>
  <rect x="12" y="4" width="1" height="1" fill="rgb(239,239,239)" fill-opacity="0.90625"/>
  <rect x="13" y="4" width="1" height="1" fill="rgb(232,232,232)" fill-opacity="0.8984375"/>
  <rect x="14" y="4" width="1" height="1" fill="rgb(95,95,95)" fill-opacity="0.8125"/>
  <rect x="15" y="4" width="1" height="1" fill="rgb(0,0,0)" fill-opacity="0.3203125"/>
  <rect x="16" y="4" width="5" height="1" fill="rgb(255,255,255)" fill-opacity="0.0078125"/>
  <rect x="0" y="5" width="5" height="1" fill="rgb(255,255,255)" fill-opacity="0.0078125"/>
  <rect x="5" y="5" width="1" height="1" fill="rgb(16,16,16)" fill-opacity="0.625"/>
  <rect x="6" y="5" width="1" height="1" fill="rgb(238,238,238)" fill-opacity="0.8984375"/>
  <rect x="7" y="5" width="1" height="1" fill="rgb(138,138,138)" fill-opacity="0.84375"/>
  <rect x="8" y="5" width="1" height="1" fill="rgb(97,97,97)" fill-opacity="0.8203125"/>
  <rect x="9" y="5" width="1" height="1" fill="rgb(249,249,249)" fill-opacity="0.90625"/>
  <rect x="10" y="5" width="1" height="1" fill="rgb(255,255,255)" fill-opacity="0.90625"/>
  <rect x="11" y="5" width="1" height="1" fill="rgb(249,249,249)" fill-opacity="0.90625"/>
  <rect x="12" y="5" width="1" height="1" fill="rgb(97,97,97)" fill-opacity="0.8203125"/>
  <rect x="13" y="5" width="1" height="1" fill="rgb(138,138,138)" fill-opacity="0.84375"/>
  <rect x="14" y="5" width="1" height="1" fill="rgb(238,238,238)" fill-opacity="0.8984375"/>
  <rect x="15" y="5" width="1" height="1" fill="rgb(13,13,13)" fill-opacity="0.6015625"/>
  <rect x="16" y="5" width="5" height="1" fill="rgb(255,255,255)" fill-opacity="0.0078125"/>
  <rect x="0" y="6" width="5" height="1" fill="rgb(255,255,255)" fill-opacity="0.0078125"/>
  <rect x="5" y="6" width="1" height="1" fill="rgb(0,0,0)" fill-opacity="0.2578125"/>
  <rect x="6" y="6" width="1" height="1" fill="rgb(22,22,22)" fill-opacity="0.6328125"/>
  <rect x="7" y="6" width="1" height="1" fill="rgb(0,0,0)" fill-opacity="0.375"/>
  <rect x="8" y="6" width="1" height="1" fill="rgb(0,0,0)" fill-opacity="0.234375"/>
  <rect x="9" y="6" width="1" height="1" fill="rgb(92,92,92)" fill-opacity="0.8125"/>
  <rect x="10" y="6" width="1" height="1" fill="rgb(255,255,255)" fill-opacity="0.90625"/>
  <rect x="11" y="6" width="1" height="1" fill="rgb(92,92,92)" fill-opacity="0.8125"/>
  <rect x="12" y="6" width="1" height="1" fill="rgb(0,0,0)" fill-opacity="0.234375"/>
  <rect x="13" y="6" width="1" height="1" fill="rgb(0,0,0)" fill-opacity="0.3515625"/>
  <rect x="14" y="6" width="1" height="1" fill="rgb(21,21,21)" fill-opacity="0.6328125"/>
  <rect x="15" y="6" width="1" height="1" fill="rgb(0,0,0)" fill-opacity="0.2578125"/>
  <rect x="16" y="6" width="5" height="1" fill="rgb(255,255,255)" fill-opacity="0.0078125"/>
  <rect x="0" y="7" width="9" height="1" fill="rgb(255,255,255)" fill-opacity="0.0078125"/>
  <rect x="9" y="7" width="1" height="1" fill="rgb(0,0,0)" fill-opacity="0.296875"/>
  <rect x="10" y="7" width="1" height="1" fill="rgb(0,0,0)" fill-opacity="0.6328125"/>
  <rect x="11" y="7" width="1" height="1" fill="rgb(0,0,0)" fill-opacity="0.3125"/>
  <rect x="12" y="7" width="9" height="1" fill="rgb(255,255,255)" fill-opacity="0.0078125"/>
  <rect x="0" y="8" width="21" height="1" fill="rgb(255,255,255)" fill-opacity="0.0078125"/>
  <rect x="0" y="9" width="7" height="1" fill="rgb(255,255,255)" fill-opacity="0.0078125"/>
  <rect x="7" y="9" width="1" height="1" fill="rgb(0,0,0)" fill-opacity="0.21875"/>
  <rect x="8" y="9" width="1" height="1" fill="rgb(0,0,0)" fill-opacity="0.6015625"/>
  <rect x="9" y="9" width="1" height="1" fill="rgb(16,16,16)" fill-opacity="0.734375"/>
  <rect x="10" y="9" width="1" height="1" fill="rgb(5,5,5)" fill-opacity="0.6328125"/>
  <rect x="11" y="9" width="1" height="1" fill="rgb(0,0,0)" fill-opacity="0.296875"/>
  <rect x="12" y="9" width="1" height="1" fill="rgb(0,0,0)" fill-opacity="0.015625"/>
  <rect x="13" y="9" width="1" height="1" fill="rgb(0,0,0)" fill-opacity="0.296875"/>
  <rect x="14" y="9" width="1" height="1" fill="rgb(5,5,5)" fill-opacity="0.6328125"/>
  <rect x="15" y="9" width="1" height="1" fill="rgb(16,16,16)" fill-opacity="0.734375"/>
  <rect x="16" y="9" width="1" height="1" fill="rgb(0,0,0)" fill-opacity="0.6015625"/>
  <rect x="17" y="9" width="1" height="1" fill="rgb(0,0,0)" fill-opacity="0.21875"/>
  <rect x="18" y="9" width="3" height="1" fill="rgb(255,255,255)" fill-opacity="0.0078125"/>
  <rect x="0" y="10" width="6" height="1" fill="rgb(255,255,255)" fill-opacity="0.0078125"/>
  <rect x="6" y="10" width="1" height="1" fill="rgb(0,0,0)" fill-opacity="0.3046875"/>
  <rect x="7" y="10" width="1" height="1" fill="rgb(69,69,69)" fill-opacity="0.8828125"/>
  <rect x="8" y="10" width="1" height="1" fill="rgb(211,211,211)" fill-opacity="0.984375"/>
  <rect x="9" y="10" width="1" height="1" fill="rgb(236,236,236)"/>
  <rect x="10" y="10" width="1" height="1" fill="rgb(214,214,214)" fill-opacity="0.984375"/>
  <rect x="11" y="10" width="1" height="1" fill="rgb(107,107,107)" fill-opacity="0.9140625"/>
  <rect x="12" y="10" width="1" height="1" fill="rgb(0,0,0)" fill-opacity="0.7421875"/>
  <rect x="13" y="10" width="1" height="1" fill="rgb(107,107,107)" fill-opacity="0.9140625"/>
  <rect x="14" y="10" width="1" height="1" fill="rgb(214,214,214)" fill-opacity="0.984375"/>
  <rect x="15" y="10" width="1" height="1" fill="rgb(236,236,236)"/>
  <rect x="16" y="10" width="1" height="1" fill="rgb(211,211,211)" fill-opacity="0.984375"/>
  <rect x="17" y="10" width="1" height="1" fill="rgb(69,69,69)" fill-opacity="0.8828125"/>
  <rect x="18" y="10" width="1" height="1" fill="rgb(0,0,0)" fill-opacity="0.3515625"/>
  <rect x="19" y="10" width="2" height="1" fill="rgb(255,255,255)" fill-opacity="0.0078125"/>
  <rect x="0" y="11" width="6" height="1" fill="rgb(255,255,255)" fill-opacity="0.0078125"/>
  <rect x="6" y="11" width="1" height="1" fill="rgb(6,6,6)" fill-opacity="0.6796875"/>
  <rect x="7" y="11" width="1" height="1" fill="rgb(224,224,224)" fill-opacity="0.9921875"/>
  <rect x="8" y="11" width="1" height="1" fill="rgb(128,128,128)" fill-opacity="0.9296875"/>
  <rect x="9" y="11" width="1" height="1" fill="rgb(48,48,48)" fill-opacity="0.8671875"/>
  <rect x="10" y="11" width="1" height="1" fill="rgb(104,104,104)" fill-opacity="0.9140625"/>
  <rect x="11" y="11" width="1" height="1" fill="rgb(248,248,248)"/>
  <rect x="12" y="11" width="1" height="1" fill="rgb(255,255,255)"/>
  <rect x="13" y="11" width="1" height="1" fill="rgb(248,248,248)"/>
  <rect x="14" y="11" width="1" height="1" fill="rgb(104,104,104)" fill-opacity="0.9140625"/>
  <rect x="15" y="11" width="1" height="1" fill="rgb(48,48,48)" fill-opacity="0.8671875"/>
  <rect x="16" y="11" width="1" height="1" fill="rgb(128,128,128)" fill-opacity="0.9296875"/>
  <rect x="17" y="11" width="1" height="1" fill="rgb(223,223,223)" fill-opacity="0.9921875"/>
  <rect x="18" y="11" width="1" height="1" fill="rgb(5,5,5)" fill-opacity="0.6640625"/>
  <rect x="19" y="11" width="2" height="1" fill="rgb(255,255,255)" fill-opacity="0.0078125"/>
  <rect x="0" y="12" width="6" height="1" fill="rgb(255,255,255)" fill-opacity="0.0078125"/>
  <rect x="6" y="12" width="1" height="1" fill="rgb(0,0,0)" fill-opacity="0.28125"/>
  <rect x="7" y="12" width="1" height="1" fill="rgb(7,7,7)" fill-opacity="0.6796875"/>
  <rect x="8" y="12" width="1" height="1" fill="rgb(0,0,0)" fill-opacity="0.4140625"/>
  <rect x="9" y="12" width="1" height="1" fill="rgb(0,0,0)" fill-opacity="0.015625"/>
  <rect x="10" y="12" width="1" height="1" fill="rgb(0,0,0)" fill-opacity="0.3359375"/>
  <rect x="11" y="12" width="1" height="1" fill="rgb(78,78,78)" fill-opacity="0.8984375"/>
  <rect x="12" y="12" width="1" height="1" fill="rgb(255,255,255)"/>
  <rect x="13" y="12" width="1" height="1" fill="rgb(78,78,78)" fill-opacity="0.8984375"/>
  <rect x="14" y="12" width="1" height="1" fill="rgb(0,0,0)" fill-opacity="0.3359375"/>
  <rect x="15" y="12" width="1" height="1" fill="rgb(0,0,0)" fill-opacity="0.015625"/>
  <rect x="16" y="12" width="1" height="1" fill="rgb(0,0,0)" fill-opacity="0.3984375"/>
  <rect x="17" y="12" width="1" height="1" fill="rgb(5,5,5)" fill-opacity="0.6640625"/>
  <rect x="18" y="12" width="1" height="1" fill="rgb(0,0,0)" fill-opacity="0.265625"/>
  <rect x="19" y="12" width="2" height="1" fill="rgb(255,255,255)" fill-opacity="0.0078125"/>
  <rect x="0" y="13" width="11" height="1" fill="rgb(255,255,255)" fill-opacity="0.0078125"/>
  <rect x="11" y="13" width="1" height="1" fill="rgb(0,0,0)" fill-opacity="0.3203125"/>
  <rect x="12" y="13" width="1" height="1" fill="rgb(0,0,0)" fill-opacity="0.671875"/>
  <rect x="13" y="13" width="1" height="1" fill="rgb(0,0,0)" fill-opacity="0.328125"/>
  <rect x="14" y="13" width="7" height="1" fill="rgb(255,255,255)" fill-opacity="0.0078125"/>
  <rect x="0" y="14" width="4" height="1" fill="rgb(255,255,255)" fill-opacity="0.0078125"/>
  <rect x="4" y="14" width="1" height="1" fill="rgb(0,0,0)" fill-opacity="0.3203125"/>
  <rect x="5" y="14" width="1" height="1" fill="rgb(0,0,0)" fill-opacity="0.6171875"/>
  <rect x="6" y="14" width="1" height="1" fill="rgb(0,0,0)" fill-opacity="0.328125"/>
  <rect x="7" y="14" width="1" height="1" fill="rgb(255,255,255)" fill-opacity="0.0078125"/>
  <rect x="8" y="14" width="1" height="1" fill="rgb(0,0,0)" fill-opacity="0.3359375"/>
  <rect x="9" y="14" width="1" height="1" fill="rgb(0,0,0)" fill-opacity="0.6171875"/>
  <rect x="10" y="14" width="1" height="1" fill="rgb(0,0,0)" fill-opacity="0.328125"/>
  <rect x="11" y="14" width="10" height="1" fill="rgb(255,255,255)" fill-opacity="0.0078125"/>
  <rect x="0" y="15" width="3" height="1" fill="rgb(255,255,255)" fill-opacity="0.0078125"/>
  <rect x="3" y="15" width="1" height="1" fill="rgb(0,0,0)" fill-opacity="0.3125"/>
  <rect x="4" y="15" width="1" height="1" fill="rgb(43,43,43)" fill-opacity="0.7890625"/>
  <rect x="5" y="15" width="1" height="1" fill="rgb(255,255,255)" fill-opacity="0.90625"/>
  <rect x="6" y="15" width="1" height="1" fill="rgb(46,46,46)" fill-opacity="0.7890625"/>
  <rect x="7" y="15" width="1" height="1" fill="rgb(0,0,0)" fill-opacity="0.578125"/>
  <rect x="8" y="15" width="1" height="1" fill="rgb(46,46,46)" fill-opacity="0.7890625"/>
  <rect x="9" y="15" width="1" height="1" fill="rgb(255,255,255)" fill-opacity="0.90625"/>
  <rect x="10" y="15" width="1" height="1" fill="rgb(46,46,46)" fill-opacity="0.7890625"/>
  <rect x="11" y="15" width="1" height="1" fill="rgb(0,0,0)" fill-opacity="0.34375"/>
  <rect x="12" y="15" width="9" height="1" fill="rgb(255,255,255)" fill-opacity="0.0078125"/>
  <rect x="0" y="16" width="3" height="1" fill="rgb(255,255,255)" fill-opacity="0.0078125"/>
  <rect x="3" y="16" width="1" height="1" fill="rgb(0,0,0)" fill-opacity="0.59375"/>
  <rect x="4" y="16" width="1" height="1" fill="rgb(255,255,255)" fill-opacity="0.90625"/>
  <rect x="5" y="16" width="1" height="1" fill="rgb(90,90,90)" fill-opacity="0.8125"/>
  <rect x="6" y="16" width="1" height="1" fill="rgb(255,255,255)" fill-opacity="0.90625"/>
  <rect x="7" y="16" width="1" height="1" fill="rgb(178,178,178)" fill-opacity="0.859375"/>
  <rect x="8" y="16" width="1" height="1" fill="rgb(255,255,255)" fill-opacity="0.90625"/>
  <rect x="9" y="16" width="1" height="1" fill="rgb(89,89,89)" fill-opacity="0.8125"/>
  <rect x="10" y="16" width="1" height="1" fill="rgb(255,255,255)" fill-opacity="0.90625"/>
  <rect x="11" y="16" width="1" height="1" fill="rgb(0,0,0)" fill-opacity="0.59375"/>
  <rect x="12" y="16" width="9" height="1" fill="rgb(255,255,255)" fill-opacity="0.0078125"/>
  <rect x="0" y="17" width="3" height="1" fill="rgb(255,255,255)" fill-opacity="0.0078125"/>
  <rect x="3" y="17" width="1" height="1" fill="rgb(0,0,0)" fill-opacity="0.25"/>
  <rect x="4" y="17" width="1" height="1" fill="rgb(0,0,0)" fill-opacity="0.6171875"/>
  <rect x="5" y="17" width="1" height="1" fill="rgb(0,0,0)" fill-opacity="0.546875"/>
  <rect x="6" y="17" width="1" height="1" fill="rgb(46,46,46)" fill-opacity="0.7890625"/>
  <rect x="7" y="17" width="1" height="1" fill="rgb(255,255,255)" fill-opacity="0.90625"/>
  <rect x="8" y="17" width="1" height="1" fill="rgb(46,46,46)" fill-opacity="0.7890625"/>
  <rect x="9" y="17" width="1" height="1" fill="rgb(0,0,0)" fill-opacity="0.5234375"/>
  <rect x="10" y="17" width="1" height="1" fill="rgb(0,0,0)" fill-opacity="0.6171875"/>
  <rect x="11" y="17" width="1" height="1" fill="rgb(0,0,0)" fill-opacity="0.2578125"/>
  <rect x="12" y="17" width="9" height="1" fill="rgb(255,255,255)" fill-opacity="0.0078125"/>
  <rect x="0" y="18" width="6" height="1" fill="rgb(255,255,255)" fill-opacity="0.0078125"/>
  <rect x="6" y="18" width="1" height="1" fill="rgb(0,0,0)" fill-opacity="0.328125"/>
  <rect x="7" y="18" width="1" height="1" fill="rgb(0,0,0)" fill-opacity="0.6171875"/>
  <rect x="8" y="18" width="1" height="1" fill="rgb(0,0,0)" fill-opacity="0.3359375"/>
  <rect x="9" y="18" width="12" height="1" fill="rgb(255,255,255)" fill-opacity="0.0078125"/>
  <rect x="0" y="19" width="21" height="1" fill="rgb(255,255,255)" fill-opacity="0.0078125"/>
  <rect x="0" y="20" width="21" height="1" fill="rgb(255,255,255)" fill-opacity="0.0078125"/>
</svg>