<svg xmlns="http://www.w3.org/2000/svg" shape-rendering="crispEdges" width="21" height="21" viewBox="0 0 21 21">
  <rect x="0" y="0" width="1" height="21" fill="rgb(255,255,255)" fill-opacity="0.0078125"/>
  <rect x="1" y="0" width="1" height="21" fill="rgb(255,255,255)" fill-opacity="0.0078125"/>
  <rect x="2" y="0" width="1" height="21" fill="rgb(255,255,255)" fill-opacity="0.0078125"/>
  <rect x="3" y="0" width="1" height="3" fill="rgb(255,255,255)" fill-opacity="0.0078125"/>
  <rect x="3" y="3" width="1" height="1" fill="rgb(4,55,132)" fill-opacity="0.734375"/>
  <rect x="3" y="4" width="1" height="2" fill="rgb(0,51,128)" fill-opacity="0.8046875"/>
  <rect x="3" y="6" width="1" height="1" fill="rgb(4,55,132)" fill-opacity="0.734375"/>
  <rect x="3" y="7" width="1" height="8" fill="rgb(255,0,0)" fill-opacity="0.015625"/>
  <rect x="3" y="15" width="1" height="1" fill="rgb(4,55,132)" fill-opacity="0.734375"/>
  <rect x="3" y="16" width="1" height="2" fill="rgb(0,51,128)" fill-opacity="0.8046875"/>
  <rect x="3" y="18" width="1" height="1" fill="rgb(4,55,132)" fill-opacity="0.734375"/>
  <rect x="3" y="19" width="1" height="2" fill="rgb(255,255,255)" fill-opacity="0.0078125"/>
  <rect x="4" y="0" width="1" height="3" fill="rgb(255,255,255)" fill-opacity="0.0078125"/>
  <rect x="4" y="3" width="1" height="1" fill="rgb(0,51,128)" fill-opacity="0.8046875"/>
  <rect x="4" y="4" width="1" height="1" fill="rgb(204,225,255)" fill-opacity="0.8046875"/>
  <rect x="4" y="5" width="1" height="1" fill="rgb(193,218,255)" fill-opacity="0.8046875"/>
  <rect x="4" y="6" width="1" height="1" fill="rgb(0,51,128)" fill-opacity="0.8046875"/>
  <rect x="4" y="7" width="1" height="8" fill="rgb(255,0,0)" fill-opacity="0.015625"/>
  <rect x="4" y="15" width="1" height="1" fill="rgb(0,51,128)" fill-opacity="0.8046875"/>
  <rect x="4" y="16" width="1" height="1" fill="rgb(204,225,255)" fill-opacity="0.8046875"/>
  <rect x="4" y="17" width="1" height="1" fill="rgb(193,218,255)" fill-opacity="0.8046875"/>
  <rect x="4" y="18" width="1" height="1" fill="rgb(0,51,128)" fill-opacity="0.8046875"/>
  <rect x="4" y="19" width="1" height="2" fill="rgb(255,255,255)" fill-opacity="0.0078125"/>
  <rect x="5" y="0" width="1" height="3" fill="rgb(255,255,255)" fill-opacity="0.0078125"/>
  <rect x="5" y="3" width="1" height="1" fill="rgb(0,51,128)" fill-opacity="0.8046875"/>
  <rect x="5" y="4" width="1" height="1" fill="rgb(193,218,255)" fill-opacity="0.8046875"/>
  <rect x="5" y="5" width="1" height="1" fill="rgb(105,146,205)" fill-opacity="0.8359375"/>
  <rect x="5" y="6" width="1" height="1" fill="rgb(40,48,61)" fill-opacity="0.9609375"/>
  <rect x="5" y="7" width="1" height="1" fill="rgb(51,51,51)" fill-opacity="0.921875"/>
  <rect x="5" y="8" width="1" height="1" fill="rgb(53,53,53)" fill-opacity="0.9296875"/>
  <rect x="5" y="9" width="1" height="1" fill="rgb(50,50,50)" fill-opacity="0.9140625"/>
  <rect x="5" y="10" width="1" height="4" fill="rgb(49,49,49)" fill-opacity="0.9140625"/>
  <rect x="5" y="14" width="1" height="1" fill="rgb(50,50,50)" fill-opacity="0.90625"/>
  <rect x="5" y="15" width="1" height="1" fill="rgb(47,60,80)" fill-opacity="0.9453125"/>
  <rect x="5" y="16" width="1" height="1" fill="rgb(175,199,232)" fill-opacity="0.8203125"/>
  <rect x="5" y="17" width="1" height="1" fill="rgb(128,179,255)" fill-opacity="0.8046875"/>
  <rect x="5" y="18" width="1" height="1" fill="rgb(0,51,128)" fill-opacity="0.8046875"/>
  <rect x="5" y="19" width="1" height="2" fill="rgb(255,255,255)" fill-opacity="0.0078125"/>
  <rect x="6" y="0" width="1" height="3" fill="rgb(255,255,255)" fill-opacity="0.0078125"/>
  <rect x="6" y="3" width="1" height="1" fill="rgb(4,55,132)" fill-opacity="0.734375"/>
  <rect x="6" y="4" width="1" height="1" fill="rgb(1,50,121)" fill-opacity="0.8125"/>
  <rect x="6" y="5" width="1" height="1" fill="rgb(38,43,51)" fill-opacity="0.9765625"/>
  <rect x="6" y="6" width="1" height="1" fill="rgb(209,209,209)"/>
  <rect x="6" y="7" width="1" height="1" fill="rgb(239,239,239)"/>
  <rect x="6" y="8" width="1" height="1" fill="rgb(252,252,252)"/>
  <rect x="6" y="9" width="1" height="6" fill="rgb(255,255,255)"/>
  <rect x="6" y="15" width="1" height="1" fill="rgb(210,210,210)"/>
  <rect x="6" y="16" width="1" height="1" fill="rgb(44,51,61)" fill-opacity="0.96875"/>
  <rect x="6" y="17" width="1" height="1" fill="rgb(0,51,126)" fill-opacity="0.8046875"/>
  <rect x="6" y="18" width="1" height="1" fill="rgb(4,55,132)" fill-opacity="0.734375"/>
  <rect x="6" y="19" width="1" height="2" fill="rgb(255,255,255)" fill-opacity="0.0078125"/>
  <rect x="7" y="0" width="1" height="3" fill="rgb(255,255,255)" fill-opacity="0.0078125"/>
  <rect x="7" y="3" width="1" height="1" fill="rgb(255,0,0)" fill-opacity="0.015625"/>
  <rect x="7" y="4" width="1" height="1" fill="rgb(30,26,26)" fill-opacity="0.2734375"/>
  <rect x="7" y="5" width="1" height="1" fill="rgb(123,123,123)" fill-opacity="0.9453125"/>
  <rect x="7" y="6" width="1" height="1" fill="rgb(160,160,160)"/>
  <rect x="7" y="7" width="1" height="1" fill="rgb(30,30,30)"/>
  <rect x="7" y="8" width="1" height="1" fill="rgb(219,219,219)"/>
  <rect x="7" y="9" width="1" height="7" fill="rgb(255,255,255)"/>
  <rect x="7" y="16" width="1" height="1" fill="rgb(151,151,151)" fill-opacity="0.953125"/>
  <rect x="7" y="17" width="1" height="1" fill="rgb(32,24,24)" fill-opacity="0.2578125"/>
  <rect x="7" y="18" width="1" height="1" fill="rgb(255,0,0)" fill-opacity="0.015625"/>
  <rect x="7" y="19" width="1" height="2" fill="rgb(255,255,255)" fill-opacity="0.0078125"/>
  <rect x="8" y="0" width="1" height="3" fill="rgb(255,255,255)" fill-opacity="0.0078125"/>
  <rect x="8" y="3" width="1" height="1" fill="rgb(255,0,0)" fill-opacity="0.015625"/>
  <rect x="8" y="4" width="1" height="1" fill="rgb(37,35,35)" fill-opacity="0.46875"/>
  <rect x="8" y="5" width="1" height="1" fill="rgb(155,155,155)"/>
  <rect x="8" y="6" width="1" height="1" fill="rgb(56,56,56)"/>
  <rect x="8" y="7" width="1" height="1" fill="rgb(7,7,7)"/>
  <rect x="8" y="8" width="1" height="1" fill="rgb(117,117,117)"/>
  <rect x="8" y="9" width="1" height="1" fill="rgb(251,251,251)"/>
  <rect x="8" y="10" width="1" height="6" fill="rgb(255,255,255)"/>
  <rect x="8" y="16" width="1" height="1" fill="rgb(229,229,229)"/>
  <rect x="8" y="17" width="1" height="1" fill="rgb(39,36,36)" fill-opacity="0.46875"/>
  <rect x="8" y="18" width="1" height="1" fill="rgb(255,0,0)" fill-opacity="0.015625"/>
  <rect x="8" y="19" width="1" height="2" fill="rgb(255,255,255)" fill-opacity="0.0078125"/>
  <rect x="9" y="0" width="1" height="3" fill="rgb(255,255,255)" fill-opacity="0.0078125"/>
  <rect x="9" y="3" width="1" height="1" fill="rgb(255,0,0)" fill-opacity="0.015625"/>
  <rect x="9" y="4" width="1" height="1" fill="rgb(51,50,50)" fill-opacity="0.7109375"/>
  <rect x="9" y="5" width="1" height="1" fill="rgb(182,182,182)"/>
  <rect x="9" y="6" width="1" height="1" fill="rgb(36,36,36)"/>
  <rect x="9" y="7" width="1" height="1" fill="rgb(24,24,24)"/>
  <rect x="9" y="8" width="1" height="1" fill="rgb(83,83,83)"/>
  <rect x="9" y="9" width="1" height="1" fill="rgb(242,242,242)"/>
  <rect x="9" y="10" width="1" height="1" fill="rgb(239,239,239)"/>
  <rect x="9" y="11" width="1" height="4" fill="rgb(235,235,235)"/>
  <rect x="9" y="15" width="1" height="1" fill="rgb(238,238,238)"/>
  <rect x="9" y="16" width="1" height="1" fill="rgb(242,242,242)"/>
  <rect x="9" y="17" width="1" height="1" fill="rgb(50,49,49)" fill-opacity="0.71875"/>
  <rect x="9" y="18" width="1" height="1" fill="rgb(255,0,0)" fill-opacity="0.015625"/>
  <rect x="9" y="19" width="1" height="2" fill="rgb(255,255,255)" fill-opacity="0.0078125"/>
  <rect x="10" y="0" width="1" height="3" fill="rgb(255,255,255)" fill-opacity="0.0078125"/>
  <rect x="10" y="3" width="1" height="1" fill="rgb(255,0,0)" fill-opacity="0.015625"/>
  <rect x="10" y="4" width="1" height="1" fill="rgb(49,49,49)" fill-opacity="0.875"/>
  <rect x="10" y="5" width="1" height="1" fill="rgb(193,193,193)"/>
  <rect x="10" y="6" width="1" height="1" fill="rgb(43,43,43)"/>
  <rect x="10" y="7" width="1" height="1" fill="rgb(40,40,40)"/>
  <rect x="10" y="8" width="1" height="1" fill="rgb(57,57,57)"/>
  <rect x="10" y="9" width="1" height="1" fill="rgb(248,248,248)"/>
  <rect x="10" y="10" width="1" height="1" fill="rgb(224,224,224)"/>
  <rect x="10" y="11" width="1" height="4" fill="rgb(212,212,212)"/>
  <rect x="10" y="15" width="1" height="1" fill="rgb(214,214,214)"/>
  <rect x="10" y="16" width="1" height="1" fill="rgb(244,244,244)"/>
  <rect x="10" y="17" width="1" height="1" fill="rgb(45,45,45)" fill-opacity="0.875"/>
  <rect x="10" y="18" width="1" height="1" fill="rgb(255,0,0)" fill-opacity="0.015625"/>
  <rect x="10" y="19" width="1" height="2" fill="rgb(255,255,255)" fill-opacity="0.0078125"/>
  <rect x="11" y="0" width="1" height="3" fill="rgb(255,255,255)" fill-opacity="0.0078125"/>
  <rect x="11" y="3" width="1" height="1" fill="rgb(255,0,0)" fill-opacity="0.015625"/>
  <rect x="11" y="4" width="1" height="1" fill="rgb(47,47,47)" fill-opacity="0.8828125"/>
  <rect x="11" y="5" width="1" height="1" fill="rgb(196,196,196)"/>
  <rect x="11" y="6" width="1" height="1" fill="rgb(60,60,60)"/>
  <rect x="11" y="7" width="1" height="1" fill="rgb(57,57,57)"/>
  <rect x="11" y="8" width="1" height="1" fill="rgb(71,71,71)"/>
  <rect x="11" y="9" width="1" height="1" fill="rgb(248,248,248)"/>
  <rect x="11" y="10" width="1" height="1" fill="rgb(207,207,207)"/>
  <rect x="11" y="11" width="1" height="4" fill="rgb(189,189,189)"/>
  <rect x="11" y="15" width="1" height="1" fill="rgb(191,191,191)"/>
  <rect x="11" y="16" width="1" height="1" fill="rgb(232,232,232)"/>
  <rect x="11" y="17" width="1" height="1" fill="rgb(43,43,43)" fill-opacity="0.875"/>
  <rect x="11" y="18" width="1" height="1" fill="rgb(255,0,0)" fill-opacity="0.015625"/>
  <rect x="11" y="19" width="1" height="2" fill="rgb(255,255,255)" fill-opacity="0.0078125"/>
  <rect x="12" y="0" width="1" height="3" fill="rgb(255,255,255)" fill-opacity="0.0078125"/>
  <rect x="12" y="3" width="1" height="1" fill="rgb(255,0,0)" fill-opacity="0.015625"/>
  <rect x="12" y="4" width="1" height="1" fill="rgb(44,43,43)" fill-opacity="0.7109375"/>
  <rect x="12" y="5" width="1" height="1" fill="rgb(181,181,181)"/>
  <rect x="12" y="6" width="1" height="1" fill="rgb(85,85,85)"/>
  <rect x="12" y="7" width="1" height="1" fill="rgb(74,74,74)"/>
  <rect x="12" y="8" width="1" height="1" fill="rgb(119,119,119)"/>
  <rect x="12" y="9" width="1" height="1" fill="rgb(233,233,233)"/>
  <rect x="12" y="10" width="1" height="1" fill="rgb(185,185,185)"/>
  <rect x="12" y="11" width="1" height="4" fill="rgb(166,166,166)"/>
  <rect x="12" y="15" width="1" height="1" fill="rgb(174,174,174)"/>
  <rect x="12" y="16" width="1" height="1" fill="rgb(198,198,198)"/>
  <rect x="12" y="17" width="1" height="1" fill="rgb(42,40,40)" fill-opacity="0.71875"/>
  <rect x="12" y="18" width="1" height="1" fill="rgb(255,0,0)" fill-opacity="0.015625"/>
  <rect x="12" y="19" width="1" height="2" fill="rgb(255,255,255)" fill-opacity="0.0078125"/>
  <rect x="13" y="0" width="1" height="3" fill="rgb(255,255,255)" fill-opacity="0.0078125"/>
  <rect x="13" y="3" width="1" height="1" fill="rgb(255,0,0)" fill-opacity="0.015625"/>
  <rect x="13" y="4" width="1" height="1" fill="rgb(32,30,30)" fill-opacity="0.46875"/>
  <rect x="13" y="5" width="1" height="1" fill="rgb(140,140,140)"/>
  <rect x="13" y="6" width="1" height="1" fill="rgb(125,125,125)"/>
  <rect x="13" y="7" width="1" height="1" fill="rgb(91,91,91)"/>
  <rect x="13" y="8" width="1" height="1" fill="rgb(162,162,162)"/>
  <rect x="13" y="9" width="1" height="1" fill="rgb(216,216,216)"/>
  <rect x="13" y="10" width="1" height="1" fill="rgb(158,158,158)"/>
  <rect x="13" y="11" width="1" height="4" fill="rgb(143,143,143)"/>
  <rect x="13" y="15" width="1" height="1" fill="rgb(162,162,162)"/>
  <rect x="13" y="16" width="1" height="1" fill="rgb(151,151,151)"/>
  <rect x="13" y="17" width="1" height="1" fill="rgb(32,30,30)" fill-opacity="0.46875"/>
  <rect x="13" y="18" width="1" height="1" fill="rgb(255,0,0)" fill-opacity="0.015625"/>
  <rect x="13" y="19" width="1" height="2" fill="rgb(255,255,255)" fill-opacity="0.0078125"/>
  <rect x="14" y="0" width="1" height="3" fill="rgb(255,255,255)" fill-opacity="0.0078125"/>
  <rect x="14" y="3" width="1" height="1" fill="rgb(255,0,0)" fill-opacity="0.015625"/>
  <rect x="14" y="4" width="1" height="1" fill="rgb(30,26,26)" fill-opacity="0.2734375"/>
  <rect x="14" y="5" width="1" height="1" fill="rgb(91,91,91)" fill-opacity="0.953125"/>
  <rect x="14" y="6" width="1" height="1" fill="rgb(198,198,198)"/>
  <rect x="14" y="7" width="1" height="1" fill="rgb(125,125,125)"/>
  <rect x="14" y="8" width="1" height="1" fill="rgb(226,226,226)"/>
  <rect x="14" y="9" width="1" height="1" fill="rgb(180,180,180)"/>
  <rect x="14" y="10" width="1" height="1" fill="rgb(130,130,130)"/>
  <rect x="14" y="11" width="1" height="3" fill="rgb(120,120,120)"/>
  <rect x="14" y="14" width="1" height="1" fill="rgb(127,127,127)"/>
  <rect x="14" y="15" width="1" height="1" fill="rgb(162,162,162)"/>
  <rect x="14" y="16" width="1" height="1" fill="rgb(81,81,81)" fill-opacity="0.9453125"/>
  <rect x="14" y="17" width="1" height="1" fill="rgb(32,24,24)" fill-opacity="0.2578125"/>
  <rect x="14" y="18" width="1" height="1" fill="rgb(255,0,0)" fill-opacity="0.015625"/>
  <rect x="14" y="19" width="1" height="2" fill="rgb(255,255,255)" fill-opacity="0.0078125"/>
  <rect x="15" y="0" width="1" height="3" fill="rgb(255,255,255)" fill-opacity="0.0078125"/>
  <rect x="15" y="3" width="1" height="1" fill="rgb(4,55,132)" fill-opacity="0.734375"/>
  <rect x="15" y="4" width="1" height="1" fill="rgb(1,50,121)" fill-opacity="0.8125"/>
  <rect x="15" y="5" width="1" height="1" fill="rgb(29,34,41)" fill-opacity="0.9765625"/>
  <rect x="15" y="6" width="1" height="1" fill="rgb(157,157,157)"/>
  <rect x="15" y="7" width="1" height="1" fill="rgb(239,239,239)"/>
  <rect x="15" y="8" width="1" height="1" fill="rgb(203,203,203)"/>
  <rect x="15" y="9" width="1" height="1" fill="rgb(147,147,147)"/>
  <rect x="15" y="10" width="1" height="1" fill="rgb(133,133,133)"/>
  <rect x="15" y="11" width="1" height="1" fill="rgb(134,134,134)"/>
  <rect x="15" y="12" width="1" height="2" fill="rgb(135,135,135)"/>
  <rect x="15" y="14" width="1" height="1" fill="rgb(133,133,133)"/>
  <rect x="15" y="15" width="1" height="1" fill="rgb(93,93,93)"/>
  <rect x="15" y="16" width="1" height="1" fill="rgb(29,36,47)" fill-opacity="0.96875"/>
  <rect x="15" y="17" width="1" height="1" fill="rgb(0,51,126)" fill-opacity="0.8046875"/>
  <rect x="15" y="18" width="1" height="1" fill="rgb(4,55,132)" fill-opacity="0.734375"/>
  <rect x="15" y="19" width="1" height="2" fill="rgb(255,255,255)" fill-opacity="0.0078125"/>
  <rect x="16" y="0" width="1" height="3" fill="rgb(255,255,255)" fill-opacity="0.0078125"/>
  <rect x="16" y="3" width="1" height="1" fill="rgb(0,51,128)" fill-opacity="0.8046875"/>
  <rect x="16" y="4" width="1" height="1" fill="rgb(204,225,255)" fill-opacity="0.8046875"/>
  <rect x="16" y="5" width="1" height="1" fill="rgb(157,176,205)" fill-opacity="0.8359375"/>
  <rect x="16" y="6" width="1" height="1" fill="rgb(26,34,48)" fill-opacity="0.9609375"/>
  <rect x="16" y="7" width="1" height="1" fill="rgb(32,32,32)" fill-opacity="0.9140625"/>
  <rect x="16" y="8" width="1" height="1" fill="rgb(33,33,33)" fill-opacity="0.9140625"/>
  <rect x="16" y="9" width="1" height="1" fill="rgb(32,32,32)" fill-opacity="0.9140625"/>
  <rect x="16" y="10" width="1" height="4" fill="rgb(31,31,31)" fill-opacity="0.9140625"/>
  <rect x="16" y="14" width="1" height="1" fill="rgb(31,31,31)" fill-opacity="0.90625"/>
  <rect x="16" y="15" width="1" height="1" fill="rgb(26,38,58)" fill-opacity="0.9453125"/>
  <rect x="16" y="16" width="1" height="1" fill="rgb(186,205,232)" fill-opacity="0.8203125"/>
  <rect x="16" y="17" width="1" height="1" fill="rgb(193,218,255)" fill-opacity="0.8046875"/>
  <rect x="16" y="18" width="1" height="1" fill="rgb(0,51,128)" fill-opacity="0.8046875"/>
  <rect x="16" y="19" width="1" height="2" fill="rgb(255,255,255)" fill-opacity="0.0078125"/>
  <rect x="17" y="0" width="1" height="3" fill="rgb(255,255,255)" fill-opacity="0.0078125"/>
  <rect x="17" y="3" width="1" height="1" fill="rgb(0,51,128)" fill-opacity="0.8046875"/>
  <rect x="17" y="4" width="1" height="1" fill="rgb(193,218,255)" fill-opacity="0.8046875"/>
  <rect x="17" y="5" width="1" height="1" fill="rgb(128,179,255)" fill-opacity="0.8046875"/>
  <rect x="17" y="6" width="1" height="1" fill="rgb(0,51,128)" fill-opacity="0.8046875"/>
  <rect x="17" y="7" width="1" height="8" fill="rgb(255,0,0)" fill-opacity="0.015625"/>
  <rect x="17" y="15" width="1" height="1" fill="rgb(0,51,128)" fill-opacity="0.8046875"/>
  <rect x="17" y="16" width="1" height="1" fill="rgb(193,218,255)" fill-opacity="0.8046875"/>
  <rect x="17" y="17" width="1" height="1" fill="rgb(128,179,255)" fill-opacity="0.8046875"/>
  <rect x="17" y="18" width="1" height="1" fill="rgb(0,51,128)" fill-opacity="0.8046875"/>
  <rect x="17" y="19" width="1" height="2" fill="rgb(255,255,255)" fill-opacity="0.0078125"/>
  <rect x="18" y="0" width="1" height="3" fill="rgb(255,255,255)" fill-opacity="0.0078125"/>
  <rect x="18" y="3" width="1" height="1" fill="rgb(4,55,132)" fill-opacity="0.734375"/>
  <rect x="18" y="4" width="1" height="2" fill="rgb(0,51,128)" fill-opacity="0.8046875"/>
  <rect x="18" y="6" width="1" height="1" fill="rgb(4,55,132)" fill-opacity="0.734375"/>
  <rect x="18" y="7" width="1" height="8" fill="rgb(255,0,0)" fill-opacity="0.015625"/>
  <rect x="18" y="15" width="1" height="1" fill="rgb(4,55,132)" fill-opacity="0.734375"/>
  <rect x="18" y="16" width="1" height="2" fill="rgb(0,51,128)" fill-opacity="0.8046875"/>
  <rect x="18" y="18" width="1" height="1" fill="rgb(4,55,132)" fill-opacity="0.734375"/>
  <rect x="18" y="19" width="1" height="2" fill="rgb(255,255,255)" fill-opacity="0.0078125"/>
  <rect x="19" y="0" width="1" height="21" fill="rgb(255,255,255)" fill-opacity="0.0078125"/>
  <rect x="20" y="0" width="1" height="21" fill="rgb(255,255,255)" fill-opacity="0.0078125"/>
</svg>