<svg xmlns="http://www.w3.org/2000/svg" shape-rendering="crispEdges" width="21" height="21" viewBox="0 0 21 21">
  <rect x="0" y="0" width="21" height="1" fill="rgb(255,255,255)" fill-opacity="0.0078125"/>
  <rect x="0" y="1" width="21" height="1" fill="rgb(255,255,255)" fill-opacity="0.0078125"/>
  <rect x="0" y="2" width="21" height="1" fill="rgb(255,255,255)" fill-opacity="0.0078125"/>
  <rect x="0" y="3" width="21" height="1" fill="rgb(255,255,255)" fill-opacity="0.0078125"/>
  <rect x="0" y="4" width="21" height="1" fill="rgb(255,255,255)" fill-opacity="0.0078125"/>
  <rect x="0" y="5" width="21" height="1" fill="rgb(255,255,255)" fill-opacity="0.0078125"/>
  <rect x="0" y="6" width="21" height="1" fill="rgb(255,255,255)" fill-opacity="0.0078125"/>
  <rect x="0" y="7" width="21" height="1" fill="rgb(255,255,255)" fill-opacity="0.0078125"/>
  <rect x="0" y="8" width="10" height="1" fill="rgb(255,255,255)" fill-opacity="0.0078125"/>
  <rect x="10" y="8" width="1" height="1" fill="rgb(28,28,28)" fill-opacity="0.1796875"/>
  <rect x="11" y="8" width="1" height="1" fill="rgb(32,32,32)" fill-opacity="0.8359375"/>
  <rect x="12" y="8" width="1" height="1" fill="rgb(25,25,25)" fill-opacity="0.2890625"/>
  <rect x="13" y="8" width="8" height="1" fill="rgb(255,255,255)" fill-opacity="0.0078125"/>
  <rect x="0" y="9" width="9" height="1" fill="rgb(255,255,255)" fill-opacity="0.0078125"/>
  <rect x="9" y="9" width="1" height="1" fill="rgb(28,28,28)" fill-opacity="0.1796875"/>
  <rect x="10" y="9" width="1" height="1" fill="rgb(32,32,32)" fill-opacity="0.9453125"/>
  <rect x="11" y="9" width="1" height="1" fill="rgb(104,104,104)"/>
  <rect x="12" y="9" width="1" height="1" fill="rgb(32,32,32)" fill-opacity="0.96875"/>
  <rect x="13" y="9" width="1" height="1" fill="rgb(25,25,25)" fill-opacity="0.2890625"/>
  <rect x="14" y="9" width="7" height="1" fill="rgb(255,255,255)" fill-opacity="0.0078125"/>
  <rect x="0" y="10" width="8" height="1" fill="rgb(255,255,255)" fill-opacity="0.0078125"/>
  <rect x="8" y="10" width="1" height="1" fill="rgb(28,28,28)" fill-opacity="0.1796875"/>
  <rect x="9" y="10" width="1" height="1" fill="rgb(32,32,32)" fill-opacity="0.9453125"/>
  <rect x="10" y="10" width="1" height="1" fill="rgb(197,197,197)"/>
  <rect x="11" y="10" width="1" height="1" fill="rgb(229,229,229)"/>
  <rect x="12" y="10" width="1" height="1" fill="rgb(149,149,149)"/>
  <rect x="13" y="10" width="1" height="1" fill="rgb(34,34,34)" fill-opacity="0.96875"/>
  <rect x="14" y="10" width="1" height="1" fill="rgb(25,25,25)" fill-opacity="0.2890625"/>
  <rect x="15" y="10" width="6" height="1" fill="rgb(255,255,255)" fill-opacity="0.0078125"/>
  <rect x="0" y="11" width="7" height="1" fill="rgb(255,255,255)" fill-opacity="0.0078125"/>
  <rect x="7" y="11" width="1" height="1" fill="rgb(28,28,28)" fill-opacity="0.1796875"/>
  <rect x="8" y="11" width="1" height="1" fill="rgb(32,32,32)" fill-opacity="0.9453125"/>
  <rect x="9" y="11" width="1" height="1" fill="rgb(199,199,199)"/>
  <rect x="10" y="11" width="1" height="1" fill="rgb(239,239,239)"/>
  <rect x="11" y="11" width="1" height="1" fill="rgb(198,198,198)"/>
  <rect x="12" y="11" width="1" height="1" fill="rgb(207,207,207)"/>
  <rect x="13" y="11" width="1" height="1" fill="rgb(175,175,175)"/>
  <rect x="14" y="11" width="1" height="1" fill="rgb(35,35,35)" fill-opacity="0.96875"/>
  <rect x="15" y="11" width="1" height="1" fill="rgb(25,25,25)" fill-opacity="0.2890625"/>
  <rect x="16" y="11" width="5" height="1" fill="rgb(255,255,255)" fill-opacity="0.0078125"/>
  <rect x="0" y="12" width="6" height="1" fill="rgb(255,255,255)" fill-opacity="0.0078125"/>
  <rect x="6" y="12" width="1" height="1" fill="rgb(28,28,28)" fill-opacity="0.1796875"/>
  <rect x="7" y="12" width="1" height="1" fill="rgb(31,31,31)" fill-opacity="0.9453125"/>
  <rect x="8" y="12" width="1" height="1" fill="rgb(131,131,131)"/>
  <rect x="9" y="12" width="1" height="1" fill="rgb(232,232,232)"/>
  <rect x="10" y="12" width="1" height="1" fill="rgb(203,203,203)"/>
  <rect x="11" y="12" width="1" height="1" fill="rgb(214,214,214)"/>
  <rect x="12" y="12" width="1" height="1" fill="rgb(227,227,227)"/>
  <rect x="13" y="12" width="1" height="1" fill="rgb(241,241,241)"/>
  <rect x="14" y="12" width="1" height="1" fill="rgb(201,201,201)"/>
  <rect x="15" y="12" width="1" height="1" fill="rgb(36,36,36)" fill-opacity="0.96875"/>
  <rect x="16" y="12" width="1" height="1" fill="rgb(25,25,25)" fill-opacity="0.2890625"/>
  <rect x="17" y="12" width="4" height="1" fill="rgb(255,255,255)" fill-opacity="0.0078125"/>
  <rect x="0" y="13" width="6" height="1" fill="rgb(255,255,255)" fill-opacity="0.0078125"/>
  <rect x="6" y="13" width="1" height="1" fill="rgb(32,32,32)" fill-opacity="0.6484375"/>
  <rect x="7" y="13" width="1" height="1" fill="rgb(26,26,26)"/>
  <rect x="8" y="13" width="3" height="1" fill="rgb(28,28,28)" fill-opacity="0.9921875"/>
  <rect x="11" y="13" width="4" height="1" fill="rgb(29,29,29)" fill-opacity="0.9921875"/>
  <rect x="15" y="13" width="1" height="1" fill="rgb(27,27,27)"/>
  <rect x="16" y="13" width="1" height="1" fill="rgb(36,36,36)" fill-opacity="0.828125"/>
  <rect x="17" y="13" width="4" height="1" fill="rgb(255,255,255)" fill-opacity="0.0078125"/>
  <rect x="0" y="14" width="6" height="1" fill="rgb(255,255,255)" fill-opacity="0.0078125"/>
  <rect x="6" y="14" width="1" height="1" fill="rgb(0,0,0)" fill-opacity="0.015625"/>
  <rect x="7" y="14" width="9" height="1" fill="rgb(32,32,32)" fill-opacity="0.0390625"/>
  <rect x="16" y="14" width="1" height="1" fill="rgb(0,0,0)" fill-opacity="0.0234375"/>
  <rect x="17" y="14" width="4" height="1" fill="rgb(255,255,255)" fill-opacity="0.0078125"/>
  <rect x="0" y="15" width="21" height="1" fill="rgb(255,255,255)" fill-opacity="0.0078125"/>
  <rect x="0" y="16" width="21" height="1" fill="rgb(255,255,255)" fill-opacity="0.0078125"/>
  <rect x="0" y="17" width="21" height="1" fill="rgb(255,255,255)" fill-opacity="0.0078125"/>
  <rect x="0" y="18" width="21" height="1" fill="rgb(255,255,255)" fill-opacity="0.0078125"/>
  <rect x="0" y="19" width="21" height="1" fill="rgb(255,255,255)" fill-opacity="0.0078125"/>
  <rect x="0" y="20" width="21" height="1" fill="rgb(255,255,255)" fill-opacity="0.0078125"/>
</svg>