<svg xmlns="http://www.w3.org/2000/svg" shape-rendering="crispEdges" width="21" height="21" viewBox="0 0 21 21">
  <rect x="0" y="0" width="21" height="1" fill="rgb(255,255,255)" fill-opacity="0.0078125"/>
  <rect x="0" y="1" width="21" height="1" fill="rgb(255,255,255)" fill-opacity="0.0078125"/>
  <rect x="0" y="2" width="21" height="1" fill="rgb(255,255,255)" fill-opacity="0.0078125"/>
  <rect x="0" y="3" width="21" height="1" fill="rgb(255,255,255)" fill-opacity="0.0078125"/>
  <rect x="0" y="4" width="21" height="1" fill="rgb(255,255,255)" fill-opacity="0.0078125"/>
  <rect x="0" y="5" width="21" height="1" fill="rgb(255,255,255)" fill-opacity="0.0078125"/>
  <rect x="0" y="6" width="21" height="1" fill="rgb(255,255,255)" fill-opacity="0.0078125"/>
  <rect x="0" y="7" width="7" height="1" fill="rgb(255,255,255)" fill-opacity="0.0078125"/>
  <rect x="7" y="7" width="1" height="1" fill="rgb(15,15,15)" fill-opacity="0.140625"/>
  <rect x="8" y="7" width="1" height="1" fill="rgb(48,48,48)" fill-opacity="0.6328125"/>
  <rect x="9" y="7" width="1" height="1" fill="rgb(43,43,43)" fill-opacity="0.8828125"/>
  <rect x="10" y="7" width="1" height="1" fill="rgb(49,49,49)" fill-opacity="0.9765625"/>
  <rect x="11" y="7" width="1" height="1" fill="rgb(43,43,43)" fill-opacity="0.9765625"/>
  <rect x="12" y="7" width="1" height="1" fill="rgb(41,41,41)" fill-opacity="0.875"/>
  <rect x="13" y="7" width="1" height="1" fill="rgb(48,48,48)" fill-opacity="0.6328125"/>
  <rect x="14" y="7" width="1" height="1" fill="rgb(15,15,15)" fill-opacity="0.140625"/>
  <rect x="15" y="7" width="6" height="1" fill="rgb(255,255,255)" fill-opacity="0.0078125"/>
  <rect x="0" y="8" width="5" height="1" fill="rgb(255,255,255)" fill-opacity="0.0078125"/>
  <rect x="5" y="8" width="1" height="1" fill="rgb(85,85,85)" fill-opacity="0.0390625"/>
  <rect x="6" y="8" width="1" height="1" fill="rgb(61,61,61)" fill-opacity="0.7890625"/>
  <rect x="7" y="8" width="1" height="1" fill="rgb(91,91,91)" fill-opacity="0.9609375"/>
  <rect x="8" y="8" width="1" height="1" fill="rgb(161,161,161)"/>
  <rect x="9" y="8" width="1" height="1" fill="rgb(223,223,223)"/>
  <rect x="10" y="8" width="1" height="1" fill="rgb(211,211,211)"/>
  <rect x="11" y="8" width="1" height="1" fill="rgb(140,140,140)"/>
  <rect x="12" y="8" width="1" height="1" fill="rgb(128,128,128)"/>
  <rect x="13" y="8" width="1" height="1" fill="rgb(158,158,158)"/>
  <rect x="14" y="8" width="1" height="1" fill="rgb(87,87,87)" fill-opacity="0.9609375"/>
  <rect x="15" y="8" width="1" height="1" fill="rgb(56,56,56)" fill-opacity="0.7890625"/>
  <rect x="16" y="8" width="1" height="1" fill="rgb(85,85,85)" fill-opacity="0.0390625"/>
  <rect x="17" y="8" width="4" height="1" fill="rgb(255,255,255)" fill-opacity="0.0078125"/>
  <rect x="0" y="9" width="4" height="1" fill="rgb(255,255,255)" fill-opacity="0.0078125"/>
  <rect x="4" y="9" width="1" height="1" fill="rgb(41,41,41)" fill-opacity="0.1015625"/>
  <rect x="5" y="9" width="1" height="1" fill="rgb(57,57,57)" fill-opacity="0.9296875"/>
  <rect x="6" y="9" width="1" height="1" fill="rgb(173,173,173)"/>
  <rect x="7" y="9" width="1" height="1" fill="rgb(255,255,255)"/>
  <rect x="8" y="9" width="1" height="1" fill="rgb(173,173,173)"/>
  <rect x="9" y="9" width="1" height="1" fill="rgb(208,208,208)"/>
  <rect x="10" y="9" width="1" height="1" fill="rgb(112,112,112)"/>
  <rect x="11" y="9" width="1" height="1" fill="rgb(0,0,0)"/>
  <rect x="12" y="9" width="1" height="1" fill="rgb(128,128,128)"/>
  <rect x="13" y="9" width="1" height="1" fill="rgb(153,153,153)"/>
  <rect x="14" y="9" width="1" height="1" fill="rgb(241,241,241)"/>
  <rect x="15" y="9" width="1" height="1" fill="rgb(157,157,157)"/>
  <rect x="16" y="9" width="1" height="1" fill="rgb(51,51,51)" fill-opacity="0.9296875"/>
  <rect x="17" y="9" width="1" height="1" fill="rgb(31,31,31)" fill-opacity="0.1015625"/>
  <rect x="18" y="9" width="3" height="1" fill="rgb(255,255,255)" fill-opacity="0.0078125"/>
  <rect x="0" y="10" width="4" height="1" fill="rgb(255,255,255)" fill-opacity="0.0078125"/>
  <rect x="4" y="10" width="1" height="1" fill="rgb(32,32,32)" fill-opacity="0.78125"/>
  <rect x="5" y="10" width="1" height="1" fill="rgb(178,178,178)"/>
  <rect x="6" y="10" width="2" height="1" fill="rgb(255,255,255)"/>
  <rect x="8" y="10" width="1" height="1" fill="rgb(160,160,160)"/>
  <rect x="9" y="10" width="1" height="1" fill="rgb(150,150,150)"/>
  <rect x="10" y="10" width="2" height="1" fill="rgb(12,12,12)"/>
  <rect x="12" y="10" width="1" height="1" fill="rgb(128,128,128)"/>
  <rect x="13" y="10" width="1" height="1" fill="rgb(153,153,153)"/>
  <rect x="14" y="10" width="1" height="1" fill="rgb(241,241,241)"/>
  <rect x="15" y="10" width="1" height="1" fill="rgb(232,232,232)"/>
  <rect x="16" y="10" width="1" height="1" fill="rgb(156,156,156)"/>
  <rect x="17" y="10" width="1" height="1" fill="rgb(27,27,27)" fill-opacity="0.78125"/>
  <rect x="18" y="10" width="3" height="1" fill="rgb(255,255,255)" fill-opacity="0.0078125"/>
  <rect x="0" y="11" width="4" height="1" fill="rgb(255,255,255)" fill-opacity="0.0078125"/>
  <rect x="4" y="11" width="1" height="1" fill="rgb(0,0,0)" fill-opacity="0.1484375"/>
  <rect x="5" y="11" width="1" height="1" fill="rgb(43,43,43)" fill-opacity="0.90625"/>
  <rect x="6" y="11" width="1" height="1" fill="rgb(234,234,234)"/>
  <rect x="7" y="11" width="1" height="1" fill="rgb(255,255,255)"/>
  <rect x="8" y="11" width="1" height="1" fill="rgb(207,207,207)"/>
  <rect x="9" y="11" width="4" height="1" fill="rgb(128,128,128)"/>
  <rect x="13" y="11" width="1" height="1" fill="rgb(203,203,203)"/>
  <rect x="14" y="11" width="1" height="1" fill="rgb(240,240,240)"/>
  <rect x="15" y="11" width="1" height="1" fill="rgb(213,213,213)"/>
  <rect x="16" y="11" width="1" height="1" fill="rgb(37,37,37)" fill-opacity="0.90625"/>
  <rect x="17" y="11" width="1" height="1" fill="rgb(0,0,0)" fill-opacity="0.1484375"/>
  <rect x="18" y="11" width="3" height="1" fill="rgb(255,255,255)" fill-opacity="0.0078125"/>
  <rect x="0" y="12" width="5" height="1" fill="rgb(255,255,255)" fill-opacity="0.0078125"/>
  <rect x="5" y="12" width="1" height="1" fill="rgb(16,16,16)" fill-opacity="0.1953125"/>
  <rect x="6" y="12" width="1" height="1" fill="rgb(53,53,53)" fill-opacity="0.9296875"/>
  <rect x="7" y="12" width="1" height="1" fill="rgb(237,237,237)"/>
  <rect x="8" y="12" width="1" height="1" fill="rgb(253,253,253)"/>
  <rect x="9" y="12" width="1" height="1" fill="rgb(207,207,207)"/>
  <rect x="10" y="12" width="2" height="1" fill="rgb(154,154,154)"/>
  <rect x="12" y="12" width="1" height="1" fill="rgb(207,207,207)"/>
  <rect x="13" y="12" width="1" height="1" fill="rgb(247,247,247)"/>
  <rect x="14" y="12" width="1" height="1" fill="rgb(223,223,223)"/>
  <rect x="15" y="12" width="1" height="1" fill="rgb(46,46,46)" fill-opacity="0.921875"/>
  <rect x="16" y="12" width="1" height="1" fill="rgb(11,11,11)" fill-opacity="0.1875"/>
  <rect x="17" y="12" width="4" height="1" fill="rgb(255,255,255)" fill-opacity="0.0078125"/>
  <rect x="0" y="13" width="6" height="1" fill="rgb(255,255,255)" fill-opacity="0.0078125"/>
  <rect x="6" y="13" width="1" height="1" fill="rgb(10,10,10)" fill-opacity="0.2109375"/>
  <rect x="7" y="13" width="1" height="1" fill="rgb(29,29,29)" fill-opacity="0.8359375"/>
  <rect x="8" y="13" width="1" height="1" fill="rgb(139,139,139)" fill-opacity="0.890625"/>
  <rect x="9" y="13" width="1" height="1" fill="rgb(231,231,231)" fill-opacity="0.9921875"/>
  <rect x="10" y="13" width="2" height="1" fill="rgb(255,255,255)"/>
  <rect x="12" y="13" width="1" height="1" fill="rgb(231,231,231)" fill-opacity="0.9921875"/>
  <rect x="13" y="13" width="1" height="1" fill="rgb(135,135,135)" fill-opacity="0.890625"/>
  <rect x="14" y="13" width="1" height="1" fill="rgb(26,26,26)" fill-opacity="0.828125"/>
  <rect x="15" y="13" width="1" height="1" fill="rgb(5,5,5)" fill-opacity="0.203125"/>
  <rect x="16" y="13" width="5" height="1" fill="rgb(255,255,255)" fill-opacity="0.0078125"/>
  <rect x="0" y="14" width="7" height="1" fill="rgb(255,255,255)" fill-opacity="0.0078125"/>
  <rect x="7" y="14" width="1" height="1" fill="rgb(0,0,0)" fill-opacity="0.015625"/>
  <rect x="8" y="14" width="1" height="1" fill="rgb(0,0,0)" fill-opacity="0.3671875"/>
  <rect x="9" y="14" width="1" height="1" fill="rgb(5,5,5)" fill-opacity="0.6171875"/>
  <rect x="10" y="14" width="2" height="1" fill="rgb(17,17,17)" fill-opacity="0.75"/>
  <rect x="12" y="14" width="1" height="1" fill="rgb(5,5,5)" fill-opacity="0.6171875"/>
  <rect x="13" y="14" width="1" height="1" fill="rgb(0,0,0)" fill-opacity="0.3671875"/>
  <rect x="14" y="14" width="1" height="1" fill="rgb(0,0,0)" fill-opacity="0.015625"/>
  <rect x="15" y="14" width="6" height="1" fill="rgb(255,255,255)" fill-opacity="0.0078125"/>
  <rect x="0" y="15" width="21" height="1" fill="rgb(255,255,255)" fill-opacity="0.0078125"/>
  <rect x="0" y="16" width="21" height="1" fill="rgb(255,255,255)" fill-opacity="0.0078125"/>
  <rect x="0" y="17" width="21" height="1" fill="rgb(255,255,255)" fill-opacity="0.0078125"/>
  <rect x="0" y="18" width="21" height="1" fill="rgb(255,255,255)" fill-opacity="0.0078125"/>
  <rect x="0" y="19" width="21" height="1" fill="rgb(255,255,255)" fill-opacity="0.0078125"/>
  <rect x="0" y="20" width="21" height="1" fill="rgb(255,255,255)" fill-opacity="0.0078125"/>
</svg>