<svg xmlns="http://www.w3.org/2000/svg" shape-rendering="crispEdges" width="21" height="21" viewBox="0 0 21 21">
  <rect x="0" y="0" width="1" height="21" fill="rgb(255,255,255)" fill-opacity="0.0078125"/>
  <rect x="1" y="0" width="1" height="21" fill="rgb(255,255,255)" fill-opacity="0.0078125"/>
  <rect x="2" y="0" width="1" height="21" fill="rgb(255,255,255)" fill-opacity="0.0078125"/>
  <rect x="3" y="0" width="1" height="21" fill="rgb(255,255,255)" fill-opacity="0.0078125"/>
  <rect x="4" y="0" width="1" height="21" fill="rgb(255,255,255)" fill-opacity="0.0078125"/>
  <rect x="5" y="0" width="1" height="5" fill="rgb(255,255,255)" fill-opacity="0.0078125"/>
  <rect x="5" y="5" width="1" height="1" fill="rgb(43,43,43)" fill-opacity="0.03125"/>
  <rect x="5" y="6" width="1" height="1" fill="rgb(43,43,43)" fill-opacity="0.40625"/>
  <rect x="5" y="7" width="1" height="1" fill="rgb(50,50,50)" fill-opacity="0.640625"/>
  <rect x="5" y="8" width="1" height="1" fill="rgb(49,49,49)" fill-opacity="0.734375"/>
  <rect x="5" y="9" width="1" height="5" fill="rgb(52,52,52)" fill-opacity="0.734375"/>
  <rect x="5" y="14" width="1" height="1" fill="rgb(51,51,51)" fill-opacity="0.734375"/>
  <rect x="5" y="15" width="1" height="1" fill="rgb(44,44,44)" fill-opacity="0.703125"/>
  <rect x="5" y="16" width="1" height="1" fill="rgb(46,46,46)" fill-opacity="0.5625"/>
  <rect x="5" y="17" width="1" height="1" fill="rgb(27,27,27)" fill-opacity="0.1875"/>
  <rect x="5" y="18" width="1" height="3" fill="rgb(255,255,255)" fill-opacity="0.0078125"/>
  <rect x="6" y="0" width="1" height="4" fill="rgb(255,255,255)" fill-opacity="0.0078125"/>
  <rect x="6" y="4" width="1" height="1" fill="rgb(22,22,22)" fill-opacity="0.140625"/>
  <rect x="6" y="5" width="1" height="1" fill="rgb(48,48,48)" fill-opacity="0.703125"/>
  <rect x="6" y="6" width="1" height="1" fill="rgb(158,158,158)" fill-opacity="0.796875"/>
  <rect x="6" y="7" width="1" height="1" fill="rgb(233,233,233)" fill-opacity="0.8046875"/>
  <rect x="6" y="8" width="1" height="8" fill="rgb(255,255,255)" fill-opacity="0.8046875"/>
  <rect x="6" y="16" width="1" height="1" fill="rgb(216,216,216)" fill-opacity="0.8046875"/>
  <rect x="6" y="17" width="1" height="1" fill="rgb(72,72,72)" fill-opacity="0.78125"/>
  <rect x="6" y="18" width="1" height="1" fill="rgb(94,94,94)" fill-opacity="0.359375"/>
  <rect x="6" y="19" width="1" height="2" fill="rgb(255,255,255)" fill-opacity="0.0078125"/>
  <rect x="7" y="0" width="1" height="3" fill="rgb(255,255,255)" fill-opacity="0.0078125"/>
  <rect x="7" y="3" width="1" height="1" fill="rgb(43,43,43)" fill-opacity="0.03125"/>
  <rect x="7" y="4" width="1" height="1" fill="rgb(48,48,48)" fill-opacity="0.703125"/>
  <rect x="7" y="5" width="1" height="1" fill="rgb(220,220,220)" fill-opacity="0.8046875"/>
  <rect x="7" y="6" width="1" height="2" fill="rgb(255,255,255)" fill-opacity="0.8046875"/>
  <rect x="7" y="8" width="1" height="2" fill="rgb(120,120,120)" fill-opacity="0.8046875"/>
  <rect x="7" y="10" width="1" height="7" fill="rgb(255,255,255)" fill-opacity="0.8046875"/>
  <rect x="7" y="17" width="1" height="1" fill="rgb(233,233,233)" fill-opacity="0.8046875"/>
  <rect x="7" y="18" width="1" height="1" fill="rgb(43,43,43)" fill-opacity="0.7421875"/>
  <rect x="7" y="19" width="1" height="2" fill="rgb(255,255,255)" fill-opacity="0.0078125"/>
  <rect x="8" y="0" width="1" height="3" fill="rgb(255,255,255)" fill-opacity="0.0078125"/>
  <rect x="8" y="3" width="1" height="1" fill="rgb(43,43,43)" fill-opacity="0.40625"/>
  <rect x="8" y="4" width="1" height="1" fill="rgb(158,158,158)" fill-opacity="0.796875"/>
  <rect x="8" y="5" width="1" height="4" fill="rgb(255,255,255)" fill-opacity="0.8046875"/>
  <rect x="8" y="9" width="1" height="1" fill="rgb(105,105,105)" fill-opacity="0.8046875"/>
  <rect x="8" y="10" width="1" height="2" fill="rgb(255,255,255)" fill-opacity="0.8046875"/>
  <rect x="8" y="12" width="1" height="1" fill="rgb(245,245,245)" fill-opacity="0.8046875"/>
  <rect x="8" y="13" width="1" height="1" fill="rgb(223,223,223)" fill-opacity="0.8046875"/>
  <rect x="8" y="14" width="1" height="1" fill="rgb(203,203,203)" fill-opacity="0.8046875"/>
  <rect x="8" y="15" width="1" height="1" fill="rgb(193,193,193)" fill-opacity="0.8046875"/>
  <rect x="8" y="16" width="1" height="1" fill="rgb(184,184,184)" fill-opacity="0.8046875"/>
  <rect x="8" y="17" width="1" height="1" fill="rgb(66,66,66)" fill-opacity="0.7578125"/>
  <rect x="8" y="18" width="1" height="1" fill="rgb(40,40,40)" fill-opacity="0.28125"/>
  <rect x="8" y="19" width="1" height="2" fill="rgb(255,255,255)" fill-opacity="0.0078125"/>
  <rect x="9" y="0" width="1" height="3" fill="rgb(255,255,255)" fill-opacity="0.0078125"/>
  <rect x="9" y="3" width="1" height="1" fill="rgb(48,48,48)" fill-opacity="0.640625"/>
  <rect x="9" y="4" width="1" height="1" fill="rgb(229,229,229)" fill-opacity="0.8046875"/>
  <rect x="9" y="5" width="1" height="10" fill="rgb(248,248,248)" fill-opacity="0.8046875"/>
  <rect x="9" y="15" width="1" height="1" fill="rgb(238,238,238)" fill-opacity="0.8046875"/>
  <rect x="9" y="16" width="1" height="1" fill="rgb(130,130,130)" fill-opacity="0.7890625"/>
  <rect x="9" y="17" width="1" height="1" fill="rgb(38,38,38)" fill-opacity="0.4765625"/>
  <rect x="9" y="18" width="1" height="3" fill="rgb(255,255,255)" fill-opacity="0.0078125"/>
  <rect x="10" y="0" width="1" height="3" fill="rgb(255,255,255)" fill-opacity="0.0078125"/>
  <rect x="10" y="3" width="1" height="1" fill="rgb(43,43,43)" fill-opacity="0.7421875"/>
  <rect x="10" y="4" width="1" height="1" fill="rgb(253,253,253)" fill-opacity="0.8046875"/>
  <rect x="10" y="5" width="1" height="7" fill="rgb(233,233,233)" fill-opacity="0.8046875"/>
  <rect x="10" y="12" width="1" height="1" fill="rgb(234,234,234)" fill-opacity="0.8046875"/>
  <rect x="10" y="13" width="1" height="1" fill="rgb(238,238,238)" fill-opacity="0.8046875"/>
  <rect x="10" y="14" width="1" height="1" fill="rgb(240,240,240)" fill-opacity="0.8046875"/>
  <rect x="10" y="15" width="1" height="1" fill="rgb(244,244,244)" fill-opacity="0.8046875"/>
  <rect x="10" y="16" width="1" height="1" fill="rgb(238,238,238)" fill-opacity="0.8046875"/>
  <rect x="10" y="17" width="1" height="1" fill="rgb(73,73,73)" fill-opacity="0.765625"/>
  <rect x="10" y="18" width="1" height="1" fill="rgb(40,40,40)" fill-opacity="0.28125"/>
  <rect x="10" y="19" width="1" height="2" fill="rgb(255,255,255)" fill-opacity="0.0078125"/>
  <rect x="11" y="0" width="1" height="3" fill="rgb(255,255,255)" fill-opacity="0.0078125"/>
  <rect x="11" y="3" width="1" height="1" fill="rgb(47,47,47)" fill-opacity="0.640625"/>
  <rect x="11" y="4" width="1" height="1" fill="rgb(224,224,224)" fill-opacity="0.8046875"/>
  <rect x="11" y="5" width="1" height="1" fill="rgb(219,219,219)" fill-opacity="0.8046875"/>
  <rect x="11" y="6" width="1" height="3" fill="rgb(216,216,216)" fill-opacity="0.8046875"/>
  <rect x="11" y="9" width="1" height="1" fill="rgb(54,54,54)" fill-opacity="0.8046875"/>
  <rect x="11" y="10" width="1" height="2" fill="rgb(216,216,216)" fill-opacity="0.8046875"/>
  <rect x="11" y="12" width="1" height="1" fill="rgb(208,208,208)" fill-opacity="0.8046875"/>
  <rect x="11" y="13" width="1" height="1" fill="rgb(198,198,198)" fill-opacity="0.8046875"/>
  <rect x="11" y="14" width="1" height="1" fill="rgb(205,205,205)" fill-opacity="0.8046875"/>
  <rect x="11" y="15" width="1" height="1" fill="rgb(219,219,219)" fill-opacity="0.8046875"/>
  <rect x="11" y="16" width="1" height="1" fill="rgb(233,233,233)" fill-opacity="0.8046875"/>
  <rect x="11" y="17" width="1" height="1" fill="rgb(223,223,223)" fill-opacity="0.8046875"/>
  <rect x="11" y="18" width="1" height="1" fill="rgb(40,40,40)" fill-opacity="0.734375"/>
  <rect x="11" y="19" width="1" height="2" fill="rgb(255,255,255)" fill-opacity="0.0078125"/>
  <rect x="12" y="0" width="1" height="3" fill="rgb(255,255,255)" fill-opacity="0.0078125"/>
  <rect x="12" y="3" width="1" height="1" fill="rgb(38,38,38)" fill-opacity="0.40625"/>
  <rect x="12" y="4" width="1" height="1" fill="rgb(142,142,142)" fill-opacity="0.7890625"/>
  <rect x="12" y="5" width="1" height="1" fill="rgb(224,224,224)" fill-opacity="0.8046875"/>
  <rect x="12" y="6" width="1" height="2" fill="rgb(200,200,200)" fill-opacity="0.8046875"/>
  <rect x="12" y="8" width="1" height="2" fill="rgb(40,40,40)" fill-opacity="0.8046875"/>
  <rect x="12" y="10" width="1" height="3" fill="rgb(200,200,200)" fill-opacity="0.8046875"/>
  <rect x="12" y="13" width="1" height="1" fill="rgb(199,199,199)" fill-opacity="0.8046875"/>
  <rect x="12" y="14" width="1" height="1" fill="rgb(178,178,178)" fill-opacity="0.8046875"/>
  <rect x="12" y="15" width="1" height="2" fill="rgb(155,155,155)" fill-opacity="0.8046875"/>
  <rect x="12" y="17" width="1" height="1" fill="rgb(54,54,54)" fill-opacity="0.7578125"/>
  <rect x="12" y="18" width="1" height="1" fill="rgb(36,36,36)" fill-opacity="0.28125"/>
  <rect x="12" y="19" width="1" height="2" fill="rgb(255,255,255)" fill-opacity="0.0078125"/>
  <rect x="13" y="0" width="1" height="3" fill="rgb(255,255,255)" fill-opacity="0.0078125"/>
  <rect x="13" y="3" width="1" height="1" fill="rgb(43,43,43)" fill-opacity="0.03125"/>
  <rect x="13" y="4" width="1" height="1" fill="rgb(43,43,43)" fill-opacity="0.703125"/>
  <rect x="13" y="5" width="1" height="1" fill="rgb(199,199,199)" fill-opacity="0.8046875"/>
  <rect x="13" y="6" width="1" height="1" fill="rgb(213,213,213)" fill-opacity="0.8046875"/>
  <rect x="13" y="7" width="1" height="1" fill="rgb(188,188,188)" fill-opacity="0.8046875"/>
  <rect x="13" y="8" width="1" height="3" fill="rgb(184,184,184)" fill-opacity="0.8046875"/>
  <rect x="13" y="11" width="1" height="1" fill="rgb(188,188,188)" fill-opacity="0.8046875"/>
  <rect x="13" y="12" width="1" height="1" fill="rgb(205,205,205)" fill-opacity="0.8046875"/>
  <rect x="13" y="13" width="1" height="1" fill="rgb(219,219,219)" fill-opacity="0.8046875"/>
  <rect x="13" y="14" width="1" height="1" fill="rgb(224,224,224)" fill-opacity="0.8046875"/>
  <rect x="13" y="15" width="1" height="1" fill="rgb(231,231,231)" fill-opacity="0.8046875"/>
  <rect x="13" y="16" width="1" height="1" fill="rgb(130,130,130)" fill-opacity="0.796875"/>
  <rect x="13" y="17" width="1" height="1" fill="rgb(40,40,40)" fill-opacity="0.453125"/>
  <rect x="13" y="18" width="1" height="3" fill="rgb(255,255,255)" fill-opacity="0.0078125"/>
  <rect x="14" y="0" width="1" height="4" fill="rgb(255,255,255)" fill-opacity="0.0078125"/>
  <rect x="14" y="4" width="1" height="1" fill="rgb(22,22,22)" fill-opacity="0.140625"/>
  <rect x="14" y="5" width="1" height="1" fill="rgb(41,41,41)" fill-opacity="0.703125"/>
  <rect x="14" y="6" width="1" height="1" fill="rgb(128,128,128)" fill-opacity="0.7890625"/>
  <rect x="14" y="7" width="1" height="1" fill="rgb(199,199,199)" fill-opacity="0.8046875"/>
  <rect x="14" y="8" width="1" height="1" fill="rgb(213,213,213)" fill-opacity="0.8046875"/>
  <rect x="14" y="9" width="1" height="1" fill="rgb(208,208,208)" fill-opacity="0.8046875"/>
  <rect x="14" y="10" width="1" height="1" fill="rgb(204,204,204)" fill-opacity="0.8046875"/>
  <rect x="14" y="11" width="1" height="1" fill="rgb(201,201,201)" fill-opacity="0.8046875"/>
  <rect x="14" y="12" width="1" height="1" fill="rgb(198,198,198)" fill-opacity="0.8046875"/>
  <rect x="14" y="13" width="1" height="1" fill="rgb(195,195,195)" fill-opacity="0.8046875"/>
  <rect x="14" y="14" width="1" height="1" fill="rgb(201,201,201)" fill-opacity="0.8046875"/>
  <rect x="14" y="15" width="1" height="1" fill="rgb(211,211,211)" fill-opacity="0.8046875"/>
  <rect x="14" y="16" width="1" height="1" fill="rgb(210,210,210)" fill-opacity="0.8046875"/>
  <rect x="14" y="17" width="1" height="1" fill="rgb(55,55,55)" fill-opacity="0.765625"/>
  <rect x="14" y="18" width="1" height="1" fill="rgb(41,41,41)" fill-opacity="0.1796875"/>
  <rect x="14" y="19" width="1" height="2" fill="rgb(255,255,255)" fill-opacity="0.0078125"/>
  <rect x="15" y="0" width="1" height="5" fill="rgb(255,255,255)" fill-opacity="0.0078125"/>
  <rect x="15" y="5" width="1" height="1" fill="rgb(43,43,43)" fill-opacity="0.03125"/>
  <rect x="15" y="6" width="1" height="1" fill="rgb(35,35,35)" fill-opacity="0.40625"/>
  <rect x="15" y="7" width="1" height="1" fill="rgb(39,39,39)" fill-opacity="0.640625"/>
  <rect x="15" y="8" width="1" height="1" fill="rgb(40,40,40)" fill-opacity="0.734375"/>
  <rect x="15" y="9" width="1" height="5" fill="rgb(41,41,41)" fill-opacity="0.734375"/>
  <rect x="15" y="14" width="1" height="1" fill="rgb(44,44,44)" fill-opacity="0.75"/>
  <rect x="15" y="15" width="1" height="1" fill="rgb(93,93,93)" fill-opacity="0.7578125"/>
  <rect x="15" y="16" width="1" height="1" fill="rgb(161,161,161)" fill-opacity="0.8046875"/>
  <rect x="15" y="17" width="1" height="1" fill="rgb(121,121,121)" fill-opacity="0.75"/>
  <rect x="15" y="18" width="1" height="1" fill="rgb(33,33,33)" fill-opacity="0.640625"/>
  <rect x="15" y="19" width="1" height="2" fill="rgb(255,255,255)" fill-opacity="0.0078125"/>
  <rect x="16" y="0" width="1" height="14" fill="rgb(255,255,255)" fill-opacity="0.0078125"/>
  <rect x="16" y="14" width="1" height="1" fill="rgb(0,0,0)" fill-opacity="0.015625"/>
  <rect x="16" y="15" width="1" height="1" fill="rgb(29,29,29)" fill-opacity="0.3203125"/>
  <rect x="16" y="16" width="1" height="1" fill="rgb(34,34,34)" fill-opacity="0.703125"/>
  <rect x="16" y="17" width="1" height="1" fill="rgb(27,27,27)" fill-opacity="0.65625"/>
  <rect x="16" y="18" width="1" height="1" fill="rgb(24,24,24)" fill-opacity="0.1328125"/>
  <rect x="16" y="19" width="1" height="2" fill="rgb(255,255,255)" fill-opacity="0.0078125"/>
  <rect x="17" y="0" width="1" height="21" fill="rgb(255,255,255)" fill-opacity="0.0078125"/>
  <rect x="18" y="0" width="1" height="21" fill="rgb(255,255,255)" fill-opacity="0.0078125"/>
  <rect x="19" y="0" width="1" height="21" fill="rgb(255,255,255)" fill-opacity="0.0078125"/>
  <rect x="20" y="0" width="1" height="21" fill="rgb(255,255,255)" fill-opacity="0.0078125"/>
</svg>