<svg xmlns="http://www.w3.org/2000/svg" shape-rendering="crispEdges" width="21" height="21" viewBox="0 0 21 21">
  <rect x="0" y="0" width="21" height="1" fill="rgb(255,255,255)" fill-opacity="0.0078125"/>
  <rect x="0" y="1" width="21" height="1" fill="rgb(255,255,255)" fill-opacity="0.0078125"/>
  <rect x="0" y="2" width="21" height="1" fill="rgb(255,255,255)" fill-opacity="0.0078125"/>
  <rect x="0" y="3" width="3" height="1" fill="rgb(255,255,255)" fill-opacity="0.0078125"/>
  <rect x="3" y="3" width="16" height="1" fill="rgb(170,170,170)" fill-opacity="0.015625"/>
  <rect x="19" y="3" width="2" height="1" fill="rgb(255,255,255)" fill-opacity="0.0078125"/>
  <rect x="0" y="4" width="3" height="1" fill="rgb(255,255,255)" fill-opacity="0.0078125"/>
  <rect x="3" y="4" width="2" height="1" fill="rgb(170,170,170)" fill-opacity="0.015625"/>
  <rect x="5" y="4" width="1" height="1" fill="rgb(12,12,12)" fill-opacity="0.171875"/>
  <rect x="6" y="4" width="1" height="1" fill="rgb(0,0,0)"/>
  <rect x="7" y="4" width="1" height="1" fill="rgb(98,77,55)" fill-opacity="0.515625"/>
  <rect x="8" y="4" width="6" height="1" fill="rgb(141,110,79)" fill-opacity="0.421875"/>
  <rect x="14" y="4" width="1" height="1" fill="rgb(124,90,55)" fill-opacity="0.515625"/>
  <rect x="15" y="4" width="1" height="1" fill="rgb(85,44,0)"/>
  <rect x="16" y="4" width="1" height="1" fill="rgb(89,53,12)" fill-opacity="0.171875"/>
  <rect x="17" y="4" width="2" height="1" fill="rgb(170,170,170)" fill-opacity="0.015625"/>
  <rect x="19" y="4" width="2" height="1" fill="rgb(255,255,255)" fill-opacity="0.0078125"/>
  <rect x="0" y="5" width="3" height="1" fill="rgb(255,255,255)" fill-opacity="0.0078125"/>
  <rect x="3" y="5" width="1" height="1" fill="rgb(170,170,170)" fill-opacity="0.015625"/>
  <rect x="4" y="5" width="1" height="1" fill="rgb(12,12,12)" fill-opacity="0.171875"/>
  <rect x="5" y="5" width="1" height="1" fill="rgb(0,0,0)"/>
  <rect x="6" y="5" width="1" height="1" fill="rgb(252,252,252)"/>
  <rect x="7" y="5" width="1" height="1" fill="rgb(0,0,0)"/>
  <rect x="8" y="5" width="1" height="1" fill="rgb(195,164,131)" fill-opacity="0.671875"/>
  <rect x="9" y="5" width="4" height="1" fill="rgb(255,214,171)" fill-opacity="0.609375"/>
  <rect x="13" y="5" width="1" height="1" fill="rgb(215,174,131)" fill-opacity="0.671875"/>
  <rect x="14" y="5" width="1" height="1" fill="rgb(85,44,0)"/>
  <rect x="15" y="5" width="1" height="1" fill="rgb(254,248,242)"/>
  <rect x="16" y="5" width="1" height="1" fill="rgb(85,44,0)"/>
  <rect x="17" y="5" width="1" height="1" fill="rgb(89,53,12)" fill-opacity="0.171875"/>
  <rect x="18" y="5" width="1" height="1" fill="rgb(170,170,170)" fill-opacity="0.015625"/>
  <rect x="19" y="5" width="2" height="1" fill="rgb(255,255,255)" fill-opacity="0.0078125"/>
  <rect x="0" y="6" width="3" height="1" fill="rgb(255,255,255)" fill-opacity="0.0078125"/>
  <rect x="3" y="6" width="1" height="1" fill="rgb(12,12,12)" fill-opacity="0.171875"/>
  <rect x="4" y="6" width="1" height="1" fill="rgb(0,0,0)"/>
  <rect x="5" y="6" width="1" height="1" fill="rgb(252,252,252)"/>
  <rect x="6" y="6" width="1" height="1" fill="rgb(229,229,229)"/>
  <rect x="7" y="6" width="1" height="1" fill="rgb(239,239,239)"/>
  <rect x="8" y="6" width="1" height="1" fill="rgb(0,0,0)"/>
  <rect x="9" y="6" width="1" height="1" fill="rgb(195,164,131)" fill-opacity="0.671875"/>
  <rect x="10" y="6" width="2" height="1" fill="rgb(255,214,171)" fill-opacity="0.609375"/>
  <rect x="12" y="6" width="1" height="1" fill="rgb(215,174,131)" fill-opacity="0.671875"/>
  <rect x="13" y="6" width="1" height="1" fill="rgb(85,44,0)"/>
  <rect x="14" y="6" width="1" height="1" fill="rgb(253,247,241)"/>
  <rect x="15" y="6" width="1" height="1" fill="rgb(244,191,134)"/>
  <rect x="16" y="6" width="1" height="1" fill="rgb(249,221,192)" fill-opacity="0.9921875"/>
  <rect x="17" y="6" width="1" height="1" fill="rgb(85,44,0)"/>
  <rect x="18" y="6" width="1" height="1" fill="rgb(89,53,12)" fill-opacity="0.171875"/>
  <rect x="19" y="6" width="2" height="1" fill="rgb(255,255,255)" fill-opacity="0.0078125"/>
  <rect x="0" y="7" width="3" height="1" fill="rgb(255,255,255)" fill-opacity="0.0078125"/>
  <rect x="3" y="7" width="1" height="1" fill="rgb(0,0,0)"/>
  <rect x="4" y="7" width="1" height="1" fill="rgb(252,252,252)"/>
  <rect x="5" y="7" width="1" height="1" fill="rgb(228,228,228)"/>
  <rect x="6" y="7" width="1" height="1" fill="rgb(204,204,204)"/>
  <rect x="7" y="7" width="1" height="1" fill="rgb(216,216,216)"/>
  <rect x="8" y="7" width="1" height="1" fill="rgb(213,211,210)" fill-opacity="0.9921875"/>
  <rect x="9" y="7" width="1" height="1" fill="rgb(0,0,0)"/>
  <rect x="10" y="7" width="2" height="1" fill="rgb(255,214,171)" fill-opacity="0.609375"/>
  <rect x="12" y="7" width="1" height="1" fill="rgb(85,44,0)"/>
  <rect x="13" y="7" width="1" height="1" fill="rgb(254,248,241)"/>
  <rect x="14" y="7" width="1" height="1" fill="rgb(243,189,131)"/>
  <rect x="15" y="7" width="1" height="1" fill="rgb(233,131,22)"/>
  <rect x="16" y="7" width="1" height="1" fill="rgb(239,165,86)"/>
  <rect x="17" y="7" width="1" height="1" fill="rgb(240,174,104)" fill-opacity="0.9765625"/>
  <rect x="18" y="7" width="1" height="1" fill="rgb(85,44,0)"/>
  <rect x="19" y="7" width="2" height="1" fill="rgb(255,255,255)" fill-opacity="0.0078125"/>
  <rect x="0" y="8" width="3" height="1" fill="rgb(255,255,255)" fill-opacity="0.0078125"/>
  <rect x="3" y="8" width="1" height="1" fill="rgb(12,12,12)" fill-opacity="0.171875"/>
  <rect x="4" y="8" width="1" height="1" fill="rgb(0,0,0)"/>
  <rect x="5" y="8" width="1" height="1" fill="rgb(237,237,237)" fill-opacity="0.9921875"/>
  <rect x="6" y="8" width="1" height="1" fill="rgb(215,215,215)"/>
  <rect x="7" y="8" width="1" height="1" fill="rgb(214,214,213)" fill-opacity="0.9921875"/>
  <rect x="8" y="8" width="1" height="1" fill="rgb(0,0,0)"/>
  <rect x="9" y="8" width="1" height="1" fill="rgb(195,164,131)" fill-opacity="0.671875"/>
  <rect x="10" y="8" width="2" height="1" fill="rgb(255,214,171)" fill-opacity="0.609375"/>
  <rect x="12" y="8" width="1" height="1" fill="rgb(215,174,131)" fill-opacity="0.671875"/>
  <rect x="13" y="8" width="1" height="1" fill="rgb(85,44,0)"/>
  <rect x="14" y="8" width="1" height="1" fill="rgb(248,214,179)"/>
  <rect x="15" y="8" width="1" height="1" fill="rgb(239,164,83)"/>
  <rect x="16" y="8" width="1" height="1" fill="rgb(240,170,94)" fill-opacity="0.984375"/>
  <rect x="17" y="8" width="1" height="1" fill="rgb(85,44,0)"/>
  <rect x="18" y="8" width="1" height="1" fill="rgb(89,53,12)" fill-opacity="0.171875"/>
  <rect x="19" y="8" width="2" height="1" fill="rgb(255,255,255)" fill-opacity="0.0078125"/>
  <rect x="0" y="9" width="3" height="1" fill="rgb(255,255,255)" fill-opacity="0.0078125"/>
  <rect x="3" y="9" width="1" height="1" fill="rgb(170,170,170)" fill-opacity="0.015625"/>
  <rect x="4" y="9" width="1" height="1" fill="rgb(12,12,12)" fill-opacity="0.171875"/>
  <rect x="5" y="9" width="1" height="1" fill="rgb(0,0,0)"/>
  <rect x="6" y="9" width="1" height="1" fill="rgb(208,207,207)" fill-opacity="0.984375"/>
  <rect x="7" y="9" width="1" height="1" fill="rgb(0,0,0)"/>
  <rect x="8" y="9" width="1" height="1" fill="rgb(195,164,131)" fill-opacity="0.671875"/>
  <rect x="9" y="9" width="4" height="1" fill="rgb(255,214,171)" fill-opacity="0.609375"/>
  <rect x="13" y="9" width="1" height="1" fill="rgb(215,174,131)" fill-opacity="0.671875"/>
  <rect x="14" y="9" width="1" height="1" fill="rgb(85,44,0)"/>
  <rect x="15" y="9" width="1" height="1" fill="rgb(237,165,89)" fill-opacity="0.984375"/>
  <rect x="16" y="9" width="1" height="1" fill="rgb(85,44,0)"/>
  <rect x="17" y="9" width="1" height="1" fill="rgb(89,53,12)" fill-opacity="0.171875"/>
  <rect x="18" y="9" width="1" height="1" fill="rgb(170,170,170)" fill-opacity="0.015625"/>
  <rect x="19" y="9" width="2" height="1" fill="rgb(255,255,255)" fill-opacity="0.0078125"/>
  <rect x="0" y="10" width="3" height="1" fill="rgb(255,255,255)" fill-opacity="0.0078125"/>
  <rect x="3" y="10" width="2" height="1" fill="rgb(170,170,170)" fill-opacity="0.015625"/>
  <rect x="5" y="10" width="1" height="1" fill="rgb(12,12,12)" fill-opacity="0.171875"/>
  <rect x="6" y="10" width="1" height="1" fill="rgb(0,0,0)"/>
  <rect x="7" y="10" width="1" height="1" fill="rgb(96,76,55)" fill-opacity="0.53125"/>
  <rect x="8" y="10" width="6" height="1" fill="rgb(135,106,77)" fill-opacity="0.4453125"/>
  <rect x="14" y="10" width="1" height="1" fill="rgb(121,89,55)" fill-opacity="0.53125"/>
  <rect x="15" y="10" width="1" height="1" fill="rgb(85,44,0)"/>
  <rect x="16" y="10" width="1" height="1" fill="rgb(89,53,12)" fill-opacity="0.171875"/>
  <rect x="17" y="10" width="2" height="1" fill="rgb(170,170,170)" fill-opacity="0.015625"/>
  <rect x="19" y="10" width="2" height="1" fill="rgb(255,255,255)" fill-opacity="0.0078125"/>
  <rect x="0" y="11" width="3" height="1" fill="rgb(255,255,255)" fill-opacity="0.0078125"/>
  <rect x="3" y="11" width="16" height="1" fill="rgb(170,170,170)" fill-opacity="0.015625"/>
  <rect x="19" y="11" width="2" height="1" fill="rgb(255,255,255)" fill-opacity="0.0078125"/>
  <rect x="0" y="12" width="3" height="1" fill="rgb(255,255,255)" fill-opacity="0.0078125"/>
  <rect x="3" y="12" width="6" height="1" fill="rgb(170,170,170)" fill-opacity="0.015625"/>
  <rect x="9" y="12" width="1" height="1" fill="rgb(12,12,12)" fill-opacity="0.171875"/>
  <rect x="10" y="12" width="1" height="1" fill="rgb(0,0,0)"/>
  <rect x="11" y="12" width="1" height="1" fill="rgb(12,12,12)" fill-opacity="0.171875"/>
  <rect x="12" y="12" width="7" height="1" fill="rgb(170,170,170)" fill-opacity="0.015625"/>
  <rect x="19" y="12" width="2" height="1" fill="rgb(255,255,255)" fill-opacity="0.0078125"/>
  <rect x="0" y="13" width="3" height="1" fill="rgb(255,255,255)" fill-opacity="0.0078125"/>
  <rect x="3" y="13" width="5" height="1" fill="rgb(170,170,170)" fill-opacity="0.015625"/>
  <rect x="8" y="13" width="1" height="1" fill="rgb(12,12,12)" fill-opacity="0.171875"/>
  <rect x="9" y="13" width="1" height="1" fill="rgb(0,0,0)"/>
  <rect x="10" y="13" width="1" height="1" fill="rgb(252,252,252)"/>
  <rect x="11" y="13" width="1" height="1" fill="rgb(0,0,0)"/>
  <rect x="12" y="13" width="1" height="1" fill="rgb(12,12,12)" fill-opacity="0.171875"/>
  <rect x="13" y="13" width="6" height="1" fill="rgb(170,170,170)" fill-opacity="0.015625"/>
  <rect x="19" y="13" width="2" height="1" fill="rgb(255,255,255)" fill-opacity="0.0078125"/>
  <rect x="0" y="14" width="3" height="1" fill="rgb(255,255,255)" fill-opacity="0.0078125"/>
  <rect x="3" y="14" width="4" height="1" fill="rgb(170,170,170)" fill-opacity="0.015625"/>
  <rect x="7" y="14" width="1" height="1" fill="rgb(12,12,12)" fill-opacity="0.171875"/>
  <rect x="8" y="14" width="1" height="1" fill="rgb(0,0,0)"/>
  <rect x="9" y="14" width="1" height="1" fill="rgb(252,252,252)"/>
  <rect x="10" y="14" width="1" height="1" fill="rgb(230,230,230)"/>
  <rect x="11" y="14" width="1" height="1" fill="rgb(238,238,238)" fill-opacity="0.9921875"/>
  <rect x="12" y="14" width="1" height="1" fill="rgb(0,0,0)"/>
  <rect x="13" y="14" width="1" height="1" fill="rgb(12,12,12)" fill-opacity="0.171875"/>
  <rect x="14" y="14" width="5" height="1" fill="rgb(170,170,170)" fill-opacity="0.015625"/>
  <rect x="19" y="14" width="2" height="1" fill="rgb(255,255,255)" fill-opacity="0.0078125"/>
  <rect x="0" y="15" width="3" height="1" fill="rgb(255,255,255)" fill-opacity="0.0078125"/>
  <rect x="3" y="15" width="4" height="1" fill="rgb(170,170,170)" fill-opacity="0.015625"/>
  <rect x="7" y="15" width="1" height="1" fill="rgb(0,0,0)"/>
  <rect x="8" y="15" width="1" height="1" fill="rgb(252,252,252)"/>
  <rect x="9" y="15" width="1" height="1" fill="rgb(230,230,230)"/>
  <rect x="10" y="15" width="1" height="1" fill="rgb(204,204,204)"/>
  <rect x="11" y="15" width="1" height="1" fill="rgb(215,215,215)"/>
  <rect x="12" y="15" width="1" height="1" fill="rgb(208,208,208)" fill-opacity="0.96875"/>
  <rect x="13" y="15" width="1" height="1" fill="rgb(0,0,0)"/>
  <rect x="14" y="15" width="5" height="1" fill="rgb(170,170,170)" fill-opacity="0.015625"/>
  <rect x="19" y="15" width="2" height="1" fill="rgb(255,255,255)" fill-opacity="0.0078125"/>
  <rect x="0" y="16" width="3" height="1" fill="rgb(255,255,255)" fill-opacity="0.0078125"/>
  <rect x="3" y="16" width="4" height="1" fill="rgb(170,170,170)" fill-opacity="0.015625"/>
  <rect x="7" y="16" width="1" height="1" fill="rgb(12,12,12)" fill-opacity="0.171875"/>
  <rect x="8" y="16" width="1" height="1" fill="rgb(0,0,0)"/>
  <rect x="9" y="16" width="1" height="1" fill="rgb(238,238,238)" fill-opacity="0.9921875"/>
  <rect x="10" y="16" width="1" height="1" fill="rgb(215,215,215)"/>
  <rect x="11" y="16" width="1" height="1" fill="rgb(210,210,210)" fill-opacity="0.984375"/>
  <rect x="12" y="16" width="1" height="1" fill="rgb(0,0,0)"/>
  <rect x="13" y="16" width="1" height="1" fill="rgb(12,12,12)" fill-opacity="0.171875"/>
  <rect x="14" y="16" width="5" height="1" fill="rgb(170,170,170)" fill-opacity="0.015625"/>
  <rect x="19" y="16" width="2" height="1" fill="rgb(255,255,255)" fill-opacity="0.0078125"/>
  <rect x="0" y="17" width="3" height="1" fill="rgb(255,255,255)" fill-opacity="0.0078125"/>
  <rect x="3" y="17" width="5" height="1" fill="rgb(170,170,170)" fill-opacity="0.015625"/>
  <rect x="8" y="17" width="1" height="1" fill="rgb(12,12,12)" fill-opacity="0.171875"/>
  <rect x="9" y="17" width="1" height="1" fill="rgb(0,0,0)"/>
  <rect x="10" y="17" width="1" height="1" fill="rgb(208,208,208)" fill-opacity="0.96875"/>
  <rect x="11" y="17" width="1" height="1" fill="rgb(0,0,0)"/>
  <rect x="12" y="17" width="1" height="1" fill="rgb(12,12,12)" fill-opacity="0.171875"/>
  <rect x="13" y="17" width="6" height="1" fill="rgb(170,170,170)" fill-opacity="0.015625"/>
  <rect x="19" y="17" width="2" height="1" fill="rgb(255,255,255)" fill-opacity="0.0078125"/>
  <rect x="0" y="18" width="3" height="1" fill="rgb(255,255,255)" fill-opacity="0.0078125"/>
  <rect x="3" y="18" width="6" height="1" fill="rgb(170,170,170)" fill-opacity="0.015625"/>
  <rect x="9" y="18" width="1" height="1" fill="rgb(12,12,12)" fill-opacity="0.171875"/>
  <rect x="10" y="18" width="1" height="1" fill="rgb(0,0,0)"/>
  <rect x="11" y="18" width="1" height="1" fill="rgb(12,12,12)" fill-opacity="0.171875"/>
  <rect x="12" y="18" width="7" height="1" fill="rgb(170,170,170)" fill-opacity="0.015625"/>
  <rect x="19" y="18" width="2" height="1" fill="rgb(255,255,255)" fill-opacity="0.0078125"/>
  <rect x="0" y="19" width="21" height="1" fill="rgb(255,255,255)" fill-opacity="0.0078125"/>
  <rect x="0" y="20" width="21" height="1" fill="rgb(255,255,255)" fill-opacity="0.0078125"/>
</svg>