<svg xmlns="http://www.w3.org/2000/svg" shape-rendering="crispEdges" width="21" height="21" viewBox="0 0 21 21">
  <rect x="0" y="0" width="21" height="1" fill="rgb(255,255,255)" fill-opacity="0.0078125"/>
  <rect x="0" y="1" width="21" height="1" fill="rgb(255,255,255)" fill-opacity="0.0078125"/>
  <rect x="0" y="2" width="21" height="1" fill="rgb(255,255,255)" fill-opacity="0.0078125"/>
  <rect x="0" y="3" width="3" height="1" fill="rgb(255,255,255)" fill-opacity="0.0078125"/>
  <rect x="3" y="3" width="1" height="1" fill="rgb(255,255,128)" fill-opacity="0.015625"/>
  <rect x="4" y="3" width="1" height="1" fill="rgb(228,228,146)" fill-opacity="0.1875"/>
  <rect x="5" y="3" width="1" height="1" fill="rgb(227,225,151)" fill-opacity="0.3984375"/>
  <rect x="6" y="3" width="1" height="1" fill="rgb(226,226,152)" fill-opacity="0.421875"/>
  <rect x="7" y="3" width="1" height="1" fill="rgb(224,224,152)" fill-opacity="0.2265625"/>
  <rect x="8" y="3" width="1" height="1" fill="rgb(255,255,182)" fill-opacity="0.03125"/>
  <rect x="9" y="3" width="2" height="1" fill="rgb(255,255,255)" fill-opacity="0.0078125"/>
  <rect x="11" y="3" width="1" height="1" fill="rgb(12,24,42)" fill-opacity="0.171875"/>
  <rect x="12" y="3" width="1" height="1" fill="rgb(25,36,52)" fill-opacity="0.4453125"/>
  <rect x="13" y="3" width="1" height="1" fill="rgb(17,30,45)" fill-opacity="0.578125"/>
  <rect x="14" y="3" width="1" height="1" fill="rgb(25,35,52)" fill-opacity="0.40625"/>
  <rect x="15" y="3" width="1" height="1" fill="rgb(8,23,39)" fill-opacity="0.1328125"/>
  <rect x="16" y="3" width="5" height="1" fill="rgb(255,255,255)" fill-opacity="0.0078125"/>
  <rect x="0" y="4" width="3" height="1" fill="rgb(255,255,255)" fill-opacity="0.0078125"/>
  <rect x="3" y="4" width="1" height="1" fill="rgb(228,228,146)" fill-opacity="0.1875"/>
  <rect x="4" y="4" width="1" height="1" fill="rgb(205,203,111)" fill-opacity="0.6015625"/>
  <rect x="5" y="4" width="2" height="1" fill="rgb(181,180,68)" fill-opacity="0.9375"/>
  <rect x="7" y="4" width="1" height="1" fill="rgb(206,206,114)" fill-opacity="0.6015625"/>
  <rect x="8" y="4" width="1" height="1" fill="rgb(227,227,154)" fill-opacity="0.25"/>
  <rect x="9" y="4" width="1" height="1" fill="rgb(255,255,204)" fill-opacity="0.0234375"/>
  <rect x="10" y="4" width="1" height="1" fill="rgb(10,20,39)" fill-opacity="0.109375"/>
  <rect x="11" y="4" width="1" height="1" fill="rgb(50,61,75)" fill-opacity="0.578125"/>
  <rect x="12" y="4" width="1" height="1" fill="rgb(217,218,222)" fill-opacity="0.6015625"/>
  <rect x="13" y="4" width="1" height="1" fill="rgb(250,252,252)" fill-opacity="0.6015625"/>
  <rect x="14" y="4" width="1" height="1" fill="rgb(183,193,201)" fill-opacity="0.6015625"/>
  <rect x="15" y="4" width="1" height="1" fill="rgb(36,48,67)" fill-opacity="0.5859375"/>
  <rect x="16" y="4" width="1" height="1" fill="rgb(8,23,39)" fill-opacity="0.1328125"/>
  <rect x="17" y="4" width="4" height="1" fill="rgb(255,255,255)" fill-opacity="0.0078125"/>
  <rect x="0" y="5" width="3" height="1" fill="rgb(255,255,255)" fill-opacity="0.0078125"/>
  <rect x="3" y="5" width="1" height="1" fill="rgb(227,225,151)" fill-opacity="0.3984375"/>
  <rect x="4" y="5" width="1" height="1" fill="rgb(181,180,68)" fill-opacity="0.9375"/>
  <rect x="5" y="5" width="2" height="1" fill="rgb(244,238,215)"/>
  <rect x="7" y="5" width="1" height="1" fill="rgb(158,159,65)" fill-opacity="0.9453125"/>
  <rect x="8" y="5" width="1" height="1" fill="rgb(103,109,92)" fill-opacity="0.65625"/>
  <rect x="9" y="5" width="1" height="1" fill="rgb(26,36,51)" fill-opacity="0.609375"/>
  <rect x="10" y="5" width="1" height="1" fill="rgb(17,29,45)" fill-opacity="0.578125"/>
  <rect x="11" y="5" width="1" height="1" fill="rgb(213,215,218)" fill-opacity="0.6015625"/>
  <rect x="12" y="5" width="1" height="1" fill="rgb(255,255,255)" fill-opacity="0.6015625"/>
  <rect x="13" y="5" width="1" height="1" fill="rgb(190,202,217)" fill-opacity="0.6015625"/>
  <rect x="14" y="5" width="1" height="1" fill="rgb(127,150,182)" fill-opacity="0.6015625"/>
  <rect x="15" y="5" width="1" height="1" fill="rgb(82,109,144)" fill-opacity="0.6015625"/>
  <rect x="16" y="5" width="1" height="1" fill="rgb(20,32,50)" fill-opacity="0.40625"/>
  <rect x="17" y="5" width="4" height="1" fill="rgb(255,255,255)" fill-opacity="0.0078125"/>
  <rect x="0" y="6" width="3" height="1" fill="rgb(255,255,255)" fill-opacity="0.0078125"/>
  <rect x="3" y="6" width="1" height="1" fill="rgb(226,226,152)" fill-opacity="0.421875"/>
  <rect x="4" y="6" width="1" height="1" fill="rgb(181,180,68)" fill-opacity="0.9375"/>
  <rect x="5" y="6" width="1" height="1" fill="rgb(244,238,215)"/>
  <rect x="6" y="6" width="1" height="1" fill="rgb(214,210,193)"/>
  <rect x="7" y="6" width="1" height="1" fill="rgb(94,100,63)" fill-opacity="0.9765625"/>
  <rect x="8" y="6" width="1" height="1" fill="rgb(220,221,208)" fill-opacity="0.765625"/>
  <rect x="9" y="6" width="1" height="1" fill="rgb(241,242,242)" fill-opacity="0.640625"/>
  <rect x="10" y="6" width="1" height="1" fill="rgb(187,198,212)" fill-opacity="0.6015625"/>
  <rect x="11" y="6" width="1" height="1" fill="rgb(217,225,233)" fill-opacity="0.6015625"/>
  <rect x="12" y="6" width="1" height="1" fill="rgb(177,192,210)" fill-opacity="0.6015625"/>
  <rect x="13" y="6" width="1" height="1" fill="rgb(153,172,197)" fill-opacity="0.6015625"/>
  <rect x="14" y="6" width="1" height="1" fill="rgb(53,92,138)" fill-opacity="0.6015625"/>
  <rect x="15" y="6" width="1" height="1" fill="rgb(78,112,152)" fill-opacity="0.6015625"/>
  <rect x="16" y="6" width="1" height="1" fill="rgb(26,40,55)" fill-opacity="0.5859375"/>
  <rect x="17" y="6" width="1" height="1" fill="rgb(16,28,44)" fill-opacity="0.2578125"/>
  <rect x="18" y="6" width="1" height="1" fill="rgb(0,0,0)" fill-opacity="0.0078125"/>
  <rect x="19" y="6" width="2" height="1" fill="rgb(255,255,255)" fill-opacity="0.0078125"/>
  <rect x="0" y="7" width="3" height="1" fill="rgb(255,255,255)" fill-opacity="0.0078125"/>
  <rect x="3" y="7" width="1" height="1" fill="rgb(224,224,152)" fill-opacity="0.2265625"/>
  <rect x="4" y="7" width="1" height="1" fill="rgb(206,206,114)" fill-opacity="0.6015625"/>
  <rect x="5" y="7" width="1" height="1" fill="rgb(181,180,68)" fill-opacity="0.9375"/>
  <rect x="6" y="7" width="1" height="1" fill="rgb(116,120,61)" fill-opacity="0.9609375"/>
  <rect x="7" y="7" width="1" height="1" fill="rgb(210,211,188)" fill-opacity="0.84375"/>
  <rect x="8" y="7" width="1" height="1" fill="rgb(251,251,241)" fill-opacity="0.703125"/>
  <rect x="9" y="7" width="1" height="1" fill="rgb(202,212,223)" fill-opacity="0.6328125"/>
  <rect x="10" y="7" width="1" height="1" fill="rgb(143,163,190)" fill-opacity="0.6015625"/>
  <rect x="11" y="7" width="1" height="1" fill="rgb(173,188,208)" fill-opacity="0.6015625"/>
  <rect x="12" y="7" width="2" height="1" fill="rgb(255,255,255)" fill-opacity="0.6015625"/>
  <rect x="14" y="7" width="1" height="1" fill="rgb(210,218,228)" fill-opacity="0.6015625"/>
  <rect x="15" y="7" width="1" height="1" fill="rgb(102,130,167)" fill-opacity="0.6015625"/>
  <rect x="16" y="7" width="1" height="1" fill="rgb(133,152,178)" fill-opacity="0.6015625"/>
  <rect x="17" y="7" width="1" height="1" fill="rgb(50,65,84)" fill-opacity="0.5859375"/>
  <rect x="18" y="7" width="1" height="1" fill="rgb(13,27,44)" fill-opacity="0.3046875"/>
  <rect x="19" y="7" width="2" height="1" fill="rgb(255,255,255)" fill-opacity="0.0078125"/>
  <rect x="0" y="8" width="3" height="1" fill="rgb(255,255,255)" fill-opacity="0.0078125"/>
  <rect x="3" y="8" width="1" height="1" fill="rgb(255,255,182)" fill-opacity="0.03125"/>
  <rect x="4" y="8" width="1" height="1" fill="rgb(227,227,154)" fill-opacity="0.25"/>
  <rect x="5" y="8" width="1" height="1" fill="rgb(194,192,133)" fill-opacity="0.4609375"/>
  <rect x="6" y="8" width="1" height="1" fill="rgb(31,34,33)" fill-opacity="0.90625"/>
  <rect x="7" y="8" width="1" height="1" fill="rgb(41,41,40)" fill-opacity="0.9609375"/>
  <rect x="8" y="8" width="1" height="1" fill="rgb(11,11,12)" fill-opacity="0.9921875"/>
  <rect x="9" y="8" width="1" height="1" fill="rgb(31,32,34)" fill-opacity="0.9453125"/>
  <rect x="10" y="8" width="1" height="1" fill="rgb(37,45,56)" fill-opacity="0.8359375"/>
  <rect x="11" y="8" width="1" height="1" fill="rgb(207,210,215)" fill-opacity="0.6328125"/>
  <rect x="12" y="8" width="1" height="1" fill="rgb(255,255,255)" fill-opacity="0.6015625"/>
  <rect x="13" y="8" width="1" height="1" fill="rgb(228,233,240)" fill-opacity="0.6015625"/>
  <rect x="14" y="8" width="1" height="1" fill="rgb(163,182,203)" fill-opacity="0.6015625"/>
  <rect x="15" y="8" width="1" height="1" fill="rgb(107,135,170)" fill-opacity="0.6015625"/>
  <rect x="16" y="8" width="1" height="1" fill="rgb(90,122,162)" fill-opacity="0.6015625"/>
  <rect x="17" y="8" width="1" height="1" fill="rgb(113,138,170)" fill-opacity="0.6015625"/>
  <rect x="18" y="8" width="1" height="1" fill="rgb(13,26,47)" fill-opacity="0.5390625"/>
  <rect x="19" y="8" width="2" height="1" fill="rgb(255,255,255)" fill-opacity="0.0078125"/>
  <rect x="0" y="9" width="4" height="1" fill="rgb(255,255,255)" fill-opacity="0.0078125"/>
  <rect x="4" y="9" width="1" height="1" fill="rgb(15,15,11)" fill-opacity="0.28125"/>
  <rect x="5" y="9" width="1" height="1" fill="rgb(14,14,14)" fill-opacity="0.9453125"/>
  <rect x="6" y="9" width="1" height="1" fill="rgb(167,167,167)" fill-opacity="0.9921875"/>
  <rect x="7" y="9" width="1" height="1" fill="rgb(239,239,239)"/>
  <rect x="8" y="9" width="1" height="1" fill="rgb(252,252,252)"/>
  <rect x="9" y="9" width="1" height="1" fill="rgb(238,238,238)"/>
  <rect x="10" y="9" width="1" height="1" fill="rgb(164,165,165)" fill-opacity="0.9921875"/>
  <rect x="11" y="9" width="1" height="1" fill="rgb(19,20,20)" fill-opacity="0.9765625"/>
  <rect x="12" y="9" width="1" height="1" fill="rgb(153,156,158)" fill-opacity="0.6953125"/>
  <rect x="13" y="9" width="1" height="1" fill="rgb(168,185,205)" fill-opacity="0.6015625"/>
  <rect x="14" y="9" width="1" height="1" fill="rgb(103,133,168)" fill-opacity="0.6015625"/>
  <rect x="15" y="9" width="1" height="1" fill="rgb(75,108,152)" fill-opacity="0.6015625"/>
  <rect x="16" y="9" width="1" height="1" fill="rgb(68,103,147)" fill-opacity="0.6015625"/>
  <rect x="17" y="9" width="1" height="1" fill="rgb(125,148,178)" fill-opacity="0.6015625"/>
  <rect x="18" y="9" width="1" height="1" fill="rgb(13,26,45)" fill-opacity="0.53125"/>
  <rect x="19" y="9" width="2" height="1" fill="rgb(255,255,255)" fill-opacity="0.0078125"/>
  <rect x="0" y="10" width="3" height="1" fill="rgb(255,255,255)" fill-opacity="0.0078125"/>
  <rect x="3" y="10" width="1" height="1" fill="rgb(0,0,0)" fill-opacity="0.09375"/>
  <rect x="4" y="10" width="1" height="1" fill="rgb(11,11,11)" fill-opacity="0.9453125"/>
  <rect x="5" y="10" width="1" height="1" fill="rgb(235,235,235)"/>
  <rect x="6" y="10" width="5" height="1" fill="rgb(255,255,255)"/>
  <rect x="11" y="10" width="1" height="1" fill="rgb(224,224,224)"/>
  <rect x="12" y="10" width="1" height="1" fill="rgb(16,17,17)" fill-opacity="0.9765625"/>
  <rect x="13" y="10" width="1" height="1" fill="rgb(140,158,179)" fill-opacity="0.6328125"/>
  <rect x="14" y="10" width="1" height="1" fill="rgb(130,153,183)" fill-opacity="0.6015625"/>
  <rect x="15" y="10" width="1" height="1" fill="rgb(138,160,188)" fill-opacity="0.6015625"/>
  <rect x="16" y="10" width="1" height="1" fill="rgb(133,157,183)" fill-opacity="0.6015625"/>
  <rect x="17" y="10" width="1" height="1" fill="rgb(64,86,111)" fill-opacity="0.59375"/>
  <rect x="18" y="10" width="1" height="1" fill="rgb(12,24,40)" fill-opacity="0.2578125"/>
  <rect x="19" y="10" width="2" height="1" fill="rgb(255,255,255)" fill-opacity="0.0078125"/>
  <rect x="0" y="11" width="3" height="1" fill="rgb(255,255,255)" fill-opacity="0.0078125"/>
  <rect x="3" y="11" width="1" height="1" fill="rgb(12,12,12)" fill-opacity="0.6015625"/>
  <rect x="4" y="11" width="1" height="1" fill="rgb(174,174,174)" fill-opacity="0.984375"/>
  <rect x="5" y="11" width="4" height="1" fill="rgb(255,255,255)"/>
  <rect x="9" y="11" width="1" height="1" fill="rgb(252,252,252)"/>
  <rect x="10" y="11" width="1" height="1" fill="rgb(228,228,228)"/>
  <rect x="11" y="11" width="1" height="1" fill="rgb(239,239,239)"/>
  <rect x="12" y="11" width="1" height="1" fill="rgb(141,141,141)"/>
  <rect x="13" y="11" width="1" height="1" fill="rgb(15,17,23)" fill-opacity="0.828125"/>
  <rect x="14" y="11" width="1" height="1" fill="rgb(18,30,47)" fill-opacity="0.6015625"/>
  <rect x="15" y="11" width="1" height="1" fill="rgb(20,32,48)" fill-opacity="0.6015625"/>
  <rect x="16" y="11" width="1" height="1" fill="rgb(13,26,47)" fill-opacity="0.5390625"/>
  <rect x="17" y="11" width="1" height="1" fill="rgb(12,24,40)" fill-opacity="0.2578125"/>
  <rect x="18" y="11" width="1" height="1" fill="rgb(0,0,128)" fill-opacity="0.015625"/>
  <rect x="19" y="11" width="2" height="1" fill="rgb(255,255,255)" fill-opacity="0.0078125"/>
  <rect x="0" y="12" width="3" height="1" fill="rgb(255,255,255)" fill-opacity="0.0078125"/>
  <rect x="3" y="12" width="1" height="1" fill="rgb(16,16,16)" fill-opacity="0.8671875"/>
  <rect x="4" y="12" width="1" height="1" fill="rgb(242,242,242)"/>
  <rect x="5" y="12" width="3" height="1" fill="rgb(255,255,255)"/>
  <rect x="8" y="12" width="1" height="1" fill="rgb(249,249,249)"/>
  <rect x="9" y="12" width="1" height="1" fill="rgb(225,225,225)"/>
  <rect x="10" y="12" width="1" height="1" fill="rgb(200,200,200)"/>
  <rect x="11" y="12" width="1" height="1" fill="rgb(194,194,194)"/>
  <rect x="12" y="12" width="1" height="1" fill="rgb(193,193,193)"/>
  <rect x="13" y="12" width="1" height="1" fill="rgb(18,18,18)" fill-opacity="0.84375"/>
  <rect x="14" y="12" width="7" height="1" fill="rgb(255,255,255)" fill-opacity="0.0078125"/>
  <rect x="0" y="13" width="3" height="1" fill="rgb(255,255,255)" fill-opacity="0.0078125"/>
  <rect x="3" y="13" width="1" height="1" fill="rgb(4,4,4)" fill-opacity="0.984375"/>
  <rect x="4" y="13" width="1" height="1" fill="rgb(253,253,253)"/>
  <rect x="5" y="13" width="2" height="1" fill="rgb(255,255,255)"/>
  <rect x="7" y="13" width="1" height="1" fill="rgb(247,247,247)"/>
  <rect x="8" y="13" width="1" height="1" fill="rgb(222,222,222)"/>
  <rect x="9" y="13" width="1" height="1" fill="rgb(197,197,197)"/>
  <rect x="10" y="13" width="1" height="1" fill="rgb(173,173,173)"/>
  <rect x="11" y="13" width="1" height="1" fill="rgb(159,159,159)"/>
  <rect x="12" y="13" width="1" height="1" fill="rgb(194,194,194)"/>
  <rect x="13" y="13" width="1" height="1" fill="rgb(7,7,7)" fill-opacity="0.96875"/>
  <rect x="14" y="13" width="7" height="1" fill="rgb(255,255,255)" fill-opacity="0.0078125"/>
  <rect x="0" y="14" width="3" height="1" fill="rgb(255,255,255)" fill-opacity="0.0078125"/>
  <rect x="3" y="14" width="1" height="1" fill="rgb(16,16,16)" fill-opacity="0.875"/>
  <rect x="4" y="14" width="1" height="1" fill="rgb(242,242,242)"/>
  <rect x="5" y="14" width="1" height="1" fill="rgb(255,255,255)"/>
  <rect x="6" y="14" width="1" height="1" fill="rgb(245,245,245)"/>
  <rect x="7" y="14" width="1" height="1" fill="rgb(220,220,220)"/>
  <rect x="8" y="14" width="1" height="1" fill="rgb(195,195,195)"/>
  <rect x="9" y="14" width="1" height="1" fill="rgb(171,171,171)"/>
  <rect x="10" y="14" width="1" height="1" fill="rgb(146,146,146)"/>
  <rect x="11" y="14" width="1" height="1" fill="rgb(145,145,145)"/>
  <rect x="12" y="14" width="1" height="1" fill="rgb(159,159,159)"/>
  <rect x="13" y="14" width="1" height="1" fill="rgb(18,18,18)" fill-opacity="0.84375"/>
  <rect x="14" y="14" width="7" height="1" fill="rgb(255,255,255)" fill-opacity="0.0078125"/>
  <rect x="0" y="15" width="3" height="1" fill="rgb(255,255,255)" fill-opacity="0.0078125"/>
  <rect x="3" y="15" width="1" height="1" fill="rgb(12,12,12)" fill-opacity="0.609375"/>
  <rect x="4" y="15" width="1" height="1" fill="rgb(173,173,173)" fill-opacity="0.984375"/>
  <rect x="5" y="15" width="1" height="1" fill="rgb(250,250,250)"/>
  <rect x="6" y="15" width="1" height="1" fill="rgb(217,217,217)"/>
  <rect x="7" y="15" width="1" height="1" fill="rgb(193,193,193)"/>
  <rect x="8" y="15" width="1" height="1" fill="rgb(169,169,169)"/>
  <rect x="9" y="15" width="1" height="1" fill="rgb(144,144,144)"/>
  <rect x="10" y="15" width="1" height="1" fill="rgb(120,120,120)"/>
  <rect x="11" y="15" width="1" height="1" fill="rgb(162,162,162)"/>
  <rect x="12" y="15" width="1" height="1" fill="rgb(104,104,104)" fill-opacity="0.9921875"/>
  <rect x="13" y="15" width="1" height="1" fill="rgb(12,12,12)" fill-opacity="0.578125"/>
  <rect x="14" y="15" width="7" height="1" fill="rgb(255,255,255)" fill-opacity="0.0078125"/>
  <rect x="0" y="16" width="3" height="1" fill="rgb(255,255,255)" fill-opacity="0.0078125"/>
  <rect x="3" y="16" width="1" height="1" fill="rgb(0,0,0)" fill-opacity="0.09375"/>
  <rect x="4" y="16" width="1" height="1" fill="rgb(12,12,12)" fill-opacity="0.9453125"/>
  <rect x="5" y="16" width="1" height="1" fill="rgb(221,221,221)"/>
  <rect x="6" y="16" width="1" height="1" fill="rgb(226,226,226)"/>
  <rect x="7" y="16" width="1" height="1" fill="rgb(181,181,181)"/>
  <rect x="8" y="16" width="1" height="1" fill="rgb(149,149,149)"/>
  <rect x="9" y="16" width="1" height="1" fill="rgb(138,138,138)"/>
  <rect x="10" y="16" width="1" height="1" fill="rgb(155,155,155)"/>
  <rect x="11" y="16" width="1" height="1" fill="rgb(139,139,139)"/>
  <rect x="12" y="16" width="1" height="1" fill="rgb(10,10,10)" fill-opacity="0.9375"/>
  <rect x="13" y="16" width="1" height="1" fill="rgb(0,0,0)" fill-opacity="0.078125"/>
  <rect x="14" y="16" width="7" height="1" fill="rgb(255,255,255)" fill-opacity="0.0078125"/>
  <rect x="0" y="17" width="4" height="1" fill="rgb(255,255,255)" fill-opacity="0.0078125"/>
  <rect x="4" y="17" width="1" height="1" fill="rgb(0,0,0)" fill-opacity="0.265625"/>
  <rect x="5" y="17" width="1" height="1" fill="rgb(12,12,12)" fill-opacity="0.9375"/>
  <rect x="6" y="17" width="1" height="1" fill="rgb(144,144,144)" fill-opacity="0.984375"/>
  <rect x="7" y="17" width="1" height="1" fill="rgb(189,189,189)"/>
  <rect x="8" y="17" width="1" height="1" fill="rgb(187,187,187)"/>
  <rect x="9" y="17" width="1" height="1" fill="rgb(154,154,154)"/>
  <rect x="10" y="17" width="1" height="1" fill="rgb(109,109,109)" fill-opacity="0.984375"/>
  <rect x="11" y="17" width="1" height="1" fill="rgb(11,11,11)" fill-opacity="0.9375"/>
  <rect x="12" y="17" width="1" height="1" fill="rgb(0,0,0)" fill-opacity="0.2421875"/>
  <rect x="13" y="17" width="8" height="1" fill="rgb(255,255,255)" fill-opacity="0.0078125"/>
  <rect x="0" y="18" width="5" height="1" fill="rgb(255,255,255)" fill-opacity="0.0078125"/>
  <rect x="5" y="18" width="1" height="1" fill="rgb(0,0,0)" fill-opacity="0.0859375"/>
  <rect x="6" y="18" width="1" height="1" fill="rgb(13,13,13)" fill-opacity="0.609375"/>
  <rect x="7" y="18" width="1" height="1" fill="rgb(16,16,16)" fill-opacity="0.875"/>
  <rect x="8" y="18" width="1" height="1" fill="rgb(4,4,4)" fill-opacity="0.984375"/>
  <rect x="9" y="18" width="1" height="1" fill="rgb(16,16,16)" fill-opacity="0.8671875"/>
  <rect x="10" y="18" width="1" height="1" fill="rgb(12,12,12)" fill-opacity="0.6015625"/>
  <rect x="11" y="18" width="1" height="1" fill="rgb(0,0,0)" fill-opacity="0.0859375"/>
  <rect x="12" y="18" width="9" height="1" fill="rgb(255,255,255)" fill-opacity="0.0078125"/>
  <rect x="0" y="19" width="21" height="1" fill="rgb(255,255,255)" fill-opacity="0.0078125"/>
  <rect x="0" y="20" width="21" height="1" fill="rgb(255,255,255)" fill-opacity="0.0078125"/>
</svg>