<svg xmlns="http://www.w3.org/2000/svg" shape-rendering="crispEdges" width="21" height="21" viewBox="0 0 21 21">
  <rect x="0" y="0" width="1" height="21" fill="rgb(255,255,255)" fill-opacity="0.0078125"/>
  <rect x="1" y="0" width="1" height="21" fill="rgb(255,255,255)" fill-opacity="0.0078125"/>
  <rect x="2" y="0" width="1" height="21" fill="rgb(255,255,255)" fill-opacity="0.0078125"/>
  <rect x="3" y="0" width="1" height="21" fill="rgb(255,255,255)" fill-opacity="0.0078125"/>
  <rect x="4" y="0" width="1" height="21" fill="rgb(255,255,255)" fill-opacity="0.0078125"/>
  <rect x="5" y="0" width="1" height="21" fill="rgb(255,255,255)" fill-opacity="0.0078125"/>
  <rect x="6" y="0" width="1" height="4" fill="rgb(255,255,255)" fill-opacity="0.0078125"/>
  <rect x="6" y="4" width="1" height="1" fill="rgb(53,53,53)" fill-opacity="0.8046875"/>
  <rect x="6" y="5" width="1" height="12" fill="rgb(51,51,51)"/>
  <rect x="6" y="17" width="1" height="1" fill="rgb(61,61,61)" fill-opacity="0.8046875"/>
  <rect x="6" y="18" width="1" height="3" fill="rgb(255,255,255)" fill-opacity="0.0078125"/>
  <rect x="7" y="0" width="1" height="4" fill="rgb(255,255,255)" fill-opacity="0.0078125"/>
  <rect x="7" y="4" width="1" height="1" fill="rgb(53,53,53)" fill-opacity="0.515625"/>
  <rect x="7" y="5" width="1" height="1" fill="rgb(76,76,76)" fill-opacity="0.9609375"/>
  <rect x="7" y="6" width="1" height="1" fill="rgb(248,248,248)"/>
  <rect x="7" y="7" width="1" height="5" fill="rgb(255,255,255)"/>
  <rect x="7" y="12" width="1" height="1" fill="rgb(254,254,254)"/>
  <rect x="7" y="13" width="1" height="1" fill="rgb(253,253,253)"/>
  <rect x="7" y="14" width="1" height="2" fill="rgb(252,252,252)"/>
  <rect x="7" y="16" width="1" height="1" fill="rgb(123,123,123)" fill-opacity="0.9609375"/>
  <rect x="7" y="17" width="1" height="1" fill="rgb(58,58,58)" fill-opacity="0.515625"/>
  <rect x="7" y="18" width="1" height="3" fill="rgb(255,255,255)" fill-opacity="0.0078125"/>
  <rect x="8" y="0" width="1" height="4" fill="rgb(255,255,255)" fill-opacity="0.0078125"/>
  <rect x="8" y="4" width="1" height="1" fill="rgb(64,64,64)" fill-opacity="0.0390625"/>
  <rect x="8" y="5" width="1" height="1" fill="rgb(54,54,54)" fill-opacity="0.9140625"/>
  <rect x="8" y="6" width="1" height="1" fill="rgb(216,216,216)"/>
  <rect x="8" y="7" width="1" height="1" fill="rgb(181,181,181)"/>
  <rect x="8" y="8" width="1" height="1" fill="rgb(141,141,141)"/>
  <rect x="8" y="9" width="1" height="1" fill="rgb(154,154,154)"/>
  <rect x="8" y="10" width="1" height="1" fill="rgb(167,167,167)"/>
  <rect x="8" y="11" width="1" height="1" fill="rgb(180,180,180)"/>
  <rect x="8" y="12" width="1" height="1" fill="rgb(193,193,193)"/>
  <rect x="8" y="13" width="1" height="1" fill="rgb(207,207,207)"/>
  <rect x="8" y="14" width="1" height="1" fill="rgb(220,220,220)"/>
  <rect x="8" y="15" width="1" height="1" fill="rgb(185,185,185)"/>
  <rect x="8" y="16" width="1" height="1" fill="rgb(59,59,59)" fill-opacity="0.9140625"/>
  <rect x="8" y="17" width="1" height="1" fill="rgb(64,64,64)" fill-opacity="0.0390625"/>
  <rect x="8" y="18" width="1" height="3" fill="rgb(255,255,255)" fill-opacity="0.0078125"/>
  <rect x="9" y="0" width="1" height="5" fill="rgb(255,255,255)" fill-opacity="0.0078125"/>
  <rect x="9" y="5" width="1" height="1" fill="rgb(52,52,52)" fill-opacity="0.3125"/>
  <rect x="9" y="6" width="1" height="1" fill="rgb(96,96,96)" fill-opacity="0.96875"/>
  <rect x="9" y="7" width="1" height="1" fill="rgb(242,242,242)"/>
  <rect x="9" y="8" width="1" height="1" fill="rgb(154,154,154)"/>
  <rect x="9" y="9" width="1" height="1" fill="rgb(160,160,160)"/>
  <rect x="9" y="10" width="1" height="1" fill="rgb(173,173,173)"/>
  <rect x="9" y="11" width="1" height="1" fill="rgb(186,186,186)"/>
  <rect x="9" y="12" width="1" height="1" fill="rgb(199,199,199)"/>
  <rect x="9" y="13" width="1" height="1" fill="rgb(212,212,212)"/>
  <rect x="9" y="14" width="1" height="1" fill="rgb(223,223,223)"/>
  <rect x="9" y="15" width="1" height="1" fill="rgb(74,74,74)" fill-opacity="0.9609375"/>
  <rect x="9" y="16" width="1" height="1" fill="rgb(52,52,52)" fill-opacity="0.3125"/>
  <rect x="9" y="17" width="1" height="4" fill="rgb(255,255,255)" fill-opacity="0.0078125"/>
  <rect x="10" y="0" width="1" height="6" fill="rgb(255,255,255)" fill-opacity="0.0078125"/>
  <rect x="10" y="6" width="1" height="1" fill="rgb(55,55,55)" fill-opacity="0.765625"/>
  <rect x="10" y="7" width="1" height="1" fill="rgb(183,183,183)"/>
  <rect x="10" y="8" width="1" height="1" fill="rgb(204,204,204)"/>
  <rect x="10" y="9" width="1" height="1" fill="rgb(166,166,166)"/>
  <rect x="10" y="10" width="1" height="1" fill="rgb(179,179,179)"/>
  <rect x="10" y="11" width="1" height="1" fill="rgb(192,192,192)"/>
  <rect x="10" y="12" width="1" height="1" fill="rgb(205,205,205)"/>
  <rect x="10" y="13" width="1" height="1" fill="rgb(218,218,218)"/>
  <rect x="10" y="14" width="1" height="1" fill="rgb(150,150,150)" fill-opacity="0.9921875"/>
  <rect x="10" y="15" width="1" height="1" fill="rgb(61,61,61)" fill-opacity="0.765625"/>
  <rect x="10" y="16" width="1" height="5" fill="rgb(255,255,255)" fill-opacity="0.0078125"/>
  <rect x="11" y="0" width="1" height="6" fill="rgb(255,255,255)" fill-opacity="0.0078125"/>
  <rect x="11" y="6" width="1" height="1" fill="rgb(52,52,52)" fill-opacity="0.15625"/>
  <rect x="11" y="7" width="1" height="1" fill="rgb(68,68,68)" fill-opacity="0.96875"/>
  <rect x="11" y="8" width="1" height="1" fill="rgb(226,226,226)"/>
  <rect x="11" y="9" width="1" height="1" fill="rgb(182,182,182)"/>
  <rect x="11" y="10" width="1" height="1" fill="rgb(184,184,184)"/>
  <rect x="11" y="11" width="1" height="1" fill="rgb(198,198,198)"/>
  <rect x="11" y="12" width="1" height="1" fill="rgb(211,211,211)"/>
  <rect x="11" y="13" width="1" height="1" fill="rgb(208,208,208)"/>
  <rect x="11" y="14" width="1" height="1" fill="rgb(59,59,59)" fill-opacity="0.96875"/>
  <rect x="11" y="15" width="1" height="1" fill="rgb(52,52,52)" fill-opacity="0.15625"/>
  <rect x="11" y="16" width="1" height="5" fill="rgb(255,255,255)" fill-opacity="0.0078125"/>
  <rect x="12" y="0" width="1" height="7" fill="rgb(255,255,255)" fill-opacity="0.0078125"/>
  <rect x="12" y="7" width="1" height="1" fill="rgb(55,55,55)" fill-opacity="0.5703125"/>
  <rect x="12" y="8" width="1" height="1" fill="rgb(141,141,141)" fill-opacity="0.9765625"/>
  <rect x="12" y="9" width="1" height="1" fill="rgb(216,216,216)"/>
  <rect x="12" y="10" width="1" height="1" fill="rgb(190,190,190)"/>
  <rect x="12" y="11" width="1" height="1" fill="rgb(203,203,203)"/>
  <rect x="12" y="12" width="1" height="1" fill="rgb(217,217,217)"/>
  <rect x="12" y="13" width="1" height="1" fill="rgb(113,113,113)" fill-opacity="0.96875"/>
  <rect x="12" y="14" width="1" height="1" fill="rgb(58,58,58)" fill-opacity="0.5703125"/>
  <rect x="12" y="15" width="1" height="6" fill="rgb(255,255,255)" fill-opacity="0.0078125"/>
  <rect x="13" y="0" width="1" height="7" fill="rgb(255,255,255)" fill-opacity="0.0078125"/>
  <rect x="13" y="7" width="1" height="1" fill="rgb(43,43,43)" fill-opacity="0.0546875"/>
  <rect x="13" y="8" width="1" height="1" fill="rgb(58,58,58)" fill-opacity="0.9375"/>
  <rect x="13" y="9" width="1" height="1" fill="rgb(205,205,205)"/>
  <rect x="13" y="10" width="1" height="1" fill="rgb(207,207,207)"/>
  <rect x="13" y="11" width="1" height="1" fill="rgb(209,209,209)"/>
  <rect x="13" y="12" width="1" height="1" fill="rgb(183,183,183)"/>
  <rect x="13" y="13" width="1" height="1" fill="rgb(59,59,59)" fill-opacity="0.9375"/>
  <rect x="13" y="14" width="1" height="1" fill="rgb(43,43,43)" fill-opacity="0.0546875"/>
  <rect x="13" y="15" width="1" height="6" fill="rgb(255,255,255)" fill-opacity="0.0078125"/>
  <rect x="14" y="0" width="1" height="8" fill="rgb(255,255,255)" fill-opacity="0.0078125"/>
  <rect x="14" y="8" width="1" height="1" fill="rgb(53,53,53)" fill-opacity="0.3671875"/>
  <rect x="14" y="9" width="1" height="1" fill="rgb(98,98,98)" fill-opacity="0.96875"/>
  <rect x="14" y="10" width="1" height="1" fill="rgb(224,224,224)"/>
  <rect x="14" y="11" width="1" height="1" fill="rgb(214,214,214)"/>
  <rect x="14" y="12" width="1" height="1" fill="rgb(78,78,78)" fill-opacity="0.9609375"/>
  <rect x="14" y="13" width="1" height="1" fill="rgb(53,53,53)" fill-opacity="0.3671875"/>
  <rect x="14" y="14" width="1" height="7" fill="rgb(255,255,255)" fill-opacity="0.0078125"/>
  <rect x="15" y="0" width="1" height="9" fill="rgb(255,255,255)" fill-opacity="0.0078125"/>
  <rect x="15" y="9" width="1" height="1" fill="rgb(59,59,59)" fill-opacity="0.8125"/>
  <rect x="15" y="10" width="1" height="1" fill="rgb(169,169,169)"/>
  <rect x="15" y="11" width="1" height="1" fill="rgb(155,155,155)"/>
  <rect x="15" y="12" width="1" height="1" fill="rgb(62,62,62)" fill-opacity="0.8125"/>
  <rect x="15" y="13" width="1" height="8" fill="rgb(255,255,255)" fill-opacity="0.0078125"/>
  <rect x="16" y="0" width="1" height="9" fill="rgb(255,255,255)" fill-opacity="0.0078125"/>
  <rect x="16" y="9" width="1" height="1" fill="rgb(53,53,53)" fill-opacity="0.1953125"/>
  <rect x="16" y="10" width="1" height="2" fill="rgb(60,60,60)" fill-opacity="0.96875"/>
  <rect x="16" y="12" width="1" height="1" fill="rgb(53,53,53)" fill-opacity="0.1953125"/>
  <rect x="16" y="13" width="1" height="8" fill="rgb(255,255,255)" fill-opacity="0.0078125"/>
  <rect x="17" y="0" width="1" height="10" fill="rgb(255,255,255)" fill-opacity="0.0078125"/>
  <rect x="17" y="10" width="1" height="2" fill="rgb(62,62,62)" fill-opacity="0.53125"/>
  <rect x="17" y="12" width="1" height="9" fill="rgb(255,255,255)" fill-opacity="0.0078125"/>
  <rect x="18" y="0" width="1" height="21" fill="rgb(255,255,255)" fill-opacity="0.0078125"/>
  <rect x="19" y="0" width="1" height="21" fill="rgb(255,255,255)" fill-opacity="0.0078125"/>
  <rect x="20" y="0" width="1" height="21" fill="rgb(255,255,255)" fill-opacity="0.0078125"/>
</svg>