<svg xmlns="http://www.w3.org/2000/svg" shape-rendering="crispEdges" width="21" height="21" viewBox="0 0 21 21">
  <rect x="0" y="0" width="1" height="21" fill="rgb(255,255,255)" fill-opacity="0.0078125"/>
  <rect x="1" y="0" width="1" height="21" fill="rgb(255,255,255)" fill-opacity="0.0078125"/>
  <rect x="2" y="0" width="1" height="21" fill="rgb(255,255,255)" fill-opacity="0.0078125"/>
  <rect x="3" y="0" width="1" height="5" fill="rgb(255,255,255)" fill-opacity="0.0078125"/>
  <rect x="3" y="5" width="1" height="1" fill="rgb(255,255,0)" fill-opacity="0.0078125"/>
  <rect x="3" y="6" width="1" height="2" fill="rgb(170,85,0)" fill-opacity="0.015625"/>
  <rect x="3" y="8" width="1" height="1" fill="rgb(255,255,0)" fill-opacity="0.0078125"/>
  <rect x="3" y="9" width="1" height="12" fill="rgb(255,255,255)" fill-opacity="0.0078125"/>
  <rect x="4" y="0" width="1" height="4" fill="rgb(255,255,255)" fill-opacity="0.0078125"/>
  <rect x="4" y="4" width="1" height="1" fill="rgb(255,255,0)" fill-opacity="0.0078125"/>
  <rect x="4" y="5" width="1" height="4" fill="rgb(170,170,0)" fill-opacity="0.015625"/>
  <rect x="4" y="9" width="1" height="1" fill="rgb(255,255,0)" fill-opacity="0.0078125"/>
  <rect x="4" y="10" width="1" height="11" fill="rgb(255,255,255)" fill-opacity="0.0078125"/>
  <rect x="5" y="0" width="1" height="4" fill="rgb(255,255,255)" fill-opacity="0.0078125"/>
  <rect x="5" y="4" width="1" height="1" fill="rgb(170,85,0)" fill-opacity="0.015625"/>
  <rect x="5" y="5" width="1" height="4" fill="rgb(170,170,0)" fill-opacity="0.015625"/>
  <rect x="5" y="9" width="1" height="1" fill="rgb(170,85,0)" fill-opacity="0.015625"/>
  <rect x="5" y="10" width="1" height="11" fill="rgb(255,255,255)" fill-opacity="0.0078125"/>
  <rect x="6" y="0" width="1" height="4" fill="rgb(255,255,255)" fill-opacity="0.0078125"/>
  <rect x="6" y="4" width="1" height="1" fill="rgb(170,85,0)" fill-opacity="0.015625"/>
  <rect x="6" y="5" width="1" height="4" fill="rgb(170,170,0)" fill-opacity="0.015625"/>
  <rect x="6" y="9" width="1" height="1" fill="rgb(170,85,0)" fill-opacity="0.015625"/>
  <rect x="6" y="10" width="1" height="11" fill="rgb(255,255,255)" fill-opacity="0.0078125"/>
  <rect x="7" y="0" width="1" height="4" fill="rgb(255,255,255)" fill-opacity="0.0078125"/>
  <rect x="7" y="4" width="1" height="1" fill="rgb(255,255,0)" fill-opacity="0.0078125"/>
  <rect x="7" y="5" width="1" height="4" fill="rgb(170,170,0)" fill-opacity="0.015625"/>
  <rect x="7" y="9" width="1" height="1" fill="rgb(255,255,0)" fill-opacity="0.0078125"/>
  <rect x="7" y="10" width="1" height="11" fill="rgb(255,255,255)" fill-opacity="0.0078125"/>
  <rect x="8" y="0" width="1" height="5" fill="rgb(255,255,255)" fill-opacity="0.0078125"/>
  <rect x="8" y="5" width="1" height="1" fill="rgb(255,255,0)" fill-opacity="0.0078125"/>
  <rect x="8" y="6" width="1" height="2" fill="rgb(170,85,0)" fill-opacity="0.015625"/>
  <rect x="8" y="8" width="1" height="1" fill="rgb(255,255,0)" fill-opacity="0.0078125"/>
  <rect x="8" y="9" width="1" height="12" fill="rgb(255,255,255)" fill-opacity="0.0078125"/>
  <rect x="9" y="0" width="1" height="21" fill="rgb(255,255,255)" fill-opacity="0.0078125"/>
  <rect x="10" y="0" width="1" height="21" fill="rgb(255,255,255)" fill-opacity="0.0078125"/>
  <rect x="11" y="0" width="1" height="21" fill="rgb(255,255,255)" fill-opacity="0.0078125"/>
  <rect x="12" y="0" width="1" height="21" fill="rgb(255,255,255)" fill-opacity="0.0078125"/>
  <rect x="13" y="0" width="1" height="21" fill="rgb(255,255,255)" fill-opacity="0.0078125"/>
  <rect x="14" y="0" width="1" height="21" fill="rgb(255,255,255)" fill-opacity="0.0078125"/>
  <rect x="15" y="0" width="1" height="21" fill="rgb(255,255,255)" fill-opacity="0.0078125"/>
  <rect x="16" y="0" width="1" height="21" fill="rgb(255,255,255)" fill-opacity="0.0078125"/>
  <rect x="17" y="0" width="1" height="21" fill="rgb(255,255,255)" fill-opacity="0.0078125"/>
  <rect x="18" y="0" width="1" height="21" fill="rgb(255,255,255)" fill-opacity="0.0078125"/>
  <rect x="19" y="0" width="1" height="21" fill="rgb(255,255,255)" fill-opacity="0.0078125"/>
  <rect x="20" y="0" width="1" height="21" fill="rgb(255,255,255)" fill-opacity="0.0078125"/>
</svg>