<svg xmlns="http://www.w3.org/2000/svg" shape-rendering="crispEdges" width="21" height="21" viewBox="0 0 21 21">
  <rect x="0" y="0" width="1" height="21" fill="rgb(255,255,255)" fill-opacity="0.0078125"/>
  <rect x="1" y="0" width="1" height="21" fill="rgb(255,255,255)" fill-opacity="0.0078125"/>
  <rect x="2" y="0" width="1" height="21" fill="rgb(255,255,255)" fill-opacity="0.0078125"/>
  <rect x="3" y="0" width="1" height="21" fill="rgb(255,255,255)" fill-opacity="0.0078125"/>
  <rect x="4" y="0" width="1" height="21" fill="rgb(255,255,255)" fill-opacity="0.0078125"/>
  <rect x="5" y="0" width="1" height="21" fill="rgb(255,255,255)" fill-opacity="0.0078125"/>
  <rect x="6" y="0" width="1" height="8" fill="rgb(255,255,255)" fill-opacity="0.0078125"/>
  <rect x="6" y="8" width="1" height="1" fill="rgb(0,0,0)" fill-opacity="0.1171875"/>
  <rect x="6" y="9" width="1" height="1" fill="rgb(0,0,0)" fill-opacity="0.296875"/>
  <rect x="6" y="10" width="1" height="1" fill="rgb(0,0,0)" fill-opacity="0.375"/>
  <rect x="6" y="11" width="1" height="1" fill="rgb(0,0,0)" fill-opacity="0.359375"/>
  <rect x="6" y="12" width="1" height="1" fill="rgb(0,0,0)" fill-opacity="0.2421875"/>
  <rect x="6" y="13" width="1" height="1" fill="rgb(51,51,51)" fill-opacity="0.1015625"/>
  <rect x="6" y="14" width="1" height="7" fill="rgb(255,255,255)" fill-opacity="0.0078125"/>
  <rect x="7" y="0" width="1" height="7" fill="rgb(255,255,255)" fill-opacity="0.0078125"/>
  <rect x="7" y="7" width="1" height="1" fill="rgb(0,0,0)" fill-opacity="0.2109375"/>
  <rect x="7" y="8" width="1" height="1" fill="rgb(11,11,11)" fill-opacity="0.375"/>
  <rect x="7" y="9" width="1" height="1" fill="rgb(119,119,119)" fill-opacity="0.28125"/>
  <rect x="7" y="10" width="1" height="1" fill="rgb(197,197,197)" fill-opacity="0.265625"/>
  <rect x="7" y="11" width="1" height="1" fill="rgb(200,200,200)" fill-opacity="0.2578125"/>
  <rect x="7" y="12" width="1" height="1" fill="rgb(146,146,146)" fill-opacity="0.2734375"/>
  <rect x="7" y="13" width="1" height="1" fill="rgb(115,115,115)" fill-opacity="0.328125"/>
  <rect x="7" y="14" width="1" height="1" fill="rgb(151,151,151)" fill-opacity="0.1953125"/>
  <rect x="7" y="15" width="1" height="6" fill="rgb(255,255,255)" fill-opacity="0.0078125"/>
  <rect x="8" y="0" width="1" height="6" fill="rgb(255,255,255)" fill-opacity="0.0078125"/>
  <rect x="8" y="6" width="1" height="1" fill="rgb(0,0,0)" fill-opacity="0.109375"/>
  <rect x="8" y="7" width="1" height="1" fill="rgb(14,14,14)" fill-opacity="0.3671875"/>
  <rect x="8" y="8" width="1" height="1" fill="rgb(195,195,195)" fill-opacity="0.2734375"/>
  <rect x="8" y="9" width="1" height="1" fill="rgb(74,74,74)" fill-opacity="0.515625"/>
  <rect x="8" y="10" width="1" height="2" fill="rgb(17,17,17)" fill-opacity="0.828125"/>
  <rect x="8" y="12" width="1" height="1" fill="rgb(74,74,74)" fill-opacity="0.515625"/>
  <rect x="8" y="13" width="1" height="1" fill="rgb(206,206,206)" fill-opacity="0.265625"/>
  <rect x="8" y="14" width="1" height="1" fill="rgb(198,198,198)" fill-opacity="0.359375"/>
  <rect x="8" y="15" width="1" height="1" fill="rgb(219,219,219)" fill-opacity="0.1171875"/>
  <rect x="8" y="16" width="1" height="5" fill="rgb(255,255,255)" fill-opacity="0.0078125"/>
  <rect x="9" y="0" width="1" height="6" fill="rgb(255,255,255)" fill-opacity="0.0078125"/>
  <rect x="9" y="6" width="1" height="1" fill="rgb(0,0,0)" fill-opacity="0.296875"/>
  <rect x="9" y="7" width="1" height="1" fill="rgb(117,117,117)" fill-opacity="0.2890625"/>
  <rect x="9" y="8" width="1" height="1" fill="rgb(69,69,69)" fill-opacity="0.5390625"/>
  <rect x="9" y="9" width="1" height="4" fill="rgb(0,0,0)"/>
  <rect x="9" y="13" width="1" height="1" fill="rgb(69,69,69)" fill-opacity="0.5390625"/>
  <rect x="9" y="14" width="1" height="1" fill="rgb(221,221,221)" fill-opacity="0.296875"/>
  <rect x="9" y="15" width="1" height="1" fill="rgb(249,249,249)" fill-opacity="0.3359375"/>
  <rect x="9" y="16" width="1" height="5" fill="rgb(255,255,255)" fill-opacity="0.0078125"/>
  <rect x="10" y="0" width="1" height="6" fill="rgb(255,255,255)" fill-opacity="0.0078125"/>
  <rect x="10" y="6" width="1" height="1" fill="rgb(0,0,0)" fill-opacity="0.375"/>
  <rect x="10" y="7" width="1" height="1" fill="rgb(194,194,194)" fill-opacity="0.265625"/>
  <rect x="10" y="8" width="1" height="1" fill="rgb(14,14,14)" fill-opacity="0.8515625"/>
  <rect x="10" y="9" width="1" height="4" fill="rgb(0,0,0)"/>
  <rect x="10" y="13" width="1" height="1" fill="rgb(14,14,14)" fill-opacity="0.8515625"/>
  <rect x="10" y="14" width="1" height="1" fill="rgb(236,236,236)" fill-opacity="0.2734375"/>
  <rect x="10" y="15" width="1" height="1" fill="rgb(255,255,255)" fill-opacity="0.4765625"/>
  <rect x="10" y="16" width="1" height="5" fill="rgb(255,255,255)" fill-opacity="0.0078125"/>
  <rect x="11" y="0" width="1" height="6" fill="rgb(255,255,255)" fill-opacity="0.0078125"/>
  <rect x="11" y="6" width="1" height="1" fill="rgb(0,0,0)" fill-opacity="0.375"/>
  <rect x="11" y="7" width="1" height="1" fill="rgb(200,200,200)" fill-opacity="0.2578125"/>
  <rect x="11" y="8" width="1" height="1" fill="rgb(14,14,14)" fill-opacity="0.8515625"/>
  <rect x="11" y="9" width="1" height="4" fill="rgb(0,0,0)"/>
  <rect x="11" y="13" width="1" height="1" fill="rgb(14,14,14)" fill-opacity="0.8515625"/>
  <rect x="11" y="14" width="1" height="1" fill="rgb(237,237,237)" fill-opacity="0.2734375"/>
  <rect x="11" y="15" width="1" height="1" fill="rgb(255,255,255)" fill-opacity="0.546875"/>
  <rect x="11" y="16" width="1" height="5" fill="rgb(255,255,255)" fill-opacity="0.0078125"/>
  <rect x="12" y="0" width="1" height="6" fill="rgb(255,255,255)" fill-opacity="0.0078125"/>
  <rect x="12" y="6" width="1" height="1" fill="rgb(0,0,0)" fill-opacity="0.265625"/>
  <rect x="12" y="7" width="1" height="1" fill="rgb(140,140,140)" fill-opacity="0.2734375"/>
  <rect x="12" y="8" width="1" height="1" fill="rgb(69,69,69)" fill-opacity="0.5390625"/>
  <rect x="12" y="9" width="1" height="4" fill="rgb(0,0,0)"/>
  <rect x="12" y="13" width="1" height="1" fill="rgb(69,69,69)" fill-opacity="0.5390625"/>
  <rect x="12" y="14" width="1" height="1" fill="rgb(243,243,243)" fill-opacity="0.34375"/>
  <rect x="12" y="15" width="1" height="1" fill="rgb(255,255,255)" fill-opacity="0.4375"/>
  <rect x="12" y="16" width="1" height="5" fill="rgb(255,255,255)" fill-opacity="0.0078125"/>
  <rect x="13" y="0" width="1" height="6" fill="rgb(255,255,255)" fill-opacity="0.0078125"/>
  <rect x="13" y="6" width="1" height="1" fill="rgb(33,33,33)" fill-opacity="0.09375"/>
  <rect x="13" y="7" width="1" height="1" fill="rgb(100,100,100)" fill-opacity="0.3359375"/>
  <rect x="13" y="8" width="1" height="1" fill="rgb(200,200,200)" fill-opacity="0.28125"/>
  <rect x="13" y="9" width="1" height="1" fill="rgb(69,69,69)" fill-opacity="0.5390625"/>
  <rect x="13" y="10" width="1" height="2" fill="rgb(14,14,14)" fill-opacity="0.8515625"/>
  <rect x="13" y="12" width="1" height="1" fill="rgb(69,69,69)" fill-opacity="0.5390625"/>
  <rect x="13" y="13" width="1" height="1" fill="rgb(216,216,216)" fill-opacity="0.2890625"/>
  <rect x="13" y="14" width="1" height="1" fill="rgb(253,253,253)" fill-opacity="0.546875"/>
  <rect x="13" y="15" width="1" height="1" fill="rgb(255,255,255)" fill-opacity="0.15625"/>
  <rect x="13" y="16" width="1" height="5" fill="rgb(255,255,255)" fill-opacity="0.0078125"/>
  <rect x="14" y="0" width="1" height="7" fill="rgb(255,255,255)" fill-opacity="0.0078125"/>
  <rect x="14" y="7" width="1" height="1" fill="rgb(133,133,133)" fill-opacity="0.1953125"/>
  <rect x="14" y="8" width="1" height="1" fill="rgb(181,181,181)" fill-opacity="0.3671875"/>
  <rect x="14" y="9" width="1" height="1" fill="rgb(214,214,214)" fill-opacity="0.296875"/>
  <rect x="14" y="10" width="1" height="2" fill="rgb(233,233,233)" fill-opacity="0.2734375"/>
  <rect x="14" y="12" width="1" height="1" fill="rgb(246,246,246)" fill-opacity="0.3359375"/>
  <rect x="14" y="13" width="1" height="1" fill="rgb(255,255,255)" fill-opacity="0.5546875"/>
  <rect x="14" y="14" width="1" height="1" fill="rgb(255,255,255)" fill-opacity="0.3046875"/>
  <rect x="14" y="15" width="1" height="6" fill="rgb(255,255,255)" fill-opacity="0.0078125"/>
  <rect x="15" y="0" width="1" height="8" fill="rgb(255,255,255)" fill-opacity="0.0078125"/>
  <rect x="15" y="8" width="1" height="1" fill="rgb(193,193,193)" fill-opacity="0.1171875"/>
  <rect x="15" y="9" width="1" height="1" fill="rgb(236,236,236)" fill-opacity="0.3203125"/>
  <rect x="15" y="10" width="1" height="1" fill="rgb(255,255,255)" fill-opacity="0.453125"/>
  <rect x="15" y="11" width="1" height="1" fill="rgb(255,255,255)" fill-opacity="0.5234375"/>
  <rect x="15" y="12" width="1" height="1" fill="rgb(255,255,255)" fill-opacity="0.421875"/>
  <rect x="15" y="13" width="1" height="1" fill="rgb(255,255,255)" fill-opacity="0.15625"/>
  <rect x="15" y="14" width="1" height="7" fill="rgb(255,255,255)" fill-opacity="0.0078125"/>
  <rect x="16" y="0" width="1" height="21" fill="rgb(255,255,255)" fill-opacity="0.0078125"/>
  <rect x="17" y="0" width="1" height="21" fill="rgb(255,255,255)" fill-opacity="0.0078125"/>
  <rect x="18" y="0" width="1" height="21" fill="rgb(255,255,255)" fill-opacity="0.0078125"/>
  <rect x="19" y="0" width="1" height="21" fill="rgb(255,255,255)" fill-opacity="0.0078125"/>
  <rect x="20" y="0" width="1" height="21" fill="rgb(255,255,255)" fill-opacity="0.0078125"/>
</svg>