<svg xmlns="http://www.w3.org/2000/svg" shape-rendering="crispEdges" width="21" height="21" viewBox="0 0 21 21">
  <rect x="0" y="0" width="1" height="21" fill="rgb(255,255,255)" fill-opacity="0.0078125"/>
  <rect x="1" y="0" width="1" height="21" fill="rgb(255,255,255)" fill-opacity="0.0078125"/>
  <rect x="2" y="0" width="1" height="21" fill="rgb(255,255,255)" fill-opacity="0.0078125"/>
  <rect x="3" y="0" width="1" height="21" fill="rgb(255,255,255)" fill-opacity="0.0078125"/>
  <rect x="4" y="0" width="1" height="10" fill="rgb(255,255,255)" fill-opacity="0.0078125"/>
  <rect x="4" y="10" width="1" height="1" fill="rgb(255,0,0)" fill-opacity="0.0078125"/>
  <rect x="4" y="11" width="1" height="1" fill="rgb(255,150,45)" fill-opacity="0.0703125"/>
  <rect x="4" y="12" width="1" height="1" fill="rgb(255,155,44)" fill-opacity="0.1640625"/>
  <rect x="4" y="13" width="1" height="1" fill="rgb(255,154,43)" fill-opacity="0.2109375"/>
  <rect x="4" y="14" width="1" height="1" fill="rgb(255,154,47)" fill-opacity="0.15625"/>
  <rect x="4" y="15" width="1" height="1" fill="rgb(255,170,43)" fill-opacity="0.03125"/>
  <rect x="4" y="16" width="1" height="5" fill="rgb(255,255,255)" fill-opacity="0.0078125"/>
  <rect x="5" y="0" width="1" height="8" fill="rgb(255,255,255)" fill-opacity="0.0078125"/>
  <rect x="5" y="8" width="1" height="1" fill="rgb(255,170,0)" fill-opacity="0.015625"/>
  <rect x="5" y="9" width="1" height="1" fill="rgb(255,155,44)" fill-opacity="0.09375"/>
  <rect x="5" y="10" width="1" height="1" fill="rgb(255,155,38)" fill-opacity="0.2421875"/>
  <rect x="5" y="11" width="1" height="1" fill="rgb(255,152,43)" fill-opacity="0.515625"/>
  <rect x="5" y="12" width="1" height="1" fill="rgb(255,152,41)" fill-opacity="0.7578125"/>
  <rect x="5" y="13" width="1" height="1" fill="rgb(255,153,41)" fill-opacity="0.8046875"/>
  <rect x="5" y="14" width="1" height="1" fill="rgb(255,151,42)" fill-opacity="0.7109375"/>
  <rect x="5" y="15" width="1" height="1" fill="rgb(255,156,37)" fill-opacity="0.25"/>
  <rect x="5" y="16" width="1" height="1" fill="rgb(255,146,36)" fill-opacity="0.03125"/>
  <rect x="5" y="17" width="1" height="4" fill="rgb(255,255,255)" fill-opacity="0.0078125"/>
  <rect x="6" y="0" width="1" height="6" fill="rgb(255,255,255)" fill-opacity="0.0078125"/>
  <rect x="6" y="6" width="1" height="1" fill="rgb(255,170,43)" fill-opacity="0.03125"/>
  <rect x="6" y="7" width="1" height="1" fill="rgb(255,149,44)" fill-opacity="0.1171875"/>
  <rect x="6" y="8" width="1" height="1" fill="rgb(255,154,43)" fill-opacity="0.3125"/>
  <rect x="6" y="9" width="1" height="1" fill="rgb(255,152,41)" fill-opacity="0.5859375"/>
  <rect x="6" y="10" width="1" height="1" fill="rgb(255,152,42)" fill-opacity="0.7890625"/>
  <rect x="6" y="11" width="1" height="1" fill="rgb(233,138,37)" fill-opacity="0.8203125"/>
  <rect x="6" y="12" width="1" height="1" fill="rgb(163,98,28)" fill-opacity="0.890625"/>
  <rect x="6" y="13" width="1" height="1" fill="rgb(117,74,28)" fill-opacity="0.9453125"/>
  <rect x="6" y="14" width="1" height="1" fill="rgb(217,129,34)" fill-opacity="0.8359375"/>
  <rect x="6" y="15" width="1" height="1" fill="rgb(255,153,42)" fill-opacity="0.71875"/>
  <rect x="6" y="16" width="1" height="1" fill="rgb(255,156,37)" fill-opacity="0.25"/>
  <rect x="6" y="17" width="1" height="1" fill="rgb(255,146,36)" fill-opacity="0.03125"/>
  <rect x="6" y="18" width="1" height="3" fill="rgb(255,255,255)" fill-opacity="0.0078125"/>
  <rect x="7" y="0" width="1" height="4" fill="rgb(255,255,255)" fill-opacity="0.0078125"/>
  <rect x="7" y="4" width="1" height="1" fill="rgb(255,162,46)" fill-opacity="0.046875"/>
  <rect x="7" y="5" width="1" height="1" fill="rgb(255,146,44)" fill-opacity="0.140625"/>
  <rect x="7" y="6" width="1" height="1" fill="rgb(255,150,39)" fill-opacity="0.3828125"/>
  <rect x="7" y="7" width="1" height="1" fill="rgb(255,151,43)" fill-opacity="0.6484375"/>
  <rect x="7" y="8" width="1" height="1" fill="rgb(255,153,41)" fill-opacity="0.8046875"/>
  <rect x="7" y="9" width="1" height="1" fill="rgb(220,130,34)" fill-opacity="0.8359375"/>
  <rect x="7" y="10" width="1" height="1" fill="rgb(149,91,30)" fill-opacity="0.9140625"/>
  <rect x="7" y="11" width="1" height="1" fill="rgb(116,85,52)" fill-opacity="0.96875"/>
  <rect x="7" y="12" width="1" height="1" fill="rgb(177,170,161)"/>
  <rect x="7" y="13" width="1" height="1" fill="rgb(182,177,171)"/>
  <rect x="7" y="14" width="1" height="1" fill="rgb(95,62,27)" fill-opacity="0.96875"/>
  <rect x="7" y="15" width="1" height="1" fill="rgb(212,126,32)" fill-opacity="0.8359375"/>
  <rect x="7" y="16" width="1" height="1" fill="rgb(255,153,42)" fill-opacity="0.71875"/>
  <rect x="7" y="17" width="1" height="1" fill="rgb(255,156,37)" fill-opacity="0.25"/>
  <rect x="7" y="18" width="1" height="1" fill="rgb(255,146,36)" fill-opacity="0.03125"/>
  <rect x="7" y="19" width="1" height="2" fill="rgb(255,255,255)" fill-opacity="0.0078125"/>
  <rect x="8" y="0" width="1" height="2" fill="rgb(255,255,255)" fill-opacity="0.0078125"/>
  <rect x="8" y="2" width="1" height="1" fill="rgb(255,170,0)" fill-opacity="0.015625"/>
  <rect x="8" y="3" width="1" height="1" fill="rgb(255,148,42)" fill-opacity="0.171875"/>
  <rect x="8" y="4" width="1" height="1" fill="rgb(255,152,43)" fill-opacity="0.453125"/>
  <rect x="8" y="5" width="1" height="1" fill="rgb(255,152,42)" fill-opacity="0.7109375"/>
  <rect x="8" y="6" width="1" height="1" fill="rgb(253,151,41)" fill-opacity="0.8046875"/>
  <rect x="8" y="7" width="1" height="1" fill="rgb(208,123,31)" fill-opacity="0.84375"/>
  <rect x="8" y="8" width="1" height="1" fill="rgb(137,86,32)" fill-opacity="0.9296875"/>
  <rect x="8" y="9" width="1" height="1" fill="rgb(132,105,78)" fill-opacity="0.9765625"/>
  <rect x="8" y="10" width="1" height="1" fill="rgb(192,187,183)"/>
  <rect x="8" y="11" width="1" height="1" fill="rgb(235,235,235)"/>
  <rect x="8" y="12" width="1" height="1" fill="rgb(216,216,216)"/>
  <rect x="8" y="13" width="1" height="1" fill="rgb(191,191,191)"/>
  <rect x="8" y="14" width="1" height="1" fill="rgb(156,150,144)"/>
  <rect x="8" y="15" width="1" height="1" fill="rgb(82,52,22)" fill-opacity="0.9765625"/>
  <rect x="8" y="16" width="1" height="1" fill="rgb(206,123,31)" fill-opacity="0.84375"/>
  <rect x="8" y="17" width="1" height="1" fill="rgb(255,153,42)" fill-opacity="0.71875"/>
  <rect x="8" y="18" width="1" height="1" fill="rgb(255,156,37)" fill-opacity="0.25"/>
  <rect x="8" y="19" width="1" height="1" fill="rgb(255,170,43)" fill-opacity="0.03125"/>
  <rect x="8" y="20" width="1" height="1" fill="rgb(255,255,255)" fill-opacity="0.0078125"/>
  <rect x="9" y="0" width="1" height="2" fill="rgb(255,255,255)" fill-opacity="0.0078125"/>
  <rect x="9" y="2" width="1" height="1" fill="rgb(255,146,44)" fill-opacity="0.140625"/>
  <rect x="9" y="3" width="1" height="1" fill="rgb(255,152,42)" fill-opacity="0.6875"/>
  <rect x="9" y="4" width="1" height="1" fill="rgb(246,146,40)" fill-opacity="0.8125"/>
  <rect x="9" y="5" width="1" height="1" fill="rgb(197,117,30)" fill-opacity="0.859375"/>
  <rect x="9" y="6" width="1" height="1" fill="rgb(129,84,35)" fill-opacity="0.9453125"/>
  <rect x="9" y="7" width="1" height="1" fill="rgb(147,129,110)" fill-opacity="0.984375"/>
  <rect x="9" y="8" width="1" height="1" fill="rgb(206,204,202)"/>
  <rect x="9" y="9" width="1" height="1" fill="rgb(233,233,233)"/>
  <rect x="9" y="10" width="1" height="1" fill="rgb(205,205,205)"/>
  <rect x="9" y="11" width="1" height="1" fill="rgb(181,181,181)"/>
  <rect x="9" y="12" width="1" height="1" fill="rgb(184,184,184)"/>
  <rect x="9" y="13" width="1" height="1" fill="rgb(192,192,192)"/>
  <rect x="9" y="14" width="1" height="1" fill="rgb(200,200,200)"/>
  <rect x="9" y="15" width="1" height="1" fill="rgb(166,160,153)"/>
  <rect x="9" y="16" width="1" height="1" fill="rgb(66,40,13)" fill-opacity="0.9921875"/>
  <rect x="9" y="17" width="1" height="1" fill="rgb(200,120,31)" fill-opacity="0.84375"/>
  <rect x="9" y="18" width="1" height="1" fill="rgb(255,152,41)" fill-opacity="0.6875"/>
  <rect x="9" y="19" width="1" height="1" fill="rgb(255,149,44)" fill-opacity="0.1171875"/>
  <rect x="9" y="20" width="1" height="1" fill="rgb(255,255,255)" fill-opacity="0.0078125"/>
  <rect x="10" y="0" width="1" height="2" fill="rgb(255,255,255)" fill-opacity="0.0078125"/>
  <rect x="10" y="2" width="1" height="1" fill="rgb(255,156,39)" fill-opacity="0.234375"/>
  <rect x="10" y="3" width="1" height="1" fill="rgb(255,153,41)" fill-opacity="0.8046875"/>
  <rect x="10" y="4" width="1" height="1" fill="rgb(163,98,30)" fill-opacity="0.8984375"/>
  <rect x="10" y="5" width="1" height="1" fill="rgb(104,79,52)" fill-opacity="0.9921875"/>
  <rect x="10" y="6" width="1" height="1" fill="rgb(170,166,161)"/>
  <rect x="10" y="7" width="1" height="1" fill="rgb(224,224,224)"/>
  <rect x="10" y="8" width="1" height="1" fill="rgb(192,192,192)"/>
  <rect x="10" y="9" width="1" height="1" fill="rgb(172,172,172)"/>
  <rect x="10" y="10" width="1" height="1" fill="rgb(178,178,178)"/>
  <rect x="10" y="11" width="1" height="1" fill="rgb(186,186,186)"/>
  <rect x="10" y="12" width="1" height="1" fill="rgb(194,194,194)"/>
  <rect x="10" y="13" width="1" height="1" fill="rgb(202,202,202)"/>
  <rect x="10" y="14" width="1" height="1" fill="rgb(210,210,210)"/>
  <rect x="10" y="15" width="1" height="1" fill="rgb(218,218,218)"/>
  <rect x="10" y="16" width="1" height="1" fill="rgb(135,124,113)"/>
  <rect x="10" y="17" width="1" height="1" fill="rgb(81,50,17)" fill-opacity="0.96875"/>
  <rect x="10" y="18" width="1" height="1" fill="rgb(255,153,41)" fill-opacity="0.8046875"/>
  <rect x="10" y="19" width="1" height="1" fill="rgb(255,152,44)" fill-opacity="0.2734375"/>
  <rect x="10" y="20" width="1" height="1" fill="rgb(255,255,255)" fill-opacity="0.0078125"/>
  <rect x="11" y="0" width="1" height="2" fill="rgb(255,255,255)" fill-opacity="0.0078125"/>
  <rect x="11" y="2" width="1" height="1" fill="rgb(255,152,48)" fill-opacity="0.1484375"/>
  <rect x="11" y="3" width="1" height="1" fill="rgb(255,151,42)" fill-opacity="0.6484375"/>
  <rect x="11" y="4" width="1" height="1" fill="rgb(243,144,38)" fill-opacity="0.8125"/>
  <rect x="11" y="5" width="1" height="1" fill="rgb(181,108,30)" fill-opacity="0.875"/>
  <rect x="11" y="6" width="1" height="1" fill="rgb(114,75,34)" fill-opacity="0.9609375"/>
  <rect x="11" y="7" width="1" height="1" fill="rgb(116,95,73)" fill-opacity="0.9921875"/>
  <rect x="11" y="8" width="1" height="1" fill="rgb(150,144,138)"/>
  <rect x="11" y="9" width="1" height="1" fill="rgb(180,180,180)"/>
  <rect x="11" y="10" width="1" height="1" fill="rgb(188,188,188)"/>
  <rect x="11" y="11" width="1" height="1" fill="rgb(196,196,196)"/>
  <rect x="11" y="12" width="1" height="1" fill="rgb(204,204,204)"/>
  <rect x="11" y="13" width="1" height="1" fill="rgb(212,212,212)"/>
  <rect x="11" y="14" width="1" height="1" fill="rgb(220,220,220)"/>
  <rect x="11" y="15" width="1" height="1" fill="rgb(177,171,165)"/>
  <rect x="11" y="16" width="1" height="1" fill="rgb(57,35,10)" fill-opacity="0.9921875"/>
  <rect x="11" y="17" width="1" height="1" fill="rgb(196,116,30)" fill-opacity="0.8515625"/>
  <rect x="11" y="18" width="1" height="1" fill="rgb(255,152,41)" fill-opacity="0.703125"/>
  <rect x="11" y="19" width="1" height="1" fill="rgb(255,159,40)" fill-opacity="0.1328125"/>
  <rect x="11" y="20" width="1" height="1" fill="rgb(255,255,255)" fill-opacity="0.0078125"/>
  <rect x="12" y="0" width="1" height="2" fill="rgb(255,255,255)" fill-opacity="0.0078125"/>
  <rect x="12" y="2" width="1" height="1" fill="rgb(255,128,0)" fill-opacity="0.015625"/>
  <rect x="12" y="3" width="1" height="1" fill="rgb(255,151,41)" fill-opacity="0.1796875"/>
  <rect x="12" y="4" width="1" height="1" fill="rgb(255,150,41)" fill-opacity="0.46875"/>
  <rect x="12" y="5" width="1" height="1" fill="rgb(255,152,43)" fill-opacity="0.7265625"/>
  <rect x="12" y="6" width="1" height="1" fill="rgb(250,149,40)" fill-opacity="0.8046875"/>
  <rect x="12" y="7" width="1" height="1" fill="rgb(185,109,28)" fill-opacity="0.8671875"/>
  <rect x="12" y="8" width="1" height="1" fill="rgb(109,69,28)" fill-opacity="0.9609375"/>
  <rect x="12" y="9" width="1" height="1" fill="rgb(100,76,50)" fill-opacity="0.984375"/>
  <rect x="12" y="10" width="1" height="1" fill="rgb(151,143,134)"/>
  <rect x="12" y="11" width="1" height="1" fill="rgb(204,203,203)"/>
  <rect x="12" y="12" width="1" height="1" fill="rgb(215,215,215)"/>
  <rect x="12" y="13" width="1" height="1" fill="rgb(223,223,223)"/>
  <rect x="12" y="14" width="1" height="1" fill="rgb(181,175,169)"/>
  <rect x="12" y="15" width="1" height="1" fill="rgb(57,35,11)" fill-opacity="0.9921875"/>
  <rect x="12" y="16" width="1" height="1" fill="rgb(196,116,30)" fill-opacity="0.8515625"/>
  <rect x="12" y="17" width="1" height="1" fill="rgb(255,152,43)" fill-opacity="0.7265625"/>
  <rect x="12" y="18" width="1" height="1" fill="rgb(255,151,43)" fill-opacity="0.265625"/>
  <rect x="12" y="19" width="1" height="1" fill="rgb(255,146,36)" fill-opacity="0.03125"/>
  <rect x="12" y="20" width="1" height="1" fill="rgb(255,255,255)" fill-opacity="0.0078125"/>
  <rect x="13" y="0" width="1" height="4" fill="rgb(255,255,255)" fill-opacity="0.0078125"/>
  <rect x="13" y="4" width="1" height="1" fill="rgb(255,157,39)" fill-opacity="0.0546875"/>
  <rect x="13" y="5" width="1" height="1" fill="rgb(255,148,40)" fill-opacity="0.15625"/>
  <rect x="13" y="6" width="1" height="1" fill="rgb(255,150,40)" fill-opacity="0.40625"/>
  <rect x="13" y="7" width="1" height="1" fill="rgb(255,152,42)" fill-opacity="0.671875"/>
  <rect x="13" y="8" width="1" height="1" fill="rgb(254,153,41)" fill-opacity="0.8046875"/>
  <rect x="13" y="9" width="1" height="1" fill="rgb(195,115,29)" fill-opacity="0.8515625"/>
  <rect x="13" y="10" width="1" height="1" fill="rgb(105,66,24)" fill-opacity="0.953125"/>
  <rect x="13" y="11" width="1" height="1" fill="rgb(70,46,21)" fill-opacity="0.9921875"/>
  <rect x="13" y="12" width="1" height="1" fill="rgb(138,127,115)"/>
  <rect x="13" y="13" width="1" height="1" fill="rgb(172,165,158)"/>
  <rect x="13" y="14" width="1" height="1" fill="rgb(59,36,11)" fill-opacity="0.9921875"/>
  <rect x="13" y="15" width="1" height="1" fill="rgb(196,116,30)" fill-opacity="0.8515625"/>
  <rect x="13" y="16" width="1" height="1" fill="rgb(255,152,43)" fill-opacity="0.7265625"/>
  <rect x="13" y="17" width="1" height="1" fill="rgb(255,151,43)" fill-opacity="0.265625"/>
  <rect x="13" y="18" width="1" height="1" fill="rgb(255,159,32)" fill-opacity="0.0390625"/>
  <rect x="13" y="19" width="1" height="2" fill="rgb(255,255,255)" fill-opacity="0.0078125"/>
  <rect x="14" y="0" width="1" height="6" fill="rgb(255,255,255)" fill-opacity="0.0078125"/>
  <rect x="14" y="6" width="1" height="1" fill="rgb(255,159,32)" fill-opacity="0.0390625"/>
  <rect x="14" y="7" width="1" height="1" fill="rgb(255,153,43)" fill-opacity="0.125"/>
  <rect x="14" y="8" width="1" height="1" fill="rgb(255,151,43)" fill-opacity="0.328125"/>
  <rect x="14" y="9" width="1" height="1" fill="rgb(255,152,42)" fill-opacity="0.6015625"/>
  <rect x="14" y="10" width="1" height="1" fill="rgb(255,153,42)" fill-opacity="0.796875"/>
  <rect x="14" y="11" width="1" height="1" fill="rgb(211,125,32)" fill-opacity="0.8359375"/>
  <rect x="14" y="12" width="1" height="1" fill="rgb(113,70,24)" fill-opacity="0.9375"/>
  <rect x="14" y="13" width="1" height="1" fill="rgb(62,38,11)" fill-opacity="0.984375"/>
  <rect x="14" y="14" width="1" height="1" fill="rgb(196,116,30)" fill-opacity="0.8515625"/>
  <rect x="14" y="15" width="1" height="1" fill="rgb(255,152,43)" fill-opacity="0.7265625"/>
  <rect x="14" y="16" width="1" height="1" fill="rgb(255,151,43)" fill-opacity="0.265625"/>
  <rect x="14" y="17" width="1" height="1" fill="rgb(255,159,32)" fill-opacity="0.0390625"/>
  <rect x="14" y="18" width="1" height="3" fill="rgb(255,255,255)" fill-opacity="0.0078125"/>
  <rect x="15" y="0" width="1" height="8" fill="rgb(255,255,255)" fill-opacity="0.0078125"/>
  <rect x="15" y="8" width="1" height="1" fill="rgb(255,128,64)" fill-opacity="0.0234375"/>
  <rect x="15" y="9" width="1" height="1" fill="rgb(255,159,43)" fill-opacity="0.1015625"/>
  <rect x="15" y="10" width="1" height="1" fill="rgb(255,153,43)" fill-opacity="0.2578125"/>
  <rect x="15" y="11" width="1" height="1" fill="rgb(255,152,43)" fill-opacity="0.5390625"/>
  <rect x="15" y="12" width="1" height="1" fill="rgb(255,152,42)" fill-opacity="0.7734375"/>
  <rect x="15" y="13" width="1" height="1" fill="rgb(255,153,41)" fill-opacity="0.8046875"/>
  <rect x="15" y="14" width="1" height="1" fill="rgb(255,151,42)" fill-opacity="0.6953125"/>
  <rect x="15" y="15" width="1" height="1" fill="rgb(255,151,43)" fill-opacity="0.265625"/>
  <rect x="15" y="16" width="1" height="1" fill="rgb(255,159,32)" fill-opacity="0.0390625"/>
  <rect x="15" y="17" width="1" height="4" fill="rgb(255,255,255)" fill-opacity="0.0078125"/>
  <rect x="16" y="0" width="1" height="10" fill="rgb(255,255,255)" fill-opacity="0.0078125"/>
  <rect x="16" y="10" width="1" height="1" fill="rgb(255,255,0)" fill-opacity="0.0078125"/>
  <rect x="16" y="11" width="1" height="1" fill="rgb(255,148,40)" fill-opacity="0.078125"/>
  <rect x="16" y="12" width="1" height="1" fill="rgb(255,149,43)" fill-opacity="0.1953125"/>
  <rect x="16" y="13" width="1" height="1" fill="rgb(255,152,43)" fill-opacity="0.2890625"/>
  <rect x="16" y="14" width="1" height="1" fill="rgb(255,153,43)" fill-opacity="0.125"/>
  <rect x="16" y="15" width="1" height="1" fill="rgb(255,146,36)" fill-opacity="0.03125"/>
  <rect x="16" y="16" width="1" height="5" fill="rgb(255,255,255)" fill-opacity="0.0078125"/>
  <rect x="17" y="0" width="1" height="21" fill="rgb(255,255,255)" fill-opacity="0.0078125"/>
  <rect x="18" y="0" width="1" height="21" fill="rgb(255,255,255)" fill-opacity="0.0078125"/>
  <rect x="19" y="0" width="1" height="21" fill="rgb(255,255,255)" fill-opacity="0.0078125"/>
  <rect x="20" y="0" width="1" height="21" fill="rgb(255,255,255)" fill-opacity="0.0078125"/>
</svg>