<svg xmlns="http://www.w3.org/2000/svg" shape-rendering="crispEdges" width="21" height="21" viewBox="0 0 21 21">
  <rect x="0" y="0" width="21" height="1" fill="rgb(255,255,255)" fill-opacity="0.0078125"/>
  <rect x="0" y="1" width="21" height="1" fill="rgb(255,255,255)" fill-opacity="0.0078125"/>
  <rect x="0" y="2" width="21" height="1" fill="rgb(255,255,255)" fill-opacity="0.0078125"/>
  <rect x="0" y="3" width="6" height="1" fill="rgb(255,255,255)" fill-opacity="0.0078125"/>
  <rect x="6" y="3" width="1" height="1" fill="rgb(0,0,0)" fill-opacity="0.21875"/>
  <rect x="7" y="3" width="1" height="1" fill="rgb(21,21,21)" fill-opacity="0.625"/>
  <rect x="8" y="3" width="1" height="1" fill="rgb(66,66,66)" fill-opacity="0.7734375"/>
  <rect x="9" y="3" width="1" height="1" fill="rgb(31,31,31)" fill-opacity="0.65625"/>
  <rect x="10" y="3" width="1" height="1" fill="rgb(0,0,0)" fill-opacity="0.296875"/>
  <rect x="11" y="3" width="1" height="1" fill="rgb(0,0,0)" fill-opacity="0.015625"/>
  <rect x="12" y="3" width="1" height="1" fill="rgb(0,0,0)" fill-opacity="0.296875"/>
  <rect x="13" y="3" width="1" height="1" fill="rgb(31,31,31)" fill-opacity="0.65625"/>
  <rect x="14" y="3" width="1" height="1" fill="rgb(66,66,66)" fill-opacity="0.7734375"/>
  <rect x="15" y="3" width="1" height="1" fill="rgb(21,21,21)" fill-opacity="0.625"/>
  <rect x="16" y="3" width="1" height="1" fill="rgb(0,0,0)" fill-opacity="0.21875"/>
  <rect x="17" y="3" width="4" height="1" fill="rgb(255,255,255)" fill-opacity="0.0078125"/>
  <rect x="0" y="4" width="5" height="1" fill="rgb(255,255,255)" fill-opacity="0.0078125"/>
  <rect x="5" y="4" width="1" height="1" fill="rgb(0,0,0)" fill-opacity="0.3046875"/>
  <rect x="6" y="4" width="1" height="1" fill="rgb(120,120,120)" fill-opacity="0.9140625"/>
  <rect x="7" y="4" width="1" height="1" fill="rgb(250,250,250)"/>
  <rect x="8" y="4" width="1" height="1" fill="rgb(255,255,255)"/>
  <rect x="9" y="4" width="1" height="1" fill="rgb(250,250,250)"/>
  <rect x="10" y="4" width="1" height="1" fill="rgb(163,163,163)" fill-opacity="0.9453125"/>
  <rect x="11" y="4" width="1" height="1" fill="rgb(11,11,11)" fill-opacity="0.75"/>
  <rect x="12" y="4" width="1" height="1" fill="rgb(163,163,163)" fill-opacity="0.9453125"/>
  <rect x="13" y="4" width="1" height="1" fill="rgb(250,250,250)"/>
  <rect x="14" y="4" width="1" height="1" fill="rgb(255,255,255)"/>
  <rect x="15" y="4" width="1" height="1" fill="rgb(250,250,250)"/>
  <rect x="16" y="4" width="1" height="1" fill="rgb(121,121,121)" fill-opacity="0.9140625"/>
  <rect x="17" y="4" width="1" height="1" fill="rgb(0,0,0)" fill-opacity="0.3515625"/>
  <rect x="18" y="4" width="3" height="1" fill="rgb(255,255,255)" fill-opacity="0.0078125"/>
  <rect x="0" y="5" width="5" height="1" fill="rgb(255,255,255)" fill-opacity="0.0078125"/>
  <rect x="5" y="5" width="1" height="1" fill="rgb(41,41,41)" fill-opacity="0.7109375"/>
  <rect x="6" y="5" width="1" height="1" fill="rgb(255,255,255)"/>
  <rect x="7" y="5" width="1" height="1" fill="rgb(180,180,180)" fill-opacity="0.9765625"/>
  <rect x="8" y="5" width="1" height="1" fill="rgb(88,88,88)" fill-opacity="0.9453125"/>
  <rect x="9" y="5" width="1" height="1" fill="rgb(157,157,157)" fill-opacity="0.96875"/>
  <rect x="10" y="5" width="1" height="1" fill="rgb(255,255,255)"/>
  <rect x="11" y="5" width="1" height="1" fill="rgb(226,226,226)" fill-opacity="0.9921875"/>
  <rect x="12" y="5" width="1" height="1" fill="rgb(255,255,255)"/>
  <rect x="13" y="5" width="1" height="1" fill="rgb(157,157,157)" fill-opacity="0.96875"/>
  <rect x="14" y="5" width="1" height="1" fill="rgb(88,88,88)" fill-opacity="0.9453125"/>
  <rect x="15" y="5" width="1" height="1" fill="rgb(180,180,180)" fill-opacity="0.9765625"/>
  <rect x="16" y="5" width="1" height="1" fill="rgb(255,255,255)"/>
  <rect x="17" y="5" width="1" height="1" fill="rgb(47,47,47)" fill-opacity="0.703125"/>
  <rect x="18" y="5" width="3" height="1" fill="rgb(255,255,255)" fill-opacity="0.0078125"/>
  <rect x="0" y="6" width="5" height="1" fill="rgb(255,255,255)" fill-opacity="0.0078125"/>
  <rect x="5" y="6" width="1" height="1" fill="rgb(0,0,0)" fill-opacity="0.28125"/>
  <rect x="6" y="6" width="1" height="1" fill="rgb(49,49,49)" fill-opacity="0.71875"/>
  <rect x="7" y="6" width="1" height="1" fill="rgb(0,0,0)" fill-opacity="0.4140625"/>
  <rect x="8" y="6" width="1" height="1" fill="rgb(0,0,0)" fill-opacity="0.015625"/>
  <rect x="9" y="6" width="1" height="1" fill="rgb(0,0,0)" fill-opacity="0.3359375"/>
  <rect x="10" y="6" width="1" height="1" fill="rgb(138,138,138)" fill-opacity="0.9296875"/>
  <rect x="11" y="6" width="1" height="1" fill="rgb(255,255,255)"/>
  <rect x="12" y="6" width="1" height="1" fill="rgb(138,138,138)" fill-opacity="0.9296875"/>
  <rect x="13" y="6" width="1" height="1" fill="rgb(0,0,0)" fill-opacity="0.3359375"/>
  <rect x="14" y="6" width="1" height="1" fill="rgb(0,0,0)" fill-opacity="0.015625"/>
  <rect x="15" y="6" width="1" height="1" fill="rgb(0,0,0)" fill-opacity="0.3984375"/>
  <rect x="16" y="6" width="1" height="1" fill="rgb(47,47,47)" fill-opacity="0.703125"/>
  <rect x="17" y="6" width="1" height="1" fill="rgb(0,0,0)" fill-opacity="0.265625"/>
  <rect x="18" y="6" width="3" height="1" fill="rgb(255,255,255)" fill-opacity="0.0078125"/>
  <rect x="0" y="7" width="10" height="1" fill="rgb(255,255,255)" fill-opacity="0.0078125"/>
  <rect x="10" y="7" width="1" height="1" fill="rgb(0,0,0)" fill-opacity="0.3203125"/>
  <rect x="11" y="7" width="1" height="1" fill="rgb(0,0,0)" fill-opacity="0.671875"/>
  <rect x="12" y="7" width="1" height="1" fill="rgb(0,0,0)" fill-opacity="0.328125"/>
  <rect x="13" y="7" width="8" height="1" fill="rgb(255,255,255)" fill-opacity="0.0078125"/>
  <rect x="0" y="8" width="21" height="1" fill="rgb(255,255,255)" fill-opacity="0.0078125"/>
  <rect x="0" y="9" width="6" height="1" fill="rgb(255,255,255)" fill-opacity="0.0078125"/>
  <rect x="6" y="9" width="1" height="1" fill="rgb(33,33,33)" fill-opacity="0.390625"/>
  <rect x="7" y="9" width="1" height="1" fill="rgb(42,42,42)" fill-opacity="0.671875"/>
  <rect x="8" y="9" width="1" height="1" fill="rgb(49,49,49)" fill-opacity="0.796875"/>
  <rect x="9" y="9" width="1" height="1" fill="rgb(46,46,46)" fill-opacity="0.8046875"/>
  <rect x="10" y="9" width="1" height="1" fill="rgb(35,35,35)" fill-opacity="0.6796875"/>
  <rect x="11" y="9" width="1" height="1" fill="rgb(27,27,27)" fill-opacity="0.4140625"/>
  <rect x="12" y="9" width="1" height="1" fill="rgb(0,0,0)" fill-opacity="0.0078125"/>
  <rect x="13" y="9" width="8" height="1" fill="rgb(255,255,255)" fill-opacity="0.0078125"/>
  <rect x="0" y="10" width="5" height="1" fill="rgb(255,255,255)" fill-opacity="0.0078125"/>
  <rect x="5" y="10" width="1" height="1" fill="rgb(47,47,47)" fill-opacity="0.6171875"/>
  <rect x="6" y="10" width="1" height="1" fill="rgb(125,125,125)" fill-opacity="0.984375"/>
  <rect x="7" y="10" width="1" height="1" fill="rgb(169,169,169)"/>
  <rect x="8" y="10" width="1" height="1" fill="rgb(168,168,168)"/>
  <rect x="9" y="10" width="1" height="1" fill="rgb(162,162,162)"/>
  <rect x="10" y="10" width="1" height="1" fill="rgb(151,151,151)"/>
  <rect x="11" y="10" width="1" height="1" fill="rgb(95,95,95)" fill-opacity="0.9921875"/>
  <rect x="12" y="10" width="1" height="1" fill="rgb(34,34,34)" fill-opacity="0.65625"/>
  <rect x="13" y="10" width="8" height="1" fill="rgb(255,255,255)" fill-opacity="0.0078125"/>
  <rect x="0" y="11" width="5" height="1" fill="rgb(255,255,255)" fill-opacity="0.0078125"/>
  <rect x="5" y="11" width="1" height="1" fill="rgb(60,60,60)" fill-opacity="0.8046875"/>
  <rect x="6" y="11" width="1" height="1" fill="rgb(212,212,212)"/>
  <rect x="7" y="11" width="1" height="1" fill="rgb(195,195,195)"/>
  <rect x="8" y="11" width="1" height="1" fill="rgb(199,199,199)"/>
  <rect x="9" y="11" width="1" height="1" fill="rgb(193,193,193)"/>
  <rect x="10" y="11" width="1" height="1" fill="rgb(170,170,170)"/>
  <rect x="11" y="11" width="1" height="1" fill="rgb(146,146,146)"/>
  <rect x="12" y="11" width="1" height="1" fill="rgb(27,27,27)" fill-opacity="0.828125"/>
  <rect x="13" y="11" width="8" height="1" fill="rgb(255,255,255)" fill-opacity="0.0078125"/>
  <rect x="0" y="12" width="5" height="1" fill="rgb(255,255,255)" fill-opacity="0.0078125"/>
  <rect x="5" y="12" width="1" height="1" fill="rgb(61,61,61)" fill-opacity="0.796875"/>
  <rect x="6" y="12" width="1" height="1" fill="rgb(213,213,213)"/>
  <rect x="7" y="12" width="1" height="1" fill="rgb(129,129,129)"/>
  <rect x="8" y="12" width="1" height="1" fill="rgb(105,105,105)"/>
  <rect x="9" y="12" width="1" height="1" fill="rgb(84,84,84)"/>
  <rect x="10" y="12" width="1" height="1" fill="rgb(62,62,62)"/>
  <rect x="11" y="12" width="1" height="1" fill="rgb(91,91,91)"/>
  <rect x="12" y="12" width="1" height="1" fill="rgb(25,25,25)" fill-opacity="0.8203125"/>
  <rect x="13" y="12" width="8" height="1" fill="rgb(255,255,255)" fill-opacity="0.0078125"/>
  <rect x="0" y="13" width="4" height="1" fill="rgb(255,255,255)" fill-opacity="0.0078125"/>
  <rect x="4" y="13" width="1" height="1" fill="rgb(83,83,83)" fill-opacity="0.1640625"/>
  <rect x="5" y="13" width="1" height="1" fill="rgb(90,90,90)" fill-opacity="0.875"/>
  <rect x="6" y="13" width="1" height="1" fill="rgb(138,174,229)"/>
  <rect x="7" y="13" width="1" height="1" fill="rgb(114,135,166)"/>
  <rect x="8" y="13" width="1" height="1" fill="rgb(104,108,113)"/>
  <rect x="9" y="13" width="1" height="1" fill="rgb(84,88,93)"/>
  <rect x="10" y="13" width="1" height="1" fill="rgb(59,79,110)"/>
  <rect x="11" y="13" width="1" height="1" fill="rgb(59,97,153)"/>
  <rect x="12" y="13" width="1" height="1" fill="rgb(50,50,50)" fill-opacity="0.8984375"/>
  <rect x="13" y="13" width="1" height="1" fill="rgb(36,36,36)" fill-opacity="0.1953125"/>
  <rect x="14" y="13" width="7" height="1" fill="rgb(255,255,255)" fill-opacity="0.0078125"/>
  <rect x="0" y="14" width="4" height="1" fill="rgb(255,255,255)" fill-opacity="0.0078125"/>
  <rect x="4" y="14" width="1" height="1" fill="rgb(71,71,71)" fill-opacity="0.7734375"/>
  <rect x="5" y="14" width="1" height="1" fill="rgb(234,234,234)"/>
  <rect x="6" y="14" width="1" height="1" fill="rgb(119,171,248)"/>
  <rect x="7" y="14" width="1" height="1" fill="rgb(39,123,248)"/>
  <rect x="8" y="14" width="1" height="1" fill="rgb(9,106,252)"/>
  <rect x="9" y="14" width="1" height="1" fill="rgb(8,105,251)"/>
  <rect x="10" y="14" width="1" height="1" fill="rgb(27,111,237)"/>
  <rect x="11" y="14" width="1" height="1" fill="rgb(70,124,206)"/>
  <rect x="12" y="14" width="1" height="1" fill="rgb(125,125,125)"/>
  <rect x="13" y="14" width="1" height="1" fill="rgb(33,33,33)" fill-opacity="0.8046875"/>
  <rect x="14" y="14" width="7" height="1" fill="rgb(255,255,255)" fill-opacity="0.0078125"/>
  <rect x="0" y="15" width="4" height="1" fill="rgb(255,255,255)" fill-opacity="0.0078125"/>
  <rect x="4" y="15" width="1" height="1" fill="rgb(70,70,70)" fill-opacity="0.7890625"/>
  <rect x="5" y="15" width="1" height="1" fill="rgb(233,233,233)"/>
  <rect x="6" y="15" width="1" height="1" fill="rgb(234,234,234)"/>
  <rect x="7" y="15" width="1" height="1" fill="rgb(237,237,237)"/>
  <rect x="8" y="15" width="1" height="1" fill="rgb(230,230,231)"/>
  <rect x="9" y="15" width="1" height="1" fill="rgb(213,213,214)"/>
  <rect x="10" y="15" width="1" height="1" fill="rgb(185,185,185)"/>
  <rect x="11" y="15" width="1" height="1" fill="rgb(141,141,141)"/>
  <rect x="12" y="15" width="1" height="1" fill="rgb(83,83,83)"/>
  <rect x="13" y="15" width="1" height="1" fill="rgb(32,32,32)" fill-opacity="0.8125"/>
  <rect x="14" y="15" width="7" height="1" fill="rgb(255,255,255)" fill-opacity="0.0078125"/>
  <rect x="0" y="16" width="4" height="1" fill="rgb(255,255,255)" fill-opacity="0.0078125"/>
  <rect x="4" y="16" width="1" height="1" fill="rgb(43,43,43)" fill-opacity="0.4921875"/>
  <rect x="5" y="16" width="1" height="1" fill="rgb(124,124,124)" fill-opacity="0.8515625"/>
  <rect x="6" y="16" width="1" height="1" fill="rgb(189,189,189)"/>
  <rect x="7" y="16" width="1" height="1" fill="rgb(186,186,186)"/>
  <rect x="8" y="16" width="1" height="1" fill="rgb(165,165,165)"/>
  <rect x="9" y="16" width="1" height="1" fill="rgb(143,143,143)"/>
  <rect x="10" y="16" width="1" height="1" fill="rgb(121,121,121)"/>
  <rect x="11" y="16" width="1" height="1" fill="rgb(92,92,92)"/>
  <rect x="12" y="16" width="1" height="1" fill="rgb(50,50,50)" fill-opacity="0.875"/>
  <rect x="13" y="16" width="1" height="1" fill="rgb(30,30,30)" fill-opacity="0.5"/>
  <rect x="14" y="16" width="7" height="1" fill="rgb(255,255,255)" fill-opacity="0.0078125"/>
  <rect x="0" y="17" width="5" height="1" fill="rgb(255,255,255)" fill-opacity="0.0078125"/>
  <rect x="5" y="17" width="1" height="1" fill="rgb(26,26,26)" fill-opacity="0.234375"/>
  <rect x="6" y="17" width="1" height="1" fill="rgb(42,42,42)" fill-opacity="0.53125"/>
  <rect x="7" y="17" width="1" height="1" fill="rgb(50,50,50)" fill-opacity="0.6953125"/>
  <rect x="8" y="17" width="1" height="1" fill="rgb(57,57,57)" fill-opacity="0.7734375"/>
  <rect x="9" y="17" width="1" height="1" fill="rgb(53,53,53)" fill-opacity="0.78125"/>
  <rect x="10" y="17" width="1" height="1" fill="rgb(40,40,40)" fill-opacity="0.703125"/>
  <rect x="11" y="17" width="1" height="1" fill="rgb(34,34,34)" fill-opacity="0.5390625"/>
  <rect x="12" y="17" width="1" height="1" fill="rgb(26,26,26)" fill-opacity="0.234375"/>
  <rect x="13" y="17" width="8" height="1" fill="rgb(255,255,255)" fill-opacity="0.0078125"/>
  <rect x="0" y="18" width="21" height="1" fill="rgb(255,255,255)" fill-opacity="0.0078125"/>
  <rect x="0" y="19" width="21" height="1" fill="rgb(255,255,255)" fill-opacity="0.0078125"/>
  <rect x="0" y="20" width="21" height="1" fill="rgb(255,255,255)" fill-opacity="0.0078125"/>
</svg>