<svg xmlns="http://www.w3.org/2000/svg" shape-rendering="crispEdges" width="21" height="21" viewBox="0 0 21 21">
  <rect x="0" y="0" width="1" height="21" fill="rgb(255,255,255)" fill-opacity="0.0078125"/>
  <rect x="1" y="0" width="1" height="21" fill="rgb(255,255,255)" fill-opacity="0.0078125"/>
  <rect x="2" y="0" width="1" height="21" fill="rgb(255,255,255)" fill-opacity="0.0078125"/>
  <rect x="3" y="0" width="1" height="21" fill="rgb(255,255,255)" fill-opacity="0.0078125"/>
  <rect x="4" y="0" width="1" height="21" fill="rgb(255,255,255)" fill-opacity="0.0078125"/>
  <rect x="5" y="0" width="1" height="21" fill="rgb(255,255,255)" fill-opacity="0.0078125"/>
  <rect x="6" y="0" width="1" height="4" fill="rgb(255,255,255)" fill-opacity="0.0078125"/>
  <rect x="6" y="4" width="1" height="1" fill="rgb(43,23,0)" fill-opacity="0.359375"/>
  <rect x="6" y="5" width="1" height="1" fill="rgb(44,22,0)" fill-opacity="0.6015625"/>
  <rect x="6" y="6" width="1" height="1" fill="rgb(43,23,0)" fill-opacity="0.359375"/>
  <rect x="6" y="7" width="1" height="8" fill="rgb(255,255,255)" fill-opacity="0.0078125"/>
  <rect x="6" y="15" width="1" height="1" fill="rgb(43,23,0)" fill-opacity="0.359375"/>
  <rect x="6" y="16" width="1" height="1" fill="rgb(44,22,0)" fill-opacity="0.6015625"/>
  <rect x="6" y="17" width="1" height="1" fill="rgb(43,23,0)" fill-opacity="0.359375"/>
  <rect x="6" y="18" width="1" height="3" fill="rgb(255,255,255)" fill-opacity="0.0078125"/>
  <rect x="7" y="0" width="1" height="4" fill="rgb(255,255,255)" fill-opacity="0.0078125"/>
  <rect x="7" y="4" width="1" height="1" fill="rgb(44,22,0)" fill-opacity="0.6015625"/>
  <rect x="7" y="5" width="1" height="1" fill="rgb(250,221,190)"/>
  <rect x="7" y="6" width="1" height="1" fill="rgb(43,22,0)" fill-opacity="0.8359375"/>
  <rect x="7" y="7" width="1" height="8" fill="rgb(44,22,0)" fill-opacity="0.6015625"/>
  <rect x="7" y="15" width="1" height="1" fill="rgb(43,22,0)" fill-opacity="0.8359375"/>
  <rect x="7" y="16" width="1" height="1" fill="rgb(246,190,129)"/>
  <rect x="7" y="17" width="1" height="1" fill="rgb(44,22,0)" fill-opacity="0.6015625"/>
  <rect x="7" y="18" width="1" height="3" fill="rgb(255,255,255)" fill-opacity="0.0078125"/>
  <rect x="8" y="0" width="1" height="4" fill="rgb(255,255,255)" fill-opacity="0.0078125"/>
  <rect x="8" y="4" width="1" height="1" fill="rgb(44,22,0)" fill-opacity="0.6015625"/>
  <rect x="8" y="5" width="1" height="1" fill="rgb(247,194,136)"/>
  <rect x="8" y="6" width="1" height="1" fill="rgb(251,226,199)"/>
  <rect x="8" y="7" width="1" height="1" fill="rgb(251,224,194)"/>
  <rect x="8" y="8" width="1" height="1" fill="rgb(251,221,190)"/>
  <rect x="8" y="9" width="1" height="1" fill="rgb(250,219,186)"/>
  <rect x="8" y="10" width="1" height="1" fill="rgb(250,217,182)"/>
  <rect x="8" y="11" width="1" height="1" fill="rgb(250,215,177)"/>
  <rect x="8" y="12" width="1" height="1" fill="rgb(249,212,173)"/>
  <rect x="8" y="13" width="1" height="1" fill="rgb(249,211,169)"/>
  <rect x="8" y="14" width="1" height="1" fill="rgb(248,208,165)"/>
  <rect x="8" y="15" width="1" height="1" fill="rgb(248,206,161)"/>
  <rect x="8" y="16" width="1" height="1" fill="rgb(239,138,30)"/>
  <rect x="8" y="17" width="1" height="1" fill="rgb(44,22,0)" fill-opacity="0.6015625"/>
  <rect x="8" y="18" width="1" height="3" fill="rgb(255,255,255)" fill-opacity="0.0078125"/>
  <rect x="9" y="0" width="1" height="4" fill="rgb(255,255,255)" fill-opacity="0.0078125"/>
  <rect x="9" y="4" width="1" height="1" fill="rgb(44,22,0)" fill-opacity="0.6015625"/>
  <rect x="9" y="5" width="1" height="1" fill="rgb(246,191,131)"/>
  <rect x="9" y="6" width="1" height="1" fill="rgb(246,186,121)"/>
  <rect x="9" y="7" width="1" height="1" fill="rgb(245,181,111)"/>
  <rect x="9" y="8" width="1" height="1" fill="rgb(244,176,102)"/>
  <rect x="9" y="9" width="1" height="1" fill="rgb(244,171,92)"/>
  <rect x="9" y="10" width="1" height="1" fill="rgb(243,166,83)"/>
  <rect x="9" y="11" width="1" height="1" fill="rgb(242,161,73)"/>
  <rect x="9" y="12" width="1" height="1" fill="rgb(241,156,63)"/>
  <rect x="9" y="13" width="1" height="1" fill="rgb(241,151,54)"/>
  <rect x="9" y="14" width="1" height="1" fill="rgb(240,146,44)"/>
  <rect x="9" y="15" width="1" height="1" fill="rgb(239,141,34)"/>
  <rect x="9" y="16" width="1" height="1" fill="rgb(239,136,24)"/>
  <rect x="9" y="17" width="1" height="1" fill="rgb(44,22,0)" fill-opacity="0.6015625"/>
  <rect x="9" y="18" width="1" height="3" fill="rgb(255,255,255)" fill-opacity="0.0078125"/>
  <rect x="10" y="0" width="1" height="4" fill="rgb(255,255,255)" fill-opacity="0.0078125"/>
  <rect x="10" y="4" width="1" height="1" fill="rgb(44,22,0)" fill-opacity="0.6015625"/>
  <rect x="10" y="5" width="1" height="1" fill="rgb(246,188,125)"/>
  <rect x="10" y="6" width="1" height="1" fill="rgb(43,22,0)" fill-opacity="0.8359375"/>
  <rect x="10" y="7" width="1" height="3" fill="rgb(44,22,0)" fill-opacity="0.6015625"/>
  <rect x="10" y="10" width="1" height="1" fill="rgb(43,22,0)" fill-opacity="0.8359375"/>
  <rect x="10" y="11" width="1" height="1" fill="rgb(242,158,67)"/>
  <rect x="10" y="12" width="1" height="1" fill="rgb(43,22,0)" fill-opacity="0.8359375"/>
  <rect x="10" y="13" width="1" height="2" fill="rgb(44,22,0)" fill-opacity="0.6015625"/>
  <rect x="10" y="15" width="1" height="1" fill="rgb(43,22,0)" fill-opacity="0.8359375"/>
  <rect x="10" y="16" width="1" height="1" fill="rgb(238,133,19)"/>
  <rect x="10" y="17" width="1" height="1" fill="rgb(44,22,0)" fill-opacity="0.6015625"/>
  <rect x="10" y="18" width="1" height="3" fill="rgb(255,255,255)" fill-opacity="0.0078125"/>
  <rect x="11" y="0" width="1" height="4" fill="rgb(255,255,255)" fill-opacity="0.0078125"/>
  <rect x="11" y="4" width="1" height="1" fill="rgb(44,22,0)" fill-opacity="0.6015625"/>
  <rect x="11" y="5" width="1" height="1" fill="rgb(245,185,120)"/>
  <rect x="11" y="6" width="1" height="1" fill="rgb(44,22,0)" fill-opacity="0.6015625"/>
  <rect x="11" y="7" width="1" height="3" fill="rgb(255,255,255)" fill-opacity="0.0078125"/>
  <rect x="11" y="10" width="1" height="1" fill="rgb(44,22,0)" fill-opacity="0.6015625"/>
  <rect x="11" y="11" width="1" height="1" fill="rgb(241,155,62)"/>
  <rect x="11" y="12" width="1" height="1" fill="rgb(44,22,0)" fill-opacity="0.6015625"/>
  <rect x="11" y="13" width="1" height="2" fill="rgb(255,255,255)" fill-opacity="0.0078125"/>
  <rect x="11" y="15" width="1" height="1" fill="rgb(43,23,0)" fill-opacity="0.359375"/>
  <rect x="11" y="16" width="1" height="1" fill="rgb(44,22,0)" fill-opacity="0.6015625"/>
  <rect x="11" y="17" width="1" height="1" fill="rgb(43,23,0)" fill-opacity="0.359375"/>
  <rect x="11" y="18" width="1" height="3" fill="rgb(255,255,255)" fill-opacity="0.0078125"/>
  <rect x="12" y="0" width="1" height="4" fill="rgb(255,255,255)" fill-opacity="0.0078125"/>
  <rect x="12" y="4" width="1" height="1" fill="rgb(44,22,0)" fill-opacity="0.6015625"/>
  <rect x="12" y="5" width="1" height="1" fill="rgb(245,182,114)"/>
  <rect x="12" y="6" width="1" height="1" fill="rgb(44,22,0)" fill-opacity="0.6015625"/>
  <rect x="12" y="7" width="1" height="2" fill="rgb(255,255,255)" fill-opacity="0.0078125"/>
  <rect x="12" y="9" width="1" height="1" fill="rgb(43,23,0)" fill-opacity="0.359375"/>
  <rect x="12" y="10" width="1" height="1" fill="rgb(43,22,0)" fill-opacity="0.8359375"/>
  <rect x="12" y="11" width="1" height="1" fill="rgb(241,152,57)"/>
  <rect x="12" y="12" width="1" height="1" fill="rgb(43,22,0)" fill-opacity="0.8359375"/>
  <rect x="12" y="13" width="1" height="1" fill="rgb(43,23,0)" fill-opacity="0.359375"/>
  <rect x="12" y="14" width="1" height="7" fill="rgb(255,255,255)" fill-opacity="0.0078125"/>
  <rect x="13" y="0" width="1" height="4" fill="rgb(255,255,255)" fill-opacity="0.0078125"/>
  <rect x="13" y="4" width="1" height="1" fill="rgb(44,22,0)" fill-opacity="0.6015625"/>
  <rect x="13" y="5" width="1" height="1" fill="rgb(245,179,109)"/>
  <rect x="13" y="6" width="1" height="1" fill="rgb(44,22,0)" fill-opacity="0.6015625"/>
  <rect x="13" y="7" width="1" height="2" fill="rgb(255,255,255)" fill-opacity="0.0078125"/>
  <rect x="13" y="9" width="1" height="1" fill="rgb(44,22,0)" fill-opacity="0.6015625"/>
  <rect x="13" y="10" width="1" height="1" fill="rgb(247,197,144)"/>
  <rect x="13" y="11" width="1" height="1" fill="rgb(241,149,51)"/>
  <rect x="13" y="12" width="1" height="1" fill="rgb(246,191,132)"/>
  <rect x="13" y="13" width="1" height="1" fill="rgb(44,22,0)" fill-opacity="0.6015625"/>
  <rect x="13" y="14" width="1" height="7" fill="rgb(255,255,255)" fill-opacity="0.0078125"/>
  <rect x="14" y="0" width="1" height="4" fill="rgb(255,255,255)" fill-opacity="0.0078125"/>
  <rect x="14" y="4" width="1" height="1" fill="rgb(44,22,0)" fill-opacity="0.6015625"/>
  <rect x="14" y="5" width="1" height="1" fill="rgb(244,177,103)"/>
  <rect x="14" y="6" width="1" height="1" fill="rgb(43,22,0)" fill-opacity="0.8359375"/>
  <rect x="14" y="7" width="1" height="1" fill="rgb(43,23,0)" fill-opacity="0.359375"/>
  <rect x="14" y="8" width="1" height="1" fill="rgb(255,255,255)" fill-opacity="0.0078125"/>
  <rect x="14" y="9" width="1" height="1" fill="rgb(43,23,0)" fill-opacity="0.359375"/>
  <rect x="14" y="10" width="1" height="3" fill="rgb(44,22,0)" fill-opacity="0.6015625"/>
  <rect x="14" y="13" width="1" height="1" fill="rgb(43,23,0)" fill-opacity="0.359375"/>
  <rect x="14" y="14" width="1" height="7" fill="rgb(255,255,255)" fill-opacity="0.0078125"/>
  <rect x="15" y="0" width="1" height="4" fill="rgb(255,255,255)" fill-opacity="0.0078125"/>
  <rect x="15" y="4" width="1" height="1" fill="rgb(44,22,0)" fill-opacity="0.6015625"/>
  <rect x="15" y="5" width="1" height="1" fill="rgb(244,174,98)"/>
  <rect x="15" y="6" width="1" height="1" fill="rgb(248,206,159)"/>
  <rect x="15" y="7" width="1" height="1" fill="rgb(44,22,0)" fill-opacity="0.6015625"/>
  <rect x="15" y="8" width="1" height="13" fill="rgb(255,255,255)" fill-opacity="0.0078125"/>
  <rect x="16" y="0" width="1" height="4" fill="rgb(255,255,255)" fill-opacity="0.0078125"/>
  <rect x="16" y="4" width="1" height="1" fill="rgb(43,23,0)" fill-opacity="0.359375"/>
  <rect x="16" y="5" width="1" height="2" fill="rgb(44,22,0)" fill-opacity="0.6015625"/>
  <rect x="16" y="7" width="1" height="1" fill="rgb(43,23,0)" fill-opacity="0.359375"/>
  <rect x="16" y="8" width="1" height="13" fill="rgb(255,255,255)" fill-opacity="0.0078125"/>
  <rect x="17" y="0" width="1" height="21" fill="rgb(255,255,255)" fill-opacity="0.0078125"/>
  <rect x="18" y="0" width="1" height="21" fill="rgb(255,255,255)" fill-opacity="0.0078125"/>
  <rect x="19" y="0" width="1" height="21" fill="rgb(255,255,255)" fill-opacity="0.0078125"/>
  <rect x="20" y="0" width="1" height="21" fill="rgb(255,255,255)" fill-opacity="0.0078125"/>
</svg>