<svg xmlns="http://www.w3.org/2000/svg" shape-rendering="crispEdges" width="21" height="21" viewBox="0 0 21 21">
  <rect x="0" y="0" width="1" height="21" fill="rgb(255,255,255)" fill-opacity="0.0078125"/>
  <rect x="1" y="0" width="1" height="21" fill="rgb(255,255,255)" fill-opacity="0.0078125"/>
  <rect x="2" y="0" width="1" height="21" fill="rgb(255,255,255)" fill-opacity="0.0078125"/>
  <rect x="3" y="0" width="1" height="5" fill="rgb(255,255,255)" fill-opacity="0.0078125"/>
  <rect x="3" y="5" width="1" height="1" fill="rgb(45,45,45)" fill-opacity="0.2265625"/>
  <rect x="3" y="6" width="1" height="1" fill="rgb(57,57,57)" fill-opacity="0.859375"/>
  <rect x="3" y="7" width="1" height="1" fill="rgb(43,43,43)" fill-opacity="0.90625"/>
  <rect x="3" y="8" width="1" height="7" fill="rgb(43,43,43)" fill-opacity="0.9140625"/>
  <rect x="3" y="15" width="1" height="1" fill="rgb(42,42,42)" fill-opacity="0.90625"/>
  <rect x="3" y="16" width="1" height="1" fill="rgb(37,37,37)" fill-opacity="0.7890625"/>
  <rect x="3" y="17" width="1" height="1" fill="rgb(27,27,27)" fill-opacity="0.1875"/>
  <rect x="3" y="18" width="1" height="3" fill="rgb(255,255,255)" fill-opacity="0.0078125"/>
  <rect x="4" y="0" width="1" height="4" fill="rgb(255,255,255)" fill-opacity="0.0078125"/>
  <rect x="4" y="4" width="1" height="1" fill="rgb(25,25,25)" fill-opacity="0.484375"/>
  <rect x="4" y="5" width="1" height="1" fill="rgb(27,27,27)"/>
  <rect x="4" y="6" width="1" height="1" fill="rgb(189,189,189)"/>
  <rect x="4" y="7" width="1" height="1" fill="rgb(221,221,221)"/>
  <rect x="4" y="8" width="1" height="1" fill="rgb(203,203,203)"/>
  <rect x="4" y="9" width="1" height="1" fill="rgb(179,179,179)"/>
  <rect x="4" y="10" width="1" height="5" fill="rgb(120,120,120)"/>
  <rect x="4" y="15" width="1" height="1" fill="rgb(140,140,140)"/>
  <rect x="4" y="16" width="1" height="1" fill="rgb(169,169,169)"/>
  <rect x="4" y="17" width="1" height="1" fill="rgb(37,37,37)" fill-opacity="0.7890625"/>
  <rect x="4" y="18" width="1" height="3" fill="rgb(255,255,255)" fill-opacity="0.0078125"/>
  <rect x="5" y="0" width="1" height="4" fill="rgb(255,255,255)" fill-opacity="0.0078125"/>
  <rect x="5" y="4" width="1" height="1" fill="rgb(26,26,26)" fill-opacity="0.859375"/>
  <rect x="5" y="5" width="1" height="1" fill="rgb(255,255,255)"/>
  <rect x="5" y="6" width="1" height="1" fill="rgb(168,168,168)"/>
  <rect x="5" y="7" width="1" height="1" fill="rgb(217,217,217)"/>
  <rect x="5" y="8" width="1" height="2" fill="rgb(180,180,180)"/>
  <rect x="5" y="10" width="1" height="1" fill="rgb(76,76,76)"/>
  <rect x="5" y="11" width="1" height="2" fill="rgb(70,70,70)"/>
  <rect x="5" y="13" width="1" height="2" fill="rgb(69,69,69)"/>
  <rect x="5" y="15" width="1" height="1" fill="rgb(70,70,70)"/>
  <rect x="5" y="16" width="1" height="1" fill="rgb(199,199,199)"/>
  <rect x="5" y="17" width="1" height="1" fill="rgb(41,41,41)" fill-opacity="0.90625"/>
  <rect x="5" y="18" width="1" height="3" fill="rgb(255,255,255)" fill-opacity="0.0078125"/>
  <rect x="6" y="0" width="1" height="4" fill="rgb(255,255,255)" fill-opacity="0.0078125"/>
  <rect x="6" y="4" width="1" height="1" fill="rgb(26,26,26)" fill-opacity="0.8515625"/>
  <rect x="6" y="5" width="1" height="1" fill="rgb(255,255,255)"/>
  <rect x="6" y="6" width="1" height="1" fill="rgb(168,168,168)"/>
  <rect x="6" y="7" width="1" height="1" fill="rgb(215,215,215)"/>
  <rect x="6" y="8" width="1" height="2" fill="rgb(175,175,175)"/>
  <rect x="6" y="10" width="1" height="1" fill="rgb(71,71,71)"/>
  <rect x="6" y="11" width="1" height="5" fill="rgb(64,64,64)"/>
  <rect x="6" y="16" width="1" height="1" fill="rgb(195,195,195)"/>
  <rect x="6" y="17" width="1" height="1" fill="rgb(41,41,41)" fill-opacity="0.9140625"/>
  <rect x="6" y="18" width="1" height="3" fill="rgb(255,255,255)" fill-opacity="0.0078125"/>
  <rect x="7" y="0" width="1" height="4" fill="rgb(255,255,255)" fill-opacity="0.0078125"/>
  <rect x="7" y="4" width="1" height="1" fill="rgb(26,26,26)" fill-opacity="0.4609375"/>
  <rect x="7" y="5" width="1" height="1" fill="rgb(26,26,26)"/>
  <rect x="7" y="6" width="1" height="1" fill="rgb(216,216,216)"/>
  <rect x="7" y="7" width="1" height="1" fill="rgb(213,213,213)"/>
  <rect x="7" y="8" width="1" height="2" fill="rgb(170,170,170)"/>
  <rect x="7" y="10" width="1" height="1" fill="rgb(65,65,65)"/>
  <rect x="7" y="11" width="1" height="3" fill="rgb(59,59,59)"/>
  <rect x="7" y="14" width="1" height="2" fill="rgb(58,58,58)"/>
  <rect x="7" y="16" width="1" height="1" fill="rgb(191,191,191)"/>
  <rect x="7" y="17" width="1" height="1" fill="rgb(41,41,41)" fill-opacity="0.9140625"/>
  <rect x="7" y="18" width="1" height="3" fill="rgb(255,255,255)" fill-opacity="0.0078125"/>
  <rect x="8" y="0" width="1" height="5" fill="rgb(255,255,255)" fill-opacity="0.0078125"/>
  <rect x="8" y="5" width="1" height="1" fill="rgb(55,55,55)" fill-opacity="0.953125"/>
  <rect x="8" y="6" width="1" height="1" fill="rgb(255,255,255)"/>
  <rect x="8" y="7" width="1" height="1" fill="rgb(211,211,211)"/>
  <rect x="8" y="8" width="1" height="1" fill="rgb(255,0,0)"/>
  <rect x="8" y="9" width="1" height="1" fill="rgb(166,166,166)"/>
  <rect x="8" y="10" width="1" height="1" fill="rgb(58,58,58)"/>
  <rect x="8" y="11" width="1" height="1" fill="rgb(50,50,50)"/>
  <rect x="8" y="12" width="1" height="2" fill="rgb(49,49,49)"/>
  <rect x="8" y="14" width="1" height="1" fill="rgb(51,51,51)"/>
  <rect x="8" y="15" width="1" height="1" fill="rgb(53,53,53)"/>
  <rect x="8" y="16" width="1" height="1" fill="rgb(188,188,188)"/>
  <rect x="8" y="17" width="1" height="1" fill="rgb(40,40,40)" fill-opacity="0.9140625"/>
  <rect x="8" y="18" width="1" height="3" fill="rgb(255,255,255)" fill-opacity="0.0078125"/>
  <rect x="9" y="0" width="1" height="5" fill="rgb(255,255,255)" fill-opacity="0.0078125"/>
  <rect x="9" y="5" width="1" height="1" fill="rgb(55,55,55)" fill-opacity="0.953125"/>
  <rect x="9" y="6" width="1" height="1" fill="rgb(255,255,255)"/>
  <rect x="9" y="7" width="1" height="1" fill="rgb(208,208,208)"/>
  <rect x="9" y="8" width="1" height="1" fill="rgb(161,161,161)"/>
  <rect x="9" y="9" width="1" height="1" fill="rgb(150,150,150)"/>
  <rect x="9" y="10" width="1" height="1" fill="rgb(132,132,132)"/>
  <rect x="9" y="11" width="1" height="1" fill="rgb(225,225,225)"/>
  <rect x="9" y="12" width="1" height="1" fill="rgb(177,177,177)"/>
  <rect x="9" y="13" width="1" height="1" fill="rgb(168,168,168)"/>
  <rect x="9" y="14" width="1" height="1" fill="rgb(119,119,119)"/>
  <rect x="9" y="15" width="1" height="1" fill="rgb(54,54,54)"/>
  <rect x="9" y="16" width="1" height="1" fill="rgb(167,167,167)"/>
  <rect x="9" y="17" width="1" height="1" fill="rgb(40,40,40)" fill-opacity="0.9140625"/>
  <rect x="9" y="18" width="1" height="3" fill="rgb(255,255,255)" fill-opacity="0.0078125"/>
  <rect x="10" y="0" width="1" height="5" fill="rgb(255,255,255)" fill-opacity="0.0078125"/>
  <rect x="10" y="5" width="1" height="1" fill="rgb(55,55,55)" fill-opacity="0.953125"/>
  <rect x="10" y="6" width="1" height="1" fill="rgb(255,255,255)"/>
  <rect x="10" y="7" width="1" height="1" fill="rgb(206,206,206)"/>
  <rect x="10" y="8" width="1" height="1" fill="rgb(149,149,149)"/>
  <rect x="10" y="9" width="1" height="1" fill="rgb(186,186,186)"/>
  <rect x="10" y="10" width="1" height="1" fill="rgb(232,232,232)"/>
  <rect x="10" y="11" width="1" height="1" fill="rgb(172,173,173)"/>
  <rect x="10" y="12" width="1" height="1" fill="rgb(82,93,109)"/>
  <rect x="10" y="13" width="1" height="1" fill="rgb(52,62,76)"/>
  <rect x="10" y="14" width="1" height="1" fill="rgb(88,89,90)"/>
  <rect x="10" y="15" width="1" height="1" fill="rgb(174,174,174)"/>
  <rect x="10" y="16" width="1" height="1" fill="rgb(116,116,116)"/>
  <rect x="10" y="17" width="1" height="1" fill="rgb(34,34,34)" fill-opacity="0.921875"/>
  <rect x="10" y="18" width="1" height="3" fill="rgb(255,255,255)" fill-opacity="0.0078125"/>
  <rect x="11" y="0" width="1" height="5" fill="rgb(255,255,255)" fill-opacity="0.0078125"/>
  <rect x="11" y="5" width="1" height="1" fill="rgb(55,55,55)" fill-opacity="0.953125"/>
  <rect x="11" y="6" width="1" height="1" fill="rgb(255,255,255)"/>
  <rect x="11" y="7" width="1" height="1" fill="rgb(203,203,203)"/>
  <rect x="11" y="8" width="1" height="1" fill="rgb(139,139,139)"/>
  <rect x="11" y="9" width="1" height="1" fill="rgb(229,229,229)"/>
  <rect x="11" y="10" width="1" height="1" fill="rgb(198,198,198)"/>
  <rect x="11" y="11" width="1" height="1" fill="rgb(83,92,105)"/>
  <rect x="11" y="12" width="1" height="1" fill="rgb(108,124,148)"/>
  <rect x="11" y="13" width="1" height="1" fill="rgb(53,56,69)"/>
  <rect x="11" y="14" width="1" height="1" fill="rgb(48,27,26)"/>
  <rect x="11" y="15" width="1" height="1" fill="rgb(120,109,107)"/>
  <rect x="11" y="16" width="1" height="1" fill="rgb(163,163,163)"/>
  <rect x="11" y="17" width="1" height="1" fill="rgb(18,18,18)" fill-opacity="0.9609375"/>
  <rect x="11" y="18" width="1" height="3" fill="rgb(255,255,255)" fill-opacity="0.0078125"/>
  <rect x="12" y="0" width="1" height="5" fill="rgb(255,255,255)" fill-opacity="0.0078125"/>
  <rect x="12" y="5" width="1" height="1" fill="rgb(54,54,54)" fill-opacity="0.953125"/>
  <rect x="12" y="6" width="1" height="1" fill="rgb(255,255,255)"/>
  <rect x="12" y="7" width="1" height="1" fill="rgb(201,201,201)"/>
  <rect x="12" y="8" width="1" height="1" fill="rgb(132,132,132)"/>
  <rect x="12" y="9" width="1" height="1" fill="rgb(251,251,251)"/>
  <rect x="12" y="10" width="1" height="1" fill="rgb(177,177,177)"/>
  <rect x="12" y="11" width="1" height="1" fill="rgb(48,55,65)"/>
  <rect x="12" y="12" width="1" height="1" fill="rgb(52,53,63)"/>
  <rect x="12" y="13" width="1" height="1" fill="rgb(65,38,38)"/>
  <rect x="12" y="14" width="1" height="1" fill="rgb(86,38,31)"/>
  <rect x="12" y="15" width="1" height="1" fill="rgb(108,72,67)"/>
  <rect x="12" y="16" width="1" height="1" fill="rgb(206,206,206)"/>
  <rect x="12" y="17" width="1" height="1" fill="rgb(11,11,11)" fill-opacity="0.96875"/>
  <rect x="12" y="18" width="1" height="3" fill="rgb(255,255,255)" fill-opacity="0.0078125"/>
  <rect x="13" y="0" width="1" height="5" fill="rgb(255,255,255)" fill-opacity="0.0078125"/>
  <rect x="13" y="5" width="1" height="1" fill="rgb(54,54,54)" fill-opacity="0.953125"/>
  <rect x="13" y="6" width="1" height="1" fill="rgb(255,255,255)"/>
  <rect x="13" y="7" width="1" height="1" fill="rgb(198,198,198)"/>
  <rect x="13" y="8" width="1" height="1" fill="rgb(129,129,129)"/>
  <rect x="13" y="9" width="1" height="1" fill="rgb(219,219,219)"/>
  <rect x="13" y="10" width="1" height="1" fill="rgb(193,193,193)"/>
  <rect x="13" y="11" width="1" height="1" fill="rgb(89,89,90)"/>
  <rect x="13" y="12" width="1" height="1" fill="rgb(47,23,21)"/>
  <rect x="13" y="13" width="1" height="1" fill="rgb(87,38,32)"/>
  <rect x="13" y="14" width="1" height="1" fill="rgb(136,65,56)"/>
  <rect x="13" y="15" width="1" height="1" fill="rgb(159,134,131)"/>
  <rect x="13" y="16" width="1" height="1" fill="rgb(184,184,184)"/>
  <rect x="13" y="17" width="1" height="1" fill="rgb(11,11,11)" fill-opacity="0.9765625"/>
  <rect x="13" y="18" width="1" height="3" fill="rgb(255,255,255)" fill-opacity="0.0078125"/>
  <rect x="14" y="0" width="1" height="5" fill="rgb(255,255,255)" fill-opacity="0.0078125"/>
  <rect x="14" y="5" width="1" height="1" fill="rgb(54,54,54)" fill-opacity="0.953125"/>
  <rect x="14" y="6" width="1" height="1" fill="rgb(255,255,255)"/>
  <rect x="14" y="7" width="1" height="1" fill="rgb(196,196,196)"/>
  <rect x="14" y="8" width="1" height="1" fill="rgb(131,131,131)"/>
  <rect x="14" y="9" width="1" height="1" fill="rgb(158,158,158)"/>
  <rect x="14" y="10" width="1" height="1" fill="rgb(179,179,179)"/>
  <rect x="14" y="11" width="1" height="1" fill="rgb(183,183,183)"/>
  <rect x="14" y="12" width="1" height="1" fill="rgb(123,111,110)"/>
  <rect x="14" y="13" width="1" height="1" fill="rgb(112,75,70)"/>
  <rect x="14" y="14" width="1" height="1" fill="rgb(163,135,131)"/>
  <rect x="14" y="15" width="1" height="1" fill="rgb(235,235,235)"/>
  <rect x="14" y="16" width="1" height="1" fill="rgb(125,125,125)"/>
  <rect x="14" y="17" width="1" height="1" fill="rgb(17,17,17)" fill-opacity="0.9609375"/>
  <rect x="14" y="18" width="1" height="3" fill="rgb(255,255,255)" fill-opacity="0.0078125"/>
  <rect x="15" y="0" width="1" height="5" fill="rgb(255,255,255)" fill-opacity="0.0078125"/>
  <rect x="15" y="5" width="1" height="1" fill="rgb(54,54,54)" fill-opacity="0.953125"/>
  <rect x="15" y="6" width="1" height="1" fill="rgb(255,255,255)"/>
  <rect x="15" y="7" width="1" height="1" fill="rgb(100,112,129)"/>
  <rect x="15" y="8" width="1" height="1" fill="rgb(30,35,43)"/>
  <rect x="15" y="9" width="1" height="1" fill="rgb(122,122,122)"/>
  <rect x="15" y="10" width="1" height="1" fill="rgb(72,72,72)"/>
  <rect x="15" y="11" width="1" height="1" fill="rgb(122,122,122)"/>
  <rect x="15" y="12" width="1" height="1" fill="rgb(155,155,155)"/>
  <rect x="15" y="13" width="1" height="1" fill="rgb(205,205,205)"/>
  <rect x="15" y="14" width="1" height="1" fill="rgb(169,169,169)"/>
  <rect x="15" y="15" width="1" height="1" fill="rgb(66,66,66)"/>
  <rect x="15" y="16" width="1" height="1" fill="rgb(95,95,95)"/>
  <rect x="15" y="17" width="1" height="1" fill="rgb(30,30,30)" fill-opacity="0.921875"/>
  <rect x="15" y="18" width="1" height="3" fill="rgb(255,255,255)" fill-opacity="0.0078125"/>
  <rect x="16" y="0" width="1" height="5" fill="rgb(255,255,255)" fill-opacity="0.0078125"/>
  <rect x="16" y="5" width="1" height="1" fill="rgb(52,52,52)" fill-opacity="0.953125"/>
  <rect x="16" y="6" width="1" height="1" fill="rgb(255,255,255)"/>
  <rect x="16" y="7" width="1" height="1" fill="rgb(96,97,97)"/>
  <rect x="16" y="8" width="1" height="1" fill="rgb(0,0,0)"/>
  <rect x="16" y="9" width="1" height="1" fill="rgb(127,127,127)"/>
  <rect x="16" y="10" width="1" height="1" fill="rgb(24,24,24)"/>
  <rect x="16" y="11" width="1" height="1" fill="rgb(18,18,18)"/>
  <rect x="16" y="12" width="1" height="1" fill="rgb(13,13,13)"/>
  <rect x="16" y="13" width="1" height="2" fill="rgb(6,6,6)"/>
  <rect x="16" y="15" width="1" height="1" fill="rgb(8,8,8)"/>
  <rect x="16" y="16" width="1" height="1" fill="rgb(142,142,142)"/>
  <rect x="16" y="17" width="1" height="1" fill="rgb(35,35,35)" fill-opacity="0.90625"/>
  <rect x="16" y="18" width="1" height="3" fill="rgb(255,255,255)" fill-opacity="0.0078125"/>
  <rect x="17" y="0" width="1" height="5" fill="rgb(255,255,255)" fill-opacity="0.0078125"/>
  <rect x="17" y="5" width="1" height="1" fill="rgb(56,56,56)" fill-opacity="0.859375"/>
  <rect x="17" y="6" width="1" height="1" fill="rgb(214,214,214)"/>
  <rect x="17" y="7" width="1" height="1" fill="rgb(191,191,191)"/>
  <rect x="17" y="8" width="1" height="1" fill="rgb(155,155,155)"/>
  <rect x="17" y="9" width="1" height="1" fill="rgb(132,132,132)"/>
  <rect x="17" y="10" width="1" height="2" fill="rgb(77,77,77)"/>
  <rect x="17" y="12" width="1" height="3" fill="rgb(76,76,76)"/>
  <rect x="17" y="15" width="1" height="1" fill="rgb(95,95,95)"/>
  <rect x="17" y="16" width="1" height="1" fill="rgb(128,128,128)"/>
  <rect x="17" y="17" width="1" height="1" fill="rgb(32,32,32)" fill-opacity="0.7890625"/>
  <rect x="17" y="18" width="1" height="3" fill="rgb(255,255,255)" fill-opacity="0.0078125"/>
  <rect x="18" y="0" width="1" height="5" fill="rgb(255,255,255)" fill-opacity="0.0078125"/>
  <rect x="18" y="5" width="1" height="1" fill="rgb(45,45,45)" fill-opacity="0.203125"/>
  <rect x="18" y="6" width="1" height="1" fill="rgb(54,54,54)" fill-opacity="0.859375"/>
  <rect x="18" y="7" width="1" height="1" fill="rgb(35,35,35)" fill-opacity="0.90625"/>
  <rect x="18" y="8" width="1" height="7" fill="rgb(35,35,35)" fill-opacity="0.9140625"/>
  <rect x="18" y="15" width="1" height="1" fill="rgb(35,35,35)" fill-opacity="0.90625"/>
  <rect x="18" y="16" width="1" height="1" fill="rgb(32,32,32)" fill-opacity="0.7890625"/>
  <rect x="18" y="17" width="1" height="1" fill="rgb(27,27,27)" fill-opacity="0.1875"/>
  <rect x="18" y="18" width="1" height="3" fill="rgb(255,255,255)" fill-opacity="0.0078125"/>
  <rect x="19" y="0" width="1" height="21" fill="rgb(255,255,255)" fill-opacity="0.0078125"/>
  <rect x="20" y="0" width="1" height="21" fill="rgb(255,255,255)" fill-opacity="0.0078125"/>
</svg>