<svg xmlns="http://www.w3.org/2000/svg" shape-rendering="crispEdges" width="21" height="21" viewBox="0 0 21 21">
  <rect x="0" y="0" width="1" height="21" fill="rgb(255,255,255)" fill-opacity="0.0078125"/>
  <rect x="1" y="0" width="1" height="21" fill="rgb(255,255,255)" fill-opacity="0.0078125"/>
  <rect x="2" y="0" width="1" height="21" fill="rgb(255,255,255)" fill-opacity="0.0078125"/>
  <rect x="3" y="0" width="1" height="7" fill="rgb(255,255,255)" fill-opacity="0.0078125"/>
  <rect x="3" y="7" width="1" height="2" fill="rgb(0,0,0)" fill-opacity="0.0078125"/>
  <rect x="3" y="9" width="1" height="12" fill="rgb(255,255,255)" fill-opacity="0.0078125"/>
  <rect x="4" y="0" width="1" height="6" fill="rgb(255,255,255)" fill-opacity="0.0078125"/>
  <rect x="4" y="6" width="1" height="1" fill="rgb(0,0,0)" fill-opacity="0.015625"/>
  <rect x="4" y="7" width="1" height="2" fill="rgb(0,0,0)" fill-opacity="0.0234375"/>
  <rect x="4" y="9" width="1" height="1" fill="rgb(0,0,0)" fill-opacity="0.015625"/>
  <rect x="4" y="10" width="1" height="1" fill="rgb(0,0,0)" fill-opacity="0.0078125"/>
  <rect x="4" y="11" width="1" height="10" fill="rgb(255,255,255)" fill-opacity="0.0078125"/>
  <rect x="5" y="0" width="1" height="5" fill="rgb(255,255,255)" fill-opacity="0.0078125"/>
  <rect x="5" y="5" width="1" height="1" fill="rgb(0,0,0)" fill-opacity="0.015625"/>
  <rect x="5" y="6" width="1" height="1" fill="rgb(25,25,25)" fill-opacity="0.53125"/>
  <rect x="5" y="7" width="1" height="1" fill="rgb(49,49,49)" fill-opacity="0.9453125"/>
  <rect x="5" y="8" width="1" height="1" fill="rgb(38,38,38)" fill-opacity="0.9140625"/>
  <rect x="5" y="9" width="1" height="1" fill="rgb(39,39,39)" fill-opacity="0.90625"/>
  <rect x="5" y="10" width="1" height="1" fill="rgb(40,40,40)" fill-opacity="0.90625"/>
  <rect x="5" y="11" width="1" height="2" fill="rgb(41,41,41)" fill-opacity="0.90625"/>
  <rect x="5" y="13" width="1" height="2" fill="rgb(42,42,42)" fill-opacity="0.90625"/>
  <rect x="5" y="15" width="1" height="2" fill="rgb(43,43,43)" fill-opacity="0.90625"/>
  <rect x="5" y="17" width="1" height="1" fill="rgb(43,43,43)" fill-opacity="0.78125"/>
  <rect x="5" y="18" width="1" height="3" fill="rgb(255,255,255)" fill-opacity="0.0078125"/>
  <rect x="6" y="0" width="1" height="4" fill="rgb(255,255,255)" fill-opacity="0.0078125"/>
  <rect x="6" y="4" width="1" height="1" fill="rgb(0,0,0)" fill-opacity="0.015625"/>
  <rect x="6" y="5" width="1" height="1" fill="rgb(26,26,26)" fill-opacity="0.546875"/>
  <rect x="6" y="6" width="1" height="1" fill="rgb(88,88,88)" fill-opacity="0.9140625"/>
  <rect x="6" y="7" width="1" height="1" fill="rgb(254,254,254)"/>
  <rect x="6" y="8" width="1" height="1" fill="rgb(174,174,174)"/>
  <rect x="6" y="9" width="1" height="1" fill="rgb(209,209,209)"/>
  <rect x="6" y="10" width="1" height="1" fill="rgb(215,215,215)"/>
  <rect x="6" y="11" width="1" height="1" fill="rgb(217,217,217)"/>
  <rect x="6" y="12" width="1" height="1" fill="rgb(219,219,219)"/>
  <rect x="6" y="13" width="1" height="1" fill="rgb(221,221,221)"/>
  <rect x="6" y="14" width="1" height="1" fill="rgb(223,223,223)"/>
  <rect x="6" y="15" width="1" height="1" fill="rgb(226,226,226)"/>
  <rect x="6" y="16" width="1" height="1" fill="rgb(229,229,229)"/>
  <rect x="6" y="17" width="1" height="1" fill="rgb(46,46,46)" fill-opacity="0.9140625"/>
  <rect x="6" y="18" width="1" height="3" fill="rgb(255,255,255)" fill-opacity="0.0078125"/>
  <rect x="7" y="0" width="1" height="3" fill="rgb(255,255,255)" fill-opacity="0.0078125"/>
  <rect x="7" y="3" width="1" height="1" fill="rgb(0,0,0)" fill-opacity="0.015625"/>
  <rect x="7" y="4" width="1" height="1" fill="rgb(28,28,28)" fill-opacity="0.546875"/>
  <rect x="7" y="5" width="1" height="1" fill="rgb(90,90,90)" fill-opacity="0.9296875"/>
  <rect x="7" y="6" width="1" height="1" fill="rgb(254,254,254)"/>
  <rect x="7" y="7" width="1" height="1" fill="rgb(255,255,255)"/>
  <rect x="7" y="8" width="1" height="1" fill="rgb(103,25,16)"/>
  <rect x="7" y="9" width="1" height="1" fill="rgb(118,20,7)"/>
  <rect x="7" y="10" width="1" height="1" fill="rgb(142,139,138)"/>
  <rect x="7" y="11" width="1" height="1" fill="rgb(155,155,155)"/>
  <rect x="7" y="12" width="1" height="1" fill="rgb(151,29,13)"/>
  <rect x="7" y="13" width="1" height="1" fill="rgb(156,25,8)"/>
  <rect x="7" y="14" width="1" height="1" fill="rgb(192,189,188)"/>
  <rect x="7" y="15" width="1" height="1" fill="rgb(211,211,211)"/>
  <rect x="7" y="16" width="1" height="1" fill="rgb(227,227,227)"/>
  <rect x="7" y="17" width="1" height="1" fill="rgb(47,47,47)" fill-opacity="0.9140625"/>
  <rect x="7" y="18" width="1" height="3" fill="rgb(255,255,255)" fill-opacity="0.0078125"/>
  <rect x="8" y="0" width="1" height="3" fill="rgb(255,255,255)" fill-opacity="0.0078125"/>
  <rect x="8" y="3" width="1" height="1" fill="rgb(0,0,0)" fill-opacity="0.0234375"/>
  <rect x="8" y="4" width="1" height="1" fill="rgb(50,50,50)" fill-opacity="0.953125"/>
  <rect x="8" y="5" width="1" height="1" fill="rgb(254,254,254)"/>
  <rect x="8" y="6" width="1" height="2" fill="rgb(255,255,255)"/>
  <rect x="8" y="8" width="1" height="1" fill="rgb(141,26,12)"/>
  <rect x="8" y="9" width="1" height="1" fill="rgb(158,19,0)"/>
  <rect x="8" y="10" width="1" height="1" fill="rgb(190,185,185)"/>
  <rect x="8" y="11" width="1" height="1" fill="rgb(200,200,200)"/>
  <rect x="8" y="12" width="1" height="1" fill="rgb(180,26,6)"/>
  <rect x="8" y="13" width="1" height="1" fill="rgb(179,21,0)"/>
  <rect x="8" y="14" width="1" height="1" fill="rgb(220,215,214)"/>
  <rect x="8" y="15" width="1" height="1" fill="rgb(228,228,228)"/>
  <rect x="8" y="16" width="1" height="1" fill="rgb(234,234,234)"/>
  <rect x="8" y="17" width="1" height="1" fill="rgb(47,47,47)" fill-opacity="0.9140625"/>
  <rect x="8" y="18" width="1" height="3" fill="rgb(255,255,255)" fill-opacity="0.0078125"/>
  <rect x="9" y="0" width="1" height="3" fill="rgb(255,255,255)" fill-opacity="0.0078125"/>
  <rect x="9" y="3" width="1" height="1" fill="rgb(0,0,0)" fill-opacity="0.0234375"/>
  <rect x="9" y="4" width="1" height="1" fill="rgb(39,39,39)" fill-opacity="0.921875"/>
  <rect x="9" y="5" width="1" height="1" fill="rgb(173,173,173)"/>
  <rect x="9" y="6" width="1" height="1" fill="rgb(103,25,15)"/>
  <rect x="9" y="7" width="1" height="1" fill="rgb(144,26,12)"/>
  <rect x="9" y="8" width="1" height="1" fill="rgb(160,152,151)"/>
  <rect x="9" y="9" width="1" height="1" fill="rgb(184,179,178)"/>
  <rect x="9" y="10" width="1" height="1" fill="rgb(178,31,12)"/>
  <rect x="9" y="11" width="1" height="1" fill="rgb(181,26,6)"/>
  <rect x="9" y="12" width="1" height="1" fill="rgb(214,204,203)"/>
  <rect x="9" y="13" width="1" height="1" fill="rgb(222,217,216)"/>
  <rect x="9" y="14" width="1" height="1" fill="rgb(182,33,13)"/>
  <rect x="9" y="15" width="1" height="1" fill="rgb(181,26,6)"/>
  <rect x="9" y="16" width="1" height="1" fill="rgb(239,235,234)"/>
  <rect x="9" y="17" width="1" height="1" fill="rgb(48,48,48)" fill-opacity="0.9140625"/>
  <rect x="9" y="18" width="1" height="3" fill="rgb(255,255,255)" fill-opacity="0.0078125"/>
  <rect x="10" y="0" width="1" height="3" fill="rgb(255,255,255)" fill-opacity="0.0078125"/>
  <rect x="10" y="3" width="1" height="1" fill="rgb(0,0,0)" fill-opacity="0.015625"/>
  <rect x="10" y="4" width="1" height="1" fill="rgb(39,39,39)" fill-opacity="0.9140625"/>
  <rect x="10" y="5" width="1" height="1" fill="rgb(206,206,206)"/>
  <rect x="10" y="6" width="1" height="1" fill="rgb(121,19,6)"/>
  <rect x="10" y="7" width="1" height="1" fill="rgb(161,19,0)"/>
  <rect x="10" y="8" width="1" height="1" fill="rgb(185,180,179)"/>
  <rect x="10" y="9" width="1" height="1" fill="rgb(199,199,199)"/>
  <rect x="10" y="10" width="1" height="1" fill="rgb(180,26,6)"/>
  <rect x="10" y="11" width="1" height="1" fill="rgb(180,21,0)"/>
  <rect x="10" y="12" width="1" height="1" fill="rgb(222,217,216)"/>
  <rect x="10" y="13" width="1" height="1" fill="rgb(230,230,230)"/>
  <rect x="10" y="14" width="1" height="1" fill="rgb(181,26,6)"/>
  <rect x="10" y="15" width="1" height="1" fill="rgb(180,21,0)"/>
  <rect x="10" y="16" width="1" height="1" fill="rgb(246,241,240)"/>
  <rect x="10" y="17" width="1" height="1" fill="rgb(49,49,49)" fill-opacity="0.9140625"/>
  <rect x="10" y="18" width="1" height="3" fill="rgb(255,255,255)" fill-opacity="0.0078125"/>
  <rect x="11" y="0" width="1" height="3" fill="rgb(255,255,255)" fill-opacity="0.0078125"/>
  <rect x="11" y="3" width="1" height="1" fill="rgb(0,0,0)" fill-opacity="0.0078125"/>
  <rect x="11" y="4" width="1" height="1" fill="rgb(42,42,42)" fill-opacity="0.9140625"/>
  <rect x="11" y="5" width="1" height="1" fill="rgb(212,212,212)"/>
  <rect x="11" y="6" width="1" height="1" fill="rgb(148,145,144)"/>
  <rect x="11" y="7" width="1" height="1" fill="rgb(195,190,189)"/>
  <rect x="11" y="8" width="1" height="1" fill="rgb(178,31,12)"/>
  <rect x="11" y="9" width="1" height="1" fill="rgb(180,26,6)"/>
  <rect x="11" y="10" width="1" height="1" fill="rgb(216,206,205)"/>
  <rect x="11" y="11" width="1" height="1" fill="rgb(223,218,217)"/>
  <rect x="11" y="12" width="1" height="1" fill="rgb(183,34,14)"/>
  <rect x="11" y="13" width="1" height="1" fill="rgb(182,27,7)"/>
  <rect x="11" y="14" width="1" height="1" fill="rgb(240,230,229)"/>
  <rect x="11" y="15" width="1" height="1" fill="rgb(247,242,241)"/>
  <rect x="11" y="16" width="1" height="1" fill="rgb(255,255,255)"/>
  <rect x="11" y="17" width="1" height="1" fill="rgb(49,49,49)" fill-opacity="0.9140625"/>
  <rect x="11" y="18" width="1" height="3" fill="rgb(255,255,255)" fill-opacity="0.0078125"/>
  <rect x="12" y="0" width="1" height="4" fill="rgb(255,255,255)" fill-opacity="0.0078125"/>
  <rect x="12" y="4" width="1" height="1" fill="rgb(42,42,42)" fill-opacity="0.9140625"/>
  <rect x="12" y="5" width="1" height="1" fill="rgb(215,215,215)"/>
  <rect x="12" y="6" width="1" height="1" fill="rgb(166,166,166)"/>
  <rect x="12" y="7" width="1" height="1" fill="rgb(206,206,206)"/>
  <rect x="12" y="8" width="1" height="1" fill="rgb(181,26,6)"/>
  <rect x="12" y="9" width="1" height="1" fill="rgb(180,21,0)"/>
  <rect x="12" y="10" width="1" height="1" fill="rgb(224,219,218)"/>
  <rect x="12" y="11" width="1" height="1" fill="rgb(232,232,232)"/>
  <rect x="12" y="12" width="1" height="1" fill="rgb(182,27,7)"/>
  <rect x="12" y="13" width="1" height="1" fill="rgb(180,21,0)"/>
  <rect x="12" y="14" width="1" height="1" fill="rgb(248,243,242)"/>
  <rect x="12" y="15" width="1" height="2" fill="rgb(255,255,255)"/>
  <rect x="12" y="17" width="1" height="1" fill="rgb(49,49,49)" fill-opacity="0.9140625"/>
  <rect x="12" y="18" width="1" height="3" fill="rgb(255,255,255)" fill-opacity="0.0078125"/>
  <rect x="13" y="0" width="1" height="4" fill="rgb(255,255,255)" fill-opacity="0.0078125"/>
  <rect x="13" y="4" width="1" height="1" fill="rgb(43,43,43)" fill-opacity="0.9140625"/>
  <rect x="13" y="5" width="1" height="1" fill="rgb(218,218,218)"/>
  <rect x="13" y="6" width="1" height="1" fill="rgb(159,30,12)"/>
  <rect x="13" y="7" width="1" height="1" fill="rgb(181,26,6)"/>
  <rect x="13" y="8" width="1" height="1" fill="rgb(218,208,207)"/>
  <rect x="13" y="9" width="1" height="1" fill="rgb(225,220,219)"/>
  <rect x="13" y="10" width="1" height="1" fill="rgb(183,34,14)"/>
  <rect x="13" y="11" width="1" height="1" fill="rgb(182,27,7)"/>
  <rect x="13" y="12" width="1" height="1" fill="rgb(242,232,231)"/>
  <rect x="13" y="13" width="1" height="1" fill="rgb(249,244,243)"/>
  <rect x="13" y="14" width="1" height="1" fill="rgb(184,35,15)"/>
  <rect x="13" y="15" width="1" height="1" fill="rgb(182,27,7)"/>
  <rect x="13" y="16" width="1" height="1" fill="rgb(253,249,248)"/>
  <rect x="13" y="17" width="1" height="1" fill="rgb(49,49,49)" fill-opacity="0.9140625"/>
  <rect x="13" y="18" width="1" height="3" fill="rgb(255,255,255)" fill-opacity="0.0078125"/>
  <rect x="14" y="0" width="1" height="4" fill="rgb(255,255,255)" fill-opacity="0.0078125"/>
  <rect x="14" y="4" width="1" height="1" fill="rgb(44,44,44)" fill-opacity="0.9140625"/>
  <rect x="14" y="5" width="1" height="1" fill="rgb(220,220,220)"/>
  <rect x="14" y="6" width="1" height="1" fill="rgb(173,27,8)"/>
  <rect x="14" y="7" width="1" height="1" fill="rgb(180,21,0)"/>
  <rect x="14" y="8" width="1" height="1" fill="rgb(226,221,220)"/>
  <rect x="14" y="9" width="1" height="1" fill="rgb(233,233,233)"/>
  <rect x="14" y="10" width="1" height="1" fill="rgb(182,27,7)"/>
  <rect x="14" y="11" width="1" height="1" fill="rgb(180,21,0)"/>
  <rect x="14" y="12" width="1" height="1" fill="rgb(250,245,244)"/>
  <rect x="14" y="13" width="1" height="1" fill="rgb(255,255,255)"/>
  <rect x="14" y="14" width="1" height="1" fill="rgb(182,27,7)"/>
  <rect x="14" y="15" width="1" height="1" fill="rgb(180,21,0)"/>
  <rect x="14" y="16" width="1" height="1" fill="rgb(253,248,247)"/>
  <rect x="14" y="17" width="1" height="1" fill="rgb(49,49,49)" fill-opacity="0.9140625"/>
  <rect x="14" y="18" width="1" height="3" fill="rgb(255,255,255)" fill-opacity="0.0078125"/>
  <rect x="15" y="0" width="1" height="4" fill="rgb(255,255,255)" fill-opacity="0.0078125"/>
  <rect x="15" y="4" width="1" height="1" fill="rgb(44,44,44)" fill-opacity="0.9140625"/>
  <rect x="15" y="5" width="1" height="1" fill="rgb(224,224,224)"/>
  <rect x="15" y="6" width="1" height="1" fill="rgb(221,217,216)"/>
  <rect x="15" y="7" width="1" height="1" fill="rgb(227,222,221)"/>
  <rect x="15" y="8" width="1" height="1" fill="rgb(234,234,234)"/>
  <rect x="15" y="9" width="1" height="1" fill="rgb(240,240,240)"/>
  <rect x="15" y="10" width="1" height="1" fill="rgb(245,241,240)"/>
  <rect x="15" y="11" width="1" height="1" fill="rgb(251,246,245)"/>
  <rect x="15" y="12" width="1" height="2" fill="rgb(255,255,255)"/>
  <rect x="15" y="14" width="1" height="1" fill="rgb(253,249,248)"/>
  <rect x="15" y="15" width="1" height="1" fill="rgb(253,248,247)"/>
  <rect x="15" y="16" width="1" height="1" fill="rgb(255,255,255)"/>
  <rect x="15" y="17" width="1" height="1" fill="rgb(49,49,49)" fill-opacity="0.9140625"/>
  <rect x="15" y="18" width="1" height="3" fill="rgb(255,255,255)" fill-opacity="0.0078125"/>
  <rect x="16" y="0" width="1" height="4" fill="rgb(255,255,255)" fill-opacity="0.0078125"/>
  <rect x="16" y="4" width="1" height="1" fill="rgb(41,41,41)" fill-opacity="0.828125"/>
  <rect x="16" y="5" width="1" height="2" fill="rgb(47,47,47)" fill-opacity="0.9140625"/>
  <rect x="16" y="7" width="1" height="1" fill="rgb(48,48,48)" fill-opacity="0.9140625"/>
  <rect x="16" y="8" width="1" height="2" fill="rgb(49,49,49)" fill-opacity="0.9140625"/>
  <rect x="16" y="10" width="1" height="7" fill="rgb(50,50,50)" fill-opacity="0.9140625"/>
  <rect x="16" y="17" width="1" height="1" fill="rgb(45,45,45)" fill-opacity="0.828125"/>
  <rect x="16" y="18" width="1" height="3" fill="rgb(255,255,255)" fill-opacity="0.0078125"/>
  <rect x="17" y="0" width="1" height="21" fill="rgb(255,255,255)" fill-opacity="0.0078125"/>
  <rect x="18" y="0" width="1" height="21" fill="rgb(255,255,255)" fill-opacity="0.0078125"/>
  <rect x="19" y="0" width="1" height="21" fill="rgb(255,255,255)" fill-opacity="0.0078125"/>
  <rect x="20" y="0" width="1" height="21" fill="rgb(255,255,255)" fill-opacity="0.0078125"/>
</svg>