<svg xmlns="http://www.w3.org/2000/svg" shape-rendering="crispEdges" width="21" height="21" viewBox="0 0 21 21">
  <rect x="0" y="0" width="1" height="21" fill="rgb(255,255,255)" fill-opacity="0.0078125"/>
  <rect x="1" y="0" width="1" height="21" fill="rgb(255,255,255)" fill-opacity="0.0078125"/>
  <rect x="2" y="0" width="1" height="21" fill="rgb(255,255,255)" fill-opacity="0.0078125"/>
  <rect x="3" y="0" width="1" height="21" fill="rgb(255,255,255)" fill-opacity="0.0078125"/>
  <rect x="4" y="0" width="1" height="4" fill="rgb(255,255,255)" fill-opacity="0.0078125"/>
  <rect x="4" y="4" width="1" height="1" fill="rgb(47,47,47)" fill-opacity="0.765625"/>
  <rect x="4" y="5" width="1" height="1" fill="rgb(59,54,53)" fill-opacity="0.90625"/>
  <rect x="4" y="6" width="1" height="1" fill="rgb(63,59,57)" fill-opacity="0.90625"/>
  <rect x="4" y="7" width="1" height="1" fill="rgb(62,57,56)" fill-opacity="0.90625"/>
  <rect x="4" y="8" width="1" height="3" fill="rgb(59,59,59)" fill-opacity="0.90625"/>
  <rect x="4" y="11" width="1" height="2" fill="rgb(62,57,56)" fill-opacity="0.90625"/>
  <rect x="4" y="13" width="1" height="1" fill="rgb(61,57,55)" fill-opacity="0.90625"/>
  <rect x="4" y="14" width="1" height="2" fill="rgb(58,58,58)" fill-opacity="0.90625"/>
  <rect x="4" y="16" width="1" height="1" fill="rgb(56,56,56)" fill-opacity="0.8984375"/>
  <rect x="4" y="17" width="1" height="1" fill="rgb(45,45,45)" fill-opacity="0.8046875"/>
  <rect x="4" y="18" width="1" height="3" fill="rgb(255,255,255)" fill-opacity="0.0078125"/>
  <rect x="5" y="0" width="1" height="4" fill="rgb(255,255,255)" fill-opacity="0.0078125"/>
  <rect x="5" y="4" width="1" height="1" fill="rgb(50,50,50)" fill-opacity="0.890625"/>
  <rect x="5" y="5" width="1" height="1" fill="rgb(227,192,188)"/>
  <rect x="5" y="6" width="1" height="1" fill="rgb(232,203,199)"/>
  <rect x="5" y="7" width="1" height="1" fill="rgb(230,199,195)"/>
  <rect x="5" y="8" width="1" height="2" fill="rgb(250,250,250)"/>
  <rect x="5" y="10" width="1" height="1" fill="rgb(249,249,249)"/>
  <rect x="5" y="11" width="1" height="1" fill="rgb(222,179,174)"/>
  <rect x="5" y="12" width="1" height="1" fill="rgb(220,174,169)"/>
  <rect x="5" y="13" width="1" height="1" fill="rgb(218,170,164)"/>
  <rect x="5" y="14" width="1" height="2" fill="rgb(248,248,248)"/>
  <rect x="5" y="16" width="1" height="1" fill="rgb(246,246,246)"/>
  <rect x="5" y="17" width="1" height="1" fill="rgb(47,47,47)" fill-opacity="0.9140625"/>
  <rect x="5" y="18" width="1" height="3" fill="rgb(255,255,255)" fill-opacity="0.0078125"/>
  <rect x="6" y="0" width="1" height="4" fill="rgb(255,255,255)" fill-opacity="0.0078125"/>
  <rect x="6" y="4" width="1" height="1" fill="rgb(50,50,50)" fill-opacity="0.890625"/>
  <rect x="6" y="5" width="1" height="1" fill="rgb(234,208,205)"/>
  <rect x="6" y="6" width="1" height="2" fill="rgb(150,16,0)"/>
  <rect x="6" y="8" width="1" height="2" fill="rgb(236,236,236)"/>
  <rect x="6" y="10" width="1" height="1" fill="rgb(237,237,237)"/>
  <rect x="6" y="11" width="1" height="3" fill="rgb(150,16,0)"/>
  <rect x="6" y="14" width="1" height="1" fill="rgb(240,240,240)"/>
  <rect x="6" y="15" width="1" height="1" fill="rgb(241,241,241)"/>
  <rect x="6" y="16" width="1" height="1" fill="rgb(247,247,247)"/>
  <rect x="6" y="17" width="1" height="1" fill="rgb(47,47,47)" fill-opacity="0.9140625"/>
  <rect x="6" y="18" width="1" height="3" fill="rgb(255,255,255)" fill-opacity="0.0078125"/>
  <rect x="7" y="0" width="1" height="4" fill="rgb(255,255,255)" fill-opacity="0.0078125"/>
  <rect x="7" y="4" width="1" height="1" fill="rgb(50,50,50)" fill-opacity="0.890625"/>
  <rect x="7" y="5" width="1" height="1" fill="rgb(233,205,201)"/>
  <rect x="7" y="6" width="1" height="2" fill="rgb(152,22,6)"/>
  <rect x="7" y="8" width="1" height="1" fill="rgb(234,230,229)"/>
  <rect x="7" y="9" width="1" height="1" fill="rgb(235,231,230)"/>
  <rect x="7" y="10" width="1" height="1" fill="rgb(236,232,231)"/>
  <rect x="7" y="11" width="1" height="2" fill="rgb(153,23,7)"/>
  <rect x="7" y="13" width="1" height="1" fill="rgb(154,25,9)"/>
  <rect x="7" y="14" width="1" height="1" fill="rgb(239,235,234)"/>
  <rect x="7" y="15" width="1" height="1" fill="rgb(239,236,235)"/>
  <rect x="7" y="16" width="1" height="1" fill="rgb(246,244,244)"/>
  <rect x="7" y="17" width="1" height="1" fill="rgb(47,47,47)" fill-opacity="0.9140625"/>
  <rect x="7" y="18" width="1" height="3" fill="rgb(255,255,255)" fill-opacity="0.0078125"/>
  <rect x="8" y="0" width="1" height="4" fill="rgb(255,255,255)" fill-opacity="0.0078125"/>
  <rect x="8" y="4" width="1" height="1" fill="rgb(50,50,50)" fill-opacity="0.890625"/>
  <rect x="8" y="5" width="1" height="1" fill="rgb(251,251,251)"/>
  <rect x="8" y="6" width="1" height="2" fill="rgb(236,236,236)"/>
  <rect x="8" y="8" width="1" height="3" fill="rgb(150,16,0)"/>
  <rect x="8" y="11" width="1" height="1" fill="rgb(239,239,239)"/>
  <rect x="8" y="12" width="1" height="1" fill="rgb(240,240,240)"/>
  <rect x="8" y="13" width="1" height="1" fill="rgb(241,241,241)"/>
  <rect x="8" y="14" width="1" height="1" fill="rgb(170,47,29)"/>
  <rect x="8" y="15" width="1" height="1" fill="rgb(180,62,43)"/>
  <rect x="8" y="16" width="1" height="1" fill="rgb(224,172,163)"/>
  <rect x="8" y="17" width="1" height="1" fill="rgb(47,47,47)" fill-opacity="0.9140625"/>
  <rect x="8" y="18" width="1" height="3" fill="rgb(255,255,255)" fill-opacity="0.0078125"/>
  <rect x="9" y="0" width="1" height="4" fill="rgb(255,255,255)" fill-opacity="0.0078125"/>
  <rect x="9" y="4" width="1" height="1" fill="rgb(50,50,50)" fill-opacity="0.890625"/>
  <rect x="9" y="5" width="1" height="1" fill="rgb(250,250,250)"/>
  <rect x="9" y="6" width="1" height="1" fill="rgb(236,236,236)"/>
  <rect x="9" y="7" width="1" height="1" fill="rgb(237,237,237)"/>
  <rect x="9" y="8" width="1" height="3" fill="rgb(150,16,0)"/>
  <rect x="9" y="11" width="1" height="1" fill="rgb(240,240,240)"/>
  <rect x="9" y="12" width="1" height="1" fill="rgb(241,241,241)"/>
  <rect x="9" y="13" width="1" height="1" fill="rgb(242,242,242)"/>
  <rect x="9" y="14" width="1" height="1" fill="rgb(179,61,42)"/>
  <rect x="9" y="15" width="1" height="1" fill="rgb(186,74,55)"/>
  <rect x="9" y="16" width="1" height="1" fill="rgb(225,174,165)"/>
  <rect x="9" y="17" width="1" height="1" fill="rgb(47,47,47)" fill-opacity="0.9140625"/>
  <rect x="9" y="18" width="1" height="3" fill="rgb(255,255,255)" fill-opacity="0.0078125"/>
  <rect x="10" y="0" width="1" height="4" fill="rgb(255,255,255)" fill-opacity="0.0078125"/>
  <rect x="10" y="4" width="1" height="1" fill="rgb(50,50,50)" fill-opacity="0.890625"/>
  <rect x="10" y="5" width="1" height="1" fill="rgb(249,248,248)"/>
  <rect x="10" y="6" width="1" height="1" fill="rgb(235,231,230)"/>
  <rect x="10" y="7" width="1" height="1" fill="rgb(236,232,231)"/>
  <rect x="10" y="8" width="1" height="3" fill="rgb(153,23,7)"/>
  <rect x="10" y="11" width="1" height="1" fill="rgb(238,234,233)"/>
  <rect x="10" y="12" width="1" height="2" fill="rgb(239,236,235)"/>
  <rect x="10" y="14" width="1" height="1" fill="rgb(187,78,59)"/>
  <rect x="10" y="15" width="1" height="1" fill="rgb(196,92,73)"/>
  <rect x="10" y="16" width="1" height="1" fill="rgb(227,179,169)"/>
  <rect x="10" y="17" width="1" height="1" fill="rgb(47,47,47)" fill-opacity="0.9140625"/>
  <rect x="10" y="18" width="1" height="3" fill="rgb(255,255,255)" fill-opacity="0.0078125"/>
  <rect x="11" y="0" width="1" height="4" fill="rgb(255,255,255)" fill-opacity="0.0078125"/>
  <rect x="11" y="4" width="1" height="1" fill="rgb(50,50,50)" fill-opacity="0.890625"/>
  <rect x="11" y="5" width="1" height="1" fill="rgb(224,184,179)"/>
  <rect x="11" y="6" width="1" height="2" fill="rgb(150,16,0)"/>
  <rect x="11" y="8" width="1" height="1" fill="rgb(239,239,239)"/>
  <rect x="11" y="9" width="1" height="1" fill="rgb(240,240,240)"/>
  <rect x="11" y="10" width="1" height="1" fill="rgb(241,241,241)"/>
  <rect x="11" y="11" width="1" height="1" fill="rgb(168,44,26)"/>
  <rect x="11" y="12" width="1" height="1" fill="rgb(177,57,39)"/>
  <rect x="11" y="13" width="1" height="1" fill="rgb(185,73,53)"/>
  <rect x="11" y="14" width="1" height="1" fill="rgb(244,244,244)"/>
  <rect x="11" y="15" width="1" height="2" fill="rgb(245,245,245)"/>
  <rect x="11" y="17" width="1" height="1" fill="rgb(47,47,47)" fill-opacity="0.9140625"/>
  <rect x="11" y="18" width="1" height="3" fill="rgb(255,255,255)" fill-opacity="0.0078125"/>
  <rect x="12" y="0" width="1" height="4" fill="rgb(255,255,255)" fill-opacity="0.0078125"/>
  <rect x="12" y="4" width="1" height="1" fill="rgb(50,50,50)" fill-opacity="0.890625"/>
  <rect x="12" y="5" width="1" height="1" fill="rgb(221,178,173)"/>
  <rect x="12" y="6" width="1" height="2" fill="rgb(150,16,0)"/>
  <rect x="12" y="8" width="1" height="1" fill="rgb(240,240,240)"/>
  <rect x="12" y="9" width="1" height="2" fill="rgb(241,241,241)"/>
  <rect x="12" y="11" width="1" height="1" fill="rgb(176,57,38)"/>
  <rect x="12" y="12" width="1" height="1" fill="rgb(184,71,51)"/>
  <rect x="12" y="13" width="1" height="1" fill="rgb(193,86,66)"/>
  <rect x="12" y="14" width="1" height="1" fill="rgb(245,245,245)"/>
  <rect x="12" y="15" width="1" height="1" fill="rgb(246,246,246)"/>
  <rect x="12" y="16" width="1" height="1" fill="rgb(245,245,245)"/>
  <rect x="12" y="17" width="1" height="1" fill="rgb(47,47,47)" fill-opacity="0.9140625"/>
  <rect x="12" y="18" width="1" height="3" fill="rgb(255,255,255)" fill-opacity="0.0078125"/>
  <rect x="13" y="0" width="1" height="4" fill="rgb(255,255,255)" fill-opacity="0.0078125"/>
  <rect x="13" y="4" width="1" height="1" fill="rgb(50,50,50)" fill-opacity="0.890625"/>
  <rect x="13" y="5" width="1" height="1" fill="rgb(220,176,170)"/>
  <rect x="13" y="6" width="1" height="2" fill="rgb(153,23,7)"/>
  <rect x="13" y="8" width="1" height="1" fill="rgb(238,234,233)"/>
  <rect x="13" y="9" width="1" height="1" fill="rgb(238,235,234)"/>
  <rect x="13" y="10" width="1" height="1" fill="rgb(239,236,235)"/>
  <rect x="13" y="11" width="1" height="1" fill="rgb(185,74,56)"/>
  <rect x="13" y="12" width="1" height="1" fill="rgb(193,89,70)"/>
  <rect x="13" y="13" width="1" height="1" fill="rgb(201,103,84)"/>
  <rect x="13" y="14" width="1" height="1" fill="rgb(244,241,240)"/>
  <rect x="13" y="15" width="1" height="1" fill="rgb(244,242,241)"/>
  <rect x="13" y="16" width="1" height="1" fill="rgb(244,243,242)"/>
  <rect x="13" y="17" width="1" height="1" fill="rgb(47,47,47)" fill-opacity="0.9140625"/>
  <rect x="13" y="18" width="1" height="3" fill="rgb(255,255,255)" fill-opacity="0.0078125"/>
  <rect x="14" y="0" width="1" height="4" fill="rgb(255,255,255)" fill-opacity="0.0078125"/>
  <rect x="14" y="4" width="1" height="1" fill="rgb(50,50,50)" fill-opacity="0.890625"/>
  <rect x="14" y="5" width="1" height="1" fill="rgb(249,249,249)"/>
  <rect x="14" y="6" width="1" height="2" fill="rgb(240,240,240)"/>
  <rect x="14" y="8" width="1" height="1" fill="rgb(166,40,22)"/>
  <rect x="14" y="9" width="1" height="1" fill="rgb(174,54,35)"/>
  <rect x="14" y="10" width="1" height="1" fill="rgb(184,69,50)"/>
  <rect x="14" y="11" width="1" height="2" fill="rgb(244,244,244)"/>
  <rect x="14" y="13" width="1" height="1" fill="rgb(245,245,245)"/>
  <rect x="14" y="14" width="1" height="1" fill="rgb(213,124,105)"/>
  <rect x="14" y="15" width="1" height="1" fill="rgb(219,138,120)"/>
  <rect x="14" y="16" width="1" height="1" fill="rgb(234,190,180)"/>
  <rect x="14" y="17" width="1" height="1" fill="rgb(47,47,47)" fill-opacity="0.9140625"/>
  <rect x="14" y="18" width="1" height="3" fill="rgb(255,255,255)" fill-opacity="0.0078125"/>
  <rect x="15" y="0" width="1" height="4" fill="rgb(255,255,255)" fill-opacity="0.0078125"/>
  <rect x="15" y="4" width="1" height="1" fill="rgb(50,50,50)" fill-opacity="0.890625"/>
  <rect x="15" y="5" width="1" height="1" fill="rgb(249,249,249)"/>
  <rect x="15" y="6" width="1" height="1" fill="rgb(240,240,240)"/>
  <rect x="15" y="7" width="1" height="1" fill="rgb(241,241,241)"/>
  <rect x="15" y="8" width="1" height="1" fill="rgb(173,53,34)"/>
  <rect x="15" y="9" width="1" height="1" fill="rgb(182,67,48)"/>
  <rect x="15" y="10" width="1" height="1" fill="rgb(190,81,62)"/>
  <rect x="15" y="11" width="1" height="1" fill="rgb(244,244,244)"/>
  <rect x="15" y="12" width="1" height="1" fill="rgb(245,245,245)"/>
  <rect x="15" y="13" width="1" height="1" fill="rgb(246,246,246)"/>
  <rect x="15" y="14" width="1" height="1" fill="rgb(218,136,118)"/>
  <rect x="15" y="15" width="1" height="1" fill="rgb(224,150,133)"/>
  <rect x="15" y="16" width="1" height="1" fill="rgb(235,195,185)"/>
  <rect x="15" y="17" width="1" height="1" fill="rgb(47,47,47)" fill-opacity="0.9140625"/>
  <rect x="15" y="18" width="1" height="3" fill="rgb(255,255,255)" fill-opacity="0.0078125"/>
  <rect x="16" y="0" width="1" height="4" fill="rgb(255,255,255)" fill-opacity="0.0078125"/>
  <rect x="16" y="4" width="1" height="1" fill="rgb(50,50,50)" fill-opacity="0.890625"/>
  <rect x="16" y="5" width="1" height="1" fill="rgb(247,247,247)"/>
  <rect x="16" y="6" width="1" height="2" fill="rgb(249,249,249)"/>
  <rect x="16" y="8" width="1" height="1" fill="rgb(222,170,161)"/>
  <rect x="16" y="9" width="1" height="1" fill="rgb(224,172,163)"/>
  <rect x="16" y="10" width="1" height="1" fill="rgb(226,176,166)"/>
  <rect x="16" y="11" width="1" height="3" fill="rgb(250,250,250)"/>
  <rect x="16" y="14" width="1" height="1" fill="rgb(237,194,184)"/>
  <rect x="16" y="15" width="1" height="1" fill="rgb(240,200,191)"/>
  <rect x="16" y="16" width="1" height="1" fill="rgb(235,197,188)"/>
  <rect x="16" y="17" width="1" height="1" fill="rgb(47,47,47)" fill-opacity="0.9140625"/>
  <rect x="16" y="18" width="1" height="3" fill="rgb(255,255,255)" fill-opacity="0.0078125"/>
  <rect x="17" y="0" width="1" height="4" fill="rgb(255,255,255)" fill-opacity="0.0078125"/>
  <rect x="17" y="4" width="1" height="1" fill="rgb(48,48,48)" fill-opacity="0.7578125"/>
  <rect x="17" y="5" width="1" height="12" fill="rgb(47,47,47)" fill-opacity="0.9140625"/>
  <rect x="17" y="17" width="1" height="1" fill="rgb(44,44,44)" fill-opacity="0.796875"/>
  <rect x="17" y="18" width="1" height="3" fill="rgb(255,255,255)" fill-opacity="0.0078125"/>
  <rect x="18" y="0" width="1" height="21" fill="rgb(255,255,255)" fill-opacity="0.0078125"/>
  <rect x="19" y="0" width="1" height="21" fill="rgb(255,255,255)" fill-opacity="0.0078125"/>
  <rect x="20" y="0" width="1" height="21" fill="rgb(255,255,255)" fill-opacity="0.0078125"/>
</svg>