<svg xmlns="http://www.w3.org/2000/svg" shape-rendering="crispEdges" width="21" height="21" viewBox="0 0 21 21">
  <rect x="0" y="0" width="21" height="1" fill="rgb(255,255,255)" fill-opacity="0.0078125"/>
  <rect x="0" y="1" width="21" height="1" fill="rgb(255,255,255)" fill-opacity="0.0078125"/>
  <rect x="0" y="2" width="21" height="1" fill="rgb(255,255,255)" fill-opacity="0.0078125"/>
  <rect x="0" y="3" width="21" height="1" fill="rgb(255,255,255)" fill-opacity="0.0078125"/>
  <rect x="0" y="4" width="21" height="1" fill="rgb(255,255,255)" fill-opacity="0.0078125"/>
  <rect x="0" y="5" width="21" height="1" fill="rgb(255,255,255)" fill-opacity="0.0078125"/>
  <rect x="0" y="6" width="21" height="1" fill="rgb(255,255,255)" fill-opacity="0.0078125"/>
  <rect x="0" y="7" width="21" height="1" fill="rgb(255,255,255)" fill-opacity="0.0078125"/>
  <rect x="0" y="8" width="21" height="1" fill="rgb(255,255,255)" fill-opacity="0.0078125"/>
  <rect x="0" y="9" width="21" height="1" fill="rgb(255,255,255)" fill-opacity="0.0078125"/>
  <rect x="0" y="10" width="9" height="1" fill="rgb(255,255,255)" fill-opacity="0.0078125"/>
  <rect x="9" y="10" width="1" height="1" fill="rgb(31,31,31)" fill-opacity="0.2578125"/>
  <rect x="10" y="10" width="1" height="1" fill="rgb(39,39,39)" fill-opacity="0.8671875"/>
  <rect x="11" y="10" width="1" height="1" fill="rgb(33,33,33)" fill-opacity="0.2421875"/>
  <rect x="12" y="10" width="9" height="1" fill="rgb(255,255,255)" fill-opacity="0.0078125"/>
  <rect x="0" y="11" width="8" height="1" fill="rgb(255,255,255)" fill-opacity="0.0078125"/>
  <rect x="8" y="11" width="1" height="1" fill="rgb(32,32,32)" fill-opacity="0.2578125"/>
  <rect x="9" y="11" width="1" height="1" fill="rgb(44,44,44)" fill-opacity="0.9609375"/>
  <rect x="10" y="11" width="1" height="1" fill="rgb(164,164,164)"/>
  <rect x="11" y="11" width="1" height="1" fill="rgb(41,41,41)" fill-opacity="0.953125"/>
  <rect x="12" y="11" width="1" height="1" fill="rgb(33,33,33)" fill-opacity="0.25"/>
  <rect x="13" y="11" width="8" height="1" fill="rgb(255,255,255)" fill-opacity="0.0078125"/>
  <rect x="0" y="12" width="7" height="1" fill="rgb(255,255,255)" fill-opacity="0.0078125"/>
  <rect x="7" y="12" width="1" height="1" fill="rgb(33,33,33)" fill-opacity="0.25"/>
  <rect x="8" y="12" width="1" height="1" fill="rgb(44,44,44)" fill-opacity="0.9609375"/>
  <rect x="9" y="12" width="1" height="1" fill="rgb(220,220,220)"/>
  <rect x="10" y="12" width="1" height="1" fill="rgb(230,230,230)"/>
  <rect x="11" y="12" width="1" height="1" fill="rgb(157,157,157)"/>
  <rect x="12" y="12" width="1" height="1" fill="rgb(42,42,42)" fill-opacity="0.9609375"/>
  <rect x="13" y="12" width="1" height="1" fill="rgb(32,32,32)" fill-opacity="0.25"/>
  <rect x="14" y="12" width="7" height="1" fill="rgb(255,255,255)" fill-opacity="0.0078125"/>
  <rect x="0" y="13" width="6" height="1" fill="rgb(255,255,255)" fill-opacity="0.0078125"/>
  <rect x="6" y="13" width="1" height="1" fill="rgb(33,33,33)" fill-opacity="0.2421875"/>
  <rect x="7" y="13" width="1" height="1" fill="rgb(44,44,44)" fill-opacity="0.9609375"/>
  <rect x="8" y="13" width="1" height="1" fill="rgb(219,219,219)"/>
  <rect x="9" y="13" width="1" height="1" fill="rgb(231,231,231)"/>
  <rect x="10" y="13" width="1" height="1" fill="rgb(194,194,194)"/>
  <rect x="11" y="13" width="1" height="1" fill="rgb(204,204,204)"/>
  <rect x="12" y="13" width="1" height="1" fill="rgb(172,172,172)"/>
  <rect x="13" y="13" width="1" height="1" fill="rgb(43,43,43)" fill-opacity="0.9609375"/>
  <rect x="14" y="13" width="1" height="1" fill="rgb(31,31,31)" fill-opacity="0.2578125"/>
  <rect x="15" y="13" width="6" height="1" fill="rgb(255,255,255)" fill-opacity="0.0078125"/>
  <rect x="0" y="14" width="6" height="1" fill="rgb(255,255,255)" fill-opacity="0.0078125"/>
  <rect x="6" y="14" width="1" height="1" fill="rgb(37,37,37)" fill-opacity="0.9453125"/>
  <rect x="7" y="14" width="1" height="1" fill="rgb(179,179,179)"/>
  <rect x="8" y="14" width="1" height="1" fill="rgb(229,229,229)"/>
  <rect x="9" y="14" width="1" height="1" fill="rgb(193,193,193)"/>
  <rect x="10" y="14" width="1" height="1" fill="rgb(203,203,203)"/>
  <rect x="11" y="14" width="1" height="1" fill="rgb(214,214,214)"/>
  <rect x="12" y="14" width="1" height="1" fill="rgb(225,225,225)"/>
  <rect x="13" y="14" width="1" height="1" fill="rgb(188,188,188)"/>
  <rect x="14" y="14" width="1" height="1" fill="rgb(38,38,38)" fill-opacity="0.96875"/>
  <rect x="15" y="14" width="1" height="1" fill="rgb(64,64,64)" fill-opacity="0.0234375"/>
  <rect x="16" y="14" width="5" height="1" fill="rgb(255,255,255)" fill-opacity="0.0078125"/>
  <rect x="0" y="15" width="6" height="1" fill="rgb(255,255,255)" fill-opacity="0.0078125"/>
  <rect x="6" y="15" width="1" height="1" fill="rgb(39,39,39)" fill-opacity="0.8828125"/>
  <rect x="7" y="15" width="7" height="1" fill="rgb(33,33,33)"/>
  <rect x="14" y="15" width="1" height="1" fill="rgb(40,40,40)" fill-opacity="0.921875"/>
  <rect x="15" y="15" width="1" height="1" fill="rgb(64,64,64)" fill-opacity="0.0234375"/>
  <rect x="16" y="15" width="5" height="1" fill="rgb(255,255,255)" fill-opacity="0.0078125"/>
  <rect x="0" y="16" width="21" height="1" fill="rgb(255,255,255)" fill-opacity="0.0078125"/>
  <rect x="0" y="17" width="21" height="1" fill="rgb(255,255,255)" fill-opacity="0.0078125"/>
  <rect x="0" y="18" width="21" height="1" fill="rgb(255,255,255)" fill-opacity="0.0078125"/>
  <rect x="0" y="19" width="21" height="1" fill="rgb(255,255,255)" fill-opacity="0.0078125"/>
  <rect x="0" y="20" width="21" height="1" fill="rgb(255,255,255)" fill-opacity="0.0078125"/>
</svg>