<svg xmlns="http://www.w3.org/2000/svg" shape-rendering="crispEdges" width="21" height="21" viewBox="0 0 21 21">
  <rect x="0" y="0" width="1" height="21" fill="rgb(255,255,255)" fill-opacity="0.0078125"/>
  <rect x="1" y="0" width="1" height="21" fill="rgb(255,255,255)" fill-opacity="0.0078125"/>
  <rect x="2" y="0" width="1" height="21" fill="rgb(255,255,255)" fill-opacity="0.0078125"/>
  <rect x="3" y="0" width="1" height="3" fill="rgb(255,255,255)" fill-opacity="0.0078125"/>
  <rect x="3" y="3" width="1" height="8" fill="rgb(255,0,0)" fill-opacity="0.015625"/>
  <rect x="3" y="11" width="1" height="1" fill="rgb(4,0,0)" fill-opacity="0.265625"/>
  <rect x="3" y="12" width="1" height="1" fill="rgb(47,47,47)" fill-opacity="0.625"/>
  <rect x="3" y="13" width="1" height="1" fill="rgb(3,0,0)" fill-opacity="0.296875"/>
  <rect x="3" y="14" width="1" height="5" fill="rgb(255,0,0)" fill-opacity="0.015625"/>
  <rect x="3" y="19" width="1" height="2" fill="rgb(255,255,255)" fill-opacity="0.0078125"/>
  <rect x="4" y="0" width="1" height="3" fill="rgb(255,255,255)" fill-opacity="0.0078125"/>
  <rect x="4" y="3" width="1" height="6" fill="rgb(255,0,0)" fill-opacity="0.015625"/>
  <rect x="4" y="9" width="1" height="1" fill="rgb(57,0,0)" fill-opacity="0.0390625"/>
  <rect x="4" y="10" width="1" height="1" fill="rgb(2,0,0)" fill-opacity="0.4453125"/>
  <rect x="4" y="11" width="1" height="1" fill="rgb(85,85,85)" fill-opacity="0.703125"/>
  <rect x="4" y="12" width="1" height="1" fill="rgb(244,244,244)" fill-opacity="0.703125"/>
  <rect x="4" y="13" width="1" height="1" fill="rgb(0,0,0)" fill-opacity="0.640625"/>
  <rect x="4" y="14" width="1" height="5" fill="rgb(255,0,0)" fill-opacity="0.015625"/>
  <rect x="4" y="19" width="1" height="2" fill="rgb(255,255,255)" fill-opacity="0.0078125"/>
  <rect x="5" y="0" width="1" height="3" fill="rgb(255,255,255)" fill-opacity="0.0078125"/>
  <rect x="5" y="3" width="1" height="5" fill="rgb(255,0,0)" fill-opacity="0.015625"/>
  <rect x="5" y="8" width="1" height="1" fill="rgb(16,0,0)" fill-opacity="0.125"/>
  <rect x="5" y="9" width="1" height="1" fill="rgb(7,5,5)" fill-opacity="0.59375"/>
  <rect x="5" y="10" width="1" height="1" fill="rgb(142,142,142)" fill-opacity="0.703125"/>
  <rect x="5" y="11" width="1" height="2" fill="rgb(255,255,255)" fill-opacity="0.703125"/>
  <rect x="5" y="13" width="1" height="1" fill="rgb(0,0,0)" fill-opacity="0.6953125"/>
  <rect x="5" y="14" width="1" height="1" fill="rgb(2,0,0)" fill-opacity="0.5234375"/>
  <rect x="5" y="15" width="1" height="1" fill="rgb(3,0,0)" fill-opacity="0.34375"/>
  <rect x="5" y="16" width="1" height="1" fill="rgb(64,0,0)" fill-opacity="0.0390625"/>
  <rect x="5" y="17" width="1" height="2" fill="rgb(255,0,0)" fill-opacity="0.015625"/>
  <rect x="5" y="19" width="1" height="2" fill="rgb(255,255,255)" fill-opacity="0.0078125"/>
  <rect x="6" y="0" width="1" height="3" fill="rgb(255,255,255)" fill-opacity="0.0078125"/>
  <rect x="6" y="3" width="1" height="4" fill="rgb(255,0,0)" fill-opacity="0.015625"/>
  <rect x="6" y="7" width="1" height="1" fill="rgb(17,0,0)" fill-opacity="0.125"/>
  <rect x="6" y="8" width="1" height="1" fill="rgb(25,25,25)" fill-opacity="0.6796875"/>
  <rect x="6" y="9" width="1" height="1" fill="rgb(194,194,194)" fill-opacity="0.703125"/>
  <rect x="6" y="10" width="1" height="3" fill="rgb(255,255,255)" fill-opacity="0.703125"/>
  <rect x="6" y="13" width="1" height="1" fill="rgb(239,239,239)" fill-opacity="0.703125"/>
  <rect x="6" y="14" width="1" height="1" fill="rgb(208,208,208)" fill-opacity="0.703125"/>
  <rect x="6" y="15" width="1" height="1" fill="rgb(118,118,118)" fill-opacity="0.703125"/>
  <rect x="6" y="16" width="1" height="1" fill="rgb(8,8,8)" fill-opacity="0.6328125"/>
  <rect x="6" y="17" width="1" height="1" fill="rgb(6,0,0)" fill-opacity="0.1796875"/>
  <rect x="6" y="18" width="1" height="1" fill="rgb(255,0,0)" fill-opacity="0.015625"/>
  <rect x="6" y="19" width="1" height="2" fill="rgb(255,255,255)" fill-opacity="0.0078125"/>
  <rect x="7" y="0" width="1" height="3" fill="rgb(255,255,255)" fill-opacity="0.0078125"/>
  <rect x="7" y="3" width="1" height="4" fill="rgb(255,0,0)" fill-opacity="0.015625"/>
  <rect x="7" y="7" width="1" height="1" fill="rgb(17,0,0)" fill-opacity="0.125"/>
  <rect x="7" y="8" width="1" height="1" fill="rgb(25,25,25)" fill-opacity="0.6796875"/>
  <rect x="7" y="9" width="1" height="1" fill="rgb(194,194,194)" fill-opacity="0.703125"/>
  <rect x="7" y="10" width="1" height="6" fill="rgb(255,255,255)" fill-opacity="0.703125"/>
  <rect x="7" y="16" width="1" height="1" fill="rgb(212,212,212)" fill-opacity="0.703125"/>
  <rect x="7" y="17" width="1" height="1" fill="rgb(9,9,9)" fill-opacity="0.640625"/>
  <rect x="7" y="18" width="1" height="1" fill="rgb(43,0,0)" fill-opacity="0.0546875"/>
  <rect x="7" y="19" width="1" height="2" fill="rgb(255,255,255)" fill-opacity="0.0078125"/>
  <rect x="8" y="0" width="1" height="3" fill="rgb(255,255,255)" fill-opacity="0.0078125"/>
  <rect x="8" y="3" width="1" height="1" fill="rgb(3,0,0)" fill-opacity="0.296875"/>
  <rect x="8" y="4" width="1" height="2" fill="rgb(0,0,0)" fill-opacity="0.640625"/>
  <rect x="8" y="6" width="1" height="1" fill="rgb(3,0,0)" fill-opacity="0.296875"/>
  <rect x="8" y="7" width="1" height="1" fill="rgb(255,0,0)" fill-opacity="0.015625"/>
  <rect x="8" y="8" width="1" height="1" fill="rgb(16,0,0)" fill-opacity="0.125"/>
  <rect x="8" y="9" width="1" height="1" fill="rgb(7,5,5)" fill-opacity="0.59375"/>
  <rect x="8" y="10" width="1" height="1" fill="rgb(142,142,142)" fill-opacity="0.703125"/>
  <rect x="8" y="11" width="1" height="2" fill="rgb(255,255,255)" fill-opacity="0.703125"/>
  <rect x="8" y="13" width="1" height="1" fill="rgb(10,10,10)" fill-opacity="0.703125"/>
  <rect x="8" y="14" width="1" height="1" fill="rgb(81,81,81)" fill-opacity="0.703125"/>
  <rect x="8" y="15" width="1" height="1" fill="rgb(229,229,229)" fill-opacity="0.703125"/>
  <rect x="8" y="16" width="1" height="1" fill="rgb(255,255,255)" fill-opacity="0.703125"/>
  <rect x="8" y="17" width="1" height="1" fill="rgb(131,131,131)" fill-opacity="0.703125"/>
  <rect x="8" y="18" width="1" height="1" fill="rgb(3,0,0)" fill-opacity="0.375"/>
  <rect x="8" y="19" width="1" height="2" fill="rgb(255,255,255)" fill-opacity="0.0078125"/>
  <rect x="9" y="0" width="1" height="3" fill="rgb(255,255,255)" fill-opacity="0.0078125"/>
  <rect x="9" y="3" width="1" height="1" fill="rgb(0,0,0)" fill-opacity="0.640625"/>
  <rect x="9" y="4" width="1" height="2" fill="rgb(255,255,255)" fill-opacity="0.703125"/>
  <rect x="9" y="6" width="1" height="1" fill="rgb(0,0,0)" fill-opacity="0.640625"/>
  <rect x="9" y="7" width="1" height="2" fill="rgb(255,0,0)" fill-opacity="0.015625"/>
  <rect x="9" y="9" width="1" height="1" fill="rgb(57,0,0)" fill-opacity="0.0390625"/>
  <rect x="9" y="10" width="1" height="1" fill="rgb(2,0,0)" fill-opacity="0.4453125"/>
  <rect x="9" y="11" width="1" height="1" fill="rgb(85,85,85)" fill-opacity="0.703125"/>
  <rect x="9" y="12" width="1" height="1" fill="rgb(244,244,244)" fill-opacity="0.703125"/>
  <rect x="9" y="13" width="1" height="1" fill="rgb(0,0,0)" fill-opacity="0.640625"/>
  <rect x="9" y="14" width="1" height="1" fill="rgb(3,0,0)" fill-opacity="0.3359375"/>
  <rect x="9" y="15" width="1" height="1" fill="rgb(81,81,81)" fill-opacity="0.703125"/>
  <rect x="9" y="16" width="1" height="1" fill="rgb(255,255,255)" fill-opacity="0.703125"/>
  <rect x="9" y="17" width="1" height="1" fill="rgb(209,209,209)" fill-opacity="0.703125"/>
  <rect x="9" y="18" width="1" height="1" fill="rgb(2,0,0)" fill-opacity="0.53125"/>
  <rect x="9" y="19" width="1" height="2" fill="rgb(255,255,255)" fill-opacity="0.0078125"/>
  <rect x="10" y="0" width="1" height="3" fill="rgb(255,255,255)" fill-opacity="0.0078125"/>
  <rect x="10" y="3" width="1" height="1" fill="rgb(0,0,0)" fill-opacity="0.640625"/>
  <rect x="10" y="4" width="1" height="2" fill="rgb(255,255,255)" fill-opacity="0.703125"/>
  <rect x="10" y="6" width="1" height="1" fill="rgb(0,0,0)" fill-opacity="0.640625"/>
  <rect x="10" y="7" width="1" height="4" fill="rgb(255,0,0)" fill-opacity="0.015625"/>
  <rect x="10" y="11" width="1" height="1" fill="rgb(4,0,0)" fill-opacity="0.265625"/>
  <rect x="10" y="12" width="1" height="1" fill="rgb(47,47,47)" fill-opacity="0.625"/>
  <rect x="10" y="13" width="1" height="1" fill="rgb(3,0,0)" fill-opacity="0.296875"/>
  <rect x="10" y="14" width="1" height="1" fill="rgb(170,0,0)" fill-opacity="0.015625"/>
  <rect x="10" y="15" width="1" height="1" fill="rgb(10,10,10)" fill-opacity="0.6796875"/>
  <rect x="10" y="16" width="1" height="1" fill="rgb(255,255,255)" fill-opacity="0.703125"/>
  <rect x="10" y="17" width="1" height="1" fill="rgb(239,239,239)" fill-opacity="0.703125"/>
  <rect x="10" y="18" width="1" height="1" fill="rgb(0,0,0)" fill-opacity="0.609375"/>
  <rect x="10" y="19" width="1" height="2" fill="rgb(255,255,255)" fill-opacity="0.0078125"/>
  <rect x="11" y="0" width="1" height="3" fill="rgb(255,255,255)" fill-opacity="0.0078125"/>
  <rect x="11" y="3" width="1" height="1" fill="rgb(0,0,0)" fill-opacity="0.609375"/>
  <rect x="11" y="4" width="1" height="1" fill="rgb(239,239,239)" fill-opacity="0.703125"/>
  <rect x="11" y="5" width="1" height="1" fill="rgb(255,255,255)" fill-opacity="0.703125"/>
  <rect x="11" y="6" width="1" height="1" fill="rgb(10,10,10)" fill-opacity="0.6796875"/>
  <rect x="11" y="7" width="1" height="1" fill="rgb(170,0,0)" fill-opacity="0.015625"/>
  <rect x="11" y="8" width="1" height="1" fill="rgb(3,0,0)" fill-opacity="0.296875"/>
  <rect x="11" y="9" width="1" height="1" fill="rgb(47,47,47)" fill-opacity="0.625"/>
  <rect x="11" y="10" width="1" height="1" fill="rgb(4,0,0)" fill-opacity="0.265625"/>
  <rect x="11" y="11" width="1" height="4" fill="rgb(255,0,0)" fill-opacity="0.015625"/>
  <rect x="11" y="15" width="1" height="1" fill="rgb(0,0,0)" fill-opacity="0.640625"/>
  <rect x="11" y="16" width="1" height="2" fill="rgb(255,255,255)" fill-opacity="0.703125"/>
  <rect x="11" y="18" width="1" height="1" fill="rgb(0,0,0)" fill-opacity="0.640625"/>
  <rect x="11" y="19" width="1" height="2" fill="rgb(255,255,255)" fill-opacity="0.0078125"/>
  <rect x="12" y="0" width="1" height="3" fill="rgb(255,255,255)" fill-opacity="0.0078125"/>
  <rect x="12" y="3" width="1" height="1" fill="rgb(2,0,0)" fill-opacity="0.53125"/>
  <rect x="12" y="4" width="1" height="1" fill="rgb(209,209,209)" fill-opacity="0.703125"/>
  <rect x="12" y="5" width="1" height="1" fill="rgb(255,255,255)" fill-opacity="0.703125"/>
  <rect x="12" y="6" width="1" height="1" fill="rgb(80,80,80)" fill-opacity="0.703125"/>
  <rect x="12" y="7" width="1" height="1" fill="rgb(3,0,0)" fill-opacity="0.3359375"/>
  <rect x="12" y="8" width="1" height="1" fill="rgb(0,0,0)" fill-opacity="0.640625"/>
  <rect x="12" y="9" width="1" height="1" fill="rgb(244,244,244)" fill-opacity="0.703125"/>
  <rect x="12" y="10" width="1" height="1" fill="rgb(85,85,85)" fill-opacity="0.703125"/>
  <rect x="12" y="11" width="1" height="1" fill="rgb(2,0,0)" fill-opacity="0.4453125"/>
  <rect x="12" y="12" width="1" height="1" fill="rgb(57,0,0)" fill-opacity="0.0390625"/>
  <rect x="12" y="13" width="1" height="2" fill="rgb(255,0,0)" fill-opacity="0.015625"/>
  <rect x="12" y="15" width="1" height="1" fill="rgb(0,0,0)" fill-opacity="0.640625"/>
  <rect x="12" y="16" width="1" height="2" fill="rgb(255,255,255)" fill-opacity="0.703125"/>
  <rect x="12" y="18" width="1" height="1" fill="rgb(0,0,0)" fill-opacity="0.640625"/>
  <rect x="12" y="19" width="1" height="2" fill="rgb(255,255,255)" fill-opacity="0.0078125"/>
  <rect x="13" y="0" width="1" height="3" fill="rgb(255,255,255)" fill-opacity="0.0078125"/>
  <rect x="13" y="3" width="1" height="1" fill="rgb(3,0,0)" fill-opacity="0.375"/>
  <rect x="13" y="4" width="1" height="1" fill="rgb(131,131,131)" fill-opacity="0.703125"/>
  <rect x="13" y="5" width="1" height="1" fill="rgb(255,255,255)" fill-opacity="0.703125"/>
  <rect x="13" y="6" width="1" height="1" fill="rgb(229,229,229)" fill-opacity="0.703125"/>
  <rect x="13" y="7" width="1" height="1" fill="rgb(80,80,80)" fill-opacity="0.703125"/>
  <rect x="13" y="8" width="1" height="1" fill="rgb(10,10,10)" fill-opacity="0.703125"/>
  <rect x="13" y="9" width="1" height="2" fill="rgb(255,255,255)" fill-opacity="0.703125"/>
  <rect x="13" y="11" width="1" height="1" fill="rgb(142,142,142)" fill-opacity="0.703125"/>
  <rect x="13" y="12" width="1" height="1" fill="rgb(7,5,5)" fill-opacity="0.59375"/>
  <rect x="13" y="13" width="1" height="1" fill="rgb(16,0,0)" fill-opacity="0.125"/>
  <rect x="13" y="14" width="1" height="1" fill="rgb(255,0,0)" fill-opacity="0.015625"/>
  <rect x="13" y="15" width="1" height="1" fill="rgb(3,0,0)" fill-opacity="0.296875"/>
  <rect x="13" y="16" width="1" height="2" fill="rgb(0,0,0)" fill-opacity="0.640625"/>
  <rect x="13" y="18" width="1" height="1" fill="rgb(3,0,0)" fill-opacity="0.296875"/>
  <rect x="13" y="19" width="1" height="2" fill="rgb(255,255,255)" fill-opacity="0.0078125"/>
  <rect x="14" y="0" width="1" height="3" fill="rgb(255,255,255)" fill-opacity="0.0078125"/>
  <rect x="14" y="3" width="1" height="1" fill="rgb(43,0,0)" fill-opacity="0.0546875"/>
  <rect x="14" y="4" width="1" height="1" fill="rgb(9,9,9)" fill-opacity="0.640625"/>
  <rect x="14" y="5" width="1" height="1" fill="rgb(214,214,214)" fill-opacity="0.703125"/>
  <rect x="14" y="6" width="1" height="6" fill="rgb(255,255,255)" fill-opacity="0.703125"/>
  <rect x="14" y="12" width="1" height="1" fill="rgb(194,194,194)" fill-opacity="0.703125"/>
  <rect x="14" y="13" width="1" height="1" fill="rgb(25,25,25)" fill-opacity="0.6796875"/>
  <rect x="14" y="14" width="1" height="1" fill="rgb(17,0,0)" fill-opacity="0.125"/>
  <rect x="14" y="15" width="1" height="4" fill="rgb(255,0,0)" fill-opacity="0.015625"/>
  <rect x="14" y="19" width="1" height="2" fill="rgb(255,255,255)" fill-opacity="0.0078125"/>
  <rect x="15" y="0" width="1" height="3" fill="rgb(255,255,255)" fill-opacity="0.0078125"/>
  <rect x="15" y="3" width="1" height="1" fill="rgb(255,0,0)" fill-opacity="0.015625"/>
  <rect x="15" y="4" width="1" height="1" fill="rgb(6,0,0)" fill-opacity="0.1796875"/>
  <rect x="15" y="5" width="1" height="1" fill="rgb(8,8,8)" fill-opacity="0.6328125"/>
  <rect x="15" y="6" width="1" height="1" fill="rgb(118,118,118)" fill-opacity="0.703125"/>
  <rect x="15" y="7" width="1" height="1" fill="rgb(208,208,208)" fill-opacity="0.703125"/>
  <rect x="15" y="8" width="1" height="1" fill="rgb(239,239,239)" fill-opacity="0.703125"/>
  <rect x="15" y="9" width="1" height="3" fill="rgb(255,255,255)" fill-opacity="0.703125"/>
  <rect x="15" y="12" width="1" height="1" fill="rgb(194,194,194)" fill-opacity="0.703125"/>
  <rect x="15" y="13" width="1" height="1" fill="rgb(25,25,25)" fill-opacity="0.6796875"/>
  <rect x="15" y="14" width="1" height="1" fill="rgb(17,0,0)" fill-opacity="0.125"/>
  <rect x="15" y="15" width="1" height="4" fill="rgb(255,0,0)" fill-opacity="0.015625"/>
  <rect x="15" y="19" width="1" height="2" fill="rgb(255,255,255)" fill-opacity="0.0078125"/>
  <rect x="16" y="0" width="1" height="3" fill="rgb(255,255,255)" fill-opacity="0.0078125"/>
  <rect x="16" y="3" width="1" height="2" fill="rgb(255,0,0)" fill-opacity="0.015625"/>
  <rect x="16" y="5" width="1" height="1" fill="rgb(64,0,0)" fill-opacity="0.0390625"/>
  <rect x="16" y="6" width="1" height="1" fill="rgb(3,0,0)" fill-opacity="0.34375"/>
  <rect x="16" y="7" width="1" height="1" fill="rgb(2,0,0)" fill-opacity="0.5234375"/>
  <rect x="16" y="8" width="1" height="1" fill="rgb(0,0,0)" fill-opacity="0.6953125"/>
  <rect x="16" y="9" width="1" height="2" fill="rgb(255,255,255)" fill-opacity="0.703125"/>
  <rect x="16" y="11" width="1" height="1" fill="rgb(142,142,142)" fill-opacity="0.703125"/>
  <rect x="16" y="12" width="1" height="1" fill="rgb(7,5,5)" fill-opacity="0.59375"/>
  <rect x="16" y="13" width="1" height="1" fill="rgb(16,0,0)" fill-opacity="0.125"/>
  <rect x="16" y="14" width="1" height="5" fill="rgb(255,0,0)" fill-opacity="0.015625"/>
  <rect x="16" y="19" width="1" height="2" fill="rgb(255,255,255)" fill-opacity="0.0078125"/>
  <rect x="17" y="0" width="1" height="3" fill="rgb(255,255,255)" fill-opacity="0.0078125"/>
  <rect x="17" y="3" width="1" height="5" fill="rgb(255,0,0)" fill-opacity="0.015625"/>
  <rect x="17" y="8" width="1" height="1" fill="rgb(0,0,0)" fill-opacity="0.640625"/>
  <rect x="17" y="9" width="1" height="1" fill="rgb(244,244,244)" fill-opacity="0.703125"/>
  <rect x="17" y="10" width="1" height="1" fill="rgb(85,85,85)" fill-opacity="0.703125"/>
  <rect x="17" y="11" width="1" height="1" fill="rgb(2,0,0)" fill-opacity="0.4453125"/>
  <rect x="17" y="12" width="1" height="1" fill="rgb(57,0,0)" fill-opacity="0.0390625"/>
  <rect x="17" y="13" width="1" height="6" fill="rgb(255,0,0)" fill-opacity="0.015625"/>
  <rect x="17" y="19" width="1" height="2" fill="rgb(255,255,255)" fill-opacity="0.0078125"/>
  <rect x="18" y="0" width="1" height="3" fill="rgb(255,255,255)" fill-opacity="0.0078125"/>
  <rect x="18" y="3" width="1" height="5" fill="rgb(255,0,0)" fill-opacity="0.015625"/>
  <rect x="18" y="8" width="1" height="1" fill="rgb(3,0,0)" fill-opacity="0.296875"/>
  <rect x="18" y="9" width="1" height="1" fill="rgb(47,47,47)" fill-opacity="0.625"/>
  <rect x="18" y="10" width="1" height="1" fill="rgb(4,0,0)" fill-opacity="0.265625"/>
  <rect x="18" y="11" width="1" height="8" fill="rgb(255,0,0)" fill-opacity="0.015625"/>
  <rect x="18" y="19" width="1" height="2" fill="rgb(255,255,255)" fill-opacity="0.0078125"/>
  <rect x="19" y="0" width="1" height="21" fill="rgb(255,255,255)" fill-opacity="0.0078125"/>
  <rect x="20" y="0" width="1" height="21" fill="rgb(255,255,255)" fill-opacity="0.0078125"/>
</svg>