<svg xmlns="http://www.w3.org/2000/svg" shape-rendering="crispEdges" width="21" height="21" viewBox="0 0 21 21">
  <rect x="0" y="0" width="21" height="1" fill="rgb(255,255,255)" fill-opacity="0.0078125"/>
  <rect x="0" y="1" width="21" height="1" fill="rgb(255,255,255)" fill-opacity="0.0078125"/>
  <rect x="0" y="2" width="21" height="1" fill="rgb(255,255,255)" fill-opacity="0.0078125"/>
  <rect x="0" y="3" width="21" height="1" fill="rgb(255,255,255)" fill-opacity="0.0078125"/>
  <rect x="0" y="4" width="9" height="1" fill="rgb(255,255,255)" fill-opacity="0.0078125"/>
  <rect x="9" y="4" width="1" height="1" fill="rgb(98,46,31)" fill-opacity="0.9609375"/>
  <rect x="10" y="4" width="6" height="1" fill="rgb(100,43,27)" fill-opacity="0.9921875"/>
  <rect x="16" y="4" width="1" height="1" fill="rgb(98,46,31)" fill-opacity="0.9609375"/>
  <rect x="17" y="4" width="4" height="1" fill="rgb(255,255,255)" fill-opacity="0.0078125"/>
  <rect x="0" y="5" width="3" height="1" fill="rgb(255,255,255)" fill-opacity="0.0078125"/>
  <rect x="3" y="5" width="1" height="1" fill="rgb(69,63,36)" fill-opacity="0.796875"/>
  <rect x="4" y="5" width="1" height="1" fill="rgb(73,64,37)" fill-opacity="0.9140625"/>
  <rect x="5" y="5" width="2" height="1" fill="rgb(71,64,37)" fill-opacity="0.9140625"/>
  <rect x="7" y="5" width="1" height="1" fill="rgb(69,62,35)" fill-opacity="0.796875"/>
  <rect x="8" y="5" width="1" height="1" fill="rgb(255,255,255)" fill-opacity="0.0078125"/>
  <rect x="9" y="5" width="1" height="1" fill="rgb(100,43,27)" fill-opacity="0.9921875"/>
  <rect x="10" y="5" width="2" height="1" fill="rgb(255,255,255)"/>
  <rect x="12" y="5" width="1" height="1" fill="rgb(233,151,151)"/>
  <rect x="13" y="5" width="1" height="1" fill="rgb(228,128,128)"/>
  <rect x="14" y="5" width="2" height="1" fill="rgb(255,255,255)"/>
  <rect x="16" y="5" width="1" height="1" fill="rgb(100,43,27)" fill-opacity="0.9921875"/>
  <rect x="17" y="5" width="4" height="1" fill="rgb(255,255,255)" fill-opacity="0.0078125"/>
  <rect x="0" y="6" width="3" height="1" fill="rgb(255,255,255)" fill-opacity="0.0078125"/>
  <rect x="3" y="6" width="1" height="1" fill="rgb(71,64,37)" fill-opacity="0.9140625"/>
  <rect x="4" y="6" width="3" height="1" fill="rgb(255,255,255)"/>
  <rect x="7" y="6" width="1" height="1" fill="rgb(87,79,49)" fill-opacity="0.9375"/>
  <rect x="8" y="6" width="1" height="1" fill="rgb(70,63,36)" fill-opacity="0.9140625"/>
  <rect x="9" y="6" width="1" height="1" fill="rgb(104,46,33)" fill-opacity="0.9921875"/>
  <rect x="10" y="6" width="2" height="1" fill="rgb(255,255,255)"/>
  <rect x="12" y="6" width="2" height="1" fill="rgb(200,0,0)"/>
  <rect x="14" y="6" width="2" height="1" fill="rgb(255,255,255)"/>
  <rect x="16" y="6" width="1" height="1" fill="rgb(100,43,27)" fill-opacity="0.9921875"/>
  <rect x="17" y="6" width="4" height="1" fill="rgb(255,255,255)" fill-opacity="0.0078125"/>
  <rect x="0" y="7" width="3" height="1" fill="rgb(255,255,255)" fill-opacity="0.0078125"/>
  <rect x="3" y="7" width="1" height="1" fill="rgb(70,63,36)" fill-opacity="0.9140625"/>
  <rect x="4" y="7" width="3" height="1" fill="rgb(255,255,255)"/>
  <rect x="7" y="7" width="1" height="1" fill="rgb(220,214,192)"/>
  <rect x="8" y="7" width="1" height="1" fill="rgb(206,199,168)"/>
  <rect x="9" y="7" width="1" height="1" fill="rgb(129,76,73)"/>
  <rect x="10" y="7" width="1" height="1" fill="rgb(232,148,148)"/>
  <rect x="11" y="7" width="1" height="1" fill="rgb(200,0,0)"/>
  <rect x="12" y="7" width="2" height="1" fill="rgb(255,255,255)"/>
  <rect x="14" y="7" width="1" height="1" fill="rgb(200,0,0)"/>
  <rect x="15" y="7" width="1" height="1" fill="rgb(206,29,29)"/>
  <rect x="16" y="7" width="1" height="1" fill="rgb(100,43,27)" fill-opacity="0.9921875"/>
  <rect x="17" y="7" width="4" height="1" fill="rgb(255,255,255)" fill-opacity="0.0078125"/>
  <rect x="0" y="8" width="3" height="1" fill="rgb(255,255,255)" fill-opacity="0.0078125"/>
  <rect x="3" y="8" width="1" height="1" fill="rgb(69,62,35)" fill-opacity="0.9140625"/>
  <rect x="4" y="8" width="1" height="1" fill="rgb(215,210,187)"/>
  <rect x="5" y="8" width="1" height="1" fill="rgb(176,165,122)"/>
  <rect x="6" y="8" width="1" height="1" fill="rgb(174,163,120)"/>
  <rect x="7" y="8" width="1" height="1" fill="rgb(172,161,118)"/>
  <rect x="8" y="8" width="1" height="1" fill="rgb(170,159,117)"/>
  <rect x="9" y="8" width="1" height="1" fill="rgb(128,76,73)"/>
  <rect x="10" y="8" width="1" height="1" fill="rgb(226,122,122)"/>
  <rect x="11" y="8" width="1" height="1" fill="rgb(200,0,0)"/>
  <rect x="12" y="8" width="2" height="1" fill="rgb(255,255,255)"/>
  <rect x="14" y="8" width="1" height="1" fill="rgb(200,0,0)"/>
  <rect x="15" y="8" width="1" height="1" fill="rgb(201,3,3)"/>
  <rect x="16" y="8" width="1" height="1" fill="rgb(99,43,26)" fill-opacity="0.9921875"/>
  <rect x="17" y="8" width="4" height="1" fill="rgb(255,255,255)" fill-opacity="0.0078125"/>
  <rect x="0" y="9" width="3" height="1" fill="rgb(255,255,255)" fill-opacity="0.0078125"/>
  <rect x="3" y="9" width="1" height="1" fill="rgb(68,60,34)" fill-opacity="0.9140625"/>
  <rect x="4" y="9" width="1" height="1" fill="rgb(209,204,182)"/>
  <rect x="5" y="9" width="1" height="1" fill="rgb(164,154,112)"/>
  <rect x="6" y="9" width="1" height="1" fill="rgb(162,152,110)"/>
  <rect x="7" y="9" width="1" height="1" fill="rgb(160,150,108)"/>
  <rect x="8" y="9" width="1" height="1" fill="rgb(158,148,107)"/>
  <rect x="9" y="9" width="1" height="1" fill="rgb(128,75,72)"/>
  <rect x="10" y="9" width="2" height="1" fill="rgb(255,255,255)"/>
  <rect x="12" y="9" width="2" height="1" fill="rgb(200,0,0)"/>
  <rect x="14" y="9" width="1" height="1" fill="rgb(244,244,244)"/>
  <rect x="15" y="9" width="1" height="1" fill="rgb(234,234,234)"/>
  <rect x="16" y="9" width="1" height="1" fill="rgb(99,43,26)" fill-opacity="0.9921875"/>
  <rect x="17" y="9" width="4" height="1" fill="rgb(255,255,255)" fill-opacity="0.0078125"/>
  <rect x="0" y="10" width="3" height="1" fill="rgb(255,255,255)" fill-opacity="0.0078125"/>
  <rect x="3" y="10" width="1" height="1" fill="rgb(67,59,33)" fill-opacity="0.9140625"/>
  <rect x="4" y="10" width="1" height="1" fill="rgb(203,198,177)"/>
  <rect x="5" y="10" width="1" height="1" fill="rgb(152,142,102)"/>
  <rect x="6" y="10" width="1" height="1" fill="rgb(144,134,94)"/>
  <rect x="7" y="10" width="1" height="1" fill="rgb(138,127,90)"/>
  <rect x="8" y="10" width="1" height="1" fill="rgb(132,122,86)"/>
  <rect x="9" y="10" width="1" height="1" fill="rgb(125,110,78)"/>
  <rect x="10" y="10" width="1" height="1" fill="rgb(130,123,90)"/>
  <rect x="11" y="10" width="1" height="1" fill="rgb(126,117,86)"/>
  <rect x="12" y="10" width="1" height="1" fill="rgb(115,89,58)"/>
  <rect x="13" y="10" width="1" height="1" fill="rgb(109,84,54)"/>
  <rect x="14" y="10" width="1" height="1" fill="rgb(107,100,70)"/>
  <rect x="15" y="10" width="1" height="1" fill="rgb(101,93,65)"/>
  <rect x="16" y="10" width="1" height="1" fill="rgb(69,54,30)"/>
  <rect x="17" y="10" width="1" height="1" fill="rgb(60,53,26)" fill-opacity="0.984375"/>
  <rect x="18" y="10" width="1" height="1" fill="rgb(60,53,28)" fill-opacity="0.9453125"/>
  <rect x="19" y="10" width="2" height="1" fill="rgb(255,255,255)" fill-opacity="0.0078125"/>
  <rect x="0" y="11" width="3" height="1" fill="rgb(255,255,255)" fill-opacity="0.0078125"/>
  <rect x="3" y="11" width="1" height="1" fill="rgb(66,58,32)" fill-opacity="0.9140625"/>
  <rect x="4" y="11" width="1" height="1" fill="rgb(197,192,172)"/>
  <rect x="5" y="11" width="1" height="1" fill="rgb(140,131,92)"/>
  <rect x="6" y="11" width="1" height="1" fill="rgb(130,122,84)"/>
  <rect x="7" y="11" width="10" height="1" fill="rgb(246,243,234)"/>
  <rect x="17" y="11" width="1" height="1" fill="rgb(240,236,220)"/>
  <rect x="18" y="11" width="1" height="1" fill="rgb(60,52,26)" fill-opacity="0.984375"/>
  <rect x="19" y="11" width="2" height="1" fill="rgb(255,255,255)" fill-opacity="0.0078125"/>
  <rect x="0" y="12" width="3" height="1" fill="rgb(255,255,255)" fill-opacity="0.0078125"/>
  <rect x="3" y="12" width="1" height="1" fill="rgb(65,57,31)" fill-opacity="0.9140625"/>
  <rect x="4" y="12" width="1" height="1" fill="rgb(191,186,167)"/>
  <rect x="5" y="12" width="1" height="1" fill="rgb(128,119,82)"/>
  <rect x="6" y="12" width="1" height="1" fill="rgb(118,110,74)"/>
  <rect x="7" y="12" width="1" height="1" fill="rgb(246,243,234)"/>
  <rect x="8" y="12" width="10" height="1" fill="rgb(209,197,149)"/>
  <rect x="18" y="12" width="1" height="1" fill="rgb(60,52,26)" fill-opacity="0.984375"/>
  <rect x="19" y="12" width="2" height="1" fill="rgb(255,255,255)" fill-opacity="0.0078125"/>
  <rect x="0" y="13" width="3" height="1" fill="rgb(255,255,255)" fill-opacity="0.0078125"/>
  <rect x="3" y="13" width="1" height="1" fill="rgb(64,56,31)" fill-opacity="0.9140625"/>
  <rect x="4" y="13" width="1" height="1" fill="rgb(185,181,162)"/>
  <rect x="5" y="13" width="1" height="1" fill="rgb(117,108,72)"/>
  <rect x="6" y="13" width="1" height="1" fill="rgb(106,98,63)"/>
  <rect x="7" y="13" width="1" height="1" fill="rgb(246,243,234)"/>
  <rect x="8" y="13" width="10" height="1" fill="rgb(209,197,149)"/>
  <rect x="18" y="13" width="1" height="1" fill="rgb(60,52,26)" fill-opacity="0.984375"/>
  <rect x="19" y="13" width="2" height="1" fill="rgb(255,255,255)" fill-opacity="0.0078125"/>
  <rect x="0" y="14" width="3" height="1" fill="rgb(255,255,255)" fill-opacity="0.0078125"/>
  <rect x="3" y="14" width="1" height="1" fill="rgb(63,55,30)" fill-opacity="0.9140625"/>
  <rect x="4" y="14" width="1" height="1" fill="rgb(179,174,157)"/>
  <rect x="5" y="14" width="1" height="1" fill="rgb(104,96,62)"/>
  <rect x="6" y="14" width="1" height="1" fill="rgb(94,85,53)"/>
  <rect x="7" y="14" width="1" height="1" fill="rgb(246,243,234)"/>
  <rect x="8" y="14" width="10" height="1" fill="rgb(209,197,149)"/>
  <rect x="18" y="14" width="1" height="1" fill="rgb(60,52,26)" fill-opacity="0.984375"/>
  <rect x="19" y="14" width="2" height="1" fill="rgb(255,255,255)" fill-opacity="0.0078125"/>
  <rect x="0" y="15" width="3" height="1" fill="rgb(255,255,255)" fill-opacity="0.0078125"/>
  <rect x="3" y="15" width="1" height="1" fill="rgb(60,53,27)" fill-opacity="0.9140625"/>
  <rect x="4" y="15" width="1" height="1" fill="rgb(184,180,166)"/>
  <rect x="5" y="15" width="1" height="1" fill="rgb(134,128,106)"/>
  <rect x="6" y="15" width="1" height="1" fill="rgb(127,120,93)"/>
  <rect x="7" y="15" width="1" height="1" fill="rgb(244,241,230)"/>
  <rect x="8" y="15" width="10" height="1" fill="rgb(209,197,149)"/>
  <rect x="18" y="15" width="1" height="1" fill="rgb(59,52,26)" fill-opacity="0.984375"/>
  <rect x="19" y="15" width="2" height="1" fill="rgb(255,255,255)" fill-opacity="0.0078125"/>
  <rect x="0" y="16" width="3" height="1" fill="rgb(255,255,255)" fill-opacity="0.0078125"/>
  <rect x="3" y="16" width="1" height="1" fill="rgb(58,53,27)" fill-opacity="0.6015625"/>
  <rect x="4" y="16" width="1" height="1" fill="rgb(80,74,49)" fill-opacity="0.9765625"/>
  <rect x="5" y="16" width="1" height="1" fill="rgb(232,230,222)"/>
  <rect x="6" y="16" width="1" height="1" fill="rgb(239,236,223)"/>
  <rect x="7" y="16" width="1" height="1" fill="rgb(186,178,146)"/>
  <rect x="8" y="16" width="8" height="1" fill="rgb(170,160,121)"/>
  <rect x="16" y="16" width="1" height="1" fill="rgb(176,166,126)"/>
  <rect x="17" y="16" width="1" height="1" fill="rgb(84,76,46)" fill-opacity="0.9765625"/>
  <rect x="18" y="16" width="1" height="1" fill="rgb(63,56,29)" fill-opacity="0.8203125"/>
  <rect x="19" y="16" width="2" height="1" fill="rgb(255,255,255)" fill-opacity="0.0078125"/>
  <rect x="0" y="17" width="4" height="1" fill="rgb(255,255,255)" fill-opacity="0.0078125"/>
  <rect x="4" y="17" width="1" height="1" fill="rgb(57,52,25)" fill-opacity="0.71875"/>
  <rect x="5" y="17" width="1" height="1" fill="rgb(65,58,33)"/>
  <rect x="6" y="17" width="1" height="1" fill="rgb(67,59,34)" fill-opacity="0.9921875"/>
  <rect x="7" y="17" width="7" height="1" fill="rgb(59,52,27)" fill-opacity="0.9921875"/>
  <rect x="14" y="17" width="1" height="1" fill="rgb(60,53,27)" fill-opacity="0.9921875"/>
  <rect x="15" y="17" width="1" height="1" fill="rgb(60,52,26)" fill-opacity="0.984375"/>
  <rect x="16" y="17" width="1" height="1" fill="rgb(59,52,26)" fill-opacity="0.984375"/>
  <rect x="17" y="17" width="1" height="1" fill="rgb(63,56,29)" fill-opacity="0.8203125"/>
  <rect x="18" y="17" width="3" height="1" fill="rgb(255,255,255)" fill-opacity="0.0078125"/>
  <rect x="0" y="18" width="21" height="1" fill="rgb(255,255,255)" fill-opacity="0.0078125"/>
  <rect x="0" y="19" width="21" height="1" fill="rgb(255,255,255)" fill-opacity="0.0078125"/>
  <rect x="0" y="20" width="21" height="1" fill="rgb(255,255,255)" fill-opacity="0.0078125"/>
</svg>