<svg xmlns="http://www.w3.org/2000/svg" shape-rendering="crispEdges" width="21" height="21" viewBox="0 0 21 21">
  <rect x="0" y="0" width="21" height="1" fill="rgb(255,255,255)" fill-opacity="0.0078125"/>
  <rect x="0" y="1" width="21" height="1" fill="rgb(255,255,255)" fill-opacity="0.0078125"/>
  <rect x="0" y="2" width="21" height="1" fill="rgb(255,255,255)" fill-opacity="0.0078125"/>
  <rect x="0" y="3" width="21" height="1" fill="rgb(255,255,255)" fill-opacity="0.0078125"/>
  <rect x="0" y="4" width="21" height="1" fill="rgb(255,255,255)" fill-opacity="0.0078125"/>
  <rect x="0" y="5" width="21" height="1" fill="rgb(255,255,255)" fill-opacity="0.0078125"/>
  <rect x="0" y="6" width="21" height="1" fill="rgb(255,255,255)" fill-opacity="0.0078125"/>
  <rect x="0" y="7" width="9" height="1" fill="rgb(255,255,255)" fill-opacity="0.0078125"/>
  <rect x="9" y="7" width="1" height="1" fill="rgb(0,0,0)" fill-opacity="0.0234375"/>
  <rect x="10" y="7" width="1" height="1" fill="rgb(27,27,27)" fill-opacity="0.3359375"/>
  <rect x="11" y="7" width="1" height="1" fill="rgb(44,44,44)" fill-opacity="0.75"/>
  <rect x="12" y="7" width="1" height="1" fill="rgb(43,43,43)" fill-opacity="0.765625"/>
  <rect x="13" y="7" width="1" height="1" fill="rgb(25,25,25)" fill-opacity="0.3671875"/>
  <rect x="14" y="7" width="1" height="1" fill="rgb(36,36,36)" fill-opacity="0.03125"/>
  <rect x="15" y="7" width="6" height="1" fill="rgb(255,255,255)" fill-opacity="0.0078125"/>
  <rect x="0" y="8" width="7" height="1" fill="rgb(255,255,255)" fill-opacity="0.0078125"/>
  <rect x="7" y="8" width="1" height="1" fill="rgb(26,26,26)" fill-opacity="0.0859375"/>
  <rect x="8" y="8" width="1" height="1" fill="rgb(25,25,25)" fill-opacity="0.4765625"/>
  <rect x="9" y="8" width="1" height="1" fill="rgb(69,69,69)" fill-opacity="0.9140625"/>
  <rect x="10" y="8" width="1" height="1" fill="rgb(142,142,142)"/>
  <rect x="11" y="8" width="1" height="1" fill="rgb(169,169,169)"/>
  <rect x="12" y="8" width="1" height="1" fill="rgb(188,188,188)"/>
  <rect x="13" y="8" width="1" height="1" fill="rgb(141,141,141)"/>
  <rect x="14" y="8" width="1" height="1" fill="rgb(69,69,69)" fill-opacity="0.9375"/>
  <rect x="15" y="8" width="1" height="1" fill="rgb(28,28,28)" fill-opacity="0.53125"/>
  <rect x="16" y="8" width="1" height="1" fill="rgb(25,25,25)" fill-opacity="0.125"/>
  <rect x="17" y="8" width="4" height="1" fill="rgb(255,255,255)" fill-opacity="0.0078125"/>
  <rect x="0" y="9" width="5" height="1" fill="rgb(255,255,255)" fill-opacity="0.0078125"/>
  <rect x="5" y="9" width="1" height="1" fill="rgb(27,27,27)" fill-opacity="0.1953125"/>
  <rect x="6" y="9" width="1" height="1" fill="rgb(38,38,38)" fill-opacity="0.6328125"/>
  <rect x="7" y="9" width="1" height="1" fill="rgb(104,104,104)" fill-opacity="0.9921875"/>
  <rect x="8" y="9" width="1" height="1" fill="rgb(180,180,180)"/>
  <rect x="9" y="9" width="1" height="1" fill="rgb(175,175,175)"/>
  <rect x="10" y="9" width="1" height="1" fill="rgb(97,97,97)"/>
  <rect x="11" y="9" width="1" height="1" fill="rgb(34,34,34)"/>
  <rect x="12" y="9" width="1" height="1" fill="rgb(107,107,107)"/>
  <rect x="13" y="9" width="1" height="1" fill="rgb(145,145,145)"/>
  <rect x="14" y="9" width="1" height="1" fill="rgb(187,187,187)"/>
  <rect x="15" y="9" width="1" height="1" fill="rgb(178,178,178)"/>
  <rect x="16" y="9" width="1" height="1" fill="rgb(105,105,105)"/>
  <rect x="17" y="9" width="1" height="1" fill="rgb(42,42,42)" fill-opacity="0.7109375"/>
  <rect x="18" y="9" width="1" height="1" fill="rgb(28,28,28)" fill-opacity="0.1875"/>
  <rect x="19" y="9" width="2" height="1" fill="rgb(255,255,255)" fill-opacity="0.0078125"/>
  <rect x="0" y="10" width="4" height="1" fill="rgb(255,255,255)" fill-opacity="0.0078125"/>
  <rect x="4" y="10" width="1" height="1" fill="rgb(26,26,26)" fill-opacity="0.5546875"/>
  <rect x="5" y="10" width="1" height="1" fill="rgb(119,119,119)"/>
  <rect x="6" y="10" width="1" height="1" fill="rgb(213,213,213)"/>
  <rect x="7" y="10" width="1" height="1" fill="rgb(161,161,161)"/>
  <rect x="8" y="10" width="1" height="1" fill="rgb(77,77,77)"/>
  <rect x="9" y="10" width="1" height="1" fill="rgb(27,27,27)"/>
  <rect x="10" y="10" width="2" height="1" fill="rgb(26,26,26)"/>
  <rect x="12" y="10" width="3" height="1" fill="rgb(102,102,102)"/>
  <rect x="15" y="10" width="1" height="1" fill="rgb(128,128,128)"/>
  <rect x="16" y="10" width="1" height="1" fill="rgb(182,182,182)"/>
  <rect x="17" y="10" width="1" height="1" fill="rgb(208,208,208)"/>
  <rect x="18" y="10" width="1" height="1" fill="rgb(26,26,26)" fill-opacity="0.796875"/>
  <rect x="19" y="10" width="2" height="1" fill="rgb(255,255,255)" fill-opacity="0.0078125"/>
  <rect x="0" y="11" width="4" height="1" fill="rgb(255,255,255)" fill-opacity="0.0078125"/>
  <rect x="4" y="11" width="1" height="1" fill="rgb(27,27,27)" fill-opacity="0.9140625"/>
  <rect x="5" y="11" width="1" height="1" fill="rgb(241,241,241)"/>
  <rect x="6" y="11" width="1" height="1" fill="rgb(167,167,167)"/>
  <rect x="7" y="11" width="1" height="1" fill="rgb(42,42,42)"/>
  <rect x="8" y="11" width="4" height="1" fill="rgb(26,26,26)"/>
  <rect x="12" y="11" width="2" height="1" fill="rgb(102,102,102)"/>
  <rect x="14" y="11" width="1" height="1" fill="rgb(112,112,112)"/>
  <rect x="15" y="11" width="1" height="1" fill="rgb(182,182,182)"/>
  <rect x="16" y="11" width="1" height="1" fill="rgb(232,232,232)"/>
  <rect x="17" y="11" width="1" height="1" fill="rgb(197,197,197)"/>
  <rect x="18" y="11" width="1" height="1" fill="rgb(26,26,26)" fill-opacity="0.8828125"/>
  <rect x="19" y="11" width="2" height="1" fill="rgb(255,255,255)" fill-opacity="0.0078125"/>
  <rect x="0" y="12" width="4" height="1" fill="rgb(255,255,255)" fill-opacity="0.0078125"/>
  <rect x="4" y="12" width="1" height="1" fill="rgb(26,26,26)" fill-opacity="0.9140625"/>
  <rect x="5" y="12" width="1" height="1" fill="rgb(225,225,225)"/>
  <rect x="6" y="12" width="1" height="1" fill="rgb(217,217,217)"/>
  <rect x="7" y="12" width="1" height="1" fill="rgb(243,243,243)"/>
  <rect x="8" y="12" width="1" height="1" fill="rgb(148,148,148)"/>
  <rect x="9" y="12" width="1" height="1" fill="rgb(35,35,35)"/>
  <rect x="10" y="12" width="2" height="1" fill="rgb(26,26,26)"/>
  <rect x="12" y="12" width="1" height="1" fill="rgb(107,107,107)"/>
  <rect x="13" y="12" width="1" height="1" fill="rgb(172,172,172)"/>
  <rect x="14" y="12" width="1" height="1" fill="rgb(242,242,242)"/>
  <rect x="15" y="12" width="1" height="1" fill="rgb(203,203,203)"/>
  <rect x="16" y="12" width="1" height="1" fill="rgb(129,129,129)"/>
  <rect x="17" y="12" width="1" height="1" fill="rgb(144,144,144)"/>
  <rect x="18" y="12" width="1" height="1" fill="rgb(26,26,26)" fill-opacity="0.8828125"/>
  <rect x="19" y="12" width="2" height="1" fill="rgb(255,255,255)" fill-opacity="0.0078125"/>
  <rect x="0" y="13" width="4" height="1" fill="rgb(255,255,255)" fill-opacity="0.0078125"/>
  <rect x="4" y="13" width="1" height="1" fill="rgb(26,26,26)" fill-opacity="0.9140625"/>
  <rect x="5" y="13" width="1" height="1" fill="rgb(219,219,219)"/>
  <rect x="6" y="13" width="1" height="1" fill="rgb(179,179,179)"/>
  <rect x="7" y="13" width="1" height="1" fill="rgb(195,195,195)"/>
  <rect x="8" y="13" width="1" height="1" fill="rgb(228,228,228)"/>
  <rect x="9" y="13" width="1" height="1" fill="rgb(240,240,240)"/>
  <rect x="10" y="13" width="1" height="1" fill="rgb(122,122,122)"/>
  <rect x="11" y="13" width="1" height="1" fill="rgb(116,116,116)"/>
  <rect x="12" y="13" width="1" height="1" fill="rgb(239,239,239)"/>
  <rect x="13" y="13" width="1" height="1" fill="rgb(220,220,220)"/>
  <rect x="14" y="13" width="1" height="1" fill="rgb(140,140,140)"/>
  <rect x="15" y="13" width="1" height="1" fill="rgb(102,102,102)"/>
  <rect x="16" y="13" width="1" height="1" fill="rgb(106,106,106)"/>
  <rect x="17" y="13" width="1" height="1" fill="rgb(142,142,142)"/>
  <rect x="18" y="13" width="1" height="1" fill="rgb(26,26,26)" fill-opacity="0.8828125"/>
  <rect x="19" y="13" width="2" height="1" fill="rgb(255,255,255)" fill-opacity="0.0078125"/>
  <rect x="0" y="14" width="4" height="1" fill="rgb(255,255,255)" fill-opacity="0.0078125"/>
  <rect x="4" y="14" width="1" height="1" fill="rgb(26,26,26)" fill-opacity="0.890625"/>
  <rect x="5" y="14" width="1" height="1" fill="rgb(213,213,213)"/>
  <rect x="6" y="14" width="1" height="1" fill="rgb(198,198,198)"/>
  <rect x="7" y="14" width="1" height="1" fill="rgb(181,181,181)"/>
  <rect x="8" y="14" width="1" height="1" fill="rgb(179,179,179)"/>
  <rect x="9" y="14" width="1" height="1" fill="rgb(202,202,202)"/>
  <rect x="10" y="14" width="1" height="1" fill="rgb(236,236,236)"/>
  <rect x="11" y="14" width="1" height="1" fill="rgb(229,229,229)"/>
  <rect x="12" y="14" width="1" height="1" fill="rgb(152,152,152)"/>
  <rect x="13" y="14" width="1" height="1" fill="rgb(102,102,102)"/>
  <rect x="14" y="14" width="1" height="1" fill="rgb(104,104,104)"/>
  <rect x="15" y="14" width="1" height="1" fill="rgb(125,125,125)"/>
  <rect x="16" y="14" width="1" height="1" fill="rgb(139,139,139)"/>
  <rect x="17" y="14" width="1" height="1" fill="rgb(93,93,93)"/>
  <rect x="18" y="14" width="1" height="1" fill="rgb(26,26,26)" fill-opacity="0.7109375"/>
  <rect x="19" y="14" width="2" height="1" fill="rgb(255,255,255)" fill-opacity="0.0078125"/>
  <rect x="0" y="15" width="4" height="1" fill="rgb(255,255,255)" fill-opacity="0.0078125"/>
  <rect x="4" y="15" width="1" height="1" fill="rgb(27,27,27)" fill-opacity="0.375"/>
  <rect x="5" y="15" width="1" height="1" fill="rgb(51,51,51)" fill-opacity="0.96875"/>
  <rect x="6" y="15" width="1" height="1" fill="rgb(154,154,154)"/>
  <rect x="7" y="15" width="1" height="1" fill="rgb(209,209,209)"/>
  <rect x="8" y="15" width="1" height="1" fill="rgb(193,193,193)"/>
  <rect x="9" y="15" width="1" height="1" fill="rgb(180,180,180)"/>
  <rect x="10" y="15" width="1" height="1" fill="rgb(179,179,179)"/>
  <rect x="11" y="15" width="1" height="1" fill="rgb(102,102,102)"/>
  <rect x="12" y="15" width="1" height="1" fill="rgb(103,103,103)"/>
  <rect x="13" y="15" width="1" height="1" fill="rgb(123,123,123)"/>
  <rect x="14" y="15" width="1" height="1" fill="rgb(143,143,143)"/>
  <rect x="15" y="15" width="1" height="1" fill="rgb(104,104,104)"/>
  <rect x="16" y="15" width="1" height="1" fill="rgb(43,43,43)" fill-opacity="0.96875"/>
  <rect x="17" y="15" width="1" height="1" fill="rgb(25,25,25)" fill-opacity="0.5234375"/>
  <rect x="18" y="15" width="1" height="1" fill="rgb(18,18,18)" fill-opacity="0.0625"/>
  <rect x="19" y="15" width="2" height="1" fill="rgb(255,255,255)" fill-opacity="0.0078125"/>
  <rect x="0" y="16" width="5" height="1" fill="rgb(255,255,255)" fill-opacity="0.0078125"/>
  <rect x="5" y="16" width="1" height="1" fill="rgb(23,23,23)" fill-opacity="0.09375"/>
  <rect x="6" y="16" width="1" height="1" fill="rgb(26,26,26)" fill-opacity="0.5859375"/>
  <rect x="7" y="16" width="1" height="1" fill="rgb(63,63,63)" fill-opacity="0.9921875"/>
  <rect x="8" y="16" width="1" height="1" fill="rgb(165,165,165)"/>
  <rect x="9" y="16" width="1" height="1" fill="rgb(205,205,205)"/>
  <rect x="10" y="16" width="1" height="1" fill="rgb(189,189,189)"/>
  <rect x="11" y="16" width="1" height="1" fill="rgb(120,120,120)"/>
  <rect x="12" y="16" width="1" height="1" fill="rgb(146,146,146)"/>
  <rect x="13" y="16" width="1" height="1" fill="rgb(117,117,117)"/>
  <rect x="14" y="16" width="1" height="1" fill="rgb(49,49,49)" fill-opacity="0.9921875"/>
  <rect x="15" y="16" width="1" height="1" fill="rgb(26,26,26)" fill-opacity="0.59375"/>
  <rect x="16" y="16" width="1" height="1" fill="rgb(21,21,21)" fill-opacity="0.1015625"/>
  <rect x="17" y="16" width="4" height="1" fill="rgb(255,255,255)" fill-opacity="0.0078125"/>
  <rect x="0" y="17" width="7" height="1" fill="rgb(255,255,255)" fill-opacity="0.0078125"/>
  <rect x="7" y="17" width="1" height="1" fill="rgb(28,28,28)" fill-opacity="0.1484375"/>
  <rect x="8" y="17" width="1" height="1" fill="rgb(26,26,26)" fill-opacity="0.6640625"/>
  <rect x="9" y="17" width="1" height="1" fill="rgb(75,75,75)"/>
  <rect x="10" y="17" width="1" height="1" fill="rgb(173,173,173)"/>
  <rect x="11" y="17" width="1" height="1" fill="rgb(130,130,130)"/>
  <rect x="12" y="17" width="1" height="1" fill="rgb(59,59,59)"/>
  <rect x="13" y="17" width="1" height="1" fill="rgb(26,26,26)" fill-opacity="0.6640625"/>
  <rect x="14" y="17" width="1" height="1" fill="rgb(28,28,28)" fill-opacity="0.1484375"/>
  <rect x="15" y="17" width="6" height="1" fill="rgb(255,255,255)" fill-opacity="0.0078125"/>
  <rect x="0" y="18" width="9" height="1" fill="rgb(255,255,255)" fill-opacity="0.0078125"/>
  <rect x="9" y="18" width="1" height="1" fill="rgb(24,24,24)" fill-opacity="0.2109375"/>
  <rect x="10" y="18" width="1" height="1" fill="rgb(26,26,26)" fill-opacity="0.703125"/>
  <rect x="11" y="18" width="1" height="1" fill="rgb(26,26,26)" fill-opacity="0.6875"/>
  <rect x="12" y="18" width="1" height="1" fill="rgb(25,25,25)" fill-opacity="0.203125"/>
  <rect x="13" y="18" width="8" height="1" fill="rgb(255,255,255)" fill-opacity="0.0078125"/>
  <rect x="0" y="19" width="21" height="1" fill="rgb(255,255,255)" fill-opacity="0.0078125"/>
  <rect x="0" y="20" width="21" height="1" fill="rgb(255,255,255)" fill-opacity="0.0078125"/>
</svg>