<svg xmlns="http://www.w3.org/2000/svg" shape-rendering="crispEdges" width="21" height="21" viewBox="0 0 21 21">
  <rect x="0" y="0" width="21" height="1" fill="rgb(255,255,255)" fill-opacity="0.0078125"/>
  <rect x="0" y="1" width="21" height="1" fill="rgb(255,255,255)" fill-opacity="0.0078125"/>
  <rect x="0" y="2" width="21" height="1" fill="rgb(255,255,255)" fill-opacity="0.0078125"/>
  <rect x="0" y="3" width="8" height="1" fill="rgb(255,255,255)" fill-opacity="0.0078125"/>
  <rect x="8" y="3" width="1" height="1" fill="rgb(62,49,0)" fill-opacity="0.46875"/>
  <rect x="9" y="3" width="1" height="1" fill="rgb(69,55,5)" fill-opacity="0.8515625"/>
  <rect x="10" y="3" width="1" height="1" fill="rgb(60,49,0)" fill-opacity="0.390625"/>
  <rect x="11" y="3" width="1" height="1" fill="rgb(255,255,255)" fill-opacity="0.0078125"/>
  <rect x="12" y="3" width="1" height="1" fill="rgb(64,51,0)" fill-opacity="0.0859375"/>
  <rect x="13" y="3" width="1" height="1" fill="rgb(60,49,0)" fill-opacity="0.6171875"/>
  <rect x="14" y="3" width="1" height="1" fill="rgb(69,55,4)" fill-opacity="0.859375"/>
  <rect x="15" y="3" width="1" height="1" fill="rgb(61,48,0)" fill-opacity="0.3984375"/>
  <rect x="16" y="3" width="5" height="1" fill="rgb(255,255,255)" fill-opacity="0.0078125"/>
  <rect x="0" y="4" width="7" height="1" fill="rgb(255,255,255)" fill-opacity="0.0078125"/>
  <rect x="7" y="4" width="1" height="1" fill="rgb(58,49,0)" fill-opacity="0.2265625"/>
  <rect x="8" y="4" width="1" height="1" fill="rgb(99,83,26)" fill-opacity="0.9609375"/>
  <rect x="9" y="4" width="1" height="1" fill="rgb(207,175,93)" fill-opacity="0.9609375"/>
  <rect x="10" y="4" width="1" height="1" fill="rgb(67,54,4)" fill-opacity="0.8125"/>
  <rect x="11" y="4" width="1" height="1" fill="rgb(60,46,0)" fill-opacity="0.3046875"/>
  <rect x="12" y="4" width="1" height="1" fill="rgb(70,58,6)" fill-opacity="0.8984375"/>
  <rect x="13" y="4" width="1" height="1" fill="rgb(148,120,43)" fill-opacity="0.9609375"/>
  <rect x="14" y="4" width="1" height="1" fill="rgb(193,155,61)" fill-opacity="0.9609375"/>
  <rect x="15" y="4" width="1" height="1" fill="rgb(66,52,2)" fill-opacity="0.828125"/>
  <rect x="16" y="4" width="5" height="1" fill="rgb(255,255,255)" fill-opacity="0.0078125"/>
  <rect x="0" y="5" width="7" height="1" fill="rgb(255,255,255)" fill-opacity="0.0078125"/>
  <rect x="7" y="5" width="1" height="1" fill="rgb(62,50,0)" fill-opacity="0.7421875"/>
  <rect x="8" y="5" width="1" height="1" fill="rgb(188,163,97)" fill-opacity="0.9609375"/>
  <rect x="9" y="5" width="1" height="1" fill="rgb(198,170,99)" fill-opacity="0.9609375"/>
  <rect x="10" y="5" width="1" height="1" fill="rgb(62,49,0)" fill-opacity="0.8984375"/>
  <rect x="11" y="5" width="1" height="1" fill="rgb(86,68,14)" fill-opacity="0.9453125"/>
  <rect x="12" y="5" width="1" height="1" fill="rgb(197,163,79)" fill-opacity="0.9609375"/>
  <rect x="13" y="5" width="1" height="1" fill="rgb(196,162,72)" fill-opacity="0.9609375"/>
  <rect x="14" y="5" width="1" height="1" fill="rgb(102,82,20)" fill-opacity="0.9609375"/>
  <rect x="15" y="5" width="1" height="1" fill="rgb(61,48,0)" fill-opacity="0.4453125"/>
  <rect x="16" y="5" width="5" height="1" fill="rgb(255,255,255)" fill-opacity="0.0078125"/>
  <rect x="0" y="6" width="6" height="1" fill="rgb(255,255,255)" fill-opacity="0.0078125"/>
  <rect x="6" y="6" width="1" height="1" fill="rgb(61,48,0)" fill-opacity="0.296875"/>
  <rect x="7" y="6" width="1" height="1" fill="rgb(114,98,46)" fill-opacity="0.9609375"/>
  <rect x="8" y="6" width="1" height="1" fill="rgb(219,193,127)" fill-opacity="0.9609375"/>
  <rect x="9" y="6" width="1" height="1" fill="rgb(155,134,72)" fill-opacity="0.9609375"/>
  <rect x="10" y="6" width="1" height="1" fill="rgb(68,56,5)" fill-opacity="0.9609375"/>
  <rect x="11" y="6" width="1" height="1" fill="rgb(192,164,91)" fill-opacity="0.9609375"/>
  <rect x="12" y="6" width="1" height="1" fill="rgb(210,177,95)" fill-opacity="0.9609375"/>
  <rect x="13" y="6" width="1" height="1" fill="rgb(94,77,19)" fill-opacity="0.953125"/>
  <rect x="14" y="6" width="1" height="1" fill="rgb(62,48,0)" fill-opacity="0.375"/>
  <rect x="15" y="6" width="6" height="1" fill="rgb(255,255,255)" fill-opacity="0.0078125"/>
  <rect x="0" y="7" width="6" height="1" fill="rgb(255,255,255)" fill-opacity="0.0078125"/>
  <rect x="6" y="7" width="1" height="1" fill="rgb(61,49,0)" fill-opacity="0.6796875"/>
  <rect x="7" y="7" width="1" height="1" fill="rgb(201,181,127)" fill-opacity="0.9609375"/>
  <rect x="8" y="7" width="1" height="1" fill="rgb(223,199,141)" fill-opacity="0.9609375"/>
  <rect x="9" y="7" width="1" height="1" fill="rgb(113,96,43)" fill-opacity="0.9609375"/>
  <rect x="10" y="7" width="1" height="1" fill="rgb(132,114,56)" fill-opacity="0.9609375"/>
  <rect x="11" y="7" width="1" height="1" fill="rgb(216,187,114)" fill-opacity="0.9609375"/>
  <rect x="12" y="7" width="1" height="1" fill="rgb(168,144,77)" fill-opacity="0.9609375"/>
  <rect x="13" y="7" width="1" height="1" fill="rgb(62,49,0)" fill-opacity="0.859375"/>
  <rect x="14" y="7" width="1" height="1" fill="rgb(63,49,0)" fill-opacity="0.75"/>
  <rect x="15" y="7" width="1" height="1" fill="rgb(72,59,7)" fill-opacity="0.90625"/>
  <rect x="16" y="7" width="1" height="1" fill="rgb(62,49,0)" fill-opacity="0.390625"/>
  <rect x="17" y="7" width="4" height="1" fill="rgb(255,255,255)" fill-opacity="0.0078125"/>
  <rect x="0" y="8" width="6" height="1" fill="rgb(255,255,255)" fill-opacity="0.0078125"/>
  <rect x="6" y="8" width="1" height="1" fill="rgb(61,48,0)" fill-opacity="0.7890625"/>
  <rect x="7" y="8" width="1" height="1" fill="rgb(224,206,157)" fill-opacity="0.9609375"/>
  <rect x="8" y="8" width="1" height="1" fill="rgb(226,205,152)" fill-opacity="0.9609375"/>
  <rect x="9" y="8" width="1" height="1" fill="rgb(86,73,23)" fill-opacity="0.9609375"/>
  <rect x="10" y="8" width="1" height="1" fill="rgb(194,172,114)" fill-opacity="0.9609375"/>
  <rect x="11" y="8" width="1" height="1" fill="rgb(219,193,127)" fill-opacity="0.9609375"/>
  <rect x="12" y="8" width="1" height="1" fill="rgb(134,114,56)" fill-opacity="0.9609375"/>
  <rect x="13" y="8" width="1" height="1" fill="rgb(111,93,36)" fill-opacity="0.9609375"/>
  <rect x="14" y="8" width="1" height="1" fill="rgb(202,172,96)" fill-opacity="0.9609375"/>
  <rect x="15" y="8" width="1" height="1" fill="rgb(205,173,92)" fill-opacity="0.9609375"/>
  <rect x="16" y="8" width="1" height="1" fill="rgb(67,53,2)" fill-opacity="0.8046875"/>
  <rect x="17" y="8" width="4" height="1" fill="rgb(255,255,255)" fill-opacity="0.0078125"/>
  <rect x="0" y="9" width="6" height="1" fill="rgb(255,255,255)" fill-opacity="0.0078125"/>
  <rect x="6" y="9" width="1" height="1" fill="rgb(71,57,9)" fill-opacity="0.8671875"/>
  <rect x="7" y="9" width="1" height="1" fill="rgb(232,215,172)" fill-opacity="0.9609375"/>
  <rect x="8" y="9" width="1" height="1" fill="rgb(230,211,164)" fill-opacity="0.9609375"/>
  <rect x="9" y="9" width="1" height="1" fill="rgb(90,77,27)" fill-opacity="0.9609375"/>
  <rect x="10" y="9" width="1" height="1" fill="rgb(224,202,148)" fill-opacity="0.9609375"/>
  <rect x="11" y="9" width="1" height="1" fill="rgb(223,199,141)" fill-opacity="0.9609375"/>
  <rect x="12" y="9" width="1" height="1" fill="rgb(116,99,46)" fill-opacity="0.9609375"/>
  <rect x="13" y="9" width="1" height="1" fill="rgb(207,181,114)" fill-opacity="0.9609375"/>
  <rect x="14" y="9" width="1" height="1" fill="rgb(156,133,71)" fill-opacity="0.9609375"/>
  <rect x="15" y="9" width="1" height="1" fill="rgb(83,67,14)" fill-opacity="0.9453125"/>
  <rect x="16" y="9" width="1" height="1" fill="rgb(62,48,0)" fill-opacity="0.375"/>
  <rect x="17" y="9" width="4" height="1" fill="rgb(255,255,255)" fill-opacity="0.0078125"/>
  <rect x="0" y="10" width="6" height="1" fill="rgb(255,255,255)" fill-opacity="0.0078125"/>
  <rect x="6" y="10" width="1" height="1" fill="rgb(83,69,23)" fill-opacity="0.9375"/>
  <rect x="7" y="10" width="1" height="1" fill="rgb(235,221,184)" fill-opacity="0.9609375"/>
  <rect x="8" y="10" width="1" height="1" fill="rgb(233,216,176)" fill-opacity="0.9609375"/>
  <rect x="9" y="10" width="1" height="1" fill="rgb(107,93,45)" fill-opacity="0.9609375"/>
  <rect x="10" y="10" width="1" height="1" fill="rgb(228,209,160)" fill-opacity="0.9609375"/>
  <rect x="11" y="10" width="1" height="1" fill="rgb(226,205,152)" fill-opacity="0.9609375"/>
  <rect x="12" y="10" width="1" height="1" fill="rgb(113,97,46)" fill-opacity="0.9609375"/>
  <rect x="13" y="10" width="1" height="1" fill="rgb(222,197,136)" fill-opacity="0.9609375"/>
  <rect x="14" y="10" width="1" height="1" fill="rgb(97,82,29)" fill-opacity="0.9609375"/>
  <rect x="15" y="10" width="1" height="1" fill="rgb(23,20,0)" fill-opacity="0.3515625"/>
  <rect x="16" y="10" width="1" height="1" fill="rgb(0,0,0)" fill-opacity="0.015625"/>
  <rect x="17" y="10" width="4" height="1" fill="rgb(255,255,255)" fill-opacity="0.0078125"/>
  <rect x="0" y="11" width="3" height="1" fill="rgb(255,255,255)" fill-opacity="0.0078125"/>
  <rect x="3" y="11" width="1" height="1" fill="rgb(0,0,0)" fill-opacity="0.0546875"/>
  <rect x="4" y="11" width="1" height="1" fill="rgb(0,0,0)" fill-opacity="0.3984375"/>
  <rect x="5" y="11" width="1" height="1" fill="rgb(0,0,0)" fill-opacity="0.7578125"/>
  <rect x="6" y="11" width="1" height="1" fill="rgb(65,55,16)" fill-opacity="0.953125"/>
  <rect x="7" y="11" width="1" height="1" fill="rgb(218,207,174)" fill-opacity="0.9609375"/>
  <rect x="8" y="11" width="1" height="1" fill="rgb(216,203,167)" fill-opacity="0.9609375"/>
  <rect x="9" y="11" width="1" height="1" fill="rgb(72,60,11)" fill-opacity="0.9609375"/>
  <rect x="10" y="11" width="1" height="1" fill="rgb(212,196,153)" fill-opacity="0.9609375"/>
  <rect x="11" y="11" width="1" height="1" fill="rgb(210,193,146)" fill-opacity="0.9609375"/>
  <rect x="12" y="11" width="1" height="1" fill="rgb(82,68,19)" fill-opacity="0.9609375"/>
  <rect x="13" y="11" width="1" height="1" fill="rgb(209,188,133)" fill-opacity="0.9609375"/>
  <rect x="14" y="11" width="1" height="1" fill="rgb(77,63,15)" fill-opacity="0.9609375"/>
  <rect x="15" y="11" width="1" height="1" fill="rgb(71,71,71)" fill-opacity="0.921875"/>
  <rect x="16" y="11" width="1" height="1" fill="rgb(6,6,6)" fill-opacity="0.828125"/>
  <rect x="17" y="11" width="1" height="1" fill="rgb(0,0,0)" fill-opacity="0.3046875"/>
  <rect x="18" y="11" width="3" height="1" fill="rgb(255,255,255)" fill-opacity="0.0078125"/>
  <rect x="0" y="12" width="3" height="1" fill="rgb(255,255,255)" fill-opacity="0.0078125"/>
  <rect x="3" y="12" width="1" height="1" fill="rgb(3,3,3)" fill-opacity="0.671875"/>
  <rect x="4" y="12" width="1" height="1" fill="rgb(117,117,117)" fill-opacity="0.9296875"/>
  <rect x="5" y="12" width="1" height="1" fill="rgb(203,203,203)" fill-opacity="0.9296875"/>
  <rect x="6" y="12" width="1" height="1" fill="rgb(209,205,198)" fill-opacity="0.9296875"/>
  <rect x="7" y="12" width="1" height="1" fill="rgb(147,135,103)" fill-opacity="0.9453125"/>
  <rect x="8" y="12" width="1" height="1" fill="rgb(143,131,98)" fill-opacity="0.9453125"/>
  <rect x="9" y="12" width="1" height="1" fill="rgb(189,182,167)" fill-opacity="0.9375"/>
  <rect x="10" y="12" width="1" height="1" fill="rgb(147,135,103)" fill-opacity="0.9453125"/>
  <rect x="11" y="12" width="1" height="1" fill="rgb(143,131,98)" fill-opacity="0.9453125"/>
  <rect x="12" y="12" width="1" height="1" fill="rgb(166,157,133)" fill-opacity="0.9375"/>
  <rect x="13" y="12" width="1" height="1" fill="rgb(134,121,86)" fill-opacity="0.9453125"/>
  <rect x="14" y="12" width="1" height="1" fill="rgb(180,173,154)" fill-opacity="0.9375"/>
  <rect x="15" y="12" width="1" height="1" fill="rgb(230,230,230)" fill-opacity="0.921875"/>
  <rect x="16" y="12" width="1" height="1" fill="rgb(184,184,184)" fill-opacity="0.9296875"/>
  <rect x="17" y="12" width="1" height="1" fill="rgb(5,5,5)" fill-opacity="0.8203125"/>
  <rect x="18" y="12" width="3" height="1" fill="rgb(255,255,255)" fill-opacity="0.0078125"/>
  <rect x="0" y="13" width="3" height="1" fill="rgb(255,255,255)" fill-opacity="0.0078125"/>
  <rect x="3" y="13" width="1" height="1" fill="rgb(60,60,60)" fill-opacity="0.8671875"/>
  <rect x="4" y="13" width="1" height="1" fill="rgb(239,239,239)" fill-opacity="0.9453125"/>
  <rect x="5" y="13" width="1" height="1" fill="rgb(241,241,241)" fill-opacity="0.9453125"/>
  <rect x="6" y="13" width="1" height="1" fill="rgb(244,244,244)" fill-opacity="0.9453125"/>
  <rect x="7" y="13" width="1" height="1" fill="rgb(236,236,236)" fill-opacity="0.9296875"/>
  <rect x="8" y="13" width="6" height="1" fill="rgb(230,230,230)" fill-opacity="0.921875"/>
  <rect x="14" y="13" width="1" height="1" fill="rgb(192,192,192)" fill-opacity="0.921875"/>
  <rect x="15" y="13" width="1" height="1" fill="rgb(115,115,115)" fill-opacity="0.921875"/>
  <rect x="16" y="13" width="1" height="1" fill="rgb(103,103,103)" fill-opacity="0.9296875"/>
  <rect x="17" y="13" width="1" height="1" fill="rgb(11,11,11)" fill-opacity="0.84375"/>
  <rect x="18" y="13" width="3" height="1" fill="rgb(255,255,255)" fill-opacity="0.0078125"/>
  <rect x="0" y="14" width="3" height="1" fill="rgb(255,255,255)" fill-opacity="0.0078125"/>
  <rect x="3" y="14" width="1" height="1" fill="rgb(56,56,56)" fill-opacity="0.8671875"/>
  <rect x="4" y="14" width="1" height="1" fill="rgb(241,241,241)" fill-opacity="0.953125"/>
  <rect x="5" y="14" width="1" height="1" fill="rgb(211,211,211)" fill-opacity="0.9296875"/>
  <rect x="6" y="14" width="1" height="1" fill="rgb(222,222,222)" fill-opacity="0.9296875"/>
  <rect x="7" y="14" width="1" height="1" fill="rgb(241,241,241)" fill-opacity="0.9453125"/>
  <rect x="8" y="14" width="1" height="1" fill="rgb(244,244,244)" fill-opacity="0.9453125"/>
  <rect x="9" y="14" width="1" height="1" fill="rgb(236,236,236)" fill-opacity="0.9296875"/>
  <rect x="10" y="14" width="2" height="1" fill="rgb(230,230,230)" fill-opacity="0.921875"/>
  <rect x="12" y="14" width="1" height="1" fill="rgb(192,192,192)" fill-opacity="0.921875"/>
  <rect x="13" y="14" width="1" height="1" fill="rgb(115,115,115)" fill-opacity="0.921875"/>
  <rect x="14" y="14" width="1" height="1" fill="rgb(86,86,86)" fill-opacity="0.921875"/>
  <rect x="15" y="14" width="1" height="1" fill="rgb(105,105,105)" fill-opacity="0.9296875"/>
  <rect x="16" y="14" width="1" height="1" fill="rgb(119,119,119)" fill-opacity="0.9296875"/>
  <rect x="17" y="14" width="1" height="1" fill="rgb(5,5,5)" fill-opacity="0.7734375"/>
  <rect x="18" y="14" width="3" height="1" fill="rgb(255,255,255)" fill-opacity="0.0078125"/>
  <rect x="0" y="15" width="3" height="1" fill="rgb(255,255,255)" fill-opacity="0.0078125"/>
  <rect x="3" y="15" width="1" height="1" fill="rgb(2,2,2)" fill-opacity="0.53125"/>
  <rect x="4" y="15" width="1" height="1" fill="rgb(133,133,133)" fill-opacity="0.9375"/>
  <rect x="5" y="15" width="1" height="1" fill="rgb(229,229,229)" fill-opacity="0.953125"/>
  <rect x="6" y="15" width="1" height="1" fill="rgb(227,227,227)" fill-opacity="0.9375"/>
  <rect x="7" y="15" width="2" height="1" fill="rgb(209,209,209)" fill-opacity="0.9296875"/>
  <rect x="9" y="15" width="1" height="1" fill="rgb(234,234,234)" fill-opacity="0.9453125"/>
  <rect x="10" y="15" width="1" height="1" fill="rgb(176,176,176)" fill-opacity="0.921875"/>
  <rect x="11" y="15" width="1" height="1" fill="rgb(97,97,97)" fill-opacity="0.921875"/>
  <rect x="12" y="15" width="1" height="1" fill="rgb(87,87,87)" fill-opacity="0.921875"/>
  <rect x="13" y="15" width="1" height="1" fill="rgb(116,116,116)" fill-opacity="0.9296875"/>
  <rect x="14" y="15" width="1" height="1" fill="rgb(114,114,114)" fill-opacity="0.9375"/>
  <rect x="15" y="15" width="1" height="1" fill="rgb(44,44,44)" fill-opacity="0.9296875"/>
  <rect x="16" y="15" width="1" height="1" fill="rgb(1,1,1)" fill-opacity="0.7109375"/>
  <rect x="17" y="15" width="1" height="1" fill="rgb(0,0,0)" fill-opacity="0.1875"/>
  <rect x="18" y="15" width="3" height="1" fill="rgb(255,255,255)" fill-opacity="0.0078125"/>
  <rect x="0" y="16" width="4" height="1" fill="rgb(255,255,255)" fill-opacity="0.0078125"/>
  <rect x="4" y="16" width="1" height="1" fill="rgb(0,0,0)" fill-opacity="0.25"/>
  <rect x="5" y="16" width="1" height="1" fill="rgb(11,11,11)" fill-opacity="0.71875"/>
  <rect x="6" y="16" width="1" height="1" fill="rgb(121,121,121)" fill-opacity="0.9375"/>
  <rect x="7" y="16" width="1" height="1" fill="rgb(217,217,217)" fill-opacity="0.9453125"/>
  <rect x="8" y="16" width="1" height="1" fill="rgb(222,222,222)" fill-opacity="0.9375"/>
  <rect x="9" y="16" width="1" height="1" fill="rgb(206,206,206)" fill-opacity="0.9296875"/>
  <rect x="10" y="16" width="1" height="1" fill="rgb(86,86,86)" fill-opacity="0.9296875"/>
  <rect x="11" y="16" width="1" height="1" fill="rgb(125,125,125)" fill-opacity="0.9375"/>
  <rect x="12" y="16" width="1" height="1" fill="rgb(131,131,131)" fill-opacity="0.9375"/>
  <rect x="13" y="16" width="1" height="1" fill="rgb(59,59,59)" fill-opacity="0.9296875"/>
  <rect x="14" y="16" width="1" height="1" fill="rgb(4,4,4)" fill-opacity="0.7109375"/>
  <rect x="15" y="16" width="1" height="1" fill="rgb(0,0,0)" fill-opacity="0.25"/>
  <rect x="16" y="16" width="5" height="1" fill="rgb(255,255,255)" fill-opacity="0.0078125"/>
  <rect x="0" y="17" width="6" height="1" fill="rgb(255,255,255)" fill-opacity="0.0078125"/>
  <rect x="6" y="17" width="1" height="1" fill="rgb(0,0,0)" fill-opacity="0.25"/>
  <rect x="7" y="17" width="1" height="1" fill="rgb(15,15,15)" fill-opacity="0.71875"/>
  <rect x="8" y="17" width="1" height="1" fill="rgb(118,118,118)" fill-opacity="0.9375"/>
  <rect x="9" y="17" width="1" height="1" fill="rgb(207,207,207)" fill-opacity="0.9453125"/>
  <rect x="10" y="17" width="1" height="1" fill="rgb(151,151,151)" fill-opacity="0.9453125"/>
  <rect x="11" y="17" width="1" height="1" fill="rgb(75,75,75)" fill-opacity="0.9296875"/>
  <rect x="12" y="17" width="1" height="1" fill="rgb(10,10,10)" fill-opacity="0.71875"/>
  <rect x="13" y="17" width="1" height="1" fill="rgb(0,0,0)" fill-opacity="0.25"/>
  <rect x="14" y="17" width="7" height="1" fill="rgb(255,255,255)" fill-opacity="0.0078125"/>
  <rect x="0" y="18" width="8" height="1" fill="rgb(255,255,255)" fill-opacity="0.0078125"/>
  <rect x="8" y="18" width="1" height="1" fill="rgb(0,0,0)" fill-opacity="0.25"/>
  <rect x="9" y="18" width="1" height="1" fill="rgb(16,16,16)" fill-opacity="0.6875"/>
  <rect x="10" y="18" width="1" height="1" fill="rgb(15,15,15)" fill-opacity="0.6875"/>
  <rect x="11" y="18" width="1" height="1" fill="rgb(0,0,0)" fill-opacity="0.25"/>
  <rect x="12" y="18" width="9" height="1" fill="rgb(255,255,255)" fill-opacity="0.0078125"/>
  <rect x="0" y="19" width="21" height="1" fill="rgb(255,255,255)" fill-opacity="0.0078125"/>
  <rect x="0" y="20" width="21" height="1" fill="rgb(255,255,255)" fill-opacity="0.0078125"/>
</svg>