<svg xmlns="http://www.w3.org/2000/svg" shape-rendering="crispEdges" width="21" height="21" viewBox="0 0 21 21">
  <rect x="0" y="0" width="1" height="21" fill="rgb(255,255,255)" fill-opacity="0.0078125"/>
  <rect x="1" y="0" width="1" height="21" fill="rgb(255,255,255)" fill-opacity="0.0078125"/>
  <rect x="2" y="0" width="1" height="21" fill="rgb(255,255,255)" fill-opacity="0.0078125"/>
  <rect x="3" y="0" width="1" height="4" fill="rgb(255,255,255)" fill-opacity="0.0078125"/>
  <rect x="3" y="4" width="1" height="1" fill="rgb(76,41,3)" fill-opacity="0.9140625"/>
  <rect x="3" y="5" width="1" height="13" fill="rgb(70,36,0)"/>
  <rect x="3" y="18" width="1" height="1" fill="rgb(76,41,3)" fill-opacity="0.9140625"/>
  <rect x="3" y="19" width="1" height="2" fill="rgb(255,255,255)" fill-opacity="0.0078125"/>
  <rect x="4" y="0" width="1" height="4" fill="rgb(255,255,255)" fill-opacity="0.0078125"/>
  <rect x="4" y="4" width="1" height="1" fill="rgb(70,36,0)"/>
  <rect x="4" y="5" width="1" height="13" fill="rgb(255,183,105)"/>
  <rect x="4" y="18" width="1" height="1" fill="rgb(70,36,0)"/>
  <rect x="4" y="19" width="1" height="2" fill="rgb(255,255,255)" fill-opacity="0.0078125"/>
  <rect x="5" y="0" width="1" height="4" fill="rgb(255,255,255)" fill-opacity="0.0078125"/>
  <rect x="5" y="4" width="1" height="1" fill="rgb(70,36,0)"/>
  <rect x="5" y="5" width="1" height="1" fill="rgb(255,183,105)"/>
  <rect x="5" y="6" width="1" height="1" fill="rgb(188,135,77)"/>
  <rect x="5" y="7" width="1" height="1" fill="rgb(192,138,79)"/>
  <rect x="5" y="8" width="1" height="1" fill="rgb(195,140,80)"/>
  <rect x="5" y="9" width="1" height="1" fill="rgb(199,143,82)"/>
  <rect x="5" y="10" width="1" height="1" fill="rgb(243,179,109)"/>
  <rect x="5" y="11" width="1" height="1" fill="rgb(255,183,105)"/>
  <rect x="5" y="12" width="1" height="1" fill="rgb(188,135,77)"/>
  <rect x="5" y="13" width="1" height="1" fill="rgb(192,138,79)"/>
  <rect x="5" y="14" width="1" height="1" fill="rgb(195,140,80)"/>
  <rect x="5" y="15" width="1" height="1" fill="rgb(199,143,82)"/>
  <rect x="5" y="16" width="1" height="1" fill="rgb(243,179,109)"/>
  <rect x="5" y="17" width="1" height="1" fill="rgb(255,183,105)"/>
  <rect x="5" y="18" width="1" height="1" fill="rgb(70,36,0)"/>
  <rect x="5" y="19" width="1" height="2" fill="rgb(255,255,255)" fill-opacity="0.0078125"/>
  <rect x="6" y="0" width="1" height="4" fill="rgb(255,255,255)" fill-opacity="0.0078125"/>
  <rect x="6" y="4" width="1" height="1" fill="rgb(70,36,0)"/>
  <rect x="6" y="5" width="1" height="1" fill="rgb(255,183,105)"/>
  <rect x="6" y="6" width="1" height="1" fill="rgb(198,142,82)"/>
  <rect x="6" y="7" width="1" height="3" fill="rgb(255,183,105)"/>
  <rect x="6" y="10" width="1" height="1" fill="rgb(255,208,156)"/>
  <rect x="6" y="11" width="1" height="1" fill="rgb(255,183,105)"/>
  <rect x="6" y="12" width="1" height="1" fill="rgb(198,142,82)"/>
  <rect x="6" y="13" width="1" height="3" fill="rgb(255,183,105)"/>
  <rect x="6" y="16" width="1" height="1" fill="rgb(255,208,156)"/>
  <rect x="6" y="17" width="1" height="1" fill="rgb(255,183,105)"/>
  <rect x="6" y="18" width="1" height="1" fill="rgb(70,36,0)"/>
  <rect x="6" y="19" width="1" height="2" fill="rgb(255,255,255)" fill-opacity="0.0078125"/>
  <rect x="7" y="0" width="1" height="4" fill="rgb(255,255,255)" fill-opacity="0.0078125"/>
  <rect x="7" y="4" width="1" height="1" fill="rgb(70,36,0)"/>
  <rect x="7" y="5" width="1" height="1" fill="rgb(255,183,105)"/>
  <rect x="7" y="6" width="1" height="1" fill="rgb(209,150,86)"/>
  <rect x="7" y="7" width="1" height="3" fill="rgb(255,183,105)"/>
  <rect x="7" y="10" width="1" height="1" fill="rgb(255,215,172)"/>
  <rect x="7" y="11" width="1" height="1" fill="rgb(255,183,105)"/>
  <rect x="7" y="12" width="1" height="1" fill="rgb(209,150,86)"/>
  <rect x="7" y="13" width="1" height="3" fill="rgb(255,183,105)"/>
  <rect x="7" y="16" width="1" height="1" fill="rgb(255,215,172)"/>
  <rect x="7" y="17" width="1" height="1" fill="rgb(255,183,105)"/>
  <rect x="7" y="18" width="1" height="1" fill="rgb(70,36,0)"/>
  <rect x="7" y="19" width="1" height="2" fill="rgb(255,255,255)" fill-opacity="0.0078125"/>
  <rect x="8" y="0" width="1" height="4" fill="rgb(255,255,255)" fill-opacity="0.0078125"/>
  <rect x="8" y="4" width="1" height="1" fill="rgb(70,36,0)"/>
  <rect x="8" y="5" width="1" height="1" fill="rgb(255,183,105)"/>
  <rect x="8" y="6" width="1" height="1" fill="rgb(247,184,115)"/>
  <rect x="8" y="7" width="1" height="1" fill="rgb(255,212,166)"/>
  <rect x="8" y="8" width="1" height="1" fill="rgb(255,216,173)"/>
  <rect x="8" y="9" width="1" height="2" fill="rgb(255,219,180)"/>
  <rect x="8" y="11" width="1" height="1" fill="rgb(255,183,105)"/>
  <rect x="8" y="12" width="1" height="1" fill="rgb(247,184,115)"/>
  <rect x="8" y="13" width="1" height="1" fill="rgb(255,212,166)"/>
  <rect x="8" y="14" width="1" height="1" fill="rgb(255,216,173)"/>
  <rect x="8" y="15" width="1" height="2" fill="rgb(255,219,180)"/>
  <rect x="8" y="17" width="1" height="1" fill="rgb(255,183,105)"/>
  <rect x="8" y="18" width="1" height="1" fill="rgb(70,36,0)"/>
  <rect x="8" y="19" width="1" height="2" fill="rgb(255,255,255)" fill-opacity="0.0078125"/>
  <rect x="9" y="0" width="1" height="4" fill="rgb(255,255,255)" fill-opacity="0.0078125"/>
  <rect x="9" y="4" width="1" height="1" fill="rgb(70,36,0)"/>
  <rect x="9" y="5" width="1" height="13" fill="rgb(255,183,105)"/>
  <rect x="9" y="18" width="1" height="1" fill="rgb(70,36,0)"/>
  <rect x="9" y="19" width="1" height="2" fill="rgb(255,255,255)" fill-opacity="0.0078125"/>
  <rect x="10" y="0" width="1" height="4" fill="rgb(255,255,255)" fill-opacity="0.0078125"/>
  <rect x="10" y="4" width="1" height="1" fill="rgb(76,41,3)" fill-opacity="0.9140625"/>
  <rect x="10" y="5" width="1" height="13" fill="rgb(70,36,0)"/>
  <rect x="10" y="18" width="1" height="1" fill="rgb(76,41,3)" fill-opacity="0.9140625"/>
  <rect x="10" y="19" width="1" height="2" fill="rgb(255,255,255)" fill-opacity="0.0078125"/>
  <rect x="11" y="0" width="1" height="21" fill="rgb(255,255,255)" fill-opacity="0.0078125"/>
  <rect x="12" y="0" width="1" height="4" fill="rgb(255,255,255)" fill-opacity="0.0078125"/>
  <rect x="12" y="4" width="1" height="1" fill="rgb(27,27,27)" fill-opacity="0.34375"/>
  <rect x="12" y="5" width="1" height="13" fill="rgb(27,27,27)" fill-opacity="0.453125"/>
  <rect x="12" y="18" width="1" height="1" fill="rgb(27,27,27)" fill-opacity="0.34375"/>
  <rect x="12" y="19" width="1" height="2" fill="rgb(255,255,255)" fill-opacity="0.0078125"/>
  <rect x="13" y="0" width="1" height="4" fill="rgb(255,255,255)" fill-opacity="0.0078125"/>
  <rect x="13" y="4" width="1" height="1" fill="rgb(27,27,27)" fill-opacity="0.453125"/>
  <rect x="13" y="5" width="1" height="13" fill="rgb(242,242,242)" fill-opacity="0.6015625"/>
  <rect x="13" y="18" width="1" height="1" fill="rgb(27,27,27)" fill-opacity="0.453125"/>
  <rect x="13" y="19" width="1" height="2" fill="rgb(255,255,255)" fill-opacity="0.0078125"/>
  <rect x="14" y="0" width="1" height="4" fill="rgb(255,255,255)" fill-opacity="0.0078125"/>
  <rect x="14" y="4" width="1" height="1" fill="rgb(27,27,27)" fill-opacity="0.453125"/>
  <rect x="14" y="5" width="1" height="1" fill="rgb(242,242,242)" fill-opacity="0.6015625"/>
  <rect x="14" y="6" width="1" height="1" fill="rgb(91,91,91)" fill-opacity="0.59375"/>
  <rect x="14" y="7" width="1" height="1" fill="rgb(100,100,100)" fill-opacity="0.5703125"/>
  <rect x="14" y="8" width="1" height="1" fill="rgb(107,107,107)" fill-opacity="0.5703125"/>
  <rect x="14" y="9" width="1" height="1" fill="rgb(115,115,115)" fill-opacity="0.5703125"/>
  <rect x="14" y="10" width="1" height="1" fill="rgb(122,122,122)" fill-opacity="0.59375"/>
  <rect x="14" y="11" width="1" height="1" fill="rgb(242,242,242)" fill-opacity="0.6015625"/>
  <rect x="14" y="12" width="1" height="1" fill="rgb(100,100,100)" fill-opacity="0.59375"/>
  <rect x="14" y="13" width="1" height="1" fill="rgb(111,111,111)" fill-opacity="0.5703125"/>
  <rect x="14" y="14" width="1" height="1" fill="rgb(120,120,120)" fill-opacity="0.5703125"/>
  <rect x="14" y="15" width="1" height="1" fill="rgb(128,128,128)" fill-opacity="0.5703125"/>
  <rect x="14" y="16" width="1" height="1" fill="rgb(133,133,133)" fill-opacity="0.59375"/>
  <rect x="14" y="17" width="1" height="1" fill="rgb(242,242,242)" fill-opacity="0.6015625"/>
  <rect x="14" y="18" width="1" height="1" fill="rgb(27,27,27)" fill-opacity="0.453125"/>
  <rect x="14" y="19" width="1" height="2" fill="rgb(255,255,255)" fill-opacity="0.0078125"/>
  <rect x="15" y="0" width="1" height="4" fill="rgb(255,255,255)" fill-opacity="0.0078125"/>
  <rect x="15" y="4" width="1" height="1" fill="rgb(27,27,27)" fill-opacity="0.453125"/>
  <rect x="15" y="5" width="1" height="1" fill="rgb(242,242,242)" fill-opacity="0.6015625"/>
  <rect x="15" y="6" width="1" height="1" fill="rgb(107,107,107)" fill-opacity="0.5703125"/>
  <rect x="15" y="7" width="1" height="1" fill="rgb(191,191,191)" fill-opacity="0.421875"/>
  <rect x="15" y="8" width="1" height="1" fill="rgb(195,195,195)" fill-opacity="0.421875"/>
  <rect x="15" y="9" width="1" height="1" fill="rgb(198,198,198)" fill-opacity="0.421875"/>
  <rect x="15" y="10" width="1" height="1" fill="rgb(158,158,158)" fill-opacity="0.5625"/>
  <rect x="15" y="11" width="1" height="1" fill="rgb(242,242,242)" fill-opacity="0.6015625"/>
  <rect x="15" y="12" width="1" height="1" fill="rgb(118,118,118)" fill-opacity="0.5703125"/>
  <rect x="15" y="13" width="1" height="1" fill="rgb(212,212,212)" fill-opacity="0.421875"/>
  <rect x="15" y="14" width="1" height="1" fill="rgb(214,214,214)" fill-opacity="0.421875"/>
  <rect x="15" y="15" width="1" height="1" fill="rgb(217,217,217)" fill-opacity="0.421875"/>
  <rect x="15" y="16" width="1" height="1" fill="rgb(174,174,174)" fill-opacity="0.5625"/>
  <rect x="15" y="17" width="1" height="1" fill="rgb(242,242,242)" fill-opacity="0.6015625"/>
  <rect x="15" y="18" width="1" height="1" fill="rgb(27,27,27)" fill-opacity="0.453125"/>
  <rect x="15" y="19" width="1" height="2" fill="rgb(255,255,255)" fill-opacity="0.0078125"/>
  <rect x="16" y="0" width="1" height="4" fill="rgb(255,255,255)" fill-opacity="0.0078125"/>
  <rect x="16" y="4" width="1" height="1" fill="rgb(27,27,27)" fill-opacity="0.453125"/>
  <rect x="16" y="5" width="1" height="1" fill="rgb(242,242,242)" fill-opacity="0.6015625"/>
  <rect x="16" y="6" width="1" height="1" fill="rgb(120,120,120)" fill-opacity="0.59375"/>
  <rect x="16" y="7" width="1" height="1" fill="rgb(158,158,158)" fill-opacity="0.5625"/>
  <rect x="16" y="8" width="1" height="1" fill="rgb(160,160,160)" fill-opacity="0.5625"/>
  <rect x="16" y="9" width="1" height="1" fill="rgb(163,163,163)" fill-opacity="0.5625"/>
  <rect x="16" y="10" width="1" height="1" fill="rgb(155,155,155)" fill-opacity="0.59375"/>
  <rect x="16" y="11" width="1" height="1" fill="rgb(242,242,242)" fill-opacity="0.6015625"/>
  <rect x="16" y="12" width="1" height="1" fill="rgb(133,133,133)" fill-opacity="0.59375"/>
  <rect x="16" y="13" width="1" height="1" fill="rgb(172,172,172)" fill-opacity="0.5625"/>
  <rect x="16" y="14" width="1" height="1" fill="rgb(174,174,174)" fill-opacity="0.5625"/>
  <rect x="16" y="15" width="1" height="1" fill="rgb(178,178,178)" fill-opacity="0.5625"/>
  <rect x="16" y="16" width="1" height="1" fill="rgb(171,171,171)" fill-opacity="0.59375"/>
  <rect x="16" y="17" width="1" height="1" fill="rgb(242,242,242)" fill-opacity="0.6015625"/>
  <rect x="16" y="18" width="1" height="1" fill="rgb(27,27,27)" fill-opacity="0.453125"/>
  <rect x="16" y="19" width="1" height="2" fill="rgb(255,255,255)" fill-opacity="0.0078125"/>
  <rect x="17" y="0" width="1" height="4" fill="rgb(255,255,255)" fill-opacity="0.0078125"/>
  <rect x="17" y="4" width="1" height="1" fill="rgb(27,27,27)" fill-opacity="0.453125"/>
  <rect x="17" y="5" width="1" height="13" fill="rgb(242,242,242)" fill-opacity="0.6015625"/>
  <rect x="17" y="18" width="1" height="1" fill="rgb(27,27,27)" fill-opacity="0.453125"/>
  <rect x="17" y="19" width="1" height="2" fill="rgb(255,255,255)" fill-opacity="0.0078125"/>
  <rect x="18" y="0" width="1" height="4" fill="rgb(255,255,255)" fill-opacity="0.0078125"/>
  <rect x="18" y="4" width="1" height="1" fill="rgb(27,27,27)" fill-opacity="0.34375"/>
  <rect x="18" y="5" width="1" height="13" fill="rgb(27,27,27)" fill-opacity="0.453125"/>
  <rect x="18" y="18" width="1" height="1" fill="rgb(27,27,27)" fill-opacity="0.34375"/>
  <rect x="18" y="19" width="1" height="2" fill="rgb(255,255,255)" fill-opacity="0.0078125"/>
  <rect x="19" y="0" width="1" height="21" fill="rgb(255,255,255)" fill-opacity="0.0078125"/>
  <rect x="20" y="0" width="1" height="21" fill="rgb(255,255,255)" fill-opacity="0.0078125"/>
</svg>