<svg xmlns="http://www.w3.org/2000/svg" shape-rendering="crispEdges" width="21" height="21" viewBox="0 0 21 21">
  <rect x="0" y="0" width="21" height="1" fill="rgb(255,255,255)" fill-opacity="0.0078125"/>
  <rect x="0" y="1" width="21" height="1" fill="rgb(255,255,255)" fill-opacity="0.0078125"/>
  <rect x="0" y="2" width="21" height="1" fill="rgb(255,255,255)" fill-opacity="0.0078125"/>
  <rect x="0" y="3" width="10" height="1" fill="rgb(255,255,255)" fill-opacity="0.0078125"/>
  <rect x="10" y="3" width="1" height="1" fill="rgb(0,0,0)" fill-opacity="0.2890625"/>
  <rect x="11" y="3" width="1" height="1" fill="rgb(0,0,0)" fill-opacity="0.59375"/>
  <rect x="12" y="3" width="2" height="1" fill="rgb(1,1,1)" fill-opacity="0.7890625"/>
  <rect x="14" y="3" width="1" height="1" fill="rgb(0,0,0)" fill-opacity="0.59375"/>
  <rect x="15" y="3" width="1" height="1" fill="rgb(0,0,0)" fill-opacity="0.2890625"/>
  <rect x="16" y="3" width="5" height="1" fill="rgb(255,255,255)" fill-opacity="0.0078125"/>
  <rect x="0" y="4" width="8" height="1" fill="rgb(255,255,255)" fill-opacity="0.0078125"/>
  <rect x="8" y="4" width="1" height="1" fill="rgb(0,0,0)" fill-opacity="0.0546875"/>
  <rect x="9" y="4" width="1" height="1" fill="rgb(0,0,0)" fill-opacity="0.625"/>
  <rect x="10" y="4" width="1" height="1" fill="rgb(23,23,23)" fill-opacity="0.671875"/>
  <rect x="11" y="4" width="1" height="1" fill="rgb(158,158,158)" fill-opacity="0.484375"/>
  <rect x="12" y="4" width="1" height="1" fill="rgb(211,211,211)" fill-opacity="0.53125"/>
  <rect x="13" y="4" width="1" height="1" fill="rgb(220,220,220)" fill-opacity="0.5546875"/>
  <rect x="14" y="4" width="1" height="1" fill="rgb(183,183,183)" fill-opacity="0.546875"/>
  <rect x="15" y="4" width="1" height="1" fill="rgb(40,40,40)" fill-opacity="0.6875"/>
  <rect x="16" y="4" width="1" height="1" fill="rgb(0,0,0)" fill-opacity="0.625"/>
  <rect x="17" y="4" width="1" height="1" fill="rgb(0,0,0)" fill-opacity="0.0546875"/>
  <rect x="18" y="4" width="3" height="1" fill="rgb(255,255,255)" fill-opacity="0.0078125"/>
  <rect x="0" y="5" width="8" height="1" fill="rgb(255,255,255)" fill-opacity="0.0078125"/>
  <rect x="8" y="5" width="1" height="1" fill="rgb(0,0,0)" fill-opacity="0.625"/>
  <rect x="9" y="5" width="1" height="1" fill="rgb(76,76,76)" fill-opacity="0.53125"/>
  <rect x="10" y="5" width="1" height="1" fill="rgb(196,196,196)" fill-opacity="0.546875"/>
  <rect x="11" y="5" width="1" height="1" fill="rgb(154,157,160)" fill-opacity="0.625"/>
  <rect x="12" y="5" width="1" height="1" fill="rgb(154,159,164)" fill-opacity="0.625"/>
  <rect x="13" y="5" width="1" height="1" fill="rgb(167,167,169)" fill-opacity="0.609375"/>
  <rect x="14" y="5" width="1" height="1" fill="rgb(192,192,192)" fill-opacity="0.6171875"/>
  <rect x="15" y="5" width="1" height="1" fill="rgb(239,239,239)" fill-opacity="0.6953125"/>
  <rect x="16" y="5" width="1" height="1" fill="rgb(129,129,129)" fill-opacity="0.609375"/>
  <rect x="17" y="5" width="1" height="1" fill="rgb(0,0,0)" fill-opacity="0.625"/>
  <rect x="18" y="5" width="3" height="1" fill="rgb(255,255,255)" fill-opacity="0.0078125"/>
  <rect x="0" y="6" width="7" height="1" fill="rgb(255,255,255)" fill-opacity="0.0078125"/>
  <rect x="7" y="6" width="1" height="1" fill="rgb(0,0,0)" fill-opacity="0.2890625"/>
  <rect x="8" y="6" width="1" height="1" fill="rgb(21,21,21)" fill-opacity="0.6640625"/>
  <rect x="9" y="6" width="1" height="1" fill="rgb(196,196,196)" fill-opacity="0.546875"/>
  <rect x="10" y="6" width="1" height="1" fill="rgb(230,232,237)" fill-opacity="0.875"/>
  <rect x="11" y="6" width="1" height="1" fill="rgb(232,235,237)" fill-opacity="0.8828125"/>
  <rect x="12" y="6" width="1" height="1" fill="rgb(163,170,181)" fill-opacity="0.703125"/>
  <rect x="13" y="6" width="1" height="1" fill="rgb(174,177,183)" fill-opacity="0.6796875"/>
  <rect x="14" y="6" width="1" height="1" fill="rgb(182,182,182)" fill-opacity="0.609375"/>
  <rect x="15" y="6" width="1" height="1" fill="rgb(196,196,196)" fill-opacity="0.546875"/>
  <rect x="16" y="6" width="1" height="1" fill="rgb(248,248,248)" fill-opacity="0.7578125"/>
  <rect x="17" y="6" width="1" height="1" fill="rgb(53,53,53)" fill-opacity="0.6953125"/>
  <rect x="18" y="6" width="1" height="1" fill="rgb(0,0,0)" fill-opacity="0.2890625"/>
  <rect x="19" y="6" width="2" height="1" fill="rgb(255,255,255)" fill-opacity="0.0078125"/>
  <rect x="0" y="7" width="7" height="1" fill="rgb(255,255,255)" fill-opacity="0.0078125"/>
  <rect x="7" y="7" width="1" height="1" fill="rgb(0,0,0)" fill-opacity="0.59375"/>
  <rect x="8" y="7" width="1" height="1" fill="rgb(157,157,157)" fill-opacity="0.4765625"/>
  <rect x="9" y="7" width="1" height="1" fill="rgb(151,157,164)" fill-opacity="0.625"/>
  <rect x="10" y="7" width="1" height="1" fill="rgb(231,234,237)" fill-opacity="0.890625"/>
  <rect x="11" y="7" width="1" height="1" fill="rgb(234,235,238)" fill-opacity="0.90625"/>
  <rect x="12" y="7" width="1" height="1" fill="rgb(181,188,195)" fill-opacity="0.7890625"/>
  <rect x="13" y="7" width="1" height="1" fill="rgb(196,194,197)" fill-opacity="0.78125"/>
  <rect x="14" y="7" width="1" height="1" fill="rgb(205,197,195)" fill-opacity="0.703125"/>
  <rect x="15" y="7" width="1" height="1" fill="rgb(205,198,196)" fill-opacity="0.5859375"/>
  <rect x="16" y="7" width="1" height="1" fill="rgb(233,233,233)" fill-opacity="0.625"/>
  <rect x="17" y="7" width="1" height="1" fill="rgb(219,219,219)" fill-opacity="0.671875"/>
  <rect x="18" y="7" width="1" height="1" fill="rgb(0,0,0)" fill-opacity="0.59375"/>
  <rect x="19" y="7" width="2" height="1" fill="rgb(255,255,255)" fill-opacity="0.0078125"/>
  <rect x="0" y="8" width="7" height="1" fill="rgb(255,255,255)" fill-opacity="0.0078125"/>
  <rect x="7" y="8" width="1" height="1" fill="rgb(1,1,1)" fill-opacity="0.7890625"/>
  <rect x="8" y="8" width="1" height="1" fill="rgb(210,210,210)" fill-opacity="0.5078125"/>
  <rect x="9" y="8" width="1" height="1" fill="rgb(149,157,170)" fill-opacity="0.625"/>
  <rect x="10" y="8" width="6" height="1" fill="rgb(0,0,0)" fill-opacity="0.9609375"/>
  <rect x="16" y="8" width="1" height="1" fill="rgb(235,230,230)" fill-opacity="0.5546875"/>
  <rect x="17" y="8" width="1" height="1" fill="rgb(252,252,252)" fill-opacity="0.78125"/>
  <rect x="18" y="8" width="1" height="1" fill="rgb(1,1,1)" fill-opacity="0.7890625"/>
  <rect x="19" y="8" width="2" height="1" fill="rgb(255,255,255)" fill-opacity="0.0078125"/>
  <rect x="0" y="9" width="7" height="1" fill="rgb(255,255,255)" fill-opacity="0.0078125"/>
  <rect x="7" y="9" width="1" height="1" fill="rgb(1,1,1)" fill-opacity="0.7890625"/>
  <rect x="8" y="9" width="1" height="1" fill="rgb(219,219,219)" fill-opacity="0.5390625"/>
  <rect x="9" y="9" width="1" height="1" fill="rgb(162,164,167)" fill-opacity="0.59375"/>
  <rect x="10" y="9" width="6" height="1" fill="rgb(0,0,0)" fill-opacity="0.9609375"/>
  <rect x="16" y="9" width="1" height="1" fill="rgb(244,232,230)" fill-opacity="0.5703125"/>
  <rect x="17" y="9" width="1" height="1" fill="rgb(254,254,254)" fill-opacity="0.8203125"/>
  <rect x="18" y="9" width="1" height="1" fill="rgb(1,1,1)" fill-opacity="0.7890625"/>
  <rect x="19" y="9" width="2" height="1" fill="rgb(255,255,255)" fill-opacity="0.0078125"/>
  <rect x="0" y="10" width="7" height="1" fill="rgb(255,255,255)" fill-opacity="0.0078125"/>
  <rect x="7" y="10" width="1" height="1" fill="rgb(0,0,0)" fill-opacity="0.59375"/>
  <rect x="8" y="10" width="1" height="1" fill="rgb(184,184,184)" fill-opacity="0.5390625"/>
  <rect x="9" y="10" width="1" height="1" fill="rgb(191,191,191)" fill-opacity="0.609375"/>
  <rect x="10" y="10" width="1" height="1" fill="rgb(178,180,181)" fill-opacity="0.6171875"/>
  <rect x="11" y="10" width="1" height="1" fill="rgb(203,192,192)" fill-opacity="0.71875"/>
  <rect x="12" y="10" width="1" height="1" fill="rgb(220,202,200)" fill-opacity="0.78125"/>
  <rect x="13" y="10" width="1" height="1" fill="rgb(229,204,200)" fill-opacity="0.78125"/>
  <rect x="14" y="10" width="1" height="1" fill="rgb(238,203,198)" fill-opacity="0.71875"/>
  <rect x="15" y="10" width="1" height="1" fill="rgb(245,199,194)" fill-opacity="0.625"/>
  <rect x="16" y="10" width="1" height="1" fill="rgb(255,243,242)" fill-opacity="0.671875"/>
  <rect x="17" y="10" width="1" height="1" fill="rgb(226,226,226)" fill-opacity="0.7265625"/>
  <rect x="18" y="10" width="1" height="1" fill="rgb(0,0,0)" fill-opacity="0.59375"/>
  <rect x="19" y="10" width="2" height="1" fill="rgb(255,255,255)" fill-opacity="0.0078125"/>
  <rect x="0" y="11" width="7" height="1" fill="rgb(255,255,255)" fill-opacity="0.0078125"/>
  <rect x="7" y="11" width="1" height="1" fill="rgb(0,0,0)" fill-opacity="0.2890625"/>
  <rect x="8" y="11" width="1" height="1" fill="rgb(38,38,38)" fill-opacity="0.6796875"/>
  <rect x="9" y="11" width="1" height="1" fill="rgb(239,239,239)" fill-opacity="0.6875"/>
  <rect x="10" y="11" width="1" height="1" fill="rgb(196,196,196)" fill-opacity="0.546875"/>
  <rect x="11" y="11" width="1" height="1" fill="rgb(208,194,193)" fill-opacity="0.59375"/>
  <rect x="12" y="11" width="1" height="1" fill="rgb(226,199,196)" fill-opacity="0.6640625"/>
  <rect x="13" y="11" width="1" height="1" fill="rgb(239,203,197)" fill-opacity="0.671875"/>
  <rect x="14" y="11" width="1" height="1" fill="rgb(245,198,192)" fill-opacity="0.6328125"/>
  <rect x="15" y="11" width="1" height="1" fill="rgb(253,222,218)" fill-opacity="0.5703125"/>
  <rect x="16" y="11" width="1" height="1" fill="rgb(255,255,255)" fill-opacity="0.90625"/>
  <rect x="17" y="11" width="1" height="1" fill="rgb(60,60,60)" fill-opacity="0.703125"/>
  <rect x="18" y="11" width="1" height="1" fill="rgb(0,0,0)" fill-opacity="0.2890625"/>
  <rect x="19" y="11" width="2" height="1" fill="rgb(255,255,255)" fill-opacity="0.0078125"/>
  <rect x="0" y="12" width="6" height="1" fill="rgb(255,255,255)" fill-opacity="0.0078125"/>
  <rect x="6" y="12" width="1" height="1" fill="rgb(0,0,0)" fill-opacity="0.015625"/>
  <rect x="7" y="12" width="1" height="1" fill="rgb(0,0,0)" fill-opacity="0.09375"/>
  <rect x="8" y="12" width="1" height="1" fill="rgb(79,79,79)" fill-opacity="0.9140625"/>
  <rect x="9" y="12" width="1" height="1" fill="rgb(118,118,118)" fill-opacity="0.8828125"/>
  <rect x="10" y="12" width="1" height="1" fill="rgb(247,247,247)" fill-opacity="0.75"/>
  <rect x="11" y="12" width="1" height="1" fill="rgb(234,234,234)" fill-opacity="0.6328125"/>
  <rect x="12" y="12" width="1" height="1" fill="rgb(236,227,225)" fill-opacity="0.578125"/>
  <rect x="13" y="12" width="1" height="1" fill="rgb(245,231,229)" fill-opacity="0.578125"/>
  <rect x="14" y="12" width="1" height="1" fill="rgb(255,246,245)" fill-opacity="0.671875"/>
  <rect x="15" y="12" width="1" height="1" fill="rgb(255,254,254)" fill-opacity="0.90625"/>
  <rect x="16" y="12" width="1" height="1" fill="rgb(155,155,155)" fill-opacity="0.6484375"/>
  <rect x="17" y="12" width="1" height="1" fill="rgb(0,0,0)" fill-opacity="0.625"/>
  <rect x="18" y="12" width="3" height="1" fill="rgb(255,255,255)" fill-opacity="0.0078125"/>
  <rect x="0" y="13" width="5" height="1" fill="rgb(255,255,255)" fill-opacity="0.0078125"/>
  <rect x="5" y="13" width="1" height="1" fill="rgb(43,22,11)" fill-opacity="0.1875"/>
  <rect x="6" y="13" width="1" height="1" fill="rgb(46,27,14)" fill-opacity="0.84375"/>
  <rect x="7" y="13" width="1" height="1" fill="rgb(116,102,90)" fill-opacity="0.953125"/>
  <rect x="8" y="13" width="1" height="1" fill="rgb(204,204,204)" fill-opacity="0.9609375"/>
  <rect x="9" y="13" width="1" height="1" fill="rgb(77,77,77)" fill-opacity="0.9140625"/>
  <rect x="10" y="13" width="1" height="1" fill="rgb(50,50,50)" fill-opacity="0.6953125"/>
  <rect x="11" y="13" width="1" height="1" fill="rgb(218,218,218)" fill-opacity="0.6796875"/>
  <rect x="12" y="13" width="1" height="1" fill="rgb(251,251,251)" fill-opacity="0.7890625"/>
  <rect x="13" y="13" width="1" height="1" fill="rgb(254,254,254)" fill-opacity="0.8203125"/>
  <rect x="14" y="13" width="1" height="1" fill="rgb(227,227,227)" fill-opacity="0.7265625"/>
  <rect x="15" y="13" width="1" height="1" fill="rgb(56,56,56)" fill-opacity="0.703125"/>
  <rect x="16" y="13" width="1" height="1" fill="rgb(0,0,0)" fill-opacity="0.625"/>
  <rect x="17" y="13" width="1" height="1" fill="rgb(0,0,0)" fill-opacity="0.0546875"/>
  <rect x="18" y="13" width="3" height="1" fill="rgb(255,255,255)" fill-opacity="0.0078125"/>
  <rect x="0" y="14" width="4" height="1" fill="rgb(255,255,255)" fill-opacity="0.0078125"/>
  <rect x="4" y="14" width="1" height="1" fill="rgb(40,23,11)" fill-opacity="0.1796875"/>
  <rect x="5" y="14" width="1" height="1" fill="rgb(67,44,31)" fill-opacity="0.90625"/>
  <rect x="6" y="14" width="1" height="1" fill="rgb(206,179,161)" fill-opacity="0.9609375"/>
  <rect x="7" y="14" width="1" height="1" fill="rgb(169,106,65)" fill-opacity="0.9609375"/>
  <rect x="8" y="14" width="1" height="1" fill="rgb(117,101,90)" fill-opacity="0.9609375"/>
  <rect x="9" y="14" width="1" height="1" fill="rgb(9,0,0)" fill-opacity="0.1171875"/>
  <rect x="10" y="14" width="1" height="1" fill="rgb(0,0,0)" fill-opacity="0.2890625"/>
  <rect x="11" y="14" width="1" height="1" fill="rgb(0,0,0)" fill-opacity="0.59375"/>
  <rect x="12" y="14" width="2" height="1" fill="rgb(1,1,1)" fill-opacity="0.7890625"/>
  <rect x="14" y="14" width="1" height="1" fill="rgb(0,0,0)" fill-opacity="0.59375"/>
  <rect x="15" y="14" width="1" height="1" fill="rgb(0,0,0)" fill-opacity="0.2890625"/>
  <rect x="16" y="14" width="5" height="1" fill="rgb(255,255,255)" fill-opacity="0.0078125"/>
  <rect x="0" y="15" width="3" height="1" fill="rgb(255,255,255)" fill-opacity="0.0078125"/>
  <rect x="3" y="15" width="1" height="1" fill="rgb(44,25,12)" fill-opacity="0.1640625"/>
  <rect x="4" y="15" width="1" height="1" fill="rgb(68,45,31)" fill-opacity="0.8984375"/>
  <rect x="5" y="15" width="1" height="1" fill="rgb(208,183,165)" fill-opacity="0.9609375"/>
  <rect x="6" y="15" width="1" height="1" fill="rgb(189,141,109)" fill-opacity="0.9609375"/>
  <rect x="7" y="15" width="1" height="1" fill="rgb(143,81,40)" fill-opacity="0.9609375"/>
  <rect x="8" y="15" width="1" height="1" fill="rgb(42,25,12)" fill-opacity="0.765625"/>
  <rect x="9" y="15" width="12" height="1" fill="rgb(255,255,255)" fill-opacity="0.0078125"/>
  <rect x="0" y="16" width="3" height="1" fill="rgb(255,255,255)" fill-opacity="0.0078125"/>
  <rect x="3" y="16" width="1" height="1" fill="rgb(44,27,15)" fill-opacity="0.6640625"/>
  <rect x="4" y="16" width="1" height="1" fill="rgb(205,179,161)" fill-opacity="0.9609375"/>
  <rect x="5" y="16" width="1" height="1" fill="rgb(189,141,109)" fill-opacity="0.9609375"/>
  <rect x="6" y="16" width="1" height="1" fill="rgb(141,80,39)" fill-opacity="0.9609375"/>
  <rect x="7" y="16" width="1" height="1" fill="rgb(52,29,13)" fill-opacity="0.90625"/>
  <rect x="8" y="16" width="1" height="1" fill="rgb(43,22,11)" fill-opacity="0.1875"/>
  <rect x="9" y="16" width="12" height="1" fill="rgb(255,255,255)" fill-opacity="0.0078125"/>
  <rect x="0" y="17" width="3" height="1" fill="rgb(255,255,255)" fill-opacity="0.0078125"/>
  <rect x="3" y="17" width="1" height="1" fill="rgb(56,34,15)" fill-opacity="0.8046875"/>
  <rect x="4" y="17" width="1" height="1" fill="rgb(165,103,60)" fill-opacity="0.9609375"/>
  <rect x="5" y="17" width="1" height="1" fill="rgb(141,80,39)" fill-opacity="0.9609375"/>
  <rect x="6" y="17" width="1" height="1" fill="rgb(53,29,13)" fill-opacity="0.8984375"/>
  <rect x="7" y="17" width="1" height="1" fill="rgb(40,23,11)" fill-opacity="0.1796875"/>
  <rect x="8" y="17" width="13" height="1" fill="rgb(255,255,255)" fill-opacity="0.0078125"/>
  <rect x="0" y="18" width="3" height="1" fill="rgb(255,255,255)" fill-opacity="0.0078125"/>
  <rect x="3" y="18" width="1" height="1" fill="rgb(42,25,13)" fill-opacity="0.2421875"/>
  <rect x="4" y="18" width="1" height="1" fill="rgb(55,31,16)" fill-opacity="0.7734375"/>
  <rect x="5" y="18" width="1" height="1" fill="rgb(47,26,14)" fill-opacity="0.765625"/>
  <rect x="6" y="18" width="1" height="1" fill="rgb(43,24,12)" fill-opacity="0.171875"/>
  <rect x="7" y="18" width="14" height="1" fill="rgb(255,255,255)" fill-opacity="0.0078125"/>
  <rect x="0" y="19" width="21" height="1" fill="rgb(255,255,255)" fill-opacity="0.0078125"/>
  <rect x="0" y="20" width="21" height="1" fill="rgb(255,255,255)" fill-opacity="0.0078125"/>
</svg>