<svg xmlns="http://www.w3.org/2000/svg" shape-rendering="crispEdges" width="21" height="21" viewBox="0 0 21 21">
  <rect x="0" y="0" width="1" height="21" fill="rgb(255,255,255)" fill-opacity="0.0078125"/>
  <rect x="1" y="0" width="1" height="21" fill="rgb(255,255,255)" fill-opacity="0.0078125"/>
  <rect x="2" y="0" width="1" height="21" fill="rgb(255,255,255)" fill-opacity="0.0078125"/>
  <rect x="3" y="0" width="1" height="21" fill="rgb(255,255,255)" fill-opacity="0.0078125"/>
  <rect x="4" y="0" width="1" height="21" fill="rgb(255,255,255)" fill-opacity="0.0078125"/>
  <rect x="5" y="0" width="1" height="8" fill="rgb(255,255,255)" fill-opacity="0.0078125"/>
  <rect x="5" y="8" width="1" height="1" fill="rgb(0,0,0)" fill-opacity="0.0390625"/>
  <rect x="5" y="9" width="1" height="1" fill="rgb(0,0,0)" fill-opacity="0.4765625"/>
  <rect x="5" y="10" width="1" height="1" fill="rgb(0,0,0)" fill-opacity="0.71875"/>
  <rect x="5" y="11" width="1" height="1" fill="rgb(0,0,0)" fill-opacity="0.828125"/>
  <rect x="5" y="12" width="1" height="1" fill="rgb(0,0,0)" fill-opacity="0.71875"/>
  <rect x="5" y="13" width="1" height="1" fill="rgb(0,0,0)" fill-opacity="0.46875"/>
  <rect x="5" y="14" width="1" height="1" fill="rgb(0,0,0)" fill-opacity="0.0390625"/>
  <rect x="5" y="15" width="1" height="6" fill="rgb(255,255,255)" fill-opacity="0.0078125"/>
  <rect x="6" y="0" width="1" height="7" fill="rgb(255,255,255)" fill-opacity="0.0078125"/>
  <rect x="6" y="7" width="1" height="1" fill="rgb(0,0,0)" fill-opacity="0.1796875"/>
  <rect x="6" y="8" width="1" height="1" fill="rgb(7,7,7)" fill-opacity="0.8125"/>
  <rect x="6" y="9" width="1" height="1" fill="rgb(178,178,178)" fill-opacity="0.859375"/>
  <rect x="6" y="10" width="1" height="1" fill="rgb(234,234,234)" fill-opacity="0.984375"/>
  <rect x="6" y="11" width="1" height="1" fill="rgb(252,252,252)"/>
  <rect x="6" y="12" width="1" height="1" fill="rgb(233,233,233)" fill-opacity="0.9765625"/>
  <rect x="6" y="13" width="1" height="1" fill="rgb(172,172,172)" fill-opacity="0.84375"/>
  <rect x="6" y="14" width="1" height="1" fill="rgb(6,6,6)" fill-opacity="0.796875"/>
  <rect x="6" y="15" width="1" height="1" fill="rgb(0,0,0)" fill-opacity="0.1796875"/>
  <rect x="6" y="16" width="1" height="5" fill="rgb(255,255,255)" fill-opacity="0.0078125"/>
  <rect x="7" y="0" width="1" height="6" fill="rgb(255,255,255)" fill-opacity="0.0078125"/>
  <rect x="7" y="6" width="1" height="1" fill="rgb(0,0,0)" fill-opacity="0.0390625"/>
  <rect x="7" y="7" width="1" height="1" fill="rgb(8,8,8)" fill-opacity="0.8046875"/>
  <rect x="7" y="8" width="1" height="1" fill="rgb(226,226,226)" fill-opacity="0.9609375"/>
  <rect x="7" y="9" width="1" height="1" fill="rgb(252,252,252)"/>
  <rect x="7" y="10" width="1" height="1" fill="rgb(235,235,235)"/>
  <rect x="7" y="11" width="1" height="1" fill="rgb(221,221,221)"/>
  <rect x="7" y="12" width="1" height="1" fill="rgb(224,224,224)"/>
  <rect x="7" y="13" width="1" height="1" fill="rgb(241,241,241)"/>
  <rect x="7" y="14" width="1" height="1" fill="rgb(202,202,202)" fill-opacity="0.9296875"/>
  <rect x="7" y="15" width="1" height="1" fill="rgb(5,5,5)" fill-opacity="0.8125"/>
  <rect x="7" y="16" width="1" height="1" fill="rgb(0,0,0)" fill-opacity="0.0390625"/>
  <rect x="7" y="17" width="1" height="4" fill="rgb(255,255,255)" fill-opacity="0.0078125"/>
  <rect x="8" y="0" width="1" height="6" fill="rgb(255,255,255)" fill-opacity="0.0078125"/>
  <rect x="8" y="6" width="1" height="1" fill="rgb(0,0,0)" fill-opacity="0.46875"/>
  <rect x="8" y="7" width="1" height="1" fill="rgb(174,174,174)" fill-opacity="0.8515625"/>
  <rect x="8" y="8" width="1" height="1" fill="rgb(252,252,252)"/>
  <rect x="8" y="9" width="1" height="1" fill="rgb(242,242,242)"/>
  <rect x="8" y="10" width="1" height="1" fill="rgb(252,252,252)"/>
  <rect x="8" y="11" width="1" height="1" fill="rgb(231,231,231)"/>
  <rect x="8" y="12" width="1" height="1" fill="rgb(193,193,193)"/>
  <rect x="8" y="13" width="1" height="1" fill="rgb(181,181,181)"/>
  <rect x="8" y="14" width="1" height="1" fill="rgb(222,222,222)"/>
  <rect x="8" y="15" width="1" height="1" fill="rgb(137,137,137)" fill-opacity="0.7890625"/>
  <rect x="8" y="16" width="1" height="1" fill="rgb(0,0,0)" fill-opacity="0.46875"/>
  <rect x="8" y="17" width="1" height="4" fill="rgb(255,255,255)" fill-opacity="0.0078125"/>
  <rect x="9" y="0" width="1" height="6" fill="rgb(255,255,255)" fill-opacity="0.0078125"/>
  <rect x="9" y="6" width="1" height="1" fill="rgb(0,0,0)" fill-opacity="0.7265625"/>
  <rect x="9" y="7" width="1" height="1" fill="rgb(210,210,210)" fill-opacity="0.9921875"/>
  <rect x="9" y="8" width="1" height="1" fill="rgb(195,195,195)"/>
  <rect x="9" y="9" width="1" height="1" fill="rgb(159,159,159)"/>
  <rect x="9" y="10" width="1" height="1" fill="rgb(147,147,147)"/>
  <rect x="9" y="11" width="1" height="1" fill="rgb(197,197,197)"/>
  <rect x="9" y="12" width="1" height="1" fill="rgb(226,226,226)"/>
  <rect x="9" y="13" width="1" height="1" fill="rgb(162,162,162)"/>
  <rect x="9" y="14" width="1" height="1" fill="rgb(166,166,166)"/>
  <rect x="9" y="15" width="1" height="1" fill="rgb(179,179,179)" fill-opacity="0.9140625"/>
  <rect x="9" y="16" width="1" height="1" fill="rgb(0,0,0)" fill-opacity="0.703125"/>
  <rect x="9" y="17" width="1" height="4" fill="rgb(255,255,255)" fill-opacity="0.0078125"/>
  <rect x="10" y="0" width="1" height="5" fill="rgb(255,255,255)" fill-opacity="0.0078125"/>
  <rect x="10" y="5" width="1" height="1" fill="rgb(0,0,0)" fill-opacity="0.015625"/>
  <rect x="10" y="6" width="1" height="1" fill="rgb(3,3,3)" fill-opacity="0.96875"/>
  <rect x="10" y="7" width="1" height="1" fill="rgb(216,216,216)"/>
  <rect x="10" y="8" width="1" height="1" fill="rgb(243,243,243)"/>
  <rect x="10" y="9" width="1" height="1" fill="rgb(247,247,247)"/>
  <rect x="10" y="10" width="1" height="1" fill="rgb(194,194,194)"/>
  <rect x="10" y="11" width="1" height="1" fill="rgb(91,91,91)"/>
  <rect x="10" y="12" width="1" height="1" fill="rgb(147,147,147)"/>
  <rect x="10" y="13" width="1" height="1" fill="rgb(140,140,140)"/>
  <rect x="10" y="14" width="1" height="1" fill="rgb(117,117,117)"/>
  <rect x="10" y="15" width="1" height="1" fill="rgb(177,177,177)" fill-opacity="0.9765625"/>
  <rect x="10" y="16" width="1" height="1" fill="rgb(0,0,0)" fill-opacity="0.828125"/>
  <rect x="10" y="17" width="1" height="4" fill="rgb(255,255,255)" fill-opacity="0.0078125"/>
  <rect x="11" y="0" width="1" height="5" fill="rgb(255,255,255)" fill-opacity="0.0078125"/>
  <rect x="11" y="5" width="1" height="1" fill="rgb(20,20,20)" fill-opacity="0.4453125"/>
  <rect x="11" y="6" width="1" height="1" fill="rgb(116,116,116)" fill-opacity="0.953125"/>
  <rect x="11" y="7" width="1" height="1" fill="rgb(252,252,252)"/>
  <rect x="11" y="8" width="1" height="1" fill="rgb(231,231,231)"/>
  <rect x="11" y="9" width="1" height="1" fill="rgb(217,217,217)"/>
  <rect x="11" y="10" width="1" height="1" fill="rgb(238,238,238)"/>
  <rect x="11" y="11" width="1" height="1" fill="rgb(179,179,179)"/>
  <rect x="11" y="12" width="1" height="1" fill="rgb(56,56,56)"/>
  <rect x="11" y="13" width="1" height="1" fill="rgb(107,107,107)"/>
  <rect x="11" y="14" width="1" height="1" fill="rgb(103,103,103)"/>
  <rect x="11" y="15" width="1" height="1" fill="rgb(157,157,157)" fill-opacity="0.890625"/>
  <rect x="11" y="16" width="1" height="1" fill="rgb(0,0,0)" fill-opacity="0.703125"/>
  <rect x="11" y="17" width="1" height="4" fill="rgb(255,255,255)" fill-opacity="0.0078125"/>
  <rect x="12" y="0" width="1" height="5" fill="rgb(255,255,255)" fill-opacity="0.0078125"/>
  <rect x="12" y="5" width="1" height="1" fill="rgb(20,20,20)" fill-opacity="0.703125"/>
  <rect x="12" y="6" width="1" height="1" fill="rgb(225,225,225)" fill-opacity="0.96875"/>
  <rect x="12" y="7" width="1" height="1" fill="rgb(233,233,233)"/>
  <rect x="12" y="8" width="1" height="1" fill="rgb(206,206,206)"/>
  <rect x="12" y="9" width="1" height="1" fill="rgb(194,194,194)"/>
  <rect x="12" y="10" width="1" height="1" fill="rgb(190,190,190)"/>
  <rect x="12" y="11" width="1" height="1" fill="rgb(225,225,225)"/>
  <rect x="12" y="12" width="1" height="1" fill="rgb(35,35,35)"/>
  <rect x="12" y="13" width="1" height="1" fill="rgb(68,68,68)"/>
  <rect x="12" y="14" width="1" height="1" fill="rgb(135,135,135)"/>
  <rect x="12" y="15" width="1" height="1" fill="rgb(107,107,107)" fill-opacity="0.7578125"/>
  <rect x="12" y="16" width="1" height="1" fill="rgb(0,0,0)" fill-opacity="0.46875"/>
  <rect x="12" y="17" width="1" height="4" fill="rgb(255,255,255)" fill-opacity="0.0078125"/>
  <rect x="13" y="0" width="1" height="5" fill="rgb(255,255,255)" fill-opacity="0.0078125"/>
  <rect x="13" y="5" width="1" height="1" fill="rgb(18,18,18)" fill-opacity="0.734375"/>
  <rect x="13" y="6" width="1" height="1" fill="rgb(227,227,227)" fill-opacity="0.953125"/>
  <rect x="13" y="7" width="1" height="1" fill="rgb(224,224,224)"/>
  <rect x="13" y="8" width="1" height="1" fill="rgb(193,193,193)"/>
  <rect x="13" y="9" width="1" height="1" fill="rgb(182,182,182)"/>
  <rect x="13" y="10" width="1" height="1" fill="rgb(184,184,184)"/>
  <rect x="13" y="11" width="1" height="1" fill="rgb(210,210,210)"/>
  <rect x="13" y="12" width="1" height="1" fill="rgb(31,31,31)"/>
  <rect x="13" y="13" width="1" height="1" fill="rgb(126,126,126)"/>
  <rect x="13" y="14" width="1" height="1" fill="rgb(142,142,142)" fill-opacity="0.8828125"/>
  <rect x="13" y="15" width="1" height="1" fill="rgb(4,4,4)" fill-opacity="0.8125"/>
  <rect x="13" y="16" width="1" height="1" fill="rgb(0,0,0)" fill-opacity="0.0390625"/>
  <rect x="13" y="17" width="1" height="4" fill="rgb(255,255,255)" fill-opacity="0.0078125"/>
  <rect x="14" y="0" width="1" height="5" fill="rgb(255,255,255)" fill-opacity="0.0078125"/>
  <rect x="14" y="5" width="1" height="1" fill="rgb(18,18,18)" fill-opacity="0.515625"/>
  <rect x="14" y="6" width="1" height="1" fill="rgb(114,114,114)" fill-opacity="0.8203125"/>
  <rect x="14" y="7" width="1" height="1" fill="rgb(247,247,247)"/>
  <rect x="14" y="8" width="1" height="1" fill="rgb(199,199,199)"/>
  <rect x="14" y="9" width="1" height="1" fill="rgb(187,187,187)"/>
  <rect x="14" y="10" width="1" height="1" fill="rgb(204,204,204)"/>
  <rect x="14" y="11" width="1" height="1" fill="rgb(166,166,166)"/>
  <rect x="14" y="12" width="1" height="1" fill="rgb(54,54,54)" fill-opacity="0.9921875"/>
  <rect x="14" y="13" width="1" height="1" fill="rgb(113,113,113)" fill-opacity="0.7734375"/>
  <rect x="14" y="14" width="1" height="1" fill="rgb(5,5,5)" fill-opacity="0.796875"/>
  <rect x="14" y="15" width="1" height="1" fill="rgb(0,0,0)" fill-opacity="0.1796875"/>
  <rect x="14" y="16" width="1" height="5" fill="rgb(255,255,255)" fill-opacity="0.0078125"/>
  <rect x="15" y="0" width="1" height="5" fill="rgb(255,255,255)" fill-opacity="0.0078125"/>
  <rect x="15" y="5" width="1" height="1" fill="rgb(0,0,0)" fill-opacity="0.03125"/>
  <rect x="15" y="6" width="1" height="1" fill="rgb(15,15,15)" fill-opacity="0.859375"/>
  <rect x="15" y="7" width="1" height="1" fill="rgb(124,124,124)" fill-opacity="0.8125"/>
  <rect x="15" y="8" width="1" height="1" fill="rgb(223,223,223)" fill-opacity="0.8984375"/>
  <rect x="15" y="9" width="1" height="1" fill="rgb(208,208,208)" fill-opacity="0.96875"/>
  <rect x="15" y="10" width="1" height="1" fill="rgb(102,102,102)" fill-opacity="0.921875"/>
  <rect x="15" y="11" width="1" height="1" fill="rgb(6,6,6)" fill-opacity="0.9921875"/>
  <rect x="15" y="12" width="1" height="1" fill="rgb(1,1,1)" fill-opacity="0.796875"/>
  <rect x="15" y="13" width="1" height="1" fill="rgb(0,0,0)" fill-opacity="0.46875"/>
  <rect x="15" y="14" width="1" height="1" fill="rgb(0,0,0)" fill-opacity="0.0390625"/>
  <rect x="15" y="15" width="1" height="6" fill="rgb(255,255,255)" fill-opacity="0.0078125"/>
  <rect x="16" y="0" width="1" height="6" fill="rgb(255,255,255)" fill-opacity="0.0078125"/>
  <rect x="16" y="6" width="1" height="1" fill="rgb(20,20,20)" fill-opacity="0.0546875"/>
  <rect x="16" y="7" width="1" height="1" fill="rgb(13,13,13)" fill-opacity="0.6796875"/>
  <rect x="16" y="8" width="1" height="1" fill="rgb(10,10,10)" fill-opacity="0.9140625"/>
  <rect x="16" y="9" width="1" height="1" fill="rgb(7,7,7)" fill-opacity="0.9375"/>
  <rect x="16" y="10" width="1" height="1" fill="rgb(8,8,8)" fill-opacity="0.8515625"/>
  <rect x="16" y="11" width="1" height="1" fill="rgb(12,12,12)" fill-opacity="0.25"/>
  <rect x="16" y="12" width="1" height="9" fill="rgb(255,255,255)" fill-opacity="0.0078125"/>
  <rect x="17" y="0" width="1" height="21" fill="rgb(255,255,255)" fill-opacity="0.0078125"/>
  <rect x="18" y="0" width="1" height="21" fill="rgb(255,255,255)" fill-opacity="0.0078125"/>
  <rect x="19" y="0" width="1" height="21" fill="rgb(255,255,255)" fill-opacity="0.0078125"/>
  <rect x="20" y="0" width="1" height="21" fill="rgb(255,255,255)" fill-opacity="0.0078125"/>
</svg>