<svg xmlns="http://www.w3.org/2000/svg" shape-rendering="crispEdges" width="21" height="21" viewBox="0 0 21 21">
  <rect x="0" y="0" width="1" height="21" fill="rgb(255,255,255)" fill-opacity="0.0078125"/>
  <rect x="1" y="0" width="1" height="21" fill="rgb(255,255,255)" fill-opacity="0.0078125"/>
  <rect x="2" y="0" width="1" height="21" fill="rgb(255,255,255)" fill-opacity="0.0078125"/>
  <rect x="3" y="0" width="1" height="4" fill="rgb(255,255,255)" fill-opacity="0.0078125"/>
  <rect x="3" y="4" width="1" height="1" fill="rgb(26,26,26)" fill-opacity="0.1640625"/>
  <rect x="3" y="5" width="1" height="1" fill="rgb(26,26,26)" fill-opacity="0.6640625"/>
  <rect x="3" y="6" width="1" height="1" fill="rgb(27,27,27)" fill-opacity="0.625"/>
  <rect x="3" y="7" width="1" height="1" fill="rgb(30,30,30)" fill-opacity="0.0703125"/>
  <rect x="3" y="8" width="1" height="13" fill="rgb(255,255,255)" fill-opacity="0.0078125"/>
  <rect x="4" y="0" width="1" height="4" fill="rgb(255,255,255)" fill-opacity="0.0078125"/>
  <rect x="4" y="4" width="1" height="1" fill="rgb(27,27,27)" fill-opacity="0.640625"/>
  <rect x="4" y="5" width="1" height="1" fill="rgb(224,224,224)"/>
  <rect x="4" y="6" width="1" height="1" fill="rgb(199,199,199)"/>
  <rect x="4" y="7" width="1" height="1" fill="rgb(48,48,48)" fill-opacity="0.859375"/>
  <rect x="4" y="8" width="1" height="1" fill="rgb(28,28,28)" fill-opacity="0.1484375"/>
  <rect x="4" y="9" width="1" height="12" fill="rgb(255,255,255)" fill-opacity="0.0078125"/>
  <rect x="5" y="0" width="1" height="4" fill="rgb(255,255,255)" fill-opacity="0.0078125"/>
  <rect x="5" y="4" width="1" height="1" fill="rgb(26,26,26)" fill-opacity="0.4296875"/>
  <rect x="5" y="5" width="1" height="1" fill="rgb(150,150,150)"/>
  <rect x="5" y="6" width="1" height="1" fill="rgb(255,255,255)"/>
  <rect x="5" y="7" width="1" height="1" fill="rgb(227,227,227)"/>
  <rect x="5" y="8" width="1" height="1" fill="rgb(71,71,71)" fill-opacity="0.9453125"/>
  <rect x="5" y="9" width="1" height="1" fill="rgb(27,27,27)" fill-opacity="0.2265625"/>
  <rect x="5" y="10" width="1" height="3" fill="rgb(255,255,255)" fill-opacity="0.0078125"/>
  <rect x="5" y="13" width="1" height="1" fill="rgb(21,21,21)" fill-opacity="0.0546875"/>
  <rect x="5" y="14" width="1" height="3" fill="rgb(21,21,21)" fill-opacity="0.1015625"/>
  <rect x="5" y="17" width="1" height="1" fill="rgb(34,34,34)" fill-opacity="0.0625"/>
  <rect x="5" y="18" width="1" height="3" fill="rgb(255,255,255)" fill-opacity="0.0078125"/>
  <rect x="6" y="0" width="1" height="4" fill="rgb(255,255,255)" fill-opacity="0.0078125"/>
  <rect x="6" y="4" width="1" height="1" fill="rgb(0,0,0)" fill-opacity="0.015625"/>
  <rect x="6" y="5" width="1" height="1" fill="rgb(26,26,26)" fill-opacity="0.5859375"/>
  <rect x="6" y="6" width="1" height="1" fill="rgb(119,119,119)"/>
  <rect x="6" y="7" width="1" height="1" fill="rgb(251,251,251)"/>
  <rect x="6" y="8" width="1" height="1" fill="rgb(245,245,245)"/>
  <rect x="6" y="9" width="1" height="1" fill="rgb(70,70,70)" fill-opacity="0.859375"/>
  <rect x="6" y="10" width="1" height="2" fill="rgb(0,0,0)" fill-opacity="0.0078125"/>
  <rect x="6" y="12" width="1" height="1" fill="rgb(27,27,27)" fill-opacity="0.5546875"/>
  <rect x="6" y="13" width="1" height="1" fill="rgb(83,83,83)" fill-opacity="0.9765625"/>
  <rect x="6" y="14" width="1" height="1" fill="rgb(96,96,96)"/>
  <rect x="6" y="15" width="1" height="1" fill="rgb(94,94,94)"/>
  <rect x="6" y="16" width="1" height="1" fill="rgb(93,93,93)"/>
  <rect x="6" y="17" width="1" height="1" fill="rgb(83,83,83)" fill-opacity="0.9921875"/>
  <rect x="6" y="18" width="1" height="1" fill="rgb(30,30,30)" fill-opacity="0.6015625"/>
  <rect x="6" y="19" width="1" height="2" fill="rgb(255,255,255)" fill-opacity="0.0078125"/>
  <rect x="7" y="0" width="1" height="6" fill="rgb(255,255,255)" fill-opacity="0.0078125"/>
  <rect x="7" y="6" width="1" height="1" fill="rgb(26,26,26)" fill-opacity="0.4609375"/>
  <rect x="7" y="7" width="1" height="1" fill="rgb(113,113,113)"/>
  <rect x="7" y="8" width="1" height="1" fill="rgb(253,253,253)"/>
  <rect x="7" y="9" width="1" height="1" fill="rgb(117,117,117)"/>
  <rect x="7" y="10" width="1" height="1" fill="rgb(32,32,32)" fill-opacity="0.0703125"/>
  <rect x="7" y="11" width="1" height="1" fill="rgb(25,25,25)" fill-opacity="0.484375"/>
  <rect x="7" y="12" width="1" height="1" fill="rgb(134,134,134)"/>
  <rect x="7" y="13" width="1" height="1" fill="rgb(231,231,231)"/>
  <rect x="7" y="14" width="1" height="1" fill="rgb(225,225,225)"/>
  <rect x="7" y="15" width="1" height="1" fill="rgb(221,221,221)"/>
  <rect x="7" y="16" width="1" height="1" fill="rgb(216,216,216)"/>
  <rect x="7" y="17" width="1" height="1" fill="rgb(212,212,212)"/>
  <rect x="7" y="18" width="1" height="1" fill="rgb(81,81,81)" fill-opacity="0.9921875"/>
  <rect x="7" y="19" width="1" height="1" fill="rgb(26,26,26)" fill-opacity="0.046875"/>
  <rect x="7" y="20" width="1" height="1" fill="rgb(255,255,255)" fill-opacity="0.0078125"/>
  <rect x="8" y="0" width="1" height="4" fill="rgb(255,255,255)" fill-opacity="0.0078125"/>
  <rect x="8" y="4" width="1" height="1" fill="rgb(27,27,27)" fill-opacity="0.265625"/>
  <rect x="8" y="5" width="1" height="1" fill="rgb(25,25,25)" fill-opacity="0.75"/>
  <rect x="8" y="6" width="1" height="1" fill="rgb(27,27,27)" fill-opacity="0.7890625"/>
  <rect x="8" y="7" width="1" height="1" fill="rgb(91,91,91)"/>
  <rect x="8" y="8" width="1" height="1" fill="rgb(250,250,250)"/>
  <rect x="8" y="9" width="1" height="1" fill="rgb(116,116,116)"/>
  <rect x="8" y="10" width="1" height="1" fill="rgb(27,27,27)" fill-opacity="0.375"/>
  <rect x="8" y="11" width="1" height="1" fill="rgb(91,91,91)"/>
  <rect x="8" y="12" width="1" height="1" fill="rgb(231,231,231)"/>
  <rect x="8" y="13" width="1" height="1" fill="rgb(189,189,189)"/>
  <rect x="8" y="14" width="1" height="1" fill="rgb(93,93,93)"/>
  <rect x="8" y="15" width="1" height="1" fill="rgb(92,92,92)"/>
  <rect x="8" y="16" width="1" height="1" fill="rgb(91,91,91)"/>
  <rect x="8" y="17" width="1" height="1" fill="rgb(83,83,83)"/>
  <rect x="8" y="18" width="1" height="1" fill="rgb(30,30,30)" fill-opacity="0.609375"/>
  <rect x="8" y="19" width="1" height="2" fill="rgb(255,255,255)" fill-opacity="0.0078125"/>
  <rect x="9" y="0" width="1" height="4" fill="rgb(255,255,255)" fill-opacity="0.0078125"/>
  <rect x="9" y="4" width="1" height="1" fill="rgb(26,26,26)" fill-opacity="0.7265625"/>
  <rect x="9" y="5" width="1" height="1" fill="rgb(238,238,238)"/>
  <rect x="9" y="6" width="1" height="1" fill="rgb(244,244,244)"/>
  <rect x="9" y="7" width="1" height="1" fill="rgb(90,90,90)"/>
  <rect x="9" y="8" width="1" height="1" fill="rgb(246,246,246)"/>
  <rect x="9" y="9" width="1" height="1" fill="rgb(158,158,158)"/>
  <rect x="9" y="10" width="1" height="1" fill="rgb(105,105,105)"/>
  <rect x="9" y="11" width="1" height="1" fill="rgb(221,221,221)"/>
  <rect x="9" y="12" width="1" height="1" fill="rgb(214,214,214)"/>
  <rect x="9" y="13" width="1" height="1" fill="rgb(53,53,53)" fill-opacity="0.921875"/>
  <rect x="9" y="14" width="1" height="1" fill="rgb(24,24,24)" fill-opacity="0.171875"/>
  <rect x="9" y="15" width="1" height="2" fill="rgb(21,21,21)" fill-opacity="0.1015625"/>
  <rect x="9" y="17" width="1" height="1" fill="rgb(28,28,28)" fill-opacity="0.078125"/>
  <rect x="9" y="18" width="1" height="3" fill="rgb(255,255,255)" fill-opacity="0.0078125"/>
  <rect x="10" y="0" width="1" height="4" fill="rgb(255,255,255)" fill-opacity="0.0078125"/>
  <rect x="10" y="4" width="1" height="1" fill="rgb(26,26,26)" fill-opacity="0.7265625"/>
  <rect x="10" y="5" width="1" height="1" fill="rgb(238,238,238)"/>
  <rect x="10" y="6" width="1" height="1" fill="rgb(244,244,244)"/>
  <rect x="10" y="7" width="1" height="1" fill="rgb(88,88,88)"/>
  <rect x="10" y="8" width="1" height="1" fill="rgb(242,242,242)"/>
  <rect x="10" y="9" width="1" height="1" fill="rgb(238,238,238)"/>
  <rect x="10" y="10" width="1" height="1" fill="rgb(233,233,233)"/>
  <rect x="10" y="11" width="1" height="1" fill="rgb(229,229,229)"/>
  <rect x="10" y="12" width="1" height="1" fill="rgb(154,154,154)"/>
  <rect x="10" y="13" width="1" height="1" fill="rgb(27,27,27)" fill-opacity="0.6015625"/>
  <rect x="10" y="14" width="1" height="7" fill="rgb(255,255,255)" fill-opacity="0.0078125"/>
  <rect x="11" y="0" width="1" height="4" fill="rgb(255,255,255)" fill-opacity="0.0078125"/>
  <rect x="11" y="4" width="1" height="1" fill="rgb(27,27,27)" fill-opacity="0.265625"/>
  <rect x="11" y="5" width="1" height="1" fill="rgb(25,25,25)" fill-opacity="0.75"/>
  <rect x="11" y="6" width="1" height="1" fill="rgb(26,26,26)" fill-opacity="0.78125"/>
  <rect x="11" y="7" width="1" height="1" fill="rgb(87,87,87)"/>
  <rect x="11" y="8" width="1" height="1" fill="rgb(239,239,239)"/>
  <rect x="11" y="9" width="1" height="1" fill="rgb(154,154,154)"/>
  <rect x="11" y="10" width="1" height="1" fill="rgb(96,96,96)"/>
  <rect x="11" y="11" width="1" height="1" fill="rgb(185,185,185)"/>
  <rect x="11" y="12" width="1" height="1" fill="rgb(220,220,220)"/>
  <rect x="11" y="13" width="1" height="1" fill="rgb(76,76,76)" fill-opacity="0.9921875"/>
  <rect x="11" y="14" width="1" height="1" fill="rgb(26,26,26)" fill-opacity="0.1953125"/>
  <rect x="11" y="15" width="1" height="6" fill="rgb(255,255,255)" fill-opacity="0.0078125"/>
  <rect x="12" y="0" width="1" height="6" fill="rgb(255,255,255)" fill-opacity="0.0078125"/>
  <rect x="12" y="6" width="1" height="1" fill="rgb(26,26,26)" fill-opacity="0.1640625"/>
  <rect x="12" y="7" width="1" height="1" fill="rgb(86,86,86)"/>
  <rect x="12" y="8" width="1" height="1" fill="rgb(235,235,235)"/>
  <rect x="12" y="9" width="1" height="1" fill="rgb(110,110,110)"/>
  <rect x="12" y="10" width="1" height="1" fill="rgb(28,28,28)" fill-opacity="0.2578125"/>
  <rect x="12" y="11" width="1" height="1" fill="rgb(61,61,61)" fill-opacity="0.9140625"/>
  <rect x="12" y="12" width="1" height="1" fill="rgb(212,212,212)"/>
  <rect x="12" y="13" width="1" height="1" fill="rgb(189,189,189)"/>
  <rect x="12" y="14" width="1" height="1" fill="rgb(37,37,37)" fill-opacity="0.78125"/>
  <rect x="12" y="15" width="1" height="6" fill="rgb(255,255,255)" fill-opacity="0.0078125"/>
  <rect x="13" y="0" width="1" height="5" fill="rgb(255,255,255)" fill-opacity="0.0078125"/>
  <rect x="13" y="5" width="1" height="1" fill="rgb(26,26,26)" fill-opacity="0.390625"/>
  <rect x="13" y="6" width="1" height="1" fill="rgb(66,66,66)" fill-opacity="0.953125"/>
  <rect x="13" y="7" width="1" height="1" fill="rgb(197,197,197)"/>
  <rect x="13" y="8" width="1" height="1" fill="rgb(232,232,232)"/>
  <rect x="13" y="9" width="1" height="1" fill="rgb(95,95,95)" fill-opacity="0.9921875"/>
  <rect x="13" y="10" width="1" height="1" fill="rgb(21,21,21)" fill-opacity="0.1015625"/>
  <rect x="13" y="11" width="1" height="1" fill="rgb(25,25,25)" fill-opacity="0.4765625"/>
  <rect x="13" y="12" width="1" height="1" fill="rgb(145,145,145)"/>
  <rect x="13" y="13" width="1" height="1" fill="rgb(209,209,209)"/>
  <rect x="13" y="14" width="1" height="1" fill="rgb(80,80,80)" fill-opacity="0.9296875"/>
  <rect x="13" y="15" width="1" height="6" fill="rgb(255,255,255)" fill-opacity="0.0078125"/>
  <rect x="14" y="0" width="1" height="4" fill="rgb(255,255,255)" fill-opacity="0.0078125"/>
  <rect x="14" y="4" width="1" height="1" fill="rgb(27,27,27)" fill-opacity="0.59375"/>
  <rect x="14" y="5" width="1" height="1" fill="rgb(131,131,131)"/>
  <rect x="14" y="6" width="1" height="2" fill="rgb(233,233,233)"/>
  <rect x="14" y="8" width="1" height="1" fill="rgb(142,142,142)"/>
  <rect x="14" y="9" width="1" height="1" fill="rgb(33,33,33)" fill-opacity="0.6171875"/>
  <rect x="14" y="10" width="1" height="1" fill="rgb(18,18,18)" fill-opacity="0.0625"/>
  <rect x="14" y="11" width="1" height="1" fill="rgb(53,53,53)" fill-opacity="0.90625"/>
  <rect x="14" y="12" width="1" height="1" fill="rgb(204,204,204)"/>
  <rect x="14" y="13" width="1" height="1" fill="rgb(186,186,186)"/>
  <rect x="14" y="14" width="1" height="1" fill="rgb(37,37,37)" fill-opacity="0.78125"/>
  <rect x="14" y="15" width="1" height="6" fill="rgb(255,255,255)" fill-opacity="0.0078125"/>
  <rect x="15" y="0" width="1" height="4" fill="rgb(255,255,255)" fill-opacity="0.0078125"/>
  <rect x="15" y="4" width="1" height="1" fill="rgb(65,65,65)" fill-opacity="0.8984375"/>
  <rect x="15" y="5" width="1" height="1" fill="rgb(239,239,239)"/>
  <rect x="15" y="6" width="1" height="1" fill="rgb(206,206,206)"/>
  <rect x="15" y="7" width="1" height="1" fill="rgb(78,78,78)" fill-opacity="0.984375"/>
  <rect x="15" y="8" width="1" height="1" fill="rgb(26,26,26)" fill-opacity="0.46875"/>
  <rect x="15" y="9" width="1" height="1" fill="rgb(0,0,0)" fill-opacity="0.015625"/>
  <rect x="15" y="10" width="1" height="1" fill="rgb(26,26,26)" fill-opacity="0.546875"/>
  <rect x="15" y="11" width="1" height="1" fill="rgb(160,160,160)"/>
  <rect x="15" y="12" width="1" height="1" fill="rgb(207,207,207)"/>
  <rect x="15" y="13" width="1" height="1" fill="rgb(81,81,81)" fill-opacity="0.9921875"/>
  <rect x="15" y="14" width="1" height="1" fill="rgb(27,27,27)" fill-opacity="0.1953125"/>
  <rect x="15" y="15" width="1" height="6" fill="rgb(255,255,255)" fill-opacity="0.0078125"/>
  <rect x="16" y="0" width="1" height="4" fill="rgb(255,255,255)" fill-opacity="0.0078125"/>
  <rect x="16" y="4" width="1" height="1" fill="rgb(27,27,27)" fill-opacity="0.4921875"/>
  <rect x="16" y="5" width="1" height="1" fill="rgb(77,77,77)" fill-opacity="0.9765625"/>
  <rect x="16" y="6" width="1" height="1" fill="rgb(37,37,37)" fill-opacity="0.765625"/>
  <rect x="16" y="7" width="1" height="1" fill="rgb(24,24,24)" fill-opacity="0.171875"/>
  <rect x="16" y="8" width="1" height="2" fill="rgb(255,255,255)" fill-opacity="0.0078125"/>
  <rect x="16" y="10" width="1" height="1" fill="rgb(25,25,25)" fill-opacity="0.6328125"/>
  <rect x="16" y="11" width="1" height="1" fill="rgb(181,181,181)"/>
  <rect x="16" y="12" width="1" height="1" fill="rgb(137,137,137)"/>
  <rect x="16" y="13" width="1" height="1" fill="rgb(26,26,26)" fill-opacity="0.5390625"/>
  <rect x="16" y="14" width="1" height="7" fill="rgb(255,255,255)" fill-opacity="0.0078125"/>
  <rect x="17" y="0" width="1" height="5" fill="rgb(255,255,255)" fill-opacity="0.0078125"/>
  <rect x="17" y="5" width="1" height="1" fill="rgb(0,0,0)" fill-opacity="0.0078125"/>
  <rect x="17" y="6" width="1" height="4" fill="rgb(255,255,255)" fill-opacity="0.0078125"/>
  <rect x="17" y="10" width="1" height="1" fill="rgb(26,26,26)" fill-opacity="0.1640625"/>
  <rect x="17" y="11" width="1" height="1" fill="rgb(31,31,31)" fill-opacity="0.6796875"/>
  <rect x="17" y="12" width="1" height="1" fill="rgb(25,25,25)" fill-opacity="0.5234375"/>
  <rect x="17" y="13" width="1" height="1" fill="rgb(43,43,43)" fill-opacity="0.03125"/>
  <rect x="17" y="14" width="1" height="7" fill="rgb(255,255,255)" fill-opacity="0.0078125"/>
  <rect x="18" y="0" width="1" height="21" fill="rgb(255,255,255)" fill-opacity="0.0078125"/>
  <rect x="19" y="0" width="1" height="21" fill="rgb(255,255,255)" fill-opacity="0.0078125"/>
  <rect x="20" y="0" width="1" height="21" fill="rgb(255,255,255)" fill-opacity="0.0078125"/>
</svg>