<svg xmlns="http://www.w3.org/2000/svg" shape-rendering="crispEdges" width="21" height="21" viewBox="0 0 21 21">
  <rect x="0" y="0" width="1" height="21" fill="rgb(255,255,255)" fill-opacity="0.0078125"/>
  <rect x="1" y="0" width="1" height="21" fill="rgb(255,255,255)" fill-opacity="0.0078125"/>
  <rect x="2" y="0" width="1" height="21" fill="rgb(255,255,255)" fill-opacity="0.0078125"/>
  <rect x="3" y="0" width="1" height="21" fill="rgb(255,255,255)" fill-opacity="0.0078125"/>
  <rect x="4" y="0" width="1" height="4" fill="rgb(255,255,255)" fill-opacity="0.0078125"/>
  <rect x="4" y="4" width="1" height="1" fill="rgb(46,46,46)" fill-opacity="0.8046875"/>
  <rect x="4" y="5" width="1" height="3" fill="rgb(48,48,48)" fill-opacity="0.9140625"/>
  <rect x="4" y="8" width="1" height="4" fill="rgb(47,47,47)" fill-opacity="0.9140625"/>
  <rect x="4" y="12" width="1" height="4" fill="rgb(46,46,46)" fill-opacity="0.9140625"/>
  <rect x="4" y="16" width="1" height="1" fill="rgb(45,45,45)" fill-opacity="0.9140625"/>
  <rect x="4" y="17" width="1" height="1" fill="rgb(43,43,43)" fill-opacity="0.7734375"/>
  <rect x="4" y="18" width="1" height="3" fill="rgb(255,255,255)" fill-opacity="0.0078125"/>
  <rect x="5" y="0" width="1" height="4" fill="rgb(255,255,255)" fill-opacity="0.0078125"/>
  <rect x="5" y="4" width="1" height="1" fill="rgb(58,58,58)" fill-opacity="0.8984375"/>
  <rect x="5" y="5" width="1" height="1" fill="rgb(254,252,246)"/>
  <rect x="5" y="6" width="1" height="1" fill="rgb(255,246,211)"/>
  <rect x="5" y="7" width="1" height="1" fill="rgb(255,242,191)"/>
  <rect x="5" y="8" width="1" height="1" fill="rgb(255,247,212)"/>
  <rect x="5" y="9" width="1" height="1" fill="rgb(255,254,249)"/>
  <rect x="5" y="10" width="1" height="6" fill="rgb(255,255,255)"/>
  <rect x="5" y="16" width="1" height="1" fill="rgb(235,235,235)"/>
  <rect x="5" y="17" width="1" height="1" fill="rgb(47,47,47)" fill-opacity="0.890625"/>
  <rect x="5" y="18" width="1" height="3" fill="rgb(255,255,255)" fill-opacity="0.0078125"/>
  <rect x="6" y="0" width="1" height="4" fill="rgb(255,255,255)" fill-opacity="0.0078125"/>
  <rect x="6" y="4" width="1" height="1" fill="rgb(60,60,60)" fill-opacity="0.90625"/>
  <rect x="6" y="5" width="1" height="1" fill="rgb(255,246,211)"/>
  <rect x="6" y="6" width="1" height="1" fill="rgb(242,215,107)"/>
  <rect x="6" y="7" width="1" height="1" fill="rgb(241,196,17)"/>
  <rect x="6" y="8" width="1" height="1" fill="rgb(241,215,110)"/>
  <rect x="6" y="9" width="1" height="1" fill="rgb(237,229,197)"/>
  <rect x="6" y="10" width="1" height="1" fill="rgb(229,229,229)"/>
  <rect x="6" y="11" width="1" height="1" fill="rgb(227,227,227)"/>
  <rect x="6" y="12" width="1" height="1" fill="rgb(224,224,224)"/>
  <rect x="6" y="13" width="1" height="1" fill="rgb(222,222,222)"/>
  <rect x="6" y="14" width="1" height="1" fill="rgb(220,220,220)"/>
  <rect x="6" y="15" width="1" height="1" fill="rgb(217,217,217)"/>
  <rect x="6" y="16" width="1" height="1" fill="rgb(215,215,215)"/>
  <rect x="6" y="17" width="1" height="1" fill="rgb(47,47,47)" fill-opacity="0.890625"/>
  <rect x="6" y="18" width="1" height="3" fill="rgb(255,255,255)" fill-opacity="0.0078125"/>
  <rect x="7" y="0" width="1" height="4" fill="rgb(255,255,255)" fill-opacity="0.0078125"/>
  <rect x="7" y="4" width="1" height="1" fill="rgb(60,60,60)" fill-opacity="0.90625"/>
  <rect x="7" y="5" width="1" height="1" fill="rgb(255,242,192)"/>
  <rect x="7" y="6" width="1" height="1" fill="rgb(241,197,23)"/>
  <rect x="7" y="7" width="1" height="1" fill="rgb(255,254,252)"/>
  <rect x="7" y="8" width="1" height="1" fill="rgb(241,197,23)"/>
  <rect x="7" y="9" width="1" height="1" fill="rgb(239,226,178)"/>
  <rect x="7" y="10" width="1" height="1" fill="rgb(227,227,227)"/>
  <rect x="7" y="11" width="1" height="1" fill="rgb(214,214,214)"/>
  <rect x="7" y="12" width="1" height="1" fill="rgb(143,143,143)"/>
  <rect x="7" y="13" width="1" height="1" fill="rgb(112,112,112)"/>
  <rect x="7" y="14" width="1" height="1" fill="rgb(143,143,143)"/>
  <rect x="7" y="15" width="1" height="1" fill="rgb(205,205,205)"/>
  <rect x="7" y="16" width="1" height="1" fill="rgb(213,213,213)"/>
  <rect x="7" y="17" width="1" height="1" fill="rgb(47,47,47)" fill-opacity="0.890625"/>
  <rect x="7" y="18" width="1" height="3" fill="rgb(255,255,255)" fill-opacity="0.0078125"/>
  <rect x="8" y="0" width="1" height="4" fill="rgb(255,255,255)" fill-opacity="0.0078125"/>
  <rect x="8" y="4" width="1" height="1" fill="rgb(60,60,60)" fill-opacity="0.90625"/>
  <rect x="8" y="5" width="1" height="1" fill="rgb(254,245,211)"/>
  <rect x="8" y="6" width="1" height="1" fill="rgb(241,214,106)"/>
  <rect x="8" y="7" width="1" height="1" fill="rgb(240,196,17)"/>
  <rect x="8" y="8" width="1" height="1" fill="rgb(240,214,109)"/>
  <rect x="8" y="9" width="1" height="1" fill="rgb(234,226,194)"/>
  <rect x="8" y="10" width="1" height="1" fill="rgb(224,224,224)"/>
  <rect x="8" y="11" width="1" height="1" fill="rgb(143,143,143)"/>
  <rect x="8" y="12" width="1" height="1" fill="rgb(219,219,219)"/>
  <rect x="8" y="13" width="1" height="1" fill="rgb(255,255,255)"/>
  <rect x="8" y="14" width="1" height="1" fill="rgb(208,208,208)"/>
  <rect x="8" y="15" width="1" height="1" fill="rgb(134,134,134)"/>
  <rect x="8" y="16" width="1" height="1" fill="rgb(207,207,207)"/>
  <rect x="8" y="17" width="1" height="1" fill="rgb(47,47,47)" fill-opacity="0.890625"/>
  <rect x="8" y="18" width="1" height="3" fill="rgb(255,255,255)" fill-opacity="0.0078125"/>
  <rect x="9" y="0" width="1" height="4" fill="rgb(255,255,255)" fill-opacity="0.0078125"/>
  <rect x="9" y="4" width="1" height="1" fill="rgb(60,60,60)" fill-opacity="0.90625"/>
  <rect x="9" y="5" width="1" height="1" fill="rgb(254,252,246)"/>
  <rect x="9" y="6" width="1" height="1" fill="rgb(238,229,194)"/>
  <rect x="9" y="7" width="1" height="1" fill="rgb(239,226,175)"/>
  <rect x="9" y="8" width="1" height="1" fill="rgb(234,226,192)"/>
  <rect x="9" y="9" width="1" height="1" fill="rgb(225,224,219)"/>
  <rect x="9" y="10" width="1" height="1" fill="rgb(222,222,222)"/>
  <rect x="9" y="11" width="1" height="1" fill="rgb(117,117,117)"/>
  <rect x="9" y="12" width="1" height="1" fill="rgb(255,255,255)"/>
  <rect x="9" y="13" width="1" height="1" fill="rgb(247,247,247)"/>
  <rect x="9" y="14" width="1" height="1" fill="rgb(224,224,224)"/>
  <rect x="9" y="15" width="1" height="1" fill="rgb(90,90,90)"/>
  <rect x="9" y="16" width="1" height="1" fill="rgb(196,196,196)"/>
  <rect x="9" y="17" width="1" height="1" fill="rgb(46,46,46)" fill-opacity="0.890625"/>
  <rect x="9" y="18" width="1" height="3" fill="rgb(255,255,255)" fill-opacity="0.0078125"/>
  <rect x="10" y="0" width="1" height="4" fill="rgb(255,255,255)" fill-opacity="0.0078125"/>
  <rect x="10" y="4" width="1" height="1" fill="rgb(60,60,60)" fill-opacity="0.90625"/>
  <rect x="10" y="5" width="1" height="1" fill="rgb(254,254,254)"/>
  <rect x="10" y="6" width="1" height="1" fill="rgb(229,229,229)"/>
  <rect x="10" y="7" width="1" height="1" fill="rgb(227,227,227)"/>
  <rect x="10" y="8" width="1" height="1" fill="rgb(224,224,224)"/>
  <rect x="10" y="9" width="1" height="1" fill="rgb(222,222,222)"/>
  <rect x="10" y="10" width="1" height="1" fill="rgb(220,220,220)"/>
  <rect x="10" y="11" width="1" height="1" fill="rgb(141,141,141)"/>
  <rect x="10" y="12" width="1" height="1" fill="rgb(203,203,203)"/>
  <rect x="10" y="13" width="1" height="1" fill="rgb(221,221,221)"/>
  <rect x="10" y="14" width="1" height="1" fill="rgb(127,127,127)"/>
  <rect x="10" y="15" width="1" height="1" fill="rgb(89,89,89)"/>
  <rect x="10" y="16" width="1" height="1" fill="rgb(190,190,190)"/>
  <rect x="10" y="17" width="1" height="1" fill="rgb(46,46,46)" fill-opacity="0.890625"/>
  <rect x="10" y="18" width="1" height="3" fill="rgb(255,255,255)" fill-opacity="0.0078125"/>
  <rect x="11" y="0" width="1" height="4" fill="rgb(255,255,255)" fill-opacity="0.0078125"/>
  <rect x="11" y="4" width="1" height="1" fill="rgb(60,60,60)" fill-opacity="0.90625"/>
  <rect x="11" y="5" width="1" height="1" fill="rgb(254,254,254)"/>
  <rect x="11" y="6" width="1" height="1" fill="rgb(227,227,227)"/>
  <rect x="11" y="7" width="1" height="1" fill="rgb(180,188,201)"/>
  <rect x="11" y="8" width="1" height="1" fill="rgb(130,150,181)"/>
  <rect x="11" y="9" width="1" height="1" fill="rgb(128,149,180)"/>
  <rect x="11" y="10" width="1" height="1" fill="rgb(123,144,176)"/>
  <rect x="11" y="11" width="1" height="1" fill="rgb(105,124,152)"/>
  <rect x="11" y="12" width="1" height="1" fill="rgb(70,76,87)"/>
  <rect x="11" y="13" width="1" height="1" fill="rgb(51,51,52)"/>
  <rect x="11" y="14" width="1" height="1" fill="rgb(80,80,80)"/>
  <rect x="11" y="15" width="1" height="1" fill="rgb(157,157,157)"/>
  <rect x="11" y="16" width="1" height="1" fill="rgb(190,190,190)"/>
  <rect x="11" y="17" width="1" height="1" fill="rgb(46,46,46)" fill-opacity="0.890625"/>
  <rect x="11" y="18" width="1" height="3" fill="rgb(255,255,255)" fill-opacity="0.0078125"/>
  <rect x="12" y="0" width="1" height="4" fill="rgb(255,255,255)" fill-opacity="0.0078125"/>
  <rect x="12" y="4" width="1" height="1" fill="rgb(60,60,60)" fill-opacity="0.90625"/>
  <rect x="12" y="5" width="1" height="1" fill="rgb(254,254,254)"/>
  <rect x="12" y="6" width="1" height="1" fill="rgb(224,224,224)"/>
  <rect x="12" y="7" width="1" height="1" fill="rgb(113,134,168)"/>
  <rect x="12" y="8" width="1" height="1" fill="rgb(215,227,244)"/>
  <rect x="12" y="9" width="1" height="2" fill="rgb(140,172,220)"/>
  <rect x="12" y="11" width="1" height="1" fill="rgb(139,171,219)"/>
  <rect x="12" y="12" width="1" height="1" fill="rgb(116,143,183)"/>
  <rect x="12" y="13" width="1" height="1" fill="rgb(80,104,141)"/>
  <rect x="12" y="14" width="1" height="1" fill="rgb(177,177,177)"/>
  <rect x="12" y="15" width="1" height="1" fill="rgb(182,182,182)"/>
  <rect x="12" y="16" width="1" height="1" fill="rgb(196,196,196)"/>
  <rect x="12" y="17" width="1" height="1" fill="rgb(46,46,46)" fill-opacity="0.890625"/>
  <rect x="12" y="18" width="1" height="3" fill="rgb(255,255,255)" fill-opacity="0.0078125"/>
  <rect x="13" y="0" width="1" height="4" fill="rgb(255,255,255)" fill-opacity="0.0078125"/>
  <rect x="13" y="4" width="1" height="1" fill="rgb(59,59,59)" fill-opacity="0.90625"/>
  <rect x="13" y="5" width="1" height="1" fill="rgb(254,254,254)"/>
  <rect x="13" y="6" width="1" height="1" fill="rgb(222,222,222)"/>
  <rect x="13" y="7" width="1" height="1" fill="rgb(91,116,156)"/>
  <rect x="13" y="8" width="1" height="1" fill="rgb(215,227,244)"/>
  <rect x="13" y="9" width="1" height="4" fill="rgb(99,140,200)"/>
  <rect x="13" y="13" width="1" height="1" fill="rgb(69,96,136)"/>
  <rect x="13" y="14" width="1" height="1" fill="rgb(180,180,180)"/>
  <rect x="13" y="15" width="1" height="1" fill="rgb(196,196,196)"/>
  <rect x="13" y="16" width="1" height="1" fill="rgb(199,199,199)"/>
  <rect x="13" y="17" width="1" height="1" fill="rgb(45,45,45)" fill-opacity="0.890625"/>
  <rect x="13" y="18" width="1" height="3" fill="rgb(255,255,255)" fill-opacity="0.0078125"/>
  <rect x="14" y="0" width="1" height="4" fill="rgb(255,255,255)" fill-opacity="0.0078125"/>
  <rect x="14" y="4" width="1" height="1" fill="rgb(59,59,59)" fill-opacity="0.90625"/>
  <rect x="14" y="5" width="1" height="1" fill="rgb(254,254,254)"/>
  <rect x="14" y="6" width="1" height="1" fill="rgb(219,219,219)"/>
  <rect x="14" y="7" width="1" height="1" fill="rgb(143,156,178)"/>
  <rect x="14" y="8" width="1" height="1" fill="rgb(65,95,140)"/>
  <rect x="14" y="9" width="1" height="1" fill="rgb(63,92,138)"/>
  <rect x="14" y="10" width="1" height="1" fill="rgb(61,90,136)"/>
  <rect x="14" y="11" width="1" height="1" fill="rgb(60,90,136)"/>
  <rect x="14" y="12" width="1" height="1" fill="rgb(58,87,133)"/>
  <rect x="14" y="13" width="1" height="1" fill="rgb(91,110,140)"/>
  <rect x="14" y="14" width="1" height="1" fill="rgb(177,177,177)"/>
  <rect x="14" y="15" width="1" height="1" fill="rgb(199,199,199)"/>
  <rect x="14" y="16" width="1" height="1" fill="rgb(196,196,196)"/>
  <rect x="14" y="17" width="1" height="1" fill="rgb(45,45,45)" fill-opacity="0.890625"/>
  <rect x="14" y="18" width="1" height="3" fill="rgb(255,255,255)" fill-opacity="0.0078125"/>
  <rect x="15" y="0" width="1" height="4" fill="rgb(255,255,255)" fill-opacity="0.0078125"/>
  <rect x="15" y="4" width="1" height="1" fill="rgb(59,59,59)" fill-opacity="0.90625"/>
  <rect x="15" y="5" width="1" height="1" fill="rgb(254,254,254)"/>
  <rect x="15" y="6" width="1" height="1" fill="rgb(217,217,217)"/>
  <rect x="15" y="7" width="1" height="1" fill="rgb(215,215,215)"/>
  <rect x="15" y="8" width="1" height="1" fill="rgb(212,212,212)"/>
  <rect x="15" y="9" width="1" height="1" fill="rgb(210,210,210)"/>
  <rect x="15" y="10" width="1" height="1" fill="rgb(208,208,208)"/>
  <rect x="15" y="11" width="1" height="1" fill="rgb(206,206,206)"/>
  <rect x="15" y="12" width="1" height="1" fill="rgb(199,199,199)"/>
  <rect x="15" y="13" width="1" height="1" fill="rgb(178,178,178)"/>
  <rect x="15" y="14" width="1" height="1" fill="rgb(180,180,180)"/>
  <rect x="15" y="15" width="1" height="1" fill="rgb(196,196,196)"/>
  <rect x="15" y="16" width="1" height="1" fill="rgb(194,194,194)"/>
  <rect x="15" y="17" width="1" height="1" fill="rgb(45,45,45)" fill-opacity="0.890625"/>
  <rect x="15" y="18" width="1" height="3" fill="rgb(255,255,255)" fill-opacity="0.0078125"/>
  <rect x="16" y="0" width="1" height="4" fill="rgb(255,255,255)" fill-opacity="0.0078125"/>
  <rect x="16" y="4" width="1" height="1" fill="rgb(55,55,55)" fill-opacity="0.8984375"/>
  <rect x="16" y="5" width="1" height="1" fill="rgb(235,235,235)"/>
  <rect x="16" y="6" width="1" height="1" fill="rgb(215,215,215)"/>
  <rect x="16" y="7" width="1" height="1" fill="rgb(212,212,212)"/>
  <rect x="16" y="8" width="1" height="1" fill="rgb(210,210,210)"/>
  <rect x="16" y="9" width="1" height="1" fill="rgb(208,208,208)"/>
  <rect x="16" y="10" width="1" height="1" fill="rgb(205,205,205)"/>
  <rect x="16" y="11" width="1" height="1" fill="rgb(203,203,203)"/>
  <rect x="16" y="12" width="1" height="1" fill="rgb(201,201,201)"/>
  <rect x="16" y="13" width="1" height="1" fill="rgb(187,187,187)"/>
  <rect x="16" y="14" width="1" height="1" fill="rgb(184,184,184)"/>
  <rect x="16" y="15" width="1" height="1" fill="rgb(194,194,194)"/>
  <rect x="16" y="16" width="1" height="1" fill="rgb(192,192,192)"/>
  <rect x="16" y="17" width="1" height="1" fill="rgb(45,45,45)" fill-opacity="0.890625"/>
  <rect x="16" y="18" width="1" height="3" fill="rgb(255,255,255)" fill-opacity="0.0078125"/>
  <rect x="17" y="0" width="1" height="4" fill="rgb(255,255,255)" fill-opacity="0.0078125"/>
  <rect x="17" y="4" width="1" height="1" fill="rgb(44,44,44)" fill-opacity="0.8046875"/>
  <rect x="17" y="5" width="1" height="3" fill="rgb(45,45,45)" fill-opacity="0.9140625"/>
  <rect x="17" y="8" width="1" height="4" fill="rgb(44,44,44)" fill-opacity="0.9140625"/>
  <rect x="17" y="12" width="1" height="5" fill="rgb(43,43,43)" fill-opacity="0.9140625"/>
  <rect x="17" y="17" width="1" height="1" fill="rgb(40,40,40)" fill-opacity="0.7734375"/>
  <rect x="17" y="18" width="1" height="3" fill="rgb(255,255,255)" fill-opacity="0.0078125"/>
  <rect x="18" y="0" width="1" height="21" fill="rgb(255,255,255)" fill-opacity="0.0078125"/>
  <rect x="19" y="0" width="1" height="21" fill="rgb(255,255,255)" fill-opacity="0.0078125"/>
  <rect x="20" y="0" width="1" height="21" fill="rgb(255,255,255)" fill-opacity="0.0078125"/>
</svg>