<svg xmlns="http://www.w3.org/2000/svg" shape-rendering="crispEdges" width="21" height="21" viewBox="0 0 21 21">
  <rect x="0" y="0" width="21" height="1" fill="rgb(255,255,255)" fill-opacity="0.0078125"/>
  <rect x="0" y="1" width="21" height="1" fill="rgb(255,255,255)" fill-opacity="0.0078125"/>
  <rect x="0" y="2" width="21" height="1" fill="rgb(255,255,255)" fill-opacity="0.0078125"/>
  <rect x="0" y="3" width="21" height="1" fill="rgb(255,255,255)" fill-opacity="0.0078125"/>
  <rect x="0" y="4" width="21" height="1" fill="rgb(255,255,255)" fill-opacity="0.0078125"/>
  <rect x="0" y="5" width="21" height="1" fill="rgb(255,255,255)" fill-opacity="0.0078125"/>
  <rect x="0" y="6" width="11" height="1" fill="rgb(255,255,255)" fill-opacity="0.0078125"/>
  <rect x="11" y="6" width="1" height="1" fill="rgb(13,22,40)" fill-opacity="0.234375"/>
  <rect x="12" y="6" width="1" height="1" fill="rgb(14,25,44)" fill-opacity="0.6328125"/>
  <rect x="13" y="6" width="1" height="1" fill="rgb(15,28,47)" fill-opacity="0.6796875"/>
  <rect x="14" y="6" width="1" height="1" fill="rgb(16,30,48)" fill-opacity="0.7109375"/>
  <rect x="15" y="6" width="1" height="1" fill="rgb(14,27,46)" fill-opacity="0.59375"/>
  <rect x="16" y="6" width="1" height="1" fill="rgb(10,20,39)" fill-opacity="0.109375"/>
  <rect x="17" y="6" width="4" height="1" fill="rgb(255,255,255)" fill-opacity="0.0078125"/>
  <rect x="0" y="7" width="9" height="1" fill="rgb(255,255,255)" fill-opacity="0.0078125"/>
  <rect x="9" y="7" width="1" height="1" fill="rgb(9,26,43)" fill-opacity="0.125"/>
  <rect x="10" y="7" width="1" height="1" fill="rgb(13,27,46)" fill-opacity="0.6796875"/>
  <rect x="11" y="7" width="1" height="1" fill="rgb(77,87,103)" fill-opacity="0.953125"/>
  <rect x="12" y="7" width="1" height="1" fill="rgb(182,193,209)" fill-opacity="0.953125"/>
  <rect x="13" y="7" width="1" height="1" fill="rgb(223,229,238)" fill-opacity="0.9765625"/>
  <rect x="14" y="7" width="1" height="1" fill="rgb(220,226,235)" fill-opacity="0.9765625"/>
  <rect x="15" y="7" width="1" height="1" fill="rgb(174,186,200)" fill-opacity="0.953125"/>
  <rect x="16" y="7" width="1" height="1" fill="rgb(78,87,102)" fill-opacity="0.96875"/>
  <rect x="17" y="7" width="1" height="1" fill="rgb(15,29,46)" fill-opacity="0.53125"/>
  <rect x="18" y="7" width="1" height="1" fill="rgb(0,0,0)" fill-opacity="0.015625"/>
  <rect x="19" y="7" width="2" height="1" fill="rgb(255,255,255)" fill-opacity="0.0078125"/>
  <rect x="0" y="8" width="8" height="1" fill="rgb(255,255,255)" fill-opacity="0.0078125"/>
  <rect x="8" y="8" width="1" height="1" fill="rgb(13,22,39)" fill-opacity="0.234375"/>
  <rect x="9" y="8" width="1" height="1" fill="rgb(19,32,50)" fill-opacity="0.9375"/>
  <rect x="10" y="8" width="1" height="1" fill="rgb(160,173,191)" fill-opacity="0.9375"/>
  <rect x="11" y="8" width="1" height="1" fill="rgb(249,251,253)" fill-opacity="0.9921875"/>
  <rect x="12" y="8" width="1" height="1" fill="rgb(218,230,248)" fill-opacity="0.9453125"/>
  <rect x="13" y="8" width="1" height="1" fill="rgb(175,199,238)" fill-opacity="0.8828125"/>
  <rect x="14" y="8" width="1" height="1" fill="rgb(163,192,235)" fill-opacity="0.8671875"/>
  <rect x="15" y="8" width="1" height="1" fill="rgb(186,208,240)" fill-opacity="0.8984375"/>
  <rect x="16" y="8" width="1" height="1" fill="rgb(210,221,238)" fill-opacity="0.9453125"/>
  <rect x="17" y="8" width="1" height="1" fill="rgb(90,103,121)" fill-opacity="0.9453125"/>
  <rect x="18" y="8" width="1" height="1" fill="rgb(13,24,44)" fill-opacity="0.4609375"/>
  <rect x="19" y="8" width="2" height="1" fill="rgb(255,255,255)" fill-opacity="0.0078125"/>
  <rect x="0" y="9" width="7" height="1" fill="rgb(255,255,255)" fill-opacity="0.0078125"/>
  <rect x="7" y="9" width="1" height="1" fill="rgb(9,23,41)" fill-opacity="0.2265625"/>
  <rect x="8" y="9" width="1" height="1" fill="rgb(23,36,53)" fill-opacity="0.9453125"/>
  <rect x="9" y="9" width="1" height="1" fill="rgb(196,208,227)" fill-opacity="0.9453125"/>
  <rect x="10" y="9" width="1" height="1" fill="rgb(232,239,250)" fill-opacity="0.96875"/>
  <rect x="11" y="9" width="1" height="1" fill="rgb(157,189,234)" fill-opacity="0.859375"/>
  <rect x="12" y="9" width="3" height="1" fill="rgb(106,154,224)" fill-opacity="0.8046875"/>
  <rect x="15" y="9" width="1" height="1" fill="rgb(91,132,192)" fill-opacity="0.828125"/>
  <rect x="16" y="9" width="1" height="1" fill="rgb(125,147,181)" fill-opacity="0.9140625"/>
  <rect x="17" y="9" width="1" height="1" fill="rgb(173,185,203)" fill-opacity="0.953125"/>
  <rect x="18" y="9" width="1" height="1" fill="rgb(22,36,55)" fill-opacity="0.8984375"/>
  <rect x="19" y="9" width="2" height="1" fill="rgb(255,255,255)" fill-opacity="0.0078125"/>
  <rect x="0" y="10" width="6" height="1" fill="rgb(255,255,255)" fill-opacity="0.0078125"/>
  <rect x="6" y="10" width="1" height="1" fill="rgb(10,24,38)" fill-opacity="0.2109375"/>
  <rect x="7" y="10" width="1" height="1" fill="rgb(23,35,53)" fill-opacity="0.9453125"/>
  <rect x="8" y="10" width="1" height="1" fill="rgb(184,199,221)" fill-opacity="0.9375"/>
  <rect x="9" y="10" width="1" height="1" fill="rgb(217,228,247)" fill-opacity="0.9453125"/>
  <rect x="10" y="10" width="1" height="1" fill="rgb(126,168,228)" fill-opacity="0.828125"/>
  <rect x="11" y="10" width="3" height="1" fill="rgb(106,154,224)" fill-opacity="0.8046875"/>
  <rect x="14" y="10" width="1" height="1" fill="rgb(66,98,145)" fill-opacity="0.796875"/>
  <rect x="15" y="10" width="1" height="1" fill="rgb(13,26,43)" fill-opacity="0.9296875"/>
  <rect x="16" y="10" width="1" height="1" fill="rgb(12,26,44)" fill-opacity="0.6484375"/>
  <rect x="17" y="10" width="1" height="1" fill="rgb(21,35,53)" fill-opacity="0.796875"/>
  <rect x="18" y="10" width="1" height="1" fill="rgb(14,28,46)" fill-opacity="0.8671875"/>
  <rect x="19" y="10" width="2" height="1" fill="rgb(255,255,255)" fill-opacity="0.0078125"/>
  <rect x="0" y="11" width="5" height="1" fill="rgb(255,255,255)" fill-opacity="0.0078125"/>
  <rect x="5" y="11" width="1" height="1" fill="rgb(10,25,40)" fill-opacity="0.203125"/>
  <rect x="6" y="11" width="1" height="1" fill="rgb(22,34,53)" fill-opacity="0.9453125"/>
  <rect x="7" y="11" width="1" height="1" fill="rgb(172,189,214)" fill-opacity="0.9296875"/>
  <rect x="8" y="11" width="1" height="1" fill="rgb(205,222,244)" fill-opacity="0.9296875"/>
  <rect x="9" y="11" width="1" height="1" fill="rgb(124,166,228)" fill-opacity="0.8203125"/>
  <rect x="10" y="11" width="3" height="1" fill="rgb(106,154,224)" fill-opacity="0.8046875"/>
  <rect x="13" y="11" width="1" height="1" fill="rgb(103,151,219)" fill-opacity="0.8046875"/>
  <rect x="14" y="11" width="1" height="1" fill="rgb(13,26,43)" fill-opacity="0.9296875"/>
  <rect x="15" y="11" width="1" height="1" fill="rgb(9,24,38)" fill-opacity="0.21875"/>
  <rect x="16" y="11" width="5" height="1" fill="rgb(255,255,255)" fill-opacity="0.0078125"/>
  <rect x="0" y="12" width="4" height="1" fill="rgb(255,255,255)" fill-opacity="0.0078125"/>
  <rect x="4" y="12" width="1" height="1" fill="rgb(11,21,43)" fill-opacity="0.1953125"/>
  <rect x="5" y="12" width="1" height="1" fill="rgb(20,32,51)" fill-opacity="0.9453125"/>
  <rect x="6" y="12" width="1" height="1" fill="rgb(159,178,206)" fill-opacity="0.921875"/>
  <rect x="7" y="12" width="1" height="1" fill="rgb(195,213,242)" fill-opacity="0.9140625"/>
  <rect x="8" y="12" width="1" height="1" fill="rgb(122,165,227)" fill-opacity="0.8203125"/>
  <rect x="9" y="12" width="4" height="1" fill="rgb(106,154,224)" fill-opacity="0.8046875"/>
  <rect x="13" y="12" width="1" height="1" fill="rgb(100,143,211)" fill-opacity="0.8125"/>
  <rect x="14" y="12" width="1" height="1" fill="rgb(12,24,42)" fill-opacity="0.953125"/>
  <rect x="15" y="12" width="6" height="1" fill="rgb(255,255,255)" fill-opacity="0.0078125"/>
  <rect x="0" y="13" width="3" height="1" fill="rgb(255,255,255)" fill-opacity="0.0078125"/>
  <rect x="3" y="13" width="1" height="1" fill="rgb(11,22,39)" fill-opacity="0.1875"/>
  <rect x="4" y="13" width="1" height="1" fill="rgb(19,33,51)" fill-opacity="0.9453125"/>
  <rect x="5" y="13" width="1" height="1" fill="rgb(144,165,196)" fill-opacity="0.9140625"/>
  <rect x="6" y="13" width="1" height="1" fill="rgb(183,206,239)" fill-opacity="0.8984375"/>
  <rect x="7" y="13" width="1" height="1" fill="rgb(120,163,227)" fill-opacity="0.8203125"/>
  <rect x="8" y="13" width="5" height="1" fill="rgb(106,154,224)" fill-opacity="0.8046875"/>
  <rect x="13" y="13" width="1" height="1" fill="rgb(106,154,223)" fill-opacity="0.8046875"/>
  <rect x="14" y="13" width="1" height="1" fill="rgb(24,40,64)" fill-opacity="0.921875"/>
  <rect x="15" y="13" width="1" height="1" fill="rgb(16,31,50)" fill-opacity="0.5625"/>
  <rect x="16" y="13" width="1" height="1" fill="rgb(21,21,43)" fill-opacity="0.0546875"/>
  <rect x="17" y="13" width="4" height="1" fill="rgb(255,255,255)" fill-opacity="0.0078125"/>
  <rect x="0" y="14" width="3" height="1" fill="rgb(255,255,255)" fill-opacity="0.0078125"/>
  <rect x="3" y="14" width="1" height="1" fill="rgb(11,24,41)" fill-opacity="0.46875"/>
  <rect x="4" y="14" width="1" height="1" fill="rgb(107,131,167)" fill-opacity="0.765625"/>
  <rect x="5" y="14" width="1" height="1" fill="rgb(180,205,240)" fill-opacity="0.734375"/>
  <rect x="6" y="14" width="1" height="1" fill="rgb(117,160,227)" fill-opacity="0.6015625"/>
  <rect x="7" y="14" width="7" height="1" fill="rgb(100,148,222)" fill-opacity="0.578125"/>
  <rect x="14" y="14" width="1" height="1" fill="rgb(82,125,188)" fill-opacity="0.625"/>
  <rect x="15" y="14" width="1" height="1" fill="rgb(29,49,79)" fill-opacity="0.8515625"/>
  <rect x="16" y="14" width="1" height="1" fill="rgb(13,26,43)" fill-opacity="0.9765625"/>
  <rect x="17" y="14" width="1" height="1" fill="rgb(12,26,44)" fill-opacity="0.9609375"/>
  <rect x="18" y="14" width="1" height="1" fill="rgb(10,22,40)" fill-opacity="0.5"/>
  <rect x="19" y="14" width="2" height="1" fill="rgb(255,255,255)" fill-opacity="0.0078125"/>
  <rect x="0" y="15" width="4" height="1" fill="rgb(255,255,255)" fill-opacity="0.0078125"/>
  <rect x="4" y="15" width="1" height="1" fill="rgb(97,149,221)" fill-opacity="0.3515625"/>
  <rect x="5" y="15" width="1" height="1" fill="rgb(101,154,221)" fill-opacity="0.359375"/>
  <rect x="6" y="15" width="10" height="1" fill="rgb(91,147,220)" fill-opacity="0.34375"/>
  <rect x="16" y="15" width="1" height="1" fill="rgb(81,133,201)" fill-opacity="0.375"/>
  <rect x="17" y="15" width="1" height="1" fill="rgb(78,125,190)" fill-opacity="0.390625"/>
  <rect x="18" y="15" width="1" height="1" fill="rgb(0,32,32)" fill-opacity="0.0390625"/>
  <rect x="19" y="15" width="2" height="1" fill="rgb(255,255,255)" fill-opacity="0.0078125"/>
  <rect x="0" y="16" width="21" height="1" fill="rgb(255,255,255)" fill-opacity="0.0078125"/>
  <rect x="0" y="17" width="21" height="1" fill="rgb(255,255,255)" fill-opacity="0.0078125"/>
  <rect x="0" y="18" width="21" height="1" fill="rgb(255,255,255)" fill-opacity="0.0078125"/>
  <rect x="0" y="19" width="21" height="1" fill="rgb(255,255,255)" fill-opacity="0.0078125"/>
  <rect x="0" y="20" width="21" height="1" fill="rgb(255,255,255)" fill-opacity="0.0078125"/>
</svg>