<svg xmlns="http://www.w3.org/2000/svg" shape-rendering="crispEdges" width="21" height="21" viewBox="0 0 21 21">
  <rect x="0" y="0" width="1" height="21" fill="rgb(255,255,255)" fill-opacity="0.0078125"/>
  <rect x="1" y="0" width="1" height="21" fill="rgb(255,255,255)" fill-opacity="0.0078125"/>
  <rect x="2" y="0" width="1" height="21" fill="rgb(255,255,255)" fill-opacity="0.0078125"/>
  <rect x="3" y="0" width="1" height="3" fill="rgb(255,255,255)" fill-opacity="0.0078125"/>
  <rect x="3" y="3" width="1" height="1" fill="rgb(4,55,132)" fill-opacity="0.9140625"/>
  <rect x="3" y="4" width="1" height="2" fill="rgb(0,51,128)"/>
  <rect x="3" y="6" width="1" height="1" fill="rgb(4,55,132)" fill-opacity="0.9140625"/>
  <rect x="3" y="7" width="1" height="8" fill="rgb(255,0,0)" fill-opacity="0.015625"/>
  <rect x="3" y="15" width="1" height="1" fill="rgb(4,55,132)" fill-opacity="0.9140625"/>
  <rect x="3" y="16" width="1" height="2" fill="rgb(0,51,128)"/>
  <rect x="3" y="18" width="1" height="1" fill="rgb(4,55,132)" fill-opacity="0.9140625"/>
  <rect x="3" y="19" width="1" height="2" fill="rgb(255,255,255)" fill-opacity="0.0078125"/>
  <rect x="4" y="0" width="1" height="3" fill="rgb(255,255,255)" fill-opacity="0.0078125"/>
  <rect x="4" y="3" width="1" height="1" fill="rgb(0,51,128)"/>
  <rect x="4" y="4" width="1" height="1" fill="rgb(204,225,255)"/>
  <rect x="4" y="5" width="1" height="1" fill="rgb(192,217,255)"/>
  <rect x="4" y="6" width="1" height="1" fill="rgb(6,56,133)"/>
  <rect x="4" y="7" width="1" height="8" fill="rgb(35,81,153)" fill-opacity="0.65625"/>
  <rect x="4" y="15" width="1" height="1" fill="rgb(4,55,131)"/>
  <rect x="4" y="16" width="1" height="1" fill="rgb(204,225,255)"/>
  <rect x="4" y="17" width="1" height="1" fill="rgb(192,217,255)"/>
  <rect x="4" y="18" width="1" height="1" fill="rgb(0,51,128)"/>
  <rect x="4" y="19" width="1" height="2" fill="rgb(255,255,255)" fill-opacity="0.0078125"/>
  <rect x="5" y="0" width="1" height="3" fill="rgb(255,255,255)" fill-opacity="0.0078125"/>
  <rect x="5" y="3" width="1" height="1" fill="rgb(0,51,128)"/>
  <rect x="5" y="4" width="1" height="1" fill="rgb(192,217,255)"/>
  <rect x="5" y="5" width="1" height="1" fill="rgb(128,179,255)"/>
  <rect x="5" y="6" width="1" height="1" fill="rgb(68,112,179)"/>
  <rect x="5" y="7" width="1" height="8" fill="rgb(170,203,254)" fill-opacity="0.7109375"/>
  <rect x="5" y="15" width="1" height="1" fill="rgb(68,112,179)"/>
  <rect x="5" y="16" width="1" height="1" fill="rgb(192,217,255)"/>
  <rect x="5" y="17" width="1" height="1" fill="rgb(128,179,255)"/>
  <rect x="5" y="18" width="1" height="1" fill="rgb(0,51,128)"/>
  <rect x="5" y="19" width="1" height="2" fill="rgb(255,255,255)" fill-opacity="0.0078125"/>
  <rect x="6" y="0" width="1" height="3" fill="rgb(255,255,255)" fill-opacity="0.0078125"/>
  <rect x="6" y="3" width="1" height="1" fill="rgb(4,55,132)" fill-opacity="0.9140625"/>
  <rect x="6" y="4" width="1" height="1" fill="rgb(4,55,131)"/>
  <rect x="6" y="5" width="1" height="1" fill="rgb(68,112,179)"/>
  <rect x="6" y="6" width="1" height="1" fill="rgb(14,63,139)" fill-opacity="0.9375"/>
  <rect x="6" y="7" width="1" height="8" fill="rgb(35,81,153)" fill-opacity="0.65625"/>
  <rect x="6" y="15" width="1" height="1" fill="rgb(14,63,138)" fill-opacity="0.9375"/>
  <rect x="6" y="16" width="1" height="1" fill="rgb(68,112,179)"/>
  <rect x="6" y="17" width="1" height="1" fill="rgb(6,56,133)"/>
  <rect x="6" y="18" width="1" height="1" fill="rgb(4,55,132)" fill-opacity="0.9140625"/>
  <rect x="6" y="19" width="1" height="2" fill="rgb(255,255,255)" fill-opacity="0.0078125"/>
  <rect x="7" y="0" width="1" height="3" fill="rgb(255,255,255)" fill-opacity="0.0078125"/>
  <rect x="7" y="3" width="1" height="1" fill="rgb(255,0,0)" fill-opacity="0.015625"/>
  <rect x="7" y="4" width="1" height="1" fill="rgb(35,81,153)" fill-opacity="0.65625"/>
  <rect x="7" y="5" width="1" height="1" fill="rgb(170,203,254)" fill-opacity="0.7109375"/>
  <rect x="7" y="6" width="1" height="1" fill="rgb(35,81,153)" fill-opacity="0.65625"/>
  <rect x="7" y="7" width="1" height="8" fill="rgb(255,0,0)" fill-opacity="0.015625"/>
  <rect x="7" y="15" width="1" height="1" fill="rgb(35,81,153)" fill-opacity="0.65625"/>
  <rect x="7" y="16" width="1" height="1" fill="rgb(170,203,254)" fill-opacity="0.7109375"/>
  <rect x="7" y="17" width="1" height="1" fill="rgb(35,81,153)" fill-opacity="0.65625"/>
  <rect x="7" y="18" width="1" height="1" fill="rgb(255,0,0)" fill-opacity="0.015625"/>
  <rect x="7" y="19" width="1" height="2" fill="rgb(255,255,255)" fill-opacity="0.0078125"/>
  <rect x="8" y="0" width="1" height="3" fill="rgb(255,255,255)" fill-opacity="0.0078125"/>
  <rect x="8" y="3" width="1" height="1" fill="rgb(255,0,0)" fill-opacity="0.015625"/>
  <rect x="8" y="4" width="1" height="1" fill="rgb(35,81,153)" fill-opacity="0.65625"/>
  <rect x="8" y="5" width="1" height="1" fill="rgb(170,203,254)" fill-opacity="0.7109375"/>
  <rect x="8" y="6" width="1" height="1" fill="rgb(35,81,153)" fill-opacity="0.65625"/>
  <rect x="8" y="7" width="1" height="8" fill="rgb(255,0,0)" fill-opacity="0.015625"/>
  <rect x="8" y="15" width="1" height="1" fill="rgb(35,81,153)" fill-opacity="0.65625"/>
  <rect x="8" y="16" width="1" height="1" fill="rgb(170,203,254)" fill-opacity="0.7109375"/>
  <rect x="8" y="17" width="1" height="1" fill="rgb(35,81,153)" fill-opacity="0.65625"/>
  <rect x="8" y="18" width="1" height="1" fill="rgb(255,0,0)" fill-opacity="0.015625"/>
  <rect x="8" y="19" width="1" height="2" fill="rgb(255,255,255)" fill-opacity="0.0078125"/>
  <rect x="9" y="0" width="1" height="3" fill="rgb(255,255,255)" fill-opacity="0.0078125"/>
  <rect x="9" y="3" width="1" height="1" fill="rgb(255,0,0)" fill-opacity="0.015625"/>
  <rect x="9" y="4" width="1" height="1" fill="rgb(35,81,153)" fill-opacity="0.65625"/>
  <rect x="9" y="5" width="1" height="1" fill="rgb(170,203,254)" fill-opacity="0.7109375"/>
  <rect x="9" y="6" width="1" height="1" fill="rgb(35,81,153)" fill-opacity="0.65625"/>
  <rect x="9" y="7" width="1" height="1" fill="rgb(15,0,0)" fill-opacity="0.1328125"/>
  <rect x="9" y="8" width="1" height="1" fill="rgb(14,12,12)" fill-opacity="0.65625"/>
  <rect x="9" y="9" width="1" height="1" fill="rgb(34,34,34)" fill-opacity="0.8671875"/>
  <rect x="9" y="10" width="1" height="2" fill="rgb(59,59,59)" fill-opacity="0.9765625"/>
  <rect x="9" y="12" width="1" height="1" fill="rgb(32,32,32)" fill-opacity="0.8671875"/>
  <rect x="9" y="13" width="1" height="1" fill="rgb(14,12,12)" fill-opacity="0.6640625"/>
  <rect x="9" y="14" width="1" height="1" fill="rgb(15,0,0)" fill-opacity="0.1328125"/>
  <rect x="9" y="15" width="1" height="1" fill="rgb(35,81,153)" fill-opacity="0.65625"/>
  <rect x="9" y="16" width="1" height="1" fill="rgb(170,203,254)" fill-opacity="0.7109375"/>
  <rect x="9" y="17" width="1" height="1" fill="rgb(35,81,153)" fill-opacity="0.65625"/>
  <rect x="9" y="18" width="1" height="1" fill="rgb(255,0,0)" fill-opacity="0.015625"/>
  <rect x="9" y="19" width="1" height="2" fill="rgb(255,255,255)" fill-opacity="0.0078125"/>
  <rect x="10" y="0" width="1" height="3" fill="rgb(255,255,255)" fill-opacity="0.0078125"/>
  <rect x="10" y="3" width="1" height="1" fill="rgb(255,0,0)" fill-opacity="0.015625"/>
  <rect x="10" y="4" width="1" height="1" fill="rgb(35,81,153)" fill-opacity="0.65625"/>
  <rect x="10" y="5" width="1" height="1" fill="rgb(170,203,254)" fill-opacity="0.7109375"/>
  <rect x="10" y="6" width="1" height="1" fill="rgb(18,38,70)" fill-opacity="0.8125"/>
  <rect x="10" y="7" width="1" height="1" fill="rgb(62,62,62)" fill-opacity="0.984375"/>
  <rect x="10" y="8" width="1" height="1" fill="rgb(193,193,193)"/>
  <rect x="10" y="9" width="1" height="1" fill="rgb(235,235,235)"/>
  <rect x="10" y="10" width="1" height="2" fill="rgb(247,247,247)"/>
  <rect x="10" y="12" width="1" height="1" fill="rgb(235,235,235)"/>
  <rect x="10" y="13" width="1" height="1" fill="rgb(189,189,189)"/>
  <rect x="10" y="14" width="1" height="1" fill="rgb(56,56,56)" fill-opacity="0.984375"/>
  <rect x="10" y="15" width="1" height="1" fill="rgb(18,38,70)" fill-opacity="0.8125"/>
  <rect x="10" y="16" width="1" height="1" fill="rgb(170,203,254)" fill-opacity="0.7109375"/>
  <rect x="10" y="17" width="1" height="1" fill="rgb(35,81,153)" fill-opacity="0.65625"/>
  <rect x="10" y="18" width="1" height="1" fill="rgb(255,0,0)" fill-opacity="0.015625"/>
  <rect x="10" y="19" width="1" height="2" fill="rgb(255,255,255)" fill-opacity="0.0078125"/>
  <rect x="11" y="0" width="1" height="3" fill="rgb(255,255,255)" fill-opacity="0.0078125"/>
  <rect x="11" y="3" width="1" height="1" fill="rgb(255,0,0)" fill-opacity="0.015625"/>
  <rect x="11" y="4" width="1" height="1" fill="rgb(35,81,153)" fill-opacity="0.65625"/>
  <rect x="11" y="5" width="1" height="1" fill="rgb(87,104,129)" fill-opacity="0.828125"/>
  <rect x="11" y="6" width="1" height="1" fill="rgb(107,107,107)"/>
  <rect x="11" y="7" width="1" height="1" fill="rgb(239,239,239)"/>
  <rect x="11" y="8" width="1" height="1" fill="rgb(230,230,230)"/>
  <rect x="11" y="9" width="1" height="1" fill="rgb(171,171,171)"/>
  <rect x="11" y="10" width="1" height="1" fill="rgb(144,144,144)"/>
  <rect x="11" y="11" width="1" height="1" fill="rgb(149,149,149)"/>
  <rect x="11" y="12" width="1" height="1" fill="rgb(181,181,181)"/>
  <rect x="11" y="13" width="1" height="1" fill="rgb(233,233,233)"/>
  <rect x="11" y="14" width="1" height="1" fill="rgb(236,236,236)"/>
  <rect x="11" y="15" width="1" height="1" fill="rgb(95,95,95)"/>
  <rect x="11" y="16" width="1" height="1" fill="rgb(88,104,131)" fill-opacity="0.828125"/>
  <rect x="11" y="17" width="1" height="1" fill="rgb(35,81,153)" fill-opacity="0.65625"/>
  <rect x="11" y="18" width="1" height="1" fill="rgb(255,0,0)" fill-opacity="0.015625"/>
  <rect x="11" y="19" width="1" height="2" fill="rgb(255,255,255)" fill-opacity="0.0078125"/>
  <rect x="12" y="0" width="1" height="3" fill="rgb(255,255,255)" fill-opacity="0.0078125"/>
  <rect x="12" y="3" width="1" height="1" fill="rgb(255,0,0)" fill-opacity="0.015625"/>
  <rect x="12" y="4" width="1" height="1" fill="rgb(31,72,135)" fill-opacity="0.6875"/>
  <rect x="12" y="5" width="1" height="1" fill="rgb(58,58,59)" fill-opacity="0.9921875"/>
  <rect x="12" y="6" width="1" height="1" fill="rgb(239,239,239)"/>
  <rect x="12" y="7" width="1" height="1" fill="rgb(201,201,201)"/>
  <rect x="12" y="8" width="1" height="1" fill="rgb(102,102,102)" fill-opacity="0.9453125"/>
  <rect x="12" y="9" width="1" height="1" fill="rgb(149,149,149)" fill-opacity="0.734375"/>
  <rect x="12" y="10" width="1" height="1" fill="rgb(192,191,191)" fill-opacity="0.640625"/>
  <rect x="12" y="11" width="1" height="1" fill="rgb(199,199,199)" fill-opacity="0.640625"/>
  <rect x="12" y="12" width="1" height="1" fill="rgb(170,170,170)" fill-opacity="0.734375"/>
  <rect x="12" y="13" width="1" height="1" fill="rgb(133,133,133)" fill-opacity="0.9453125"/>
  <rect x="12" y="14" width="1" height="1" fill="rgb(216,216,216)"/>
  <rect x="12" y="15" width="1" height="1" fill="rgb(234,234,234)"/>
  <rect x="12" y="16" width="1" height="1" fill="rgb(50,51,52)" fill-opacity="0.9921875"/>
  <rect x="12" y="17" width="1" height="1" fill="rgb(31,72,136)" fill-opacity="0.6875"/>
  <rect x="12" y="18" width="1" height="1" fill="rgb(255,0,0)" fill-opacity="0.015625"/>
  <rect x="12" y="19" width="1" height="2" fill="rgb(255,255,255)" fill-opacity="0.0078125"/>
  <rect x="13" y="0" width="1" height="3" fill="rgb(255,255,255)" fill-opacity="0.0078125"/>
  <rect x="13" y="3" width="1" height="1" fill="rgb(255,0,0)" fill-opacity="0.015625"/>
  <rect x="13" y="4" width="1" height="1" fill="rgb(21,33,54)" fill-opacity="0.8671875"/>
  <rect x="13" y="5" width="1" height="1" fill="rgb(192,192,192)"/>
  <rect x="13" y="6" width="1" height="1" fill="rgb(231,231,231)"/>
  <rect x="13" y="7" width="1" height="1" fill="rgb(106,106,106)" fill-opacity="0.9609375"/>
  <rect x="13" y="8" width="1" height="1" fill="rgb(192,190,190)" fill-opacity="0.625"/>
  <rect x="13" y="9" width="1" height="1" fill="rgb(209,207,207)" fill-opacity="0.609375"/>
  <rect x="13" y="10" width="1" height="1" fill="rgb(217,215,215)" fill-opacity="0.609375"/>
  <rect x="13" y="11" width="1" height="1" fill="rgb(224,222,222)" fill-opacity="0.609375"/>
  <rect x="13" y="12" width="1" height="1" fill="rgb(230,230,230)" fill-opacity="0.609375"/>
  <rect x="13" y="13" width="1" height="1" fill="rgb(229,228,228)" fill-opacity="0.625"/>
  <rect x="13" y="14" width="1" height="1" fill="rgb(149,149,149)" fill-opacity="0.953125"/>
  <rect x="13" y="15" width="1" height="1" fill="rgb(238,238,238)"/>
  <rect x="13" y="16" width="1" height="1" fill="rgb(173,173,173)"/>
  <rect x="13" y="17" width="1" height="1" fill="rgb(21,33,54)" fill-opacity="0.8671875"/>
  <rect x="13" y="18" width="1" height="1" fill="rgb(255,0,0)" fill-opacity="0.015625"/>
  <rect x="13" y="19" width="1" height="2" fill="rgb(255,255,255)" fill-opacity="0.0078125"/>
  <rect x="14" y="0" width="1" height="3" fill="rgb(255,255,255)" fill-opacity="0.0078125"/>
  <rect x="14" y="3" width="1" height="1" fill="rgb(255,0,0)" fill-opacity="0.015625"/>
  <rect x="14" y="4" width="1" height="1" fill="rgb(28,33,42)" fill-opacity="0.9375"/>
  <rect x="14" y="5" width="1" height="1" fill="rgb(237,237,237)"/>
  <rect x="14" y="6" width="1" height="1" fill="rgb(177,177,177)"/>
  <rect x="14" y="7" width="1" height="1" fill="rgb(145,145,145)" fill-opacity="0.75"/>
  <rect x="14" y="8" width="1" height="1" fill="rgb(209,207,207)" fill-opacity="0.609375"/>
  <rect x="14" y="9" width="1" height="1" fill="rgb(215,215,215)" fill-opacity="0.609375"/>
  <rect x="14" y="10" width="1" height="1" fill="rgb(222,220,220)" fill-opacity="0.609375"/>
  <rect x="14" y="11" width="1" height="1" fill="rgb(229,227,227)" fill-opacity="0.609375"/>
  <rect x="14" y="12" width="1" height="1" fill="rgb(237,235,235)" fill-opacity="0.609375"/>
  <rect x="14" y="13" width="1" height="1" fill="rgb(243,242,242)" fill-opacity="0.609375"/>
  <rect x="14" y="14" width="1" height="1" fill="rgb(193,193,193)" fill-opacity="0.75"/>
  <rect x="14" y="15" width="1" height="1" fill="rgb(208,208,208)"/>
  <rect x="14" y="16" width="1" height="1" fill="rgb(224,224,224)"/>
  <rect x="14" y="17" width="1" height="1" fill="rgb(28,33,42)" fill-opacity="0.9375"/>
  <rect x="14" y="18" width="1" height="1" fill="rgb(255,0,0)" fill-opacity="0.015625"/>
  <rect x="14" y="19" width="1" height="2" fill="rgb(255,255,255)" fill-opacity="0.0078125"/>
  <rect x="15" y="0" width="1" height="3" fill="rgb(255,255,255)" fill-opacity="0.0078125"/>
  <rect x="15" y="3" width="1" height="1" fill="rgb(29,26,26)" fill-opacity="0.28125"/>
  <rect x="15" y="4" width="1" height="1" fill="rgb(38,38,38)"/>
  <rect x="15" y="5" width="1" height="1" fill="rgb(201,201,201)"/>
  <rect x="15" y="6" width="1" height="1" fill="rgb(128,128,128)"/>
  <rect x="15" y="7" width="1" height="1" fill="rgb(180,180,180)" fill-opacity="0.671875"/>
  <rect x="15" y="8" width="1" height="1" fill="rgb(214,212,212)" fill-opacity="0.609375"/>
  <rect x="15" y="9" width="1" height="1" fill="rgb(220,220,220)" fill-opacity="0.609375"/>
  <rect x="15" y="10" width="1" height="1" fill="rgb(229,227,227)" fill-opacity="0.609375"/>
  <rect x="15" y="11" width="1" height="1" fill="rgb(235,235,235)" fill-opacity="0.609375"/>
  <rect x="15" y="12" width="1" height="1" fill="rgb(243,242,242)" fill-opacity="0.609375"/>
  <rect x="15" y="13" width="1" height="1" fill="rgb(250,248,248)" fill-opacity="0.609375"/>
  <rect x="15" y="14" width="1" height="1" fill="rgb(227,225,225)" fill-opacity="0.671875"/>
  <rect x="15" y="15" width="1" height="1" fill="rgb(164,164,164)"/>
  <rect x="15" y="16" width="1" height="1" fill="rgb(194,194,194)"/>
  <rect x="15" y="17" width="1" height="1" fill="rgb(33,34,34)"/>
  <rect x="15" y="18" width="1" height="1" fill="rgb(29,26,26)" fill-opacity="0.28125"/>
  <rect x="15" y="19" width="1" height="2" fill="rgb(255,255,255)" fill-opacity="0.0078125"/>
  <rect x="16" y="0" width="1" height="3" fill="rgb(255,255,255)" fill-opacity="0.0078125"/>
  <rect x="16" y="3" width="1" height="1" fill="rgb(26,26,26)" fill-opacity="0.8828125"/>
  <rect x="16" y="4" width="1" height="2" fill="rgb(255,255,255)"/>
  <rect x="16" y="6" width="1" height="1" fill="rgb(167,167,167)"/>
  <rect x="16" y="7" width="1" height="1" fill="rgb(252,250,250)" fill-opacity="0.6171875"/>
  <rect x="16" y="8" width="1" height="1" fill="rgb(253,252,252)" fill-opacity="0.609375"/>
  <rect x="16" y="9" width="1" height="3" fill="rgb(252,250,250)" fill-opacity="0.609375"/>
  <rect x="16" y="12" width="1" height="1" fill="rgb(253,252,252)" fill-opacity="0.609375"/>
  <rect x="16" y="13" width="1" height="1" fill="rgb(255,253,253)" fill-opacity="0.609375"/>
  <rect x="16" y="14" width="1" height="1" fill="rgb(252,250,250)" fill-opacity="0.6171875"/>
  <rect x="16" y="15" width="1" height="1" fill="rgb(179,179,179)"/>
  <rect x="16" y="16" width="1" height="1" fill="rgb(245,245,245)"/>
  <rect x="16" y="17" width="1" height="1" fill="rgb(239,239,239)"/>
  <rect x="16" y="18" width="1" height="1" fill="rgb(26,26,26)" fill-opacity="0.8828125"/>
  <rect x="16" y="19" width="1" height="2" fill="rgb(255,255,255)" fill-opacity="0.0078125"/>
  <rect x="17" y="0" width="1" height="3" fill="rgb(255,255,255)" fill-opacity="0.0078125"/>
  <rect x="17" y="3" width="1" height="1" fill="rgb(26,26,26)" fill-opacity="0.8828125"/>
  <rect x="17" y="4" width="1" height="2" fill="rgb(255,255,255)"/>
  <rect x="17" y="6" width="1" height="1" fill="rgb(34,34,34)" fill-opacity="0.96875"/>
  <rect x="17" y="7" width="1" height="8" fill="rgb(51,49,49)" fill-opacity="0.5546875"/>
  <rect x="17" y="15" width="1" height="1" fill="rgb(34,34,34)" fill-opacity="0.96875"/>
  <rect x="17" y="16" width="1" height="1" fill="rgb(239,239,239)"/>
  <rect x="17" y="17" width="1" height="1" fill="rgb(204,204,204)"/>
  <rect x="17" y="18" width="1" height="1" fill="rgb(26,26,26)" fill-opacity="0.8828125"/>
  <rect x="17" y="19" width="1" height="2" fill="rgb(255,255,255)" fill-opacity="0.0078125"/>
  <rect x="18" y="0" width="1" height="3" fill="rgb(255,255,255)" fill-opacity="0.0078125"/>
  <rect x="18" y="3" width="1" height="1" fill="rgb(29,26,26)" fill-opacity="0.28125"/>
  <rect x="18" y="4" width="1" height="2" fill="rgb(26,26,26)" fill-opacity="0.8828125"/>
  <rect x="18" y="6" width="1" height="1" fill="rgb(29,26,26)" fill-opacity="0.28125"/>
  <rect x="18" y="7" width="1" height="8" fill="rgb(255,0,0)" fill-opacity="0.015625"/>
  <rect x="18" y="15" width="1" height="1" fill="rgb(29,26,26)" fill-opacity="0.28125"/>
  <rect x="18" y="16" width="1" height="2" fill="rgb(26,26,26)" fill-opacity="0.8828125"/>
  <rect x="18" y="18" width="1" height="1" fill="rgb(29,26,26)" fill-opacity="0.28125"/>
  <rect x="18" y="19" width="1" height="2" fill="rgb(255,255,255)" fill-opacity="0.0078125"/>
  <rect x="19" y="0" width="1" height="21" fill="rgb(255,255,255)" fill-opacity="0.0078125"/>
  <rect x="20" y="0" width="1" height="21" fill="rgb(255,255,255)" fill-opacity="0.0078125"/>
</svg>