<svg xmlns="http://www.w3.org/2000/svg" shape-rendering="crispEdges" width="21" height="21" viewBox="0 0 21 21">
  <rect x="0" y="0" width="21" height="1" fill="rgb(255,255,255)" fill-opacity="0.0078125"/>
  <rect x="0" y="1" width="21" height="1" fill="rgb(255,255,255)" fill-opacity="0.0078125"/>
  <rect x="0" y="2" width="21" height="1" fill="rgb(255,255,255)" fill-opacity="0.0078125"/>
  <rect x="0" y="3" width="21" height="1" fill="rgb(255,255,255)" fill-opacity="0.0078125"/>
  <rect x="0" y="4" width="4" height="1" fill="rgb(255,255,255)" fill-opacity="0.0078125"/>
  <rect x="4" y="4" width="1" height="1" fill="rgb(26,53,94)" fill-opacity="0.7265625"/>
  <rect x="5" y="4" width="1" height="1" fill="rgb(31,59,100)" fill-opacity="0.8515625"/>
  <rect x="6" y="4" width="1" height="1" fill="rgb(32,60,102)" fill-opacity="0.8515625"/>
  <rect x="7" y="4" width="1" height="1" fill="rgb(34,61,102)" fill-opacity="0.8515625"/>
  <rect x="8" y="4" width="1" height="1" fill="rgb(37,64,103)" fill-opacity="0.8515625"/>
  <rect x="9" y="4" width="1" height="1" fill="rgb(39,65,104)" fill-opacity="0.8515625"/>
  <rect x="10" y="4" width="1" height="1" fill="rgb(41,66,104)" fill-opacity="0.8515625"/>
  <rect x="11" y="4" width="1" height="1" fill="rgb(37,61,97)" fill-opacity="0.7265625"/>
  <rect x="12" y="4" width="9" height="1" fill="rgb(255,255,255)" fill-opacity="0.0078125"/>
  <rect x="0" y="5" width="4" height="1" fill="rgb(255,255,255)" fill-opacity="0.0078125"/>
  <rect x="4" y="5" width="1" height="1" fill="rgb(31,59,100)" fill-opacity="0.8515625"/>
  <rect x="5" y="5" width="1" height="1" fill="rgb(188,206,233)"/>
  <rect x="6" y="5" width="1" height="1" fill="rgb(206,220,239)"/>
  <rect x="7" y="5" width="1" height="1" fill="rgb(210,222,240)"/>
  <rect x="8" y="5" width="1" height="1" fill="rgb(213,225,241)"/>
  <rect x="9" y="5" width="1" height="1" fill="rgb(217,228,243)"/>
  <rect x="10" y="5" width="1" height="1" fill="rgb(208,221,240)"/>
  <rect x="11" y="5" width="1" height="1" fill="rgb(46,70,105)" fill-opacity="0.8515625"/>
  <rect x="12" y="5" width="9" height="1" fill="rgb(255,255,255)" fill-opacity="0.0078125"/>
  <rect x="0" y="6" width="4" height="1" fill="rgb(255,255,255)" fill-opacity="0.0078125"/>
  <rect x="4" y="6" width="1" height="1" fill="rgb(33,60,102)" fill-opacity="0.8515625"/>
  <rect x="5" y="6" width="1" height="1" fill="rgb(207,220,239)"/>
  <rect x="6" y="6" width="1" height="1" fill="rgb(108,148,207)"/>
  <rect x="7" y="6" width="1" height="1" fill="rgb(119,157,211)"/>
  <rect x="8" y="6" width="1" height="1" fill="rgb(131,166,215)"/>
  <rect x="9" y="6" width="1" height="1" fill="rgb(143,174,219)"/>
  <rect x="10" y="6" width="1" height="1" fill="rgb(155,183,223)"/>
  <rect x="11" y="6" width="1" height="1" fill="rgb(48,72,106)" fill-opacity="0.8515625"/>
  <rect x="12" y="6" width="9" height="1" fill="rgb(255,255,255)" fill-opacity="0.0078125"/>
  <rect x="0" y="7" width="4" height="1" fill="rgb(255,255,255)" fill-opacity="0.0078125"/>
  <rect x="4" y="7" width="1" height="1" fill="rgb(35,63,103)" fill-opacity="0.8515625"/>
  <rect x="5" y="7" width="1" height="1" fill="rgb(211,223,241)"/>
  <rect x="6" y="7" width="1" height="1" fill="rgb(122,159,212)"/>
  <rect x="7" y="7" width="1" height="1" fill="rgb(57,82,122)" fill-opacity="0.9140625"/>
  <rect x="8" y="7" width="1" height="1" fill="rgb(45,68,105)" fill-opacity="0.8515625"/>
  <rect x="9" y="7" width="1" height="1" fill="rgb(46,71,106)" fill-opacity="0.8515625"/>
  <rect x="10" y="7" width="1" height="1" fill="rgb(48,72,106)" fill-opacity="0.8515625"/>
  <rect x="11" y="7" width="1" height="1" fill="rgb(43,65,100)" fill-opacity="0.7265625"/>
  <rect x="12" y="7" width="9" height="1" fill="rgb(255,255,255)" fill-opacity="0.0078125"/>
  <rect x="0" y="8" width="4" height="1" fill="rgb(255,255,255)" fill-opacity="0.0078125"/>
  <rect x="4" y="8" width="1" height="1" fill="rgb(38,65,103)" fill-opacity="0.8515625"/>
  <rect x="5" y="8" width="1" height="1" fill="rgb(215,226,242)"/>
  <rect x="6" y="8" width="1" height="1" fill="rgb(136,169,217)"/>
  <rect x="7" y="8" width="1" height="1" fill="rgb(45,70,105)" fill-opacity="0.8515625"/>
  <rect x="8" y="8" width="13" height="1" fill="rgb(255,255,255)" fill-opacity="0.0078125"/>
  <rect x="0" y="9" width="4" height="1" fill="rgb(255,255,255)" fill-opacity="0.0078125"/>
  <rect x="4" y="9" width="1" height="1" fill="rgb(41,66,104)" fill-opacity="0.8515625"/>
  <rect x="5" y="9" width="1" height="1" fill="rgb(220,229,244)"/>
  <rect x="6" y="9" width="1" height="1" fill="rgb(150,179,221)"/>
  <rect x="7" y="9" width="1" height="1" fill="rgb(47,71,106)" fill-opacity="0.8515625"/>
  <rect x="8" y="9" width="1" height="1" fill="rgb(255,255,255)" fill-opacity="0.0078125"/>
  <rect x="9" y="9" width="1" height="1" fill="rgb(23,48,85)" fill-opacity="0.859375"/>
  <rect x="10" y="9" width="2" height="1" fill="rgb(22,49,86)" fill-opacity="0.9453125"/>
  <rect x="12" y="9" width="1" height="1" fill="rgb(23,50,86)" fill-opacity="0.9453125"/>
  <rect x="13" y="9" width="1" height="1" fill="rgb(24,50,87)" fill-opacity="0.9453125"/>
  <rect x="14" y="9" width="1" height="1" fill="rgb(26,51,87)" fill-opacity="0.9453125"/>
  <rect x="15" y="9" width="1" height="1" fill="rgb(27,51,87)" fill-opacity="0.9453125"/>
  <rect x="16" y="9" width="1" height="1" fill="rgb(28,51,87)" fill-opacity="0.8359375"/>
  <rect x="17" y="9" width="4" height="1" fill="rgb(255,255,255)" fill-opacity="0.0078125"/>
  <rect x="0" y="10" width="4" height="1" fill="rgb(255,255,255)" fill-opacity="0.0078125"/>
  <rect x="4" y="10" width="1" height="1" fill="rgb(44,68,105)" fill-opacity="0.8515625"/>
  <rect x="5" y="10" width="1" height="1" fill="rgb(213,225,241)"/>
  <rect x="6" y="10" width="1" height="1" fill="rgb(164,189,226)"/>
  <rect x="7" y="10" width="1" height="1" fill="rgb(50,73,107)" fill-opacity="0.8515625"/>
  <rect x="8" y="10" width="1" height="1" fill="rgb(255,255,255)" fill-opacity="0.0078125"/>
  <rect x="9" y="10" width="1" height="1" fill="rgb(23,47,85)" fill-opacity="0.9609375"/>
  <rect x="10" y="10" width="1" height="1" fill="rgb(172,195,228)"/>
  <rect x="11" y="10" width="1" height="1" fill="rgb(194,211,235)"/>
  <rect x="12" y="10" width="1" height="1" fill="rgb(199,214,237)"/>
  <rect x="13" y="10" width="1" height="1" fill="rgb(203,217,238)"/>
  <rect x="14" y="10" width="1" height="1" fill="rgb(188,206,233)"/>
  <rect x="15" y="10" width="1" height="1" fill="rgb(167,191,227)"/>
  <rect x="16" y="10" width="1" height="1" fill="rgb(28,53,88)" fill-opacity="0.9453125"/>
  <rect x="17" y="10" width="4" height="1" fill="rgb(255,255,255)" fill-opacity="0.0078125"/>
  <rect x="0" y="11" width="4" height="1" fill="rgb(255,255,255)" fill-opacity="0.0078125"/>
  <rect x="4" y="11" width="1" height="1" fill="rgb(40,62,98)" fill-opacity="0.7265625"/>
  <rect x="5" y="11" width="1" height="1" fill="rgb(48,72,106)" fill-opacity="0.8515625"/>
  <rect x="6" y="11" width="1" height="1" fill="rgb(51,73,107)" fill-opacity="0.8515625"/>
  <rect x="7" y="11" width="1" height="1" fill="rgb(44,65,100)" fill-opacity="0.7265625"/>
  <rect x="8" y="11" width="1" height="1" fill="rgb(255,255,255)" fill-opacity="0.0078125"/>
  <rect x="9" y="11" width="1" height="1" fill="rgb(23,48,85)" fill-opacity="0.9609375"/>
  <rect x="10" y="11" width="1" height="1" fill="rgb(195,211,235)"/>
  <rect x="11" y="11" width="1" height="1" fill="rgb(67,119,193)"/>
  <rect x="12" y="11" width="1" height="1" fill="rgb(80,128,198)"/>
  <rect x="13" y="11" width="1" height="1" fill="rgb(94,138,202)"/>
  <rect x="14" y="11" width="1" height="1" fill="rgb(107,148,207)"/>
  <rect x="15" y="11" width="1" height="1" fill="rgb(168,192,226)"/>
  <rect x="16" y="11" width="1" height="1" fill="rgb(29,53,88)" fill-opacity="0.9453125"/>
  <rect x="17" y="11" width="4" height="1" fill="rgb(255,255,255)" fill-opacity="0.0078125"/>
  <rect x="0" y="12" width="9" height="1" fill="rgb(255,255,255)" fill-opacity="0.0078125"/>
  <rect x="9" y="12" width="1" height="1" fill="rgb(23,48,86)" fill-opacity="0.9609375"/>
  <rect x="10" y="12" width="1" height="1" fill="rgb(199,214,237)"/>
  <rect x="11" y="12" width="1" height="1" fill="rgb(81,129,198)"/>
  <rect x="12" y="12" width="1" height="1" fill="rgb(94,139,202)"/>
  <rect x="13" y="12" width="1" height="1" fill="rgb(108,149,207)"/>
  <rect x="14" y="12" width="1" height="1" fill="rgb(122,158,212)"/>
  <rect x="15" y="12" width="1" height="1" fill="rgb(163,188,225)"/>
  <rect x="16" y="12" width="1" height="1" fill="rgb(30,54,88)" fill-opacity="0.9453125"/>
  <rect x="17" y="12" width="4" height="1" fill="rgb(255,255,255)" fill-opacity="0.0078125"/>
  <rect x="0" y="13" width="9" height="1" fill="rgb(255,255,255)" fill-opacity="0.0078125"/>
  <rect x="9" y="13" width="1" height="1" fill="rgb(24,48,86)" fill-opacity="0.9609375"/>
  <rect x="10" y="13" width="1" height="1" fill="rgb(203,217,238)"/>
  <rect x="11" y="13" width="1" height="1" fill="rgb(95,139,203)"/>
  <rect x="12" y="13" width="1" height="1" fill="rgb(109,149,207)"/>
  <rect x="13" y="13" width="1" height="1" fill="rgb(122,159,212)"/>
  <rect x="14" y="13" width="1" height="1" fill="rgb(136,169,217)"/>
  <rect x="15" y="13" width="1" height="1" fill="rgb(161,188,225)"/>
  <rect x="16" y="13" width="1" height="1" fill="rgb(31,55,89)" fill-opacity="0.9453125"/>
  <rect x="17" y="13" width="4" height="1" fill="rgb(255,255,255)" fill-opacity="0.0078125"/>
  <rect x="0" y="14" width="9" height="1" fill="rgb(255,255,255)" fill-opacity="0.0078125"/>
  <rect x="9" y="14" width="1" height="1" fill="rgb(25,49,86)" fill-opacity="0.9609375"/>
  <rect x="10" y="14" width="1" height="1" fill="rgb(189,207,233)"/>
  <rect x="11" y="14" width="1" height="1" fill="rgb(110,150,208)"/>
  <rect x="12" y="14" width="1" height="1" fill="rgb(123,159,212)"/>
  <rect x="13" y="14" width="1" height="1" fill="rgb(137,169,217)"/>
  <rect x="14" y="14" width="1" height="1" fill="rgb(150,179,221)"/>
  <rect x="15" y="14" width="1" height="1" fill="rgb(164,189,226)"/>
  <rect x="16" y="14" width="1" height="1" fill="rgb(32,55,89)" fill-opacity="0.9453125"/>
  <rect x="17" y="14" width="4" height="1" fill="rgb(255,255,255)" fill-opacity="0.0078125"/>
  <rect x="0" y="15" width="9" height="1" fill="rgb(255,255,255)" fill-opacity="0.0078125"/>
  <rect x="9" y="15" width="1" height="1" fill="rgb(25,49,86)" fill-opacity="0.9609375"/>
  <rect x="10" y="15" width="1" height="1" fill="rgb(169,193,227)"/>
  <rect x="11" y="15" width="1" height="1" fill="rgb(170,193,227)"/>
  <rect x="12" y="15" width="1" height="1" fill="rgb(165,190,226)"/>
  <rect x="13" y="15" width="1" height="1" fill="rgb(163,189,226)"/>
  <rect x="14" y="15" width="1" height="1" fill="rgb(164,190,226)"/>
  <rect x="15" y="15" width="1" height="1" fill="rgb(178,199,231)"/>
  <rect x="16" y="15" width="1" height="1" fill="rgb(33,56,89)" fill-opacity="0.9453125"/>
  <rect x="17" y="15" width="4" height="1" fill="rgb(255,255,255)" fill-opacity="0.0078125"/>
  <rect x="0" y="16" width="9" height="1" fill="rgb(255,255,255)" fill-opacity="0.0078125"/>
  <rect x="9" y="16" width="1" height="1" fill="rgb(27,50,87)" fill-opacity="0.859375"/>
  <rect x="10" y="16" width="2" height="1" fill="rgb(29,53,88)" fill-opacity="0.9453125"/>
  <rect x="12" y="16" width="1" height="1" fill="rgb(30,54,88)" fill-opacity="0.9453125"/>
  <rect x="13" y="16" width="1" height="1" fill="rgb(31,55,89)" fill-opacity="0.9453125"/>
  <rect x="14" y="16" width="1" height="1" fill="rgb(32,55,89)" fill-opacity="0.9453125"/>
  <rect x="15" y="16" width="1" height="1" fill="rgb(33,56,89)" fill-opacity="0.9453125"/>
  <rect x="16" y="16" width="1" height="1" fill="rgb(34,56,90)" fill-opacity="0.8359375"/>
  <rect x="17" y="16" width="4" height="1" fill="rgb(255,255,255)" fill-opacity="0.0078125"/>
  <rect x="0" y="17" width="21" height="1" fill="rgb(255,255,255)" fill-opacity="0.0078125"/>
  <rect x="0" y="18" width="21" height="1" fill="rgb(255,255,255)" fill-opacity="0.0078125"/>
  <rect x="0" y="19" width="21" height="1" fill="rgb(255,255,255)" fill-opacity="0.0078125"/>
  <rect x="0" y="20" width="21" height="1" fill="rgb(255,255,255)" fill-opacity="0.0078125"/>
</svg>