<svg xmlns="http://www.w3.org/2000/svg" shape-rendering="crispEdges" width="21" height="21" viewBox="0 0 21 21">
  <rect x="0" y="0" width="21" height="1" fill="rgb(255,255,255)" fill-opacity="0.0078125"/>
  <rect x="0" y="1" width="21" height="1" fill="rgb(255,255,255)" fill-opacity="0.0078125"/>
  <rect x="0" y="2" width="21" height="1" fill="rgb(255,255,255)" fill-opacity="0.0078125"/>
  <rect x="0" y="3" width="21" height="1" fill="rgb(255,255,255)" fill-opacity="0.0078125"/>
  <rect x="0" y="4" width="21" height="1" fill="rgb(255,255,255)" fill-opacity="0.0078125"/>
  <rect x="0" y="5" width="21" height="1" fill="rgb(255,255,255)" fill-opacity="0.0078125"/>
  <rect x="0" y="6" width="6" height="1" fill="rgb(255,255,255)" fill-opacity="0.0078125"/>
  <rect x="6" y="6" width="1" height="1" fill="rgb(21,21,21)" fill-opacity="0.0546875"/>
  <rect x="7" y="6" width="1" height="1" fill="rgb(25,25,25)" fill-opacity="0.7109375"/>
  <rect x="8" y="6" width="7" height="1" fill="rgb(26,26,26)" fill-opacity="0.8203125"/>
  <rect x="15" y="6" width="1" height="1" fill="rgb(25,25,25)" fill-opacity="0.7109375"/>
  <rect x="16" y="6" width="1" height="1" fill="rgb(21,21,21)" fill-opacity="0.0546875"/>
  <rect x="17" y="6" width="4" height="1" fill="rgb(255,255,255)" fill-opacity="0.0078125"/>
  <rect x="0" y="7" width="6" height="1" fill="rgb(255,255,255)" fill-opacity="0.0078125"/>
  <rect x="6" y="7" width="1" height="1" fill="rgb(26,26,26)" fill-opacity="0.7109375"/>
  <rect x="7" y="7" width="1" height="1" fill="rgb(200,200,200)" fill-opacity="0.9609375"/>
  <rect x="8" y="7" width="1" height="1" fill="rgb(227,227,227)" fill-opacity="0.953125"/>
  <rect x="9" y="7" width="2" height="1" fill="rgb(227,227,227)" fill-opacity="0.9453125"/>
  <rect x="11" y="7" width="1" height="1" fill="rgb(228,228,228)" fill-opacity="0.9453125"/>
  <rect x="12" y="7" width="1" height="1" fill="rgb(230,230,230)" fill-opacity="0.9375"/>
  <rect x="13" y="7" width="1" height="1" fill="rgb(231,231,231)" fill-opacity="0.9375"/>
  <rect x="14" y="7" width="1" height="1" fill="rgb(233,233,233)" fill-opacity="0.9375"/>
  <rect x="15" y="7" width="1" height="1" fill="rgb(197,197,197)" fill-opacity="0.953125"/>
  <rect x="16" y="7" width="1" height="1" fill="rgb(26,26,26)" fill-opacity="0.6953125"/>
  <rect x="17" y="7" width="4" height="1" fill="rgb(255,255,255)" fill-opacity="0.0078125"/>
  <rect x="0" y="8" width="6" height="1" fill="rgb(255,255,255)" fill-opacity="0.0078125"/>
  <rect x="6" y="8" width="1" height="1" fill="rgb(26,26,26)" fill-opacity="0.7890625"/>
  <rect x="7" y="8" width="1" height="1" fill="rgb(224,224,224)" fill-opacity="0.9453125"/>
  <rect x="8" y="8" width="7" height="1" fill="rgb(77,77,77)"/>
  <rect x="15" y="8" width="1" height="1" fill="rgb(237,237,237)" fill-opacity="0.921875"/>
  <rect x="16" y="8" width="1" height="1" fill="rgb(26,26,26)" fill-opacity="0.7890625"/>
  <rect x="17" y="8" width="4" height="1" fill="rgb(255,255,255)" fill-opacity="0.0078125"/>
  <rect x="0" y="9" width="6" height="1" fill="rgb(255,255,255)" fill-opacity="0.0078125"/>
  <rect x="6" y="9" width="1" height="1" fill="rgb(26,26,26)" fill-opacity="0.7890625"/>
  <rect x="7" y="9" width="1" height="1" fill="rgb(223,223,223)" fill-opacity="0.9375"/>
  <rect x="8" y="9" width="1" height="1" fill="rgb(177,177,177)" fill-opacity="0.8515625"/>
  <rect x="9" y="9" width="1" height="1" fill="rgb(183,183,183)" fill-opacity="0.8515625"/>
  <rect x="10" y="9" width="1" height="1" fill="rgb(190,190,190)" fill-opacity="0.8515625"/>
  <rect x="11" y="9" width="1" height="1" fill="rgb(197,197,197)" fill-opacity="0.8515625"/>
  <rect x="12" y="9" width="1" height="1" fill="rgb(204,204,204)" fill-opacity="0.8515625"/>
  <rect x="13" y="9" width="1" height="1" fill="rgb(212,212,212)" fill-opacity="0.8515625"/>
  <rect x="14" y="9" width="1" height="1" fill="rgb(217,217,217)" fill-opacity="0.8515625"/>
  <rect x="15" y="9" width="1" height="1" fill="rgb(240,240,240)" fill-opacity="0.9140625"/>
  <rect x="16" y="9" width="1" height="1" fill="rgb(26,26,26)" fill-opacity="0.7890625"/>
  <rect x="17" y="9" width="4" height="1" fill="rgb(255,255,255)" fill-opacity="0.0078125"/>
  <rect x="0" y="10" width="6" height="1" fill="rgb(255,255,255)" fill-opacity="0.0078125"/>
  <rect x="6" y="10" width="1" height="1" fill="rgb(26,26,26)" fill-opacity="0.7890625"/>
  <rect x="7" y="10" width="1" height="1" fill="rgb(223,223,223)" fill-opacity="0.9296875"/>
  <rect x="8" y="10" width="1" height="1" fill="rgb(184,184,184)" fill-opacity="0.8515625"/>
  <rect x="9" y="10" width="1" height="1" fill="rgb(192,192,192)" fill-opacity="0.8515625"/>
  <rect x="10" y="10" width="1" height="1" fill="rgb(197,197,197)" fill-opacity="0.8515625"/>
  <rect x="11" y="10" width="1" height="1" fill="rgb(204,204,204)" fill-opacity="0.8515625"/>
  <rect x="12" y="10" width="1" height="1" fill="rgb(212,212,212)" fill-opacity="0.8515625"/>
  <rect x="13" y="10" width="1" height="1" fill="rgb(219,219,219)" fill-opacity="0.8515625"/>
  <rect x="14" y="10" width="1" height="1" fill="rgb(224,224,224)" fill-opacity="0.8515625"/>
  <rect x="15" y="10" width="1" height="1" fill="rgb(241,241,241)" fill-opacity="0.9140625"/>
  <rect x="16" y="10" width="1" height="1" fill="rgb(26,26,26)" fill-opacity="0.7890625"/>
  <rect x="17" y="10" width="4" height="1" fill="rgb(255,255,255)" fill-opacity="0.0078125"/>
  <rect x="0" y="11" width="6" height="1" fill="rgb(255,255,255)" fill-opacity="0.0078125"/>
  <rect x="6" y="11" width="1" height="1" fill="rgb(26,26,26)" fill-opacity="0.7890625"/>
  <rect x="7" y="11" width="1" height="1" fill="rgb(222,222,222)" fill-opacity="0.9296875"/>
  <rect x="8" y="11" width="1" height="1" fill="rgb(192,192,192)" fill-opacity="0.8515625"/>
  <rect x="9" y="11" width="1" height="1" fill="rgb(199,199,199)" fill-opacity="0.8515625"/>
  <rect x="10" y="11" width="1" height="1" fill="rgb(204,204,204)" fill-opacity="0.8515625"/>
  <rect x="11" y="11" width="1" height="1" fill="rgb(212,212,212)" fill-opacity="0.8515625"/>
  <rect x="12" y="11" width="1" height="1" fill="rgb(219,219,219)" fill-opacity="0.8515625"/>
  <rect x="13" y="11" width="1" height="1" fill="rgb(226,226,226)" fill-opacity="0.8515625"/>
  <rect x="14" y="11" width="1" height="1" fill="rgb(233,233,233)" fill-opacity="0.8515625"/>
  <rect x="15" y="11" width="1" height="1" fill="rgb(245,245,245)" fill-opacity="0.90625"/>
  <rect x="16" y="11" width="1" height="1" fill="rgb(26,26,26)" fill-opacity="0.7890625"/>
  <rect x="17" y="11" width="4" height="1" fill="rgb(255,255,255)" fill-opacity="0.0078125"/>
  <rect x="0" y="12" width="6" height="1" fill="rgb(255,255,255)" fill-opacity="0.0078125"/>
  <rect x="6" y="12" width="1" height="1" fill="rgb(26,26,26)" fill-opacity="0.7890625"/>
  <rect x="7" y="12" width="1" height="1" fill="rgb(222,222,222)" fill-opacity="0.921875"/>
  <rect x="8" y="12" width="1" height="1" fill="rgb(199,199,199)" fill-opacity="0.8515625"/>
  <rect x="9" y="12" width="1" height="1" fill="rgb(206,206,206)" fill-opacity="0.8515625"/>
  <rect x="10" y="12" width="1" height="1" fill="rgb(213,213,213)" fill-opacity="0.8515625"/>
  <rect x="11" y="12" width="1" height="1" fill="rgb(220,220,220)" fill-opacity="0.8515625"/>
  <rect x="12" y="12" width="1" height="1" fill="rgb(227,227,227)" fill-opacity="0.8515625"/>
  <rect x="13" y="12" width="1" height="1" fill="rgb(233,233,233)" fill-opacity="0.8515625"/>
  <rect x="14" y="12" width="1" height="1" fill="rgb(240,240,240)" fill-opacity="0.8515625"/>
  <rect x="15" y="12" width="1" height="1" fill="rgb(249,249,249)" fill-opacity="0.8984375"/>
  <rect x="16" y="12" width="1" height="1" fill="rgb(26,26,26)" fill-opacity="0.7890625"/>
  <rect x="17" y="12" width="4" height="1" fill="rgb(255,255,255)" fill-opacity="0.0078125"/>
  <rect x="0" y="13" width="6" height="1" fill="rgb(255,255,255)" fill-opacity="0.0078125"/>
  <rect x="6" y="13" width="1" height="1" fill="rgb(26,26,26)" fill-opacity="0.7890625"/>
  <rect x="7" y="13" width="1" height="1" fill="rgb(224,224,224)" fill-opacity="0.9140625"/>
  <rect x="8" y="13" width="1" height="1" fill="rgb(207,207,207)" fill-opacity="0.8515625"/>
  <rect x="9" y="13" width="1" height="1" fill="rgb(214,214,214)" fill-opacity="0.8515625"/>
  <rect x="10" y="13" width="1" height="1" fill="rgb(220,220,220)" fill-opacity="0.8515625"/>
  <rect x="11" y="13" width="1" height="1" fill="rgb(227,227,227)" fill-opacity="0.8515625"/>
  <rect x="12" y="13" width="1" height="1" fill="rgb(234,234,234)" fill-opacity="0.8515625"/>
  <rect x="13" y="13" width="1" height="1" fill="rgb(241,241,241)" fill-opacity="0.8515625"/>
  <rect x="14" y="13" width="1" height="1" fill="rgb(248,248,248)" fill-opacity="0.8515625"/>
  <rect x="15" y="13" width="1" height="1" fill="rgb(255,255,255)" fill-opacity="0.890625"/>
  <rect x="16" y="13" width="1" height="1" fill="rgb(26,26,26)" fill-opacity="0.7890625"/>
  <rect x="17" y="13" width="4" height="1" fill="rgb(255,255,255)" fill-opacity="0.0078125"/>
  <rect x="0" y="14" width="6" height="1" fill="rgb(255,255,255)" fill-opacity="0.0078125"/>
  <rect x="6" y="14" width="1" height="1" fill="rgb(26,26,26)" fill-opacity="0.7890625"/>
  <rect x="7" y="14" width="1" height="1" fill="rgb(227,227,227)" fill-opacity="0.90625"/>
  <rect x="8" y="14" width="1" height="1" fill="rgb(214,214,214)" fill-opacity="0.8515625"/>
  <rect x="9" y="14" width="1" height="1" fill="rgb(221,221,221)" fill-opacity="0.8515625"/>
  <rect x="10" y="14" width="1" height="1" fill="rgb(228,228,228)" fill-opacity="0.8515625"/>
  <rect x="11" y="14" width="1" height="1" fill="rgb(235,235,235)" fill-opacity="0.8515625"/>
  <rect x="12" y="14" width="1" height="1" fill="rgb(242,242,242)" fill-opacity="0.8515625"/>
  <rect x="13" y="14" width="1" height="1" fill="rgb(248,248,248)" fill-opacity="0.8515625"/>
  <rect x="14" y="14" width="1" height="1" fill="rgb(255,255,255)" fill-opacity="0.8515625"/>
  <rect x="15" y="14" width="1" height="1" fill="rgb(255,255,255)" fill-opacity="0.8828125"/>
  <rect x="16" y="14" width="1" height="1" fill="rgb(26,26,26)" fill-opacity="0.7890625"/>
  <rect x="17" y="14" width="4" height="1" fill="rgb(255,255,255)" fill-opacity="0.0078125"/>
  <rect x="0" y="15" width="6" height="1" fill="rgb(255,255,255)" fill-opacity="0.0078125"/>
  <rect x="6" y="15" width="1" height="1" fill="rgb(26,26,26)" fill-opacity="0.7109375"/>
  <rect x="7" y="15" width="1" height="1" fill="rgb(178,178,178)" fill-opacity="0.9296875"/>
  <rect x="8" y="15" width="1" height="1" fill="rgb(233,233,233)" fill-opacity="0.8984375"/>
  <rect x="9" y="15" width="1" height="1" fill="rgb(237,237,237)" fill-opacity="0.890625"/>
  <rect x="10" y="15" width="1" height="1" fill="rgb(242,242,242)" fill-opacity="0.890625"/>
  <rect x="11" y="15" width="1" height="1" fill="rgb(245,245,245)" fill-opacity="0.890625"/>
  <rect x="12" y="15" width="1" height="1" fill="rgb(250,250,250)" fill-opacity="0.8828125"/>
  <rect x="13" y="15" width="2" height="1" fill="rgb(255,255,255)" fill-opacity="0.8828125"/>
  <rect x="15" y="15" width="1" height="1" fill="rgb(184,184,184)" fill-opacity="0.9140625"/>
  <rect x="16" y="15" width="1" height="1" fill="rgb(26,26,26)" fill-opacity="0.6953125"/>
  <rect x="17" y="15" width="4" height="1" fill="rgb(255,255,255)" fill-opacity="0.0078125"/>
  <rect x="0" y="16" width="6" height="1" fill="rgb(255,255,255)" fill-opacity="0.0078125"/>
  <rect x="6" y="16" width="1" height="1" fill="rgb(21,21,21)" fill-opacity="0.0546875"/>
  <rect x="7" y="16" width="1" height="1" fill="rgb(25,25,25)" fill-opacity="0.7109375"/>
  <rect x="8" y="16" width="7" height="1" fill="rgb(26,26,26)" fill-opacity="0.8203125"/>
  <rect x="15" y="16" width="1" height="1" fill="rgb(25,25,25)" fill-opacity="0.7109375"/>
  <rect x="16" y="16" width="1" height="1" fill="rgb(21,21,21)" fill-opacity="0.0546875"/>
  <rect x="17" y="16" width="4" height="1" fill="rgb(255,255,255)" fill-opacity="0.0078125"/>
  <rect x="0" y="17" width="21" height="1" fill="rgb(255,255,255)" fill-opacity="0.0078125"/>
  <rect x="0" y="18" width="21" height="1" fill="rgb(255,255,255)" fill-opacity="0.0078125"/>
  <rect x="0" y="19" width="21" height="1" fill="rgb(255,255,255)" fill-opacity="0.0078125"/>
  <rect x="0" y="20" width="21" height="1" fill="rgb(255,255,255)" fill-opacity="0.0078125"/>
</svg>