<svg xmlns="http://www.w3.org/2000/svg" shape-rendering="crispEdges" width="21" height="21" viewBox="0 0 21 21">
  <rect x="0" y="0" width="1" height="21" fill="rgb(255,255,255)" fill-opacity="0.0078125"/>
  <rect x="1" y="0" width="1" height="21" fill="rgb(255,255,255)" fill-opacity="0.0078125"/>
  <rect x="2" y="0" width="1" height="21" fill="rgb(255,255,255)" fill-opacity="0.0078125"/>
  <rect x="3" y="0" width="1" height="21" fill="rgb(255,255,255)" fill-opacity="0.0078125"/>
  <rect x="4" y="0" width="1" height="6" fill="rgb(255,255,255)" fill-opacity="0.0078125"/>
  <rect x="4" y="6" width="1" height="1" fill="rgb(25,25,25)" fill-opacity="0.328125"/>
  <rect x="4" y="7" width="1" height="1" fill="rgb(26,26,26)" fill-opacity="0.890625"/>
  <rect x="4" y="8" width="1" height="6" fill="rgb(26,26,26)" fill-opacity="0.9140625"/>
  <rect x="4" y="14" width="1" height="1" fill="rgb(26,26,26)" fill-opacity="0.890625"/>
  <rect x="4" y="15" width="1" height="1" fill="rgb(27,27,27)" fill-opacity="0.375"/>
  <rect x="4" y="16" width="1" height="5" fill="rgb(255,255,255)" fill-opacity="0.0078125"/>
  <rect x="5" y="0" width="1" height="5" fill="rgb(255,255,255)" fill-opacity="0.0078125"/>
  <rect x="5" y="5" width="1" height="1" fill="rgb(0,0,0)" fill-opacity="0.015625"/>
  <rect x="5" y="6" width="1" height="1" fill="rgb(45,45,45)" fill-opacity="0.90625"/>
  <rect x="5" y="7" width="1" height="1" fill="rgb(252,252,252)"/>
  <rect x="5" y="8" width="1" height="5" fill="rgb(255,255,255)"/>
  <rect x="5" y="13" width="1" height="1" fill="rgb(252,252,252)"/>
  <rect x="5" y="14" width="1" height="1" fill="rgb(247,247,247)"/>
  <rect x="5" y="15" width="1" height="1" fill="rgb(65,65,65)" fill-opacity="0.96875"/>
  <rect x="5" y="16" width="1" height="1" fill="rgb(23,23,23)" fill-opacity="0.09375"/>
  <rect x="5" y="17" width="1" height="4" fill="rgb(255,255,255)" fill-opacity="0.0078125"/>
  <rect x="6" y="0" width="1" height="5" fill="rgb(255,255,255)" fill-opacity="0.0078125"/>
  <rect x="6" y="5" width="1" height="1" fill="rgb(26,26,26)" fill-opacity="0.28125"/>
  <rect x="6" y="6" width="1" height="1" fill="rgb(158,158,158)"/>
  <rect x="6" y="7" width="1" height="1" fill="rgb(248,248,248)"/>
  <rect x="6" y="8" width="1" height="1" fill="rgb(197,197,197)"/>
  <rect x="6" y="9" width="1" height="5" fill="rgb(201,201,201)"/>
  <rect x="6" y="14" width="1" height="1" fill="rgb(224,224,224)"/>
  <rect x="6" y="15" width="1" height="1" fill="rgb(190,190,190)"/>
  <rect x="6" y="16" width="1" height="1" fill="rgb(26,26,26)" fill-opacity="0.5859375"/>
  <rect x="6" y="17" width="1" height="4" fill="rgb(255,255,255)" fill-opacity="0.0078125"/>
  <rect x="7" y="0" width="1" height="5" fill="rgb(255,255,255)" fill-opacity="0.0078125"/>
  <rect x="7" y="5" width="1" height="1" fill="rgb(26,26,26)" fill-opacity="0.65625"/>
  <rect x="7" y="6" width="1" height="1" fill="rgb(237,237,237)"/>
  <rect x="7" y="7" width="1" height="1" fill="rgb(255,255,255)"/>
  <rect x="7" y="8" width="1" height="1" fill="rgb(174,174,174)"/>
  <rect x="7" y="9" width="1" height="5" fill="rgb(201,201,201)"/>
  <rect x="7" y="14" width="1" height="1" fill="rgb(203,203,203)"/>
  <rect x="7" y="15" width="1" height="1" fill="rgb(234,234,234)"/>
  <rect x="7" y="16" width="1" height="1" fill="rgb(76,76,76)" fill-opacity="0.9921875"/>
  <rect x="7" y="17" width="1" height="1" fill="rgb(28,28,28)" fill-opacity="0.1484375"/>
  <rect x="7" y="18" width="1" height="3" fill="rgb(255,255,255)" fill-opacity="0.0078125"/>
  <rect x="8" y="0" width="1" height="4" fill="rgb(255,255,255)" fill-opacity="0.0078125"/>
  <rect x="8" y="4" width="1" height="1" fill="rgb(34,34,34)" fill-opacity="0.0625"/>
  <rect x="8" y="5" width="1" height="1" fill="rgb(72,72,72)" fill-opacity="0.9765625"/>
  <rect x="8" y="6" width="1" height="2" fill="rgb(255,255,255)"/>
  <rect x="8" y="8" width="1" height="1" fill="rgb(221,221,221)"/>
  <rect x="8" y="9" width="1" height="1" fill="rgb(200,200,200)"/>
  <rect x="8" y="10" width="1" height="5" fill="rgb(201,201,201)"/>
  <rect x="8" y="15" width="1" height="1" fill="rgb(215,215,215)"/>
  <rect x="8" y="16" width="1" height="1" fill="rgb(189,189,189)"/>
  <rect x="8" y="17" width="1" height="1" fill="rgb(26,26,26)" fill-opacity="0.6640625"/>
  <rect x="8" y="18" width="1" height="3" fill="rgb(255,255,255)" fill-opacity="0.0078125"/>
  <rect x="9" y="0" width="1" height="4" fill="rgb(255,255,255)" fill-opacity="0.0078125"/>
  <rect x="9" y="4" width="1" height="1" fill="rgb(25,25,25)" fill-opacity="0.40625"/>
  <rect x="9" y="5" width="1" height="1" fill="rgb(188,188,188)"/>
  <rect x="9" y="6" width="1" height="3" fill="rgb(255,255,255)"/>
  <rect x="9" y="9" width="1" height="1" fill="rgb(175,175,175)"/>
  <rect x="9" y="10" width="1" height="5" fill="rgb(201,201,201)"/>
  <rect x="9" y="15" width="1" height="1" fill="rgb(202,202,202)"/>
  <rect x="9" y="16" width="1" height="1" fill="rgb(224,224,224)"/>
  <rect x="9" y="17" width="1" height="1" fill="rgb(85,85,85)"/>
  <rect x="9" y="18" width="1" height="1" fill="rgb(24,24,24)" fill-opacity="0.2109375"/>
  <rect x="9" y="19" width="1" height="2" fill="rgb(255,255,255)" fill-opacity="0.0078125"/>
  <rect x="10" y="0" width="1" height="4" fill="rgb(255,255,255)" fill-opacity="0.0078125"/>
  <rect x="10" y="4" width="1" height="1" fill="rgb(26,26,26)" fill-opacity="0.7578125"/>
  <rect x="10" y="5" width="1" height="1" fill="rgb(248,248,248)"/>
  <rect x="10" y="6" width="1" height="3" fill="rgb(255,255,255)"/>
  <rect x="10" y="9" width="1" height="1" fill="rgb(207,207,207)"/>
  <rect x="10" y="10" width="1" height="6" fill="rgb(201,201,201)"/>
  <rect x="10" y="16" width="1" height="1" fill="rgb(208,208,208)"/>
  <rect x="10" y="17" width="1" height="1" fill="rgb(186,186,186)"/>
  <rect x="10" y="18" width="1" height="1" fill="rgb(26,26,26)" fill-opacity="0.703125"/>
  <rect x="10" y="19" width="1" height="2" fill="rgb(255,255,255)" fill-opacity="0.0078125"/>
  <rect x="11" y="0" width="1" height="4" fill="rgb(255,255,255)" fill-opacity="0.0078125"/>
  <rect x="11" y="4" width="1" height="1" fill="rgb(26,26,26)" fill-opacity="0.7578125"/>
  <rect x="11" y="5" width="1" height="1" fill="rgb(245,245,245)"/>
  <rect x="11" y="6" width="1" height="3" fill="rgb(255,255,255)"/>
  <rect x="11" y="9" width="1" height="1" fill="rgb(202,202,202)"/>
  <rect x="11" y="10" width="1" height="1" fill="rgb(101,101,101)"/>
  <rect x="11" y="11" width="1" height="5" fill="rgb(100,100,100)"/>
  <rect x="11" y="16" width="1" height="1" fill="rgb(118,118,118)"/>
  <rect x="11" y="17" width="1" height="1" fill="rgb(122,122,122)"/>
  <rect x="11" y="18" width="1" height="1" fill="rgb(26,26,26)" fill-opacity="0.703125"/>
  <rect x="11" y="19" width="1" height="2" fill="rgb(255,255,255)" fill-opacity="0.0078125"/>
  <rect x="12" y="0" width="1" height="4" fill="rgb(255,255,255)" fill-opacity="0.0078125"/>
  <rect x="12" y="4" width="1" height="1" fill="rgb(25,25,25)" fill-opacity="0.40625"/>
  <rect x="12" y="5" width="1" height="1" fill="rgb(178,178,178)"/>
  <rect x="12" y="6" width="1" height="3" fill="rgb(255,255,255)"/>
  <rect x="12" y="9" width="1" height="1" fill="rgb(130,130,130)"/>
  <rect x="12" y="10" width="1" height="5" fill="rgb(107,107,107)"/>
  <rect x="12" y="15" width="1" height="1" fill="rgb(108,108,108)"/>
  <rect x="12" y="16" width="1" height="1" fill="rgb(141,141,141)"/>
  <rect x="12" y="17" width="1" height="1" fill="rgb(55,55,55)"/>
  <rect x="12" y="18" width="1" height="1" fill="rgb(24,24,24)" fill-opacity="0.2109375"/>
  <rect x="12" y="19" width="1" height="2" fill="rgb(255,255,255)" fill-opacity="0.0078125"/>
  <rect x="13" y="0" width="1" height="4" fill="rgb(255,255,255)" fill-opacity="0.0078125"/>
  <rect x="13" y="4" width="1" height="1" fill="rgb(34,34,34)" fill-opacity="0.0625"/>
  <rect x="13" y="5" width="1" height="1" fill="rgb(66,66,66)" fill-opacity="0.9765625"/>
  <rect x="13" y="6" width="1" height="1" fill="rgb(253,253,253)"/>
  <rect x="13" y="7" width="1" height="1" fill="rgb(255,255,255)"/>
  <rect x="13" y="8" width="1" height="1" fill="rgb(219,219,219)"/>
  <rect x="13" y="9" width="1" height="1" fill="rgb(114,114,114)"/>
  <rect x="13" y="10" width="1" height="5" fill="rgb(113,113,113)"/>
  <rect x="13" y="15" width="1" height="1" fill="rgb(128,128,128)"/>
  <rect x="13" y="16" width="1" height="1" fill="rgb(107,107,107)"/>
  <rect x="13" y="17" width="1" height="1" fill="rgb(26,26,26)" fill-opacity="0.6640625"/>
  <rect x="13" y="18" width="1" height="3" fill="rgb(255,255,255)" fill-opacity="0.0078125"/>
  <rect x="14" y="0" width="1" height="5" fill="rgb(255,255,255)" fill-opacity="0.0078125"/>
  <rect x="14" y="5" width="1" height="1" fill="rgb(26,26,26)" fill-opacity="0.65625"/>
  <rect x="14" y="6" width="1" height="1" fill="rgb(218,218,218)"/>
  <rect x="14" y="7" width="1" height="1" fill="rgb(255,255,255)"/>
  <rect x="14" y="8" width="1" height="1" fill="rgb(144,144,144)"/>
  <rect x="14" y="9" width="1" height="5" fill="rgb(119,119,119)"/>
  <rect x="14" y="14" width="1" height="1" fill="rgb(121,121,121)"/>
  <rect x="14" y="15" width="1" height="1" fill="rgb(138,138,138)"/>
  <rect x="14" y="16" width="1" height="1" fill="rgb(43,43,43)" fill-opacity="0.9921875"/>
  <rect x="14" y="17" width="1" height="1" fill="rgb(28,28,28)" fill-opacity="0.1484375"/>
  <rect x="14" y="18" width="1" height="3" fill="rgb(255,255,255)" fill-opacity="0.0078125"/>
  <rect x="15" y="0" width="1" height="5" fill="rgb(255,255,255)" fill-opacity="0.0078125"/>
  <rect x="15" y="5" width="1" height="1" fill="rgb(26,26,26)" fill-opacity="0.28125"/>
  <rect x="15" y="6" width="1" height="1" fill="rgb(132,132,132)"/>
  <rect x="15" y="7" width="1" height="1" fill="rgb(241,241,241)"/>
  <rect x="15" y="8" width="1" height="1" fill="rgb(127,127,127)"/>
  <rect x="15" y="9" width="1" height="5" fill="rgb(125,125,125)"/>
  <rect x="15" y="14" width="1" height="1" fill="rgb(135,135,135)"/>
  <rect x="15" y="15" width="1" height="1" fill="rgb(93,93,93)"/>
  <rect x="15" y="16" width="1" height="1" fill="rgb(26,26,26)" fill-opacity="0.5859375"/>
  <rect x="15" y="17" width="1" height="4" fill="rgb(255,255,255)" fill-opacity="0.0078125"/>
  <rect x="16" y="0" width="1" height="5" fill="rgb(255,255,255)" fill-opacity="0.0078125"/>
  <rect x="16" y="5" width="1" height="1" fill="rgb(0,0,0)" fill-opacity="0.015625"/>
  <rect x="16" y="6" width="1" height="1" fill="rgb(38,38,38)" fill-opacity="0.90625"/>
  <rect x="16" y="7" width="1" height="1" fill="rgb(194,194,194)"/>
  <rect x="16" y="8" width="1" height="1" fill="rgb(179,179,179)"/>
  <rect x="16" y="9" width="1" height="1" fill="rgb(173,173,173)"/>
  <rect x="16" y="10" width="1" height="1" fill="rgb(166,166,166)"/>
  <rect x="16" y="11" width="1" height="1" fill="rgb(159,159,159)"/>
  <rect x="16" y="12" width="1" height="1" fill="rgb(153,153,153)"/>
  <rect x="16" y="13" width="1" height="1" fill="rgb(147,147,147)"/>
  <rect x="16" y="14" width="1" height="1" fill="rgb(135,135,135)"/>
  <rect x="16" y="15" width="1" height="1" fill="rgb(35,35,35)" fill-opacity="0.9609375"/>
  <rect x="16" y="16" width="1" height="1" fill="rgb(23,23,23)" fill-opacity="0.09375"/>
  <rect x="16" y="17" width="1" height="4" fill="rgb(255,255,255)" fill-opacity="0.0078125"/>
  <rect x="17" y="0" width="1" height="6" fill="rgb(255,255,255)" fill-opacity="0.0078125"/>
  <rect x="17" y="6" width="1" height="1" fill="rgb(25,25,25)" fill-opacity="0.328125"/>
  <rect x="17" y="7" width="1" height="1" fill="rgb(26,26,26)" fill-opacity="0.890625"/>
  <rect x="17" y="8" width="1" height="6" fill="rgb(26,26,26)" fill-opacity="0.9140625"/>
  <rect x="17" y="14" width="1" height="1" fill="rgb(26,26,26)" fill-opacity="0.890625"/>
  <rect x="17" y="15" width="1" height="1" fill="rgb(27,27,27)" fill-opacity="0.375"/>
  <rect x="17" y="16" width="1" height="5" fill="rgb(255,255,255)" fill-opacity="0.0078125"/>
  <rect x="18" y="0" width="1" height="21" fill="rgb(255,255,255)" fill-opacity="0.0078125"/>
  <rect x="19" y="0" width="1" height="21" fill="rgb(255,255,255)" fill-opacity="0.0078125"/>
  <rect x="20" y="0" width="1" height="21" fill="rgb(255,255,255)" fill-opacity="0.0078125"/>
</svg>