<svg xmlns="http://www.w3.org/2000/svg" shape-rendering="crispEdges" width="21" height="21" viewBox="0 0 21 21">
  <rect x="0" y="0" width="1" height="21" fill="rgb(255,255,255)" fill-opacity="0.0078125"/>
  <rect x="1" y="0" width="1" height="21" fill="rgb(255,255,255)" fill-opacity="0.0078125"/>
  <rect x="2" y="0" width="1" height="21" fill="rgb(255,255,255)" fill-opacity="0.0078125"/>
  <rect x="3" y="0" width="1" height="6" fill="rgb(255,255,255)" fill-opacity="0.0078125"/>
  <rect x="3" y="6" width="1" height="1" fill="rgb(25,25,25)" fill-opacity="0.1640625"/>
  <rect x="3" y="7" width="1" height="1" fill="rgb(40,40,40)" fill-opacity="0.53125"/>
  <rect x="3" y="8" width="1" height="1" fill="rgb(40,40,40)" fill-opacity="0.703125"/>
  <rect x="3" y="9" width="1" height="1" fill="rgb(29,29,29)" fill-opacity="0.7890625"/>
  <rect x="3" y="10" width="1" height="1" fill="rgb(40,40,40)" fill-opacity="0.703125"/>
  <rect x="3" y="11" width="1" height="1" fill="rgb(40,40,40)" fill-opacity="0.53125"/>
  <rect x="3" y="12" width="1" height="1" fill="rgb(25,25,25)" fill-opacity="0.1640625"/>
  <rect x="3" y="13" width="1" height="8" fill="rgb(255,255,255)" fill-opacity="0.0078125"/>
  <rect x="4" y="0" width="1" height="4" fill="rgb(255,255,255)" fill-opacity="0.0078125"/>
  <rect x="4" y="4" width="1" height="1" fill="rgb(0,0,0)" fill-opacity="0.015625"/>
  <rect x="4" y="5" width="1" height="1" fill="rgb(35,35,35)" fill-opacity="0.4375"/>
  <rect x="4" y="6" width="1" height="1" fill="rgb(57,57,57)" fill-opacity="0.78125"/>
  <rect x="4" y="7" width="1" height="1" fill="rgb(210,210,210)" fill-opacity="0.8046875"/>
  <rect x="4" y="8" width="1" height="1" fill="rgb(245,245,245)" fill-opacity="0.8046875"/>
  <rect x="4" y="9" width="1" height="1" fill="rgb(254,254,254)" fill-opacity="0.8046875"/>
  <rect x="4" y="10" width="1" height="1" fill="rgb(243,243,243)" fill-opacity="0.8046875"/>
  <rect x="4" y="11" width="1" height="1" fill="rgb(206,206,206)" fill-opacity="0.8046875"/>
  <rect x="4" y="12" width="1" height="1" fill="rgb(55,55,55)" fill-opacity="0.78125"/>
  <rect x="4" y="13" width="1" height="1" fill="rgb(35,35,35)" fill-opacity="0.4375"/>
  <rect x="4" y="14" width="1" height="1" fill="rgb(0,0,0)" fill-opacity="0.015625"/>
  <rect x="4" y="15" width="1" height="6" fill="rgb(255,255,255)" fill-opacity="0.0078125"/>
  <rect x="5" y="0" width="1" height="4" fill="rgb(255,255,255)" fill-opacity="0.0078125"/>
  <rect x="5" y="4" width="1" height="1" fill="rgb(35,35,35)" fill-opacity="0.4375"/>
  <rect x="5" y="5" width="1" height="1" fill="rgb(121,121,121)" fill-opacity="0.78125"/>
  <rect x="5" y="6" width="1" height="1" fill="rgb(253,253,253)" fill-opacity="0.8046875"/>
  <rect x="5" y="7" width="1" height="2" fill="rgb(255,255,255)" fill-opacity="0.8046875"/>
  <rect x="5" y="9" width="1" height="1" fill="rgb(243,243,243)" fill-opacity="0.8046875"/>
  <rect x="5" y="10" width="1" height="1" fill="rgb(233,233,233)" fill-opacity="0.8046875"/>
  <rect x="5" y="11" width="1" height="1" fill="rgb(236,236,236)" fill-opacity="0.8046875"/>
  <rect x="5" y="12" width="1" height="1" fill="rgb(248,248,248)" fill-opacity="0.8046875"/>
  <rect x="5" y="13" width="1" height="1" fill="rgb(114,114,114)" fill-opacity="0.78125"/>
  <rect x="5" y="14" width="1" height="1" fill="rgb(35,35,35)" fill-opacity="0.4375"/>
  <rect x="5" y="15" width="1" height="6" fill="rgb(255,255,255)" fill-opacity="0.0078125"/>
  <rect x="6" y="0" width="1" height="3" fill="rgb(255,255,255)" fill-opacity="0.0078125"/>
  <rect x="6" y="3" width="1" height="1" fill="rgb(25,25,25)" fill-opacity="0.1640625"/>
  <rect x="6" y="4" width="1" height="1" fill="rgb(57,57,57)" fill-opacity="0.78125"/>
  <rect x="6" y="5" width="1" height="1" fill="rgb(253,253,253)" fill-opacity="0.8046875"/>
  <rect x="6" y="6" width="1" height="2" fill="rgb(255,255,255)" fill-opacity="0.8046875"/>
  <rect x="6" y="8" width="1" height="1" fill="rgb(241,241,241)" fill-opacity="0.8046875"/>
  <rect x="6" y="9" width="1" height="1" fill="rgb(228,228,228)" fill-opacity="0.8046875"/>
  <rect x="6" y="10" width="1" height="1" fill="rgb(213,213,213)" fill-opacity="0.8046875"/>
  <rect x="6" y="11" width="1" height="1" fill="rgb(198,198,198)" fill-opacity="0.8046875"/>
  <rect x="6" y="12" width="1" height="1" fill="rgb(200,200,200)" fill-opacity="0.8046875"/>
  <rect x="6" y="13" width="1" height="1" fill="rgb(234,234,234)" fill-opacity="0.8046875"/>
  <rect x="6" y="14" width="1" height="1" fill="rgb(50,50,50)" fill-opacity="0.78125"/>
  <rect x="6" y="15" width="1" height="1" fill="rgb(25,25,25)" fill-opacity="0.1640625"/>
  <rect x="6" y="16" width="1" height="5" fill="rgb(255,255,255)" fill-opacity="0.0078125"/>
  <rect x="7" y="0" width="1" height="3" fill="rgb(255,255,255)" fill-opacity="0.0078125"/>
  <rect x="7" y="3" width="1" height="1" fill="rgb(40,40,40)" fill-opacity="0.53125"/>
  <rect x="7" y="4" width="1" height="1" fill="rgb(210,210,210)" fill-opacity="0.8046875"/>
  <rect x="7" y="5" width="1" height="2" fill="rgb(255,255,255)" fill-opacity="0.8046875"/>
  <rect x="7" y="7" width="1" height="1" fill="rgb(241,241,241)" fill-opacity="0.8046875"/>
  <rect x="7" y="8" width="1" height="1" fill="rgb(228,228,228)" fill-opacity="0.8046875"/>
  <rect x="7" y="9" width="1" height="1" fill="rgb(204,204,204)" fill-opacity="0.8125"/>
  <rect x="7" y="10" width="1" height="1" fill="rgb(189,189,189)" fill-opacity="0.8125"/>
  <rect x="7" y="11" width="1" height="1" fill="rgb(185,185,185)" fill-opacity="0.8046875"/>
  <rect x="7" y="12" width="1" height="1" fill="rgb(170,170,170)" fill-opacity="0.8046875"/>
  <rect x="7" y="13" width="1" height="1" fill="rgb(198,198,198)" fill-opacity="0.8046875"/>
  <rect x="7" y="14" width="1" height="1" fill="rgb(170,170,170)" fill-opacity="0.796875"/>
  <rect x="7" y="15" width="1" height="1" fill="rgb(40,40,40)" fill-opacity="0.53125"/>
  <rect x="7" y="16" width="1" height="2" fill="rgb(0,0,0)" fill-opacity="0.0390625"/>
  <rect x="7" y="18" width="1" height="3" fill="rgb(255,255,255)" fill-opacity="0.0078125"/>
  <rect x="8" y="0" width="1" height="3" fill="rgb(255,255,255)" fill-opacity="0.0078125"/>
  <rect x="8" y="3" width="1" height="1" fill="rgb(40,40,40)" fill-opacity="0.703125"/>
  <rect x="8" y="4" width="1" height="1" fill="rgb(245,245,245)" fill-opacity="0.8046875"/>
  <rect x="8" y="5" width="1" height="1" fill="rgb(255,255,255)" fill-opacity="0.8046875"/>
  <rect x="8" y="6" width="1" height="1" fill="rgb(241,241,241)" fill-opacity="0.8046875"/>
  <rect x="8" y="7" width="1" height="1" fill="rgb(228,228,228)" fill-opacity="0.8046875"/>
  <rect x="8" y="8" width="1" height="1" fill="rgb(112,112,112)" fill-opacity="0.8828125"/>
  <rect x="8" y="9" width="1" height="2" fill="rgb(6,6,6)" fill-opacity="0.9921875"/>
  <rect x="8" y="11" width="1" height="1" fill="rgb(90,90,90)" fill-opacity="0.8828125"/>
  <rect x="8" y="12" width="1" height="1" fill="rgb(156,156,156)" fill-opacity="0.8046875"/>
  <rect x="8" y="13" width="1" height="1" fill="rgb(158,158,158)" fill-opacity="0.8046875"/>
  <rect x="8" y="14" width="1" height="1" fill="rgb(183,183,183)" fill-opacity="0.8046875"/>
  <rect x="8" y="15" width="1" height="1" fill="rgb(19,19,19)" fill-opacity="0.828125"/>
  <rect x="8" y="16" width="1" height="2" fill="rgb(0,0,0)" fill-opacity="0.9609375"/>
  <rect x="8" y="18" width="1" height="1" fill="rgb(0,0,0)" fill-opacity="0.421875"/>
  <rect x="8" y="19" width="1" height="2" fill="rgb(255,255,255)" fill-opacity="0.0078125"/>
  <rect x="9" y="0" width="1" height="3" fill="rgb(255,255,255)" fill-opacity="0.0078125"/>
  <rect x="9" y="3" width="1" height="1" fill="rgb(29,29,29)" fill-opacity="0.7890625"/>
  <rect x="9" y="4" width="1" height="1" fill="rgb(254,254,254)" fill-opacity="0.8046875"/>
  <rect x="9" y="5" width="1" height="1" fill="rgb(243,243,243)" fill-opacity="0.8046875"/>
  <rect x="9" y="6" width="1" height="1" fill="rgb(228,228,228)" fill-opacity="0.8046875"/>
  <rect x="9" y="7" width="1" height="1" fill="rgb(204,204,204)" fill-opacity="0.8125"/>
  <rect x="9" y="8" width="1" height="1" fill="rgb(6,6,6)" fill-opacity="0.9921875"/>
  <rect x="9" y="9" width="1" height="2" fill="rgb(255,255,255)"/>
  <rect x="9" y="11" width="1" height="1" fill="rgb(3,3,4)"/>
  <rect x="9" y="12" width="1" height="1" fill="rgb(68,88,118)" fill-opacity="0.921875"/>
  <rect x="9" y="13" width="1" height="1" fill="rgb(68,89,119)" fill-opacity="0.9140625"/>
  <rect x="9" y="14" width="1" height="1" fill="rgb(84,105,134)" fill-opacity="0.921875"/>
  <rect x="9" y="15" width="1" height="1" fill="rgb(1,1,2)"/>
  <rect x="9" y="16" width="1" height="2" fill="rgb(255,255,255)"/>
  <rect x="9" y="18" width="1" height="1" fill="rgb(0,0,0)" fill-opacity="0.9609375"/>
  <rect x="9" y="19" width="1" height="1" fill="rgb(0,0,0)" fill-opacity="0.0390625"/>
  <rect x="9" y="20" width="1" height="1" fill="rgb(255,255,255)" fill-opacity="0.0078125"/>
  <rect x="10" y="0" width="1" height="3" fill="rgb(255,255,255)" fill-opacity="0.0078125"/>
  <rect x="10" y="3" width="1" height="1" fill="rgb(40,40,40)" fill-opacity="0.703125"/>
  <rect x="10" y="4" width="1" height="1" fill="rgb(244,244,244)" fill-opacity="0.8046875"/>
  <rect x="10" y="5" width="1" height="1" fill="rgb(233,233,233)" fill-opacity="0.8046875"/>
  <rect x="10" y="6" width="1" height="1" fill="rgb(213,213,213)" fill-opacity="0.8046875"/>
  <rect x="10" y="7" width="1" height="1" fill="rgb(191,191,191)" fill-opacity="0.8125"/>
  <rect x="10" y="8" width="1" height="1" fill="rgb(6,6,6)" fill-opacity="0.9921875"/>
  <rect x="10" y="9" width="1" height="2" fill="rgb(255,255,255)"/>
  <rect x="10" y="11" width="1" height="1" fill="rgb(7,8,9)"/>
  <rect x="10" y="12" width="1" height="1" fill="rgb(170,192,226)"/>
  <rect x="10" y="13" width="1" height="1" fill="rgb(175,198,233)"/>
  <rect x="10" y="14" width="1" height="1" fill="rgb(170,192,226)"/>
  <rect x="10" y="15" width="1" height="1" fill="rgb(7,8,9)"/>
  <rect x="10" y="16" width="1" height="2" fill="rgb(255,255,255)"/>
  <rect x="10" y="18" width="1" height="1" fill="rgb(0,0,0)" fill-opacity="0.9609375"/>
  <rect x="10" y="19" width="1" height="1" fill="rgb(0,0,0)" fill-opacity="0.0390625"/>
  <rect x="10" y="20" width="1" height="1" fill="rgb(255,255,255)" fill-opacity="0.0078125"/>
  <rect x="11" y="0" width="1" height="3" fill="rgb(255,255,255)" fill-opacity="0.0078125"/>
  <rect x="11" y="3" width="1" height="1" fill="rgb(40,40,40)" fill-opacity="0.53125"/>
  <rect x="11" y="4" width="1" height="1" fill="rgb(208,208,208)" fill-opacity="0.8046875"/>
  <rect x="11" y="5" width="1" height="1" fill="rgb(236,236,236)" fill-opacity="0.8046875"/>
  <rect x="11" y="6" width="1" height="1" fill="rgb(199,199,199)" fill-opacity="0.8046875"/>
  <rect x="11" y="7" width="1" height="1" fill="rgb(185,185,185)" fill-opacity="0.8046875"/>
  <rect x="11" y="8" width="1" height="1" fill="rgb(90,90,90)" fill-opacity="0.8828125"/>
  <rect x="11" y="9" width="1" height="1" fill="rgb(3,3,4)"/>
  <rect x="11" y="10" width="1" height="1" fill="rgb(7,8,9)"/>
  <rect x="11" y="11" width="1" height="1" fill="rgb(84,97,117)" fill-opacity="0.9921875"/>
  <rect x="11" y="12" width="1" height="1" fill="rgb(143,165,198)" fill-opacity="0.9765625"/>
  <rect x="11" y="13" width="1" height="1" fill="rgb(145,167,200)" fill-opacity="0.9765625"/>
  <rect x="11" y="14" width="1" height="1" fill="rgb(145,167,199)" fill-opacity="0.9765625"/>
  <rect x="11" y="15" width="1" height="1" fill="rgb(80,94,114)" fill-opacity="0.9765625"/>
  <rect x="11" y="16" width="1" height="1" fill="rgb(7,8,9)"/>
  <rect x="11" y="17" width="1" height="1" fill="rgb(1,2,3)" fill-opacity="0.984375"/>
  <rect x="11" y="18" width="1" height="1" fill="rgb(0,0,0)" fill-opacity="0.421875"/>
  <rect x="11" y="19" width="1" height="2" fill="rgb(255,255,255)" fill-opacity="0.0078125"/>
  <rect x="12" y="0" width="1" height="3" fill="rgb(255,255,255)" fill-opacity="0.0078125"/>
  <rect x="12" y="3" width="1" height="1" fill="rgb(25,25,25)" fill-opacity="0.1640625"/>
  <rect x="12" y="4" width="1" height="1" fill="rgb(57,57,57)" fill-opacity="0.78125"/>
  <rect x="12" y="5" width="1" height="1" fill="rgb(248,248,248)" fill-opacity="0.8046875"/>
  <rect x="12" y="6" width="1" height="1" fill="rgb(201,201,201)" fill-opacity="0.8046875"/>
  <rect x="12" y="7" width="1" height="1" fill="rgb(171,171,171)" fill-opacity="0.8046875"/>
  <rect x="12" y="8" width="1" height="1" fill="rgb(158,158,158)" fill-opacity="0.8046875"/>
  <rect x="12" y="9" width="1" height="1" fill="rgb(68,88,118)" fill-opacity="0.921875"/>
  <rect x="12" y="10" width="1" height="1" fill="rgb(170,192,226)"/>
  <rect x="12" y="11" width="1" height="1" fill="rgb(145,167,199)" fill-opacity="0.9765625"/>
  <rect x="12" y="12" width="1" height="1" fill="rgb(160,177,203)" fill-opacity="0.9453125"/>
  <rect x="12" y="13" width="1" height="1" fill="rgb(165,182,207)" fill-opacity="0.9453125"/>
  <rect x="12" y="14" width="1" height="1" fill="rgb(143,160,185)" fill-opacity="0.9375"/>
  <rect x="12" y="15" width="1" height="1" fill="rgb(144,169,204)" fill-opacity="0.890625"/>
  <rect x="12" y="16" width="1" height="1" fill="rgb(170,192,226)"/>
  <rect x="12" y="17" width="1" height="1" fill="rgb(34,65,110)" fill-opacity="0.6171875"/>
  <rect x="12" y="18" width="1" height="3" fill="rgb(255,255,255)" fill-opacity="0.0078125"/>
  <rect x="13" y="0" width="1" height="4" fill="rgb(255,255,255)" fill-opacity="0.0078125"/>
  <rect x="13" y="4" width="1" height="1" fill="rgb(35,35,35)" fill-opacity="0.4375"/>
  <rect x="13" y="5" width="1" height="1" fill="rgb(116,116,116)" fill-opacity="0.78125"/>
  <rect x="13" y="6" width="1" height="1" fill="rgb(234,234,234)" fill-opacity="0.8046875"/>
  <rect x="13" y="7" width="1" height="1" fill="rgb(198,198,198)" fill-opacity="0.8046875"/>
  <rect x="13" y="8" width="1" height="1" fill="rgb(158,158,158)" fill-opacity="0.8046875"/>
  <rect x="13" y="9" width="1" height="1" fill="rgb(65,86,118)" fill-opacity="0.921875"/>
  <rect x="13" y="10" width="1" height="1" fill="rgb(175,198,233)"/>
  <rect x="13" y="11" width="1" height="1" fill="rgb(147,169,202)" fill-opacity="0.9765625"/>
  <rect x="13" y="12" width="1" height="1" fill="rgb(166,183,208)" fill-opacity="0.9453125"/>
  <rect x="13" y="13" width="1" height="1" fill="rgb(150,167,193)" fill-opacity="0.9375"/>
  <rect x="13" y="14" width="1" height="1" fill="rgb(154,173,202)" fill-opacity="0.8359375"/>
  <rect x="13" y="15" width="1" height="1" fill="rgb(147,172,208)" fill-opacity="0.8671875"/>
  <rect x="13" y="16" width="1" height="1" fill="rgb(175,198,233)"/>
  <rect x="13" y="17" width="1" height="1" fill="rgb(37,69,116)" fill-opacity="0.6015625"/>
  <rect x="13" y="18" width="1" height="3" fill="rgb(255,255,255)" fill-opacity="0.0078125"/>
  <rect x="14" y="0" width="1" height="4" fill="rgb(255,255,255)" fill-opacity="0.0078125"/>
  <rect x="14" y="4" width="1" height="1" fill="rgb(0,0,0)" fill-opacity="0.015625"/>
  <rect x="14" y="5" width="1" height="1" fill="rgb(35,35,35)" fill-opacity="0.4375"/>
  <rect x="14" y="6" width="1" height="1" fill="rgb(52,52,52)" fill-opacity="0.78125"/>
  <rect x="14" y="7" width="1" height="1" fill="rgb(172,172,172)" fill-opacity="0.796875"/>
  <rect x="14" y="8" width="1" height="1" fill="rgb(184,184,184)" fill-opacity="0.8046875"/>
  <rect x="14" y="9" width="1" height="1" fill="rgb(81,101,132)" fill-opacity="0.921875"/>
  <rect x="14" y="10" width="1" height="1" fill="rgb(170,192,226)"/>
  <rect x="14" y="11" width="1" height="1" fill="rgb(146,168,199)" fill-opacity="0.9765625"/>
  <rect x="14" y="12" width="1" height="1" fill="rgb(143,160,185)" fill-opacity="0.9375"/>
  <rect x="14" y="13" width="1" height="1" fill="rgb(154,173,202)" fill-opacity="0.8359375"/>
  <rect x="14" y="14" width="1" height="1" fill="rgb(175,197,231)" fill-opacity="0.7109375"/>
  <rect x="14" y="15" width="1" height="1" fill="rgb(146,171,207)" fill-opacity="0.875"/>
  <rect x="14" y="16" width="1" height="1" fill="rgb(170,192,226)"/>
  <rect x="14" y="17" width="1" height="1" fill="rgb(35,67,110)" fill-opacity="0.6015625"/>
  <rect x="14" y="18" width="1" height="3" fill="rgb(255,255,255)" fill-opacity="0.0078125"/>
  <rect x="15" y="0" width="1" height="6" fill="rgb(255,255,255)" fill-opacity="0.0078125"/>
  <rect x="15" y="6" width="1" height="1" fill="rgb(25,25,25)" fill-opacity="0.1640625"/>
  <rect x="15" y="7" width="1" height="1" fill="rgb(40,40,40)" fill-opacity="0.53125"/>
  <rect x="15" y="8" width="1" height="1" fill="rgb(19,19,19)" fill-opacity="0.828125"/>
  <rect x="15" y="9" width="1" height="1" fill="rgb(1,1,3)"/>
  <rect x="15" y="10" width="1" height="1" fill="rgb(7,8,9)"/>
  <rect x="15" y="11" width="1" height="1" fill="rgb(81,94,114)" fill-opacity="0.9765625"/>
  <rect x="15" y="12" width="1" height="1" fill="rgb(145,169,205)" fill-opacity="0.8984375"/>
  <rect x="15" y="13" width="1" height="2" fill="rgb(148,172,208)" fill-opacity="0.875"/>
  <rect x="15" y="15" width="1" height="1" fill="rgb(81,96,116)" fill-opacity="0.953125"/>
  <rect x="15" y="16" width="1" height="1" fill="rgb(7,8,9)"/>
  <rect x="15" y="17" width="1" height="1" fill="rgb(1,2,3)" fill-opacity="0.984375"/>
  <rect x="15" y="18" width="1" height="1" fill="rgb(0,0,0)" fill-opacity="0.421875"/>
  <rect x="15" y="19" width="1" height="2" fill="rgb(255,255,255)" fill-opacity="0.0078125"/>
  <rect x="16" y="0" width="1" height="7" fill="rgb(255,255,255)" fill-opacity="0.0078125"/>
  <rect x="16" y="7" width="1" height="1" fill="rgb(0,0,0)" fill-opacity="0.0390625"/>
  <rect x="16" y="8" width="1" height="1" fill="rgb(0,0,0)" fill-opacity="0.9609375"/>
  <rect x="16" y="9" width="1" height="2" fill="rgb(255,255,255)"/>
  <rect x="16" y="11" width="1" height="1" fill="rgb(7,8,9)"/>
  <rect x="16" y="12" width="1" height="1" fill="rgb(170,192,226)"/>
  <rect x="16" y="13" width="1" height="1" fill="rgb(175,198,233)"/>
  <rect x="16" y="14" width="1" height="1" fill="rgb(170,192,226)"/>
  <rect x="16" y="15" width="1" height="1" fill="rgb(7,8,9)"/>
  <rect x="16" y="16" width="1" height="2" fill="rgb(255,255,255)"/>
  <rect x="16" y="18" width="1" height="1" fill="rgb(0,0,0)" fill-opacity="0.9609375"/>
  <rect x="16" y="19" width="1" height="1" fill="rgb(0,0,0)" fill-opacity="0.0390625"/>
  <rect x="16" y="20" width="1" height="1" fill="rgb(255,255,255)" fill-opacity="0.0078125"/>
  <rect x="17" y="0" width="1" height="7" fill="rgb(255,255,255)" fill-opacity="0.0078125"/>
  <rect x="17" y="7" width="1" height="1" fill="rgb(0,0,0)" fill-opacity="0.0390625"/>
  <rect x="17" y="8" width="1" height="1" fill="rgb(0,0,0)" fill-opacity="0.9609375"/>
  <rect x="17" y="9" width="1" height="2" fill="rgb(255,255,255)"/>
  <rect x="17" y="11" width="1" height="1" fill="rgb(1,1,2)" fill-opacity="0.984375"/>
  <rect x="17" y="12" width="1" height="1" fill="rgb(26,59,105)" fill-opacity="0.5859375"/>
  <rect x="17" y="13" width="1" height="1" fill="rgb(28,62,111)" fill-opacity="0.5703125"/>
  <rect x="17" y="14" width="1" height="1" fill="rgb(26,59,105)" fill-opacity="0.5859375"/>
  <rect x="17" y="15" width="1" height="1" fill="rgb(1,1,2)" fill-opacity="0.984375"/>
  <rect x="17" y="16" width="1" height="2" fill="rgb(255,255,255)"/>
  <rect x="17" y="18" width="1" height="1" fill="rgb(0,0,0)" fill-opacity="0.9609375"/>
  <rect x="17" y="19" width="1" height="1" fill="rgb(0,0,0)" fill-opacity="0.0390625"/>
  <rect x="17" y="20" width="1" height="1" fill="rgb(255,255,255)" fill-opacity="0.0078125"/>
  <rect x="18" y="0" width="1" height="8" fill="rgb(255,255,255)" fill-opacity="0.0078125"/>
  <rect x="18" y="8" width="1" height="1" fill="rgb(0,0,0)" fill-opacity="0.421875"/>
  <rect x="18" y="9" width="1" height="2" fill="rgb(0,0,0)" fill-opacity="0.9609375"/>
  <rect x="18" y="11" width="1" height="1" fill="rgb(0,0,0)" fill-opacity="0.421875"/>
  <rect x="18" y="12" width="1" height="3" fill="rgb(255,255,255)" fill-opacity="0.0078125"/>
  <rect x="18" y="15" width="1" height="1" fill="rgb(0,0,0)" fill-opacity="0.421875"/>
  <rect x="18" y="16" width="1" height="2" fill="rgb(0,0,0)" fill-opacity="0.9609375"/>
  <rect x="18" y="18" width="1" height="1" fill="rgb(0,0,0)" fill-opacity="0.421875"/>
  <rect x="18" y="19" width="1" height="2" fill="rgb(255,255,255)" fill-opacity="0.0078125"/>
  <rect x="19" y="0" width="1" height="9" fill="rgb(255,255,255)" fill-opacity="0.0078125"/>
  <rect x="19" y="9" width="1" height="2" fill="rgb(0,0,0)" fill-opacity="0.0390625"/>
  <rect x="19" y="11" width="1" height="5" fill="rgb(255,255,255)" fill-opacity="0.0078125"/>
  <rect x="19" y="16" width="1" height="2" fill="rgb(0,0,0)" fill-opacity="0.0390625"/>
  <rect x="19" y="18" width="1" height="3" fill="rgb(255,255,255)" fill-opacity="0.0078125"/>
  <rect x="20" y="0" width="1" height="21" fill="rgb(255,255,255)" fill-opacity="0.0078125"/>
</svg>