<svg xmlns="http://www.w3.org/2000/svg" shape-rendering="crispEdges" width="21" height="21" viewBox="0 0 21 21">
  <rect x="0" y="0" width="1" height="21" fill="rgb(255,255,255)" fill-opacity="0.0078125"/>
  <rect x="1" y="0" width="1" height="21" fill="rgb(255,255,255)" fill-opacity="0.0078125"/>
  <rect x="2" y="0" width="1" height="21" fill="rgb(255,255,255)" fill-opacity="0.0078125"/>
  <rect x="3" y="0" width="1" height="21" fill="rgb(255,255,255)" fill-opacity="0.0078125"/>
  <rect x="4" y="0" width="1" height="7" fill="rgb(255,255,255)" fill-opacity="0.0078125"/>
  <rect x="4" y="7" width="1" height="1" fill="rgb(57,57,57)" fill-opacity="0.078125"/>
  <rect x="4" y="8" width="1" height="1" fill="rgb(53,53,53)" fill-opacity="0.703125"/>
  <rect x="4" y="9" width="1" height="1" fill="rgb(56,54,54)" fill-opacity="0.9296875"/>
  <rect x="4" y="10" width="1" height="1" fill="rgb(54,52,52)" fill-opacity="0.9921875"/>
  <rect x="4" y="11" width="1" height="1" fill="rgb(55,53,53)" fill-opacity="0.9921875"/>
  <rect x="4" y="12" width="1" height="1" fill="rgb(56,54,54)" fill-opacity="0.9296875"/>
  <rect x="4" y="13" width="1" height="1" fill="rgb(53,53,53)" fill-opacity="0.703125"/>
  <rect x="4" y="14" width="1" height="1" fill="rgb(57,57,57)" fill-opacity="0.078125"/>
  <rect x="4" y="15" width="1" height="6" fill="rgb(255,255,255)" fill-opacity="0.0078125"/>
  <rect x="5" y="0" width="1" height="6" fill="rgb(255,255,255)" fill-opacity="0.0078125"/>
  <rect x="5" y="6" width="1" height="1" fill="rgb(52,52,52)" fill-opacity="0.390625"/>
  <rect x="5" y="7" width="1" height="1" fill="rgb(59,55,55)" fill-opacity="0.9921875"/>
  <rect x="5" y="8" width="1" height="1" fill="rgb(197,190,174)"/>
  <rect x="5" y="9" width="1" height="1" fill="rgb(241,238,222)"/>
  <rect x="5" y="10" width="1" height="1" fill="rgb(250,248,231)"/>
  <rect x="5" y="11" width="1" height="1" fill="rgb(243,217,200)"/>
  <rect x="5" y="12" width="1" height="1" fill="rgb(232,205,189)"/>
  <rect x="5" y="13" width="1" height="1" fill="rgb(194,162,148)"/>
  <rect x="5" y="14" width="1" height="1" fill="rgb(60,57,56)" fill-opacity="0.9921875"/>
  <rect x="5" y="15" width="1" height="1" fill="rgb(52,52,52)" fill-opacity="0.390625"/>
  <rect x="5" y="16" width="1" height="5" fill="rgb(255,255,255)" fill-opacity="0.0078125"/>
  <rect x="6" y="0" width="1" height="5" fill="rgb(255,255,255)" fill-opacity="0.0078125"/>
  <rect x="6" y="5" width="1" height="1" fill="rgb(52,52,52)" fill-opacity="0.390625"/>
  <rect x="6" y="6" width="1" height="1" fill="rgb(99,93,89)"/>
  <rect x="6" y="7" width="1" height="1" fill="rgb(244,232,216)"/>
  <rect x="6" y="8" width="1" height="1" fill="rgb(252,249,211)"/>
  <rect x="6" y="9" width="1" height="1" fill="rgb(251,248,194)"/>
  <rect x="6" y="10" width="1" height="1" fill="rgb(251,248,195)"/>
  <rect x="6" y="11" width="1" height="1" fill="rgb(219,136,95)"/>
  <rect x="6" y="12" width="1" height="1" fill="rgb(211,120,86)"/>
  <rect x="6" y="13" width="1" height="1" fill="rgb(217,146,124)"/>
  <rect x="6" y="14" width="1" height="1" fill="rgb(232,227,215)"/>
  <rect x="6" y="15" width="1" height="1" fill="rgb(92,89,87)"/>
  <rect x="6" y="16" width="1" height="1" fill="rgb(52,52,52)" fill-opacity="0.390625"/>
  <rect x="6" y="17" width="1" height="4" fill="rgb(255,255,255)" fill-opacity="0.0078125"/>
  <rect x="7" y="0" width="1" height="4" fill="rgb(255,255,255)" fill-opacity="0.0078125"/>
  <rect x="7" y="4" width="1" height="1" fill="rgb(57,57,57)" fill-opacity="0.078125"/>
  <rect x="7" y="5" width="1" height="1" fill="rgb(58,54,54)" fill-opacity="0.9921875"/>
  <rect x="7" y="6" width="1" height="1" fill="rgb(243,231,215)"/>
  <rect x="7" y="7" width="1" height="1" fill="rgb(241,196,149)"/>
  <rect x="7" y="8" width="1" height="1" fill="rgb(253,250,220)"/>
  <rect x="7" y="9" width="1" height="1" fill="rgb(255,254,251)"/>
  <rect x="7" y="10" width="1" height="1" fill="rgb(241,208,188)"/>
  <rect x="7" y="11" width="1" height="1" fill="rgb(244,228,188)"/>
  <rect x="7" y="12" width="1" height="1" fill="rgb(228,179,147)"/>
  <rect x="7" y="13" width="1" height="1" fill="rgb(201,115,90)"/>
  <rect x="7" y="14" width="1" height="1" fill="rgb(238,236,221)"/>
  <rect x="7" y="15" width="1" height="1" fill="rgb(221,219,214)"/>
  <rect x="7" y="16" width="1" height="1" fill="rgb(59,56,56)" fill-opacity="0.9921875"/>
  <rect x="7" y="17" width="1" height="1" fill="rgb(57,57,57)" fill-opacity="0.078125"/>
  <rect x="7" y="18" width="1" height="3" fill="rgb(255,255,255)" fill-opacity="0.0078125"/>
  <rect x="8" y="0" width="1" height="4" fill="rgb(255,255,255)" fill-opacity="0.0078125"/>
  <rect x="8" y="4" width="1" height="1" fill="rgb(53,53,53)" fill-opacity="0.703125"/>
  <rect x="8" y="5" width="1" height="1" fill="rgb(196,178,161)"/>
  <rect x="8" y="6" width="1" height="1" fill="rgb(246,217,185)"/>
  <rect x="8" y="7" width="1" height="1" fill="rgb(251,239,214)"/>
  <rect x="8" y="8" width="1" height="1" fill="rgb(247,226,210)"/>
  <rect x="8" y="9" width="1" height="1" fill="rgb(218,133,93)"/>
  <rect x="8" y="10" width="1" height="1" fill="rgb(209,114,80)"/>
  <rect x="8" y="11" width="1" height="1" fill="rgb(249,244,210)"/>
  <rect x="8" y="12" width="1" height="1" fill="rgb(248,246,220)"/>
  <rect x="8" y="13" width="1" height="1" fill="rgb(239,240,222)"/>
  <rect x="8" y="14" width="1" height="1" fill="rgb(179,104,93)"/>
  <rect x="8" y="15" width="1" height="1" fill="rgb(220,215,213)"/>
  <rect x="8" y="16" width="1" height="1" fill="rgb(160,155,157)"/>
  <rect x="8" y="17" width="1" height="1" fill="rgb(53,53,53)" fill-opacity="0.703125"/>
  <rect x="8" y="18" width="1" height="3" fill="rgb(255,255,255)" fill-opacity="0.0078125"/>
  <rect x="9" y="0" width="1" height="4" fill="rgb(255,255,255)" fill-opacity="0.0078125"/>
  <rect x="9" y="4" width="1" height="1" fill="rgb(56,54,54)" fill-opacity="0.9296875"/>
  <rect x="9" y="5" width="1" height="1" fill="rgb(238,225,210)"/>
  <rect x="9" y="6" width="1" height="1" fill="rgb(250,242,188)"/>
  <rect x="9" y="7" width="1" height="1" fill="rgb(255,255,253)"/>
  <rect x="9" y="8" width="1" height="1" fill="rgb(219,138,98)"/>
  <rect x="9" y="9" width="1" height="1" fill="rgb(209,113,79)"/>
  <rect x="9" y="10" width="1" height="1" fill="rgb(199,96,66)"/>
  <rect x="9" y="11" width="1" height="1" fill="rgb(246,242,214)"/>
  <rect x="9" y="12" width="1" height="1" fill="rgb(240,240,221)"/>
  <rect x="9" y="13" width="1" height="1" fill="rgb(231,232,224)"/>
  <rect x="9" y="14" width="1" height="1" fill="rgb(142,35,27)"/>
  <rect x="9" y="15" width="1" height="1" fill="rgb(138,43,40)"/>
  <rect x="9" y="16" width="1" height="1" fill="rgb(184,153,157)"/>
  <rect x="9" y="17" width="1" height="1" fill="rgb(56,54,54)" fill-opacity="0.9296875"/>
  <rect x="9" y="18" width="1" height="3" fill="rgb(255,255,255)" fill-opacity="0.0078125"/>
  <rect x="10" y="0" width="1" height="4" fill="rgb(255,255,255)" fill-opacity="0.0078125"/>
  <rect x="10" y="4" width="1" height="1" fill="rgb(54,52,52)" fill-opacity="0.9921875"/>
  <rect x="10" y="5" width="1" height="1" fill="rgb(249,247,232)"/>
  <rect x="10" y="6" width="1" height="1" fill="rgb(250,244,189)"/>
  <rect x="10" y="7" width="1" height="1" fill="rgb(252,250,225)"/>
  <rect x="10" y="8" width="1" height="1" fill="rgb(212,123,89)"/>
  <rect x="10" y="9" width="1" height="1" fill="rgb(201,101,70)"/>
  <rect x="10" y="10" width="1" height="1" fill="rgb(192,83,57)"/>
  <rect x="10" y="11" width="1" height="1" fill="rgb(237,231,211)"/>
  <rect x="10" y="12" width="1" height="1" fill="rgb(229,228,218)"/>
  <rect x="10" y="13" width="1" height="1" fill="rgb(220,221,219)"/>
  <rect x="10" y="14" width="1" height="1" fill="rgb(136,37,33)"/>
  <rect x="10" y="15" width="1" height="1" fill="rgb(128,33,33)"/>
  <rect x="10" y="16" width="1" height="1" fill="rgb(156,88,90)"/>
  <rect x="10" y="17" width="1" height="1" fill="rgb(57,51,51)" fill-opacity="0.9921875"/>
  <rect x="10" y="18" width="1" height="3" fill="rgb(255,255,255)" fill-opacity="0.0078125"/>
  <rect x="11" y="0" width="1" height="4" fill="rgb(255,255,255)" fill-opacity="0.0078125"/>
  <rect x="11" y="4" width="1" height="1" fill="rgb(54,52,52)" fill-opacity="0.9921875"/>
  <rect x="11" y="5" width="1" height="1" fill="rgb(243,218,205)"/>
  <rect x="11" y="6" width="1" height="1" fill="rgb(217,130,90)"/>
  <rect x="11" y="7" width="1" height="1" fill="rgb(208,112,78)"/>
  <rect x="11" y="8" width="1" height="1" fill="rgb(248,243,207)"/>
  <rect x="11" y="9" width="1" height="1" fill="rgb(250,248,219)"/>
  <rect x="11" y="10" width="1" height="1" fill="rgb(242,242,222)"/>
  <rect x="11" y="11" width="1" height="1" fill="rgb(157,49,34)"/>
  <rect x="11" y="12" width="1" height="1" fill="rgb(139,28,20)"/>
  <rect x="11" y="13" width="1" height="1" fill="rgb(131,24,20)"/>
  <rect x="11" y="14" width="1" height="1" fill="rgb(203,209,220)"/>
  <rect x="11" y="15" width="1" height="1" fill="rgb(197,207,223)"/>
  <rect x="11" y="16" width="1" height="1" fill="rgb(197,204,218)"/>
  <rect x="11" y="17" width="1" height="1" fill="rgb(54,52,52)" fill-opacity="0.9921875"/>
  <rect x="11" y="18" width="1" height="3" fill="rgb(255,255,255)" fill-opacity="0.0078125"/>
  <rect x="12" y="0" width="1" height="4" fill="rgb(255,255,255)" fill-opacity="0.0078125"/>
  <rect x="12" y="4" width="1" height="1" fill="rgb(56,54,54)" fill-opacity="0.9296875"/>
  <rect x="12" y="5" width="1" height="1" fill="rgb(231,215,200)"/>
  <rect x="12" y="6" width="1" height="1" fill="rgb(218,141,109)"/>
  <rect x="12" y="7" width="1" height="1" fill="rgb(199,95,64)"/>
  <rect x="12" y="8" width="1" height="1" fill="rgb(248,243,214)"/>
  <rect x="12" y="9" width="1" height="1" fill="rgb(243,243,222)"/>
  <rect x="12" y="10" width="1" height="1" fill="rgb(234,235,224)"/>
  <rect x="12" y="11" width="1" height="1" fill="rgb(142,32,24)"/>
  <rect x="12" y="12" width="1" height="1" fill="rgb(132,24,20)"/>
  <rect x="12" y="13" width="1" height="1" fill="rgb(127,27,26)"/>
  <rect x="12" y="14" width="1" height="1" fill="rgb(196,203,217)"/>
  <rect x="12" y="15" width="1" height="1" fill="rgb(190,203,221)"/>
  <rect x="12" y="16" width="1" height="1" fill="rgb(165,141,154)"/>
  <rect x="12" y="17" width="1" height="1" fill="rgb(56,54,54)" fill-opacity="0.9296875"/>
  <rect x="12" y="18" width="1" height="3" fill="rgb(255,255,255)" fill-opacity="0.0078125"/>
  <rect x="13" y="0" width="1" height="4" fill="rgb(255,255,255)" fill-opacity="0.0078125"/>
  <rect x="13" y="4" width="1" height="1" fill="rgb(53,53,53)" fill-opacity="0.703125"/>
  <rect x="13" y="5" width="1" height="1" fill="rgb(174,166,155)"/>
  <rect x="13" y="6" width="1" height="1" fill="rgb(250,245,223)"/>
  <rect x="13" y="7" width="1" height="1" fill="rgb(211,142,115)"/>
  <rect x="13" y="8" width="1" height="1" fill="rgb(241,238,216)"/>
  <rect x="13" y="9" width="1" height="1" fill="rgb(235,236,223)"/>
  <rect x="13" y="10" width="1" height="1" fill="rgb(225,229,225)"/>
  <rect x="13" y="11" width="1" height="1" fill="rgb(135,30,25)"/>
  <rect x="13" y="12" width="1" height="1" fill="rgb(127,27,25)"/>
  <rect x="13" y="13" width="1" height="1" fill="rgb(143,76,82)"/>
  <rect x="13" y="14" width="1" height="1" fill="rgb(181,181,197)"/>
  <rect x="13" y="15" width="1" height="1" fill="rgb(130,57,83)"/>
  <rect x="13" y="16" width="1" height="1" fill="rgb(140,70,80)"/>
  <rect x="13" y="17" width="1" height="1" fill="rgb(53,53,53)" fill-opacity="0.703125"/>
  <rect x="13" y="18" width="1" height="3" fill="rgb(255,255,255)" fill-opacity="0.0078125"/>
  <rect x="14" y="0" width="1" height="4" fill="rgb(255,255,255)" fill-opacity="0.0078125"/>
  <rect x="14" y="4" width="1" height="1" fill="rgb(57,57,57)" fill-opacity="0.078125"/>
  <rect x="14" y="5" width="1" height="1" fill="rgb(55,53,53)" fill-opacity="0.9921875"/>
  <rect x="14" y="6" width="1" height="1" fill="rgb(228,222,211)"/>
  <rect x="14" y="7" width="1" height="1" fill="rgb(247,247,228)"/>
  <rect x="14" y="8" width="1" height="1" fill="rgb(171,71,57)"/>
  <rect x="14" y="9" width="1" height="1" fill="rgb(179,119,112)"/>
  <rect x="14" y="10" width="1" height="1" fill="rgb(200,181,183)"/>
  <rect x="14" y="11" width="1" height="1" fill="rgb(152,82,84)"/>
  <rect x="14" y="12" width="1" height="1" fill="rgb(181,167,178)"/>
  <rect x="14" y="13" width="1" height="1" fill="rgb(191,203,221)"/>
  <rect x="14" y="14" width="1" height="1" fill="rgb(125,46,72)"/>
  <rect x="14" y="15" width="1" height="1" fill="rgb(139,66,86)"/>
  <rect x="14" y="16" width="1" height="1" fill="rgb(63,49,50)" fill-opacity="0.9921875"/>
  <rect x="14" y="17" width="1" height="1" fill="rgb(57,57,57)" fill-opacity="0.078125"/>
  <rect x="14" y="18" width="1" height="3" fill="rgb(255,255,255)" fill-opacity="0.0078125"/>
  <rect x="15" y="0" width="1" height="5" fill="rgb(255,255,255)" fill-opacity="0.0078125"/>
  <rect x="15" y="5" width="1" height="1" fill="rgb(52,52,52)" fill-opacity="0.390625"/>
  <rect x="15" y="6" width="1" height="1" fill="rgb(82,79,77)"/>
  <rect x="15" y="7" width="1" height="1" fill="rgb(221,216,210)"/>
  <rect x="15" y="8" width="1" height="1" fill="rgb(173,90,84)"/>
  <rect x="15" y="9" width="1" height="1" fill="rgb(141,38,33)"/>
  <rect x="15" y="10" width="1" height="1" fill="rgb(128,26,24)"/>
  <rect x="15" y="11" width="1" height="1" fill="rgb(199,205,218)"/>
  <rect x="15" y="12" width="1" height="1" fill="rgb(194,205,222)"/>
  <rect x="15" y="13" width="1" height="1" fill="rgb(193,205,222)"/>
  <rect x="15" y="14" width="1" height="1" fill="rgb(142,71,90)"/>
  <rect x="15" y="15" width="1" height="1" fill="rgb(82,70,72)"/>
  <rect x="15" y="16" width="1" height="1" fill="rgb(52,52,52)" fill-opacity="0.390625"/>
  <rect x="15" y="17" width="1" height="4" fill="rgb(255,255,255)" fill-opacity="0.0078125"/>
  <rect x="16" y="0" width="1" height="6" fill="rgb(255,255,255)" fill-opacity="0.0078125"/>
  <rect x="16" y="6" width="1" height="1" fill="rgb(53,53,53)" fill-opacity="0.3828125"/>
  <rect x="16" y="7" width="1" height="1" fill="rgb(55,53,53)" fill-opacity="0.984375"/>
  <rect x="16" y="8" width="1" height="1" fill="rgb(155,115,113)"/>
  <rect x="16" y="9" width="1" height="1" fill="rgb(179,129,129)"/>
  <rect x="16" y="10" width="1" height="1" fill="rgb(170,109,111)"/>
  <rect x="16" y="11" width="1" height="1" fill="rgb(200,203,215)"/>
  <rect x="16" y="12" width="1" height="1" fill="rgb(179,181,193)"/>
  <rect x="16" y="13" width="1" height="1" fill="rgb(136,134,144)"/>
  <rect x="16" y="14" width="1" height="1" fill="rgb(61,50,51)" fill-opacity="0.9921875"/>
  <rect x="16" y="15" width="1" height="1" fill="rgb(53,53,53)" fill-opacity="0.3828125"/>
  <rect x="16" y="16" width="1" height="5" fill="rgb(255,255,255)" fill-opacity="0.0078125"/>
  <rect x="17" y="0" width="1" height="7" fill="rgb(255,255,255)" fill-opacity="0.0078125"/>
  <rect x="17" y="7" width="1" height="1" fill="rgb(36,36,36)" fill-opacity="0.0625"/>
  <rect x="17" y="8" width="1" height="1" fill="rgb(52,52,52)" fill-opacity="0.6875"/>
  <rect x="17" y="9" width="1" height="1" fill="rgb(56,53,53)" fill-opacity="0.921875"/>
  <rect x="17" y="10" width="1" height="2" fill="rgb(54,52,52)" fill-opacity="0.9921875"/>
  <rect x="17" y="12" width="1" height="1" fill="rgb(56,53,53)" fill-opacity="0.921875"/>
  <rect x="17" y="13" width="1" height="1" fill="rgb(52,52,52)" fill-opacity="0.6875"/>
  <rect x="17" y="14" width="1" height="1" fill="rgb(36,36,36)" fill-opacity="0.0625"/>
  <rect x="17" y="15" width="1" height="6" fill="rgb(255,255,255)" fill-opacity="0.0078125"/>
  <rect x="18" y="0" width="1" height="21" fill="rgb(255,255,255)" fill-opacity="0.0078125"/>
  <rect x="19" y="0" width="1" height="21" fill="rgb(255,255,255)" fill-opacity="0.0078125"/>
  <rect x="20" y="0" width="1" height="21" fill="rgb(255,255,255)" fill-opacity="0.0078125"/>
</svg>