<svg xmlns="http://www.w3.org/2000/svg" shape-rendering="crispEdges" width="21" height="21" viewBox="0 0 21 21">
  <rect x="0" y="0" width="1" height="21" fill="rgb(255,255,255)" fill-opacity="0.0078125"/>
  <rect x="1" y="0" width="1" height="21" fill="rgb(255,255,255)" fill-opacity="0.0078125"/>
  <rect x="2" y="0" width="1" height="21" fill="rgb(255,255,255)" fill-opacity="0.0078125"/>
  <rect x="3" y="0" width="1" height="21" fill="rgb(255,255,255)" fill-opacity="0.0078125"/>
  <rect x="4" y="0" width="1" height="21" fill="rgb(255,255,255)" fill-opacity="0.0078125"/>
  <rect x="5" y="0" width="1" height="21" fill="rgb(255,255,255)" fill-opacity="0.0078125"/>
  <rect x="6" y="0" width="1" height="10" fill="rgb(255,255,255)" fill-opacity="0.0078125"/>
  <rect x="6" y="10" width="1" height="1" fill="rgb(8,23,39)" fill-opacity="0.1328125"/>
  <rect x="6" y="11" width="1" height="1" fill="rgb(12,28,49)" fill-opacity="0.5703125"/>
  <rect x="6" y="12" width="1" height="1" fill="rgb(13,29,52)" fill-opacity="0.796875"/>
  <rect x="6" y="13" width="1" height="1" fill="rgb(12,28,50)" fill-opacity="0.8828125"/>
  <rect x="6" y="14" width="1" height="1" fill="rgb(13,28,50)" fill-opacity="0.78125"/>
  <rect x="6" y="15" width="1" height="1" fill="rgb(12,27,47)" fill-opacity="0.4921875"/>
  <rect x="6" y="16" width="1" height="1" fill="rgb(0,32,32)" fill-opacity="0.0390625"/>
  <rect x="6" y="17" width="1" height="4" fill="rgb(255,255,255)" fill-opacity="0.0078125"/>
  <rect x="7" y="0" width="1" height="8" fill="rgb(255,255,255)" fill-opacity="0.0078125"/>
  <rect x="7" y="8" width="1" height="1" fill="rgb(21,21,43)" fill-opacity="0.0546875"/>
  <rect x="7" y="9" width="1" height="1" fill="rgb(14,28,52)" fill-opacity="0.5859375"/>
  <rect x="7" y="10" width="1" height="1" fill="rgb(35,53,77)" fill-opacity="0.9140625"/>
  <rect x="7" y="11" width="1" height="1" fill="rgb(172,188,211)" fill-opacity="0.953125"/>
  <rect x="7" y="12" width="1" height="1" fill="rgb(222,230,243)" fill-opacity="0.96875"/>
  <rect x="7" y="13" width="1" height="1" fill="rgb(244,247,252)" fill-opacity="0.984375"/>
  <rect x="7" y="14" width="1" height="1" fill="rgb(212,223,238)" fill-opacity="0.9375"/>
  <rect x="7" y="15" width="1" height="1" fill="rgb(134,153,179)" fill-opacity="0.8671875"/>
  <rect x="7" y="16" width="1" height="1" fill="rgb(17,31,51)" fill-opacity="0.8359375"/>
  <rect x="7" y="17" width="1" height="1" fill="rgb(12,23,41)" fill-opacity="0.1796875"/>
  <rect x="7" y="18" width="1" height="3" fill="rgb(255,255,255)" fill-opacity="0.0078125"/>
  <rect x="8" y="0" width="1" height="7" fill="rgb(255,255,255)" fill-opacity="0.0078125"/>
  <rect x="8" y="7" width="1" height="1" fill="rgb(12,24,44)" fill-opacity="0.2578125"/>
  <rect x="8" y="8" width="1" height="1" fill="rgb(20,34,56)" fill-opacity="0.890625"/>
  <rect x="8" y="9" width="1" height="1" fill="rgb(140,159,186)" fill-opacity="0.9453125"/>
  <rect x="8" y="10" width="1" height="1" fill="rgb(251,252,254)"/>
  <rect x="8" y="11" width="1" height="1" fill="rgb(255,255,255)"/>
  <rect x="8" y="12" width="1" height="1" fill="rgb(128,164,216)" fill-opacity="0.8828125"/>
  <rect x="8" y="13" width="1" height="1" fill="rgb(75,128,204)" fill-opacity="0.8046875"/>
  <rect x="8" y="14" width="1" height="1" fill="rgb(109,153,216)" fill-opacity="0.8046875"/>
  <rect x="8" y="15" width="1" height="1" fill="rgb(188,209,238)" fill-opacity="0.875"/>
  <rect x="8" y="16" width="1" height="1" fill="rgb(184,201,224)" fill-opacity="0.8359375"/>
  <rect x="8" y="17" width="1" height="1" fill="rgb(15,29,50)" fill-opacity="0.828125"/>
  <rect x="8" y="18" width="1" height="1" fill="rgb(0,32,32)" fill-opacity="0.0390625"/>
  <rect x="8" y="19" width="1" height="2" fill="rgb(255,255,255)" fill-opacity="0.0078125"/>
  <rect x="9" y="0" width="1" height="5" fill="rgb(255,255,255)" fill-opacity="0.0078125"/>
  <rect x="9" y="5" width="1" height="1" fill="rgb(12,24,36)" fill-opacity="0.0859375"/>
  <rect x="9" y="6" width="1" height="1" fill="rgb(14,29,53)" fill-opacity="0.6484375"/>
  <rect x="9" y="7" width="1" height="1" fill="rgb(92,107,128)" fill-opacity="0.9453125"/>
  <rect x="9" y="8" width="1" height="1" fill="rgb(225,232,243)" fill-opacity="0.9765625"/>
  <rect x="9" y="9" width="1" height="1" fill="rgb(200,215,237)" fill-opacity="0.953125"/>
  <rect x="9" y="10" width="1" height="1" fill="rgb(255,255,255)"/>
  <rect x="9" y="11" width="1" height="1" fill="rgb(210,223,242)" fill-opacity="0.953125"/>
  <rect x="9" y="12" width="1" height="1" fill="rgb(60,117,202)" fill-opacity="0.7890625"/>
  <rect x="9" y="13" width="1" height="1" fill="rgb(62,119,205)" fill-opacity="0.7578125"/>
  <rect x="9" y="14" width="1" height="1" fill="rgb(65,124,210)" fill-opacity="0.7265625"/>
  <rect x="9" y="15" width="1" height="1" fill="rgb(67,127,213)" fill-opacity="0.6875"/>
  <rect x="9" y="16" width="1" height="1" fill="rgb(177,203,239)" fill-opacity="0.8046875"/>
  <rect x="9" y="17" width="1" height="1" fill="rgb(114,133,160)" fill-opacity="0.75"/>
  <rect x="9" y="18" width="1" height="1" fill="rgb(13,25,44)" fill-opacity="0.4765625"/>
  <rect x="9" y="19" width="1" height="2" fill="rgb(255,255,255)" fill-opacity="0.0078125"/>
  <rect x="10" y="0" width="1" height="3" fill="rgb(255,255,255)" fill-opacity="0.0078125"/>
  <rect x="10" y="3" width="1" height="1" fill="rgb(0,23,46)" fill-opacity="0.046875"/>
  <rect x="10" y="4" width="1" height="1" fill="rgb(13,28,51)" fill-opacity="0.5390625"/>
  <rect x="10" y="5" width="1" height="1" fill="rgb(55,69,90)" fill-opacity="0.9296875"/>
  <rect x="10" y="6" width="1" height="1" fill="rgb(192,203,218)" fill-opacity="0.9765625"/>
  <rect x="10" y="7" width="1" height="1" fill="rgb(217,227,241)" fill-opacity="0.96875"/>
  <rect x="10" y="8" width="1" height="1" fill="rgb(104,145,202)" fill-opacity="0.8515625"/>
  <rect x="10" y="9" width="1" height="1" fill="rgb(49,105,189)" fill-opacity="0.8203125"/>
  <rect x="10" y="10" width="1" height="1" fill="rgb(88,137,205)" fill-opacity="0.828125"/>
  <rect x="10" y="11" width="1" height="1" fill="rgb(59,117,201)" fill-opacity="0.78125"/>
  <rect x="10" y="12" width="1" height="1" fill="rgb(65,123,207)" fill-opacity="0.7578125"/>
  <rect x="10" y="13" width="1" height="1" fill="rgb(85,139,216)" fill-opacity="0.75"/>
  <rect x="10" y="14" width="1" height="1" fill="rgb(97,147,222)" fill-opacity="0.734375"/>
  <rect x="10" y="15" width="1" height="1" fill="rgb(103,152,224)" fill-opacity="0.703125"/>
  <rect x="10" y="16" width="1" height="1" fill="rgb(129,169,232)" fill-opacity="0.703125"/>
  <rect x="10" y="17" width="1" height="1" fill="rgb(177,196,226)" fill-opacity="0.734375"/>
  <rect x="10" y="18" width="1" height="1" fill="rgb(12,26,46)" fill-opacity="0.7421875"/>
  <rect x="10" y="19" width="1" height="2" fill="rgb(255,255,255)" fill-opacity="0.0078125"/>
  <rect x="11" y="0" width="1" height="3" fill="rgb(255,255,255)" fill-opacity="0.0078125"/>
  <rect x="11" y="3" width="1" height="1" fill="rgb(13,28,49)" fill-opacity="0.6953125"/>
  <rect x="11" y="4" width="1" height="1" fill="rgb(67,83,107)" fill-opacity="0.9765625"/>
  <rect x="11" y="5" width="1" height="1" fill="rgb(233,239,246)" fill-opacity="0.9921875"/>
  <rect x="11" y="6" width="1" height="1" fill="rgb(204,217,237)" fill-opacity="0.953125"/>
  <rect x="11" y="7" width="1" height="1" fill="rgb(52,105,185)" fill-opacity="0.7890625"/>
  <rect x="11" y="8" width="1" height="1" fill="rgb(40,98,185)" fill-opacity="0.7421875"/>
  <rect x="11" y="9" width="1" height="1" fill="rgb(51,110,195)" fill-opacity="0.78125"/>
  <rect x="11" y="10" width="1" height="1" fill="rgb(58,115,200)" fill-opacity="0.765625"/>
  <rect x="11" y="11" width="1" height="1" fill="rgb(61,120,205)" fill-opacity="0.7421875"/>
  <rect x="11" y="12" width="1" height="1" fill="rgb(90,141,216)" fill-opacity="0.75"/>
  <rect x="11" y="13" width="1" height="1" fill="rgb(110,157,224)" fill-opacity="0.7578125"/>
  <rect x="11" y="14" width="1" height="1" fill="rgb(128,169,231)" fill-opacity="0.75"/>
  <rect x="11" y="15" width="1" height="1" fill="rgb(132,175,234)" fill-opacity="0.7265625"/>
  <rect x="11" y="16" width="1" height="1" fill="rgb(133,176,236)" fill-opacity="0.6875"/>
  <rect x="11" y="17" width="1" height="1" fill="rgb(197,217,247)" fill-opacity="0.7109375"/>
  <rect x="11" y="18" width="1" height="1" fill="rgb(12,24,43)" fill-opacity="0.8671875"/>
  <rect x="11" y="19" width="1" height="2" fill="rgb(255,255,255)" fill-opacity="0.0078125"/>
  <rect x="12" y="0" width="1" height="3" fill="rgb(255,255,255)" fill-opacity="0.0078125"/>
  <rect x="12" y="3" width="1" height="1" fill="rgb(0,23,46)" fill-opacity="0.046875"/>
  <rect x="12" y="4" width="1" height="1" fill="rgb(13,29,51)" fill-opacity="0.53125"/>
  <rect x="12" y="5" width="1" height="1" fill="rgb(43,57,79)" fill-opacity="0.9140625"/>
  <rect x="12" y="6" width="1" height="1" fill="rgb(155,172,197)" fill-opacity="0.9296875"/>
  <rect x="12" y="7" width="1" height="1" fill="rgb(199,214,236)" fill-opacity="0.9140625"/>
  <rect x="12" y="8" width="1" height="1" fill="rgb(116,155,212)" fill-opacity="0.7734375"/>
  <rect x="12" y="9" width="1" height="1" fill="rgb(56,116,199)" fill-opacity="0.734375"/>
  <rect x="12" y="10" width="1" height="1" fill="rgb(61,119,205)" fill-opacity="0.7265625"/>
  <rect x="12" y="11" width="1" height="1" fill="rgb(72,130,212)" fill-opacity="0.71875"/>
  <rect x="12" y="12" width="1" height="1" fill="rgb(104,154,223)" fill-opacity="0.734375"/>
  <rect x="12" y="13" width="1" height="1" fill="rgb(130,171,231)" fill-opacity="0.75"/>
  <rect x="12" y="14" width="1" height="1" fill="rgb(152,187,238)" fill-opacity="0.7734375"/>
  <rect x="12" y="15" width="1" height="1" fill="rgb(158,191,240)" fill-opacity="0.75"/>
  <rect x="12" y="16" width="1" height="1" fill="rgb(160,194,244)" fill-opacity="0.703125"/>
  <rect x="12" y="17" width="1" height="1" fill="rgb(173,195,224)" fill-opacity="0.6484375"/>
  <rect x="12" y="18" width="1" height="1" fill="rgb(12,25,44)" fill-opacity="0.734375"/>
  <rect x="12" y="19" width="1" height="2" fill="rgb(255,255,255)" fill-opacity="0.0078125"/>
  <rect x="13" y="0" width="1" height="5" fill="rgb(255,255,255)" fill-opacity="0.0078125"/>
  <rect x="13" y="5" width="1" height="1" fill="rgb(12,24,36)" fill-opacity="0.0859375"/>
  <rect x="13" y="6" width="1" height="1" fill="rgb(13,29,51)" fill-opacity="0.6328125"/>
  <rect x="13" y="7" width="1" height="1" fill="rgb(52,69,93)" fill-opacity="0.890625"/>
  <rect x="13" y="8" width="1" height="1" fill="rgb(168,189,219)" fill-opacity="0.828125"/>
  <rect x="13" y="9" width="1" height="1" fill="rgb(161,189,230)" fill-opacity="0.8125"/>
  <rect x="13" y="10" width="1" height="1" fill="rgb(83,135,214)" fill-opacity="0.703125"/>
  <rect x="13" y="11" width="1" height="1" fill="rgb(76,134,218)" fill-opacity="0.671875"/>
  <rect x="13" y="12" width="1" height="1" fill="rgb(107,156,228)" fill-opacity="0.703125"/>
  <rect x="13" y="13" width="1" height="1" fill="rgb(136,176,234)" fill-opacity="0.7265625"/>
  <rect x="13" y="14" width="1" height="1" fill="rgb(158,191,242)" fill-opacity="0.75"/>
  <rect x="13" y="15" width="1" height="1" fill="rgb(164,195,244)" fill-opacity="0.7265625"/>
  <rect x="13" y="16" width="1" height="1" fill="rgb(183,209,248)" fill-opacity="0.7265625"/>
  <rect x="13" y="17" width="1" height="1" fill="rgb(91,109,134)" fill-opacity="0.640625"/>
  <rect x="13" y="18" width="1" height="1" fill="rgb(13,26,43)" fill-opacity="0.4765625"/>
  <rect x="13" y="19" width="1" height="2" fill="rgb(255,255,255)" fill-opacity="0.0078125"/>
  <rect x="14" y="0" width="1" height="7" fill="rgb(255,255,255)" fill-opacity="0.0078125"/>
  <rect x="14" y="7" width="1" height="1" fill="rgb(12,24,40)" fill-opacity="0.2578125"/>
  <rect x="14" y="8" width="1" height="1" fill="rgb(15,29,50)" fill-opacity="0.859375"/>
  <rect x="14" y="9" width="1" height="1" fill="rgb(94,117,154)" fill-opacity="0.7734375"/>
  <rect x="14" y="10" width="1" height="1" fill="rgb(166,195,235)" fill-opacity="0.7890625"/>
  <rect x="14" y="11" width="1" height="1" fill="rgb(133,173,232)" fill-opacity="0.7109375"/>
  <rect x="14" y="12" width="1" height="1" fill="rgb(125,168,234)" fill-opacity="0.6796875"/>
  <rect x="14" y="13" width="1" height="1" fill="rgb(132,175,236)" fill-opacity="0.6796875"/>
  <rect x="14" y="14" width="1" height="1" fill="rgb(155,190,243)" fill-opacity="0.6953125"/>
  <rect x="14" y="15" width="1" height="1" fill="rgb(179,205,248)" fill-opacity="0.703125"/>
  <rect x="14" y="16" width="1" height="1" fill="rgb(147,172,207)" fill-opacity="0.6015625"/>
  <rect x="14" y="17" width="1" height="1" fill="rgb(14,26,45)" fill-opacity="0.8125"/>
  <rect x="14" y="18" width="1" height="1" fill="rgb(0,32,32)" fill-opacity="0.0390625"/>
  <rect x="14" y="19" width="1" height="2" fill="rgb(255,255,255)" fill-opacity="0.0078125"/>
  <rect x="15" y="0" width="1" height="8" fill="rgb(255,255,255)" fill-opacity="0.0078125"/>
  <rect x="15" y="8" width="1" height="1" fill="rgb(21,21,43)" fill-opacity="0.0546875"/>
  <rect x="15" y="9" width="1" height="1" fill="rgb(13,27,47)" fill-opacity="0.5625"/>
  <rect x="15" y="10" width="1" height="1" fill="rgb(24,39,62)" fill-opacity="0.84375"/>
  <rect x="15" y="11" width="1" height="1" fill="rgb(97,125,167)" fill-opacity="0.71875"/>
  <rect x="15" y="12" width="1" height="1" fill="rgb(138,172,222)" fill-opacity="0.6953125"/>
  <rect x="15" y="13" width="1" height="1" fill="rgb(163,194,243)" fill-opacity="0.6796875"/>
  <rect x="15" y="14" width="1" height="1" fill="rgb(143,175,220)" fill-opacity="0.640625"/>
  <rect x="15" y="15" width="1" height="1" fill="rgb(76,96,128)" fill-opacity="0.6484375"/>
  <rect x="15" y="16" width="1" height="1" fill="rgb(12,25,43)" fill-opacity="0.8125"/>
  <rect x="15" y="17" width="1" height="1" fill="rgb(12,23,41)" fill-opacity="0.1796875"/>
  <rect x="15" y="18" width="1" height="3" fill="rgb(255,255,255)" fill-opacity="0.0078125"/>
  <rect x="16" y="0" width="1" height="10" fill="rgb(255,255,255)" fill-opacity="0.0078125"/>
  <rect x="16" y="10" width="1" height="1" fill="rgb(8,23,39)" fill-opacity="0.1328125"/>
  <rect x="16" y="11" width="1" height="1" fill="rgb(11,26,44)" fill-opacity="0.546875"/>
  <rect x="16" y="12" width="1" height="1" fill="rgb(12,26,44)" fill-opacity="0.75"/>
  <rect x="16" y="13" width="1" height="1" fill="rgb(12,25,43)" fill-opacity="0.84375"/>
  <rect x="16" y="14" width="1" height="1" fill="rgb(12,25,44)" fill-opacity="0.734375"/>
  <rect x="16" y="15" width="1" height="1" fill="rgb(13,26,43)" fill-opacity="0.4765625"/>
  <rect x="16" y="16" width="1" height="1" fill="rgb(0,32,32)" fill-opacity="0.0390625"/>
  <rect x="16" y="17" width="1" height="4" fill="rgb(255,255,255)" fill-opacity="0.0078125"/>
  <rect x="17" y="0" width="1" height="21" fill="rgb(255,255,255)" fill-opacity="0.0078125"/>
  <rect x="18" y="0" width="1" height="21" fill="rgb(255,255,255)" fill-opacity="0.0078125"/>
  <rect x="19" y="0" width="1" height="21" fill="rgb(255,255,255)" fill-opacity="0.0078125"/>
  <rect x="20" y="0" width="1" height="21" fill="rgb(255,255,255)" fill-opacity="0.0078125"/>
</svg>