<svg xmlns="http://www.w3.org/2000/svg" shape-rendering="crispEdges" width="21" height="21" viewBox="0 0 21 21">
  <rect x="0" y="0" width="1" height="21" fill="rgb(255,255,255)" fill-opacity="0.0078125"/>
  <rect x="1" y="0" width="1" height="21" fill="rgb(255,255,255)" fill-opacity="0.0078125"/>
  <rect x="2" y="0" width="1" height="21" fill="rgb(255,255,255)" fill-opacity="0.0078125"/>
  <rect x="3" y="0" width="1" height="21" fill="rgb(255,255,255)" fill-opacity="0.0078125"/>
  <rect x="4" y="0" width="1" height="10" fill="rgb(255,255,255)" fill-opacity="0.0078125"/>
  <rect x="4" y="10" width="1" height="1" fill="rgb(21,21,21)" fill-opacity="0.0546875"/>
  <rect x="4" y="11" width="1" height="1" fill="rgb(43,43,43)" fill-opacity="0.578125"/>
  <rect x="4" y="12" width="1" height="1" fill="rgb(47,47,47)" fill-opacity="0.890625"/>
  <rect x="4" y="13" width="1" height="1" fill="rgb(46,46,46)" fill-opacity="0.7265625"/>
  <rect x="4" y="14" width="1" height="1" fill="rgb(29,29,29)" fill-opacity="0.109375"/>
  <rect x="4" y="15" width="1" height="6" fill="rgb(255,255,255)" fill-opacity="0.0078125"/>
  <rect x="5" y="0" width="1" height="10" fill="rgb(255,255,255)" fill-opacity="0.0078125"/>
  <rect x="5" y="10" width="1" height="1" fill="rgb(46,46,46)" fill-opacity="0.640625"/>
  <rect x="5" y="11" width="1" height="1" fill="rgb(184,184,184)" fill-opacity="0.9921875"/>
  <rect x="5" y="12" width="1" height="1" fill="rgb(253,253,253)"/>
  <rect x="5" y="13" width="1" height="1" fill="rgb(226,226,226)"/>
  <rect x="5" y="14" width="1" height="1" fill="rgb(43,43,43)" fill-opacity="0.7734375"/>
  <rect x="5" y="15" width="1" height="6" fill="rgb(255,255,255)" fill-opacity="0.0078125"/>
  <rect x="6" y="0" width="1" height="9" fill="rgb(255,255,255)" fill-opacity="0.0078125"/>
  <rect x="6" y="9" width="1" height="1" fill="rgb(0,0,0)" fill-opacity="0.0078125"/>
  <rect x="6" y="10" width="1" height="1" fill="rgb(45,45,45)" fill-opacity="0.9453125"/>
  <rect x="6" y="11" width="1" height="1" fill="rgb(253,253,253)"/>
  <rect x="6" y="12" width="1" height="1" fill="rgb(223,223,223)"/>
  <rect x="6" y="13" width="1" height="1" fill="rgb(214,214,214)"/>
  <rect x="6" y="14" width="1" height="1" fill="rgb(41,41,41)" fill-opacity="0.8984375"/>
  <rect x="6" y="15" width="1" height="6" fill="rgb(255,255,255)" fill-opacity="0.0078125"/>
  <rect x="7" y="0" width="1" height="10" fill="rgb(255,255,255)" fill-opacity="0.0078125"/>
  <rect x="7" y="10" width="1" height="1" fill="rgb(65,65,65)" fill-opacity="0.7578125"/>
  <rect x="7" y="11" width="1" height="1" fill="rgb(248,248,248)"/>
  <rect x="7" y="12" width="1" height="1" fill="rgb(229,229,229)"/>
  <rect x="7" y="13" width="1" height="1" fill="rgb(204,204,204)"/>
  <rect x="7" y="14" width="1" height="1" fill="rgb(102,102,102)" fill-opacity="0.9453125"/>
  <rect x="7" y="15" width="1" height="1" fill="rgb(42,42,42)" fill-opacity="0.890625"/>
  <rect x="7" y="16" width="1" height="1" fill="rgb(43,43,43)" fill-opacity="0.75"/>
  <rect x="7" y="17" width="1" height="1" fill="rgb(31,31,31)" fill-opacity="0.1015625"/>
  <rect x="7" y="18" width="1" height="3" fill="rgb(255,255,255)" fill-opacity="0.0078125"/>
  <rect x="8" y="0" width="1" height="9" fill="rgb(255,255,255)" fill-opacity="0.0078125"/>
  <rect x="8" y="9" width="1" height="1" fill="rgb(25,25,25)" fill-opacity="0.1640625"/>
  <rect x="8" y="10" width="1" height="1" fill="rgb(100,100,100)" fill-opacity="0.9375"/>
  <rect x="8" y="11" width="1" height="1" fill="rgb(180,180,180)"/>
  <rect x="8" y="12" width="1" height="1" fill="rgb(233,233,233)"/>
  <rect x="8" y="13" width="1" height="1" fill="rgb(200,200,200)"/>
  <rect x="8" y="14" width="1" height="1" fill="rgb(229,229,229)"/>
  <rect x="8" y="15" width="1" height="1" fill="rgb(253,253,253)"/>
  <rect x="8" y="16" width="1" height="1" fill="rgb(148,148,148)"/>
  <rect x="8" y="17" width="1" height="1" fill="rgb(42,42,42)" fill-opacity="0.71875"/>
  <rect x="8" y="18" width="1" height="3" fill="rgb(255,255,255)" fill-opacity="0.0078125"/>
  <rect x="9" y="0" width="1" height="8" fill="rgb(255,255,255)" fill-opacity="0.0078125"/>
  <rect x="9" y="8" width="1" height="1" fill="rgb(24,24,24)" fill-opacity="0.171875"/>
  <rect x="9" y="9" width="1" height="1" fill="rgb(101,101,101)" fill-opacity="0.9296875"/>
  <rect x="9" y="10" width="1" height="1" fill="rgb(249,249,249)"/>
  <rect x="9" y="11" width="1" height="1" fill="rgb(216,216,216)"/>
  <rect x="9" y="12" width="1" height="1" fill="rgb(204,204,204)"/>
  <rect x="9" y="13" width="1" height="1" fill="rgb(189,189,189)"/>
  <rect x="9" y="14" width="1" height="1" fill="rgb(188,188,188)"/>
  <rect x="9" y="15" width="1" height="1" fill="rgb(180,180,180)"/>
  <rect x="9" y="16" width="1" height="1" fill="rgb(167,167,167)"/>
  <rect x="9" y="17" width="1" height="1" fill="rgb(37,37,37)" fill-opacity="0.8828125"/>
  <rect x="9" y="18" width="1" height="3" fill="rgb(255,255,255)" fill-opacity="0.0078125"/>
  <rect x="10" y="0" width="1" height="5" fill="rgb(255,255,255)" fill-opacity="0.0078125"/>
  <rect x="10" y="5" width="1" height="1" fill="rgb(0,0,0)" fill-opacity="0.015625"/>
  <rect x="10" y="6" width="1" height="1" fill="rgb(255,255,255)" fill-opacity="0.0078125"/>
  <rect x="10" y="7" width="1" height="1" fill="rgb(23,23,23)" fill-opacity="0.1796875"/>
  <rect x="10" y="8" width="1" height="1" fill="rgb(101,101,101)" fill-opacity="0.9296875"/>
  <rect x="10" y="9" width="1" height="1" fill="rgb(249,249,249)"/>
  <rect x="10" y="10" width="1" height="1" fill="rgb(226,226,226)"/>
  <rect x="10" y="11" width="1" height="1" fill="rgb(209,209,209)"/>
  <rect x="10" y="12" width="1" height="1" fill="rgb(193,193,193)"/>
  <rect x="10" y="13" width="1" height="1" fill="rgb(116,116,116)"/>
  <rect x="10" y="14" width="1" height="1" fill="rgb(149,149,149)"/>
  <rect x="10" y="15" width="1" height="1" fill="rgb(175,175,175)"/>
  <rect x="10" y="16" width="1" height="1" fill="rgb(105,105,105)" fill-opacity="0.984375"/>
  <rect x="10" y="17" width="1" height="1" fill="rgb(38,38,38)" fill-opacity="0.578125"/>
  <rect x="10" y="18" width="1" height="3" fill="rgb(255,255,255)" fill-opacity="0.0078125"/>
  <rect x="11" y="0" width="1" height="3" fill="rgb(255,255,255)" fill-opacity="0.0078125"/>
  <rect x="11" y="3" width="1" height="1" fill="rgb(21,21,21)" fill-opacity="0.0546875"/>
  <rect x="11" y="4" width="1" height="1" fill="rgb(48,48,48)" fill-opacity="0.6484375"/>
  <rect x="11" y="5" width="1" height="1" fill="rgb(45,45,45)" fill-opacity="0.9453125"/>
  <rect x="11" y="6" width="1" height="1" fill="rgb(56,56,56)" fill-opacity="0.796875"/>
  <rect x="11" y="7" width="1" height="1" fill="rgb(101,101,101)" fill-opacity="0.9375"/>
  <rect x="11" y="8" width="1" height="1" fill="rgb(250,250,250)"/>
  <rect x="11" y="9" width="1" height="1" fill="rgb(229,229,229)"/>
  <rect x="11" y="10" width="1" height="1" fill="rgb(213,213,213)"/>
  <rect x="11" y="11" width="1" height="1" fill="rgb(205,205,205)"/>
  <rect x="11" y="12" width="1" height="1" fill="rgb(170,170,170)"/>
  <rect x="11" y="13" width="1" height="1" fill="rgb(44,44,44)" fill-opacity="0.90625"/>
  <rect x="11" y="14" width="1" height="1" fill="rgb(43,43,43)" fill-opacity="0.7265625"/>
  <rect x="11" y="15" width="1" height="1" fill="rgb(37,37,37)" fill-opacity="0.9453125"/>
  <rect x="11" y="16" width="1" height="1" fill="rgb(39,39,39)" fill-opacity="0.640625"/>
  <rect x="11" y="17" width="1" height="1" fill="rgb(21,21,21)" fill-opacity="0.0546875"/>
  <rect x="11" y="18" width="1" height="3" fill="rgb(255,255,255)" fill-opacity="0.0078125"/>
  <rect x="12" y="0" width="1" height="3" fill="rgb(255,255,255)" fill-opacity="0.0078125"/>
  <rect x="12" y="3" width="1" height="1" fill="rgb(46,46,46)" fill-opacity="0.5859375"/>
  <rect x="12" y="4" width="1" height="1" fill="rgb(182,182,182)" fill-opacity="0.9921875"/>
  <rect x="12" y="5" width="1" height="1" fill="rgb(254,254,254)"/>
  <rect x="12" y="6" width="1" height="1" fill="rgb(249,249,249)"/>
  <rect x="12" y="7" width="1" height="1" fill="rgb(181,181,181)"/>
  <rect x="12" y="8" width="1" height="1" fill="rgb(227,227,227)"/>
  <rect x="12" y="9" width="1" height="1" fill="rgb(217,217,217)"/>
  <rect x="12" y="10" width="1" height="1" fill="rgb(209,209,209)"/>
  <rect x="12" y="11" width="1" height="1" fill="rgb(172,172,172)"/>
  <rect x="12" y="12" width="1" height="1" fill="rgb(43,43,43)" fill-opacity="0.90625"/>
  <rect x="12" y="13" width="1" height="1" fill="rgb(26,26,26)" fill-opacity="0.15625"/>
  <rect x="12" y="14" width="1" height="7" fill="rgb(255,255,255)" fill-opacity="0.0078125"/>
  <rect x="13" y="0" width="1" height="3" fill="rgb(255,255,255)" fill-opacity="0.0078125"/>
  <rect x="13" y="3" width="1" height="1" fill="rgb(47,47,47)" fill-opacity="0.890625"/>
  <rect x="13" y="4" width="1" height="1" fill="rgb(254,254,254)"/>
  <rect x="13" y="5" width="1" height="1" fill="rgb(249,249,249)"/>
  <rect x="13" y="6" width="1" height="1" fill="rgb(245,245,245)"/>
  <rect x="13" y="7" width="1" height="1" fill="rgb(243,243,243)"/>
  <rect x="13" y="8" width="1" height="1" fill="rgb(222,222,222)"/>
  <rect x="13" y="9" width="1" height="1" fill="rgb(205,205,205)"/>
  <rect x="13" y="10" width="1" height="1" fill="rgb(176,176,176)"/>
  <rect x="13" y="11" width="1" height="1" fill="rgb(43,43,43)" fill-opacity="0.8984375"/>
  <rect x="13" y="12" width="1" height="1" fill="rgb(27,27,27)" fill-opacity="0.15625"/>
  <rect x="13" y="13" width="1" height="8" fill="rgb(255,255,255)" fill-opacity="0.0078125"/>
  <rect x="14" y="0" width="1" height="3" fill="rgb(255,255,255)" fill-opacity="0.0078125"/>
  <rect x="14" y="3" width="1" height="1" fill="rgb(50,50,50)" fill-opacity="0.71875"/>
  <rect x="14" y="4" width="1" height="1" fill="rgb(234,234,234)"/>
  <rect x="14" y="5" width="1" height="1" fill="rgb(244,244,244)"/>
  <rect x="14" y="6" width="1" height="1" fill="rgb(234,234,234)"/>
  <rect x="14" y="7" width="1" height="1" fill="rgb(226,226,226)"/>
  <rect x="14" y="8" width="1" height="1" fill="rgb(209,209,209)"/>
  <rect x="14" y="9" width="1" height="1" fill="rgb(120,120,120)"/>
  <rect x="14" y="10" width="1" height="1" fill="rgb(45,45,45)" fill-opacity="0.8984375"/>
  <rect x="14" y="11" width="1" height="1" fill="rgb(28,28,28)" fill-opacity="0.1484375"/>
  <rect x="14" y="12" width="1" height="9" fill="rgb(255,255,255)" fill-opacity="0.0078125"/>
  <rect x="15" y="0" width="1" height="3" fill="rgb(255,255,255)" fill-opacity="0.0078125"/>
  <rect x="15" y="3" width="1" height="1" fill="rgb(26,26,26)" fill-opacity="0.1171875"/>
  <rect x="15" y="4" width="1" height="1" fill="rgb(49,49,49)" fill-opacity="0.765625"/>
  <rect x="15" y="5" width="1" height="1" fill="rgb(43,43,43)" fill-opacity="0.90625"/>
  <rect x="15" y="6" width="1" height="1" fill="rgb(116,116,116)" fill-opacity="0.9453125"/>
  <rect x="15" y="7" width="1" height="1" fill="rgb(242,242,242)"/>
  <rect x="15" y="8" width="1" height="1" fill="rgb(214,214,214)"/>
  <rect x="15" y="9" width="1" height="1" fill="rgb(182,182,182)"/>
  <rect x="15" y="10" width="1" height="1" fill="rgb(42,42,42)" fill-opacity="0.84375"/>
  <rect x="15" y="11" width="1" height="10" fill="rgb(255,255,255)" fill-opacity="0.0078125"/>
  <rect x="16" y="0" width="1" height="6" fill="rgb(255,255,255)" fill-opacity="0.0078125"/>
  <rect x="16" y="6" width="1" height="1" fill="rgb(41,41,41)" fill-opacity="0.9140625"/>
  <rect x="16" y="7" width="1" height="1" fill="rgb(254,254,254)"/>
  <rect x="16" y="8" width="1" height="1" fill="rgb(211,211,211)"/>
  <rect x="16" y="9" width="1" height="1" fill="rgb(201,201,201)"/>
  <rect x="16" y="10" width="1" height="1" fill="rgb(40,40,40)" fill-opacity="0.921875"/>
  <rect x="16" y="11" width="1" height="10" fill="rgb(255,255,255)" fill-opacity="0.0078125"/>
  <rect x="17" y="0" width="1" height="6" fill="rgb(255,255,255)" fill-opacity="0.0078125"/>
  <rect x="17" y="6" width="1" height="1" fill="rgb(46,46,46)" fill-opacity="0.75"/>
  <rect x="17" y="7" width="1" height="1" fill="rgb(167,167,167)"/>
  <rect x="17" y="8" width="1" height="1" fill="rgb(201,201,201)"/>
  <rect x="17" y="9" width="1" height="1" fill="rgb(120,120,120)" fill-opacity="0.984375"/>
  <rect x="17" y="10" width="1" height="1" fill="rgb(42,42,42)" fill-opacity="0.625"/>
  <rect x="17" y="11" width="1" height="10" fill="rgb(255,255,255)" fill-opacity="0.0078125"/>
  <rect x="18" y="0" width="1" height="6" fill="rgb(255,255,255)" fill-opacity="0.0078125"/>
  <rect x="18" y="6" width="1" height="1" fill="rgb(29,29,29)" fill-opacity="0.109375"/>
  <rect x="18" y="7" width="1" height="1" fill="rgb(46,46,46)" fill-opacity="0.7265625"/>
  <rect x="18" y="8" width="1" height="1" fill="rgb(42,42,42)" fill-opacity="0.8828125"/>
  <rect x="18" y="9" width="1" height="1" fill="rgb(42,42,42)" fill-opacity="0.578125"/>
  <rect x="18" y="10" width="1" height="1" fill="rgb(21,21,21)" fill-opacity="0.0546875"/>
  <rect x="18" y="11" width="1" height="10" fill="rgb(255,255,255)" fill-opacity="0.0078125"/>
  <rect x="19" y="0" width="1" height="21" fill="rgb(255,255,255)" fill-opacity="0.0078125"/>
  <rect x="20" y="0" width="1" height="21" fill="rgb(255,255,255)" fill-opacity="0.0078125"/>
</svg>