<svg xmlns="http://www.w3.org/2000/svg" shape-rendering="crispEdges" width="21" height="21" viewBox="0 0 21 21">
  <rect x="0" y="0" width="1" height="21" fill="rgb(255,255,255)" fill-opacity="0.0078125"/>
  <rect x="1" y="0" width="1" height="21" fill="rgb(255,255,255)" fill-opacity="0.0078125"/>
  <rect x="2" y="0" width="1" height="21" fill="rgb(255,255,255)" fill-opacity="0.0078125"/>
  <rect x="3" y="0" width="1" height="21" fill="rgb(255,255,255)" fill-opacity="0.0078125"/>
  <rect x="4" y="0" width="1" height="7" fill="rgb(255,255,255)" fill-opacity="0.0078125"/>
  <rect x="4" y="7" width="1" height="1" fill="rgb(0,0,0)" fill-opacity="0.0078125"/>
  <rect x="4" y="8" width="1" height="1" fill="rgb(56,56,50)" fill-opacity="0.34375"/>
  <rect x="4" y="9" width="1" height="1" fill="rgb(71,71,50)" fill-opacity="0.640625"/>
  <rect x="4" y="10" width="1" height="2" fill="rgb(71,69,49)" fill-opacity="0.8359375"/>
  <rect x="4" y="12" width="1" height="1" fill="rgb(70,70,50)" fill-opacity="0.640625"/>
  <rect x="4" y="13" width="1" height="1" fill="rgb(55,55,49)" fill-opacity="0.3515625"/>
  <rect x="4" y="14" width="1" height="1" fill="rgb(0,0,0)" fill-opacity="0.015625"/>
  <rect x="4" y="15" width="1" height="6" fill="rgb(255,255,255)" fill-opacity="0.0078125"/>
  <rect x="5" y="0" width="1" height="6" fill="rgb(255,255,255)" fill-opacity="0.0078125"/>
  <rect x="5" y="6" width="1" height="1" fill="rgb(51,51,51)" fill-opacity="0.140625"/>
  <rect x="5" y="7" width="1" height="1" fill="rgb(69,69,49)" fill-opacity="0.8125"/>
  <rect x="5" y="8" width="1" height="1" fill="rgb(179,178,126)" fill-opacity="0.9765625"/>
  <rect x="5" y="9" width="1" height="1" fill="rgb(232,231,187)"/>
  <rect x="5" y="10" width="1" height="1" fill="rgb(250,250,230)"/>
  <rect x="5" y="11" width="1" height="1" fill="rgb(174,174,172)"/>
  <rect x="5" y="12" width="1" height="1" fill="rgb(172,171,152)"/>
  <rect x="5" y="13" width="1" height="1" fill="rgb(153,152,114)" fill-opacity="0.9765625"/>
  <rect x="5" y="14" width="1" height="1" fill="rgb(68,68,50)" fill-opacity="0.828125"/>
  <rect x="5" y="15" width="1" height="1" fill="rgb(54,54,54)" fill-opacity="0.15625"/>
  <rect x="5" y="16" width="1" height="5" fill="rgb(255,255,255)" fill-opacity="0.0078125"/>
  <rect x="6" y="0" width="1" height="5" fill="rgb(255,255,255)" fill-opacity="0.0078125"/>
  <rect x="6" y="5" width="1" height="1" fill="rgb(51,51,51)" fill-opacity="0.140625"/>
  <rect x="6" y="6" width="1" height="1" fill="rgb(93,93,71)" fill-opacity="0.921875"/>
  <rect x="6" y="7" width="1" height="1" fill="rgb(237,237,196)"/>
  <rect x="6" y="8" width="1" height="1" fill="rgb(247,246,206)"/>
  <rect x="6" y="9" width="1" height="1" fill="rgb(230,228,108)"/>
  <rect x="6" y="10" width="1" height="1" fill="rgb(223,220,66)"/>
  <rect x="6" y="11" width="1" height="1" fill="rgb(22,22,22)"/>
  <rect x="6" y="12" width="1" height="1" fill="rgb(58,58,58)"/>
  <rect x="6" y="13" width="1" height="1" fill="rgb(138,138,138)"/>
  <rect x="6" y="14" width="1" height="1" fill="rgb(165,165,155)"/>
  <rect x="6" y="15" width="1" height="1" fill="rgb(94,94,73)" fill-opacity="0.921875"/>
  <rect x="6" y="16" width="1" height="1" fill="rgb(50,50,50)" fill-opacity="0.1484375"/>
  <rect x="6" y="17" width="1" height="4" fill="rgb(255,255,255)" fill-opacity="0.0078125"/>
  <rect x="7" y="0" width="1" height="4" fill="rgb(255,255,255)" fill-opacity="0.0078125"/>
  <rect x="7" y="4" width="1" height="1" fill="rgb(0,0,0)" fill-opacity="0.0078125"/>
  <rect x="7" y="5" width="1" height="1" fill="rgb(71,69,51)" fill-opacity="0.8125"/>
  <rect x="7" y="6" width="1" height="1" fill="rgb(235,234,197)"/>
  <rect x="7" y="7" width="1" height="1" fill="rgb(238,236,153)"/>
  <rect x="7" y="8" width="1" height="1" fill="rgb(218,215,41)"/>
  <rect x="7" y="9" width="1" height="2" fill="rgb(218,215,39)"/>
  <rect x="7" y="11" width="1" height="2" fill="rgb(0,0,0)"/>
  <rect x="7" y="13" width="1" height="1" fill="rgb(1,1,1)"/>
  <rect x="7" y="14" width="1" height="1" fill="rgb(93,93,93)"/>
  <rect x="7" y="15" width="1" height="1" fill="rgb(171,171,156)"/>
  <rect x="7" y="16" width="1" height="1" fill="rgb(71,70,51)" fill-opacity="0.8203125"/>
  <rect x="7" y="17" width="1" height="1" fill="rgb(0,0,0)" fill-opacity="0.015625"/>
  <rect x="7" y="18" width="1" height="3" fill="rgb(255,255,255)" fill-opacity="0.0078125"/>
  <rect x="8" y="0" width="1" height="4" fill="rgb(255,255,255)" fill-opacity="0.0078125"/>
  <rect x="8" y="4" width="1" height="1" fill="rgb(56,56,50)" fill-opacity="0.34375"/>
  <rect x="8" y="5" width="1" height="1" fill="rgb(152,152,115)" fill-opacity="0.9765625"/>
  <rect x="8" y="6" width="1" height="1" fill="rgb(157,157,152)"/>
  <rect x="8" y="7" width="1" height="1" fill="rgb(176,173,33)"/>
  <rect x="8" y="8" width="1" height="2" fill="rgb(218,215,39)"/>
  <rect x="8" y="10" width="1" height="1" fill="rgb(219,216,44)"/>
  <rect x="8" y="11" width="1" height="3" fill="rgb(0,0,0)"/>
  <rect x="8" y="14" width="1" height="1" fill="rgb(9,9,4)"/>
  <rect x="8" y="15" width="1" height="1" fill="rgb(167,167,152)"/>
  <rect x="8" y="16" width="1" height="1" fill="rgb(176,174,123)" fill-opacity="0.9765625"/>
  <rect x="8" y="17" width="1" height="1" fill="rgb(59,59,50)" fill-opacity="0.359375"/>
  <rect x="8" y="18" width="1" height="3" fill="rgb(255,255,255)" fill-opacity="0.0078125"/>
  <rect x="9" y="0" width="1" height="4" fill="rgb(255,255,255)" fill-opacity="0.0078125"/>
  <rect x="9" y="4" width="1" height="1" fill="rgb(70,70,50)" fill-opacity="0.640625"/>
  <rect x="9" y="5" width="1" height="1" fill="rgb(177,177,159)"/>
  <rect x="9" y="6" width="1" height="1" fill="rgb(61,61,61)"/>
  <rect x="9" y="7" width="1" height="1" fill="rgb(6,6,1)"/>
  <rect x="9" y="8" width="1" height="1" fill="rgb(121,119,21)"/>
  <rect x="9" y="9" width="1" height="1" fill="rgb(219,216,43)"/>
  <rect x="9" y="10" width="1" height="1" fill="rgb(220,217,52)"/>
  <rect x="9" y="11" width="1" height="1" fill="rgb(168,166,45)"/>
  <rect x="9" y="12" width="1" height="1" fill="rgb(73,72,23)"/>
  <rect x="9" y="13" width="1" height="1" fill="rgb(112,111,38)"/>
  <rect x="9" y="14" width="1" height="1" fill="rgb(210,208,79)"/>
  <rect x="9" y="15" width="1" height="1" fill="rgb(235,233,138)"/>
  <rect x="9" y="16" width="1" height="1" fill="rgb(230,229,176)"/>
  <rect x="9" y="17" width="1" height="1" fill="rgb(73,72,50)" fill-opacity="0.65625"/>
  <rect x="9" y="18" width="1" height="3" fill="rgb(255,255,255)" fill-opacity="0.0078125"/>
  <rect x="10" y="0" width="1" height="4" fill="rgb(255,255,255)" fill-opacity="0.0078125"/>
  <rect x="10" y="4" width="1" height="1" fill="rgb(71,70,50)" fill-opacity="0.84375"/>
  <rect x="10" y="5" width="1" height="1" fill="rgb(182,182,180)"/>
  <rect x="10" y="6" width="1" height="1" fill="rgb(24,24,24)"/>
  <rect x="10" y="7" width="1" height="2" fill="rgb(0,0,0)"/>
  <rect x="10" y="9" width="1" height="1" fill="rgb(195,192,45)"/>
  <rect x="10" y="10" width="1" height="2" fill="rgb(6,6,2)"/>
  <rect x="10" y="12" width="1" height="1" fill="rgb(211,209,72)"/>
  <rect x="10" y="13" width="1" height="1" fill="rgb(226,223,84)"/>
  <rect x="10" y="14" width="1" height="1" fill="rgb(227,225,92)"/>
  <rect x="10" y="15" width="1" height="1" fill="rgb(232,229,117)"/>
  <rect x="10" y="16" width="1" height="1" fill="rgb(245,244,200)"/>
  <rect x="10" y="17" width="1" height="1" fill="rgb(71,71,50)" fill-opacity="0.8515625"/>
  <rect x="10" y="18" width="1" height="3" fill="rgb(255,255,255)" fill-opacity="0.0078125"/>
  <rect x="11" y="0" width="1" height="4" fill="rgb(255,255,255)" fill-opacity="0.0078125"/>
  <rect x="11" y="4" width="1" height="1" fill="rgb(71,71,50)" fill-opacity="0.84375"/>
  <rect x="11" y="5" width="1" height="1" fill="rgb(181,181,179)"/>
  <rect x="11" y="6" width="1" height="1" fill="rgb(24,24,24)"/>
  <rect x="11" y="7" width="1" height="2" fill="rgb(0,0,0)"/>
  <rect x="11" y="9" width="1" height="1" fill="rgb(196,194,53)"/>
  <rect x="11" y="10" width="1" height="2" fill="rgb(0,0,0)"/>
  <rect x="11" y="12" width="1" height="1" fill="rgb(212,209,79)"/>
  <rect x="11" y="13" width="1" height="1" fill="rgb(227,225,92)"/>
  <rect x="11" y="14" width="1" height="1" fill="rgb(228,226,100)"/>
  <rect x="11" y="15" width="1" height="1" fill="rgb(232,231,122)"/>
  <rect x="11" y="16" width="1" height="1" fill="rgb(244,243,195)"/>
  <rect x="11" y="17" width="1" height="1" fill="rgb(71,71,49)" fill-opacity="0.8515625"/>
  <rect x="11" y="18" width="1" height="3" fill="rgb(255,255,255)" fill-opacity="0.0078125"/>
  <rect x="12" y="0" width="1" height="4" fill="rgb(255,255,255)" fill-opacity="0.0078125"/>
  <rect x="12" y="4" width="1" height="1" fill="rgb(73,71,49)" fill-opacity="0.6484375"/>
  <rect x="12" y="5" width="1" height="1" fill="rgb(176,176,160)"/>
  <rect x="12" y="6" width="1" height="1" fill="rgb(60,60,60)"/>
  <rect x="12" y="7" width="1" height="1" fill="rgb(4,4,1)"/>
  <rect x="12" y="8" width="1" height="1" fill="rgb(114,113,30)"/>
  <rect x="12" y="9" width="1" height="1" fill="rgb(223,220,67)"/>
  <rect x="12" y="10" width="1" height="1" fill="rgb(217,215,73)"/>
  <rect x="12" y="11" width="1" height="1" fill="rgb(183,180,67)"/>
  <rect x="12" y="12" width="1" height="1" fill="rgb(102,101,41)"/>
  <rect x="12" y="13" width="1" height="1" fill="rgb(145,144,64)"/>
  <rect x="12" y="14" width="1" height="1" fill="rgb(224,222,105)"/>
  <rect x="12" y="15" width="1" height="1" fill="rgb(236,235,147)"/>
  <rect x="12" y="16" width="1" height="1" fill="rgb(227,225,166)"/>
  <rect x="12" y="17" width="1" height="1" fill="rgb(72,72,50)" fill-opacity="0.671875"/>
  <rect x="12" y="18" width="1" height="3" fill="rgb(255,255,255)" fill-opacity="0.0078125"/>
  <rect x="13" y="0" width="1" height="4" fill="rgb(255,255,255)" fill-opacity="0.0078125"/>
  <rect x="13" y="4" width="1" height="1" fill="rgb(54,54,51)" fill-opacity="0.359375"/>
  <rect x="13" y="5" width="1" height="1" fill="rgb(154,154,117)" fill-opacity="0.984375"/>
  <rect x="13" y="6" width="1" height="1" fill="rgb(151,150,146)"/>
  <rect x="13" y="7" width="1" height="1" fill="rgb(169,167,45)"/>
  <rect x="13" y="8" width="1" height="1" fill="rgb(223,220,66)"/>
  <rect x="13" y="9" width="1" height="1" fill="rgb(224,222,75)"/>
  <rect x="13" y="10" width="1" height="1" fill="rgb(226,223,83)"/>
  <rect x="13" y="11" width="1" height="3" fill="rgb(0,0,0)"/>
  <rect x="13" y="14" width="1" height="1" fill="rgb(19,19,10)"/>
  <rect x="13" y="15" width="1" height="1" fill="rgb(175,174,147)"/>
  <rect x="13" y="16" width="1" height="1" fill="rgb(175,174,118)" fill-opacity="0.9765625"/>
  <rect x="13" y="17" width="1" height="1" fill="rgb(59,59,51)" fill-opacity="0.375"/>
  <rect x="13" y="18" width="1" height="3" fill="rgb(255,255,255)" fill-opacity="0.0078125"/>
  <rect x="14" y="0" width="1" height="4" fill="rgb(255,255,255)" fill-opacity="0.0078125"/>
  <rect x="14" y="4" width="1" height="1" fill="rgb(0,0,0)" fill-opacity="0.015625"/>
  <rect x="14" y="5" width="1" height="1" fill="rgb(70,70,51)" fill-opacity="0.828125"/>
  <rect x="14" y="6" width="1" height="1" fill="rgb(235,234,203)"/>
  <rect x="14" y="7" width="1" height="1" fill="rgb(239,238,160)"/>
  <rect x="14" y="8" width="1" height="1" fill="rgb(224,221,75)"/>
  <rect x="14" y="9" width="1" height="1" fill="rgb(225,223,82)"/>
  <rect x="14" y="10" width="1" height="1" fill="rgb(227,225,91)"/>
  <rect x="14" y="11" width="1" height="3" fill="rgb(0,0,0)"/>
  <rect x="14" y="14" width="1" height="1" fill="rgb(75,75,75)"/>
  <rect x="14" y="15" width="1" height="1" fill="rgb(151,150,127)"/>
  <rect x="14" y="16" width="1" height="1" fill="rgb(69,69,49)" fill-opacity="0.8359375"/>
  <rect x="14" y="17" width="1" height="1" fill="rgb(85,85,85)" fill-opacity="0.015625"/>
  <rect x="14" y="18" width="1" height="3" fill="rgb(255,255,255)" fill-opacity="0.0078125"/>
  <rect x="15" y="0" width="1" height="5" fill="rgb(255,255,255)" fill-opacity="0.0078125"/>
  <rect x="15" y="5" width="1" height="1" fill="rgb(54,54,54)" fill-opacity="0.15625"/>
  <rect x="15" y="6" width="1" height="1" fill="rgb(99,98,75)" fill-opacity="0.921875"/>
  <rect x="15" y="7" width="1" height="1" fill="rgb(240,240,203)"/>
  <rect x="15" y="8" width="1" height="1" fill="rgb(245,244,197)"/>
  <rect x="15" y="9" width="1" height="1" fill="rgb(234,232,130)"/>
  <rect x="15" y="10" width="1" height="1" fill="rgb(230,228,110)"/>
  <rect x="15" y="11" width="1" height="1" fill="rgb(17,17,17)"/>
  <rect x="15" y="12" width="1" height="1" fill="rgb(48,48,48)"/>
  <rect x="15" y="13" width="1" height="1" fill="rgb(113,113,113)"/>
  <rect x="15" y="14" width="1" height="1" fill="rgb(135,134,119)"/>
  <rect x="15" y="15" width="1" height="1" fill="rgb(92,92,69)" fill-opacity="0.9296875"/>
  <rect x="15" y="16" width="1" height="1" fill="rgb(52,52,52)" fill-opacity="0.15625"/>
  <rect x="15" y="17" width="1" height="4" fill="rgb(255,255,255)" fill-opacity="0.0078125"/>
  <rect x="16" y="0" width="1" height="6" fill="rgb(255,255,255)" fill-opacity="0.0078125"/>
  <rect x="16" y="6" width="1" height="1" fill="rgb(51,51,51)" fill-opacity="0.1640625"/>
  <rect x="16" y="7" width="1" height="1" fill="rgb(71,71,51)" fill-opacity="0.8359375"/>
  <rect x="16" y="8" width="1" height="1" fill="rgb(186,185,132)" fill-opacity="0.9765625"/>
  <rect x="16" y="9" width="1" height="1" fill="rgb(230,230,178)"/>
  <rect x="16" y="10" width="1" height="1" fill="rgb(245,244,202)"/>
  <rect x="16" y="11" width="1" height="1" fill="rgb(159,159,156)"/>
  <rect x="16" y="12" width="1" height="1" fill="rgb(134,134,121)"/>
  <rect x="16" y="13" width="1" height="1" fill="rgb(127,127,93)" fill-opacity="0.984375"/>
  <rect x="16" y="14" width="1" height="1" fill="rgb(65,65,48)" fill-opacity="0.8515625"/>
  <rect x="16" y="15" width="1" height="1" fill="rgb(52,52,52)" fill-opacity="0.1796875"/>
  <rect x="16" y="16" width="1" height="5" fill="rgb(255,255,255)" fill-opacity="0.0078125"/>
  <rect x="17" y="0" width="1" height="7" fill="rgb(255,255,255)" fill-opacity="0.0078125"/>
  <rect x="17" y="7" width="1" height="1" fill="rgb(0,0,0)" fill-opacity="0.015625"/>
  <rect x="17" y="8" width="1" height="1" fill="rgb(58,58,50)" fill-opacity="0.3828125"/>
  <rect x="17" y="9" width="1" height="1" fill="rgb(72,72,49)" fill-opacity="0.6796875"/>
  <rect x="17" y="10" width="1" height="2" fill="rgb(71,71,50)" fill-opacity="0.859375"/>
  <rect x="17" y="12" width="1" height="1" fill="rgb(72,72,49)" fill-opacity="0.6796875"/>
  <rect x="17" y="13" width="1" height="1" fill="rgb(60,60,49)" fill-opacity="0.390625"/>
  <rect x="17" y="14" width="1" height="1" fill="rgb(64,64,64)" fill-opacity="0.0234375"/>
  <rect x="17" y="15" width="1" height="6" fill="rgb(255,255,255)" fill-opacity="0.0078125"/>
  <rect x="18" y="0" width="1" height="21" fill="rgb(255,255,255)" fill-opacity="0.0078125"/>
  <rect x="19" y="0" width="1" height="21" fill="rgb(255,255,255)" fill-opacity="0.0078125"/>
  <rect x="20" y="0" width="1" height="21" fill="rgb(255,255,255)" fill-opacity="0.0078125"/>
</svg>