<svg xmlns="http://www.w3.org/2000/svg" shape-rendering="crispEdges" width="21" height="21" viewBox="0 0 21 21">
  <rect x="0" y="0" width="21" height="1" fill="rgb(255,255,255)" fill-opacity="0.0078125"/>
  <rect x="0" y="1" width="21" height="1" fill="rgb(255,255,255)" fill-opacity="0.0078125"/>
  <rect x="0" y="2" width="21" height="1" fill="rgb(255,255,255)" fill-opacity="0.0078125"/>
  <rect x="0" y="3" width="7" height="1" fill="rgb(255,255,255)" fill-opacity="0.0078125"/>
  <rect x="7" y="3" width="1" height="1" fill="rgb(134,0,0)" fill-opacity="0.078125"/>
  <rect x="8" y="3" width="1" height="1" fill="rgb(128,0,0)" fill-opacity="0.265625"/>
  <rect x="9" y="3" width="1" height="1" fill="rgb(133,8,8)" fill-opacity="0.3828125"/>
  <rect x="10" y="3" width="1" height="1" fill="rgb(130,4,4)" fill-opacity="0.4765625"/>
  <rect x="11" y="3" width="1" height="1" fill="rgb(131,4,4)" fill-opacity="0.46875"/>
  <rect x="12" y="3" width="1" height="1" fill="rgb(134,8,8)" fill-opacity="0.375"/>
  <rect x="13" y="3" width="1" height="1" fill="rgb(129,0,0)" fill-opacity="0.2578125"/>
  <rect x="14" y="3" width="1" height="1" fill="rgb(135,0,0)" fill-opacity="0.0703125"/>
  <rect x="15" y="3" width="6" height="1" fill="rgb(255,255,255)" fill-opacity="0.0078125"/>
  <rect x="0" y="4" width="5" height="1" fill="rgb(255,255,255)" fill-opacity="0.0078125"/>
  <rect x="5" y="4" width="1" height="1" fill="rgb(0,0,0)" fill-opacity="0.0078125"/>
  <rect x="6" y="4" width="1" height="1" fill="rgb(132,4,4)" fill-opacity="0.234375"/>
  <rect x="7" y="4" width="1" height="1" fill="rgb(150,42,42)" fill-opacity="0.4765625"/>
  <rect x="8" y="4" width="1" height="1" fill="rgb(238,217,217)" fill-opacity="0.4765625"/>
  <rect x="9" y="4" width="1" height="1" fill="rgb(251,247,247)" fill-opacity="0.4921875"/>
  <rect x="10" y="4" width="2" height="1" fill="rgb(255,255,255)" fill-opacity="0.5"/>
  <rect x="12" y="4" width="1" height="1" fill="rgb(251,247,247)" fill-opacity="0.4921875"/>
  <rect x="13" y="4" width="1" height="1" fill="rgb(238,217,217)" fill-opacity="0.4765625"/>
  <rect x="14" y="4" width="1" height="1" fill="rgb(150,40,40)" fill-opacity="0.4765625"/>
  <rect x="15" y="4" width="1" height="1" fill="rgb(128,0,0)" fill-opacity="0.2265625"/>
  <rect x="16" y="4" width="5" height="1" fill="rgb(255,255,255)" fill-opacity="0.0078125"/>
  <rect x="0" y="5" width="4" height="1" fill="rgb(255,255,255)" fill-opacity="0.0078125"/>
  <rect x="4" y="5" width="1" height="1" fill="rgb(0,0,0)" fill-opacity="0.0078125"/>
  <rect x="5" y="5" width="1" height="1" fill="rgb(130,5,5)" fill-opacity="0.3828125"/>
  <rect x="6" y="5" width="1" height="1" fill="rgb(204,148,148)" fill-opacity="0.46875"/>
  <rect x="7" y="5" width="1" height="1" fill="rgb(255,253,253)" fill-opacity="0.5"/>
  <rect x="8" y="5" width="1" height="1" fill="rgb(242,219,219)" fill-opacity="0.4765625"/>
  <rect x="9" y="5" width="1" height="1" fill="rgb(215,143,143)" fill-opacity="0.453125"/>
  <rect x="10" y="5" width="1" height="1" fill="rgb(191,80,80)" fill-opacity="0.4375"/>
  <rect x="11" y="5" width="1" height="1" fill="rgb(195,88,88)" fill-opacity="0.4375"/>
  <rect x="12" y="5" width="1" height="1" fill="rgb(225,161,161)" fill-opacity="0.4375"/>
  <rect x="13" y="5" width="1" height="1" fill="rgb(247,227,227)" fill-opacity="0.4765625"/>
  <rect x="14" y="5" width="1" height="1" fill="rgb(255,253,253)" fill-opacity="0.5"/>
  <rect x="15" y="5" width="1" height="1" fill="rgb(195,133,133)" fill-opacity="0.46875"/>
  <rect x="16" y="5" width="1" height="1" fill="rgb(133,6,6)" fill-opacity="0.3671875"/>
  <rect x="17" y="5" width="4" height="1" fill="rgb(255,255,255)" fill-opacity="0.0078125"/>
  <rect x="0" y="6" width="4" height="1" fill="rgb(255,255,255)" fill-opacity="0.0078125"/>
  <rect x="4" y="6" width="1" height="1" fill="rgb(130,4,4)" fill-opacity="0.2265625"/>
  <rect x="5" y="6" width="1" height="1" fill="rgb(207,153,153)" fill-opacity="0.46875"/>
  <rect x="6" y="6" width="1" height="1" fill="rgb(253,253,253)" fill-opacity="0.5"/>
  <rect x="7" y="6" width="1" height="1" fill="rgb(206,126,126)" fill-opacity="0.453125"/>
  <rect x="8" y="6" width="1" height="1" fill="rgb(185,63,63)" fill-opacity="0.4140625"/>
  <rect x="9" y="6" width="1" height="1" fill="rgb(223,138,138)" fill-opacity="0.34375"/>
  <rect x="10" y="6" width="2" height="1" fill="rgb(242,184,184)" fill-opacity="0.3125"/>
  <rect x="12" y="6" width="1" height="1" fill="rgb(228,150,150)" fill-opacity="0.3359375"/>
  <rect x="13" y="6" width="1" height="1" fill="rgb(207,98,98)" fill-opacity="0.3828125"/>
  <rect x="14" y="6" width="1" height="1" fill="rgb(229,161,161)" fill-opacity="0.421875"/>
  <rect x="15" y="6" width="1" height="1" fill="rgb(253,249,249)" fill-opacity="0.4921875"/>
  <rect x="16" y="6" width="1" height="1" fill="rgb(192,126,126)" fill-opacity="0.4609375"/>
  <rect x="17" y="6" width="1" height="1" fill="rgb(130,0,0)" fill-opacity="0.21875"/>
  <rect x="18" y="6" width="3" height="1" fill="rgb(255,255,255)" fill-opacity="0.0078125"/>
  <rect x="0" y="7" width="3" height="1" fill="rgb(255,255,255)" fill-opacity="0.0078125"/>
  <rect x="3" y="7" width="1" height="1" fill="rgb(128,0,0)" fill-opacity="0.078125"/>
  <rect x="4" y="7" width="1" height="1" fill="rgb(145,36,36)" fill-opacity="0.4765625"/>
  <rect x="5" y="7" width="1" height="1" fill="rgb(255,253,253)" fill-opacity="0.5"/>
  <rect x="6" y="7" width="1" height="1" fill="rgb(206,125,125)" fill-opacity="0.453125"/>
  <rect x="7" y="7" width="1" height="1" fill="rgb(202,98,98)" fill-opacity="0.3828125"/>
  <rect x="8" y="7" width="6" height="1" fill="rgb(255,211,211)" fill-opacity="0.296875"/>
  <rect x="14" y="7" width="1" height="1" fill="rgb(226,141,141)" fill-opacity="0.34375"/>
  <rect x="15" y="7" width="1" height="1" fill="rgb(233,168,168)" fill-opacity="0.40625"/>
  <rect x="16" y="7" width="1" height="1" fill="rgb(251,247,247)" fill-opacity="0.4765625"/>
  <rect x="17" y="7" width="1" height="1" fill="rgb(140,23,23)" fill-opacity="0.4765625"/>
  <rect x="18" y="7" width="1" height="1" fill="rgb(135,0,0)" fill-opacity="0.0703125"/>
  <rect x="19" y="7" width="2" height="1" fill="rgb(255,255,255)" fill-opacity="0.0078125"/>
  <rect x="0" y="8" width="3" height="1" fill="rgb(255,255,255)" fill-opacity="0.0078125"/>
  <rect x="3" y="8" width="1" height="1" fill="rgb(128,0,0)" fill-opacity="0.265625"/>
  <rect x="4" y="8" width="1" height="1" fill="rgb(238,215,215)" fill-opacity="0.4765625"/>
  <rect x="5" y="8" width="1" height="1" fill="rgb(242,222,222)" fill-opacity="0.484375"/>
  <rect x="6" y="8" width="1" height="1" fill="rgb(187,63,63)" fill-opacity="0.4140625"/>
  <rect x="7" y="8" width="1" height="1" fill="rgb(255,211,211)" fill-opacity="0.296875"/>
  <rect x="8" y="8" width="1" height="1" fill="rgb(51,49,49)" fill-opacity="0.859375"/>
  <rect x="9" y="8" width="2" height="1" fill="rgb(46,45,45)" fill-opacity="0.9375"/>
  <rect x="11" y="8" width="2" height="1" fill="rgb(47,46,46)" fill-opacity="0.9375"/>
  <rect x="13" y="8" width="1" height="1" fill="rgb(48,47,47)" fill-opacity="0.9375"/>
  <rect x="14" y="8" width="1" height="1" fill="rgb(49,48,48)" fill-opacity="0.9375"/>
  <rect x="15" y="8" width="1" height="1" fill="rgb(49,46,46)" fill-opacity="0.9453125"/>
  <rect x="16" y="8" width="1" height="1" fill="rgb(53,52,52)" fill-opacity="0.953125"/>
  <rect x="17" y="8" width="1" height="1" fill="rgb(52,50,50)" fill-opacity="0.953125"/>
  <rect x="18" y="8" width="1" height="1" fill="rgb(47,40,40)" fill-opacity="0.8515625"/>
  <rect x="19" y="8" width="2" height="1" fill="rgb(255,255,255)" fill-opacity="0.0078125"/>
  <rect x="0" y="9" width="3" height="1" fill="rgb(255,255,255)" fill-opacity="0.0078125"/>
  <rect x="3" y="9" width="1" height="1" fill="rgb(134,8,8)" fill-opacity="0.375"/>
  <rect x="4" y="9" width="1" height="1" fill="rgb(251,247,247)" fill-opacity="0.4921875"/>
  <rect x="5" y="9" width="1" height="1" fill="rgb(217,151,151)" fill-opacity="0.453125"/>
  <rect x="6" y="9" width="1" height="1" fill="rgb(223,141,141)" fill-opacity="0.34375"/>
  <rect x="7" y="9" width="1" height="1" fill="rgb(255,211,211)" fill-opacity="0.296875"/>
  <rect x="8" y="9" width="1" height="1" fill="rgb(46,45,45)" fill-opacity="0.9375"/>
  <rect x="9" y="9" width="1" height="1" fill="rgb(244,244,244)"/>
  <rect x="10" y="9" width="1" height="1" fill="rgb(255,255,255)"/>
  <rect x="11" y="9" width="1" height="1" fill="rgb(254,254,254)"/>
  <rect x="12" y="9" width="1" height="1" fill="rgb(249,249,249)"/>
  <rect x="13" y="9" width="1" height="1" fill="rgb(246,246,246)"/>
  <rect x="14" y="9" width="1" height="1" fill="rgb(243,243,243)"/>
  <rect x="15" y="9" width="1" height="1" fill="rgb(241,241,241)"/>
  <rect x="16" y="9" width="1" height="1" fill="rgb(240,240,240)"/>
  <rect x="17" y="9" width="1" height="1" fill="rgb(236,236,236)"/>
  <rect x="18" y="9" width="1" height="1" fill="rgb(49,45,45)" fill-opacity="0.9453125"/>
  <rect x="19" y="9" width="2" height="1" fill="rgb(255,255,255)" fill-opacity="0.0078125"/>
  <rect x="0" y="10" width="3" height="1" fill="rgb(255,255,255)" fill-opacity="0.0078125"/>
  <rect x="3" y="10" width="1" height="1" fill="rgb(131,4,4)" fill-opacity="0.46875"/>
  <rect x="4" y="10" width="1" height="1" fill="rgb(255,255,255)" fill-opacity="0.5"/>
  <rect x="5" y="10" width="1" height="1" fill="rgb(195,85,85)" fill-opacity="0.4375"/>
  <rect x="6" y="10" width="1" height="1" fill="rgb(242,184,184)" fill-opacity="0.3125"/>
  <rect x="7" y="10" width="1" height="1" fill="rgb(255,211,211)" fill-opacity="0.296875"/>
  <rect x="8" y="10" width="1" height="1" fill="rgb(46,45,45)" fill-opacity="0.9375"/>
  <rect x="9" y="10" width="1" height="1" fill="rgb(255,255,255)"/>
  <rect x="10" y="10" width="1" height="1" fill="rgb(175,175,175)"/>
  <rect x="11" y="10" width="1" height="1" fill="rgb(182,182,182)"/>
  <rect x="12" y="10" width="1" height="1" fill="rgb(189,189,189)"/>
  <rect x="13" y="10" width="1" height="1" fill="rgb(196,196,196)"/>
  <rect x="14" y="10" width="1" height="1" fill="rgb(202,202,202)"/>
  <rect x="15" y="10" width="1" height="1" fill="rgb(209,209,209)"/>
  <rect x="16" y="10" width="1" height="1" fill="rgb(216,216,216)"/>
  <rect x="17" y="10" width="1" height="1" fill="rgb(240,240,240)"/>
  <rect x="18" y="10" width="1" height="1" fill="rgb(50,44,44)" fill-opacity="0.953125"/>
  <rect x="19" y="10" width="2" height="1" fill="rgb(255,255,255)" fill-opacity="0.0078125"/>
  <rect x="0" y="11" width="3" height="1" fill="rgb(255,255,255)" fill-opacity="0.0078125"/>
  <rect x="3" y="11" width="1" height="1" fill="rgb(131,4,4)" fill-opacity="0.46875"/>
  <rect x="4" y="11" width="1" height="1" fill="rgb(255,255,255)" fill-opacity="0.5"/>
  <rect x="5" y="11" width="1" height="1" fill="rgb(199,94,94)" fill-opacity="0.4296875"/>
  <rect x="6" y="11" width="1" height="1" fill="rgb(242,187,187)" fill-opacity="0.3125"/>
  <rect x="7" y="11" width="1" height="1" fill="rgb(255,211,211)" fill-opacity="0.296875"/>
  <rect x="8" y="11" width="1" height="1" fill="rgb(47,46,46)" fill-opacity="0.9375"/>
  <rect x="9" y="11" width="1" height="1" fill="rgb(254,254,254)"/>
  <rect x="10" y="11" width="1" height="1" fill="rgb(182,182,182)"/>
  <rect x="11" y="11" width="1" height="1" fill="rgb(189,189,189)"/>
  <rect x="12" y="11" width="1" height="1" fill="rgb(196,196,196)"/>
  <rect x="13" y="11" width="1" height="1" fill="rgb(203,203,203)"/>
  <rect x="14" y="11" width="1" height="1" fill="rgb(209,209,209)"/>
  <rect x="15" y="11" width="1" height="1" fill="rgb(216,216,216)"/>
  <rect x="16" y="11" width="1" height="1" fill="rgb(223,223,223)"/>
  <rect x="17" y="11" width="1" height="1" fill="rgb(242,242,242)"/>
  <rect x="18" y="11" width="1" height="1" fill="rgb(51,45,45)" fill-opacity="0.953125"/>
  <rect x="19" y="11" width="2" height="1" fill="rgb(255,255,255)" fill-opacity="0.0078125"/>
  <rect x="0" y="12" width="3" height="1" fill="rgb(255,255,255)" fill-opacity="0.0078125"/>
  <rect x="3" y="12" width="1" height="1" fill="rgb(134,8,8)" fill-opacity="0.375"/>
  <rect x="4" y="12" width="1" height="1" fill="rgb(251,247,247)" fill-opacity="0.4921875"/>
  <rect x="5" y="12" width="1" height="1" fill="rgb(228,166,166)" fill-opacity="0.4453125"/>
  <rect x="6" y="12" width="1" height="1" fill="rgb(231,155,155)" fill-opacity="0.3359375"/>
  <rect x="7" y="12" width="1" height="1" fill="rgb(255,211,211)" fill-opacity="0.296875"/>
  <rect x="8" y="12" width="1" height="1" fill="rgb(47,46,46)" fill-opacity="0.9375"/>
  <rect x="9" y="12" width="1" height="1" fill="rgb(249,249,249)"/>
  <rect x="10" y="12" width="1" height="1" fill="rgb(189,189,189)"/>
  <rect x="11" y="12" width="1" height="1" fill="rgb(196,196,196)"/>
  <rect x="12" y="12" width="1" height="1" fill="rgb(203,203,203)"/>
  <rect x="13" y="12" width="1" height="1" fill="rgb(210,210,210)"/>
  <rect x="14" y="12" width="1" height="1" fill="rgb(216,216,216)"/>
  <rect x="15" y="12" width="1" height="1" fill="rgb(223,223,223)"/>
  <rect x="16" y="12" width="1" height="1" fill="rgb(230,230,230)"/>
  <rect x="17" y="12" width="1" height="1" fill="rgb(244,244,244)"/>
  <rect x="18" y="12" width="1" height="1" fill="rgb(51,47,47)" fill-opacity="0.9453125"/>
  <rect x="19" y="12" width="2" height="1" fill="rgb(255,255,255)" fill-opacity="0.0078125"/>
  <rect x="0" y="13" width="3" height="1" fill="rgb(255,255,255)" fill-opacity="0.0078125"/>
  <rect x="3" y="13" width="1" height="1" fill="rgb(128,0,0)" fill-opacity="0.265625"/>
  <rect x="4" y="13" width="1" height="1" fill="rgb(238,217,217)" fill-opacity="0.4765625"/>
  <rect x="5" y="13" width="1" height="1" fill="rgb(247,230,230)" fill-opacity="0.4765625"/>
  <rect x="6" y="13" width="1" height="1" fill="rgb(209,102,102)" fill-opacity="0.375"/>
  <rect x="7" y="13" width="1" height="1" fill="rgb(255,211,211)" fill-opacity="0.296875"/>
  <rect x="8" y="13" width="1" height="1" fill="rgb(48,47,47)" fill-opacity="0.9375"/>
  <rect x="9" y="13" width="1" height="1" fill="rgb(246,246,246)"/>
  <rect x="10" y="13" width="1" height="1" fill="rgb(196,196,196)"/>
  <rect x="11" y="13" width="1" height="1" fill="rgb(203,203,203)"/>
  <rect x="12" y="13" width="1" height="1" fill="rgb(210,210,210)"/>
  <rect x="13" y="13" width="1" height="1" fill="rgb(217,217,217)"/>
  <rect x="14" y="13" width="1" height="1" fill="rgb(223,223,223)"/>
  <rect x="15" y="13" width="1" height="1" fill="rgb(230,230,230)"/>
  <rect x="16" y="13" width="1" height="1" fill="rgb(237,237,237)"/>
  <rect x="17" y="13" width="1" height="1" fill="rgb(247,247,247)"/>
  <rect x="18" y="13" width="1" height="1" fill="rgb(50,47,47)" fill-opacity="0.9375"/>
  <rect x="19" y="13" width="2" height="1" fill="rgb(255,255,255)" fill-opacity="0.0078125"/>
  <rect x="0" y="14" width="3" height="1" fill="rgb(255,255,255)" fill-opacity="0.0078125"/>
  <rect x="3" y="14" width="1" height="1" fill="rgb(128,0,0)" fill-opacity="0.078125"/>
  <rect x="4" y="14" width="1" height="1" fill="rgb(145,36,36)" fill-opacity="0.4765625"/>
  <rect x="5" y="14" width="1" height="1" fill="rgb(255,255,255)" fill-opacity="0.5"/>
  <rect x="6" y="14" width="1" height="1" fill="rgb(231,163,163)" fill-opacity="0.4140625"/>
  <rect x="7" y="14" width="1" height="1" fill="rgb(228,145,145)" fill-opacity="0.34375"/>
  <rect x="8" y="14" width="1" height="1" fill="rgb(49,48,48)" fill-opacity="0.9375"/>
  <rect x="9" y="14" width="1" height="1" fill="rgb(243,243,243)"/>
  <rect x="10" y="14" width="1" height="1" fill="rgb(203,203,203)"/>
  <rect x="11" y="14" width="1" height="1" fill="rgb(210,210,210)"/>
  <rect x="12" y="14" width="1" height="1" fill="rgb(217,217,217)"/>
  <rect x="13" y="14" width="1" height="1" fill="rgb(224,224,224)"/>
  <rect x="14" y="14" width="1" height="1" fill="rgb(230,230,230)"/>
  <rect x="15" y="14" width="1" height="1" fill="rgb(237,237,237)"/>
  <rect x="16" y="14" width="1" height="1" fill="rgb(244,244,244)"/>
  <rect x="17" y="14" width="1" height="1" fill="rgb(251,251,251)"/>
  <rect x="18" y="14" width="1" height="1" fill="rgb(50,49,49)" fill-opacity="0.921875"/>
  <rect x="19" y="14" width="2" height="1" fill="rgb(255,255,255)" fill-opacity="0.0078125"/>
  <rect x="0" y="15" width="4" height="1" fill="rgb(255,255,255)" fill-opacity="0.0078125"/>
  <rect x="4" y="15" width="1" height="1" fill="rgb(130,4,4)" fill-opacity="0.2265625"/>
  <rect x="5" y="15" width="1" height="1" fill="rgb(203,147,147)" fill-opacity="0.46875"/>
  <rect x="6" y="15" width="1" height="1" fill="rgb(255,251,251)" fill-opacity="0.4921875"/>
  <rect x="7" y="15" width="1" height="1" fill="rgb(235,169,169)" fill-opacity="0.3984375"/>
  <rect x="8" y="15" width="1" height="1" fill="rgb(49,46,46)" fill-opacity="0.9453125"/>
  <rect x="9" y="15" width="1" height="1" fill="rgb(241,241,241)"/>
  <rect x="10" y="15" width="1" height="1" fill="rgb(210,210,210)"/>
  <rect x="11" y="15" width="1" height="1" fill="rgb(217,217,217)"/>
  <rect x="12" y="15" width="1" height="1" fill="rgb(224,224,224)"/>
  <rect x="13" y="15" width="1" height="1" fill="rgb(231,231,231)"/>
  <rect x="14" y="15" width="1" height="1" fill="rgb(237,237,237)"/>
  <rect x="15" y="15" width="1" height="1" fill="rgb(244,244,244)"/>
  <rect x="16" y="15" width="1" height="1" fill="rgb(251,251,251)"/>
  <rect x="17" y="15" width="1" height="1" fill="rgb(255,255,255)"/>
  <rect x="18" y="15" width="1" height="1" fill="rgb(49,49,49)" fill-opacity="0.9140625"/>
  <rect x="19" y="15" width="2" height="1" fill="rgb(255,255,255)" fill-opacity="0.0078125"/>
  <rect x="0" y="16" width="4" height="1" fill="rgb(255,255,255)" fill-opacity="0.0078125"/>
  <rect x="4" y="16" width="1" height="1" fill="rgb(0,0,0)" fill-opacity="0.0078125"/>
  <rect x="5" y="16" width="1" height="1" fill="rgb(130,5,5)" fill-opacity="0.3828125"/>
  <rect x="6" y="16" width="1" height="1" fill="rgb(192,128,128)" fill-opacity="0.46875"/>
  <rect x="7" y="16" width="1" height="1" fill="rgb(253,247,247)" fill-opacity="0.484375"/>
  <rect x="8" y="16" width="1" height="1" fill="rgb(53,52,52)" fill-opacity="0.953125"/>
  <rect x="9" y="16" width="1" height="1" fill="rgb(240,240,240)"/>
  <rect x="10" y="16" width="1" height="1" fill="rgb(217,217,217)"/>
  <rect x="11" y="16" width="1" height="1" fill="rgb(224,224,224)"/>
  <rect x="12" y="16" width="1" height="1" fill="rgb(231,231,231)"/>
  <rect x="13" y="16" width="1" height="1" fill="rgb(238,238,238)"/>
  <rect x="14" y="16" width="1" height="1" fill="rgb(244,244,244)"/>
  <rect x="15" y="16" width="1" height="1" fill="rgb(251,251,251)"/>
  <rect x="16" y="16" width="2" height="1" fill="rgb(255,255,255)"/>
  <rect x="18" y="16" width="1" height="1" fill="rgb(49,49,49)" fill-opacity="0.9140625"/>
  <rect x="19" y="16" width="2" height="1" fill="rgb(255,255,255)" fill-opacity="0.0078125"/>
  <rect x="0" y="17" width="5" height="1" fill="rgb(255,255,255)" fill-opacity="0.0078125"/>
  <rect x="5" y="17" width="1" height="1" fill="rgb(0,0,0)" fill-opacity="0.0078125"/>
  <rect x="6" y="17" width="1" height="1" fill="rgb(132,4,4)" fill-opacity="0.234375"/>
  <rect x="7" y="17" width="1" height="1" fill="rgb(143,30,30)" fill-opacity="0.4765625"/>
  <rect x="8" y="17" width="1" height="1" fill="rgb(53,51,51)" fill-opacity="0.953125"/>
  <rect x="9" y="17" width="1" height="1" fill="rgb(238,238,238)"/>
  <rect x="10" y="17" width="1" height="1" fill="rgb(241,241,241)"/>
  <rect x="11" y="17" width="1" height="1" fill="rgb(243,243,243)"/>
  <rect x="12" y="17" width="1" height="1" fill="rgb(245,245,245)"/>
  <rect x="13" y="17" width="1" height="1" fill="rgb(248,248,248)"/>
  <rect x="14" y="17" width="1" height="1" fill="rgb(252,252,252)"/>
  <rect x="15" y="17" width="3" height="1" fill="rgb(255,255,255)"/>
  <rect x="18" y="17" width="1" height="1" fill="rgb(49,49,49)" fill-opacity="0.9140625"/>
  <rect x="19" y="17" width="2" height="1" fill="rgb(255,255,255)" fill-opacity="0.0078125"/>
  <rect x="0" y="18" width="7" height="1" fill="rgb(255,255,255)" fill-opacity="0.0078125"/>
  <rect x="7" y="18" width="1" height="1" fill="rgb(134,0,0)" fill-opacity="0.078125"/>
  <rect x="8" y="18" width="1" height="1" fill="rgb(48,40,40)" fill-opacity="0.8515625"/>
  <rect x="9" y="18" width="1" height="1" fill="rgb(50,44,44)" fill-opacity="0.9453125"/>
  <rect x="10" y="18" width="2" height="1" fill="rgb(51,45,45)" fill-opacity="0.953125"/>
  <rect x="12" y="18" width="1" height="1" fill="rgb(52,47,47)" fill-opacity="0.9453125"/>
  <rect x="13" y="18" width="1" height="1" fill="rgb(50,47,47)" fill-opacity="0.9375"/>
  <rect x="14" y="18" width="1" height="1" fill="rgb(50,49,49)" fill-opacity="0.921875"/>
  <rect x="15" y="18" width="3" height="1" fill="rgb(49,49,49)" fill-opacity="0.9140625"/>
  <rect x="18" y="18" width="1" height="1" fill="rgb(45,45,45)" fill-opacity="0.796875"/>
  <rect x="19" y="18" width="2" height="1" fill="rgb(255,255,255)" fill-opacity="0.0078125"/>
  <rect x="0" y="19" width="21" height="1" fill="rgb(255,255,255)" fill-opacity="0.0078125"/>
  <rect x="0" y="20" width="21" height="1" fill="rgb(255,255,255)" fill-opacity="0.0078125"/>
</svg>