<svg xmlns="http://www.w3.org/2000/svg" shape-rendering="crispEdges" width="21" height="21" viewBox="0 0 21 21">
  <rect x="0" y="0" width="21" height="1" fill="rgb(255,255,255)" fill-opacity="0.0078125"/>
  <rect x="0" y="1" width="21" height="1" fill="rgb(255,255,255)" fill-opacity="0.0078125"/>
  <rect x="0" y="2" width="21" height="1" fill="rgb(255,255,255)" fill-opacity="0.0078125"/>
  <rect x="0" y="3" width="21" height="1" fill="rgb(255,255,255)" fill-opacity="0.0078125"/>
  <rect x="0" y="4" width="4" height="1" fill="rgb(255,255,255)" fill-opacity="0.0078125"/>
  <rect x="4" y="4" width="1" height="1" fill="rgb(25,25,25)" fill-opacity="0.7734375"/>
  <rect x="5" y="4" width="3" height="1" fill="rgb(25,25,25)" fill-opacity="0.9140625"/>
  <rect x="8" y="4" width="3" height="1" fill="rgb(26,26,26)" fill-opacity="0.9140625"/>
  <rect x="11" y="4" width="3" height="1" fill="rgb(27,27,27)" fill-opacity="0.9140625"/>
  <rect x="14" y="4" width="3" height="1" fill="rgb(29,29,29)" fill-opacity="0.9140625"/>
  <rect x="17" y="4" width="1" height="1" fill="rgb(29,29,29)" fill-opacity="0.796875"/>
  <rect x="18" y="4" width="3" height="1" fill="rgb(255,255,255)" fill-opacity="0.0078125"/>
  <rect x="0" y="5" width="4" height="1" fill="rgb(255,255,255)" fill-opacity="0.0078125"/>
  <rect x="4" y="5" width="1" height="1" fill="rgb(25,25,25)" fill-opacity="0.890625"/>
  <rect x="5" y="5" width="2" height="1" fill="rgb(246,246,246)"/>
  <rect x="7" y="5" width="3" height="1" fill="rgb(245,245,245)"/>
  <rect x="10" y="5" width="2" height="1" fill="rgb(246,246,246)"/>
  <rect x="12" y="5" width="1" height="1" fill="rgb(248,248,248)"/>
  <rect x="13" y="5" width="1" height="1" fill="rgb(250,250,250)"/>
  <rect x="14" y="5" width="1" height="1" fill="rgb(252,252,252)"/>
  <rect x="15" y="5" width="1" height="1" fill="rgb(254,254,254)"/>
  <rect x="16" y="5" width="1" height="1" fill="rgb(194,194,194)"/>
  <rect x="17" y="5" width="1" height="1" fill="rgb(30,30,30)" fill-opacity="0.9140625"/>
  <rect x="18" y="5" width="3" height="1" fill="rgb(255,255,255)" fill-opacity="0.0078125"/>
  <rect x="0" y="6" width="4" height="1" fill="rgb(255,255,255)" fill-opacity="0.0078125"/>
  <rect x="4" y="6" width="1" height="1" fill="rgb(25,25,25)" fill-opacity="0.890625"/>
  <rect x="5" y="6" width="1" height="1" fill="rgb(245,245,245)"/>
  <rect x="6" y="6" width="1" height="1" fill="rgb(215,215,215)"/>
  <rect x="7" y="6" width="1" height="1" fill="rgb(219,219,219)"/>
  <rect x="8" y="6" width="1" height="1" fill="rgb(224,224,224)"/>
  <rect x="9" y="6" width="1" height="1" fill="rgb(229,229,229)"/>
  <rect x="10" y="6" width="1" height="1" fill="rgb(234,234,234)"/>
  <rect x="11" y="6" width="1" height="1" fill="rgb(239,239,239)"/>
  <rect x="12" y="6" width="1" height="1" fill="rgb(244,244,244)"/>
  <rect x="13" y="6" width="1" height="1" fill="rgb(249,249,249)"/>
  <rect x="14" y="6" width="1" height="1" fill="rgb(254,254,254)"/>
  <rect x="15" y="6" width="1" height="1" fill="rgb(158,158,158)"/>
  <rect x="16" y="6" width="1" height="1" fill="rgb(126,126,126)"/>
  <rect x="17" y="6" width="1" height="1" fill="rgb(30,30,30)" fill-opacity="0.9140625"/>
  <rect x="18" y="6" width="3" height="1" fill="rgb(255,255,255)" fill-opacity="0.0078125"/>
  <rect x="0" y="7" width="4" height="1" fill="rgb(255,255,255)" fill-opacity="0.0078125"/>
  <rect x="4" y="7" width="1" height="1" fill="rgb(26,26,26)" fill-opacity="0.890625"/>
  <rect x="5" y="7" width="1" height="1" fill="rgb(244,244,244)"/>
  <rect x="6" y="7" width="1" height="1" fill="rgb(220,220,220)"/>
  <rect x="7" y="7" width="1" height="1" fill="rgb(224,224,224)"/>
  <rect x="8" y="7" width="1" height="1" fill="rgb(229,229,229)"/>
  <rect x="9" y="7" width="1" height="1" fill="rgb(234,234,234)"/>
  <rect x="10" y="7" width="1" height="1" fill="rgb(239,239,239)"/>
  <rect x="11" y="7" width="1" height="1" fill="rgb(244,244,244)"/>
  <rect x="12" y="7" width="1" height="1" fill="rgb(249,249,249)"/>
  <rect x="13" y="7" width="1" height="1" fill="rgb(255,255,255)"/>
  <rect x="14" y="7" width="1" height="1" fill="rgb(158,158,158)"/>
  <rect x="15" y="7" width="1" height="1" fill="rgb(64,64,64)"/>
  <rect x="16" y="7" width="1" height="1" fill="rgb(120,120,120)"/>
  <rect x="17" y="7" width="1" height="1" fill="rgb(31,31,31)" fill-opacity="0.9140625"/>
  <rect x="18" y="7" width="3" height="1" fill="rgb(255,255,255)" fill-opacity="0.0078125"/>
  <rect x="0" y="8" width="4" height="1" fill="rgb(255,255,255)" fill-opacity="0.0078125"/>
  <rect x="4" y="8" width="1" height="1" fill="rgb(26,26,26)" fill-opacity="0.890625"/>
  <rect x="5" y="8" width="1" height="1" fill="rgb(244,244,244)"/>
  <rect x="6" y="8" width="1" height="1" fill="rgb(225,225,225)"/>
  <rect x="7" y="8" width="1" height="1" fill="rgb(229,229,229)"/>
  <rect x="8" y="8" width="1" height="1" fill="rgb(234,234,234)"/>
  <rect x="9" y="8" width="1" height="1" fill="rgb(239,239,239)"/>
  <rect x="10" y="8" width="1" height="1" fill="rgb(244,244,244)"/>
  <rect x="11" y="8" width="1" height="1" fill="rgb(250,250,250)"/>
  <rect x="12" y="8" width="1" height="1" fill="rgb(255,255,255)"/>
  <rect x="13" y="8" width="1" height="1" fill="rgb(158,158,158)"/>
  <rect x="14" y="8" width="1" height="1" fill="rgb(65,65,65)"/>
  <rect x="15" y="8" width="1" height="1" fill="rgb(68,68,68)"/>
  <rect x="16" y="8" width="1" height="1" fill="rgb(114,114,114)"/>
  <rect x="17" y="8" width="1" height="1" fill="rgb(31,31,31)" fill-opacity="0.9140625"/>
  <rect x="18" y="8" width="3" height="1" fill="rgb(255,255,255)" fill-opacity="0.0078125"/>
  <rect x="0" y="9" width="4" height="1" fill="rgb(255,255,255)" fill-opacity="0.0078125"/>
  <rect x="4" y="9" width="1" height="1" fill="rgb(27,27,27)" fill-opacity="0.890625"/>
  <rect x="5" y="9" width="1" height="1" fill="rgb(244,244,244)"/>
  <rect x="6" y="9" width="1" height="1" fill="rgb(230,230,230)"/>
  <rect x="7" y="9" width="1" height="1" fill="rgb(234,234,234)"/>
  <rect x="8" y="9" width="1" height="1" fill="rgb(239,239,239)"/>
  <rect x="9" y="9" width="1" height="1" fill="rgb(245,245,245)"/>
  <rect x="10" y="9" width="1" height="1" fill="rgb(250,250,250)"/>
  <rect x="11" y="9" width="1" height="1" fill="rgb(255,255,255)"/>
  <rect x="12" y="9" width="1" height="1" fill="rgb(158,158,158)"/>
  <rect x="13" y="9" width="1" height="1" fill="rgb(65,65,65)"/>
  <rect x="14" y="9" width="1" height="1" fill="rgb(69,69,69)"/>
  <rect x="15" y="9" width="1" height="1" fill="rgb(72,72,72)"/>
  <rect x="16" y="9" width="1" height="1" fill="rgb(109,109,109)"/>
  <rect x="17" y="9" width="1" height="1" fill="rgb(32,32,32)" fill-opacity="0.9140625"/>
  <rect x="18" y="9" width="3" height="1" fill="rgb(255,255,255)" fill-opacity="0.0078125"/>
  <rect x="0" y="10" width="4" height="1" fill="rgb(255,255,255)" fill-opacity="0.0078125"/>
  <rect x="4" y="10" width="1" height="1" fill="rgb(27,27,27)" fill-opacity="0.890625"/>
  <rect x="5" y="10" width="1" height="1" fill="rgb(245,245,245)"/>
  <rect x="6" y="10" width="1" height="1" fill="rgb(234,234,234)"/>
  <rect x="7" y="10" width="1" height="1" fill="rgb(240,240,240)"/>
  <rect x="8" y="10" width="1" height="1" fill="rgb(245,245,245)"/>
  <rect x="9" y="10" width="1" height="1" fill="rgb(250,250,250)"/>
  <rect x="10" y="10" width="1" height="1" fill="rgb(255,255,255)"/>
  <rect x="11" y="10" width="1" height="1" fill="rgb(158,158,158)"/>
  <rect x="12" y="10" width="1" height="1" fill="rgb(65,65,65)"/>
  <rect x="13" y="10" width="1" height="1" fill="rgb(69,69,69)"/>
  <rect x="14" y="10" width="1" height="1" fill="rgb(72,72,72)"/>
  <rect x="15" y="10" width="1" height="1" fill="rgb(76,76,76)"/>
  <rect x="16" y="10" width="1" height="1" fill="rgb(105,105,105)"/>
  <rect x="17" y="10" width="1" height="1" fill="rgb(32,32,32)" fill-opacity="0.9140625"/>
  <rect x="18" y="10" width="3" height="1" fill="rgb(255,255,255)" fill-opacity="0.0078125"/>
  <rect x="0" y="11" width="4" height="1" fill="rgb(255,255,255)" fill-opacity="0.0078125"/>
  <rect x="4" y="11" width="1" height="1" fill="rgb(27,27,27)" fill-opacity="0.890625"/>
  <rect x="5" y="11" width="1" height="1" fill="rgb(246,246,246)"/>
  <rect x="6" y="11" width="1" height="1" fill="rgb(240,240,240)"/>
  <rect x="7" y="11" width="1" height="1" fill="rgb(245,245,245)"/>
  <rect x="8" y="11" width="1" height="1" fill="rgb(250,250,250)"/>
  <rect x="9" y="11" width="1" height="1" fill="rgb(255,255,255)"/>
  <rect x="10" y="11" width="1" height="1" fill="rgb(158,158,158)"/>
  <rect x="11" y="11" width="1" height="1" fill="rgb(65,65,65)"/>
  <rect x="12" y="11" width="1" height="1" fill="rgb(69,69,69)"/>
  <rect x="13" y="11" width="1" height="1" fill="rgb(73,73,73)"/>
  <rect x="14" y="11" width="1" height="1" fill="rgb(76,76,76)"/>
  <rect x="15" y="11" width="1" height="1" fill="rgb(80,80,80)"/>
  <rect x="16" y="11" width="1" height="1" fill="rgb(100,100,100)"/>
  <rect x="17" y="11" width="1" height="1" fill="rgb(32,32,32)" fill-opacity="0.9140625"/>
  <rect x="18" y="11" width="3" height="1" fill="rgb(255,255,255)" fill-opacity="0.0078125"/>
  <rect x="0" y="12" width="4" height="1" fill="rgb(255,255,255)" fill-opacity="0.0078125"/>
  <rect x="4" y="12" width="1" height="1" fill="rgb(28,28,28)" fill-opacity="0.890625"/>
  <rect x="5" y="12" width="1" height="1" fill="rgb(248,248,248)"/>
  <rect x="6" y="12" width="1" height="1" fill="rgb(245,245,245)"/>
  <rect x="7" y="12" width="1" height="1" fill="rgb(250,250,250)"/>
  <rect x="8" y="12" width="1" height="1" fill="rgb(255,255,255)"/>
  <rect x="9" y="12" width="1" height="1" fill="rgb(159,159,159)"/>
  <rect x="10" y="12" width="1" height="1" fill="rgb(65,65,65)"/>
  <rect x="11" y="12" width="1" height="1" fill="rgb(69,69,69)"/>
  <rect x="12" y="12" width="1" height="1" fill="rgb(73,73,73)"/>
  <rect x="13" y="12" width="1" height="1" fill="rgb(77,77,77)"/>
  <rect x="14" y="12" width="1" height="1" fill="rgb(80,80,80)"/>
  <rect x="15" y="12" width="1" height="1" fill="rgb(84,84,84)"/>
  <rect x="16" y="12" width="1" height="1" fill="rgb(96,96,96)"/>
  <rect x="17" y="12" width="1" height="1" fill="rgb(33,33,33)" fill-opacity="0.9140625"/>
  <rect x="18" y="12" width="3" height="1" fill="rgb(255,255,255)" fill-opacity="0.0078125"/>
  <rect x="0" y="13" width="4" height="1" fill="rgb(255,255,255)" fill-opacity="0.0078125"/>
  <rect x="4" y="13" width="1" height="1" fill="rgb(28,28,28)" fill-opacity="0.890625"/>
  <rect x="5" y="13" width="2" height="1" fill="rgb(250,250,250)"/>
  <rect x="7" y="13" width="1" height="1" fill="rgb(255,255,255)"/>
  <rect x="8" y="13" width="1" height="1" fill="rgb(159,159,159)"/>
  <rect x="9" y="13" width="1" height="1" fill="rgb(66,66,66)"/>
  <rect x="10" y="13" width="1" height="1" fill="rgb(69,69,69)"/>
  <rect x="11" y="13" width="1" height="1" fill="rgb(73,73,73)"/>
  <rect x="12" y="13" width="1" height="1" fill="rgb(77,77,77)"/>
  <rect x="13" y="13" width="1" height="1" fill="rgb(81,81,81)"/>
  <rect x="14" y="13" width="1" height="1" fill="rgb(84,84,84)"/>
  <rect x="15" y="13" width="1" height="1" fill="rgb(88,88,88)"/>
  <rect x="16" y="13" width="1" height="1" fill="rgb(92,92,92)"/>
  <rect x="17" y="13" width="1" height="1" fill="rgb(33,33,33)" fill-opacity="0.9140625"/>
  <rect x="18" y="13" width="3" height="1" fill="rgb(255,255,255)" fill-opacity="0.0078125"/>
  <rect x="0" y="14" width="4" height="1" fill="rgb(255,255,255)" fill-opacity="0.0078125"/>
  <rect x="4" y="14" width="1" height="1" fill="rgb(29,29,29)" fill-opacity="0.890625"/>
  <rect x="5" y="14" width="1" height="1" fill="rgb(252,252,252)"/>
  <rect x="6" y="14" width="1" height="1" fill="rgb(255,255,255)"/>
  <rect x="7" y="14" width="1" height="1" fill="rgb(159,159,159)"/>
  <rect x="8" y="14" width="1" height="1" fill="rgb(66,66,66)"/>
  <rect x="9" y="14" width="1" height="1" fill="rgb(69,69,69)"/>
  <rect x="10" y="14" width="1" height="1" fill="rgb(73,73,73)"/>
  <rect x="11" y="14" width="1" height="1" fill="rgb(77,77,77)"/>
  <rect x="12" y="14" width="1" height="1" fill="rgb(81,81,81)"/>
  <rect x="13" y="14" width="1" height="1" fill="rgb(85,85,85)"/>
  <rect x="14" y="14" width="1" height="1" fill="rgb(88,88,88)"/>
  <rect x="15" y="14" width="1" height="1" fill="rgb(92,92,92)"/>
  <rect x="16" y="14" width="1" height="1" fill="rgb(96,96,96)"/>
  <rect x="17" y="14" width="1" height="1" fill="rgb(33,33,33)" fill-opacity="0.9140625"/>
  <rect x="18" y="14" width="3" height="1" fill="rgb(255,255,255)" fill-opacity="0.0078125"/>
  <rect x="0" y="15" width="4" height="1" fill="rgb(255,255,255)" fill-opacity="0.0078125"/>
  <rect x="4" y="15" width="1" height="1" fill="rgb(29,29,29)" fill-opacity="0.890625"/>
  <rect x="5" y="15" width="1" height="1" fill="rgb(255,255,255)"/>
  <rect x="6" y="15" width="1" height="1" fill="rgb(160,160,160)"/>
  <rect x="7" y="15" width="1" height="1" fill="rgb(66,66,66)"/>
  <rect x="8" y="15" width="1" height="1" fill="rgb(70,70,70)"/>
  <rect x="9" y="15" width="1" height="1" fill="rgb(73,73,73)"/>
  <rect x="10" y="15" width="1" height="1" fill="rgb(77,77,77)"/>
  <rect x="11" y="15" width="1" height="1" fill="rgb(81,81,81)"/>
  <rect x="12" y="15" width="1" height="1" fill="rgb(85,85,85)"/>
  <rect x="13" y="15" width="1" height="1" fill="rgb(88,88,88)"/>
  <rect x="14" y="15" width="1" height="1" fill="rgb(92,92,92)"/>
  <rect x="15" y="15" width="1" height="1" fill="rgb(96,96,96)"/>
  <rect x="16" y="15" width="1" height="1" fill="rgb(99,99,99)"/>
  <rect x="17" y="15" width="1" height="1" fill="rgb(34,34,34)" fill-opacity="0.9140625"/>
  <rect x="18" y="15" width="3" height="1" fill="rgb(255,255,255)" fill-opacity="0.0078125"/>
  <rect x="0" y="16" width="4" height="1" fill="rgb(255,255,255)" fill-opacity="0.0078125"/>
  <rect x="4" y="16" width="1" height="1" fill="rgb(29,29,29)" fill-opacity="0.890625"/>
  <rect x="5" y="16" width="1" height="1" fill="rgb(191,191,191)"/>
  <rect x="6" y="16" width="1" height="1" fill="rgb(123,123,123)"/>
  <rect x="7" y="16" width="1" height="1" fill="rgb(118,118,118)"/>
  <rect x="8" y="16" width="1" height="1" fill="rgb(112,112,112)"/>
  <rect x="9" y="16" width="1" height="1" fill="rgb(107,107,107)"/>
  <rect x="10" y="16" width="1" height="1" fill="rgb(103,103,103)"/>
  <rect x="11" y="16" width="1" height="1" fill="rgb(99,99,99)"/>
  <rect x="12" y="16" width="1" height="1" fill="rgb(95,95,95)"/>
  <rect x="13" y="16" width="1" height="1" fill="rgb(92,92,92)"/>
  <rect x="14" y="16" width="1" height="1" fill="rgb(96,96,96)"/>
  <rect x="15" y="16" width="1" height="1" fill="rgb(100,100,100)"/>
  <rect x="16" y="16" width="1" height="1" fill="rgb(103,103,103)"/>
  <rect x="17" y="16" width="1" height="1" fill="rgb(34,34,34)" fill-opacity="0.9140625"/>
  <rect x="18" y="16" width="3" height="1" fill="rgb(255,255,255)" fill-opacity="0.0078125"/>
  <rect x="0" y="17" width="4" height="1" fill="rgb(255,255,255)" fill-opacity="0.0078125"/>
  <rect x="4" y="17" width="1" height="1" fill="rgb(30,30,30)" fill-opacity="0.7734375"/>
  <rect x="5" y="17" width="1" height="1" fill="rgb(30,30,30)" fill-opacity="0.9140625"/>
  <rect x="6" y="17" width="3" height="1" fill="rgb(31,31,31)" fill-opacity="0.9140625"/>
  <rect x="9" y="17" width="2" height="1" fill="rgb(32,32,32)" fill-opacity="0.9140625"/>
  <rect x="11" y="17" width="4" height="1" fill="rgb(33,33,33)" fill-opacity="0.9140625"/>
  <rect x="15" y="17" width="2" height="1" fill="rgb(34,34,34)" fill-opacity="0.9140625"/>
  <rect x="17" y="17" width="1" height="1" fill="rgb(34,34,34)" fill-opacity="0.796875"/>
  <rect x="18" y="17" width="3" height="1" fill="rgb(255,255,255)" fill-opacity="0.0078125"/>
  <rect x="0" y="18" width="21" height="1" fill="rgb(255,255,255)" fill-opacity="0.0078125"/>
  <rect x="0" y="19" width="21" height="1" fill="rgb(255,255,255)" fill-opacity="0.0078125"/>
  <rect x="0" y="20" width="21" height="1" fill="rgb(255,255,255)" fill-opacity="0.0078125"/>
</svg>