<svg xmlns="http://www.w3.org/2000/svg" shape-rendering="crispEdges" width="21" height="21" viewBox="0 0 21 21">
  <rect x="0" y="0" width="1" height="21" fill="rgb(255,255,255)" fill-opacity="0.0078125"/>
  <rect x="1" y="0" width="1" height="21" fill="rgb(255,255,255)" fill-opacity="0.0078125"/>
  <rect x="2" y="0" width="1" height="21" fill="rgb(255,255,255)" fill-opacity="0.0078125"/>
  <rect x="3" y="0" width="1" height="21" fill="rgb(255,255,255)" fill-opacity="0.0078125"/>
  <rect x="4" y="0" width="1" height="5" fill="rgb(255,255,255)" fill-opacity="0.0078125"/>
  <rect x="4" y="5" width="1" height="1" fill="rgb(0,0,0)" fill-opacity="0.015625"/>
  <rect x="4" y="6" width="1" height="1" fill="rgb(33,33,33)" fill-opacity="0.34375"/>
  <rect x="4" y="7" width="1" height="7" fill="rgb(22,22,22)" fill-opacity="0.3671875"/>
  <rect x="4" y="14" width="1" height="1" fill="rgb(19,19,19)" fill-opacity="0.375"/>
  <rect x="4" y="15" width="1" height="1" fill="rgb(17,17,17)" fill-opacity="0.1796875"/>
  <rect x="4" y="16" width="1" height="5" fill="rgb(255,255,255)" fill-opacity="0.0078125"/>
  <rect x="5" y="0" width="1" height="5" fill="rgb(255,255,255)" fill-opacity="0.0078125"/>
  <rect x="5" y="5" width="1" height="1" fill="rgb(13,13,13)" fill-opacity="0.15625"/>
  <rect x="5" y="6" width="1" height="1" fill="rgb(110,110,110)" fill-opacity="0.3828125"/>
  <rect x="5" y="7" width="1" height="1" fill="rgb(203,203,203)" fill-opacity="0.40625"/>
  <rect x="5" y="8" width="1" height="6" fill="rgb(200,200,200)" fill-opacity="0.40625"/>
  <rect x="5" y="14" width="1" height="1" fill="rgb(195,195,195)" fill-opacity="0.40625"/>
  <rect x="5" y="15" width="1" height="1" fill="rgb(22,22,22)" fill-opacity="0.3671875"/>
  <rect x="5" y="16" width="1" height="1" fill="rgb(0,0,0)" fill-opacity="0.03125"/>
  <rect x="5" y="17" width="1" height="4" fill="rgb(255,255,255)" fill-opacity="0.0078125"/>
  <rect x="6" y="0" width="1" height="5" fill="rgb(255,255,255)" fill-opacity="0.0078125"/>
  <rect x="6" y="5" width="1" height="1" fill="rgb(26,26,26)" fill-opacity="0.3515625"/>
  <rect x="6" y="6" width="1" height="1" fill="rgb(225,225,225)" fill-opacity="0.40625"/>
  <rect x="6" y="7" width="1" height="1" fill="rgb(220,220,220)" fill-opacity="0.3828125"/>
  <rect x="6" y="8" width="1" height="1" fill="rgb(128,135,148)" fill-opacity="0.53125"/>
  <rect x="6" y="9" width="1" height="1" fill="rgb(61,77,102)" fill-opacity="0.8359375"/>
  <rect x="6" y="10" width="1" height="1" fill="rgb(38,57,86)" fill-opacity="0.953125"/>
  <rect x="6" y="11" width="1" height="1" fill="rgb(37,56,85)" fill-opacity="0.953125"/>
  <rect x="6" y="12" width="1" height="1" fill="rgb(54,72,100)" fill-opacity="0.8359375"/>
  <rect x="6" y="13" width="1" height="1" fill="rgb(128,135,148)" fill-opacity="0.53125"/>
  <rect x="6" y="14" width="1" height="1" fill="rgb(200,200,200)" fill-opacity="0.40625"/>
  <rect x="6" y="15" width="1" height="1" fill="rgb(125,125,125)" fill-opacity="0.390625"/>
  <rect x="6" y="16" width="1" height="1" fill="rgb(9,9,9)" fill-opacity="0.2265625"/>
  <rect x="6" y="17" width="1" height="4" fill="rgb(255,255,255)" fill-opacity="0.0078125"/>
  <rect x="7" y="0" width="1" height="4" fill="rgb(255,255,255)" fill-opacity="0.0078125"/>
  <rect x="7" y="4" width="1" height="1" fill="rgb(0,0,0)" fill-opacity="0.09375"/>
  <rect x="7" y="5" width="1" height="1" fill="rgb(74,74,74)" fill-opacity="0.3828125"/>
  <rect x="7" y="6" width="1" height="1" fill="rgb(255,255,255)" fill-opacity="0.40625"/>
  <rect x="7" y="7" width="1" height="1" fill="rgb(96,110,131)" fill-opacity="0.65625"/>
  <rect x="7" y="8" width="1" height="1" fill="rgb(69,85,109)" fill-opacity="0.96875"/>
  <rect x="7" y="9" width="1" height="1" fill="rgb(211,217,226)"/>
  <rect x="7" y="10" width="1" height="1" fill="rgb(232,238,246)"/>
  <rect x="7" y="11" width="1" height="1" fill="rgb(219,228,241)"/>
  <rect x="7" y="12" width="1" height="1" fill="rgb(168,184,209)"/>
  <rect x="7" y="13" width="1" height="1" fill="rgb(49,69,100)" fill-opacity="0.96875"/>
  <rect x="7" y="14" width="1" height="1" fill="rgb(78,94,117)" fill-opacity="0.6875"/>
  <rect x="7" y="15" width="1" height="1" fill="rgb(200,200,200)" fill-opacity="0.40625"/>
  <rect x="7" y="16" width="1" height="1" fill="rgb(25,25,25)" fill-opacity="0.359375"/>
  <rect x="7" y="17" width="1" height="1" fill="rgb(0,0,0)" fill-opacity="0.046875"/>
  <rect x="7" y="18" width="1" height="3" fill="rgb(255,255,255)" fill-opacity="0.0078125"/>
  <rect x="8" y="0" width="1" height="4" fill="rgb(255,255,255)" fill-opacity="0.0078125"/>
  <rect x="8" y="4" width="1" height="1" fill="rgb(37,37,37)" fill-opacity="0.3046875"/>
  <rect x="8" y="5" width="1" height="1" fill="rgb(190,190,190)" fill-opacity="0.40625"/>
  <rect x="8" y="6" width="1" height="1" fill="rgb(162,169,183)" fill-opacity="0.53125"/>
  <rect x="8" y="7" width="1" height="1" fill="rgb(71,87,111)" fill-opacity="0.96875"/>
  <rect x="8" y="8" width="1" height="1" fill="rgb(245,247,251)"/>
  <rect x="8" y="9" width="1" height="1" fill="rgb(220,230,244)"/>
  <rect x="8" y="10" width="1" height="1" fill="rgb(181,202,232)"/>
  <rect x="8" y="11" width="1" height="1" fill="rgb(154,182,223)"/>
  <rect x="8" y="12" width="1" height="1" fill="rgb(155,182,222)"/>
  <rect x="8" y="13" width="1" height="1" fill="rgb(166,189,224)"/>
  <rect x="8" y="14" width="1" height="1" fill="rgb(40,62,96)" fill-opacity="0.96875"/>
  <rect x="8" y="15" width="1" height="1" fill="rgb(128,135,148)" fill-opacity="0.53125"/>
  <rect x="8" y="16" width="1" height="1" fill="rgb(141,141,141)" fill-opacity="0.390625"/>
  <rect x="8" y="17" width="1" height="1" fill="rgb(8,8,8)" fill-opacity="0.2578125"/>
  <rect x="8" y="18" width="1" height="3" fill="rgb(255,255,255)" fill-opacity="0.0078125"/>
  <rect x="9" y="0" width="1" height="3" fill="rgb(255,255,255)" fill-opacity="0.0078125"/>
  <rect x="9" y="3" width="1" height="1" fill="rgb(0,0,0)" fill-opacity="0.0390625"/>
  <rect x="9" y="4" width="1" height="1" fill="rgb(40,40,40)" fill-opacity="0.3828125"/>
  <rect x="9" y="5" width="1" height="1" fill="rgb(255,255,255)" fill-opacity="0.40625"/>
  <rect x="9" y="6" width="1" height="1" fill="rgb(69,84,109)" fill-opacity="0.8359375"/>
  <rect x="9" y="7" width="1" height="1" fill="rgb(213,218,227)"/>
  <rect x="9" y="8" width="1" height="1" fill="rgb(222,232,245)"/>
  <rect x="9" y="9" width="1" height="1" fill="rgb(178,199,231)"/>
  <rect x="9" y="10" width="1" height="1" fill="rgb(150,179,221)"/>
  <rect x="9" y="11" width="1" height="1" fill="rgb(122,159,212)"/>
  <rect x="9" y="12" width="1" height="1" fill="rgb(94,139,202)"/>
  <rect x="9" y="13" width="1" height="1" fill="rgb(108,148,206)"/>
  <rect x="9" y="14" width="1" height="1" fill="rgb(94,129,180)"/>
  <rect x="9" y="15" width="1" height="1" fill="rgb(45,65,96)" fill-opacity="0.8359375"/>
  <rect x="9" y="16" width="1" height="1" fill="rgb(200,200,200)" fill-opacity="0.40625"/>
  <rect x="9" y="17" width="1" height="1" fill="rgb(32,32,32)" fill-opacity="0.3515625"/>
  <rect x="9" y="18" width="1" height="1" fill="rgb(0,0,0)" fill-opacity="0.0703125"/>
  <rect x="9" y="19" width="1" height="2" fill="rgb(255,255,255)" fill-opacity="0.0078125"/>
  <rect x="10" y="0" width="1" height="3" fill="rgb(255,255,255)" fill-opacity="0.0078125"/>
  <rect x="10" y="3" width="1" height="1" fill="rgb(44,44,44)" fill-opacity="0.234375"/>
  <rect x="10" y="4" width="1" height="1" fill="rgb(153,153,153)" fill-opacity="0.40625"/>
  <rect x="10" y="5" width="1" height="1" fill="rgb(255,255,255)" fill-opacity="0.40625"/>
  <rect x="10" y="6" width="1" height="1" fill="rgb(41,59,89)" fill-opacity="0.953125"/>
  <rect x="10" y="7" width="1" height="1" fill="rgb(235,239,247)"/>
  <rect x="10" y="8" width="1" height="1" fill="rgb(186,206,234)"/>
  <rect x="10" y="9" width="1" height="1" fill="rgb(153,181,222)"/>
  <rect x="10" y="10" width="1" height="1" fill="rgb(125,161,213)"/>
  <rect x="10" y="11" width="1" height="1" fill="rgb(97,141,203)"/>
  <rect x="10" y="12" width="1" height="1" fill="rgb(69,120,194)"/>
  <rect x="10" y="13" width="1" height="1" fill="rgb(51,107,187)"/>
  <rect x="10" y="14" width="1" height="1" fill="rgb(110,148,203)"/>
  <rect x="10" y="15" width="1" height="1" fill="rgb(26,48,82)" fill-opacity="0.953125"/>
  <rect x="10" y="16" width="1" height="1" fill="rgb(200,200,200)" fill-opacity="0.40625"/>
  <rect x="10" y="17" width="1" height="1" fill="rgb(158,158,158)" fill-opacity="0.3828125"/>
  <rect x="10" y="18" width="1" height="1" fill="rgb(8,8,8)" fill-opacity="0.265625"/>
  <rect x="10" y="19" width="1" height="2" fill="rgb(255,255,255)" fill-opacity="0.0078125"/>
  <rect x="11" y="0" width="1" height="3" fill="rgb(255,255,255)" fill-opacity="0.0078125"/>
  <rect x="11" y="3" width="1" height="1" fill="rgb(44,44,44)" fill-opacity="0.234375"/>
  <rect x="11" y="4" width="1" height="1" fill="rgb(153,153,153)" fill-opacity="0.40625"/>
  <rect x="11" y="5" width="1" height="1" fill="rgb(255,255,255)" fill-opacity="0.40625"/>
  <rect x="11" y="6" width="1" height="1" fill="rgb(39,58,89)" fill-opacity="0.953125"/>
  <rect x="11" y="7" width="1" height="1" fill="rgb(223,230,242)"/>
  <rect x="11" y="8" width="1" height="1" fill="rgb(163,189,226)"/>
  <rect x="11" y="9" width="1" height="1" fill="rgb(127,163,214)"/>
  <rect x="11" y="10" width="1" height="1" fill="rgb(100,142,204)"/>
  <rect x="11" y="11" width="1" height="1" fill="rgb(72,122,195)"/>
  <rect x="11" y="12" width="1" height="1" fill="rgb(44,102,185)"/>
  <rect x="11" y="13" width="1" height="1" fill="rgb(46,103,186)"/>
  <rect x="11" y="14" width="1" height="1" fill="rgb(100,141,199)"/>
  <rect x="11" y="15" width="1" height="1" fill="rgb(25,47,81)" fill-opacity="0.953125"/>
  <rect x="11" y="16" width="1" height="1" fill="rgb(180,180,180)" fill-opacity="0.40625"/>
  <rect x="11" y="17" width="1" height="1" fill="rgb(143,143,143)" fill-opacity="0.40625"/>
  <rect x="11" y="18" width="1" height="1" fill="rgb(21,21,21)" fill-opacity="0.2890625"/>
  <rect x="11" y="19" width="1" height="2" fill="rgb(255,255,255)" fill-opacity="0.0078125"/>
  <rect x="12" y="0" width="1" height="3" fill="rgb(255,255,255)" fill-opacity="0.0078125"/>
  <rect x="12" y="3" width="1" height="1" fill="rgb(0,0,0)" fill-opacity="0.0390625"/>
  <rect x="12" y="4" width="1" height="1" fill="rgb(40,40,40)" fill-opacity="0.3828125"/>
  <rect x="12" y="5" width="1" height="1" fill="rgb(255,255,255)" fill-opacity="0.40625"/>
  <rect x="12" y="6" width="1" height="1" fill="rgb(63,81,108)" fill-opacity="0.8359375"/>
  <rect x="12" y="7" width="1" height="1" fill="rgb(172,187,210)"/>
  <rect x="12" y="8" width="1" height="1" fill="rgb(163,188,226)"/>
  <rect x="12" y="9" width="1" height="1" fill="rgb(102,144,205)"/>
  <rect x="12" y="10" width="1" height="1" fill="rgb(74,124,196)"/>
  <rect x="12" y="11" width="1" height="1" fill="rgb(47,104,186)"/>
  <rect x="12" y="12" width="1" height="1" fill="rgb(37,97,183)"/>
  <rect x="12" y="13" width="1" height="1" fill="rgb(69,121,194)"/>
  <rect x="12" y="14" width="1" height="1" fill="rgb(72,112,170)"/>
  <rect x="12" y="15" width="1" height="1" fill="rgb(42,63,94)" fill-opacity="0.8359375"/>
  <rect x="12" y="16" width="1" height="1" fill="rgb(180,180,180)" fill-opacity="0.40625"/>
  <rect x="12" y="17" width="1" height="1" fill="rgb(36,36,36)" fill-opacity="0.3671875"/>
  <rect x="12" y="18" width="1" height="1" fill="rgb(0,0,0)" fill-opacity="0.0703125"/>
  <rect x="12" y="19" width="1" height="2" fill="rgb(255,255,255)" fill-opacity="0.0078125"/>
  <rect x="13" y="0" width="1" height="4" fill="rgb(255,255,255)" fill-opacity="0.0078125"/>
  <rect x="13" y="4" width="1" height="1" fill="rgb(37,37,37)" fill-opacity="0.3046875"/>
  <rect x="13" y="5" width="1" height="1" fill="rgb(190,190,190)" fill-opacity="0.40625"/>
  <rect x="13" y="6" width="1" height="1" fill="rgb(162,169,183)" fill-opacity="0.53125"/>
  <rect x="13" y="7" width="1" height="1" fill="rgb(52,71,102)" fill-opacity="0.96875"/>
  <rect x="13" y="8" width="1" height="1" fill="rgb(172,194,226)"/>
  <rect x="13" y="9" width="1" height="1" fill="rgb(115,154,210)"/>
  <rect x="13" y="10" width="1" height="1" fill="rgb(60,114,191)"/>
  <rect x="13" y="11" width="1" height="1" fill="rgb(48,105,187)"/>
  <rect x="13" y="12" width="1" height="1" fill="rgb(69,121,194)"/>
  <rect x="13" y="13" width="1" height="1" fill="rgb(89,134,197)"/>
  <rect x="13" y="14" width="1" height="1" fill="rgb(31,54,90)" fill-opacity="0.96875"/>
  <rect x="13" y="15" width="1" height="1" fill="rgb(116,124,137)" fill-opacity="0.53125"/>
  <rect x="13" y="16" width="1" height="1" fill="rgb(129,129,129)" fill-opacity="0.3984375"/>
  <rect x="13" y="17" width="1" height="1" fill="rgb(15,15,15)" fill-opacity="0.2734375"/>
  <rect x="13" y="18" width="1" height="3" fill="rgb(255,255,255)" fill-opacity="0.0078125"/>
  <rect x="14" y="0" width="1" height="4" fill="rgb(255,255,255)" fill-opacity="0.0078125"/>
  <rect x="14" y="4" width="1" height="1" fill="rgb(0,0,0)" fill-opacity="0.09375"/>
  <rect x="14" y="5" width="1" height="1" fill="rgb(74,74,74)" fill-opacity="0.3828125"/>
  <rect x="14" y="6" width="1" height="1" fill="rgb(255,255,255)" fill-opacity="0.40625"/>
  <rect x="14" y="7" width="1" height="1" fill="rgb(86,101,126)" fill-opacity="0.65625"/>
  <rect x="14" y="8" width="1" height="1" fill="rgb(42,64,97)" fill-opacity="0.96875"/>
  <rect x="14" y="9" width="1" height="1" fill="rgb(100,133,180)"/>
  <rect x="14" y="10" width="1" height="1" fill="rgb(109,147,202)"/>
  <rect x="14" y="11" width="1" height="1" fill="rgb(100,140,198)"/>
  <rect x="14" y="12" width="1" height="1" fill="rgb(71,110,167)"/>
  <rect x="14" y="13" width="1" height="1" fill="rgb(31,54,90)" fill-opacity="0.96875"/>
  <rect x="14" y="14" width="1" height="1" fill="rgb(69,85,110)" fill-opacity="0.6875"/>
  <rect x="14" y="15" width="1" height="1" fill="rgb(178,178,178)" fill-opacity="0.40625"/>
  <rect x="14" y="16" width="1" height="1" fill="rgb(27,27,27)" fill-opacity="0.3671875"/>
  <rect x="14" y="17" width="1" height="1" fill="rgb(0,0,0)" fill-opacity="0.046875"/>
  <rect x="14" y="18" width="1" height="3" fill="rgb(255,255,255)" fill-opacity="0.0078125"/>
  <rect x="15" y="0" width="1" height="5" fill="rgb(255,255,255)" fill-opacity="0.0078125"/>
  <rect x="15" y="5" width="1" height="1" fill="rgb(26,26,26)" fill-opacity="0.3515625"/>
  <rect x="15" y="6" width="1" height="1" fill="rgb(225,225,225)" fill-opacity="0.40625"/>
  <rect x="15" y="7" width="1" height="1" fill="rgb(208,208,208)" fill-opacity="0.34375"/>
  <rect x="15" y="8" width="1" height="1" fill="rgb(116,124,137)" fill-opacity="0.53125"/>
  <rect x="15" y="9" width="1" height="1" fill="rgb(42,63,94)" fill-opacity="0.8359375"/>
  <rect x="15" y="10" width="1" height="2" fill="rgb(25,47,81)" fill-opacity="0.953125"/>
  <rect x="15" y="12" width="1" height="1" fill="rgb(42,63,94)" fill-opacity="0.8359375"/>
  <rect x="15" y="13" width="1" height="1" fill="rgb(116,124,137)" fill-opacity="0.53125"/>
  <rect x="15" y="14" width="1" height="1" fill="rgb(180,180,180)" fill-opacity="0.40625"/>
  <rect x="15" y="15" width="1" height="1" fill="rgb(112,112,112)" fill-opacity="0.3984375"/>
  <rect x="15" y="16" width="1" height="1" fill="rgb(18,18,18)" fill-opacity="0.234375"/>
  <rect x="15" y="17" width="1" height="4" fill="rgb(255,255,255)" fill-opacity="0.0078125"/>
  <rect x="16" y="0" width="1" height="5" fill="rgb(255,255,255)" fill-opacity="0.0078125"/>
  <rect x="16" y="5" width="1" height="1" fill="rgb(13,13,13)" fill-opacity="0.15625"/>
  <rect x="16" y="6" width="1" height="1" fill="rgb(107,107,107)" fill-opacity="0.375"/>
  <rect x="16" y="7" width="1" height="7" fill="rgb(180,180,180)" fill-opacity="0.40625"/>
  <rect x="16" y="14" width="1" height="1" fill="rgb(175,175,175)" fill-opacity="0.40625"/>
  <rect x="16" y="15" width="1" height="1" fill="rgb(22,22,22)" fill-opacity="0.3671875"/>
  <rect x="16" y="16" width="1" height="1" fill="rgb(0,0,0)" fill-opacity="0.03125"/>
  <rect x="16" y="17" width="1" height="4" fill="rgb(255,255,255)" fill-opacity="0.0078125"/>
  <rect x="17" y="0" width="1" height="5" fill="rgb(255,255,255)" fill-opacity="0.0078125"/>
  <rect x="17" y="5" width="1" height="1" fill="rgb(0,0,0)" fill-opacity="0.015625"/>
  <rect x="17" y="6" width="1" height="1" fill="rgb(25,25,25)" fill-opacity="0.328125"/>
  <rect x="17" y="7" width="1" height="7" fill="rgb(19,19,19)" fill-opacity="0.3671875"/>
  <rect x="17" y="14" width="1" height="1" fill="rgb(16,16,16)" fill-opacity="0.375"/>
  <rect x="17" y="15" width="1" height="1" fill="rgb(17,17,17)" fill-opacity="0.1796875"/>
  <rect x="17" y="16" width="1" height="5" fill="rgb(255,255,255)" fill-opacity="0.0078125"/>
  <rect x="18" y="0" width="1" height="21" fill="rgb(255,255,255)" fill-opacity="0.0078125"/>
  <rect x="19" y="0" width="1" height="21" fill="rgb(255,255,255)" fill-opacity="0.0078125"/>
  <rect x="20" y="0" width="1" height="21" fill="rgb(255,255,255)" fill-opacity="0.0078125"/>
</svg>