<svg xmlns="http://www.w3.org/2000/svg" shape-rendering="crispEdges" width="21" height="21" viewBox="0 0 21 21">
  <rect x="0" y="0" width="1" height="21" fill="rgb(255,255,255)" fill-opacity="0.0078125"/>
  <rect x="1" y="0" width="1" height="21" fill="rgb(255,255,255)" fill-opacity="0.0078125"/>
  <rect x="2" y="0" width="1" height="21" fill="rgb(255,255,255)" fill-opacity="0.0078125"/>
  <rect x="3" y="0" width="1" height="21" fill="rgb(255,255,255)" fill-opacity="0.0078125"/>
  <rect x="4" y="0" width="1" height="5" fill="rgb(255,255,255)" fill-opacity="0.0078125"/>
  <rect x="4" y="5" width="1" height="1" fill="rgb(51,51,51)" fill-opacity="0.7109375"/>
  <rect x="4" y="6" width="1" height="7" fill="rgb(51,51,51)"/>
  <rect x="4" y="13" width="1" height="1" fill="rgb(51,51,51)" fill-opacity="0.8515625"/>
  <rect x="4" y="14" width="1" height="1" fill="rgb(51,51,51)" fill-opacity="0.140625"/>
  <rect x="4" y="15" width="1" height="6" fill="rgb(255,255,255)" fill-opacity="0.0078125"/>
  <rect x="5" y="0" width="1" height="5" fill="rgb(255,255,255)" fill-opacity="0.0078125"/>
  <rect x="5" y="5" width="1" height="1" fill="rgb(51,51,51)" fill-opacity="0.9609375"/>
  <rect x="5" y="6" width="1" height="1" fill="rgb(242,242,242)"/>
  <rect x="5" y="7" width="1" height="6" fill="rgb(255,255,255)"/>
  <rect x="5" y="13" width="1" height="1" fill="rgb(206,206,206)"/>
  <rect x="5" y="14" width="1" height="1" fill="rgb(50,50,50)" fill-opacity="0.734375"/>
  <rect x="5" y="15" width="1" height="6" fill="rgb(255,255,255)" fill-opacity="0.0078125"/>
  <rect x="6" y="0" width="1" height="4" fill="rgb(255,255,255)" fill-opacity="0.0078125"/>
  <rect x="6" y="4" width="1" height="1" fill="rgb(51,51,51)" fill-opacity="0.1640625"/>
  <rect x="6" y="5" width="1" height="1" fill="rgb(93,93,93)"/>
  <rect x="6" y="6" width="1" height="1" fill="rgb(238,238,238)"/>
  <rect x="6" y="7" width="1" height="5" fill="rgb(201,201,201)"/>
  <rect x="6" y="12" width="1" height="1" fill="rgb(204,204,204)"/>
  <rect x="6" y="13" width="1" height="1" fill="rgb(249,249,249)"/>
  <rect x="6" y="14" width="1" height="1" fill="rgb(121,121,121)"/>
  <rect x="6" y="15" width="1" height="1" fill="rgb(50,50,50)" fill-opacity="0.359375"/>
  <rect x="6" y="16" width="1" height="5" fill="rgb(255,255,255)" fill-opacity="0.0078125"/>
  <rect x="7" y="0" width="1" height="4" fill="rgb(255,255,255)" fill-opacity="0.0078125"/>
  <rect x="7" y="4" width="1" height="1" fill="rgb(51,51,51)" fill-opacity="0.4140625"/>
  <rect x="7" y="5" width="1" height="1" fill="rgb(163,163,163)"/>
  <rect x="7" y="6" width="1" height="1" fill="rgb(252,252,252)"/>
  <rect x="7" y="7" width="1" height="1" fill="rgb(202,202,202)"/>
  <rect x="7" y="8" width="1" height="5" fill="rgb(201,201,201)"/>
  <rect x="7" y="13" width="1" height="1" fill="rgb(218,218,218)"/>
  <rect x="7" y="14" width="1" height="1" fill="rgb(236,236,236)"/>
  <rect x="7" y="15" width="1" height="1" fill="rgb(58,58,58)" fill-opacity="0.9140625"/>
  <rect x="7" y="16" width="1" height="1" fill="rgb(45,45,45)" fill-opacity="0.0703125"/>
  <rect x="7" y="17" width="1" height="4" fill="rgb(255,255,255)" fill-opacity="0.0078125"/>
  <rect x="8" y="0" width="1" height="4" fill="rgb(255,255,255)" fill-opacity="0.0078125"/>
  <rect x="8" y="4" width="1" height="1" fill="rgb(52,52,52)" fill-opacity="0.6640625"/>
  <rect x="8" y="5" width="1" height="1" fill="rgb(214,214,214)"/>
  <rect x="8" y="6" width="1" height="1" fill="rgb(255,255,255)"/>
  <rect x="8" y="7" width="1" height="1" fill="rgb(216,216,216)"/>
  <rect x="8" y="8" width="1" height="6" fill="rgb(201,201,201)"/>
  <rect x="8" y="14" width="1" height="1" fill="rgb(231,231,231)"/>
  <rect x="8" y="15" width="1" height="1" fill="rgb(172,172,172)"/>
  <rect x="8" y="16" width="1" height="1" fill="rgb(52,52,52)" fill-opacity="0.6015625"/>
  <rect x="8" y="17" width="1" height="4" fill="rgb(255,255,255)" fill-opacity="0.0078125"/>
  <rect x="9" y="0" width="1" height="4" fill="rgb(255,255,255)" fill-opacity="0.0078125"/>
  <rect x="9" y="4" width="1" height="1" fill="rgb(51,51,51)" fill-opacity="0.90625"/>
  <rect x="9" y="5" width="1" height="1" fill="rgb(246,246,246)"/>
  <rect x="9" y="6" width="1" height="1" fill="rgb(255,255,255)"/>
  <rect x="9" y="7" width="1" height="1" fill="rgb(231,231,231)"/>
  <rect x="9" y="8" width="1" height="6" fill="rgb(201,201,201)"/>
  <rect x="9" y="14" width="1" height="1" fill="rgb(205,205,205)"/>
  <rect x="9" y="15" width="1" height="1" fill="rgb(233,233,233)"/>
  <rect x="9" y="16" width="1" height="1" fill="rgb(90,90,90)"/>
  <rect x="9" y="17" width="1" height="1" fill="rgb(53,53,53)" fill-opacity="0.234375"/>
  <rect x="9" y="18" width="1" height="3" fill="rgb(255,255,255)" fill-opacity="0.0078125"/>
  <rect x="10" y="0" width="1" height="3" fill="rgb(255,255,255)" fill-opacity="0.0078125"/>
  <rect x="10" y="3" width="1" height="1" fill="rgb(54,54,54)" fill-opacity="0.15625"/>
  <rect x="10" y="4" width="1" height="1" fill="rgb(93,93,93)"/>
  <rect x="10" y="5" width="1" height="2" fill="rgb(255,255,255)"/>
  <rect x="10" y="7" width="1" height="1" fill="rgb(247,247,247)"/>
  <rect x="10" y="8" width="1" height="7" fill="rgb(201,201,201)"/>
  <rect x="10" y="15" width="1" height="1" fill="rgb(214,214,214)"/>
  <rect x="10" y="16" width="1" height="1" fill="rgb(200,200,200)"/>
  <rect x="10" y="17" width="1" height="1" fill="rgb(53,53,53)" fill-opacity="0.9296875"/>
  <rect x="10" y="18" width="1" height="3" fill="rgb(255,255,255)" fill-opacity="0.0078125"/>
  <rect x="11" y="0" width="1" height="3" fill="rgb(255,255,255)" fill-opacity="0.0078125"/>
  <rect x="11" y="3" width="1" height="1" fill="rgb(54,54,54)" fill-opacity="0.15625"/>
  <rect x="11" y="4" width="1" height="1" fill="rgb(82,82,82)"/>
  <rect x="11" y="5" width="1" height="2" fill="rgb(255,255,255)"/>
  <rect x="11" y="7" width="1" height="1" fill="rgb(232,232,232)"/>
  <rect x="11" y="8" width="1" height="7" fill="rgb(97,97,97)"/>
  <rect x="11" y="15" width="1" height="1" fill="rgb(129,129,129)"/>
  <rect x="11" y="16" width="1" height="1" fill="rgb(144,144,144)"/>
  <rect x="11" y="17" width="1" height="1" fill="rgb(51,51,51)" fill-opacity="0.953125"/>
  <rect x="11" y="18" width="1" height="3" fill="rgb(255,255,255)" fill-opacity="0.0078125"/>
  <rect x="12" y="0" width="1" height="4" fill="rgb(255,255,255)" fill-opacity="0.0078125"/>
  <rect x="12" y="4" width="1" height="1" fill="rgb(51,51,51)" fill-opacity="0.90625"/>
  <rect x="12" y="5" width="1" height="1" fill="rgb(236,236,236)"/>
  <rect x="12" y="6" width="1" height="1" fill="rgb(255,255,255)"/>
  <rect x="12" y="7" width="1" height="1" fill="rgb(188,188,188)"/>
  <rect x="12" y="8" width="1" height="5" fill="rgb(101,101,101)"/>
  <rect x="12" y="13" width="1" height="1" fill="rgb(102,102,102)"/>
  <rect x="12" y="14" width="1" height="1" fill="rgb(109,109,109)"/>
  <rect x="12" y="15" width="1" height="1" fill="rgb(156,156,156)"/>
  <rect x="12" y="16" width="1" height="1" fill="rgb(70,70,70)"/>
  <rect x="12" y="17" width="1" height="1" fill="rgb(49,49,49)" fill-opacity="0.25"/>
  <rect x="12" y="18" width="1" height="3" fill="rgb(255,255,255)" fill-opacity="0.0078125"/>
  <rect x="13" y="0" width="1" height="4" fill="rgb(255,255,255)" fill-opacity="0.0078125"/>
  <rect x="13" y="4" width="1" height="1" fill="rgb(52,52,52)" fill-opacity="0.6640625"/>
  <rect x="13" y="5" width="1" height="1" fill="rgb(192,192,192)"/>
  <rect x="13" y="6" width="1" height="1" fill="rgb(255,255,255)"/>
  <rect x="13" y="7" width="1" height="1" fill="rgb(146,146,146)"/>
  <rect x="13" y="8" width="1" height="6" fill="rgb(106,106,106)"/>
  <rect x="13" y="14" width="1" height="1" fill="rgb(139,139,139)"/>
  <rect x="13" y="15" width="1" height="1" fill="rgb(102,102,102)"/>
  <rect x="13" y="16" width="1" height="1" fill="rgb(50,50,50)" fill-opacity="0.6171875"/>
  <rect x="13" y="17" width="1" height="4" fill="rgb(255,255,255)" fill-opacity="0.0078125"/>
  <rect x="14" y="0" width="1" height="4" fill="rgb(255,255,255)" fill-opacity="0.0078125"/>
  <rect x="14" y="4" width="1" height="1" fill="rgb(51,51,51)" fill-opacity="0.4140625"/>
  <rect x="14" y="5" width="1" height="1" fill="rgb(142,142,142)"/>
  <rect x="14" y="6" width="1" height="1" fill="rgb(248,248,248)"/>
  <rect x="14" y="7" width="1" height="1" fill="rgb(113,113,113)"/>
  <rect x="14" y="8" width="1" height="5" fill="rgb(110,110,110)"/>
  <rect x="14" y="13" width="1" height="1" fill="rgb(122,122,122)"/>
  <rect x="14" y="14" width="1" height="1" fill="rgb(128,128,128)"/>
  <rect x="14" y="15" width="1" height="1" fill="rgb(53,53,53)" fill-opacity="0.921875"/>
  <rect x="14" y="16" width="1" height="1" fill="rgb(57,57,57)" fill-opacity="0.078125"/>
  <rect x="14" y="17" width="1" height="4" fill="rgb(255,255,255)" fill-opacity="0.0078125"/>
  <rect x="15" y="0" width="1" height="4" fill="rgb(255,255,255)" fill-opacity="0.0078125"/>
  <rect x="15" y="4" width="1" height="1" fill="rgb(51,51,51)" fill-opacity="0.1640625"/>
  <rect x="15" y="5" width="1" height="1" fill="rgb(84,84,84)"/>
  <rect x="15" y="6" width="1" height="1" fill="rgb(211,211,211)"/>
  <rect x="15" y="7" width="1" height="5" fill="rgb(114,114,114)"/>
  <rect x="15" y="12" width="1" height="1" fill="rgb(116,116,116)"/>
  <rect x="15" y="13" width="1" height="1" fill="rgb(132,132,132)"/>
  <rect x="15" y="14" width="1" height="1" fill="rgb(69,69,69)"/>
  <rect x="15" y="15" width="1" height="1" fill="rgb(52,52,52)" fill-opacity="0.3671875"/>
  <rect x="15" y="16" width="1" height="5" fill="rgb(255,255,255)" fill-opacity="0.0078125"/>
  <rect x="16" y="0" width="1" height="5" fill="rgb(255,255,255)" fill-opacity="0.0078125"/>
  <rect x="16" y="5" width="1" height="1" fill="rgb(51,51,51)" fill-opacity="0.9609375"/>
  <rect x="16" y="6" width="1" height="1" fill="rgb(170,170,170)"/>
  <rect x="16" y="7" width="1" height="1" fill="rgb(150,150,150)"/>
  <rect x="16" y="8" width="1" height="1" fill="rgb(146,146,146)"/>
  <rect x="16" y="9" width="1" height="1" fill="rgb(142,142,142)"/>
  <rect x="16" y="10" width="1" height="1" fill="rgb(139,139,139)"/>
  <rect x="16" y="11" width="1" height="1" fill="rgb(134,134,134)"/>
  <rect x="16" y="12" width="1" height="1" fill="rgb(130,130,130)"/>
  <rect x="16" y="13" width="1" height="1" fill="rgb(94,94,94)"/>
  <rect x="16" y="14" width="1" height="1" fill="rgb(52,52,52)" fill-opacity="0.7421875"/>
  <rect x="16" y="15" width="1" height="6" fill="rgb(255,255,255)" fill-opacity="0.0078125"/>
  <rect x="17" y="0" width="1" height="5" fill="rgb(255,255,255)" fill-opacity="0.0078125"/>
  <rect x="17" y="5" width="1" height="1" fill="rgb(51,51,51)" fill-opacity="0.7265625"/>
  <rect x="17" y="6" width="1" height="7" fill="rgb(51,51,51)"/>
  <rect x="17" y="13" width="1" height="1" fill="rgb(51,51,51)" fill-opacity="0.8515625"/>
  <rect x="17" y="14" width="1" height="1" fill="rgb(51,51,51)" fill-opacity="0.140625"/>
  <rect x="17" y="15" width="1" height="6" fill="rgb(255,255,255)" fill-opacity="0.0078125"/>
  <rect x="18" y="0" width="1" height="21" fill="rgb(255,255,255)" fill-opacity="0.0078125"/>
  <rect x="19" y="0" width="1" height="21" fill="rgb(255,255,255)" fill-opacity="0.0078125"/>
  <rect x="20" y="0" width="1" height="21" fill="rgb(255,255,255)" fill-opacity="0.0078125"/>
</svg>