<svg xmlns="http://www.w3.org/2000/svg" shape-rendering="crispEdges" width="21" height="21" viewBox="0 0 21 21">
  <rect x="0" y="0" width="21" height="1" fill="rgb(255,255,255)" fill-opacity="0.0078125"/>
  <rect x="0" y="1" width="21" height="1" fill="rgb(255,255,255)" fill-opacity="0.0078125"/>
  <rect x="0" y="2" width="21" height="1" fill="rgb(255,255,255)" fill-opacity="0.0078125"/>
  <rect x="0" y="3" width="21" height="1" fill="rgb(255,255,255)" fill-opacity="0.0078125"/>
  <rect x="0" y="4" width="21" height="1" fill="rgb(255,255,255)" fill-opacity="0.0078125"/>
  <rect x="0" y="5" width="21" height="1" fill="rgb(255,255,255)" fill-opacity="0.0078125"/>
  <rect x="0" y="6" width="7" height="1" fill="rgb(255,255,255)" fill-opacity="0.0078125"/>
  <rect x="7" y="6" width="1" height="1" fill="rgb(0,0,0)" fill-opacity="0.015625"/>
  <rect x="8" y="6" width="1" height="1" fill="rgb(25,25,25)" fill-opacity="0.40625"/>
  <rect x="9" y="6" width="1" height="1" fill="rgb(93,93,93)" fill-opacity="0.734375"/>
  <rect x="10" y="6" width="1" height="1" fill="rgb(114,114,114)" fill-opacity="0.796875"/>
  <rect x="11" y="6" width="1" height="1" fill="rgb(86,86,86)" fill-opacity="0.734375"/>
  <rect x="12" y="6" width="1" height="1" fill="rgb(26,26,26)" fill-opacity="0.421875"/>
  <rect x="13" y="6" width="1" height="1" fill="rgb(0,0,0)" fill-opacity="0.0234375"/>
  <rect x="14" y="6" width="7" height="1" fill="rgb(255,255,255)" fill-opacity="0.0078125"/>
  <rect x="0" y="7" width="6" height="1" fill="rgb(255,255,255)" fill-opacity="0.0078125"/>
  <rect x="6" y="7" width="1" height="1" fill="rgb(0,0,0)" fill-opacity="0.015625"/>
  <rect x="7" y="7" width="1" height="1" fill="rgb(63,63,63)" fill-opacity="0.6640625"/>
  <rect x="8" y="7" width="1" height="1" fill="rgb(227,227,227)" fill-opacity="0.796875"/>
  <rect x="9" y="7" width="2" height="1" fill="rgb(223,223,223)" fill-opacity="0.8046875"/>
  <rect x="11" y="7" width="1" height="1" fill="rgb(216,216,216)" fill-opacity="0.8046875"/>
  <rect x="12" y="7" width="1" height="1" fill="rgb(186,186,186)" fill-opacity="0.7890625"/>
  <rect x="13" y="7" width="1" height="1" fill="rgb(53,53,53)" fill-opacity="0.671875"/>
  <rect x="14" y="7" width="1" height="1" fill="rgb(0,0,0)" fill-opacity="0.0234375"/>
  <rect x="15" y="7" width="6" height="1" fill="rgb(255,255,255)" fill-opacity="0.0078125"/>
  <rect x="0" y="8" width="6" height="1" fill="rgb(255,255,255)" fill-opacity="0.0078125"/>
  <rect x="6" y="8" width="1" height="1" fill="rgb(25,25,25)" fill-opacity="0.40625"/>
  <rect x="7" y="8" width="1" height="1" fill="rgb(226,226,226)" fill-opacity="0.796875"/>
  <rect x="8" y="8" width="1" height="1" fill="rgb(221,221,221)" fill-opacity="0.8046875"/>
  <rect x="9" y="8" width="1" height="1" fill="rgb(209,209,209)" fill-opacity="0.8046875"/>
  <rect x="10" y="8" width="1" height="1" fill="rgb(215,215,215)" fill-opacity="0.8046875"/>
  <rect x="11" y="8" width="1" height="1" fill="rgb(221,221,221)" fill-opacity="0.8046875"/>
  <rect x="12" y="8" width="1" height="1" fill="rgb(233,233,233)" fill-opacity="0.8046875"/>
  <rect x="13" y="8" width="1" height="1" fill="rgb(170,170,170)" fill-opacity="0.7890625"/>
  <rect x="14" y="8" width="1" height="1" fill="rgb(24,24,24)" fill-opacity="0.4296875"/>
  <rect x="15" y="8" width="6" height="1" fill="rgb(255,255,255)" fill-opacity="0.0078125"/>
  <rect x="0" y="9" width="6" height="1" fill="rgb(255,255,255)" fill-opacity="0.0078125"/>
  <rect x="6" y="9" width="1" height="1" fill="rgb(91,91,91)" fill-opacity="0.71875"/>
  <rect x="7" y="9" width="1" height="1" fill="rgb(226,226,226)" fill-opacity="0.8046875"/>
  <rect x="8" y="9" width="1" height="1" fill="rgb(185,185,185)" fill-opacity="0.8046875"/>
  <rect x="9" y="9" width="1" height="1" fill="rgb(163,163,163)" fill-opacity="0.8046875"/>
  <rect x="10" y="9" width="1" height="1" fill="rgb(179,179,179)" fill-opacity="0.8046875"/>
  <rect x="11" y="9" width="1" height="1" fill="rgb(191,191,191)" fill-opacity="0.8046875"/>
  <rect x="12" y="9" width="1" height="1" fill="rgb(220,220,220)" fill-opacity="0.8046875"/>
  <rect x="13" y="9" width="1" height="1" fill="rgb(235,235,235)" fill-opacity="0.8046875"/>
  <rect x="14" y="9" width="1" height="1" fill="rgb(61,61,61)" fill-opacity="0.71875"/>
  <rect x="15" y="9" width="6" height="1" fill="rgb(255,255,255)" fill-opacity="0.0078125"/>
  <rect x="0" y="10" width="6" height="1" fill="rgb(255,255,255)" fill-opacity="0.0078125"/>
  <rect x="6" y="10" width="1" height="1" fill="rgb(110,110,110)" fill-opacity="0.7890625"/>
  <rect x="7" y="10" width="1" height="1" fill="rgb(226,226,226)" fill-opacity="0.8046875"/>
  <rect x="8" y="10" width="1" height="1" fill="rgb(30,30,30)" fill-opacity="0.8046875"/>
  <rect x="9" y="10" width="3" height="1" fill="rgb(0,0,0)" fill-opacity="0.8046875"/>
  <rect x="12" y="10" width="1" height="1" fill="rgb(28,28,28)" fill-opacity="0.8046875"/>
  <rect x="13" y="10" width="1" height="1" fill="rgb(254,254,254)" fill-opacity="0.8046875"/>
  <rect x="14" y="10" width="1" height="1" fill="rgb(57,57,57)" fill-opacity="0.796875"/>
  <rect x="15" y="10" width="6" height="1" fill="rgb(255,255,255)" fill-opacity="0.0078125"/>
  <rect x="0" y="11" width="6" height="1" fill="rgb(255,255,255)" fill-opacity="0.0078125"/>
  <rect x="6" y="11" width="1" height="1" fill="rgb(82,82,82)" fill-opacity="0.7109375"/>
  <rect x="7" y="11" width="1" height="1" fill="rgb(224,224,224)" fill-opacity="0.8046875"/>
  <rect x="8" y="11" width="1" height="1" fill="rgb(213,213,213)" fill-opacity="0.8046875"/>
  <rect x="9" y="11" width="3" height="1" fill="rgb(191,191,191)" fill-opacity="0.8046875"/>
  <rect x="12" y="11" width="1" height="1" fill="rgb(223,223,223)" fill-opacity="0.8046875"/>
  <rect x="13" y="11" width="1" height="1" fill="rgb(236,236,236)" fill-opacity="0.8046875"/>
  <rect x="14" y="11" width="1" height="1" fill="rgb(49,49,49)" fill-opacity="0.71875"/>
  <rect x="15" y="11" width="6" height="1" fill="rgb(255,255,255)" fill-opacity="0.0078125"/>
  <rect x="0" y="12" width="6" height="1" fill="rgb(255,255,255)" fill-opacity="0.0078125"/>
  <rect x="6" y="12" width="1" height="1" fill="rgb(20,20,20)" fill-opacity="0.40625"/>
  <rect x="7" y="12" width="1" height="1" fill="rgb(185,185,185)" fill-opacity="0.7890625"/>
  <rect x="8" y="12" width="2" height="1" fill="rgb(238,238,238)" fill-opacity="0.8046875"/>
  <rect x="10" y="12" width="1" height="1" fill="rgb(243,243,243)" fill-opacity="0.8046875"/>
  <rect x="11" y="12" width="1" height="1" fill="rgb(249,249,249)" fill-opacity="0.8046875"/>
  <rect x="12" y="12" width="1" height="1" fill="rgb(255,255,255)" fill-opacity="0.8046875"/>
  <rect x="13" y="12" width="1" height="1" fill="rgb(131,131,131)" fill-opacity="0.78125"/>
  <rect x="14" y="12" width="1" height="1" fill="rgb(17,17,17)" fill-opacity="0.421875"/>
  <rect x="15" y="12" width="6" height="1" fill="rgb(255,255,255)" fill-opacity="0.0078125"/>
  <rect x="0" y="13" width="6" height="1" fill="rgb(255,255,255)" fill-opacity="0.0078125"/>
  <rect x="6" y="13" width="1" height="1" fill="rgb(0,0,0)" fill-opacity="0.0234375"/>
  <rect x="7" y="13" width="1" height="1" fill="rgb(47,47,47)" fill-opacity="0.671875"/>
  <rect x="8" y="13" width="1" height="1" fill="rgb(167,167,167)" fill-opacity="0.78125"/>
  <rect x="9" y="13" width="1" height="1" fill="rgb(223,223,223)" fill-opacity="0.8046875"/>
  <rect x="10" y="13" width="1" height="1" fill="rgb(244,244,244)" fill-opacity="0.8046875"/>
  <rect x="11" y="13" width="1" height="1" fill="rgb(221,221,221)" fill-opacity="0.8046875"/>
  <rect x="12" y="13" width="1" height="1" fill="rgb(131,131,131)" fill-opacity="0.78125"/>
  <rect x="13" y="13" width="1" height="1" fill="rgb(29,29,29)" fill-opacity="0.671875"/>
  <rect x="14" y="13" width="1" height="1" fill="rgb(0,0,0)" fill-opacity="0.0234375"/>
  <rect x="15" y="13" width="6" height="1" fill="rgb(255,255,255)" fill-opacity="0.0078125"/>
  <rect x="0" y="14" width="7" height="1" fill="rgb(255,255,255)" fill-opacity="0.0078125"/>
  <rect x="7" y="14" width="1" height="1" fill="rgb(0,0,0)" fill-opacity="0.015625"/>
  <rect x="8" y="14" width="1" height="1" fill="rgb(15,15,15)" fill-opacity="0.40625"/>
  <rect x="9" y="14" width="1" height="1" fill="rgb(55,55,55)" fill-opacity="0.71875"/>
  <rect x="10" y="14" width="1" height="1" fill="rgb(53,53,53)" fill-opacity="0.796875"/>
  <rect x="11" y="14" width="1" height="1" fill="rgb(46,46,46)" fill-opacity="0.71875"/>
  <rect x="12" y="14" width="1" height="1" fill="rgb(14,14,14)" fill-opacity="0.421875"/>
  <rect x="13" y="14" width="1" height="1" fill="rgb(0,0,0)" fill-opacity="0.0234375"/>
  <rect x="14" y="14" width="7" height="1" fill="rgb(255,255,255)" fill-opacity="0.0078125"/>
  <rect x="0" y="15" width="21" height="1" fill="rgb(255,255,255)" fill-opacity="0.0078125"/>
  <rect x="0" y="16" width="21" height="1" fill="rgb(255,255,255)" fill-opacity="0.0078125"/>
  <rect x="0" y="17" width="21" height="1" fill="rgb(255,255,255)" fill-opacity="0.0078125"/>
  <rect x="0" y="18" width="21" height="1" fill="rgb(255,255,255)" fill-opacity="0.0078125"/>
  <rect x="0" y="19" width="21" height="1" fill="rgb(255,255,255)" fill-opacity="0.0078125"/>
  <rect x="0" y="20" width="21" height="1" fill="rgb(255,255,255)" fill-opacity="0.0078125"/>
</svg>