<svg xmlns="http://www.w3.org/2000/svg" shape-rendering="crispEdges" width="21" height="21" viewBox="0 0 21 21">
  <rect x="0" y="0" width="21" height="1" fill="rgb(255,255,255)" fill-opacity="0.0078125"/>
  <rect x="0" y="1" width="21" height="1" fill="rgb(255,255,255)" fill-opacity="0.0078125"/>
  <rect x="0" y="2" width="21" height="1" fill="rgb(255,255,255)" fill-opacity="0.0078125"/>
  <rect x="0" y="3" width="21" height="1" fill="rgb(255,255,255)" fill-opacity="0.0078125"/>
  <rect x="0" y="4" width="7" height="1" fill="rgb(255,255,255)" fill-opacity="0.0078125"/>
  <rect x="7" y="4" width="1" height="1" fill="rgb(0,0,0)" fill-opacity="0.1484375"/>
  <rect x="8" y="4" width="1" height="1" fill="rgb(25,25,25)" fill-opacity="0.796875"/>
  <rect x="9" y="4" width="1" height="1" fill="rgb(30,30,30)" fill-opacity="0.8046875"/>
  <rect x="10" y="4" width="2" height="1" fill="rgb(0,0,0)" fill-opacity="0.0625"/>
  <rect x="12" y="4" width="1" height="1" fill="rgb(30,30,30)" fill-opacity="0.8046875"/>
  <rect x="13" y="4" width="1" height="1" fill="rgb(23,23,23)" fill-opacity="0.796875"/>
  <rect x="14" y="4" width="1" height="1" fill="rgb(0,0,0)" fill-opacity="0.1484375"/>
  <rect x="15" y="4" width="6" height="1" fill="rgb(255,255,255)" fill-opacity="0.0078125"/>
  <rect x="0" y="5" width="6" height="1" fill="rgb(255,255,255)" fill-opacity="0.0078125"/>
  <rect x="6" y="5" width="1" height="1" fill="rgb(0,0,0)" fill-opacity="0.203125"/>
  <rect x="7" y="5" width="1" height="1" fill="rgb(34,34,34)" fill-opacity="0.859375"/>
  <rect x="8" y="5" width="1" height="1" fill="rgb(228,228,228)" fill-opacity="0.9921875"/>
  <rect x="9" y="5" width="1" height="1" fill="rgb(195,195,195)" fill-opacity="0.984375"/>
  <rect x="10" y="5" width="2" height="1" fill="rgb(20,20,20)" fill-opacity="0.6953125"/>
  <rect x="12" y="5" width="1" height="1" fill="rgb(227,227,227)" fill-opacity="0.9921875"/>
  <rect x="13" y="5" width="1" height="1" fill="rgb(225,225,225)"/>
  <rect x="14" y="5" width="1" height="1" fill="rgb(29,29,29)" fill-opacity="0.859375"/>
  <rect x="15" y="5" width="1" height="1" fill="rgb(0,0,0)" fill-opacity="0.203125"/>
  <rect x="16" y="5" width="5" height="1" fill="rgb(255,255,255)" fill-opacity="0.0078125"/>
  <rect x="0" y="6" width="5" height="1" fill="rgb(255,255,255)" fill-opacity="0.0078125"/>
  <rect x="5" y="6" width="1" height="1" fill="rgb(11,11,11)" fill-opacity="0.2734375"/>
  <rect x="6" y="6" width="1" height="1" fill="rgb(49,49,49)" fill-opacity="0.890625"/>
  <rect x="7" y="6" width="1" height="1" fill="rgb(238,238,238)"/>
  <rect x="8" y="6" width="2" height="1" fill="rgb(255,255,255)"/>
  <rect x="10" y="6" width="1" height="1" fill="rgb(145,145,145)" fill-opacity="0.875"/>
  <rect x="11" y="6" width="1" height="1" fill="rgb(181,181,181)" fill-opacity="0.9140625"/>
  <rect x="12" y="6" width="1" height="1" fill="rgb(252,252,252)"/>
  <rect x="13" y="6" width="1" height="1" fill="rgb(226,226,226)"/>
  <rect x="14" y="6" width="1" height="1" fill="rgb(202,202,202)"/>
  <rect x="15" y="6" width="1" height="1" fill="rgb(39,39,39)" fill-opacity="0.890625"/>
  <rect x="16" y="6" width="1" height="1" fill="rgb(8,8,8)" fill-opacity="0.2734375"/>
  <rect x="17" y="6" width="4" height="1" fill="rgb(255,255,255)" fill-opacity="0.0078125"/>
  <rect x="0" y="7" width="5" height="1" fill="rgb(255,255,255)" fill-opacity="0.0078125"/>
  <rect x="5" y="7" width="1" height="1" fill="rgb(37,37,37)" fill-opacity="0.859375"/>
  <rect x="6" y="7" width="1" height="1" fill="rgb(246,246,246)"/>
  <rect x="7" y="7" width="1" height="1" fill="rgb(252,252,252)"/>
  <rect x="8" y="7" width="1" height="1" fill="rgb(216,216,216)"/>
  <rect x="9" y="7" width="1" height="1" fill="rgb(187,187,187)"/>
  <rect x="10" y="7" width="1" height="1" fill="rgb(249,249,249)"/>
  <rect x="11" y="7" width="1" height="1" fill="rgb(247,247,247)"/>
  <rect x="12" y="7" width="1" height="1" fill="rgb(222,222,222)"/>
  <rect x="13" y="7" width="1" height="1" fill="rgb(184,184,184)"/>
  <rect x="14" y="7" width="1" height="1" fill="rgb(156,156,156)"/>
  <rect x="15" y="7" width="1" height="1" fill="rgb(194,194,194)"/>
  <rect x="16" y="7" width="1" height="1" fill="rgb(28,28,28)" fill-opacity="0.859375"/>
  <rect x="17" y="7" width="4" height="1" fill="rgb(255,255,255)" fill-opacity="0.0078125"/>
  <rect x="0" y="8" width="3" height="1" fill="rgb(255,255,255)" fill-opacity="0.0078125"/>
  <rect x="3" y="8" width="1" height="1" fill="rgb(48,48,48)" fill-opacity="0.5078125"/>
  <rect x="4" y="8" width="1" height="1" fill="rgb(90,90,90)" fill-opacity="0.78125"/>
  <rect x="5" y="8" width="1" height="1" fill="rgb(102,102,102)" fill-opacity="0.890625"/>
  <rect x="6" y="8" width="1" height="1" fill="rgb(251,251,251)"/>
  <rect x="7" y="8" width="1" height="1" fill="rgb(203,203,203)"/>
  <rect x="8" y="8" width="1" height="1" fill="rgb(254,254,254)"/>
  <rect x="9" y="8" width="1" height="1" fill="rgb(128,128,128)"/>
  <rect x="10" y="8" width="1" height="1" fill="rgb(218,218,218)"/>
  <rect x="11" y="8" width="1" height="1" fill="rgb(229,229,229)"/>
  <rect x="12" y="8" width="1" height="1" fill="rgb(182,182,182)"/>
  <rect x="13" y="8" width="1" height="1" fill="rgb(229,229,229)"/>
  <rect x="14" y="8" width="1" height="1" fill="rgb(120,120,120)"/>
  <rect x="15" y="8" width="1" height="1" fill="rgb(178,178,178)"/>
  <rect x="16" y="8" width="1" height="1" fill="rgb(73,73,73)" fill-opacity="0.890625"/>
  <rect x="17" y="8" width="1" height="1" fill="rgb(51,51,51)" fill-opacity="0.765625"/>
  <rect x="18" y="8" width="1" height="1" fill="rgb(32,32,32)" fill-opacity="0.5078125"/>
  <rect x="19" y="8" width="2" height="1" fill="rgb(255,255,255)" fill-opacity="0.0078125"/>
  <rect x="0" y="9" width="3" height="1" fill="rgb(255,255,255)" fill-opacity="0.0078125"/>
  <rect x="3" y="9" width="1" height="1" fill="rgb(90,90,90)" fill-opacity="0.796875"/>
  <rect x="4" y="9" width="1" height="1" fill="rgb(253,253,253)"/>
  <rect x="5" y="9" width="1" height="1" fill="rgb(159,159,159)" fill-opacity="0.9296875"/>
  <rect x="6" y="9" width="1" height="1" fill="rgb(254,254,254)"/>
  <rect x="7" y="9" width="1" height="1" fill="rgb(162,162,162)"/>
  <rect x="8" y="9" width="1" height="1" fill="rgb(112,112,112)"/>
  <rect x="9" y="9" width="1" height="1" fill="rgb(111,111,111)"/>
  <rect x="10" y="9" width="1" height="1" fill="rgb(240,240,240)"/>
  <rect x="11" y="9" width="1" height="1" fill="rgb(229,229,229)"/>
  <rect x="12" y="9" width="1" height="1" fill="rgb(158,158,158)"/>
  <rect x="13" y="9" width="1" height="1" fill="rgb(116,116,116)"/>
  <rect x="14" y="9" width="1" height="1" fill="rgb(112,112,112)"/>
  <rect x="15" y="9" width="1" height="1" fill="rgb(191,191,191)"/>
  <rect x="16" y="9" width="1" height="1" fill="rgb(101,101,101)" fill-opacity="0.921875"/>
  <rect x="17" y="9" width="1" height="1" fill="rgb(181,181,181)"/>
  <rect x="18" y="9" width="1" height="1" fill="rgb(54,54,54)" fill-opacity="0.78125"/>
  <rect x="19" y="9" width="2" height="1" fill="rgb(255,255,255)" fill-opacity="0.0078125"/>
  <rect x="0" y="10" width="3" height="1" fill="rgb(255,255,255)" fill-opacity="0.0078125"/>
  <rect x="3" y="10" width="1" height="1" fill="rgb(46,46,46)" fill-opacity="0.6640625"/>
  <rect x="4" y="10" width="1" height="1" fill="rgb(196,196,196)" fill-opacity="0.9921875"/>
  <rect x="5" y="10" width="1" height="1" fill="rgb(211,211,211)"/>
  <rect x="6" y="10" width="1" height="1" fill="rgb(172,172,172)" fill-opacity="0.9140625"/>
  <rect x="7" y="10" width="1" height="1" fill="rgb(232,232,232)"/>
  <rect x="8" y="10" width="1" height="1" fill="rgb(234,234,234)"/>
  <rect x="9" y="10" width="1" height="1" fill="rgb(244,244,244)"/>
  <rect x="10" y="10" width="1" height="1" fill="rgb(234,234,234)"/>
  <rect x="11" y="10" width="1" height="1" fill="rgb(224,224,224)"/>
  <rect x="12" y="10" width="1" height="1" fill="rgb(215,215,215)"/>
  <rect x="13" y="10" width="1" height="1" fill="rgb(200,200,200)"/>
  <rect x="14" y="10" width="1" height="1" fill="rgb(177,177,177)"/>
  <rect x="15" y="10" width="1" height="1" fill="rgb(117,117,117)" fill-opacity="0.921875"/>
  <rect x="16" y="10" width="1" height="1" fill="rgb(140,140,140)"/>
  <rect x="17" y="10" width="1" height="1" fill="rgb(125,125,125)" fill-opacity="0.9921875"/>
  <rect x="18" y="10" width="1" height="1" fill="rgb(29,29,29)" fill-opacity="0.65625"/>
  <rect x="19" y="10" width="2" height="1" fill="rgb(255,255,255)" fill-opacity="0.0078125"/>
  <rect x="0" y="11" width="3" height="1" fill="rgb(255,255,255)" fill-opacity="0.0078125"/>
  <rect x="3" y="11" width="1" height="1" fill="rgb(0,0,0)" fill-opacity="0.0390625"/>
  <rect x="4" y="11" width="1" height="1" fill="rgb(38,38,38)" fill-opacity="0.5546875"/>
  <rect x="5" y="11" width="1" height="1" fill="rgb(54,54,54)" fill-opacity="0.7421875"/>
  <rect x="6" y="11" width="1" height="1" fill="rgb(34,34,34)" fill-opacity="0.640625"/>
  <rect x="7" y="11" width="1" height="1" fill="rgb(42,42,42)" fill-opacity="0.8828125"/>
  <rect x="8" y="11" width="1" height="1" fill="rgb(235,235,235)"/>
  <rect x="9" y="11" width="1" height="1" fill="rgb(238,238,238)"/>
  <rect x="10" y="11" width="2" height="1" fill="rgb(249,249,249)"/>
  <rect x="12" y="11" width="1" height="1" fill="rgb(174,174,174)"/>
  <rect x="13" y="11" width="1" height="1" fill="rgb(191,191,191)"/>
  <rect x="14" y="11" width="1" height="1" fill="rgb(33,33,33)" fill-opacity="0.8828125"/>
  <rect x="15" y="11" width="1" height="1" fill="rgb(23,23,23)" fill-opacity="0.6484375"/>
  <rect x="16" y="11" width="1" height="1" fill="rgb(35,35,35)" fill-opacity="0.7421875"/>
  <rect x="17" y="11" width="1" height="1" fill="rgb(25,25,25)" fill-opacity="0.5546875"/>
  <rect x="18" y="11" width="1" height="1" fill="rgb(0,0,0)" fill-opacity="0.0390625"/>
  <rect x="19" y="11" width="2" height="1" fill="rgb(255,255,255)" fill-opacity="0.0078125"/>
  <rect x="0" y="12" width="7" height="1" fill="rgb(255,255,255)" fill-opacity="0.0078125"/>
  <rect x="7" y="12" width="1" height="1" fill="rgb(0,0,0)" fill-opacity="0.21875"/>
  <rect x="8" y="12" width="1" height="1" fill="rgb(65,65,65)" fill-opacity="0.8671875"/>
  <rect x="9" y="12" width="1" height="1" fill="rgb(233,233,233)"/>
  <rect x="10" y="12" width="1" height="1" fill="rgb(180,180,180)"/>
  <rect x="11" y="12" width="1" height="1" fill="rgb(124,124,124)"/>
  <rect x="12" y="12" width="1" height="1" fill="rgb(146,146,146)"/>
  <rect x="13" y="12" width="1" height="1" fill="rgb(52,52,52)" fill-opacity="0.8671875"/>
  <rect x="14" y="12" width="1" height="1" fill="rgb(0,0,0)" fill-opacity="0.21875"/>
  <rect x="15" y="12" width="6" height="1" fill="rgb(255,255,255)" fill-opacity="0.0078125"/>
  <rect x="0" y="13" width="8" height="1" fill="rgb(255,255,255)" fill-opacity="0.0078125"/>
  <rect x="8" y="13" width="1" height="1" fill="rgb(44,44,44)" fill-opacity="0.8515625"/>
  <rect x="9" y="13" width="1" height="1" fill="rgb(228,228,228)"/>
  <rect x="10" y="13" width="1" height="1" fill="rgb(218,218,218)"/>
  <rect x="11" y="13" width="1" height="1" fill="rgb(208,208,208)"/>
  <rect x="12" y="13" width="1" height="1" fill="rgb(199,199,199)"/>
  <rect x="13" y="13" width="1" height="1" fill="rgb(34,34,34)" fill-opacity="0.8515625"/>
  <rect x="14" y="13" width="7" height="1" fill="rgb(255,255,255)" fill-opacity="0.0078125"/>
  <rect x="0" y="14" width="8" height="1" fill="rgb(255,255,255)" fill-opacity="0.0078125"/>
  <rect x="8" y="14" width="1" height="1" fill="rgb(43,43,43)" fill-opacity="0.8515625"/>
  <rect x="9" y="14" width="1" height="1" fill="rgb(222,222,222)"/>
  <rect x="10" y="14" width="1" height="1" fill="rgb(213,213,213)"/>
  <rect x="11" y="14" width="1" height="1" fill="rgb(203,203,203)"/>
  <rect x="12" y="14" width="1" height="1" fill="rgb(193,193,193)"/>
  <rect x="13" y="14" width="1" height="1" fill="rgb(34,34,34)" fill-opacity="0.8515625"/>
  <rect x="14" y="14" width="7" height="1" fill="rgb(255,255,255)" fill-opacity="0.0078125"/>
  <rect x="0" y="15" width="8" height="1" fill="rgb(255,255,255)" fill-opacity="0.0078125"/>
  <rect x="8" y="15" width="1" height="1" fill="rgb(41,41,41)" fill-opacity="0.8515625"/>
  <rect x="9" y="15" width="1" height="1" fill="rgb(217,217,217)"/>
  <rect x="10" y="15" width="1" height="1" fill="rgb(207,207,207)"/>
  <rect x="11" y="15" width="1" height="1" fill="rgb(197,197,197)"/>
  <rect x="12" y="15" width="1" height="1" fill="rgb(188,188,188)"/>
  <rect x="13" y="15" width="1" height="1" fill="rgb(33,33,33)" fill-opacity="0.8515625"/>
  <rect x="14" y="15" width="7" height="1" fill="rgb(255,255,255)" fill-opacity="0.0078125"/>
  <rect x="0" y="16" width="8" height="1" fill="rgb(255,255,255)" fill-opacity="0.0078125"/>
  <rect x="8" y="16" width="1" height="1" fill="rgb(37,37,37)" fill-opacity="0.859375"/>
  <rect x="9" y="16" width="1" height="1" fill="rgb(211,211,211)"/>
  <rect x="10" y="16" width="1" height="1" fill="rgb(40,40,40)"/>
  <rect x="11" y="16" width="1" height="1" fill="rgb(38,38,38)"/>
  <rect x="12" y="16" width="1" height="1" fill="rgb(182,182,182)"/>
  <rect x="13" y="16" width="1" height="1" fill="rgb(29,29,29)" fill-opacity="0.859375"/>
  <rect x="14" y="16" width="7" height="1" fill="rgb(255,255,255)" fill-opacity="0.0078125"/>
  <rect x="0" y="17" width="8" height="1" fill="rgb(255,255,255)" fill-opacity="0.0078125"/>
  <rect x="8" y="17" width="1" height="1" fill="rgb(48,48,48)" fill-opacity="0.703125"/>
  <rect x="9" y="17" width="1" height="1" fill="rgb(126,126,126)"/>
  <rect x="10" y="17" width="1" height="1" fill="rgb(218,218,218)"/>
  <rect x="11" y="17" width="1" height="1" fill="rgb(213,213,213)"/>
  <rect x="12" y="17" width="1" height="1" fill="rgb(108,108,108)"/>
  <rect x="13" y="17" width="1" height="1" fill="rgb(38,38,38)" fill-opacity="0.703125"/>
  <rect x="14" y="17" width="7" height="1" fill="rgb(255,255,255)" fill-opacity="0.0078125"/>
  <rect x="0" y="18" width="8" height="1" fill="rgb(255,255,255)" fill-opacity="0.0078125"/>
  <rect x="8" y="18" width="1" height="1" fill="rgb(0,0,0)" fill-opacity="0.0234375"/>
  <rect x="9" y="18" width="1" height="1" fill="rgb(53,53,53)" fill-opacity="0.609375"/>
  <rect x="10" y="18" width="1" height="1" fill="rgb(30,30,30)" fill-opacity="0.8359375"/>
  <rect x="11" y="18" width="1" height="1" fill="rgb(29,29,29)" fill-opacity="0.8359375"/>
  <rect x="12" y="18" width="1" height="1" fill="rgb(45,45,45)" fill-opacity="0.609375"/>
  <rect x="13" y="18" width="1" height="1" fill="rgb(0,0,0)" fill-opacity="0.0234375"/>
  <rect x="14" y="18" width="7" height="1" fill="rgb(255,255,255)" fill-opacity="0.0078125"/>
  <rect x="0" y="19" width="21" height="1" fill="rgb(255,255,255)" fill-opacity="0.0078125"/>
  <rect x="0" y="20" width="21" height="1" fill="rgb(255,255,255)" fill-opacity="0.0078125"/>
</svg>