<svg xmlns="http://www.w3.org/2000/svg" shape-rendering="crispEdges" width="21" height="21" viewBox="0 0 21 21">
  <rect x="0" y="0" width="1" height="21" fill="rgb(255,255,255)" fill-opacity="0.0078125"/>
  <rect x="1" y="0" width="1" height="21" fill="rgb(255,255,255)" fill-opacity="0.0078125"/>
  <rect x="2" y="0" width="1" height="21" fill="rgb(255,255,255)" fill-opacity="0.0078125"/>
  <rect x="3" y="0" width="1" height="14" fill="rgb(255,255,255)" fill-opacity="0.0078125"/>
  <rect x="3" y="14" width="1" height="1" fill="rgb(27,27,27)" fill-opacity="0.265625"/>
  <rect x="3" y="15" width="1" height="1" fill="rgb(29,29,29)" fill-opacity="0.7265625"/>
  <rect x="3" y="16" width="1" height="1" fill="rgb(27,27,27)" fill-opacity="0.265625"/>
  <rect x="3" y="17" width="1" height="4" fill="rgb(255,255,255)" fill-opacity="0.0078125"/>
  <rect x="4" y="0" width="1" height="11" fill="rgb(255,255,255)" fill-opacity="0.0078125"/>
  <rect x="4" y="11" width="1" height="1" fill="rgb(23,23,23)" fill-opacity="0.046875"/>
  <rect x="4" y="12" width="1" height="1" fill="rgb(25,25,25)" fill-opacity="0.5625"/>
  <rect x="4" y="13" width="1" height="1" fill="rgb(45,45,45)" fill-opacity="0.8515625"/>
  <rect x="4" y="14" width="1" height="1" fill="rgb(94,94,94)" fill-opacity="0.9921875"/>
  <rect x="4" y="15" width="1" height="1" fill="rgb(215,215,215)"/>
  <rect x="4" y="16" width="1" height="1" fill="rgb(30,30,30)" fill-opacity="0.7578125"/>
  <rect x="4" y="17" width="1" height="4" fill="rgb(255,255,255)" fill-opacity="0.0078125"/>
  <rect x="5" y="0" width="1" height="11" fill="rgb(255,255,255)" fill-opacity="0.0078125"/>
  <rect x="5" y="11" width="1" height="1" fill="rgb(37,37,37)" fill-opacity="0.78125"/>
  <rect x="5" y="12" width="1" height="1" fill="rgb(167,167,167)"/>
  <rect x="5" y="13" width="1" height="1" fill="rgb(230,230,230)"/>
  <rect x="5" y="14" width="1" height="1" fill="rgb(221,221,221)"/>
  <rect x="5" y="15" width="1" height="1" fill="rgb(129,129,129)"/>
  <rect x="5" y="16" width="1" height="1" fill="rgb(27,27,27)" fill-opacity="0.484375"/>
  <rect x="5" y="17" width="1" height="4" fill="rgb(255,255,255)" fill-opacity="0.0078125"/>
  <rect x="6" y="0" width="1" height="10" fill="rgb(255,255,255)" fill-opacity="0.0078125"/>
  <rect x="6" y="10" width="1" height="1" fill="rgb(26,26,26)" fill-opacity="0.046875"/>
  <rect x="6" y="11" width="1" height="1" fill="rgb(65,65,65)" fill-opacity="0.984375"/>
  <rect x="6" y="12" width="1" height="1" fill="rgb(230,230,230)"/>
  <rect x="6" y="13" width="1" height="1" fill="rgb(113,113,113)"/>
  <rect x="6" y="14" width="1" height="1" fill="rgb(27,27,27)" fill-opacity="0.859375"/>
  <rect x="6" y="15" width="1" height="1" fill="rgb(27,27,27)" fill-opacity="0.40625"/>
  <rect x="6" y="16" width="1" height="5" fill="rgb(255,255,255)" fill-opacity="0.0078125"/>
  <rect x="7" y="0" width="1" height="7" fill="rgb(255,255,255)" fill-opacity="0.0078125"/>
  <rect x="7" y="7" width="1" height="1" fill="rgb(28,28,28)" fill-opacity="0.109375"/>
  <rect x="7" y="8" width="1" height="1" fill="rgb(27,27,27)" fill-opacity="0.3359375"/>
  <rect x="7" y="9" width="1" height="1" fill="rgb(25,25,25)" fill-opacity="0.5546875"/>
  <rect x="7" y="10" width="1" height="1" fill="rgb(33,33,33)" fill-opacity="0.7890625"/>
  <rect x="7" y="11" width="1" height="1" fill="rgb(76,76,76)" fill-opacity="0.9921875"/>
  <rect x="7" y="12" width="1" height="1" fill="rgb(198,198,198)"/>
  <rect x="7" y="13" width="1" height="1" fill="rgb(223,223,223)"/>
  <rect x="7" y="14" width="1" height="1" fill="rgb(28,28,28)" fill-opacity="0.7890625"/>
  <rect x="7" y="15" width="1" height="6" fill="rgb(255,255,255)" fill-opacity="0.0078125"/>
  <rect x="8" y="0" width="1" height="5" fill="rgb(255,255,255)" fill-opacity="0.0078125"/>
  <rect x="8" y="5" width="1" height="1" fill="rgb(25,25,25)" fill-opacity="0.2109375"/>
  <rect x="8" y="6" width="1" height="1" fill="rgb(48,48,48)" fill-opacity="0.8828125"/>
  <rect x="8" y="7" width="1" height="1" fill="rgb(93,93,93)"/>
  <rect x="8" y="8" width="1" height="1" fill="rgb(139,139,139)"/>
  <rect x="8" y="9" width="1" height="1" fill="rgb(185,185,185)"/>
  <rect x="8" y="10" width="1" height="1" fill="rgb(226,226,226)"/>
  <rect x="8" y="11" width="1" height="1" fill="rgb(222,222,222)"/>
  <rect x="8" y="12" width="1" height="1" fill="rgb(171,171,171)"/>
  <rect x="8" y="13" width="1" height="1" fill="rgb(102,102,102)"/>
  <rect x="8" y="14" width="1" height="1" fill="rgb(25,25,25)" fill-opacity="0.4453125"/>
  <rect x="8" y="15" width="1" height="6" fill="rgb(255,255,255)" fill-opacity="0.0078125"/>
  <rect x="9" y="0" width="1" height="5" fill="rgb(255,255,255)" fill-opacity="0.0078125"/>
  <rect x="9" y="5" width="1" height="1" fill="rgb(43,43,43)" fill-opacity="0.875"/>
  <rect x="9" y="6" width="1" height="1" fill="rgb(222,222,222)"/>
  <rect x="9" y="7" width="1" height="1" fill="rgb(230,230,230)"/>
  <rect x="9" y="8" width="1" height="1" fill="rgb(202,202,202)"/>
  <rect x="9" y="9" width="1" height="1" fill="rgb(121,121,121)"/>
  <rect x="9" y="10" width="1" height="1" fill="rgb(70,70,70)"/>
  <rect x="9" y="11" width="1" height="1" fill="rgb(31,31,31)" fill-opacity="0.859375"/>
  <rect x="9" y="12" width="1" height="1" fill="rgb(27,27,27)" fill-opacity="0.4921875"/>
  <rect x="9" y="13" width="1" height="1" fill="rgb(27,27,27)" fill-opacity="0.1953125"/>
  <rect x="9" y="14" width="1" height="7" fill="rgb(255,255,255)" fill-opacity="0.0078125"/>
  <rect x="10" y="0" width="1" height="5" fill="rgb(255,255,255)" fill-opacity="0.0078125"/>
  <rect x="10" y="5" width="1" height="1" fill="rgb(26,26,26)" fill-opacity="0.625"/>
  <rect x="10" y="6" width="1" height="1" fill="rgb(128,128,128)"/>
  <rect x="10" y="7" width="1" height="1" fill="rgb(189,189,189)"/>
  <rect x="10" y="8" width="1" height="1" fill="rgb(226,226,226)"/>
  <rect x="10" y="9" width="1" height="1" fill="rgb(224,224,224)"/>
  <rect x="10" y="10" width="1" height="1" fill="rgb(162,162,162)"/>
  <rect x="10" y="11" width="1" height="1" fill="rgb(78,78,78)" fill-opacity="0.9921875"/>
  <rect x="10" y="12" width="1" height="1" fill="rgb(25,25,25)" fill-opacity="0.25"/>
  <rect x="10" y="13" width="1" height="8" fill="rgb(255,255,255)" fill-opacity="0.0078125"/>
  <rect x="11" y="0" width="1" height="5" fill="rgb(255,255,255)" fill-opacity="0.0078125"/>
  <rect x="11" y="5" width="1" height="1" fill="rgb(0,0,0)" fill-opacity="0.015625"/>
  <rect x="11" y="6" width="1" height="1" fill="rgb(27,27,27)" fill-opacity="0.3359375"/>
  <rect x="11" y="7" width="1" height="1" fill="rgb(26,26,26)" fill-opacity="0.5859375"/>
  <rect x="11" y="8" width="1" height="1" fill="rgb(32,32,32)" fill-opacity="0.8125"/>
  <rect x="11" y="9" width="1" height="1" fill="rgb(75,75,75)"/>
  <rect x="11" y="10" width="1" height="1" fill="rgb(185,185,185)"/>
  <rect x="11" y="11" width="1" height="1" fill="rgb(226,226,226)"/>
  <rect x="11" y="12" width="1" height="1" fill="rgb(33,33,33)" fill-opacity="0.7578125"/>
  <rect x="11" y="13" width="1" height="8" fill="rgb(255,255,255)" fill-opacity="0.0078125"/>
  <rect x="12" y="0" width="1" height="8" fill="rgb(255,255,255)" fill-opacity="0.0078125"/>
  <rect x="12" y="8" width="1" height="1" fill="rgb(27,27,27)" fill-opacity="0.40625"/>
  <rect x="12" y="9" width="1" height="1" fill="rgb(125,125,125)"/>
  <rect x="12" y="10" width="1" height="1" fill="rgb(226,226,226)"/>
  <rect x="12" y="11" width="1" height="1" fill="rgb(130,130,130)"/>
  <rect x="12" y="12" width="1" height="1" fill="rgb(27,27,27)" fill-opacity="0.453125"/>
  <rect x="12" y="13" width="1" height="8" fill="rgb(255,255,255)" fill-opacity="0.0078125"/>
  <rect x="13" y="0" width="1" height="8" fill="rgb(255,255,255)" fill-opacity="0.0078125"/>
  <rect x="13" y="8" width="1" height="1" fill="rgb(26,26,26)" fill-opacity="0.6953125"/>
  <rect x="13" y="9" width="1" height="1" fill="rgb(217,217,217)"/>
  <rect x="13" y="10" width="1" height="1" fill="rgb(197,197,197)"/>
  <rect x="13" y="11" width="1" height="1" fill="rgb(93,93,93)"/>
  <rect x="13" y="12" width="1" height="1" fill="rgb(36,36,36)" fill-opacity="0.828125"/>
  <rect x="13" y="13" width="1" height="1" fill="rgb(26,26,26)" fill-opacity="0.5078125"/>
  <rect x="13" y="14" width="1" height="1" fill="rgb(27,27,27)" fill-opacity="0.1953125"/>
  <rect x="13" y="15" width="1" height="6" fill="rgb(255,255,255)" fill-opacity="0.0078125"/>
  <rect x="14" y="0" width="1" height="8" fill="rgb(255,255,255)" fill-opacity="0.0078125"/>
  <rect x="14" y="8" width="1" height="1" fill="rgb(24,24,24)" fill-opacity="0.171875"/>
  <rect x="14" y="9" width="1" height="1" fill="rgb(65,65,65)" fill-opacity="0.9609375"/>
  <rect x="14" y="10" width="1" height="1" fill="rgb(144,144,144)"/>
  <rect x="14" y="11" width="1" height="1" fill="rgb(212,212,212)"/>
  <rect x="14" y="12" width="1" height="1" fill="rgb(225,225,225)"/>
  <rect x="14" y="13" width="1" height="1" fill="rgb(173,173,173)"/>
  <rect x="14" y="14" width="1" height="1" fill="rgb(100,100,100)"/>
  <rect x="14" y="15" width="1" height="1" fill="rgb(27,27,27)" fill-opacity="0.6328125"/>
  <rect x="14" y="16" width="1" height="1" fill="rgb(43,43,43)" fill-opacity="0.03125"/>
  <rect x="14" y="17" width="1" height="4" fill="rgb(255,255,255)" fill-opacity="0.0078125"/>
  <rect x="15" y="0" width="1" height="9" fill="rgb(255,255,255)" fill-opacity="0.0078125"/>
  <rect x="15" y="9" width="1" height="1" fill="rgb(21,21,21)" fill-opacity="0.0546875"/>
  <rect x="15" y="10" width="1" height="1" fill="rgb(26,26,26)" fill-opacity="0.3828125"/>
  <rect x="15" y="11" width="1" height="1" fill="rgb(28,28,28)" fill-opacity="0.71875"/>
  <rect x="15" y="12" width="1" height="1" fill="rgb(73,73,73)" fill-opacity="0.9765625"/>
  <rect x="15" y="13" width="1" height="1" fill="rgb(135,135,135)"/>
  <rect x="15" y="14" width="1" height="1" fill="rgb(218,218,218)"/>
  <rect x="15" y="15" width="1" height="1" fill="rgb(153,153,153)"/>
  <rect x="15" y="16" width="1" height="1" fill="rgb(25,25,25)" fill-opacity="0.515625"/>
  <rect x="15" y="17" width="1" height="4" fill="rgb(255,255,255)" fill-opacity="0.0078125"/>
  <rect x="16" y="0" width="1" height="12" fill="rgb(255,255,255)" fill-opacity="0.0078125"/>
  <rect x="16" y="12" width="1" height="1" fill="rgb(23,23,23)" fill-opacity="0.046875"/>
  <rect x="16" y="13" width="1" height="1" fill="rgb(26,26,26)" fill-opacity="0.34375"/>
  <rect x="16" y="14" width="1" height="1" fill="rgb(69,69,69)" fill-opacity="0.96875"/>
  <rect x="16" y="15" width="1" height="1" fill="rgb(220,220,220)"/>
  <rect x="16" y="16" width="1" height="1" fill="rgb(28,28,28)" fill-opacity="0.7109375"/>
  <rect x="16" y="17" width="1" height="4" fill="rgb(255,255,255)" fill-opacity="0.0078125"/>
  <rect x="17" y="0" width="1" height="14" fill="rgb(255,255,255)" fill-opacity="0.0078125"/>
  <rect x="17" y="14" width="1" height="1" fill="rgb(26,26,26)" fill-opacity="0.359375"/>
  <rect x="17" y="15" width="1" height="1" fill="rgb(32,32,32)" fill-opacity="0.7578125"/>
  <rect x="17" y="16" width="1" height="1" fill="rgb(26,26,26)" fill-opacity="0.2734375"/>
  <rect x="17" y="17" width="1" height="4" fill="rgb(255,255,255)" fill-opacity="0.0078125"/>
  <rect x="18" y="0" width="1" height="21" fill="rgb(255,255,255)" fill-opacity="0.0078125"/>
  <rect x="19" y="0" width="1" height="21" fill="rgb(255,255,255)" fill-opacity="0.0078125"/>
  <rect x="20" y="0" width="1" height="21" fill="rgb(255,255,255)" fill-opacity="0.0078125"/>
</svg>