<svg xmlns="http://www.w3.org/2000/svg" shape-rendering="crispEdges" width="21" height="21" viewBox="0 0 21 21">
  <rect x="0" y="0" width="1" height="21" fill="rgb(255,255,255)" fill-opacity="0.0078125"/>
  <rect x="1" y="0" width="1" height="21" fill="rgb(255,255,255)" fill-opacity="0.0078125"/>
  <rect x="2" y="0" width="1" height="21" fill="rgb(255,255,255)" fill-opacity="0.0078125"/>
  <rect x="3" y="0" width="1" height="21" fill="rgb(255,255,255)" fill-opacity="0.0078125"/>
  <rect x="4" y="0" width="1" height="5" fill="rgb(255,255,255)" fill-opacity="0.0078125"/>
  <rect x="4" y="5" width="1" height="1" fill="rgb(95,50,0)" fill-opacity="0.984375"/>
  <rect x="4" y="6" width="1" height="2" fill="rgb(90,47,0)"/>
  <rect x="4" y="8" width="1" height="1" fill="rgb(95,50,0)" fill-opacity="0.984375"/>
  <rect x="4" y="9" width="1" height="4" fill="rgb(255,255,255)" fill-opacity="0.0078125"/>
  <rect x="4" y="13" width="1" height="1" fill="rgb(95,50,0)" fill-opacity="0.984375"/>
  <rect x="4" y="14" width="1" height="2" fill="rgb(90,47,0)"/>
  <rect x="4" y="16" width="1" height="1" fill="rgb(95,50,0)" fill-opacity="0.984375"/>
  <rect x="4" y="17" width="1" height="4" fill="rgb(255,255,255)" fill-opacity="0.0078125"/>
  <rect x="5" y="0" width="1" height="5" fill="rgb(255,255,255)" fill-opacity="0.0078125"/>
  <rect x="5" y="5" width="1" height="1" fill="rgb(90,47,0)"/>
  <rect x="5" y="6" width="1" height="2" fill="rgb(255,212,165)"/>
  <rect x="5" y="8" width="1" height="1" fill="rgb(123,63,0)"/>
  <rect x="5" y="9" width="1" height="4" fill="rgb(26,26,26)" fill-opacity="0.8046875"/>
  <rect x="5" y="13" width="1" height="1" fill="rgb(123,63,0)"/>
  <rect x="5" y="14" width="1" height="2" fill="rgb(255,212,165)"/>
  <rect x="5" y="16" width="1" height="1" fill="rgb(90,47,0)"/>
  <rect x="5" y="17" width="1" height="4" fill="rgb(255,255,255)" fill-opacity="0.0078125"/>
  <rect x="6" y="0" width="1" height="5" fill="rgb(255,255,255)" fill-opacity="0.0078125"/>
  <rect x="6" y="5" width="1" height="1" fill="rgb(90,47,0)"/>
  <rect x="6" y="6" width="1" height="2" fill="rgb(255,212,165)"/>
  <rect x="6" y="8" width="1" height="1" fill="rgb(140,72,0)"/>
  <rect x="6" y="9" width="1" height="3" fill="rgb(255,255,255)" fill-opacity="0.8046875"/>
  <rect x="6" y="12" width="1" height="1" fill="rgb(254,254,254)" fill-opacity="0.8046875"/>
  <rect x="6" y="13" width="1" height="1" fill="rgb(140,72,0)"/>
  <rect x="6" y="14" width="1" height="2" fill="rgb(255,212,165)"/>
  <rect x="6" y="16" width="1" height="1" fill="rgb(90,47,0)"/>
  <rect x="6" y="17" width="1" height="4" fill="rgb(255,255,255)" fill-opacity="0.0078125"/>
  <rect x="7" y="0" width="1" height="5" fill="rgb(255,255,255)" fill-opacity="0.0078125"/>
  <rect x="7" y="5" width="1" height="1" fill="rgb(96,51,0)" fill-opacity="0.9921875"/>
  <rect x="7" y="6" width="1" height="2" fill="rgb(140,72,0)"/>
  <rect x="7" y="8" width="1" height="1" fill="rgb(147,86,22)" fill-opacity="0.9765625"/>
  <rect x="7" y="9" width="1" height="4" fill="rgb(204,204,204)" fill-opacity="0.8046875"/>
  <rect x="7" y="13" width="1" height="1" fill="rgb(146,85,20)" fill-opacity="0.9765625"/>
  <rect x="7" y="14" width="1" height="2" fill="rgb(140,72,0)"/>
  <rect x="7" y="16" width="1" height="1" fill="rgb(97,51,0)" fill-opacity="0.984375"/>
  <rect x="7" y="17" width="1" height="4" fill="rgb(255,255,255)" fill-opacity="0.0078125"/>
  <rect x="8" y="0" width="1" height="5" fill="rgb(255,255,255)" fill-opacity="0.0078125"/>
  <rect x="8" y="5" width="1" height="1" fill="rgb(29,29,29)" fill-opacity="0.671875"/>
  <rect x="8" y="6" width="1" height="1" fill="rgb(245,245,245)" fill-opacity="0.8046875"/>
  <rect x="8" y="7" width="1" height="1" fill="rgb(255,255,255)" fill-opacity="0.8046875"/>
  <rect x="8" y="8" width="1" height="1" fill="rgb(241,241,241)" fill-opacity="0.8046875"/>
  <rect x="8" y="9" width="1" height="5" fill="rgb(204,204,204)" fill-opacity="0.8046875"/>
  <rect x="8" y="14" width="1" height="1" fill="rgb(221,221,221)" fill-opacity="0.8046875"/>
  <rect x="8" y="15" width="1" height="1" fill="rgb(205,205,205)" fill-opacity="0.8046875"/>
  <rect x="8" y="16" width="1" height="1" fill="rgb(26,26,26)" fill-opacity="0.546875"/>
  <rect x="8" y="17" width="1" height="4" fill="rgb(255,255,255)" fill-opacity="0.0078125"/>
  <rect x="9" y="0" width="1" height="4" fill="rgb(255,255,255)" fill-opacity="0.0078125"/>
  <rect x="9" y="4" width="1" height="1" fill="rgb(26,26,26)" fill-opacity="0.125"/>
  <rect x="9" y="5" width="1" height="1" fill="rgb(95,95,95)" fill-opacity="0.8046875"/>
  <rect x="9" y="6" width="1" height="2" fill="rgb(255,255,255)" fill-opacity="0.8046875"/>
  <rect x="9" y="8" width="1" height="1" fill="rgb(253,253,253)" fill-opacity="0.8046875"/>
  <rect x="9" y="9" width="1" height="1" fill="rgb(213,213,213)" fill-opacity="0.8046875"/>
  <rect x="9" y="10" width="1" height="4" fill="rgb(204,204,204)" fill-opacity="0.8046875"/>
  <rect x="9" y="14" width="1" height="1" fill="rgb(205,205,205)" fill-opacity="0.8046875"/>
  <rect x="9" y="15" width="1" height="1" fill="rgb(238,238,238)" fill-opacity="0.8046875"/>
  <rect x="9" y="16" width="1" height="1" fill="rgb(71,71,71)" fill-opacity="0.7890625"/>
  <rect x="9" y="17" width="1" height="1" fill="rgb(43,43,43)" fill-opacity="0.0546875"/>
  <rect x="9" y="18" width="1" height="3" fill="rgb(255,255,255)" fill-opacity="0.0078125"/>
  <rect x="10" y="0" width="1" height="4" fill="rgb(255,255,255)" fill-opacity="0.0078125"/>
  <rect x="10" y="4" width="1" height="1" fill="rgb(27,27,27)" fill-opacity="0.375"/>
  <rect x="10" y="5" width="1" height="1" fill="rgb(193,193,193)" fill-opacity="0.8046875"/>
  <rect x="10" y="6" width="1" height="1" fill="rgb(255,255,255)" fill-opacity="0.8046875"/>
  <rect x="10" y="7" width="1" height="1" fill="rgb(152,90,26)" fill-opacity="0.9765625"/>
  <rect x="10" y="8" width="1" height="2" fill="rgb(140,72,0)"/>
  <rect x="10" y="10" width="1" height="1" fill="rgb(146,85,20)" fill-opacity="0.9765625"/>
  <rect x="10" y="11" width="1" height="4" fill="rgb(204,204,204)" fill-opacity="0.8046875"/>
  <rect x="10" y="15" width="1" height="1" fill="rgb(148,87,23)" fill-opacity="0.9765625"/>
  <rect x="10" y="16" width="1" height="1" fill="rgb(128,66,0)"/>
  <rect x="10" y="17" width="1" height="1" fill="rgb(90,47,0)"/>
  <rect x="10" y="18" width="1" height="1" fill="rgb(95,50,0)" fill-opacity="0.984375"/>
  <rect x="10" y="19" width="1" height="2" fill="rgb(255,255,255)" fill-opacity="0.0078125"/>
  <rect x="11" y="0" width="1" height="4" fill="rgb(255,255,255)" fill-opacity="0.0078125"/>
  <rect x="11" y="4" width="1" height="1" fill="rgb(26,26,26)" fill-opacity="0.546875"/>
  <rect x="11" y="5" width="1" height="1" fill="rgb(244,244,244)" fill-opacity="0.8046875"/>
  <rect x="11" y="6" width="1" height="1" fill="rgb(255,255,255)" fill-opacity="0.8046875"/>
  <rect x="11" y="7" width="1" height="1" fill="rgb(140,72,0)"/>
  <rect x="11" y="8" width="1" height="2" fill="rgb(255,212,165)"/>
  <rect x="11" y="10" width="1" height="1" fill="rgb(140,72,0)"/>
  <rect x="11" y="11" width="1" height="4" fill="rgb(214,214,214)" fill-opacity="0.8046875"/>
  <rect x="11" y="15" width="1" height="1" fill="rgb(140,72,0)"/>
  <rect x="11" y="16" width="1" height="2" fill="rgb(255,212,165)"/>
  <rect x="11" y="18" width="1" height="1" fill="rgb(90,47,0)"/>
  <rect x="11" y="19" width="1" height="2" fill="rgb(255,255,255)" fill-opacity="0.0078125"/>
  <rect x="12" y="0" width="1" height="4" fill="rgb(255,255,255)" fill-opacity="0.0078125"/>
  <rect x="12" y="4" width="1" height="1" fill="rgb(28,28,28)" fill-opacity="0.359375"/>
  <rect x="12" y="5" width="1" height="1" fill="rgb(191,191,191)" fill-opacity="0.8046875"/>
  <rect x="12" y="6" width="1" height="1" fill="rgb(255,255,255)" fill-opacity="0.8046875"/>
  <rect x="12" y="7" width="1" height="1" fill="rgb(140,72,0)"/>
  <rect x="12" y="8" width="1" height="2" fill="rgb(255,212,165)"/>
  <rect x="12" y="10" width="1" height="1" fill="rgb(140,72,0)"/>
  <rect x="12" y="11" width="1" height="4" fill="rgb(109,109,109)" fill-opacity="0.8046875"/>
  <rect x="12" y="15" width="1" height="1" fill="rgb(140,72,0)"/>
  <rect x="12" y="16" width="1" height="2" fill="rgb(255,212,165)"/>
  <rect x="12" y="18" width="1" height="1" fill="rgb(90,47,0)"/>
  <rect x="12" y="19" width="1" height="2" fill="rgb(255,255,255)" fill-opacity="0.0078125"/>
  <rect x="13" y="0" width="1" height="4" fill="rgb(255,255,255)" fill-opacity="0.0078125"/>
  <rect x="13" y="4" width="1" height="1" fill="rgb(26,26,26)" fill-opacity="0.0859375"/>
  <rect x="13" y="5" width="1" height="1" fill="rgb(105,105,105)" fill-opacity="0.796875"/>
  <rect x="13" y="6" width="1" height="1" fill="rgb(255,255,255)" fill-opacity="0.8046875"/>
  <rect x="13" y="7" width="1" height="1" fill="rgb(152,90,26)" fill-opacity="0.9765625"/>
  <rect x="13" y="8" width="1" height="2" fill="rgb(140,72,0)"/>
  <rect x="13" y="10" width="1" height="1" fill="rgb(138,77,12)" fill-opacity="0.9765625"/>
  <rect x="13" y="11" width="1" height="3" fill="rgb(120,120,120)" fill-opacity="0.8046875"/>
  <rect x="13" y="14" width="1" height="1" fill="rgb(131,131,131)" fill-opacity="0.8046875"/>
  <rect x="13" y="15" width="1" height="1" fill="rgb(142,81,16)" fill-opacity="0.9765625"/>
  <rect x="13" y="16" width="1" height="1" fill="rgb(128,66,0)"/>
  <rect x="13" y="17" width="1" height="1" fill="rgb(90,47,0)"/>
  <rect x="13" y="18" width="1" height="1" fill="rgb(95,50,0)" fill-opacity="0.984375"/>
  <rect x="13" y="19" width="1" height="2" fill="rgb(255,255,255)" fill-opacity="0.0078125"/>
  <rect x="14" y="0" width="1" height="5" fill="rgb(255,255,255)" fill-opacity="0.0078125"/>
  <rect x="14" y="5" width="1" height="1" fill="rgb(29,29,29)" fill-opacity="0.5859375"/>
  <rect x="14" y="6" width="1" height="1" fill="rgb(240,240,240)" fill-opacity="0.8046875"/>
  <rect x="14" y="7" width="1" height="1" fill="rgb(254,254,254)" fill-opacity="0.8046875"/>
  <rect x="14" y="8" width="1" height="1" fill="rgb(188,188,188)" fill-opacity="0.8046875"/>
  <rect x="14" y="9" width="1" height="5" fill="rgb(120,120,120)" fill-opacity="0.8046875"/>
  <rect x="14" y="14" width="1" height="1" fill="rgb(158,158,158)" fill-opacity="0.8046875"/>
  <rect x="14" y="15" width="1" height="1" fill="rgb(91,91,91)" fill-opacity="0.8046875"/>
  <rect x="14" y="16" width="1" height="1" fill="rgb(26,26,26)" fill-opacity="0.46875"/>
  <rect x="14" y="17" width="1" height="4" fill="rgb(255,255,255)" fill-opacity="0.0078125"/>
  <rect x="15" y="0" width="1" height="5" fill="rgb(255,255,255)" fill-opacity="0.0078125"/>
  <rect x="15" y="5" width="1" height="1" fill="rgb(24,24,24)" fill-opacity="0.2890625"/>
  <rect x="15" y="6" width="1" height="1" fill="rgb(174,174,174)" fill-opacity="0.8046875"/>
  <rect x="15" y="7" width="1" height="1" fill="rgb(228,228,228)" fill-opacity="0.8046875"/>
  <rect x="15" y="8" width="1" height="1" fill="rgb(136,136,136)" fill-opacity="0.8046875"/>
  <rect x="15" y="9" width="1" height="4" fill="rgb(120,120,120)" fill-opacity="0.8046875"/>
  <rect x="15" y="13" width="1" height="1" fill="rgb(133,133,133)" fill-opacity="0.8046875"/>
  <rect x="15" y="14" width="1" height="1" fill="rgb(143,143,143)" fill-opacity="0.8046875"/>
  <rect x="15" y="15" width="1" height="1" fill="rgb(28,28,28)" fill-opacity="0.75"/>
  <rect x="15" y="16" width="1" height="1" fill="rgb(34,34,34)" fill-opacity="0.0625"/>
  <rect x="15" y="17" width="1" height="4" fill="rgb(255,255,255)" fill-opacity="0.0078125"/>
  <rect x="16" y="0" width="1" height="5" fill="rgb(255,255,255)" fill-opacity="0.0078125"/>
  <rect x="16" y="5" width="1" height="1" fill="rgb(32,32,32)" fill-opacity="0.0390625"/>
  <rect x="16" y="6" width="1" height="1" fill="rgb(85,85,85)" fill-opacity="0.78125"/>
  <rect x="16" y="7" width="1" height="1" fill="rgb(196,196,196)" fill-opacity="0.8046875"/>
  <rect x="16" y="8" width="1" height="1" fill="rgb(163,163,163)" fill-opacity="0.8046875"/>
  <rect x="16" y="9" width="1" height="1" fill="rgb(161,161,161)" fill-opacity="0.8046875"/>
  <rect x="16" y="10" width="1" height="1" fill="rgb(159,159,159)" fill-opacity="0.8046875"/>
  <rect x="16" y="11" width="1" height="1" fill="rgb(158,158,158)" fill-opacity="0.8046875"/>
  <rect x="16" y="12" width="1" height="1" fill="rgb(155,155,155)" fill-opacity="0.8046875"/>
  <rect x="16" y="13" width="1" height="1" fill="rgb(153,153,153)" fill-opacity="0.8046875"/>
  <rect x="16" y="14" width="1" height="1" fill="rgb(68,68,68)" fill-opacity="0.8046875"/>
  <rect x="16" y="15" width="1" height="1" fill="rgb(28,28,28)" fill-opacity="0.359375"/>
  <rect x="16" y="16" width="1" height="5" fill="rgb(255,255,255)" fill-opacity="0.0078125"/>
  <rect x="17" y="0" width="1" height="6" fill="rgb(255,255,255)" fill-opacity="0.0078125"/>
  <rect x="17" y="6" width="1" height="1" fill="rgb(27,27,27)" fill-opacity="0.34375"/>
  <rect x="17" y="7" width="1" height="1" fill="rgb(26,26,26)" fill-opacity="0.7890625"/>
  <rect x="17" y="8" width="1" height="6" fill="rgb(26,26,26)" fill-opacity="0.8046875"/>
  <rect x="17" y="14" width="1" height="1" fill="rgb(25,25,25)" fill-opacity="0.5703125"/>
  <rect x="17" y="15" width="1" height="1" fill="rgb(64,64,64)" fill-opacity="0.0234375"/>
  <rect x="17" y="16" width="1" height="5" fill="rgb(255,255,255)" fill-opacity="0.0078125"/>
  <rect x="18" y="0" width="1" height="21" fill="rgb(255,255,255)" fill-opacity="0.0078125"/>
  <rect x="19" y="0" width="1" height="21" fill="rgb(255,255,255)" fill-opacity="0.0078125"/>
  <rect x="20" y="0" width="1" height="21" fill="rgb(255,255,255)" fill-opacity="0.0078125"/>
</svg>