<svg xmlns="http://www.w3.org/2000/svg" shape-rendering="crispEdges" width="21" height="21" viewBox="0 0 21 21">
  <rect x="0" y="0" width="1" height="21" fill="rgb(255,255,255)" fill-opacity="0.0078125"/>
  <rect x="1" y="0" width="1" height="21" fill="rgb(255,255,255)" fill-opacity="0.0078125"/>
  <rect x="2" y="0" width="1" height="21" fill="rgb(255,255,255)" fill-opacity="0.0078125"/>
  <rect x="3" y="0" width="1" height="21" fill="rgb(255,255,255)" fill-opacity="0.0078125"/>
  <rect x="4" y="0" width="1" height="15" fill="rgb(255,255,255)" fill-opacity="0.0078125"/>
  <rect x="4" y="15" width="1" height="1" fill="rgb(23,23,23)" fill-opacity="0.265625"/>
  <rect x="4" y="16" width="1" height="1" fill="rgb(31,31,31)" fill-opacity="0.515625"/>
  <rect x="4" y="17" width="1" height="1" fill="rgb(31,31,31)" fill-opacity="0.546875"/>
  <rect x="4" y="18" width="1" height="1" fill="rgb(27,27,27)" fill-opacity="0.265625"/>
  <rect x="4" y="19" width="1" height="2" fill="rgb(255,255,255)" fill-opacity="0.0078125"/>
  <rect x="5" y="0" width="1" height="13" fill="rgb(255,255,255)" fill-opacity="0.0078125"/>
  <rect x="5" y="13" width="1" height="1" fill="rgb(27,27,27)" fill-opacity="0.078125"/>
  <rect x="5" y="14" width="1" height="1" fill="rgb(31,31,31)" fill-opacity="0.59375"/>
  <rect x="5" y="15" width="1" height="1" fill="rgb(113,113,113)" fill-opacity="0.78125"/>
  <rect x="5" y="16" width="1" height="1" fill="rgb(219,219,219)" fill-opacity="0.8046875"/>
  <rect x="5" y="17" width="1" height="1" fill="rgb(247,247,247)" fill-opacity="0.625"/>
  <rect x="5" y="18" width="1" height="1" fill="rgb(255,255,255)" fill-opacity="0.2734375"/>
  <rect x="5" y="19" width="1" height="2" fill="rgb(255,255,255)" fill-opacity="0.0078125"/>
  <rect x="6" y="0" width="1" height="12" fill="rgb(255,255,255)" fill-opacity="0.0078125"/>
  <rect x="6" y="12" width="1" height="1" fill="rgb(27,27,27)" fill-opacity="0.078125"/>
  <rect x="6" y="13" width="1" height="1" fill="rgb(35,35,35)" fill-opacity="0.75"/>
  <rect x="6" y="14" width="1" height="1" fill="rgb(201,201,201)" fill-opacity="0.796875"/>
  <rect x="6" y="15" width="1" height="1" fill="rgb(253,253,253)" fill-opacity="0.8046875"/>
  <rect x="6" y="16" width="1" height="1" fill="rgb(241,241,241)" fill-opacity="0.8046875"/>
  <rect x="6" y="17" width="1" height="1" fill="rgb(236,236,236)" fill-opacity="0.625"/>
  <rect x="6" y="18" width="1" height="1" fill="rgb(233,233,233)" fill-opacity="0.2734375"/>
  <rect x="6" y="19" width="1" height="2" fill="rgb(255,255,255)" fill-opacity="0.0078125"/>
  <rect x="7" y="0" width="1" height="4" fill="rgb(255,255,255)" fill-opacity="0.0078125"/>
  <rect x="7" y="4" width="1" height="1" fill="rgb(36,0,0)" fill-opacity="0.03125"/>
  <rect x="7" y="5" width="1" height="1" fill="rgb(45,14,6)" fill-opacity="0.515625"/>
  <rect x="7" y="6" width="1" height="1" fill="rgb(75,37,25)" fill-opacity="0.7890625"/>
  <rect x="7" y="7" width="1" height="1" fill="rgb(109,63,49)" fill-opacity="0.9296875"/>
  <rect x="7" y="8" width="1" height="1" fill="rgb(116,70,58)" fill-opacity="0.9453125"/>
  <rect x="7" y="9" width="1" height="1" fill="rgb(137,100,90)" fill-opacity="0.953125"/>
  <rect x="7" y="10" width="1" height="1" fill="rgb(149,114,106)" fill-opacity="0.9609375"/>
  <rect x="7" y="11" width="1" height="1" fill="rgb(121,100,95)" fill-opacity="0.9453125"/>
  <rect x="7" y="12" width="1" height="1" fill="rgb(59,33,26)" fill-opacity="0.9453125"/>
  <rect x="7" y="13" width="1" height="1" fill="rgb(206,206,206)" fill-opacity="0.796875"/>
  <rect x="7" y="14" width="1" height="1" fill="rgb(249,249,249)" fill-opacity="0.8046875"/>
  <rect x="7" y="15" width="1" height="1" fill="rgb(233,233,233)" fill-opacity="0.8046875"/>
  <rect x="7" y="16" width="1" height="1" fill="rgb(230,230,230)" fill-opacity="0.8046875"/>
  <rect x="7" y="17" width="1" height="1" fill="rgb(231,231,231)" fill-opacity="0.625"/>
  <rect x="7" y="18" width="1" height="1" fill="rgb(221,221,221)" fill-opacity="0.2734375"/>
  <rect x="7" y="19" width="1" height="2" fill="rgb(255,255,255)" fill-opacity="0.0078125"/>
  <rect x="8" y="0" width="1" height="3" fill="rgb(255,255,255)" fill-opacity="0.0078125"/>
  <rect x="8" y="3" width="1" height="1" fill="rgb(49,12,0)" fill-opacity="0.0859375"/>
  <rect x="8" y="4" width="1" height="1" fill="rgb(72,30,17)" fill-opacity="0.8359375"/>
  <rect x="8" y="5" width="1" height="1" fill="rgb(194,129,107)"/>
  <rect x="8" y="6" width="1" height="1" fill="rgb(232,169,148)"/>
  <rect x="8" y="7" width="1" height="1" fill="rgb(227,159,137)"/>
  <rect x="8" y="8" width="1" height="1" fill="rgb(226,163,146)"/>
  <rect x="8" y="9" width="1" height="1" fill="rgb(221,194,180)"/>
  <rect x="8" y="10" width="1" height="1" fill="rgb(250,247,245)"/>
  <rect x="8" y="11" width="1" height="1" fill="rgb(255,255,255)"/>
  <rect x="8" y="12" width="1" height="1" fill="rgb(120,100,95)" fill-opacity="0.9921875"/>
  <rect x="8" y="13" width="1" height="1" fill="rgb(253,253,253)" fill-opacity="0.8046875"/>
  <rect x="8" y="14" width="1" height="1" fill="rgb(233,233,233)" fill-opacity="0.8046875"/>
  <rect x="8" y="15" width="1" height="2" fill="rgb(230,230,230)" fill-opacity="0.8046875"/>
  <rect x="8" y="17" width="1" height="1" fill="rgb(223,223,223)" fill-opacity="0.625"/>
  <rect x="8" y="18" width="1" height="1" fill="rgb(206,206,206)" fill-opacity="0.2734375"/>
  <rect x="8" y="19" width="1" height="2" fill="rgb(255,255,255)" fill-opacity="0.0078125"/>
  <rect x="9" y="0" width="1" height="3" fill="rgb(255,255,255)" fill-opacity="0.0078125"/>
  <rect x="9" y="3" width="1" height="1" fill="rgb(44,13,5)" fill-opacity="0.390625"/>
  <rect x="9" y="4" width="1" height="1" fill="rgb(187,110,79)"/>
  <rect x="9" y="5" width="1" height="1" fill="rgb(231,141,106)"/>
  <rect x="9" y="6" width="1" height="1" fill="rgb(214,87,40)"/>
  <rect x="9" y="7" width="1" height="1" fill="rgb(205,77,35)"/>
  <rect x="9" y="8" width="1" height="1" fill="rgb(198,70,31)"/>
  <rect x="9" y="9" width="1" height="1" fill="rgb(136,66,22)"/>
  <rect x="9" y="10" width="1" height="1" fill="rgb(189,177,169)"/>
  <rect x="9" y="11" width="1" height="1" fill="rgb(202,202,202)"/>
  <rect x="9" y="12" width="1" height="1" fill="rgb(106,86,81)" fill-opacity="0.9921875"/>
  <rect x="9" y="13" width="1" height="1" fill="rgb(241,241,241)" fill-opacity="0.8046875"/>
  <rect x="9" y="14" width="1" height="2" fill="rgb(230,230,230)" fill-opacity="0.8046875"/>
  <rect x="9" y="16" width="1" height="1" fill="rgb(223,223,223)" fill-opacity="0.8046875"/>
  <rect x="9" y="17" width="1" height="1" fill="rgb(208,208,208)" fill-opacity="0.625"/>
  <rect x="9" y="18" width="1" height="1" fill="rgb(191,191,191)" fill-opacity="0.2734375"/>
  <rect x="9" y="19" width="1" height="2" fill="rgb(255,255,255)" fill-opacity="0.0078125"/>
  <rect x="10" y="0" width="1" height="3" fill="rgb(255,255,255)" fill-opacity="0.0078125"/>
  <rect x="10" y="3" width="1" height="1" fill="rgb(58,22,10)" fill-opacity="0.6953125"/>
  <rect x="10" y="4" width="1" height="1" fill="rgb(235,152,115)"/>
  <rect x="10" y="5" width="1" height="1" fill="rgb(228,106,55)"/>
  <rect x="10" y="6" width="1" height="1" fill="rgb(176,72,32)"/>
  <rect x="10" y="7" width="1" height="1" fill="rgb(101,36,16)" fill-opacity="0.9609375"/>
  <rect x="10" y="8" width="1" height="1" fill="rgb(89,31,14)" fill-opacity="0.9375"/>
  <rect x="10" y="9" width="1" height="1" fill="rgb(102,45,20)" fill-opacity="0.9609375"/>
  <rect x="10" y="10" width="1" height="1" fill="rgb(92,48,36)" fill-opacity="0.9609375"/>
  <rect x="10" y="11" width="1" height="1" fill="rgb(60,39,34)" fill-opacity="0.984375"/>
  <rect x="10" y="12" width="1" height="1" fill="rgb(71,46,40)" fill-opacity="0.9765625"/>
  <rect x="10" y="13" width="1" height="1" fill="rgb(236,236,236)" fill-opacity="0.8046875"/>
  <rect x="10" y="14" width="1" height="1" fill="rgb(230,230,230)" fill-opacity="0.8046875"/>
  <rect x="10" y="15" width="1" height="1" fill="rgb(223,223,223)" fill-opacity="0.8046875"/>
  <rect x="10" y="16" width="1" height="1" fill="rgb(208,208,208)" fill-opacity="0.8046875"/>
  <rect x="10" y="17" width="1" height="1" fill="rgb(194,194,194)" fill-opacity="0.625"/>
  <rect x="10" y="18" width="1" height="1" fill="rgb(176,176,176)" fill-opacity="0.2734375"/>
  <rect x="10" y="19" width="1" height="2" fill="rgb(255,255,255)" fill-opacity="0.0078125"/>
  <rect x="11" y="0" width="1" height="3" fill="rgb(255,255,255)" fill-opacity="0.0078125"/>
  <rect x="11" y="3" width="1" height="1" fill="rgb(91,36,15)" fill-opacity="0.921875"/>
  <rect x="11" y="4" width="1" height="1" fill="rgb(232,107,52)"/>
  <rect x="11" y="5" width="1" height="1" fill="rgb(233,109,55)"/>
  <rect x="11" y="6" width="1" height="1" fill="rgb(118,50,24)"/>
  <rect x="11" y="7" width="1" height="1" fill="rgb(43,21,0)" fill-opacity="0.0546875"/>
  <rect x="11" y="8" width="1" height="3" fill="rgb(255,255,255)" fill-opacity="0.0078125"/>
  <rect x="11" y="11" width="1" height="1" fill="rgb(28,28,28)" fill-opacity="0.7890625"/>
  <rect x="11" y="12" width="1" height="1" fill="rgb(254,254,254)" fill-opacity="0.8046875"/>
  <rect x="11" y="13" width="1" height="1" fill="rgb(233,233,233)" fill-opacity="0.8046875"/>
  <rect x="11" y="14" width="1" height="1" fill="rgb(224,224,224)" fill-opacity="0.8046875"/>
  <rect x="11" y="15" width="1" height="1" fill="rgb(208,208,208)" fill-opacity="0.8046875"/>
  <rect x="11" y="16" width="1" height="1" fill="rgb(193,193,193)" fill-opacity="0.8046875"/>
  <rect x="11" y="17" width="1" height="1" fill="rgb(179,179,179)" fill-opacity="0.625"/>
  <rect x="11" y="18" width="1" height="1" fill="rgb(161,161,161)" fill-opacity="0.2734375"/>
  <rect x="11" y="19" width="1" height="2" fill="rgb(255,255,255)" fill-opacity="0.0078125"/>
  <rect x="12" y="0" width="1" height="3" fill="rgb(255,255,255)" fill-opacity="0.0078125"/>
  <rect x="12" y="3" width="1" height="1" fill="rgb(55,19,7)" fill-opacity="0.6953125"/>
  <rect x="12" y="4" width="1" height="1" fill="rgb(225,101,46)"/>
  <rect x="12" y="5" width="1" height="1" fill="rgb(234,116,64)"/>
  <rect x="12" y="6" width="1" height="1" fill="rgb(198,114,79)"/>
  <rect x="12" y="7" width="1" height="1" fill="rgb(120,66,48)" fill-opacity="0.96875"/>
  <rect x="12" y="8" width="1" height="1" fill="rgb(113,63,46)" fill-opacity="0.9453125"/>
  <rect x="12" y="9" width="1" height="1" fill="rgb(141,102,89)" fill-opacity="0.953125"/>
  <rect x="12" y="10" width="1" height="1" fill="rgb(159,125,116)" fill-opacity="0.9609375"/>
  <rect x="12" y="11" width="1" height="1" fill="rgb(129,110,106)" fill-opacity="0.984375"/>
  <rect x="12" y="12" width="1" height="1" fill="rgb(92,67,61)" fill-opacity="0.9765625"/>
  <rect x="12" y="13" width="1" height="1" fill="rgb(231,231,231)" fill-opacity="0.8046875"/>
  <rect x="12" y="14" width="1" height="1" fill="rgb(208,208,208)" fill-opacity="0.8046875"/>
  <rect x="12" y="15" width="1" height="1" fill="rgb(194,194,194)" fill-opacity="0.8046875"/>
  <rect x="12" y="16" width="1" height="1" fill="rgb(179,179,179)" fill-opacity="0.8046875"/>
  <rect x="12" y="17" width="1" height="1" fill="rgb(163,163,163)" fill-opacity="0.625"/>
  <rect x="12" y="18" width="1" height="1" fill="rgb(150,150,150)" fill-opacity="0.2734375"/>
  <rect x="12" y="19" width="1" height="2" fill="rgb(255,255,255)" fill-opacity="0.0078125"/>
  <rect x="13" y="0" width="1" height="3" fill="rgb(255,255,255)" fill-opacity="0.0078125"/>
  <rect x="13" y="3" width="1" height="1" fill="rgb(44,13,5)" fill-opacity="0.390625"/>
  <rect x="13" y="4" width="1" height="1" fill="rgb(172,75,35)"/>
  <rect x="13" y="5" width="1" height="1" fill="rgb(228,104,49)"/>
  <rect x="13" y="6" width="1" height="1" fill="rgb(235,123,74)"/>
  <rect x="13" y="7" width="1" height="1" fill="rgb(238,144,102)"/>
  <rect x="13" y="8" width="1" height="1" fill="rgb(237,156,123)"/>
  <rect x="13" y="9" width="1" height="1" fill="rgb(187,146,118)"/>
  <rect x="13" y="10" width="1" height="1" fill="rgb(253,252,251)"/>
  <rect x="13" y="11" width="1" height="1" fill="rgb(255,255,255)"/>
  <rect x="13" y="12" width="1" height="1" fill="rgb(136,118,114)" fill-opacity="0.9921875"/>
  <rect x="13" y="13" width="1" height="1" fill="rgb(230,230,230)" fill-opacity="0.8046875"/>
  <rect x="13" y="14" width="1" height="1" fill="rgb(194,194,194)" fill-opacity="0.8046875"/>
  <rect x="13" y="15" width="1" height="1" fill="rgb(179,179,179)" fill-opacity="0.8046875"/>
  <rect x="13" y="16" width="1" height="1" fill="rgb(164,164,164)" fill-opacity="0.8046875"/>
  <rect x="13" y="17" width="1" height="1" fill="rgb(148,148,148)" fill-opacity="0.625"/>
  <rect x="13" y="18" width="1" height="1" fill="rgb(135,135,135)" fill-opacity="0.2734375"/>
  <rect x="13" y="19" width="1" height="2" fill="rgb(255,255,255)" fill-opacity="0.0078125"/>
  <rect x="14" y="0" width="1" height="3" fill="rgb(255,255,255)" fill-opacity="0.0078125"/>
  <rect x="14" y="3" width="1" height="1" fill="rgb(43,14,0)" fill-opacity="0.078125"/>
  <rect x="14" y="4" width="1" height="1" fill="rgb(69,25,11)" fill-opacity="0.8359375"/>
  <rect x="14" y="5" width="1" height="1" fill="rgb(174,76,34)"/>
  <rect x="14" y="6" width="1" height="1" fill="rgb(223,100,46)"/>
  <rect x="14" y="7" width="1" height="2" fill="rgb(226,101,47)"/>
  <rect x="14" y="9" width="1" height="1" fill="rgb(127,53,4)"/>
  <rect x="14" y="10" width="1" height="1" fill="rgb(200,198,196)"/>
  <rect x="14" y="11" width="1" height="1" fill="rgb(202,202,202)"/>
  <rect x="14" y="12" width="1" height="1" fill="rgb(111,93,89)" fill-opacity="0.9921875"/>
  <rect x="14" y="13" width="1" height="1" fill="rgb(248,248,248)" fill-opacity="0.8046875"/>
  <rect x="14" y="14" width="1" height="1" fill="rgb(186,186,186)" fill-opacity="0.8046875"/>
  <rect x="14" y="15" width="1" height="1" fill="rgb(164,164,164)" fill-opacity="0.8046875"/>
  <rect x="14" y="16" width="1" height="1" fill="rgb(149,149,149)" fill-opacity="0.8046875"/>
  <rect x="14" y="17" width="1" height="1" fill="rgb(134,134,134)" fill-opacity="0.625"/>
  <rect x="14" y="18" width="1" height="1" fill="rgb(128,128,128)" fill-opacity="0.2734375"/>
  <rect x="14" y="19" width="1" height="2" fill="rgb(255,255,255)" fill-opacity="0.0078125"/>
  <rect x="15" y="0" width="1" height="4" fill="rgb(255,255,255)" fill-opacity="0.0078125"/>
  <rect x="15" y="4" width="1" height="1" fill="rgb(36,0,0)" fill-opacity="0.03125"/>
  <rect x="15" y="5" width="1" height="1" fill="rgb(45,14,6)" fill-opacity="0.5078125"/>
  <rect x="15" y="6" width="1" height="1" fill="rgb(65,23,10)" fill-opacity="0.7734375"/>
  <rect x="15" y="7" width="1" height="1" fill="rgb(90,36,15)" fill-opacity="0.921875"/>
  <rect x="15" y="8" width="1" height="1" fill="rgb(94,38,17)" fill-opacity="0.9375"/>
  <rect x="15" y="9" width="1" height="1" fill="rgb(103,47,22)" fill-opacity="0.9609375"/>
  <rect x="15" y="10" width="1" height="1" fill="rgb(95,51,36)" fill-opacity="0.953125"/>
  <rect x="15" y="11" width="1" height="1" fill="rgb(60,34,28)" fill-opacity="0.9296875"/>
  <rect x="15" y="12" width="1" height="1" fill="rgb(49,22,16)" fill-opacity="0.9453125"/>
  <rect x="15" y="13" width="1" height="1" fill="rgb(179,179,179)" fill-opacity="0.796875"/>
  <rect x="15" y="14" width="1" height="1" fill="rgb(225,225,225)" fill-opacity="0.8046875"/>
  <rect x="15" y="15" width="1" height="1" fill="rgb(158,158,158)" fill-opacity="0.8046875"/>
  <rect x="15" y="16" width="1" height="1" fill="rgb(134,134,134)" fill-opacity="0.8046875"/>
  <rect x="15" y="17" width="1" height="1" fill="rgb(128,128,128)" fill-opacity="0.625"/>
  <rect x="15" y="18" width="1" height="1" fill="rgb(128,128,128)" fill-opacity="0.2734375"/>
  <rect x="15" y="19" width="1" height="2" fill="rgb(255,255,255)" fill-opacity="0.0078125"/>
  <rect x="16" y="0" width="1" height="12" fill="rgb(255,255,255)" fill-opacity="0.0078125"/>
  <rect x="16" y="12" width="1" height="1" fill="rgb(27,27,27)" fill-opacity="0.078125"/>
  <rect x="16" y="13" width="1" height="1" fill="rgb(34,34,34)" fill-opacity="0.75"/>
  <rect x="16" y="14" width="1" height="1" fill="rgb(162,162,162)" fill-opacity="0.796875"/>
  <rect x="16" y="15" width="1" height="1" fill="rgb(218,218,218)" fill-opacity="0.8046875"/>
  <rect x="16" y="16" width="1" height="1" fill="rgb(170,170,170)" fill-opacity="0.8046875"/>
  <rect x="16" y="17" width="1" height="1" fill="rgb(148,148,148)" fill-opacity="0.625"/>
  <rect x="16" y="18" width="1" height="1" fill="rgb(135,135,135)" fill-opacity="0.2734375"/>
  <rect x="16" y="19" width="1" height="2" fill="rgb(255,255,255)" fill-opacity="0.0078125"/>
  <rect x="17" y="0" width="1" height="13" fill="rgb(255,255,255)" fill-opacity="0.0078125"/>
  <rect x="17" y="13" width="1" height="1" fill="rgb(27,27,27)" fill-opacity="0.078125"/>
  <rect x="17" y="14" width="1" height="1" fill="rgb(31,31,31)" fill-opacity="0.59375"/>
  <rect x="17" y="15" width="1" height="1" fill="rgb(73,73,73)" fill-opacity="0.7734375"/>
  <rect x="17" y="16" width="1" height="1" fill="rgb(158,158,158)" fill-opacity="0.8046875"/>
  <rect x="17" y="17" width="1" height="1" fill="rgb(182,182,182)" fill-opacity="0.625"/>
  <rect x="17" y="18" width="1" height="1" fill="rgb(195,195,195)" fill-opacity="0.2734375"/>
  <rect x="17" y="19" width="1" height="2" fill="rgb(255,255,255)" fill-opacity="0.0078125"/>
  <rect x="18" y="0" width="1" height="15" fill="rgb(255,255,255)" fill-opacity="0.0078125"/>
  <rect x="18" y="15" width="1" height="1" fill="rgb(23,23,23)" fill-opacity="0.265625"/>
  <rect x="18" y="16" width="1" height="1" fill="rgb(31,31,31)" fill-opacity="0.515625"/>
  <rect x="18" y="17" width="1" height="1" fill="rgb(32,32,32)" fill-opacity="0.5390625"/>
  <rect x="18" y="18" width="1" height="1" fill="rgb(27,27,27)" fill-opacity="0.265625"/>
  <rect x="18" y="19" width="1" height="2" fill="rgb(255,255,255)" fill-opacity="0.0078125"/>
  <rect x="19" y="0" width="1" height="21" fill="rgb(255,255,255)" fill-opacity="0.0078125"/>
  <rect x="20" y="0" width="1" height="21" fill="rgb(255,255,255)" fill-opacity="0.0078125"/>
</svg>